<svg viewBox="-199.7577858738373 -175.11310602551924 405.7285745393024 394.34675030835024" xmlns="http://www.w3.org/2000/svg">
<style>
svg { stroke:black; stroke-width:2; fill:none;}
</style>
<polyline points="108.95879695032852 -0.6412920167595879 107.3281148885776 -5.871167080951858 105.44207631553164 -13.073914288724907"/>
<polyline points="105.44207631553164 -13.073914288724907 103.55603774248569 -20.276661496497972 101.54317307007211 -28.961425528744776"/>
<polyline points="101.54317307007211 -28.961425528744776 99.53030839765856 -37.646189560991594 97.5277910268862 -47.221118101165686"/>
<polyline points="97.5277910268862 -47.221118101165686 95.52527365611382 -56.79604664133977 93.66957183648438 -66.60862413274582"/>
<polyline points="93.66957183648438 -66.60862413274582 91.81387001685493 -76.42120162415193 90.23144676068391 -85.80271712680168"/>
<polyline points="90.23144676068391 -85.80271712680168 88.64902350451283 -95.1842326294514 87.44771834163019 -103.4953513655267"/>
<polyline points="87.44771834163019 -103.4953513655267 86.24641317874755 -111.80647010160196 85.50809307075309 -118.48080306401229"/>
<polyline points="85.50809307075309 -118.48080306401229 84.76977296275864 -125.1551360264227 84.54475320488054 -129.73783845363658"/>
<polyline points="84.54475320488054 -129.73783845363658 84.31973344700242 -134.3205408808505 84.62334876387733 -136.49930917572723"/>
<polyline points="84.62334876387733 -136.49930917572723 84.92696408075223 -138.6780774706039 85.73852359028314 -138.30443217443238"/>
<polyline points="85.73852359028314 -138.30443217443238 86.55008309981407 -137.93078687826085 87.81428036259199 -135.0301913004971"/>
<polyline points="87.81428036259199 -135.0301913004971 89.0784776253699 -132.1295957227334 90.70915968712124 -126.89972065854124"/>
<polyline points="90.70915968712124 -126.89972065854124 92.33984174887257 -121.66984559434906 94.22588032191851 -114.467098386576"/>
<polyline points="94.22588032191851 -114.467098386576 96.11191889496446 -107.26435117880294 98.12478356737803 -98.57958714655615"/>
<polyline points="98.12478356737803 -98.57958714655615 100.13764823979162 -89.89482311430935 102.14016561056395 -80.31989457413522"/>
<polyline points="102.14016561056395 -80.31989457413522 104.14268298133632 -70.74496603396113 105.99838480096578 -60.93238854255507"/>
<polyline points="105.99838480096578 -60.93238854255507 107.85408662059524 -51.119811051149014 109.43650987676627 -41.738295548499245"/>
<polyline points="109.43650987676627 -41.738295548499245 111.01893313293732 -32.356780045849476 112.22023829581998 -24.04566130977423"/>
<polyline points="112.22023829581998 -24.04566130977423 113.42154345870263 -15.734542573698954 114.15986356669707 -9.060209611288611"/>
<polyline points="114.15986356669707 -9.060209611288611 114.89818367469151 -2.3858766488782477 115.12320343256965 2.1968257783356813"/>
<polyline points="115.12320343256965 2.1968257783356813 115.34822319044771 6.7795282055496 115.04460787357286 8.958296500426286"/>
<polyline points="115.04460787357286 8.958296500426286 114.74099255669795 11.137064795302976 113.92943304716702 10.763419499131434"/>
<polyline points="113.92943304716702 10.763419499131434 113.11787353763609 10.389774202959902 111.85367627485816 7.489178625196181"/>
<polyline points="111.85367627485816 7.489178625196181 110.58947901208029 4.588583047432443 108.95879695032892 -0.6412920167597057"/>
<polyline points="108.95879695032892 -0.6412920167597057 107.32811488857759 -5.871167080951865 105.44207631553165 -13.073914288724918"/>
<polyline points="105.44207631553165 -13.073914288724918 103.5560377424857 -20.27666149649799 101.54317307007213 -28.961425528744797"/>
<polyline points="101.54317307007213 -28.961425528744797 99.53030839765856 -37.64618956099161 97.52779102688619 -47.22111810116569"/>
<polyline points="97.52779102688619 -47.22111810116569 95.52527365611381 -56.79604664133978 93.66957183648438 -66.60862413274586"/>
<polyline points="93.66957183648438 -66.60862413274586 91.81387001685492 -76.42120162415193 90.23144676068388 -85.80271712680168"/>
<polyline points="90.23144676068388 -85.80271712680168 88.64902350451283 -95.1842326294514 87.44771834163019 -103.4953513655267"/>
<polyline points="87.44771834163019 -103.4953513655267 95.15973600904863 -119.78105773545335 91.00499337096358 -115.34407755008418"/>
<polyline points="95.15973600904863 -119.78105773545335 91.01306591608181 -113.26925681453675"/>
<polyline points="86.866395823115 -106.75745589362022 82.71972573014818 -100.24565497270363"/>
<polyline points="82.71972573014818 -100.24565497270363 78.56498309206312 -95.80867478733447"/>
<polyline points="82.71972573014818 -100.24565497270363 95.44695772287274 -107.51362165535048 90.19380077303518 -108.66681539318037"/>
<polyline points="95.44695772287274 -107.51362165535048 89.43367356065625 -106.22947046279756"/>
<polyline points="83.42038939843975 -104.94531927024464 77.40710523622327 -103.66116807769177"/>
<polyline points="77.40710523622327 -103.66116807769177 72.15394828638567 -104.81436181552158"/>
<polyline points="77.40710523622327 -103.66116807769177 91.53950197379432 -99.57972520216104 87.23424330598205 -105.97972022308255"/>
<polyline points="91.53950197379432 -99.57972520216104 85.65320267052117 -103.94896154979796"/>
<polyline points="79.76690336724798 -108.31819789743489 73.88060406397483 -112.68743424507181"/>
<polyline points="73.88060406397483 -112.68743424507181 69.57534539616253 -119.0874292659933"/>
<polyline points="44.44910754760897 -134.5336159832564 36.88739427604534 -138.97996210790743"/>
<polyline points="29.325681004481673 -143.42630823255834 28.892895078313813 -158.26205322962582 28.884753729140524 -148.48519738814878"/>
<polyline points="28.892895078313813 -158.26205322962582 29.000694046020644 -149.36140689010813"/>
<polyline points="29.108493013727436 -140.46076055059052 29.216291981434267 -131.5601142110729"/>
<polyline points="29.216291981434267 -131.5601142110729 29.208150632260942 -121.78325836959584"/>
<polyline points="29.216291981434267 -131.5601142110729 31.809759808286795 -140.9774761572825 34.43052026902761 -150.61702049430843"/>
<polyline points="34.43052026902761 -150.61702049430843 37.051280729768436 -160.25656483133432 39.52073333000945 -169.46137254270838"/>
<polyline points="39.52073333000945 -169.46137254270838 37.37087770401127 -161.3185938908523 35.68712816036324 -154.79276120706018"/>
<polyline points="39.1694443012485 -126.85734900931087 37.48569475760049 -120.33151632551878"/>
<polyline points="35.80194521395251 -113.80568364172672 46.84019416256247 -107.75437715520475 42.771028881039896 -105.95417279643968"/>
<polyline points="46.84019416256247 -107.75437715520475 41.87693016502333 -108.38871617541909"/>
<polyline points="36.913666167484195 -109.02305519563348 31.950402169945065 -109.65739421584786"/>
<polyline points="31.950402169945065 -109.65739421584786 27.881236888422528 -107.85718985708286"/>
<polyline points="31.950402169945065 -109.65739421584786 27.881236888422528 -107.85718985708286 24.983477212238718 -103.74512307140988"/>
<polyline points="24.983477212238718 -103.74512307140988 23.454600674551322 -97.6014244147609 23.398797684815776 -89.84477679764443"/>
<polyline points="23.398797684815776 -89.84477679764443 23.342994695080225 -82.088129180528 24.764068134828204 -73.24713531958432"/>
<polyline points="24.764068134828204 -73.24713531958432 26.1851415745762 -64.40614145864066 28.98624763732379 -55.083300475059914"/>
<polyline points="28.98624763732379 -55.083300475059914 31.78735370007137 -45.76045949147914 35.77760163668897 -36.59110759156916"/>
<polyline points="35.77760163668897 -36.59110759156916 39.767849573306556 -27.42175569165918 44.67531058111014 -19.03076905432835 56.63733271631322 -3.160361799563892 49.423042550693125 -9.132347545696817"/>
<polyline points="56.63733271631322 -3.160361799563892 49.80694218626814 -10.359252746990132"/>
<polyline points="42.976551656223066 -17.55814369441635 36.146161126177994 -24.757034641842584"/>
<polyline points="36.146161126177994 -24.757034641842584 28.931870960557895 -30.7290203879755"/>
<polyline points="44.67531058111014 -19.03076905432835 39.76784957330655 -27.42175569165918 34.277610852036 -34.4625451938378"/>
<polyline points="34.277610852036 -34.4625451938378 28.78737213076545 -41.503334696016424 23.088506391834066 -46.71410889392421"/>
<polyline points="23.088506391834066 -46.71410889392421 17.389640652902678 -51.92488309183198 11.870516178597681 -54.950536335092984"/>
<polyline points="11.870516178597681 -54.950536335092984 6.351391704292694 -57.97618957835398 1.3881277067535582 -58.61052859856838"/>
<polyline points="1.3881277067535582 -58.61052859856838 -3.5751362907855895 -59.24486761878277 -7.644301572308141 -57.44466326001774"/>
<polyline points="-7.644301572308141 -57.44466326001774 -11.713466853830713 -55.64445890125272 -14.611226530014507 -51.53239211557973"/>
<polyline points="-14.611226530014507 -51.53239211557973 -11.413249321474579 -47.97129819941522 -15.251744577035993 -53.708790416410956"/>
<polyline points="-11.413249321474579 -47.97129819941522 -14.227898082198433 -51.86292164008928"/>
<polyline points="-17.04254684292229 -55.75454508076335 -19.857195603646122 -59.64616852143743"/>
<polyline points="-19.857195603646122 -59.64616852143743 -23.695690859207534 -65.38366073843319"/>
<polyline points="-19.857195603646122 -59.64616852143743 -8.008196668605903 -51.22291476618268 -14.864209511537977 -58.0585576893209"/>
<polyline points="-8.008196668605903 -51.22291476618268 -14.623876652830376 -56.941402407830815"/>
<polyline points="-21.239556637054857 -62.65989004947893 -27.85523662127936 -68.37837769112704"/>
<polyline points="-27.85523662127936 -68.37837769112704 -34.71124946421141 -75.21402061426524"/>
<polyline points="-27.85523662127936 -68.37837769112704 -10.84217330465989 -58.511675704033046 -18.222027641984095 -64.49229653523959"/>
<polyline points="-10.84217330465989 -58.511675704033046 -19.065571811699947 -64.16116323595008"/>
<polyline points="-27.288970318740013 -69.81065076786714 -35.512368825780065 -75.46013829978419"/>
<polyline points="-35.512368825780065 -75.46013829978419 -42.89222316310426 -81.44075913099073"/>
<polyline points="-76.6293613609804 -103.70757595936949 -86.0326593488691 -107.02919028319504"/>
<polyline points="-95.43595733675777 -110.35080460702062 -103.50369416404573 -125.42761024339978 -99.75955874992951 -121.82004936844227"/>
<polyline points="-103.50369416404573 -125.42761024339978 -99.47750311703643 -119.65803488378437"/>
<polyline points="-95.45131207002716 -113.88845952416894 -91.42512102301788 -108.11888416455353"/>
<polyline points="-91.42512102301788 -108.11888416455353 -87.68098560890172 -104.51132328959599"/>
<polyline points="-91.42512102301788 -108.11888416455353 -92.67696565056988 -112.3819656591614 -93.47652075343264 -114.2148470337942"/>
<polyline points="-93.47652075343264 -114.2148470337942 -94.2760758562954 -116.047728408427 -94.56885307553611 -115.32550182638316"/>
<polyline points="-94.56885307553611 -115.32550182638316 -94.80280602357149 -118.55361781707317 -95.54754563209978 -124.06763244635772"/>
<polyline points="-88.28521308760158 -147.41318755524117 -89.02995269612984 -152.92720218452578"/>
<polyline points="-89.7746923046582 -158.4412168138103 -80.56135621405251 -175.11310602551924 -81.95436898808029 -165.23579139510522"/>
<polyline points="-80.56135621405251 -175.11310602551924 -83.66701953521066 -165.68522929804786"/>
<polyline points="-86.77268285636877 -156.25735257057653 -89.87834617752684 -146.8294758431052"/>
<polyline points="-89.87834617752684 -146.8294758431052 -91.27135895155452 -136.9521612126912"/>
<polyline points="-89.87834617752684 -146.8294758431052 -91.27135895155452 -136.9521612126912 -90.85678965996436 -127.29853134836304"/>
<polyline points="-90.85678965996436 -127.29853134836304 -88.66289051487004 -118.52646517199699 -84.83917211741993 -111.23376449698776"/>
<polyline points="-84.83917211741993 -111.23376449698776 -81.01545371996984 -103.94106382197849 -75.82249615995684 -98.62471414757013"/>
<polyline points="-75.82249615995684 -98.62471414757013 -70.62953859994379 -93.30836447316173 -64.42123335331453 -90.330666243982"/>
<polyline points="-64.42123335331453 -90.330666243982 -58.21292810668531 -87.35296801480224 -51.4123609162881 -86.91684644429071"/>
<polyline points="-51.4123609162881 -86.91684644429071 -44.61179372589094 -86.48072487377917 -37.68241200728277 -88.61590092624122 -20.818744591638442 -86.9971884736007 -28.817433170112214 -82.75945421109816"/>
<polyline points="-20.818744591638442 -86.9971884736007 -29.32380876898805 -85.2225294144504"/>
<polyline points="-37.82887294633763 -83.44787035530011 -46.333937123687214 -81.67321129614983"/>
<polyline points="-46.333937123687214 -81.67321129614983 -54.33262570216099 -77.4354770336473"/>
<polyline points="-37.68241200728277 -88.61590092624122 -44.611793725890934 -86.48072487377915 -51.197764059931686 -81.91975991777352"/>
<polyline points="-51.197764059931686 -81.91975991777352 -57.78373439397249 -77.35879496176787 -63.57747034901158 -70.68286332661947"/>
<polyline points="-63.57747034901158 -70.68286332661947 -69.37120630405062 -64.00693169147105 -73.97787434935347 -55.670987085616595"/>
<polyline points="-73.97787434935347 -55.670987085616595 -78.58454239465628 -47.33504247976215 -81.69020571581436 -37.90716575229082"/>
<polyline points="-81.69020571581436 -37.90716575229082 -84.79586903697245 -28.47928902481947 -86.18888181100017 -18.601974394405463"/>
<polyline points="-86.18888181100017 -18.601974394405463 -87.5818945850279 -8.724659763991465 -87.1673252934377 0.9289701003366834"/>
<polyline points="-87.1673252934377 0.9289701003366834 -79.25122872655332 19.149031970074002 -86.14368994872375 12.327101777446694"/>
<polyline points="-79.25122872655332 19.149031970074002 -84.86786574479028 10.902042038816026"/>
<polyline points="-90.48450276302722 2.6550521075580567 -96.10113978126418 -5.591937823699927"/>
<polyline points="-96.10113978126418 -5.591937823699927 -102.99360100343458 -12.413868016327235"/>
<polyline points="-96.10113978126418 -5.591937823699927 -79.66643188300519 5.760676526560919 -88.79386738439621 4.046916398423398"/>
<polyline points="-79.66643188300519 5.760676526560919 -88.6447555691812 1.9352962012105845"/>
<polyline points="-97.62307925535721 -1.890084124139751 -106.60140294153321 -5.715464449490081"/>
<polyline points="-106.60140294153321 -5.715464449490081 -115.72883844292427 -7.42922457762759"/>
<polyline points="-106.60140294153321 -5.715464449490081 -86.87876522226605 -5.082811102262913 -95.10615493600646 -1.1646106693364302"/>
<polyline points="-86.87876522226605 -5.082811102262913 -96.2421697824629 -3.2183440483325327"/>
<polyline points="-105.60557434265974 -1.3538769944021565 -114.96897890285658 0.5105900595282103"/>
<polyline points="-114.96897890285658 0.5105900595282103 -123.19636861659698 4.428790492454703"/>
<polyline points="-161.78600170384075 9.832925329180073 -171.42611205604646 12.446102441152506"/>
<polyline points="-181.06622240825212 15.059279553124906 -191.6362094554094 24.555209071825562 -188.61179001993884 16.045116792661958"/>
<polyline points="-191.6362094554094 24.555209071825562 -187.33494080056212 17.692333746579703"/>
<polyline points="-183.03367214571486 10.829458421333841 -178.73240349086757 3.9665830960879824"/>
<polyline points="-178.73240349086757 3.9665830960879824 -175.707984055397 -4.543509183075588"/>
<polyline points="-178.73240349086757 3.9665830960879824 -179.6088099231134 12.113966418406 -179.07544971774982 21.340976977411255"/>
<polyline points="-179.07544971774982 21.340976977411255 -178.54208951238627 30.567987536416503 -176.63531028598948 40.245819810868724"/>
<polyline points="-176.63531028598948 40.245819810868724 -179.7855646802422 30.776694097099426 -183.96460961142398 22.16158021293632"/>
<polyline points="-191.39969601147362 -13.685961021441576 -195.5787409426554 -22.30107490560469"/>
<polyline points="-199.7577858738373 -30.916188789767784 -198.1698255848542 -41.8629226572288 -196.20771802759322 -40.54640575658006"/>
<polyline points="-198.1698255848542 -41.8629226572288 -197.56515834179206 -38.34822015648665"/>
<polyline points="-196.96049109872993 -34.83351765574451 -196.35582385566775 -31.318815155002348"/>
<polyline points="-196.35582385566775 -31.318815155002348 -194.39371629840676 -30.0022982543536"/>
<polyline points="-196.35582385566775 -31.318815155002348 -194.39371629840676 -30.0022982543536 -191.2078828144382 -30.973685404930492"/>
<polyline points="-191.2078828144382 -30.973685404930492 -187.01543269085576 -34.166778177714285 -182.1020744752302 -39.36397257707514"/>
<polyline points="-182.1020744752302 -39.36397257707514 -177.18871625960455 -44.56116697643599 -171.8892871946224 -51.40828279282726"/>
<polyline points="-171.8892871946224 -51.40828279282726 -166.58985812964016 -58.25539860921853 -161.26550554835924 -66.28581621514707"/>
<polyline points="-161.26550554835924 -66.28581621514707 -155.94115296707838 -74.31623382107561 -150.9547226990044 -82.98269352758992"/>
<polyline points="-150.9547226990044 -82.98269352758992 -145.96829243093046 -91.64915323410422 -141.65960145836704 -100.36105013420723 -127.65609665009032 -114.61227956440288 -132.73873832445238 -107.7830577532236"/>
<polyline points="-127.65609665009032 -114.61227956440288 -133.9114393221704 -107.38872463581727"/>
<polyline points="-140.16678199425044 -100.16516970723163 -146.42212466633057 -92.94161477864593"/>
<polyline points="-146.42212466633057 -92.94161477864593 -151.5047663406926 -86.11239296746665"/>
<polyline points="-146.42212466633057 -92.94161477864593 -141.33948299196842 -99.77083658982527 -138.189910911414 -106.22333188831614"/>
<polyline points="-138.189910911414 -106.22333188831614 -135.04033883085958 -112.67582718680698 -134.03847447648866 -118.3118690812699"/>
<polyline points="-134.03847447648866 -118.3118690812699 -132.82435570458483 -113.87636753194296 -129.47699399428535 -110.94367842832574"/>
<polyline points="-111.07233847841971 -92.0720124412574 -107.7249767681202 -89.1393233376402"/>
<polyline points="-104.37761505782078 -86.20663423402296 -86.91009902210675 -78.65543344754006 -96.61648312058043 -77.4456926287097"/>
<polyline points="-86.91009902210675 -78.65543344754006 -96.45541897031366 -79.98362009737255"/>
<polyline points="-106.00073891852055 -81.31180674720503 -115.54605886672749 -82.63999339703747"/>
<polyline points="-115.54605886672749 -82.63999339703747 -125.25244296520114 -81.4302525782071"/>
<polyline points="-115.54605886672749 -82.63999339703747 -125.25244296520114 -81.4302525782071 -134.45841717818857 -77.76502612832594"/>
<polyline points="-134.45841717818857 -77.76502612832594 -142.53660957666656 -71.89409317288029 -148.93650469852292 -64.21754809060835"/>
<polyline points="-157.0146970970008 -58.34661513516271 -165.0928894954788 -52.47568217971708 -171.98025871197382 -45.37080988965112"/>
<polyline points="-171.98025871197382 -45.37080988965112 -178.8676279284689 -38.26593759958514 -184.09481113279247 -30.411311280110233"/>
<polyline points="-184.09481113279247 -30.411311280110233 -180.88403783768615 -38.48041182570559 -179.9084833458049 -46.21409073005819"/>
<polyline points="-171.25813738127903 -69.98440701193456 -170.28258288939773 -77.71808591628718"/>
<polyline points="-169.3070283975165 -85.45176482063977 -169.66895487710323 -86.89199098228376 -164.576896037256 -87.06923661883773"/>
<polyline points="-169.66895487710323 -86.89199098228376 -166.9394377981891 -86.61098211519838"/>
<polyline points="-164.20992071927483 -86.32997324811298 -161.48040364036063 -86.04896438102759"/>
<polyline points="-161.48040364036063 -86.04896438102759 -156.38834480051344 -86.22621001758152"/>
<polyline points="-161.48040364036063 -86.04896438102759 -156.38834480051344 -86.22621001758152 -149.2807595946437 -86.84963116055592"/>
<polyline points="-149.2807595946437 -86.84963116055592 -140.6420182086915 -87.87674268930921 -131.06083659191435 -89.23754865053893"/>
<polyline points="-131.06083659191435 -89.23754865053893 -140.6420182086915 -87.87674268930924 -150.51269836276148 -86.27497897302273"/>
<polyline points="-150.51269836276148 -86.27497897302273 -160.38337851683147 -84.67321525673621 -169.87088666776467 -82.93965133561814"/>
<polyline points="-169.87088666776467 -82.93965133561814 -161.41310852160584 -84.68687594519342 -154.5614439837429 -86.32869077350853"/>
<polyline points="-126.43968518925948 -82.4803151436557 -119.58802065139645 -84.12212997197084"/>
<polyline points="-112.73635611353353 -85.76394480028594 -107.49193252325132 -75.60726891098176 -105.49960617564795 -78.62377046006011"/>
<polyline points="-107.49193252325132 -75.60726891098176 -107.81798522336277 -79.79746616703275"/>
<polyline points="-108.14403792347413 -83.9876634230837 -108.47009062358555 -88.17786067913467"/>
<polyline points="-108.47009062358555 -88.17786067913467 -106.47776427598225 -91.19436222821301"/>
<polyline points="-108.47009062358555 -88.17786067913467 -106.47776427598225 -91.19436222821301 -102.30283262877845 -92.83159847475355"/>
<polyline points="-102.30283262877845 -92.83159847475355 -96.22981037433026 -92.97799447421542 -88.67256394313466 -91.62357358116606"/>
<polyline points="-88.67256394313466 -91.62357358116606 -96.22981037433026 -92.97799447421542 -104.75626712692765 -95.74093071420101"/>
<polyline points="-104.75626712692765 -95.74093071420101 -113.28272387952498 -98.50386695418658 -122.19732701647057 -102.48702900232149"/>
<polyline points="-122.19732701647057 -102.48702900232149 -113.50209296688139 -97.55508705713125 -105.61879383557435 -92.0104689080309"/>
<polyline points="-79.83872763974354 -62.140422497127446 -71.95542850843648 -56.59580434802712"/>
<polyline points="-64.07212937712949 -51.05118619892679 -62.32666082499557 -32.31924127629039 -61.16861673335249 -39.01548051224006"/>
<polyline points="-62.32666082499557 -32.31924127629039 -62.17897359694399 -40.63365386373321"/>
<polyline points="-62.03128636889245 -48.94806645117602 -61.8835991408409 -57.26247903861883"/>
<polyline points="-61.8835991408409 -57.26247903861883 -60.72555504919782 -63.9587182745685"/>
<polyline points="-61.8835991408409 -57.26247903861883 -60.72555504919782 -63.9587182745685 -58.63607288505042 -68.58044652115358"/>
<polyline points="-58.63607288505042 -68.58044652115358 -55.75754740485272 -70.8127006361364 -52.28614536309197 -70.5033561905552"/>
<polyline points="-49.40761988289429 -72.73561030553802 -56.540370016231186 -61.92733138717089 -50.68423491578819 -62.71065491734508"/>
<polyline points="-56.540370016231186 -61.92733138717089 -51.66291984839002 -65.13019791219644"/>
<polyline points="-46.78546968054891 -68.33306443722195 -41.90801951270774 -71.53593096224746"/>
<polyline points="-41.90801951270774 -71.53593096224746 -36.05188441226476 -72.31925449242168"/>
<polyline points="-41.90801951270774 -71.53593096224746 -57.38760562734604 -69.70343946055655 -50.20480843039533 -65.52184142757854"/>
<polyline points="-57.38760562734604 -69.70343946055655 -49.66310450721341 -68.01316874138678"/>
<polyline points="-41.93860338708082 -66.32289802221702 -34.21410226694821 -64.63262730304726"/>
<polyline points="-34.21410226694821 -64.63262730304726 -27.031305069997504 -60.45102927006927"/>
<polyline points="-34.21410226694821 -64.63262730304726 -51.330062709519815 -72.5074505658832 -45.437942647329756 -64.55993619209943"/>
<polyline points="-51.330062709519815 -72.5074505658832 -43.85014039551004 -66.35536016632234"/>
<polyline points="-36.37021808150024 -60.2032697667615 -28.890295767490436 -54.05117936720065"/>
<polyline points="-28.890295767490436 -54.05117936720065 -22.99817570530036 -46.1036649934169"/>
<polyline points="-28.890295767490436 -54.05117936720065 -42.440151486141794 -68.64789724516244 -40.0281464164401 -59.381995284847"/>
<polyline points="-42.440151486141794 -68.64789724516244 -37.684645069918254 -60.073604867592636"/>
<polyline points="-32.92913865369471 -51.499312490022845 -28.173632237471157 -42.92502011245305"/>
<polyline points="-28.173632237471157 -42.92502011245305 -25.76162716776944 -33.65911815213761"/>
<polyline points="-4.396100156353411 -0.0535582246041089 1.3917128707824862 7.106705626650575"/>
<polyline points="7.179525897918378 14.266969477905247 4.066766527271458 33.78931682594047 7.769432739265493 26.37688048853158"/>
<polyline points="4.066766527271458 33.78931682594047 6.789049001859553 24.899602137699485"/>
<polyline points="9.511331476447639 16.009887449458496 12.23361395103572 7.12017276121752"/>
<polyline points="12.23361395103572 7.12017276121752 15.936280163029775 -0.2922635761913578"/>
<polyline points="12.23361395103572 7.12017276121752 6.409745145146441 14.119471796936326 -0.0698985890861817 19.15042450724311"/>
<polyline points="-0.0698985890861817 19.15042450724311 -6.5495423233187795 24.181377217549866 -13.243383973524331 26.901132489279654"/>
<polyline points="-13.243383973524331 26.901132489279654 -6.791518653710991 26.677921483287143 -1.0213136236235727 28.966466204216673"/>
<polyline points="13.582010316419762 35.2021934749184 19.35221534650717 37.490738195847946"/>
<polyline points="25.12242037659458 39.77928291677747 21.151129503674003 47.75516803520939 23.65070668100354 39.85665595303724"/>
<polyline points="21.151129503674003 47.75516803520939 23.472851571620648 41.602286355332396"/>
<polyline points="25.79457363956726 35.44940467545541 28.116295707513892 29.29652299557843"/>
<polyline points="28.116295707513892 29.29652299557843 30.615872884843437 21.398010913406335"/>
<polyline points="28.116295707513892 29.29652299557843 30.615872884843437 21.398010913406335 33.122963117667496 12.292138974430715"/>
<polyline points="33.122963117667496 12.292138974430715 35.46671234978156 2.599457303127936 37.48739794424584 -7.0194938625165735"/>
<polyline points="37.48739794424584 -7.0194938625165735 35.46671234978156 2.599457303127936 33.90679677688898 11.489162337243867"/>
<polyline points="33.90679677688898 11.489162337243867 32.34688120399638 20.378867371359803 31.354041321085752 27.93350756680435"/>
<polyline points="31.354041321085752 27.93350756680435 30.361201438175147 35.48814776224887 30.003097642521354 41.192886874335706"/>
<polyline points="30.003097642521354 41.192886874335706 29.644993846867568 46.89762598642253 29.94603032034993 50.36369547219007"/>
<polyline points="29.94603032034993 50.36369547219007 30.24706679383227 53.82976495795759 31.186728398269217 54.8209579099014"/>
<polyline points="31.186728398269217 54.8209579099014 32.126390002706174 55.81215086184524 33.64064035261959 54.26091911831418"/>
<polyline points="33.64064035261959 54.26091911831418 26.587455756239635 49.3225611105896 28.631231478030568 56.27040843724774"/>
<polyline points="26.587455756239635 49.3225611105896 29.4708904198418 54.19717263573079"/>
<polyline points="32.354325083443946 59.07178416087198 35.237759747046084 63.946395686013176"/>
<polyline points="35.237759747046084 63.946395686013176 37.281535468837006 70.89424301267132"/>
<polyline points="35.23775974704608 63.946395686013155 26.559964768068344 49.91633328926646 28.560929614901088 59.53936179803764"/>
<polyline points="26.559964768068344 49.91633328926646 29.84171900000472 58.528826740790215"/>
<polyline points="33.123473231941105 67.14132019231398 36.40522746387749 75.75381364383776"/>
<polyline points="36.40522746387749 75.75381364383776 38.40619231071022 85.37684215260893"/>
<polyline points="36.40522746387749 75.75381364383776 28.245105375918556 57.50724515621314 29.17253078894392 66.72699702886528"/>
<polyline points="28.245105375918556 57.50724515621314 30.837171102250146 67.00229934010187"/>
<polyline points="33.42923682858178 76.49735352399063 36.021302554913355 85.99240770787937"/>
<polyline points="36.021302554913355 85.99240770787937 36.94872796793877 95.21215958053146"/>
<polyline points="48.98163118657142 133.4676786273231 53.767320642329885 141.84372117447745"/>
<polyline points="58.55301009808838 150.21976372163184 52.230783398719055 166.99162254750874 54.50513261473267 161.91978610840562"/>
<polyline points="52.230783398719055 166.99162254750874 55.044385860608095 160.02537033343128"/>
<polyline points="57.857988322497164 153.05911811935385 60.67159078438619 146.09286590527643"/>
<polyline points="60.67159078438619 146.09286590527643 62.94594000039978 141.02102946617327"/>
<polyline points="60.67159078438619 146.09286590527643 56.03100192828025 150.15395634118607 52.16528711911946 152.00943406529302"/>
<polyline points="52.16528711911946 152.00943406529302 48.299572309958705 153.86491178939997 45.472173623591665 153.38832906112822"/>
<polyline points="45.472173623591665 153.38832906112822 47.06857363918634 156.16449391643715 47.325182961121676 161.05104985172323"/>
<polyline points="39.48418360926354 175.33475495306925 39.74079293119883 180.2213108883554"/>
<polyline points="39.997402253134126 185.1078668236415 25.68758188689417 192.70309246652758 32.656416491182895 185.75146956802737"/>
<polyline points="25.68758188689417 192.70309246652758 32.99857016519187 187.13887861729233"/>
<polyline points="40.30955844348953 181.5746647680571 47.620546721787214 176.0104509188219"/>
<polyline points="47.620546721787214 176.0104509188219 54.58938132607598 169.05882802032164"/>
<polyline points="47.620546721787214 176.0104509188219 54.58938132607598 169.05882802032164 60.74114769461726 161.1935376849892"/>
<polyline points="60.74114769461726 161.1935376849892 65.65661311566959 152.95058645117058 69.0007967439789 144.89171782332957"/>
<polyline points="69.0007967439789 144.89171782332957 72.34498037228823 136.83284919548856 73.88998162011002 129.50726175270242"/>
<polyline points="73.88998162011002 129.50726175270242 75.43498286793181 122.18167430991625 75.07551245346227 116.08859473030518"/>
<polyline points="75.07551245346227 116.08859473030518 74.71604203899275 109.99551515069412 72.47659727692509 105.55017673831853"/>
<polyline points="72.47659727692509 105.55017673831853 70.23715251485744 101.10483832594295 66.2703478648691 98.61018354733719 58.41728055811698 87.09818770974597 65.30217575289954 88.60721668230323"/>
<polyline points="58.41728055811698 87.09818770974597 64.0136879394655 90.85884235507416"/>
<polyline points="69.610095320814 94.6194970004023 75.20650270216252 98.38015164573045"/>
<polyline points="75.20650270216252 98.38015164573045 82.09139789694507 99.88918061828771"/>
<polyline points="66.2703478648691 98.61018354733719 70.23715251485744 101.10483832594295 75.66098587132441 101.47880287022889"/>
<polyline points="75.66098587132441 101.47880287022889 81.08481922779144 101.85276741451482 87.59605601080222 100.08055665879344"/>
<polyline points="87.59605601080222 100.08055665879344 94.10729279381302 98.30834590307202 101.26220297693303 94.51073308162903"/>
<polyline points="101.26220297693303 94.51073308162903 108.417113160053 90.71312026018603 115.72810143835068 85.14890641095077"/>
<polyline points="115.72810143835068 85.14890641095077 123.03908971664832 79.5846925617155 130.0079243209371 72.63306966321528"/>
<polyline points="130.0079243209371 72.63306966321528 136.97675892522582 65.68144676471508 143.12852529376718 57.81615642938262"/>
<polyline points="143.12852529376718 57.81615642938262 149.28029166230849 49.95086609405018 154.19575708336077 41.70791486023154"/>
<polyline points="154.19575708336077 41.70791486023154 159.1112225044131 33.46496362641296 162.45540613272237 25.406094998571955"/>
<polyline points="162.45540613272237 25.406094998571955 165.7995897610317 17.34722637073093 167.34459100885348 10.021638927944737"/>
<polyline points="167.34459100885348 10.021638927944737 168.88959225667526 2.696051485158614 168.5301218422058 -3.3970280944524784"/>
<polyline points="168.5301218422058 -3.3970280944524784 168.17065142773626 -9.490107674063536 165.9312066656686 -13.935446086439152"/>
<polyline points="165.9312066656686 -13.935446086439152 163.69176190360096 -18.38078449881475 159.72495725361253 -20.87543927742052"/>
<polyline points="159.72495725361253 -20.87543927742052 154.12992207319812 -24.74722149543845 147.13333879624022 -26.451388999543926"/>
<polyline points="147.13333879624022 -26.451388999543926 140.13675551928242 -28.155556503649393 132.21542973370518 -27.575973094707575"/>
<polyline points="132.21542973370518 -27.575973094707575 140.52167276622438 -30.39980976518416 148.64677630973512 -35.275459894713315"/>
<polyline points="174.28942840645502 -59.09432405313882 182.41453194996575 -63.96997418266797"/>
<polyline points="190.53963549347645 -68.84562431219712 193.38774151400554 -87.38281240448711 192.81949783070473 -77.5276598284745"/>
<polyline points="193.38774151400554 -87.38281240448711 192.35645285842656 -77.48363272542835"/>
<polyline points="191.32516420284756 -67.58445304636955 190.29387554726856 -57.68527336731078"/>
<polyline points="190.29387554726856 -57.68527336731078 189.7256318639677 -47.83012079129812"/>
<polyline points="190.29387554726856 -57.68527336731078 189.7256318639677 -47.83012079129812 189.6591580208949 -38.69060767997726"/>
<polyline points="189.6591580208949 -38.69060767997726 190.09898410060228 -30.889576748125076 191.01513668260478 -24.958655361934174"/>
<polyline points="191.01513668260478 -24.958655361934174 190.09898410060228 -30.889576748125076 188.76893930075443 -34.546206097496786"/>
<polyline points="188.76893930075443 -34.546206097496786 187.43889450090649 -38.20283544686847 185.78559783831994 -39.335979512127054"/>
<polyline points="185.78559783831994 -39.335979512127054 187.64947692829182 -40.803542626419876 189.59691816587338 -44.77180091928779"/>
<polyline points="186.96693785716022 -60.9837916038701 188.91437909474172 -64.95204989673798"/>
<polyline points="190.86182033232325 -68.92030818960589 181.74347285258727 -83.01144464033572 184.04113022837063 -73.40329566561098"/>
<polyline points="181.74347285258727 -83.01144464033572 185.29282981615157 -74.39084627406646"/>
<polyline points="188.8421867797158 -65.7702479077972 192.39154374328007 -57.1496495415279"/>
<polyline points="192.39154374328007 -57.1496495415279 194.68920111906348 -47.54150056680321"/>
<polyline points="192.39154374328007 -57.1496495415279 194.68920111906348 -47.54150056680321 195.5785773539647 -37.60058045803354"/>
<polyline points="195.5785773539647 -37.60058045803354 194.99906292733894 -28.004346492484423 192.99015078966784 -19.406766156381515"/>
<polyline points="192.99015078966784 -19.406766156381515 194.99906292733894 -28.004346492484423 198.30046873375727 -35.01736230740895"/>
<polyline points="198.30046873375727 -35.01736230740895 201.60187454017574 -42.03037812233351 205.97078866546505 -46.9809039778492"/>
<polyline points="205.97078866546505 -46.9809039778492 200.83210049897124 -44.430238237664966 195.2738313977359 -44.45325626783133"/>
<polyline points="165.24149365286476 -43.41874826189875 159.6832245516294 -43.44176629206511"/>
<polyline points="154.124955450394 -43.46478432223146 135.87554821152835 -50.543637372280195 142.00511507100842 -42.806492280678235"/>
<polyline points="135.87554821152835 -50.543637372280195 143.77173964970393 -44.706454376589335"/>
<polyline points="151.6679310878795 -38.869271380898525 159.56412252605514 -33.032088385207686"/>
<polyline points="159.56412252605514 -33.032088385207686 165.69368938553524 -25.29494329360571"/>
<polyline points="159.56412252605514 -33.032088385207686 165.69368938553524 -25.29494329360571 169.6389118144343 -16.185109757848423"/>
<polyline points="169.6389118144343 -16.185109757848423 171.1309294240113 -6.3234078786860115 170.0680636798492 3.61810365804954"/>
<polyline points="171.5600812894262 13.479805537211961 162.05032620684415 -4.081886561324098 162.10313064531533 5.599112898914284"/>
<polyline points="162.05032620684415 -4.081886561324098 164.53896552516144 5.474667889877317"/>
<polyline points="167.0276048434787 15.031222341078738 169.51624416179604 24.58777679228015"/>
<polyline points="169.51624416179604 24.58777679228015 169.56904860026722 34.268776252518556"/>
<polyline points="169.51624416179604 24.58777679228015 168.99579843931537 7.180163863932056 164.23759070719984 14.642105249486555"/>
<polyline points="168.99579843931537 7.180163863932056 166.66747014098436 15.5481707076018"/>
<polyline points="164.33914184265336 23.916177551271563 162.0108135443223 32.284184394941306"/>
<polyline points="162.0108135443223 32.284184394941306 157.25260581220675 39.746125780495824"/>
<polyline points="162.0108135443223 32.284184394941306 170.8058619273364 20.41635661675848 162.61654262999875 23.31370112584757"/>
<polyline points="170.8058619273364 20.41635661675848 164.2904323020611 24.987752348099853"/>
<polyline points="157.77500267678573 29.559148079441265 151.2595730515104 34.13054381078265"/>
<polyline points="151.2595730515104 34.13054381078265 143.0702537541727 37.02788831987174"/>
<polyline points="151.2595730515104 34.13054381078265 166.05907198194635 31.993745451022125 156.95606660373775 29.494266341475992"/>
<polyline points="166.05907198194635 31.993745451022125 157.51661748167302 31.252963969299106"/>
<polyline points="148.97416298139964 30.512182487576112 140.43170848112638 29.771401005853075"/>
<polyline points="140.43170848112638 29.771401005853075 131.3287031029178 27.271921896306925"/>
<polyline points="97.7194359797597 26.067493597238006 90.69469085968652 24.011881174894288"/>
<polyline points="83.66994573961335 21.956268752550557 64.50204204069038 16.535121029781443 71.39787494645668 23.64022677605665"/>
<polyline points="64.50204204069038 16.535121029781443 73.03260634837666 21.616090675955018"/>
<polyline points="81.56317065606291 26.697060322128582 90.0937349637492 31.778029968302146"/>
<polyline points="90.0937349637492 31.778029968302146 96.98956786951548 38.88313571457737"/>
<polyline points="90.0937349637492 31.778029968302146 83.56528385217095 25.291045019965384 79.12898552806456 17.24306323094994"/>
<polyline points="79.12898552806456 17.24306323094994 74.69268720395817 9.195081441934487 72.65086806678185 0.134559471242991"/>
<polyline points="72.65086806678185 0.134559471242991 72.15906141709516 9.590162024528412 69.16714479097277 18.796461472523397"/>
<polyline points="59.966600119580825 57.7235088777131 56.974683493458436 66.92980832570808"/>
<polyline points="53.98276686733599 76.13610777370307 44.88022581857494 90.70906822015777 53.08111056405689 87.016829768376"/>
<polyline points="44.88022581857494 90.70906822015777 51.48122711846471 85.02606525232763"/>
<polyline points="58.08222841835449 79.34306228449746 64.68322971824423 73.66005931666736"/>
<polyline points="64.68322971824423 73.66005931666736 72.88411446372616 69.96782086488558"/>
<polyline points="64.68322971824423 73.66005931666736 72.88411446372616 69.96782086488558 82.1260059119985 68.51796687792859"/>
<polyline points="82.1260059119985 68.51796687792859 91.77908443380923 69.40930250901044 101.18550868036351 72.58108470787477"/>
<polyline points="101.18550868036351 72.58108470787477 91.77908443380923 69.40930250901044 83.26034673006309 64.17322545759839"/>
<polyline points="83.26034673006309 64.17322545759839 74.74160902631694 58.93714840618635 67.6910957620095 51.99360650025383"/>
<polyline points="67.6910957620095 51.99360650025383 60.64058249770208 45.0500645943213 55.53877450027183 36.87224874001206"/>
<polyline points="55.53877450027183 36.87224874001206 50.43696650284159 28.694432885702835 47.63154355617711 19.839647719008372"/>
<polyline points="47.63154355617711 19.839647719008372 44.82612060951259 10.984862552313924 44.50826765124836 2.0565470491200992"/>
<polyline points="44.50826765124836 2.0565470491200992 44.19041469298414 -6.871768454073723 46.38179287694906 -15.265164346963253"/>
<polyline points="46.38179287694906 -15.265164346963253 52.7690974017979 -34.21778011891525 45.300101288407575 -27.596947855009383"/>
<polyline points="52.7690974017979 -34.21778011891525 47.24970446001326 -25.885287233967507"/>
<polyline points="41.73031151822862 -17.552794349019763 36.21091857644401 -9.220301464072017"/>
<polyline points="36.21091857644401 -9.220301464072017 28.74192246305367 -2.5994692001661464"/>
<polyline points="36.21091857644401 -9.220301464072017 51.23457971019134 -21.817509591159645 41.454455497815424 -20.105257414988674"/>
<polyline points="51.23457971019134 -21.817509591159645 42.28360526234866 -17.670785266326547"/>
<polyline points="33.332630814505954 -13.524060941493444 24.38165636666328 -9.37733661666035"/>
<polyline points="24.38165636666328 -9.37733661666035 14.60153215428738 -7.665084440489384"/>
<polyline points="24.38165636666328 -9.37733661666035 42.84915555648231 -11.611457954107477 33.89448838189525 -15.459805218719007"/>
<polyline points="42.84915555648231 -11.611457954107477 33.434138236066765 -13.025275931405554"/>
<polyline points="24.0191209156512 -14.439093908703628 14.604103595235646 -15.8529118860017"/>
<polyline points="14.604103595235646 -15.8529118860017 5.6494364206486 -19.701259150613243"/>
<polyline points="-32.47098300684214 -22.922001772492052 -40.76963841145061 -24.25675080589078"/>
<polyline points="-49.06829381605904 -25.591499839289504 -64.9945803170294 -37.39669897305925 -60.58415632887233 -28.46900897021719"/>
<polyline points="-64.9945803170294 -37.39669897305925 -58.58955060259494 -29.719976202998062"/>
<polyline points="-52.18452088816048 -22.043253432936854 -45.77949117372603 -14.366530662875666"/>
<polyline points="-45.77949117372603 -14.366530662875666 -41.36906718556891 -5.438840660033616"/>
<polyline points="-45.77949117372603 -14.366530662875666 -49.14791494178047 -23.670631776691625 -50.25667517384147 -33.604466905718056"/>
<polyline points="-50.25667517384147 -33.604466905718056 -51.36543540590249 -43.53830203474446 -50.13897192446805 -53.42489673137693"/>
<polyline points="-50.13897192446805 -53.42489673137693 -53.61707765996492 -44.259297557343665 -59.10979849149154 -36.439314342751246"/>
<polyline points="-75.7049362157321 -6.462745563854534 -81.19765704725876 1.3572376507379096"/>
<polyline points="-86.69037787878538 9.177220865330366 -94.69458493173757 14.279191535150588 -87.83058410771655 15.704719150135851"/>
<polyline points="-94.69458493173757 14.279191535150588 -89.06987542777757 13.696611750402177"/>
<polyline points="-83.44516592381758 13.11403196565375 -77.82045641985755 12.53145218090532"/>
<polyline points="-77.82045641985755 12.53145218090532 -70.95645559583653 13.95697979589057"/>
<polyline points="-77.82045641985755 12.53145218090532 -70.95645559583653 13.95697979589057 -63.32093376461388 17.29346745944405"/>
<polyline points="-63.32093376461388 17.29346745944405 -55.43423912069096 22.313539051101117 -47.833836870671966 28.675084987950928"/>
<polyline points="-47.833836870671966 28.675084987950928 -40.233434620653 35.03663092480075 -33.437279617618145 42.3061223641987"/>
<polyline points="-33.437279617618145 42.3061223641987 -26.6411246145833 49.575613803596646 -21.11236359081228 57.25764691735041"/>
<polyline points="-21.11236359081228 57.25764691735041 -15.583602567041225 64.93968003110415 -11.699011449594401 72.51073695767137"/>
<polyline points="-11.699011449594401 72.51073695767137 -7.814420332147574 80.08179388423855 -5.838727586088606 87.02591960583678 4.848061621993825 98.35187810494023 3.6525465644599633 94.16035802121691"/>
<polyline points="4.848061621993825 98.35187810494023 1.4632729127528121 93.25081389013688"/>
<polyline points="-1.921515796488229 88.14974967533357 -5.306304505729242 83.0486854605302"/>
<polyline points="-5.306304505729242 83.0486854605302 -6.501819563263115 78.8571653768069"/>
<polyline points="-5.838727586088606 87.02591960583678 -3.863034840029602 93.970045327435 -3.9308806610157876 99.81400915184771"/>
<polyline points="-3.9308806610157876 99.81400915184771 -3.998726482001961 105.65797297626042 -6.105487289453553 110.00351842646069"/>
<polyline points="-6.105487289453553 110.00351842646069 -8.212248096905167 114.34906387666098 -12.21435162338125 116.90004921157107"/>
<polyline points="-12.21435162338125 116.90004921157107 -16.216455149857346 119.45103454648121 -21.841164653817337 120.03361433122964"/>
<polyline points="-21.841164653817337 120.03361433122964 -27.465874157777364 120.61619411597808 -34.32987498179833 119.19066650099285"/>
<polyline points="-34.32987498179833 119.19066650099285 -41.19387580581935 117.7651388860076 -48.82939763704202 114.42865122245415"/>
<polyline points="-48.82939763704202 114.42865122245415 -56.46491946826466 111.09216355890067 -64.35161411218758 106.07209196724361"/>
<polyline points="-64.35161411218758 106.07209196724361 -72.23830875611047 101.05202037558654 -79.83871100612949 94.69047443873677"/>
<polyline points="-79.83871100612949 94.69047443873677 -72.23830875611047 101.05202037558654 -65.44215375307566 108.32151181498452"/>
<polyline points="-65.44215375307566 108.32151181498452 -58.64599875004082 115.59100325438244 -53.11723772626977 123.27303636813619"/>
<polyline points="-53.11723772626977 123.27303636813619 -57.00182884371664 115.70197944156901 -58.97752158977556 108.75785371997074"/>
<polyline points="-60.246341306192086 75.32741154551387 -62.222034052251054 68.38328582391563"/>
<polyline points="-64.19772679831003 61.439160102317395 -53.054705792153 47.13741162255664 -60.382631319730734 49.855985886126696"/>
<polyline points="-53.054705792153 47.13741162255664 -59.73194522378401 52.24621409725972"/>
<polyline points="-66.40918465541498 57.35501657196281 -73.08642408704594 62.463819046665904"/>
<polyline points="-73.08642408704594 62.463819046665904 -80.41434961462369 65.18239331023595"/>
<polyline points="-73.08642408704594 62.463819046665904 -80.41434961462369 65.18239331023595 -87.89357522341322 65.32547301926706"/>
<polyline points="-87.89357522341322 65.32547301926706 -95.01440404818024 62.88330752803913 -101.29156337224302 58.0223263789101"/>
<polyline points="-64.19772679831003 61.439160102317395 -64.05766647556231 53.36127765222368 -62.42532264443844 46.81984163767673"/>
<polyline points="-62.42532264443844 46.81984163767673 -60.79297881331457 40.278405623129764 -57.77959300832995 35.71920409828684"/>
<polyline points="-57.77959300832995 35.71920409828684 -54.76620720334532 31.160002573443922 -50.577136687254075 28.893737587786255"/>
<polyline points="-50.577136687254075 28.893737587786255 -46.38806617116286 26.627472602128645 -41.30878917687031 26.808586369248903"/>
<polyline points="-41.30878917687031 26.808586369248903 -36.22951218257777 26.989700136369176 -30.606173043342846 29.60585005234274"/>
<polyline points="-30.606173043342846 29.60585005234274 -24.98283390410793 32.22199996831632 -19.19865388926215 37.09489973976175"/>
<polyline points="-19.19865388926215 37.09489973976175 -13.414473874416386 41.967799511207176 -7.863635293162069 48.765369071548086"/>
<polyline points="-7.863635293162069 48.765369071548086 -2.312796711907774 55.562938631889 2.6264199596370603 63.821934849102995"/>
<polyline points="2.6264199596370603 63.821934849102995 7.565636631181895 72.08093106631698 11.556631939292982 81.2385169968375"/>
<polyline points="11.556631939292982 81.2385169968375 15.547627247404078 90.396102927358 18.318421457265167 99.82820422364637"/>
<polyline points="18.318421457265167 99.82820422364637 21.0892156671263 109.26030551993473 22.450983732289377 118.32414006593325"/>
<polyline points="22.450983732289377 118.32414006593325 23.812751797452457 127.38797461193184 23.67269147470473 135.46585706202555"/>
<polyline points="23.67269147470473 135.46585706202555 23.532631151957073 143.54373951211923 21.900287320833165 150.08517552666626"/>
<polyline points="21.900287320833165 150.08517552666626 20.26794348970934 156.62661154121318 17.25455768472466 161.1858130660561"/>
<polyline points="17.25455768472466 161.1858130660561 14.241171879740035 165.74501459089905 10.052101363648783 168.01127957655666"/>
<polyline points="10.052101363648783 168.01127957655666 5.863030847557565 170.27754456221433 0.7837538532650375 170.09643079509405"/>
<polyline points="0.7837538532650375 170.09643079509405 -4.295523141027504 169.91531702797377 -9.918862280262452 167.29916711200025"/>
<polyline points="-9.918862280262452 167.29916711200025 -15.542201419497388 164.68301719602667 -21.326381434343133 159.81011742458122"/>
<polyline points="-21.326381434343133 159.81011742458122 -27.11056144918894 154.9372176531358 -32.661400030443225 148.13964809279489"/>
<polyline points="-32.661400030443225 148.13964809279489 -38.21223861169754 141.34207853245397 -43.15145528324235 133.08308231523995"/>
<polyline points="-43.15145528324235 133.08308231523995 -48.09067195478718 124.82408609802599 -52.081667262898264 115.66650016750546"/>
<polyline points="-52.081667262898264 115.66650016750546 -56.072662571009346 106.50891423698492 -58.84345678087047 97.07681294069657"/>
<polyline points="-58.84345678087047 97.07681294069657 -55.48641029612734 77.42290805402989 -59.47969256201 85.84274162817799"/>
<polyline points="-55.48641029612734 77.42290805402989 -58.42235286743451 86.86813952049907"/>
<polyline points="-61.35829543874166 96.31337098696824 -64.29423801004883 105.75860245343735"/>
<polyline points="-64.29423801004883 105.75860245343735 -68.28752027593153 114.17843602758548"/>
<polyline points="-64.29423801004883 105.75860245343735 -52.206349050630685 90.44695832519426 -59.22031915348618 94.541932047093"/>
<polyline points="-52.206349050630685 90.44695832519426 -58.96562301720997 96.52961781425928"/>
<polyline points="-65.72489698378922 102.61227730332422 -72.48417095036852 108.6949367923892"/>
<polyline points="-72.48417095036852 108.6949367923892 -79.498141053224 112.78991051428791"/>
<polyline points="-72.48417095036852 108.6949367923892 -55.24478161658232 102.833809682354 -62.73998798172532 101.26228137527653"/>
<polyline points="-55.24478161658232 102.833809682354 -63.58646821064876 103.53729809261905"/>
<polyline points="-71.92815480471519 104.24078650288412 -80.26984139878164 104.94427491314921"/>
<polyline points="-80.26984139878164 104.94427491314921 -87.76504776392464 103.37274660607177"/>
<polyline points="-121.97827436911359 108.46171696447459 -131.44855412285193 108.50266029137714"/>
<polyline points="-140.91883387659027 108.54360361827962 -149.2694101219149 102.27231346748268 -145.48369974619402 109.6505185234011"/>
<polyline points="-149.2694101219149 102.27231346748268 -145.14849406308662 107.71468277015956"/>
<polyline points="-141.02757800425834 113.1570520728365 -136.90666194543007 118.59942137551344"/>
<polyline points="-136.90666194543007 118.59942137551344 -133.1209515697092 125.9776264314319"/>
<polyline points="-136.90666194543007 118.59942137551344 -138.21322583808407 111.00918051118602 -139.01106900962634 101.99314132008627"/>
<polyline points="-139.01106900962634 101.99314132008627 -139.8089121811686 92.97710212898644 -140.04366293795675 83.14969278227852"/>
<polyline points="-140.04366293795675 83.14969278227852 -140.38800247205387 93.11875057817831 -141.28796612683558 102.55008200912637"/>
<polyline points="-134.67049240189786 139.17632994014429 -135.57045605667955 148.6076613710923"/>
<polyline points="-136.47041971146126 158.0389928020403 -127.64868935666 168.26641213589855 -128.82897510289283 166.42142783418544"/>
<polyline points="-127.64868935666 168.26641213589855 -130.54288204281772 164.66432707964918"/>
<polyline points="-133.43707472897555 161.06224202339993 -136.33126741513328 157.4601569671507"/>
<polyline points="-136.33126741513328 157.4601569671507 -137.51155316136615 155.61517266543754"/>
<polyline points="-136.33126741513328 157.4601569671507 -137.51155316136615 155.61517266543754 -136.89749744458265 155.65302174944168"/>
<polyline points="-136.89749744458265 155.65302174944168 -134.53094714710662 157.5711248666367 -130.5731787608018 161.23876645940106"/>
<polyline points="-130.5731787608018 161.23876645940106 -126.615410374497 164.9064080521655 -121.33613927436839 170.0736444070166"/>
<polyline points="-121.33613927436839 170.0736444070166 -116.05686817423987 175.24088076186774 -109.8158679613534 181.55557326048435"/>
<polyline points="-109.8158679613534 181.55557326048435 -103.57486774846697 187.870265759101 -96.79745227359032 194.90207854322506"/>
<polyline points="-96.79745227359032 194.90207854322506 -90.0200367987137 201.93389132734922 -83.16807572625106 209.20361797636292 -66.31827544855238 219.233644282831 -74.20459586625937 213.96802334096063"/>
<polyline points="-66.31827544855238 219.233644282831 -74.76158450636142 213.91199648374433"/>
<polyline points="-83.20489356417045 208.59034868465773 -91.64820262197951 203.26870088557106"/>
<polyline points="-91.64820262197951 203.26870088557106 -99.53452303968649 198.00307994370078"/>
</svg>