<svg transform="scale(1,-1)" viewBox="-263.7182250387424 -162.8053274086976 534.197619479334 418.81395756129643" xmlns="http://www.w3.org/2000/svg">
<style>
svg { stroke:black; stroke-width:2; fill:none;}
</style>
<polyline points="114.13404585989403 34.16605240052146 117.17593462008348 37.00205245679661"/>
<polyline points="120.21782338027357 39.83805251306775 123.25971214046366 42.674052569339096"/>
<polyline points="119.3540555378035 52.70206512589106 112.40651017495323 59.89407762617169"/>
<polyline points="112.40651017495323 59.89407762617169 92.85384447904612 40.865453427619535 105.88895494298421 53.551202893320955"/>
<polyline points="119.7840456686847 39.16717789275971 126.73159103153495 31.975165392479074"/>
<polyline points="126.73159103153495 31.975165392479074 133.6791363943852 24.783152892198434"/>
<polyline points="99.80138984189638 33.67344092733891 93.28383460992728 27.330566194488245"/>
<polyline points="93.28383460992728 27.330566194488245 86.76627937795827 20.9876914616375"/>
<polyline points="99.80138984189638 33.67344092733891 93.28383460992728 27.330566194488245"/>
<polyline points="93.71382474080846 13.795678961356879 100.66137010365873 6.603666461076236"/>
<polyline points="100.66137010365873 6.603666461076236 93.71382474080846 13.795678961356879"/>
<polyline points="112.83650030583449 46.359190393040315 119.35405553780355 52.702065125891025"/>
<polyline points="112.83650030583449 46.359190393040315 119.35405553780355 52.702065125891025"/>
<polyline points="112.83650030583449 46.359190393040315 119.7840456686847 39.16717789275971"/>
<polyline points="133.249146263504 38.31804012532976 139.76670149547303 44.66091485818051"/>
<polyline points="146.28425672744206 51.00378959103122 139.76670149547303 44.66091485818051"/>
<polyline points="146.28425672744206 51.00378959103122 152.80181195941114 57.34666432388193"/>
<polyline points="162.36125595157023 66.525539113004 165.40314471176035 69.36153916927532"/>
<polyline points="168.4450334719504 72.19753922554665 171.4869222321405 75.03353928181805"/>
<polyline points="168.4450334719504 72.19753922554665 171.4869222321405 75.03353928181805"/>
<polyline points="181.47635635518085 70.67752683780871 188.42390171803112 63.4855143375281"/>
<polyline points="195.3714470808814 56.293501837247426 186.2457808003111 47.785501668433405 192.32955832069132 53.457501780976045"/>
<polyline points="205.36466878462934 66.14325124667756 211.88222401659843 72.48612597952818"/>
<polyline points="211.88222401659843 72.48612597952818 218.39977924856746 78.82900071237893"/>
<polyline points="192.76333603228005 54.12837640128414 189.72144727208996 51.29237634501275"/>
<polyline points="189.72144727208996 51.29237634501275 186.67955851189987 48.45637628874136"/>
<polyline points="192.76333603228005 54.12837640128414 189.72144727208996 51.29237634501275"/>
<polyline points="193.19711374386893 54.79925102159209 199.71466897583798 61.142125754442795"/>
<polyline points="199.71466897583798 61.142125754442795 193.19711374386893 54.79925102159209"/>
<polyline points="199.71466897583798 61.142125754442795 206.232224207807 67.48500048729349"/>
<polyline points="198.8471135526603 59.80037651382682 201.88900231285044 62.63637657009817"/>
<polyline points="195.8052247924702 56.964376457555495 192.76333603228005 54.12837640128414"/>
<polyline points="196.23900250405902 57.63525107786342 202.7565577360281 63.978125810714126"/>
<polyline points="209.27411296799707 70.32100054356488 202.7565577360281 63.978125810714126"/>
<polyline points="209.27411296799707 70.32100054356488 215.79166819996613 76.66387527641557"/>
<polyline points="229.25676879478544 75.81473750898564 236.20431415763562 68.62272500870506"/>
<polyline points="243.15185952048589 61.430712508424406 250.09940488333618 54.23870000814378"/>
<polyline points="243.15185952048589 61.430712508424406 250.09940488333618 54.23870000814378"/>
<polyline points="254.00506148599638 44.210687451591745 250.96317272580617 41.3746873953204"/>
<polyline points="192.32955832069132 53.457501780976045 189.2876695605012 50.62150172470469"/>
<polyline points="189.2876695605012 50.62150172470469 186.24578080031102 47.785501668433405"/>
<polyline points="189.72144727208996 51.29237634501275 196.23900250405902 57.63525107786342"/>
<polyline points="196.23900250405902 57.63525107786342 189.72144727208996 51.29237634501275"/>
<polyline points="189.2876695605012 50.62150172470469 186.24578080031102 47.785501668433405"/>
<polyline points="189.72144727208996 51.29237634501275 196.23900250405902 57.63525107786342"/>
<polyline points="196.23900250405902 57.63525107786342 189.72144727208996 51.29237634501275"/>
<polyline points="205.36466878462934 66.14325124667756 211.88222401659843 72.48612597952818"/>
<polyline points="211.88222401659843 72.48612597952818 218.39977924856746 78.82900071237893"/>
<polyline points="198.8471135526603 59.80037651382682 179.2944478567532 40.77175231527468 192.32955832069132 53.457501780976045"/>
<polyline points="178.43446759499076 67.84152678153737 171.4869222321405 75.03353928181805"/>
<polyline points="171.4869222321405 75.03353928181805 164.53937686929027 82.22555178209863"/>
<polyline points="185.382012957841 60.64951428125675 206.2246490463918 39.07347678041483 192.32955832069132 53.457501780976045 199.2771036835415 46.26548928069541"/>
<polyline points="186.24578080031102 47.785501668433405 183.203892040121 44.949501612162024"/>
<polyline points="183.203892040121 44.949501612162024 180.16200327993084 42.11350155589064"/>
<polyline points="189.2876695605012 50.62150172470469 198.41333584107144 59.129501893518835 192.32955832069132 53.457501780976045"/>
<polyline points="179.29444785675324 40.77175231527465 172.77689262478415 34.42887758242398"/>
<polyline points="172.77689262478415 34.42887758242398 166.25933739281513 28.086002849573273"/>
<polyline points="185.81200308872226 47.114627048125385 205.36466878462934 66.14325124667752 185.81200308872226 47.114627048125385"/>
<polyline points="206.2246490463918 39.07347678041483 213.17219440924205 31.881464280134214"/>
<polyline points="213.17219440924205 31.881464280134214 220.11973977209223 24.689451779853627"/>
<polyline points="199.2771036835415 46.26548928069541 178.43446759499076 67.8415267815373 192.32955832069132 53.457501780976045"/>
<polyline points="198.41333584107144 59.129501893518835 201.4552246012615 61.96550194979026"/>
<polyline points="201.4552246012615 61.96550194979026 204.49711336145162 64.80150200606165"/>
<polyline points="195.3714470808814 56.293501837247426 186.2457808003111 47.78550166843333 192.32955832069132 53.457501780976045 198.8471135526603 59.80037651382682"/>
<polyline points="192.32955832069132 53.457501780976045 185.81200308872226 47.114627048125385"/>
<polyline points="192.32955832069132 53.457501780976045 185.81200308872226 47.114627048125385"/>
<polyline points="195.3714470808814 56.293501837247426 198.41333584107144 59.12950189351888"/>
<polyline points="194.93766936929245 55.622627216939556 188.42011413732348 49.27975248408885"/>
<polyline points="181.90255890535443 42.936877751238114 188.42011413732348 49.27975248408885"/>
<polyline points="181.90255890535443 42.936877751238114 175.38500367338543 36.59400301838741"/>
<polyline points="175.8149938042667 23.059115785256054 182.7625391671169 15.867103284975427"/>
<polyline points="189.71008452996716 8.6750907846948 196.65762989281743 1.4830782844142143"/>
<polyline points="189.71008452996716 8.6750907846948 196.65762989281743 1.4830782844142143"/>
<polyline points="206.64706401585775 -2.87293415959503 209.68895277604787 -0.0369341033236521"/>
<polyline points="212.73084153623802 2.799065952947688 232.283507232145 21.827690151499866 219.24839676820702 9.141940685798389"/>
<polyline points="225.33217428858723 14.813940798341223 228.37406304877734 17.649940854612602"/>
<polyline points="228.37406304877734 17.649940854612602 231.41595180896743 20.48594091088398"/>
<polyline points="235.32539599233513 24.663690207771246 241.84295122430427 31.00656494062191"/>
<polyline points="241.84295122430427 31.00656494062191 248.3605064562732 37.34943967347265"/>
<polyline points="248.3605064562732 37.34943967347265 254.87806168824233 43.69231440632328"/>
<polyline points="264.43750568040133 52.87118919544543 267.47939444059153 55.70718925171681"/>
<polyline points="228.8078407603661 18.320815474920547 219.68217447979575 9.812815306106375 225.76595200017604 15.484815418649168"/>
<polyline points="238.80106246411407 28.170564884350533 245.3186176960831 34.5134396172012"/>
<polyline points="245.3186176960831 34.5134396172012 251.83617292805215 40.85631435005194"/>
<polyline points="226.19972971176492 16.155690038957 223.1578409515747 13.31968998268566"/>
<polyline points="223.1578409515747 13.31968998268566 220.1159521913846 10.483689926414247"/>
<polyline points="216.20650800801687 6.3059406295270515 209.68895277604787 -0.0369341033236507"/>
<polyline points="209.68895277604787 -0.0369341033236507 203.17139754407884 -6.379808836174392"/>
<polyline points="222.72406323998598 12.648815362377714 242.276728935893 31.677439560929855 229.24161847195498 18.991690095228414"/>
<polyline points="215.34652774625442 33.3757150957897 208.39898238340422 40.56772759607033"/>
<polyline points="208.39898238340422 40.56772759607033 201.45143702055395 47.75974009635091"/>
<polyline points="222.2940731091047 26.18370259550908 243.13670919765548 4.607665094667206 229.24161847195498 18.991690095228414"/>
<polyline points="229.24161847195498 18.991690095228414 232.28350723214507 21.827690151499834"/>
<polyline points="229.24161847195498 18.991690095228414 226.19972971176486 16.15569003895704"/>
<polyline points="229.24161847195498 18.991690095228414 226.19972971176486 16.15569003895704"/>
<polyline points="222.2940731091047 26.18370259550908 215.34652774625442 33.3757150957897"/>
<polyline points="205.3570936232141 37.73172753979888 202.31520486302392 34.895727483527494"/>
<polyline points="199.27331610283383 32.059727427256114 202.31520486302392 34.895727483527494"/>
<polyline points="199.27331610283383 32.059727427256114 196.2314273426437 29.2237273709847"/>
<polyline points="186.67198335048457 20.044852581862624 180.15442811851554 13.701977849011922"/>
<polyline points="173.6368728865465 7.359103116161219 167.1193176545775 1.0162283833105563"/>
<polyline points="173.6368728865465 7.359103116161219 167.1193176545775 1.0162283833105563"/>
<polyline points="153.6542170597582 1.865366150740441 146.70667169690796 9.057378651021065"/>
<polyline points="139.7591263340577 16.24939115130169 148.88479261462808 24.75739132011588 142.80101509424782 19.085391207573107"/>
<polyline points="128.90592436854735 33.469416208134334 121.95837900569707 40.661428708414974"/>
<polyline points="121.95837900569707 40.661428708414974 115.01083364284683 47.8534412086956"/>
<polyline points="141.9372472517778 31.949403820396522 144.97913601196794 34.7854038766679"/>
<polyline points="144.97913601196794 34.7854038766679 148.02102477215806 37.62140393293924"/>
<polyline points="148.02102477215806 37.62140393293924 151.06291353234818 40.45740398921067"/>
<polyline points="147.15725692968806 50.485416545762696 140.20971156683783 57.67742904604332"/>
<polyline points="138.89535849158767 29.113403764125124 159.73799458013843 7.5373662632832525 145.84290385443794 21.9213912638445"/>
<polyline points="151.9266813748182 27.59339137638727 154.96857013500832 30.429391432658615"/>
<polyline points="154.96857013500832 30.429391432658615 158.01045889519847 33.26539148893003"/>
<polyline points="162.77988334032855 10.373366319554632 169.7274287031788 3.1813538192740256"/>
<polyline points="169.7274287031788 3.1813538192740256 176.67497406602905 -4.010658681006635"/>
<polyline points="162.77988334032855 10.373366319554632 169.7274287031788 3.1813538192740256"/>
<polyline points="179.71686282621923 -1.1746586247352588 182.75875158640935 1.6613414315360808"/>
<polyline points="148.88479261462805 24.75739132011588 139.7591263340576 16.249391151301726 145.84290385443794 21.9213912638445"/>
<polyline points="159.73799458013843 7.537366263283236 166.6855399429887 0.3453537630026097"/>
<polyline points="166.6855399429887 0.3453537630026097 173.6330853058389 -6.846658737278052"/>
<polyline points="146.7066716969079 9.057378651021102 143.66478293671776 6.221378594749728"/>
<polyline points="143.66478293671776 6.221378594749728 140.62289417652767 3.385378538478331"/>
<polyline points="146.7066716969079 9.057378651021102 143.66478293671776 6.221378594749728"/>
<polyline points="147.5704395393779 -3.806633961802313 154.51798490222814 -10.998646462082935"/>
<polyline points="154.51798490222814 -10.998646462082935 147.5704395393779 -3.806633961802313"/>
<polyline points="152.7904492172882 14.72937876356384 155.83233797747832 17.565378819835235"/>
<polyline points="152.7904492172882 14.72937876356384 155.83233797747832 17.565378819835235"/>
<polyline points="152.7904492172882 14.72937876356384 159.73799458013843 7.537366263283236"/>
<polyline points="169.7274287031788 3.1813538192739874 172.76931746336896 6.017353875545364"/>
<polyline points="175.81120622355908 8.853353931816741 172.76931746336896 6.017353875545364"/>
<polyline points="175.81120622355908 8.853353931816741 178.85309498374917 11.68935398808812"/>
<polyline points="175.3774285119703 8.182479311508834 168.85987328000124 1.8396045786581314"/>
<polyline points="162.34231804803227 -4.503270154192572 155.82476281606324 -10.846144887043256"/>
<polyline points="162.34231804803227 -4.503270154192572 155.82476281606324 -10.846144887043256"/>
<polyline points="156.25475294694448 -24.38103212017462 163.2022983097947 -31.573044620455246"/>
<polyline points="170.14984367264495 -38.76505712073587 189.702509368552 -19.736432922183816 176.667398904614 -32.42218238788518"/>
<polyline points="182.75117642499427 -26.750182275342393 185.7930651851844 -23.914182219070977"/>
<polyline points="185.7930651851844 -23.914182219070977 188.83495394537456 -21.07818216279956"/>
<polyline points="192.7443981287422 -16.9004328659124 199.26195336071123 -10.55755813306174"/>
<polyline points="199.26195336071123 -10.557558133061738 205.77950859268026 -4.214683400211039"/>
<polyline points="192.7443981287422 -16.9004328659124 199.26195336071123 -10.557558133061738"/>
<polyline points="208.82139735287043 -1.3786833439396606 211.86328611306058 1.4573167123317534"/>
<polyline points="211.86328611306058 1.4573167123317534 208.82139735287043 -1.3786833439396606"/>
<polyline points="211.86328611306058 1.4573167123317534 214.9051748732507 4.293316768603131"/>
<polyline points="179.70928766480412 -29.586182331613788 173.19173243283507 -35.92905706446445"/>
<polyline points="186.22684289677315 -23.243307598763064 192.7443981287422 -16.9004328659124"/>
<polyline points="202.30384212090138 -7.721558076790364 205.34573088109147 -4.885558020518946"/>
<polyline points="208.38761964128165 -2.049557964247571 205.34573088109147 -4.885558020518946"/>
<polyline points="208.38761964128165 -2.049557964247571 211.42950840147188 0.7864420920238056"/>
<polyline points="221.41894252451223 -3.569570351985441 228.3664878873624 -10.761582852266029"/>
<polyline points="235.31403325021267 -17.953595352546692 242.261578613063 -25.145607852827347"/>
<polyline points="235.31403325021267 -17.953595352546692 242.261578613063 -25.145607852827347"/>
<polyline points="255.7266792078822 -25.994745620257277 262.2442344398512 -19.651870887406567"/>
<polyline points="262.2442344398512 -19.651870887406567 255.7266792078822 -25.994745620257277"/>
<polyline points="189.702509368552 -19.736432922183816 196.22006460052108 -13.393558189333115"/>
<polyline points="196.22006460052108 -13.393558189333115 202.7376198324901 -7.050683456482452"/>
<polyline points="183.18495413658295 -26.079307655034466 163.63228844067595 -45.10793185358656 176.667398904614 -32.42218238788518"/>
<polyline points="162.77230817891348 -18.038157387323896 155.82476281606324 -10.846144887043238"/>
<polyline points="155.82476281606324 -10.846144887043238 148.87721745321304 -3.6541323867626128"/>
<polyline points="169.71985354176374 -25.23016988760452 190.56248963031445 -46.80620738844646 176.667398904614 -32.42218238788518"/>
<polyline points="169.71985354176374 -25.23016988760452 162.77230817891348 -18.038157387323896"/>
<polyline points="170.58362138423368 -38.094182500427955 167.54173262404356 -40.93018255669937"/>
<polyline points="167.54173262404356 -40.93018255669937 164.49984386385339 -43.766182612970766"/>
<polyline points="173.62551014442383 -35.25818244415655 182.75117642499424 -26.750182275342354 176.667398904614 -32.42218238788518"/>
<polyline points="163.63228844067595 -45.10793185358656 157.11473320870687 -51.45080658643723"/>
<polyline points="157.11473320870687 -51.45080658643723 150.59717797673784 -57.7936813192879"/>
<polyline points="170.14984367264495 -38.76505712073587 189.702509368552 -19.736432922183816 176.667398904614 -32.42218238788518"/>
<polyline points="170.14984367264495 -38.76505712073587 163.63228844067595 -45.10793185358656"/>
<polyline points="170.14984367264495 -38.76505712073587 163.63228844067595 -45.10793185358656"/>
<polyline points="150.16718784585666 -44.25879408615659 143.21964248300645 -37.06678158587599"/>
<polyline points="176.667398904614 -32.42218238788518 197.51003499316465 -53.99821988872702 183.61494426746427 -39.614194888165805"/>
<polyline points="170.57983380352613 -52.299944353867176 164.06227857155716 -58.64281908671788"/>
<polyline points="164.06227857155716 -58.64281908671788 157.54472333958813 -64.98569381956854"/>
<polyline points="190.99247976119565 -60.34109462157771 197.94002512404595 -67.53310712185836"/>
<polyline points="197.94002512404595 -67.53310712185836 204.8875704868962 -74.725119622139"/>
<polyline points="190.99247976119565 -60.34109462157771 197.94002512404595 -67.53310712185836"/>
<polyline points="198.37001525492718 -81.06799435498972 191.85246002295813 -87.41086908784037"/>
<polyline points="191.85246002295813 -87.41086908784037 198.37001525492718 -81.06799435498972"/>
<polyline points="177.0973890354952 -45.95706962101648 170.14984367264495 -38.76505712073587"/>
<polyline points="177.0973890354952 -45.95706962101648 170.14984367264495 -38.76505712073587"/>
<polyline points="177.0973890354952 -45.95706962101648 170.57983380352613 -52.299944353867176"/>
<polyline points="157.11473320870687 -51.45080658643723 150.16718784585666 -44.25879408615659"/>
<polyline points="143.21964248300645 -37.06678158587599 150.16718784585666 -44.25879408615659"/>
<polyline points="143.21964248300645 -37.06678158587599 136.27209712015622 -29.874769085595336"/>
<polyline points="126.2826629971158 -25.518756641586112 123.24077423692566 -28.35475669785751"/>
<polyline points="120.19888547673553 -31.190756754128905 117.15699671654536 -34.02675681040032"/>
<polyline points="120.19888547673553 -31.190756754128905 117.15699671654536 -34.02675681040032"/>
<polyline points="107.59755272438622 -43.2056315995224 101.07999749241719 -49.5485063323731"/>
<polyline points="94.56244226044818 -55.89138106522376 103.68810854101864 -47.38338089640962 97.6043310206383 -53.055381008952374"/>
<polyline points="83.70924029493781 -38.671356008391136 76.76169493208756 -31.479343508110503"/>
<polyline points="76.76169493208756 -31.479343508110503 69.81414956923733 -24.28733100782988"/>
<polyline points="96.74056317816836 -40.19136839612901 99.7824519383585 -37.35536833985763"/>
<polyline points="99.7824519383585 -37.35536833985763 102.82434069854862 -34.51936828358624"/>
<polyline points="96.74056317816836 -40.19136839612901 99.7824519383585 -37.35536833985763"/>
<polyline points="95.87679533569836 -27.327355783305617 88.92924997284813 -20.135343283024977"/>
<polyline points="88.92924997284813 -20.135343283024977 95.87679533569836 -27.327355783305617"/>
<polyline points="88.92924997284813 -20.135343283024977 81.98170460999788 -12.943330782744352"/>
<polyline points="90.65678565778808 -45.863368508671776 87.61489689759796 -48.69936856494313"/>
<polyline points="93.69867441797822 -43.02736845240037 96.74056317816836 -40.19136839612901"/>
<polyline points="92.83490657550826 -30.163355839576976 85.88736121265802 -22.97134333929636"/>
<polyline points="78.93981584980774 -15.77933083901573 85.88736121265802 -22.97134333929636"/>
<polyline points="78.93981584980774 -15.77933083901573 71.99227048695752 -8.587318338735104"/>
<polyline points="58.52716989213824 -7.7381805713051515 52.009614660169206 -14.08105530415585"/>
<polyline points="45.49205942820018 -20.42393003700655 38.97450419623115 -26.766804769857252"/>
<polyline points="45.49205942820018 -20.42393003700655 38.97450419623115 -26.766804769857252"/>
<polyline points="35.498837724452265 -30.273679446436567 38.54072648464241 -27.437679390165183"/>
<polyline points="41.582615244832546 -24.601679333893816 38.54072648464241 -27.437679390165183"/>
<polyline points="41.582615244832546 -24.601679333893816 44.62450400502269 -21.765679277622432"/>
<polyline points="40.71884740236258 -11.73766672107044 33.77130203951232 -4.545654220789819"/>
<polyline points="97.6043310206383 -53.055381008952374 106.72999730120874 -44.54738084013824 100.64621978082846 -50.21938095268099"/>
<polyline points="86.75112905512796 -35.83535595211973 79.80358369227771 -28.643343451839115"/>
<polyline points="79.80358369227771 -28.643343451839115 72.85603832942746 -21.45133095155847"/>
<polyline points="99.78245193835852 -37.35536833985764 102.82434069854865 -34.51936828358625"/>
<polyline points="102.82434069854865 -34.51936828358625 105.86622945873883 -31.68336822731488"/>
<polyline points="99.78245193835852 -37.35536833985764 102.82434069854865 -34.51936828358625"/>
<polyline points="98.91868409588858 -24.491355727034247 91.97113873303834 -17.29934322675359"/>
<polyline points="91.97113873303834 -17.29934322675359 98.91868409588858 -24.491355727034247"/>
<polyline points="93.69867441797822 -43.02736845240037 90.65678565778808 -45.863368508671776"/>
<polyline points="93.69867441797822 -43.02736845240037 90.65678565778808 -45.863368508671776"/>
<polyline points="93.69867441797822 -43.02736845240037 86.75112905512796 -35.83535595211973"/>
<polyline points="76.76169493208756 -31.479343508110503 73.71980617189742 -34.315343564381855"/>
<polyline points="70.67791741170727 -37.151343620653236 73.71980617189742 -34.315343564381855"/>
<polyline points="70.67791741170727 -37.151343620653236 67.63602865151717 -39.98734367692462"/>
<polyline points="58.07658465935796 -49.16621846604667 51.55902942738895 -55.50909319889739"/>
<polyline points="45.04147419541994 -61.85196793174807 38.52391896345093 -68.19484266459878"/>
<polyline points="45.04147419541994 -61.85196793174807 38.52391896345093 -68.19484266459878"/>
<polyline points="25.058818368631655 -67.34570489716886 18.111273005781413 -60.15369239688821"/>
<polyline points="11.163727642931168 -52.96167989660759 30.716393338838223 -33.93305569805548 17.68128287490019 -46.61880516375689"/>
<polyline points="11.597505354519901 -52.29080527629965 8.55561659432976 -55.12680533257099"/>
<polyline points="8.55561659432976 -55.12680533257099 5.5137278341396065 -57.96280538884239"/>
<polyline points="27.674504578648083 -36.769055754326835 34.1920598106171 -30.42618102147612"/>
<polyline points="34.1920598106171 -30.42618102147612 40.709615042586115 -24.083306288625412"/>
<polyline points="27.674504578648083 -36.769055754326835 34.1920598106171 -30.42618102147612"/>
<polyline points="37.66772628239597 -26.919306344896803 34.62583752220583 -29.755306401168166"/>
<polyline points="34.62583752220583 -29.755306401168166 37.66772628239597 -26.9193063448968"/>
<polyline points="34.62583752220583 -29.755306401168166 31.58394876201568 -32.59130645743956"/>
<polyline points="14.639394114710049 -49.45480522002825 8.121838882741036 -55.79767995287896"/>
<polyline points="21.156949346679063 -43.11193048717755 27.674504578648083 -36.769055754326835"/>
<polyline points="31.15017105042695 -33.262181077747506 28.108282290236822 -36.09818113401889"/>
<polyline points="25.066393530046664 -38.93418119029026 28.108282290236822 -36.09818113401889"/>
<polyline points="25.066393530046664 -38.93418119029026 22.024504769856534 -41.770181246561634"/>
<polyline points="12.035070646816138 -37.41416880255238 5.08752528396587 -30.222156302271774"/>
<polyline points="-1.8600200788843932 -23.03014380199117 -8.807565441734639 -15.838131301710542"/>
<polyline points="-1.8600200788843932 -23.03014380199117 -8.807565441734639 -15.838131301710542"/>
<polyline points="-9.237555572615888 -2.303244068579219 -2.7200003406468696 4.039630664271491"/>
<polyline points="3.797554891322143 10.382505397122202 10.315110123291156 16.725380129972912"/>
<polyline points="3.797554891322143 10.382505397122202 10.315110123291156 16.725380129972912"/>
<polyline points="13.790776595070042 20.23225480655225 10.748887834879921 17.3962547502809"/>
<polyline points="17.68128287490019 -46.61880516375689 37.233948570807236 -27.59018096520476 24.198838106869207 -40.27593043090617"/>
<polyline points="18.11506058648892 -45.947930543448926 15.07317182629878 -48.78393059972029"/>
<polyline points="15.07317182629878 -48.78393059972029 12.031283066108625 -51.61993065599167"/>
<polyline points="34.1920598106171 -30.42618102147612 40.70961504258612 -24.0833062886254"/>
<polyline points="40.70961504258612 -24.0833062886254 47.22717027455515 -17.7404315557747"/>
<polyline points="34.1920598106171 -30.42618102147612 40.70961504258612 -24.0833062886254"/>
<polyline points="44.185281514364995 -20.576431612046058 41.143392754174876 -23.412431668317424"/>
<polyline points="41.143392754174876 -23.412431668317424 44.185281514364995 -20.576431612046058"/>
<polyline points="21.156949346679063 -43.11193048717755 14.639394114710054 -49.45480522002826"/>
<polyline points="21.156949346679063 -43.11193048717755 14.639394114710054 -49.45480522002826"/>
<polyline points="21.156949346679063 -43.11193048717755 18.11506058648892 -45.947930543448926"/>
<polyline points="8.555616594329768 -55.126805332570996 2.0380613623607537 -61.46968006542173"/>
<polyline points="-4.479493869608261 -67.81255479827243 2.038061362360749 -61.46968006542172"/>
<polyline points="-4.479493869608261 -67.81255479827243 -10.997049101577272 -74.15542953112313"/>
<polyline points="-24.462149696396537 -73.30629176369321 -31.40969505924679 -66.11427926341258"/>
<polyline points="-38.35724042209703 -58.92226676313196 -45.30478578494727 -51.730254262851325"/>
<polyline points="-38.35724042209703 -58.92226676313196 -45.30478578494727 -51.730254262851325"/>
<polyline points="-55.29421990798767 -47.37424181884207 -58.33610866817781 -50.210241875113454"/>
<polyline points="-61.377997428367976 -53.04624193138483 -40.53536133981723 -74.62227943222669 -54.43045206551772 -60.23825443166545"/>
<polyline points="-67.46556252945572 -72.92400389736689 -73.98311776142475 -79.26687863021759"/>
<polyline points="-73.98311776142475 -79.26687863021759 -80.50067299339376 -85.60975336306832"/>
<polyline points="-47.052916571786184 -80.96515416507735 -40.10537120893593 -88.15716666535796"/>
<polyline points="-40.10537120893593 -88.15716666535796 -33.157825846085665 -95.34917916563856"/>
<polyline points="-47.052916571786184 -80.96515416507735 -40.10537120893593 -88.15716666535796"/>
<polyline points="-39.67538107805466 -101.6920538984893 -46.19293631002367 -108.03492863134004"/>
<polyline points="-46.19293631002367 -108.03492863134004 -39.67538107805466 -101.6920538984893"/>
<polyline points="-46.19293631002367 -108.03492863134004 -52.710491541992674 -114.37780336419074"/>
<polyline points="-60.948007297486726 -66.58112916451617 -67.89555266033699 -59.38911666423556"/>
<polyline points="-54.000461934636476 -73.7731416647968 -47.052916571786184 -80.96515416507735"/>
<polyline points="-46.62292644090494 -94.50004139820867 -53.140481672873925 -100.84291613105941"/>
<polyline points="-59.65803690484294 -107.18579086391016 -53.140481672873925 -100.84291613105941"/>
<polyline points="-59.65803690484294 -107.18579086391016 -66.17559213681191 -113.52866559676085"/>
<polyline points="-75.7350361289711 -122.70754038588298 -78.77692488916125 -125.54354044215432"/>
<polyline points="-81.81881364935138 -128.37954049842565 -84.86070240954155 -131.21554055469707"/>
<polyline points="-81.81881364935138 -128.37954049842565 -84.86070240954155 -131.21554055469707"/>
<polyline points="-80.95504580688143 -141.243553111249 -74.00750044403118 -148.43556561152965"/>
<polyline points="-67.05995508118089 -155.62757811181027 -64.01806632099077 -152.79157805553885"/>
<polyline points="-64.01806632099077 -152.79157805553885 -60.976177560800565 -149.9555779992675"/>
<polyline points="-64.45184403257943 -153.46245267584683 -70.96939926454843 -159.8053274086976"/>
<polyline points="-70.96939926454843 -159.8053274086976 -64.45184403257943 -153.46245267584683"/>
<polyline points="-64.01806632099077 -152.79157805553885 -60.976177560800565 -149.9555779992675"/>
<polyline points="-64.45184403257943 -153.46245267584683 -70.96939926454843 -159.8053274086976"/>
<polyline points="-70.96939926454843 -159.8053274086976 -64.45184403257943 -153.46245267584683"/>
<polyline points="-40.53536133981718 -74.62227943222665 -33.58781597696691 -81.81429193250726"/>
<polyline points="-33.58781597696691 -81.81429193250726 -26.640270614116645 -89.00630443278789"/>
<polyline points="-47.48290670266746 -67.43026693194606 -68.32554279121825 -45.85422943110421 -54.43045206551772 -60.23825443166545"/>
<polyline points="-48.34667454513743 -54.56625431912269 -45.30478578494727 -51.730254262851325"/>
<polyline points="-45.30478578494727 -51.730254262851325 -42.26289702475714 -48.89425420657996"/>
<polyline points="-51.388563305327565 -57.40225437539407 -60.51422958589803 -65.9102545442082 -54.43045206551772 -60.23825443166545 -57.47234082570787 -63.0742544879368"/>
<polyline points="-41.39534160157971 -47.55250496596402 -34.87778636961072 -41.209630233113295"/>
<polyline points="-34.87778636961072 -41.209630233113295 -28.360231137641716 -34.86675550026258"/>
<polyline points="-47.91289683354873 -53.89537969881472 -67.46556252945574 -72.92400389736686 -54.43045206551774 -60.23825443166543"/>
<polyline points="-68.32554279121827 -45.854229431104194 -75.27308815406853 -38.66221693082361"/>
<polyline points="-75.27308815406853 -38.66221693082361 -82.22063351691882 -31.47020443054301"/>
<polyline points="-61.37799742836801 -53.04624193138483 -40.53536133981719 -74.62227943222662 -61.37799742836801 -53.04624193138483"/>
<polyline points="-60.514229585898036 -65.91025454420819 -63.55611834608817 -68.74625460047955"/>
<polyline points="-63.55611834608817 -68.74625460047955 -66.5980071062783 -71.58225465675093"/>
<polyline points="-57.47234082570787 -63.0742544879368 -48.34667454513746 -54.56625431912266 -54.43045206551774 -60.23825443166543"/>
<polyline points="-67.46556252945574 -72.92400389736687 -73.98311776142474 -79.26687863021758"/>
<polyline points="-73.98311776142474 -79.26687863021762 -80.50067299339375 -85.60975336306828"/>
<polyline points="-60.94800729748674 -66.58112916451616 -41.39534160157974 -47.552504965963976 -54.430452065517734 -60.238254431665446 -47.48290670266746 -67.43026693194604"/>
<polyline points="-54.430452065517734 -60.238254431665446 -61.37799742836799 -53.04624193138484"/>
<polyline points="-54.430452065517734 -60.238254431665446 -61.37799742836799 -53.04624193138484"/>
<polyline points="-60.948007297486726 -66.58112916451617 -67.46556252945571 -72.9240038973669"/>
<polyline points="-80.93066312427497 -72.07486612993702 -87.87820848712522 -64.88285362965641"/>
<polyline points="-94.82575384997551 -57.6908411293758 -87.87820848712522 -64.88285362965641"/>
<polyline points="-94.82575384997551 -57.6908411293758 -101.77329921282582 -50.4988286290952"/>
<polyline points="-111.7627333358662 -46.142816185085984 -114.80462209605636 -48.97881624135734"/>
<polyline points="-117.84651085624648 -51.81481629762871 -120.8883996164366 -54.650816353900076"/>
<polyline points="-117.84651085624648 -51.81481629762871 -120.8883996164366 -54.650816353900076"/>
<polyline points="-130.44784360859575 -63.829691143022245 -136.96539884056475 -70.17256587587296"/>
<polyline points="-143.48295407253377 -76.51544060872368 -122.64031798398294 -98.09147810956553 -136.53540870968348 -83.70745310900428"/>
<polyline points="-149.57051917362145 -96.39320257470577 -156.08807440559042 -102.7360773075565"/>
<polyline points="-156.08807440559042 -102.7360773075565 -162.60562963755942 -109.07895204040724"/>
<polyline points="-129.15787321595192 -104.43435284241625 -122.21032785310166 -111.62636534269686"/>
<polyline points="-122.21032785310166 -111.62636534269686 -115.2627824902514 -118.81837784297744"/>
<polyline points="-115.2627824902514 -118.81837784297744 -108.3152371274011 -126.01039034325807"/>
<polyline points="-107.88524699651983 -139.5452775763894 -114.40280222848878 -145.88815230924013"/>
<polyline points="-136.1054185788022 -97.24234034213559 -116.55275288289526 -78.21371614358338 -129.5878633468332 -90.89946560928485"/>
<polyline points="-115.69277262113263 -105.28349060984604 -108.74522725828233 -112.47550311012668"/>
<polyline points="-108.74522725828233 -112.47550311012668 -101.79768189543205 -119.66751561040725"/>
<polyline points="-109.60520752004496 -85.40572864386397 -103.08765228807599 -79.06285391101324"/>
<polyline points="-103.08765228807599 -79.06285391101324 -96.57009705610702 -72.71997917816248"/>
<polyline points="-130.01785347771454 -77.36457837615356 -136.9653988405648 -70.17256587587299"/>
<polyline points="-136.9653988405648 -70.17256587587299 -143.9129442034151 -62.98055337559237"/>
<polyline points="-123.07030811486423 -84.55659087643413 -102.22767202631336 -106.13262837727588 -116.12276275201393 -91.74860337671473"/>
<polyline points="-110.03898523163369 -86.07660326417196 -106.99709647144353 -83.2406032079006"/>
<polyline points="-106.99709647144353 -83.2406032079006 -103.95520771125338 -80.40460315162922"/>
<polyline points="-113.08087399182381 -88.91260332044337 -122.20654027239425 -97.42060348925746 -116.12276275201393 -91.74860337671473"/>
<polyline points="-116.12276275201393 -91.74860337671473 -122.64031798398291 -98.09147810956546"/>
<polyline points="-116.12276275201393 -91.74860337671473 -109.60520752004496 -85.40572864386397"/>
<polyline points="-116.12276275201393 -91.74860337671473 -109.60520752004496 -85.40572864386397"/>
<polyline points="-113.08087399182381 -88.91260332044337 -110.03898523163369 -86.07660326417196"/>
<polyline points="-100.47954123947456 -76.89772847504982 -93.96198600750556 -70.55485374219909"/>
<polyline points="-87.44443077553657 -64.21197900934835 -93.96198600750556 -70.55485374219909"/>
<polyline points="-87.44443077553657 -64.21197900934835 -80.92687554356762 -57.86910427649758"/>
<polyline points="-81.3568656744489 -44.33421704336629 -88.30441103729922 -37.14220454308568"/>
<polyline points="-95.25195640014948 -29.950192042805092 -102.1995017629998 -22.758179542524505"/>
<polyline points="-95.25195640014948 -29.950192042805092 -102.1995017629998 -22.758179542524505"/>
<polyline points="-106.10515836565997 -12.73016698597254 -103.0632696054698 -9.894166929701164"/>
<polyline points="-100.02138084527967 -7.058166873429805 -119.57404654118666 -26.086791071982024 -106.53893607724865 -13.401041606280545"/>
<polyline points="-100.45515855686843 -7.729041493737845 -97.41326979667828 -4.893041437466486"/>
<polyline points="-97.41326979667828 -4.893041437466486 -94.37138103648819 -2.0570413811951265"/>
<polyline points="-116.53215778099651 -23.250791015710686 -123.0497130129655 -29.59366574856143"/>
<polyline points="-123.0497130129655 -29.59366574856143 -129.56726824493447 -35.936540481412166"/>
<polyline points="-129.56726824493447 -35.936540481412166 -136.08482347690344 -42.279415214262926"/>
<polyline points="-139.56048994868235 -45.78628989084232 -136.51860118849223 -42.95028983457095"/>
<polyline points="-110.01460254902752 -16.907916282859947 -119.14026882959784 -25.41591645167399 -113.05649130921763 -19.7439163391313"/>
<polyline points="-126.09160177315562 -32.42966580483279 -132.60915700512462 -38.77254053768352"/>
<polyline points="-132.60915700512462 -38.77254053768352 -139.1267122370936 -45.11541527053426"/>
<polyline points="-125.65782406156687 -31.75879118452473 -128.69971282175698 -34.594791240796106"/>
<polyline points="-128.69971282175698 -34.594791240796106 -131.74160158194712 -37.43079129706745"/>
<polyline points="-125.65782406156687 -31.75879118452473 -128.69971282175698 -34.594791240796106"/>
<polyline points="-138.25915681391606 -43.77366602991822 -144.77671204588506 -50.11654076276895"/>
<polyline points="-119.57404654118666 -26.086791071982024 -100.02138084527971 -7.058166873429746 -113.05649130921765 -19.743916339131264"/>
<polyline points="-119.14026882959784 -25.41591645167399 -122.18215758978805 -28.251916507945324"/>
<polyline points="-122.18215758978805 -28.251916507945324 -125.22404634997815 -31.087916564216687"/>
<polyline points="-103.06326960546981 -9.894166929701088 -96.54571437350084 -3.551292196850329"/>
<polyline points="-96.54571437350084 -3.551292196850329 -90.02815914153186 2.791582536000431"/>
<polyline points="-103.06326960546981 -9.894166929701088 -96.54571437350084 -3.551292196850329"/>
<polyline points="-93.07004790172195 -0.0444175202709295 -96.1119366619121 -2.8804175765422695"/>
<polyline points="-96.1119366619121 -2.8804175765422695 -93.07004790172195 -0.0444175202709295"/>
<polyline points="-116.09838006940778 -22.579916395402616 -122.61593530137677 -28.922791128253383"/>
<polyline points="-116.09838006940778 -22.579916395402616 -122.61593530137677 -28.922791128253383"/>
<polyline points="-116.09838006940778 -22.579916395402616 -119.14026882959784 -25.41591645167399"/>
<polyline points="-128.69971282175698 -34.594791240796106 -135.21726805372597 -40.93766597364687"/>
<polyline points="-141.73482328569494 -47.28054070649764 -135.21726805372597 -40.93766597364687"/>
<polyline points="-141.73482328569494 -47.28054070649764 -148.25237851766394 -53.623415439348406"/>
<polyline points="-161.71747911248323 -52.774277671918554 -168.66502447533347 -45.582265171637964"/>
<polyline points="-175.61256983818376 -38.39025267135741 -182.56011520103405 -31.19824017107686"/>
<polyline points="-175.61256983818376 -38.39025267135741 -182.56011520103405 -31.19824017107686"/>
<polyline points="-192.54954932407452 -26.842227727067616 -195.59143808426464 -29.678227783338922"/>
<polyline points="-198.63332684445479 -32.51422783961026 -177.7906907559039 -54.09026534045199 -191.6857814816045 -39.70624033989085"/>
<polyline points="-204.7208919455425 -52.39198980559237 -211.23844717751146 -58.73486453844315"/>
<polyline points="-211.23844717751146 -58.73486453844315 -217.75600240948046 -65.07773927129392"/>
<polyline points="-184.3082459878728 -60.4331400733028 -177.36070062502256 -67.62515257358335"/>
<polyline points="-177.36070062502256 -67.62515257358335 -170.41315526217227 -74.81716507386398"/>
<polyline points="-184.3082459878728 -60.4331400733028 -177.36070062502256 -67.62515257358335"/>
<polyline points="-176.93071049414127 -81.1600398067147 -183.44826572611024 -87.50291453956555"/>
<polyline points="-183.44826572611024 -87.50291453956555 -176.93071049414127 -81.1600398067147"/>
<polyline points="-183.44826572611024 -87.50291453956555 -189.96582095807926 -93.84578927241627"/>
<polyline points="-198.2033367135735 -46.04911507274162 -205.15088207642376 -38.857102572461"/>
<polyline points="-191.25579135072317 -53.24112757302221 -184.3082459878728 -60.4331400733028"/>
<polyline points="-183.87825585699153 -73.96802730643417 -190.39581108896053 -80.31090203928491"/>
<polyline points="-196.91336632092953 -86.65377677213569 -190.39581108896053 -80.31090203928491"/>
<polyline points="-196.91336632092953 -86.65377677213569 -203.43092155289847 -92.99665150498646"/>
<polyline points="-212.99036554505756 -102.17552629410854 -216.03225430524768 -105.0115263503799"/>
<polyline points="-219.07414306543777 -107.84752640665126 -222.11603182562789 -110.68352646292252"/>
<polyline points="-219.07414306543777 -107.84752640665126 -222.11603182562789 -110.68352646292252"/>
<polyline points="-218.21037522296766 -120.71153901947447 -211.2628298601174 -127.903551519755"/>
<polyline points="-211.2628298601174 -127.903551519755 -218.21037522296766 -120.71153901947447"/>
<polyline points="-177.7906907559039 -54.09026534045199 -170.8431453930536 -61.28227784073261"/>
<polyline points="-170.8431453930536 -61.28227784073261 -163.89560003020333 -68.47429034101317"/>
<polyline points="-184.73823611875417 -46.89825284017148 -205.58087220730508 -25.322215339329635 -191.6857814816045 -39.70624033989085"/>
<polyline points="-185.60200396122423 -34.0342402273482 -182.56011520103405 -31.19824017107686"/>
<polyline points="-182.56011520103405 -31.19824017107686 -179.5182264408439 -28.362240114805488"/>
<polyline points="-188.64389272141435 -36.8702402836195 -197.76955900198473 -45.37824045243353 -191.6857814816045 -39.70624033989085"/>
<polyline points="-188.64389272141435 -36.8702402836195 -185.60200396122423 -34.0342402273482"/>
<polyline points="-178.65067101766653 -27.02049087418933 -172.13311578569756 -20.67761614133855"/>
<polyline points="-172.13311578569756 -20.67761614133855 -165.61556055372859 -14.334741408487806"/>
<polyline points="-185.16822624963547 -33.36336560704011 -204.72089194554243 -52.3919898055924 -191.6857814816045 -39.70624033989085"/>
<polyline points="-205.58087220730505 -25.322215339329674 -212.52841757015534 -18.13020283904908"/>
<polyline points="-212.52841757015534 -18.13020283904908 -219.47596293300566 -10.938190338768527"/>
<polyline points="-198.63332684445479 -32.51422783961026 -177.7906907559039 -54.09026534045199 -191.6857814816045 -39.70624033989085"/>
<polyline points="-198.63332684445479 -32.51422783961026 -205.58087220730505 -25.322215339329674"/>
<polyline points="-198.63332684445479 -32.51422783961026 -205.58087220730505 -25.322215339329674"/>
<polyline points="-209.4865288099652 -15.294202782777738 -206.44464004977505 -12.4582027265064"/>
<polyline points="-191.6857814816045 -39.70624033989085 -200.81144776217488 -48.21424050870486 -194.7276702417946 -42.542240396162185"/>
<polyline points="-208.62276096749517 -28.158215395601047 -215.57030633034552 -20.966202895320418"/>
<polyline points="-215.57030633034552 -20.966202895320418 -222.51785169319575 -13.774190395039868"/>
<polyline points="-207.75899312502514 -41.02222800842428 -210.80088188521532 -43.858228064695616"/>
<polyline points="-210.80088188521532 -43.858228064695616 -213.8427706454054 -46.69422812096699"/>
<polyline points="-207.75899312502514 -41.02222800842428 -210.80088188521532 -43.858228064695616"/>
<polyline points="-220.7903160082557 -39.502215620686364 -227.73786137110605 -32.310203120405816"/>
<polyline points="-227.73786137110605 -32.310203120405816 -220.7903160082557 -39.502215620686364"/>
<polyline points="-201.67521560464488 -35.35022789588164 -198.63332684445479 -32.51422783961026"/>
<polyline points="-201.67521560464488 -35.35022789588164 -198.63332684445479 -32.51422783961026"/>
<polyline points="-201.67521560464488 -35.35022789588164 -208.62276096749517 -28.158215395601047"/>
<polyline points="-212.52841757015534 -18.13020283904908 -209.48652880996522 -15.294202782777736"/>
<polyline points="-206.44464004977505 -12.458202726506435 -209.48652880996522 -15.294202782777736"/>
<polyline points="-206.44464004977505 -12.458202726506435 -203.40275128958498 -9.622202670235096"/>
<polyline points="-193.8433072974258 -0.4433278811129775 -187.32575206545687 5.899546851737838"/>
<polyline points="-180.8081968334879 12.242421584588579 -174.29064160151896 18.58529631743934"/>
<polyline points="-180.8081968334879 12.242421584588579 -174.29064160151896 18.58529631743934"/>
<polyline points="-174.72063173240022 32.12018355057069 -181.66817709525048 39.31219605085122"/>
<polyline points="-188.6157224581008 46.50420855113182 -208.16838815400777 27.47558435257953 -195.1332776900698 40.161333818281065"/>
<polyline points="-189.0495001696896 45.83333393082385 -186.00761140949945 48.669333987095186"/>
<polyline points="-186.00761140949945 48.669333987095186 -182.96572264930938 51.50533404336656"/>
<polyline points="-205.1264993938176 30.31158440885087 -211.6440546257866 23.968709676000127"/>
<polyline points="-211.6440546257866 23.968709676000127 -218.16160985775556 17.625834943149354"/>
<polyline points="-205.1264993938176 30.31158440885087 -211.6440546257866 23.968709676000127"/>
<polyline points="-215.11972109756553 20.461834999420805 -212.07783233737544 23.297835055692143"/>
<polyline points="-212.07783233737544 23.297835055692143 -215.11972109756553 20.461834999420805"/>
<polyline points="-212.07783233737544 23.297835055692143 -209.03594357718532 26.133835111963528"/>
<polyline points="-192.09138892987968 42.99733387455244 -185.57383369791071 49.34020860740323"/>
<polyline points="-198.60894416184868 36.654459141701686 -205.1264993938176 30.31158440885087"/>
<polyline points="-208.60216586559648 26.804709732271505 -205.56027710540644 29.640709788542882"/>
<polyline points="-202.51838834521632 32.4767098448143 -205.56027710540644 29.640709788542882"/>
<polyline points="-202.51838834521632 32.4767098448143 -199.47649958502626 35.31270990108561"/>
<polyline points="-203.38215618768643 45.3407224576376 -210.32970155053667 52.53273495791816"/>
<polyline points="-217.27724691338702 59.72474745819873 -224.2247922762373 66.91675995847932"/>
<polyline points="-217.27724691338702 59.72474745819873 -224.2247922762373 66.91675995847932"/>
<polyline points="-237.68989287105654 67.76589772590914 -244.20744810302557 61.42302299305842"/>
<polyline points="-250.72500333499454 55.08014826020764 -244.20744810302557 61.42302299305842"/>
<polyline points="-250.72500333499454 55.08014826020764 -257.2425585669635 48.73727352735681"/>
<polyline points="-260.7182250387424 45.23039885077742 -257.67633627855224 48.06639890704873"/>
<polyline points="-195.1332776900698 40.161333818281065 -214.6859433859767 21.132709619728715 -201.65083292203877 33.818459085430305"/>
<polyline points="-195.5670554016586 39.49045919797307 -192.52516664146842 42.32645925424443"/>
<polyline points="-192.52516664146842 42.32645925424443 -189.48327788127835 45.16245931051584"/>
<polyline points="-211.6440546257866 23.968709676000127 -218.16160985775556 17.625834943149354"/>
<polyline points="-218.16160985775556 17.625834943149354 -224.67916508972462 11.282960210298613"/>
<polyline points="-211.6440546257866 23.968709676000127 -218.16160985775556 17.625834943149354"/>
<polyline points="-221.6372763295345 14.118960266570028 -218.5953875693444 16.95496032284137"/>
<polyline points="-218.5953875693444 16.95496032284137 -221.6372763295345 14.118960266570028"/>
<polyline points="-198.60894416184868 36.654459141701686 -192.09138892987968 42.99733387455244"/>
<polyline points="-198.60894416184868 36.654459141701686 -192.09138892987968 42.99733387455244"/>
<polyline points="-198.60894416184868 36.654459141701686 -195.5670554016586 39.49045919797307"/>
<polyline points="-186.00761140949945 48.669333987095186 -179.4900561775305 55.01220871994594"/>
<polyline points="-172.97250094556148 61.355083452796734 -179.4900561775305 55.01220871994594"/>
<polyline points="-172.97250094556148 61.355083452796734 -166.45494571359256 67.69795818564748"/>
<polyline points="-166.88493584447386 81.23284541877882 -173.83248120732418 88.42485791905945"/>
<polyline points="-180.78002657017444 95.61687041934002 -187.72757193302473 102.80888291962059"/>
<polyline points="-180.78002657017444 95.61687041934002 -187.72757193302473 102.80888291962059"/>
<polyline points="-191.63322853568496 112.83689547617256 -188.5913397754948 115.67289553244387"/>
<polyline points="-185.54945101530467 118.50889558871525 -164.7068149267538 96.9328580878735 -178.60190565245446 111.31688308843472"/>
<polyline points="-165.5667951885165 124.00263255413623 -159.0492399565475 130.345507286987"/>
<polyline points="-159.0492399565475 130.345507286987 -152.5316847245785 136.68838201983772"/>
<polyline points="-158.18925969478485 103.2757328207243 -151.2417143319345 96.0837203204437"/>
<polyline points="-151.2417143319345 96.0837203204437 -144.29416896908424 88.8917078201631"/>
<polyline points="-158.18925969478485 103.2757328207243 -151.2417143319345 96.0837203204437"/>
<polyline points="-137.77661373711524 95.23458255301388 -131.2590585051463 101.57745728586467"/>
<polyline points="-131.2590585051463 101.57745728586467 -137.77661373711524 95.23458255301388"/>
<polyline points="-131.2590585051463 101.57745728586467 -124.74150327317726 107.92033201871541"/>
<polyline points="-172.0843504204854 117.65975782128542 -179.0318957833357 124.85177032156602"/>
<polyline points="-165.13680505763512 110.46774532100486 -158.18925969478485 103.2757328207243"/>
<polyline points="-144.72415909996553 102.42659505329448 -138.2066038679966 108.76946978614528"/>
<polyline points="-131.68904863602756 115.11234451899601 -138.2066038679966 108.76946978614528"/>
<polyline points="-131.68904863602756 115.11234451899601 -125.17149340405858 121.45521925184676"/>
<polyline points="-115.61204941189952 130.6340940409689 -112.57016065170946 133.47009409724026"/>
<polyline points="-109.52827189151935 136.30609415351162 -106.48638313132926 139.14209420978298"/>
<polyline points="-109.52827189151935 136.30609415351162 -106.48638313132926 139.14209420978298"/>
<polyline points="-96.49694900828884 134.78608176577373 -89.54940364543855 127.59406926549316"/>
<polyline points="-82.60185828258827 120.40205676521258 -75.65431291973796 113.21004426493205"/>
<polyline points="-82.60185828258827 120.40205676521258 -75.65431291973796 113.21004426493205"/>
<polyline points="-62.189212324918714 112.36090649750221 -55.67165709294971 118.70378123035297"/>
<polyline points="-178.60190565245446 111.31688308843472 -157.7592695639035 89.74084558759291 -171.6543602896041 104.12487058815407"/>
<polyline points="-158.61924982566615 116.81062005385564 -152.1016945936972 123.1534947867064"/>
<polyline points="-152.1016945936972 123.1534947867064 -145.58413936172818 129.49636951955716"/>
<polyline points="-151.2417143319345 96.0837203204437 -144.29416896908424 88.89170782016312"/>
<polyline points="-144.29416896908424 88.89170782016312 -137.34662360623395 81.69969531988255"/>
<polyline points="-151.2417143319345 96.0837203204437 -144.29416896908424 88.89170782016312"/>
<polyline points="-130.82906837426498 88.0425700527333 -124.31151314229598 94.38544478558408"/>
<polyline points="-124.31151314229598 94.38544478558408 -130.82906837426498 88.0425700527333"/>
<polyline points="-165.13680505763512 110.46774532100487 -172.0843504204854 117.65975782128542"/>
<polyline points="-165.13680505763512 110.46774532100487 -172.0843504204854 117.65975782128542"/>
<polyline points="-165.13680505763512 110.46774532100487 -158.61924982566615 116.81062005385564"/>
<polyline points="-159.04923995654747 130.34550728698702 -165.99678531939782 137.53751978726754"/>
<polyline points="-172.9443306822481 144.72953228754812 -165.99678531939782 137.53751978726754"/>
<polyline points="-172.9443306822481 144.72953228754812 -179.8918760450984 151.9215447878287"/>
<polyline points="-183.7975326477586 161.94955734438065 -180.75564388756848 164.78555740065195"/>
<polyline points="-177.71375512737842 167.62155745692328 -174.67186636718836 170.45755751319464"/>
<polyline points="-177.71375512737842 167.62155745692328 -174.67186636718836 170.45755751319464"/>
<polyline points="-165.11242237502927 179.63643230231682 -158.59486714306024 185.9793070351675"/>
<polyline points="-152.0773119110913 192.32218176801837 -161.2029781916616 183.8141815992043 -155.11920067128142 189.48618171174695"/>
<polyline points="-169.014291396982 203.87020671230815 -175.9618367598323 211.06221921258873"/>
<polyline points="-175.9618367598323 211.06221921258873 -182.90938212268256 218.25423171286928"/>
<polyline points="-168.15052355451186 191.00619409948484 -171.19241231470193 188.17019404321348"/>
<polyline points="-171.19241231470193 188.17019404321348 -174.23430107489207 185.33419398694213"/>
<polyline points="-168.15052355451186 191.00619409948484 -171.19241231470193 188.17019404321348"/>
<polyline points="-181.18184643774237 192.52620648722265 -188.12939180059269 199.71821898750323"/>
<polyline points="-188.12939180059269 199.71821898750323 -181.18184643774237 192.52620648722265"/>
<polyline points="-188.12939180059269 199.71821898750323 -195.07693716344292 206.91023148778382"/>
<polyline points="-162.06674603413168 196.67819421202762 -159.02485727394162 199.51419426829892"/>
<polyline points="-165.1086347943218 193.8421941557562 -168.15052355451186 191.00619409948484"/>
<polyline points="-178.13995767755225 195.36220654349407 -185.08750304040257 202.55421904377462"/>
<polyline points="-192.0350484032529 209.74623154405515 -185.08750304040257 202.55421904377462"/>
<polyline points="-192.0350484032529 209.74623154405515 -198.98259376610315 216.93824404433576"/>
<polyline points="-199.41258389698447 230.47313127746708 -192.89502866501542 236.81600601031784"/>
<polyline points="-186.37747343304645 243.15888074316865 -179.85991820107745 249.5017554760194"/>
<polyline points="-186.37747343304645 243.15888074316865 -179.85991820107745 249.5017554760194"/>
<polyline points="-176.3842517292986 253.00863015259884 -179.4261404894887 250.1726300963275"/>
</svg>