<svg viewBox="-199.75778587383724 -175.11310602551913 405.72857453930214 394.34675030835" xmlns="http://www.w3.org/2000/svg">
<style>
svg { stroke:black; stroke-width:2px; fill:none;}
</style>
<polyline points="108.95879695032872 -0.64129201675947 107.32811488857752 -5.871167080951924 105.44207631553157 -13.073914288724906"/>
<polyline points="105.4420763155316 -13.073914288724932 103.55603774248561 -20.27666149649801 101.54317307007204 -28.961425528744822"/>
<polyline points="101.54317307007204 -28.961425528744822 99.53030839765846 -37.64618956099163 97.52779102688609 -47.22111810116572"/>
<polyline points="97.52779102688609 -47.22111810116572 95.52527365611371 -56.796046641339814 93.66957183648427 -66.60862413274587"/>
<polyline points="93.66957183648427 -66.60862413274587 91.8138700168548 -76.42120162415193 90.23144676068374 -85.80271712680171"/>
<polyline points="90.23144676068374 -85.80271712680171 88.64902350451268 -95.18423262945143 87.44771834163004 -103.49535136552669"/>
<polyline points="87.44771834163004 -103.49535136552669 86.24641317874739 -111.80647010160195 85.50809307075292 -118.48080306401228"/>
<polyline points="85.50809307075292 -118.48080306401228 84.76977296275845 -125.15513602642265 84.54475320488034 -129.73783845363658"/>
<polyline points="84.54475320488034 -129.73783845363658 84.31973344700222 -134.32054088085044 84.62334876387712 -136.49930917572715"/>
<polyline points="84.62334876387712 -136.49930917572715 84.92696408075201 -138.67807747060388 85.73852359028294 -138.3044321744323"/>
<polyline points="85.73852359028294 -138.3044321744323 86.55008309981385 -137.93078687826076 87.81428036259176 -135.03019130049705"/>
<polyline points="87.81428036259176 -135.03019130049705 89.07847762536967 -132.1295957227333 90.70915968712103 -126.89972065854113"/>
<polyline points="90.70915968712103 -126.89972065854113 92.33984174887236 -121.669845594349 94.22588032191831 -114.46709838657591"/>
<polyline points="94.22588032191831 -114.46709838657591 96.11191889496428 -107.2643511788029 98.12478356737783 -98.57958714655607"/>
<polyline points="98.12478356737783 -98.57958714655607 100.13764823979143 -89.89482311430926 102.14016561056377 -80.31989457413515"/>
<polyline points="102.14016561056377 -80.31989457413515 104.14268298133616 -70.74496603396109 105.99838480096562 -60.932388542554996"/>
<polyline points="105.99838480096562 -60.932388542554996 107.8540866205951 -51.11981105114893 109.43650987676614 -41.738295548499174"/>
<polyline points="109.43650987676614 -41.738295548499174 111.01893313293718 -32.35678004584945 112.22023829581983 -24.04566130977418"/>
<polyline points="112.22023829581983 -24.04566130977418 113.42154345870249 -15.734542573698914 114.15986356669698 -9.060209611288554"/>
<polyline points="114.15986356669698 -9.060209611288554 114.89818367469144 -2.3858766488782215 115.12320343256955 2.1968257783357"/>
<polyline points="115.12320343256955 2.1968257783357 115.34822319044768 6.779528205549624 115.04460787357276 8.95829650042629"/>
<polyline points="115.04460787357276 8.95829650042629 114.74099255669788 11.137064795302981 113.92943304716692 10.763419499131423"/>
<polyline points="113.92943304716692 10.763419499131423 113.11787353763602 10.389774202959883 111.85367627485812 7.48917862519615"/>
<polyline points="111.85367627485812 7.48917862519615 110.58947901208022 4.588583047432422 108.95879695032887 -0.6412920167597332"/>
<polyline points="108.95879695032887 -0.6412920167597332 107.32811488857755 -5.871167080951892 105.44207631553157 -13.073914288724954"/>
<polyline points="105.44207631553157 -13.073914288724954 103.55603774248564 -20.27666149649803 101.54317307007203 -28.96142552874484"/>
<polyline points="101.54317307007203 -28.96142552874484 99.53030839765844 -37.646189560991644 97.52779102688609 -47.22111810116573"/>
<polyline points="97.52779102688609 -47.22111810116573 95.52527365611371 -56.796046641339814 93.66957183648425 -66.60862413274589"/>
<polyline points="93.66957183648425 -66.60862413274589 91.81387001685479 -76.42120162415196 90.23144676068374 -85.80271712680172"/>
<polyline points="90.23144676068374 -85.80271712680172 88.64902350451268 -95.18423262945143 87.44771834163004 -103.49535136552669"/>
<polyline points="87.44771834163004 -103.49535136552669 95.15973600904847 -119.78105773545333 91.0049933709634 -115.34407755008414"/>
<polyline points="95.15973600904847 -119.78105773545333 91.01306591608163 -113.26925681453679"/>
<polyline points="86.86639582311484 -106.75745589362019 82.71972573014804 -100.24565497270365"/>
<polyline points="82.71972573014804 -100.24565497270365 78.56498309206297 -95.80867478733447"/>
<polyline points="82.71972573014804 -100.24565497270365 95.4469577228726 -107.5136216553505 90.19380077303502 -108.66681539318036"/>
<polyline points="95.4469577228726 -107.5136216553505 89.43367356065608 -106.2294704627976"/>
<polyline points="83.42038939843961 -104.94531927024465 77.40710523622312 -103.66116807769176"/>
<polyline points="77.40710523622312 -103.66116807769176 72.15394828638554 -104.81436181552165"/>
<polyline points="77.40710523622312 -103.66116807769176 91.53950197379419 -99.57972520216104 87.2342433059819 -105.97972022308255"/>
<polyline points="91.53950197379419 -99.57972520216104 85.65320267052101 -103.94896154979797"/>
<polyline points="79.76690336724783 -108.3181978974349 73.88060406397466 -112.68743424507183"/>
<polyline points="73.88060406397466 -112.68743424507183 69.5753453961624 -119.08742926599332"/>
<polyline points="44.44910754760881 -134.53361598325642 36.887394276045185 -138.97996210790737"/>
<polyline points="29.325681004481535 -143.4263082325584 28.89289507831366 -158.26205322962582 28.884753729140353 -148.4851973881488"/>
<polyline points="28.89289507831366 -158.26205322962582 29.000694046020485 -149.36140689010819"/>
<polyline points="29.1084930137273 -140.46076055059055 29.216291981434114 -131.5601142110729"/>
<polyline points="29.216291981434114 -131.5601142110729 29.208150632260818 -121.78325836959584"/>
<polyline points="29.216291981434114 -131.5601142110729 31.809759808286664 -140.97747615728252 34.43052026902745 -150.61702049430843"/>
<polyline points="34.43052026902745 -150.61702049430843 37.05128072976825 -160.25656483133434 39.52073333000925 -169.4613725427084"/>
<polyline points="39.52073333000925 -169.4613725427084 37.370877704011086 -161.31859389085227 35.68712816036309 -154.79276120706024"/>
<polyline points="39.169444301248355 -126.85734900931094 37.48569475760038 -120.33151632551885"/>
<polyline points="35.80194521395239 -113.80568364172677 46.840194162562355 -107.75437715520479 42.771028881039804 -105.95417279643976"/>
<polyline points="46.840194162562355 -107.75437715520479 41.87693016502323 -108.38871617541918"/>
<polyline points="36.91366616748411 -109.02305519563355 31.95040216994497 -109.65739421584794"/>
<polyline points="31.95040216994497 -109.65739421584794 27.881236888422418 -107.8571898570829"/>
<polyline points="31.95040216994497 -109.65739421584794 27.881236888422418 -107.8571898570829 24.983477212238615 -103.7451230714099"/>
<polyline points="24.983477212238615 -103.7451230714099 23.454600674551212 -97.60142441476091 23.398797684815673 -89.84477679764447"/>
<polyline points="23.398797684815673 -89.84477679764447 23.342994695080133 -82.08812918052801 24.764068134828136 -73.24713531958434"/>
<polyline points="24.764068134828136 -73.24713531958434 26.185141574576125 -64.40614145864066 28.986247637323725 -55.08330047505995"/>
<polyline points="28.986247637323725 -55.08330047505995 31.787353700071325 -45.76045949147918 35.777601636688914 -36.59110759156919"/>
<polyline points="35.777601636688914 -36.59110759156919 39.76784957330651 -27.42175569165921 44.675310581110104 -19.03076905432839 56.63733271631321 -3.1603617995639457 49.423042550693104 -9.13234754569686"/>
<polyline points="56.63733271631321 -3.1603617995639457 49.806942186268124 -10.359252746990169"/>
<polyline points="42.97655165622303 -17.558143694416398 36.14616112617795 -24.75703464184262"/>
<polyline points="36.14616112617795 -24.75703464184262 28.931870960557855 -30.729020387975524"/>
<polyline points="44.675310581110104 -19.03076905432839 39.76784957330651 -27.421755691659214 34.27761085203596 -34.46254519383784"/>
<polyline points="34.27761085203596 -34.46254519383784 28.787372130765412 -41.50333469601646 23.088506391834006 -46.71410889392422"/>
<polyline points="23.088506391834006 -46.71410889392422 17.389640652902614 -51.92488309183198 11.870516178597622 -54.95053633509298"/>
<polyline points="11.870516178597622 -54.95053633509298 6.351391704292622 -57.97618957835396 1.3881277067534843 -58.61052859856836"/>
<polyline points="1.3881277067534843 -58.61052859856836 -3.5751362907856614 -59.24486761878274 -7.644301572308215 -57.44466326001771"/>
<polyline points="-7.644301572308215 -57.44466326001771 -11.713466853830786 -55.64445890125267 -14.611226530014578 -51.532392115579675"/>
<polyline points="-14.611226530014578 -51.532392115579675 -11.413249321474655 -47.97129819941517 -15.251744577036067 -53.708790416410906"/>
<polyline points="-11.413249321474655 -47.97129819941517 -14.227898082198497 -51.86292164008923"/>
<polyline points="-17.042546842922356 -55.75454508076331 -19.857195603646204 -59.64616852143738"/>
<polyline points="-19.857195603646204 -59.64616852143738 -23.69569085920762 -65.38366073843311"/>
<polyline points="-19.857195603646204 -59.64616852143738 -8.008196668605974 -51.22291476618263 -14.864209511538045 -58.05855768932085"/>
<polyline points="-8.008196668605974 -51.22291476618263 -14.623876652830463 -56.94140240783075"/>
<polyline points="-21.239556637054935 -62.65989004947888 -27.855236621279424 -68.37837769112699"/>
<polyline points="-27.855236621279424 -68.37837769112699 -34.711249464211505 -75.21402061426517"/>
<polyline points="-27.855236621279424 -68.37837769112699 -10.84217330465997 -58.511675704032996 -18.222027641984173 -64.49229653523953"/>
<polyline points="-10.84217330465997 -58.511675704032996 -19.065571811700035 -64.16116323595003"/>
<polyline points="-27.288970318740102 -69.8106507678671 -35.51236882578017 -75.4601382997841"/>
<polyline points="-35.51236882578017 -75.4601382997841 -42.89222316310438 -81.44075913099066"/>
<polyline points="-76.6293613609805 -103.70757595936935 -86.03265934886919 -107.02919028319494"/>
<polyline points="-95.43595733675787 -110.35080460702052 -103.50369416404581 -125.42761024339966 -99.75955874992962 -121.82004936844217"/>
<polyline points="-103.50369416404581 -125.42761024339966 -99.47750311703652 -119.65803488378425"/>
<polyline points="-95.45131207002727 -113.88845952416885 -91.42512102301797 -108.11888416455344"/>
<polyline points="-91.42512102301797 -108.11888416455344 -87.68098560890179 -104.51132328959592"/>
<polyline points="-91.42512102301797 -108.11888416455344 -92.67696565056998 -112.3819656591613 -93.47652075343274 -114.21484703379406"/>
<polyline points="-93.47652075343274 -114.21484703379406 -94.27607585629552 -116.04772840842686 -94.56885307553624 -115.32550182638305"/>
<polyline points="-94.56885307553624 -115.32550182638305 -94.80280602357156 -118.55361781707303 -95.54754563209991 -124.06763244635758"/>
<polyline points="-88.28521308760172 -147.41318755524108 -89.02995269612998 -152.92720218452567"/>
<polyline points="-89.77469230465839 -158.4412168138102 -80.56135621405272 -175.11310602551913 -81.95436898808043 -165.23579139510514"/>
<polyline points="-80.56135621405272 -175.11310602551913 -83.6670195352108 -165.68522929804777"/>
<polyline points="-86.7726828563689 -156.25735257057647 -89.87834617752695 -146.8294758431051"/>
<polyline points="-89.87834617752695 -146.8294758431051 -91.27135895155467 -136.9521612126911"/>
<polyline points="-89.87834617752695 -146.8294758431051 -91.27135895155467 -136.9521612126911 -90.85678965996446 -127.29853134836296"/>
<polyline points="-90.85678965996446 -127.29853134836296 -88.66289051487013 -118.52646517199696 -84.83917211742002 -111.23376449698767"/>
<polyline points="-84.83917211742002 -111.23376449698767 -81.01545371996993 -103.94106382197842 -75.82249615995691 -98.62471414757006"/>
<polyline points="-75.82249615995691 -98.62471414757006 -70.62953859994386 -93.30836447316172 -64.42123335331458 -90.33066624398197"/>
<polyline points="-64.42123335331458 -90.33066624398197 -58.21292810668535 -87.35296801480222 -51.41236091628818 -86.91684644429068"/>
<polyline points="-51.41236091628818 -86.91684644429068 -44.61179372589099 -86.48072487377915 -37.68241200728282 -88.61590092624121 -20.81874459163852 -86.9971884736007 -28.81743317011228 -82.75945421109816"/>
<polyline points="-20.81874459163852 -86.9971884736007 -29.323808768988098 -85.2225294144504"/>
<polyline points="-37.828872946337675 -83.44787035530011 -46.333937123687264 -81.67321129614982"/>
<polyline points="-46.333937123687264 -81.67321129614982 -54.33262570216104 -77.43547703364729"/>
<polyline points="-37.68241200728282 -88.61590092624121 -44.61179372589099 -86.48072487377914 -51.19776405993175 -81.91975991777349"/>
<polyline points="-51.19776405993175 -81.91975991777349 -57.78373439397254 -77.35879496176784 -63.5774703490116 -70.68286332661944"/>
<polyline points="-63.5774703490116 -70.68286332661944 -69.37120630405065 -64.00693169147102 -73.97787434935348 -55.67098708561657"/>
<polyline points="-73.97787434935348 -55.67098708561657 -78.5845423946563 -47.33504247976211 -81.69020571581436 -37.90716575229078"/>
<polyline points="-81.69020571581436 -37.90716575229078 -84.79586903697246 -28.47928902481943 -86.18888181100014 -18.601974394405424"/>
<polyline points="-86.18888181100014 -18.601974394405424 -87.58189458502787 -8.724659763991424 -87.16732529343766 0.9289701003367218"/>
<polyline points="-87.16732529343766 0.9289701003367218 -79.25122872655326 19.149031970074027 -86.14368994872369 12.327101777446728"/>
<polyline points="-79.25122872655326 19.149031970074027 -84.86786574479024 10.90204203881607"/>
<polyline points="-90.4845027630272 2.6550521075581033 -96.10113978126415 -5.591937823699872"/>
<polyline points="-96.10113978126415 -5.591937823699872 -102.99360100343455 -12.413868016327186"/>
<polyline points="-96.10113978126415 -5.591937823699872 -79.6664318830051 5.760676526560948 -88.79386738439617 4.0469163984234475"/>
<polyline points="-79.6664318830051 5.760676526560948 -88.64475556918116 1.9352962012106274"/>
<polyline points="-97.62307925535715 -1.8900841241397075 -106.60140294153314 -5.715464449490021"/>
<polyline points="-106.60140294153314 -5.715464449490021 -115.7288384429242 -7.429224577627542"/>
<polyline points="-106.60140294153314 -5.715464449490021 -86.87876522226603 -5.0828111022628715 -95.1061549360064 -1.1646106693363805"/>
<polyline points="-86.87876522226603 -5.0828111022628715 -96.24216978246285 -3.2183440483324883"/>
<polyline points="-105.60557434265971 -1.3538769944021118 -114.9689789028565 0.510590059528267"/>
<polyline points="-114.9689789028565 0.510590059528267 -123.19636861659694 4.428790492454752"/>
<polyline points="-161.78600170384072 9.832925329180163 -171.4261120560464 12.446102441152604"/>
<polyline points="-181.06622240825206 15.059279553125014 -191.6362094554093 24.555209071825683 -188.6117900199387 16.045116792662075"/>
<polyline points="-191.6362094554093 24.555209071825683 -187.3349408005621 17.692333746579816"/>
<polyline points="-183.03367214571477 10.829458421333964 -178.7324034908675 3.966583096088095"/>
<polyline points="-178.7324034908675 3.966583096088095 -175.7079840553969 -4.54350918307549"/>
<polyline points="-178.7324034908675 3.966583096088095 -179.6088099231133 12.113966418406124 -179.07544971774973 21.34097697741137"/>
<polyline points="-179.07544971774973 21.34097697741137 -178.54208951238616 30.56798753641662 -176.63531028598942 40.24581981086884"/>
<polyline points="-176.63531028598942 40.24581981086884 -179.78556468024215 30.776694097099554 -183.96460961142392 22.16158021293646"/>
<polyline points="-191.39969601147357 -13.685961021441443 -195.57874094265534 -22.301074905604537"/>
<polyline points="-199.75778587383724 -30.916188789767627 -198.16982558485418 -41.86292265722864 -196.2077180275932 -40.54640575657992"/>
<polyline points="-198.16982558485418 -41.86292265722864 -197.565158341792 -38.34822015648648"/>
<polyline points="-196.96049109872988 -34.83351765574435 -196.3558238556677 -31.318815155002195"/>
<polyline points="-196.3558238556677 -31.318815155002195 -194.3937162984067 -30.00229825435348"/>
<polyline points="-196.3558238556677 -31.318815155002195 -194.3937162984067 -30.00229825435348 -191.20788281443816 -30.973685404930364"/>
<polyline points="-191.20788281443816 -30.973685404930364 -187.01543269085565 -34.16677817771417 -182.10207447523015 -39.363972577075025"/>
<polyline points="-182.10207447523015 -39.363972577075025 -177.18871625960455 -44.56116697643588 -171.8892871946224 -51.40828279282716"/>
<polyline points="-171.8892871946224 -51.40828279282716 -166.58985812964016 -58.25539860921844 -161.26550554835927 -66.28581621514698"/>
<polyline points="-161.26550554835927 -66.28581621514698 -155.94115296707838 -74.3162338210755 -150.9547226990044 -82.9826935275898"/>
<polyline points="-150.9547226990044 -82.9826935275898 -145.96829243093052 -91.64915323410412 -141.65960145836712 -100.36105013420716 -127.65609665009039 -114.61227956440281 -132.73873832445247 -107.7830577532235"/>
<polyline points="-127.65609665009039 -114.61227956440281 -133.9114393221704 -107.38872463581717"/>
<polyline points="-140.16678199425047 -100.16516970723153 -146.42212466633057 -92.94161477864586"/>
<polyline points="-146.42212466633057 -92.94161477864586 -151.50476634069258 -86.11239296746658"/>
<polyline points="-146.42212466633057 -92.94161477864586 -141.33948299196848 -99.77083658982521 -138.18991091141405 -106.22333188831607"/>
<polyline points="-138.18991091141405 -106.22333188831607 -135.0403388308596 -112.6758271868069 -134.03847447648877 -118.31186908126978"/>
<polyline points="-134.03847447648877 -118.31186908126978 -132.8243557045849 -113.87636753194289 -129.4769939942854 -110.94367842832567"/>
<polyline points="-111.07233847841975 -92.07201244125737 -107.72497676812027 -89.13932333764018"/>
<polyline points="-104.37761505782076 -86.20663423402294 -86.9100990221068 -78.65543344754005 -96.61648312058043 -77.44569262870968"/>
<polyline points="-86.9100990221068 -78.65543344754005 -96.45541897031367 -79.98362009737251"/>
<polyline points="-106.0007389185206 -81.31180674720498 -115.54605886672749 -82.63999339703743"/>
<polyline points="-115.54605886672749 -82.63999339703743 -125.25244296520113 -81.43025257820705"/>
<polyline points="-115.54605886672749 -82.63999339703743 -125.25244296520113 -81.43025257820705 -134.45841717818865 -77.7650261283259"/>
<polyline points="-134.45841717818865 -77.7650261283259 -142.53660957666656 -71.89409317288022 -148.9365046985229 -64.21754809060829"/>
<polyline points="-157.01469709700083 -58.34661513516264 -165.0928894954788 -52.47568217971701 -171.9802587119738 -45.37080988965105"/>
<polyline points="-171.9802587119738 -45.37080988965105 -178.8676279284688 -38.265937599585065 -184.09481113279242 -30.411311280110173"/>
<polyline points="-184.09481113279242 -30.411311280110173 -180.88403783768615 -38.48041182570555 -179.90848334580485 -46.21409073005811"/>
<polyline points="-171.25813738127903 -69.98440701193445 -170.2825828893977 -77.7180859162871"/>
<polyline points="-169.3070283975165 -85.45176482063967 -169.6689548771032 -86.89199098228366 -164.576896037256 -87.06923661883762"/>
<polyline points="-169.6689548771032 -86.89199098228366 -166.93943779818903 -86.61098211519827"/>
<polyline points="-164.20992071927486 -86.32997324811286 -161.4804036403607 -86.0489643810275"/>
<polyline points="-161.4804036403607 -86.0489643810275 -156.38834480051347 -86.22621001758145"/>
<polyline points="-161.4804036403607 -86.0489643810275 -156.38834480051347 -86.22621001758145 -149.2807595946437 -86.84963116055582"/>
<polyline points="-149.2807595946437 -86.84963116055582 -140.64201820869152 -87.87674268930915 -131.06083659191438 -89.23754865053888"/>
<polyline points="-131.06083659191438 -89.23754865053888 -140.64201820869152 -87.87674268930915 -150.5126983627615 -86.27497897302264"/>
<polyline points="-150.5126983627615 -86.27497897302264 -160.3833785168315 -84.67321525673613 -169.87088666776467 -82.93965133561802"/>
<polyline points="-169.87088666776467 -82.93965133561802 -161.41310852160584 -84.68687594519335 -154.56144398374286 -86.32869077350846"/>
<polyline points="-126.4396851892595 -82.48031514365562 -119.58802065139652 -84.12212997197074"/>
<polyline points="-112.73635611353359 -85.76394480028587 -107.49193252325135 -75.60726891098165 -105.49960617564807 -78.62377046006002"/>
<polyline points="-107.49193252325135 -75.60726891098165 -107.81798522336275 -79.79746616703264"/>
<polyline points="-108.14403792347419 -83.9876634230836 -108.47009062358562 -88.17786067913457"/>
<polyline points="-108.47009062358562 -88.17786067913457 -106.47776427598231 -91.19436222821292"/>
<polyline points="-108.47009062358562 -88.17786067913457 -106.47776427598231 -91.19436222821292 -102.30283262877846 -92.83159847475348"/>
<polyline points="-102.30283262877846 -92.83159847475348 -96.22981037433034 -92.97799447421535 -88.67256394313472 -91.62357358116599"/>
<polyline points="-88.67256394313472 -91.62357358116599 -96.22981037433034 -92.97799447421535 -104.75626712692772 -95.74093071420094"/>
<polyline points="-104.75626712692772 -95.74093071420094 -113.28272387952502 -98.50386695418655 -122.19732701647061 -102.48702900232139"/>
<polyline points="-122.19732701647061 -102.48702900232139 -113.50209296688142 -97.55508705713117 -105.6187938355744 -92.01046890803084"/>
<polyline points="-79.83872763974358 -62.140422497127396 -71.95542850843655 -56.59580434802707"/>
<polyline points="-64.07212937712953 -51.05118619892674 -62.32666082499557 -32.31924127629034 -61.1686167333525 -39.01548051224001"/>
<polyline points="-62.32666082499557 -32.31924127629034 -62.178973596944026 -40.63365386373316"/>
<polyline points="-62.03128636889248 -48.94806645117598 -61.88359914084091 -57.2624790386188"/>
<polyline points="-61.88359914084091 -57.2624790386188 -60.72555504919786 -63.958718274568476"/>
<polyline points="-61.88359914084091 -57.2624790386188 -60.72555504919786 -63.958718274568476 -58.63607288505045 -68.58044652115356"/>
<polyline points="-58.63607288505045 -68.58044652115356 -55.75754740485276 -70.8127006361364 -52.286145363092004 -70.50335619055518"/>
<polyline points="-49.40761988289433 -72.735610305538 -56.540370016231215 -61.92733138717088 -50.68423491578823 -62.71065491734508"/>
<polyline points="-56.540370016231215 -61.92733138717088 -51.662919848390075 -65.13019791219641"/>
<polyline points="-46.78546968054893 -68.33306443722194 -41.908019512707774 -71.53593096224748"/>
<polyline points="-41.908019512707774 -71.53593096224748 -36.05188441226481 -72.31925449242169"/>
<polyline points="-41.908019512707774 -71.53593096224748 -57.38760562734605 -69.70343946055652 -50.20480843039537 -65.52184142757854"/>
<polyline points="-57.38760562734605 -69.70343946055652 -49.663104507213454 -68.01316874138678"/>
<polyline points="-41.93860338708084 -66.32289802221703 -34.21410226694824 -64.63262730304726"/>
<polyline points="-34.21410226694824 -64.63262730304726 -27.031305069997558 -60.45102927006928"/>
<polyline points="-34.21410226694824 -64.63262730304726 -51.33006270951986 -72.5074505658832 -45.437942647329784 -64.55993619209944"/>
<polyline points="-51.33006270951986 -72.5074505658832 -43.85014039551008 -66.35536016632236"/>
<polyline points="-36.37021808150027 -60.203269766761515 -28.890295767490468 -54.05117936720066"/>
<polyline points="-28.890295767490468 -54.05117936720066 -22.99817570530038 -46.10366499341691"/>
<polyline points="-28.890295767490468 -54.05117936720066 -42.44015148614184 -68.64789724516247 -40.028146416440116 -59.381995284847"/>
<polyline points="-42.44015148614184 -68.64789724516247 -37.68464506991828 -60.07360486759265"/>
<polyline points="-32.92913865369471 -51.49931249002285 -28.173632237471168 -42.92502011245307"/>
<polyline points="-28.173632237471168 -42.92502011245307 -25.761627167769447 -33.65911815213763"/>
<polyline points="-4.396100156353392 -0.0535582246041472 1.391712870782509 7.10670562665054"/>
<polyline points="7.179525897918406 14.266969477905207 4.0667665272715094 33.78931682594042 7.769432739265535 26.37688048853154"/>
<polyline points="4.0667665272715094 33.78931682594042 6.789049001859588 24.899602137699446"/>
<polyline points="9.511331476447662 16.00988744945845 12.233613951035741 7.120172761217472"/>
<polyline points="12.233613951035741 7.120172761217472 15.936280163029783 -0.2922635761914078"/>
<polyline points="12.233613951035741 7.120172761217472 6.409745145146464 14.119471796936283 -0.0698985890861447 19.150424507243063"/>
<polyline points="-0.0698985890861447 19.150424507243063 -6.549542323318737 24.181377217549837 -13.243383973524288 26.90113248927963"/>
<polyline points="-13.243383973524288 26.90113248927963 -6.7915186537109475 26.67792148328712 -1.0213136236235298 28.96646620421663"/>
<polyline points="13.582010316419815 35.202193474918325 19.352215346507233 37.49073819584787"/>
<polyline points="25.12242037659465 39.77928291677739 21.15112950367409 47.75516803520927 23.65070668100361 39.85665595303714"/>
<polyline points="21.15112950367409 47.75516803520927 23.472851571620716 41.602286355332296"/>
<polyline points="25.79457363956733 35.44940467545531 28.116295707513952 29.296522995578343"/>
<polyline points="28.116295707513952 29.296522995578343 30.615872884843483 21.398010913406257"/>
<polyline points="28.116295707513952 29.296522995578343 30.615872884843483 21.398010913406257 33.12296311766751 12.292138974430626"/>
<polyline points="33.12296311766751 12.292138974430626 35.46671234978158 2.5994573031278576 37.487397944245856 -7.0194938625166525"/>
<polyline points="37.487397944245856 -7.0194938625166525 35.46671234978158 2.5994573031278576 33.906796776889 11.489162337243778"/>
<polyline points="33.906796776889 11.489162337243778 32.346881203996425 20.37886737135972 31.3540413210858 27.93350756680428"/>
<polyline points="31.3540413210858 27.93350756680428 30.361201438175193 35.48814776224881 30.003097642521407 41.192886874335635"/>
<polyline points="30.003097642521407 41.192886874335635 29.644993846867617 46.89762598642246 29.946030320349976 50.36369547219003"/>
<polyline points="29.946030320349976 50.36369547219003 30.247066793832328 53.82976495795754 31.18672839826927 54.82095790990137"/>
<polyline points="31.18672839826927 54.82095790990137 32.126390002706216 55.812150861845204 33.640640352619634 54.26091911831415"/>
<polyline points="33.640640352619634 54.26091911831415 26.58745575623968 49.32256111058956 28.631231478030603 56.27040843724771"/>
<polyline points="26.58745575623968 49.32256111058956 29.470890419841847 54.19717263573077"/>
<polyline points="32.354325083443996 59.07178416087194 35.23775974704615 63.94639568601314"/>
<polyline points="35.23775974704615 63.94639568601314 37.28153546883707 70.89424301267128"/>
<polyline points="35.23775974704615 63.94639568601313 26.55996476806839 49.91633328926643 28.560929614901124 59.539361798037625"/>
<polyline points="26.55996476806839 49.91633328926643 29.841719000004773 58.52882674079017"/>
<polyline points="33.123473231941176 67.14132019231394 36.40522746387757 75.75381364383769"/>
<polyline points="36.40522746387757 75.75381364383769 38.40619231071031 85.37684215260886"/>
<polyline points="36.40522746387757 75.75381364383769 28.245105375918612 57.50724515621311 29.17253078894399 66.72699702886524"/>
<polyline points="28.245105375918612 57.50724515621311 30.837171102250217 67.00229934010184"/>
<polyline points="33.429236828581864 76.4973535239906 36.02130255491344 85.9924077078793"/>
<polyline points="36.02130255491344 85.9924077078793 36.94872796793886 95.21215958053145"/>
<polyline points="48.98163118657154 133.46767862732304 53.76732064233003 141.84372117447742"/>
<polyline points="58.5530100980885 150.21976372163178 52.23078339871922 166.99162254750868 54.505132614732815 161.91978610840556"/>
<polyline points="52.23078339871922 166.99162254750868 55.04438586060824 160.02537033343128"/>
<polyline points="57.857988322497306 153.0591181193538 60.671590784386346 146.09286590527634"/>
<polyline points="60.671590784386346 146.09286590527634 62.94594000039992 141.02102946617325"/>
<polyline points="60.671590784386346 146.09286590527634 56.03100192828038 150.15395634118602 52.16528711911961 152.00943406529296"/>
<polyline points="52.16528711911961 152.00943406529296 48.29957230995885 153.8649117893999 45.47217362359181 153.3883290611282"/>
<polyline points="45.47217362359181 153.3883290611282 47.06857363918651 156.1644939164371 47.3251829611218 161.05104985172318"/>
<polyline points="39.484183609263724 175.33475495306922 39.74079293119901 180.2213108883553"/>
<polyline points="39.99740225313434 185.10786682364142 25.687581886894375 192.7030924665274 32.65641649118313 185.75146956802723"/>
<polyline points="25.687581886894375 192.7030924665274 32.998570165192056 187.13887861729225"/>
<polyline points="40.30955844348974 181.574664768057 47.62054672178741 176.01045091882173"/>
<polyline points="47.62054672178741 176.01045091882173 54.58938132607615 169.05882802032153"/>
<polyline points="47.62054672178741 176.01045091882173 54.58938132607615 169.05882802032153 60.74114769461746 161.19353768498908"/>
<polyline points="60.74114769461746 161.19353768498908 65.65661311566976 152.95058645117044 69.00079674397907 144.8917178233295"/>
<polyline points="69.00079674397907 144.8917178233295 72.34498037228836 136.83284919548845 73.88998162011016 129.5072617527023"/>
<polyline points="73.88998162011016 129.5072617527023 75.43498286793192 122.18167430991612 75.07551245346238 116.08859473030503"/>
<polyline points="75.07551245346238 116.08859473030503 74.71604203899284 109.99551515069399 72.4765972769252 105.55017673831841"/>
<polyline points="72.4765972769252 105.55017673831841 70.23715251485756 101.10483832594282 66.27034786486915 98.61018354733706 58.4172805581171 87.09818770974582 65.30217575289963 88.60721668230309"/>
<polyline points="58.4172805581171 87.09818770974582 64.0136879394656 90.85884235507402"/>
<polyline points="69.61009532081411 94.61949700040215 75.20650270216262 98.38015164573036"/>
<polyline points="75.20650270216262 98.38015164573036 82.09139789694515 99.88918061828755"/>
<polyline points="66.27034786486915 98.61018354733706 70.23715251485756 101.10483832594282 75.66098587132453 101.47880287022875"/>
<polyline points="75.66098587132453 101.47880287022875 81.08481922779148 101.8527674145147 87.59605601080231 100.08055665879333"/>
<polyline points="87.59605601080231 100.08055665879333 94.10729279381309 98.30834590307194 101.26220297693308 94.5107330816289"/>
<polyline points="101.26220297693308 94.5107330816289 108.41711316005303 90.7131202601859 115.7281014383507 85.14890641095064"/>
<polyline points="115.7281014383507 85.14890641095064 123.03908971664842 79.58469256171541 130.00792432093715 72.63306966321518"/>
<polyline points="130.00792432093715 72.63306966321518 136.97675892522585 65.68144676471493 143.12852529376715 57.81615642938248"/>
<polyline points="143.12852529376715 57.81615642938248 149.2802916623085 49.950866094050056 154.19575708336077 41.70791486023143"/>
<polyline points="154.19575708336077 41.70791486023143 159.11122250441306 33.46496362641283 162.45540613272235 25.406094998571813"/>
<polyline points="162.45540613272235 25.406094998571813 165.79958976103165 17.34722637073078 167.34459100885346 10.021638927944592"/>
<polyline points="167.34459100885346 10.021638927944592 168.88959225667526 2.696051485158474 168.53012184220572 -3.397028094452638"/>
<polyline points="168.53012184220572 -3.397028094452638 168.1706514277362 -9.490107674063696 165.93120666566855 -13.93544608643929"/>
<polyline points="165.93120666566855 -13.93544608643929 163.6917619036009 -18.380784498814894 159.7249572536125 -20.87543927742066"/>
<polyline points="159.7249572536125 -20.87543927742066 154.12992207319806 -24.74722149543862 147.13333879624022 -26.45138899954409"/>
<polyline points="147.13333879624022 -26.45138899954409 140.13675551928233 -28.155556503649557 132.21542973370515 -27.575973094707734"/>
<polyline points="132.21542973370515 -27.575973094707734 140.52167276622438 -30.399809765184326 148.6467763097351 -35.27545989471347"/>
<polyline points="174.28942840645493 -59.094324053138976 182.41453194996564 -63.96997418266811"/>
<polyline points="190.53963549347634 -68.8456243121973 193.38774151400537 -87.38281240448727 192.81949783070456 -77.52765982847465"/>
<polyline points="193.38774151400537 -87.38281240448727 192.35645285842642 -77.48363272542849"/>
<polyline points="191.3251642028474 -67.58445304636975 190.29387554726844 -57.68527336731091"/>
<polyline points="190.29387554726844 -57.68527336731091 189.72563186396764 -47.83012079129828"/>
<polyline points="190.29387554726844 -57.68527336731091 189.72563186396764 -47.83012079129828 189.6591580208948 -38.690607679977425"/>
<polyline points="189.6591580208948 -38.690607679977425 190.09898410060225 -30.889576748125233 191.0151366826047 -24.95865536193435"/>
<polyline points="191.0151366826047 -24.95865536193435 190.09898410060225 -30.889576748125233 188.7689393007543 -34.54620609749695"/>
<polyline points="188.7689393007543 -34.54620609749695 187.43889450090637 -38.20283544686866 185.78559783831983 -39.33597951212724"/>
<polyline points="185.78559783831983 -39.33597951212724 187.6494769282917 -40.803542626420054 189.59691816587323 -44.77180091928797"/>
<polyline points="186.96693785716013 -60.98379160387024 188.91437909474158 -64.9520498967381"/>
<polyline points="190.8618203323231 -68.920308189606 181.74347285258708 -83.01144464033581 184.0411302283705 -73.4032956656111"/>
<polyline points="181.74347285258708 -83.01144464033581 185.2928298161514 -74.39084627406658"/>
<polyline points="188.84218677971572 -65.77024790779733 192.39154374327998 -57.14964954152806"/>
<polyline points="192.39154374327998 -57.14964954152806 194.68920111906337 -47.54150056680334"/>
<polyline points="192.39154374327998 -57.14964954152806 194.68920111906337 -47.54150056680334 195.57857735396465 -37.60058045803368"/>
<polyline points="195.57857735396465 -37.60058045803368 194.99906292733883 -28.004346492484554 192.99015078966778 -19.40676615638165"/>
<polyline points="192.99015078966778 -19.40676615638165 194.99906292733883 -28.004346492484554 198.30046873375719 -35.01736230740911"/>
<polyline points="198.30046873375719 -35.01736230740911 201.60187454017563 -42.03037812233365 205.97078866546494 -46.98090397784934"/>
<polyline points="205.97078866546494 -46.98090397784934 200.83210049897116 -44.4302382376651 195.2738313977358 -44.45325626783144"/>
<polyline points="165.24149365286465 -43.41874826189887 159.68322455162928 -43.44176629206521"/>
<polyline points="154.12495545039388 -43.46478432223154 135.87554821152827 -50.543637372280266 142.0051150710083 -42.806492280678306"/>
<polyline points="135.87554821152827 -50.543637372280266 143.77173964970387 -44.70645437658943"/>
<polyline points="151.66793108787945 -38.869271380898596 159.56412252605503 -33.03208838520777"/>
<polyline points="159.56412252605503 -33.03208838520777 165.69368938553512 -25.294943293605783"/>
<polyline points="159.56412252605503 -33.03208838520777 165.69368938553512 -25.294943293605783 169.63891181443418 -16.185109757848533"/>
<polyline points="169.63891181443418 -16.185109757848533 171.13092942401119 -6.323407878686111 170.06806367984916 3.6181036580494403"/>
<polyline points="171.56008128942614 13.479805537211853 162.0503262068441 -4.081886561324204 162.10313064531522 5.599112898914175"/>
<polyline points="162.0503262068441 -4.081886561324204 164.5389655251614 5.474667889877218"/>
<polyline points="167.02760484347868 15.031222341078633 169.51624416179604 24.58777679228007"/>
<polyline points="169.51624416179604 24.58777679228007 169.56904860026717 34.26877625251844"/>
<polyline points="169.51624416179604 24.58777679228007 168.99579843931537 7.180163863931937 164.2375907071998 14.642105249486459"/>
<polyline points="168.99579843931537 7.180163863931937 166.66747014098436 15.5481707076017"/>
<polyline points="164.33914184265328 23.916177551271453 162.01081354432227 32.284184394941214"/>
<polyline points="162.01081354432227 32.284184394941214 157.25260581220672 39.74612578049573"/>
<polyline points="162.01081354432227 32.284184394941214 170.80586192733637 20.41635661675835 162.61654262999875 23.313701125847455"/>
<polyline points="170.80586192733637 20.41635661675835 164.29043230206105 24.987752348099754"/>
<polyline points="157.77500267678568 29.55914807944115 151.2595730515104 34.13054381078255"/>
<polyline points="151.2595730515104 34.13054381078255 143.07025375417268 37.02788831987165"/>
<polyline points="151.2595730515104 34.13054381078255 166.05907198194635 31.99374545102202 156.95606660373775 29.49426634147589"/>
<polyline points="166.05907198194635 31.99374545102202 157.51661748167297 31.252963969299014"/>
<polyline points="148.97416298139967 30.512182487576 140.43170848112632 29.77140100585299"/>
<polyline points="140.43170848112632 29.77140100585299 131.32870310291776 27.271921896306864"/>
<polyline points="97.71943597975967 26.067493597237956 90.69469085968649 24.011881174894246"/>
<polyline points="83.66994573961333 21.956268752550535 64.50204204069036 16.535121029781426 71.39787494645665 23.640226776056643"/>
<polyline points="64.50204204069036 16.535121029781426 73.03260634837662 21.616090675955"/>
<polyline points="81.5631706560629 26.697060322128568 90.09373496374917 31.778029968302125"/>
<polyline points="90.09373496374917 31.778029968302125 96.98956786951548 38.88313571457733"/>
<polyline points="90.09373496374917 31.778029968302125 83.56528385217094 25.291045019965363 79.12898552806453 17.243063230949918"/>
<polyline points="79.12898552806453 17.243063230949918 74.69268720395813 9.19508144193446 72.65086806678181 0.1345594712429609"/>
<polyline points="72.65086806678181 0.1345594712429609 72.15906141709516 9.590162024528391 69.16714479097276 18.796461472523383"/>
<polyline points="59.966600119580875 57.72350887771308 56.97468349345845 66.92980832570807"/>
<polyline points="53.98276686733604 76.13610777370306 44.88022581857501 90.70906822015775 53.08111056405694 87.01682976837597"/>
<polyline points="44.88022581857501 90.70906822015775 51.48122711846479 85.02606525232761"/>
<polyline points="58.08222841835451 79.34306228449746 64.68322971824425 73.66005931666731"/>
<polyline points="64.68322971824425 73.66005931666731 72.88411446372619 69.96782086488555"/>
<polyline points="64.68322971824425 73.66005931666731 72.88411446372619 69.96782086488555 82.12600591199852 68.51796687792856"/>
<polyline points="82.12600591199852 68.51796687792856 91.77908443380926 69.40930250901042 101.18550868036355 72.58108470787472"/>
<polyline points="101.18550868036355 72.58108470787472 91.77908443380926 69.40930250901042 83.26034673006313 64.17322545759839"/>
<polyline points="83.26034673006313 64.17322545759839 74.74160902631697 58.937148406186346 67.69109576200952 51.99360650025381"/>
<polyline points="67.69109576200952 51.99360650025381 60.6405824977021 45.0500645943213 55.53877450027184 36.87224874001206"/>
<polyline points="55.53877450027184 36.87224874001206 50.43696650284159 28.694432885702835 47.63154355617709 19.839647719008394"/>
<polyline points="47.63154355617709 19.839647719008394 44.82612060951257 10.984862552313935 44.508267651248325 2.056547049120124"/>
<polyline points="44.508267651248325 2.056547049120124 44.190414692984085 -6.87176845407369 46.38179287694901 -15.265164346963227"/>
<polyline points="46.38179287694901 -15.265164346963227 52.7690974017978 -34.21778011891521 45.3001012884075 -27.596947855009336"/>
<polyline points="52.7690974017978 -34.21778011891521 47.24970446001318 -25.885287233967457"/>
<polyline points="41.73031151822856 -17.552794349019727 36.21091857644395 -9.22030146407198"/>
<polyline points="36.21091857644395 -9.22030146407198 28.741922463053644 -2.5994692001661073"/>
<polyline points="36.21091857644395 -9.22030146407198 51.23457971019127 -21.81750959115961 41.45445549781537 -20.10525741498864"/>
<polyline points="51.23457971019127 -21.81750959115961 42.2836052623486 -17.6707852663265"/>
<polyline points="33.3326308145059 -13.524060941493396 24.38165636666323 -9.377336616660303"/>
<polyline points="24.38165636666323 -9.377336616660303 14.601532154287339 -7.665084440489328"/>
<polyline points="24.38165636666323 -9.377336616660303 42.84915555648225 -11.61145795410745 33.89448838189521 -15.459805218718971"/>
<polyline points="42.84915555648225 -11.61145795410745 33.43413823606671 -13.025275931405513"/>
<polyline points="24.019120915651147 -14.439093908703574 14.604103595235602 -15.852911886001653"/>
<polyline points="14.604103595235602 -15.852911886001653 5.649436420648546 -19.70125915061318"/>
<polyline points="-32.47098300684218 -22.922001772491964 -40.76963841145064 -24.256750805890675"/>
<polyline points="-49.068293816059104 -25.591499839289394 -64.99458031702946 -37.39669897305913 -60.58415632887235 -28.469008970217068"/>
<polyline points="-64.99458031702946 -37.39669897305913 -58.589550602595 -29.719976202997938"/>
<polyline points="-52.18452088816052 -22.043253432936748 -45.77949117372606 -14.366530662875558"/>
<polyline points="-45.77949117372606 -14.366530662875558 -41.369067185568944 -5.438840660033513"/>
<polyline points="-45.77949117372606 -14.366530662875558 -49.1479149417805 -23.670631776691522 -50.256675173841536 -33.60446690571795"/>
<polyline points="-50.256675173841536 -33.60446690571795 -51.365435405902545 -43.538302034744355 -50.138971924468144 -53.424896731376805"/>
<polyline points="-50.138971924468144 -53.424896731376805 -53.61707765996496 -44.25929755734355 -59.109798491491574 -36.43931434275112"/>
<polyline points="-75.70493621573212 -6.462745563854425 -81.19765704725873 1.3572376507380137"/>
<polyline points="-86.69037787878538 9.177220865330465 -94.69458493173752 14.279191535150689 -87.83058410771649 15.704719150135942"/>
<polyline points="-94.69458493173752 14.279191535150689 -89.06987542777753 13.69661175040226"/>
<polyline points="-83.44516592381757 13.114031965653847 -77.82045641985755 12.53145218090542"/>
<polyline points="-77.82045641985755 12.53145218090542 -70.95645559583652 13.95697979589067"/>
<polyline points="-77.82045641985755 12.53145218090542 -70.95645559583652 13.95697979589067 -63.320933764613855 17.293467459444145"/>
<polyline points="-63.320933764613855 17.293467459444145 -55.43423912069094 22.313539051101213 -47.83383687067196 28.675084987951017"/>
<polyline points="-47.83383687067196 28.675084987951017 -40.23343462065298 35.036630924800825 -33.43727961761811 42.30612236419878"/>
<polyline points="-33.43727961761811 42.30612236419878 -26.641124614583273 49.57561380359673 -21.11236359081224 57.25764691735047"/>
<polyline points="-21.11236359081224 57.25764691735047 -15.583602567041178 64.93968003110422 -11.699011449594343 72.5107369576714"/>
<polyline points="-11.699011449594343 72.5107369576714 -7.814420332147501 80.08179388423859 -5.838727586088535 87.02591960583682 4.84806162199392 98.35187810494023 3.652546564460038 94.16035802121694"/>
<polyline points="4.84806162199392 98.35187810494023 1.4632729127528936 93.25081389013691"/>
<polyline points="-1.9215157964881457 88.1497496753336 -5.306304505729184 83.04868546053025"/>
<polyline points="-5.306304505729184 83.04868546053025 -6.501819563263054 78.85716537680696"/>
<polyline points="-5.838727586088535 87.02591960583682 -3.8630348400295293 93.97004532743503 -3.9308806610156872 99.81400915184774"/>
<polyline points="-3.9308806610156872 99.81400915184774 -3.9987264820018593 105.65797297626041 -6.105487289453454 110.00351842646069"/>
<polyline points="-6.105487289453454 110.00351842646069 -8.212248096905062 114.34906387666098 -12.214351623381118 116.90004921157109"/>
<polyline points="-12.214351623381118 116.90004921157109 -16.21645514985721 119.45103454648121 -21.84116465381722 120.03361433122967"/>
<polyline points="-21.84116465381722 120.03361433122967 -27.465874157777222 120.61619411597808 -34.329874981798184 119.19066650099285"/>
<polyline points="-34.329874981798184 119.19066650099285 -41.193875805819204 117.7651388860076 -48.82939763704186 114.42865122245409"/>
<polyline points="-48.82939763704186 114.42865122245409 -56.46491946826452 111.09216355890067 -64.35161411218742 106.07209196724362"/>
<polyline points="-64.35161411218742 106.07209196724362 -72.23830875611034 101.05202037558655 -79.83871100612934 94.69047443873673"/>
<polyline points="-79.83871100612934 94.69047443873673 -72.23830875611034 101.05202037558655 -65.44215375307549 108.3215118149845"/>
<polyline points="-65.44215375307549 108.3215118149845 -58.64599875004066 115.59100325438244 -53.11723772626962 123.27303636813618"/>
<polyline points="-53.11723772626962 123.27303636813618 -57.001828843716474 115.70197944156897 -58.97752158977541 108.75785371997073"/>
<polyline points="-60.246341306191965 75.32741154551388 -62.22203405225096 68.38328582391568"/>
<polyline points="-64.19772679830993 61.43916010231744 -53.05470579215293 47.137411622556684 -60.38263131973066 49.85598588612673"/>
<polyline points="-53.05470579215293 47.137411622556684 -59.73194522378394 52.24621409725975"/>
<polyline points="-66.40918465541489 57.35501657196283 -73.08642408704586 62.463819046665925"/>
<polyline points="-73.08642408704586 62.463819046665925 -80.41434961462357 65.18239331023597"/>
<polyline points="-73.08642408704586 62.463819046665925 -80.41434961462357 65.18239331023597 -87.89357522341312 65.32547301926708"/>
<polyline points="-87.89357522341312 65.32547301926708 -95.01440404818011 62.883307528039175 -101.29156337224286 58.022326378910144"/>
<polyline points="-64.19772679830993 61.43916010231744 -64.05766647556224 53.361277652223706 -62.425322644438396 46.819841637676774"/>
<polyline points="-62.425322644438396 46.819841637676774 -60.79297881331453 40.278405623129814 -57.77959300832989 35.719204098286895"/>
<polyline points="-57.77959300832989 35.719204098286895 -54.76620720334526 31.16000257344397 -50.577136687254054 28.893737587786344"/>
<polyline points="-50.577136687254054 28.893737587786344 -46.38806617116284 26.627472602128705 -41.30878917687029 26.808586369248975"/>
<polyline points="-41.30878917687029 26.808586369248975 -36.22951218257775 26.98970013636925 -30.606173043342817 29.60585005234281"/>
<polyline points="-30.606173043342817 29.60585005234281 -24.98283390410792 32.221999968316396 -19.19865388926213 37.09489973976182"/>
<polyline points="-19.19865388926213 37.09489973976182 -13.414473874416366 41.967799511207254 -7.86363529316205 48.765369071548164"/>
<polyline points="-7.86363529316205 48.765369071548164 -2.312796711907751 55.56293863188906 2.626419959637085 63.821934849103066"/>
<polyline points="2.626419959637085 63.821934849103066 7.565636631181941 72.08093106631705 11.556631939293032 81.23851699683756"/>
<polyline points="11.556631939293032 81.23851699683756 15.547627247404133 90.39610292735807 18.31842145726525 99.82820422364642"/>
<polyline points="18.31842145726525 99.82820422364642 21.089215667126375 109.26030551993478 22.450983732289455 118.32414006593332"/>
<polyline points="22.450983732289455 118.32414006593332 23.812751797452545 127.38797461193188 23.672691474704862 135.46585706202558"/>
<polyline points="23.672691474704862 135.46585706202558 23.532631151957165 143.5437395121193 21.90028732083331 150.08517552666623"/>
<polyline points="21.90028732083331 150.08517552666623 20.26794348970948 156.6266115412132 17.254557684724812 161.1858130660561"/>
<polyline points="17.254557684724812 161.1858130660561 14.24117187974019 165.74501459089905 10.052101363648951 168.0112795765567"/>
<polyline points="10.052101363648951 168.0112795765567 5.8630308475577255 170.2775445622143 0.7837538532651893 170.09643079509405"/>
<polyline points="0.7837538532651893 170.09643079509405 -4.295523141027343 169.9153170279738 -9.918862280262278 167.29916711200022"/>
<polyline points="-9.918862280262278 167.29916711200022 -15.542201419497207 164.6830171960266 -21.326381434342977 159.81011742458122"/>
<polyline points="-21.326381434342977 159.81011742458122 -27.110561449188737 154.93721765313578 -32.661400030443055 148.13964809279489"/>
<polyline points="-32.661400030443055 148.13964809279489 -38.21223861169736 141.34207853245397 -43.151455283242186 133.08308231523995"/>
<polyline points="-43.151455283242186 133.08308231523995 -48.090671954787005 124.82408609802599 -52.081667262898115 115.66650016750548"/>
<polyline points="-52.081667262898115 115.66650016750548 -56.0726625710092 106.50891423698495 -58.84345678087035 97.07681294069658"/>
<polyline points="-58.84345678087035 97.07681294069658 -55.48641029612725 77.4229080540299 -59.479692562009895 85.842741628178"/>
<polyline points="-55.48641029612725 77.4229080540299 -58.42235286743437 86.86813952049906"/>
<polyline points="-61.35829543874152 96.31337098696824 -64.2942380100487 105.75860245343738"/>
<polyline points="-64.2942380100487 105.75860245343738 -68.28752027593139 114.17843602758546"/>
<polyline points="-64.2942380100487 105.75860245343738 -52.20634905063057 90.44695832519427 -59.22031915348604 94.54193204709297"/>
<polyline points="-52.20634905063057 90.44695832519427 -58.96562301720983 96.52961781425924"/>
<polyline points="-65.72489698378908 102.61227730332423 -72.48417095036835 108.69493679238921"/>
<polyline points="-72.48417095036835 108.69493679238921 -79.49814105322386 112.78991051428793"/>
<polyline points="-72.48417095036835 108.69493679238921 -55.244781616582195 102.83380968235397 -62.739987981725186 101.26228137527656"/>
<polyline points="-55.244781616582195 102.83380968235397 -63.58646821064861 103.53729809261905"/>
<polyline points="-71.92815480471505 104.24078650288415 -80.26984139878145 104.94427491314923"/>
<polyline points="-80.26984139878145 104.94427491314923 -87.76504776392444 103.37274660607174"/>
<polyline points="-121.97827436911342 108.46171696447459 -131.44855412285173 108.50266029137713"/>
<polyline points="-140.91883387659007 108.54360361827965 -149.2694101219147 102.27231346748272 -145.4836997461938 109.65051852340112"/>
<polyline points="-149.2694101219147 102.27231346748272 -145.14849406308642 107.71468277015958"/>
<polyline points="-141.02757800425815 113.15705207283654 -136.90666194542987 118.59942137551347"/>
<polyline points="-136.90666194542987 118.59942137551347 -133.12095156970904 125.97762643143194"/>
<polyline points="-136.90666194542987 118.59942137551347 -138.21322583808387 111.00918051118605 -139.01106900962617 101.99314132008627"/>
<polyline points="-139.01106900962617 101.99314132008627 -139.80891218116844 92.97710212898643 -140.04366293795658 83.14969278227849"/>
<polyline points="-140.04366293795658 83.14969278227849 -140.38800247205367 93.11875057817831 -141.28796612683539 102.55008200912637"/>
<polyline points="-134.67049240189763 139.1763299401442 -135.5704560566793 148.60766137109232"/>
<polyline points="-136.470419711461 158.03899280204024 -127.64868935665972 168.2664121358985 -128.8289751028926 166.42142783418535"/>
<polyline points="-127.64868935665972 168.2664121358985 -130.5428820428175 164.66432707964915"/>
<polyline points="-133.43707472897526 161.0622420233999 -136.33126741513306 157.46015696715065"/>
<polyline points="-136.33126741513306 157.46015696715065 -137.5115531613659 155.61517266543757"/>
<polyline points="-136.33126741513306 157.46015696715065 -137.5115531613659 155.61517266543757 -136.89749744458243 155.65302174944168"/>
<polyline points="-136.89749744458243 155.65302174944168 -134.5309471471064 157.57112486663672 -130.5731787608016 161.23876645940106"/>
<polyline points="-130.5731787608016 161.23876645940106 -126.61541037449675 164.9064080521655 -121.33613927436815 170.0736444070166"/>
<polyline points="-121.33613927436815 170.0736444070166 -116.05686817423961 175.2408807618678 -109.81586796135319 181.5555732604844"/>
<polyline points="-109.81586796135319 181.5555732604844 -103.5748677484667 187.87026575910102 -96.7974522735901 194.90207854322514"/>
<polyline points="-96.7974522735901 194.90207854322514 -90.02003679871345 201.93389132734927 -83.16807572625079 209.20361797636292 -66.3182754485521 219.2336442828309 -74.2045958662591 213.9680233409606"/>
<polyline points="-66.3182754485521 219.2336442828309 -74.76158450636113 213.9119964837443"/>
<polyline points="-83.20489356417018 208.5903486846577 -91.64820262197927 203.26870088557106"/>
<polyline points="-91.64820262197927 203.26870088557106 -99.53452303968623 198.0030799437008"/>
</svg>