<svg transform="scale(1,-1)" viewBox="-263.7182250387425 -162.80532740869737 534.1976194793341 418.81395756129587" xmlns="http://www.w3.org/2000/svg">
<style>
svg { stroke:black; stroke-width:2; fill:none;}
</style>
<polyline points="114.13404585989309 34.166052400523 117.17593462008344 37.00205245679637"/>
<polyline points="120.21782338027354 39.83805251306758 123.25971214046363 42.67405256933892"/>
<polyline points="119.35405553780348 52.70206512589088 112.40651017495323 59.894077626171494"/>
<polyline points="112.40651017495323 59.894077626171494 92.85384447904609 40.86545342761939 105.88895494298418 53.55120289332081"/>
<polyline points="119.7840456686847 39.16717789275955 126.73159103153496 31.97516539247895"/>
<polyline points="126.73159103153496 31.97516539247895 133.67913639438515 24.78315289219833"/>
<polyline points="99.80138984189632 33.67344092733881 93.28383460992728 27.330566194488146"/>
<polyline points="93.28383460992728 27.330566194488146 86.76627937795826 20.98769146163742"/>
<polyline points="99.80138984189632 33.67344092733881 93.28383460992728 27.330566194488146"/>
<polyline points="93.71382474080849 13.795678961356794 100.66137010365873 6.603666461076168"/>
<polyline points="100.66137010365873 6.603666461076168 93.71382474080849 13.795678961356794"/>
<polyline points="112.83650030583445 46.359190393040194 119.35405553780349 52.70206512589087"/>
<polyline points="112.83650030583445 46.359190393040194 119.35405553780349 52.70206512589087"/>
<polyline points="112.83650030583445 46.359190393040194 119.7840456686847 39.16717789275955"/>
<polyline points="133.249146263504 38.31804012532963 139.76670149547303 44.66091485818034"/>
<polyline points="146.28425672744203 51.00378959103107 139.76670149547303 44.66091485818034"/>
<polyline points="146.28425672744203 51.00378959103107 152.80181195941108 57.346664323881754"/>
<polyline points="162.36125595157023 66.5255391130038 165.40314471176038 69.36153916927509"/>
<polyline points="168.44503347195044 72.19753922554646 171.48692223214056 75.03353928181785"/>
<polyline points="168.44503347195044 72.19753922554646 171.48692223214056 75.03353928181785"/>
<polyline points="181.47635635518085 70.67752683780856 188.42390171803112 63.48551433752798"/>
<polyline points="195.37144708088138 56.29350183724735 186.24578080031105 47.78550166843327 192.32955832069135 53.45750178097593"/>
<polyline points="205.36466878462934 66.14325124667741 211.8822240165984 72.48612597952808"/>
<polyline points="211.8822240165984 72.48612597952808 218.3997792485674 78.8290007123788"/>
<polyline points="192.76333603228005 54.12837640128398 189.72144727209002 51.29237634501259"/>
<polyline points="189.72144727209002 51.29237634501259 186.6795585118999 48.45637628874116"/>
<polyline points="192.76333603228005 54.12837640128398 189.72144727209002 51.29237634501259"/>
<polyline points="193.19711374386895 54.79925102159187 199.71466897583795 61.14212575444259"/>
<polyline points="199.71466897583795 61.14212575444259 193.19711374386895 54.79925102159187"/>
<polyline points="199.71466897583795 61.14212575444259 206.232224207807 67.48500048729329"/>
<polyline points="198.84711355266037 59.80037651382663 201.8890023128504 62.63637657009805"/>
<polyline points="195.80522479247017 56.96437645755533 192.76333603228005 54.12837640128398"/>
<polyline points="196.23900250405902 57.6352510778633 202.75655773602801 63.978125810713976"/>
<polyline points="209.27411296799707 70.32100054356467 202.75655773602801 63.978125810713976"/>
<polyline points="209.27411296799707 70.32100054356467 215.79166819996615 76.66387527641528"/>
<polyline points="229.25676879478544 75.81473750898542 236.20431415763568 68.62272500870478"/>
<polyline points="243.15185952048594 61.43071250842415 250.0994048833362 54.23870000814355"/>
<polyline points="243.15185952048594 61.43071250842415 250.0994048833362 54.23870000814355"/>
<polyline points="254.00506148599626 44.210687451591596 250.96317272580617 41.374687395320215"/>
<polyline points="192.32955832069135 53.45750178097593 189.28766956050112 50.62150172470463"/>
<polyline points="189.28766956050112 50.62150172470463 186.24578080031102 47.78550166843327"/>
<polyline points="189.72144727209002 51.29237634501259 196.23900250405902 57.6352510778633"/>
<polyline points="196.23900250405902 57.6352510778633 189.72144727209002 51.29237634501259"/>
<polyline points="189.28766956050112 50.62150172470463 186.24578080031102 47.78550166843327"/>
<polyline points="189.72144727209002 51.29237634501259 196.23900250405902 57.6352510778633"/>
<polyline points="196.23900250405902 57.6352510778633 189.72144727209002 51.29237634501259"/>
<polyline points="205.36466878462934 66.14325124667741 211.8822240165984 72.48612597952808"/>
<polyline points="211.8822240165984 72.48612597952808 218.3997792485674 78.8290007123788"/>
<polyline points="198.84711355266037 59.80037651382663 179.29444785675318 40.77175231527459 192.32955832069135 53.45750178097593"/>
<polyline points="178.43446759499082 67.8415267815372 171.48692223214056 75.03353928181785"/>
<polyline points="171.48692223214056 75.03353928181785 164.53937686929032 82.22555178209846"/>
<polyline points="185.38201295784106 60.64951428125659 206.22464904639182 39.07347678041476 192.32955832069135 53.45750178097593 199.27710368354153 46.265489280695334"/>
<polyline points="186.24578080031102 47.78550166843327 183.20389204012096 44.94950161216184"/>
<polyline points="183.20389204012096 44.94950161216184 180.16200327993084 42.113501555890466"/>
<polyline points="189.28766956050112 50.62150172470463 198.41333584107153 59.129501893518736 192.32955832069135 53.45750178097593"/>
<polyline points="179.29444785675324 40.771752315274554 172.77689262478418 34.42887758242389"/>
<polyline points="172.77689262478418 34.42887758242389 166.25933739281513 28.086002849573212"/>
<polyline points="185.81200308872232 47.11462704812526 205.36466878462934 66.14325124667737 185.81200308872232 47.11462704812526"/>
<polyline points="206.22464904639182 39.07347678041476 213.17219440924205 31.881464280134153"/>
<polyline points="213.17219440924205 31.881464280134153 220.11973977209232 24.689451779853524"/>
<polyline points="199.27710368354153 46.265489280695334 178.43446759499074 67.8415267815372 192.32955832069135 53.45750178097593"/>
<polyline points="198.41333584107153 59.129501893518736 201.45522460126162 61.96550194979012"/>
<polyline points="201.45522460126162 61.96550194979012 204.49711336145168 64.80150200606154"/>
<polyline points="195.37144708088138 56.29350183724735 186.24578080031105 47.7855016684332 192.32955832069135 53.45750178097593 198.8471135526603 59.8003765138267"/>
<polyline points="192.32955832069135 53.45750178097593 185.81200308872232 47.11462704812526"/>
<polyline points="192.32955832069135 53.45750178097593 185.81200308872232 47.11462704812526"/>
<polyline points="195.37144708088138 56.29350183724735 198.41333584107147 59.12950189351877"/>
<polyline points="194.93766936929256 55.6226272169395 188.42011413732354 49.27975248408874"/>
<polyline points="181.90255890535448 42.936877751238086 188.42011413732354 49.27975248408874"/>
<polyline points="181.90255890535448 42.936877751238086 175.3850036733855 36.59400301838737"/>
<polyline points="175.81499380426672 23.059115785256044 182.76253916711698 15.867103284975453"/>
<polyline points="189.7100845299672 8.675090784694822 196.65762989281754 1.483078284414195"/>
<polyline points="189.7100845299672 8.675090784694822 196.65762989281754 1.483078284414195"/>
<polyline points="206.64706401585784 -2.8729341595949354 209.688952776048 -0.0369341033236282"/>
<polyline points="212.7308415362381 2.7990659529477173 232.28350723214518 21.827690151499866 219.24839676820716 9.14194068579842"/>
<polyline points="225.3321742885874 14.813940798341266 228.3740630487775 17.649940854612648"/>
<polyline points="228.3740630487775 17.649940854612648 231.41595180896763 20.485940910884032"/>
<polyline points="235.32539599233536 24.663690207771214 241.8429512243043 31.00656494062196"/>
<polyline points="241.8429512243043 31.00656494062196 248.36050645627336 37.349439673472624"/>
<polyline points="248.36050645627336 37.349439673472624 254.8780616882424 43.69231440632329"/>
<polyline points="264.43750568040156 52.87118919544538 267.4793944405916 55.70718925171685"/>
<polyline points="228.8078407603663 18.320815474920547 219.68217447979592 9.812815306106362 225.76595200017616 15.484815418649124"/>
<polyline points="238.80106246411418 28.170564884350537 245.31861769608327 34.51343961720121"/>
<polyline points="245.31861769608327 34.51343961720121 251.83617292805224 40.856314350051875"/>
<polyline points="226.19972971176497 16.155690038957065 223.15784095157485 13.319689982685604"/>
<polyline points="223.15784095157485 13.319689982685604 220.11595219138468 10.48368992641426"/>
<polyline points="216.20650800801698 6.305940629527114 209.688952776048 -0.0369341033236298"/>
<polyline points="209.688952776048 -0.0369341033236298 203.17139754407899 -6.379808836174298"/>
<polyline points="222.724063239986 12.648815362377778 242.27672893589315 31.677439560929827 229.24161847195504 18.99169009522848"/>
<polyline points="215.34652774625454 33.375715095789666 208.39898238340427 40.56772759607024"/>
<polyline points="208.39898238340427 40.56772759607024 201.451437020554 47.75974009635084"/>
<polyline points="222.2940731091048 26.183702595509036 243.1367091976555 4.607665094667268 229.24161847195504 18.99169009522848"/>
<polyline points="229.24161847195504 18.99169009522848 232.28350723214518 21.827690151499866"/>
<polyline points="229.24161847195504 18.99169009522848 226.19972971176497 16.155690038957026"/>
<polyline points="229.24161847195504 18.99169009522848 226.19972971176497 16.155690038957026"/>
<polyline points="222.2940731091048 26.183702595509036 215.34652774625454 33.375715095789666"/>
<polyline points="205.35709362321418 37.73172753979891 202.31520486302395 34.895727483527494"/>
<polyline points="199.2733161028339 32.05972742725607 202.31520486302395 34.895727483527494"/>
<polyline points="199.2733161028339 32.05972742725607 196.2314273426438 29.22372737098461"/>
<polyline points="186.67198335048462 20.044852581862568 180.1544281185156 13.701977849011856"/>
<polyline points="173.63687288654657 7.35910311616119 167.11931765457751 1.0162283833104835"/>
<polyline points="173.63687288654657 7.35910311616119 167.11931765457751 1.0162283833104835"/>
<polyline points="153.65421705975825 1.865366150740406 146.70667169690802 9.057378651021015"/>
<polyline points="139.75912633405775 16.24939115130164 148.88479261462817 24.75739132011588 142.8010150942479 19.085391207573043"/>
<polyline points="128.9059243685474 33.46941620813426 121.95837900569711 40.661428708414896"/>
<polyline points="121.95837900569711 40.661428708414896 115.01083364284685 47.853441208695536"/>
<polyline points="141.93724725177788 31.94940382039649 144.97913601196805 34.78540387666782"/>
<polyline points="144.97913601196805 34.78540387666782 148.02102477215814 37.62140393293926"/>
<polyline points="148.02102477215814 37.62140393293926 151.06291353234826 40.45740398921066"/>
<polyline points="147.15725692968815 50.48541654576269 140.20971156683788 57.677429046043294"/>
<polyline points="138.89535849158773 29.113403764125074 159.7379945801385 7.537366263283268 145.84290385443796 21.921391263844484"/>
<polyline points="151.9266813748183 27.593391376387213 154.9685701350084 30.429391432658647"/>
<polyline points="154.9685701350084 30.429391432658647 158.01045889519852 33.26539148893006"/>
<polyline points="162.77988334032864 10.37336631955465 169.7274287031789 3.181353819274041"/>
<polyline points="169.7274287031789 3.181353819274041 176.6749740660291 -4.010658681006586"/>
<polyline points="162.77988334032864 10.37336631955465 169.7274287031789 3.181353819274041"/>
<polyline points="179.71686282621926 -1.1746586247352415 182.7587515864094 1.6613414315361787"/>
<polyline points="148.88479261462814 24.757391320115865 139.75912633405767 16.24939115130168 145.84290385443796 21.921391263844484"/>
<polyline points="159.73799458013846 7.53736626328325 166.68553994298875 0.3453537630026412"/>
<polyline points="166.68553994298875 0.3453537630026412 173.63308530583902 -6.846658737278005"/>
<polyline points="146.70667169690796 9.057378651021056 143.6647829367178 6.221378594749671"/>
<polyline points="143.6647829367178 6.221378594749671 140.62289417652767 3.38537853847827"/>
<polyline points="146.70667169690796 9.057378651021056 143.6647829367178 6.221378594749671"/>
<polyline points="147.57043953937793 -3.8066339618023566 154.5179849022282 -10.998646462082966"/>
<polyline points="154.5179849022282 -10.998646462082966 147.57043953937793 -3.806633961802356"/>
<polyline points="152.79044921728826 14.729378763563838 155.8323379774784 17.56537881983522"/>
<polyline points="152.79044921728826 14.729378763563838 155.8323379774784 17.56537881983522"/>
<polyline points="152.79044921728826 14.729378763563838 159.73799458013846 7.53736626328325"/>
<polyline points="169.72742870317887 3.181353819274044 172.76931746336908 6.01735387554535"/>
<polyline points="175.81120622355917 8.853353931816772 172.76931746336908 6.01735387554535"/>
<polyline points="175.81120622355917 8.853353931816772 178.8530949837493 11.68935398808819"/>
<polyline points="175.3774285119704 8.182479311508907 168.85987328000147 1.8396045786581992"/>
<polyline points="162.34231804803238 -4.503270154192467 155.82476281606336 -10.846144887043158"/>
<polyline points="162.34231804803238 -4.503270154192467 155.82476281606336 -10.846144887043158"/>
<polyline points="156.25475294694462 -24.381032120174467 163.20229830979486 -31.57304462045509"/>
<polyline points="170.14984367264512 -38.7650571207357 189.70250936855214 -19.73643292218368 176.6673989046141 -32.422182387885016"/>
<polyline points="182.75117642499444 -26.75018227534223 185.79306518518456 -23.91418221907083"/>
<polyline points="185.79306518518456 -23.91418221907083 188.83495394537482 -21.078182162799454"/>
<polyline points="192.74439812874235 -16.9004328659123 199.26195336071137 -10.557558133061667"/>
<polyline points="199.26195336071137 -10.557558133061631 205.7795085926804 -4.214683400210925"/>
<polyline points="192.74439812874235 -16.9004328659123 199.26195336071137 -10.557558133061631"/>
<polyline points="208.8213973528706 -1.3786833439395445 211.86328611306072 1.457316712331876"/>
<polyline points="211.86328611306072 1.457316712331876 208.8213973528706 -1.3786833439395445"/>
<polyline points="211.86328611306072 1.457316712331876 214.9051748732509 4.293316768603257"/>
<polyline points="179.70928766480432 -29.586182331613653 173.19173243283527 -35.92905706446429"/>
<polyline points="186.22684289677332 -23.24330759876293 192.74439812874235 -16.9004328659123"/>
<polyline points="202.30384212090155 -7.721558076790251 205.34573088109167 -4.885558020518792"/>
<polyline points="208.38761964128184 -2.0495579642474095 205.34573088109167 -4.885558020518792"/>
<polyline points="208.38761964128184 -2.0495579642474095 211.429508401472 0.7864420920240112"/>
<polyline points="221.41894252451237 -3.569570351985235 228.36648788736272 -10.7615828522659"/>
<polyline points="235.31403325021287 -17.95359535254649 242.26157861306314 -25.14560785282712"/>
<polyline points="235.31403325021287 -17.95359535254649 242.26157861306314 -25.14560785282712"/>
<polyline points="255.72667920788243 -25.99474562025708 262.2442344398514 -19.65187088740641"/>
<polyline points="262.2442344398514 -19.65187088740641 255.72667920788243 -25.99474562025708"/>
<polyline points="189.70250936855214 -19.73643292218368 196.2200646005212 -13.393558189333012"/>
<polyline points="196.2200646005212 -13.393558189333012 202.73761983249025 -7.050683456482381"/>
<polyline points="183.18495413658312 -26.079307655034366 163.63228844067606 -45.10793185358636 176.6673989046141 -32.422182387885016"/>
<polyline points="162.77230817891362 -18.038157387323764 155.82476281606338 -10.846144887043133"/>
<polyline points="155.82476281606338 -10.846144887043133 148.87721745321315 -3.6541323867625266"/>
<polyline points="169.71985354176383 -25.230169887604387 190.56248963031462 -46.80620738844628 176.6673989046141 -32.422182387885016"/>
<polyline points="169.71985354176383 -25.230169887604387 162.77230817891362 -18.038157387323764"/>
<polyline points="170.58362138423382 -38.094182500427856 167.54173262404362 -40.93018255669924"/>
<polyline points="167.54173262404362 -40.93018255669924 164.49984386385353 -43.766182612970674"/>
<polyline points="173.625510144424 -35.25818244415643 182.7511764249944 -26.750182275342194 176.6673989046141 -32.422182387885016"/>
<polyline points="163.63228844067606 -45.10793185358636 157.11473320870707 -51.45080658643704"/>
<polyline points="157.11473320870707 -51.45080658643704 150.59717797673804 -57.79368131928774"/>
<polyline points="170.14984367264512 -38.7650571207357 189.70250936855214 -19.73643292218368 176.6673989046141 -32.422182387885016"/>
<polyline points="170.14984367264512 -38.7650571207357 163.63228844067606 -45.10793185358636"/>
<polyline points="170.14984367264512 -38.7650571207357 163.63228844067606 -45.10793185358636"/>
<polyline points="150.16718784585683 -44.258794086156406 143.21964248300657 -37.06678158587581"/>
<polyline points="176.6673989046141 -32.422182387885016 197.51003499316488 -53.99821988872689 183.61494426746438 -39.61419488816564"/>
<polyline points="170.57983380352627 -52.29994435386699 164.06227857155733 -58.64281908671768"/>
<polyline points="164.06227857155733 -58.64281908671768 157.5447233395883 -64.98569381956838"/>
<polyline points="190.99247976119582 -60.34109462157758 197.94002512404612 -67.53310712185818"/>
<polyline points="197.94002512404612 -67.53310712185818 204.8875704868964 -74.72511962213882"/>
<polyline points="190.99247976119582 -60.34109462157758 197.94002512404612 -67.53310712185818"/>
<polyline points="198.37001525492735 -81.06799435498948 191.85246002295835 -87.41086908784017"/>
<polyline points="191.85246002295835 -87.41086908784017 198.37001525492735 -81.06799435498948"/>
<polyline points="177.09738903549538 -45.95706962101633 170.14984367264512 -38.7650571207357"/>
<polyline points="177.09738903549538 -45.95706962101633 170.14984367264512 -38.7650571207357"/>
<polyline points="177.09738903549538 -45.95706962101633 170.57983380352627 -52.29994435386699"/>
<polyline points="157.11473320870707 -51.45080658643704 150.16718784585683 -44.258794086156406"/>
<polyline points="143.21964248300657 -37.06678158587581 150.16718784585683 -44.258794086156406"/>
<polyline points="143.21964248300657 -37.06678158587581 136.2720971201563 -29.874769085595176"/>
<polyline points="126.28266299711592 -25.51875664158597 123.24077423692579 -28.354756697857386"/>
<polyline points="120.19888547673561 -31.19075675412879 117.15699671654548 -34.026756810400215"/>
<polyline points="120.19888547673561 -31.19075675412879 117.15699671654548 -34.026756810400215"/>
<polyline points="107.59755272438629 -43.205631599522285 101.0799974924173 -49.548506332372966"/>
<polyline points="94.56244226044826 -55.89138106522365 103.68810854101875 -47.38338089640943 97.60433102063843 -53.05538100895223"/>
<polyline points="83.70924029493794 -38.671356008391015 76.76169493208766 -31.4793435081104"/>
<polyline points="76.76169493208766 -31.4793435081104 69.8141495692374 -24.287331007829774"/>
<polyline points="96.74056317816847 -40.191368396128865 99.78245193835863 -37.35536833985744"/>
<polyline points="99.78245193835863 -37.35536833985744 102.82434069854875 -34.51936828358606"/>
<polyline points="96.74056317816847 -40.191368396128865 99.78245193835863 -37.35536833985744"/>
<polyline points="95.87679533569852 -27.327355783305453 88.92924997284827 -20.135343283024824"/>
<polyline points="88.92924997284827 -20.135343283024824 95.87679533569852 -27.327355783305453"/>
<polyline points="88.92924997284827 -20.135343283024824 81.981704609998 -12.943330782744212"/>
<polyline points="90.65678565778816 -45.86336850867161 87.61489689759804 -48.699368564943"/>
<polyline points="93.69867441797832 -43.02736845240024 96.74056317816847 -40.191368396128865"/>
<polyline points="92.83490657550837 -30.163355839576838 85.88736121265812 -22.971343339296205"/>
<polyline points="78.93981584980786 -15.779330839015598 85.88736121265812 -22.971343339296205"/>
<polyline points="78.93981584980786 -15.779330839015598 71.99227048695761 -8.587318338734969"/>
<polyline points="58.52716989213833 -7.738180571305038 52.009614660169326 -14.081055304155724"/>
<polyline points="45.4920594282003 -20.42393003700641 38.974504196231265 -26.766804769857085"/>
<polyline points="45.4920594282003 -20.42393003700641 38.974504196231265 -26.766804769857085"/>
<polyline points="35.49883772445239 -30.273679446436393 38.540726484642555 -27.437679390164995"/>
<polyline points="41.582615244832695 -24.601679333893617 38.540726484642555 -27.437679390164995"/>
<polyline points="41.582615244832695 -24.601679333893617 44.62450400502285 -21.76567927762222"/>
<polyline points="40.71884740236272 -11.73766672107022 33.77130203951247 -4.5456542207896105"/>
<polyline points="97.60433102063843 -53.05538100895223 106.7299973012089 -44.547380840138075 100.64621978082863 -50.219380952680865"/>
<polyline points="86.75112905512809 -35.83535595211961 79.80358369227781 -28.643343451839"/>
<polyline points="79.80358369227781 -28.643343451839 72.85603832942756 -21.451330951558383"/>
<polyline points="99.78245193835865 -37.35536833985746 102.82434069854881 -34.51936828358611"/>
<polyline points="102.82434069854881 -34.51936828358611 105.86622945873897 -31.68336822731469"/>
<polyline points="99.78245193835865 -37.35536833985746 102.82434069854881 -34.51936828358611"/>
<polyline points="98.91868409588872 -24.49135572703409 91.9711387330385 -17.299343226753454"/>
<polyline points="91.9711387330385 -17.299343226753454 98.91868409588872 -24.49135572703409"/>
<polyline points="93.69867441797834 -43.02736845240025 90.65678565778816 -45.86336850867161"/>
<polyline points="93.69867441797834 -43.02736845240025 90.65678565778816 -45.86336850867161"/>
<polyline points="93.69867441797834 -43.02736845240025 86.75112905512809 -35.83535595211961"/>
<polyline points="76.76169493208766 -31.4793435081104 73.71980617189752 -34.31534356438176"/>
<polyline points="70.67791741170734 -37.15134362065315 73.71980617189752 -34.31534356438176"/>
<polyline points="70.67791741170734 -37.15134362065315 67.63602865151722 -39.98734367692454"/>
<polyline points="58.076584659358026 -49.166218466046594 51.55902942738902 -55.5090931988973"/>
<polyline points="45.041474195420015 -61.85196793174797 38.523918963451 -68.19484266459867"/>
<polyline points="45.041474195420015 -61.85196793174797 38.523918963451 -68.19484266459867"/>
<polyline points="25.058818368631723 -67.3457048971687 18.111273005781474 -60.15369239688811"/>
<polyline points="11.163727642931226 -52.96167989660748 30.71639333883827 -33.93305569805541 17.68128287490024 -46.61880516375679"/>
<polyline points="11.597505354519932 -52.290805276299565 8.555616594329782 -55.126805332570925"/>
<polyline points="8.555616594329782 -55.126805332570925 5.513727834139621 -57.96280538884231"/>
<polyline points="27.674504578648126 -36.76905575432678 34.19205981061713 -30.426181021476072"/>
<polyline points="34.19205981061713 -30.426181021476072 40.70961504258615 -24.083306288625387"/>
<polyline points="27.674504578648126 -36.76905575432678 34.19205981061713 -30.426181021476072"/>
<polyline points="37.66772628239598 -26.91930634489677 34.62583752220585 -29.755306401168156"/>
<polyline points="34.62583752220585 -29.755306401168156 37.66772628239598 -26.91930634489677"/>
<polyline points="34.62583752220585 -29.755306401168156 31.58394876201568 -32.59130645743955"/>
<polyline points="14.639394114710095 -49.45480522002816 8.121838882741082 -55.797679952878866"/>
<polyline points="21.156949346679102 -43.11193048717748 27.674504578648126 -36.76905575432678"/>
<polyline points="31.150171050426977 -33.26218107774748 28.10828229023683 -36.098181134018844"/>
<polyline points="25.06639353004667 -38.934181190290246 28.10828229023683 -36.098181134018844"/>
<polyline points="25.06639353004667 -38.934181190290246 22.024504769856527 -41.77018124656162"/>
<polyline points="12.035070646816115 -37.414168802552396 5.087525283965844 -30.222156302271802"/>
<polyline points="-1.8600200788844232 -23.0301438019912 -8.807565441734676 -15.83813130171058"/>
<polyline points="-1.8600200788844232 -23.0301438019912 -8.807565441734676 -15.83813130171058"/>
<polyline points="-9.237555572615934 -2.3032440685792834 -2.720000340646917 4.039630664271414"/>
<polyline points="3.797554891322089 10.382505397122113 10.3151101232911 16.725380129972812"/>
<polyline points="3.797554891322089 10.382505397122113 10.3151101232911 16.725380129972812"/>
<polyline points="13.790776595069973 20.232254806552135 10.748887834879845 17.39625475028076"/>
<polyline points="17.68128287490024 -46.61880516375679 37.23394857080728 -27.59018096520471 24.198838106869264 -40.2759304309061"/>
<polyline points="18.11506058648895 -45.94793054344887 15.073171826298799 -48.78393059972024"/>
<polyline points="15.073171826298799 -48.78393059972024 12.031283066108635 -51.61993065599162"/>
<polyline points="34.19205981061714 -30.42618102147607 40.70961504258616 -24.083306288625373"/>
<polyline points="40.70961504258616 -24.083306288625373 47.22717027455516 -17.74043155577467"/>
<polyline points="34.19205981061714 -30.42618102147607 40.70961504258616 -24.083306288625373"/>
<polyline points="44.18528151436502 -20.576431612046054 41.14339275417488 -23.412431668317428"/>
<polyline points="41.14339275417488 -23.412431668317428 44.18528151436502 -20.576431612046054"/>
<polyline points="21.156949346679102 -43.11193048717748 14.639394114710097 -49.45480522002817"/>
<polyline points="21.156949346679102 -43.11193048717748 14.639394114710097 -49.45480522002817"/>
<polyline points="21.156949346679102 -43.11193048717748 18.11506058648895 -45.94793054344887"/>
<polyline points="8.555616594329793 -55.12680533257093 2.038061362360782 -61.46968006542165"/>
<polyline points="-4.4794938696082305 -67.81255479827234 2.0380613623607773 -61.469680065421635"/>
<polyline points="-4.4794938696082305 -67.81255479827234 -10.99704910157724 -74.15542953112303"/>
<polyline points="-24.462149696396505 -73.30629176369311 -31.409695059246758 -66.11427926341248"/>
<polyline points="-38.357240422097014 -58.922266763131866 -45.30478578494726 -51.73025426285124"/>
<polyline points="-38.357240422097014 -58.922266763131866 -45.30478578494726 -51.73025426285124"/>
<polyline points="-55.29421990798767 -47.374241818842016 -58.336108668177815 -50.21024187511339"/>
<polyline points="-61.377997428368 -53.04624193138477 -40.53536133981724 -74.62227943222663 -54.43045206551774 -60.23825443166538"/>
<polyline points="-67.46556252945575 -72.9240038973668 -73.98311776142477 -79.26687863021749"/>
<polyline points="-73.98311776142477 -79.26687863021749 -80.50067299339375 -85.60975336306821"/>
<polyline points="-47.05291657178619 -80.9651541650773 -40.10537120893592 -88.1571666653579"/>
<polyline points="-40.10537120893592 -88.1571666653579 -33.15782584608566 -95.3491791656385"/>
<polyline points="-47.05291657178619 -80.9651541650773 -40.10537120893592 -88.1571666653579"/>
<polyline points="-39.675381078054656 -101.6920538984892 -46.19293631002365 -108.03492863133988"/>
<polyline points="-46.19293631002365 -108.03492863133988 -39.675381078054656 -101.6920538984892"/>
<polyline points="-46.19293631002365 -108.03492863133988 -52.71049154199266 -114.37780336419056"/>
<polyline points="-60.94800729748675 -66.58112916451611 -67.895552660337 -59.3891166642355"/>
<polyline points="-54.00046193463649 -73.7731416647967 -47.05291657178619 -80.9651541650773"/>
<polyline points="-46.622926440904926 -94.5000413982086 -53.14048167287392 -100.84291613105931"/>
<polyline points="-59.65803690484294 -107.18579086390999 -53.14048167287392 -100.84291613105931"/>
<polyline points="-59.65803690484294 -107.18579086390999 -66.1755921368119 -113.5286655967607"/>
<polyline points="-75.7350361289711 -122.70754038588281 -78.77692488916125 -125.54354044215417"/>
<polyline points="-81.81881364935138 -128.37954049842554 -84.86070240954157 -131.21554055469696"/>
<polyline points="-81.81881364935138 -128.37954049842554 -84.86070240954157 -131.21554055469696"/>
<polyline points="-80.95504580688144 -141.2435531112489 -74.00750044403118 -148.43556561152957"/>
<polyline points="-67.0599550811809 -155.62757811181012 -64.01806632099077 -152.79157805553876"/>
<polyline points="-64.01806632099077 -152.79157805553876 -60.97617756080056 -149.95557799926732"/>
<polyline points="-64.4518440325794 -153.46245267584666 -70.96939926454841 -159.80532740869737"/>
<polyline points="-70.96939926454841 -159.80532740869737 -64.4518440325794 -153.46245267584666"/>
<polyline points="-64.01806632099077 -152.79157805553876 -60.97617756080056 -149.95557799926732"/>
<polyline points="-64.4518440325794 -153.46245267584666 -70.96939926454841 -159.80532740869737"/>
<polyline points="-70.96939926454841 -159.80532740869737 -64.4518440325794 -153.46245267584666"/>
<polyline points="-40.535361339817186 -74.62227943222656 -33.587815976966915 -81.81429193250717"/>
<polyline points="-33.587815976966915 -81.81429193250717 -26.64027061411664 -89.00630443278781"/>
<polyline points="-47.48290670266747 -67.430266931946 -68.32554279121827 -45.854229431104216 -54.43045206551774 -60.23825443166538"/>
<polyline points="-48.34667454513742 -54.56625431912264 -45.30478578494726 -51.73025426285124"/>
<polyline points="-45.30478578494726 -51.73025426285124 -42.26289702475712 -48.89425420657985"/>
<polyline points="-51.38856330532757 -57.402254375394 -60.514229585898065 -65.91025454420816 -54.43045206551774 -60.23825443166538 -57.47234082570788 -63.07425448793677"/>
<polyline points="-41.39534160157973 -47.552504965964 -34.877786369610746 -41.209630233113266"/>
<polyline points="-34.87778636961074 -41.209630233113266 -28.36023113764174 -34.86675550026258"/>
<polyline points="-47.91289683354874 -53.8953796988147 -67.46556252945575 -72.92400389736679 -54.43045206551776 -60.23825443166536"/>
<polyline points="-68.3255427912183 -45.85422943110418 -75.27308815406856 -38.66221693082358"/>
<polyline points="-75.27308815406856 -38.66221693082358 -82.22063351691888 -31.470204430542985"/>
<polyline points="-61.37799742836803 -53.04624193138477 -40.5353613398172 -74.62227943222656 -61.37799742836803 -53.04624193138477"/>
<polyline points="-60.514229585898065 -65.91025454420816 -63.556118346088205 -68.74625460047952"/>
<polyline points="-63.556118346088205 -68.74625460047952 -66.59800710627835 -71.58225465675092"/>
<polyline points="-57.472340825707896 -63.07425448793676 -48.346674545137446 -54.566254319122606 -54.43045206551776 -60.23825443166536"/>
<polyline points="-67.46556252945575 -72.92400389736679 -73.98311776142475 -79.26687863021749"/>
<polyline points="-73.98311776142475 -79.26687863021749 -80.50067299339375 -85.60975336306822"/>
<polyline points="-60.94800729748676 -66.5811291645161 -41.39534160157976 -47.55250496596395 -54.43045206551775 -60.238254431665375 -47.48290670266748 -67.43026693194598"/>
<polyline points="-54.43045206551775 -60.238254431665375 -61.37799742836801 -53.046241931384785"/>
<polyline points="-54.43045206551775 -60.238254431665375 -61.37799742836801 -53.046241931384785"/>
<polyline points="-60.94800729748675 -66.58112916451611 -67.46556252945572 -72.9240038973668"/>
<polyline points="-80.93066312427499 -72.07486612993694 -87.87820848712525 -64.88285362965634"/>
<polyline points="-94.82575384997556 -57.69084112937573 -87.87820848712525 -64.88285362965634"/>
<polyline points="-94.82575384997556 -57.69084112937573 -101.77329921282583 -50.49882862909516"/>
<polyline points="-111.76273333586626 -46.14281618508594 -114.80462209605642 -48.97881624135732"/>
<polyline points="-117.84651085624655 -51.81481629762871 -120.88839961643669 -54.65081635390011"/>
<polyline points="-117.84651085624655 -51.81481629762871 -120.88839961643669 -54.65081635390011"/>
<polyline points="-130.44784360859583 -63.829691143022224 -136.96539884056486 -70.17256587587295"/>
<polyline points="-143.48295407253386 -76.51544060872367 -122.640317983983 -98.09147810956544 -136.53540870968357 -83.7074531090042"/>
<polyline points="-149.57051917362153 -96.39320257470567 -156.0880744055905 -102.7360773075564"/>
<polyline points="-156.0880744055905 -102.7360773075564 -162.60562963755947 -109.07895204040713"/>
<polyline points="-129.157873215952 -104.43435284241617 -122.21032785310172 -111.62636534269672"/>
<polyline points="-122.21032785310172 -111.62636534269672 -115.26278249025144 -118.81837784297738"/>
<polyline points="-115.26278249025144 -118.81837784297738 -108.31523712740116 -126.01039034325795"/>
<polyline points="-107.88524699651988 -139.54527757638922 -114.40280222848882 -145.88815230923998"/>
<polyline points="-136.10541857880224 -97.24234034213552 -116.55275288289533 -78.21371614358338 -129.58786334683325 -90.89946560928483"/>
<polyline points="-115.69277262113268 -105.28349060984594 -108.74522725828241 -112.47550311012657"/>
<polyline points="-108.74522725828241 -112.47550311012657 -101.79768189543208 -119.66751561040716"/>
<polyline points="-109.605207520045 -85.40572864386392 -103.08765228807604 -79.06285391101319"/>
<polyline points="-103.08765228807604 -79.06285391101319 -96.57009705610709 -72.71997917816243"/>
<polyline points="-130.01785347771462 -77.3645783761535 -136.96539884056492 -70.17256587587296"/>
<polyline points="-136.96539884056492 -70.17256587587296 -143.9129442034152 -62.980553375592365"/>
<polyline points="-123.07030811486429 -84.5565908764341 -102.22767202631343 -106.13262837727582 -116.12276275201403 -91.74860337671466"/>
<polyline points="-110.0389852316337 -86.07660326417191 -106.99709647144356 -83.2406032079005"/>
<polyline points="-106.99709647144356 -83.2406032079005 -103.95520771125342 -80.40460315162909"/>
<polyline points="-113.08087399182386 -88.91260332044328 -122.20654027239434 -97.42060348925743 -116.12276275201403 -91.74860337671466"/>
<polyline points="-116.12276275201403 -91.74860337671466 -122.64031798398297 -98.09147810956537"/>
<polyline points="-116.12276275201403 -91.74860337671466 -109.605207520045 -85.40572864386392"/>
<polyline points="-116.12276275201403 -91.74860337671466 -109.605207520045 -85.40572864386392"/>
<polyline points="-113.08087399182386 -88.91260332044328 -110.0389852316337 -86.07660326417191"/>
<polyline points="-100.47954123947461 -76.89772847504976 -93.96198600750563 -70.55485374219903"/>
<polyline points="-87.44443077553663 -64.21197900934827 -93.96198600750563 -70.55485374219903"/>
<polyline points="-87.44443077553663 -64.21197900934827 -80.92687554356765 -57.86910427649756"/>
<polyline points="-81.35686567444897 -44.33421704336625 -88.30441103729927 -37.1422045430857"/>
<polyline points="-95.25195640014954 -29.950192042805106 -102.19950176299987 -22.75817954252453"/>
<polyline points="-95.25195640014954 -29.950192042805106 -102.19950176299987 -22.75817954252453"/>
<polyline points="-106.10515836566003 -12.73016698597258 -103.06326960546987 -9.894166929701179"/>
<polyline points="-100.02138084527971 -7.058166873429817 -119.57404654118672 -26.086791071981974 -106.53893607724869 -13.40104160628054"/>
<polyline points="-100.45515855686848 -7.729041493737811 -97.41326979667834 -4.893041437466446"/>
<polyline points="-97.41326979667834 -4.893041437466446 -94.37138103648819 -2.057041381195062"/>
<polyline points="-116.53215778099657 -23.250791015710625 -123.04971301296555 -29.59366574856135"/>
<polyline points="-123.04971301296555 -29.59366574856135 -129.5672682449345 -35.93654048141208"/>
<polyline points="-129.5672682449345 -35.93654048141208 -136.08482347690347 -42.27941521426281"/>
<polyline points="-139.56048994868237 -45.786289890842205 -136.51860118849223 -42.95028983457085"/>
<polyline points="-110.01460254902759 -16.9079162828599 -119.14026882959791 -25.415916451673976 -113.05649130921768 -19.74391633913128"/>
<polyline points="-126.09160177315567 -32.429665804832716 -132.60915700512467 -38.772540537683476"/>
<polyline points="-132.60915700512467 -38.772540537683476 -139.12671223709367 -45.11541527053417"/>
<polyline points="-125.65782406156693 -31.75879118452472 -128.69971282175706 -34.594791240796106"/>
<polyline points="-128.69971282175706 -34.594791240796106 -131.74160158194718 -37.43079129706746"/>
<polyline points="-125.65782406156693 -31.75879118452472 -128.69971282175706 -34.594791240796106"/>
<polyline points="-138.2591568139162 -43.773666029918175 -144.77671204588512 -50.1165407627689"/>
<polyline points="-119.57404654118672 -26.086791071981974 -100.02138084527974 -7.058166873429759 -113.05649130921769 -19.743916339131264"/>
<polyline points="-119.14026882959791 -25.415916451673976 -122.1821575897881 -28.251916507945335"/>
<polyline points="-122.1821575897881 -28.251916507945335 -125.22404634997822 -31.087916564216687"/>
<polyline points="-103.06326960546987 -9.894166929701125 -96.5457143735009 -3.551292196850363"/>
<polyline points="-96.5457143735009 -3.551292196850363 -90.02815914153193 2.791582536000419"/>
<polyline points="-103.06326960546987 -9.894166929701125 -96.5457143735009 -3.551292196850363"/>
<polyline points="-93.07004790172202 -0.0444175202709657 -96.1119366619122 -2.88041757654233"/>
<polyline points="-96.1119366619122 -2.88041757654233 -93.07004790172202 -0.0444175202709657"/>
<polyline points="-116.09838006940787 -22.57991639540257 -122.61593530137678 -28.92279112825338"/>
<polyline points="-116.09838006940787 -22.57991639540257 -122.61593530137678 -28.92279112825338"/>
<polyline points="-116.09838006940787 -22.57991639540257 -119.14026882959791 -25.415916451673976"/>
<polyline points="-128.69971282175706 -34.594791240796106 -135.21726805372606 -40.93766597364687"/>
<polyline points="-141.73482328569503 -47.28054070649761 -135.21726805372606 -40.93766597364687"/>
<polyline points="-141.73482328569503 -47.28054070649761 -148.25237851766397 -53.62341543934834"/>
<polyline points="-161.7174791124833 -52.77427767191849 -168.66502447533352 -45.582265171637935"/>
<polyline points="-175.6125698381839 -38.39025267135737 -182.56011520103422 -31.198240171076748"/>
<polyline points="-175.6125698381839 -38.39025267135737 -182.56011520103422 -31.198240171076748"/>
<polyline points="-192.54954932407458 -26.842227727067616 -195.59143808426478 -29.678227783338887"/>
<polyline points="-198.63332684445487 -32.51422783961027 -177.790690755904 -54.09026534045195 -191.68578148160458 -39.70624033989086"/>
<polyline points="-204.72089194554255 -52.39198980559235 -211.23844717751155 -58.73486453844311"/>
<polyline points="-211.23844717751155 -58.73486453844311 -217.7560024094805 -65.07773927129386"/>
<polyline points="-184.30824598787302 -60.43314007330272 -177.3607006250227 -67.62515257358335"/>
<polyline points="-177.3607006250227 -67.62515257358335 -170.4131552621724 -74.81716507386392"/>
<polyline points="-184.30824598787302 -60.43314007330272 -177.3607006250227 -67.62515257358335"/>
<polyline points="-176.9307104941414 -81.16003980671466 -183.44826572611032 -87.50291453956541"/>
<polyline points="-183.44826572611032 -87.50291453956541 -176.9307104941414 -81.16003980671466"/>
<polyline points="-183.44826572611032 -87.50291453956541 -189.96582095807932 -93.84578927241616"/>
<polyline points="-198.20333671357358 -46.049115072741614 -205.15088207642384 -38.85710257246105"/>
<polyline points="-191.25579135072329 -53.24112757302219 -184.30824598787302 -60.43314007330272"/>
<polyline points="-183.87825585699161 -73.9680273064341 -190.3958110889606 -80.31090203928483"/>
<polyline points="-196.91336632092964 -86.65377677213559 -190.3958110889606 -80.31090203928483"/>
<polyline points="-196.91336632092964 -86.65377677213559 -203.43092155289858 -92.99665150498633"/>
<polyline points="-212.99036554505759 -102.17552629410848 -216.03225430524773 -105.01152635037984"/>
<polyline points="-219.0741430654379 -107.84752640665107 -222.116031825628 -110.68352646292243"/>
<polyline points="-219.0741430654379 -107.84752640665107 -222.116031825628 -110.68352646292243"/>
<polyline points="-218.21037522296785 -120.71153901947439 -211.26282986011745 -127.90355151975493"/>
<polyline points="-211.26282986011745 -127.90355151975493 -218.21037522296785 -120.71153901947439"/>
<polyline points="-177.790690755904 -54.09026534045195 -170.84314539305373 -61.28227784073256"/>
<polyline points="-170.84314539305373 -61.28227784073256 -163.89560003020344 -68.47429034101312"/>
<polyline points="-184.73823611875432 -46.89825284017144 -205.5808722073052 -25.322215339329674 -191.68578148160458 -39.70624033989086"/>
<polyline points="-185.60200396122434 -34.03424022734813 -182.56011520103422 -31.198240171076748"/>
<polyline points="-182.56011520103422 -31.198240171076748 -179.51822644084405 -28.362240114805434"/>
<polyline points="-188.64389272141443 -36.870240283619474 -197.76955900198487 -45.378240452433545 -191.68578148160458 -39.70624033989086"/>
<polyline points="-188.64389272141443 -36.870240283619474 -185.60200396122434 -34.03424022734813"/>
<polyline points="-178.6506710176667 -27.02049087418933 -172.13311578569764 -20.677616141338593"/>
<polyline points="-172.13311578569764 -20.677616141338593 -165.61556055372873 -14.334741408487869"/>
<polyline points="-185.16822624963567 -33.36336560704007 -204.72089194554255 -52.39198980559236 -191.68578148160458 -39.70624033989086"/>
<polyline points="-205.5808722073052 -25.322215339329674 -212.52841757015545 -18.130202839049087"/>
<polyline points="-212.52841757015545 -18.130202839049087 -219.47596293300577 -10.938190338768534"/>
<polyline points="-198.63332684445487 -32.51422783961027 -177.790690755904 -54.09026534045195 -191.68578148160458 -39.70624033989086"/>
<polyline points="-198.63332684445487 -32.51422783961027 -205.5808722073052 -25.322215339329674"/>
<polyline points="-198.63332684445487 -32.51422783961027 -205.5808722073052 -25.322215339329674"/>
<polyline points="-209.48652880996534 -15.294202782777777 -206.44464004977516 -12.458202726506432"/>
<polyline points="-191.68578148160458 -39.70624033989086 -200.81144776217505 -48.21424050870489 -194.72767024179473 -42.542240396162164"/>
<polyline points="-208.62276096749537 -28.158215395601022 -215.57030633034557 -20.966202895320503"/>
<polyline points="-215.57030633034557 -20.966202895320503 -222.51785169319595 -13.774190395039842"/>
<polyline points="-207.7589931250253 -41.022228008424335 -210.80088188521543 -43.858228064695695"/>
<polyline points="-210.80088188521543 -43.858228064695695 -213.8427706454056 -46.694228120967"/>
<polyline points="-207.7589931250253 -41.022228008424335 -210.80088188521543 -43.858228064695695"/>
<polyline points="-220.79031600825587 -39.50221562068644 -227.73786137110622 -32.31020312040589"/>
<polyline points="-227.73786137110622 -32.31020312040589 -220.79031600825587 -39.50221562068644"/>
<polyline points="-201.67521560464502 -35.35022789588165 -198.63332684445487 -32.51422783961027"/>
<polyline points="-201.67521560464502 -35.35022789588165 -198.63332684445487 -32.51422783961027"/>
<polyline points="-201.67521560464502 -35.35022789588165 -208.62276096749537 -28.158215395601022"/>
<polyline points="-212.5284175701555 -18.130202839049087 -209.48652880996534 -15.294202782777777"/>
<polyline points="-206.44464004977516 -12.45820272650643 -209.48652880996534 -15.294202782777777"/>
<polyline points="-206.44464004977516 -12.45820272650643 -203.40275128958513 -9.622202670235046"/>
<polyline points="-193.84330729742595 -0.4433278811129582 -187.32575206545695 5.899546851737822"/>
<polyline points="-180.80819683348807 12.242421584588566 -174.29064160151904 18.585296317439287"/>
<polyline points="-180.80819683348807 12.242421584588566 -174.29064160151904 18.585296317439287"/>
<polyline points="-174.72063173240034 32.12018355057062 -181.66817709525063 39.31219605085118"/>
<polyline points="-188.61572245810095 46.504208551131725 -208.1683881540079 27.475584352579528 -195.13327769006995 40.16133381828104"/>
<polyline points="-189.04950016968968 45.833333930823756 -186.00761140949962 48.66933398709518"/>
<polyline points="-186.00761140949962 48.66933398709518 -182.96572264930944 51.50533404336657"/>
<polyline points="-205.1264993938178 30.31158440885091 -211.64405462578665 23.96870967600009"/>
<polyline points="-211.64405462578665 23.96870967600009 -218.16160985775574 17.625834943149385"/>
<polyline points="-205.1264993938178 30.31158440885091 -211.64405462578665 23.96870967600009"/>
<polyline points="-215.1197210975656 20.461834999420727 -212.0778323373755 23.29783505569211"/>
<polyline points="-212.0778323373755 23.29783505569211 -215.11972109756562 20.46183499942076"/>
<polyline points="-212.0778323373755 23.29783505569211 -209.03594357718538 26.13383511196353"/>
<polyline points="-192.09138892987977 42.99733387455237 -185.57383369791086 49.34020860740313"/>
<polyline points="-198.60894416184885 36.654459141701686 -205.1264993938178 30.31158440885091"/>
<polyline points="-208.60216586559662 26.804709732271547 -205.56027710540653 29.640709788542893"/>
<polyline points="-202.51838834521635 32.47670984481424 -205.56027710540653 29.640709788542893"/>
<polyline points="-202.51838834521635 32.47670984481424 -199.4764995850263 35.312709901085626"/>
<polyline points="-203.38215618768643 45.34072245763757 -210.32970155053675 52.53273495791819"/>
<polyline points="-217.2772469133871 59.724747458198756 -224.22479227623734 66.91675995847923"/>
<polyline points="-217.2772469133871 59.724747458198756 -224.22479227623734 66.91675995847923"/>
<polyline points="-237.68989287105663 67.76589772590911 -244.20744810302568 61.423022993058446"/>
<polyline points="-250.72500333499462 55.08014826020763 -244.20744810302568 61.423022993058446"/>
<polyline points="-250.72500333499462 55.08014826020763 -257.24255856696357 48.737273527356855"/>
<polyline points="-260.7182250387425 45.230398850777405 -257.67633627855236 48.06639890704876"/>
<polyline points="-195.13327769006995 40.16133381828104 -214.68594338597686 21.13270961972878 -201.65083292203892 33.81845908543022"/>
<polyline points="-195.5670554016587 39.490459197973045 -192.52516664146856 42.326459254244384"/>
<polyline points="-192.52516664146856 42.326459254244384 -189.48327788127847 45.1624593105158"/>
<polyline points="-211.64405462578665 23.96870967600009 -218.16160985775574 17.625834943149385"/>
<polyline points="-218.16160985775574 17.625834943149385 -224.67916508972468 11.282960210298603"/>
<polyline points="-211.64405462578665 23.96870967600009 -218.16160985775574 17.625834943149385"/>
<polyline points="-221.6372763295346 14.118960266570024 -218.59538756934455 16.954960322841412"/>
<polyline points="-218.59538756934455 16.954960322841412 -221.6372763295346 14.118960266570024"/>
<polyline points="-198.60894416184885 36.654459141701686 -192.09138892987977 42.99733387455237"/>
<polyline points="-198.60894416184885 36.654459141701686 -192.09138892987977 42.99733387455237"/>
<polyline points="-198.60894416184885 36.654459141701686 -195.5670554016587 39.490459197973045"/>
<polyline points="-186.00761140949962 48.66933398709518 -179.49005617753056 55.01220871994587"/>
<polyline points="-172.97250094556162 61.35508345279664 -179.49005617753056 55.01220871994587"/>
<polyline points="-172.97250094556162 61.35508345279664 -166.45494571359268 67.69795818564742"/>
<polyline points="-166.88493584447394 81.23284541877871 -173.8324812073243 88.4248579190593"/>
<polyline points="-180.78002657017456 95.61687041933986 -187.72757193302485 102.80888291962042"/>
<polyline points="-180.78002657017456 95.61687041933986 -187.72757193302485 102.80888291962042"/>
<polyline points="-191.63322853568508 112.8368954761724 -188.59133977549496 115.67289553244376"/>
<polyline points="-185.54945101530478 118.50889558871512 -164.70681492675394 96.93285808787341 -178.60190565245455 111.31688308843461"/>
<polyline points="-165.56679518851655 124.00263255413606 -159.04923995654758 130.34550728698684"/>
<polyline points="-159.04923995654758 130.34550728698684 -152.5316847245786 136.6883820198376"/>
<polyline points="-158.1892596947849 103.27573282072413 -151.24171433193462 96.08372032044363"/>
<polyline points="-151.24171433193462 96.08372032044363 -144.2941689690843 88.89170782016302"/>
<polyline points="-158.1892596947849 103.27573282072413 -151.24171433193462 96.08372032044363"/>
<polyline points="-137.77661373711535 95.23458255301381 -131.25905850514638 101.57745728586457"/>
<polyline points="-131.25905850514638 101.57745728586457 -137.77661373711535 95.23458255301381"/>
<polyline points="-131.25905850514638 101.57745728586457 -124.7415032731774 107.92033201871533"/>
<polyline points="-172.08435042048555 117.65975782128527 -179.03189578333584 124.85177032156592"/>
<polyline points="-165.13680505763523 110.46774532100471 -158.1892596947849 103.27573282072413"/>
<polyline points="-144.72415909996562 102.42659505329438 -138.20660386799668 108.76946978614514"/>
<polyline points="-131.68904863602768 115.1123445189959 -138.20660386799668 108.76946978614514"/>
<polyline points="-131.68904863602768 115.1123445189959 -125.17149340405872 121.45521925184663"/>
<polyline points="-115.61204941189963 130.63409404096876 -112.57016065170953 133.47009409724012"/>
<polyline points="-109.52827189151947 136.30609415351148 -106.48638313132932 139.1420942097828"/>
<polyline points="-109.52827189151947 136.30609415351148 -106.48638313132932 139.1420942097828"/>
<polyline points="-96.49694900828891 134.78608176577364 -89.5494036454386 127.59406926549308"/>
<polyline points="-82.6018582825883 120.4020567652125 -75.654312919738 113.21004426493192"/>
<polyline points="-82.6018582825883 120.4020567652125 -75.654312919738 113.21004426493192"/>
<polyline points="-62.18921232491873 112.36090649750211 -55.67165709294975 118.70378123035285"/>
<polyline points="-178.60190565245455 111.31688308843461 -157.75926956390362 89.74084558759289 -171.65436028960423 104.124870588154"/>
<polyline points="-158.6192498256663 116.8106200538555 -152.1016945936973 123.15349478670625"/>
<polyline points="-152.1016945936973 123.15349478670625 -145.58413936172832 129.496369519557"/>
<polyline points="-151.24171433193462 96.08372032044365 -144.2941689690843 88.89170782016305"/>
<polyline points="-144.2941689690843 88.89170782016305 -137.346623606234 81.69969531988245"/>
<polyline points="-151.24171433193462 96.08372032044365 -144.2941689690843 88.89170782016305"/>
<polyline points="-130.8290683742651 88.04257005273323 -124.31151314229606 94.38544478558397"/>
<polyline points="-124.31151314229606 94.38544478558397 -130.8290683742651 88.04257005273323"/>
<polyline points="-165.13680505763523 110.46774532100473 -172.08435042048555 117.65975782128528"/>
<polyline points="-165.13680505763523 110.46774532100473 -172.08435042048555 117.65975782128528"/>
<polyline points="-165.13680505763523 110.46774532100473 -158.6192498256663 116.8106200538555"/>
<polyline points="-159.04923995654758 130.34550728698687 -165.9967853193979 137.53751978726743"/>
<polyline points="-172.9443306822482 144.72953228754795 -165.9967853193979 137.53751978726743"/>
<polyline points="-172.9443306822482 144.72953228754795 -179.8918760450985 151.92154478782848"/>
<polyline points="-183.7975326477587 161.94955734438048 -180.75564388756865 164.78555740065175"/>
<polyline points="-177.71375512737856 167.62155745692317 -174.67186636718847 170.45755751319453"/>
<polyline points="-177.71375512737856 167.62155745692317 -174.67186636718847 170.45755751319453"/>
<polyline points="-165.11242237502935 179.6364323023166 -158.59486714306038 185.97930703516732"/>
<polyline points="-152.0773119110914 192.3221817680181 -161.20297819166177 183.81418159920403 -155.11920067128153 189.48618171174678"/>
<polyline points="-169.0142913969821 203.87020671230795 -175.96183675983238 211.06221921258845"/>
<polyline points="-175.96183675983238 211.06221921258845 -182.90938212268273 218.25423171286906"/>
<polyline points="-168.15052355451203 191.00619409948465 -171.19241231470207 188.1701940432132"/>
<polyline points="-171.19241231470207 188.1701940432132 -174.23430107489222 185.33419398694187"/>
<polyline points="-168.15052355451203 191.00619409948465 -171.19241231470207 188.1701940432132"/>
<polyline points="-181.18184643774256 192.5262064872224 -188.12939180059286 199.71821898750304"/>
<polyline points="-188.12939180059286 199.71821898750304 -181.18184643774256 192.5262064872224"/>
<polyline points="-188.12939180059286 199.71821898750304 -195.07693716344312 206.91023148778356"/>
<polyline points="-162.06674603413182 196.67819421202734 -159.02485727394173 199.51419426829875"/>
<polyline points="-165.10863479432194 193.84219415575595 -168.15052355451203 191.00619409948465"/>
<polyline points="-178.13995767755242 195.3622065434938 -185.0875030404027 202.55421904377434"/>
<polyline points="-192.035048403253 209.74623154405484 -185.0875030404027 202.55421904377434"/>
<polyline points="-192.035048403253 209.74623154405484 -198.98259376610335 216.93824404433556"/>
<polyline points="-199.4125838969847 230.47313127746688 -192.89502866501564 236.8160060103176"/>
<polyline points="-186.37747343304667 243.1588807431684 -179.8599182010777 249.50175547601907"/>
<polyline points="-186.37747343304667 243.1588807431684 -179.8599182010777 249.50175547601907"/>
<polyline points="-176.3842517292988 253.00863015259847 -179.4261404894889 250.17263009632717"/>
</svg>