<svg viewBox="-142.46935215177697 -106.03312165072248 309.3454240788632 212.618481424961" xmlns="http://www.w3.org/2000/svg">
<style type="text/css">
svg { stroke:black; stroke-width:2; fill:none; transform:scale(1,-1);}
</style>
<polyline points="139.13434134396954 -21.29836995273507 83.65820003824632 -99.25146932514643 131.6802755761475 -16.922939146567856 163.87607192708623 72.7077600202175 123.55664117664958 -13.825944924837923 139.00076771388882 80.59648745554095 115.00779257594515 -12.10879666575525 74.55078630117303 -99.73636322790048 106.88586338412851 -9.002495554557457 105.10669239651001 87.8769962136762 98.1663256907871 -8.745061976029843 74.04982506057537 -103.03312165072248 89.61733942186378 -7.028569996966963 49.07895354903098 -96.29021310156983 81.49617782395178 -3.899366547429925 97.07118617519156 92.92133985215855 72.94637158387006 -2.190580466478022 53.974815983084014 94.73948503550893 64.31698286860593 -3.447524731822049 57.28922485933343 -102.13849214740685 55.59631968586015 -3.210877280256753 31.441102660095233 -99.5086703143142 47.046938509788546 -1.4855763081193034 45.33243699475062 97.91817930614651 38.32612792979028 -1.2547002324578809 -2.2494865019543404 -92.38995175459466 30.206028108259538 1.920270348150143 45.79732978726722 100.5058727195298 21.656785315058997 3.6462495372905805 19.933224761360623 103.54566377772016 12.936606154560486 3.871880811102986 -11.190141842970405 -93.14931798440891 4.38765861627507 5.601725340618208 -31.381737280971716 98.97529211507373 -3.886934255128064 2.8414346222050963 6.574088949676444 -96.55623216865233 -12.514662944749869 1.554005729451065 -19.36907018596271 -98.05051578456869 -21.23568225896655 1.7742124248725235 -40.37794680503757 99.68032322685585 -29.862854625238825 0.4851303301296914 -53.85251032151794 -96.07895024588005 -38.41504009510097 2.2030231959456557 -40.31241116384935 101.50573920181166 -47.136042134944134 2.423922593840615 -66.28372608319015 99.63569063099209 -55.763069496750376 1.1480232963754087 -62.59600265584015 -97.42154643967284 -64.48414490929576 1.3686834437004232 -104.84565740862152 -88.34826855531854 -72.61107086449783 4.50048548228623 -57.25956579649679 101.16514395043993 -81.1637118703358 6.207240904139929 -83.14366969277529 103.58535977423853 -89.88353152559753 6.447375258393768 -113.748442889736 -87.66103878960224 -98.43603952781295 8.151769304183876 -117.77298111871214 102.70392205977335 -107.05878536446504 6.936987240453162 -113.6713636948706 -88.65294486049152 -115.77862120008155 7.176449118035798 -139.46935215177697 -85.1141671276867 -124.33387644100144 8.85038368296511 -126.5578829472389 103.53550522934385 -133.0532668672933 9.09405402878316"/>
</svg>
