<svg viewBox="-260.7182250387424 -159.80532740869768 528.197619479334 412.81395756129666" xmlns="http://www.w3.org/2000/svg">
<style>
svg { stroke:black; stroke-width:2px; fill:none;}
</style>
<polyline points="114.13404585989318 34.16605240052459 117.17593462008341 37.002052456796406"/>
<polyline points="120.21782338027351 39.83805251306784 123.25971214046359 42.674052569339196"/>
<polyline points="119.35405553780343 52.702065125891146 112.40651017495317 59.89407762617178"/>
<polyline points="112.40651017495317 59.89407762617178 92.85384447904606 40.865453427619606 105.88895494298416 53.55120289332103"/>
<polyline points="119.78404566868466 39.16717789275975 126.73159103153492 31.97516539247913"/>
<polyline points="126.73159103153492 31.97516539247913 133.67913639438515 24.783152892198487"/>
<polyline points="99.80138984189634 33.67344092733898 93.28383460992727 27.33056619448827"/>
<polyline points="93.28383460992727 27.33056619448827 86.76627937795824 20.987691461637557"/>
<polyline points="99.80138984189634 33.67344092733898 93.28383460992727 27.33056619448827"/>
<polyline points="93.71382474080846 13.795678961356916 100.66137010365873 6.603666461076272"/>
<polyline points="100.66137010365873 6.603666461076272 93.71382474080846 13.795678961356916"/>
<polyline points="112.83650030583442 46.35919039304041 119.35405553780348 52.70206512589111"/>
<polyline points="112.83650030583442 46.35919039304041 119.35405553780348 52.70206512589111"/>
<polyline points="112.83650030583442 46.35919039304041 119.78404566868466 39.16717789275975"/>
<polyline points="133.24914626350397 38.318040125329844 139.766701495473 44.66091485818059"/>
<polyline points="146.284256727442 51.003789591031314 139.766701495473 44.66091485818059"/>
<polyline points="146.284256727442 51.003789591031314 152.80181195941105 57.346664323882024"/>
<polyline points="162.3612559515702 66.52553911300409 165.40314471176032 69.36153916927539"/>
<polyline points="168.4450334719504 72.1975392255467 171.4869222321405 75.0335392818181"/>
<polyline points="168.4450334719504 72.1975392255467 171.4869222321405 75.0335392818181"/>
<polyline points="181.47635635518085 70.67752683780878 188.42390171803112 63.485514337528144"/>
<polyline points="195.37144708088135 56.29350183724758 186.2457808003111 47.785501668433454 192.32955832069132 53.457501780976145"/>
<polyline points="205.36466878462923 66.14325124667765 211.8822240165984 72.4861259795283"/>
<polyline points="211.8822240165984 72.4861259795283 218.39977924856743 78.829000712379"/>
<polyline points="192.76333603228008 54.12837640128419 189.72144727208993 51.29237634501285"/>
<polyline points="189.72144727208993 51.29237634501285 186.67955851189978 48.4563762887415"/>
<polyline points="192.76333603228008 54.12837640128419 189.72144727208993 51.29237634501285"/>
<polyline points="193.1971137438689 54.7992510215922 199.7146689758379 61.14212575444289"/>
<polyline points="199.7146689758379 61.14212575444289 193.1971137438689 54.7992510215922"/>
<polyline points="199.7146689758379 61.14212575444289 206.23222420780692 67.4850004872936"/>
<polyline points="198.84711355266026 59.800376513826926 201.88900231285035 62.6363765700983"/>
<polyline points="195.8052247924702 56.96437645755549 192.76333603228008 54.12837640128419"/>
<polyline points="196.23900250405902 57.6352510778635 202.75655773602804 63.97812581071423"/>
<polyline points="209.27411296799707 70.32100054356496 202.75655773602804 63.97812581071423"/>
<polyline points="209.27411296799707 70.32100054356496 215.79166819996604 76.66387527641572"/>
<polyline points="229.25676879478533 75.81473750898577 236.2043141576356 68.62272500870513"/>
<polyline points="243.15185952048586 61.430712508424484 250.09940488333606 54.23870000814388"/>
<polyline points="243.15185952048586 61.430712508424484 250.09940488333606 54.23870000814388"/>
<polyline points="254.00506148599626 44.21068745159189 250.96317272580612 41.37468739532047"/>
<polyline points="192.32955832069132 53.457501780976145 189.2876695605012 50.62150172470477"/>
<polyline points="189.2876695605012 50.62150172470477 186.24578080031102 47.785501668433454"/>
<polyline points="189.72144727208993 51.29237634501285 196.23900250405902 57.6352510778635"/>
<polyline points="196.23900250405902 57.6352510778635 189.72144727208993 51.29237634501285"/>
<polyline points="189.2876695605012 50.62150172470477 186.24578080031102 47.785501668433454"/>
<polyline points="189.72144727208993 51.29237634501285 196.23900250405902 57.6352510778635"/>
<polyline points="196.23900250405902 57.6352510778635 189.72144727208993 51.29237634501285"/>
<polyline points="205.36466878462923 66.14325124667765 211.8822240165984 72.4861259795283"/>
<polyline points="211.8822240165984 72.4861259795283 218.39977924856743 78.829000712379"/>
<polyline points="198.84711355266026 59.800376513826926 179.2944478567532 40.77175231527475 192.32955832069132 53.457501780976145"/>
<polyline points="178.43446759499076 67.8415267815374 171.4869222321405 75.03353928181805"/>
<polyline points="171.4869222321405 75.03353928181805 164.53937686929018 82.2255517820987"/>
<polyline points="185.38201295784097 60.64951428125683 206.2246490463918 39.07347678041486 192.32955832069132 53.457501780976145 199.27710368354153 46.265489280695505"/>
<polyline points="186.24578080031102 47.785501668433454 183.20389204012088 44.94950161216212"/>
<polyline points="183.20389204012088 44.94950161216212 180.16200327993081 42.113501555890736"/>
<polyline points="189.2876695605012 50.62150172470477 198.41333584107142 59.12950189351894 192.32955832069132 53.457501780976145"/>
<polyline points="179.2944478567532 40.77175231527475 172.77689262478418 34.428877582424036"/>
<polyline points="172.77689262478418 34.428877582424036 166.25933739281513 28.08600284957331"/>
<polyline points="185.8120030887222 47.114627048125456 205.36466878462923 66.14325124667765 185.8120030887222 47.114627048125456"/>
<polyline points="206.2246490463918 39.07347678041486 213.17219440924205 31.881464280134253"/>
<polyline points="213.17219440924205 31.881464280134253 220.11973977209234 24.689451779853613"/>
<polyline points="199.27710368354153 46.265489280695505 178.4344675949907 67.8415267815374 192.32955832069126 53.45750178097619"/>
<polyline points="198.41333584107142 59.12950189351894 201.4552246012616 61.965501949790294"/>
<polyline points="201.4552246012616 61.965501949790294 204.49711336145162 64.80150200606168"/>
<polyline points="195.37144708088135 56.29350183724758 186.2457808003111 47.78550166843338 192.32955832069132 53.457501780976145 198.84711355266026 59.800376513826926"/>
<polyline points="192.32955832069132 53.457501780976145 185.8120030887222 47.114627048125456"/>
<polyline points="192.32955832069132 53.457501780976145 185.8120030887222 47.114627048125456"/>
<polyline points="195.37144708088135 56.29350183724758 198.41333584107142 59.129501893518984"/>
<polyline points="194.93766936929254 55.622627216939605 188.4201141373235 49.279752484088874"/>
<polyline points="181.90255890535448 42.93687775123818 188.4201141373235 49.279752484088874"/>
<polyline points="181.90255890535448 42.93687775123818 175.38500367338548 36.59400301838742"/>
<polyline points="175.8149938042667 23.059115785256115 182.76253916711693 15.867103284975473"/>
<polyline points="189.71008452996716 8.6750907846949 196.6576298928175 1.4830782844142174"/>
<polyline points="189.71008452996716 8.6750907846949 196.6576298928175 1.4830782844142174"/>
<polyline points="206.6470640158579 -2.8729341595950837 209.68895277604798 -0.0369341033236264"/>
<polyline points="212.7308415362381 2.7990659529476796 232.28350723214513 21.82769015149987 219.24839676820716 9.141940685798447"/>
<polyline points="225.33217428858734 14.813940798341175 228.37406304877746 17.64994085461259"/>
<polyline points="228.37406304877746 17.64994085461259 231.4159518089675 20.485940910884047"/>
<polyline points="235.32539599233527 24.663690207771257 241.84295122430436 31.00656494062194"/>
<polyline points="241.84295122430436 31.00656494062194 248.36050645627333 37.349439673472666"/>
<polyline points="248.36050645627333 37.349439673472666 254.8780616882424 43.69231440632332"/>
<polyline points="264.43750568040156 52.8711891954454 267.47939444059165 55.70718925171686"/>
<polyline points="228.80784076036625 18.320815474920558 219.68217447979595 9.812815306106339 225.76595200017613 15.48481541864914"/>
<polyline points="238.80106246411415 28.17056488435056 245.3186176960832 34.51343961720126"/>
<polyline points="245.3186176960832 34.51343961720126 251.83617292805226 40.85631435005187"/>
<polyline points="226.19972971176492 16.155690038957104 223.15784095157483 13.319689982685611"/>
<polyline points="223.15784095157483 13.319689982685611 220.11595219138468 10.483689926414307"/>
<polyline points="216.20650800801698 6.305940629527028 209.688952776048 -0.0369341033237016"/>
<polyline points="209.688952776048 -0.0369341033237016 203.17139754407899 -6.379808836174395"/>
<polyline points="222.724063239986 12.648815362377796 242.27672893589306 31.677439560929912 229.24161847195504 18.991690095228485"/>
<polyline points="215.3465277462545 33.37571509578971 208.39898238340425 40.567727596070306"/>
<polyline points="208.39898238340425 40.567727596070306 201.45143702055398 47.759740096350946"/>
<polyline points="222.29407310910477 26.1837025955091 243.1367091976556 4.607665094667197 229.24161847195504 18.991690095228485"/>
<polyline points="229.24161847195504 18.991690095228485 232.28350723214518 21.827690151499834"/>
<polyline points="229.24161847195504 18.991690095228485 226.19972971176492 16.155690038957065"/>
<polyline points="229.24161847195504 18.991690095228485 226.19972971176492 16.155690038957065"/>
<polyline points="222.29407310910477 26.1837025955091 215.3465277462545 33.37571509578971"/>
<polyline points="205.3570936232141 37.73172753979896 202.31520486302395 34.895727483527544"/>
<polyline points="199.27331610283386 32.05972742725617 202.31520486302395 34.895727483527544"/>
<polyline points="199.27331610283386 32.05972742725617 196.23142734264374 29.22372737098475"/>
<polyline points="186.6719833504846 20.04485258186264 180.15442811851557 13.701977849011948"/>
<polyline points="173.6368728865466 7.359103116161252 167.11931765457754 1.0162283833105243"/>
<polyline points="173.6368728865466 7.359103116161252 167.11931765457754 1.0162283833105243"/>
<polyline points="153.65421705975828 1.865366150740458 146.706671696908 9.057378651021104"/>
<polyline points="139.75912633405775 16.249391151301708 148.88479261462814 24.757391320115886 142.80101509424787 19.08539120757313"/>
<polyline points="128.90592436854735 33.46941620813438 121.95837900569707 40.66142870841502"/>
<polyline points="121.95837900569707 40.66142870841502 115.01083364284683 47.853441208695656"/>
<polyline points="141.93724725177785 31.94940382039654 144.97913601196802 34.785403876667885"/>
<polyline points="144.97913601196802 34.785403876667885 148.0210247721581 37.62140393293928"/>
<polyline points="148.0210247721581 37.62140393293928 151.06291353234826 40.457403989210675"/>
<polyline points="147.15725692968815 50.48541654576271 140.20971156683788 57.67742904604333"/>
<polyline points="138.89535849158773 29.113403764125135 159.73799458013852 7.537366263283259 145.84290385443796 21.921391263844527"/>
<polyline points="151.92668137481826 27.593391376387256 154.96857013500838 30.429391432658655"/>
<polyline points="154.96857013500838 30.429391432658655 158.01045889519855 33.265391488930035"/>
<polyline points="162.7798833403286 10.37336631955464 169.7274287031789 3.181353819274013"/>
<polyline points="169.7274287031789 3.181353819274013 176.67497406602916 -4.010658681006669"/>
<polyline points="162.7798833403286 10.37336631955464 169.7274287031789 3.181353819274013"/>
<polyline points="179.71686282621926 -1.174658624735251 182.75875158640946 1.661341431536091"/>
<polyline points="148.8847926146281 24.7573913201159 139.75912633405767 16.24939115130175 145.84290385443796 21.921391263844527"/>
<polyline points="159.7379945801385 7.537366263283259 166.68553994298875 0.3453537630026131"/>
<polyline points="166.68553994298875 0.3453537630026131 173.63308530583902 -6.846658737278052"/>
<polyline points="146.70667169690796 9.057378651021105 143.66478293671778 6.221378594749742"/>
<polyline points="143.66478293671778 6.221378594749742 140.62289417652764 3.385378538478381"/>
<polyline points="146.70667169690796 9.057378651021105 143.66478293671778 6.221378594749742"/>
<polyline points="147.57043953937787 -3.8066339618022633 154.51798490222814 -10.99864646208289"/>
<polyline points="154.51798490222814 -10.99864646208289 147.57043953937787 -3.8066339618022633"/>
<polyline points="152.79044921728823 14.729378763563844 155.83233797747837 17.565378819835242"/>
<polyline points="152.79044921728823 14.729378763563844 155.83233797747837 17.565378819835242"/>
<polyline points="152.79044921728823 14.729378763563844 159.7379945801385 7.537366263283259"/>
<polyline points="169.7274287031789 3.1813538192739754 172.76931746336905 6.017353875545357"/>
<polyline points="175.8112062235592 8.853353931816736 172.76931746336905 6.017353875545357"/>
<polyline points="175.8112062235592 8.853353931816736 178.8530949837493 11.689353988088156"/>
<polyline points="175.37742851197046 8.182479311508805 168.8598732800014 1.8396045786580748"/>
<polyline points="162.3423180480324 -4.503270154192616 155.82476281606336 -10.84614488704331"/>
<polyline points="162.3423180480324 -4.503270154192616 155.82476281606336 -10.84614488704331"/>
<polyline points="156.25475294694468 -24.381032120174666 163.20229830979486 -31.57304462045527"/>
<polyline points="170.1498436726451 -38.76505712073592 189.70250936855214 -19.73643292218386 176.66739890461415 -32.42218238788524"/>
<polyline points="182.75117642499447 -26.75018227534248 185.79306518518464 -23.91418221907107"/>
<polyline points="185.79306518518464 -23.91418221907107 188.83495394537474 -21.07818216279968"/>
<polyline points="192.74439812874235 -16.90043286591244 199.26195336071137 -10.557558133061749"/>
<polyline points="199.26195336071137 -10.557558133061749 205.77950859268043 -4.214683400211094"/>
<polyline points="192.74439812874235 -16.90043286591244 199.26195336071137 -10.557558133061749"/>
<polyline points="208.8213973528705 -1.3786833439396393 211.86328611306067 1.4573167123317414"/>
<polyline points="211.86328611306067 1.4573167123317414 208.8213973528705 -1.3786833439396393"/>
<polyline points="211.86328611306067 1.4573167123317414 214.90517487325084 4.2933167686031215"/>
<polyline points="179.70928766480432 -29.586182331613827 173.1917324328353 -35.929057064464544"/>
<polyline points="186.2268428967733 -23.24330759876313 192.74439812874235 -16.90043286591244"/>
<polyline points="202.30384212090155 -7.721558076790369 205.34573088109167 -4.885558020518951"/>
<polyline points="208.38761964128187 -2.0495579642476094 205.34573088109167 -4.885558020518951"/>
<polyline points="208.38761964128187 -2.0495579642476094 211.42950840147194 0.7864420920238092"/>
<polyline points="221.41894252451246 -3.569570351985494 228.36648788736264 -10.7615828522661"/>
<polyline points="235.31403325021287 -17.953595352546742 242.26157861306316 -25.14560785282742"/>
<polyline points="235.31403325021287 -17.953595352546742 242.26157861306316 -25.14560785282742"/>
<polyline points="255.7266792078824 -25.99474562025734 262.2442344398515 -19.651870887406684"/>
<polyline points="262.2442344398515 -19.651870887406684 255.7266792078824 -25.99474562025734"/>
<polyline points="189.70250936855214 -19.73643292218386 196.22006460052117 -13.39355818933313"/>
<polyline points="196.22006460052117 -13.39355818933313 202.73761983249022 -7.0506834564824725"/>
<polyline points="183.18495413658312 -26.07930765503453 163.63228844067606 -45.10793185358663 176.66739890461415 -32.42218238788524"/>
<polyline points="162.77230817891365 -18.038157387323935 155.82476281606338 -10.846144887043293"/>
<polyline points="155.82476281606338 -10.846144887043293 148.87721745321315 -3.6541323867626656"/>
<polyline points="169.71985354176388 -25.2301698876046 190.56248963031456 -46.806207388446474 176.66739890461415 -32.42218238788524"/>
<polyline points="169.71985354176388 -25.2301698876046 162.77230817891365 -18.038157387323935"/>
<polyline points="170.5836213842338 -38.094182500428026 167.54173262404368 -40.93018255669942"/>
<polyline points="167.54173262404368 -40.93018255669942 164.49984386385353 -43.766182612970816"/>
<polyline points="173.62551014442397 -35.2581824441566 182.7511764249944 -26.750182275342443 176.66739890461415 -32.42218238788524"/>
<polyline points="163.63228844067606 -45.10793185358663 157.1147332087071 -51.450806586437324"/>
<polyline points="157.1147332087071 -51.450806586437324 150.59717797673807 -57.79368131928801"/>
<polyline points="170.1498436726451 -38.76505712073592 189.70250936855214 -19.73643292218386 176.66739890461415 -32.42218238788524"/>
<polyline points="170.1498436726451 -38.76505712073592 163.63228844067606 -45.10793185358663"/>
<polyline points="170.1498436726451 -38.76505712073592 163.63228844067606 -45.10793185358663"/>
<polyline points="150.16718784585683 -44.25879408615668 143.21964248300657 -37.06678158587603"/>
<polyline points="176.66739890461415 -32.42218238788524 197.51003499316488 -53.99821988872713 183.61494426746435 -39.61419488816585"/>
<polyline points="170.57983380352633 -52.299944353867225 164.06227857155733 -58.642819086717964"/>
<polyline points="164.06227857155733 -58.642819086717964 157.5447233395883 -64.98569381956862"/>
<polyline points="190.9924797611959 -60.34109462157779 197.9400251240462 -67.53310712185846"/>
<polyline points="197.9400251240462 -67.53310712185846 204.8875704868964 -74.72511962213908"/>
<polyline points="190.9924797611959 -60.34109462157779 197.9400251240462 -67.53310712185846"/>
<polyline points="198.37001525492735 -81.06799435498978 191.85246002295835 -87.41086908784048"/>
<polyline points="191.85246002295835 -87.41086908784048 198.37001525492735 -81.06799435498978"/>
<polyline points="177.09738903549538 -45.957069621016565 170.1498436726451 -38.76505712073592"/>
<polyline points="177.09738903549538 -45.957069621016565 170.1498436726451 -38.76505712073592"/>
<polyline points="177.09738903549538 -45.957069621016565 170.57983380352633 -52.299944353867225"/>
<polyline points="157.1147332087071 -51.450806586437324 150.16718784585683 -44.25879408615668"/>
<polyline points="143.21964248300657 -37.06678158587603 150.16718784585683 -44.25879408615668"/>
<polyline points="143.21964248300657 -37.06678158587603 136.27209712015633 -29.874769085595407"/>
<polyline points="126.28266299711595 -25.51875664158616 123.2407742369258 -28.354756697857564"/>
<polyline points="120.19888547673561 -31.190756754128934 117.15699671654549 -34.02675681040035"/>
<polyline points="120.19888547673561 -31.190756754128934 117.15699671654549 -34.02675681040035"/>
<polyline points="107.5975527243863 -43.20563159952246 101.0799974924173 -49.54850633237312"/>
<polyline points="94.5624422604483 -55.89138106522381 103.68810854101876 -47.38338089640967 97.60433102063845 -53.05538100895245"/>
<polyline points="83.70924029493794 -38.6713560083912 76.76169493208768 -31.479343508110553"/>
<polyline points="76.76169493208768 -31.479343508110553 69.81414956923743 -24.28733100782993"/>
<polyline points="96.74056317816849 -40.19136839612906 99.78245193835865 -37.3553683398577"/>
<polyline points="99.78245193835865 -37.3553683398577 102.82434069854877 -34.519368283586296"/>
<polyline points="96.74056317816849 -40.19136839612906 99.78245193835865 -37.3553683398577"/>
<polyline points="95.87679533569849 -27.327355783305663 88.92924997284827 -20.135343283025033"/>
<polyline points="88.92924997284827 -20.135343283025033 95.87679533569849 -27.327355783305663"/>
<polyline points="88.92924997284827 -20.135343283025033 81.98170460999803 -12.943330782744416"/>
<polyline points="90.6567856577882 -45.86336850867182 87.61489689759804 -48.699368564943164"/>
<polyline points="93.69867441797837 -43.02736845240045 96.74056317816849 -40.19136839612906"/>
<polyline points="92.83490657550841 -30.163355839577054 85.88736121265815 -22.971343339296407"/>
<polyline points="78.93981584980789 -15.779330839015792 85.88736121265815 -22.971343339296407"/>
<polyline points="78.93981584980789 -15.779330839015792 71.99227048695764 -8.587318338735155"/>
<polyline points="58.527169892138346 -7.738180571305212 52.009614660169326 -14.081055304155909"/>
<polyline points="45.49205942820031 -20.423930037006617 38.97450419623128 -26.76680476985732"/>
<polyline points="45.49205942820031 -20.423930037006617 38.97450419623128 -26.76680476985732"/>
<polyline points="35.49883772445242 -30.273679446436667 38.540726484642576 -27.437679390165272"/>
<polyline points="41.58261524483271 -24.601679333893912 38.540726484642576 -27.437679390165272"/>
<polyline points="41.58261524483271 -24.601679333893912 44.62450400502287 -21.765679277622528"/>
<polyline points="40.718847402362755 -11.737666721070537 33.771302039512484 -4.545654220789905"/>
<polyline points="97.60433102063845 -53.05538100895245 106.72999730120891 -44.54738084013833 100.64621978082863 -50.21938095268108"/>
<polyline points="86.75112905512809 -35.835355952119805 79.80358369227783 -28.643343451839158"/>
<polyline points="79.80358369227783 -28.643343451839158 72.85603832942758 -21.451330951558532"/>
<polyline points="99.78245193835866 -37.35536833985771 102.82434069854882 -34.51936828358635"/>
<polyline points="102.82434069854882 -34.51936828358635 105.86622945873897 -31.683368227314944"/>
<polyline points="99.78245193835866 -37.35536833985771 102.82434069854882 -34.51936828358635"/>
<polyline points="98.91868409588872 -24.491355727034314 91.97113873303849 -17.299343226753653"/>
<polyline points="91.97113873303849 -17.299343226753653 98.91868409588872 -24.491355727034314"/>
<polyline points="93.69867441797837 -43.02736845240045 90.6567856577882 -45.86336850867182"/>
<polyline points="93.69867441797837 -43.02736845240045 90.6567856577882 -45.86336850867182"/>
<polyline points="93.69867441797837 -43.02736845240045 86.75112905512809 -35.835355952119805"/>
<polyline points="76.76169493208768 -31.479343508110553 73.71980617189753 -34.31534356438191"/>
<polyline points="70.67791741170734 -37.15134362065328 73.71980617189753 -34.31534356438191"/>
<polyline points="70.67791741170734 -37.15134362065328 67.63602865151722 -39.98734367692465"/>
<polyline points="58.07658465935806 -49.16621846604674 51.55902942738904 -55.50909319889745"/>
<polyline points="45.041474195420044 -61.85196793174815 38.523918963451024 -68.19484266459884"/>
<polyline points="45.041474195420044 -61.85196793174815 38.523918963451024 -68.19484266459884"/>
<polyline points="25.058818368631744 -67.34570489716891 18.111273005781502 -60.15369239688828"/>
<polyline points="11.16372764293125 -52.96167989660765 30.716393338838277 -33.93305569805551 17.681282874900262 -46.618805163756946"/>
<polyline points="11.597505354519953 -52.290805276299686 8.555616594329804 -55.12680533257103"/>
<polyline points="8.555616594329804 -55.12680533257103 5.513727834139639 -57.96280538884242"/>
<polyline points="27.67450457864814 -36.76905575432688 34.19205981061714 -30.426181021476143"/>
<polyline points="34.19205981061714 -30.426181021476143 40.70961504258615 -24.083306288625437"/>
<polyline points="27.67450457864814 -36.76905575432688 34.19205981061714 -30.426181021476143"/>
<polyline points="37.66772628239599 -26.91930634489681 34.62583752220584 -29.755306401168177"/>
<polyline points="34.62583752220584 -29.755306401168177 37.66772628239599 -26.91930634489681"/>
<polyline points="34.62583752220584 -29.755306401168177 31.583948762015694 -32.591306457439565"/>
<polyline points="14.639394114710111 -49.45480522002829 8.121838882741105 -55.79767995287902"/>
<polyline points="21.156949346679117 -43.111930487177574 27.67450457864814 -36.76905575432688"/>
<polyline points="31.150171050426987 -33.262181077747535 28.108282290236843 -36.098181134018894"/>
<polyline points="25.06639353004668 -38.934181190290275 28.108282290236843 -36.098181134018894"/>
<polyline points="25.06639353004668 -38.934181190290275 22.024504769856534 -41.770181246561634"/>
<polyline points="12.035070646816122 -37.41416880255238 5.087525283965849 -30.22215630227177"/>
<polyline points="-1.8600200788844228 -23.030143801991162 -8.807565441734676 -15.83813130171053"/>
<polyline points="-1.8600200788844228 -23.030143801991162 -8.807565441734676 -15.83813130171053"/>
<polyline points="-9.237555572615939 -2.3032440685791937 -2.720000340646927 4.039630664271524"/>
<polyline points="3.797554891322076 10.382505397122246 10.315110123291086 16.72538012997296"/>
<polyline points="3.797554891322076 10.382505397122246 10.315110123291086 16.72538012997296"/>
<polyline points="13.790776595069952 20.232254806552316 10.748887834879831 17.396254750280956"/>
<polyline points="17.681282874900262 -46.618805163756946 37.233948570807286 -27.590180965204787 24.198838106869278 -40.27593043090623"/>
<polyline points="18.115060586488962 -45.94793054344896 15.073171826298815 -48.78393059972032"/>
<polyline points="15.073171826298815 -48.78393059972032 12.031283066108655 -51.61993065599171"/>
<polyline points="34.192059810617145 -30.42618102147614 40.70961504258616 -24.083306288625426"/>
<polyline points="40.70961504258616 -24.083306288625426 47.22717027455518 -17.740431555774702"/>
<polyline points="34.192059810617145 -30.42618102147614 40.70961504258616 -24.083306288625426"/>
<polyline points="44.18528151436503 -20.57643161204607 41.14339275417489 -23.41243166831744"/>
<polyline points="41.14339275417489 -23.41243166831744 44.18528151436502 -20.57643161204606"/>
<polyline points="21.156949346679117 -43.111930487177574 14.639394114710113 -49.4548052200283"/>
<polyline points="21.156949346679117 -43.111930487177574 14.639394114710113 -49.4548052200283"/>
<polyline points="21.156949346679117 -43.111930487177574 18.115060586488962 -45.94793054344896"/>
<polyline points="8.555616594329813 -55.126805332571045 2.038061362360804 -61.46968006542176"/>
<polyline points="-4.479493869608204 -67.81255479827249 2.038061362360799 -61.469680065421755"/>
<polyline points="-4.479493869608204 -67.81255479827249 -10.997049101577213 -74.1554295311232"/>
<polyline points="-24.46214969639648 -73.30629176369327 -31.40969505924673 -66.11427926341266"/>
<polyline points="-38.35724042209698 -58.92226676313202 -45.304785784947235 -51.73025426285137"/>
<polyline points="-38.35724042209698 -58.92226676313202 -45.304785784947235 -51.73025426285137"/>
<polyline points="-55.294219907987646 -47.37424181884213 -58.33610866817779 -50.210241875113475"/>
<polyline points="-61.37799742836797 -53.046241931384856 -40.535361339817214 -74.62227943222675 -54.43045206551772 -60.23825443166548"/>
<polyline points="-67.46556252945572 -72.92400389736694 -73.98311776142472 -79.26687863021765"/>
<polyline points="-73.98311776142472 -79.26687863021765 -80.50067299339372 -85.60975336306836"/>
<polyline points="-47.05291657178617 -80.96515416507742 -40.105371208935885 -88.15716666535805"/>
<polyline points="-40.105371208935885 -88.15716666535805 -33.157825846085615 -95.34917916563865"/>
<polyline points="-47.05291657178617 -80.96515416507742 -40.105371208935885 -88.15716666535805"/>
<polyline points="-39.67538107805461 -101.69205389848939 -46.192936310023605 -108.03492863134012"/>
<polyline points="-46.192936310023605 -108.03492863134012 -39.67538107805462 -101.69205389848939"/>
<polyline points="-46.192936310023605 -108.03492863134012 -52.71049154199261 -114.37780336419085"/>
<polyline points="-60.948007297486726 -66.5811291645162 -67.89555266033699 -59.38911666423559"/>
<polyline points="-54.000461934636455 -73.77314166479682 -47.05291657178617 -80.96515416507742"/>
<polyline points="-46.622926440904884 -94.50004139820878 -53.14048167287386 -100.84291613105951"/>
<polyline points="-59.658036904842895 -107.18579086391023 -53.14048167287386 -100.84291613105951"/>
<polyline points="-59.658036904842895 -107.18579086391023 -66.17559213681187 -113.5286655967609"/>
<polyline points="-75.73503612897105 -122.70754038588305 -78.7769248891612 -125.5435404421544"/>
<polyline points="-81.81881364935134 -128.37954049842577 -84.86070240954155 -131.21554055469716"/>
<polyline points="-81.81881364935134 -128.37954049842577 -84.86070240954155 -131.21554055469716"/>
<polyline points="-80.9550458068814 -141.2435531112491 -74.00750044403115 -148.4355656115297"/>
<polyline points="-67.05995508118085 -155.62757811181038 -64.0180663209907 -152.791578055539"/>
<polyline points="-64.0180663209907 -152.791578055539 -60.97617756080051 -149.9555779992676"/>
<polyline points="-64.45184403257933 -153.46245267584695 -70.96939926454836 -159.80532740869768"/>
<polyline points="-70.96939926454836 -159.80532740869768 -64.45184403257933 -153.46245267584695"/>
<polyline points="-64.0180663209907 -152.791578055539 -60.97617756080051 -149.9555779992676"/>
<polyline points="-64.45184403257933 -153.46245267584695 -70.96939926454836 -159.80532740869768"/>
<polyline points="-70.96939926454836 -159.80532740869768 -64.45184403257933 -153.46245267584695"/>
<polyline points="-40.53536133981715 -74.6222794322267 -33.58781597696688 -81.81429193250733"/>
<polyline points="-33.58781597696688 -81.81429193250733 -26.640270614116606 -89.00630443278794"/>
<polyline points="-47.482906702667435 -67.4302669319461 -68.32554279121825 -45.854229431104265 -54.43045206551772 -60.23825443166548"/>
<polyline points="-48.3466745451374 -54.56625431912275 -45.304785784947235 -51.73025426285137"/>
<polyline points="-45.304785784947235 -51.73025426285137 -42.262897024757095 -48.89425420658002"/>
<polyline points="-51.388563305327544 -57.4022543753941 -60.514229585898036 -65.91025454420823 -54.43045206551771 -60.23825443166549 -57.472340825707875 -63.07425448793684"/>
<polyline points="-41.39534160157972 -47.55250496596405 -34.87778636961073 -41.20963023311331"/>
<polyline points="-34.87778636961072 -41.20963023311332 -28.360231137641726 -34.866755500262585"/>
<polyline points="-47.91289683354873 -53.89537969881476 -67.46556252945572 -72.92400389736692 -54.430452065517734 -60.238254431665474"/>
<polyline points="-68.32554279121827 -45.854229431104216 -75.27308815406857 -38.662216930823625"/>
<polyline points="-75.27308815406857 -38.662216930823625 -82.22063351691885 -31.470204430543006"/>
<polyline points="-61.37799742836801 -53.046241931384856 -40.53536133981717 -74.62227943222668 -61.37799742836801 -53.046241931384856"/>
<polyline points="-60.51422958589805 -65.91025454420821 -63.55611834608818 -68.74625460047957"/>
<polyline points="-63.55611834608818 -68.74625460047957 -66.59800710627833 -71.58225465675096"/>
<polyline points="-57.472340825707875 -63.07425448793684 -48.34667454513743 -54.566254319122706 -54.430452065517734 -60.238254431665474"/>
<polyline points="-67.46556252945572 -72.92400389736694 -73.98311776142471 -79.26687863021765"/>
<polyline points="-73.98311776142471 -79.26687863021766 -80.5006729933937 -85.6097533630684"/>
<polyline points="-60.94800729748672 -66.58112916451621 -41.39534160157975 -47.552504965964 -54.43045206551772 -60.23825443166548 -47.48290670266744 -67.43026693194608"/>
<polyline points="-54.43045206551772 -60.23825443166548 -61.377997428368005 -53.04624193138487"/>
<polyline points="-54.43045206551772 -60.23825443166548 -61.377997428368005 -53.04624193138487"/>
<polyline points="-60.9480072974867 -66.58112916451623 -67.46556252945571 -72.92400389736696"/>
<polyline points="-80.93066312427497 -72.07486612993706 -87.87820848712524 -64.88285362965645"/>
<polyline points="-94.8257538499755 -57.69084112937583 -87.87820848712524 -64.88285362965645"/>
<polyline points="-94.8257538499755 -57.69084112937583 -101.77329921282579 -50.49882862909525"/>
<polyline points="-111.76273333586623 -46.142816185086026 -114.80462209605638 -48.97881624135736"/>
<polyline points="-117.84651085624654 -51.81481629762873 -120.88839961643666 -54.65081635390013"/>
<polyline points="-117.84651085624654 -51.81481629762873 -120.88839961643666 -54.65081635390013"/>
<polyline points="-130.44784360859583 -63.82969114302221 -136.96539884056477 -70.17256587587302"/>
<polyline points="-143.4829540725338 -76.5154406087237 -122.64031798398295 -98.09147810956556 -136.53540870968348 -83.70745310900435"/>
<polyline points="-149.57051917362145 -96.39320257470584 -156.08807440559045 -102.73607730755658"/>
<polyline points="-156.08807440559045 -102.73607730755658 -162.60562963755942 -109.07895204040733"/>
<polyline points="-129.15787321595198 -104.4343528424163 -122.21032785310167 -111.6263653426969"/>
<polyline points="-122.21032785310167 -111.6263653426969 -115.26278249025144 -118.8183778429775"/>
<polyline points="-115.26278249025144 -118.8183778429775 -108.31523712740112 -126.01039034325814"/>
<polyline points="-107.88524699651978 -139.54527757638945 -114.40280222848878 -145.8881523092402"/>
<polyline points="-136.1054185788022 -97.24234034213568 -116.55275288289528 -78.21371614358341 -129.58786334683322 -90.8994656092849"/>
<polyline points="-115.69277262113262 -105.28349060984613 -108.74522725828238 -112.47550311012667"/>
<polyline points="-108.74522725828238 -112.47550311012667 -101.79768189543209 -119.66751561040732"/>
<polyline points="-109.60520752004497 -85.40572864386402 -103.08765228807601 -79.06285391101325"/>
<polyline points="-103.08765228807601 -79.06285391101325 -96.57009705610704 -72.71997917816249"/>
<polyline points="-130.01785347771457 -77.3645783761536 -136.96539884056486 -70.17256587587302"/>
<polyline points="-136.96539884056486 -70.17256587587302 -143.91294420341515 -62.98055337559239"/>
<polyline points="-123.07030811486426 -84.55659087643414 -102.2276720263134 -106.13262837727594 -116.12276275201397 -91.74860337671475"/>
<polyline points="-110.03898523163369 -86.07660326417201 -106.99709647144353 -83.24060320790066"/>
<polyline points="-106.99709647144353 -83.24060320790066 -103.95520771125338 -80.40460315162926"/>
<polyline points="-113.08087399182382 -88.91260332044341 -122.20654027239428 -97.4206034892575 -116.12276275201397 -91.74860337671475"/>
<polyline points="-116.12276275201397 -91.74860337671475 -122.64031798398294 -98.09147810956551"/>
<polyline points="-116.12276275201397 -91.74860337671475 -109.60520752004498 -85.405728643864"/>
<polyline points="-116.12276275201397 -91.74860337671475 -109.60520752004498 -85.405728643864"/>
<polyline points="-113.08087399182382 -88.91260332044341 -110.03898523163369 -86.07660326417201"/>
<polyline points="-100.47954123947454 -76.89772847504989 -93.9619860075056 -70.55485374219909"/>
<polyline points="-87.44443077553662 -64.21197900934837 -93.9619860075056 -70.55485374219909"/>
<polyline points="-87.44443077553662 -64.21197900934837 -80.92687554356762 -57.8691042764976"/>
<polyline points="-81.35686567444897 -44.33421704336629 -88.30441103729926 -37.142204543085676"/>
<polyline points="-95.25195640014954 -29.950192042805106 -102.19950176299987 -22.758179542524513"/>
<polyline points="-95.25195640014954 -29.950192042805106 -102.19950176299987 -22.758179542524513"/>
<polyline points="-106.10515836566 -12.730166985972561 -103.06326960546984 -9.89416692970118"/>
<polyline points="-100.02138084527974 -7.058166873429781 -119.57404654118668 -26.086791071982034 -106.53893607724869 -13.401041606280566"/>
<polyline points="-100.45515855686844 -7.729041493737861 -97.41326979667832 -4.893041437466499"/>
<polyline points="-97.41326979667832 -4.893041437466499 -94.37138103648817 -2.0570413811951545"/>
<polyline points="-116.53215778099653 -23.2507910157107 -123.0497130129655 -29.593665748561474"/>
<polyline points="-123.0497130129655 -29.593665748561474 -129.56726824493447 -35.93654048141219"/>
<polyline points="-129.56726824493447 -35.93654048141219 -136.08482347690344 -42.279415214262926"/>
<polyline points="-139.56048994868235 -45.78628989084238 -136.51860118849217 -42.95028983457103"/>
<polyline points="-110.01460254902759 -16.907916282859937 -119.14026882959791 -25.415916451673986 -113.05649130921765 -19.74391633913132"/>
<polyline points="-126.09160177315563 -32.429665804832794 -132.60915700512462 -38.772540537683575"/>
<polyline points="-132.60915700512462 -38.772540537683575 -139.1267122370936 -45.11541527053431"/>
<polyline points="-125.6578240615669 -31.758791184524757 -128.69971282175703 -34.59479124079612"/>
<polyline points="-128.69971282175703 -34.59479124079612 -131.74160158194718 -37.430791297067486"/>
<polyline points="-125.6578240615669 -31.758791184524757 -128.69971282175703 -34.59479124079612"/>
<polyline points="-138.25915681391615 -43.773666029918225 -144.77671204588512 -50.11654076276897"/>
<polyline points="-119.57404654118668 -26.08679107198205 -100.02138084527977 -7.058166873429741 -113.05649130921768 -19.7439163391313"/>
<polyline points="-119.14026882959791 -25.415916451673986 -122.18215758978808 -28.251916507945346"/>
<polyline points="-122.18215758978808 -28.251916507945346 -125.22404634997822 -31.087916564216698"/>
<polyline points="-103.06326960546988 -9.894166929701086 -96.54571437350089 -3.551292196850338"/>
<polyline points="-96.54571437350089 -3.551292196850338 -90.02815914153196 2.791582536000468"/>
<polyline points="-103.06326960546988 -9.894166929701086 -96.54571437350089 -3.551292196850338"/>
<polyline points="-93.07004790172203 -0.0444175202708952 -96.1119366619122 -2.8804175765422575"/>
<polyline points="-96.1119366619122 -2.8804175765422575 -93.07004790172203 -0.0444175202708952"/>
<polyline points="-116.09838006940781 -22.57991639540264 -122.61593530137678 -28.922791128253426"/>
<polyline points="-116.09838006940781 -22.57991639540264 -122.61593530137678 -28.922791128253426"/>
<polyline points="-116.09838006940781 -22.57991639540264 -119.14026882959791 -25.415916451673986"/>
<polyline points="-128.69971282175703 -34.59479124079612 -135.21726805372603 -40.9376659736469"/>
<polyline points="-141.734823285695 -47.280540706497646 -135.21726805372603 -40.9376659736469"/>
<polyline points="-141.734823285695 -47.280540706497646 -148.25237851766397 -53.623415439348435"/>
<polyline points="-161.71747911248326 -52.77427767191859 -168.6650244753335 -45.582265171638"/>
<polyline points="-175.61256983818382 -38.39025267135745 -182.56011520103414 -31.198240171076865"/>
<polyline points="-175.61256983818382 -38.39025267135745 -182.56011520103414 -31.198240171076865"/>
<polyline points="-192.54954932407463 -26.842227727067563 -195.59143808426467 -29.678227783338908"/>
<polyline points="-198.6333268444549 -32.51422783961024 -177.79069075590397 -54.09026534045204 -191.68578148160464 -39.70624033989082"/>
<polyline points="-204.7208919455426 -52.391989805592395 -211.23844717751155 -58.73486453844317"/>
<polyline points="-211.23844717751155 -58.73486453844317 -217.75600240948054 -65.07773927129391"/>
<polyline points="-184.30824598787297 -60.43314007330281 -177.36070062502264 -67.62515257358338"/>
<polyline points="-177.36070062502264 -67.62515257358338 -170.41315526217235 -74.81716507386403"/>
<polyline points="-184.30824598787297 -60.43314007330281 -177.36070062502264 -67.62515257358338"/>
<polyline points="-176.93071049414132 -81.16003980671476 -183.44826572611024 -87.5029145395656"/>
<polyline points="-183.44826572611024 -87.5029145395656 -176.93071049414132 -81.16003980671476"/>
<polyline points="-183.44826572611024 -87.5029145395656 -189.96582095807926 -93.84578927241634"/>
<polyline points="-198.20333671357355 -46.04911507274167 -205.15088207642387 -38.85710257246102"/>
<polyline points="-191.25579135072329 -53.24112757302223 -184.30824598787297 -60.43314007330281"/>
<polyline points="-183.87825585699161 -73.96802730643421 -190.39581108896058 -80.31090203928497"/>
<polyline points="-196.91336632092955 -86.65377677213573 -190.39581108896058 -80.31090203928497"/>
<polyline points="-196.91336632092955 -86.65377677213573 -203.4309215528985 -92.9966515049865"/>
<polyline points="-212.99036554505759 -102.17552629410864 -216.03225430524773 -105.01152635037991"/>
<polyline points="-219.0741430654378 -107.84752640665131 -222.11603182562789 -110.68352646292264"/>
<polyline points="-219.0741430654378 -107.84752640665131 -222.11603182562789 -110.68352646292264"/>
<polyline points="-218.21037522296777 -120.71153901947446 -211.26282986011745 -127.90355151975503"/>
<polyline points="-211.26282986011745 -127.90355151975503 -218.21037522296777 -120.71153901947446"/>
<polyline points="-177.79069075590397 -54.09026534045204 -170.8431453930537 -61.282277840732654"/>
<polyline points="-170.8431453930537 -61.282277840732654 -163.8956000302034 -68.47429034101324"/>
<polyline points="-184.73823611875432 -46.898252840171466 -205.58087220730522 -25.32221533932964 -191.68578148160464 -39.70624033989082"/>
<polyline points="-185.60200396122434 -34.034240227348164 -182.56011520103414 -31.198240171076865"/>
<polyline points="-182.56011520103414 -31.198240171076865 -179.51822644084402 -28.36224011480552"/>
<polyline points="-188.6438927214144 -36.870240283619516 -197.7695590019849 -45.3782404524335 -191.68578148160464 -39.70624033989082"/>
<polyline points="-188.6438927214144 -36.870240283619516 -185.60200396122434 -34.034240227348164"/>
<polyline points="-178.6506710176666 -27.020490874189324 -172.13311578569767 -20.677616141338557"/>
<polyline points="-172.13311578569767 -20.677616141338557 -165.6155605537287 -14.334741408487766"/>
<polyline points="-185.16822624963564 -33.36336560704009 -204.72089194554255 -52.39198980559243 -191.68578148160464 -39.70624033989082"/>
<polyline points="-205.58087220730522 -25.32221533932964 -212.52841757015545 -18.13020283904907"/>
<polyline points="-212.52841757015545 -18.13020283904907 -219.47596293300577 -10.938190338768496"/>
<polyline points="-198.6333268444549 -32.51422783961024 -177.79069075590397 -54.09026534045204 -191.68578148160464 -39.70624033989082"/>
<polyline points="-198.6333268444549 -32.51422783961024 -205.58087220730522 -25.32221533932964"/>
<polyline points="-198.6333268444549 -32.51422783961024 -205.58087220730522 -25.32221533932964"/>
<polyline points="-209.48652880996534 -15.294202782777726 -206.44464004977516 -12.45820272650642"/>
<polyline points="-191.68578148160464 -39.70624033989082 -200.811447762175 -48.21424050870489 -194.7276702417947 -42.542240396162164"/>
<polyline points="-208.62276096749528 -28.158215395601054 -215.57030633034557 -20.96620289532041"/>
<polyline points="-215.57030633034557 -20.96620289532041 -222.5178516931959 -13.7741903950398"/>
<polyline points="-207.75899312502528 -41.022228008424314 -210.80088188521543 -43.858228064695595"/>
<polyline points="-210.80088188521543 -43.858228064695595 -213.84277064540555 -46.694228120966926"/>
<polyline points="-207.75899312502528 -41.022228008424314 -210.80088188521543 -43.858228064695595"/>
<polyline points="-220.7903160082559 -39.50221562068632 -227.73786137110622 -32.31020312040579"/>
<polyline points="-227.73786137110622 -32.31020312040579 -220.7903160082559 -39.50221562068632"/>
<polyline points="-201.675215604645 -35.35022789588162 -198.6333268444549 -32.51422783961024"/>
<polyline points="-201.675215604645 -35.35022789588162 -198.6333268444549 -32.51422783961024"/>
<polyline points="-201.675215604645 -35.35022789588162 -208.62276096749528 -28.158215395601054"/>
<polyline points="-212.52841757015545 -18.130202839049108 -209.48652880996534 -15.294202782777726"/>
<polyline points="-206.4446400497752 -12.45820272650638 -209.48652880996534 -15.294202782777726"/>
<polyline points="-206.4446400497752 -12.45820272650638 -203.4027512895851 -9.622202670235072"/>
<polyline points="-193.84330729742587 -0.4433278811130011 -187.32575206545698 5.899546851737843"/>
<polyline points="-180.808196833488 12.242421584588612 -174.290641601519 18.58529631743936"/>
<polyline points="-180.808196833488 12.242421584588612 -174.290641601519 18.58529631743936"/>
<polyline points="-174.7206317324003 32.12018355057072 -181.66817709525063 39.31219605085131"/>
<polyline points="-188.61572245810092 46.50420855113186 -208.16838815400783 27.475584352579517 -195.13327769006992 40.16133381828111"/>
<polyline points="-189.04950016968974 45.83333393082387 -186.0076114094996 48.66933398709518"/>
<polyline points="-186.0076114094996 48.66933398709518 -182.9657226493095 51.50533404336662"/>
<polyline points="-205.12649939381777 30.311584408850972 -211.6440546257867 23.968709676000135"/>
<polyline points="-211.6440546257867 23.968709676000135 -218.16160985775565 17.625834943149364"/>
<polyline points="-205.12649939381777 30.311584408850972 -211.6440546257867 23.968709676000135"/>
<polyline points="-215.11972109756553 20.46183499942074 -212.07783233737553 23.29783505569213"/>
<polyline points="-212.07783233737553 23.29783505569213 -215.11972109756553 20.46183499942074"/>
<polyline points="-212.07783233737553 23.29783505569213 -209.03594357718535 26.133835111963513"/>
<polyline points="-192.0913889298798 42.99733387455252 -185.57383369791083 49.34020860740327"/>
<polyline points="-198.6089441618488 36.654459141701714 -205.12649939381777 30.311584408850972"/>
<polyline points="-208.60216586559665 26.804709732271554 -205.5602771054065 29.6407097885429"/>
<polyline points="-202.5183883452164 32.47670984481424 -205.5602771054065 29.6407097885429"/>
<polyline points="-202.5183883452164 32.47670984481424 -199.4764995850263 35.31270990108559"/>
<polyline points="-203.38215618768643 45.34072245763753 -210.32970155053675 52.532734957918166"/>
<polyline points="-217.27724691338707 59.72474745819875 -224.22479227623737 66.91675995847932"/>
<polyline points="-217.27724691338707 59.72474745819875 -224.22479227623737 66.91675995847932"/>
<polyline points="-237.68989287105663 67.76589772590914 -244.20744810302568 61.423022993058396"/>
<polyline points="-250.72500333499462 55.080148260207636 -244.20744810302568 61.423022993058396"/>
<polyline points="-250.72500333499462 55.080148260207636 -257.24255856696357 48.73727352735679"/>
<polyline points="-260.7182250387424 45.230398850777334 -257.67633627855236 48.06639890704868"/>
<polyline points="-195.13327769006992 40.16133381828111 -214.68594338597683 21.13270961972875 -201.65083292203897 33.818459085430405"/>
<polyline points="-195.56705540165865 39.49045919797308 -192.5251666414686 42.326459254244476"/>
<polyline points="-192.5251666414686 42.326459254244476 -189.48327788127847 45.162459310515835"/>
<polyline points="-211.6440546257867 23.968709676000135 -218.16160985775565 17.625834943149364"/>
<polyline points="-218.16160985775565 17.625834943149364 -224.6791650897247 11.2829602102986"/>
<polyline points="-211.6440546257867 23.968709676000135 -218.16160985775565 17.625834943149364"/>
<polyline points="-221.63727632953461 14.118960266570014 -218.5953875693445 16.954960322841398"/>
<polyline points="-218.5953875693445 16.954960322841398 -221.63727632953461 14.118960266570014"/>
<polyline points="-198.6089441618488 36.654459141701714 -192.0913889298798 42.99733387455252"/>
<polyline points="-198.6089441618488 36.654459141701714 -192.0913889298798 42.99733387455252"/>
<polyline points="-198.6089441618488 36.654459141701714 -195.56705540165865 39.49045919797308"/>
<polyline points="-186.0076114094996 48.66933398709518 -179.49005617753062 55.01220871994597"/>
<polyline points="-172.97250094556162 61.35508345279678 -179.49005617753062 55.01220871994597"/>
<polyline points="-172.97250094556162 61.35508345279678 -166.45494571359268 67.69795818564755"/>
<polyline points="-166.884935844474 81.23284541877892 -173.83248120732426 88.42485791905946"/>
<polyline points="-180.7800265701746 95.61687041934007 -187.72757193302488 102.80888291962063"/>
<polyline points="-180.7800265701746 95.61687041934007 -187.72757193302488 102.80888291962063"/>
<polyline points="-191.63322853568508 112.83689547617259 -188.59133977549496 115.67289553244389"/>
<polyline points="-185.54945101530484 118.50889558871533 -164.70681492675394 96.93285808787356 -178.60190565245458 111.31688308843476"/>
<polyline points="-165.56679518851655 124.00263255413626 -159.04923995654767 130.34550728698707"/>
<polyline points="-159.04923995654767 130.34550728698707 -152.53168472457867 136.6883820198378"/>
<polyline points="-158.18925969478497 103.27573282072434 -151.24171433193465 96.08372032044376"/>
<polyline points="-151.24171433193465 96.08372032044376 -144.29416896908435 88.89170782016319"/>
<polyline points="-158.18925969478497 103.27573282072434 -151.24171433193465 96.08372032044376"/>
<polyline points="-137.77661373711538 95.23458255301395 -131.25905850514644 101.57745728586477"/>
<polyline points="-131.25905850514644 101.57745728586477 -137.77661373711538 95.23458255301395"/>
<polyline points="-131.25905850514644 101.57745728586477 -124.74150327317739 107.92033201871551"/>
<polyline points="-172.08435042048558 117.65975782128552 -179.03189578333587 124.85177032156611"/>
<polyline points="-165.13680505763526 110.46774532100493 -158.18925969478497 103.27573282072434"/>
<polyline points="-144.72415909996568 102.42659505329456 -138.20660386799673 108.76946978614534"/>
<polyline points="-131.68904863602774 115.11234451899611 -138.20660386799673 108.76946978614534"/>
<polyline points="-131.68904863602774 115.11234451899611 -125.17149340405872 121.45521925184686"/>
<polyline points="-115.61204941189968 130.63409404096896 -112.57016065170959 133.47009409724035"/>
<polyline points="-109.52827189151945 136.30609415351168 -106.48638313132938 139.14209420978304"/>
<polyline points="-109.52827189151945 136.30609415351168 -106.48638313132938 139.14209420978304"/>
<polyline points="-96.49694900828894 134.7860817657738 -89.54940364543862 127.59406926549322"/>
<polyline points="-82.60185828258834 120.40205676521265 -75.65431291973802 113.21004426493205"/>
<polyline points="-82.60185828258834 120.40205676521265 -75.65431291973802 113.21004426493205"/>
<polyline points="-62.18921232491875 112.36090649750224 -55.67165709294978 118.703781230353"/>
<polyline points="-178.60190565245458 111.31688308843476 -157.75926956390362 89.74084558759299 -171.6543602896042 104.12487058815412"/>
<polyline points="-158.61924982566632 116.81062005385571 -152.10169459369735 123.15349478670649"/>
<polyline points="-152.10169459369735 123.15349478670649 -145.58413936172835 129.49636951955725"/>
<polyline points="-151.24171433193465 96.08372032044376 -144.29416896908435 88.89170782016319"/>
<polyline points="-144.29416896908435 88.89170782016319 -137.34662360623406 81.6996953198826"/>
<polyline points="-151.24171433193465 96.08372032044376 -144.29416896908435 88.89170782016319"/>
<polyline points="-130.82906837426506 88.04257005273338 -124.31151314229609 94.38544478558416"/>
<polyline points="-124.31151314229609 94.38544478558416 -130.82906837426506 88.04257005273338"/>
<polyline points="-165.13680505763526 110.46774532100493 -172.08435042048558 117.65975782128552"/>
<polyline points="-165.13680505763526 110.46774532100493 -172.08435042048558 117.65975782128552"/>
<polyline points="-165.13680505763526 110.46774532100493 -158.61924982566632 116.81062005385571"/>
<polyline points="-159.04923995654767 130.34550728698707 -165.9967853193979 137.53751978726766"/>
<polyline points="-172.94433068224825 144.72953228754824 -165.9967853193979 137.53751978726766"/>
<polyline points="-172.94433068224825 144.72953228754824 -179.89187604509857 151.92154478782885"/>
<polyline points="-183.79753264775877 161.94955734438076 -180.75564388756874 164.7855574006521"/>
<polyline points="-177.7137551273786 167.62155745692343 -174.67186636718853 170.4575575131948"/>
<polyline points="-177.7137551273786 167.62155745692343 -174.67186636718853 170.4575575131948"/>
<polyline points="-165.11242237502935 179.63643230231682 -158.59486714306044 185.97930703516766"/>
<polyline points="-152.07731191109144 192.32218176801845 -161.2029781916618 183.81418159920437 -155.1192006712816 189.4861817117471"/>
<polyline points="-169.01429139698217 203.87020671230832 -175.96183675983247 211.06221921258884"/>
<polyline points="-175.96183675983247 211.06221921258884 -182.90938212268273 218.25423171286945"/>
<polyline points="-168.15052355451206 191.00619409948496 -171.19241231470215 188.17019404321366"/>
<polyline points="-171.19241231470215 188.17019404321366 -174.23430107489227 185.3341939869423"/>
<polyline points="-168.15052355451206 191.00619409948496 -171.19241231470215 188.17019404321366"/>
<polyline points="-181.1818464377426 192.5262064872228 -188.12939180059288 199.71821898750343"/>
<polyline points="-188.12939180059288 199.71821898750343 -181.1818464377426 192.5262064872228"/>
<polyline points="-188.12939180059288 199.71821898750343 -195.07693716344318 206.91023148778402"/>
<polyline points="-162.06674603413185 196.67819421202773 -159.02485727394176 199.51419426829904"/>
<polyline points="-165.10863479432194 193.84219415575632 -168.15052355451206 191.00619409948496"/>
<polyline points="-178.13995767755247 195.3622065434942 -185.0875030404028 202.55421904377474"/>
<polyline points="-192.03504840325309 209.74623154405532 -185.0875030404028 202.55421904377474"/>
<polyline points="-192.03504840325309 209.74623154405532 -198.98259376610338 216.9382440443359"/>
<polyline points="-199.41258389698464 230.47313127746722 -192.89502866501576 236.81600601031803"/>
<polyline points="-186.37747343304673 243.15888074316882 -179.8599182010778 249.50175547601958"/>
<polyline points="-186.37747343304673 243.15888074316882 -179.8599182010778 249.50175547601958"/>
<polyline points="-176.3842517292989 253.008630152599 -179.426140489489 250.1726300963278"/>
</svg>