<svg transform="scale(1,-1)" viewBox="-563.1148535400127 -256.77464617741884 1134.093380157767 760.8432032080275" xmlns="http://www.w3.org/2000/svg">
<style>
svg { stroke:black; stroke-width:2; fill:none;}
</style>
<polyline points="567.9785266177541 -98.15720521809273 566.1853282774895 -88.54822969647445"/>
<polyline points="566.1853282774895 -88.54822969647529 559.1788427616004 -94.93346758746564"/>
<polyline points="559.1788427616004 -94.93346758746564 559.3724174103746 -86.45033304387135"/>
<polyline points="559.3724174103746 -86.45033304387135 549.8615946514068 -89.51540777473035"/>
<polyline points="549.8615946514068 -89.51540777473035 551.5909222149824 -99.00965674369294"/>
<polyline points="551.5909222149824 -99.00965674369294 552.4557780344082 -93.1328242040627"/>
<polyline points="552.4557780344082 -93.1328242040627 554.1851055979838 -102.62707317302527"/>
<polyline points="554.1851055979838 -102.62707317302527 559.4991183111746 -98.8760102621984"/>
<polyline points="559.4991183111746 -98.8760102621984 561.1889708571238 -94.00490458909567"/>
<polyline points="561.1889708571238 -94.00490458909567 554.4219672713477 -89.86340226401472"/>
<polyline points="554.4219672713477 -89.86340226401472 559.061789524435 -84.60100490152354"/>
<polyline points="559.061789524435 -84.60100490152354 550.6213623358187 -79.34620390229297"/>
<polyline points="550.6213623358187 -79.34620390229297 549.5033963474422 -89.27991649527152"/>
<polyline points="549.5033963474422 -89.27991649527152 545.9855784182035 -80.28627158796664"/>
<polyline points="545.9855784182035 -80.28627158796664 544.2477682865011 -90.05156136896196"/>
<polyline points="544.2477682865011 -90.05156136896196 537.955123073396 -83.52022067526639"/>
<polyline points="537.955123073396 -83.52022067526639 546.3274827594543 -78.7367014379272"/>
<polyline points="546.3274827594543 -78.7367014379272 538.6883161934319 -85.11910512860754"/>
<polyline points="538.6883161934319 -85.11910512860754 539.8106010659925 -77.7325219973247"/>
<polyline points="539.8106010659925 -77.7325219973247 537.1427909695694 -81.1997923190718"/>
<polyline points="537.1427909695694 -81.1997923190718 539.3523967292953 -90.90121279299397"/>
<polyline points="539.3523967292953 -90.90121279299397 529.685701151478 -90.06388317919294"/>
<polyline points="529.685701151478 -90.06388317919294 530.2806675388975 -80.13353184014119"/>
<polyline points="530.2806675388975 -80.13353184014119 537.6363483225133 -86.62416730814496"/>
<polyline points="537.6363483225133 -86.62416730814496 540.9764570128999 -94.38520007181988"/>
<polyline points="537.6363483225133 -86.62416730814496 540.9764570128999 -94.38520007181988"/>
<polyline points="540.9764570128999 -94.38520007181988 541.2639956479354 -104.36103362973353"/>
<polyline points="541.2639956479354 -104.36103362973353 534.700103812255 -106.25756334528673 514.7339489055378 -105.24117157004696 505.8720506287381 -109.67032715964444 496.295400654707 -109.19055867034136 475.7029039641026 -103.82909222083885"/>
<polyline points="475.7029039641026 -103.82909222083885 469.19341631481444 -108.95389603798739 451.08740958438415 -110.65833423142506 444.57792193509596 -115.7831380485736 436.8101982116559 -115.93524200497664 424.4642740584648 -108.18668111453914"/>
<polyline points="424.4642740584648 -108.18668111453914 421.75638860336966 -112.53178214024364"/>
<polyline points="424.4642740584648 -108.18668111453914 421.75638860336966 -112.53178214024364"/>
<polyline points="424.4642740584648 -108.18668111453914 418.13929894650187 -110.11785364619791"/>
<polyline points="418.13929894650187 -110.11785364619791 408.8936771597833 -113.7072792879032"/>
<polyline points="436.8101982116559 -115.93524200497664 430.4852230996929 -117.86641453663542 415.5197161088068 -106.56723211171871 412.1094422744194 -99.7178251045876 405.8614658700352 -92.21440543354795 395.3374269380004 -64.70817084235755"/>
<polyline points="395.3374269380004 -64.70817084235755 395.57742809877175 -55.58648828407156 386.346068253201 -38.50249745920073 386.5860694139724 -29.38081490091475 383.27220841511496 -19.95199213952106 379.2138067127504 6.6542082873998885"/>
<polyline points="379.2138067127504 6.6542082873998885 386.4155549910198 13.41377225568065"/>
<polyline points="379.2138067127504 6.6542082873998885 382.85516409022 15.950212458362554"/>
<polyline points="383.27220841511496 -19.95199213952106 382.4788019714456 -10.002422078596041"/>
<polyline points="383.27220841511496 -19.95199213952106 382.4788019714456 -10.002422078596041"/>
<polyline points="395.3374269380004 -64.70817084235755 391.2238856959793 -56.172480583291"/>
<polyline points="391.2238856959793 -56.172480583291 381.8128873974285 -52.8707777787629"/>
<polyline points="391.2238856959793 -56.172480583291 381.8128873974285 -52.8707777787629"/>
<polyline points="381.8128873974285 -52.8707777787629 374.07785205191215 -50.874099975713015"/>
<polyline points="405.8614658700352 -92.21440543354795 401.7479246280141 -83.67871517448134 384.86068188630196 -74.88130466632182 380.1640057910551 -68.30367818906547 372.0175654941162 -65.49886290876172 351.6987740539506 -70.70373420948027"/>
<polyline points="351.6987740539506 -70.70373420948027 349.238978992363 -67.15696252269441 335.28761815128064 -61.73042514546027 332.8278230896931 -58.18365345867438 326.45359062921835 -57.752973934258215 311.38184805921935 -71.41692606299527"/>
<polyline points="311.38184805921935 -71.41692606299527 311.51333636628607 -71.91366652910092"/>
<polyline points="311.38184805921935 -71.41692606299527 311.51333636628607 -71.91366652910092"/>
<polyline points="311.38184805921935 -71.41692606299527 307.18893104575403 -71.16249630344926"/>
<polyline points="307.18893104575403 -71.16249630344926 301.69548117797467 -64.9170552256376"/>
<polyline points="326.45359062921835 -57.752973934258215 322.26067361575303 -57.49854417471227 303.3827172949967 -61.61216181433638 296.51375046778963 -68.11264449167412 287.03684152062004 -71.29449169949648 262.66677143896834 -81.49365823334765"/>
<polyline points="262.66677143896834 -81.49365823334765 257.50906767162627 -90.01654749420011 240.00864564207274 -99.63999886454249 234.85094187473072 -108.162888125395 226.69102605634885 -113.0745411913615 208.2657601683637 -121.66978741709927"/>
<polyline points="208.2657601683637 -121.66978741709927 210.2030274013558 -130.61893398638628"/>
<polyline points="208.2657601683637 -121.66978741709927 205.85216265811343 -130.0310777682891"/>
<polyline points="226.69102605634885 -113.0745411913615 220.28089519531605 -119.72461038896864"/>
<polyline points="262.66677143896834 -81.49365823334765 254.31388257754045 -86.99175815979547"/>
<polyline points="303.3827172949967 -61.61216181433638 296.2194012719566 -62.10065571961072"/>
<polyline points="296.2194012719566 -62.10065571961072 291.2189369068224 -53.64251107703616"/>
<polyline points="322.26067361575303 -57.49854417471227 315.09735759271297 -57.98703807998663"/>
<polyline points="326.45359062921835 -57.752973934258215 322.26067361575303 -57.49854417471227"/>
<polyline points="351.6987740539506 -70.70373420948027 345.3009442095217 -67.28284803930141"/>
<polyline points="345.3009442095217 -67.28284803930141 335.3276392160947 -66.59115862064372"/>
<polyline points="345.3009442095217 -67.28284803930141 335.3276392160947 -66.59115862064372"/>
<polyline points="335.3276392160947 -66.59115862064372 328.3052138832121 -59.473858937194414"/>
<polyline points="372.0175654941162 -65.49886290876172 365.6197356496873 -62.07797673858285 346.0315250359398 -65.7119913832037 338.5298560080549 -71.04641515284435 329.2978776113736 -74.82247712279091 309.3974183471817 -92.30346621587283"/>
<polyline points="309.3974183471817 -92.30346621587283 304.6072234782011 -100.94840635282452 287.93969463552406 -111.9456179545272 283.1494997665435 -120.59055809147885 276.03723752391033 -127.12422063281407 263.9156210063538 -145.66103848097333"/>
<polyline points="263.9156210063538 -145.66103848097333 262.8261522805625 -155.49384392798916"/>
<polyline points="263.9156210063538 -145.66103848097333 262.8261522805625 -155.49384392798916"/>
<polyline points="263.9156210063538 -145.66103848097333 258.6895893671941 -153.9108878850496"/>
<polyline points="258.6895893671941 -153.9108878850496 250.6169705534711 -158.76404484853649"/>
<polyline points="276.03723752391033 -127.12422063281407 270.8112058847506 -135.37407003689032 254.1160219459803 -137.1142345558953 249.63379551394186 -138.85366043713378 241.97591767952105 -137.36774600512445 225.06827181787816 -118.80880875207818"/>
<polyline points="225.06827181787816 -118.80880875207818 223.4604946061105 -116.677669909851 210.86683226152465 -112.2475898507143 209.25905504975705 -110.11645100848718 203.89319484881412 -105.51532941255532 192.99710783885084 -80.30074616793438"/>
<polyline points="192.99710783885084 -80.30074616793438 198.53443258398505 -76.23136353039334"/>
<polyline points="192.99710783885084 -80.30074616793438 194.43078154729488 -74.64196219022833"/>
<polyline points="203.89319484881412 -105.51532941255532 200.8724840532848 -100.34961703258354"/>
<polyline points="203.89319484881412 -105.51532941255532 200.8724840532848 -100.34961703258354"/>
<polyline points="225.06827181787816 -118.80880875207818 219.31110435192386 -117.1370589648654"/>
<polyline points="219.31110435192386 -117.1370589648654 209.36624292127206 -116.41755608818447"/>
<polyline points="219.31110435192386 -117.1370589648654 209.36624292127206 -116.41755608818447"/>
<polyline points="209.36624292127206 -116.41755608818447 201.77373905737733 -121.47040701539164"/>
<polyline points="241.97591767952105 -137.36774600512445 236.21875021356672 -135.6959962179117 217.409953866054 -128.93040159943294 210.9650020013256 -121.33210752647588 202.08888176594388 -117.22836715800352 182.20363040281936 -107.16285898831369"/>
<polyline points="182.20363040281936 -107.16285898831369 178.43109187187088 -98.43363419412054 162.7991132982696 -87.43189975952794 159.02657476732105 -78.70267496533484 152.25295212928646 -73.58004441555015 139.37153849340703 -66.97918714268373"/>
<polyline points="139.37153849340703 -66.97918714268373 138.98486274162408 -59.353377989331705"/>
<polyline points="139.37153849340703 -66.97918714268373 138.98486274162408 -59.353377989331705"/>
<polyline points="139.37153849340703 -66.97918714268373 134.6698450441988 -60.454554749264354"/>
<polyline points="134.6698450441988 -60.454554749264354 127.54876624347855 -53.467334612167974"/>
<polyline points="152.25295212928646 -73.58004441555015 147.55125868007826 -67.05541202213081 129.8391125383039 -68.94496080731965 124.45919148318625 -71.46761908972644 115.97179259693662 -74.91686789672838 95.54604364086033 -96.70829982589052"/>
<polyline points="95.54604364086033 -96.70829982589052 92.55262771157295 -103.34180323301521 77.83777687586411 -113.10334555173655 74.84436094657666 -119.73684895886133 68.24168481730334 -126.55358464187506 53.713998758327385 -152.4822516781319"/>
<polyline points="53.713998758327385 -152.4822516781319 61.01732020463022 -157.33141313559295"/>
<polyline points="53.713998758327385 -152.4822516781319 53.60357127443871 -161.70579410476404"/>
<polyline points="77.83777687586411 -113.10334555173655 71.23335259569616 -113.68979945053755"/>
<polyline points="115.97179259693662 -74.91686789672838 109.12550264491426 -79.71319389866368"/>
<polyline points="152.25295212928646 -73.58004441555015 147.55125868007826 -67.05541202213081"/>
<polyline points="162.7991132982696 -87.43189975952794 155.16440212741847 -81.35986493708377"/>
<polyline points="202.08888176594388 -117.22836715800352 194.65550766009164 -111.00751303787659"/>
<polyline points="236.21875021356672 -135.6959962179117 228.04209122204645 -133.35152146211618"/>
<polyline points="254.1160219459803 -137.1142345558953 246.70399323381736 -142.75023862069557"/>
<polyline points="246.70399323381736 -142.75023862069557 239.3283184965546 -140.4954847628117"/>
<polyline points="270.8112058847506 -135.37407003689032 263.3991771725877 -141.01007410169052"/>
<polyline points="276.03723752391033 -127.12422063281407 270.8112058847506 -135.37407003689032"/>
<polyline points="309.3974183471817 -92.30346621587283 301.3106081672857 -98.17960489581523"/>
<polyline points="301.3106081672857 -98.17960489581523 291.88159191014745 -96.31896719626599"/>
<polyline points="301.3106081672857 -98.17960489581523 291.88159191014745 -96.31896719626599"/>
<polyline points="291.88159191014745 -96.31896719626599 282.88100188803134 -95.3230701509028"/>
<polyline points="329.2978776113736 -74.82247712279091 321.2110674314777 -80.69861580273324 304.1623473521509 -78.98759170223548 298.58862757279104 -81.32575750610548 291.5033930874063 -78.89806263841663 281.30200703596574 -60.86020030188037"/>
<polyline points="281.30200703596574 -60.86020030188037 279.7446082978621 -61.14178903188587 268.4183117483377 -56.72517170242955 266.8609130102341 -57.00676043243508 262.9778215078341 -52.94942272051696 261.19480459202276 -30.101585267852766"/>
<polyline points="261.19480459202276 -30.101585267852766 263.89445744290106 -28.006337893789517"/>
<polyline points="261.19480459202276 -30.101585267852766 263.89445744290106 -28.006337893789517"/>
<polyline points="261.19480459202276 -30.101585267852766 259.60457344992244 -26.71122897797554"/>
<polyline points="259.60457344992244 -26.71122897797554 253.40813292456153 -28.436807176076417"/>
<polyline points="262.9778215078341 -52.94942272051696 261.3875903657337 -49.55906643063966 248.09294613362124 -35.98105321801716 245.78987039927569 -26.51399194628386 239.05432035172794 -19.14675901384767 219.1017577467357 -1.0530112122210142"/>
<polyline points="219.1017577467357 -1.0530112122210142 218.1962209678839 8.60245612134884 207.05120663365912 25.154242567210588 206.1456698548073 34.80970990078041 200.53142840207838 42.44797104352375 183.15596774595176 54.92246243951322"/>
<polyline points="183.15596774595176 54.92246243951322 187.83202371941223 60.95590099966724"/>
<polyline points="183.15596774595176 54.92246243951322 183.59278406674133 62.40486121263214"/>
<polyline points="200.53142840207838 42.44797104352375 197.01326910684372 50.591601168997805"/>
<polyline points="200.53142840207838 42.44797104352375 197.01326910684372 50.591601168997805"/>
<polyline points="219.1017577467357 -1.0530112122210142 214.29897716147485 7.708435162747693"/>
<polyline points="214.29897716147485 7.708435162747693 204.95984140866778 10.083863679589738"/>
<polyline points="214.29897716147485 7.708435162747693 204.95984140866778 10.083863679589738"/>
<polyline points="204.95984140866778 10.083863679589738 200.3149586790016 15.634507154308544"/>
<polyline points="239.05432035172794 -19.14675901384767 234.25153976646706 -10.38531263887897 214.55589023531832 -6.910641339163648 206.01220644587468 -5.363227697934469 196.0580436264622 -6.14100016218995 171.3072600632427 -23.087712235157912"/>
<polyline points="171.3072600632427 -23.087712235157912 164.28132998043105 -25.927759348062427 145.10023336837224 -29.646302652736285 138.07430328556055 -32.48634976564075 129.25662549709196 -36.804236214830354 111.35059037978672 -60.8531165098433"/>
<polyline points="111.35059037978672 -60.8531165098433 107.37873621706572 -67.5174055085313"/>
<polyline points="111.35059037978672 -60.8531165098433 107.37873621706572 -67.5174055085313"/>
<polyline points="111.35059037978672 -60.8531165098433 103.85556577858272 -66.23800126135583"/>
<polyline points="103.85556577858272 -66.23800126135583 94.88144187322095 -64.71432045514088"/>
<polyline points="129.25662549709196 -36.804236214830354 121.76160089588798 -42.18912096634287 104.80534649030837 -48.09903350218058 99.61544746019023 -55.0001794577004 92.44522690855887 -57.36453910609592 80.94563918684229 -55.67281734909681"/>
<polyline points="80.94563918684229 -55.67281734909681 79.59021281532128 -61.60595673125209 68.16706890078551 -67.92605971118934 66.81164252926455 -73.85919909334459 62.70169679438335 -75.53169524763676 59.08418348858826 -67.83302315987696"/>
<polyline points="59.08418348858826 -67.83302315987696 65.22910046568174 -72.32013335594817"/>
<polyline points="59.08418348858826 -67.83302315987696 61.73185596943989 -71.170707319238"/>
<polyline points="62.70169679438335 -75.53169524763676 60.954279706347414 -78.11269466245271"/>
<polyline points="80.94563918684229 -55.67281734909681 75.5660254026374 -59.70330803851468"/>
<polyline points="104.80534649030837 -48.09903350218058 95.91464673003568 -52.648932282787996"/>
<polyline points="95.91464673003568 -52.648932282787996 89.81420445196916 -44.76339091466369"/>
<polyline points="121.76160089588798 -42.18912096634287 112.87090113561533 -46.7390197469503"/>
<polyline points="129.25662549709196 -36.804236214830354 121.76160089588798 -42.18912096634287"/>
<polyline points="171.3072600632427 -23.087712235157912 161.88074102263022 -24.570668416960277"/>
<polyline points="161.88074102263022 -24.570668416960277 153.2867806265596 -23.603350569260876"/>
<polyline points="161.88074102263022 -24.570668416960277 153.2867806265596 -23.603350569260876"/>
<polyline points="153.2867806265596 -23.603350569260876 145.1700636616654 -17.76276697598883"/>
<polyline points="196.0580436264622 -6.14100016218995 186.63152458584975 -7.6239563439923 170.3682355766252 -10.999884171357765 163.9975561939013 -17.389769771726442 157.6320004154939 -19.61454375150428 152.14819282945612 -23.792849553454484"/>
<polyline points="152.14819282945612 -23.792849553454484 150.12728474022725 -31.33519154548753 139.86609896563593 -38.709391668105354 137.8451908764071 -46.25173366013841 134.93890517243582 -49.50056747966261 139.00682011973126 -50.856319557918994"/>
<polyline points="139.00682011973126 -50.856319557918994 141.7677952304082 -57.553587676225334"/>
<polyline points="139.00682011973126 -50.856319557918994 141.7677952304082 -57.553587676225334"/>
<polyline points="139.00682011973126 -50.856319557918994 138.05160777450845 -55.770731191737994"/>
<polyline points="138.05160777450845 -55.770731191737994 131.2784740955148 -61.42533749863355"/>
<polyline points="134.93890517243582 -49.50056747966261 133.98369282721302 -54.41497911348161 124.95056386136048 -48.463248896589505 125.40475949758547 -44.17979101715067 121.08740904963233 -38.87657635563986 107.89541586376787 -13.650676678124343"/>
<polyline points="107.89541586376787 -13.650676678124343 109.95405581464182 -5.893560179512959 104.18759438665879 7.263696352891483 106.24623433753268 15.020812851502923 103.2518743104005 23.194276757456347 91.2427617424164 50.685212068579176"/>
<polyline points="91.2427617424164 50.685212068579176 97.76331522439249 58.25648332937256"/>
<polyline points="91.2427617424164 50.685212068579176 94.14189913190285 60.14527230429337"/>
<polyline points="103.2518743104005 23.194276757456347 102.47297736840468 32.32971161305758"/>
<polyline points="103.2518743104005 23.194276757456347 102.47297736840468 32.32971161305758"/>
<polyline points="107.89541586376787 -13.650676678124343 105.87712125939947 -7.15933510238009"/>
<polyline points="105.87712125939947 -7.15933510238009 97.5231478211361 -5.838892650034363"/>
<polyline points="105.87712125939947 -7.15933510238009 97.5231478211361 -5.838892650034363"/>
<polyline points="97.5231478211361 -5.838892650034363 94.38662697659406 -6.97545928130964"/>
<polyline points="121.08740904963233 -38.87657635563986 119.06911444526392 -32.38523477989564 101.25708994973411 -26.168060168978418 93.77042117279963 -19.541692107937543 84.05761941398792 -17.41358751018245 55.49150757112431 -21.640953040159214"/>
<polyline points="55.49150757112431 -21.640953040159214 48.24846628752902 -16.690681165391588 29.03193996306153 -11.389921155694774 21.78889867946624 -6.439649280927175 12.192112675265582 -5.582144720962836 -11.969360535284236 -16.594319158899232"/>
<polyline points="-11.969360535284236 -16.594319158899232 -17.41787786219578 -14.711367096909298"/>
<polyline points="-11.969360535284236 -16.594319158899232 -17.41787786219578 -14.711367096909298"/>
<polyline points="-11.969360535284236 -16.594319158899232 -20.523990413404952 -15.122330354543124"/>
<polyline points="-20.523990413404952 -15.122330354543124 -28.466329535686857 -9.057900169036945"/>
<polyline points="12.192112675265582 -5.582144720962836 3.637482797144907 -4.110155916606745 -14.688485763800236 -10.791232780996763 -21.88814404858761 -17.65340046014351 -29.72764920126512 -22.612994475776503 -41.48569066403699 -40.745176652687114"/>
<polyline points="-41.48569066403699 -40.745176652687114 -44.87133578345788 -50.1266388511172 -58.3192774187472 -63.19908059108895 -61.704922538168056 -72.58054278951904 -66.52841791447464 -79.67385406048294 -69.05577203365897 -96.85775572723416"/>
<polyline points="-69.05577203365897 -96.85775572723416 -63.37687744308407 -103.85746765231728"/>
<polyline points="-69.05577203365897 -96.85775572723416 -67.9110169449069 -106.45205726755766"/>
<polyline points="-41.48569066403699 -40.745176652687114 -48.138158967065024 -47.72852453739967"/>
<polyline points="3.637482797144907 -4.110155916606745 -6.160324900805128 -4.4623128707570805"/>
<polyline points="84.05761941398792 -17.41358751018245 74.75468382027728 -13.91121029977678"/>
<polyline points="101.25708994973411 -26.168060168978418 95.80690737272982 -20.81026857544869"/>
<polyline points="124.95056386136048 -48.463248896589505 121.95628248131287 -50.344174013049795"/>
<polyline points="134.93890517243582 -49.50056747966261 133.98369282721302 -54.41497911348161"/>
<polyline points="157.6320004154939 -19.61454375150428 152.47555415197607 -24.12553042482168"/>
<polyline points="170.3682355766252 -10.999884171357765 160.49439369130135 -12.41857321540221"/>
<polyline points="196.0580436264622 -6.14100016218995 186.63152458584975 -7.6239563439923"/>
<polyline points="234.25153976646706 -10.38531263887897 226.59189742532368 -3.956958702246457"/>
<polyline points="248.09294613362124 -35.98105321801716 243.75936618574096 -30.8803233069019"/>
<polyline points="243.75936618574096 -30.8803233069019 235.25641592262602 -36.02761401796435"/>
<polyline points="261.3875903657337 -49.55906643063966 257.0540104178535 -44.45833651952438"/>
<polyline points="262.9778215078341 -52.94942272051696 261.3875903657337 -49.55906643063966"/>
<polyline points="281.30200703596574 -60.86020030188037 275.8857824198131 -59.495155814596636"/>
<polyline points="275.8857824198131 -59.495155814596636 266.89458527146 -55.291861997574095"/>
<polyline points="275.8857824198131 -59.495155814596636 266.89458527146 -55.291861997574095"/>
<polyline points="266.89458527146 -55.291861997574095 257.63382330980374 -58.016523617812766"/>
<polyline points="291.5033930874063 -78.89806263841663 286.0871684712536 -77.53301815113294 271.1585939440174 -64.6130652064862 267.9489141029506 -55.724473139722555 261.45822286539374 -48.13479996626409 248.62017063421493 -25.94455229846105"/>
<polyline points="248.62017063421493 -25.94455229846105 248.653779245374 -15.947262153249248 238.8220249855848 1.367713625949334 238.85563359674384 11.365003771161165 234.97200860350787 19.964351488816714 227.87426166281423 38.219718532994264"/>
<polyline points="227.87426166281423 38.219718532994264 230.92823851331661 46.92289340603686"/>
<polyline points="227.87426166281423 38.219718532994264 230.92823851331661 46.92289340603686"/>
<polyline points="227.87426166281423 38.219718532994264 226.485579109467 47.452051771086026"/>
<polyline points="226.485579109467 47.452051771086026 222.43919538676514 56.10974405952459"/>
<polyline points="234.97200860350787 19.964351488816714 233.58332605016068 29.196684726908487 217.32815132485283 36.89773125711072 212.13992839027773 39.0406319218049 203.37439603419614 40.39495110242062 176.65583063031843 29.83699142488362"/>
<polyline points="176.65583063031843 29.83699142488362 172.039753616937 27.117495739046493 155.6566505036776 26.843321589107493 151.04057349029628 24.12382590327033 142.68908520635452 21.554669732896613 119.26638261268428 3.1331955235558935"/>
<polyline points="119.26638261268428 3.1331955235558935 120.53936709118962 -4.301106294418458"/>
<polyline points="119.26638261268428 3.1331955235558935 116.08392502869098 -3.8215700594531006"/>
<polyline points="142.68908520635452 21.554669732896613 135.89528031641495 17.20142060781237"/>
<polyline points="142.68908520635452 21.554669732896613 135.89528031641495 17.20142060781237"/>
<polyline points="176.65583063031843 29.83699142488362 169.03904502353555 29.807060475046843"/>
<polyline points="169.03904502353555 29.807060475046843 159.93484228096617 33.88092316931797"/>
<polyline points="169.03904502353555 29.807060475046843 159.93484228096617 33.88092316931797"/>
<polyline points="159.93484228096617 33.88092316931797 154.6243573969977 41.182218766645"/>
<polyline points="203.37439603419614 40.39495110242062 195.75761042741328 40.36502015258386 176.33374246014085 43.57054777085115 167.19877139252995 40.03526926159786 158.2011587744223 41.18544315292093 141.30697966846716 45.686928718307364"/>
<polyline points="141.30697966846716 45.686928718307364 134.9203475204498 40.5712324008538 117.92859836027989 39.743248775416596 111.54196621226255 34.62755245796305 104.6692973841019 34.43811721156443 96.83410999085866 39.58793676048431"/>
<polyline points="96.83410999085866 39.58793676048431 94.66185010022984 34.359809851137456"/>
<polyline points="96.83410999085866 39.58793676048431 94.66185010022984 34.359809851137456"/>
<polyline points="96.83410999085866 39.58793676048431 91.29241383967238 37.30712039489035"/>
<polyline points="91.29241383967238 37.30712039489035 81.88221187683374 34.652797269976084"/>
<polyline points="104.6692973841019 34.43811721156443 99.12760123291558 32.15730084597047 86.7901497194275 43.94517637889414 85.15472011645701 50.112468943212114 80.28338002991669 57.880755164171354 72.89898704334493 86.95337714772984"/>
<polyline points="72.89898704334493 86.95337714772984 74.86340027970553 95.28119077920933 68.66634823807095 112.41423868397591 70.63076147443157 120.74205231545538 68.67467953947946 130.3341191533898 66.58734616919594 158.89583590040885"/>
<polyline points="66.58734616919594 158.89583590040885 74.76570894720096 164.4784788452177"/>
<polyline points="66.58734616919594 158.89583590040885 71.48032671119181 167.5254567441271"/>
<polyline points="68.67467953947946 130.3341191533898 69.30029720771002 140.10808873813565"/>
<polyline points="72.89898704334493 86.95337714772984 70.39341618222718 95.33728563835743"/>
<polyline points="86.7901497194275 43.94517637889414 80.12650748945757 45.15262865928066"/>
<polyline points="80.12650748945757 45.15262865928066 71.57226263919462 45.0234679622317"/>
<polyline points="99.12760123291558 32.15730084597047 92.46395900294566 33.364753126356995"/>
<polyline points="104.6692973841019 34.43811721156443 99.12760123291558 32.15730084597047"/>
<polyline points="141.30697966846716 45.686928718307364 132.7099222332122 44.38653532009883"/>
<polyline points="132.7099222332122 44.38653532009883 125.12243800066022 50.71771147215698"/>
<polyline points="132.7099222332122 44.38653532009883 125.12243800066022 50.71771147215698"/>
<polyline points="125.12243800066022 50.71771147215698 115.5305533535686 51.70931165647166"/>
<polyline points="158.2011587744223 41.18544315292093 149.60410133916727 39.88504975471243 137.32838493408232 53.732704084574934 134.31793017349776 59.35050593740459 130.25530540598567 67.79239967606202 130.73494964185113 97.6628746819178"/>
<polyline points="130.73494964185113 97.6628746819178 132.4233257873366 104.51789853843172 127.72426595387824 121.85391561154613 129.41264209936375 128.70893946806007 129.13569309084377 138.2143100316869 137.50396976270096 166.84195967765868"/>
<polyline points="137.50396976270096 166.84195967765868 143.39941684989503 173.49490911790025"/>
<polyline points="137.50396976270096 166.84195967765868 143.39941684989503 173.49490911790025"/>
<polyline points="137.50396976270096 166.84195967765868 139.57550308905152 175.7644490790363"/>
<polyline points="139.57550308905152 175.7644490790363 135.9861700244801 181.80323049261438"/>
<polyline points="129.13569309084377 138.2143100316869 131.20722641719433 147.13679943306448 123.078095912394 164.92144358592319 123.22577693353789 173.5255749201392 118.3611111369009 181.17413979625397 98.4995701534817 191.475263115752"/>
<polyline points="98.4995701534817 191.475263115752 98.46687883158235 196.6308291194047 90.38470399784313 210.65875610608995 90.35201267594381 215.81432210974262 85.35711295038769 220.76506513649446 64.4418029772463 221.26626481339076"/>
<polyline points="64.4418029772463 221.26626481339076 67.71363976132619 219.41981297943545"/>
<polyline points="64.4418029772463 221.26626481339076 63.951343730106466 221.75199466580457"/>
<polyline points="85.35711295038769 220.76506513649446 81.93722428053537 224.3836564415986"/>
<polyline points="85.35711295038769 220.76506513649446 81.93722428053537 224.3836564415986"/>
<polyline points="98.4995701534817 191.475263115752 95.34108357445172 198.71991187026458"/>
<polyline points="95.34108357445172 198.71991187026458 87.89326073464903 205.3038822103725"/>
<polyline points="95.34108357445172 198.71991187026458 87.89326073464903 205.3038822103725"/>
<polyline points="87.89326073464903 205.3038822103725 86.71033275868274 215.1659779513383"/>
<polyline points="118.3611111369009 181.17413979625397 115.20262455787096 188.41878855076646 97.45223771032126 197.62703894360752 88.1455618159494 198.35528377715553 78.56082714793727 200.92048779170912 52.54272444197539 197.8837439881157"/>
<polyline points="52.54272444197539 197.8837439881157 43.41951491809228 194.12576326147703 23.549965805241758 195.4783279421236 14.426756281358644 191.72034721548496 4.881984473855244 190.6433932871727 -15.459390762161712 181.45736022884532"/>
<polyline points="-15.459390762161712 181.45736022884532 -22.300216004875647 174.2280659135716"/>
<polyline points="-15.459390762161712 181.45736022884532 -22.300216004875647 174.2280659135716"/>
<polyline points="-15.459390762161712 181.45736022884532 -24.578169409441728 177.92353752222988"/>
<polyline points="-24.578169409441728 177.92353752222988 -34.02513692239712 179.32554394889297"/>
<polyline points="4.881984473855244 190.6433932871727 -4.236794173424772 187.10957058055723 -18.1749419182148 194.84169561894544 -22.52633267342393 195.3539959830481 -27.483712006240822 200.57961894431506 -28.995327945228997 223.91153021106808"/>
<polyline points="-28.995327945228997 223.91153021106808 -28.680131746320747 225.64496458843658 -35.482352051546094 235.36353607599025 -35.167155852637855 237.09697045335878 -36.3821974988221 243.30719434528942 -29.195121365107497 268.65047611246257"/>
<polyline points="-29.195121365107497 268.65047611246257 -22.055775091747915 263.77763335453966"/>
<polyline points="-29.195121365107497 268.65047611246257 -24.360773893669222 271.46196543645783"/>
<polyline points="-35.482352051546094 235.36353607599025 -41.81547060637356 235.97012783434008"/>
<polyline points="-27.483712006240822 200.57961894431506 -30.77508783035642 204.62917972856587"/>
<polyline points="4.881984473855244 190.6433932871727 -4.236794173424772 187.10957058055723"/>
<polyline points="23.549965805241758 195.4783279421236 14.711159842404513 198.51722639685573"/>
<polyline points="78.56082714793727 200.92048779170912 68.56569588080184 201.22891168989398"/>
<polyline points="115.20262455787096 188.41878855076646 109.15404333135554 195.41923847030463"/>
<polyline points="123.078095912394 164.92144358592319 122.28164671413272 174.72383990869034"/>
<polyline points="122.28164671413272 174.72383990869034 113.85979596926651 174.95729322720393"/>
<polyline points="131.20722641719433 147.13679943306448 130.41077721893302 156.93919575583158"/>
<polyline points="129.13569309084377 138.2143100316869 131.20722641719433 147.13679943306448"/>
<polyline points="130.73494964185113 97.6628746819178 128.59019918986428 105.91532066247397"/>
<polyline points="128.59019918986428 105.91532066247397 121.30107142292084 112.64392125841732"/>
<polyline points="128.59019918986428 105.91532066247397 121.30107142292084 112.64392125841732"/>
<polyline points="121.30107142292084 112.64392125841732 113.06220527408097 115.7543027499215"/>
<polyline points="130.25530540598567 67.79239967606202 128.1105549539988 76.04484565661818 117.36863458713152 91.95399339527124 116.90415259863124 101.15651776273553 111.94489701766341 108.13482321156387 98.62648218820318 117.14355715895915"/>
<polyline points="98.62648218820318 117.14355715895915 100.23852922637387 123.65688545546678 93.336579725743 137.3923129692289 94.94862676391368 143.90564126573653 91.68431111842676 148.8139329252465 80.7590798082856 148.50053154889008"/>
<polyline points="80.7590798082856 148.50053154889008 83.79911488846471 150.70944910794492"/>
<polyline points="80.7590798082856 148.50053154889008 83.79911488846471 150.70944910794492"/>
<polyline points="80.7590798082856 148.50053154889008 79.83723639449495 152.78821201397224"/>
<polyline points="79.83723639449495 152.78821201397224 78.44991408697436 161.91256344074742"/>
<polyline points="91.68431111842676 148.8139329252465 90.7624677046361 153.10161339032862 74.06721221250305 158.12140214437454 66.91636873266603 155.90071969518 57.481465610823356 156.80241026616577 28.046175727786416 153.3244213401656"/>
<polyline points="28.046175727786416 153.3244213401656 20.569391208920297 147.54749324855226 1.5556240515526898 145.49142716906454 -5.921160467313414 139.71449907745122 -15.698732079446106 137.6911410017638 -41.695372072480986 131.2251532054571"/>
<polyline points="-41.695372072480986 131.2251532054571 -43.858640518855644 121.49443422337838"/>
<polyline points="-41.695372072480986 131.2251532054571 -47.891446511344554 123.44080898913919"/>
<polyline points="-15.698732079446106 137.6911410017638 -24.656853728826242 133.2488061611433"/>
<polyline points="-15.698732079446106 137.6911410017638 -24.656853728826242 133.2488061611433"/>
<polyline points="28.046175727786416 153.3244213401656 18.852119987719362 151.67774741264924"/>
<polyline points="18.852119987719362 151.67774741264924 11.274315706932727 158.0285825770924"/>
<polyline points="18.852119987719362 151.67774741264924 11.274315706932727 158.0285825770924"/>
<polyline points="11.274315706932727 158.0285825770924 6.14654541709448 161.91390783464615"/>
<polyline points="57.481465610823356 156.80241026616577 48.2874098707564 155.15573633864932 31.85487899871557 166.35368453965145 23.40639390159967 168.4859047718879 16.5702617293188 175.1460216321101 9.4387028811652 200.065816137784"/>
<polyline points="9.4387028811652 200.065816137784 4.4949494977987 202.64935220810617 -8.083238338503737 214.91377292341681 -13.02699172187024 217.4973089937389 -17.119735559591817 224.53616224943147 -14.372770895744425 249.4605907945533"/>
<polyline points="-14.372770895744425 249.4605907945533 -14.602592056041928 252.15110612636258"/>
<polyline points="-14.372770895744425 249.4605907945533 -14.602592056041928 252.15110612636258"/>
<polyline points="-14.372770895744425 249.4605907945533 -17.331344472673514 255.1311917150547"/>
<polyline points="-17.331344472673514 255.1311917150547 -25.863121064638477 258.0030139689451"/>
<polyline points="-17.119735559591817 224.53616224943147 -20.07830913652081 230.2067631699328 -26.257679888361274 249.22762834976353 -24.275949322447797 258.98478352433915 -26.24182341009307 268.4899268759984 -28.472855568625576 290.13476125596617"/>
<polyline points="-28.472855568625576 290.13476125596617 -23.59329035902458 298.42424788835797 -23.869844266774724 317.4483778787574 -18.99027905717372 325.73786451114916 -18.566536101476515 334.16639281841964 -18.667337742982244 348.0789518303956"/>
<polyline points="-18.667337742982244 348.0789518303956 -9.671174581983843 349.89117604025654"/>
<polyline points="-18.667337742982244 348.0789518303956 -12.272173295910935 352.9758758304886"/>
<polyline points="-18.566536101476515 334.16639281841964 -15.713751026178505 341.80706026469437"/>
<polyline points="-28.472855568625576 290.13476125596617 -27.857760866308993 299.79078756017185"/>
<polyline points="-26.257679888361274 249.22762834976353 -29.8933076106109 257.19032605581856"/>
<polyline points="-29.8933076106109 257.19032605581856 -39.557319702591954 256.65979793148995"/>
<polyline points="-20.07830913652081 230.2067631699328 -23.713936858770538 238.16946087598788"/>
<polyline points="-17.119735559591817 224.53616224943147 -20.07830913652081 230.2067631699328"/>
<polyline points="9.4387028811652 200.065816137784 2.8057541720444443 205.43128156171153"/>
<polyline points="2.8057541720444443 205.43128156171153 -2.7226640847298342 213.29902318583757"/>
<polyline points="2.8057541720444443 205.43128156171153 -2.7226640847298342 213.29902318583757"/>
<polyline points="-2.7226640847298342 213.29902318583757 -12.351827165775159 215.5427502210413"/>
<polyline points="16.5702617293188 175.1460216321101 9.937313020198047 180.51148705603765 3.2379987944618116 199.01202960712698 3.849195719156812 208.88268174763593 2.589270319121747 218.2323550091858 8.866548114695277 239.8217073605106"/>
<polyline points="8.866548114695277 239.8217073605106 13.860269378829017 248.47891649234117 15.189864151271093 267.47956905751744 20.18358541540482 276.136778189348 22.497472986413733 284.6185381889534 33.99312404659727 298.7091968277906"/>
<polyline points="33.99312404659727 298.7091968277906 42.066723580284425 304.1252296785954"/>
<polyline points="33.99312404659727 298.7091968277906 42.066723580284425 304.1252296785954"/>
<polyline points="33.99312404659727 298.7091968277906 38.69548549346639 306.5923708583261"/>
<polyline points="38.69548549346639 306.5923708583261 38.64690342382986 316.55707720152344"/>
<polyline points="22.497472986413733 284.6185381889534 27.19983443328281 292.5017122194888 21.213759489195606 304.4327134510788 21.13201726903207 306.77291764022846 16.50201402115373 310.7862401695165 -6.751041511874797 311.3894870787787"/>
<polyline points="-6.751041511874797 311.3894870787787 -8.693068091685301 309.2006452806751 -17.69204929562288 313.63730951728104 -19.634075875433453 311.44846771917753 -25.763435085907684 311.804354112336 -52.110106225233444 305.2296223434664"/>
<polyline points="-52.110106225233444 305.2296223434664 -52.357356525387345 296.7584375012411"/>
<polyline points="-52.110106225233444 305.2296223434664 -55.706079943231245 299.15364156189645"/>
<polyline points="-25.763435085907684 311.804354112336 -31.149996696731904 309.69498507793475"/>
<polyline points="-25.763435085907684 311.804354112336 -31.149996696731904 309.69498507793475"/>
<polyline points="-6.751041511874797 311.3894870787787 -10.472274765441789 313.2876300806388"/>
<polyline points="-10.472274765441789 313.2876300806388 -15.97226056587144 320.9827627671085"/>
<polyline points="-10.472274765441789 313.2876300806388 -15.97226056587144 320.9827627671085"/>
<polyline points="-15.97226056587144 320.9827627671085 -15.068444358218647 328.74162072169423"/>
<polyline points="16.50201402115373 310.7862401695165 12.780780767586776 312.6843831713765 -2.3537436543248034 324.7490946200242 -12.063198208971839 326.1007114989508 -20.168540422831587 331.9576210398511 -40.19888700902003 348.581165334496"/>
<polyline points="-40.19888700902003 348.581165334496 -49.84782281240658 348.1634133683222 -67.54799495956803 357.1649563038049 -77.19693076295447 356.747204337631 -85.37245036101602 361.1692138219446 -99.38062838133698 375.2894096763844"/>
<polyline points="-99.38062838133698 375.2894096763844 -106.63953832294132 373.47177082337276"/>
<polyline points="-99.38062838133698 375.2894096763844 -106.63953832294132 373.47177082337276"/>
<polyline points="-99.38062838133698 375.2894096763844 -107.78971775617367 377.4661028569863"/>
<polyline points="-107.78971775617367 377.4661028569863 -117.3180383980316 379.72519394004127"/>
<polyline points="-85.37245036101602 361.1692138219446 -93.78153973585259 363.3459070025465 -101.5921265316368 381.2987272602806 -102.6616361850889 389.0698239352475 -104.17788677554947 398.847085359991 -95.65804414375933 427.3335099265898"/>
<polyline points="-95.65804414375933 427.3335099265898 -91.90079833968122 434.86500681053883 -91.434741614348 454.3190116181841 -87.67749581026995 461.850508502133 -85.2829581310628 471.51902678821034 -69.75728139699373 495.4070793231419"/>
<polyline points="-69.75728139699373 495.4070793231419 -65.52170726341686 490.10598152951906"/>
<polyline points="-69.75728139699373 495.4070793231419 -62.111450181766436 501.0685570306087"/>
<polyline points="-104.17788677554947 398.847085359991 -103.82196374887019 408.31096460809425"/>
<polyline points="-85.37245036101602 361.1692138219446 -93.78153973585259 363.3459070025465"/>
<polyline points="12.780780767586776 312.6843831713765 7.078054489489912 316.9567277836414"/>
<polyline points="21.213759489195606 304.4327134510788 22.678658180945163 312.4479399031815"/>
<polyline points="8.866548114695277 239.8217073605106 9.920045371560041 249.5177381529479"/>
<polyline points="9.937313020198047 180.51148705603765 3.8963280990940925 188.13554308293197"/>
<polyline points="48.2874098707564 155.15573633864932 38.652712650309574 156.87684746350533"/>
<polyline points="74.06721221250305 158.12140214437454 69.58988638360523 162.32360672066605"/>
<polyline points="93.336579725743 137.3923129692289 91.27339242898788 146.9299964795113"/>
<polyline points="111.94489701766341 108.13482321156387 109.30467203470349 115.47284366598363"/>
<polyline points="130.25530540598567 67.79239967606202 128.1105549539988 76.04484565661818"/>
<polyline points="137.32838493408232 53.732704084574934 128.80843262607792 56.1411627127008"/>
<polyline points="158.2011587744223 41.18544315292093 149.60410133916727 39.88504975471243"/>
<polyline points="195.75761042741328 40.36502015258386 186.40071360115215 41.408410661812695"/>
<polyline points="217.32815132485283 36.89773125711072 212.53919333259344 44.69030762198314"/>
<polyline points="212.53919333259344 44.69030762198314 206.66927948083338 47.43937431257502"/>
<polyline points="233.58332605016068 29.196684726908487 228.7943680579013 36.989261091780946"/>
<polyline points="234.97200860350787 19.964351488816714 233.58332605016068 29.196684726908487"/>
<polyline points="248.62017063421493 -25.94455229846105 244.28212049238516 -16.93865798881294"/>
<polyline points="244.28212049238516 -16.93865798881294 234.6464983374821 -14.440115576395343"/>
<polyline points="244.28212049238516 -16.93865798881294 234.6464983374821 -14.440115576395343"/>
<polyline points="234.6464983374821 -14.440115576395343 227.42340657116787 -10.192422965559267"/>
<polyline points="261.45822286539374 -48.13479996626409 257.120172723564 -39.12890565661595 239.16719628244155 -34.11765372206202 233.48887324546533 -30.79305967108904 224.71545649564496 -30.587770777827025 202.78137900431705 -44.866091834792826"/>
<polyline points="202.78137900431705 -44.866091834792826 199.2183025206033 -45.58309797850754 183.70349011392676 -46.63201311207971 180.1404136302129 -47.34901925579438 173.02773991467643 -50.37950251471524 156.80695758919023 -72.45841894253172"/>
<polyline points="156.80695758919023 -72.45841894253172 155.99077326681896 -77.19463616431706"/>
<polyline points="156.80695758919023 -72.45841894253172 155.99077326681896 -77.19463616431706"/>
<polyline points="156.80695758919023 -72.45841894253172 151.73637713565714 -76.20244546478357"/>
<polyline points="151.73637713565714 -76.20244546478357 145.32206256115305 -73.04715286382617"/>
<polyline points="173.02773991467643 -50.37950251471524 167.9571594611433 -54.12352903696708 148.97856595796935 -60.39650345715843 142.2710718832369 -67.78493664292597 133.0475013361315 -70.93668590071773 110.92134631227361 -74.47634991011114"/>
<polyline points="110.92134631227361 -74.47634991011114 106.45168908268371 -81.88982105673675 89.81797309070787 -90.43733384558392 85.348315861118 -97.85080499220958 77.87126119388225 -101.12250023576058 62.31103371646298 -99.73747845887287"/>
<polyline points="62.31103371646298 -99.73747845887287 65.22362413854584 -106.05554741522917"/>
<polyline points="62.31103371646298 -99.73747845887287 60.95321965966602 -105.21384720106651"/>
<polyline points="77.87126119388225 -101.12250023576058 72.32409762317042 -105.59542987332918"/>
<polyline points="77.87126119388225 -101.12250023576058 72.32409762317042 -105.59542987332918"/>
<polyline points="110.92134631227361 -74.47634991011114 102.99378202210418 -79.58524808916053"/>
<polyline points="102.99378202210418 -79.58524808916053 93.2301206445522 -77.55577024205941"/>
<polyline points="102.99378202210418 -79.58524808916053 93.2301206445522 -77.55577024205941"/>
<polyline points="93.2301206445522 -77.55577024205941 85.1242485418521 -81.25837133738841"/>
<polyline points="133.0475013361315 -70.93668590071773 125.11993704596205 -76.04558407976712 106.52076144845016 -69.48757565498916 99.61975921390436 -65.80948030858013 91.48141076756924 -60.21874591721095 77.65583208901533 -33.61058779366823"/>
<polyline points="77.65583208901533 -33.61058779366823 74.37637377533463 -26.63653463876004 60.433003686914084 -13.405358003447402 57.15354537323335 -6.43130484853918 51.88007687075853 1.8755337289263498 46.7661461463477 30.99687867960318"/>
<polyline points="46.7661461463477 30.99687867960318 47.767468519355646 39.73037655913884"/>
<polyline points="46.7661461463477 30.99687867960318 47.767468519355646 39.73037655913884"/>
<polyline points="46.7661461463477 30.99687867960318 43.57102352133609 39.91562910601039"/>
<polyline points="43.57102352133609 39.91562910601039 36.113604726970095 43.680421992860936"/>
<polyline points="51.88007687075853 1.8755337289263498 48.68495424574689 10.794284155333555 34.53521650481083 22.55475472913543 31.896800563382783 30.111572938055453 25.182491214118176 34.47747095827901 7.930725785389682 33.804487092060924"/>
<polyline points="7.930725785389682 33.804487092060924 7.497848763013308 38.170227429829374 -3.1862014460974803 46.497723264447224 -3.6190784684738544 50.86346360221569 -8.560514082750043 52.73490422219818 -21.90799696258766 42.8975680562126"/>
<polyline points="-21.90799696258766 42.8975680562126 -16.146539933717996 42.637344052754386"/>
<polyline points="-21.90799696258766 42.8975680562126 -20.28665444321719 42.90421554553476"/>
<polyline points="-8.560514082750043 52.73490422219818 -11.184345646392307 54.14554182081556"/>
<polyline points="7.930725785389682 33.804487092060924 3.3011389256569683 38.5831875555497"/>
<polyline points="34.53521650481083 22.55475472913543 28.970540142621992 30.853823872777"/>
<polyline points="28.970540142621992 30.853823872777 20.39306866753479 27.18814381412138"/>
<polyline points="48.68495424574689 10.794284155333555 43.120277883557996 19.093353298975146"/>
<polyline points="51.88007687075853 1.8755337289263498 48.68495424574689 10.794284155333555"/>
<polyline points="77.65583208901533 -33.61058779366823 70.86220838172585 -27.24892593414445"/>
<polyline points="70.86220838172585 -27.24892593414445 61.808597113444904 -24.781588427524778"/>
<polyline points="70.86220838172585 -27.24892593414445 61.808597113444904 -24.781588427524778"/>
<polyline points="61.808597113444904 -24.781588427524778 52.224591427879425 -25.83739688849152"/>
<polyline points="91.48141076756924 -60.21874591721095 84.68778706027967 -53.85708405768711 69.46561358324298 -45.009668443697805 65.7532873674546 -37.19123907908096 59.477628007992735 -33.47878527755941 49.658946745304 -32.305171267837196"/>
<polyline points="49.658946745304 -32.305171267837196 49.760743708508535 -25.944522345624854 40.4645174248771 -17.33796613192811 40.56631438808162 -10.977317209715734 37.353543748503064 -8.345126156501198 34.43652226330341 -14.30903515259352"/>
<polyline points="34.43652226330341 -14.30903515259352 38.14987398371814 -11.103997450181843"/>
<polyline points="34.43652226330341 -14.30903515259352 38.14987398371814 -11.103997450181843"/>
<polyline points="34.43652226330341 -14.30903515259352 33.72902503484694 -11.135844149201006"/>
<polyline points="33.72902503484694 -11.135844149201006 29.249999285305666 -3.8211089271783654"/>
<polyline points="37.353543748503064 -8.345126156501198 36.64604652004657 -5.171935153108611 22.21467943650346 -8.812072515925287 18.57747521992954 -14.270120756676027 10.770480087422827 -17.988201780722246 -14.028971019021274 -34.85550567140797"/>
<polyline points="-14.028971019021274 -34.85550567140797 -17.08698741206283 -43.53814978443152 -31.184994023124844 -54.43416871488908 -34.24301041616637 -63.11681282791262 -41.61019482735793 -69.52466599951791 -64.10219863116238 -87.23412968308385"/>
<polyline points="-64.10219863116238 -87.23412968308385 -61.70917898041204 -96.81698467628377"/>
<polyline points="-64.10219863116238 -87.23412968308385 -66.11491441996296 -97.00032189547754"/>
<polyline points="-41.61019482735793 -69.52466599951791 -47.26469731067225 -77.67007649612567"/>
<polyline points="-41.61019482735793 -69.52466599951791 -47.26469731067225 -77.67007649612567"/>
<polyline points="-14.028971019021274 -34.85550567140797 -20.38017201991274 -40.713505466429226"/>
<polyline points="-20.38017201991274 -40.713505466429226 -29.45664387765734 -38.71985287769483"/>
<polyline points="-20.38017201991274 -40.713505466429226 -29.45664387765734 -38.71985287769483"/>
<polyline points="-29.45664387765734 -38.71985287769483 -33.90272036541953 -37.86064377671454"/>
<polyline points="10.770480087422827 -17.988201780722246 4.419279086531361 -23.846201575743503 -15.313077930598059 -21.68907537010056 -24.669992834725825 -23.702786166813294 -34.266876937359186 -21.00112731272685 -55.19262015059976 -2.1128385630261066"/>
<polyline points="-55.19262015059976 -2.1128385630261066 -62.50924787036719 -2.010285316202278 -81.0949477929885 3.0470257915660484 -88.41157551275593 3.1495790383898394 -96.46038719289335 7.53336043226406 -109.19626266715774 31.113192269005182"/>
<polyline points="-109.19626266715774 31.113192269005182 -112.80638082500455 33.55976296359535"/>
<polyline points="-109.19626266715774 31.113192269005182 -112.80638082500455 33.55976296359535"/>
<polyline points="-109.19626266715774 31.113192269005182 -116.07245816295391 34.861954966399296"/>
<polyline points="-116.07245816295391 34.861954966399296 -125.71278858059323 33.45034560536218"/>
<polyline points="-96.46038719289335 7.53336043226406 -103.33658268868952 11.282123129658178 -117.29114186757064 25.12947121208295 -120.2449658346471 34.68290469762798 -125.72334181328179 42.087799545595566 -132.82096516412417 59.720560489612986"/>
<polyline points="-132.82096516412417 59.720560489612986 -131.77931997727842 69.27786781176063 -139.28934713484128 85.79888156806898 -138.2477019479955 95.35618889021664 -140.50698494893643 102.8833268867913 -140.90129448806343 114.59271506542926"/>
<polyline points="-140.90129448806343 114.59271506542926 -131.86963878151167 118.58990250770661"/>
<polyline points="-140.90129448806343 114.59271506542926 -136.28409660043596 121.8139771005947"/>
<polyline points="-139.28934713484128 85.79888156806898 -144.28487797849218 94.42381287106068"/>
<polyline points="-125.72334181328179 42.087799545595566 -129.02183432458264 50.84129547059578"/>
<polyline points="-96.46038719289335 7.53336043226406 -103.33658268868952 11.282123129658178"/>
<polyline points="-81.0949477929885 3.0470257915660484 -90.83868622392328 0.8729004088147584"/>
<polyline points="-34.266876937359186 -21.00112731272685 -43.60546314391705 -19.30224918182361"/>
<polyline points="4.419279086531361 -23.846201575743503 -4.19131604812553 -26.91461336061975"/>
<polyline points="22.21467943650346 -8.812072515925287 18.23775776723751 -7.371132114045156"/>
<polyline points="18.23775776723751 -7.371132114045156 11.121654850177912 -0.6726049520763612"/>
<polyline points="36.64604652004657 -5.171935153108611 32.669124850780605 -3.730994751228488"/>
<polyline points="37.353543748503064 -8.345126156501198 36.64604652004657 -5.171935153108611"/>
<polyline points="49.658946745304 -32.305171267837196 45.46295642970894 -27.202139277655014"/>
<polyline points="45.46295642970894 -27.202139277655014 36.15503455953039 -27.55586292425517"/>
<polyline points="45.46295642970894 -27.202139277655014 36.15503455953039 -27.55586292425517"/>
<polyline points="36.15503455953039 -27.55586292425517 28.092728276835732 -21.666476837396033"/>
<polyline points="59.477628007992735 -33.47878527755941 55.281637692397624 -28.375753287377197 38.90767162293121 -32.88294475594043 34.65955208791406 -37.0780048895704 26.87264368168262 -41.67844176377067 7.836944204220873 -64.83536066354021"/>
<polyline points="7.836944204220873 -64.83536066354021 5.975194799487311 -72.72194063137299 -7.074253901405299 -84.8363487880354 -8.936003306138824 -92.7229287558681 -14.823674847512876 -100.37138838717885 -28.68946155478236 -126.04705881249019"/>
<polyline points="-28.68946155478236 -126.04705881249019 -27.955530985051873 -135.78743999228064"/>
<polyline points="-28.68946155478236 -126.04705881249019 -27.955530985051873 -135.78743999228064"/>
<polyline points="-28.68946155478236 -126.04705881249019 -32.3179596578682 -134.95144604507965"/>
<polyline points="-32.3179596578682 -134.95144604507965 -37.385943373265206 -138.95360125292896"/>
<polyline points="-14.823674847512876 -100.37138838717885 -18.452172950598758 -109.2757756197683 -37.02896662974453 -116.38652217316277 -43.76610835664293 -121.61349486131819 -53.248200515600686 -123.22377532368061 -78.56250029891464 -113.58203095001203"/>
<polyline points="-78.56250029891464 -113.58203095001203 -83.86763187404267 -115.27985093923775 -101.51662370349536 -117.77166453756503 -106.82175527862336 -119.46948452679082 -115.21181355274398 -118.28431489342174 -135.05135669083313 -100.33524974393413"/>
<polyline points="-135.05135669083313 -100.33524974393413 -133.47242069022738 -98.71899417186339"/>
<polyline points="-135.05135669083313 -100.33524974393413 -137.86289230030093 -97.93333422897416"/>
<polyline points="-115.21181355274398 -118.28431489342174 -121.92455052448808 -116.70570982617141"/>
<polyline points="-115.21181355274398 -118.28431489342174 -121.92455052448808 -116.70570982617141"/>
<polyline points="-78.56250029891464 -113.58203095001203 -86.96725804363939 -115.48598543310419"/>
<polyline points="-86.96725804363939 -115.48598543310419 -96.43999226251877 -116.00483581826977"/>
<polyline points="-86.96725804363939 -115.48598543310419 -96.43999226251877 -116.00483581826977"/>
<polyline points="-96.43999226251877 -116.00483581826977 -103.62628107934886 -122.87707869949247"/>
<polyline points="-53.248200515600686 -123.22377532368061 -61.65295826032537 -125.12772980677282 -80.52876327329808 -120.82216824214511 -88.41273512671054 -114.68395413959807 -96.68735269952695 -110.9267693073506 -110.05665838906621 -96.0701155907233"/>
<polyline points="-110.05665838906621 -96.0701155907233 -114.39161644265809 -87.19714234370306 -129.05496786127426 -76.27971816267656 -133.38992591486615 -67.40674491565642 -138.8726748526114 -61.34791931960799 -142.9264870214107 -46.795639551146635"/>
<polyline points="-142.9264870214107 -46.795639551146635 -142.75932785802735 -37.40558596532408"/>
<polyline points="-142.9264870214107 -46.795639551146635 -142.75932785802735 -37.40558596532408"/>
<polyline points="-142.9264870214107 -46.795639551146635 -146.6122743689954 -39.00674321991228"/>
<polyline points="-146.6122743689954 -39.00674321991228 -154.9134944124242 -33.43441743730928"/>
<polyline points="-138.8726748526114 -61.34791931960799 -142.55846220019615 -53.55902298837364 -155.06597924935363 -53.59639032942265 -156.58178408222938 -53.48098522830779 -162.11930990378755 -55.98290558424025 -174.76321453500876 -76.99826519371722"/>
<polyline points="-174.76321453500876 -76.99826519371722 -173.5881872630481 -80.9063846584704 -181.4789608864315 -87.85348928810573 -180.30393361447085 -91.76160875285886 -183.6611443483405 -97.52398027997248 -192.40532921549442 -124.35613552981194"/>
<polyline points="-192.40532921549442 -124.35613552981194 -185.29097817869973 -129.85730647862547"/>
<polyline points="-192.40532921549442 -124.35613552981194 -189.06481526202128 -131.49658630631438"/>
<polyline points="-183.6611443483405 -97.52398027997248 -184.55185587536383 -104.06857814665749"/>
<polyline points="-174.76321453500876 -76.99826519371722 -177.98652353654523 -80.05689812978582"/>
<polyline points="-155.06597924935363 -53.59639032942265 -160.59041259607898 -48.61431137057684"/>
<polyline points="-160.59041259607898 -48.61431137057684 -169.68022127566653 -49.45326406673476"/>
<polyline points="-142.55846220019615 -53.55902298837364 -148.08289554692143 -48.57694402952781"/>
<polyline points="-138.8726748526114 -61.34791931960799 -142.55846220019615 -53.55902298837364"/>
<polyline points="-110.05665838906621 -96.0701155907233 -117.37205924273624 -90.08612188647554"/>
<polyline points="-117.37205924273624 -90.08612188647554 -125.66502137717646 -92.24852177190945"/>
<polyline points="-117.37205924273624 -90.08612188647554 -125.66502137717646 -92.24852177190945"/>
<polyline points="-125.66502137717646 -92.24852177190945 -135.569815526652 -92.2264753766947"/>
<polyline points="-96.68735269952695 -110.9267693073506 -104.00275355319708 -104.94277560310275 -117.28282488780172 -108.25196888128758 -120.02910592821591 -107.37276302837908 -124.98547173735498 -110.88138298619636 -129.63827657425995 -132.5348776904405"/>
<polyline points="-129.63827657425995 -132.5348776904405 -128.15606676764983 -134.1221760242828 -134.54538475404436 -141.27195212338447 -133.06317494743422 -142.85925045722678 -134.6095630491591 -148.34894450167482 -132.32453728896624 -174.446881698158"/>
<polyline points="-132.32453728896624 -174.446881698158 -127.11995972547501 -178.36231050998128"/>
<polyline points="-132.32453728896624 -174.446881698158 -127.11995972547501 -178.36231050998128"/>
<polyline points="-132.32453728896624 -174.446881698158 -131.33995297691425 -179.5208691979811"/>
<polyline points="-131.33995297691425 -179.5208691979811 -134.81888190013558 -179.17046695163094"/>
<polyline points="-134.6095630491591 -148.34894450167482 -133.62497873710709 -153.42293200149797 -145.4769653681694 -167.66973855506217 -147.73747650664544 -177.34368609913767 -154.54380314349666 -184.54861026369642 -178.8770045626089 -199.3562560804738"/>
<polyline points="-178.8770045626089 -199.3562560804738 -181.22044346430326 -208.34310918285178 -193.52060829072724 -224.09518379541728 -195.8640471924216 -233.0820368977953 -202.75122894246655 -239.8500940611619 -226.52458319870354 -247.69491885258768"/>
<polyline points="-226.52458319870354 -247.69491885258768 -224.4724234413843 -252.4706639549386"/>
<polyline points="-226.52458319870354 -247.69491885258768 -228.66646677895665 -253.77464617741882"/>
<polyline points="-202.75122894246655 -239.8500940611619 -208.1103318222015 -246.88219095639693"/>
<polyline points="-202.75122894246655 -239.8500940611619 -208.1103318222015 -246.88219095639693"/>
<polyline points="-178.8770045626089 -199.3562560804738 -184.25437131151216 -207.7750206126609"/>
<polyline points="-184.25437131151216 -207.7750206126609 -192.52915321870213 -210.42692626648667"/>
<polyline points="-184.25437131151216 -207.7750206126609 -192.52915321870213 -210.42692626648667"/>
<polyline points="-192.52915321870213 -210.42692626648667 -195.32633122585472 -217.1024849409077"/>
<polyline points="-154.54380314349666 -184.54861026369642 -159.92116989239992 -192.96737479588364 -178.90412261635007 -195.9895531656568 -188.63145372442008 -196.38007452871489 -198.2065908348934 -195.30574487469892 -220.56442585589292 -178.08228392087216"/>
<polyline points="-220.56442585589292 -178.08228392087216 -228.97058142187362 -173.89886929440135 -248.20130478585887 -169.03621459787018 -256.6074603518396 -164.85279997139943 -265.2243767781802 -160.07066160194597 -280.07744166194647 -136.30104768035304"/>
<polyline points="-280.07744166194647 -136.30104768035304 -285.2149232710055 -128.4693094098188"/>
<polyline points="-280.07744166194647 -136.30104768035304 -285.2149232710055 -128.4693094098188"/>
<polyline points="-280.07744166194647 -136.30104768035304 -287.9342001669056 -130.12437740064743"/>
<polyline points="-287.9342001669056 -130.12437740064743 -297.8247324867719 -130.64028696688703"/>
<polyline points="-265.2243767781802 -160.07066160194597 -273.0811352831393 -153.89399132224045 -286.126864502958 -149.43784892154042 -289.02200684820366 -143.52827486740034 -293.70500855596947 -142.32003604335642 -296.5376368493991 -149.0532775727648"/>
<polyline points="-296.5376368493991 -149.0532775727648 -294.99908889893953 -144.72722854454256 -300.8583026174686 -141.20024860938474 -299.319754667009 -136.8741995811626 -300.4290250732546 -136.86921489274948 -295.9012650974468 -149.87168108115637"/>
<polyline points="-295.9012650974468 -149.87168108115637 -287.2775939580348 -144.9007044318466"/>
<polyline points="-295.9012650974468 -149.87168108115637 -290.4258288140758 -148.38797051549085"/>
<polyline points="-296.5376368493991 -149.0532775727648 -299.1346172909621 -146.4095124950462"/>
<polyline points="-273.0811352831393 -153.89399132224045 -281.3338513597324 -149.15044875584638"/>
<polyline points="-198.2065908348934 -195.30574487469892 -207.94970317483265 -193.08311498329076"/>
<polyline points="-178.90412261635007 -195.9895531656568 -186.67066238119088 -202.15475813584632"/>
<polyline points="-145.4769653681694 -167.66973855506217 -147.7850477913892 -174.01188216321012"/>
<polyline points="-134.6095630491591 -148.34894450167482 -133.62497873710709 -153.42293200149797"/>
<polyline points="-124.98547173735498 -110.88138298619636 -127.77376638710685 -113.70192261921173"/>
<polyline points="-117.28282488780172 -108.25196888128758 -125.25868871251853 -105.32947670487714"/>
<polyline points="-96.68735269952695 -110.9267693073506 -104.00275355319708 -104.94277560310275"/>
<polyline points="-61.65295826032537 -125.12772980677282 -71.45359513730116 -125.62463339295309"/>
<polyline points="-37.02896662974453 -116.38652217316277 -43.76010436076537 -123.61601521453328"/>
<polyline points="-43.76010436076537 -123.61601521453328 -48.76067722709098 -119.87132670522918"/>
<polyline points="-18.452172950598758 -109.2757756197683 -25.183310681619655 -116.50526866113879"/>
<polyline points="-14.823674847512876 -100.37138838717885 -18.452172950598758 -109.2757756197683"/>
<polyline points="7.836944204220873 -64.83536066354021 1.912892779412072 -70.91501982218585"/>
<polyline points="1.912892779412072 -70.91501982218585 -8.046914276097555 -71.06138108021658"/>
<polyline points="1.912892779412072 -70.91501982218585 -8.046914276097555 -71.06138108021658"/>
<polyline points="-8.046914276097555 -71.06138108021658 -14.979124098118945 -69.407265298756"/>
<polyline points="26.87264368168262 -41.67844176377067 20.948592256873837 -47.75810092241628 1.4610575535165085 -51.500286199828594 -5.8531934526540645 -57.08800212785505 -15.157143988047572 -57.90886664432139 -36.09166060703782 -50.066457321632306"/>
<polyline points="-36.09166060703782 -50.066457321632306 -40.885570660703955 -54.08106271577499 -57.723740848163 -56.83163270853995 -62.51765090182917 -60.846238102682676 -69.85422745775274 -60.46870008648275 -83.41276474303069 -46.55071976325202"/>
<polyline points="-83.41276474303069 -46.55071976325202 -84.70942199478802 -47.801815306676694"/>
<polyline points="-83.41276474303069 -46.55071976325202 -84.70942199478802 -47.801815306676694"/>
<polyline points="-83.41276474303069 -46.55071976325202 -88.86080837327793 -46.94721122415576"/>
<polyline points="-88.86080837327793 -46.94721122415576 -96.77248097633041 -51.910953951538026"/>
<polyline points="-69.85422745775274 -60.46870008648275 -75.30227108800001 -60.86519154738654 -92.64930970413002 -51.781546035271184 -97.67865760062416 -44.04650296830333 -105.68494235101839 -38.05489226804939 -123.33380228550757 -18.281873470490527"/>
<polyline points="-123.33380228550757 -18.281873470490527 -125.4998431144674 -8.52885060122451 -138.92271112307935 6.2806736673874015 -141.08875195203913 16.033696536653448 -146.81911372909562 23.761513551158448 -158.12079634873675 41.427027288967054"/>
<polyline points="-158.12079634873675 41.427027288967054 -152.98722894884983 49.804497184061574"/>
<polyline points="-158.12079634873675 41.427027288967054 -157.115570712114 50.81874060659109"/>
<polyline points="-146.81911372909562 23.761513551158448 -150.25914453737192 32.67212799310105"/>
<polyline points="-146.81911372909562 23.761513551158448 -150.25914453737192 32.67212799310105"/>
<polyline points="-123.33380228550757 -18.281873470490527 -129.54726444079705 -10.453481438515468"/>
<polyline points="-129.54726444079705 -10.453481438515468 -139.51058489191826 -10.081602357969155"/>
<polyline points="-129.54726444079705 -10.453481438515468 -139.51058489191826 -10.081602357969155"/>
<polyline points="-139.51058489191826 -10.081602357969155 -147.40026744156125 -7.88787183850776"/>
<polyline points="-105.68494235101839 -38.05489226804939 -111.8984045063079 -30.226500236074234 -130.62916088030764 -28.83570552050298 -137.02067172298902 -26.36626902998364 -145.70190422317873 -27.79012946165155 -164.20135749962222 -45.575205773905836"/>
<polyline points="-164.20135749962222 -45.575205773905836 -167.67119022961643 -46.459251515006656 -182.77968303095233 -50.088239408066144 -186.2495157609466 -50.97228514916687 -192.62548376345723 -55.08061556522406 -203.79936360593427 -79.35725851348926"/>
<polyline points="-203.79936360593427 -79.35725851348926 -203.69832358813898 -83.58374136430656"/>
<polyline points="-203.79936360593427 -79.35725851348926 -203.69832358813898 -83.58374136430656"/>
<polyline points="-203.79936360593427 -79.35725851348926 -208.0498051246591 -83.61925674589395"/>
<polyline points="-208.0498051246591 -83.61925674589395 -215.1133302117258 -81.51115279230875"/>
<polyline points="-192.62548376345723 -55.08061556522406 -196.87592528218207 -59.342613797628694 -214.02254812644566 -69.58307942488779 -218.93264000295542 -78.29297555296391 -227.20149543580217 -83.53489954961026 -247.6828731393335 -93.13265193492833"/>
<polyline points="-247.6828731393335 -93.13265193492833 -250.33362173588702 -101.65409573237814 -264.56704203168687 -114.09120989877012 -267.21779062824027 -122.61265369621992 -273.6989715275859 -127.81441726035065 -288.7646532552158 -131.53694087247047"/>
<polyline points="-288.7646532552158 -131.53694087247047 -284.41938661087676 -137.5066948615577"/>
<polyline points="-288.7646532552158 -131.53694087247047 -288.75234872741487 -137.6965240165717"/>
<polyline points="-273.6989715275859 -127.81441726035065 -278.0137267429473 -133.8399809519301"/>
<polyline points="-247.6828731393335 -93.13265193492833 -254.24005482420267 -100.06424767659458"/>
<polyline points="-214.02254812644566 -69.58307942488779 -220.89834450429788 -74.42312493163769"/>
<polyline points="-220.89834450429788 -74.42312493163769 -227.9661398084894 -67.39122573580993"/>
<polyline points="-196.87592528218207 -59.342613797628694 -203.7517216600343 -64.18265930437857"/>
<polyline points="-192.62548376345723 -55.08061556522406 -196.87592528218207 -59.342613797628694"/>
<polyline points="-164.20135749962222 -45.575205773905836 -171.39432107825334 -46.713889919103266"/>
<polyline points="-171.39432107825334 -46.713889919103266 -181.1789943489124 -48.43762547362522"/>
<polyline points="-171.39432107825334 -46.713889919103266 -181.1789943489124 -48.43762547362522"/>
<polyline points="-181.1789943489124 -48.43762547362522 -189.85839838286591 -43.73808909142701"/>
<polyline points="-145.70190422317873 -27.79012946165155 -152.89486780180982 -28.928813606848966 -170.80027724588746 -37.61275571881114 -176.64480167652056 -45.68863879500609 -184.50195457877734 -51.03053442291436 -198.71654083125946 -66.08050892793007"/>
<polyline points="-198.71654083125946 -66.08050892793007 -201.01879181145725 -75.53580444766163 -214.07853581183335 -88.97178140741882 -216.38078679203105 -98.42707692715047 -221.42273804265548 -104.99320127996398 -227.7649865455677 -116.73952499243606"/>
<polyline points="-227.7649865455677 -116.73952499243606 -226.13605887209403 -125.21281739148012"/>
<polyline points="-227.7649865455677 -116.73952499243606 -226.13605887209403 -125.21281739148012"/>
<polyline points="-227.7649865455677 -116.73952499243606 -230.53475665966326 -124.54496081215945"/>
<polyline points="-230.53475665966326 -124.54496081215945 -237.0501031654658 -132.12115491705603"/>
<polyline points="-221.42273804265548 -104.99320127996398 -224.19250815675105 -112.79863709968731 -239.62199592790685 -114.26257961245648 -243.32745888429204 -113.55498431383441 -251.00110843269113 -111.7054148402231 -272.02641191841775 -93.005728188863"/>
<polyline points="-272.02641191841775 -93.005728188863 -273.99554669159727 -87.81555173754796 -287.07783405477187 -81.24462974810506 -289.04696882795133 -76.05445329678999 -295.34193257829304 -70.55739781230533 -312.44614422593924 -46.125932211848564"/>
<polyline points="-312.44614422593924 -46.125932211848564 -308.0975873795165 -38.37357346054402"/>
<polyline points="-312.44614422593924 -46.125932211848564 -312.46374797320345 -37.63001158534061"/>
<polyline points="-295.34193257829304 -70.55739781230533 -299.5165500013857 -63.62724086481778"/>
<polyline points="-295.34193257829304 -70.55739781230533 -299.5165500013857 -63.62724086481778"/>
<polyline points="-272.02641191841775 -93.005728188863 -277.8924174545325 -89.8600097226135"/>
<polyline points="-277.8924174545325 -89.8600097226135 -287.64876012423775 -91.34993241789657"/>
<polyline points="-277.8924174545325 -89.8600097226135 -287.64876012423775 -91.34993241789657"/>
<polyline points="-287.64876012423775 -91.34993241789657 -293.5287148581617 -96.13687220663078"/>
<polyline points="-251.00110843269113 -111.7054148402231 -256.86711396880577 -108.5596963739736 -276.79072017423863 -106.85286951817494 -285.03312318448354 -101.32347524801357 -294.7197890898133 -100.62673121188477 -316.9024049738159 -104.1710569060176"/>
<polyline points="-316.9024049738159 -104.1710569060176 -322.9403747763021 -98.49043273941567 -341.0539605479062 -94.73890358733222 -347.09193035039226 -89.05827942073032 -355.08047284051486 -88.159272249977 -369.6839519054081 -95.45313418108304"/>
<polyline points="-369.6839519054081 -95.45313418108304 -372.21811978493815 -91.2165795931221"/>
<polyline points="-369.6839519054081 -95.45313418108304 -372.21811978493815 -91.2165795931221"/>
<polyline points="-369.6839519054081 -95.45313418108304 -376.06686121088876 -93.05305990279946"/>
<polyline points="-376.06686121088876 -93.05305990279946 -384.79792835119656 -88.29758080553073"/>
<polyline points="-355.08047284051486 -88.159272249977 -361.4633821459956 -85.75919797169342 -378.15082711153616 -95.23349734394797 -382.7778431092652 -101.86607121438013 -390.08190294597046 -108.54009101600572 -403.90871228328353 -134.01746944816054"/>
<polyline points="-403.90871228328353 -134.01746944816054 -405.10943764293796 -143.28049045138854 -416.790874020322 -159.1551732618698 -417.99159937997644 -168.41819426509787 -422.55838817917214 -177.30788163041606 -429.47978591026447 -202.40197814601382"/>
<polyline points="-429.47978591026447 -202.40197814601382 -421.216423179964 -206.78366898118483"/>
<polyline points="-429.47978591026447 -202.40197814601382 -427.15783647712396 -212.1266445274789"/>
<polyline points="-416.790874020322 -159.1551732618698 -423.1105566945664 -164.14710792190525"/>
<polyline points="-390.08190294597046 -108.54009101600572 -395.4660074305825 -116.58066809053054"/>
<polyline points="-355.08047284051486 -88.159272249977 -361.4633821459956 -85.75919797169342"/>
<polyline points="-341.0539605479062 -94.73890358733222 -350.0082294841605 -90.34534518037043"/>
<polyline points="-294.7197890898133 -100.62673121188477 -303.59488087317715 -97.83162410562751"/>
<polyline points="-256.86711396880577 -108.5596963739736 -265.2879620963349 -106.45285091499866"/>
<polyline points="-239.62199592790685 -114.26257961245648 -245.17804506835833 -119.69923760780885"/>
<polyline points="-245.17804506835833 -119.69923760780885 -252.98934124642807 -121.91812762337642"/>
<polyline points="-224.19250815675105 -112.79863709968731 -229.74855729720235 -118.23529509503989"/>
<polyline points="-221.42273804265548 -104.99320127996398 -224.19250815675105 -112.79863709968731"/>
<polyline points="-198.71654083125946 -66.08050892793007 -204.92005815905716 -73.3931620547088"/>
<polyline points="-204.92005815905716 -73.3931620547088 -214.4558727142832 -72.97615029506196"/>
<polyline points="-204.92005815905716 -73.3931620547088 -214.4558727142832 -72.97615029506196"/>
<polyline points="-214.4558727142832 -72.97615029506196 -223.45775929028815 -75.90202651071668"/>
<polyline points="-184.50195457877734 -51.03053442291436 -190.705471906575 -58.34318754969316 -207.4159337071421 -57.03002455201756 -212.02339977950376 -57.42841689930172 -219.39408518711969 -54.458723744341896 -233.738096086208 -32.57616490298997"/>
<polyline points="-233.738096086208 -32.57616490298997 -235.00359988613334 -29.43400916324784 -246.8463008882155 -22.188457866496762 -248.11180468814084 -19.046302126754657 -252.81326079530712 -13.214142054619163 -260.38838385483143 14.115805423630158"/>
<polyline points="-260.38838385483143 14.115805423630158 -258.204723037646 20.23202282492766"/>
<polyline points="-260.38838385483143 14.115805423630158 -258.204723037646 20.23202282492766"/>
<polyline points="-260.38838385483143 14.115805423630158 -262.68639661774716 20.29342343255247"/>
<polyline points="-262.68639661774716 20.29342343255247 -268.0637072772001 20.171039787531527"/>
<polyline points="-252.81326079530712 -13.214142054619163 -255.11127355822268 -7.036524045696971 -271.47638373366 4.21125761688103 -276.21338504078335 12.949848848125285 -284.6772837642867 18.104400731111763 -308.9821737779192 24.325652873350247"/>
<polyline points="-308.9821737779192 24.325652873350247 -312.49957085740675 31.780181713925845 -327.7192529103774 43.30347654768133 -331.2366499898648 50.75800538825685 -338.7546284795738 54.982803729265086 -359.1865521257599 53.83295563152548"/>
<polyline points="-359.1865521257599 53.83295563152548 -356.4167978698989 57.882387374424184"/>
<polyline points="-359.1865521257599 53.83295563152548 -360.8917953924757 58.0801941944955"/>
<polyline points="-338.7546284795738 54.982803729265086 -344.41394528675227 59.62174718073996"/>
<polyline points="-338.7546284795738 54.982803729265086 -344.41394528675227 59.62174718073996"/>
<polyline points="-308.9821737779192 24.325652873350247 -315.977844049312 30.80818786705096"/>
<polyline points="-315.977844049312 30.80818786705096 -325.5675533396094 31.671283681937624"/>
<polyline points="-315.977844049312 30.80818786705096 -325.5675533396094 31.671283681937624"/>
<polyline points="-325.5675533396094 31.671283681937624 -331.42750886374336 38.124212772265324"/>
<polyline points="-284.6772837642867 18.104400731111763 -291.6729540356794 24.586935724812395 -311.5713061577743 22.920338742932405 -320.2936870336351 20.322864420048194 -329.67587091619487 16.99181970941931 -348.93673346557637 -4.319166145157221"/>
<polyline points="-348.93673346557637 -4.319166145157221 -355.0384670710971 -11.055472888580756 -372.5692922032149 -20.675893666630195 -378.67102580873564 -27.412200410053735 -386.0248319402979 -34.13491937936886 -396.7552103749373 -59.5485354958837"/>
<polyline points="-396.7552103749373 -59.5485354958837 -398.8808343597118 -68.86774930457584"/>
<polyline points="-396.7552103749373 -59.5485354958837 -398.8808343597118 -68.86774930457584"/>
<polyline points="-396.7552103749373 -59.5485354958837 -402.57880621687906 -67.64605156532613"/>
<polyline points="-402.57880621687906 -67.64605156532613 -411.69606525423814 -70.05606510582994"/>
<polyline points="-386.0248319402979 -34.13491937936886 -391.8484277822396 -42.232435448811344 -406.43663478036297 -48.26689624811241 -409.48947957014826 -53.756161713031254 -415.6494166856954 -55.105319623748784 -426.73508849395245 -45.83186514220328"/>
<polyline points="-426.73508849395245 -45.83186514220328 -426.31144646293325 -48.41944056232538 -435.360551409872 -51.047379894513796 -434.936909378853 -53.63495531463587 -438.29894183459595 -52.703147706756376 -443.4001037376777 -35.72971508228777"/>
<polyline points="-443.4001037376777 -35.72971508228777 -436.16907805479843 -35.75340906441855"/>
<polyline points="-443.4001037376777 -35.72971508228777 -439.80541510940105 -34.60336086295812"/>
<polyline points="-438.29894183459595 -52.703147706756376 -439.13258082333994 -51.799252611069804"/>
<polyline points="-426.73508849395245 -45.83186514220328 -430.707817562613 -47.90663995361512"/>
<polyline points="-406.43663478036297 -48.26689624811241 -413.7758124321818 -54.68136343627587"/>
<polyline points="-413.7758124321818 -54.68136343627587 -421.7901451333485 -49.4347428538562"/>
<polyline points="-391.8484277822396 -42.232435448811344 -399.1876054340582 -48.64690263697492"/>
<polyline points="-386.0248319402979 -34.13491937936886 -391.8484277822396 -42.232435448811344"/>
<polyline points="-348.93673346557637 -4.319166145157221 -357.65946790004415 -9.080160268508763"/>
<polyline points="-357.65946790004415 -9.080160268508763 -366.11408027359295 -8.393240203630723"/>
<polyline points="-357.65946790004415 -9.080160268508763 -366.11408027359295 -8.393240203630723"/>
<polyline points="-366.11408027359295 -8.393240203630723 -375.5063747230903 -5.194914814931663"/>
<polyline points="-329.67587091619487 16.99181970941931 -338.39860535066265 12.230825586067729 -352.9664390520678 9.515724296106931 -357.3058020289044 3.914554956611084 -362.71551671332855 3.2019108235312945 -366.40026249707165 9.296685850133226"/>
<polyline points="-366.40026249707165 9.296685850133226 -366.2098588865744 4.467739952534949 -373.8501247610608 1.3173450461504146 -373.6597211505637 -3.5116008514476915 -375.43678191789826 -3.677139623519262 -370.67978511759117 7.4498949470400815"/>
<polyline points="-370.67978511759117 7.4498949470400815 -366.10348194732256 4.786244542245046"/>
<polyline points="-370.67978511759117 7.4498949470400815 -366.10348194732256 4.786244542245046"/>
<polyline points="-370.67978511759117 7.4498949470400815 -370.13432001284457 6.143733990711364"/>
<polyline points="-370.13432001284457 6.143733990711364 -375.0533157038395 1.251083069141946"/>
<polyline points="-375.43678191789826 -3.677139623519262 -374.89131681315166 -4.983300579847999 -384.9256763772699 4.548885730255558 -385.50050221310846 11.926108264649256 -390.9720041847952 18.38954094761648 -410.33111636007266 41.28016561693162"/>
<polyline points="-410.33111636007266 41.28016561693162 -410.3479372589136 50.97603787432078 -419.2290298370176 66.61677122213077 -419.2458507358584 76.31264347951986 -424.256467346893 84.74995943229936 -443.2423422013863 106.26494295942676"/>
<polyline points="-443.2423422013863 106.26494295942676 -439.0150627247942 114.45086064263401"/>
<polyline points="-443.2423422013863 106.26494295942676 -442.9819015747669 115.95830024878252"/>
<polyline points="-424.256467346893 84.74995943229936 -427.4087356379425 94.22919201929236"/>
<polyline points="-424.256467346893 84.74995943229936 -427.4087356379425 94.22919201929236"/>
<polyline points="-410.33111636007266 41.28016561693162 -413.90937314332984 49.37727879574685"/>
<polyline points="-413.90937314332984 49.37727879574685 -422.2232394910837 50.55770509582052"/>
<polyline points="-413.90937314332984 49.37727879574685 -422.2232394910837 50.55770509582052"/>
<polyline points="-422.2232394910837 50.55770509582052 -424.78535752284444 52.38225489298554"/>
<polyline points="-390.9720041847952 18.38954094761648 -394.5502609680524 26.486654126431556 -413.27084424411134 30.226112940618712 -422.2706489952741 34.2317920090244 -432.1790293996302 34.16922427255564 -458.669476586699 20.33488480670173"/>
<polyline points="-458.669476586699 20.33488480670173 -467.05573420919563 21.14948913636096 -487.01313378704833 20.573914331298855 -495.399391409545 21.388518660958187 -504.9128745185877 18.79210466158471 -525.4244028752175 -2.245686503457429"/>
<polyline points="-525.4244028752175 -2.245686503457429 -531.3088491963115 -5.016540315620861"/>
<polyline points="-525.4244028752175 -2.245686503457429 -531.3088491963115 -5.016540315620861"/>
<polyline points="-525.4244028752175 -2.245686503457429 -534.1370255464858 -4.914626260715481"/>
<polyline points="-534.1370255464858 -4.914626260715481 -543.4145592282032 -1.299550194809703"/>
<polyline points="-504.9128745185877 18.79210466158471 -513.6254971898559 16.12316490432669 -529.3943486309388 7.390885830721763 -534.4897970586553 -0.8765885117064248 -540.6385966954399 -5.780902794509903 -546.7308926123986 -16.858994343551796"/>
<polyline points="-546.7308926123986 -16.858994343551757 -547.4461635504748 -25.76984286905994 -556.7529037930169 -38.04502367106463 -557.4681747310934 -46.955872196572805 -560.1148535400127 -52.49042010912438 -557.5180178304724 -59.078746603032215"/>
</svg>