<svg transform="scale(1,-1)" viewBox="-290.8791261787294 -295.43276405019253 621.5100636217644 602.9304052031152" xmlns="http://www.w3.org/2000/svg">
<style>
svg { stroke:black; stroke-width:2; fill:none;}
</style>
<polyline points="-29.81553222730681 -39.774739142007036 29.482310286288076 40.747095618716095 -69.90056543262686 51.83961624473635 -10.602722919033008 132.3614510054585 29.482310286288204 40.74709561871628 69.5673434916095 -50.86725976802592 -29.815532227305575 -39.7747391420059 10.26950097801568 -131.3890945287481 69.5673434916095 -50.86725976802597 -29.815532227305575 -39.774739142005934 29.482310286288243 40.747095618716244 -69.90056543262683 51.83961624473633 -29.81553222730557 -39.7747391420059 10.269500978015635 -131.38909452874813 69.56734349160948 -50.86725976802605 109.65237669693076 -142.48161515476826 10.269500978015682 -131.3890945287482 69.56734349160948 -50.867259768026024 109.65237669693072 -142.48161515476826 168.95021921052458 -61.959780394046085 69.56734349160949 -50.86725976802603 -29.815532227305575 -39.774739142005934 10.269500978015635 -131.38909452874816 -89.11337474089943 -120.2965739027281 -29.81553222730559 -39.77473914200597 10.269500978015605 -131.38909452874822 69.56734349160949 -50.8672597680261 109.65237669693074 -142.4816151547683 10.269500978015653 -131.38909452874822 -89.11337474089943 -120.2965739027282 -29.81553222730558 -39.774739142006034 -129.19840794622067 -28.682218515985923 -89.11337474089943 -120.29657390272817 -49.02834153557805 -211.9109292894703 -148.41121725449318 -200.81840866345033 -108.32618404917184 -292.43276405019253 -49.02834153557804 -211.91092928947032 10.269500978015719 -131.38909452874822 -89.11337474089936 -120.29657390272817 -29.81553222730558 -39.77473914200597 10.269500978015698 -131.38909452874816 -89.11337474089937 -120.29657390272806 -49.02834153557811 -211.91092928947026 -148.4112172544932 -200.8184086634502 -89.11337474089939 -120.29657390272813 -29.81553222730558 -39.77473914200595 10.269500978015698 -131.38909452874816 69.56734349160948 -50.867259768026024 -29.81553222730558 -39.77473914200597 10.269500978015605 -131.38909452874822 69.56734349160949 -50.8672597680261 109.65237669693074 -142.48161515476835 10.269500978015676 -131.38909452874827 -89.1133747408994 -120.29657390272823 -29.81553222730557 -39.77473914200606 -129.19840794622064 -28.68221851598596 -89.11337474089939 -120.29657390272817 -29.815532227305635 -39.774739142005984 10.269500978015683 -131.3890945287482 69.56734349160949 -50.86725976802603 -29.815532227305575 -39.77473914200598 -129.19840794622064 -28.682218515985873 -89.11337474089942 -120.2965739027281 -188.4962504598145 -109.20405327670804 -129.1984079462206 -28.68221851598589 -228.5812836651357 -17.589697889965933 -169.28344115154192 62.932136870756274 -268.66631687045697 74.02465749677629 -228.5812836651357 -17.589697889965873 -188.49625045981446 -109.20405327670808 -129.19840794622064 -28.682218515985923 -89.11337474089935 -120.29657390272814 -188.49625045981443 -109.2040532767081 -129.19840794622056 -28.68221851598598 -228.58128366513566 -17.589697889965887 -169.28344115154178 62.932136870756274 -129.19840794622056 -28.68221851598592 -89.1133747408993 -120.29657390272814 -188.49625045981435 -109.20405327670805 -148.41121725449315 -200.8184086634503 -89.1133747408993 -120.2965739027282 -188.49625045981435 -109.20405327670804 -148.41121725449318 -200.81840866345024 -247.79409297340834 -189.7258880374301 -188.49625045981438 -109.20405327670802 -129.1984079462205 -28.682218515985898 -89.1133747408993 -120.29657390272814 -29.815532227305404 -39.77473914200601 -129.19840794622047 -28.682218515985898 -89.11337474089919 -120.29657390272814 -188.49625045981426 -109.20405327670805 -148.41121725449307 -200.8184086634503 -89.1133747408992 -120.29657390272814 -29.815532227305344 -39.774739142006 -129.1984079462204 -28.68221851598591 -69.90056543262656 51.839616244736256 -29.815532227305336 -39.77473914200595 10.26950097801578 -131.38909452874825 69.56734349160972 -50.86725976802612 109.6523766969309 -142.48161515476838 10.269500978015829 -131.38909452874822 -89.11337474089923 -120.29657390272814 -29.815532227305354 -39.774739142006005 -129.19840794622044 -28.682218515985856 -89.11337474089925 -120.29657390272814 -29.815532227305408 -39.77473914200597 10.269500978015808 -131.38909452874822 69.56734349160969 -50.86725976802608 -29.815532227305372 -39.77473914200598 -129.19840794622044 -28.682218515985866 -89.11337474089922 -120.2965739027281 -188.4962504598143 -109.20405327670802 -129.19840794622047 -28.68221851598589 -89.11337474089918 -120.29657390272808 -188.4962504598143 -109.20405327670804 -148.41121725449307 -200.8184086634503 -89.1133747408992 -120.29657390272814 -29.81553222730535 -39.77473914200599 -129.1984079462204 -28.68221851598591 -69.90056543262659 51.839616244736256 -29.815532227305372 -39.77473914200595 -129.19840794622047 -28.682218515985838 -89.11337474089922 -120.29657390272806 -188.49625045981426 -109.20405327670795 -129.19840794622044 -28.682218515985856 -69.9005654326266 51.83961624473631 -29.815532227305386 -39.774739142005885 29.482310286288484 40.74709561871626 -69.90056543262659 51.83961624473635 -10.602722919032812 132.36145100545852 29.482310286288467 40.74709561871634 88.78015279988227 121.26893037943847 -10.602722919032782 132.36145100545858 -109.98559863794787 143.45397163147862 -69.90056543262665 51.83961624473642 -169.28344115154167 62.93213687075648 -109.98559863794782 143.45397163147865 -69.90056543262665 51.8396162447364 -10.602722919032772 132.36145100545858 29.4823102862885 40.74709561871634 -69.90056543262658 51.8396162447364 -169.28344115154164 62.93213687075641 -109.98559863794787 143.4539716314786 -209.36847435686295 154.54649225749864 -169.28344115154167 62.932136870756416 -109.98559863794775 143.4539716314785 -209.3684743568629 154.54649225749867 -150.07063184326898 235.06832701822083 -109.98559863794777 143.45397163147854 -69.90056543262655 51.839616244736355 -169.2834411515416 62.93213687075645 -129.19840794622044 -28.682218515985785 -69.90056543262658 51.839616244736355 -169.28344115154164 62.932136870756366 -109.98559863794789 143.45397163147857 -209.36847435686295 154.54649225749864 -169.28344115154164 62.93213687075639 -129.19840794622047 -28.682218515985838 -69.9005654326266 51.83961624473631 -29.815532227305344 -39.77473914200589 -129.1984079462204 -28.68221851598584 -228.58128366513546 -17.58969788996566 -188.49625045981435 -109.2040532767079 -287.8791261787294 -98.11153265068779 -228.58128366513552 -17.589697889965674 -169.28344115154164 62.93213687075647 -129.19840794622044 -28.682218515985785 -69.90056543262651 51.83961624473631 -169.2834411515416 62.93213687075646 -129.19840794622033 -28.682218515985774 -228.5812836651354 -17.58969788996569 -188.4962504598142 -109.20405327670791 -129.19840794622036 -28.682218515985795 -69.90056543262651 51.83961624473631 -169.28344115154158 62.932136870756416 -109.98559863794777 143.45397163147854 -69.90056543262656 51.83961624473631 -169.2834411515416 62.932136870756324 -109.9855986379478 143.4539716314785 -209.36847435686292 154.54649225749856 -169.28344115154164 62.932136870756345 -129.1984079462204 -28.68221851598591 -69.90056543262655 51.83961624473619 -29.815532227305294 -39.77473914200603 -129.19840794622036 -28.68221851598596 -69.90056543262646 51.83961624473614 -169.28344115154155 62.93213687075629 -109.98559863794766 143.4539716314784 -69.9005654326265 51.83961624473614 -29.815532227305212 -39.774739142006084 -129.19840794622027 -28.682218515985994 -89.11337474089908 -120.2965739027282 -29.815532227305237 -39.77473914200606 10.269500978015891 -131.38909452874833 69.56734349160985 -50.86725976802622 109.652376696931 -142.48161515476846 10.269500978015941 -131.38909452874836 -89.1133747408991 -120.29657390272828 -29.815532227305283 -39.774739142006126 -129.19840794622036 -28.682218515986012 -89.11337474089913 -120.29657390272824 -29.815532227305294 -39.774739142006084 10.269500978015913 -131.38909452874827 69.56734349160979 -50.867259768026145 -29.815532227305273 -39.77473914200607 -129.19840794622033 -28.682218515985934 -89.11337474089916 -120.29657390272818 -188.4962504598142 -109.20405327670808 -129.19840794622039 -28.68221851598596 -89.11337474089909 -120.29657390272817 -188.4962504598142 -109.20405327670814 -148.41121725449295 -200.81840866345033 -89.11337474089913 -120.29657390272817 -29.815532227305237 -39.77473914200604 -129.1984079462203 -28.68221851598593 -69.90056543262646 51.83961624473622 -29.815532227305237 -39.774739142006005 -129.1984079462203 -28.68221851598583 -89.11337474089916 -120.2965739027281 -188.49625045981418 -109.20405327670795 -129.19840794622033 -28.682218515985873 -69.90056543262651 51.839616244736305 -29.815532227305276 -39.7747391420059 29.482310286288573 40.74709561871623 -69.9005654326265 51.83961624473631 -169.28344115154155 62.93213687075634 -109.98559863794775 143.4539716314785 -209.36847435686286 154.54649225749864 -169.2834411515416 62.93213687075638 -129.19840794622039 -28.682218515985888 -69.90056543262654 51.839616244736256 -29.815532227305273 -39.774739142005984 -129.19840794622033 -28.682218515985912 -69.90056543262646 51.83961624473619 -169.28344115154152 62.9321368707563 -109.9855986379477 143.45397163147848 -69.90056543262648 51.83961624473627 -29.815532227305187 -39.77473914200595 -129.19840794622027 -28.682218515985898 -89.11337474089908 -120.29657390272813 -29.815532227305205 -39.774739142005984 -129.1984079462203 -28.68221851598583 -89.1133747408991 -120.29657390272808 -188.49625045981418 -109.20405327670795 -129.1984079462203 -28.682218515985863 -69.90056543262645 51.83961624473629 -29.815532227305223 -39.77473914200593 29.48231028628865 40.74709561871618 -69.90056543262642 51.83961624473629 -29.815532227305148 -39.77473914200592 -129.19840794622021 -28.682218515985877 -89.11337474089902 -120.2965739027281 -29.81553222730516 -39.77473914200594 29.482310286288694 40.747095618716166 -69.90056543262638 51.839616244736256 -10.602722919032548 132.3614510054584 29.48231028628868 40.74709561871616 69.56734349161003 -50.867259768026024 -29.815532227305045 -39.77473914200604 10.269500978016277 -131.38909452874825 69.56734349161003 -50.86725976802603 128.8651860052038 29.654574992696144 29.482310286288747 40.74709561871615 88.78015279988252 121.26893037943837 128.8651860052038 29.6545749926962 29.482310286288747 40.74709561871621 69.56734349161006 -50.86725976802599 -29.815532227305027 -39.77473914200603 29.48231028628873 40.74709561871618 88.78015279988242 121.26893037943843 128.86518600520375 29.654574992696283 188.16302851879755 110.17640975341854 88.78015279988244 121.26893037943843 128.86518600520373 29.654574992696247 188.16302851879752 110.17640975341844 228.24806172411883 18.56205436667624 128.86518600520375 29.654574992696226 29.482310286288705 40.74709561871616 88.78015279988242 121.26893037943836 -10.602722919032654 132.36145100545835 29.482310286288694 40.747095618716166 88.78015279988236 121.2689303794384 128.86518600520373 29.654574992696237 188.16302851879743 110.17640975341844 88.78015279988234 121.26893037943836 -10.602722919032729 132.36145100545835 29.482310286288623 40.747095618716166 -69.90056543262646 51.839616244736085 -10.602722919032729 132.36145100545835 48.6951195945611 212.88328576618056 -50.68775612435399 223.97580639220052 8.61008638923972 304.49764115292265 48.6951195945611 212.88328576618056 88.78015279988244 121.26893037943837 -10.602722919032619 132.36145100545832 29.482310286288705 40.74709561871613 88.78015279988243 121.26893037943836 -10.602722919032647 132.36145100545826 48.6951195945611 212.88328576618056 -50.68775612435399 223.97580639220052 -10.602722919032646 132.3614510054583 29.482310286288687 40.747095618716116 88.78015279988243 121.26893037943836 128.8651860052038 29.654574992696187 29.48231028628874 40.74709561871611 88.78015279988242 121.26893037943837 128.8651860052038 29.654574992696226 188.16302851879752 110.17640975341844 88.78015279988243 121.26893037943836 -10.602722919032628 132.36145100545835 29.482310286288715 40.747095618716145 -69.90056543262637 51.839616244736064 -10.602722919032646 132.3614510054583 29.482310286288687 40.747095618716116 88.78015279988243 121.26893037943836 128.8651860052038 29.654574992696208 29.482310286288733 40.74709561871614 -69.90056543262637 51.83961624473601 -10.60272291903267 132.3614510054583 -109.98559863794777 143.45397163147817 -69.90056543262635 51.839616244736035 -169.28344115154144 62.93213687075605 -129.19840794622016 -28.68221851598614 -228.5812836651352 -17.58969788996617 -169.2834411515415 62.932136870756025 -109.9855986379477 143.4539716314783 -69.90056543262638 51.8396162447361 -10.602722919032606 132.36145100545832 -109.98559863794767 143.4539716314783 -69.9005654326263 51.83961624473612 -169.28344115154135 62.93213687075605 -129.19840794622004 -28.68221851598612 -69.90056543262628 51.83961624473613 -10.602722919032496 132.36145100545826 -109.98559863794756 143.4539716314783 -50.687756124353804 223.9758063922005 -10.602722919032487 132.36145100545835 -109.98559863794759 143.45397163147828 -50.687756124353854 223.9758063922005 -150.07063184326896 235.0683270182204 -109.98559863794759 143.45397163147828 -69.90056543262627 51.83961624473606 -10.602722919032507 132.36145100545826 29.48231028628888 40.74709561871614 -69.90056543262622 51.83961624473606 -10.602722919032432 132.36145100545826 -109.98559863794749 143.45397163147825 -50.687756124353754 223.9758063922005 -10.602722919032415 132.36145100545832 29.48231028628897 40.7470956187162 -69.90056543262612 51.83961624473612 -29.81553222730478 -39.77473914200606 29.48231028628898 40.74709561871618 88.78015279988261 121.26893037943846 128.86518600520407 29.654574992696315 188.16302851879774 110.1764097534185 88.78015279988267 121.26893037943842 -10.60272291903241 132.36145100545838 29.482310286288943 40.747095618716216 -69.90056543262615 51.83961624473615 -10.602722919032423 132.36145100545835 29.482310286288907 40.74709561871618 88.78015279988267 121.26893037943842 128.86518600520404 29.654574992696265 29.48231028628896 40.74709561871618 -69.90056543262614 51.83961624473605 -10.60272291903243 132.36145100545832 -109.98559863794753 143.45397163147823 -69.90056543262614 51.839616244736064 -10.602722919032358 132.36145100545826 -109.98559863794745 143.45397163147825 -50.687756124353754 223.9758063922005 -10.602722919032395 132.3614510054583 29.482310286288985 40.74709561871615 -69.90056543262611 51.839616244736064 -29.815532227304754 -39.7747391420061 29.482310286288996 40.74709561871612 -69.9005654326261 51.839616244736035 -10.602722919032368 132.36145100545826 -109.98559863794745 143.45397163147825 -69.90056543262611 51.839616244736064 -29.81553222730478 -39.77473914200613 29.482310286288985 40.7470956187161 69.56734349161039 -50.867259768026074 -29.8155322273047 -39.77473914200613 10.26950097801652 -131.38909452874833 69.56734349161034 -50.867259768026194 109.6523766969316 -142.4816151547684 10.269500978016547 -131.38909452874833 -89.11337474089855 -120.29657390272835 -29.815532227304754 -39.774739142006155 -129.19840794621982 -28.682218515986104 -89.11337474089856 -120.29657390272831 -29.815532227304736 -39.774739142006126 10.26950097801652 -131.38909452874833 69.56734349161039 -50.86725976802621 -29.815532227304693 -39.77473914200614 -129.19840794621976 -28.68221851598605 -89.11337474089855 -120.29657390272828 -188.49625045981358 -109.20405327670818 -129.19840794621976 -28.68221851598608 -89.11337474089848 -120.29657390272828 -188.49625045981358 -109.20405327670825 -148.41121725449236 -200.81840866345044 -89.11337474089851 -120.29657390272835 -29.815532227304658 -39.77473914200625 -129.19840794621973 -28.68221851598615 -69.9005654326259 51.83961624473601 -29.815532227304672 -39.77473914200623 -129.19840794621973 -28.682218515986097 -89.11337474089855 -120.29657390272835 -188.49625045981358 -109.20405327670822 -129.19840794621976 -28.682218515986136 -69.90056543262595 51.839616244736064 -29.815532227304683 -39.774739142006155 29.482310286289138 40.747095618715996 -69.90056543262592 51.83961624473605 -169.283441151541 62.93213687075602 -109.98559863794725 143.45397163147823 -209.36847435686238 154.54649225749822 -169.28344115154098 62.932136870756004 -129.19840794621973 -28.682218515986207 -69.90056543262592 51.839616244735986 -29.81553222730462 -39.77473914200622 -129.1984079462197 -28.68221851598619 -69.90056543262585 51.839616244735964 -169.2834411515409 62.93213687075604 -109.9855986379471 143.45397163147823 -69.90056543262585 51.83961624473597 -29.815532227304548 -39.774739142006226 -129.19840794621962 -28.6822185159862 -89.1133747408984 -120.29657390272841 -29.81553222730455 -39.77473914200626 -129.19840794621962 -28.68221851598614 -89.11337474089842 -120.29657390272838 -188.49625045981347 -109.20405327670828 -129.19840794621962 -28.682218515986165 -69.90056543262581 51.83961624473603 -29.81553222730455 -39.7747391420062 29.482310286289312 40.74709561871594 -69.90056543262577 51.839616244736014 -29.81553222730448 -39.77473914200619 -129.1984079462196 -28.682218515986136 -89.11337474089832 -120.29657390272835 -29.815532227304505 -39.77473914200622 29.482310286289394 40.74709561871591 -69.90056543262567 51.83961624473603 -10.602722919031834 132.36145100545818 29.482310286289383 40.74709561871593 88.78015279988311 121.26893037943815 128.86518600520444 29.654574992695938 188.16302851879826 110.17640975341813 88.7801527998832 121.26893037943815 -10.602722919031894 132.36145100545818 29.482310286289348 40.747095618715974 -69.90056543262574 51.839616244736014 -10.602722919031907 132.36145100545818 29.482310286289263 40.74709561871592 88.78015279988311 121.26893037943802 128.86518600520435 29.654574992695817 29.482310286289287 40.74709561871589 -69.9005654326258 51.83961624473596 -10.602722919031958 132.3614510054581 -109.985598637947 143.4539716314782 -69.90056543262578 51.839616244735964 -10.602722919031871 132.36145100545804 -109.98559863794692 143.4539716314782 -50.687756124353086 223.97580639220033 -10.60272291903188 132.3614510054581 29.482310286289383 40.74709561871587 -69.90056543262567 51.83961624473594 -29.81553222730448 -39.77473914200628 29.482310286289366 40.747095618715825 -69.90056543262571 51.83961624473587 -10.602722919031875 132.36145100545804 -109.98559863794694 143.4539716314781 -69.90056543262571 51.83961624473589 -29.81553222730455 -39.77473914200638 29.48231028628934 40.74709561871574 69.56734349161054 -50.86725976802645 -29.815532227304505 -39.77473914200636 -129.1984079462196 -28.6822185159862 -89.1133747408984 -120.29657390272847 -188.49625045981344 -109.2040532767084 -129.19840794621962 -28.682218515986257 -69.90056543262581 51.83961624473589 -29.815532227304583 -39.77473914200634 29.482310286289295 40.74709561871577 -69.90056543262578 51.83961624473588 -29.81553222730449 -39.774739142006325 -129.1984079462196 -28.68221851598628 -89.11337474089837 -120.29657390272851 -29.81553222730451 -39.774739142006354 29.482310286289376 40.74709561871578 -69.9005654326257 51.83961624473589 -10.602722919031821 132.36145100545804 29.482310286289383 40.747095618715825 -69.9005654326257 51.83961624473584 -10.602722919031885 132.36145100545804 -109.98559863794696 143.4539716314781 -69.90056543262571 51.83961624473587 -29.815532227304452 -39.774739142006354 29.482310286289366 40.747095618715825 69.56734349161066 -50.86725976802639 -29.815532227304416 -39.77473914200636 29.48231028628942 40.74709561871579 -69.90056543262567 51.83961624473584 -10.602722919031832 132.36145100545804 29.48231028628942 40.74709561871582 69.56734349161069 -50.867259768026415 -29.815532227304367 -39.77473914200633 10.269500978016838 -131.38909452874856 69.56734349161069 -50.86725976802643 -29.815532227304384 -39.77473914200649 29.48231028628934 40.747095618715726 -69.90056543262574 51.839616244735694 -29.81553222730439 -39.77473914200648 10.269500978016886 -131.3890945287487 69.56734349161066 -50.867259768026486 109.652376696932 -142.48161515476866 10.269500978016904 -131.38909452874867 69.56734349161076 -50.867259768026514 -29.815532227304338 -39.77473914200645 29.48231028628948 40.74709561871572 69.56734349161076 -50.867259768026514 109.65237669693202 -142.4816151547687 10.26950097801694 -131.38909452874867 50.35453418333817 -223.0034499154909 109.65237669693198 -142.48161515476875 10.269500978016936 -131.3890945287486 50.354534183338124 -223.00344991549082 -49.028341535576985 -211.91092928947074 10.269500978016904 -131.38909452874864 69.56734349161076 -50.86725976802651 109.652376696932 -142.48161515476872 168.9502192105258 -61.95978039404661 69.56734349161079 -50.86725976802647 109.65237669693205 -142.4816151547687 10.269500978016984 -131.38909452874861 50.354534183338195 -223.00344991549088 109.65237669693205 -142.48161515476875 168.9502192105259 -61.95978039404668 69.56734349161084 -50.86725976802658 128.8651860052047 29.65457499269557 168.9502192105259 -61.95978039404667 209.03525241584703 -153.5741357807889 268.333094929441 -73.0523010200668 308.4181281347621 -164.6666564068091 209.0352524158471 -153.5741357807889 109.65237669693205 -142.48161515476878 168.95021921052592 -61.95978039404667 69.56734349161086 -50.86725976802651 109.65237669693198 -142.48161515476875 168.95021921052586 -61.95978039404662 209.0352524158471 -153.57413578078888 268.33309492944096 -73.05230102006676 168.95021921052592 -61.95978039404664 69.56734349161086 -50.867259768026464 109.65237669693202 -142.4816151547687 10.269500978016955 -131.38909452874861 69.56734349161087 -50.867259768026486 109.6523766969321 -142.4816151547687 10.269500978017044 -131.38909452874861 50.35453418333825 -223.00344991549088 109.6523766969321 -142.4816151547687 168.950219210526 -61.9597803940466 69.56734349161091 -50.867259768026514 128.86518600520475 29.654574992695647 168.95021921052594 -61.95978039404656 69.56734349161093 -50.86725976802642 109.65237669693207 -142.48161515476863 10.269500978017025 -131.38909452874856 69.56734349161093 -50.86725976802644 128.86518600520472 29.654574992695714 168.95021921052597 -61.95978039404654 228.24806172411988 18.56205436667559 128.86518600520483 29.654574992695725 188.16302851879874 110.1764097534178 88.78015279988371 121.26893037943796 148.07799531347757 201.79076514016012 188.16302851879874 110.17640975341786 228.24806172411996 18.562054366675603 128.86518600520495 29.654574992695697 168.9502192105261 -61.95978039404657 228.24806172412002 18.56205436667555 128.8651860052049 29.654574992695565 188.1630285187987 110.17640975341776 88.78015279988364 121.2689303794378 128.86518600520486 29.654574992695593 168.95021921052603 -61.95978039404666 228.24806172411988 18.562054366675447 268.33309492944113 -73.05230102006678 168.95021921052606 -61.95978039404668 228.24806172411988 18.562054366675458 268.33309492944113 -73.05230102006678 327.630937443035 7.4695337406553115 228.24806172411996 18.562054366675454 128.86518600520492 29.654574992695657 168.95021921052606 -61.95978039404661 69.567343491611 -50.86725976802651 128.8651860052049 29.654574992695625 168.950219210526 -61.95978039404664 228.2480617241199 18.56205436667547 268.33309492944113 -73.05230102006678 168.95021921052603 -61.95978039404662 69.56734349161098 -50.867259768026564 128.8651860052048 29.65457499269558 29.482310286289763 40.74709561871572 69.56734349161093 -50.86725976802653 109.65237669693221 -142.48161515476872 10.269500978017154 -131.38909452874867 50.354534183338394 -223.0034499154909 109.65237669693221 -142.48161515476878 168.9502192105261 -61.95978039404662 69.56734349161104 -50.86725976802656 128.8651860052049 29.654574992695625 168.9502192105261 -61.95978039404662 69.56734349161106 -50.867259768026464 109.6523766969322 -142.48161515476872 10.269500978017135 -131.38909452874861 69.56734349161103 -50.86725976802649 128.8651860052048 29.65457499269566 168.95021921052603 -61.95978039404654 228.24806172411988 18.56205436667559 128.86518600520483 29.654574992695693 168.95021921052603 -61.95978039404657 228.24806172411988 18.562054366675536 268.3330949294411 -73.05230102006668 168.9502192105261 -61.95978039404659 69.56734349161098 -50.867259768026535 128.8651860052048 29.654574992695615 29.482310286289774 40.74709561871574 69.567343491611 -50.86725976802651 128.8651860052048 29.65457499269566 168.95021921052606 -61.95978039404656 228.24806172411988 18.56205436667559 128.8651860052048 29.65457499269566 29.482310286289774 40.74709561871579 69.56734349161097 -50.86725976802644 -29.815532227304107 -39.77473914200636 29.482310286289728 40.74709561871577 -69.90056543262534 51.83961624473596 -29.81553222730418 -39.77473914200632 -129.19840794621925 -28.682218515986186 -69.90056543262534 51.83961624473592 -10.602722919031502 132.36145100545804 29.482310286289717 40.74709561871579 88.7801527998836 121.26893037943792 -10.602722919031452 132.36145100545804 29.482310286289813 40.74709561871583 -69.90056543262526 51.83961624473589 -29.81553222730404 -39.774739142006354 29.4823102862898 40.747095618715804 88.78015279988368 121.26893037943792 -10.602722919031388 132.36145100545804 48.69511959456247 212.8832857661802 88.78015279988368 121.26893037943799 -10.602722919031383 132.36145100545795 48.69511959456239 212.8832857661802 -50.68775612435273 223.97580639220016 -10.602722919031404 132.36145100545795 29.48231028628984 40.74709561871573 88.78015279988365 121.2689303794379 128.86518600520495 29.654574992695718 29.482310286289852 40.74709561871577 88.78015279988377 121.2689303794379 -10.602722919031297 132.36145100545804 48.69511959456259 212.8832857661802 88.78015279988377 121.26893037943799 128.86518600520503 29.654574992695743 29.482310286289948 40.74709561871581 69.56734349161117 -50.86725976802644 128.86518600520503 29.654574992695686 188.1630285187988 110.17640975341791 228.24806172412005 18.562054366675703 287.5459042377139 99.08388912739788 188.1630285187988 110.17640975341791 88.78015279988377 121.26893037943802 128.86518600520495 29.65457499269576 29.482310286289913 40.747095618715846 88.7801527998838 121.26893037943796 128.86518600520492 29.654574992695704 188.16302851879882 110.17640975341784 228.2480617241201 18.562054366675607 128.86518600520503 29.654574992695743 29.482310286289948 40.7470956187158 88.78015279988378 121.26893037943795 -10.60272291903127 132.36145100545804 29.482310286289938 40.74709561871581 88.78015279988388 121.26893037943792 -10.602722919031178 132.3614510054581 48.69511959456271 212.88328576618022 88.7801527998839 121.26893037943799 128.86518600520515 29.65457499269573 29.482310286290062 40.7470956187158 69.56734349161127 -50.867259768026415 128.86518600520515 29.654574992695704 29.482310286290055 40.74709561871572 88.78015279988385 121.2689303794379 -10.60272291903123 132.36145100545795 29.48231028629003 40.74709561871572 69.56734349161123 -50.867259768026514 128.86518600520506 29.6545749926956 168.95021921052628 -61.9597803940466 69.56734349161123 -50.86725976802653 109.65237669693242 -142.4816151547687 10.269500978017442 -131.38909452874867 50.35453418333871 -223.00344991549088 109.65237669693248 -142.48161515476872 168.95021921052637 -61.9597803940466 69.5673434916113 -50.867259768026514 128.86518600520517 29.65457499269565 168.95021921052637 -61.95978039404654 69.56734349161133 -50.86725976802644 109.65237669693252 -142.4816151547687 10.269500978017474 -131.3890945287486 69.56734349161138 -50.867259768026464 128.86518600520523 29.654574992695714 168.95021921052643 -61.9597803940465 228.2480617241203 18.56205436667566 128.8651860052052 29.654574992695732 168.9502192105264 -61.95978039404652 228.2480617241203 18.562054366675596 268.3330949294415 -73.05230102006662 168.95021921052643 -61.959780394046525 69.56734349161137 -50.86725976802647 128.86518600520517 29.65457499269568 29.482310286290126 40.74709561871579 69.56734349161138 -50.86725976802644 128.86518600520517 29.65457499269573 168.95021921052643 -61.9597803940465 228.2480617241203 18.56205436667566 128.8651860052052 29.654574992695732 29.48231028629014 40.74709561871585 69.56734349161134 -50.86725976802639 -29.815532227303745 -39.774739142006304 29.482310286290122 40.74709561871584 88.78015279988404 121.26893037943796 -10.60272291903101 132.36145100545812 48.69511959456286 212.88328576618022 88.78015279988405 121.26893037943805 128.8651860052053 29.65457499269581 29.48231028629023 40.74709561871588 69.56734349161142 -50.86725976802633 128.86518600520526 29.65457499269577 29.482310286290197 40.74709561871581 88.78015279988402 121.26893037943796 -10.602722919031027 132.36145100545806 29.482310286290204 40.747095618715846 69.56734349161138 -50.86725976802639 128.86518600520526 29.65457499269576 168.95021921052648 -61.959780394046454 69.56734349161147 -50.86725976802642 128.86518600520517 29.654574992695796 168.95021921052648 -61.959780394046405 228.24806172412033 18.562054366675792 128.86518600520526 29.65457499269577 29.48231028629018 40.747095618715825 69.56734349161148 -50.86725976802638 -29.815532227303617 -39.77473914200638 29.482310286290176 40.747095618715804 69.56734349161141 -50.86725976802643 128.86518600520526 29.654574992695714 168.95021921052648 -61.9597803940465 69.56734349161147 -50.86725976802643 -29.815532227303617 -39.77473914200641 29.482310286290186 40.74709561871577 -69.90056543262489 51.83961624473585 -29.815532227303617 -39.77473914200638 10.269500978017534 -131.38909452874867 69.56734349161144 -50.86725976802653 109.6523766969327 -142.48161515476875 10.269500978017634 -131.38909452874867 -89.11337474089743 -120.29657390272864 -29.815532227303606 -39.774739142006474 -129.1984079462187 -28.68221851598638 -89.11337474089743 -120.29657390272858 -29.81553222730367 -39.77473914200641 10.269500978017614 -131.38909452874861 69.56734349161147 -50.86725976802645 -29.815532227303596 -39.77473914200638 -129.19840794621868 -28.682218515986268 -89.11337474089746 -120.29657390272851 -188.4962504598125 -109.20405327670844 -129.19840794621865 -28.68221851598629 -89.11337474089733 -120.29657390272845 -188.49625045981244 -109.20405327670846 -148.41121725449116 -200.8184086634506 -89.11337474089738 -120.29657390272854 -29.81553222730349 -39.7747391420064 -129.19840794621857 -28.6822185159863 -69.90056543262469 51.83961624473585 -29.815532227303475 -39.77473914200633 -129.19840794621857 -28.682218515986165 -89.11337474089738 -120.29657390272841 -188.49625045981247 -109.20405327670835 -129.19840794621854 -28.68221851598619 -69.90056543262475 51.83961624473599 -29.815532227303482 -39.77473914200623 29.48231028629038 40.7470956187159 -69.9005654326247 51.839616244735986 -169.2834411515398 62.93213687075602 -109.98559863794591 143.4539716314782 -209.36847435686101 154.54649225749824 -169.2834411515398 62.93213687075604 -129.1984079462186 -28.68221851598619 -69.90056543262475 51.83961624473594 -29.81553222730347 -39.774739142006275 -129.19840794621854 -28.68221851598619 -69.90056543262463 51.83961624473592 -169.2834411515397 62.93213687075605 -109.98559863794584 143.4539716314782 -69.90056543262463 51.83961624473599 -29.815532227303375 -39.77473914200622 -129.19840794621848 -28.682218515986165 -89.11337474089724 -120.29657390272838 -29.815532227303375 -39.77473914200628 -129.19840794621845 -28.682218515986126 -89.11337474089727 -120.29657390272837 -188.49625045981236 -109.20405327670827 -129.19840794621848 -28.682218515986165 -69.90056543262463 51.83961624473599 -29.815532227303404 -39.77473914200623 29.482310286290488 40.74709561871589 -69.90056543262457 51.83961624473601 -29.815532227303322 -39.77473914200621 -129.19840794621842 -28.682218515986143 -89.11337474089719 -120.29657390272841 -29.815532227303326 -39.77473914200628 29.48231028629059 40.74709561871579 -69.90056543262445 51.839616244735936 -10.60272291903058 132.36145100545806 29.4823102862906 40.747095618715846 88.78015279988436 121.26893037943802 128.86518600520566 29.654574992695828 188.16302851879954 110.17640975341799 88.78015279988446 121.26893037943802 -10.602722919030583 132.36145100545815 29.48231028629062 40.747095618715896 -69.90056543262445 51.839616244735964 -10.602722919030562 132.36145100545812 29.482310286290577 40.747095618715846 88.78015279988449 121.26893037943799 128.86518600520566 29.654574992695743 29.482310286290634 40.74709561871585 -69.90056543262443 51.8396162447359 -10.602722919030578 132.3614510054581 -109.98559863794569 143.45397163147817 -69.90056543262445 51.839616244735936 -10.60272291903053 132.36145100545804 -109.98559863794561 143.45397163147817 -50.68775612435176 223.97580639220033 -10.602722919030533 132.36145100545812 29.48231028629074 40.74709561871588 -69.90056543262432 51.839616244735936 -29.81553222730313 -39.77473914200632 29.482310286290726 40.747095618715804 -69.90056543262433 51.83961624473584 -10.60272291903051 132.36145100545798 -109.98559863794556 143.45397163147808 -69.90056543262435 51.83961624473584 -29.81553222730319 -39.77473914200638 29.48231028629068 40.74709561871573 69.56734349161185 -50.86725976802654 -29.815532227303184 -39.77473914200642 -129.19840794621823 -28.68221851598619 -89.1133747408971 -120.29657390272847 -188.4962504598122 -109.20405327670831 -129.19840794621825 -28.682218515986218 -69.90056543262439 51.839616244735936 -29.81553222730319 -39.774739142006325 29.482310286290716 40.7470956187158 -69.90056543262435 51.839616244735915 -29.815532227303102 -39.77473914200632 -129.19840794621814 -28.682218515986232 -89.11337474089696 -120.29657390272847 -29.815532227303105 -39.774739142006375 29.482310286290797 40.74709561871572 -69.90056543262425 51.839616244735865 -10.602722919030391 132.36145100545804 29.482310286290804 40.74709561871576 -69.90056543262425 51.839616244735765 -10.602722919030466 132.36145100545795 -109.98559863794554 143.453971631478 -69.90056543262432 51.8396162447358 -29.815532227303095 -39.774739142006446 29.482310286290744 40.74709561871571 69.56734349161202 -50.86725976802651 -29.815532227303052 -39.774739142006446 29.48231028629083 40.74709561871566 -69.90056543262422 51.839616244735765 -10.602722919030365 132.36145100545792 29.48231028629083 40.74709561871571 69.56734349161208 -50.86725976802651 -29.81553222730298 -39.77473914200643 10.269500978018245 -131.38909452874867 69.56734349161206 -50.867259768026564 109.65237669693336 -142.48161515476878 10.269500978018291 -131.3890945287487 50.3545341833395 -223.003449915491 109.65237669693333 -142.48161515476886 168.95021921052722 -61.959780394046746 69.56734349161216 -50.86725976802662 128.86518600520603 29.654574992695544 168.9502192105272 -61.95978039404663 69.56734349161218 -50.867259768026585 109.6523766969334 -142.48161515476878 10.26950097801835 -131.38909452874876 69.56734349161215 -50.867259768026585 128.86518600520594 29.65457499269563 168.9502192105272 -61.959780394046525 228.24806172412107 18.56205436667563 128.86518600520597 29.65457499269565 168.9502192105272 -61.95978039404654 228.2480617241211 18.562054366675593 268.33309492944227 -73.05230102006662 168.95021921052725 -61.95978039404654 69.56734349161218 -50.86725976802656 128.86518600520597 29.654574992695636 29.482310286290918 40.74709561871569 69.56734349161219 -50.86725976802653 128.86518600520594 29.654574992695693 168.95021921052725 -61.95978039404652 228.24806172412107 18.56205436667567 128.86518600520597 29.654574992695693 29.482310286290925 40.74709561871576 69.56734349161215 -50.86725976802645 -29.81553222730291 -39.77473914200642 29.482310286290907 40.747095618715754 88.78015279988482 121.26893037943786 -10.6027229190302 132.36145100545804 48.69511959456364 212.88328576618017 88.78015279988483 121.26893037943796 128.86518600520608 29.654574992695725 29.482310286291018 40.74709561871579 69.56734349161225 -50.86725976802644 128.86518600520608 29.654574992695718 29.482310286291014 40.74709561871573 88.78015279988485 121.2689303794379 -10.602722919030228 132.36145100545798 29.482310286290996 40.747095618715754 69.56734349161219 -50.86725976802649 128.86518600520606 29.654574992695636 168.95021921052722 -61.95978039404661 69.56734349161219 -50.86725976802651 128.86518600520603 29.65457499269568 168.95021921052725 -61.95978039404654 228.24806172412116 18.56205436667561 128.86518600520606 29.65457499269568 29.482310286291018 40.74709561871576 69.56734349161225 -50.86725976802647 -29.815532227302814 -39.77473914200638 29.48231028629105 40.74709561871575 69.56734349161219 -50.86725976802651 128.86518600520608 29.654574992695604 168.9502192105273 -61.95978039404663 69.56734349161223 -50.867259768026514 -29.81553222730282 -39.77473914200645 29.482310286291007 40.7470956187157 -69.90056543262403 51.83961624473579 -29.81553222730282 -39.77473914200642 -129.19840794621788 -28.682218515986232 -89.11337474089676 -120.29657390272847 -188.49625045981185 -109.20405327670835 -129.19840794621788 -28.68221851598624 -69.90056543262403 51.83961624473589 -29.815532227302857 -39.774739142006354 29.482310286291085 40.74709561871576 -69.90056543262396 51.8396162447359 -29.815532227302786 -39.774739142006354 -129.19840794621783 -28.68221851598621 -89.11337474089667 -120.29657390272845 -29.81553222730282 -39.77473914200638 29.482310286291096 40.74709561871573 -69.90056543262396 51.839616244735865 -10.602722919030098 132.36145100545804 29.482310286291103 40.747095618715825 -69.90056543262396 51.839616244735865 -10.602722919030123 132.36145100545804 -109.98559863794519 143.4539716314781 -69.90056543262396 51.83961624473588 -29.815532227302775 -39.77473914200636 29.48231028629107 40.74709561871574 69.56734349161228 -50.86725976802647 -29.815532227302775 -39.774739142006375 29.48231028629114 40.747095618715726 -69.9005654326239 51.839616244735865 -10.602722919030033 132.36145100545804 29.48231028629115 40.747095618715825 69.56734349161236 -50.8672597680264 -29.815532227302686 -39.774739142006325 10.269500978018508 -131.3890945287486 69.56734349161236 -50.86725976802642 128.86518600520614 29.654574992695775 168.9502192105274 -61.959780394046426 228.24806172412124 18.562054366675742 128.86518600520617 29.6545749926958 29.482310286291128 40.74709561871589 69.56734349161235 -50.86725976802633 -29.815532227302715 -39.77473914200628 29.48231028629112 40.74709561871587 69.56734349161229 -50.86725976802637 128.86518600520617 29.65457499269578 168.9502192105274 -61.959780394046426 69.56734349161235 -50.86725976802638 -29.81553222730272 -39.77473914200636 29.48231028629106 40.747095618715804 -69.90056543262399 51.83961624473588 -29.81553222730276 -39.774739142006325 29.48231028629114 40.74709561871576 -69.9005654326239 51.83961624473589 -10.602722919030027 132.3614510054581 29.48231028629115 40.74709561871586 69.56734349161239 -50.86725976802634 -29.815532227302654 -39.7747391420063 10.269500978018549 -131.38909452874853 69.56734349161236 -50.86725976802637 -29.815532227302686 -39.774739142006325 29.482310286291163 40.74709561871581 -69.90056543262389 51.8396162447359 -29.815532227302672 -39.7747391420063 10.269500978018508 -131.38909452874853 69.56734349161236 -50.86725976802643 109.65237669693359 -142.48161515476866 10.269500978018565 -131.3890945287486"/>
</svg>