<svg baseProfile="full" fill-opacity="0.0" height="100%" stroke="black" stroke-width="1" version="1.1" viewBox="-287.8791261787291,-292.432764050193,615.5100636217643,596.9304052031158" width="100%" xmlns="http://www.w3.org/2000/svg" xmlns:ev="http://www.w3.org/2001/xml-events" xmlns:xlink="http://www.w3.org/1999/xlink"><defs /><polyline points="-29.8155322273067,-39.77473914200642 29.48231028628816,40.74709561871641 -69.9005654326271,51.83961624473616 -10.60272291903351,132.3614510054585 29.48231028628808,40.74709561871638 69.56734349160976,-50.86725976802575 -29.81553222730543,-39.77473914200599 10.2695009780162,-131.3890945287481 69.56734349160978,-50.86725976802577 -29.81553222730543,-39.77473914200603 29.48231028628812,40.74709561871634 -69.90056543262705,51.83961624473613 -29.81553222730543,-39.77473914200601 10.26950097801617,-131.3890945287482 69.56734349160976,-50.86725976802586 109.6523766969314,-142.481615154768 10.26950097801619,-131.3890945287482 69.56734349160975,-50.86725976802584 109.6523766969314,-142.481615154768 168.9502192105249,-61.95978039404561 69.56734349160976,-50.86725976802585 -29.81553222730543,-39.77473914200603 10.26950097801617,-131.3890945287482 -89.11337474089899,-120.2965739027284 -29.81553222730544,-39.77473914200606 10.26950097801615,-131.3890945287482 69.56734349160976,-50.86725976802592 109.6523766969314,-142.481615154768 10.26950097801619,-131.3890945287482 -89.11337474089898,-120.2965739027285 -29.81553222730544,-39.77473914200613 -129.1984079462206,-28.68221851598633 -89.11337474089898,-120.2965739027284 -49.02834153557727,-211.9109292894705 -148.4112172544925,-200.8184086634509 -108.3261840491708,-292.432764050193 -49.02834153557732,-211.9109292894706 10.26950097801623,-131.3890945287482 -89.11337474089893,-120.2965739027285 -29.81553222730544,-39.77473914200607 10.26950097801623,-131.3890945287482 -89.11337474089896,-120.2965739027284 -49.02834153557737,-211.9109292894705 -148.4112172544926,-200.8184086634508 -89.11337474089896,-120.2965739027284 -29.81553222730544,-39.77473914200603 10.2695009780162,-131.3890945287482 69.56734349160976,-50.86725976802584 -29.81553222730543,-39.77473914200606 10.26950097801615,-131.3890945287482 69.56734349160976,-50.86725976802592 109.6523766969314,-142.481615154768 10.26950097801621,-131.3890945287483 -89.11337474089896,-120.2965739027285 -29.81553222730541,-39.77473914200615 -129.1984079462206,-28.68221851598635 -89.11337474089895,-120.2965739027285 -29.81553222730548,-39.77473914200609 10.2695009780162,-131.3890945287482 69.56734349160976,-50.86725976802585 -29.81553222730543,-39.77473914200609 -129.1984079462206,-28.68221851598628 -89.11337474089899,-120.2965739027284 -188.4962504598141,-109.2040532767086 -129.1984079462206,-28.68221851598629 -228.5812836651357,-17.58969788996659 -169.2834411515422,62.93213687075579 -268.6663168704574,74.02465749677555 -228.5812836651357,-17.58969788996656 -188.4962504598141,-109.2040532767087 -129.1984079462206,-28.68221851598633 -89.11337474089893,-120.2965739027284 -188.4962504598141,-109.2040532767087 -129.1984079462205,-28.68221851598637 -228.5812836651356,-17.58969788996654 -169.2834411515421,62.93213687075579 -129.1984079462205,-28.68221851598631 -89.11337474089886,-120.2965739027285 -188.496250459814,-109.2040532767086 -148.4112172544925,-200.8184086634508 -89.11337474089886,-120.2965739027285 -188.496250459814,-109.2040532767086 -148.4112172544925,-200.8184086634508 -247.7940929734076,-189.725888037431 -188.496250459814,-109.2040532767086 -129.1984079462204,-28.68221851598629 -89.11337474089886,-120.2965739027284 -29.81553222730526,-39.77473914200611 -129.1984079462204,-28.68221851598629 -89.11337474089876,-120.2965739027285 -188.4962504598139,-109.2040532767086 -148.4112172544924,-200.8184086634508 -89.11337474089879,-120.2965739027285 -29.81553222730519,-39.7747391420061 -129.1984079462204,-28.68221851598631 -69.90056543262679,51.83961624473605 -29.81553222730519,-39.77473914200606 10.26950097801628,-131.3890945287482 69.56734349160995,-50.86725976802593 109.6523766969315,-142.4816151547681 10.26950097801635,-131.3890945287482 -89.1133747408988,-120.2965739027284 -29.81553222730521,-39.7747391420061 -129.1984079462204,-28.68221851598624 -89.1133747408988,-120.2965739027284 -29.81553222730527,-39.77473914200606 10.26950097801632,-131.3890945287482 69.56734349160995,-50.86725976802589 -29.81553222730523,-39.77473914200607 -129.1984079462204,-28.68221851598625 -89.1133747408988,-120.2965739027284 -188.496250459814,-109.2040532767086 -129.1984079462204,-28.68221851598629 -89.11337474089876,-120.2965739027284 -188.4962504598139,-109.2040532767086 -148.4112172544924,-200.8184086634508 -89.11337474089876,-120.2965739027284 -29.81553222730518,-39.77473914200608 -129.1984079462204,-28.68221851598631 -69.90056543262683,51.83961624473606 -29.81553222730522,-39.77473914200605 -129.1984079462204,-28.68221851598623 -89.1133747408988,-120.2965739027284 -188.496250459814,-109.2040532767086 -129.1984079462204,-28.68221851598623 -69.90056543262683,51.83961624473613 -29.81553222730524,-39.77473914200598 29.48231028628835,40.74709561871634 -69.90056543262683,51.83961624473616 -10.60272291903328,132.3614510054585 29.48231028628834,40.74709561871644 88.78015279988185,121.2689303794388 -10.60272291903327,132.3614510054585 -109.9855986379484,143.4539716314784 -69.90056543262683,51.83961624473623 -169.283441151542,62.932136870756 -109.9855986379484,143.4539716314783 -69.90056543262685,51.83961624473621 -10.60272291903326,132.3614510054585 29.48231028628836,40.74709561871641 -69.90056543262679,51.8396162447362 -169.2834411515421,62.93213687075595 -109.9855986379484,143.4539716314782 -209.3684743568637,154.5464922574981 -169.283441151542,62.93213687075595 -109.9855986379484,143.4539716314782 -209.3684743568636,154.5464922574981 -150.0706318432699,235.0683270182204 -109.9855986379484,143.4539716314782 -69.90056543262679,51.83961624473616 -169.2834411515419,62.93213687075598 -129.1984079462204,-28.68221851598618 -69.90056543262682,51.83961624473616 -169.2834411515421,62.93213687075589 -109.9855986379484,143.4539716314782 -209.3684743568637,154.5464922574981 -169.283441151542,62.93213687075593 -129.1984079462204,-28.68221851598623 -69.90056543262683,51.83961624473613 -29.8155322273052,-39.77473914200599 -129.1984079462204,-28.68221851598623 -228.5812836651355,-17.58969788996633 -188.496250459814,-109.2040532767085 -287.8791261787291,-98.11153265068866 -228.5812836651355,-17.58969788996634 -169.283441151542,62.932136870756 -129.1984079462204,-28.68221851598618 -69.90056543262676,51.83961624473613 -169.2834411515419,62.932136870756 -129.1984079462203,-28.68221851598615 -228.5812836651355,-17.58969788996637 -188.4962504598139,-109.2040532767085 -129.1984079462203,-28.68221851598619 -69.90056543262672,51.83961624473613 -169.2834411515419,62.93213687075595 -109.9855986379484,143.4539716314782 -69.90056543262678,51.83961624473611 -169.2834411515419,62.93213687075584 -109.9855986379484,143.4539716314782 -209.3684743568636,154.546492257498 -169.2834411515419,62.93213687075586 -129.1984079462204,-28.68221851598631 -69.90056543262676,51.839616244736 -29.81553222730515,-39.77473914200613 -129.1984079462203,-28.68221851598635 -69.90056543262668,51.83961624473595 -169.2834411515418,62.93213687075579 -109.9855986379483,143.4539716314782 -69.90056543262668,51.83961624473595 -29.81553222730508,-39.77473914200618 -129.1984079462202,-28.68221851598641 -89.11337474089865,-120.2965739027285 -29.81553222730508,-39.77473914200615 10.26950097801641,-131.3890945287484 69.56734349161003,-50.86725976802604 109.6523766969317,-142.4816151547682 10.26950097801646,-131.3890945287484 -89.11337474089868,-120.2965739027286 -29.81553222730515,-39.77473914200623 -129.1984079462203,-28.6822185159864 -89.11337474089868,-120.2965739027285 -29.81553222730516,-39.77473914200619 10.26950097801642,-131.3890945287483 69.56734349161005,-50.86725976802597 -29.81553222730512,-39.77473914200615 -129.1984079462203,-28.68221851598634 -89.11337474089872,-120.2965739027285 -188.4962504598139,-109.2040532767087 -129.1984079462203,-28.68221851598635 -89.11337474089868,-120.2965739027285 -188.4962504598138,-109.2040532767087 -148.4112172544923,-200.8184086634508 -89.1133747408987,-120.2965739027285 -29.81553222730509,-39.77473914200615 -129.1984079462202,-28.68221851598633 -69.90056543262666,51.83961624473602 -29.81553222730509,-39.77473914200611 -129.1984079462202,-28.68221851598621 -89.1133747408987,-120.2965739027284 -188.4962504598139,-109.2040532767086 -129.1984079462203,-28.68221851598626 -69.90056543262672,51.83961624473611 -29.81553222730516,-39.77473914200601 29.48231028628844,40.74709561871632 -69.90056543262672,51.83961624473613 -169.2834411515419,62.93213687075587 -109.9855986379484,143.4539716314782 -209.3684743568636,154.546492257498 -169.2834411515419,62.93213687075591 -129.1984079462204,-28.68221851598627 -69.90056543262673,51.83961624473605 -29.81553222730512,-39.77473914200609 -129.1984079462203,-28.6822185159863 -69.90056543262668,51.839616244736 -169.2834411515418,62.93213687075582 -109.9855986379483,143.4539716314782 -69.90056543262666,51.83961624473607 -29.81553222730505,-39.77473914200606 -129.1984079462202,-28.68221851598628 -89.11337474089864,-120.2965739027284 -29.81553222730507,-39.7747391420061 -129.1984079462202,-28.6822185159862 -89.11337474089866,-120.2965739027284 -188.4962504598138,-109.2040532767085 -129.1984079462202,-28.68221851598626 -69.90056543262666,51.83961624473611 -29.81553222730508,-39.77473914200603 29.48231028628851,40.74709561871627 -69.90056543262664,51.83961624473609 -29.815532227305,-39.77473914200603 -129.1984079462202,-28.68221851598625 -89.11337474089858,-120.2965739027284 -29.81553222730502,-39.77473914200606 29.48231028628856,40.74709561871624 -69.90056543262658,51.83961624473605 -10.60272291903306,132.3614510054584 29.48231028628855,40.74709561871624 69.56734349161025,-50.86725976802584 -29.81553222730491,-39.77473914200615 10.26950097801677,-131.3890945287483 69.56734349161025,-50.86725976802584 128.8651860052038,29.65457499269654 29.48231028628861,40.74709561871623 88.78015279988213,121.2689303794387 128.8651860052038,29.65457499269658 29.48231028628862,40.74709561871629 69.56734349161023,-50.8672597680258 -29.81553222730488,-39.77473914200613 29.4823102862886,40.74709561871627 88.78015279988203,121.2689303794387 128.8651860052038,29.65457499269666 188.1630285187972,110.1764097534191 88.78015279988203,121.2689303794388 128.8651860052037,29.65457499269664 188.1630285187972,110.1764097534189 228.248061724119,18.56205436667692 128.8651860052038,29.6545749926966 29.48231028628856,40.74709561871624 88.78015279988203,121.2689303794387 -10.60272291903316,132.3614510054583 29.48231028628856,40.74709561871624 88.78015279988193,121.2689303794387 128.8651860052037,29.65457499269663 188.1630285187971,110.1764097534191 88.78015279988193,121.2689303794387 -10.60272291903321,132.3614510054583 29.48231028628849,40.74709561871624 -69.90056543262668,51.83961624473589 -10.60272291903324,132.3614510054583 48.6951195945603,212.8832857661807 -50.68775612435486,223.9758063922004 8.610086389238647,304.4976411529228 48.6951195945603,212.8832857661807 88.78015279988203,121.2689303794387 -10.60272291903313,132.3614510054583 29.48231028628857,40.74709561871622 88.78015279988203,121.2689303794387 -10.60272291903312,132.3614510054582 48.6951195945603,212.8832857661807 -50.68775612435486,223.9758063922004 -10.60272291903313,132.3614510054583 29.48231028628854,40.74709561871619 88.78015279988202,121.2689303794386 128.8651860052038,29.65457499269657 29.48231028628861,40.7470956187162 88.78015279988203,121.2689303794387 128.8651860052038,29.65457499269662 188.1630285187972,110.1764097534191 88.78015279988203,121.2689303794387 -10.60272291903313,132.3614510054583 29.48231028628858,40.74709561871624 -69.90056543262658,51.83961624473588 -10.60272291903313,132.3614510054583 29.48231028628854,40.74709561871619 88.78015279988202,121.2689303794386 128.8651860052038,29.6545749926966 29.48231028628861,40.74709561871622 -69.90056543262655,51.83961624473581 -10.60272291903317,132.3614510054582 -109.9855986379483,143.4539716314779 -69.90056543262659,51.83961624473584 -169.2834411515417,62.93213687075556 -129.1984079462201,-28.68221851598654 -228.5812836651353,-17.58969788996681 -169.2834411515417,62.93213687075554 -109.9855986379483,143.4539716314779 -69.90056543262659,51.83961624473591 -10.6027229190331,132.3614510054583 -109.9855986379482,143.4539716314781 -69.90056543262654,51.83961624473593 -169.2834411515416,62.93213687075557 -129.19840794622,-28.68221851598651 -69.9005654326265,51.83961624473593 -10.60272291903297,132.3614510054583 -109.9855986379481,143.453971631478 -50.68775612435465,223.9758063922004 -10.60272291903297,132.3614510054583 -109.9855986379482,143.4539716314779 -50.68775612435471,223.9758063922004 -150.0706318432698,235.06832701822 -109.9855986379482,143.4539716314779 -69.90056543262648,51.83961624473586 -10.60272291903301,132.3614510054583 29.48231028628874,40.74709561871622 -69.90056543262644,51.83961624473586 -10.60272291903293,132.3614510054583 -109.9855986379481,143.4539716314779 -50.68775612435459,223.9758063922004 -10.6027229190329,132.3614510054583 29.48231028628884,40.74709561871629 -69.90056543262634,51.83961624473592 -29.81553222730464,-39.77473914200618 29.48231028628884,40.74709561871627 88.78015279988223,121.2689303794387 128.865186005204,29.65457499269668 188.1630285187974,110.1764097534191 88.78015279988223,121.2689303794387 -10.6027229190329,132.3614510054584 29.48231028628881,40.7470956187163 -69.90056543262637,51.83961624473596 -10.6027229190329,132.3614510054584 29.48231028628878,40.74709561871627 88.78015279988222,121.2689303794386 128.865186005204,29.65457499269662 29.48231028628884,40.74709561871627 -69.90056543262634,51.83961624473584 -10.60272291903293,132.3614510054583 -109.9855986379481,143.4539716314779 -69.90056543262635,51.83961624473586 -10.60272291903283,132.3614510054583 -109.985598637948,143.4539716314779 -50.6877561243546,223.9758063922004 -10.60272291903286,132.3614510054583 29.48231028628886,40.74709561871624 -69.90056543262632,51.83961624473588 -29.81553222730462,-39.77473914200621 29.48231028628887,40.74709561871622 -69.9005654326263,51.83961624473584 -10.60272291903286,132.3614510054583 -109.985598637948,143.4539716314779 -69.90056543262632,51.83961624473588 -29.81553222730464,-39.77473914200624 29.48231028628885,40.74709561871619 69.56734349161061,-50.86725976802589 -29.81553222730458,-39.77473914200625 10.26950097801702,-131.3890945287484 69.56734349161061,-50.86725976802602 109.6523766969321,-142.4816151547681 10.26950097801705,-131.3890945287484 -89.11337474089814,-120.2965739027286 -29.81553222730462,-39.77473914200627 -129.1984079462198,-28.68221851598646 -89.11337474089814,-120.2965739027286 -29.8155322273046,-39.77473914200623 10.26950097801702,-131.3890945287484 69.5673434916106,-50.86725976802602 -29.81553222730457,-39.77473914200625 -129.1984079462197,-28.68221851598641 -89.11337474089812,-120.2965739027286 -188.4962504598134,-109.2040532767088 -129.1984079462197,-28.68221851598644 -89.11337474089808,-120.2965739027286 -188.4962504598132,-109.2040532767088 -148.4112172544917,-200.818408663451 -89.11337474089808,-120.2965739027286 -29.81553222730453,-39.77473914200635 -129.1984079462196,-28.68221851598653 -69.9005654326261,51.83961624473582 -29.81553222730454,-39.77473914200635 -129.1984079462196,-28.68221851598647 -89.11337474089814,-120.2965739027286 -188.4962504598134,-109.2040532767088 -129.1984079462197,-28.68221851598649 -69.90056543262617,51.83961624473586 -29.81553222730456,-39.77473914200626 29.48231028628901,40.74709561871609 -69.90056543262614,51.83961624473586 -169.2834411515413,62.93213687075556 -109.9855986379478,143.4539716314779 -209.368474356863,154.5464922574977 -169.2834411515413,62.93213687075554 -129.1984079462196,-28.68221851598659 -69.90056543262615,51.83961624473579 -29.81553222730449,-39.77473914200633 -129.1984079462196,-28.68221851598657 -69.90056543262607,51.83961624473577 -169.2834411515413,62.93213687075556 -109.9855986379476,143.4539716314779 -69.90056543262605,51.83961624473579 -29.81553222730441,-39.77473914200633 -129.1984079462196,-28.6822185159866 -89.11337474089797,-120.2965739027287 -29.81553222730442,-39.77473914200637 -129.1984079462195,-28.6822185159865 -89.113374740898,-120.2965739027287 -188.4962504598132,-109.2040532767089 -129.1984079462195,-28.68221851598653 -69.90056543262602,51.83961624473584 -29.81553222730441,-39.77473914200631 29.48231028628917,40.74709561871602 -69.900565432626,51.83961624473582 -29.81553222730435,-39.7747391420063 -129.1984079462195,-28.68221851598652 -89.11337474089791,-120.2965739027287 -29.81553222730436,-39.77473914200632 29.48231028628926,40.74709561871599 -69.9005654326259,51.83961624473582 -10.60272291903234,132.3614510054581 29.48231028628925,40.74709561871602 88.78015279988273,121.2689303794385 128.8651860052044,29.6545749926963 188.163028518798,110.1764097534187 88.78015279988281,121.2689303794384 -10.60272291903236,132.3614510054582 29.48231028628922,40.74709561871607 -69.90056543262594,51.83961624473582 -10.60272291903242,132.3614510054581 29.48231028628914,40.74709561871601 88.7801527998827,121.2689303794383 128.8651860052043,29.65457499269619 29.48231028628916,40.74709561871598 -69.90056543262598,51.83961624473575 -10.60272291903245,132.3614510054581 -109.9855986379476,143.4539716314779 -69.900565432626,51.83961624473577 -10.60272291903236,132.361451005458 -109.9855986379475,143.453971631478 -50.68775612435395,223.9758063922002 -10.60272291903236,132.3614510054581 29.48231028628925,40.74709561871595 -69.9005654326259,51.83961624473574 -29.81553222730435,-39.7747391420064 29.48231028628923,40.74709561871591 -69.90056543262591,51.83961624473568 -10.60272291903236,132.361451005458 -109.9855986379475,143.4539716314779 -69.90056543262594,51.83961624473569 -29.81553222730441,-39.77473914200649 29.48231028628921,40.74709561871583 69.56734349161079,-50.86725976802628 -29.81553222730436,-39.77473914200646 -129.1984079462195,-28.68221851598659 -89.11337474089798,-120.2965739027288 -188.4962504598132,-109.204053276709 -129.1984079462196,-28.68221851598664 -69.90056543262602,51.8396162447357 -29.81553222730443,-39.77473914200644 29.48231028628916,40.74709561871585 -69.900565432626,51.83961624473569 -29.81553222730436,-39.77473914200644 -129.1984079462195,-28.68221851598667 -89.11337474089795,-120.2965739027288 -29.81553222730438,-39.77473914200647 29.48231028628924,40.74709561871586 -69.9005654326259,51.83961624473568 -10.6027229190323,132.361451005458 29.48231028628925,40.74709561871592 -69.9005654326259,51.83961624473564 -10.60272291903239,132.361451005458 -109.9855986379476,143.4539716314778 -69.90056543262591,51.83961624473568 -29.81553222730431,-39.77473914200646 29.48231028628923,40.74709561871591 69.56734349161088,-50.86725976802622 -29.81553222730428,-39.77473914200647 29.48231028628929,40.74709561871588 -69.90056543262588,51.83961624473564 -10.60272291903232,132.3614510054581 29.48231028628928,40.7470956187159 69.5673434916109,-50.86725976802622 -29.81553222730422,-39.77473914200644 10.26950097801735,-131.3890945287486 69.5673434916109,-50.86725976802624 -29.81553222730424,-39.7747391420066 29.48231028628921,40.74709561871582 -69.90056543262595,51.83961624473551 -29.81553222730425,-39.77473914200659 10.26950097801737,-131.3890945287487 69.56734349161088,-50.8672597680263 109.6523766969325,-142.4816151547684 10.26950097801738,-131.3890945287487 69.56734349161097,-50.86725976802634 -29.8155322273042,-39.77473914200656 29.48231028628934,40.7470956187158 69.56734349161097,-50.86725976802634 109.6523766969326,-142.4816151547685 10.26950097801743,-131.3890945287487 50.35453418333904,-223.0034499154908 109.6523766969326,-142.4816151547685 10.26950097801744,-131.3890945287486 50.35453418333898,-223.0034499154908 -49.02834153557619,-211.9109292894709 10.2695009780174,-131.3890945287487 69.56734349161097,-50.8672597680263 109.6523766969325,-142.4816151547685 168.9502192105261,-61.95978039404614 69.56734349161097,-50.8672597680263 109.6523766969326,-142.4816151547684 10.26950097801746,-131.3890945287487 50.35453418333903,-223.0034499154908 109.6523766969326,-142.4816151547685 168.9502192105263,-61.95978039404623 69.56734349161107,-50.86725976802639 128.8651860052046,29.65457499269597 168.9502192105263,-61.95978039404623 209.0352524158477,-153.5741357807884 268.3330949294414,-73.05230102006608 308.4181281347629,-164.6666564068082 209.0352524158477,-153.5741357807884 109.6523766969326,-142.4816151547685 168.9502192105263,-61.95978039404623 69.56734349161108,-50.86725976802632 109.6523766969326,-142.4816151547685 168.9502192105263,-61.95978039404618 209.0352524158477,-153.5741357807883 268.3330949294414,-73.05230102006604 168.9502192105263,-61.95978039404618 69.56734349161108,-50.86725976802628 109.6523766969326,-142.4816151547684 10.26950097801745,-131.3890945287486 69.56734349161108,-50.86725976802632 109.6523766969327,-142.4816151547684 10.26950097801754,-131.3890945287487 50.35453418333903,-223.0034499154908 109.6523766969327,-142.4816151547685 168.9502192105263,-61.95978039404618 69.56734349161117,-50.86725976802634 128.8651860052047,29.65457499269604 168.9502192105263,-61.95978039404609 69.56734349161117,-50.86725976802625 109.6523766969327,-142.4816151547684 10.26950097801751,-131.3890945287486 69.56734349161118,-50.86725976802627 128.8651860052047,29.65457499269609 168.9502192105263,-61.95978039404608 228.24806172412,18.56205436667624 128.8651860052048,29.65457499269611 188.1630285187984,110.1764097534184 88.78015279988333,121.2689303794382 148.0779953134769,201.7907651401605 188.1630285187984,110.1764097534184 228.24806172412,18.56205436667626 128.8651860052049,29.65457499269607 168.9502192105264,-61.95978039404611 228.2480617241201,18.56205436667621 128.8651860052049,29.65457499269594 188.1630285187984,110.1764097534183 88.7801527998833,121.268930379438 128.8651860052048,29.65457499269598 168.9502192105263,-61.95978039404621 228.24806172412,18.56205436667611 268.3330949294415,-73.05230102006603 168.9502192105263,-61.95978039404623 228.24806172412,18.56205436667612 268.3330949294415,-73.05230102006603 327.6309374430352,7.469533740656277 228.2480617241201,18.56205436667612 128.8651860052049,29.65457499269603 168.9502192105263,-61.95978039404616 69.56734349161117,-50.86725976802632 128.8651860052048,29.65457499269598 168.9502192105263,-61.95978039404618 228.24806172412,18.56205436667613 268.3330949294415,-73.05230102006603 168.9502192105263,-61.95978039404618 69.56734349161115,-50.86725976802638 128.8651860052048,29.65457499269596 29.48231028628964,40.74709561871581 69.56734349161115,-50.86725976802634 109.6523766969328,-142.4816151547685 10.26950097801764,-131.3890945287487 50.35453418333926,-223.0034499154908 109.6523766969328,-142.4816151547685 168.9502192105264,-61.95978039404618 69.56734349161128,-50.86725976802636 128.8651860052048,29.65457499269598 168.9502192105264,-61.95978039404618 69.56734349161128,-50.86725976802628 109.6523766969328,-142.4816151547685 10.26950097801764,-131.3890945287486 69.56734349161128,-50.86725976802632 128.8651860052048,29.65457499269604 168.9502192105263,-61.95978039404608 228.24806172412,18.56205436667624 128.8651860052048,29.65457499269608 168.9502192105263,-61.95978039404613 228.24806172412,18.56205436667621 268.3330949294414,-73.05230102006594 168.9502192105263,-61.95978039404612 69.56734349161115,-50.86725976802634 128.8651860052048,29.65457499269598 29.48231028628964,40.74709561871583 69.56734349161117,-50.86725976802632 128.8651860052048,29.65457499269604 168.9502192105263,-61.95978039404609 228.24806172412,18.56205436667624 128.8651860052048,29.65457499269604 29.48231028628965,40.74709561871589 69.56734349161118,-50.86725976802627 -29.81553222730398,-39.77473914200649 29.4823102862896,40.74709561871585 -69.90056543262554,51.83961624473575 -29.81553222730402,-39.7747391420064 -129.1984079462192,-28.68221851598658 -69.90056543262558,51.83961624473572 -10.60272291903198,132.3614510054581 29.48231028628957,40.74709561871587 88.78015279988318,121.2689303794382 -10.60272291903193,132.3614510054581 29.48231028628969,40.74709561871592 -69.90056543262547,51.8396162447357 -29.8155322273039,-39.77473914200645 29.48231028628967,40.74709561871589 88.78015279988333,121.2689303794382 -10.60272291903186,132.361451005458 48.69511959456175,212.8832857661803 88.78015279988333,121.2689303794382 -10.60272291903186,132.361451005458 48.69511959456162,212.8832857661803 -50.68775612435356,223.9758063922001 -10.60272291903186,132.361451005458 29.48231028628972,40.74709561871583 88.78015279988333,121.2689303794382 128.8651860052049,29.6545749926961 29.48231028628973,40.74709561871586 88.7801527998834,121.2689303794381 -10.60272291903176,132.361451005458 48.69511959456181,212.8832857661803 88.78015279988341,121.2689303794382 128.865186005205,29.65457499269611 29.48231028628982,40.7470956187159 69.5673434916114,-50.86725976802627 128.865186005205,29.65457499269606 188.1630285187984,110.1764097534185 228.2480617241202,18.56205436667637 287.5459042377136,99.08388912739873 188.1630285187984,110.1764097534185 88.78015279988333,121.2689303794382 128.8651860052049,29.65457499269615 29.48231028628979,40.74709561871594 88.78015279988341,121.2689303794382 128.8651860052049,29.65457499269608 188.1630285187985,110.1764097534184 228.2480617241202,18.56205436667629 128.865186005205,29.65457499269611 29.48231028628982,40.74709561871589 88.78015279988341,121.2689303794382 -10.60272291903174,132.361451005458 29.48231028628981,40.74709561871591 88.78015279988352,121.2689303794382 -10.60272291903168,132.361451005458 48.69511959456199,212.8832857661804 88.78015279988352,121.2689303794382 128.8651860052051,29.65457499269611 29.48231028628994,40.74709561871589 69.5673434916115,-50.86725976802623 128.8651860052051,29.65457499269608 29.48231028628992,40.7470956187158 88.78015279988351,121.2689303794381 -10.6027229190317,132.361451005458 29.4823102862899,40.74709561871581 69.56734349161148,-50.86725976802634 128.865186005205,29.65457499269596 168.9502192105266,-61.95978039404616 69.5673434916115,-50.86725976802636 109.6523766969331,-142.4816151547684 10.26950097801789,-131.3890945287487 50.35453418333953,-223.0034499154908 109.6523766969331,-142.4816151547685 168.9502192105267,-61.95978039404616 69.56734349161158,-50.86725976802634 128.8651860052051,29.65457499269603 168.9502192105267,-61.95978039404608 69.56734349161158,-50.86725976802627 109.652376696933,-142.4816151547684 10.26950097801797,-131.3890945287486 69.56734349161158,-50.86725976802628 128.8651860052052,29.65457499269607 168.9502192105267,-61.95978039404603 228.2480617241202,18.56205436667632 128.8651860052051,29.65457499269611 168.9502192105267,-61.95978039404607 228.2480617241203,18.56205436667627 268.3330949294419,-73.0523010200659 168.9502192105267,-61.95978039404607 69.56734349161158,-50.86725976802629 128.8651860052051,29.65457499269606 29.48231028629001,40.74709561871588 69.56734349161158,-50.86725976802627 128.8651860052051,29.65457499269611 168.9502192105267,-61.95978039404603 228.2480617241202,18.56205436667632 128.8651860052051,29.65457499269611 29.48231028629001,40.74709561871594 69.5673434916116,-50.86725976802621 -29.81553222730361,-39.7747391420064 29.48231028628999,40.74709561871592 88.78015279988361,121.2689303794382 -10.60272291903154,132.361451005458 48.69511959456211,212.8832857661804 88.78015279988362,121.2689303794383 128.8651860052052,29.6545749926962 29.4823102862901,40.74709561871597 69.56734349161158,-50.86725976802616 128.8651860052052,29.65457499269615 29.48231028629007,40.7470956187159 88.78015279988361,121.2689303794382 -10.60272291903154,132.361451005458 29.48231028629007,40.74709561871593 69.5673434916116,-50.86725976802621 128.8651860052052,29.65457499269614 168.9502192105268,-61.95978039404601 69.56734349161167,-50.86725976802624 128.8651860052051,29.65457499269617 168.9502192105269,-61.95978039404596 228.2480617241204,18.56205436667645 128.8651860052052,29.65457499269615 29.48231028629005,40.7470956187159 69.56734349161168,-50.8672597680262 -29.81553222730349,-39.7747391420065 29.48231028629003,40.74709561871588 69.56734349161158,-50.86725976802624 128.8651860052052,29.65457499269609 168.9502192105268,-61.95978039404605 69.56734349161168,-50.86725976802625 -29.81553222730349,-39.77473914200651 29.48231028629006,40.74709561871586 -69.90056543262509,51.83961624473565 -29.81553222730349,-39.7747391420065 10.26950097801801,-131.3890945287487 69.56734349161168,-50.86725976802634 109.6523766969333,-142.4816151547685 10.26950097801812,-131.3890945287487 -89.11337474089704,-120.2965739027289 -29.81553222730347,-39.77473914200657 -129.1984079462186,-28.68221851598675 -89.11337474089704,-120.2965739027289 -29.81553222730354,-39.77473914200652 10.26950097801809,-131.3890945287486 69.56734349161168,-50.86725976802627 -29.81553222730346,-39.77473914200649 -129.1984079462186,-28.68221851598665 -89.11337474089704,-120.2965739027288 -188.4962504598122,-109.204053276709 -129.1984079462186,-28.68221851598668 -89.11337474089696,-120.2965739027288 -188.4962504598122,-109.204053276709 -148.4112172544905,-200.8184086634512 -89.11337474089697,-120.2965739027288 -29.81553222730334,-39.77473914200651 -129.1984079462185,-28.6822185159867 -69.90056543262489,51.83961624473566 -29.81553222730334,-39.77473914200645 -129.1984079462185,-28.68221851598657 -89.11337474089697,-120.2965739027287 -188.4962504598121,-109.2040532767089 -129.1984079462185,-28.68221851598659 -69.90056543262496,51.83961624473581 -29.81553222730336,-39.77473914200635 29.48231028629025,40.74709561871598 -69.9005654326249,51.83961624473579 -169.2834411515401,62.93213687075554 -109.9855986379465,143.4539716314779 -209.3684743568617,154.5464922574977 -169.28344115154,62.93213687075556 -129.1984079462185,-28.68221851598658 -69.90056543262493,51.83961624473575 -29.81553222730334,-39.77473914200638 -129.1984079462185,-28.68221851598658 -69.90056543262483,51.83961624473572 -169.28344115154,62.93213687075556 -109.9855986379464,143.4539716314779 -69.90056543262483,51.83961624473581 -29.81553222730324,-39.77473914200634 -129.1984079462184,-28.68221851598654 -89.11337474089687,-120.2965739027287 -29.81553222730324,-39.7747391420064 -129.1984079462184,-28.68221851598651 -89.11337474089689,-120.2965739027287 -188.496250459812,-109.2040532767088 -129.1984079462184,-28.68221851598654 -69.90056543262484,51.83961624473581 -29.81553222730327,-39.77473914200634 29.48231028629035,40.74709561871597 -69.90056543262479,51.83961624473581 -29.81553222730318,-39.77473914200633 -129.1984079462183,-28.68221851598655 -89.11337474089682,-120.2965739027287 -29.81553222730319,-39.77473914200639 29.48231028629046,40.74709561871587 -69.90056543262466,51.83961624473575 -10.60272291903107,132.3614510054581 29.48231028629047,40.74709561871593 88.78015279988404,121.2689303794383 128.8651860052056,29.65457499269618 188.1630285187992,110.1764097534185 88.78015279988412,121.2689303794383 -10.60272291903107,132.3614510054581 29.48231028629049,40.74709561871598 -69.90056543262465,51.83961624473579 -10.60272291903103,132.3614510054581 29.48231028629046,40.74709561871594 88.78015279988412,121.2689303794383 128.8651860052056,29.65457499269611 29.48231028629051,40.74709561871595 -69.90056543262465,51.83961624473572 -10.60272291903107,132.3614510054581 -109.9855986379462,143.4539716314779 -69.90056543262466,51.83961624473575 -10.602722919031,132.3614510054581 -109.9855986379461,143.4539716314779 -50.68775612435257,223.9758063922003 -10.602722919031,132.3614510054581 29.48231028629059,40.74709561871597 -69.90056543262453,51.83961624473575 -29.815532227303,-39.77473914200641 29.4823102862906,40.74709561871589 -69.90056543262456,51.83961624473565 -10.60272291903097,132.361451005458 -109.9855986379461,143.4539716314778 -69.90056543262456,51.83961624473565 -29.81553222730305,-39.77473914200648 29.48231028629054,40.74709561871581 69.56734349161208,-50.86725976802636 -29.81553222730304,-39.77473914200652 -129.1984079462182,-28.68221851598658 -89.11337474089675,-120.2965739027288 -188.4962504598118,-109.2040532767089 -129.1984079462182,-28.68221851598659 -69.90056543262462,51.83961624473575 -29.81553222730306,-39.77473914200642 29.48231028629058,40.74709561871587 -69.90056543262456,51.83961624473572 -29.81553222730297,-39.77473914200641 -129.1984079462181,-28.68221851598661 -89.11337474089657,-120.2965739027288 -29.81553222730297,-39.77473914200647 29.48231028629067,40.74709561871581 -69.90056543262449,51.83961624473567 -10.60272291903086,132.361451005458 29.48231028629067,40.74709561871585 -69.90056543262448,51.83961624473559 -10.60272291903093,132.361451005458 -109.9855986379461,143.4539716314777 -69.9005654326245,51.83961624473561 -29.81553222730296,-39.77473914200655 29.48231028629063,40.7470956187158 69.56734349161229,-50.86725976802634 -29.81553222730292,-39.77473914200657 29.4823102862907,40.74709561871574 -69.90056543262443,51.83961624473558 -10.60272291903082,132.361451005458 29.4823102862907,40.7470956187158 69.56734349161226,-50.86725976802634 -29.81553222730285,-39.77473914200655 10.26950097801867,-131.3890945287487 69.56734349161228,-50.86725976802639 109.6523766969339,-142.4816151547685 10.26950097801875,-131.3890945287488 50.35453418334028,-223.0034499154909 109.6523766969338,-142.4816151547686 168.9502192105275,-61.95978039404629 69.56734349161232,-50.86725976802643 128.865186005206,29.65457499269589 168.9502192105275,-61.95978039404622 69.56734349161235,-50.86725976802641 109.6523766969339,-142.4816151547685 10.26950097801883,-131.3890945287488 69.56734349161235,-50.86725976802641 128.8651860052059,29.65457499269599 168.9502192105275,-61.95978039404609 228.248061724121,18.56205436667631 128.8651860052059,29.65457499269603 168.9502192105275,-61.95978039404611 228.248061724121,18.56205436667624 268.3330949294427,-73.05230102006587 168.9502192105275,-61.95978039404611 69.56734349161236,-50.86725976802638 128.8651860052059,29.65457499269599 29.48231028629079,40.74709561871578 69.56734349161238,-50.86725976802636 128.8651860052059,29.65457499269604 168.9502192105275,-61.95978039404607 228.248061724121,18.56205436667634 128.8651860052059,29.65457499269604 29.48231028629079,40.74709561871585 69.56734349161236,-50.86725976802627 -29.81553222730278,-39.77473914200652 29.48231028629078,40.74709561871583 88.78015279988442,121.2689303794381 -10.6027229190307,132.361451005458 48.69511959456293,212.8832857661803 88.78015279988443,121.2689303794382 128.865186005206,29.65457499269608 29.48231028629089,40.74709561871588 69.56734349161249,-50.86725976802628 128.865186005206,29.65457499269607 29.48231028629089,40.74709561871583 88.78015279988443,121.2689303794382 -10.60272291903069,132.361451005458 29.48231028629087,40.74709561871585 69.56734349161239,-50.86725976802632 128.8651860052059,29.65457499269598 168.9502192105275,-61.95978039404616 69.56734349161236,-50.86725976802634 128.865186005206,29.65457499269602 168.9502192105275,-61.95978039404611 228.2480617241211,18.56205436667625 128.865186005206,29.65457499269602 29.48231028629089,40.74709561871585 69.56734349161246,-50.86725976802629 -29.81553222730268,-39.77473914200649 29.48231028629092,40.74709561871583 69.56734349161236,-50.86725976802634 128.865186005206,29.65457499269596 168.9502192105275,-61.95978039404618 69.56734349161246,-50.86725976802636 -29.81553222730269,-39.77473914200657 29.48231028629088,40.74709561871578 -69.90056543262423,51.83961624473559 -29.8155322273027,-39.77473914200654 -129.1984079462178,-28.68221851598661 -89.11337474089636,-120.2965739027288 -188.4962504598115,-109.2040532767089 -129.1984079462178,-28.68221851598663 -69.90056543262423,51.8396162447357 -29.81553222730272,-39.77473914200646 29.48231028629095,40.74709561871585 -69.90056543262416,51.83961624473572 -29.81553222730265,-39.77473914200646 -129.1984079462178,-28.68221851598659 -89.11337474089628,-120.2965739027288 -29.81553222730268,-39.77473914200649 29.48231028629096,40.74709561871582 -69.90056543262416,51.83961624473566 -10.60272291903057,132.361451005458 29.48231028629096,40.74709561871591 -69.90056543262416,51.83961624473566 -10.60272291903058,132.361451005458 -109.9855986379457,143.4539716314778 -69.90056543262418,51.83961624473569 -29.81553222730265,-39.77473914200647 29.48231028629094,40.74709561871583 69.56734349161248,-50.86725976802628 -29.81553222730264,-39.7747391420065 29.48231028629101,40.74709561871582 -69.90056543262412,51.83961624473566 -10.60272291903056,132.361451005458 29.48231028629101,40.74709561871591 69.56734349161255,-50.86725976802623 -29.81553222730255,-39.77473914200645 10.26950097801898,-131.3890945287486 69.56734349161255,-50.86725976802625 128.8651860052061,29.65457499269613 168.9502192105278,-61.95978039404598 228.2480617241212,18.56205436667639 128.8651860052061,29.65457499269615 29.482310286291,40.74709561871598 69.56734349161258,-50.86725976802616 -29.81553222730258,-39.77473914200639 29.482310286291,40.74709561871595 69.56734349161249,-50.8672597680262 128.8651860052061,29.65457499269613 168.9502192105277,-61.95978039404599 69.56734349161255,-50.86725976802621 -29.81553222730259,-39.77473914200646 29.48231028629094,40.74709561871589 -69.90056543262419,51.83961624473568 -29.81553222730263,-39.77473914200644 29.48231028629101,40.74709561871585 -69.90056543262412,51.8396162447357 -10.60272291903055,132.361451005458 29.48231028629102,40.74709561871595 69.56734349161259,-50.86725976802618 -29.81553222730252,-39.7747391420064 10.26950097801903,-131.3890945287486 69.56734349161256,-50.8672597680262 -29.81553222730255,-39.77473914200645 29.48231028629103,40.74709561871591 -69.9005654326241,51.83961624473572 -29.81553222730255,-39.7747391420064 10.26950097801901,-131.3890945287486 69.56734349161253,-50.86725976802627 109.6523766969341,-142.4816151547684 10.26950097801904,-131.3890945287486" /></svg>
