<svg baseProfile="full" fill-opacity="0.0" height="100%" stroke="black" stroke-width="1" version="1.1" viewBox="-360.0331245800854,-99.69573992734756,784.7618954436844,209.04808087033075" width="100%" xmlns="http://www.w3.org/2000/svg" xmlns:ev="http://www.w3.org/2001/xml-events" xmlns:xlink="http://www.w3.org/1999/xlink"><defs /><polyline points="-350.3960447506897,40.89931857872372 -348.9364878156655,32.29419004478864" /><polyline points="-348.9364878156657,32.29419004478863 -352.9177182760506,39.51089425197967" /><polyline points="-352.9177182760506,39.51089425197967 -349.4067520728286,37.50706810336116" /><polyline points="-349.4067520728286,37.50706810336116 -357.0203140065149,38.71107326154192" /><polyline points="-357.0203140065149,38.71107326154192 -352.6453930658092,46.65510043453213" /><polyline points="-352.6453930658092,46.65510043453213 -354.711808805468,43.45555476857184" /><polyline points="-354.711808805468,43.45555476857184 -355.8328015459526,37.38082494721299" /><polyline points="-355.8328015459526,37.38082494721299 -354.5231040144791,46.76194539289454" /><polyline points="-354.5231040144791,46.76194539289454 -349.6976590168615,47.0181155240105" /><polyline points="-349.6976590168615,47.0181155240105 -357.2402506100527,40.70146546107541" /><polyline points="-357.2402506100527,40.70146546107541 -358.158503349982,39.16515271664736" /><polyline points="-358.158503349982,39.16515271664736 -349.7972447552332,43.56108445785119" /><polyline points="-349.7972447552332,43.56108445785119 -343.1208299332148,39.52290238541635" /><polyline points="-343.1208299332148,39.52290238541635 -346.1952231068387,39.65470638798578" /><polyline points="-346.1952231068387,39.65470638798578 -355.8189421739088,41.09460893482292" /><polyline points="-355.8189421739088,41.09460893482292 -359.450638953851,38.59922313453766" /><polyline points="-359.450638953851,38.59922313453766 -360.0331245800854,31.47993698222505" /><polyline points="-359.450638953851,38.59922313453766 -360.0331245800854,31.47993698222505" /><polyline points="-360.0331245800854,31.47993698222505 -356.6857588789936,26.89589705021827" /><polyline points="-356.6857588789936,26.89589705021827 -347.6966473118409,27.24129273779758 -328.519517129516,21.57889736919253 -320.0925343835648,16.75217424390695 -310.8701511551097,12.9757187173686 -288.292304643626,-4.527678905503437" /><polyline points="-288.292304643626,-4.527678905503437 -281.1374759779525,-11.31000526417486 -263.3653353636954,-20.45378245902611 -256.2105066980219,-27.23610881769752 -247.8023308179609,-32.51607104459521 -228.1098179423224,-51.9121861360297" /><polyline points="-228.1098179423224,-51.9121861360297 -222.4975945714782,-60.17361215321908" /><polyline points="-228.1098179423224,-51.9121861360297 -222.4975945714782,-60.17361215321908" /><polyline points="-228.1098179423224,-51.9121861360297 -220.2747716964667,-58.09003887483503" /><polyline points="-220.2747716964667,-58.09003887483503 -210.7070588860289,-60.43516258492638" /><polyline points="-247.8023308179609,-32.51607104459521 -239.9672845721052,-38.69392378340054 -223.2899207075955,-43.77469743566567 -217.0475030572379,-48.89819690418266 -209.2042188344975,-50.93995692507049 -191.0023112304947,-50.67582618076501" /><polyline points="-191.0023112304947,-50.67582618076501 -186.3717394521029,-55.19499513351415 -171.9156387257906,-60.29992718073731 -167.2850669473989,-64.8190961334865 -160.5574709253349,-66.60587973835253 -145.1626393243536,-63.64045852613036" /><polyline points="-145.1626393243536,-63.64045852613036 -145.2986732980058,-67.94671708729952" /><polyline points="-145.1626393243536,-63.64045852613036 -142.1887682629425,-66.95989886607414" /><polyline points="-160.5574709253349,-66.60587973835253 -154.708541152101,-68.93055262346124" /><polyline points="-160.5574709253349,-66.60587973835253 -154.708541152101,-68.93055262346124" /><polyline points="-191.0023112304947,-50.67582618076501 -183.8609063338859,-53.50614111779556" /><polyline points="-183.8609063338859,-53.50614111779556 -174.2943350775756,-52.44977693279419" /><polyline points="-183.8609063338859,-53.50614111779556 -174.2943350775756,-52.44977693279419" /><polyline points="-174.2943350775756,-52.44977693279419 -164.6448211667879,-55.03107771797117" /><polyline points="-209.2042188344975,-50.93995692507049 -202.0628139378886,-53.77027186210102 -185.4151462178209,-48.85876900035972 -179.3846321387112,-46.36124539861372 -171.4329673083724,-42.77996295021936 -151.7407521934299,-23.13012383723568" /><polyline points="-151.7407521934299,-23.13012383723568 -147.1260718991896,-18.64899201392009 -132.4782089642705,-10.76528868230115 -127.86352867003,-6.284156858985554 -120.9011509183615,-1.284382224371619 -103.5810226678328,21.36086779752386" /><polyline points="-103.5810226678328,21.36086779752386 -100.3887217873624,27.71970843576347" /><polyline points="-103.5810226678328,21.36086779752386 -100.3887217873624,27.71970843576347" /><polyline points="-103.5810226678328,21.36086779752386 -97.50875919721872,26.76266914130486" /><polyline points="-97.50875919721872,26.76266914130486 -89.66134746360105,27.67538487115108" /><polyline points="-120.9011509183615,-1.284382224371619 -114.8288874477474,4.117419119409369 -97.6126044810213,14.154674573389 -91.24302034500877,21.82692374741774 -82.70044945276753,27.01499187441436 -58.72882001104135,41.17204860112788" /><polyline points="-58.72882001104135,41.17204860112788 -53.21137414036951,49.38181233473 -37.16860446973961,61.24322428346071 -31.65115859906781,69.45298801706282 -23.69826735098342,75.21959858611937 -1.212213905911944,88.22825517825594" /><polyline points="-1.212213905911944,88.22825517825594 0.3387435220804125,97.07359181149103" /><polyline points="-1.212213905911944,88.22825517825594 3.428835348702252,96.2590343109034" /><polyline points="-23.69826735098342,75.21959858611937 -16.50934415345668,81.76521746457564" /><polyline points="-58.72882001104135,41.17204860112788 -50.85658119101793,47.31327224737589" /><polyline points="-97.6126044810213,14.154674573389 -89.79433292480125,18.76155118343969" /><polyline points="-89.79433292480125,18.76155118343969 -80.93529090641634,14.59189135754592" /><polyline points="-114.8288874477474,4.117419119409369 -107.0106158915273,8.724295729460083" /><polyline points="-120.9011509183615,-1.284382224371619 -114.8288874477474,4.117419119409369" /><polyline points="-151.7407521934299,-23.13012383723568 -144.5343834130145,-19.31303695487671" /><polyline points="-144.5343834130145,-19.31303695487671 -134.7482240141894,-17.45274760241437" /><polyline points="-144.5343834130145,-19.31303695487671 -134.7482240141894,-17.45274760241437" /><polyline points="-134.7482240141894,-17.45274760241437 -125.4921128859492,-19.99922140785464" /><polyline points="-171.4329673083724,-42.77996295021936 -164.2265985279571,-38.96287606786041 -146.5090507340596,-29.73704444765314 -139.7437815151132,-22.50902868108086 -131.1363608121201,-17.45169786305672 -108.7040952933546,-1.209499819715663" /><polyline points="-108.7040952933546,-1.209499819715663 -103.1210865210999,7.075053874768044 -86.98364314773929,18.81403633426428 -81.40063437548457,27.09859002874798 -73.60218332650842,33.08871537676314 -53.32342875352188,49.13694104349874" /><polyline points="-53.32342875352188,49.13694104349874 -48.98876571858232,57.79370943544169" /><polyline points="-53.32342875352188,49.13694104349874 -48.98876571858232,57.79370943544169" /><polyline points="-53.32342875352188,49.13694104349874 -46.31816934411027,56.00076854768834" /><polyline points="-46.31816934411027,56.00076854768834 -38.02163589977465,61.06606625307163" /><polyline points="-73.60218332650842,33.08871537676314 -66.59692391709687,39.95254288095277 -48.3137860188229,43.83091520692651 -41.10903294712871,47.03952308091942 -32.09336129655101,47.99856427668362 -7.531101282315954,41.27788892042774" /><polyline points="-7.531101282315954,41.27788892042774 -1.26290931687461,42.80166916030012 15.84717354028168,44.79370368914056 22.11536550572298,46.31748392901296 30.50518234118292,46.19332134574591 53.21011714400075,35.70056434007721" /><polyline points="53.21011714400075,35.70056434007721 55.41585637761886,35.27556625587593" /><polyline points="53.21011714400075,35.70056434007721 58.43628374524577,35.19860711517751" /><polyline points="30.50518234118292,46.19332134574591 38.19059977539761,46.05464064236473" /><polyline points="30.50518234118292,46.19332134574591 38.19059977539761,46.05464064236473" /><polyline points="-7.531101282315954,41.27788892042774 0.9081965330976017,42.50090348337439" /><polyline points="0.9081965330976017,42.50090348337439 10.90142485221593,42.63301009079054" /><polyline points="0.9081965330976017,42.50090348337439 10.90142485221593,42.63301009079054" /><polyline points="10.90142485221593,42.63301009079054 19.6338735766034,47.35504996587282" /><polyline points="-32.09336129655101,47.99856427668362 -23.65406348113746,49.22157883963026 -4.360055928658238,44.44695389943067 3.918894599290137,40.29698977259029 13.30300499991274,36.88833370619524 37.34640830083659,19.58817936513828" /><polyline points="37.34640830083659,19.58817936513828 44.50772260142015,13.36152253197999 62.56272352338902,5.029679301112135 69.72403782397251,-1.196977532046153 78.3919458774856,-6.175605869358584 99.90945655385008,-25.75451100553926" /><polyline points="99.90945655385008,-25.75451100553926 105.7186852960302,-33.64618830083857" /><polyline points="99.90945655385008,-25.75451100553926 105.7186852960302,-33.64618830083857" /><polyline points="99.90945655385008,-25.75451100553926 107.9819180840438,-31.59630478402968" /><polyline points="107.9819180840438,-31.59630478402968 117.379974118486,-33.29819565764154" /><polyline points="78.3919458774856,-6.175605869358584 86.46440740767927,-12.01739964784901 104.2819962207063,-17.32073175190445 111.3080054747751,-22.74122940172327 119.8120617666016,-25.0217210956693 140.4946455681219,-26.42661405337156" /><polyline points="140.4946455681219,-26.42661405337156 146.0874056769391,-31.50417585263606 162.0324471533365,-37.25614014530262 167.6252072621535,-42.33370194456712 175.15674966315,-44.55239461835148 193.1458971900421,-43.58760734567993" /><polyline points="193.1458971900421,-43.58760734567993 191.1151159966755,-49.70587602644736" /><polyline points="193.1458971900421,-43.58760734567993 197.1962579455866,-47.6907320379169" /><polyline points="162.0324471533365,-37.25614014530262 170.3344120625601,-42.21466922221334" /><polyline points="119.8120617666016,-25.0217210956693 127.7060964013877,-28.17567588279535" /><polyline points="78.3919458774856,-6.175605869358584 86.46440740767927,-12.01739964784901" /><polyline points="62.56272352338902,5.029679301112135 71.69196586927758,3.194038906886427" /><polyline points="13.30300499991274,36.88833370619524 22.27905401127164,32.69467439199085" /><polyline points="-23.65406348113746,49.22157883963026 -14.14945796412858,49.69777474782999" /><polyline points="-48.3137860188229,43.83091520692651 -39.77354898883144,48.70861984766804" /><polyline points="-39.77354898883144,48.70861984766804 -31.30527580802412,47.84015760233495" /><polyline points="-66.59692391709687,39.95254288095277 -58.05668688710549,44.83024752169425" /><polyline points="-73.60218332650842,33.08871537676314 -66.59692391709687,39.95254288095277" /><polyline points="-108.7040952933546,-1.209499819715663 -100.7496206939142,4.833102999081805" /><polyline points="-100.7496206939142,4.833102999081805 -90.78210581345701,5.351530041639601" /><polyline points="-100.7496206939142,4.833102999081805 -90.78210581345701,5.351530041639601" /><polyline points="-90.78210581345701,5.351530041639601 -81.69108037542661,5.812609414728604" /><polyline points="-131.1363608121201,-17.45169786305672 -123.1818862126797,-11.40909504425925 -104.5376754131668,-8.558489747844714 -96.9444980560759,-4.985543471615549 -87.89568485883704,-4.313764580304818 -64.65652133210045,-10.31417558919427" /><polyline points="-64.65652133210045,-10.31417558919427 -58.24579311781842,-7.841206981092202 -41.05127638446525,-5.858668084862622 -34.64054817018324,-3.385699476760571 -26.37593109083299,-3.351841392078236 -5.542017805381889,-12.51426277686926" /><polyline points="-5.542017805381889,-12.51426277686926 -0.4680501470331472,-11.60923696421736" /><polyline points="-5.542017805381889,-12.51426277686926 -0.4680501470331472,-11.60923696421736" /><polyline points="-5.542017805381889,-12.51426277686926 2.022113743715705,-12.15117490931636" /><polyline points="2.022113743715705,-12.15117490931636 10.96133932219645,-8.804087388301939" /><polyline points="-26.37593109083299,-3.351841392078236 -18.81179954173515,-2.988753524525345 -0.7380311499905634,-9.747744726425037 6.341579773659585,-14.72004477543698 15.1021194719169,-19.09103173915904 37.65586844199183,-38.84787175653647" /><polyline points="37.65586844199183,-38.84787175653647 43.52189908922932,-45.77192693385909 60.02079070740613,-55.93890563169928 65.8868213546435,-62.86296080902191 73.82593478105483,-68.72181353558082 94.07852751311268,-90.49567754966648" /><polyline points="94.07852751311268,-90.49567754966648 95.56091000932774,-99.69573992734756" /><polyline points="94.07852751311268,-90.49567754966648 98.63135158871654,-98.94084839249199" /><polyline points="73.82593478105483,-68.72181353558082 81.00024160022205,-75.37310174555421" /><polyline points="73.82593478105483,-68.72181353558082 81.00024160022205,-75.37310174555421" /><polyline points="37.65586844199183,-38.84787175653647 45.80569335519198,-43.95177164573462" /><polyline points="45.80569335519198,-43.95177164573462 55.75390081835595,-44.66174092576816" /><polyline points="45.80569335519198,-43.95177164573462 55.75390081835595,-44.66174092576816" /><polyline points="55.75390081835595,-44.66174092576816 65.0106081930799,-42.53731407357147" /><polyline points="15.1021194719169,-19.09103173915904 23.25194438511712,-24.19493162835718 41.71515503203513,-30.27635575102039 49.21780218060093,-36.30804535797127 58.1142059170377,-39.25594025114709 80.39284327595202,-44.80674945330217" /><polyline points="80.39284327595202,-44.80674945330217 86.60242590820802,-51.03008578386812 103.4541573498602,-58.39778853413116 109.6637399821162,-64.6211248646971 117.69760026963,-67.89648727454768 137.3963323311742,-71.81438764209128" /><polyline points="137.3963323311742,-71.81438764209128 142.1617717310901,-77.5445936265441" /><polyline points="137.3963323311742,-71.81438764209128 142.1617717310901,-77.5445936265441" /><polyline points="137.3963323311742,-71.81438764209128 144.7077811823929,-75.89052930520108" /><polyline points="144.7077811823929,-75.89052930520108 153.6421212832857,-80.28613244421017" /><polyline points="117.69760026963,-67.89648727454768 125.0090491208486,-71.97262893765748 142.5993364952741,-69.46266074590554 149.2875222901564,-68.3345952024448 157.7929724119519,-65.93097097038955 179.617212788522,-49.19518291467304" /><polyline points="179.617212788522,-49.19518291467304 185.0527466143208,-46.01786368344496 200.9559550415995,-40.57506357984033 206.3914888673983,-37.39774434861221 214.0373457485558,-33.55493410512409 233.6046665732209,-13.45961081305389" /><polyline points="233.6046665732209,-13.45961081305389 234.6005852516353,-8.135406694869964" /><polyline points="233.6046665732209,-13.45961081305389 237.726234684912,-8.249454521766866" /><polyline points="214.0373457485558,-33.55493410512409 220.8726174020464,-29.33780617953917" /><polyline points="179.617212788522,-49.19518291467304 187.4578988883416,-46.61859757268306" /><polyline points="142.5993364952741,-69.46266074590554 151.2684409634278,-71.67613534509954" /><polyline points="151.2684409634278,-71.67613534509954 160.1840902677921,-72.28428152640667" /><polyline points="125.0090491208486,-71.97262893765748 133.6781535890023,-74.18610353685148" /><polyline points="117.69760026963,-67.89648727454768 125.0090491208486,-71.97262893765748" /><polyline points="80.39284327595202,-44.80674945330217 88.74533724081701,-48.75432901399815" /><polyline points="88.74533724081701,-48.75432901399815 98.57707727139372,-47.56109663132174" /><polyline points="88.74533724081701,-48.75432901399815 98.57707727139372,-47.56109663132174" /><polyline points="98.57707727139372,-47.56109663132174 108.0970137143301,-48.70981265122062" /><polyline points="58.1142059170377,-39.25594025114709 66.46669988190281,-43.20351981184308 84.37715976130096,-39.97535463874964 91.56558962899558,-39.4499474031554 100.0799765410656,-36.79990424722302 120.4081299358232,-19.84623201465781" /><polyline points="120.4081299358232,-19.84623201465781 126.1136769508462,-17.6530181613511 142.1162244117944,-12.25824128757479 147.8217714268173,-10.06502743426809 155.3355849229919,-6.285674898667396 172.8203049928281,13.82605727622658" /><polyline points="172.8203049928281,13.82605727622658 176.9101348248474,17.82245326947575" /><polyline points="172.8203049928281,13.82605727622658 176.9101348248474,17.82245326947575" /><polyline points="172.8203049928281,13.82605727622658 179.5646226258271,17.65548720647602" /><polyline points="179.5646226258271,17.65548720647602 188.3535495657805,17.38465589293698" /><polyline points="155.3355849229919,-6.285674898667396 162.0799025559908,-2.456244968417952 178.731991366559,8.368718214688377 184.6989591927293,16.03914564106258 192.7329480347816,21.99144439791684 213.3915441919123,41.71372405398304" /><polyline points="213.3915441919123,41.71372405398304 218.0798548477792,50.52460864703976 232.9072878827248,63.94277700678285 237.5955985385918,72.75366159983957 244.7326035850497,79.69005843950298 263.2847386608116,99.43299587766704" /><polyline points="263.2847386608116,99.43299587766704 263.5017209309067,109.3523409429832" /><polyline points="263.2847386608116,99.43299587766704 266.701043115516,108.7263804378074" /><polyline points="244.7326035850497,79.69005843950298 250.9900036889296,87.42342826282675" /><polyline points="244.7326035850497,79.69005843950298 250.9900036889296,87.42342826282675" /><polyline points="213.3915441919123,41.71372405398304 220.672711840489,48.55770325949139" /><polyline points="220.672711840489,48.55770325949139 230.5338780264238,50.17230590231619" /><polyline points="220.672711840489,48.55770325949139 230.5338780264238,50.17230590231619" /><polyline points="230.5338780264238,50.17230590231619 239.5099849575574,51.07700105216895" /><polyline points="192.7329480347816,21.99144439791684 200.0141156833585,28.8354236034252 218.2852179987079,34.36382925858223 225.4854599720172,39.32026173164884 234.4315442434533,41.41576960028561 258.2436811154426,40.01987222853189" /><polyline points="258.2436811154426,40.01987222853189 264.3903668959692,43.98396544207212 281.3241695247269,48.90371914214639 287.4708553052536,52.8678123556866 295.7095283735093,54.42107496857862 317.4663911566412,49.83690513041531" /><polyline points="317.4663911566412,49.83690513041531 322.4528364617545,52.26869514645966" /><polyline points="317.4663911566412,49.83690513041531 322.4528364617545,52.26869514645966" /><polyline points="317.4663911566412,49.83690513041531 324.9776804455711,51.74954623269434" /><polyline points="324.9776804455711,51.74954623269434 333.5301852738149,56.33124883513751" /><polyline points="295.7095283735093,54.42107496857862 303.2208176624392,56.33371607085768 321.9232944092417,52.14787366161465 329.5041887700091,48.56201587253884 338.6818117234669,45.39121951694928 363.1727120810613,28.09144540605847" /><polyline points="363.1727120810613,28.09144540605847 369.7473569911524,22.35630735514582 387.2384966910197,14.60455254875808 393.8131416011109,8.869414497845431 402.3276801299146,4.095810035811177 424.7287708635989,-15.7848627560196" /></svg>
