<svg viewBox="-287.8791261787288 -292.43276405019276 615.510063621764 596.9304052031152" xmlns="http://www.w3.org/2000/svg">
<style>
svg { stroke:black; stroke-width:2; fill:none;}
</style>
<polyline points="-29.81553222730533 -39.774739142008386 29.482310286287895 40.74709561871672 -69.90056543262718 51.83961624473594 -10.602722919033814 132.36145100545826 29.48231028628796 40.74709561871639 69.5673434916098 -50.867259768025484 -29.815532227305322 -39.77473914200598 10.26950097801648 -131.38909452874788 69.5673434916098 -50.86725976802551 -29.815532227305336 -39.77473914200601 29.482310286287994 40.747095618716365 -69.90056543262715 51.83961624473592 -29.815532227305322 -39.774739142005984 10.269500978016437 -131.38909452874793 69.56734349160979 -50.867259768025605 109.65237669693161 -142.48161515476752 10.269500978016485 -131.38909452874796 69.56734349160979 -50.867259768025576 109.65237669693158 -142.48161515476747 168.95021921052492 -61.95978039404515 69.56734349160978 -50.86725976802559 -29.815532227305336 -39.77473914200601 10.269500978016444 -131.38909452874793 -89.1133747408987 -120.29657390272838 -29.81553222730534 -39.77473914200604 10.269500978016424 -131.38909452874802 69.56734349160978 -50.86725976802565 109.65237669693158 -142.48161515476755 10.269500978016467 -131.389094528748 -89.1133747408987 -120.29657390272848 -29.815532227305354 -39.77473914200612 -129.19840794622047 -28.682218515986527 -89.11337474089869 -120.29657390272845 -49.028341535576786 -211.91092928947032 -148.41121725449193 -200.8184086634508 -108.32618404917008 -292.43276405019276 -49.02834153557681 -211.91092928947035 10.26950097801652 -131.38909452874796 -89.11337474089862 -120.29657390272845 -29.81553222730534 -39.774739142006055 10.269500978016495 -131.38909452874793 -89.11337474089864 -120.29657390272833 -49.02834153557687 -211.91092928947023 -148.41121725449196 -200.8184086634507 -89.11337474089866 -120.29657390272838 -29.815532227305336 -39.77473914200602 10.269500978016481 -131.38909452874793 69.56734349160979 -50.867259768025576 -29.815532227305336 -39.77473914200604 10.269500978016433 -131.38909452874802 69.56734349160978 -50.86725976802565 109.65237669693158 -142.48161515476758 10.269500978016476 -131.38909452874802 -89.11337474089868 -120.29657390272851 -29.815532227305322 -39.774739142006126 -129.19840794622044 -28.682218515986552 -89.11337474089868 -120.29657390272845 -29.81553222730539 -39.77473914200607 10.269500978016467 -131.38909452874793 69.56734349160978 -50.86725976802559 -29.81553222730534 -39.774739142006055 -129.19840794622047 -28.682218515986474 -89.1133747408987 -120.29657390272838 -188.4962504598139 -109.20405327670883 -129.1984079462204 -28.682218515986484 -228.58128366513557 -17.589697889967024 -169.28344115154232 62.932136870755386 -268.6663168704574 74.02465749677486 -228.58128366513563 -17.58969788996698 -188.4962504598138 -109.20405327670889 -129.19840794622044 -28.68221851598653 -89.11337474089862 -120.29657390272843 -188.49625045981378 -109.20405327670889 -129.1984079462204 -28.682218515986563 -228.58128366513554 -17.589697889966978 -169.28344115154218 62.93213687075536 -129.19840794622039 -28.682218515986506 -89.11337474089856 -120.29657390272843 -188.49625045981372 -109.20405327670883 -148.41121725449193 -200.81840866345075 -89.11337474089858 -120.29657390272847 -188.4962504598137 -109.20405327670883 -148.41121725449193 -200.8184086634507 -247.79409297340717 -189.72588803743108 -188.49625045981375 -109.2040532767088 -129.19840794622033 -28.68221851598649 -89.11337474089856 -120.29657390272843 -29.815532227305155 -39.7747391420061 -129.1984079462203 -28.682218515986495 -89.11337474089846 -120.29657390272841 -188.49625045981364 -109.20405327670885 -148.41121725449185 -200.81840866345075 -89.11337474089848 -120.29657390272841 -29.8155322273051 -39.77473914200607 -129.19840794622024 -28.682218515986502 -69.90056543262688 51.83961624473585 -29.815532227305102 -39.774739142006034 10.269500978016598 -131.38909452874802 69.56734349161002 -50.86725976802569 109.65237669693178 -142.48161515476764 10.269500978016636 -131.38909452874802 -89.1133747408985 -120.29657390272843 -29.815532227305116 -39.774739142006084 -129.19840794622027 -28.682218515986445 -89.11337474089851 -120.29657390272843 -29.815532227305162 -39.77473914200605 10.269500978016616 -131.389094528748 69.56734349160999 -50.86725976802564 -29.815532227305134 -39.774739142006055 -129.1984079462203 -28.68221851598645 -89.1133747408985 -120.29657390272838 -188.49625045981364 -109.20405327670883 -129.1984079462203 -28.682218515986474 -89.11337474089845 -120.29657390272834 -188.49625045981364 -109.20405327670883 -148.41121725449185 -200.81840866345075 -89.11337474089848 -120.29657390272841 -29.815532227305102 -39.77473914200606 -129.19840794622024 -28.682218515986502 -69.9005654326269 51.83961624473587 -29.815532227305134 -39.774739142006034 -129.19840794622027 -28.682218515986428 -89.1133747408985 -120.29657390272837 -188.49625045981364 -109.20405327670876 -129.19840794622027 -28.682218515986445 -69.90056543262692 51.83961624473591 -29.815532227305145 -39.77473914200596 29.48231028628824 40.74709561871637 -69.90056543262692 51.83961624473595 -10.602722919033615 132.36145100545832 29.48231028628822 40.74709561871646 88.78015279988156 121.26893037943879 -10.602722919033587 132.36145100545835 -109.98559863794873 143.45397163147794 -69.90056543262695 51.83961624473602 -169.2834411515421 62.93213687075558 -109.98559863794867 143.45397163147794 -69.90056543262695 51.839616244736014 -10.602722919033576 132.36145100545835 29.482310286288257 40.74709561871645 -69.90056543262688 51.83961624473599 -169.28344115154204 62.93213687075552 -109.98559863794873 143.45397163147788 -209.36847435686389 154.54649225749742 -169.28344115154206 62.93213687075553 -109.98559863794863 143.4539716314778 -209.36847435686377 154.54649225749748 -150.07063184327043 235.06832701821983 -109.98559863794866 143.45397163147786 -69.90056543262686 51.83961624473595 -169.28344115154204 62.93213687075557 -129.19840794622027 -28.68221851598637 -69.90056543262689 51.83961624473594 -169.28344115154204 62.93213687075548 -109.98559863794874 143.45397163147786 -209.36847435686386 154.54649225749742 -169.28344115154206 62.9321368707555 -129.19840794622027 -28.682218515986424 -69.90056543262692 51.83961624473592 -29.815532227305102 -39.77473914200598 -129.19840794622027 -28.682218515986424 -228.58128366513535 -17.589697889966743 -188.49625045981367 -109.20405327670869 -287.8791261787288 -98.11153265068904 -228.5812836651354 -17.58969788996676 -169.28344115154204 62.93213687075558 -129.19840794622027 -28.68221851598637 -69.90056543262683 51.83961624473593 -169.283441151542 62.93213687075557 -129.19840794622016 -28.682218515986364 -228.5812836651353 -17.58969788996679 -188.49625045981355 -109.20405327670869 -129.1984079462202 -28.68221851598637 -69.90056543262683 51.83961624473593 -169.28344115154198 62.93213687075552 -109.98559863794866 143.45397163147786 -69.90056543262686 51.83961624473591 -169.283441151542 62.932136870755436 -109.98559863794867 143.4539716314778 -209.36847435686386 154.54649225749733 -169.283441151542 62.93213687075545 -129.19840794622024 -28.682218515986495 -69.90056543262686 51.8396162447358 -29.81553222730505 -39.774739142006105 -129.19840794622016 -28.682218515986552 -69.90056543262676 51.839616244735744 -169.28344115154195 62.932136870755386 -109.98559863794856 143.4539716314777 -69.9005654326268 51.83961624473576 -29.815532227304967 -39.77473914200617 -129.19840794622013 -28.682218515986595 -89.11337474089835 -120.29657390272848 -29.815532227304992 -39.77473914200613 10.269500978016708 -131.38909452874813 69.56734349161013 -50.867259768025804 109.65237669693188 -142.48161515476778 10.269500978016756 -131.38909452874813 -89.11337474089838 -120.29657390272855 -29.81553222730503 -39.774739142006204 -129.1984079462202 -28.682218515986598 -89.1133747408984 -120.29657390272853 -29.815532227305056 -39.774739142006176 10.269500978016714 -131.38909452874805 69.56734349161009 -50.86725976802572 -29.815532227305038 -39.774739142006155 -129.19840794622016 -28.68221851598652 -89.11337474089842 -120.29657390272847 -188.49625045981358 -109.20405327670889 -129.19840794622024 -28.682218515986552 -89.11337474089837 -120.29657390272845 -188.49625045981352 -109.20405327670892 -148.4112172544918 -200.81840866345075 -89.1133747408984 -120.29657390272845 -29.815532227304992 -39.774739142006126 -129.19840794622013 -28.682218515986516 -69.90056543262676 51.83961624473583 -29.815532227304995 -39.77473914200609 -129.19840794622013 -28.682218515986417 -89.11337474089842 -120.29657390272834 -188.49625045981355 -109.20405327670876 -129.1984079462202 -28.68221851598646 -69.90056543262683 51.8396162447359 -29.81553222730505 -39.774739142006 29.48231028628832 40.74709561871634 -69.9005654326268 51.83961624473592 -169.28344115154195 62.93213687075546 -109.98559863794863 143.4539716314778 -209.36847435686374 154.5464922574974 -169.28344115154195 62.932136870755485 -129.19840794622021 -28.68221851598647 -69.90056543262685 51.83961624473586 -29.81553222730503 -39.77473914200607 -129.19840794622016 -28.682218515986502 -69.90056543262678 51.83961624473581 -169.28344115154195 62.93213687075543 -109.98559863794853 143.45397163147774 -69.90056543262678 51.83961624473587 -29.81553222730496 -39.774739142006055 -129.1984079462201 -28.68221851598648 -89.11337474089835 -120.29657390272841 -29.815532227304974 -39.774739142006084 -129.19840794622013 -28.68221851598641 -89.11337474089838 -120.29657390272837 -188.49625045981352 -109.20405327670875 -129.19840794622013 -28.682218515986445 -69.90056543262676 51.83961624473589 -29.815532227304995 -39.774739142006034 29.4823102862884 40.74709561871627 -69.90056543262673 51.8396162447359 -29.815532227304914 -39.77473914200602 -129.1984079462201 -28.682218515986467 -89.11337474089828 -120.29657390272837 -29.815532227304917 -39.77473914200604 29.48231028628845 40.74709561871626 -69.90056543262669 51.83961624473585 -10.602722919033349 132.3614510054582 29.482310286288424 40.747095618716266 69.56734349161034 -50.86725976802562 -29.81553222730481 -39.77473914200615 10.269500978017067 -131.38909452874805 69.56734349161033 -50.86725976802564 128.8651860052036 29.65457499269675 29.482310286288502 40.747095618716244 88.78015279988179 121.26893037943866 128.86518600520364 29.654574992696805 29.482310286288502 40.747095618716315 69.56734349161037 -50.86725976802559 -29.8155322273048 -39.774739142006126 29.482310286288477 40.74709561871628 88.7801527998817 121.26893037943874 128.86518600520358 29.654574992696876 188.1630285187969 110.1764097534193 88.78015279988173 121.26893037943874 128.86518600520353 29.65457499269685 188.16302851879686 110.17640975341922 228.24806172411877 18.56205436667734 128.86518600520355 29.65457499269682 29.48231028628846 40.74709561871626 88.78015279988169 121.26893037943866 -10.60272291903345 132.36145100545812 29.48231028628845 40.74709561871626 88.78015279988162 121.26893037943869 128.86518600520353 29.654574992696833 188.16302851879678 110.17640975341925 88.78015279988163 121.26893037943866 -10.602722919033521 132.36145100545815 29.48231028628837 40.747095618716266 -69.90056543262678 51.83961624473569 -10.60272291903353 132.36145100545812 48.69511959455981 212.8832857661805 -50.687756124355325 223.97580639219996 8.61008638923793 304.4976411529225 48.69511959455981 212.8832857661805 88.78015279988172 121.26893037943869 -10.602722919033438 132.36145100545812 29.48231028628846 40.74709561871622 88.78015279988172 121.26893037943864 -10.602722919033438 132.36145100545806 48.69511959455981 212.8832857661805 -50.687756124355325 223.97580639219996 -10.602722919033445 132.3614510054581 29.482310286288435 40.74709561871621 88.78015279988172 121.26893037943864 128.86518600520364 29.654574992696777 29.482310286288488 40.7470956187162 88.78015279988168 121.2689303794387 128.8651860052036 29.654574992696823 188.16302851879686 110.17640975341925 88.78015279988172 121.26893037943864 -10.602722919033434 132.36145100545812 29.48231028628847 40.74709561871625 -69.90056543262669 51.83961624473567 -10.602722919033445 132.3614510054581 29.482310286288435 40.74709561871621 88.78015279988172 121.26893037943864 128.86518600520364 29.65457499269681 29.482310286288495 40.74709561871622 -69.90056543262668 51.839616244735595 -10.602722919033466 132.36145100545806 -109.98559863794863 143.4539716314775 -69.90056543262668 51.83961624473562 -169.2834411515418 62.93213687075516 -129.19840794622 -28.682218515986726 -228.58128366513506 -17.589697889967248 -169.28344115154184 62.93213687075515 -109.98559863794858 143.45397163147757 -69.90056543262669 51.83961624473571 -10.602722919033408 132.36145100545815 -109.98559863794856 143.45397163147757 -69.90056543262662 51.83961624473574 -169.28344115154175 62.93213687075516 -129.19840794621987 -28.68221851598671 -69.9005654326266 51.83961624473574 -10.602722919033301 132.36145100545812 -109.98559863794844 143.45397163147763 -50.68775612435514 223.9758063922 -10.602722919033301 132.36145100545815 -109.98559863794844 143.4539716314776 -50.68775612435519 223.97580639219996 -150.07063184327038 235.06832701821946 -109.98559863794844 143.4539716314776 -69.90056543262659 51.839616244735666 -10.602722919033317 132.36145100545812 29.482310286288627 40.74709561871623 -69.90056543262654 51.839616244735666 -10.602722919033235 132.36145100545806 -109.98559863794834 143.45397163147757 -50.6877561243551 223.9758063922 -10.60272291903321 132.36145100545815 29.482310286288723 40.7470956187163 -69.90056543262644 51.83961624473574 -29.815532227304537 -39.77473914200616 29.482310286288733 40.74709561871628 88.78015279988189 121.26893037943874 128.8651860052039 29.654574992696897 188.16302851879712 110.17640975341929 88.78015279988196 121.2689303794387 -10.6027229190332 132.3614510054582 29.482310286288698 40.747095618716315 -69.90056543262646 51.839616244735765 -10.602722919033218 132.36145100545818 29.482310286288662 40.74709561871628 88.78015279988196 121.2689303794387 128.86518600520392 29.654574992696833 29.482310286288715 40.74709561871628 -69.90056543262645 51.839616244735645 -10.602722919033237 132.36145100545812 -109.98559863794839 143.45397163147754 -69.90056543262645 51.83961624473567 -10.602722919033159 132.3614510054581 -109.98559863794829 143.45397163147757 -50.68775612435509 223.9758063922 -10.602722919033202 132.3614510054581 29.482310286288733 40.747095618716244 -69.90056543262641 51.839616244735666 -29.81553222730452 -39.774739142006204 29.48231028628875 40.747095618716216 -69.9005654326264 51.83961624473563 -10.60272291903317 132.3614510054581 -109.98559863794829 143.45397163147757 -69.90056543262641 51.839616244735666 -29.815532227304537 -39.77473914200622 29.482310286288726 40.74709561871619 69.5673434916107 -50.86725976802567 -29.815532227304463 -39.77473914200624 10.269500978017309 -131.38909452874816 69.56734349161064 -50.86725976802578 109.65237669693246 -142.4816151547677 10.269500978017328 -131.38909452874816 -89.11337474089781 -120.29657390272864 -29.815532227304516 -39.77473914200626 -129.19840794621967 -28.682218515986687 -89.11337474089784 -120.2965739027286 -29.81553222730451 -39.774739142006226 10.269500978017316 -131.38909452874816 69.5673434916107 -50.867259768025804 -29.815532227304463 -39.774739142006254 -129.1984079462196 -28.682218515986644 -89.11337474089783 -120.29657390272857 -188.49625045981293 -109.20405327670902 -129.1984079462196 -28.68221851598667 -89.11337474089777 -120.29657390272857 -188.49625045981293 -109.20405327670903 -148.41121725449116 -200.81840866345098 -89.11337474089778 -120.29657390272864 -29.81553222730443 -39.77473914200635 -129.19840794621956 -28.682218515986754 -69.90056543262621 51.839616244735595 -29.815532227304438 -39.77473914200633 -129.19840794621956 -28.682218515986698 -89.11337474089781 -120.29657390272864 -188.49625045981296 -109.20405327670903 -129.19840794621956 -28.682218515986726 -69.90056543262627 51.839616244735666 -29.81553222730445 -39.774739142006254 29.482310286288904 40.747095618716095 -69.90056543262624 51.839616244735645 -169.28344115154138 62.932136870755116 -109.98559863794813 143.45397163147751 -209.36847435686323 154.546492257497 -169.28344115154138 62.93213687075511 -129.19840794621956 -28.682218515986794 -69.90056543262625 51.83961624473558 -29.815532227304384 -39.77473914200632 -129.19840794621953 -28.68221851598679 -69.90056543262617 51.83961624473555 -169.2834411515413 62.93213687075513 -109.98559863794796 143.45397163147751 -69.90056543262617 51.83961624473557 -29.815532227304313 -39.77473914200633 -129.19840794621948 -28.682218515986794 -89.11337474089767 -120.2965739027287 -29.815532227304324 -39.77473914200637 -129.19840794621948 -28.682218515986737 -89.1133747408977 -120.29657390272868 -188.49625045981287 -109.20405327670908 -129.19840794621948 -28.682218515986765 -69.90056543262611 51.83961624473561 -29.815532227304306 -39.774739142006304 29.48231028628907 40.74709561871603 -69.90056543262607 51.83961624473561 -29.815532227304246 -39.7747391420063 -129.1984079462194 -28.682218515986733 -89.11337474089761 -120.29657390272865 -29.81553222730426 -39.77473914200632 29.48231028628914 40.74709561871601 -69.90056543262597 51.83961624473562 -10.602722919032635 132.361451005458 29.48231028628914 40.74709561871604 88.78015279988237 121.26893037943843 128.86518600520427 29.654574992696524 188.1630285187976 110.17640975341892 88.78015279988246 121.26893037943846 -10.602722919032681 132.36145100545798 29.482310286289106 40.74709561871608 -69.90056543262604 51.83961624473562 -10.602722919032711 132.36145100545798 29.482310286289025 40.74709561871602 88.7801527998824 121.26893037943833 128.86518600520418 29.654574992696407 29.48231028628905 40.74709561871599 -69.90056543262611 51.83961624473555 -10.602722919032745 132.3614510054579 -109.98559863794789 143.45397163147751 -69.90056543262611 51.83961624473556 -10.602722919032669 132.36145100545784 -109.98559863794779 143.45397163147751 -50.68775612435442 223.97580639219987 -10.60272291903268 132.3614510054579 29.48231028628913 40.74709561871596 -69.900565432626 51.83961624473554 -29.815532227304246 -39.77473914200639 29.48231028628912 40.747095618715925 -69.90056543262601 51.83961624473547 -10.602722919032672 132.36145100545784 -109.98559863794782 143.45397163147743 -69.90056543262602 51.83961624473549 -29.815532227304324 -39.77473914200648 29.482310286289103 40.74709561871584 69.56734349161086 -50.86725976802605 -29.815532227304264 -39.77473914200646 -129.19840794621942 -28.68221851598679 -89.11337474089767 -120.29657390272875 -188.4962504598128 -109.20405327670916 -129.19840794621945 -28.682218515986847 -69.90056543262611 51.83961624473549 -29.815532227304352 -39.77473914200645 29.482310286289053 40.74709561871586 -69.9005654326261 51.83961624473547 -29.81553222730427 -39.774739142006446 -129.19840794621945 -28.682218515986865 -89.11337474089761 -120.2965739027288 -29.815532227304278 -39.77473914200646 29.48231028628914 40.747095618715875 -69.900565432626 51.83961624473548 -10.60272291903263 132.36145100545787 29.482310286289138 40.74709561871593 -69.90056543262598 51.83961624473544 -10.602722919032688 132.36145100545784 -109.98559863794785 143.45397163147743 -69.90056543262601 51.83961624473548 -29.815532227304217 -39.77473914200646 29.48231028628912 40.747095618715925 69.56734349161097 -50.867259768026 -29.815532227304182 -39.77473914200647 29.482310286289167 40.74709561871589 -69.90056543262597 51.839616244735446 -10.602722919032637 132.36145100545787 29.482310286289174 40.74709561871591 69.56734349161101 -50.86725976802602 -29.81553222730414 -39.774739142006446 10.269500978017636 -131.3890945287484 69.56734349161101 -50.86725976802603 -29.815532227304157 -39.77473914200661 29.482310286289103 40.74709561871581 -69.90056543262604 51.8396162447353 -29.815532227304164 -39.774739142006595 10.269500978017682 -131.3890945287485 69.56734349161096 -50.867259768026095 109.65237669693282 -142.48161515476798 10.269500978017685 -131.38909452874847 69.56734349161106 -50.86725976802612 -29.815532227304097 -39.77473914200656 29.48231028628922 40.74709561871581 69.56734349161106 -50.86725976802612 109.65237669693285 -142.481615154768 10.269500978017726 -131.38909452874847 50.35453418333952 -223.0034499154904 109.65237669693285 -142.48161515476806 10.269500978017733 -131.3890945287484 50.35453418333947 -223.0034499154903 -49.02834153557569 -211.9109292894707 10.269500978017707 -131.38909452874844 69.56734349161106 -50.8672597680261 109.65237669693282 -142.48161515476806 168.9502192105262 -61.95978039404572 69.56734349161108 -50.867259768026095 109.6523766969329 -142.481615154768 10.269500978017781 -131.38909452874842 50.35453418333955 -223.0034499154904 109.65237669693292 -142.48161515476806 168.9502192105263 -61.959780394045794 69.56734349161115 -50.86725976802619 128.86518600520452 29.654574992696176 168.9502192105263 -61.95978039404578 209.03525241584796 -153.57413578078774 268.3330949294414 -73.05230102006543 308.4181281347631 -164.66665640680742 209.03525241584802 -153.57413578078774 109.6523766969329 -142.4816151547681 168.9502192105263 -61.9597803940458 69.56734349161115 -50.86725976802611 109.65237669693285 -142.48161515476806 168.95021921052628 -61.95978039404575 209.035252415848 -153.57413578078769 268.3330949294414 -73.05230102006539 168.9502192105263 -61.95978039404575 69.56734349161115 -50.867259768026074 109.65237669693288 -142.48161515476804 10.26950097801775 -131.38909452874844 69.56734349161115 -50.8672597680261 109.65237669693298 -142.48161515476798 10.269500978017843 -131.38909452874844 50.3545341833396 -223.00344991549034 109.65237669693292 -142.481615154768 168.95021921052634 -61.95978039404572 69.56734349161121 -50.86725976802612 128.8651860052046 29.654574992696258 168.95021921052634 -61.95978039404565 69.56734349161123 -50.86725976802602 109.65237669693295 -142.48161515476795 10.269500978017826 -131.3890945287484 69.56734349161123 -50.86725976802605 128.86518600520455 29.65457499269631 168.95021921052634 -61.95978039404565 228.24806172411976 18.562054366676684 128.86518600520463 29.65457499269632 188.1630285187981 110.17640975341861 88.78015279988298 121.26893037943827 148.07799531347638 201.79076514016063 188.16302851879811 110.17640975341865 228.2480617241199 18.562054366676705 128.86518600520475 29.65457499269629 168.95021921052648 -61.95978039404569 228.2480617241199 18.562054366676634 128.86518600520475 29.654574992696162 188.16302851879803 110.17640975341854 88.7801527998829 121.26893037943812 128.86518600520466 29.654574992696208 168.95021921052646 -61.959780394045794 228.24806172411982 18.56205436667653 268.33309492944153 -73.05230102006541 168.95021921052646 -61.9597803940458 228.24806172411982 18.56205436667655 268.33309492944153 -73.05230102006541 327.63093744303507 7.469533740656907 228.2480617241199 18.56205436667655 128.86518600520478 29.654574992696254 168.95021921052646 -61.95978039404573 69.5673434916113 -50.86725976802612 128.86518600520472 29.65457499269622 168.95021921052637 -61.95978039404576 228.24806172411985 18.56205436667656 268.33309492944153 -73.05230102006541 168.95021921052646 -61.95978039404575 69.5673434916113 -50.86725976802617 128.86518600520463 29.654574992696176 29.482310286289525 40.747095618715825 69.56734349161123 -50.86725976802613 109.65237669693309 -142.481615154768 10.269500978017946 -131.38909452874847 50.354534183339744 -223.00344991549042 109.65237669693309 -142.48161515476806 168.95021921052648 -61.95978039404575 69.56734349161135 -50.867259768026166 128.86518600520472 29.65457499269622 168.95021921052648 -61.95978039404575 69.56734349161137 -50.86725976802608 109.65237669693306 -142.48161515476804 10.26950097801793 -131.38909452874842 69.56734349161133 -50.86725976802611 128.86518600520466 29.654574992696265 168.95021921052637 -61.95978039404565 228.24806172411976 18.56205436667668 128.86518600520463 29.654574992696293 168.95021921052637 -61.9597803940457 228.24806172411976 18.56205436667664 268.3330949294416 -73.0523010200653 168.95021921052646 -61.95978039404571 69.5673434916113 -50.86725976802615 128.86518600520466 29.654574992696222 29.482310286289525 40.74709561871583 69.5673434916113 -50.86725976802612 128.86518600520466 29.654574992696265 168.95021921052646 -61.95978039404569 228.24806172411976 18.562054366676684 128.86518600520466 29.654574992696265 29.482310286289525 40.747095618715896 69.56734349161124 -50.86725976802606 -29.815532227303866 -39.77473914200647 29.48231028628949 40.74709561871587 -69.90056543262565 51.83961624473554 -29.815532227303933 -39.77473914200641 -129.19840794621908 -28.682218515986783 -69.90056543262567 51.83961624473552 -10.602722919032294 132.36145100545784 29.482310286289465 40.74709561871588 88.78015279988287 121.26893037943823 -10.602722919032251 132.36145100545784 29.48231028628957 40.74709561871593 -69.90056543262558 51.83961624473551 -29.8155322273038 -39.774739142006446 29.482310286289554 40.747095618715896 88.78015279988296 121.26893037943823 -10.602722919032182 132.36145100545784 48.69511959456119 212.88328576618017 88.78015279988296 121.2689303794383 -10.602722919032194 132.36145100545775 48.695119594561085 212.88328576618017 -50.68775612435406 223.97580639219976 -10.6027229190322 132.36145100545784 29.482310286289607 40.747095618715846 88.78015279988291 121.26893037943823 128.86518600520478 29.654574992696315 29.482310286289614 40.74709561871587 88.78015279988303 121.26893037943823 -10.602722919032095 132.36145100545784 48.69511959456128 212.88328576618022 88.78015279988304 121.2689303794383 128.86518600520483 29.654574992696336 29.48231028628971 40.74709561871591 69.5673434916115 -50.86725976802606 128.86518600520483 29.654574992696283 188.16302851879814 110.17640975341871 228.24806172412 18.56205436667681 287.54590423771333 99.08388912739916 188.16302851879814 110.17640975341871 88.78015279988303 121.26893037943834 128.8651860052048 29.654574992696357 29.482310286289668 40.747095618715946 88.78015279988307 121.2689303794383 128.86518600520475 29.654574992696304 188.16302851879817 110.17640975341865 228.24806172412 18.56205436667671 128.86518600520483 29.654574992696336 29.482310286289703 40.7470956187159 88.78015279988307 121.26893037943829 -10.602722919032074 132.36145100545787 29.482310286289696 40.74709561871591 88.78015279988315 121.26893037943823 -10.602722919031976 132.3614510054579 48.69511959456142 212.88328576618022 88.78015279988315 121.26893037943829 128.86518600520495 29.654574992696325 29.482310286289827 40.7470956187159 69.56734349161158 -50.86725976802603 128.86518600520498 29.654574992696293 29.482310286289817 40.74709561871581 88.7801527998831 121.2689303794382 -10.602722919032022 132.36145100545778 29.4823102862898 40.74709561871581 69.56734349161154 -50.86725976802613 128.86518600520486 29.65457499269619 168.95021921052668 -61.95978039404575 69.56734349161154 -50.86725976802615 109.65237669693335 -142.481615154768 10.269500978018213 -131.38909452874847 50.35453418334003 -223.00344991549042 109.65237669693335 -142.48161515476806 168.95021921052677 -61.95978039404573 69.56734349161162 -50.86725976802612 128.86518600520498 29.654574992696254 168.95021921052674 -61.95978039404568 69.56734349161164 -50.86725976802606 109.6523766969334 -142.481615154768 10.26950097801827 -131.38909452874842 69.56734349161168 -50.86725976802608 128.86518600520506 29.6545749926963 168.9502192105268 -61.959780394045616 228.24806172412013 18.56205436667675 128.86518600520503 29.654574992696315 168.95021921052677 -61.959780394045666 228.24806172412013 18.56205436667669 268.33309492944187 -73.05230102006527 168.9502192105268 -61.95978039404566 69.56734349161168 -50.86725976802608 128.865186005205 29.65457499269628 29.482310286289888 40.747095618715896 69.56734349161168 -50.86725976802605 128.86518600520498 29.65457499269632 168.9502192105268 -61.959780394045616 228.24806172412013 18.562054366676747 128.86518600520503 29.654574992696315 29.48231028628989 40.747095618715946 69.56734349161162 -50.86725976802601 -29.81553222730351 -39.7747391420064 29.48231028628988 40.74709561871594 88.7801527998833 121.26893037943827 -10.602722919031818 132.3614510054579 48.695119594561554 212.88328576618025 88.78015279988333 121.26893037943837 128.86518600520512 29.654574992696396 29.482310286289977 40.747095618715974 69.56734349161174 -50.867259768025946 128.8651860052051 29.65457499269636 29.482310286289945 40.74709561871592 88.78015279988328 121.2689303794383 -10.602722919031823 132.3614510054579 29.482310286289945 40.747095618715946 69.56734349161168 -50.86725976802601 128.8651860052051 29.654574992696347 168.95021921052688 -61.95978039404561 69.56734349161178 -50.86725976802604 128.865186005205 29.654574992696382 168.9502192105269 -61.95978039404554 228.24806172412025 18.562054366676872 128.8651860052051 29.654574992696368 29.482310286289927 40.74709561871592 69.56734349161178 -50.867259768026 -29.81553222730338 -39.77473914200648 29.482310286289923 40.7470956187159 69.56734349161172 -50.86725976802605 128.86518600520512 29.654574992696304 168.95021921052688 -61.95978039404565 69.56734349161178 -50.86725976802604 -29.81553222730338 -39.77473914200651 29.48231028628994 40.74709561871587 -69.9005654326252 51.83961624473547 -29.81553222730338 -39.77473914200648 10.269500978018328 -131.38909452874847 69.56734349161177 -50.86725976802615 109.65237669693356 -142.4816151547681 10.269500978018417 -131.3890945287485 -89.11337474089672 -120.29657390272894 -29.81553222730336 -39.774739142006574 -129.19840794621854 -28.682218515986964 -89.1133747408967 -120.2965739027289 -29.815532227303425 -39.7747391420065 10.269500978018408 -131.38909452874844 69.56734349161177 -50.867259768026074 -29.815532227303354 -39.774739142006496 -129.19840794621854 -28.682218515986865 -89.11337474089675 -120.29657390272882 -188.49625045981185 -109.20405327670925 -129.1984079462185 -28.682218515986875 -89.11337474089663 -120.2965739027288 -188.4962504598118 -109.20405327670926 -148.41121725448997 -200.8184086634512 -89.11337474089665 -120.29657390272887 -29.81553222730324 -39.7747391420065 -129.19840794621837 -28.682218515986886 -69.900565432625 51.83961624473547 -29.815532227303237 -39.774739142006446 -129.19840794621837 -28.682218515986754 -89.11337474089667 -120.29657390272874 -188.4962504598118 -109.20405327670915 -129.19840794621837 -28.68221851598679 -69.90056543262507 51.8396162447356 -29.815532227303247 -39.77473914200634 29.48231028629013 40.747095618716 -69.90056543262502 51.8396162447356 -169.28344115154016 62.93213687075515 -109.9855986379468 143.45397163147751 -209.36847435686195 154.54649225749714 -169.28344115154016 62.93213687075518 -129.19840794621837 -28.68221851598678 -69.90056543262507 51.83961624473556 -29.815532227303237 -39.77473914200638 -129.19840794621837 -28.68221851598679 -69.90056543262496 51.83961624473553 -169.2834411515401 62.93213687075518 -109.9855986379467 143.45397163147754 -69.90056543262494 51.8396162447356 -29.815532227303148 -39.774739142006325 -129.19840794621828 -28.682218515986744 -89.11337474089652 -120.29657390272871 -29.81553222730315 -39.7747391420064 -129.19840794621828 -28.68221851598671 -89.11337474089656 -120.29657390272868 -188.4962504598117 -109.20405327670903 -129.19840794621828 -28.682218515986744 -69.90056543262494 51.8396162447356 -29.81553222730317 -39.77473914200634 29.482310286290243 40.74709561871598 -69.90056543262487 51.83961624473561 -29.8155322273031 -39.774739142006325 -129.19840794621823 -28.682218515986737 -89.11337474089646 -120.29657390272874 -29.8155322273031 -39.774739142006396 29.48231028629035 40.74709561871589 -69.90056543262477 51.83961624473555 -10.602722919031391 132.36145100545792 29.48231028629035 40.747095618715946 88.78015279988364 121.26893037943834 128.8651860052055 29.654574992696407 188.16302851879888 110.1764097534188 88.78015279988375 121.26893037943833 -10.602722919031393 132.36145100545798 29.48231028629038 40.747095618716 -69.90056543262475 51.8396162447356 -10.602722919031363 132.36145100545798 29.48231028629034 40.747095618715946 88.78015279988377 121.2689303794383 128.86518600520554 29.654574992696336 29.482310286290385 40.74709561871595 -69.90056543262475 51.83961624473553 -10.6027229190314 132.36145100545792 -109.98559863794654 143.45397163147754 -69.90056543262475 51.83961624473557 -10.602722919031345 132.3614510054579 -109.98559863794648 143.45397163147751 -50.68775612435311 223.97580639219987 -10.602722919031338 132.36145100545798 29.482310286290495 40.74709561871598 -69.90056543262465 51.83961624473556 -29.815532227302903 -39.774739142006425 29.48231028629048 40.7470956187159 -69.90056543262466 51.83961624473546 -10.602722919031311 132.36145100545784 -109.98559863794644 143.45397163147743 -69.90056543262467 51.83961624473546 -29.81553222730295 -39.774739142006496 29.48231028629042 40.747095618715825 69.56734349161218 -50.86725976802617 -29.81553222730295 -39.77473914200653 -129.19840794621805 -28.682218515986794 -89.11337474089639 -120.2965739027288 -188.49625045981156 -109.2040532767091 -129.19840794621805 -28.682218515986815 -69.9005654326247 51.83961624473555 -29.81553222730295 -39.77473914200643 29.482310286290463 40.74709561871588 -69.90056543262466 51.83961624473553 -29.81553222730286 -39.774739142006425 -129.19840794621797 -28.68221851598683 -89.11337474089625 -120.29657390272884 -29.81553222730286 -39.77473914200649 29.48231028629056 40.74709561871581 -69.90056543262457 51.83961624473549 -10.602722919031198 132.3614510054579 29.482310286290566 40.74709561871585 -69.90056543262457 51.83961624473541 -10.602722919031265 132.36145100545775 -109.9855986379464 143.45397163147737 -69.90056543262463 51.83961624473542 -29.815532227302857 -39.77473914200656 29.482310286290513 40.747095618715804 69.56734349161232 -50.86725976802615 -29.815532227302807 -39.774739142006574 29.482310286290584 40.74709561871576 -69.90056543262456 51.839616244735396 -10.602722919031168 132.36145100545778 29.482310286290595 40.74709561871582 69.56734349161239 -50.86725976802615 -29.815532227302747 -39.77473914200656 10.269500978019012 -131.38909452874853 69.56734349161238 -50.867259768026216 109.65237669693421 -142.48161515476815 10.26950097801907 -131.3890945287486 50.35453418334083 -223.00344991549056 109.65237669693418 -142.48161515476824 168.9502192105276 -61.959780394045914 69.56734349161248 -50.86725976802626 128.86518600520583 29.65457499269612 168.95021921052762 -61.95978039404582 69.56734349161249 -50.86725976802624 109.65237669693428 -142.4816151547682 10.26950097801913 -131.38909452874864 69.56734349161246 -50.86725976802624 128.86518600520577 29.65457499269621 168.95021921052756 -61.95978039404571 228.2480617241209 18.56205436667669 128.86518600520577 29.654574992696237 168.95021921052756 -61.95978039404572 228.24806172412096 18.562054366676644 268.3330949294427 -73.05230102006533 168.95021921052762 -61.95978039404573 69.56734349161248 -50.86725976802621 128.8651860052058 29.654574992696208 29.482310286290677 40.7470956187158 69.56734349161249 -50.86725976802617 128.86518600520574 29.654574992696265 168.95021921052765 -61.95978039404569 228.2480617241209 18.56205436667672 128.86518600520577 29.654574992696265 29.482310286290684 40.74709561871587 69.56734349161246 -50.8672597680261 -29.815532227302672 -39.77473914200654 29.48231028629066 40.74709561871585 88.78015279988409 121.2689303794382 -10.60272291903102 132.36145100545787 48.69511959456236 212.88328576618014 88.7801527998841 121.26893037943827 128.86518600520589 29.65457499269629 29.482310286290787 40.74709561871589 69.56734349161255 -50.8672597680261 128.86518600520589 29.654574992696272 29.482310286290772 40.74709561871584 88.78015279988408 121.26893037943823 -10.602722919031022 132.36145100545784 29.48231028629075 40.74709561871585 69.56734349161249 -50.867259768026145 128.86518600520586 29.65457499269619 168.95021921052762 -61.959780394045794 69.56734349161249 -50.867259768026166 128.86518600520583 29.654574992696237 168.95021921052762 -61.959780394045744 228.24806172412104 18.562054366676634 128.86518600520586 29.654574992696233 29.48231028629078 40.74709561871586 69.56734349161256 -50.86725976802613 -29.815532227302576 -39.7747391420065 29.482310286290808 40.74709561871585 69.56734349161249 -50.867259768026166 128.8651860052059 29.654574992696176 168.95021921052765 -61.959780394045815 69.56734349161256 -50.86725976802617 -29.815532227302594 -39.77473914200658 29.48231028629077 40.7470956187158 -69.90056543262436 51.83961624473542 -29.815532227302576 -39.774739142006545 -129.19840794621766 -28.682218515986815 -89.11337474089606 -120.2965739027288 -188.49625045981114 -109.20405327670916 -129.19840794621774 -28.68221851598683 -69.90056543262433 51.83961624473553 -29.81553222730261 -39.774739142006474 29.482310286290833 40.74709561871585 -69.90056543262429 51.83961624473553 -29.81553222730254 -39.77473914200647 -129.19840794621766 -28.682218515986804 -89.11337474089596 -120.29657390272878 -29.815532227302576 -39.774739142006496 29.48231028629085 40.747095618715825 -69.9005654326243 51.83961624473549 -10.602722919030901 132.3614510054579 29.48231028629086 40.74709561871592 -69.9005654326243 51.83961624473549 -10.60272291903094 132.3614510054579 -109.98559863794605 143.4539716314775 -69.90056543262429 51.83961624473552 -29.815532227302544 -39.77473914200648 29.482310286290833 40.74709561871584 69.56734349161258 -50.86725976802612 -29.815532227302526 -39.7747391420065 29.482310286290897 40.74709561871582 -69.90056543262423 51.83961624473549 -10.602722919030853 132.3614510054579 29.482310286290897 40.74709561871592 69.56734349161269 -50.867259768026074 -29.815532227302437 -39.774739142006446 10.269500978019291 -131.38909452874844 69.56734349161269 -50.867259768026095 128.86518600520594 29.65457499269634 168.9502192105278 -61.95978039404563 228.2480617241211 18.56205436667677 128.865186005206 29.654574992696357 29.48231028629088 40.747095618715996 69.56734349161266 -50.867259768026 -29.815532227302473 -39.77473914200641 29.48231028629088 40.74709561871596 69.56734349161259 -50.86725976802604 128.86518600520597 29.654574992696336 168.9502192105278 -61.95978039404564 69.56734349161265 -50.86725976802604 -29.815532227302487 -39.77473914200649 29.482310286290822 40.747095618715896 -69.90056543262429 51.83961624473551 -29.815532227302526 -39.77473914200646 29.482310286290893 40.74709561871587 -69.90056543262422 51.83961624473553 -10.602722919030846 132.36145100545795 29.48231028629091 40.74709561871596 69.56734349161272 -50.867259768026 -29.81553222730241 -39.774739142006425 10.269500978019352 -131.3890945287484 69.56734349161268 -50.86725976802604 -29.815532227302437 -39.774739142006446 29.482310286290915 40.747095618715925 -69.9005654326242 51.83961624473554 -29.815532227302434 -39.774739142006425 10.26950097801931 -131.38909452874842 69.56734349161268 -50.8672597680261 109.65237669693447 -142.48161515476806 10.269500978019348 -131.38909452874847"/>
</svg>