<svg transform="scale(1,-1)" viewBox="-1010.1279150291824 -697.5792391592986 2083.141633192063 1500.8619487184037" xmlns="http://www.w3.org/2000/svg">
<style>
svg { stroke:black; stroke-width:2; fill:none;}
</style>
<polyline points="108.90434680916015 453.86457836038187 13.521186432785251 451.3976711521956"/>
<polyline points="13.521186432785262 451.39767115219655 -81.86197394358952 448.9307639440074"/>
<polyline points="-81.86197394358952 448.9307639440074 -104.54025341283231 520.1879159503019"/>
<polyline points="-81.86197394358952 448.9307639440074 -104.54025341283231 520.1879159503019"/>
<polyline points="-81.86197394358952 448.9307639440074 -59.18369447434676 377.6736119377129"/>
<polyline points="-59.18369447434676 377.6736119377129 -36.50541500510398 306.4164599314187"/>
<polyline points="-36.50541500510398 306.4164599314187 58.877745371270784 308.88336713960774"/>
<polyline points="58.877745371270784 308.88336713960774 154.26090574764558 311.35027434779687"/>
<polyline points="154.26090574764558 311.35027434779687 58.877745371270784 308.88336713960774"/>
<polyline points="-36.50541500510398 306.4164599314187 -16.814088058204973 376.53302471305943"/>
<polyline points="-16.814088058204973 376.53302471305943 2.8772388886940172 446.6495894947003"/>
<polyline points="2.8772388886940172 446.6495894947003 -16.814088058204966 376.53302471305943"/>
<polyline points="2.8772388886940172 446.6495894947003 -92.5059214876807 444.182682286511"/>
<polyline points="-92.5059214876807 444.182682286511 -187.88908186405544 441.7157750783221"/>
<polyline points="-187.88908186405544 441.7157750783221 -168.19775491715652 511.8323398599628"/>
<polyline points="-187.88908186405544 441.7157750783221 -168.19775491715646 511.832339859963"/>
<polyline points="-187.88908186405544 441.7157750783221 -207.5804088109545 371.59921029668124"/>
<polyline points="-207.5804088109545 371.59921029668124 -227.27173575785355 301.4826455150405"/>
<polyline points="-227.27173575785355 301.4826455150405 -131.8885753814788 303.9495527232295"/>
<polyline points="-131.8885753814788 303.9495527232295 -36.50541500510402 306.4164599314186"/>
<polyline points="-36.50541500510402 306.4164599314186 -16.814088058204966 376.5330247130593"/>
<polyline points="-36.50541500510402 306.4164599314186 -16.814088058204945 376.5330247130593"/>
<polyline points="-36.50541500510402 306.4164599314186 -56.196741952003094 236.29989514977783"/>
<polyline points="-56.196741952003094 236.29989514977783 -75.88806889890216 166.18333036813712"/>
<polyline points="-75.88806889890216 166.18333036813712 -53.20978942965936 94.9261783618426"/>
<polyline points="-53.20978942965936 94.9261783618426 -30.531509960416525 23.66902635554814"/>
<polyline points="-30.531509960416525 23.66902635554814 -53.20978942965935 94.92617836184264"/>
<polyline points="-75.88806889890216 166.18333036813712 19.495091477472574 168.6502375763262"/>
<polyline points="19.495091477472574 168.6502375763262 114.87825185384732 171.11714478451532"/>
<polyline points="114.87825185384732 171.11714478451532 92.19997238460452 242.37429679080984"/>
<polyline points="114.87825185384732 171.11714478451532 92.19997238460451 242.37429679080984"/>
<polyline points="114.87825185384732 171.11714478451532 137.55653132309013 99.85999277822081"/>
<polyline points="137.55653132309013 99.85999277822081 160.234810792333 28.602840771926328"/>
<polyline points="160.234810792333 28.602840771926328 179.92613773923208 98.71940555356713"/>
<polyline points="179.92613773923208 98.71940555356713 199.61746468613117 168.83597033520797"/>
<polyline points="199.61746468613117 168.83597033520797 179.92613773923216 98.71940555356713"/>
<polyline points="160.234810792333 28.602840771926328 140.5434838454339 -41.513724009714444"/>
<polyline points="140.5434838454339 -41.513724009714444 120.85215689853483 -111.63028879135526"/>
<polyline points="120.85215689853483 -111.63028879135526 98.1738774292919 -40.37313678506079"/>
<polyline points="120.85215689853483 -111.63028879135526 98.1738774292919 -40.37313678506081"/>
<polyline points="120.85215689853483 -111.63028879135526 143.53043636777772 -182.88744079764962"/>
<polyline points="143.53043636777772 -182.88744079764962 166.20871583702063 -254.1445928039441"/>
<polyline points="166.20871583702063 -254.1445928039441 185.90004278391984 -184.02802802230337"/>
<polyline points="185.90004278391984 -184.02802802230337 205.59136973081905 -113.9114632406625"/>
<polyline points="205.59136973081905 -113.9114632406625 185.90004278391984 -184.02802802230337"/>
<polyline points="166.20871583702063 -254.1445928039441 70.82555546064599 -256.6115000121332"/>
<polyline points="70.82555546064599 -256.6115000121332 -24.557604915728707 -259.0784072203223"/>
<polyline points="-24.557604915728707 -259.0784072203223 70.82555546064596 -256.61150001213326"/>
<polyline points="-24.557604915728707 -259.0784072203223 -44.248931862627934 -329.19497200196315"/>
<polyline points="-44.248931862627934 -329.19497200196315 -63.940258809527144 -399.31153678360414"/>
<polyline points="-63.940258809527144 -399.31153678360414 -159.3234191859018 -401.7784439917931"/>
<polyline points="-63.940258809527144 -399.31153678360414 -159.3234191859018 -401.7784439917931"/>
<polyline points="-63.940258809527144 -399.31153678360414 31.44290156684753 -396.844629575415"/>
<polyline points="31.44290156684753 -396.844629575415 126.82606194322217 -394.3777223672259"/>
<polyline points="126.82606194322217 -394.3777223672259 146.5173888901215 -324.26115758558507"/>
<polyline points="146.5173888901215 -324.26115758558507 166.20871583702078 -254.14459280394422"/>
<polyline points="166.20871583702078 -254.14459280394422 143.53043636777772 -182.8874407976498"/>
<polyline points="166.20871583702078 -254.14459280394422 143.53043636777775 -182.8874407976498"/>
<polyline points="166.20871583702078 -254.14459280394422 188.88699530626377 -325.40174481023865"/>
<polyline points="188.88699530626377 -325.40174481023865 211.5652747755068 -396.6588968165331"/>
<polyline points="211.5652747755068 -396.6588968165331 191.87394782860744 -466.7754615981739"/>
<polyline points="191.87394782860744 -466.7754615981739 172.18262088170803 -536.8920263798146"/>
<polyline points="172.18262088170803 -536.8920263798146 191.87394782860744 -466.7754615981739"/>
<polyline points="211.5652747755068 -396.6588968165331 306.9484351518814 -394.1919896083441"/>
<polyline points="306.9484351518814 -394.1919896083441 402.33159552825606 -391.7250824001554"/>
<polyline points="402.33159552825606 -391.7250824001554 306.9484351518814 -394.1919896083441"/>
<polyline points="402.33159552825606 -391.7250824001554 422.0229224751555 -321.6085176185145"/>
<polyline points="422.0229224751555 -321.6085176185145 441.71424942205476 -251.49195283687354"/>
<polyline points="441.71424942205476 -251.49195283687354 537.0974097984295 -249.02504562868467"/>
<polyline points="441.71424942205476 -251.49195283687354 537.0974097984295 -249.02504562868467"/>
<polyline points="441.71424942205476 -251.49195283687354 346.3310890456802 -253.9588600450625"/>
<polyline points="346.3310890456802 -253.9588600450625 250.9479286693055 -256.4257672532515"/>
<polyline points="250.9479286693055 -256.4257672532515 155.56476829293084 -258.8926744614402"/>
<polyline points="155.56476829293084 -258.8926744614402 60.181607916556196 -261.3595816696291"/>
<polyline points="60.181607916556196 -261.3595816696291 82.85988738579911 -332.6167336759235"/>
<polyline points="60.181607916556196 -261.3595816696291 82.85988738579906 -332.61673367592357"/>
<polyline points="60.181607916556196 -261.3595816696291 37.50332844731337 -190.10242966333465"/>
<polyline points="37.50332844731337 -190.10242966333465 14.82504897807051 -118.84527765704024"/>
<polyline points="14.82504897807051 -118.84527765704024 34.51637592496995 -48.72871287539951"/>
<polyline points="34.51637592496995 -48.72871287539951 54.20770287186935 21.387851906241302"/>
<polyline points="54.20770287186935 21.387851906241302 34.51637592496986 -48.72871287539953"/>
<polyline points="14.82504897807051 -118.84527765704024 34.5163759249699 -48.72871287539951"/>
<polyline points="34.5163759249699 -48.72871287539951 54.20770287186927 21.387851906241302"/>
<polyline points="54.20770287186927 21.387851906241302 149.59086324824392 23.85475911443018"/>
<polyline points="54.20770287186927 21.387851906241302 149.59086324824392 23.854759114430202"/>
<polyline points="54.20770287186927 21.387851906241302 -41.17545750450538 18.92094469805242"/>
<polyline points="-41.17545750450538 18.92094469805242 -136.55861788088004 16.454037489863524"/>
<polyline points="-136.55861788088004 16.454037489863524 -156.2499448277795 -53.66252729177713"/>
<polyline points="-156.2499448277795 -53.66252729177713 -175.94127177467888 -123.77909207341791"/>
<polyline points="-175.94127177467888 -123.77909207341791 -156.24994482777953 -53.66252729177718"/>
<polyline points="-136.55861788088004 16.454037489863524 -113.8803384116373 -54.803114516431044"/>
<polyline points="-113.8803384116373 -54.803114516431044 -91.20205894239454 -126.06026652272547"/>
<polyline points="-91.20205894239454 -126.06026652272547 -113.88033841163737 -54.80311451643097"/>
<polyline points="-91.20205894239454 -126.06026652272547 -71.5107319954951 -55.943701741084766"/>
<polyline points="-71.5107319954951 -55.943701741084766 -51.819405048595755 14.172863040556054"/>
<polyline points="-51.819405048595755 14.172863040556054 -29.14112557935294 -57.0842889657385"/>
<polyline points="-51.819405048595755 14.172863040556054 -29.14112557935299 -57.084288965738516"/>
<polyline points="-51.819405048595755 14.172863040556054 -74.49768451783851 85.43001504685061"/>
<polyline points="-74.49768451783851 85.43001504685061 -97.1759639870813 156.68716705314512"/>
<polyline points="-97.1759639870813 156.68716705314512 -119.85424345632399 227.94431905943964"/>
<polyline points="-119.85424345632399 227.94431905943964 -142.53252292556672 299.20147106573415"/>
<polyline points="-142.53252292556672 299.20147106573415 -237.91568330194133 296.7345638575454"/>
<polyline points="-142.53252292556672 299.20147106573415 -237.91568330194133 296.7345638575454"/>
<polyline points="-142.53252292556672 299.20147106573415 -47.149362549192 301.668378273923"/>
<polyline points="-47.149362549192 301.668378273923 48.233797827182656 304.1352854821119"/>
<polyline points="48.233797827182656 304.1352854821119 67.92512477408201 374.25185026375266"/>
<polyline points="67.92512477408201 374.25185026375266 87.61645172098133 444.36841504539336"/>
<polyline points="87.61645172098133 444.36841504539336 67.92512477408201 374.25185026375266"/>
<polyline points="48.233797827182656 304.1352854821119 28.542470880283386 234.01872070047116"/>
<polyline points="28.542470880283386 234.01872070047116 8.851143933384071 163.90215591883043"/>
<polyline points="8.851143933384071 163.90215591883043 31.52942340262686 92.64500391253594"/>
<polyline points="8.851143933384071 163.90215591883043 31.52942340262689 92.64500391253597"/>
<polyline points="8.851143933384071 163.90215591883043 -13.82713553585873 235.15930792512498"/>
<polyline points="-13.82713553585873 235.15930792512498 -36.50541500510157 306.41645993141947"/>
<polyline points="-36.50541500510157 306.41645993141947 -16.814088058202337 376.5330247130603"/>
<polyline points="-16.814088058202337 376.5330247130603 2.8772388886968554 446.6495894947009"/>
<polyline points="2.8772388886968554 446.6495894947009 -16.814088058202376 376.5330247130603"/>
<polyline points="-36.50541500510157 306.41645993141947 58.87774537127314 308.88336713960854"/>
<polyline points="58.87774537127314 308.88336713960854 154.26090574764788 311.3502743477976"/>
<polyline points="154.26090574764788 311.3502743477976 58.877745371273136 308.88336713960854"/>
<polyline points="154.26090574764788 311.3502743477976 134.56957880074862 241.23370956615693"/>
<polyline points="134.56957880074862 241.23370956615693 114.8782518538494 171.1171447845161"/>
<polyline points="114.8782518538494 171.1171447845161 210.26141223022412 173.5840519927052"/>
<polyline points="114.8782518538494 171.1171447845161 210.2614122302241 173.5840519927052"/>
<polyline points="114.8782518538494 171.1171447845161 19.495091477474727 168.65023757632704"/>
<polyline points="19.495091477474727 168.65023757632704 -75.88806889889996 166.18333036813797"/>
<polyline points="-75.88806889889996 166.18333036813797 -56.19674195200075 236.29989514977868"/>
<polyline points="-56.19674195200075 236.29989514977868 -36.505415005101575 306.41645993141935"/>
<polyline points="-36.505415005101575 306.41645993141935 58.877745371273086 308.88336713960854"/>
<polyline points="-36.505415005101575 306.41645993141935 58.877745371273114 308.8833671396084"/>
<polyline points="-36.505415005101575 306.41645993141935 -131.88857538147622 303.9495527232302"/>
<polyline points="-131.88857538147622 303.9495527232302 -227.2717357578509 301.48264551504104"/>
<polyline points="-227.2717357578509 301.48264551504104 -249.95001522709384 372.73979752133573"/>
<polyline points="-249.95001522709384 372.73979752133573 -272.6282946963367 443.99694952763036"/>
<polyline points="-272.6282946963367 443.99694952763036 -249.95001522709384 372.73979752133573"/>
<polyline points="-227.2717357578509 301.48264551504104 -207.58040881095158 371.5992102966818"/>
<polyline points="-207.58040881095158 371.5992102966818 -187.88908186405232 441.71577507832234"/>
<polyline points="-187.88908186405232 441.71577507832234 -165.2108023948095 370.4586230720277"/>
<polyline points="-187.88908186405232 441.71577507832234 -165.21080239480946 370.4586230720277"/>
<polyline points="-187.88908186405232 441.71577507832234 -210.5673613332952 512.9729270846171"/>
<polyline points="-210.5673613332952 512.9729270846171 -233.24564080253805 584.2300790909117"/>
<polyline points="-233.24564080253805 584.2300790909117 -137.86248042616336 586.6969862991007"/>
<polyline points="-137.86248042616336 586.6969862991007 -42.479320049788626 589.1638935072898"/>
<polyline points="-42.479320049788626 589.1638935072898 -137.86248042616336 586.6969862991008"/>
<polyline points="-233.24564080253805 584.2300790909117 -328.62880117891274 581.7631718827226"/>
<polyline points="-328.62880117891274 581.7631718827226 -424.01196155528754 579.2962646745335"/>
<polyline points="-424.01196155528754 579.2962646745335 -401.33368208604475 508.039112668239"/>
<polyline points="-424.01196155528754 579.2962646745335 -401.33368208604475 508.039112668239"/>
<polyline points="-424.01196155528754 579.2962646745335 -446.6902410245303 650.5534166808283"/>
<polyline points="-446.6902410245303 650.5534166808283 -469.3685204937731 721.810568687123"/>
<polyline points="-469.3685204937731 721.810568687123 -373.9853601173984 724.2774758953121"/>
<polyline points="-373.9853601173984 724.2774758953121 -278.6021997410236 726.7443831035013"/>
<polyline points="-278.6021997410236 726.7443831035013 -373.9853601173984 724.2774758953123"/>
<polyline points="-469.3685204937731 721.810568687123 -489.05984744067223 651.6940039054825"/>
<polyline points="-489.05984744067223 651.6940039054825 -508.75117438757127 581.5774391238419"/>
<polyline points="-508.75117438757127 581.5774391238419 -489.05984744067223 651.6940039054825"/>
<polyline points="-508.75117438757127 581.5774391238419 -604.1343347639458 579.1105319156529"/>
<polyline points="-604.1343347639458 579.1105319156529 -699.5174951403209 576.6436247074638"/>
<polyline points="-699.5174951403209 576.6436247074638 -719.2088220872199 506.5270599258234"/>
<polyline points="-699.5174951403209 576.6436247074638 -719.20882208722 506.5270599258234"/>
<polyline points="-699.5174951403209 576.6436247074638 -679.8261681934216 646.7601894891043"/>
<polyline points="-679.8261681934216 646.7601894891043 -660.1348412465226 716.8767542707446"/>
<polyline points="-660.1348412465226 716.8767542707446 -564.7516808701479 719.3436614789339"/>
<polyline points="-564.7516808701479 719.3436614789339 -469.368520493773 721.810568687123"/>
<polyline points="-469.368520493773 721.810568687123 -449.67719354687387 791.9271334687634"/>
<polyline points="-469.368520493773 721.810568687123 -449.67719354687387 791.9271334687634"/>
<polyline points="-469.368520493773 721.810568687123 -489.05984744067223 651.6940039054825"/>
<polyline points="-489.05984744067223 651.6940039054825 -508.75117438757127 581.577439123842"/>
<polyline points="-508.75117438757127 581.577439123842 -604.1343347639458 579.1105319156529"/>
<polyline points="-604.1343347639458 579.1105319156529 -699.5174951403208 576.6436247074638"/>
<polyline points="-699.5174951403208 576.6436247074638 -604.1343347639458 579.1105319156529"/>
<polyline points="-508.75117438757127 581.577439123842 -531.4294538568141 652.8345911301369"/>
<polyline points="-531.4294538568141 652.8345911301369 -554.1077333260571 724.0917431364317"/>
<polyline points="-554.1077333260571 724.0917431364317 -531.429453856814 652.8345911301369"/>
<polyline points="-554.1077333260571 724.0917431364317 -458.7245729496823 726.5586503446209"/>
<polyline points="-458.7245729496823 726.5586503446209 -363.34141257330754 729.0255575528099"/>
<polyline points="-363.34141257330754 729.0255575528099 -386.01969204255045 800.282709559105"/>
<polyline points="-363.34141257330754 729.0255575528099 -386.01969204255045 800.282709559105"/>
<polyline points="-363.34141257330754 729.0255575528099 -340.66313310406457 657.7684055465154"/>
<polyline points="-340.66313310406457 657.7684055465154 -317.9848536348217 586.5112535402205"/>
<polyline points="-317.9848536348217 586.5112535402205 -413.3680140111964 584.0443463320314"/>
<polyline points="-413.3680140111964 584.0443463320314 -508.75117438757115 581.5774391238422"/>
<polyline points="-508.75117438757115 581.5774391238422 -531.429453856814 652.8345911301369"/>
<polyline points="-508.75117438757115 581.5774391238422 -531.429453856814 652.834591130137"/>
<polyline points="-508.75117438757115 581.5774391238422 -486.07289491832836 510.3202871175474"/>
<polyline points="-486.07289491832836 510.3202871175474 -463.3946154490855 439.0631351112527"/>
<polyline points="-463.3946154490855 439.0631351112527 -483.08594239598483 368.9465703296122"/>
<polyline points="-483.08594239598483 368.9465703296122 -502.777269342884 298.8300055479718"/>
<polyline points="-502.777269342884 298.8300055479718 -483.08594239598483 368.9465703296122"/>
<polyline points="-463.3946154490855 439.0631351112527 -558.7777758254601 436.5962279030636"/>
<polyline points="-558.7777758254601 436.5962279030636 -654.1609362018348 434.1293206948745"/>
<polyline points="-654.1609362018348 434.1293206948745 -634.4696092549356 504.24588547651496"/>
<polyline points="-654.1609362018348 434.1293206948745 -634.4696092549354 504.2458854765149"/>
<polyline points="-654.1609362018348 434.1293206948745 -673.8522631487342 364.0127559132342"/>
<polyline points="-673.8522631487342 364.0127559132342 -693.5435900956336 293.89619113159364"/>
<polyline points="-693.5435900956336 293.89619113159364 -716.2218695648766 365.1533431378884"/>
<polyline points="-716.2218695648766 365.1533431378884 -738.9001490341195 436.41049514418336"/>
<polyline points="-738.9001490341195 436.41049514418336 -716.2218695648767 365.1533431378884"/>
<polyline points="-693.5435900956336 293.89619113159364 -670.8653106263907 222.63903912529878"/>
<polyline points="-670.8653106263907 222.63903912529878 -648.1870311571478 151.38188711900398"/>
<polyline points="-648.1870311571478 151.38188711900398 -628.4957042102484 221.49845190064437"/>
<polyline points="-648.1870311571478 151.38188711900398 -628.4957042102484 221.49845190064437"/>
<polyline points="-648.1870311571478 151.38188711900398 -667.8783581040472 81.26532233736357"/>
<polyline points="-667.8783581040472 81.26532233736357 -687.5696850509465 11.148757555723119"/>
<polyline points="-687.5696850509465 11.148757555723119 -710.2479645201897 82.40590956201795"/>
<polyline points="-710.2479645201897 82.40590956201795 -732.9262439894327 153.6630615683127"/>
<polyline points="-732.9262439894327 153.6630615683127 -710.2479645201897 82.40590956201791"/>
<polyline points="-687.5696850509465 11.148757555723119 -592.1865246745718 13.615664763912225"/>
<polyline points="-592.1865246745718 13.615664763912225 -496.80336429819727 16.082571972101302"/>
<polyline points="-496.80336429819727 16.082571972101302 -592.1865246745718 13.615664763912225"/>
<polyline points="-496.80336429819727 16.082571972101302 -474.1250848289542 -55.174580034193504"/>
<polyline points="-474.1250848289542 -55.174580034193504 -451.4468053597112 -126.43173204048833"/>
<polyline points="-451.4468053597112 -126.43173204048833 -356.0636449833366 -123.96482483229924"/>
<polyline points="-451.4468053597112 -126.43173204048833 -356.0636449833366 -123.96482483229924"/>
<polyline points="-451.4468053597112 -126.43173204048833 -546.8299657360858 -128.8986392486774"/>
<polyline points="-546.8299657360858 -128.8986392486774 -642.2131261124606 -131.36554645686647"/>
<polyline points="-642.2131261124606 -131.36554645686647 -661.9044530593601 -201.4821112385069"/>
<polyline points="-661.9044530593601 -201.4821112385069 -681.5957800062596 -271.5986760201473"/>
<polyline points="-681.5957800062596 -271.5986760201473 -586.212619629885 -269.1317688119583"/>
<polyline points="-681.5957800062596 -271.5986760201473 -586.2126196298851 -269.1317688119583"/>
<polyline points="-681.5957800062596 -271.5986760201473 -776.9789403826342 -274.0655832283364"/>
<polyline points="-776.9789403826342 -274.0655832283364 -872.3621007590087 -276.5324904365255"/>
<polyline points="-872.3621007590087 -276.5324904365255 -852.6707738121091 -206.4159256548851"/>
<polyline points="-852.6707738121091 -206.4159256548851 -832.9794468652095 -136.29936087324472"/>
<polyline points="-832.9794468652095 -136.29936087324472 -852.6707738121091 -206.4159256548851"/>
<polyline points="-872.3621007590087 -276.5324904365255 -895.0403802282518 -205.27533843023062"/>
<polyline points="-895.0403802282518 -205.27533843023062 -917.7186596974951 -134.01818642393567"/>
<polyline points="-917.7186596974951 -134.01818642393567 -895.0403802282518 -205.27533843023062"/>
<polyline points="-917.7186596974951 -134.01818642393567 -937.4099866443947 -204.13475120557595"/>
<polyline points="-937.4099866443947 -204.13475120557595 -957.1013135912945 -274.25131598721634"/>
<polyline points="-957.1013135912945 -274.25131598721634 -979.7795930605374 -202.99416398092143"/>
<polyline points="-957.1013135912945 -274.25131598721634 -979.7795930605374 -202.99416398092143"/>
<polyline points="-957.1013135912945 -274.25131598721634 -934.4230341220511 -345.50846799351115"/>
<polyline points="-934.4230341220511 -345.50846799351115 -911.7447546528081 -416.7656199998062"/>
<polyline points="-911.7447546528081 -416.7656199998062 -889.0664751835648 -488.022772006101"/>
<polyline points="-889.0664751835648 -488.022772006101 -866.3881957143218 -559.279924012396"/>
<polyline points="-866.3881957143218 -559.279924012396 -961.771356090696 -561.746831220585"/>
<polyline points="-866.3881957143218 -559.279924012396 -961.771356090696 -561.7468312205851"/>
<polyline points="-866.3881957143218 -559.279924012396 -771.0050353379471 -556.8130168042067"/>
<polyline points="-771.0050353379471 -556.8130168042067 -675.6218749615725 -554.3461095960178"/>
<polyline points="-675.6218749615725 -554.3461095960178 -695.3132019084721 -624.462674377658"/>
<polyline points="-695.3132019084721 -624.462674377658 -715.0045288553717 -694.5792391592986"/>
<polyline points="-715.0045288553717 -694.5792391592986 -695.3132019084721 -624.4626743776581"/>
<polyline points="-866.3881957143218 -559.279924012396 -889.0664751835648 -488.022772006101"/>
<polyline points="-889.0664751835648 -488.022772006101 -911.7447546528081 -416.7656199998062"/>
<polyline points="-911.7447546528081 -416.7656199998062 -1007.1279150291823 -419.2325272079955"/>
<polyline points="-911.7447546528081 -416.7656199998062 -1007.1279150291824 -419.2325272079955"/>
<polyline points="-911.7447546528081 -416.7656199998062 -816.3615942764334 -414.29871279161705"/>
<polyline points="-816.3615942764334 -414.29871279161705 -720.9784339000589 -411.8318055834279"/>
<polyline points="-720.9784339000589 -411.8318055834279 -698.3001544308156 -483.0889575897227"/>
<polyline points="-698.3001544308156 -483.0889575897227 -675.6218749615724 -554.3461095960175"/>
<polyline points="-675.6218749615724 -554.3461095960175 -698.3001544308156 -483.0889575897227"/>
<polyline points="-720.9784339000589 -411.8318055834279 -740.6697608469585 -481.9483703650684"/>
<polyline points="-740.6697608469585 -481.9483703650684 -760.361087793858 -552.0649351467088"/>
<polyline points="-760.361087793858 -552.0649351467088 -740.6697608469585 -481.9483703650684"/>
<polyline points="-760.361087793858 -552.0649351467088 -783.0393672631013 -480.80778314041396"/>
<polyline points="-783.0393672631013 -480.80778314041396 -805.7176467323447 -409.5506311341192"/>
<polyline points="-805.7176467323447 -409.5506311341192 -825.4089736792444 -479.6671959157595"/>
<polyline points="-805.7176467323447 -409.5506311341192 -825.4089736792444 -479.6671959157595"/>
<polyline points="-805.7176467323447 -409.5506311341192 -786.0263197854454 -339.43406635247874"/>
<polyline points="-786.0263197854454 -339.43406635247874 -766.3349928385458 -269.3175015708383"/>
<polyline points="-766.3349928385458 -269.3175015708383 -743.6567133693026 -340.5746535771331"/>
<polyline points="-743.6567133693026 -340.5746535771331 -720.9784339000593 -411.8318055834277"/>
<polyline points="-720.9784339000593 -411.8318055834277 -740.6697608469586 -481.9483703650682"/>
<polyline points="-720.9784339000593 -411.8318055834277 -740.6697608469589 -481.9483703650682"/>
<polyline points="-720.9784339000593 -411.8318055834277 -701.2871069531595 -341.71524080178733"/>
<polyline points="-701.2871069531595 -341.71524080178733 -681.5957800062602 -271.59867602014685"/>
<polyline points="-681.5957800062602 -271.59867602014685 -586.2126196298857 -269.1317688119577"/>
<polyline points="-586.2126196298857 -269.1317688119577 -490.82945925351106 -266.66486160376866"/>
<polyline points="-490.82945925351106 -266.66486160376866 -586.2126196298857 -269.1317688119577"/>
<polyline points="-681.5957800062602 -271.59867602014685 -658.917500537017 -342.8558280264416"/>
<polyline points="-658.917500537017 -342.8558280264416 -636.2392210677735 -414.11298003273635"/>
<polyline points="-636.2392210677735 -414.11298003273635 -731.6223814441483 -416.57988724092564"/>
<polyline points="-636.2392210677735 -414.11298003273635 -731.6223814441483 -416.57988724092564"/>
<polyline points="-636.2392210677735 -414.11298003273635 -540.8560606913991 -411.64607282454733"/>
<polyline points="-540.8560606913991 -411.64607282454733 -445.4729003150246 -409.1791656163582"/>
<polyline points="-445.4729003150246 -409.1791656163582 -465.1642272619243 -479.2957303979987"/>
<polyline points="-465.1642272619243 -479.2957303979987 -484.85555420882383 -549.4122951796393"/>
<polyline points="-484.85555420882383 -549.4122951796393 -465.1642272619243 -479.2957303979987"/>
<polyline points="-445.4729003150246 -409.1791656163582 -425.781573368125 -339.0626008347177"/>
<polyline points="-425.781573368125 -339.0626008347177 -406.09024642122534 -268.9460360530772"/>
<polyline points="-406.09024642122534 -268.9460360530772 -501.4734067975999 -271.41294326126615"/>
<polyline points="-406.09024642122534 -268.9460360530772 -501.4734067975999 -271.4129432612661"/>
<polyline points="-406.09024642122534 -268.9460360530772 -310.7070860448507 -266.47912884488824"/>
<polyline points="-310.7070860448507 -266.47912884488824 -215.32392566847628 -264.0122216366993"/>
<polyline points="-215.32392566847628 -264.0122216366993 -235.01525261537577 -334.12878641833987"/>
<polyline points="-235.01525261537577 -334.12878641833987 -254.70657956227527 -404.24535119998046"/>
<polyline points="-254.70657956227527 -404.24535119998046 -235.01525261537572 -334.12878641833987"/>
<polyline points="-215.32392566847628 -264.0122216366993 -238.0022051377192 -192.75506963040456"/>
<polyline points="-238.0022051377192 -192.75506963040456 -260.6804846069622 -121.49791762410993"/>
<polyline points="-260.6804846069622 -121.49791762410993 -238.00220513771916 -192.7550696304045"/>
<polyline points="-260.6804846069622 -121.49791762410993 -240.9891576600627 -51.381352842469376"/>
<polyline points="-240.9891576600627 -51.381352842469376 -221.29783071316317 18.735211939171226"/>
<polyline points="-221.29783071316317 18.735211939171226 -243.97611018240613 89.99236394546587"/>
<polyline points="-221.29783071316317 18.735211939171226 -243.97611018240613 89.99236394546587"/>
<polyline points="-221.29783071316317 18.735211939171226 -198.6195512439202 -52.521940067123396"/>
<polyline points="-198.6195512439202 -52.521940067123396 -175.9412717746772 -123.77909207341798"/>
<polyline points="-175.9412717746772 -123.77909207341798 -80.55811139830257 -121.31218486522918"/>
<polyline points="-80.55811139830257 -121.31218486522918 14.825048978072047 -118.84527765704027"/>
<polyline points="14.825048978072047 -118.84527765704027 -7.853230491170857 -47.58812565074566"/>
<polyline points="14.825048978072047 -118.84527765704027 -7.853230491170836 -47.58812565074568"/>
<polyline points="14.825048978072047 -118.84527765704027 37.503328447314935 -190.10242966333496"/>
<polyline points="37.503328447314935 -190.10242966333496 60.18160791655785 -261.3595816696296"/>
<polyline points="60.18160791655785 -261.3595816696296 -35.20155245981676 -263.82648887781846"/>
<polyline points="-35.20155245981676 -263.82648887781846 -130.5847128361914 -266.2933960860072"/>
<polyline points="-130.5847128361914 -266.2933960860072 -35.20155245981676 -263.82648887781846"/>
<polyline points="60.18160791655785 -261.3595816696296 40.49028096965821 -331.4761464512702"/>
<polyline points="40.49028096965821 -331.4761464512702 20.79895402275855 -401.5927112329109"/>
<polyline points="20.79895402275855 -401.5927112329109 40.49028096965821 -331.4761464512702"/>
<polyline points="20.79895402275855 -401.5927112329109 116.18211439913314 -399.12580402472213"/>
<polyline points="116.18211439913314 -399.12580402472213 211.56527477550776 -396.65889681653334"/>
<polyline points="211.56527477550776 -396.65889681653334 191.87394782860815 -466.7754615981741"/>
<polyline points="211.56527477550776 -396.65889681653334 191.87394782860812 -466.7754615981741"/>
<polyline points="211.56527477550776 -396.65889681653334 231.2566017224074 -326.54233203489264"/>
<polyline points="231.2566017224074 -326.54233203489264 250.94792866930703 -256.425767253252"/>
<polyline points="250.94792866930703 -256.425767253252 270.6392556162067 -186.30920247161134"/>
<polyline points="270.6392556162067 -186.30920247161134 290.3305825631063 -116.19263768997055"/>
<polyline points="290.3305825631063 -116.19263768997055 313.00886203234916 -187.44978969626513"/>
<polyline points="290.3305825631063 -116.19263768997055 313.00886203234916 -187.44978969626507"/>
<polyline points="290.3305825631063 -116.19263768997055 267.65230309386345 -44.93548568367604"/>
<polyline points="267.65230309386345 -44.93548568367604 244.97402362462051 26.321666322618512"/>
<polyline points="244.97402362462051 26.321666322618512 340.3571840009951 28.788573530807266"/>
<polyline points="340.3571840009951 28.788573530807266 435.74034437736975 31.255480738996017"/>
<polyline points="435.74034437736975 31.255480738996017 340.3571840009951 28.788573530807206"/>
<polyline points="244.97402362462051 26.321666322618512 225.2826966777209 -43.79489845902227"/>
<polyline points="225.2826966777209 -43.79489845902227 205.59136973082138 -113.91146324066293"/>
<polyline points="205.59136973082138 -113.91146324066293 110.20820935444678 -116.37837044885175"/>
<polyline points="205.59136973082138 -113.91146324066293 110.20820935444677 -116.37837044885178"/>
<polyline points="205.59136973082138 -113.91146324066293 300.97453010719596 -111.44455603247415"/>
<polyline points="300.97453010719596 -111.44455603247415 396.35769048357076 -108.97764882428528"/>
<polyline points="396.35769048357076 -108.97764882428528 416.0490174304702 -38.86108404264463"/>
<polyline points="416.0490174304702 -38.86108404264463 435.7403443773698 31.25548073899614"/>
<polyline points="435.7403443773698 31.25548073899614 416.04901743047026 -38.861084042644585"/>
<polyline points="396.35769048357076 -108.97764882428528 419.0359699528137 -180.23480083057981"/>
<polyline points="419.0359699528137 -180.23480083057981 441.7142494220566 -251.49195283687433"/>
<polyline points="441.7142494220566 -251.49195283687433 419.03596995281373 -180.2348008305798"/>
<polyline points="441.7142494220566 -251.49195283687433 422.02292247515703 -321.60851761851507"/>
<polyline points="422.02292247515703 -321.60851761851507 402.3315955282575 -391.7250824001558"/>
<polyline points="402.3315955282575 -391.7250824001558 425.00987499750045 -462.9822344064503"/>
<polyline points="402.3315955282575 -391.7250824001558 425.00987499750045 -462.9822344064503"/>
<polyline points="402.3315955282575 -391.7250824001558 379.6533160590145 -320.4679303938612"/>
<polyline points="379.6533160590145 -320.4679303938612 356.9750365897715 -249.21077838756668"/>
<polyline points="356.9750365897715 -249.21077838756668 376.666363536671 -179.09421360592583"/>
<polyline points="376.666363536671 -179.09421360592583 396.35769048357054 -108.97764882428515"/>
<polyline points="396.35769048357054 -108.97764882428515 419.0359699528136 -180.23480083057973"/>
<polyline points="396.35769048357054 -108.97764882428515 419.03596995281356 -180.2348008305797"/>
<polyline points="396.35769048357054 -108.97764882428515 373.67941101432746 -37.7204968179906"/>
<polyline points="373.67941101432746 -37.7204968179906 351.0011315450844 33.536655188303875"/>
<polyline points="351.0011315450844 33.536655188303875 446.38429192145895 36.00356239649284"/>
<polyline points="446.38429192145895 36.00356239649284 541.7674522978336 38.47046960468182"/>
<polyline points="541.7674522978336 38.47046960468182 446.38429192145895 36.00356239649285"/>
<polyline points="351.0011315450844 33.536655188303875 370.69245849198376 103.65321996994463"/>
<polyline points="370.69245849198376 103.65321996994463 390.38378543888336 173.76978475158535"/>
<polyline points="390.38378543888336 173.76978475158535 295.00062506250873 171.30287754339642"/>
<polyline points="390.38378543888336 173.76978475158535 295.00062506250873 171.30287754339645"/>
<polyline points="390.38378543888336 173.76978475158535 485.7669458152581 176.2366919597743"/>
<polyline points="485.7669458152581 176.2366919597743 581.1501061916326 178.7035991679632"/>
<polyline points="581.1501061916326 178.7035991679632 603.8283856608756 107.44644716166864"/>
<polyline points="603.8283856608756 107.44644716166864 626.5066651301184 36.189295155374104"/>
<polyline points="626.5066651301184 36.189295155374104 603.8283856608756 107.4464471616687"/>
<polyline points="581.1501061916326 178.7035991679632 558.4718267223897 249.96075117425772"/>
<polyline points="558.4718267223897 249.96075117425772 535.7935472531467 321.2179031805522"/>
<polyline points="535.7935472531467 321.2179031805522 440.41038687677207 318.7509959723633"/>
<polyline points="535.7935472531467 321.2179031805522 440.410386876772 318.7509959723633"/>
<polyline points="535.7935472531467 321.2179031805522 631.1767076295214 323.6848103887411"/>
<polyline points="631.1767076295214 323.6848103887411 726.5598680058959 326.15171759693015"/>
<polyline points="726.5598680058959 326.15171759693015 749.238147475139 254.89456559063564"/>
<polyline points="749.238147475139 254.89456559063564 771.9164269443817 183.63741358434118"/>
<polyline points="771.9164269443817 183.63741358434118 749.2381474751392 254.89456559063564"/>
<polyline points="726.5598680058959 326.15171759693015 706.8685410589966 256.0351528152892"/>
<polyline points="706.8685410589966 256.0351528152892 687.1772141120973 185.9185880336484"/>
<polyline points="687.1772141120973 185.9185880336484 706.8685410589967 256.0351528152893"/>
<polyline points="687.1772141120973 185.9185880336484 664.4989346428542 257.17574003994287"/>
<polyline points="664.4989346428542 257.17574003994287 641.8206551736113 328.43289204623727"/>
<polyline points="641.8206551736113 328.43289204623727 622.129328226712 258.31632726459634"/>
<polyline points="641.8206551736113 328.43289204623727 622.129328226712 258.31632726459634"/>
<polyline points="641.8206551736113 328.43289204623727 661.5119821205108 398.5494568278781"/>
<polyline points="661.5119821205108 398.5494568278781 681.20330906741 468.66602160951896"/>
<polyline points="681.20330906741 468.66602160951896 703.8815885366529 397.4088696032246"/>
<polyline points="703.8815885366529 397.4088696032246 726.5598680058957 326.1517175969302"/>
<polyline points="726.5598680058957 326.1517175969302 631.1767076295213 323.6848103887412"/>
<polyline points="726.5598680058957 326.1517175969302 631.1767076295213 323.6848103887412"/>
<polyline points="726.5598680058957 326.1517175969302 821.9430283822707 328.61862480511917"/>
<polyline points="821.9430283822707 328.61862480511917 917.3261887586452 331.0855320133081"/>
<polyline points="917.3261887586452 331.0855320133081 894.6479092894025 402.3426840196025"/>
<polyline points="894.6479092894025 402.3426840196025 871.9696298201593 473.5998360258969"/>
<polyline points="871.9696298201593 473.5998360258969 894.6479092894025 402.3426840196025"/>
<polyline points="917.3261887586452 331.0855320133081 937.0175157055448 401.20209679494906"/>
<polyline points="937.0175157055448 401.20209679494906 956.7088426524441 471.31866157659005"/>
<polyline points="956.7088426524441 471.31866157659005 937.0175157055448 401.20209679494906"/>
<polyline points="956.7088426524441 471.31866157659005 979.3871221216871 400.0615095702956"/>
<polyline points="979.3871221216871 400.0615095702956 1002.0654015909302 328.8043575640014"/>
<polyline points="1002.0654015909302 328.8043575640014 1021.7567285378293 398.92092234564245"/>
<polyline points="1002.0654015909302 328.8043575640014 1021.7567285378294 398.92092234564234"/>
<polyline points="1002.0654015909302 328.8043575640014 982.3740746440308 258.68779278236053"/>
<polyline points="982.3740746440308 258.68779278236053 962.6827476971313 188.5712280007195"/>
<polyline points="962.6827476971313 188.5712280007195 942.9914207502319 118.45466321907855"/>
<polyline points="942.9914207502319 118.45466321907855 923.3000938033324 48.338098437437615"/>
<polyline points="923.3000938033324 48.338098437437615 1018.6832541797075 50.80500564562654"/>
<polyline points="923.3000938033324 48.338098437437615 1018.6832541797075 50.80500564562652"/>
<polyline points="923.3000938033324 48.338098437437615 827.9169334269577 45.871191229248666"/>
<polyline points="827.9169334269577 45.871191229248666 732.5337730505831 43.404284021059745"/>
<polyline points="732.5337730505831 43.404284021059745 755.2120525198263 -27.852867985234603"/>
<polyline points="755.2120525198263 -27.852867985234603 777.8903319890694 -99.11001999152889"/>
<polyline points="777.8903319890694 -99.11001999152889 755.2120525198263 -27.852867985234603"/>
<polyline points="732.5337730505831 43.404284021059745 755.2120525198262 -27.852867985234607"/>
<polyline points="755.2120525198262 -27.852867985234607 777.8903319890694 -99.11001999152901"/>
<polyline points="777.8903319890694 -99.11001999152901 797.5816589359686 -28.993455209888104"/>
<polyline points="777.8903319890694 -99.11001999152901 797.5816589359686 -28.993455209888104"/>
<polyline points="777.8903319890694 -99.11001999152901 758.19900504217 -169.2265847731699"/>
<polyline points="758.19900504217 -169.2265847731699 738.5076780952704 -239.34314955481074"/>
<polyline points="738.5076780952704 -239.34314955481074 715.8293986260276 -168.08599754851633"/>
<polyline points="715.8293986260276 -168.08599754851633 693.1511191567845 -96.82884554222196"/>
<polyline points="693.1511191567845 -96.82884554222196 715.8293986260276 -168.08599754851633"/>
<polyline points="738.5076780952704 -239.34314955481074 833.8908384716451 -236.87624234662164"/>
<polyline points="833.8908384716451 -236.87624234662164 929.2739988480197 -234.40933513843262"/>
<polyline points="929.2739988480197 -234.40933513843262 833.8908384716451 -236.87624234662164"/>
<polyline points="929.2739988480197 -234.40933513843262 951.9522783172629 -305.66648714472706"/>
<polyline points="951.9522783172629 -305.66648714472706 974.630557786506 -376.9236391510214"/>
<polyline points="974.630557786506 -376.9236391510214 1070.0137181628807 -374.4567319428326"/>
<polyline points="974.630557786506 -376.9236391510214 1070.0137181628807 -374.4567319428326"/>
<polyline points="974.630557786506 -376.9236391510214 879.2473974101315 -379.3905463592104"/>
<polyline points="879.2473974101315 -379.3905463592104 783.8642370337568 -381.8574535673996"/>
<polyline points="783.8642370337568 -381.8574535673996 688.4810766573823 -384.32436077558845"/>
<polyline points="688.4810766573823 -384.32436077558845 593.0979162810075 -386.79126798377746"/>
<polyline points="593.0979162810075 -386.79126798377746 573.4065893341082 -456.9078327654183"/>
<polyline points="593.0979162810075 -386.79126798377746 573.406589334108 -456.9078327654182"/>
<polyline points="593.0979162810075 -386.79126798377746 612.7892432279071 -316.6747032021367"/>
<polyline points="612.7892432279071 -316.6747032021367 632.4805701748069 -246.55813842049588"/>
<polyline points="632.4805701748069 -246.55813842049588 655.1588496440498 -317.81529042679034"/>
<polyline points="655.1588496440498 -317.81529042679034 677.8371291132928 -389.072442433085"/>
<polyline points="677.8371291132928 -389.072442433085 655.1588496440498 -317.81529042679034"/>
<polyline points="632.4805701748069 -246.55813842049588 609.8022907055638 -175.3009864142015"/>
<polyline points="609.8022907055638 -175.3009864142015 587.1240112363207 -104.04383440790696"/>
<polyline points="587.1240112363207 -104.04383440790696 682.5071716126953 -101.57692719971806"/>
<polyline points="587.1240112363207 -104.04383440790696 682.5071716126953 -101.57692719971803"/>
<polyline points="587.1240112363207 -104.04383440790696 491.740850859946 -106.5107416160959"/>
<polyline points="491.740850859946 -106.5107416160959 396.35769048357156 -108.97764882428491"/>
<polyline points="396.35769048357156 -108.97764882428491 419.0359699528145 -180.23480083057945"/>
<polyline points="419.0359699528145 -180.23480083057945 441.7142494220576 -251.49195283687402"/>
<polyline points="441.7142494220576 -251.49195283687402 419.03596995281447 -180.23480083057945"/>
<polyline points="396.35769048357156 -108.97764882428491 416.0490174304709 -38.86108404264423"/>
<polyline points="416.0490174304709 -38.86108404264423 435.7403443773704 31.25548073899644"/>
<polyline points="435.7403443773704 31.25548073899644 416.04901743047077 -38.86108404264423"/>
<polyline points="435.7403443773704 31.25548073899644 413.06206490812735 102.51263274529103"/>
<polyline points="413.06206490812735 102.51263274529103 390.38378543888433 173.76978475158555"/>
<polyline points="390.38378543888433 173.76978475158555 410.0751123857838 243.88634953322617"/>
<polyline points="390.38378543888433 173.76978475158555 410.07511238578377 243.88634953322622"/>
<polyline points="390.38378543888433 173.76978475158555 370.6924584919849 103.65321996994489"/>
<polyline points="370.6924584919849 103.65321996994489 351.00113154508557 33.53665518830422"/>
<polyline points="351.00113154508557 33.53665518830422 373.6794110143286 -37.72049681799038"/>
<polyline points="373.6794110143286 -37.72049681799038 396.35769048357173 -108.97764882428493"/>
<polyline points="396.35769048357173 -108.97764882428493 416.049017430471 -38.86108404264427"/>
<polyline points="396.35769048357173 -108.97764882428493 416.0490174304711 -38.86108404264436"/>
<polyline points="396.35769048357173 -108.97764882428493 376.6663635366724 -179.0942136059257"/>
<polyline points="376.6663635366724 -179.0942136059257 356.9750365897729 -249.2107783875664"/>
<polyline points="356.9750365897729 -249.2107783875664 261.5918762133984 -251.6776855957555"/>
<polyline points="261.5918762133984 -251.6776855957555 166.20871583702376 -254.14459280394445"/>
<polyline points="166.20871583702376 -254.14459280394445 261.5918762133984 -251.6776855957554"/>
<polyline points="356.9750365897729 -249.2107783875664 379.65331605901605 -320.46793039386097"/>
<polyline points="379.65331605901605 -320.46793039386097 402.3315955282592 -391.7250824001555"/>
<polyline points="402.3315955282592 -391.7250824001555 497.7147559046339 -389.2581751919665"/>
<polyline points="402.3315955282592 -391.7250824001555 497.7147559046339 -389.2581751919665"/>
<polyline points="402.3315955282592 -391.7250824001555 306.9484351518847 -394.19198960834456"/>
<polyline points="306.9484351518847 -394.19198960834456 211.5652747755101 -396.6588968165335"/>
<polyline points="211.5652747755101 -396.6588968165335 231.2566017224096 -326.54233203489287"/>
<polyline points="231.2566017224096 -326.54233203489287 250.94792866930905 -256.42576725325216"/>
<polyline points="250.94792866930905 -256.42576725325216 231.2566017224096 -326.542332034893"/>
<polyline points="211.5652747755101 -396.6588968165335 191.87394782861054 -466.7754615981742"/>
<polyline points="191.87394782861054 -466.7754615981742 172.18262088171102 -536.8920263798148"/>
<polyline points="172.18262088171102 -536.8920263798148 267.5657812580855 -534.4251191716259"/>
<polyline points="172.18262088171102 -536.8920263798148 267.5657812580855 -534.4251191716259"/>
<polyline points="172.18262088171102 -536.8920263798148 76.7994605053364 -539.3589335880039"/>
<polyline points="76.7994605053364 -539.3589335880039 -18.58369987103814 -541.8258407961929"/>
<polyline points="-18.58369987103814 -541.8258407961929 1.107627075861454 -471.70927601455224"/>
<polyline points="1.107627075861454 -471.70927601455224 20.79895402276108 -401.5927112329116"/>
<polyline points="20.79895402276108 -401.5927112329116 1.1076270758614266 -471.70927601455224"/>
<polyline points="-18.58369987103814 -541.8258407961929 -41.26197934028132 -470.5686887898984"/>
<polyline points="-41.26197934028132 -470.5686887898984 -63.94025880952453 -399.31153678360374"/>
<polyline points="-63.94025880952453 -399.31153678360374 -41.26197934028143 -470.5686887898984"/>
<polyline points="-63.94025880952453 -399.31153678360374 -83.63158575642414 -469.4281015652443"/>
<polyline points="-83.63158575642414 -469.4281015652443 -103.32291270332372 -539.5446663468848"/>
<polyline points="-103.32291270332372 -539.5446663468848 -126.00119217256689 -468.2875143405905"/>
<polyline points="-103.32291270332372 -539.5446663468848 -126.00119217256692 -468.2875143405905"/>
<polyline points="-103.32291270332372 -539.5446663468848 -80.64463323408046 -610.8018183531794"/>
<polyline points="-80.64463323408046 -610.8018183531794 -57.966353764837265 -682.0589703594742"/>
</svg>