<svg transform="scale(1,-1)" viewBox="-202.7577858738373 -178.1131060255192 411.72857453930226 400.3467503083502" xmlns="http://www.w3.org/2000/svg">
<style>
svg { stroke:black; stroke-width:2; fill:none;}
</style>
<polyline points="108.95879695032922 -0.6412920167585989 107.32811488857755 -5.871167080952064 105.44207631553162 -13.073914288724954"/>
<polyline points="105.44207631553162 -13.07391428872495 103.5560377424857 -20.276661496498015 101.54317307007211 -28.961425528744822"/>
<polyline points="101.54317307007211 -28.961425528744822 99.53030839765852 -37.64618956099163 97.52779102688616 -47.22111810116572"/>
<polyline points="97.52779102688616 -47.22111810116572 95.52527365611378 -56.79604664133982 93.66957183648435 -66.60862413274586"/>
<polyline points="93.66957183648435 -66.60862413274586 91.8138700168549 -76.42120162415193 90.23144676068382 -85.8027171268017"/>
<polyline points="90.23144676068382 -85.8027171268017 88.64902350451278 -95.18423262945149 87.44771834163015 -103.49535136552672"/>
<polyline points="87.44771834163015 -103.49535136552672 86.24641317874747 -111.80647010160196 85.50809307075302 -118.48080306401236"/>
<polyline points="85.50809307075302 -118.48080306401236 84.76977296275858 -125.1551360264227 84.54475320488048 -129.7378384536366"/>
<polyline points="84.54475320488048 -129.7378384536366 84.31973344700239 -134.32054088085053 84.62334876387727 -136.49930917572723"/>
<polyline points="84.62334876387727 -136.49930917572723 84.92696408075219 -138.67807747060394 85.73852359028311 -138.30443217443238"/>
<polyline points="85.73852359028311 -138.30443217443238 86.550083099814 -137.93078687826085 87.81428036259192 -135.03019130049714"/>
<polyline points="87.81428036259192 -135.03019130049714 89.07847762536986 -132.1295957227334 90.7091596871212 -126.8997206585413"/>
<polyline points="90.7091596871212 -126.8997206585413 92.33984174887254 -121.66984559434911 94.2258803219185 -114.46709838657605"/>
<polyline points="94.2258803219185 -114.46709838657605 96.11191889496443 -107.26435117880304 98.12478356737802 -98.5795871465562"/>
<polyline points="98.12478356737802 -98.5795871465562 100.13764823979159 -89.89482311430939 102.14016561056398 -80.3198945741353"/>
<polyline points="102.14016561056398 -80.3198945741353 104.14268298133636 -70.74496603396122 105.99838480096581 -60.93238854255514"/>
<polyline points="105.99838480096581 -60.93238854255514 107.85408662059527 -51.119811051149085 109.4365098767663 -41.738295548499316"/>
<polyline points="109.4365098767663 -41.738295548499316 111.01893313293735 -32.35678004584956 112.22023829581997 -24.045661309774292"/>
<polyline points="112.22023829581997 -24.045661309774292 113.42154345870263 -15.73454257369903 114.1598635666971 -9.060209611288679"/>
<polyline points="114.1598635666971 -9.060209611288679 114.89818367469157 -2.3858766488783165 115.12320343256965 2.196825778335602"/>
<polyline points="115.12320343256965 2.196825778335602 115.34822319044775 6.779528205549534 115.04460787357287 8.958296500426222"/>
<polyline points="115.04460787357287 8.958296500426222 114.74099255669798 11.13706479530291 113.92943304716702 10.763419499131379"/>
<polyline points="113.92943304716702 10.763419499131379 113.11787353763609 10.389774202959842 111.85367627485819 7.4891786251961125"/>
<polyline points="111.85367627485819 7.4891786251961125 110.58947901208026 4.5885830474323885 108.95879695032895 -0.6412920167597551"/>
<polyline points="108.95879695032895 -0.6412920167597551 107.32811488857756 -5.871167080951905 105.44207631553162 -13.073914288724964"/>
<polyline points="105.44207631553162 -13.073914288724964 103.55603774248569 -20.276661496498033 101.54317307007211 -28.961425528744837"/>
<polyline points="101.54317307007211 -28.961425528744837 99.53030839765852 -37.646189560991644 97.52779102688616 -47.22111810116574"/>
<polyline points="97.52779102688616 -47.22111810116574 95.52527365611378 -56.79604664133982 93.66957183648435 -66.60862413274587"/>
<polyline points="93.66957183648435 -66.60862413274587 91.81387001685489 -76.42120162415196 90.23144676068382 -85.80271712680172"/>
<polyline points="90.23144676068382 -85.80271712680172 88.64902350451278 -95.18423262945149 87.44771834163015 -103.49535136552672"/>
<polyline points="87.44771834163015 -103.49535136552672 95.1597360090486 -119.78105773545339 91.00499337096353 -115.34407755008417"/>
<polyline points="95.1597360090486 -119.78105773545339 91.01306591608176 -113.2692568145368"/>
<polyline points="86.86639582311497 -106.75745589362025 82.71972573014814 -100.24565497270368"/>
<polyline points="82.71972573014814 -100.24565497270368 78.56498309206307 -95.80867478733448"/>
<polyline points="82.71972573014814 -100.24565497270368 95.44695772287271 -107.51362165535055 90.1938007730351 -108.66681539318041"/>
<polyline points="95.44695772287271 -107.51362165535055 89.43367356065619 -106.22947046279761"/>
<polyline points="83.4203893984397 -104.94531927024467 77.4071052362232 -103.66116807769176"/>
<polyline points="77.4071052362232 -103.66116807769176 72.15394828638563 -104.81436181552162"/>
<polyline points="77.4071052362232 -103.66116807769176 91.53950197379429 -99.57972520216107 87.23424330598202 -105.97972022308258"/>
<polyline points="91.53950197379429 -99.57972520216107 85.6532026705211 -103.94896154979794"/>
<polyline points="79.76690336724792 -108.31819789743491 73.88060406397477 -112.6874342450718"/>
<polyline points="73.88060406397477 -112.6874342450718 69.57534539616246 -119.08742926599331"/>
<polyline points="44.4491075476089 -134.5336159832564 36.88739427604525 -138.9799621079074"/>
<polyline points="29.325681004481602 -143.42630823255837 28.89289507831373 -158.26205322962576 28.884753729140417 -148.48519738814872"/>
<polyline points="28.89289507831373 -158.26205322962576 29.000694046020556 -149.36140689010813"/>
<polyline points="29.108493013727358 -140.4607605505905 29.216291981434185 -131.56011421107286"/>
<polyline points="29.216291981434185 -131.56011421107286 29.208150632260878 -121.78325836959584"/>
<polyline points="29.216291981434185 -131.56011421107286 31.809759808286717 -140.9774761572825 34.43052026902752 -150.61702049430838"/>
<polyline points="34.43052026902752 -150.61702049430838 37.05128072976833 -160.2565648313343 39.52073333000935 -169.46137254270838"/>
<polyline points="39.52073333000935 -169.46137254270838 37.37087770401116 -161.31859389085227 35.68712816036315 -154.79276120706018"/>
<polyline points="39.1694443012484 -126.8573490093109 37.485694757600406 -120.33151632551878"/>
<polyline points="35.80194521395243 -113.80568364172667 46.84019416256237 -107.7543771552047 42.77102888103982 -105.95417279643968"/>
<polyline points="46.84019416256237 -107.7543771552047 41.87693016502326 -108.3887161754191"/>
<polyline points="36.91366616748413 -109.02305519563348 31.950402169944994 -109.65739421584783"/>
<polyline points="31.950402169944994 -109.65739421584783 27.881236888422446 -107.85718985708282"/>
<polyline points="31.950402169944994 -109.65739421584783 27.881236888422446 -107.85718985708282 24.98347721223865 -103.74512307140985"/>
<polyline points="24.98347721223865 -103.74512307140985 23.454600674551244 -97.60142441476087 23.398797684815705 -89.84477679764441"/>
<polyline points="23.398797684815705 -89.84477679764441 23.34299469508016 -82.08812918052797 24.764068134828168 -73.24713531958432"/>
<polyline points="24.764068134828168 -73.24713531958432 26.185141574576154 -64.40614145864065 28.986247637323743 -55.083300475059914"/>
<polyline points="28.986247637323743 -55.083300475059914 31.787353700071343 -45.760459491479146 35.777601636688935 -36.59110759156916"/>
<polyline points="35.777601636688935 -36.59110759156916 39.76784957330651 -27.42175569165918 44.675310581110104 -19.03076905432835 56.63733271631321 -3.1603617995639053 49.42304255069309 -9.132347545696827"/>
<polyline points="56.63733271631321 -3.1603617995639053 49.806942186268124 -10.359252746990139"/>
<polyline points="42.97655165622305 -17.558143694416362 36.14616112617796 -24.757034641842587"/>
<polyline points="36.14616112617796 -24.757034641842587 28.931870960557873 -30.729020387975492"/>
<polyline points="44.675310581110104 -19.03076905432835 39.76784957330651 -27.421755691659182 34.27761085203596 -34.46254519383781"/>
<polyline points="34.27761085203596 -34.46254519383781 28.787372130765434 -41.503334696016445 23.08850639183403 -46.714108893924205"/>
<polyline points="23.08850639183403 -46.714108893924205 17.389640652902646 -51.92488309183199 11.870516178597656 -54.95053633509299"/>
<polyline points="11.870516178597656 -54.95053633509299 6.351391704292666 -57.97618957835396 1.3881277067535231 -58.610528598568386"/>
<polyline points="1.3881277067535231 -58.610528598568386 -3.575136290785614 -59.24486761878277 -7.644301572308164 -57.44466326001773"/>
<polyline points="-7.644301572308164 -57.44466326001773 -11.71346685383073 -55.64445890125271 -14.61122653001452 -51.532392115579725"/>
<polyline points="-14.61122653001452 -51.532392115579725 -11.413249321474593 -47.97129819941525 -15.251744577035998 -53.70879041641097"/>
<polyline points="-11.413249321474593 -47.97129819941525 -14.227898082198433 -51.86292164008928"/>
<polyline points="-17.042546842922295 -55.754545080763364 -19.857195603646154 -59.64616852143743"/>
<polyline points="-19.857195603646154 -59.64616852143743 -23.69569085920757 -65.38366073843318"/>
<polyline points="-19.857195603646154 -59.64616852143743 -8.00819666860591 -51.222914766182704 -14.864209511537979 -58.05855768932091"/>
<polyline points="-8.00819666860591 -51.222914766182704 -14.623876652830395 -56.94140240783081"/>
<polyline points="-21.23955663705488 -62.65989004947893 -27.855236621279367 -68.37837769112706"/>
<polyline points="-27.855236621279367 -68.37837769112706 -34.71124946421144 -75.21402061426522"/>
<polyline points="-27.855236621279367 -68.37837769112706 -10.842173304659905 -58.51167570403305 -18.222027641984106 -64.49229653523956"/>
<polyline points="-10.842173304659905 -58.51167570403305 -19.06557181169997 -64.16116323595011"/>
<polyline points="-27.28897031874003 -69.81065076786716 -35.5123688257801 -75.46013829978418"/>
<polyline points="-35.5123688257801 -75.46013829978418 -42.89222316310429 -81.44075913099073"/>
<polyline points="-76.62936136098043 -103.70757595936945 -86.03265934886912 -107.02919028319502"/>
<polyline points="-95.4359573367578 -110.35080460702058 -103.50369416404573 -125.42761024339976 -99.75955874992952 -121.82004936844226"/>
<polyline points="-103.50369416404573 -125.42761024339976 -99.47750311703646 -119.65803488378435"/>
<polyline points="-95.45131207002719 -113.88845952416892 -91.42512102301791 -108.1188841645535"/>
<polyline points="-91.42512102301791 -108.1188841645535 -87.68098560890172 -104.51132328959599"/>
<polyline points="-91.42512102301791 -108.1188841645535 -92.6769656505699 -112.38196565916134 -93.47652075343267 -114.21484703379417"/>
<polyline points="-93.47652075343267 -114.21484703379417 -94.27607585629542 -116.04772840842696 -94.56885307553615 -115.32550182638316"/>
<polyline points="-94.56885307553615 -115.32550182638316 -94.80280602357149 -118.55361781707312 -95.54754563209981 -124.06763244635768"/>
<polyline points="-88.2852130876016 -147.4131875552411 -89.02995269612993 -152.9272021845257"/>
<polyline points="-89.77469230465829 -158.44121681381026 -80.56135621405262 -175.1131060255192 -81.95436898808035 -165.23579139510517"/>
<polyline points="-80.56135621405262 -175.1131060255192 -83.6670195352107 -165.68522929804786"/>
<polyline points="-86.77268285636882 -156.2573525705765 -89.87834617752688 -146.82947584310517"/>
<polyline points="-89.87834617752688 -146.82947584310517 -91.27135895155459 -136.95216121269112"/>
<polyline points="-89.87834617752688 -146.82947584310517 -91.27135895155459 -136.95216121269112 -90.8567896599644 -127.298531348363"/>
<polyline points="-90.8567896599644 -127.298531348363 -88.66289051487007 -118.52646517199702 -84.83917211741998 -111.23376449698769"/>
<polyline points="-84.83917211741998 -111.23376449698769 -81.0154537199699 -103.94106382197845 -75.82249615995687 -98.6247141475701"/>
<polyline points="-75.82249615995687 -98.6247141475701 -70.6295385999438 -93.30836447316169 -64.42123335331456 -90.33066624398195"/>
<polyline points="-64.42123335331456 -90.33066624398195 -58.21292810668535 -87.3529680148022 -51.41236091628817 -86.91684644429068"/>
<polyline points="-51.41236091628817 -86.91684644429068 -44.61179372589099 -86.48072487377912 -37.682412007282814 -88.61590092624121 -20.818744591638502 -86.99718847360066 -28.817433170112274 -82.75945421109812"/>
<polyline points="-20.818744591638502 -86.99718847360066 -29.32380876898809 -85.22252941445036"/>
<polyline points="-37.82887294633768 -83.44787035530007 -46.33393712368727 -81.67321129614979"/>
<polyline points="-46.33393712368727 -81.67321129614979 -54.33262570216104 -77.43547703364727"/>
<polyline points="-37.682412007282814 -88.61590092624121 -44.61179372589099 -86.48072487377914 -51.19776405993175 -81.91975991777348"/>
<polyline points="-51.19776405993175 -81.91975991777348 -57.78373439397252 -77.35879496176783 -63.577470349011605 -70.68286332661943"/>
<polyline points="-63.577470349011605 -70.68286332661943 -69.37120630405066 -64.00693169147102 -73.9778743493535 -55.67098708561658"/>
<polyline points="-73.9778743493535 -55.67098708561658 -78.58454239465631 -47.33504247976211 -81.69020571581437 -37.90716575229078"/>
<polyline points="-81.69020571581437 -37.90716575229078 -84.79586903697246 -28.479289024819433 -86.18888181100017 -18.601974394405428"/>
<polyline points="-86.18888181100017 -18.601974394405428 -87.5818945850279 -8.724659763991427 -87.1673252934377 0.9289701003367266"/>
<polyline points="-87.1673252934377 0.9289701003367266 -79.25122872655331 19.149031970074034 -86.14368994872376 12.327101777446732"/>
<polyline points="-79.25122872655331 19.149031970074034 -84.86786574479025 10.902042038816063"/>
<polyline points="-90.48450276302722 2.655052107558096 -96.1011397812642 -5.591937823699878"/>
<polyline points="-96.1011397812642 -5.591937823699878 -102.9936010034346 -12.413868016327196"/>
<polyline points="-96.1011397812642 -5.591937823699878 -79.66643188300515 5.760676526560943 -88.7938673843962 4.046916398423441"/>
<polyline points="-79.66643188300515 5.760676526560943 -88.6447555691812 1.9352962012106265"/>
<polyline points="-97.6230792553572 -1.890084124139712 -106.6014029415332 -5.715464449490033"/>
<polyline points="-106.6014029415332 -5.715464449490033 -115.72883844292423 -7.429224577627553"/>
<polyline points="-106.6014029415332 -5.715464449490033 -86.87876522226605 -5.082811102262878 -95.10615493600645 -1.1646106693363947"/>
<polyline points="-86.87876522226605 -5.082811102262878 -96.2421697824629 -3.218344048332496"/>
<polyline points="-105.60557434265972 -1.3538769944021218 -114.96897890285658 0.5105900595282531"/>
<polyline points="-114.96897890285658 0.5105900595282531 -123.19636861659696 4.428790492454737"/>
<polyline points="-161.78600170384075 9.832925329180137 -171.42611205604646 12.446102441152561"/>
<polyline points="-181.0662224082521 15.059279553124968 -191.63620945540936 24.555209071825615 -188.6117900199388 16.045116792662025"/>
<polyline points="-191.63620945540936 24.555209071825615 -187.33494080056215 17.692333746579774"/>
<polyline points="-183.03367214571483 10.829458421333912 -178.73240349086754 3.966583096088057"/>
<polyline points="-178.73240349086754 3.966583096088057 -175.70798405539696 -4.543509183075528"/>
<polyline points="-178.73240349086754 3.966583096088057 -179.60880992311334 12.113966418406065 -179.0754497177498 21.34097697741133"/>
<polyline points="-179.0754497177498 21.34097697741133 -178.5420895123862 30.567987536416567 -176.63531028598948 40.2458198108688"/>
<polyline points="-176.63531028598948 40.2458198108688 -179.78556468024215 30.776694097099504 -183.96460961142398 22.161580212936393"/>
<polyline points="-191.39969601147357 -13.685961021441518 -195.5787409426554 -22.30107490560461"/>
<polyline points="-199.7577858738373 -30.91618878976772 -198.1698255848542 -41.86292265722875 -196.2077180275932 -40.54640575658002"/>
<polyline points="-198.1698255848542 -41.86292265722875 -197.565158341792 -38.34822015648656"/>
<polyline points="-196.96049109872988 -34.83351765574444 -196.35582385566775 -31.318815155002277"/>
<polyline points="-196.35582385566775 -31.318815155002277 -194.39371629840676 -30.00229825435355"/>
<polyline points="-196.35582385566775 -31.318815155002277 -194.39371629840676 -30.00229825435355 -191.20788281443822 -30.973685404930407"/>
<polyline points="-191.20788281443822 -30.973685404930407 -187.0154326908557 -34.16677817771422 -182.10207447523018 -39.36397257707506"/>
<polyline points="-182.10207447523018 -39.36397257707506 -177.1887162596046 -44.56116697643593 -171.88928719462243 -51.40828279282719"/>
<polyline points="-171.88928719462243 -51.40828279282719 -166.58985812964022 -58.25539860921847 -161.26550554835927 -66.285816215147"/>
<polyline points="-161.26550554835927 -66.285816215147 -155.94115296707844 -74.31623382107553 -150.95472269900446 -82.98269352758983"/>
<polyline points="-150.95472269900446 -82.98269352758983 -145.9682924309305 -91.64915323410415 -141.6596014583671 -100.36105013420715 -127.65609665009039 -114.61227956440283 -132.7387383244524 -107.78305775322352"/>
<polyline points="-127.65609665009039 -114.61227956440283 -133.9114393221704 -107.3887246358172"/>
<polyline points="-140.16678199425047 -100.16516970723154 -146.42212466633057 -92.94161477864589"/>
<polyline points="-146.42212466633057 -92.94161477864589 -151.5047663406926 -86.11239296746658"/>
<polyline points="-146.42212466633057 -92.94161477864589 -141.33948299196848 -99.77083658982522 -138.18991091141405 -106.2233318883161"/>
<polyline points="-138.18991091141405 -106.2233318883161 -135.0403388308596 -112.67582718680694 -134.0384744764887 -118.31186908126983"/>
<polyline points="-134.0384744764887 -118.31186908126983 -132.82435570458486 -113.8763675319429 -129.47699399428538 -110.9436784283257"/>
<polyline points="-111.07233847841972 -92.07201244125734 -107.72497676812024 -89.13932333764015"/>
<polyline points="-104.3776150578208 -86.20663423402293 -86.91009902210682 -78.65543344754 -96.61648312058045 -77.44569262870962"/>
<polyline points="-86.91009902210682 -78.65543344754 -96.4554189703137 -79.98362009737248"/>
<polyline points="-106.00073891852063 -81.31180674720497 -115.5460588667275 -82.63999339703741"/>
<polyline points="-115.5460588667275 -82.63999339703741 -125.25244296520115 -81.43025257820703"/>
<polyline points="-115.5460588667275 -82.63999339703741 -125.25244296520115 -81.43025257820703 -134.45841717818865 -77.76502612832584"/>
<polyline points="-134.45841717818865 -77.76502612832584 -142.53660957666662 -71.89409317288022 -148.93650469852295 -64.21754809060828"/>
<polyline points="-157.01469709700086 -58.34661513516262 -165.0928894954788 -52.475682179717 -171.98025871197387 -45.37080988965102"/>
<polyline points="-171.98025871197387 -45.37080988965102 -178.8676279284689 -38.26593759958505 -184.09481113279256 -30.411311280110148"/>
<polyline points="-184.09481113279256 -30.411311280110148 -180.88403783768615 -38.480411825705524 -179.90848334580494 -46.2140907300581"/>
<polyline points="-171.25813738127906 -69.98440701193448 -170.28258288939773 -77.71808591628712"/>
<polyline points="-169.3070283975165 -85.45176482063971 -169.66895487710326 -86.89199098228372 -164.576896037256 -87.06923661883768"/>
<polyline points="-169.66895487710326 -86.89199098228372 -166.93943779818906 -86.61098211519833"/>
<polyline points="-164.2099207192749 -86.32997324811289 -161.48040364036066 -86.04896438102752"/>
<polyline points="-161.48040364036066 -86.04896438102752 -156.3883448005135 -86.22621001758145"/>
<polyline points="-161.48040364036066 -86.04896438102752 -156.3883448005135 -86.22621001758145 -149.28075959464374 -86.84963116055583"/>
<polyline points="-149.28075959464374 -86.84963116055583 -140.64201820869152 -87.87674268930914 -131.0608365919144 -89.23754865053887"/>
<polyline points="-131.0608365919144 -89.23754865053887 -140.64201820869152 -87.87674268930917 -150.51269836276148 -86.27497897302267"/>
<polyline points="-150.51269836276148 -86.27497897302267 -160.38337851683153 -84.67321525673613 -169.8708866677647 -82.93965133561805"/>
<polyline points="-169.8708866677647 -82.93965133561805 -161.41310852160586 -84.68687594519335 -154.56144398374292 -86.3286907735085"/>
<polyline points="-126.43968518925945 -82.48031514365566 -119.58802065139652 -84.12212997197076"/>
<polyline points="-112.73635611353352 -85.76394480028588 -107.49193252325134 -75.60726891098172 -105.49960617564803 -78.62377046006007"/>
<polyline points="-107.49193252325134 -75.60726891098172 -107.81798522336275 -79.79746616703271"/>
<polyline points="-108.14403792347414 -83.98766342308365 -108.4700906235856 -88.1778606791346"/>
<polyline points="-108.4700906235856 -88.1778606791346 -106.47776427598228 -91.19436222821295"/>
<polyline points="-108.4700906235856 -88.1778606791346 -106.47776427598228 -91.19436222821295 -102.30283262877846 -92.8315984747535"/>
<polyline points="-102.30283262877846 -92.8315984747535 -96.22981037433031 -92.97799447421535 -88.67256394313472 -91.623573581166"/>
<polyline points="-88.67256394313472 -91.623573581166 -96.22981037433031 -92.97799447421535 -104.75626712692767 -95.74093071420097"/>
<polyline points="-104.75626712692767 -95.74093071420097 -113.28272387952502 -98.50386695418656 -122.19732701647061 -102.48702900232144"/>
<polyline points="-122.19732701647061 -102.48702900232144 -113.50209296688139 -97.55508705713116 -105.61879383557437 -92.01046890803084"/>
<polyline points="-79.83872763974355 -62.14042249712742 -71.95542850843653 -56.5958043480271"/>
<polyline points="-64.0721293771295 -51.05118619892676 -62.32666082499558 -32.31924127629036 -61.1686167333525 -39.01548051224003"/>
<polyline points="-62.32666082499558 -32.31924127629036 -62.178973596944026 -40.63365386373317"/>
<polyline points="-62.03128636889247 -48.94806645117598 -61.88359914084091 -57.262479038618814"/>
<polyline points="-61.88359914084091 -57.262479038618814 -60.725555049197844 -63.958718274568476"/>
<polyline points="-61.88359914084091 -57.262479038618814 -60.725555049197844 -63.958718274568476 -58.63607288505044 -68.58044652115356"/>
<polyline points="-58.63607288505044 -68.58044652115356 -55.75754740485276 -70.81270063613637 -52.28614536309201 -70.50335619055518"/>
<polyline points="-49.407619882894345 -72.73561030553796 -56.540370016231215 -61.92733138717087 -50.68423491578824 -62.71065491734507"/>
<polyline points="-56.540370016231215 -61.92733138717087 -51.662919848390075 -65.1301979121964"/>
<polyline points="-46.785469680548935 -68.3330644372219 -41.90801951270778 -71.53593096224743"/>
<polyline points="-41.90801951270778 -71.53593096224743 -36.05188441226481 -72.31925449242163"/>
<polyline points="-41.90801951270778 -71.53593096224743 -57.38760562734606 -69.70343946055652 -50.204808430395374 -65.52184142757851"/>
<polyline points="-57.38760562734606 -69.70343946055652 -49.66310450721347 -68.01316874138676"/>
<polyline points="-41.93860338708086 -66.32289802221698 -34.21410226694825 -64.63262730304723"/>
<polyline points="-34.21410226694825 -64.63262730304723 -27.03130506999757 -60.451029270069235"/>
<polyline points="-34.21410226694825 -64.63262730304723 -51.33006270951988 -72.50745056588313 -45.43794264732979 -64.55993619209939"/>
<polyline points="-51.33006270951988 -72.50745056588313 -43.85014039551008 -66.3553601663223"/>
<polyline points="-36.37021808150029 -60.20326976676147 -28.890295767490482 -54.05117936720062"/>
<polyline points="-28.890295767490482 -54.05117936720062 -22.998175705300397 -46.10366499341687"/>
<polyline points="-28.890295767490482 -54.05117936720062 -42.44015148614185 -68.64789724516241 -40.02814641644014 -59.38199528484696"/>
<polyline points="-42.44015148614185 -68.64789724516241 -37.6846450699183 -60.07360486759261"/>
<polyline points="-32.92913865369474 -51.499312490022824 -28.173632237471185 -42.92502011245302"/>
<polyline points="-28.173632237471185 -42.92502011245302 -25.761627167769465 -33.65911815213759"/>
<polyline points="-4.396100156353427 -0.0535582246040953 1.3917128707824729 7.106705626650588"/>
<polyline points="7.179525897918371 14.266969477905254 4.066766527271464 33.78931682594047 7.769432739265491 26.37688048853159"/>
<polyline points="4.066766527271464 33.78931682594047 6.789049001859546 24.899602137699492"/>
<polyline points="9.511331476447626 16.009887449458503 12.233613951035707 7.120172761217529"/>
<polyline points="12.233613951035707 7.120172761217529 15.936280163029753 -0.2922635761913508"/>
<polyline points="12.233613951035707 7.120172761217529 6.4097451451464265 14.119471796936338 -0.0698985890861828 19.150424507243116"/>
<polyline points="-0.0698985890861828 19.150424507243116 -6.54954232331878 24.181377217549876 -13.243383973524328 26.901132489279657"/>
<polyline points="-13.243383973524328 26.901132489279657 -6.79151865371099 26.677921483287157 -1.02131362362358 28.966466204216687"/>
<polyline points="13.582010316419744 35.20219347491842 19.352215346507155 37.49073819584795"/>
<polyline points="25.12242037659456 39.77928291677749 21.15112950367399 47.7551680352094 23.650706681003523 39.85665595303726"/>
<polyline points="21.15112950367399 47.7551680352094 23.472851571620623 41.6022863553324"/>
<polyline points="25.794573639567254 35.44940467545542 28.116295707513874 29.296522995578435"/>
<polyline points="28.116295707513874 29.296522995578435 30.615872884843423 21.39801091340634"/>
<polyline points="28.116295707513874 29.296522995578435 30.615872884843423 21.39801091340634 33.12296311766746 12.292138974430722"/>
<polyline points="33.12296311766746 12.292138974430722 35.46671234978153 2.599457303127945 37.48739794424581 -7.0194938625165655"/>
<polyline points="37.48739794424581 -7.0194938625165655 35.46671234978153 2.599457303127945 33.90679677688895 11.48916233724387"/>
<polyline points="33.90679677688895 11.48916233724387 32.34688120399637 20.378867371359807 31.354041321085752 27.93350756680435"/>
<polyline points="31.354041321085752 27.93350756680435 30.361201438175147 35.48814776224887 30.003097642521354 41.1928868743357"/>
<polyline points="30.003097642521354 41.1928868743357 29.644993846867568 46.89762598642253 29.946030320349927 50.36369547219007"/>
<polyline points="29.946030320349927 50.36369547219007 30.247066793832282 53.829764957957586 31.186728398269228 54.8209579099014"/>
<polyline points="31.186728398269228 54.8209579099014 32.12639000270619 55.81215086184522 33.640640352619606 54.26091911831418"/>
<polyline points="33.640640352619606 54.26091911831418 26.587455756239663 49.322561110589575 28.631231478030582 56.27040843724773"/>
<polyline points="26.587455756239663 49.322561110589575 29.470890419841822 54.19717263573078"/>
<polyline points="32.35432508344397 59.07178416087195 35.23775974704612 63.946395686013176"/>
<polyline points="35.23775974704612 63.946395686013176 37.28153546883703 70.89424301267131"/>
<polyline points="35.23775974704611 63.94639568601316 26.559964768068372 49.91633328926646 28.560929614901095 59.53936179803763"/>
<polyline points="26.559964768068372 49.91633328926646 29.841719000004748 58.5288267407902"/>
<polyline points="33.12347323194114 67.14132019231396 36.405227463877516 75.75381364383772"/>
<polyline points="36.405227463877516 75.75381364383772 38.40619231071026 85.37684215260892"/>
<polyline points="36.405227463877516 75.75381364383772 28.245105375918584 57.50724515621313 29.172530788943963 66.72699702886524"/>
<polyline points="28.245105375918584 57.50724515621313 30.83717110225019 67.00229934010187"/>
<polyline points="33.4292368285818 76.49735352399061 36.02130255491341 85.99240770787935"/>
<polyline points="36.02130255491341 85.99240770787935 36.94872796793881 95.21215958053148"/>
<polyline points="48.98163118657148 133.4676786273231 53.76732064232994 141.84372117447745"/>
<polyline points="58.55301009808845 150.2197637216318 52.23078339871914 166.9916225475087 54.50513261473274 161.9197861084056"/>
<polyline points="52.23078339871914 166.9916225475087 55.04438586060818 160.02537033343125"/>
<polyline points="57.85798832249721 153.05911811935385 60.67159078438625 146.0928659052764"/>
<polyline points="60.67159078438625 146.0928659052764 62.94594000039984 141.02102946617325"/>
<polyline points="60.67159078438625 146.0928659052764 56.03100192828031 150.15395634118605 52.165287119119554 152.009434065293"/>
<polyline points="52.165287119119554 152.009434065293 48.29957230995879 153.8649117893999 45.47217362359173 153.3883290611282"/>
<polyline points="45.47217362359173 153.3883290611282 47.06857363918643 156.16449391643712 47.32518296112174 161.05104985172318"/>
<polyline points="39.48418360926361 175.33475495306922 39.740792931198904 180.22131088835536"/>
<polyline points="39.9974022531342 185.10786682364147 25.687581886894236 192.70309246652755 32.656416491182995 185.75146956802732"/>
<polyline points="25.687581886894236 192.70309246652755 32.998570165191914 187.1388786172923"/>
<polyline points="40.30955844348961 181.57466476805706 47.62054672178729 176.01045091882185"/>
<polyline points="47.62054672178729 176.01045091882185 54.58938132607605 169.05882802032158"/>
<polyline points="47.62054672178729 176.01045091882185 54.58938132607605 169.05882802032158 60.74114769461734 161.19353768498917"/>
<polyline points="60.74114769461734 161.19353768498917 65.65661311566964 152.95058645117055 69.00079674397898 144.89171782332954"/>
<polyline points="69.00079674397898 144.89171782332954 72.34498037228829 136.83284919548854 73.88998162011005 129.5072617527024"/>
<polyline points="73.88998162011005 129.5072617527024 75.43498286793184 122.18167430991623 75.07551245346232 116.08859473030515"/>
<polyline points="75.07551245346232 116.08859473030515 74.71604203899277 109.99551515069406 72.47659727692513 105.55017673831853"/>
<polyline points="72.47659727692513 105.55017673831853 70.23715251485743 101.10483832594292 66.27034786486908 98.61018354733717 58.41728055811699 87.09818770974596 65.30217575289954 88.6072166823032"/>
<polyline points="58.41728055811699 87.09818770974596 64.0136879394655 90.85884235507413"/>
<polyline points="69.61009532081403 94.61949700040229 75.20650270216252 98.38015164573045"/>
<polyline points="75.20650270216252 98.38015164573045 82.09139789694507 99.88918061828768"/>
<polyline points="66.27034786486908 98.61018354733717 70.23715251485743 101.10483832594292 75.66098587132443 101.47880287022886"/>
<polyline points="75.66098587132443 101.47880287022886 81.08481922779141 101.85276741451482 87.59605601080223 100.08055665879341"/>
<polyline points="87.59605601080223 100.08055665879341 94.107292793813 98.30834590307202 101.26220297693301 94.51073308162898"/>
<polyline points="101.26220297693301 94.51073308162898 108.41711316005302 90.71312026018597 115.72810143835065 85.14890641095074"/>
<polyline points="115.72810143835065 85.14890641095074 123.03908971664832 79.58469256171547 130.0079243209371 72.63306966321524"/>
<polyline points="130.0079243209371 72.63306966321524 136.97675892522585 65.681446764715 143.12852529376715 57.81615642938256"/>
<polyline points="143.12852529376715 57.81615642938256 149.28029166230846 49.95086609405011 154.19575708336075 41.70791486023149"/>
<polyline points="154.19575708336075 41.70791486023149 159.11122250441306 33.46496362641291 162.45540613272237 25.406094998571902"/>
<polyline points="162.45540613272237 25.406094998571902 165.7995897610317 17.34722637073088 167.34459100885346 10.021638927944695"/>
<polyline points="167.34459100885346 10.021638927944695 168.88959225667526 2.696051485158563 168.53012184220572 -3.397028094452522"/>
<polyline points="168.53012184220572 -3.397028094452522 168.1706514277362 -9.490107674063585 165.93120666566855 -13.935446086439176"/>
<polyline points="165.93120666566855 -13.935446086439176 163.69176190360088 -18.380784498814773 159.7249572536125 -20.875439277420544"/>
<polyline points="159.7249572536125 -20.875439277420544 154.12992207319806 -24.747221495438477 147.1333387962402 -26.45138899954395"/>
<polyline points="147.1333387962402 -26.45138899954395 140.1367555192823 -28.155556503649407 132.21542973370515 -27.5759730947076"/>
<polyline points="132.21542973370515 -27.5759730947076 140.52167276622436 -30.399809765184184 148.64677630973503 -35.27545989471333"/>
<polyline points="174.289428406455 -59.09432405313885 182.41453194996564 -63.96997418266799"/>
<polyline points="190.53963549347637 -68.84562431219716 193.38774151400546 -87.38281240448715 192.81949783070462 -77.52765982847455"/>
<polyline points="193.38774151400546 -87.38281240448715 192.3564528584265 -77.48363272542838"/>
<polyline points="191.32516420284747 -67.58445304636959 190.29387554726847 -57.68527336731081"/>
<polyline points="190.29387554726847 -57.68527336731081 189.72563186396764 -47.83012079129817"/>
<polyline points="190.29387554726847 -57.68527336731081 189.72563186396764 -47.83012079129817 189.6591580208948 -38.690607679977305"/>
<polyline points="189.6591580208948 -38.690607679977305 190.09898410060225 -30.88957674812513 191.0151366826047 -24.958655361934227"/>
<polyline points="191.0151366826047 -24.958655361934227 190.09898410060225 -30.88957674812513 188.76893930075434 -34.546206097496835"/>
<polyline points="188.76893930075434 -34.546206097496835 187.43889450090646 -38.20283544686853 185.78559783831983 -39.335979512127096"/>
<polyline points="185.78559783831983 -39.335979512127096 187.64947692829176 -40.803542626419926 189.59691816587326 -44.77180091928783"/>
<polyline points="186.96693785716013 -60.98379160387014 188.91437909474163 -64.95204989673803"/>
<polyline points="190.86182033232316 -68.92030818960595 181.74347285258716 -83.01144464033577 184.04113022837058 -73.40329566561104"/>
<polyline points="181.74347285258716 -83.01144464033577 185.29282981615145 -74.3908462740665"/>
<polyline points="188.84218677971575 -65.77024790779724 192.39154374328007 -57.149649541528"/>
<polyline points="192.39154374328007 -57.149649541528 194.68920111906343 -47.54150056680326"/>
<polyline points="192.39154374328007 -57.149649541528 194.68920111906343 -47.54150056680326 195.57857735396465 -37.600580458033605"/>
<polyline points="195.57857735396465 -37.600580458033605 194.99906292733888 -28.004346492484487 192.9901507896678 -19.40676615638158"/>
<polyline points="192.9901507896678 -19.40676615638158 194.99906292733888 -28.004346492484487 198.30046873375727 -35.01736230740902"/>
<polyline points="198.30046873375727 -35.01736230740902 201.60187454017563 -42.030378122333566 205.97078866546494 -46.98090397784925"/>
<polyline points="205.97078866546494 -46.98090397784925 200.83210049897124 -44.43023823766502 195.2738313977358 -44.45325626783138"/>
<polyline points="165.24149365286473 -43.41874826189881 159.68322455162934 -43.44176629206516"/>
<polyline points="154.12495545039397 -43.464784322231516 135.87554821152833 -50.54363737228025 142.00511507100836 -42.80649228067828"/>
<polyline points="135.87554821152833 -50.54363737228025 143.77173964970387 -44.706454376589406"/>
<polyline points="151.66793108787948 -38.86927138089858 159.56412252605514 -33.03208838520774"/>
<polyline points="159.56412252605514 -33.03208838520774 165.69368938553515 -25.294943293605762"/>
<polyline points="159.56412252605514 -33.03208838520774 165.69368938553515 -25.294943293605762 169.63891181443424 -16.18510975784849"/>
<polyline points="169.63891181443424 -16.18510975784849 171.1309294240112 -6.323407878686076 170.06806367984916 3.6181036580494865"/>
<polyline points="171.5600812894262 13.479805537211895 162.05032620684412 -4.081886561324169 162.1031306453153 5.599112898914223"/>
<polyline points="162.05032620684412 -4.081886561324169 164.53896552516144 5.474667889877257"/>
<polyline points="167.0276048434787 15.031222341078692 169.51624416179604 24.587776792280096"/>
<polyline points="169.51624416179604 24.587776792280096 169.5690486002672 34.26877625251847"/>
<polyline points="169.51624416179604 24.587776792280096 168.99579843931537 7.1801638639319885 164.23759070719984 14.642105249486502"/>
<polyline points="168.99579843931537 7.1801638639319885 166.66747014098436 15.548170707601738"/>
<polyline points="164.33914184265333 23.916177551271492 162.01081354432227 32.28418439494124"/>
<polyline points="162.01081354432227 32.28418439494124 157.25260581220672 39.74612578049577"/>
<polyline points="162.01081354432227 32.28418439494124 170.80586192733642 20.41635661675841 162.61654262999872 23.313701125847505"/>
<polyline points="170.80586192733642 20.41635661675841 164.2904323020611 24.987752348099797"/>
<polyline points="157.77500267678573 29.55914807944121 151.25957305151042 34.130543810782584"/>
<polyline points="151.25957305151042 34.130543810782584 143.07025375417265 37.027888319871685"/>
<polyline points="151.25957305151042 34.130543810782584 166.05907198194635 31.993745451022054 156.95606660373775 29.494266341475928"/>
<polyline points="166.05907198194635 31.993745451022054 157.51661748167297 31.252963969299064"/>
<polyline points="148.97416298139967 30.51218248757604 140.43170848112638 29.771401005853026"/>
<polyline points="140.43170848112638 29.771401005853026 131.32870310291773 27.27192189630689"/>
<polyline points="97.71943597975972 26.06749359723795 90.69469085968655 24.01188117489424"/>
<polyline points="83.66994573961337 21.956268752550518 64.50204204069038 16.53512102978141 71.3978749464567 23.640226776056615"/>
<polyline points="64.50204204069038 16.53512102978141 73.03260634837666 21.61609067595498"/>
<polyline points="81.56317065606292 26.69706032212855 90.0937349637492 31.77802996830211"/>
<polyline points="90.0937349637492 31.77802996830211 96.9895678695155 38.8831357145773"/>
<polyline points="90.0937349637492 31.77802996830211 83.56528385217095 25.291045019965345 79.12898552806456 17.243063230949907"/>
<polyline points="79.12898552806456 17.243063230949907 74.69268720395819 9.195081441934446 72.65086806678185 0.1345594712429566"/>
<polyline points="72.65086806678185 0.1345594712429566 72.15906141709519 9.590162024528375 69.16714479097278 18.796461472523365"/>
<polyline points="59.966600119580875 57.72350887771306 56.974683493458464 66.92980832570805"/>
<polyline points="53.98276686733603 76.13610777370305 44.880225818574985 90.70906822015776 53.08111056405694 87.01682976837597"/>
<polyline points="44.880225818574985 90.70906822015776 51.48122711846475 85.0260652523276"/>
<polyline points="58.082228418354525 79.34306228449745 64.68322971824426 73.66005931666731"/>
<polyline points="64.68322971824426 73.66005931666731 72.8841144637262 69.96782086488552"/>
<polyline points="64.68322971824426 73.66005931666731 72.8841144637262 69.96782086488552 82.12600591199856 68.51796687792853"/>
<polyline points="82.12600591199856 68.51796687792853 91.77908443380932 69.4093025090104 101.18550868036358 72.58108470787474"/>
<polyline points="101.18550868036358 72.58108470787474 91.77908443380932 69.4093025090104 83.26034673006315 64.17322545759836"/>
<polyline points="83.26034673006315 64.17322545759836 74.74160902631697 58.93714840618632 67.69109576200954 51.99360650025379"/>
<polyline points="67.69109576200954 51.99360650025379 60.64058249770209 45.05006459432127 55.53877450027188 36.87224874001203"/>
<polyline points="55.53877450027188 36.87224874001203 50.436966502841635 28.694432885702803 47.63154355617712 19.83964771900834"/>
<polyline points="47.63154355617712 19.83964771900834 44.82612060951262 10.984862552313887 44.50826765124839 2.056547049120063"/>
<polyline points="44.50826765124839 2.056547049120063 44.19041469298415 -6.8717684540737585 46.38179287694907 -15.265164346963289"/>
<polyline points="46.38179287694907 -15.265164346963289 52.769097401797886 -34.217780118915286 45.30010128840758 -27.596947855009414"/>
<polyline points="52.769097401797886 -34.217780118915286 47.24970446001327 -25.885287233967535"/>
<polyline points="41.73031151822863 -17.552794349019795 36.21091857644402 -9.22030146407205"/>
<polyline points="36.21091857644402 -9.22030146407205 28.74192246305369 -2.5994692001661757"/>
<polyline points="36.21091857644402 -9.22030146407205 51.23457971019134 -21.817509591159673 41.45445549781544 -20.105257414988706"/>
<polyline points="51.23457971019134 -21.817509591159673 42.283605262348665 -17.670785266326575"/>
<polyline points="33.332630814505976 -13.524060941493476 24.3816563666633 -9.377336616660374"/>
<polyline points="24.3816563666633 -9.377336616660374 14.601532154287398 -7.665084440489405"/>
<polyline points="24.3816563666633 -9.377336616660374 42.84915555648233 -11.611457954107507 33.89448838189527 -15.459805218719037"/>
<polyline points="42.84915555648233 -11.611457954107507 33.43413823606679 -13.025275931405575"/>
<polyline points="24.01912091565121 -14.439093908703653 14.604103595235664 -15.852911886001726"/>
<polyline points="14.604103595235664 -15.852911886001726 5.649436420648614 -19.701259150613264"/>
<polyline points="-32.47098300684212 -22.922001772492063 -40.76963841145058 -24.256750805890782"/>
<polyline points="-49.068293816059025 -25.591499839289515 -64.99458031702939 -37.396698973059245 -60.58415632887229 -28.469008970217185"/>
<polyline points="-64.99458031702939 -37.396698973059245 -58.589550602594926 -29.71997620299806"/>
<polyline points="-52.184520888160456 -22.043253432936858 -45.779491173726 -14.366530662875679"/>
<polyline points="-45.779491173726 -14.366530662875679 -41.36906718556887 -5.438840660033624"/>
<polyline points="-45.779491173726 -14.366530662875679 -49.147914941780435 -23.670631776691636 -50.25667517384146 -33.604466905718056"/>
<polyline points="-50.25667517384146 -33.604466905718056 -51.365435405902474 -43.53830203474446 -50.138971924468045 -53.42489673137691"/>
<polyline points="-50.138971924468045 -53.42489673137691 -53.61707765996489 -44.25929755734367 -59.10979849149152 -36.43931434275124"/>
<polyline points="-75.70493621573208 -6.46274556385452 -81.19765704725869 1.357237650737921"/>
<polyline points="-86.69037787878536 9.177220865330376 -94.69458493173752 14.279191535150618 -87.83058410771648 15.704719150135864"/>
<polyline points="-94.69458493173752 14.279191535150618 -89.06987542777752 13.696611750402186"/>
<polyline points="-83.44516592381753 13.114031965653757 -77.82045641985752 12.531452180905328"/>
<polyline points="-77.82045641985752 12.531452180905328 -70.95645559583649 13.956979795890577"/>
<polyline points="-77.82045641985752 12.531452180905328 -70.95645559583649 13.956979795890577 -63.320933764613834 17.293467459444045"/>
<polyline points="-63.320933764613834 17.293467459444045 -55.434239120690904 22.313539051101113 -47.83383687067194 28.675084987950914"/>
<polyline points="-47.83383687067194 28.675084987950914 -40.23343462065294 35.03663092480073 -33.43727961761808 42.306122364198686"/>
<polyline points="-33.43727961761808 42.306122364198686 -26.641124614583248 49.57561380359663 -21.11236359081222 57.257646917350385"/>
<polyline points="-21.11236359081222 57.257646917350385 -15.583602567041165 64.93968003110415 -11.699011449594332 72.51073695767134"/>
<polyline points="-11.699011449594332 72.51073695767134 -7.8144203321475025 80.08179388423852 -5.838727586088538 87.02591960583676 4.848061621993898 98.35187810494018 3.652546564460035 94.16035802121691"/>
<polyline points="4.848061621993898 98.35187810494018 1.4632729127528763 93.25081389013685"/>
<polyline points="-1.9215157964881557 88.14974967533355 -5.30630450572918 83.04868546053018"/>
<polyline points="-5.30630450572918 83.04868546053018 -6.501819563263044 78.85716537680689"/>
<polyline points="-5.838727586088538 87.02591960583676 -3.8630348400295405 93.970045327435 -3.9308806610157148 99.81400915184767"/>
<polyline points="-3.9308806610157148 99.81400915184767 -3.9987264820018815 105.65797297626038 -6.105487289453478 110.0035184264607"/>
<polyline points="-6.105487289453478 110.0035184264607 -8.21224809690511 114.34906387666096 -12.21435162338118 116.90004921157104"/>
<polyline points="-12.21435162338118 116.90004921157104 -16.216455149857275 119.45103454648121 -21.841164653817287 120.03361433122969"/>
<polyline points="-21.841164653817287 120.03361433122969 -27.465874157777293 120.61619411597808 -34.32987498179826 119.19066650099285"/>
<polyline points="-34.32987498179826 119.19066650099285 -41.193875805819296 117.7651388860076 -48.82939763704196 114.42865122245412"/>
<polyline points="-48.82939763704196 114.42865122245412 -56.46491946826461 111.09216355890071 -64.35161411218753 106.07209196724364"/>
<polyline points="-64.35161411218753 106.07209196724364 -72.23830875611044 101.05202037558655 -79.83871100612944 94.69047443873679"/>
<polyline points="-79.83871100612944 94.69047443873679 -72.23830875611044 101.05202037558655 -65.44215375307562 108.3215118149845"/>
<polyline points="-65.44215375307562 108.3215118149845 -58.64599875004078 115.59100325438247 -53.1172377262697 123.27303636813623"/>
<polyline points="-53.1172377262697 123.27303636813623 -57.00182884371658 115.70197944156901 -58.97752158977551 108.75785371997075"/>
<polyline points="-60.24634130619205 75.32741154551388 -62.222034052251 68.38328582391564"/>
<polyline points="-64.19772679830999 61.439160102317416 -53.05470579215298 47.13741162255665 -60.38263131973071 49.85598588612672"/>
<polyline points="-53.05470579215298 47.13741162255665 -59.731945223783974 52.24621409725974"/>
<polyline points="-66.40918465541493 57.355016571962814 -73.0864240870459 62.46381904666592"/>
<polyline points="-73.0864240870459 62.46381904666592 -80.41434961462363 65.18239331023597"/>
<polyline points="-73.0864240870459 62.46381904666592 -80.41434961462363 65.18239331023597 -87.89357522341318 65.3254730192671"/>
<polyline points="-87.89357522341318 65.3254730192671 -95.01440404818021 62.88330752803917 -101.29156337224293 58.02232637891015"/>
<polyline points="-64.19772679830999 61.439160102317416 -64.05766647556229 53.3612776522237 -62.4253226444384 46.81984163767674"/>
<polyline points="-62.4253226444384 46.81984163767674 -60.792978813314534 40.27840562312978 -57.77959300832991 35.71920409828685"/>
<polyline points="-57.77959300832991 35.71920409828685 -54.76620720334526 31.160002573443922 -50.57713668725404 28.893737587786276"/>
<polyline points="-50.57713668725404 28.893737587786276 -46.38806617116282 26.627472602128634 -41.30878917687027 26.808586369248896"/>
<polyline points="-41.30878917687027 26.808586369248896 -36.22951218257773 26.989700136369166 -30.606173043342785 29.605850052342728"/>
<polyline points="-30.606173043342785 29.605850052342728 -24.982833904107885 32.221999968316304 -19.19865388926209 37.09489973976173"/>
<polyline points="-19.19865388926209 37.09489973976173 -13.414473874416325 41.96779951120714 -7.86363529316201 48.76536907154806"/>
<polyline points="-7.86363529316201 48.76536907154806 -2.3127967119077106 55.56293863188897 2.6264199596371256 63.82193484910296"/>
<polyline points="2.6264199596371256 63.82193484910296 7.565636631181971 72.08093106631694 11.556631939293064 81.23851699683745"/>
<polyline points="11.556631939293064 81.23851699683745 15.547627247404147 90.39610292735797 18.318421457265263 99.82820422364632"/>
<polyline points="18.318421457265263 99.82820422364632 21.089215667126396 109.26030551993469 22.450983732289455 118.32414006593318"/>
<polyline points="22.450983732289455 118.32414006593318 23.812751797452556 127.38797461193178 23.672691474704845 135.4658570620255"/>
<polyline points="23.672691474704845 135.4658570620255 23.53263115195715 143.54373951211923 21.900287320833293 150.08517552666618"/>
<polyline points="21.900287320833293 150.08517552666618 20.26794348970944 156.62661154121312 17.254557684724777 161.18581306605603"/>
<polyline points="17.254557684724777 161.18581306605603 14.241171879740133 165.74501459089902 10.052101363648891 168.01127957655663"/>
<polyline points="10.052101363648891 168.01127957655663 5.86303084755767 170.27754456221427 0.783753853265126 170.09643079509408"/>
<polyline points="0.783753853265126 170.09643079509408 -4.295523141027429 169.91531702797374 -9.91886228026236 167.2991671120002"/>
<polyline points="-9.91886228026236 167.2991671120002 -15.5422014194973 164.68301719602664 -21.326381434343066 159.81011742458125"/>
<polyline points="-21.326381434343066 159.81011742458125 -27.110561449188832 154.93721765313578 -32.66140003044315 148.13964809279489"/>
<polyline points="-32.66140003044315 148.13964809279489 -38.212238611697465 141.34207853245397 -43.15145528324228 133.08308231523995"/>
<polyline points="-43.15145528324228 133.08308231523995 -48.09067195478709 124.82408609802602 -52.08166726289819 115.66650016750546"/>
<polyline points="-52.08166726289819 115.66650016750546 -56.072662571009275 106.50891423698496 -58.84345678087042 97.0768129406966"/>
<polyline points="-58.84345678087042 97.0768129406966 -55.4864102961273 77.42290805402993 -59.479692562009966 85.842741628178"/>
<polyline points="-55.4864102961273 77.42290805402993 -58.42235286743444 86.86813952049907"/>
<polyline points="-61.3582954387416 96.31337098696822 -64.29423801004877 105.75860245343739"/>
<polyline points="-64.29423801004877 105.75860245343739 -68.28752027593146 114.17843602758549"/>
<polyline points="-64.29423801004877 105.75860245343739 -52.20634905063064 90.44695832519429 -59.220319153486116 94.541932047093"/>
<polyline points="-52.20634905063064 90.44695832519429 -58.965623017209936 96.52961781425927"/>
<polyline points="-65.72489698378917 102.61227730332426 -72.48417095036845 108.69493679238924"/>
<polyline points="-72.48417095036845 108.69493679238924 -79.49814105322396 112.78991051428795"/>
<polyline points="-72.48417095036845 108.69493679238924 -55.24478161658227 102.83380968235399 -62.73998798172528 101.26228137527653"/>
<polyline points="-55.24478161658227 102.83380968235399 -63.58646821064872 103.53729809261908"/>
<polyline points="-71.92815480471513 104.24078650288418 -80.26984139878157 104.94427491314921"/>
<polyline points="-80.26984139878157 104.94427491314921 -87.76504776392458 103.37274660607177"/>
<polyline points="-121.97827436911356 108.4617169644746 -131.44855412285187 108.5026602913772"/>
<polyline points="-140.9188338765902 108.54360361827968 -149.26941012191483 102.27231346748273 -145.48369974619396 109.65051852340117"/>
<polyline points="-149.26941012191483 102.27231346748273 -145.14849406308656 107.71468277015964"/>
<polyline points="-141.0275780042583 113.15705207283658 -136.90666194543002 118.5994213755135"/>
<polyline points="-136.90666194543002 118.5994213755135 -133.12095156970912 125.97762643143193"/>
<polyline points="-136.90666194543002 118.5994213755135 -138.21322583808399 111.00918051118607 -139.01106900962628 101.9931413200863"/>
<polyline points="-139.01106900962628 101.9931413200863 -139.80891218116858 92.97710212898649 -140.0436629379567 83.14969278227858"/>
<polyline points="-140.0436629379567 83.14969278227858 -140.3880024720538 93.11875057817836 -141.28796612683556 102.55008200912643"/>
<polyline points="-134.6704924018978 139.1763299401443 -135.5704560566795 148.60766137109238"/>
<polyline points="-136.4704197114612 158.03899280204035 -127.6486893566599 168.26641213589858 -128.82897510289277 166.42142783418544"/>
<polyline points="-127.6486893566599 168.26641213589858 -130.5428820428177 164.66432707964927"/>
<polyline points="-133.43707472897546 161.06224202339996 -136.3312674151332 157.46015696715074"/>
<polyline points="-136.3312674151332 157.46015696715074 -137.51155316136607 155.6151726654376"/>
<polyline points="-136.3312674151332 157.46015696715074 -137.51155316136607 155.6151726654376 -136.89749744458257 155.6530217494417"/>
<polyline points="-136.89749744458257 155.6530217494417 -134.5309471471066 157.57112486663675 -130.57317876080174 161.23876645940112"/>
<polyline points="-130.57317876080174 161.23876645940112 -126.61541037449689 164.9064080521655 -121.33613927436829 170.07364440701662"/>
<polyline points="-121.33613927436829 170.07364440701662 -116.0568681742398 175.24088076186774 -109.81586796135332 181.55557326048438"/>
<polyline points="-109.81586796135332 181.55557326048438 -103.57486774846689 187.87026575910102 -96.79745227359025 194.90207854322514"/>
<polyline points="-96.79745227359025 194.90207854322514 -90.02003679871363 201.9338913273493 -83.16807572625095 209.20361797636286 -66.31827544855223 219.233644282831 -74.20459586625924 213.96802334096066"/>
<polyline points="-66.31827544855223 219.233644282831 -74.76158450636129 213.91199648374433"/>
<polyline points="-83.20489356417035 208.59034868465773 -91.6482026219794 203.2687008855711"/>
<polyline points="-91.6482026219794 203.2687008855711 -99.53452303968638 198.00307994370078"/>
</svg>