<svg baseProfile="full" fill-opacity="0.0" height="100%" stroke="black" stroke-width="1" version="1.1" viewBox="-213.9247987190763,-174.8156499772101,445.8270068796125,368.9281708041693" width="100%" xmlns="http://www.w3.org/2000/svg" xmlns:ev="http://www.w3.org/2001/xml-events" xmlns:xlink="http://www.w3.org/1999/xlink"><defs /><polyline points="4.711716269292075,-50.0638769176749 90.92342955658403,-97.4563772511006" /><polyline points="4.711716269291934,-50.06387691767485 55.20179313451376,27.29539580843448 -31.00992015277838,74.68789614186018" /><polyline points="4.71171626929199,-50.06387691767488 0.434727817853974,-92.12922887666454" /><polyline points="4.71171626929199,-50.06387691767488 55.20179313451379,27.29539580843445 59.47878158595182,69.36074776742414 109.9688584511735,146.7200204935334" /><polyline points="59.47878158595182,69.36074776742414 145.6904948732439,21.96824743399844 95.20041800802215,-55.39102529211092" /><polyline points="4.71171626929199,-50.06387691767488 55.20179313451377,27.29539580843448" /><polyline points="4.71171626929199,-50.06387691767488 -81.49999701800017,-2.671376584249197 -131.990073883222,-80.0306493103586" /><polyline points="4.71171626929199,-50.06387691767488 0.4347278178540438,-92.12922887666448" /><polyline points="4.71171626929199,-50.06387691767488 -81.49999701800014,-2.671376584249173 -77.2230085665622,39.39397537474039 -163.4347218538543,86.78647570816604" /><polyline points="-77.2230085665622,39.39397537474039 -26.73293170134041,116.7532481008498 59.47878158595174,69.36074776742413 8.988704720730041,-7.998524958685312" /><polyline points="59.47878158595174,69.36074776742413 -26.73293170134041,116.7532481008498 23.75714516388128,194.1125208269592" /><polyline points="59.47878158595174,69.36074776742413 63.75577003738972,111.4260997264137" /><polyline points="59.47878158595174,69.36074776742413 -26.73293170134041,116.7532481008498 -31.00992015277838,74.68789614186022 -117.2216334400705,122.0803964752859" /><polyline points="-31.00992015277838,74.68789614186022 -81.49999701800007,-2.671376584249176 4.711716269292113,-50.06387691767486" /><polyline points="4.71171626929199,-50.06387691767488 0.4347278178539526,-92.12922887666451" /><polyline points="4.71171626929199,-50.06387691767488 55.20179313451376,27.29539580843447 59.47878158595181,69.36074776742416" /><polyline points="4.71171626929199,-50.06387691767488 -81.4999970180002,-2.671376584249202" /><polyline points="4.71171626929199,-50.06387691767488 55.20179313451371,27.29539580843445 141.4135064218059,-20.09710452499123 191.9035832870276,57.26216820111811" /><polyline points="141.4135064218059,-20.09710452499123 137.1365179703678,-62.16245648398091 86.64644110514612,-139.5217292100903" /><polyline points="4.71171626929199,-50.06387691767488 55.20179313451379,27.29539580843445" /><polyline points="4.71171626929199,-50.06387691767488 8.988704720729999,-7.998524958685289 -41.50137214449184,-85.35779768479463" /><polyline points="4.71171626929199,-50.06387691767488 -81.49999701800014,-2.671376584249177" /><polyline points="4.71171626929199,-50.06387691767488 8.988704720730004,-7.998524958685264 95.2004180080221,-55.391025292111 99.47740645946007,-13.32567333312138" /><polyline points="95.2004180080221,-55.391025292111 145.6904948732439,21.96824743399837 141.4135064218059,-20.09710452499132 90.92342955658408,-97.45637725110065" /><polyline points="141.4135064218059,-20.09710452499132 145.6904948732439,21.96824743399827 196.1805717384658,99.32752016010757" /><polyline points="141.4135064218059,-20.09710452499132 227.6252197090981,-67.48960485841704" /><polyline points="141.4135064218059,-20.09710452499132 145.6904948732439,21.96824743399831 59.47878158595181,69.36074776742403 63.75577003738982,111.4260997264136" /><polyline points="59.47878158595181,69.36074776742403 8.988704720729991,-7.998524958685313 4.711716269291924,-50.06387691767489 -45.77836059592991,-127.4231496437842" /><polyline points="4.711716269291924,-50.06387691767489 90.92342955658405,-97.45637725110065 141.4135064218059,-20.09710452499131" /><polyline points="4.711716269291924,-50.06387691767489 0.4347278178538524,-92.12922887666443" /><polyline points="4.711716269291924,-50.06387691767489 90.92342955658403,-97.45637725110069 95.20041800802206,-55.3910252921111 181.4121312953142,-102.7835256255369" /><polyline points="95.20041800802206,-55.3910252921111 44.71034114280025,-132.7502980182205 -41.50137214449185,-85.35779768479469" /><polyline points="4.711716269291924,-50.06387691767489 90.92342955658404,-97.45637725110065" /><polyline points="4.711716269291924,-50.06387691767489 55.20179313451371,27.29539580843445 -31.00992015277842,74.68789614186022" /><polyline points="4.711716269291924,-50.06387691767489 0.4347278178538279,-92.12922887666454" /><polyline points="4.711716269291924,-50.06387691767489 55.20179313451377,27.29539580843442 59.47878158595185,69.36074776742409 109.9688584511736,146.7200204935334" /><polyline points="59.47878158595185,69.36074776742409 145.690494873244,21.96824743399831 95.2004180080222,-55.39102529211097 8.98870472073006,-7.998524958685275" /><polyline points="95.2004180080222,-55.39102529211097 145.690494873244,21.96824743399833 231.9022081605362,-25.4242528994274" /><polyline points="95.2004180080222,-55.39102529211097 99.47740645946028,-13.32567333312137" /><polyline points="95.2004180080222,-55.39102529211097 145.6904948732439,21.9682474339984 141.4135064218059,-20.09710452499127 191.9035832870277,57.26216820111803" /><polyline points="141.4135064218059,-20.09710452499127 55.20179313451376,27.29539580843446 4.711716269291982,-50.06387691767487" /><polyline points="4.71171626929199,-50.06387691767488 55.20179313451372,27.29539580843454" /><polyline points="4.71171626929199,-50.06387691767488 -81.49999701800019,-2.671376584249227 -131.9900738832219,-80.0306493103587" /><polyline points="4.71171626929199,-50.06387691767488 0.4347278178540569,-92.12922887666443" /><polyline points="4.71171626929199,-50.06387691767488 -81.49999701800017,-2.671376584249217 -77.22300856656223,39.39397537474031 -163.4347218538544,86.78647570816592" /><polyline points="-77.22300856656223,39.39397537474031 -26.73293170134058,116.7532481008498 59.47878158595168,69.36074776742416" /><polyline points="4.71171626929199,-50.06387691767488 -81.49999701800019,-2.671376584249193" /><polyline points="4.71171626929199,-50.06387691767488 -45.77836059592975,-127.4231496437843 40.43335269136236,-174.81564997721" /><polyline points="4.71171626929199,-50.06387691767488 0.4347278178540652,-92.12922887666437" /><polyline points="4.71171626929199,-50.06387691767488 -45.77836059592978,-127.4231496437843 -41.50137214449184,-85.35779768479485 -91.99144900971352,-162.7170704109043" /><polyline points="-41.50137214449184,-85.35779768479485 -127.7130854317841,-37.9652973513692 -77.22300856656226,39.39397537474029 8.988704720729888,-7.998524958685372" /><polyline points="-77.22300856656226,39.39397537474029 -127.713085431784,-37.96529735136911 -213.9247987190762,9.427202982056539" /><polyline points="-77.22300856656226,39.39397537474029 -72.9460201151243,81.45932733372983" /><polyline points="-77.22300856656226,39.39397537474029 -127.713085431784,-37.96529735136922 -131.9900738832219,-80.03064931035871 -182.4801507484436,-157.3899220364681" /><polyline points="-131.9900738832219,-80.03064931035871 -45.77836059592977,-127.4231496437844 4.711716269292002,-50.06387691767494" /><polyline points="4.71171626929199,-50.06387691767488 0.4347278178541095,-92.12922887666443" /><polyline points="4.71171626929199,-50.06387691767488 -81.49999701800017,-2.671376584249222 -77.22300856656226,39.39397537474026" /><polyline points="4.71171626929199,-50.06387691767488 -45.7783605959297,-127.4231496437843" /><polyline points="4.71171626929199,-50.06387691767488 -81.4999970180002,-2.671376584249237 -31.00992015277845,74.68789614186024 -117.2216334400707,122.0803964752859" /><polyline points="-31.00992015277845,74.68789614186024 -35.2869086042164,32.62254418287063 50.92480468307582,-14.76995615055496" /><polyline points="4.71171626929199,-50.06387691767488 -81.49999701800019,-2.671376584249208" /><polyline points="4.71171626929199,-50.06387691767488 8.988704720729942,-7.998524958685342 95.20041800802204,-55.39102529211105" /><polyline points="4.71171626929199,-50.06387691767488 -45.77836059592977,-127.4231496437843" /><polyline points="4.71171626929199,-50.06387691767488 8.988704720729933,-7.998524958685337 59.47878158595172,69.36074776742412 63.75577003738963,111.4260997264136" /><polyline points="59.47878158595172,69.36074776742412 -26.73293170134047,116.7532481008497 -31.00992015277836,74.68789614186029 55.20179313451381,27.29539580843459" /><polyline points="-31.00992015277836,74.68789614186029 -26.73293170134047,116.7532481008497 -112.9446449886326,164.1457484342754" /><polyline points="-31.00992015277836,74.68789614186029 19.48015671244339,152.0471688679697" /><polyline points="-31.00992015277836,74.68789614186029 -26.73293170134037,116.7532481008498 -77.2230085665622,39.39397537474038 -72.94602011512417,81.45932733372987" /><polyline points="-77.2230085665622,39.39397537474038 8.988704720730002,-7.998524958685331 4.711716269292012,-50.06387691767488 90.92342955658414,-97.4563772511006" /><polyline points="4.711716269292012,-50.06387691767488 55.20179313451379,27.29539580843449 -31.00992015277832,74.68789614186026" /><polyline points="4.711716269292012,-50.06387691767488 0.4347278178540209,-92.12922887666444" /><polyline points="4.711716269292012,-50.06387691767488 55.20179313451381,27.29539580843447 59.4787815859518,69.36074776742403 109.9688584511736,146.7200204935334" /><polyline points="59.4787815859518,69.36074776742403 145.6904948732439,21.96824743399832 95.20041800802215,-55.39102529211102" /><polyline points="4.711716269292012,-50.06387691767488 55.20179313451379,27.29539580843449" /><polyline points="4.711716269292012,-50.06387691767488 -81.49999701800014,-2.671376584249148 -131.990073883222,-80.03064931035854" /><polyline points="4.711716269292012,-50.06387691767488 0.4347278178540802,-92.12922887666447" /><polyline points="4.711716269292012,-50.06387691767488 -81.49999701800014,-2.671376584249148 -77.22300856656223,39.39397537474036 -163.4347218538543,86.78647570816604" /><polyline points="-77.22300856656223,39.39397537474036 -26.73293170134038,116.7532481008498 59.47878158595175,69.36074776742406 8.988704720730004,-7.998524958685401" /><polyline points="59.47878158595175,69.36074776742406 -26.73293170134044,116.7532481008497 23.75714516388135,194.1125208269592" /><polyline points="59.47878158595175,69.36074776742406 63.75577003738965,111.4260997264136" /><polyline points="59.47878158595175,69.36074776742406 -26.73293170134044,116.7532481008497 -31.0099201527783,74.68789614186026 -117.2216334400704,122.080396475286" /><polyline points="-31.0099201527783,74.68789614186026 -81.49999701800009,-2.671376584249181 4.711716269292058,-50.0638769176749 55.20179313451391,27.29539580843456" /><polyline points="4.711716269292058,-50.0638769176749 -81.4999970180001,-2.671376584249182 -131.9900738832219,-80.03064931035865" /><polyline points="4.711716269292058,-50.0638769176749 0.4347278178541981,-92.12922887666443" /><polyline points="4.711716269292058,-50.0638769176749 -81.49999701800007,-2.671376584249162 -77.22300856656223,39.39397537474031 -163.4347218538543,86.78647570816597" /><polyline points="-77.22300856656223,39.39397537474031 -26.73293170134044,116.7532481008497 59.47878158595176,69.36074776742403" /><polyline points="4.711716269292058,-50.0638769176749 -81.49999701800006,-2.671376584249147" /><polyline points="4.711716269292058,-50.0638769176749 -45.77836059592973,-127.4231496437844 40.43335269136234,-174.8156499772101" /><polyline points="4.711716269292058,-50.0638769176749 0.4347278178542107,-92.12922887666423" /><polyline points="4.711716269292058,-50.0638769176749 -45.77836059592978,-127.4231496437844 -41.50137214449189,-85.35779768479505 -91.9914490097137,-162.7170704109046" /><polyline points="-41.50137214449189,-85.35779768479505 -127.7130854317841,-37.96529735136933 -77.22300856656229,39.39397537474019 8.988704720729904,-7.998524958685469" /><polyline points="-77.22300856656229,39.39397537474019 -127.7130854317841,-37.96529735136936 -213.9247987190763,9.4272029820563" /><polyline points="-77.22300856656229,39.39397537474019 -72.94602011512438,81.45932733372952" /><polyline points="-77.22300856656229,39.39397537474019 -127.713085431784,-37.96529735136939 -131.9900738832219,-80.03064931035867 -182.4801507484437,-157.3899220364681" /><polyline points="-131.9900738832219,-80.03064931035867 -45.7783605959297,-127.4231496437843 4.711716269292017,-50.06387691767481" /><polyline points="4.711716269292058,-50.0638769176749 0.4347278178542422,-92.12922887666436" /><polyline points="4.711716269292058,-50.0638769176749 -81.49999701800009,-2.671376584249187 -77.22300856656227,39.39397537474022" /><polyline points="4.711716269292058,-50.0638769176749 -45.77836059592971,-127.4231496437844" /><polyline points="4.711716269292058,-50.0638769176749 -81.4999970180001,-2.671376584249202 -31.00992015277829,74.68789614186025 -117.2216334400704,122.080396475286" /><polyline points="-31.00992015277829,74.68789614186025 -35.28690860421612,32.62254418287083 50.92480468307604,-14.76995615055485" /><polyline points="4.711716269292058,-50.0638769176749 -81.49999701800007,-2.671376584249192" /><polyline points="4.711716269292058,-50.0638769176749 8.988704720729897,-7.998524958685486 95.200418008022,-55.39102529211124" /><polyline points="4.711716269292058,-50.0638769176749 -45.77836059592975,-127.4231496437844" /><polyline points="4.711716269292058,-50.0638769176749 8.9887047207299,-7.998524958685525 59.47878158595175,69.36074776742396 63.75577003738962,111.4260997264133" /><polyline points="59.47878158595175,69.36074776742396 -26.73293170134039,116.7532481008497 -31.00992015277822,74.68789614186038 55.2017931345139,27.29539580843459" /><polyline points="-31.00992015277822,74.68789614186038 -26.73293170134035,116.7532481008497 -112.9446449886324,164.1457484342755" /><polyline points="-31.00992015277822,74.68789614186038 19.48015671244363,152.0471688679698" /><polyline points="-31.00992015277822,74.68789614186038 -26.73293170134034,116.7532481008497 -77.22300856656217,39.39397537474022 -72.94602011512431,81.45932733372962" /><polyline points="-77.22300856656217,39.39397537474022 8.988704720729903,-7.998524958685554 4.711716269292009,-50.06387691767494 90.92342955658404,-97.45637725110075" /><polyline points="4.711716269292009,-50.06387691767494 55.2017931345139,27.29539580843447 -31.0099201527782,74.68789614186022" /><polyline points="4.711716269292009,-50.06387691767494 0.4347278178541074,-92.12922887666438" /><polyline points="4.711716269292009,-50.06387691767494 55.20179313451393,27.29539580843445 59.47878158595182,69.36074776742392 109.9688584511737,146.7200204935333" /><polyline points="59.47878158595182,69.36074776742392 145.6904948732439,21.96824743399809 95.20041800802196,-55.39102529211127" /><polyline points="4.711716269292009,-50.06387691767494 55.20179313451391,27.29539580843448" /><polyline points="4.711716269292009,-50.06387691767494 -81.49999701800009,-2.671376584249157 -131.990073883222,-80.0306493103586" /><polyline points="4.711716269292009,-50.06387691767494 0.434727817854164,-92.12922887666437" /><polyline points="4.711716269292009,-50.06387691767494 -81.4999970180001,-2.671376584249173 -77.22300856656226,39.39397537474022 -163.4347218538544,86.78647570816597" /><polyline points="-77.22300856656226,39.39397537474022 -26.7329317013404,116.7532481008497 59.47878158595172,69.36074776742393 8.988704720729924,-7.998524958685573" /><polyline points="59.47878158595172,69.36074776742393 -26.73293170134042,116.7532481008496 23.7571451638814,194.1125208269592" /><polyline points="59.47878158595172,69.36074776742393 63.75577003738952,111.4260997264134" /><polyline points="59.47878158595172,69.36074776742393 -26.73293170134042,116.7532481008496 -31.00992015277821,74.68789614186024 -117.2216334400703,122.080396475286" /><polyline points="-31.00992015277821,74.68789614186024 -81.49999701800009,-2.67137658424925 4.711716269292057,-50.06387691767504" /></svg>
