<svg viewBox="-213.92479871907616 -174.81564997721006 445.8270068796122 368.9281708041692" xmlns="http://www.w3.org/2000/svg">
<style>
svg { stroke:black; stroke-width:2; fill:none;}
</style>
<polyline points="4.711716269292121 -50.0638769176749 90.92342955658398 -97.45637725110052"/>
<polyline points="4.7117162692919505 -50.06387691767483 55.20179313451373 27.295395808434503 -31.009920152778406 74.68789614186015"/>
<polyline points="4.7117162692920065 -50.06387691767486 0.4347278178540058 -92.1292288766645"/>
<polyline points="4.7117162692920065 -50.06387691767486 55.20179313451378 27.29539580843448 59.47878158595175 69.36074776742412 109.96885845117346 146.7200204935334"/>
<polyline points="59.47878158595175 69.36074776742412 145.6904948732439 21.96824743399842 95.20041800802217 -55.39102529211091"/>
<polyline points="4.7117162692920065 -50.06387691767486 55.20179313451376 27.295395808434517"/>
<polyline points="4.7117162692920065 -50.06387691767486 -81.49999701800014 -2.6713765842492183 -131.99007388322184 -80.03064931035861"/>
<polyline points="4.7117162692920065 -50.06387691767486 0.4347278178540708 -92.12922887666444"/>
<polyline points="4.7117162692920065 -50.06387691767486 -81.49999701800012 -2.671376584249189 -77.22300856656219 39.39397537474035 -163.43472185385434 86.786475708166"/>
<polyline points="-77.22300856656219 39.39397537474035 -26.73293170134046 116.75324810084973 59.4787815859517 69.36074776742414 8.988704720730041 -7.998524958685305"/>
<polyline points="59.4787815859517 69.36074776742414 -26.732931701340444 116.75324810084973 23.757145163881184 194.11252082695913"/>
<polyline points="59.4787815859517 69.36074776742414 63.75577003738965 111.42609972641367"/>
<polyline points="59.4787815859517 69.36074776742414 -26.73293170134046 116.75324810084973 -31.009920152778406 74.68789614186021 -117.22163344007055 122.08039647528582"/>
<polyline points="-31.009920152778406 74.68789614186021 -81.49999701800006 -2.6713765842491926 4.71171626929213 -50.06387691767483"/>
<polyline points="4.7117162692920065 -50.06387691767486 0.4347278178539836 -92.12922887666446"/>
<polyline points="4.7117162692920065 -50.06387691767486 55.20179313451375 27.295395808434503 59.478781585951744 69.36074776742412"/>
<polyline points="4.7117162692920065 -50.06387691767486 -81.49999701800017 -2.671376584249223"/>
<polyline points="4.7117162692920065 -50.06387691767486 55.201793134513686 27.295395808434467 141.41350642180583 -20.09710452499116 191.90358328702752 57.26216820111818"/>
<polyline points="141.41350642180583 -20.09710452499116 137.13651797036778 -62.162456483980804 86.64644110514614 -139.52172921009017"/>
<polyline points="4.7117162692920065 -50.06387691767486 55.20179313451378 27.29539580843448"/>
<polyline points="4.7117162692920065 -50.06387691767486 8.988704720729999 -7.998524958685281 -41.501372144491796 -85.35779768479465"/>
<polyline points="4.7117162692920065 -50.06387691767486 -81.49999701800012 -2.671376584249189"/>
<polyline points="4.7117162692920065 -50.06387691767486 8.988704720730015 -7.998524958685262 95.20041800802208 -55.39102529211096 99.47740645946006 -13.325673333121383"/>
<polyline points="95.20041800802208 -55.39102529211096 145.69049487324384 21.96824743399836 141.41350642180586 -20.097104524991263 90.92342955658408 -97.4563772511006"/>
<polyline points="141.41350642180586 -20.097104524991263 145.69049487324386 21.968247433998332 196.18057173846572 99.32752016010761"/>
<polyline points="141.41350642180586 -20.097104524991263 227.625219709098 -67.48960485841694"/>
<polyline points="141.41350642180586 -20.097104524991263 145.6904948732439 21.96824743399831 59.47878158595177 69.36074776742403 63.75577003738979 111.4260997264136"/>
<polyline points="59.47878158595177 69.36074776742403 8.988704720729999 -7.998524958685321 4.71171626929194 -50.06387691767486 -45.778360595929854 -127.42314964378416"/>
<polyline points="4.71171626929194 -50.06387691767486 90.92342955658405 -97.45637725110058 141.41350642180583 -20.097104524991273"/>
<polyline points="4.71171626929194 -50.06387691767486 0.4347278178538799 -92.12922887666438"/>
<polyline points="4.71171626929194 -50.06387691767486 90.92342955658403 -97.45637725110062 95.20041800802206 -55.39102529211105 181.4121312953142 -102.7835256255368"/>
<polyline points="95.20041800802206 -55.39102529211105 44.71034114280032 -132.7502980182204 -41.50137214449181 -85.35779768479465"/>
<polyline points="4.71171626929194 -50.06387691767486 90.92342955658404 -97.45637725110058"/>
<polyline points="4.71171626929194 -50.06387691767486 55.20179313451368 27.295395808434463 -31.009920152778417 74.68789614186018"/>
<polyline points="4.71171626929194 -50.06387691767486 0.4347278178538528 -92.1292288766645"/>
<polyline points="4.71171626929194 -50.06387691767486 55.201793134513736 27.29539580843444 59.47878158595179 69.36074776742404 109.9688584511735 146.72002049353333"/>
<polyline points="59.47878158595179 69.36074776742404 145.6904948732439 21.968247433998354 95.2004180080222 -55.39102529211096 8.988704720730075 -7.998524958685255"/>
<polyline points="95.2004180080222 -55.39102529211096 145.69049487324392 21.968247433998382 231.90220816053608 -25.424252899427334"/>
<polyline points="95.2004180080222 -55.39102529211096 99.47740645946023 -13.32567333312136"/>
<polyline points="95.2004180080222 -55.39102529211096 145.6904948732439 21.9682474339984 141.41350642180583 -20.097104524991217 191.90358328702763 57.26216820111811"/>
<polyline points="141.41350642180583 -20.097104524991217 55.201793134513736 27.295395808434485 4.711716269291993 -50.063876917674854"/>
<polyline points="4.7117162692920065 -50.06387691767486 55.20179313451371 27.295395808434566"/>
<polyline points="4.7117162692920065 -50.06387691767486 -81.49999701800016 -2.671376584249253 -131.9900738832218 -80.03064931035867"/>
<polyline points="4.7117162692920065 -50.06387691767486 0.4347278178540886 -92.1292288766644"/>
<polyline points="4.7117162692920065 -50.06387691767486 -81.49999701800016 -2.671376584249228 -77.22300856656221 39.39397537474027 -163.43472185385443 86.78647570816588"/>
<polyline points="-77.22300856656221 39.39397537474027 -26.73293170134056 116.75324810084973 59.47878158595164 69.36074776742416"/>
<polyline points="4.7117162692920065 -50.06387691767486 -81.49999701800016 -2.6713765842492037"/>
<polyline points="4.7117162692920065 -50.06387691767486 -45.77836059592969 -127.42314964378431 40.43335269136245 -174.81564997720997"/>
<polyline points="4.7117162692920065 -50.06387691767486 0.4347278178540969 -92.12922887666431"/>
<polyline points="4.7117162692920065 -50.06387691767486 -45.77836059592971 -127.42314964378431 -41.50137214449178 -85.35779768479482 -91.99144900971343 -162.71707041090426"/>
<polyline points="-41.50137214449178 -85.35779768479482 -127.71308543178395 -37.9652973513692 -77.22300856656226 39.39397537474025 8.9887047207299 -7.998524958685351"/>
<polyline points="-77.22300856656226 39.39397537474025 -127.71308543178394 -37.965297351369145 -213.92479871907608 9.427202982056452"/>
<polyline points="-77.22300856656226 39.39397537474025 -72.94602011512433 81.45932733372979"/>
<polyline points="-77.22300856656226 39.39397537474025 -127.7130854317839 -37.96529735136921 -131.99007388322184 -80.03064931035871 -182.48015074844352 -157.38992203646816"/>
<polyline points="-131.99007388322184 -80.03064931035871 -45.77836059592968 -127.42314964378431 4.711716269292008 -50.06387691767493"/>
<polyline points="4.7117162692920065 -50.06387691767486 0.4347278178541413 -92.12922887666438"/>
<polyline points="4.7117162692920065 -50.06387691767486 -81.49999701800016 -2.6713765842492334 -77.22300856656224 39.39397537474023"/>
<polyline points="4.7117162692920065 -50.06387691767486 -45.77836059592963 -127.42314964378431"/>
<polyline points="4.7117162692920065 -50.06387691767486 -81.49999701800016 -2.6713765842492725 -31.009920152778484 74.68789614186018 -117.22163344007065 122.08039647528578"/>
<polyline points="-31.009920152778484 74.68789614186018 -35.28690860421641 32.6225441828706 50.924804683075784 -14.769956150554945"/>
<polyline points="4.7117162692920065 -50.06387691767486 -81.49999701800016 -2.6713765842492236"/>
<polyline points="4.7117162692920065 -50.06387691767486 8.988704720729936 -7.998524958685328 95.20041800802203 -55.391025292111"/>
<polyline points="4.7117162692920065 -50.06387691767486 -45.77836059592969 -127.4231496437843"/>
<polyline points="4.7117162692920065 -50.06387691767486 8.98870472072994 -7.998524958685343 59.47878158595166 69.36074776742409 63.755770037389574 111.42609972641358"/>
<polyline points="59.47878158595166 69.36074776742409 -26.732931701340508 116.75324810084972 -31.009920152778413 74.68789614186024 55.20179313451375 27.295395808434574"/>
<polyline points="-31.009920152778413 74.68789614186024 -26.732931701340494 116.7532481008497 -112.94464498863262 164.14574843427536"/>
<polyline points="-31.009920152778413 74.68789614186024 19.4801567124433 152.04716886796965"/>
<polyline points="-31.009920152778413 74.68789614186024 -26.732931701340423 116.75324810084972 -77.22300856656214 39.393975374740315 -72.94602011512418 81.45932733372982"/>
<polyline points="-77.22300856656214 39.393975374740315 8.988704720730004 -7.998524958685329 4.711716269292033 -50.06387691767486 90.92342955658413 -97.45637725110056"/>
<polyline points="4.711716269292033 -50.06387691767486 55.20179313451377 27.29539580843452 -31.009920152778353 74.68789614186022"/>
<polyline points="4.711716269292033 -50.06387691767486 0.4347278178540509 -92.1292288766644"/>
<polyline points="4.711716269292033 -50.06387691767486 55.2017931345138 27.295395808434517 59.47878158595176 69.36074776742404 109.96885845117345 146.72002049353338"/>
<polyline points="59.47878158595176 69.36074776742404 145.6904948732439 21.968247433998332 95.20041800802215 -55.391025292111"/>
<polyline points="4.711716269292033 -50.06387691767486 55.20179313451377 27.29539580843452"/>
<polyline points="4.711716269292033 -50.06387691767486 -81.49999701800012 -2.6713765842491646 -131.99007388322184 -80.03064931035857"/>
<polyline points="4.711716269292033 -50.06387691767486 0.4347278178541158 -92.1292288766644"/>
<polyline points="4.711716269292033 -50.06387691767486 -81.49999701800012 -2.6713765842491597 -77.22300856656221 39.393975374740315 -163.43472185385428 86.78647570816595"/>
<polyline points="-77.22300856656221 39.393975374740315 -26.732931701340444 116.75324810084972 59.47878158595169 69.36074776742404 8.98870472073 -7.998524958685404"/>
<polyline points="59.47878158595169 69.36074776742404 -26.732931701340448 116.75324810084967 23.757145163881255 194.11252082695913"/>
<polyline points="59.47878158595169 69.36074776742404 63.75577003738958 111.42609972641351"/>
<polyline points="59.47878158595169 69.36074776742404 -26.732931701340448 116.7532481008497 -31.00992015277832 74.68789614186022 -117.22163344007048 122.08039647528594"/>
<polyline points="-31.00992015277832 74.68789614186022 -81.49999701800006 -2.671376584249188 4.71171626929207 -50.06387691767488 55.20179313451387 27.295395808434556"/>
<polyline points="4.71171626929207 -50.06387691767488 -81.49999701800006 -2.671376584249198 -131.9900738832218 -80.03064931035865"/>
<polyline points="4.71171626929207 -50.06387691767488 0.4347278178542294 -92.12922887666438"/>
<polyline points="4.71171626929207 -50.06387691767488 -81.49999701800004 -2.6713765842491783 -77.2230085665622 39.393975374740265 -163.43472185385428 86.78647570816591"/>
<polyline points="-77.2230085665622 39.393975374740265 -26.732931701340448 116.75324810084967 59.47878158595172 69.36074776742402"/>
<polyline points="4.71171626929207 -50.06387691767488 -81.49999701800003 -2.6713765842491584"/>
<polyline points="4.71171626929207 -50.06387691767488 -45.77836059592966 -127.42314964378431 40.433352691362415 -174.81564997721006"/>
<polyline points="4.71171626929207 -50.06387691767488 0.4347278178542446 -92.1292288766642"/>
<polyline points="4.71171626929207 -50.06387691767488 -45.77836059592971 -127.42314964378433 -41.50137214449186 -85.35779768479503 -91.99144900971355 -162.7170704109045"/>
<polyline points="-41.50137214449186 -85.35779768479503 -127.71308543178401 -37.965297351369344 -77.22300856656226 39.39397537474016 8.988704720729908 -7.998524958685474"/>
<polyline points="-77.22300856656226 39.39397537474016 -127.71308543178397 -37.9652973513694 -213.92479871907616 9.427202982056272"/>
<polyline points="-77.22300856656226 39.39397537474016 -72.94602011512441 81.45932733372946"/>
<polyline points="-77.22300856656226 39.39397537474016 -127.71308543178397 -37.96529735136939 -131.9900738832218 -80.0306493103587 -182.48015074844352 -157.3899220364682"/>
<polyline points="-131.9900738832218 -80.0306493103587 -45.77836059592964 -127.4231496437843 4.711716269292039 -50.063876917674804"/>
<polyline points="4.71171626929207 -50.06387691767488 0.4347278178542762 -92.1292288766643"/>
<polyline points="4.71171626929207 -50.06387691767488 -81.49999701800004 -2.671376584249193 -77.22300856656223 39.39397537474016"/>
<polyline points="4.71171626929207 -50.06387691767488 -45.77836059592964 -127.42314964378431"/>
<polyline points="4.71171626929207 -50.06387691767488 -81.49999701800007 -2.671376584249218 -31.00992015277829 74.68789614186025 -117.22163344007043 122.08039647528594"/>
<polyline points="-31.00992015277829 74.68789614186025 -35.2869086042161 32.62254418287086 50.924804683076026 -14.769956150554812"/>
<polyline points="4.71171626929207 -50.06387691767488 -81.49999701800004 -2.671376584249198"/>
<polyline points="4.71171626929207 -50.06387691767488 8.9887047207299 -7.998524958685499 95.20041800802198 -55.391025292111195"/>
<polyline points="4.71171626929207 -50.06387691767488 -45.77836059592967 -127.42314964378436"/>
<polyline points="4.71171626929207 -50.06387691767488 8.988704720729903 -7.998524958685523 59.47878158595169 69.36074776742393 63.75577003738955 111.42609972641328"/>
<polyline points="59.47878158595169 69.36074776742393 -26.732931701340412 116.75324810084963 -31.00992015277824 74.68789614186034 55.20179313451385 27.29539580843458"/>
<polyline points="-31.00992015277824 74.68789614186034 -26.732931701340387 116.75324810084962 -112.94464498863248 164.1457484342754"/>
<polyline points="-31.00992015277824 74.68789614186034 19.480156712443513 152.04716886796973"/>
<polyline points="-31.00992015277824 74.68789614186034 -26.73293170134037 116.75324810084963 -77.22300856656217 39.39397537474019 -72.94602011512433 81.45932733372956"/>
<polyline points="-77.22300856656217 39.39397537474019 8.988704720729922 -7.99852495868556 4.7117162692920305 -50.06387691767493 90.92342955658408 -97.4563772511007"/>
<polyline points="4.7117162692920305 -50.06387691767493 55.20179313451387 27.29539580843448 -31.009920152778193 74.68789614186024"/>
<polyline points="4.7117162692920305 -50.06387691767493 0.4347278178541391 -92.12922887666436"/>
<polyline points="4.7117162692920305 -50.06387691767493 55.20179313451392 27.295395808434467 59.47878158595177 69.36074776742389 109.96885845117359 146.72002049353327"/>
<polyline points="59.47878158595177 69.36074776742389 145.6904948732438 21.968247433998126 95.20041800802198 -55.391025292111244"/>
<polyline points="4.7117162692920305 -50.06387691767493 55.20179313451388 27.295395808434495"/>
<polyline points="4.7117162692920305 -50.06387691767493 -81.49999701800004 -2.671376584249179 -131.99007388322187 -80.0306493103586"/>
<polyline points="4.7117162692920305 -50.06387691767493 0.434727817854194 -92.12922887666431"/>
<polyline points="4.7117162692920305 -50.06387691767493 -81.49999701800006 -2.671376584249174 -77.22300856656223 39.39397537474017 -163.43472185385434 86.78647570816588"/>
<polyline points="-77.22300856656223 39.39397537474017 -26.73293170134044 116.7532481008496 59.47878158595167 69.36074776742389 8.988704720729931 -7.9985249586855725"/>
<polyline points="59.47878158595167 69.36074776742389 -26.73293170134046 116.75324810084958 23.757145163881276 194.11252082695904"/>
<polyline points="59.47878158595167 69.36074776742389 63.75577003738946 111.4260997264133"/>
<polyline points="59.47878158595167 69.36074776742389 -26.73293170134046 116.75324810084958 -31.009920152778246 74.68789614186018 -117.22163344007035 122.0803964752859"/>
<polyline points="-31.009920152778246 74.68789614186018 -81.49999701800006 -2.6713765842492716 4.71171626929207 -50.06387691767501"/>
</svg>