<svg baseProfile="full" fill-opacity="0.0" height="100%" stroke="black" stroke-width="1" version="1.1" viewBox="-173.2050807568878,-149.9999999999998,346.4101615137756,299.99999999999966" width="100%" xmlns="http://www.w3.org/2000/svg" xmlns:ev="http://www.w3.org/2001/xml-events" xmlns:xlink="http://www.w3.org/1999/xlink"><defs /><polyline points="3.688534450706474e-14,-1.260576282749614e-13 4.616445792802676e-13,-100.0000000000002 86.60254037844452,-149.9999999999998 86.60254037844412,-49.99999999999977 7.491217023074813e-14,-1.160045923363641e-13 86.60254037844406,-49.99999999999982 173.2050807568878,4.657558380209437e-13 86.6025403784438,50.00000000000022 6.975960724183113e-14,-3.611125125235409e-14 -9.707983429994717e-14,100.0 -86.602540378444,149.9999999999998 -86.60254037844395,49.99999999999984 -2.006337224594656e-15,-7.15956713513583e-14 -86.60254037844392,49.9999999999999 -173.2050807568877,-1.67598177233487e-13 -86.60254037844388,-50.00000000000015 8.697340887448097e-15,-1.418741990034505e-13 86.60254037844382,-50.00000000000021 173.2050807568877,-2.606004115835003e-13 86.60254037844393,49.99999999999984 9.095893021656792e-15,-5.23660444875226e-14 86.60254037844396,49.99999999999979 86.6025403784442,149.9999999999999 1.764889619822081e-13,100.0 -6.782261443368598e-14,-7.957123502516779e-15 -86.60254037844379,50.00000000000029 -173.2050807568878,5.317844978888131e-13 -86.60254037844413,-49.99999999999978 -7.377228169102047e-14,-1.070800914503625e-13 -86.60254037844416,-49.99999999999972 -86.6025403784446,-149.9999999999997 -5.206561822722402e-13,-100.0000000000002 1.276103919624021e-14,-1.570401275584941e-13" /></svg>
