<svg viewBox="-754.4443870593655 -125.63236819893169 1508.8887741187314 278.2502726525141" xmlns="http://www.w3.org/2000/svg">
<style>
svg { stroke:black; stroke-width:2px; fill:none;}
</style>
<polyline points="-754.4443870593655 -18.713851364505256 -742.7154231245015 -33.37388996440715 -730.9975058577356 -47.60239862179769 -719.3005942742387 -60.815436129581684 -707.6135658456116 -73.44819972095725 -695.9532852058298 -84.07560651895061 -684.30084592698 -93.95443054252988 -672.6623047416224 -102.23189161974841 -661.0297700970011 -109.66235571582976 -649.4145004878518 -113.4684603473492 -637.8017788884315 -116.32574949298858 -626.1919580031968 -117.25791490633144 -614.5824793467269 -117.22072449956482 -602.9695880671266 -114.29026042275105 -591.3540931721113 -110.4119142523193 -579.7312443560829 -104.68319549665594 -568.1036717925376 -98.05866871805529 -556.4427663855004 -87.37540332165531 -544.7734202409827 -75.98498628314752 -533.085649747361 -63.30607789079375 -521.3879621801397 -50.05048306744137 -509.65813775873846 -35.35951721163054 -497.91693481214867 -20.29408415341501 -486.1522201282603 -4.64409528332569 -474.37545714297096 11.213871120910031 -462.54957096790775 27.326652700615973 -450.71139333504743 43.357713612628416 -438.8489307802294 59.05215281825557 -426.9745624642524 74.49290666684705 -415.0659368281911 88.84269389245085 -403.1465162203548 102.72323362782566 -391.2066774055721 115.51676877723806 -379.2572890942965 127.6964724587365 -367.2618930635315 135.35769365023992 -355.2609693953804 142.15199990040648 -343.2510251283581 147.14208443604772 -331.2376204770027 151.20137799709653 -319.21817639666284 152.39403808507112 -307.1981906519229 152.61790445358196 -295.1793445226111 150.90525959685525 -283.16217555749995 148.23189078565753 -271.1589257664935 141.84627117418904 -259.16089554066224 134.58201429129645 -247.17526899789124 125.64226405104105 -235.19678177812227 115.91170863154932 -223.24314693648412 104.03036359674769 -211.29884128710793 91.51459548240653 -199.3745623683878 77.86770814797111 -187.46090866316808 63.72820961717947 -175.60492965176272 47.920619639853484 -163.76110349082794 31.94684423308575 -151.94185386977483 15.814153732389512 -140.13493918197656 -0.3106925239787694 -128.3646821765263 -16.06376867904832 -116.60638157920191 -31.578334320934115 -104.87133985630419 -46.44885390359398 -93.14751660219189 -60.91616385967851 -81.46489726286642 -73.26551588477773 -69.7914753391587 -84.96866306907657 -58.13488577866909 -95.2550920582261 -46.48587037708207 -104.77612405447634 -34.85588789286836 -111.80632564497515 -23.23094347899778 -117.95136675086594 -11.614003173549618 -122.2627867833264 -0.0000000000005071 -125.63236819893169 11.614003173548593 -122.26278678332672 23.230943478996693 -117.95136675086637 34.85588789286731 -111.80632564497597 46.48587037708097 -104.77612405447739 58.13488577866801 -95.25509205822739 69.79147533915754 -84.96866306907816 81.46489726286536 -73.26551588477945 93.14751660219086 -60.916163859680466 104.87133985630322 -46.44885390359608 116.60638157920093 -31.578334320936403 128.36468217652538 -16.063768679050593 140.13493918197568 -0.3106925239809944 151.94185386977406 15.814153732387238 163.76110349082717 31.946844233083418 175.60492965176195 47.920619639851246 187.4609086631673 63.728209617177384 199.37456236838716 77.86770814796917 211.29884128710725 91.51459548240477 223.2431469364834 104.03036359674617 235.19678177812165 115.91170863154797 247.1752689978905 125.64226405104 259.16089554066167 134.5820142912958 271.15892576649304 141.84627117418853 283.16217555749944 148.23189078565733 295.17934452261073 150.90525959685542 307.1981906519225 152.6179044535824 319.2181763966624 152.39403808507177 331.23762047700217 151.2013779970976 343.2510251283577 147.14208443604912 355.2609693953802 142.15199990040807 367.2618930635312 135.35769365024183 379.2572890942962 127.69647245873838 391.20667740557195 115.5167687772401 403.14651622035467 102.72323362782797 415.06593682819107 88.84269389245323 426.9745624642524 74.4929066668496 438.84893078022947 59.052152818257966 450.7113933350476 43.357713612630896 462.549570967908 27.32665270061845 474.3754571429711 11.213871120912447 486.1522201282605 -4.644095283323113 497.91693481214867 -20.294084153412573 509.6581377587384 -35.359517211628166 521.3879621801395 -50.0504830674392 533.0856497473609 -63.30607789079191 544.7734202409827 -75.98498628314576 556.4427663855005 -87.37540332165385 568.1036717925379 -98.05866871805411 579.7312443560828 -104.68319549665488 591.3540931721113 -110.41191425231852 602.9695880671267 -114.29026042275062 614.5824793467268 -117.2207244995646 626.1919580031965 -117.25791490633162 637.8017788884315 -116.32574949298905 649.4145004878518 -113.46846034734996 661.0297700970008 -109.66235571583114 672.6623047416222 -102.23189161975013 684.30084592698 -93.95443054253188 695.9532852058297 -84.07560651895291 707.6135658456113 -73.44819972095968 719.3005942742387 -60.815436129584455 730.9975058577354 -47.6023986218007 742.7154231245012 -33.37388996441 754.4443870593659 -18.713851364507843"/>
</svg>