<svg viewBox="-1007.1279150291837 -694.5792391592986 2077.141633192065 1494.8619487184042" xmlns="http://www.w3.org/2000/svg">
<style>
svg { stroke:black; stroke-width:2; fill:none;}
</style>
<polyline points="108.90434680916023 453.86457836038636 13.521186432786195 451.3976711521958"/>
<polyline points="13.521186432786214 451.3976711521967 -81.86197394358872 448.9307639440076"/>
<polyline points="-81.86197394358872 448.9307639440076 -104.54025341283129 520.187915950302"/>
<polyline points="-81.86197394358872 448.9307639440076 -104.54025341283128 520.187915950302"/>
<polyline points="-81.86197394358872 448.9307639440076 -59.18369447434614 377.6736119377132"/>
<polyline points="-59.18369447434614 377.6736119377132 -36.50541500510358 306.41645993141884"/>
<polyline points="-36.50541500510358 306.41645993141884 58.877745371271324 308.88336713960786"/>
<polyline points="58.877745371271324 308.88336713960786 154.2609057476462 311.3502743477969"/>
<polyline points="154.2609057476462 311.3502743477969 58.877745371271324 308.88336713960786"/>
<polyline points="-36.50541500510358 306.41645993141884 -16.81408805820456 376.53302471305966"/>
<polyline points="-16.81408805820456 376.53302471305966 2.87723888869443 446.64958949470054"/>
<polyline points="2.87723888869443 446.64958949470054 -16.814088058204554 376.53302471305966"/>
<polyline points="2.87723888869443 446.64958949470054 -92.50592148768041 444.1826822865115"/>
<polyline points="-92.50592148768041 444.1826822865115 -187.88908186405533 441.7157750783225"/>
<polyline points="-187.88908186405533 441.7157750783225 -168.19775491715632 511.83233985996327"/>
<polyline points="-187.88908186405533 441.7157750783225 -168.19775491715632 511.8323398599634"/>
<polyline points="-187.88908186405533 441.7157750783225 -207.5804088109544 371.59921029668163"/>
<polyline points="-207.5804088109544 371.59921029668163 -227.27173575785343 301.48264551504076"/>
<polyline points="-227.27173575785343 301.48264551504076 -131.88857538147855 303.94955272322983"/>
<polyline points="-131.88857538147855 303.94955272322983 -36.50541500510362 306.41645993141873"/>
<polyline points="-36.50541500510362 306.41645993141873 -16.814088058204554 376.5330247130595"/>
<polyline points="-36.50541500510362 306.41645993141873 -16.814088058204533 376.53302471305955"/>
<polyline points="-36.50541500510362 306.41645993141873 -56.19674195200272 236.29989514977794"/>
<polyline points="-56.19674195200272 236.29989514977794 -75.88806889890178 166.18333036813718"/>
<polyline points="-75.88806889890178 166.18333036813718 -53.209789429659196 94.92617836184266"/>
<polyline points="-53.209789429659196 94.92617836184266 -30.53150996041657 23.669026355548176"/>
<polyline points="-30.53150996041657 23.669026355548176 -53.20978942965919 94.9261783618427"/>
<polyline points="-75.88806889890178 166.18333036813718 19.495091477473096 168.65023757632628"/>
<polyline points="19.495091477473096 168.65023757632628 114.87825185384797 171.1171447845153"/>
<polyline points="114.87825185384797 171.1171447845153 92.19997238460539 242.3742967908098"/>
<polyline points="114.87825185384797 171.1171447845153 92.19997238460535 242.3742967908098"/>
<polyline points="114.87825185384797 171.1171447845153 137.5565313230906 99.85999277822077"/>
<polyline points="137.5565313230906 99.85999277822077 160.23481079233323 28.602840771926267"/>
<polyline points="160.23481079233323 28.602840771926267 179.92613773923227 98.71940555356713"/>
<polyline points="179.92613773923227 98.71940555356713 199.6174646861314 168.835970335208"/>
<polyline points="199.6174646861314 168.835970335208 179.92613773923236 98.71940555356713"/>
<polyline points="160.23481079233323 28.602840771926267 140.54348384543414 -41.513724009714544"/>
<polyline points="140.54348384543414 -41.513724009714544 120.85215689853504 -111.63028879135538"/>
<polyline points="120.85215689853504 -111.63028879135538 98.17387742929235 -40.3731367850609"/>
<polyline points="120.85215689853504 -111.63028879135538 98.17387742929235 -40.37313678506094"/>
<polyline points="120.85215689853504 -111.63028879135538 143.53043636777775 -182.88744079764987"/>
<polyline points="143.53043636777775 -182.88744079764987 166.20871583702046 -254.14459280394433"/>
<polyline points="166.20871583702046 -254.14459280394433 185.90004278391967 -184.0280280223035"/>
<polyline points="185.90004278391967 -184.0280280223035 205.5913697308189 -113.91146324066263"/>
<polyline points="205.5913697308189 -113.91146324066263 185.90004278391967 -184.0280280223035"/>
<polyline points="166.20871583702046 -254.14459280394433 70.82555546064565 -256.6115000121334"/>
<polyline points="70.82555546064565 -256.6115000121334 -24.557604915729183 -259.07840722032245"/>
<polyline points="-24.557604915729183 -259.07840722032245 70.82555546064563 -256.6115000121335"/>
<polyline points="-24.557604915729183 -259.07840722032245 -44.2489318626284 -329.19497200196327"/>
<polyline points="-44.2489318626284 -329.19497200196327 -63.94025880952761 -399.31153678360425"/>
<polyline points="-63.94025880952761 -399.31153678360425 -159.3234191859024 -401.7784439917932"/>
<polyline points="-63.94025880952761 -399.31153678360425 -159.3234191859024 -401.7784439917932"/>
<polyline points="-63.94025880952761 -399.31153678360425 31.442901566847176 -396.8446295754151"/>
<polyline points="31.442901566847176 -396.8446295754151 126.82606194322199 -394.3777223672261"/>
<polyline points="126.82606194322199 -394.3777223672261 146.51738889012128 -324.26115758558535"/>
<polyline points="146.51738889012128 -324.26115758558535 166.20871583702058 -254.14459280394442"/>
<polyline points="166.20871583702058 -254.14459280394442 143.53043636777775 -182.88744079765002"/>
<polyline points="166.20871583702058 -254.14459280394442 143.53043636777778 -182.88744079765002"/>
<polyline points="166.20871583702058 -254.14459280394442 188.88699530626337 -325.4017448102388"/>
<polyline points="188.88699530626337 -325.4017448102388 211.56527477550614 -396.6588968165333"/>
<polyline points="211.56527477550614 -396.6588968165333 191.87394782860682 -466.77546159817416"/>
<polyline points="191.87394782860682 -466.77546159817416 172.18262088170744 -536.8920263798151"/>
<polyline points="172.18262088170744 -536.8920263798151 191.87394782860682 -466.77546159817416"/>
<polyline points="211.56527477550614 -396.6588968165333 306.9484351518809 -394.19198960834433"/>
<polyline points="306.9484351518809 -394.19198960834433 402.3315955282557 -391.7250824001555"/>
<polyline points="402.3315955282557 -391.7250824001555 306.94843515188086 -394.19198960834433"/>
<polyline points="402.3315955282557 -391.7250824001555 422.02292247515504 -321.6085176185147"/>
<polyline points="422.02292247515504 -321.6085176185147 441.7142494220544 -251.4919528368738"/>
<polyline points="441.7142494220544 -251.4919528368738 537.0974097984292 -249.02504562868495"/>
<polyline points="441.7142494220544 -251.4919528368738 537.0974097984292 -249.02504562868495"/>
<polyline points="441.7142494220544 -251.4919528368738 346.33108904567973 -253.95886004506272"/>
<polyline points="346.33108904567973 -253.95886004506272 250.9479286693049 -256.42576725325165"/>
<polyline points="250.9479286693049 -256.42576725325165 155.56476829293013 -258.8926744614403"/>
<polyline points="155.56476829293013 -258.8926744614403 60.18160791655531 -261.3595816696291"/>
<polyline points="60.18160791655531 -261.3595816696291 82.859887385798 -332.6167336759237"/>
<polyline points="60.18160791655531 -261.3595816696291 82.85988738579798 -332.6167336759237"/>
<polyline points="60.18160791655531 -261.3595816696291 37.50332844731269 -190.10242966333473"/>
<polyline points="37.50332844731269 -190.10242966333473 14.825048978070049 -118.84527765704027"/>
<polyline points="14.825048978070049 -118.84527765704027 34.516375924969495 -48.728712875399495"/>
<polyline points="34.516375924969495 -48.728712875399495 54.20770287186892 21.387851906241377"/>
<polyline points="54.20770287186892 21.387851906241377 34.51637592496941 -48.72871287539951"/>
<polyline points="14.825048978070049 -118.84527765704027 34.51637592496944 -48.728712875399495"/>
<polyline points="34.51637592496944 -48.728712875399495 54.20770287186884 21.387851906241373"/>
<polyline points="54.20770287186884 21.387851906241373 149.5908632482436 23.854759114430205"/>
<polyline points="54.20770287186884 21.387851906241373 149.5908632482436 23.854759114430223"/>
<polyline points="54.20770287186884 21.387851906241373 -41.17545750450598 18.920944698052523"/>
<polyline points="-41.17545750450598 18.920944698052523 -136.55861788088077 16.454037489863676"/>
<polyline points="-136.55861788088077 16.454037489863676 -156.2499448277802 -53.66252729177703"/>
<polyline points="-156.2499448277802 -53.66252729177703 -175.94127177467962 -123.77909207341783"/>
<polyline points="-175.94127177467962 -123.77909207341783 -156.2499448277802 -53.66252729177707"/>
<polyline points="-136.55861788088077 16.454037489863676 -113.88033841163822 -54.80311451643091"/>
<polyline points="-113.88033841163822 -54.80311451643091 -91.2020589423957 -126.06026652272539"/>
<polyline points="-91.2020589423957 -126.06026652272539 -113.88033841163829 -54.80311451643085"/>
<polyline points="-91.2020589423957 -126.06026652272539 -71.51073199549624 -55.94370174108462"/>
<polyline points="-71.51073199549624 -55.94370174108462 -51.81940504859688 14.172863040556246"/>
<polyline points="-51.81940504859688 14.172863040556246 -29.14112557935427 -57.08428896573833"/>
<polyline points="-51.81940504859688 14.172863040556246 -29.141125579354327 -57.08428896573833"/>
<polyline points="-51.81940504859688 14.172863040556246 -74.49768451783942 85.43001504685083"/>
<polyline points="-74.49768451783942 85.43001504685083 -97.175963987082 156.68716705314537"/>
<polyline points="-97.175963987082 156.68716705314537 -119.85424345632451 227.94431905943995"/>
<polyline points="-119.85424345632451 227.94431905943995 -142.53252292556695 299.20147106573455"/>
<polyline points="-142.53252292556695 299.20147106573455 -237.91568330194178 296.7345638575457"/>
<polyline points="-142.53252292556695 299.20147106573455 -237.91568330194178 296.7345638575457"/>
<polyline points="-142.53252292556695 299.20147106573455 -47.14936254919216 301.6683782739232"/>
<polyline points="-47.14936254919216 301.6683782739232 48.23379782718265 304.1352854821121"/>
<polyline points="48.23379782718265 304.1352854821121 67.925124774082 374.2518502637529"/>
<polyline points="67.925124774082 374.2518502637529 87.6164517209813 444.3684150453935"/>
<polyline points="87.6164517209813 444.3684150453935 67.925124774082 374.2518502637529"/>
<polyline points="48.23379782718265 304.1352854821121 28.542470880283357 234.01872070047133"/>
<polyline points="28.542470880283357 234.01872070047133 8.851143933384044 163.9021559188306"/>
<polyline points="8.851143933384044 163.9021559188306 31.52942340262662 92.64500391253604"/>
<polyline points="8.851143933384044 163.9021559188306 31.529423402626648 92.64500391253604"/>
<polyline points="8.851143933384044 163.9021559188306 -13.827135535858545 235.1593079251251"/>
<polyline points="-13.827135535858545 235.1593079251251 -36.505415005101156 306.41645993141964"/>
<polyline points="-36.505415005101156 306.41645993141964 -16.814088058201936 376.53302471306034"/>
<polyline points="-16.814088058201936 376.53302471306034 2.8772388886972595 446.6495894947013"/>
<polyline points="2.8772388886972595 446.6495894947013 -16.814088058201975 376.53302471306034"/>
<polyline points="-36.505415005101156 306.41645993141964 58.877745371273676 308.88336713960865"/>
<polyline points="58.877745371273676 308.88336713960865 154.26090574764854 311.35027434779767"/>
<polyline points="154.26090574764854 311.35027434779767 58.87774537127366 308.88336713960865"/>
<polyline points="154.26090574764854 311.35027434779767 134.5695788007493 241.23370956615693"/>
<polyline points="134.5695788007493 241.23370956615693 114.87825185385007 171.1171447845161"/>
<polyline points="114.87825185385007 171.1171447845161 210.2614122302249 173.5840519927051"/>
<polyline points="114.87825185385007 171.1171447845161 210.2614122302249 173.58405199270513"/>
<polyline points="114.87825185385007 171.1171447845161 19.495091477475246 168.65023757632707"/>
<polyline points="19.495091477475246 168.65023757632707 -75.88806889889959 166.1833303681381"/>
<polyline points="-75.88806889889959 166.1833303681381 -56.196741952000366 236.2998951497788"/>
<polyline points="-56.196741952000366 236.2998951497788 -36.50541500510117 306.4164599314195"/>
<polyline points="-36.50541500510117 306.4164599314195 58.87774537127362 308.88336713960854"/>
<polyline points="-36.50541500510117 306.4164599314195 58.87774537127363 308.88336713960854"/>
<polyline points="-36.50541500510117 306.4164599314195 -131.88857538147596 303.9495527232304"/>
<polyline points="-131.88857538147596 303.9495527232304 -227.27173575785082 301.4826455150414"/>
<polyline points="-227.27173575785082 301.4826455150414 -249.9500152270935 372.73979752133613"/>
<polyline points="-249.9500152270935 372.73979752133613 -272.6282946963361 443.9969495276306"/>
<polyline points="-272.6282946963361 443.9969495276306 -249.95001522709356 372.73979752133613"/>
<polyline points="-227.27173575785082 301.4826455150414 -207.58040881095147 371.59921029668214"/>
<polyline points="-207.58040881095147 371.59921029668214 -187.88908186405217 441.71577507832274"/>
<polyline points="-187.88908186405217 441.71577507832274 -165.21080239480958 370.45862307202805"/>
<polyline points="-187.88908186405217 441.71577507832274 -165.21080239480952 370.45862307202805"/>
<polyline points="-187.88908186405217 441.71577507832274 -210.56736133329483 512.9729270846175"/>
<polyline points="-210.56736133329483 512.9729270846175 -233.2456408025375 584.2300790909121"/>
<polyline points="-233.2456408025375 584.2300790909121 -137.86248042616268 586.696986299101"/>
<polyline points="-137.86248042616268 586.696986299101 -42.479320049787795 589.16389350729"/>
<polyline points="-42.479320049787795 589.16389350729 -137.86248042616268 586.696986299101"/>
<polyline points="-233.2456408025375 584.2300790909121 -328.62880117891234 581.763171882723"/>
<polyline points="-328.62880117891234 581.763171882723 -424.01196155528714 579.2962646745341"/>
<polyline points="-424.01196155528714 579.2962646745341 -401.3336820860447 508.03911266823945"/>
<polyline points="-424.01196155528714 579.2962646745341 -401.33368208604475 508.03911266823934"/>
<polyline points="-424.01196155528714 579.2962646745341 -446.69024102452977 650.553416680829"/>
<polyline points="-446.69024102452977 650.553416680829 -469.36852049377245 721.8105686871237"/>
<polyline points="-469.36852049377245 721.8105686871237 -373.98536011739753 724.2774758953127"/>
<polyline points="-373.98536011739753 724.2774758953127 -278.6021997410227 726.7443831035017"/>
<polyline points="-278.6021997410227 726.7443831035017 -373.9853601173976 724.2774758953127"/>
<polyline points="-469.36852049377245 721.8105686871237 -489.05984744067143 651.6940039054831"/>
<polyline points="-489.05984744067143 651.6940039054831 -508.7511743875705 581.5774391238424"/>
<polyline points="-508.7511743875705 581.5774391238424 -489.05984744067143 651.6940039054831"/>
<polyline points="-508.7511743875705 581.5774391238424 -604.1343347639454 579.1105319156535"/>
<polyline points="-604.1343347639454 579.1105319156535 -699.5174951403203 576.6436247074643"/>
<polyline points="-699.5174951403203 576.6436247074643 -719.2088220872196 506.52705992582383"/>
<polyline points="-699.5174951403203 576.6436247074643 -719.2088220872197 506.5270599258238"/>
<polyline points="-699.5174951403203 576.6436247074643 -679.8261681934212 646.7601894891048"/>
<polyline points="-679.8261681934212 646.7601894891048 -660.1348412465221 716.8767542707452"/>
<polyline points="-660.1348412465221 716.8767542707452 -564.7516808701472 719.3436614789345"/>
<polyline points="-564.7516808701472 719.3436614789345 -469.3685204937724 721.8105686871235"/>
<polyline points="-469.3685204937724 721.8105686871235 -449.6771935468732 791.9271334687638"/>
<polyline points="-469.3685204937724 721.8105686871235 -449.6771935468732 791.9271334687638"/>
<polyline points="-469.3685204937724 721.8105686871235 -489.05984744067143 651.6940039054832"/>
<polyline points="-489.05984744067143 651.6940039054832 -508.7511743875705 581.5774391238426"/>
<polyline points="-508.7511743875705 581.5774391238426 -604.1343347639454 579.1105319156535"/>
<polyline points="-604.1343347639454 579.1105319156535 -699.5174951403203 576.6436247074643"/>
<polyline points="-699.5174951403203 576.6436247074643 -604.1343347639453 579.1105319156534"/>
<polyline points="-508.7511743875705 581.5774391238426 -531.4294538568132 652.8345911301374"/>
<polyline points="-531.4294538568132 652.8345911301374 -554.1077333260561 724.0917431364323"/>
<polyline points="-554.1077333260561 724.0917431364323 -531.4294538568131 652.8345911301374"/>
<polyline points="-554.1077333260561 724.0917431364323 -458.724572949681 726.5586503446214"/>
<polyline points="-458.724572949681 726.5586503446214 -363.3414125733062 729.0255575528106"/>
<polyline points="-363.3414125733062 729.0255575528106 -386.01969204254885 800.2827095591055"/>
<polyline points="-363.3414125733062 729.0255575528106 -386.01969204254885 800.2827095591055"/>
<polyline points="-363.3414125733062 729.0255575528106 -340.6631331040635 657.7684055465156"/>
<polyline points="-340.6631331040635 657.7684055465156 -317.98485363482075 586.5112535402209"/>
<polyline points="-317.98485363482075 586.5112535402209 -413.3680140111956 584.0443463320319"/>
<polyline points="-413.3680140111956 584.0443463320319 -508.7511743875705 581.5774391238426"/>
<polyline points="-508.7511743875705 581.5774391238426 -531.4294538568131 652.8345911301375"/>
<polyline points="-508.7511743875705 581.5774391238426 -531.4294538568131 652.8345911301375"/>
<polyline points="-508.7511743875705 581.5774391238426 -486.0728949183278 510.3202871175479"/>
<polyline points="-486.0728949183278 510.3202871175479 -463.3946154490852 439.0631351112531"/>
<polyline points="-463.3946154490852 439.0631351112531 -483.08594239598443 368.94657032961254"/>
<polyline points="-483.08594239598443 368.94657032961254 -502.7772693428837 298.8300055479721"/>
<polyline points="-502.7772693428837 298.8300055479721 -483.08594239598443 368.94657032961254"/>
<polyline points="-463.3946154490852 439.0631351112531 -558.77777582546 436.59622790306406"/>
<polyline points="-558.77777582546 436.59622790306406 -654.1609362018348 434.12932069487505"/>
<polyline points="-654.1609362018348 434.12932069487505 -634.4696092549354 504.2458854765156"/>
<polyline points="-654.1609362018348 434.12932069487505 -634.4696092549354 504.2458854765155"/>
<polyline points="-654.1609362018348 434.12932069487505 -673.8522631487342 364.0127559132345"/>
<polyline points="-673.8522631487342 364.0127559132345 -693.5435900956337 293.8961911315941"/>
<polyline points="-693.5435900956337 293.8961911315941 -716.2218695648761 365.15334313788895"/>
<polyline points="-716.2218695648761 365.15334313788895 -738.9001490341192 436.4104951441839"/>
<polyline points="-738.9001490341192 436.4104951441839 -716.2218695648762 365.15334313788895"/>
<polyline points="-693.5435900956337 293.8961911315941 -670.8653106263907 222.63903912529915"/>
<polyline points="-670.8653106263907 222.63903912529915 -648.1870311571481 151.38188711900432"/>
<polyline points="-648.1870311571481 151.38188711900432 -628.4957042102486 221.49845190064474"/>
<polyline points="-648.1870311571481 151.38188711900432 -628.4957042102486 221.49845190064474"/>
<polyline points="-648.1870311571481 151.38188711900432 -667.8783581040476 81.26532233736387"/>
<polyline points="-667.8783581040476 81.26532233736387 -687.5696850509468 11.1487575557234"/>
<polyline points="-687.5696850509468 11.1487575557234 -710.2479645201898 82.40590956201824"/>
<polyline points="-710.2479645201898 82.40590956201824 -732.9262439894326 153.66306156831305"/>
<polyline points="-732.9262439894326 153.66306156831305 -710.2479645201898 82.4059095620182"/>
<polyline points="-687.5696850509468 11.1487575557234 -592.1865246745722 13.615664763912449"/>
<polyline points="-592.1865246745722 13.615664763912449 -496.8033642981974 16.082571972101483"/>
<polyline points="-496.8033642981974 16.082571972101483 -592.1865246745722 13.615664763912449"/>
<polyline points="-496.8033642981974 16.082571972101483 -474.1250848289547 -55.17458003419334"/>
<polyline points="-474.1250848289547 -55.17458003419334 -451.44680535971185 -126.43173204048816"/>
<polyline points="-451.44680535971185 -126.43173204048816 -356.06364498333704 -123.96482483229917"/>
<polyline points="-451.44680535971185 -126.43173204048816 -356.06364498333704 -123.96482483229917"/>
<polyline points="-451.44680535971185 -126.43173204048816 -546.8299657360866 -128.89863924867726"/>
<polyline points="-546.8299657360866 -128.89863924867726 -642.2131261124614 -131.36554645686624"/>
<polyline points="-642.2131261124614 -131.36554645686624 -661.9044530593609 -201.48211123850672"/>
<polyline points="-661.9044530593609 -201.48211123850672 -681.5957800062606 -271.5986760201472"/>
<polyline points="-681.5957800062606 -271.5986760201472 -586.2126196298859 -269.13176881195824"/>
<polyline points="-681.5957800062606 -271.5986760201472 -586.2126196298859 -269.1317688119582"/>
<polyline points="-681.5957800062606 -271.5986760201472 -776.9789403826353 -274.06558322833615"/>
<polyline points="-776.9789403826353 -274.06558322833615 -872.3621007590099 -276.5324904365252"/>
<polyline points="-872.3621007590099 -276.5324904365252 -852.6707738121104 -206.41592565488483"/>
<polyline points="-852.6707738121104 -206.41592565488483 -832.9794468652107 -136.2993608732444"/>
<polyline points="-832.9794468652107 -136.2993608732444 -852.6707738121104 -206.41592565488483"/>
<polyline points="-872.3621007590099 -276.5324904365252 -895.0403802282528 -205.27533843023028"/>
<polyline points="-895.0403802282528 -205.27533843023028 -917.7186596974958 -134.0181864239354"/>
<polyline points="-917.7186596974958 -134.0181864239354 -895.0403802282528 -205.27533843023028"/>
<polyline points="-917.7186596974958 -134.0181864239354 -937.4099866443954 -204.13475120557572"/>
<polyline points="-937.4099866443954 -204.13475120557572 -957.1013135912949 -274.2513159872162"/>
<polyline points="-957.1013135912949 -274.2513159872162 -979.7795930605379 -202.9941639809212"/>
<polyline points="-957.1013135912949 -274.2513159872162 -979.7795930605379 -202.9941639809212"/>
<polyline points="-957.1013135912949 -274.2513159872162 -934.423034122052 -345.508467993511"/>
<polyline points="-934.423034122052 -345.508467993511 -911.7447546528091 -416.76561999980595"/>
<polyline points="-911.7447546528091 -416.76561999980595 -889.066475183566 -488.02277200610087"/>
<polyline points="-889.066475183566 -488.02277200610087 -866.3881957143232 -559.2799240123959"/>
<polyline points="-866.3881957143232 -559.2799240123959 -961.7713560906977 -561.7468312205849"/>
<polyline points="-866.3881957143232 -559.2799240123959 -961.7713560906977 -561.7468312205849"/>
<polyline points="-866.3881957143232 -559.2799240123959 -771.0050353379485 -556.8130168042067"/>
<polyline points="-771.0050353379485 -556.8130168042067 -675.621874961574 -554.3461095960178"/>
<polyline points="-675.621874961574 -554.3461095960178 -695.3132019084734 -624.4626743776582"/>
<polyline points="-695.3132019084734 -624.4626743776582 -715.0045288553731 -694.5792391592986"/>
<polyline points="-715.0045288553731 -694.5792391592986 -695.3132019084734 -624.4626743776582"/>
<polyline points="-866.3881957143232 -559.2799240123959 -889.066475183566 -488.02277200610087"/>
<polyline points="-889.066475183566 -488.02277200610087 -911.7447546528091 -416.76561999980595"/>
<polyline points="-911.7447546528091 -416.76561999980595 -1007.1279150291837 -419.2325272079953"/>
<polyline points="-911.7447546528091 -416.76561999980595 -1007.1279150291837 -419.23252720799525"/>
<polyline points="-911.7447546528091 -416.76561999980595 -816.3615942764345 -414.298712791617"/>
<polyline points="-816.3615942764345 -414.298712791617 -720.9784339000597 -411.8318055834279"/>
<polyline points="-720.9784339000597 -411.8318055834279 -698.3001544308167 -483.0889575897226"/>
<polyline points="-698.3001544308167 -483.0889575897226 -675.6218749615739 -554.3461095960176"/>
<polyline points="-675.6218749615739 -554.3461095960176 -698.3001544308167 -483.0889575897226"/>
<polyline points="-720.9784339000597 -411.8318055834279 -740.6697608469593 -481.9483703650683"/>
<polyline points="-740.6697608469593 -481.9483703650683 -760.3610877938588 -552.0649351467088"/>
<polyline points="-760.3610877938588 -552.0649351467088 -740.6697608469593 -481.9483703650683"/>
<polyline points="-760.3610877938588 -552.0649351467088 -783.0393672631021 -480.807783140414"/>
<polyline points="-783.0393672631021 -480.807783140414 -805.7176467323452 -409.55063113411916"/>
<polyline points="-805.7176467323452 -409.55063113411916 -825.4089736792446 -479.66719591575963"/>
<polyline points="-805.7176467323452 -409.55063113411916 -825.4089736792446 -479.66719591575963"/>
<polyline points="-805.7176467323452 -409.55063113411916 -786.0263197854456 -339.4340663524786"/>
<polyline points="-786.0263197854456 -339.4340663524786 -766.3349928385461 -269.3175015708382"/>
<polyline points="-766.3349928385461 -269.3175015708382 -743.6567133693031 -340.57465357713306"/>
<polyline points="-743.6567133693031 -340.57465357713306 -720.97843390006 -411.8318055834277"/>
<polyline points="-720.97843390006 -411.8318055834277 -740.6697608469593 -481.9483703650681"/>
<polyline points="-720.97843390006 -411.8318055834277 -740.6697608469595 -481.9483703650681"/>
<polyline points="-720.97843390006 -411.8318055834277 -701.2871069531607 -341.7152408017872"/>
<polyline points="-701.2871069531607 -341.7152408017872 -681.5957800062611 -271.59867602014674"/>
<polyline points="-681.5957800062611 -271.59867602014674 -586.2126196298865 -269.13176881195767"/>
<polyline points="-586.2126196298865 -269.13176881195767 -490.8294592535117 -266.66486160376854"/>
<polyline points="-490.8294592535117 -266.66486160376854 -586.2126196298865 -269.1317688119576"/>
<polyline points="-681.5957800062611 -271.59867602014674 -658.9175005370181 -342.8558280264416"/>
<polyline points="-658.9175005370181 -342.8558280264416 -636.239221067775 -414.1129800327362"/>
<polyline points="-636.239221067775 -414.1129800327362 -731.6223814441496 -416.5798872409254"/>
<polyline points="-636.239221067775 -414.1129800327362 -731.6223814441496 -416.5798872409254"/>
<polyline points="-636.239221067775 -414.1129800327362 -540.8560606914004 -411.6460728245472"/>
<polyline points="-540.8560606914004 -411.6460728245472 -445.4729003150256 -409.1791656163582"/>
<polyline points="-445.4729003150256 -409.1791656163582 -465.16422726192536 -479.2957303979989"/>
<polyline points="-465.16422726192536 -479.2957303979989 -484.85555420882486 -549.4122951796394"/>
<polyline points="-484.85555420882486 -549.4122951796394 -465.16422726192536 -479.2957303979989"/>
<polyline points="-445.4729003150256 -409.1791656163582 -425.7815733681261 -339.06260083471767"/>
<polyline points="-425.7815733681261 -339.06260083471767 -406.0902464212263 -268.9460360530771"/>
<polyline points="-406.0902464212263 -268.9460360530771 -501.4734067976011 -271.4129432612661"/>
<polyline points="-406.0902464212263 -268.9460360530771 -501.4734067976011 -271.41294326126604"/>
<polyline points="-406.0902464212263 -268.9460360530771 -310.70708604485174 -266.4791288448881"/>
<polyline points="-310.70708604485174 -266.4791288448881 -215.32392566847693 -264.0122216366993"/>
<polyline points="-215.32392566847693 -264.0122216366993 -235.0152526153765 -334.1287864183399"/>
<polyline points="-235.0152526153765 -334.1287864183399 -254.70657956227603 -404.24535119998063"/>
<polyline points="-254.70657956227603 -404.24535119998063 -235.01525261537645 -334.1287864183399"/>
<polyline points="-215.32392566847693 -264.0122216366993 -238.0022051377197 -192.7550696304046"/>
<polyline points="-238.0022051377197 -192.7550696304046 -260.68048460696247 -121.4979176241099"/>
<polyline points="-260.68048460696247 -121.4979176241099 -238.00220513771967 -192.75506963040456"/>
<polyline points="-260.68048460696247 -121.4979176241099 -240.989157660063 -51.381352842469276"/>
<polyline points="-240.989157660063 -51.381352842469276 -221.29783071316345 18.735211939171354"/>
<polyline points="-221.29783071316345 18.735211939171354 -243.97611018240622 89.99236394546598"/>
<polyline points="-221.29783071316345 18.735211939171354 -243.97611018240622 89.99236394546598"/>
<polyline points="-221.29783071316345 18.735211939171354 -198.61955124392074 -52.5219400671233"/>
<polyline points="-198.61955124392074 -52.5219400671233 -175.94127177467794 -123.77909207341791"/>
<polyline points="-175.94127177467794 -123.77909207341791 -80.55811139830314 -121.31218486522917"/>
<polyline points="-80.55811139830314 -121.31218486522917 14.825048978071582 -118.8452776570403"/>
<polyline points="14.825048978071582 -118.8452776570403 -7.853230491171105 -47.58812565074565"/>
<polyline points="14.825048978071582 -118.8452776570403 -7.853230491171086 -47.58812565074566"/>
<polyline points="14.825048978071582 -118.8452776570403 37.50332844731426 -190.102429663335"/>
<polyline points="37.50332844731426 -190.102429663335 60.18160791655697 -261.35958166962973"/>
<polyline points="60.18160791655697 -261.35958166962973 -35.20155245981778 -263.82648887781846"/>
<polyline points="-35.20155245981778 -263.82648887781846 -130.58471283619255 -266.2933960860072"/>
<polyline points="-130.58471283619255 -266.2933960860072 -35.201552459817805 -263.8264888778185"/>
<polyline points="60.18160791655697 -261.35958166962973 40.490280969657306 -331.4761464512704"/>
<polyline points="40.490280969657306 -331.4761464512704 20.798954022757645 -401.5927112329111"/>
<polyline points="20.798954022757645 -401.5927112329111 40.490280969657306 -331.4761464512704"/>
<polyline points="20.798954022757645 -401.5927112329111 116.18211439913237 -399.1258040247224"/>
<polyline points="116.18211439913237 -399.1258040247224 211.5652747755071 -396.6588968165336"/>
<polyline points="211.5652747755071 -396.6588968165336 191.8739478286075 -466.77546159817433"/>
<polyline points="211.5652747755071 -396.6588968165336 191.87394782860747 -466.77546159817433"/>
<polyline points="211.5652747755071 -396.6588968165336 231.25660172240674 -326.5423320348928"/>
<polyline points="231.25660172240674 -326.5423320348928 250.9479286693064 -256.42576725325216"/>
<polyline points="250.9479286693064 -256.42576725325216 270.6392556162061 -186.30920247161146"/>
<polyline points="270.6392556162061 -186.30920247161146 290.33058256310574 -116.19263768997065"/>
<polyline points="290.33058256310574 -116.19263768997065 313.00886203234836 -187.44978969626524"/>
<polyline points="290.33058256310574 -116.19263768997065 313.00886203234836 -187.44978969626519"/>
<polyline points="290.33058256310574 -116.19263768997065 267.6523030938631 -44.9354856836761"/>
<polyline points="267.6523030938631 -44.9354856836761 244.97402362462034 26.32166632261847"/>
<polyline points="244.97402362462034 26.32166632261847 340.35718400099506 28.788573530807188"/>
<polyline points="340.35718400099506 28.788573530807188 435.74034437736987 31.25548073899589"/>
<polyline points="435.74034437736987 31.25548073899589 340.35718400099506 28.78857353080712"/>
<polyline points="244.97402362462034 26.32166632261847 225.28269667772074 -43.794898459022335"/>
<polyline points="225.28269667772074 -43.794898459022335 205.59136973082119 -113.91146324066304"/>
<polyline points="205.59136973082119 -113.91146324066304 110.20820935444644 -116.37837044885183"/>
<polyline points="205.59136973082119 -113.91146324066304 110.20820935444642 -116.37837044885187"/>
<polyline points="205.59136973082119 -113.91146324066304 300.97453010719596 -111.44455603247428"/>
<polyline points="300.97453010719596 -111.44455603247428 396.35769048357076 -108.97764882428548"/>
<polyline points="396.35769048357076 -108.97764882428548 416.04901743047037 -38.86108404264479"/>
<polyline points="416.04901743047037 -38.86108404264479 435.74034437736987 31.255480738996017"/>
<polyline points="435.74034437736987 31.255480738996017 416.0490174304704 -38.86108404264474"/>
<polyline points="396.35769048357076 -108.97764882428548 419.03596995281345 -180.23480083058004"/>
<polyline points="419.03596995281345 -180.23480083058004 441.71424942205624 -251.49195283687453"/>
<polyline points="441.71424942205624 -251.49195283687453 419.0359699528135 -180.23480083058"/>
<polyline points="441.71424942205624 -251.49195283687453 422.02292247515663 -321.6085176185153"/>
<polyline points="422.02292247515663 -321.6085176185153 402.33159552825714 -391.72508240015617"/>
<polyline points="402.33159552825714 -391.72508240015617 425.00987499749994 -462.9822344064508"/>
<polyline points="402.33159552825714 -391.72508240015617 425.00987499749994 -462.9822344064508"/>
<polyline points="402.33159552825714 -391.72508240015617 379.65331605901434 -320.46793039386154"/>
<polyline points="379.65331605901434 -320.46793039386154 356.97503658977143 -249.21077838756702"/>
<polyline points="356.97503658977143 -249.21077838756702 376.66636353667104 -179.09421360592623"/>
<polyline points="376.66636353667104 -179.09421360592623 396.35769048357054 -108.97764882428537"/>
<polyline points="396.35769048357054 -108.97764882428537 419.0359699528134 -180.2348008305799"/>
<polyline points="396.35769048357054 -108.97764882428537 419.0359699528134 -180.2348008305799"/>
<polyline points="396.35769048357054 -108.97764882428537 373.6794110143277 -37.72049681799078"/>
<polyline points="373.6794110143277 -37.72049681799078 351.0011315450849 33.536655188303726"/>
<polyline points="351.0011315450849 33.536655188303726 446.38429192145963 36.003562396492626"/>
<polyline points="446.38429192145963 36.003562396492626 541.7674522978344 38.470469604681576"/>
<polyline points="541.7674522978344 38.470469604681576 446.38429192145963 36.003562396492654"/>
<polyline points="351.0011315450849 33.536655188303726 370.6924584919844 103.65321996994449"/>
<polyline points="370.6924584919844 103.65321996994449 390.3837854388839 173.76978475158532"/>
<polyline points="390.3837854388839 173.76978475158532 295.00062506250913 171.30287754339636"/>
<polyline points="390.3837854388839 173.76978475158532 295.00062506250913 171.30287754339642"/>
<polyline points="390.3837854388839 173.76978475158532 485.7669458152587 176.23669195977413"/>
<polyline points="485.7669458152587 176.23669195977413 581.1501061916334 178.70359916796306"/>
<polyline points="581.1501061916334 178.70359916796306 603.828385660876 107.44644716166849"/>
<polyline points="603.828385660876 107.44644716166849 626.506665130119 36.18929515537389"/>
<polyline points="626.506665130119 36.18929515537389 603.828385660876 107.44644716166853"/>
<polyline points="581.1501061916334 178.70359916796306 558.4718267223908 249.96075117425758"/>
<polyline points="558.4718267223908 249.96075117425758 535.7935472531478 321.217903180552"/>
<polyline points="535.7935472531478 321.217903180552 440.41038687677315 318.7509959723633"/>
<polyline points="535.7935472531478 321.217903180552 440.41038687677315 318.75099597236317"/>
<polyline points="535.7935472531478 321.217903180552 631.1767076295228 323.68481038874097"/>
<polyline points="631.1767076295228 323.68481038874097 726.5598680058976 326.1517175969299"/>
<polyline points="726.5598680058976 326.1517175969299 749.2381474751403 254.8945655906354"/>
<polyline points="749.2381474751403 254.8945655906354 771.9164269443829 183.63741358434098"/>
<polyline points="771.9164269443829 183.63741358434098 749.2381474751404 254.8945655906354"/>
<polyline points="726.5598680058976 326.1517175969299 706.8685410589981 256.035152815289"/>
<polyline points="706.8685410589981 256.035152815289 687.1772141120987 185.91858803364815"/>
<polyline points="687.1772141120987 185.91858803364815 706.8685410589982 256.03515281528905"/>
<polyline points="687.1772141120987 185.91858803364815 664.498934642856 257.1757400399426"/>
<polyline points="664.498934642856 257.1757400399426 641.8206551736132 328.43289204623704"/>
<polyline points="641.8206551736132 328.43289204623704 622.1293282267139 258.3163272645962"/>
<polyline points="641.8206551736132 328.43289204623704 622.1293282267139 258.3163272645962"/>
<polyline points="641.8206551736132 328.43289204623704 661.5119821205126 398.549456827878"/>
<polyline points="661.5119821205126 398.549456827878 681.2033090674121 468.6660216095189"/>
<polyline points="681.2033090674121 468.6660216095189 703.8815885366547 397.4088696032244"/>
<polyline points="703.8815885366547 397.4088696032244 726.5598680058974 326.15171759693"/>
<polyline points="726.5598680058974 326.15171759693 631.1767076295226 323.684810388741"/>
<polyline points="726.5598680058974 326.15171759693 631.1767076295226 323.684810388741"/>
<polyline points="726.5598680058974 326.15171759693 821.9430283822724 328.6186248051189"/>
<polyline points="821.9430283822724 328.6186248051189 917.3261887586472 331.08553201330784"/>
<polyline points="917.3261887586472 331.08553201330784 894.6479092894043 402.3426840196022"/>
<polyline points="894.6479092894043 402.3426840196022 871.9696298201616 473.5998360258965"/>
<polyline points="871.9696298201616 473.5998360258965 894.6479092894043 402.34268401960213"/>
<polyline points="917.3261887586472 331.08553201330784 937.0175157055467 401.2020967949488"/>
<polyline points="937.0175157055467 401.2020967949488 956.7088426524458 471.3186615765897"/>
<polyline points="956.7088426524458 471.3186615765897 937.0175157055468 401.2020967949488"/>
<polyline points="956.7088426524458 471.3186615765897 979.3871221216888 400.0615095702954"/>
<polyline points="979.3871221216888 400.0615095702954 1002.0654015909313 328.8043575640011"/>
<polyline points="1002.0654015909313 328.8043575640011 1021.7567285378307 398.9209223456422"/>
<polyline points="1002.0654015909313 328.8043575640011 1021.7567285378309 398.9209223456421"/>
<polyline points="1002.0654015909313 328.8043575640011 982.3740746440319 258.68779278236013"/>
<polyline points="982.3740746440319 258.68779278236013 962.6827476971328 188.57122800071915"/>
<polyline points="962.6827476971328 188.57122800071915 942.9914207502333 118.45466321907816"/>
<polyline points="942.9914207502333 118.45466321907816 923.3000938033338 48.33809843743718"/>
<polyline points="923.3000938033338 48.33809843743718 1018.6832541797088 50.80500564562606"/>
<polyline points="923.3000938033338 48.33809843743718 1018.6832541797088 50.805005645626046"/>
<polyline points="923.3000938033338 48.33809843743718 827.9169334269591 45.871191229248296"/>
<polyline points="827.9169334269591 45.871191229248296 732.5337730505844 43.404284021059404"/>
<polyline points="732.5337730505844 43.404284021059404 755.212052519827 -27.852867985234965"/>
<polyline points="755.212052519827 -27.852867985234965 777.8903319890701 -99.11001999152928"/>
<polyline points="777.8903319890701 -99.11001999152928 755.212052519827 -27.852867985234965"/>
<polyline points="732.5337730505844 43.404284021059404 755.212052519827 -27.852867985234965"/>
<polyline points="755.212052519827 -27.852867985234965 777.8903319890701 -99.1100199915294"/>
<polyline points="777.8903319890701 -99.1100199915294 797.5816589359691 -28.993455209888456"/>
<polyline points="777.8903319890701 -99.1100199915294 797.5816589359691 -28.993455209888456"/>
<polyline points="777.8903319890701 -99.1100199915294 758.1990050421705 -169.2265847731704"/>
<polyline points="758.1990050421705 -169.2265847731704 738.5076780952711 -239.3431495548113"/>
<polyline points="738.5076780952711 -239.3431495548113 715.8293986260284 -168.08599754851676"/>
<polyline points="715.8293986260284 -168.08599754851676 693.1511191567856 -96.82884554222234"/>
<polyline points="693.1511191567856 -96.82884554222234 715.8293986260284 -168.08599754851676"/>
<polyline points="738.5076780952711 -239.3431495548113 833.8908384716459 -236.87624234662218"/>
<polyline points="833.8908384716459 -236.87624234662218 929.2739988480206 -234.40933513843316"/>
<polyline points="929.2739988480206 -234.40933513843316 833.8908384716459 -236.87624234662218"/>
<polyline points="929.2739988480206 -234.40933513843316 951.9522783172634 -305.6664871447276"/>
<polyline points="951.9522783172634 -305.6664871447276 974.6305577865064 -376.92363915102203"/>
<polyline points="974.6305577865064 -376.92363915102203 1070.0137181628813 -374.45673194283324"/>
<polyline points="974.6305577865064 -376.92363915102203 1070.0137181628813 -374.45673194283324"/>
<polyline points="974.6305577865064 -376.92363915102203 879.2473974101317 -379.3905463592111"/>
<polyline points="879.2473974101317 -379.3905463592111 783.864237033757 -381.85745356740006"/>
<polyline points="783.864237033757 -381.85745356740006 688.4810766573823 -384.324360775589"/>
<polyline points="688.4810766573823 -384.324360775589 593.0979162810077 -386.791267983778"/>
<polyline points="593.0979162810077 -386.791267983778 573.4065893341082 -456.9078327654188"/>
<polyline points="593.0979162810077 -386.791267983778 573.4065893341079 -456.90783276541873"/>
<polyline points="593.0979162810077 -386.791267983778 612.7892432279069 -316.67470320213704"/>
<polyline points="612.7892432279069 -316.67470320213704 632.4805701748066 -246.55813842049628"/>
<polyline points="632.4805701748066 -246.55813842049628 655.1588496440494 -317.8152904267908"/>
<polyline points="655.1588496440494 -317.8152904267908 677.8371291132925 -389.0724424330853"/>
<polyline points="677.8371291132925 -389.0724424330853 655.1588496440494 -317.8152904267908"/>
<polyline points="632.4805701748066 -246.55813842049628 609.8022907055639 -175.3009864142018"/>
<polyline points="609.8022907055639 -175.3009864142018 587.124011236321 -104.04383440790724"/>
<polyline points="587.124011236321 -104.04383440790724 682.5071716126957 -101.57692719971841"/>
<polyline points="587.124011236321 -104.04383440790724 682.5071716126957 -101.57692719971837"/>
<polyline points="587.124011236321 -104.04383440790724 491.7408508599463 -106.51074161609614"/>
<polyline points="491.7408508599463 -106.51074161609614 396.35769048357156 -108.97764882428511"/>
<polyline points="396.35769048357156 -108.97764882428511 419.03596995281436 -180.23480083057967"/>
<polyline points="419.03596995281436 -180.23480083057967 441.71424942205715 -251.4919528368743"/>
<polyline points="441.71424942205715 -251.4919528368743 419.0359699528143 -180.2348008305797"/>
<polyline points="396.35769048357156 -108.97764882428511 416.049017430471 -38.8610840426444"/>
<polyline points="416.049017430471 -38.8610840426444 435.74034437737043 31.255480738996322"/>
<polyline points="435.74034437737043 31.255480738996322 416.04901743047094 -38.8610840426444"/>
<polyline points="435.74034437737043 31.255480738996322 413.06206490812764 102.51263274529092"/>
<polyline points="413.06206490812764 102.51263274529092 390.3837854388849 173.7697847515855"/>
<polyline points="390.3837854388849 173.7697847515855 410.07511238578434 243.88634953322617"/>
<polyline points="390.3837854388849 173.7697847515855 410.0751123857843 243.88634953322622"/>
<polyline points="390.3837854388849 173.7697847515855 370.69245849198546 103.6532199699448"/>
<polyline points="370.69245849198546 103.6532199699448 351.001131545086 33.53665518830406"/>
<polyline points="351.001131545086 33.53665518830406 373.67941101432893 -37.72049681799057"/>
<polyline points="373.67941101432893 -37.72049681799057 396.3576904835718 -108.97764882428514"/>
<polyline points="396.3576904835718 -108.97764882428514 416.0490174304711 -38.86108404264444"/>
<polyline points="396.3576904835718 -108.97764882428514 416.0490174304712 -38.861084042644514"/>
<polyline points="396.3576904835718 -108.97764882428514 376.6663635366724 -179.09421360592592"/>
<polyline points="376.6663635366724 -179.09421360592592 356.975036589773 -249.21077838756673"/>
<polyline points="356.975036589773 -249.21077838756673 261.59187621339834 -251.67768559575572"/>
<polyline points="261.59187621339834 -251.67768559575572 166.20871583702356 -254.14459280394473"/>
<polyline points="166.20871583702356 -254.14459280394473 261.59187621339834 -251.67768559575563"/>
<polyline points="356.975036589773 -249.21077838756673 379.653316059016 -320.4679303938613"/>
<polyline points="379.653316059016 -320.4679303938613 402.3315955282589 -391.7250824001558"/>
<polyline points="402.3315955282589 -391.7250824001558 497.71475590463365 -389.2581751919668"/>
<polyline points="402.3315955282589 -391.7250824001558 497.71475590463365 -389.2581751919669"/>
<polyline points="402.3315955282589 -391.7250824001558 306.9484351518841 -394.1919896083448"/>
<polyline points="306.9484351518841 -394.1919896083448 211.56527477550944 -396.65889681653385"/>
<polyline points="211.56527477550944 -396.65889681653385 231.25660172240896 -326.5423320348931"/>
<polyline points="231.25660172240896 -326.5423320348931 250.94792866930848 -256.4257672532524"/>
<polyline points="250.94792866930848 -256.4257672532524 231.25660172240896 -326.5423320348932"/>
<polyline points="211.56527477550944 -396.65889681653385 191.8739478286099 -466.77546159817445"/>
<polyline points="191.8739478286099 -466.77546159817445 172.18262088171033 -536.8920263798152"/>
<polyline points="172.18262088171033 -536.8920263798152 267.56578125808505 -534.4251191716264"/>
<polyline points="172.18262088171033 -536.8920263798152 267.56578125808505 -534.4251191716264"/>
<polyline points="172.18262088171033 -536.8920263798152 76.79946050533562 -539.3589335880042"/>
<polyline points="76.79946050533562 -539.3589335880042 -18.583699871039045 -541.8258407961931"/>
<polyline points="-18.583699871039045 -541.8258407961931 1.107627075860545 -471.7092760145526"/>
<polyline points="1.107627075860545 -471.7092760145526 20.798954022760185 -401.59271123291177"/>
<polyline points="20.798954022760185 -401.59271123291177 1.1076270758605178 -471.7092760145526"/>
<polyline points="-18.583699871039045 -541.8258407961931 -41.26197934028202 -470.5686887898985"/>
<polyline points="-41.26197934028202 -470.5686887898985 -63.94025880952501 -399.31153678360397"/>
<polyline points="-63.94025880952501 -399.31153678360397 -41.261979340282124 -470.56868878989854"/>
<polyline points="-63.94025880952501 -399.31153678360397 -83.63158575642463 -469.4281015652445"/>
<polyline points="-83.63158575642463 -469.4281015652445 -103.32291270332422 -539.5446663468853"/>
<polyline points="-103.32291270332422 -539.5446663468853 -126.00119217256716 -468.2875143405906"/>
<polyline points="-103.32291270332422 -539.5446663468853 -126.00119217256719 -468.2875143405906"/>
<polyline points="-103.32291270332422 -539.5446663468853 -80.64463323408121 -610.80181835318"/>
<polyline points="-80.64463323408121 -610.80181835318 -57.96635376483818 -682.0589703594745"/>
</svg>