<svg viewBox="-560.1148535400124 -253.77464617741813 1128.093380157768 754.8432032080274" xmlns="http://www.w3.org/2000/svg">
<style>
svg { stroke:black; stroke-width:2; fill:none;}
</style>
<polyline points="567.9785266177556 -98.15720521808292 566.1853282774894 -88.5482296964748"/>
<polyline points="566.1853282774895 -88.54822969647509 559.1788427616001 -94.93346758746556"/>
<polyline points="559.1788427616001 -94.93346758746556 559.3724174103745 -86.45033304387131"/>
<polyline points="559.3724174103745 -86.45033304387131 549.8615946514066 -89.51540777473033"/>
<polyline points="549.8615946514066 -89.51540777473033 551.5909222149821 -99.00965674369282"/>
<polyline points="551.5909222149821 -99.00965674369282 552.4557780344081 -93.1328242040626"/>
<polyline points="552.4557780344081 -93.1328242040626 554.1851055979836 -102.62707317302514"/>
<polyline points="554.1851055979836 -102.62707317302514 559.4991183111745 -98.87601026219826"/>
<polyline points="559.4991183111745 -98.87601026219826 561.1889708571235 -94.0049045890956"/>
<polyline points="561.1889708571235 -94.0049045890956 554.4219672713476 -89.8634022640146"/>
<polyline points="554.4219672713476 -89.8634022640146 559.0617895244347 -84.60100490152341"/>
<polyline points="559.0617895244347 -84.60100490152341 550.6213623358186 -79.34620390229291"/>
<polyline points="550.6213623358186 -79.34620390229291 549.5033963474419 -89.2799164952715"/>
<polyline points="549.5033963474419 -89.2799164952715 545.9855784182032 -80.28627158796651"/>
<polyline points="545.9855784182032 -80.28627158796651 544.247768286501 -90.05156136896184"/>
<polyline points="544.247768286501 -90.05156136896184 537.9551230733956 -83.5202206752663"/>
<polyline points="537.9551230733956 -83.5202206752663 546.3274827594541 -78.7367014379271"/>
<polyline points="546.3274827594541 -78.7367014379271 538.6883161934315 -85.1191051286074"/>
<polyline points="538.6883161934315 -85.1191051286074 539.8106010659924 -77.73252199732465"/>
<polyline points="539.8106010659924 -77.73252199732465 537.1427909695692 -81.19979231907169"/>
<polyline points="537.1427909695692 -81.19979231907169 539.3523967292953 -90.90121279299386"/>
<polyline points="539.3523967292953 -90.90121279299386 529.6857011514777 -90.06388317919287"/>
<polyline points="529.6857011514777 -90.06388317919287 530.2806675388972 -80.13353184014103"/>
<polyline points="530.2806675388972 -80.13353184014103 537.6363483225132 -86.6241673081449"/>
<polyline points="537.6363483225132 -86.6241673081449 540.9764570128996 -94.38520007181975"/>
<polyline points="537.6363483225132 -86.6241673081449 540.9764570128996 -94.38520007181975"/>
<polyline points="540.9764570128996 -94.38520007181975 541.2639956479352 -104.36103362973336"/>
<polyline points="541.2639956479352 -104.36103362973336 534.7001038122548 -106.2575633452866 514.7339489055377 -105.24117157004682 505.87205062873795 -109.67032715964436 496.2954006547068 -109.19055867034125 475.7029039641023 -103.82909222083879"/>
<polyline points="475.7029039641023 -103.82909222083879 469.19341631481427 -108.95389603798733 451.08740958438386 -110.65833423142502 444.5779219350959 -115.78313804857368 436.81019821165586 -115.93524200497669 424.4642740584648 -108.18668111453927"/>
<polyline points="424.4642740584648 -108.18668111453927 421.7563886033696 -112.53178214024383"/>
<polyline points="424.4642740584648 -108.18668111453927 421.7563886033696 -112.53178214024383"/>
<polyline points="424.4642740584648 -108.18668111453927 418.1392989465018 -110.11785364619816"/>
<polyline points="418.1392989465018 -110.11785364619816 408.89367715978307 -113.70727928790342"/>
<polyline points="436.81019821165586 -115.93524200497669 430.48522309969275 -117.86641453663547 415.5197161088066 -106.56723211171888 412.1094422744192 -99.71782510458772 405.8614658700351 -92.21440543354811 395.33742693800025 -64.70817084235767"/>
<polyline points="395.33742693800025 -64.70817084235767 395.57742809877175 -55.586488284071756 386.3460682532009 -38.502497459200924 386.58606941397227 -29.380814900914988 383.2722084151149 -19.951992139521273 379.21380671275017 6.654208287399768"/>
<polyline points="379.21380671275017 6.654208287399768 386.4155549910197 13.413772255680476"/>
<polyline points="379.21380671275017 6.654208287399768 382.85516409021994 15.950212458362463"/>
<polyline points="383.2722084151149 -19.951992139521273 382.4788019714454 -10.002422078596226"/>
<polyline points="383.2722084151149 -19.951992139521273 382.4788019714454 -10.002422078596226"/>
<polyline points="395.33742693800025 -64.70817084235767 391.22388569597916 -56.17248058329111"/>
<polyline points="391.22388569597916 -56.17248058329111 381.8128873974285 -52.87077777876309"/>
<polyline points="391.22388569597916 -56.17248058329111 381.8128873974285 -52.87077777876309"/>
<polyline points="381.8128873974285 -52.87077777876309 374.07785205191186 -50.87409997571315"/>
<polyline points="405.8614658700351 -92.21440543354811 401.7479246280139 -83.67871517448152 384.8606818863018 -74.881304666322 380.16400579105493 -68.30367818906552 372.0175654941162 -65.49886290876184 351.6987740539504 -70.70373420948026"/>
<polyline points="351.6987740539504 -70.70373420948026 349.23897899236295 -67.1569625226944 335.2876181512805 -61.7304251454602 332.82782308969297 -58.18365345867426 326.45359062921824 -57.75297393425807 311.3818480592193 -71.41692606299503"/>
<polyline points="311.3818480592193 -71.41692606299503 311.51333636628596 -71.91366652910062"/>
<polyline points="311.3818480592193 -71.41692606299503 311.51333636628596 -71.91366652910062"/>
<polyline points="311.3818480592193 -71.41692606299503 307.1889310457539 -71.162496303449"/>
<polyline points="307.1889310457539 -71.162496303449 301.6954811779745 -64.91705522563727"/>
<polyline points="326.45359062921824 -57.75297393425807 322.26067361575286 -57.4985441747121 303.38271729499655 -61.61216181433617 296.5137504677894 -68.11264449167388 287.0368415206199 -71.29449169949623 262.66677143896817 -81.49365823334743"/>
<polyline points="262.66677143896817 -81.49365823334743 257.5090676716262 -90.01654749419994 240.00864564207262 -99.63999886454229 234.8509418747306 -108.1628881253948 226.6910260563488 -113.07454119136133 208.26576016836358 -121.66978741709922"/>
<polyline points="208.26576016836358 -121.66978741709922 210.20302740135568 -130.61893398638622"/>
<polyline points="208.26576016836358 -121.66978741709922 205.85216265811331 -130.03107776828907"/>
<polyline points="226.6910260563488 -113.07454119136133 220.28089519531596 -119.72461038896849"/>
<polyline points="262.66677143896817 -81.49365823334743 254.31388257754037 -86.99175815979531"/>
<polyline points="303.38271729499655 -61.61216181433617 296.2194012719565 -62.10065571961046"/>
<polyline points="296.2194012719565 -62.10065571961046 291.2189369068223 -53.64251107703593"/>
<polyline points="322.26067361575286 -57.4985441747121 315.0973575927127 -57.98703807998638"/>
<polyline points="326.45359062921824 -57.75297393425807 322.26067361575286 -57.4985441747121"/>
<polyline points="351.6987740539504 -70.70373420948026 345.30094420952145 -67.28284803930136"/>
<polyline points="345.30094420952145 -67.28284803930136 335.32763921609455 -66.59115862064371"/>
<polyline points="345.30094420952145 -67.28284803930136 335.32763921609455 -66.59115862064371"/>
<polyline points="335.32763921609455 -66.59115862064371 328.30521388321205 -59.4738589371944"/>
<polyline points="372.0175654941162 -65.49886290876184 365.6197356496872 -62.07797673858295 346.0315250359397 -65.71199138320377 338.52985600805476 -71.04641515284439 329.29787761137345 -74.82247712279096 309.39741834718166 -92.30346621587293"/>
<polyline points="309.39741834718166 -92.30346621587293 304.60722347820104 -100.94840635282459 287.939694635524 -111.94561795452736 283.14949976654344 -120.59055809147893 276.0372375239102 -127.12422063281414 263.9156210063537 -145.6610384809735"/>
<polyline points="263.9156210063537 -145.6610384809735 262.8261522805625 -155.49384392798933"/>
<polyline points="263.9156210063537 -145.6610384809735 262.8261522805625 -155.49384392798933"/>
<polyline points="263.9156210063537 -145.6610384809735 258.6895893671941 -153.91088788504982"/>
<polyline points="258.6895893671941 -153.91088788504982 250.61697055347105 -158.76404484853663"/>
<polyline points="276.0372375239102 -127.12422063281414 270.8112058847505 -135.37407003689046 254.11602194598024 -137.11423455589548 249.6337955139418 -138.85366043713395 241.975917679521 -137.3677460051247 225.06827181787804 -118.80880875207842"/>
<polyline points="225.06827181787804 -118.80880875207842 223.4604946061105 -116.67766990985135 210.86683226152465 -112.24758985071469 209.25905504975705 -110.11645100848762 203.89319484881415 -105.51532941255576 192.99710783885084 -80.30074616793486"/>
<polyline points="192.99710783885084 -80.30074616793486 198.53443258398508 -76.23136353039389"/>
<polyline points="192.99710783885084 -80.30074616793486 194.43078154729483 -74.64196219022884"/>
<polyline points="203.89319484881415 -105.51532941255576 200.87248405328484 -100.34961703258406"/>
<polyline points="203.89319484881415 -105.51532941255576 200.87248405328484 -100.34961703258406"/>
<polyline points="225.06827181787804 -118.80880875207842 219.31110435192377 -117.13705896486569"/>
<polyline points="219.31110435192377 -117.13705896486569 209.36624292127198 -116.41755608818481"/>
<polyline points="219.31110435192377 -117.13705896486569 209.36624292127198 -116.41755608818481"/>
<polyline points="209.36624292127198 -116.41755608818481 201.7737390573773 -121.47040701539197"/>
<polyline points="241.975917679521 -137.3677460051247 236.2187502135667 -135.69599621791195 217.40995386605402 -128.93040159943322 210.9650020013256 -121.33210752647618 202.0888817659439 -117.22836715800379 182.20363040281936 -107.16285898831386"/>
<polyline points="182.20363040281936 -107.16285898831386 178.43109187187085 -98.43363419412069 162.79911329826956 -87.4318997595281 159.026574767321 -78.70267496533496 152.2529521292864 -73.58004441555025 139.37153849340697 -66.9791871426837"/>
<polyline points="139.37153849340697 -66.9791871426837 138.98486274162406 -59.353377989331655"/>
<polyline points="139.37153849340697 -66.9791871426837 138.98486274162406 -59.353377989331655"/>
<polyline points="139.37153849340697 -66.9791871426837 134.6698450441988 -60.4545547492643"/>
<polyline points="134.6698450441988 -60.4545547492643 127.5487662434785 -53.467334612167924"/>
<polyline points="152.2529521292864 -73.58004441555025 147.5512586800782 -67.05541202213087 129.8391125383039 -68.94496080731967 124.45919148318622 -71.46761908972645 115.9717925969366 -74.91686789672835 95.54604364086032 -96.70829982589045"/>
<polyline points="95.54604364086032 -96.70829982589045 92.55262771157292 -103.3418032330151 77.83777687586408 -113.10334555173645 74.84436094657664 -119.73684895886122 68.24168481730334 -126.55358464187492 53.7139987583274 -152.48225167813175"/>
<polyline points="53.7139987583274 -152.48225167813175 61.017320204630245 -157.33141313559278"/>
<polyline points="53.7139987583274 -152.48225167813175 53.60357127443871 -161.70579410476387"/>
<polyline points="77.83777687586408 -113.10334555173645 71.23335259569615 -113.68979945053741"/>
<polyline points="115.9717925969366 -74.91686789672835 109.12550264491426 -79.71319389866363"/>
<polyline points="152.2529521292864 -73.58004441555025 147.5512586800782 -67.05541202213087"/>
<polyline points="162.79911329826956 -87.4318997595281 155.16440212741838 -81.3598649370839"/>
<polyline points="202.0888817659439 -117.22836715800379 194.6555076600916 -111.0075130378768"/>
<polyline points="236.2187502135667 -135.69599621791195 228.04209122204642 -133.3515214621164"/>
<polyline points="254.11602194598024 -137.11423455589548 246.70399323381724 -142.75023862069565"/>
<polyline points="246.70399323381724 -142.75023862069565 239.32831849655463 -140.49548476281188"/>
<polyline points="270.8112058847505 -135.37407003689046 263.39917717258766 -141.0100741016907"/>
<polyline points="276.0372375239102 -127.12422063281414 270.8112058847505 -135.37407003689046"/>
<polyline points="309.39741834718166 -92.30346621587293 301.3106081672857 -98.17960489581534"/>
<polyline points="301.3106081672857 -98.17960489581534 291.88159191014734 -96.31896719626613"/>
<polyline points="301.3106081672857 -98.17960489581534 291.88159191014734 -96.31896719626613"/>
<polyline points="291.88159191014734 -96.31896719626613 282.8810018880313 -95.32307015090291"/>
<polyline points="329.29787761137345 -74.82247712279096 321.21106743147755 -80.6986158027333 304.16234735215073 -78.98759170223558 298.5886275727909 -81.32575750610557 291.50339308740627 -78.89806263841677 281.3020070359657 -60.86020030188062"/>
<polyline points="281.3020070359657 -60.86020030188062 279.7446082978621 -61.141789031886184 268.41831174833777 -56.725171702429925 266.86091301023407 -57.00676043243545 262.97782150783405 -52.94942272051737 261.19480459202265 -30.101585267853263"/>
<polyline points="261.19480459202265 -30.101585267853263 263.894457442901 -28.006337893790054"/>
<polyline points="261.19480459202265 -30.101585267853263 263.894457442901 -28.006337893790054"/>
<polyline points="261.19480459202265 -30.101585267853263 259.6045734499224 -26.71122897797608"/>
<polyline points="259.6045734499224 -26.71122897797608 253.40813292456147 -28.43680717607696"/>
<polyline points="262.97782150783405 -52.94942272051737 261.3875903657338 -49.55906643064014 248.09294613362118 -35.98105321801763 245.78987039927566 -26.51399194628435 239.0543203517279 -19.14675901384818 219.10175774673567 -1.0530112122214539"/>
<polyline points="219.10175774673567 -1.0530112122214539 218.19622096788387 8.602456121348402 207.05120663365904 25.15424256721017 206.1456698548072 34.80970990078005 200.53142840207835 42.44797104352335 183.1559677459517 54.92246243951291"/>
<polyline points="183.1559677459517 54.92246243951291 187.83202371941218 60.95590099966695"/>
<polyline points="183.1559677459517 54.92246243951291 183.59278406674127 62.40486121263186"/>
<polyline points="200.53142840207835 42.44797104352335 197.0132691068436 50.591601168997435"/>
<polyline points="200.53142840207835 42.44797104352335 197.0132691068436 50.591601168997435"/>
<polyline points="219.10175774673567 -1.0530112122214539 214.29897716147482 7.708435162747266"/>
<polyline points="214.29897716147482 7.708435162747266 204.95984140866778 10.083863679589284"/>
<polyline points="214.29897716147482 7.708435162747266 204.95984140866778 10.083863679589284"/>
<polyline points="204.95984140866778 10.083863679589284 200.3149586790015 15.63450715430808"/>
<polyline points="239.0543203517279 -19.14675901384818 234.251539766467 -10.385312638879464 214.55589023531823 -6.9106413391641155 206.01220644587465 -5.363227697934949 196.05804362646222 -6.141000162190403 171.30726006324267 -23.087712235158396"/>
<polyline points="171.30726006324267 -23.087712235158396 164.281329980431 -25.92775934806285 145.10023336837222 -29.646302652736665 138.07430328556057 -32.48634976564114 129.25662549709196 -36.80423621483072 111.35059037978674 -60.85311650984368"/>
<polyline points="111.35059037978674 -60.85311650984368 107.37873621706574 -67.51740550853165"/>
<polyline points="111.35059037978674 -60.85311650984368 107.37873621706574 -67.51740550853165"/>
<polyline points="111.35059037978674 -60.85311650984368 103.8555657785827 -66.2380012613562"/>
<polyline points="103.8555657785827 -66.2380012613562 94.88144187322096 -64.71432045514123"/>
<polyline points="129.25662549709196 -36.80423621483072 121.76160089588795 -42.189120966343204 104.80534649030838 -48.09903350218097 99.61544746019024 -55.000179457700774 92.44522690855888 -57.36453910609634 80.94563918684234 -55.67281734909735"/>
<polyline points="80.94563918684234 -55.67281734909735 79.59021281532134 -61.60595673125268 68.1670689007856 -67.92605971118999 66.8116425292646 -73.85919909334528 62.70169679438341 -75.53169524763746 59.08418348858835 -67.83302315987778"/>
<polyline points="59.08418348858835 -67.83302315987778 65.22910046568182 -72.32013335594901"/>
<polyline points="59.08418348858835 -67.83302315987778 61.73185596943996 -71.17070731923889"/>
<polyline points="62.70169679438341 -75.53169524763746 60.954279706347485 -78.1126946624535"/>
<polyline points="80.94563918684234 -55.67281734909735 75.56602540263742 -59.703308038515246"/>
<polyline points="104.80534649030838 -48.09903350218097 95.9146467300357 -52.64893228278839"/>
<polyline points="95.9146467300357 -52.64893228278839 89.81420445196916 -44.76339091466405"/>
<polyline points="121.76160089588795 -42.189120966343204 112.87090113561534 -46.73901974695064"/>
<polyline points="129.25662549709196 -36.80423621483072 121.76160089588795 -42.189120966343204"/>
<polyline points="171.30726006324267 -23.087712235158396 161.88074102263022 -24.57066841696072"/>
<polyline points="161.88074102263022 -24.57066841696072 153.2867806265596 -23.603350569261334"/>
<polyline points="161.88074102263022 -24.57066841696072 153.2867806265596 -23.603350569261334"/>
<polyline points="153.2867806265596 -23.603350569261334 145.1700636616654 -17.762766975989305"/>
<polyline points="196.05804362646222 -6.141000162190403 186.6315245858497 -7.6239563439927585 170.3682355766252 -10.999884171358252 163.99755619390126 -17.38976977172692 157.63200041549385 -19.61454375150481 152.14819282945612 -23.79284955345514"/>
<polyline points="152.14819282945612 -23.79284955345514 150.12728474022728 -31.335191545488215 139.86609896563593 -38.7093916681061 137.84519087640712 -46.25173366013918 134.93890517243585 -49.500567479663424 139.00682011973132 -50.856319557919925"/>
<polyline points="139.00682011973132 -50.856319557919925 141.76779523040827 -57.5535876762263"/>
<polyline points="139.00682011973132 -50.856319557919925 141.76779523040827 -57.5535876762263"/>
<polyline points="139.00682011973132 -50.856319557919925 138.05160777450848 -55.77073119173898"/>
<polyline points="138.05160777450848 -55.77073119173898 131.27847409551484 -61.42533749863455"/>
<polyline points="134.93890517243585 -49.500567479663424 133.98369282721308 -54.414979113482474 124.95056386136055 -48.463248896590414 125.40475949758553 -44.179791017151636 121.08740904963241 -38.876576355640864 107.89541586376794 -13.650676678125373"/>
<polyline points="107.89541586376794 -13.650676678125373 109.95405581464186 -5.893560179514004 104.18759438665884 7.263696352890373 106.24623433753271 15.020812851501805 103.25187431040055 23.194276757455206 91.24276174241643 50.68521206857803"/>
<polyline points="91.24276174241643 50.68521206857803 97.76331522439251 58.25648332937142"/>
<polyline points="91.24276174241643 50.68521206857803 94.14189913190287 60.14527230429223"/>
<polyline points="103.25187431040055 23.194276757455206 102.47297736840477 32.329711613056446"/>
<polyline points="103.25187431040055 23.194276757455206 102.47297736840477 32.329711613056446"/>
<polyline points="107.89541586376794 -13.650676678125373 105.87712125939952 -7.159335102381136"/>
<polyline points="105.87712125939952 -7.159335102381136 97.52314782113619 -5.8388926500354055"/>
<polyline points="105.87712125939952 -7.159335102381136 97.52314782113619 -5.8388926500354055"/>
<polyline points="97.52314782113619 -5.8388926500354055 94.3866269765941 -6.975459281310751"/>
<polyline points="121.08740904963241 -38.876576355640864 119.069114445264 -32.38523477989664 101.25708994973415 -26.16806016897945 93.77042117279967 -19.541692107938598 84.057619413988 -17.413587510183472 55.49150757112439 -21.640953040160205"/>
<polyline points="55.49150757112439 -21.640953040160205 48.248466287529105 -16.690681165392572 29.031939963061614 -11.389921155695752 21.788898679466328 -6.4396492809281165 12.19211267526567 -5.582144720963774 -11.969360535284135 -16.594319158900127"/>
<polyline points="-11.969360535284135 -16.594319158900127 -17.417877862195684 -14.711367096910148"/>
<polyline points="-11.969360535284135 -16.594319158900127 -17.417877862195684 -14.711367096910148"/>
<polyline points="-11.969360535284135 -16.594319158900127 -20.52399041340486 -15.122330354543987"/>
<polyline points="-20.52399041340486 -15.122330354543987 -28.46632953568676 -9.05790016903781"/>
<polyline points="12.19211267526567 -5.582144720963774 3.6374827971449983 -4.110155916607666 -14.688485763800134 -10.79123278099768 -21.888144048587506 -17.65340046014442 -29.727649201265006 -22.61299447577745 -41.48569066403686 -40.745176652688144"/>
<polyline points="-41.48569066403686 -40.745176652688144 -44.87133578345774 -50.126638851118244 -58.319277418747056 -63.19908059109002 -61.704922538167914 -72.5805427895201 -66.52841791447447 -79.67385406048405 -69.0557720336588 -96.85775572723533"/>
<polyline points="-69.0557720336588 -96.85775572723533 -63.376877443083906 -103.85746765231846"/>
<polyline points="-69.0557720336588 -96.85775572723533 -67.91101694490672 -106.45205726755884"/>
<polyline points="-41.48569066403686 -40.745176652688144 -48.138158967064896 -47.728524537400695"/>
<polyline points="3.6374827971449983 -4.110155916607666 -6.160324900805031 -4.4623128707579935"/>
<polyline points="84.057619413988 -17.413587510183472 74.75468382027735 -13.911210299777803"/>
<polyline points="101.25708994973415 -26.16806016897945 95.80690737272988 -20.810268575449726"/>
<polyline points="124.95056386136055 -48.463248896590414 121.95628248131291 -50.34417401305076"/>
<polyline points="134.93890517243585 -49.500567479663424 133.98369282721308 -54.414979113482474"/>
<polyline points="157.63200041549385 -19.61454375150481 152.4755541519761 -24.125530424822255"/>
<polyline points="170.3682355766252 -10.999884171358252 160.49439369130135 -12.418573215402692"/>
<polyline points="196.05804362646222 -6.141000162190403 186.6315245858497 -7.6239563439927585"/>
<polyline points="234.251539766467 -10.385312638879464 226.5918974253236 -3.956958702246947"/>
<polyline points="248.09294613362118 -35.98105321801763 243.75936618574093 -30.880323306902397"/>
<polyline points="243.75936618574093 -30.880323306902397 235.25641592262596 -36.02761401796485"/>
<polyline points="261.3875903657338 -49.55906643064014 257.0540104178535 -44.458336519524856"/>
<polyline points="262.97782150783405 -52.94942272051737 261.3875903657338 -49.55906643064014"/>
<polyline points="281.3020070359657 -60.86020030188062 275.88578241981304 -59.49515581459689"/>
<polyline points="275.88578241981304 -59.49515581459689 266.89458527146 -55.29186199757435"/>
<polyline points="275.88578241981304 -59.49515581459689 266.89458527146 -55.29186199757435"/>
<polyline points="266.89458527146 -55.29186199757435 257.63382330980363 -58.01652361781304"/>
<polyline points="291.50339308740627 -78.89806263841677 286.0871684712535 -77.53301815113306 271.15859394401735 -64.61306520648638 267.9489141029506 -55.724473139722775 261.4582228653936 -48.13479996626429 248.62017063421484 -25.944552298461186"/>
<polyline points="248.62017063421484 -25.944552298461186 248.653779245374 -15.947262153249412 238.82202498558465 1.3677136259492175 238.8556335967438 11.36500377116101 234.97200860350776 19.9643514888166 227.8742616628141 38.21971853299427"/>
<polyline points="227.8742616628141 38.21971853299427 230.9282385133165 46.92289340603685"/>
<polyline points="227.8742616628141 38.21971853299427 230.9282385133165 46.92289340603685"/>
<polyline points="227.8742616628141 38.21971853299427 226.4855791094669 47.452051771086026"/>
<polyline points="226.4855791094669 47.452051771086026 222.43919538676494 56.109744059524566"/>
<polyline points="234.97200860350776 19.9643514888166 233.58332605016057 29.19668472690839 217.3281513248527 36.89773125711064 212.13992839027765 39.04063192180489 203.37439603419602 40.39495110242062 176.65583063031832 29.83699142488365"/>
<polyline points="176.65583063031832 29.83699142488365 172.03975361693693 27.117495739046582 155.65665050367753 26.84332158910763 151.04057349029614 24.1238259032705 142.68908520635446 21.554669732896798 119.26638261268425 3.1331955235560787"/>
<polyline points="119.26638261268425 3.1331955235560787 120.53936709118953 -4.301106294418225"/>
<polyline points="119.26638261268425 3.1331955235560787 116.0839250286909 -3.8215700594528794"/>
<polyline points="142.68908520635446 21.554669732896798 135.89528031641487 17.20142060781257"/>
<polyline points="142.68908520635446 21.554669732896798 135.89528031641487 17.20142060781257"/>
<polyline points="176.65583063031832 29.83699142488365 169.0390450235355 29.807060475046914"/>
<polyline points="169.0390450235355 29.807060475046914 159.93484228096608 33.880923169318024"/>
<polyline points="169.0390450235355 29.807060475046914 159.93484228096608 33.880923169318024"/>
<polyline points="159.93484228096608 33.880923169318024 154.62435739699762 41.18221876664508"/>
<polyline points="203.37439603419602 40.39495110242062 195.75761042741314 40.3650201525839 176.33374246014077 43.57054777085117 167.1987713925299 40.03526926159787 158.20115877442223 41.185443152920925 141.30697966846714 45.68692871830725"/>
<polyline points="141.30697966846714 45.68692871830725 134.92034752044978 40.57123240085366 117.92859836027985 39.74324877541641 111.54196621226251 34.62755245796284 104.66929738410185 34.438117211564176 96.83410999085864 39.587936760483984"/>
<polyline points="96.83410999085864 39.587936760483984 94.6618501002298 34.35980985113709"/>
<polyline points="96.83410999085864 39.587936760483984 94.6618501002298 34.35980985113709"/>
<polyline points="96.83410999085864 39.587936760483984 91.29241383967236 37.307120394889985"/>
<polyline points="91.29241383967236 37.307120394889985 81.88221187683371 34.6527972699757"/>
<polyline points="104.66929738410185 34.438117211564176 99.12760123291554 32.15730084597022 86.79014971942749 43.94517637889384 85.154720116457 50.11246894321179 80.28338002991666 57.880755164171006 72.89898704334492 86.95337714772948"/>
<polyline points="72.89898704334492 86.95337714772948 74.86340027970553 95.28119077920891 68.66634823807094 112.41423868397551 70.63076147443154 120.74205231545494 68.67467953947941 130.3341191533893 66.58734616919591 158.89583590040849"/>
<polyline points="66.58734616919591 158.89583590040849 74.7657089472009 164.47847884521732"/>
<polyline points="66.58734616919591 158.89583590040849 71.48032671119178 167.52545674412673"/>
<polyline points="68.67467953947941 130.3341191533893 69.30029720770999 140.1080887381352"/>
<polyline points="72.89898704334492 86.95337714772948 70.39341618222716 95.33728563835705"/>
<polyline points="86.79014971942749 43.94517637889384 80.12650748945755 45.15262865928034"/>
<polyline points="80.12650748945755 45.15262865928034 71.57226263919462 45.02346796223138"/>
<polyline points="99.12760123291554 32.15730084597022 92.46395900294561 33.36475312635672"/>
<polyline points="104.66929738410185 34.438117211564176 99.12760123291554 32.15730084597022"/>
<polyline points="141.30697966846714 45.68692871830725 132.70992223321215 44.386535320098716"/>
<polyline points="132.70992223321215 44.386535320098716 125.12243800066018 50.71771147215684"/>
<polyline points="132.70992223321215 44.386535320098716 125.12243800066018 50.71771147215684"/>
<polyline points="125.12243800066018 50.71771147215684 115.53055335356855 51.70931165647155"/>
<polyline points="158.20115877442223 41.185443152920925 149.60410133916722 39.88504975471239 137.32838493408224 53.73270408457486 134.3179301734977 59.350505937404485 130.25530540598555 67.79239967606192 130.73494964185102 97.66287468191764"/>
<polyline points="130.73494964185102 97.66287468191764 132.42332578733652 104.5178985384316 127.72426595387816 121.85391561154594 129.41264209936364 128.70893946805987 129.13569309084372 138.21431003168664 137.5039697627009 166.84195967765848"/>
<polyline points="137.5039697627009 166.84195967765848 143.39941684989498 173.49490911790002"/>
<polyline points="137.5039697627009 166.84195967765848 143.39941684989498 173.49490911790002"/>
<polyline points="137.5039697627009 166.84195967765848 139.57550308905147 175.76444907903607"/>
<polyline points="139.57550308905147 175.76444907903607 135.98617002448 181.8032304926141"/>
<polyline points="129.13569309084372 138.21431003168664 131.20722641719428 147.13679943306425 123.0780959123939 164.921443585923 123.22577693353777 173.52557492013904 118.36111113690083 181.17413979625383 98.49957015348161 191.47526311575197"/>
<polyline points="98.49957015348161 191.47526311575197 98.46687883158226 196.63082911940464 90.38470399784303 210.65875610609 90.35201267594368 215.8143221097427 85.35711295038757 220.76506513649457 64.44180297724618 221.2662648133909"/>
<polyline points="64.44180297724618 221.2662648133909 67.71363976132606 219.41981297943562"/>
<polyline points="64.44180297724618 221.2662648133909 63.951343730106345 221.75199466580472"/>
<polyline points="85.35711295038757 220.76506513649457 81.93722428053526 224.3836564415987"/>
<polyline points="85.35711295038757 220.76506513649457 81.93722428053526 224.3836564415987"/>
<polyline points="98.49957015348161 191.47526311575197 95.34108357445164 198.71991187026444"/>
<polyline points="95.34108357445164 198.71991187026444 87.89326073464893 205.30388221037245"/>
<polyline points="95.34108357445164 198.71991187026444 87.89326073464893 205.30388221037245"/>
<polyline points="87.89326073464893 205.30388221037245 86.71033275868263 215.16597795133822"/>
<polyline points="118.36111113690083 181.17413979625383 115.20262455787086 188.41878855076635 97.45223771032119 197.6270389436074 88.14556181594936 198.35528377715536 78.56082714793718 200.920487791709 52.54272444197534 197.88374398811544"/>
<polyline points="52.54272444197534 197.88374398811544 43.41951491809223 194.12576326147683 23.549965805241715 195.47832794212343 14.426756281358612 191.72034721548474 4.88198447385521 190.6433932871725 -15.459390762161732 181.45736022884503"/>
<polyline points="-15.459390762161732 181.45736022884503 -22.300216004875665 174.22806591357136"/>
<polyline points="-15.459390762161732 181.45736022884503 -22.300216004875665 174.22806591357136"/>
<polyline points="-15.459390762161732 181.45736022884503 -24.578169409441745 177.9235375222296"/>
<polyline points="-24.578169409441745 177.9235375222296 -34.025136922397124 179.32554394889266"/>
<polyline points="4.88198447385521 190.6433932871725 -4.236794173424794 187.10957058055706 -18.174941918214827 194.8416956189452 -22.526332673423955 195.35399598304787 -27.483712006240825 200.57961894431475 -28.995327945229 223.91153021106766"/>
<polyline points="-28.995327945229 223.91153021106766 -28.680131746320754 225.64496458843615 -35.48235205154611 235.3635360759898 -35.167155852637876 237.09697045335832 -36.38219749882209 243.30719434528888 -29.1951213651075 268.6504761124619"/>
<polyline points="-29.1951213651075 268.6504761124619 -22.055775091747904 263.777633354539"/>
<polyline points="-29.1951213651075 268.6504761124619 -24.360773893669204 271.4619654364572"/>
<polyline points="-35.48235205154611 235.3635360759898 -41.81547060637357 235.9701278343396"/>
<polyline points="-27.483712006240825 200.57961894431475 -30.77508783035643 204.62917972856553"/>
<polyline points="4.88198447385521 190.6433932871725 -4.236794173424794 187.10957058055706"/>
<polyline points="23.549965805241715 195.47832794212343 14.71115984240447 198.51722639685556"/>
<polyline points="78.56082714793718 200.920487791709 68.56569588080175 201.22891168989386"/>
<polyline points="115.20262455787086 188.41878855076635 109.15404333135545 195.4192384703045"/>
<polyline points="123.0780959123939 164.921443585923 122.28164671413265 174.72383990869005"/>
<polyline points="122.28164671413265 174.72383990869005 113.85979596926647 174.95729322720362"/>
<polyline points="131.20722641719428 147.13679943306425 130.41077721893294 156.93919575583132"/>
<polyline points="129.13569309084372 138.21431003168664 131.20722641719428 147.13679943306425"/>
<polyline points="130.73494964185102 97.66287468191764 128.5901991898642 105.91532066247382"/>
<polyline points="128.5901991898642 105.91532066247382 121.30107142292076 112.64392125841717"/>
<polyline points="128.5901991898642 105.91532066247382 121.30107142292076 112.64392125841717"/>
<polyline points="121.30107142292076 112.64392125841717 113.0622052740809 115.75430274992135"/>
<polyline points="130.25530540598555 67.79239967606192 128.11055495399876 76.04484565661805 117.36863458713144 91.95399339527111 116.90415259863117 101.15651776273545 111.94489701766337 108.13482321156381 98.62648218820311 117.14355715895918"/>
<polyline points="98.62648218820311 117.14355715895918 100.23852922637379 123.65688545546688 93.33657972574291 137.39231296922907 94.9486267639136 143.9056412657367 91.68431111842665 148.81393292524672 80.75907980828549 148.5005315488904"/>
<polyline points="80.75907980828549 148.5005315488904 83.79911488846459 150.7094491079453"/>
<polyline points="80.75907980828549 148.5005315488904 83.79911488846459 150.7094491079453"/>
<polyline points="80.75907980828549 148.5005315488904 79.83723639449482 152.78821201397255"/>
<polyline points="79.83723639449482 152.78821201397255 78.44991408697425 161.91256344074776"/>
<polyline points="91.68431111842665 148.81393292524672 90.762467704636 153.10161339032888 74.06721221250294 158.12140214437483 66.91636873266593 155.90071969518027 57.48146561082325 156.80241026616605 28.046175727786334 153.3244213401659"/>
<polyline points="28.046175727786334 153.3244213401659 20.569391208920223 147.5474932485526 1.555624051552614 145.49142716906488 -5.921160467313484 139.7144990774516 -15.698732079446176 137.69114100176415 -41.695372072481035 131.2251532054574"/>
<polyline points="-41.695372072481035 131.2251532054574 -43.85864051885567 121.49443422337866"/>
<polyline points="-41.695372072481035 131.2251532054574 -47.89144651134461 123.44080898913947"/>
<polyline points="-15.698732079446176 137.69114100176415 -24.656853728826306 133.24880616114362"/>
<polyline points="-15.698732079446176 137.69114100176415 -24.656853728826306 133.24880616114362"/>
<polyline points="28.046175727786334 153.3244213401659 18.852119987719277 151.67774741264952"/>
<polyline points="18.852119987719277 151.67774741264952 11.274315706932642 158.02858257709272"/>
<polyline points="18.852119987719277 151.67774741264952 11.274315706932642 158.02858257709272"/>
<polyline points="11.274315706932642 158.02858257709272 6.146545417094392 161.91390783464652"/>
<polyline points="57.48146561082325 156.80241026616605 48.28740987075629 155.1557363386497 31.85487899871547 166.35368453965185 23.406393901599593 168.48590477188816 16.57026172931872 175.14602163211035 9.438702881165117 200.06581613778422"/>
<polyline points="9.438702881165117 200.06581613778422 4.494949497798627 202.64935220810634 -8.083238338503802 214.91377292341693 -13.026991721870308 217.49730899373898 -17.119735559591895 224.53616224943156 -14.3727708957445 249.46059079455335"/>
<polyline points="-14.3727708957445 249.46059079455335 -14.602592056041978 252.15110612636255"/>
<polyline points="-14.3727708957445 249.46059079455335 -14.602592056041978 252.15110612636255"/>
<polyline points="-14.3727708957445 249.46059079455335 -17.33134447267359 255.13119171505468"/>
<polyline points="-17.33134447267359 255.13119171505468 -25.863121064638538 258.00301396894514"/>
<polyline points="-17.119735559591895 224.53616224943156 -20.07830913652089 230.20676316993286 -26.25767988836133 249.22762834976362 -24.275949322447854 258.98478352433926 -26.241823410093147 268.48992687599844 -28.47285556862567 290.1347612559663"/>
<polyline points="-28.47285556862567 290.1347612559663 -23.593290359024667 298.4242478883581 -23.86984426677482 317.4483778787575 -18.990279057173826 325.7378645111493 -18.566536101476647 334.1663928184198 -18.66733774298235 348.0789518303958"/>
<polyline points="-18.66733774298235 348.0789518303958 -9.671174581983987 349.8911760402568"/>
<polyline points="-18.66733774298235 348.0789518303958 -12.272173295911085 352.97587583048886"/>
<polyline points="-18.566536101476647 334.1663928184198 -15.713751026178617 341.8070602646946"/>
<polyline points="-28.47285556862567 290.1347612559663 -27.85776086630909 299.79078756017196"/>
<polyline points="-26.25767988836133 249.22762834976362 -29.893307610610968 257.1903260558186"/>
<polyline points="-29.893307610610968 257.1903260558186 -39.55731970259203 256.65979793149006"/>
<polyline points="-20.07830913652089 230.20676316993286 -23.71393685877062 238.1694608759879"/>
<polyline points="-17.119735559591895 224.53616224943156 -20.07830913652089 230.20676316993286"/>
<polyline points="9.438702881165117 200.06581613778422 2.8057541720443595 205.43128156171173"/>
<polyline points="2.8057541720443595 205.43128156171173 -2.722664084729925 213.29902318583777"/>
<polyline points="2.8057541720443595 205.43128156171173 -2.722664084729925 213.29902318583777"/>
<polyline points="-2.722664084729925 213.29902318583777 -12.351827165775244 215.54275022104153"/>
<polyline points="16.57026172931872 175.14602163211035 9.937313020197962 180.51148705603788 3.2379987944617215 199.0120296071273 3.8491957191567256 208.88268174763618 2.589270319121661 218.2323550091861 8.86654811469515 239.82170736051094"/>
<polyline points="8.86654811469515 239.82170736051094 13.860269378828889 248.4789164923416 15.189864151270973 267.47956905751766 20.1835854154047 276.1367781893484 22.497472986413598 284.61853818895383 33.993124046597146 298.70919682779106"/>
<polyline points="33.993124046597146 298.70919682779106 42.06672358028427 304.125229678596"/>
<polyline points="33.993124046597146 298.70919682779106 42.06672358028427 304.125229678596"/>
<polyline points="33.993124046597146 298.70919682779106 38.69548549346624 306.59237085832666"/>
<polyline points="38.69548549346624 306.59237085832666 38.64690342382969 316.55707720152384"/>
<polyline points="22.497472986413598 284.61853818895383 27.19983443328266 292.50171221948926 21.213759489195454 304.43271345107917 21.13201726903192 306.77291764022897 16.50201402115358 310.786240169517 -6.751041511874962 311.3894870787793"/>
<polyline points="-6.751041511874962 311.3894870787793 -8.693068091685452 309.20064528067576 -17.692049295623054 313.6373095172818 -19.63407587543361 311.4484677191784 -25.763435085907854 311.80435411233674 -52.110106225233565 305.2296223434673"/>
<polyline points="-52.110106225233565 305.2296223434673 -52.357356525387495 296.758437501242"/>
<polyline points="-52.110106225233565 305.2296223434673 -55.706079943231394 299.15364156189736"/>
<polyline points="-25.763435085907854 311.80435411233674 -31.149996696732053 309.69498507793566"/>
<polyline points="-25.763435085907854 311.80435411233674 -31.149996696732053 309.69498507793566"/>
<polyline points="-6.751041511874962 311.3894870787793 -10.47227476544194 313.2876300806395"/>
<polyline points="-10.47227476544194 313.2876300806395 -15.97226056587161 320.98276276710925"/>
<polyline points="-10.47227476544194 313.2876300806395 -15.97226056587161 320.98276276710925"/>
<polyline points="-15.97226056587161 320.98276276710925 -15.06844435821881 328.741620721695"/>
<polyline points="16.50201402115358 310.786240169517 12.780780767586638 312.68438317137714 -2.3537436543249464 324.74909462002483 -12.06319820897198 326.10071149895134 -20.16854042283174 331.95762103985174 -40.19888700902016 348.5811653344966"/>
<polyline points="-40.19888700902016 348.5811653344966 -49.8478228124067 348.1634133683228 -67.54799495956813 357.16495630380535 -77.19693076295458 356.7472043376315 -85.37245036101609 361.16921382194505 -99.38062838133703 375.28940967638493"/>
<polyline points="-99.38062838133703 375.28940967638493 -106.6395383229414 373.47177082337316"/>
<polyline points="-99.38062838133703 375.28940967638493 -106.6395383229414 373.47177082337316"/>
<polyline points="-99.38062838133703 375.28940967638493 -107.78971775617376 377.4661028569867"/>
<polyline points="-107.78971775617376 377.4661028569867 -117.31803839803175 379.7251939400417"/>
<polyline points="-85.37245036101609 361.16921382194505 -93.78153973585272 363.34590700254694 -101.59212653163695 381.2987272602812 -102.66163618508908 389.06982393524794 -104.1778867755496 398.84708535999135 -95.65804414375947 427.33350992659024"/>
<polyline points="-95.65804414375947 427.33350992659024 -91.90079833968137 434.8650068105391 -91.43474161434818 454.31901161818456 -87.67749581027009 461.8505085021335 -85.28295813106295 471.51902678821085 -69.75728139699389 495.4070793231423"/>
<polyline points="-69.75728139699389 495.4070793231423 -65.521707263417 490.10598152951957"/>
<polyline points="-69.75728139699389 495.4070793231423 -62.1114501817666 501.06855703060927"/>
<polyline points="-104.1778867755496 398.84708535999135 -103.82196374887033 408.31096460809465"/>
<polyline points="-85.37245036101609 361.16921382194505 -93.78153973585272 363.34590700254694"/>
<polyline points="12.780780767586638 312.68438317137714 7.07805448948975 316.956727783642"/>
<polyline points="21.213759489195454 304.43271345107917 22.678658180945035 312.447939903182"/>
<polyline points="8.86654811469515 239.82170736051094 9.920045371559937 249.51773815294834"/>
<polyline points="9.937313020197962 180.51148705603788 3.896328099094006 188.13554308293223"/>
<polyline points="48.28740987075629 155.1557363386497 38.652712650309475 156.87684746350567"/>
<polyline points="74.06721221250294 158.12140214437483 69.58988638360512 162.32360672066636"/>
<polyline points="93.33657972574291 137.39231296922907 91.27339242898778 146.92999647951146"/>
<polyline points="111.94489701766337 108.13482321156381 109.30467203470339 115.47284366598359"/>
<polyline points="130.25530540598555 67.79239967606192 128.11055495399876 76.04484565661805"/>
<polyline points="137.32838493408224 53.73270408457486 128.8084326260779 56.14116271270069"/>
<polyline points="158.20115877442223 41.185443152920925 149.60410133916722 39.88504975471239"/>
<polyline points="195.75761042741314 40.3650201525839 186.400713601152 41.408410661812766"/>
<polyline points="217.3281513248527 36.89773125711064 212.53919333259336 44.69030762198308"/>
<polyline points="212.53919333259336 44.69030762198308 206.66927948083335 47.439374312574934"/>
<polyline points="233.58332605016057 29.19668472690839 228.79436805790118 36.98926109178088"/>
<polyline points="234.97200860350776 19.9643514888166 233.58332605016057 29.19668472690839"/>
<polyline points="248.62017063421484 -25.944552298461186 244.28212049238508 -16.93865798881307"/>
<polyline points="244.28212049238508 -16.93865798881307 234.646498337482 -14.440115576395506"/>
<polyline points="244.28212049238508 -16.93865798881307 234.646498337482 -14.440115576395506"/>
<polyline points="234.646498337482 -14.440115576395506 227.42340657116776 -10.19242296555939"/>
<polyline points="261.4582228653936 -48.13479996626429 257.12017272356394 -39.12890565661616 239.16719628244152 -34.1176537220622 233.48887324546524 -30.793059671089175 224.71545649564484 -30.587770777827117 202.78137900431707 -44.86609183479289"/>
<polyline points="202.78137900431707 -44.86609183479289 199.21830252060317 -45.58309797850754 183.70349011392665 -46.63201311207966 180.14041363021283 -47.349019255794296 173.02773991467635 -50.379502514715135 156.80695758919023 -72.45841894253157"/>
<polyline points="156.80695758919023 -72.45841894253157 155.99077326681893 -77.19463616431688"/>
<polyline points="156.80695758919023 -72.45841894253157 155.99077326681893 -77.19463616431688"/>
<polyline points="156.80695758919023 -72.45841894253157 151.73637713565708 -76.20244546478338"/>
<polyline points="151.73637713565708 -76.20244546478338 145.322062561153 -73.04715286382597"/>
<polyline points="173.02773991467635 -50.379502514715135 167.95715946114322 -54.123529036966914 148.97856595796927 -60.39650345715828 142.27107188323686 -67.78493664292583 133.04750133613146 -70.9366859007176 110.9213463122736 -74.4763499101111"/>
<polyline points="110.9213463122736 -74.4763499101111 106.45168908268369 -81.88982105673672 89.81797309070785 -90.43733384558394 85.348315861118 -97.8508049922096 77.87126119388226 -101.12250023576061 62.311033716462994 -99.73747845887304"/>
<polyline points="62.311033716462994 -99.73747845887304 65.22362413854586 -106.05554741522933"/>
<polyline points="62.311033716462994 -99.73747845887304 60.95321965966604 -105.21384720106664"/>
<polyline points="77.87126119388226 -101.12250023576061 72.32409762317043 -105.59542987332928"/>
<polyline points="77.87126119388226 -101.12250023576061 72.32409762317043 -105.59542987332928"/>
<polyline points="110.9213463122736 -74.4763499101111 102.99378202210416 -79.5852480891605"/>
<polyline points="102.99378202210416 -79.5852480891605 93.2301206445522 -77.55577024205938"/>
<polyline points="102.99378202210416 -79.5852480891605 93.2301206445522 -77.55577024205938"/>
<polyline points="93.2301206445522 -77.55577024205938 85.12424854185208 -81.25837133738834"/>
<polyline points="133.04750133613146 -70.9366859007176 125.119937045962 -76.04558407976701 106.52076144845013 -69.48757565498904 99.6197592139043 -65.80948030858004 91.4814107675692 -60.218745917210875 77.65583208901528 -33.61058779366815"/>
<polyline points="77.65583208901528 -33.61058779366815 74.37637377533461 -26.63653463876 60.43300368691406 -13.40535800344737 57.15354537323333 -6.4313048485391695 51.88007687075851 1.8755337289263516 46.76614614634769 30.996878679603206"/>
<polyline points="46.76614614634769 30.996878679603206 47.76746851935563 39.73037655913884"/>
<polyline points="46.76614614634769 30.996878679603206 47.76746851935563 39.73037655913884"/>
<polyline points="46.76614614634769 30.996878679603206 43.57102352133605 39.915629106010414"/>
<polyline points="43.57102352133605 39.915629106010414 36.11360472697007 43.68042199286091"/>
<polyline points="51.88007687075851 1.8755337289263516 48.68495424574689 10.794284155333541 34.53521650481082 22.55475472913545 31.896800563382747 30.1115729380555 25.18249121411814 34.47747095827908 7.930725785389652 33.80448709206109"/>
<polyline points="7.930725785389652 33.80448709206109 7.497848763013273 38.170227429829595 -3.186201446097517 46.4977232644475 -3.619078468473902 50.86346360221601 -8.560514082750084 52.73490422219854 -21.907996962587703 42.897568056213046"/>
<polyline points="-21.907996962587703 42.897568056213046 -16.14653993371805 42.63734405275486"/>
<polyline points="-21.907996962587703 42.897568056213046 -20.286654443217234 42.90421554553524"/>
<polyline points="-8.560514082750084 52.73490422219854 -11.18434564639235 54.145541820815936"/>
<polyline points="7.930725785389652 33.80448709206109 3.3011389256569363 38.58318755554991"/>
<polyline points="34.53521650481082 22.55475472913545 28.970540142621967 30.853823872777028"/>
<polyline points="28.970540142621967 30.853823872777028 20.39306866753477 27.18814381412138"/>
<polyline points="48.68495424574689 10.794284155333541 43.12027788355798 19.093353298975142"/>
<polyline points="51.88007687075851 1.8755337289263516 48.68495424574689 10.794284155333541"/>
<polyline points="77.65583208901528 -33.61058779366815 70.86220838172582 -27.24892593414439"/>
<polyline points="70.86220838172582 -27.24892593414439 61.808597113444876 -24.781588427524706"/>
<polyline points="70.86220838172582 -27.24892593414439 61.808597113444876 -24.781588427524706"/>
<polyline points="61.808597113444876 -24.781588427524706 52.224591427879396 -25.83739688849145"/>
<polyline points="91.4814107675692 -60.218745917210875 84.68778706027966 -53.85708405768703 69.46561358324296 -45.009668443697706 65.7532873674546 -37.19123907908085 59.4776280079927 -33.47878527755925 49.65894674530398 -32.305171267836926"/>
<polyline points="49.65894674530398 -32.305171267836926 49.760743708508485 -25.94452234562456 40.46451742487705 -17.337966131927736 40.56631438808158 -10.977317209715336 37.35354374850301 -8.345126156500763 34.436522263303345 -14.309035152592982"/>
<polyline points="34.436522263303345 -14.309035152592982 38.149873983718074 -11.103997450181248"/>
<polyline points="34.436522263303345 -14.309035152592982 38.149873983718074 -11.103997450181248"/>
<polyline points="34.436522263303345 -14.309035152592982 33.72902503484687 -11.135844149200397"/>
<polyline points="33.72902503484687 -11.135844149200397 29.249999285305588 -3.8211089271777534"/>
<polyline points="37.35354374850301 -8.345126156500763 36.646046520046504 -5.171935153108136 22.214679436503395 -8.81207251592476 18.57747521992948 -14.270120756675468 10.77048008742277 -17.988201780721646 -14.02897101902132 -34.85550567140737"/>
<polyline points="-14.02897101902132 -34.85550567140737 -17.086987412062868 -43.53814978443092 -31.18499402312487 -54.43416871488845 -34.2430104161664 -63.11681282791197 -41.610194827357965 -69.52466599951725 -64.10219863116238 -87.23412968308321"/>
<polyline points="-64.10219863116238 -87.23412968308321 -61.70917898041205 -96.81698467628314"/>
<polyline points="-64.10219863116238 -87.23412968308321 -66.11491441996296 -97.0003218954769"/>
<polyline points="-41.610194827357965 -69.52466599951725 -47.264697310672275 -77.67007649612498"/>
<polyline points="-41.610194827357965 -69.52466599951725 -47.264697310672275 -77.67007649612498"/>
<polyline points="-14.02897101902132 -34.85550567140737 -20.38017201991278 -40.713505466428614"/>
<polyline points="-20.38017201991278 -40.713505466428614 -29.456643877657385 -38.719852877694194"/>
<polyline points="-20.38017201991278 -40.713505466428614 -29.456643877657385 -38.719852877694194"/>
<polyline points="-29.456643877657385 -38.719852877694194 -33.902720365419576 -37.86064377671388"/>
<polyline points="10.77048008742277 -17.988201780721646 4.419279086531308 -23.846201575742896 -15.313077930598112 -21.689075370099943 -24.66999283472587 -23.70278616681268 -34.26687693735922 -21.00112731272625 -55.19262015059979 -2.112838563025537"/>
<polyline points="-55.19262015059979 -2.112838563025537 -62.50924787036722 -2.0102853162017444 -81.09494779298852 3.047025791566576 -88.41157551275596 3.1495790383903484 -96.46038719289335 7.533360432264524 -109.19626266715774 31.113192269005598"/>
<polyline points="-109.19626266715774 31.113192269005598 -112.80638082500455 33.559762963595716"/>
<polyline points="-109.19626266715774 31.113192269005598 -112.80638082500455 33.559762963595716"/>
<polyline points="-109.19626266715774 31.113192269005598 -116.07245816295392 34.861954966399686"/>
<polyline points="-116.07245816295392 34.861954966399686 -125.71278858059324 33.450345605362564"/>
<polyline points="-96.46038719289335 7.533360432264524 -103.3365826886895 11.282123129658615 -117.29114186757066 25.1294712120834 -120.24496583464712 34.68290469762845 -125.72334181328178 42.087799545596056 -132.82096516412417 59.720560489613575"/>
<polyline points="-132.82096516412417 59.720560489613575 -131.77931997727848 69.27786781176123 -139.28934713484125 85.79888156806958 -138.24770194799555 95.35618889021724 -140.50698494893646 102.88332688679193 -140.90129448806346 114.59271506543"/>
<polyline points="-140.90129448806346 114.59271506543 -131.8696387815117 118.5899025077074"/>
<polyline points="-140.90129448806346 114.59271506543 -136.284096600436 121.81397710059545"/>
<polyline points="-139.28934713484125 85.79888156806958 -144.28487797849223 94.42381287106134"/>
<polyline points="-125.72334181328178 42.087799545596056 -129.02183432458264 50.841295470596265"/>
<polyline points="-96.46038719289335 7.533360432264524 -103.3365826886895 11.282123129658615"/>
<polyline points="-81.09494779298852 3.047025791566576 -90.83868622392328 0.8729004088152811"/>
<polyline points="-34.26687693735922 -21.00112731272625 -43.60546314391708 -19.302249181823008"/>
<polyline points="4.419279086531308 -23.846201575742896 -4.191316048125582 -26.91461336061913"/>
<polyline points="22.214679436503395 -8.81207251592476 18.23775776723745 -7.371132114044582"/>
<polyline points="18.23775776723745 -7.371132114044582 11.121654850177851 -0.6726049520758092"/>
<polyline points="36.646046520046504 -5.171935153108136 32.66912485078055 -3.73099475122798"/>
<polyline points="37.35354374850301 -8.345126156500763 36.646046520046504 -5.171935153108136"/>
<polyline points="49.65894674530398 -32.305171267836926 45.462956429708896 -27.202139277654716"/>
<polyline points="45.462956429708896 -27.202139277654716 36.15503455953035 -27.555862924254857"/>
<polyline points="45.462956429708896 -27.202139277654716 36.15503455953035 -27.555862924254857"/>
<polyline points="36.15503455953035 -27.555862924254857 28.092728276835697 -21.66647683739572"/>
<polyline points="59.4776280079927 -33.47878527755925 55.281637692397595 -28.37575328737702 38.9076716229312 -32.882944755940194 34.65955208791402 -37.07800488957013 26.8726436816826 -41.6784417637704 7.836944204220861 -64.83536066353993"/>
<polyline points="7.836944204220861 -64.83536066353993 5.975194799487299 -72.72194063137266 -7.074253901405305 -84.83634878803504 -8.93600330613883 -92.72292875586774 -14.823674847512882 -100.37138838717846 -28.689461554782355 -126.04705881248982"/>
<polyline points="-28.689461554782355 -126.04705881248982 -27.95553098505186 -135.78743999228024"/>
<polyline points="-28.689461554782355 -126.04705881248982 -27.95553098505186 -135.78743999228024"/>
<polyline points="-28.689461554782355 -126.04705881248982 -32.31795965786819 -134.95144604507925"/>
<polyline points="-32.31795965786819 -134.95144604507925 -37.385943373265185 -138.9536012529286"/>
<polyline points="-14.823674847512882 -100.37138838717846 -18.452172950598758 -109.2757756197679 -37.02896662974451 -116.38652217316239 -43.766108356642924 -121.6134948613178 -53.24820051560066 -123.22377532368026 -78.56250029891459 -113.5820309500117"/>
<polyline points="-78.56250029891459 -113.5820309500117 -83.86763187404262 -115.27985093923748 -101.51662370349527 -117.77166453756482 -106.8217552786233 -119.46948452679062 -115.2118135527439 -118.2843148934215 -135.05135669083305 -100.33524974393396"/>
<polyline points="-135.05135669083305 -100.33524974393396 -133.4724206902273 -98.71899417186327"/>
<polyline points="-135.05135669083305 -100.33524974393396 -137.86289230030087 -97.93333422897405"/>
<polyline points="-115.2118135527439 -118.2843148934215 -121.92455052448801 -116.70570982617126"/>
<polyline points="-115.2118135527439 -118.2843148934215 -121.92455052448801 -116.70570982617126"/>
<polyline points="-78.56250029891459 -113.5820309500117 -86.96725804363933 -115.48598543310389"/>
<polyline points="-86.96725804363933 -115.48598543310389 -96.43999226251873 -116.00483581826948"/>
<polyline points="-86.96725804363933 -115.48598543310389 -96.43999226251873 -116.00483581826948"/>
<polyline points="-96.43999226251873 -116.00483581826948 -103.6262810793488 -122.87707869949222"/>
<polyline points="-53.24820051560066 -123.22377532368026 -61.65295826032534 -125.1277298067725 -80.52876327329803 -120.82216824214478 -88.4127351267105 -114.68395413959774 -96.68735269952694 -110.92676930735023 -110.05665838906619 -96.07011559072279"/>
<polyline points="-110.05665838906619 -96.07011559072279 -114.39161644265803 -87.19714234370264 -129.05496786127424 -76.27971816267605 -133.38992591486613 -67.4067449156559 -138.87267485261142 -61.34791931960745 -142.92648702141068 -46.79563955114598"/>
<polyline points="-142.92648702141068 -46.79563955114598 -142.75932785802735 -37.405585965323404"/>
<polyline points="-142.92648702141068 -46.79563955114598 -142.75932785802735 -37.405585965323404"/>
<polyline points="-142.92648702141068 -46.79563955114598 -146.61227436899537 -39.00674321991162"/>
<polyline points="-146.61227436899537 -39.00674321991162 -154.91349441242426 -33.43441743730861"/>
<polyline points="-138.87267485261142 -61.34791931960745 -142.55846220019615 -53.55902298837309 -155.06597924935366 -53.59639032942199 -156.58178408222935 -53.480985228307105 -162.11930990378755 -55.98290558423954 -174.76321453500873 -76.9982651937164"/>
<polyline points="-174.76321453500873 -76.9982651937164 -173.58818726304813 -80.90638465846959 -181.4789608864315 -87.85348928810483 -180.3039336144708 -91.76160875285795 -183.6611443483405 -97.5239802799715 -192.40532921549448 -124.35613552981097"/>
<polyline points="-192.40532921549448 -124.35613552981097 -185.29097817869973 -129.85730647862448"/>
<polyline points="-192.40532921549448 -124.35613552981097 -189.06481526202128 -131.4965863063133"/>
<polyline points="-183.6611443483405 -97.5239802799715 -184.55185587536377 -104.06857814665655"/>
<polyline points="-174.76321453500873 -76.9982651937164 -177.98652353654526 -80.05689812978501"/>
<polyline points="-155.06597924935366 -53.59639032942199 -160.59041259607895 -48.61431137057619"/>
<polyline points="-160.59041259607895 -48.61431137057619 -169.68022127566655 -49.45326406673408"/>
<polyline points="-142.55846220019615 -53.55902298837309 -148.0828955469214 -48.576944029527226"/>
<polyline points="-138.87267485261142 -61.34791931960745 -142.55846220019615 -53.55902298837309"/>
<polyline points="-110.05665838906619 -96.07011559072279 -117.37205924273621 -90.08612188647506"/>
<polyline points="-117.37205924273621 -90.08612188647506 -125.66502137717646 -92.24852177190893"/>
<polyline points="-117.37205924273621 -90.08612188647506 -125.66502137717646 -92.24852177190893"/>
<polyline points="-125.66502137717646 -92.24852177190893 -135.56981552665198 -92.22647537669417"/>
<polyline points="-96.68735269952694 -110.92676930735023 -104.00275355319707 -104.94277560310236 -117.28282488780168 -108.25196888128713 -120.02910592821584 -107.37276302837856 -124.985471737355 -110.88138298619585 -129.63827657425992 -132.53487769043988"/>
<polyline points="-129.63827657425992 -132.53487769043988 -128.15606676764983 -134.12217602428214 -134.54538475404433 -141.27195212338373 -133.06317494743422 -142.859250457226 -134.60956304915905 -148.34894450167403 -132.3245372889662 -174.44688169815717"/>
<polyline points="-132.3245372889662 -174.44688169815717 -127.11995972547498 -178.36231050998043"/>
<polyline points="-132.3245372889662 -174.44688169815717 -127.11995972547498 -178.36231050998043"/>
<polyline points="-132.3245372889662 -174.44688169815717 -131.3399529769142 -179.52086919798023"/>
<polyline points="-131.3399529769142 -179.52086919798023 -134.81888190013558 -179.17046695163003"/>
<polyline points="-134.60956304915905 -148.34894450167403 -133.62497873710709 -153.42293200149706 -145.47696536816937 -167.6697385550613 -147.7374765066454 -177.34368609913682 -154.5438031434966 -184.54861026369556 -178.87700456260882 -199.35625608047297"/>
<polyline points="-178.87700456260882 -199.35625608047297 -181.22044346430326 -208.34310918285095 -193.5206082907272 -224.0951837954165 -195.86404719242157 -233.08203689779447 -202.75122894246647 -239.85009406116114 -226.52458319870348 -247.6949188525869"/>
<polyline points="-226.52458319870348 -247.6949188525869 -224.4724234413842 -252.47066395493792"/>
<polyline points="-226.52458319870348 -247.6949188525869 -228.6664667789565 -253.77464617741813"/>
<polyline points="-202.75122894246647 -239.85009406116114 -208.1103318222014 -246.8821909563962"/>
<polyline points="-202.75122894246647 -239.85009406116114 -208.1103318222014 -246.8821909563962"/>
<polyline points="-178.87700456260882 -199.35625608047297 -184.25437131151207 -207.77502061266003"/>
<polyline points="-184.25437131151207 -207.77502061266003 -192.52915321870205 -210.42692626648582"/>
<polyline points="-184.25437131151207 -207.77502061266003 -192.52915321870205 -210.42692626648582"/>
<polyline points="-192.52915321870205 -210.42692626648582 -195.3263312258547 -217.10248494090678"/>
<polyline points="-154.5438031434966 -184.54861026369556 -159.9211698923999 -192.96737479588276 -178.90412261635 -195.98955316565588 -188.63145372442008 -196.38007452871398 -198.20659083489332 -195.30574487469792 -220.56442585589292 -178.08228392087125"/>
<polyline points="-220.56442585589292 -178.08228392087125 -228.9705814218736 -173.8988692944004 -248.2013047858588 -169.03621459786928 -256.6074603518395 -164.85279997139847 -265.22437677818016 -160.07066160194506 -280.07744166194635 -136.30104768035204"/>
<polyline points="-280.07744166194635 -136.30104768035204 -285.21492327100543 -128.46930940981784"/>
<polyline points="-280.07744166194635 -136.30104768035204 -285.21492327100543 -128.46930940981784"/>
<polyline points="-280.07744166194635 -136.30104768035204 -287.9342001669055 -130.12437740064647"/>
<polyline points="-287.9342001669055 -130.12437740064647 -297.8247324867718 -130.64028696688607"/>
<polyline points="-265.22437677818016 -160.07066160194506 -273.0811352831393 -153.89399132223954 -286.12686450295786 -149.43784892153946 -289.02200684820355 -143.5282748673993 -293.7050085559694 -142.32003604335537 -296.53763684939906 -149.0532775727636"/>
<polyline points="-296.53763684939906 -149.0532775727636 -294.99908889893953 -144.72722854454133 -300.8583026174685 -141.20024860938344 -299.31975466700897 -136.87419958116124 -300.42902507325454 -136.86921489274812 -295.90126509744675 -149.87168108115492"/>
<polyline points="-295.90126509744675 -149.87168108115492 -287.27759395803474 -144.9007044318451"/>
<polyline points="-295.90126509744675 -149.87168108115492 -290.42582881407577 -148.3879705154893"/>
<polyline points="-296.53763684939906 -149.0532775727636 -299.1346172909621 -146.40951249504496"/>
<polyline points="-273.0811352831393 -153.89399132223954 -281.33385135973236 -149.1504487558454"/>
<polyline points="-198.20659083489332 -195.30574487469792 -207.94970317483256 -193.08311498328982"/>
<polyline points="-178.90412261635 -195.98955316565588 -186.67066238119082 -202.15475813584538"/>
<polyline points="-145.47696536816937 -167.6697385550613 -147.78504779138913 -174.01188216320924"/>
<polyline points="-134.60956304915905 -148.34894450167403 -133.62497873710709 -153.42293200149706"/>
<polyline points="-124.985471737355 -110.88138298619585 -127.77376638710682 -113.70192261921117"/>
<polyline points="-117.28282488780168 -108.25196888128713 -125.25868871251849 -105.32947670487663"/>
<polyline points="-96.68735269952694 -110.92676930735023 -104.00275355319707 -104.94277560310236"/>
<polyline points="-61.65295826032534 -125.1277298067725 -71.45359513730114 -125.62463339295277"/>
<polyline points="-37.02896662974451 -116.38652217316239 -43.760104360765354 -123.6160152145329"/>
<polyline points="-43.760104360765354 -123.6160152145329 -48.76067722709096 -119.87132670522881"/>
<polyline points="-18.452172950598758 -109.2757756197679 -25.18331068161965 -116.50526866113836"/>
<polyline points="-14.823674847512882 -100.37138838717846 -18.452172950598758 -109.2757756197679"/>
<polyline points="7.836944204220861 -64.83536066353993 1.9128927794120634 -70.91501982218556"/>
<polyline points="1.9128927794120634 -70.91501982218556 -8.04691427609756 -71.06138108021628"/>
<polyline points="1.9128927794120634 -70.91501982218556 -8.04691427609756 -71.06138108021628"/>
<polyline points="-8.04691427609756 -71.06138108021628 -14.979124098118954 -69.40726529875568"/>
<polyline points="26.8726436816826 -41.6784417637704 20.948592256873813 -47.75810092241599 1.4610575535164936 -51.5002861998283 -5.853193452654074 -57.08800212785476 -15.157143988047576 -57.90886664432114 -36.091660607037795 -50.066457321632114"/>
<polyline points="-36.091660607037795 -50.066457321632114 -40.88557066070394 -54.08106271577484 -57.72374084816296 -56.83163270853985 -62.51765090182915 -60.8462381026826 -69.8542274577527 -60.46870008648271 -83.41276474303065 -46.550719763252054"/>
<polyline points="-83.41276474303065 -46.550719763252054 -84.70942199478795 -47.80181530667677"/>
<polyline points="-83.41276474303065 -46.550719763252054 -84.70942199478795 -47.80181530667677"/>
<polyline points="-83.41276474303065 -46.550719763252054 -88.86080837327785 -46.94721122415584"/>
<polyline points="-88.86080837327785 -46.94721122415584 -96.77248097633036 -51.91095395153811"/>
<polyline points="-69.8542274577527 -60.46870008648271 -75.30227108799997 -60.865191547386495 -92.64930970412998 -51.7815460352712 -97.67865760062415 -44.04650296830333 -105.68494235101834 -38.05489226804943 -123.33380228550752 -18.28187347049048"/>
<polyline points="-123.33380228550752 -18.28187347049048 -125.49984311446734 -8.528850601224475 -138.9227111230793 6.280673667387439 -141.08875195203908 16.0336965366535 -146.8191137290955 23.761513551158473 -158.12079634873672 41.4270272889672"/>
<polyline points="-158.12079634873672 41.4270272889672 -152.98722894884983 49.804497184061766"/>
<polyline points="-158.12079634873672 41.4270272889672 -157.11557071211396 50.818740606591255"/>
<polyline points="-146.8191137290955 23.761513551158473 -150.25914453737187 32.672127993101135"/>
<polyline points="-146.8191137290955 23.761513551158473 -150.25914453737187 32.672127993101135"/>
<polyline points="-123.33380228550752 -18.28187347049048 -129.54726444079697 -10.453481438515414"/>
<polyline points="-129.54726444079697 -10.453481438515414 -139.5105848919182 -10.08160235796911"/>
<polyline points="-129.54726444079697 -10.453481438515414 -139.5105848919182 -10.08160235796911"/>
<polyline points="-139.5105848919182 -10.08160235796911 -147.40026744156117 -7.88787183850775"/>
<polyline points="-105.68494235101834 -38.05489226804943 -111.89840450630786 -30.22650023607425 -130.62916088030758 -28.83570552050295 -137.02067172298896 -26.366269029983577 -145.70190422317864 -27.790129461651482 -164.2013574996222 -45.57520577390568"/>
<polyline points="-164.2013574996222 -45.57520577390568 -167.6711902296164 -46.45925151500651 -182.7796830309522 -50.08823940806594 -186.24951576094648 -50.9722851491666 -192.6254837634572 -55.08061556522377 -203.7993636059342 -79.35725851348893"/>
<polyline points="-203.7993636059342 -79.35725851348893 -203.6983235881389 -83.58374136430619"/>
<polyline points="-203.7993636059342 -79.35725851348893 -203.6983235881389 -83.58374136430619"/>
<polyline points="-203.7993636059342 -79.35725851348893 -208.04980512465903 -83.61925674589357"/>
<polyline points="-208.04980512465903 -83.61925674589357 -215.1133302117257 -81.51115279230835"/>
<polyline points="-192.6254837634572 -55.08061556522377 -196.87592528218204 -59.34261379762835 -214.0225481264456 -69.58307942488749 -218.9326400029553 -78.29297555296358 -227.2014954358021 -83.53489954960995 -247.68287313933342 -93.13265193492805"/>
<polyline points="-247.68287313933342 -93.13265193492805 -250.33362173588685 -101.65409573237791 -264.56704203168675 -114.09120989876993 -267.2177906282401 -122.6126536962198 -273.69897152758574 -127.81441726035048 -288.7646532552157 -131.5369408724704"/>
<polyline points="-288.7646532552157 -131.5369408724704 -284.41938661087653 -137.50669486155775"/>
<polyline points="-288.7646532552157 -131.5369408724704 -288.7523487274147 -137.6965240165716"/>
<polyline points="-273.69897152758574 -127.81441726035048 -278.01372674294714 -133.83998095192996"/>
<polyline points="-247.68287313933342 -93.13265193492805 -254.2400548242026 -100.06424767659439"/>
<polyline points="-214.0225481264456 -69.58307942488749 -220.89834450429777 -74.42312493163735"/>
<polyline points="-220.89834450429777 -74.42312493163735 -227.96613980848937 -67.39122573580953"/>
<polyline points="-196.87592528218204 -59.34261379762835 -203.75172166003418 -64.1826593043782"/>
<polyline points="-192.6254837634572 -55.08061556522377 -196.87592528218204 -59.34261379762835"/>
<polyline points="-164.2013574996222 -45.57520577390568 -171.39432107825328 -46.71388991910311"/>
<polyline points="-171.39432107825328 -46.71388991910311 -181.17899434891234 -48.437625473625054"/>
<polyline points="-171.39432107825328 -46.71388991910311 -181.17899434891234 -48.437625473625054"/>
<polyline points="-181.17899434891234 -48.437625473625054 -189.85839838286583 -43.738089091426836"/>
<polyline points="-145.70190422317864 -27.790129461651482 -152.89486780180977 -28.928813606848873 -170.80027724588737 -37.612755718811066 -176.64480167652047 -45.688638795006 -184.50195457877726 -51.03053442291429 -198.7165408312594 -66.08050892793004"/>
<polyline points="-198.7165408312594 -66.08050892793004 -201.0187918114571 -75.53580444766169 -214.07853581183318 -88.97178140741892 -216.38078679203093 -98.42707692715054 -221.4227380426553 -104.99320127996408 -227.7649865455675 -116.73952499243629"/>
<polyline points="-227.7649865455675 -116.73952499243629 -226.13605887209386 -125.2128173914803"/>
<polyline points="-227.7649865455675 -116.73952499243629 -226.13605887209386 -125.2128173914803"/>
<polyline points="-227.7649865455675 -116.73952499243629 -230.53475665966306 -124.5449608121597"/>
<polyline points="-230.53475665966306 -124.5449608121597 -237.05010316546563 -132.1211549170563"/>
<polyline points="-221.4227380426553 -104.99320127996408 -224.19250815675085 -112.79863709968744 -239.62199592790674 -114.26257961245659 -243.32745888429187 -113.55498431383457 -251.00110843269096 -111.70541484022333 -272.0264119184176 -93.00572818886332"/>
<polyline points="-272.0264119184176 -93.00572818886332 -273.99554669159704 -87.8155517375483 -287.07783405477164 -81.24462974810534 -289.0469688279511 -76.05445329679034 -295.34193257829287 -70.55739781230574 -312.4461442259391 -46.12593221184898"/>
<polyline points="-312.4461442259391 -46.12593221184898 -308.0975873795163 -38.373573460544485"/>
<polyline points="-312.4461442259391 -46.12593221184898 -312.46374797320334 -37.630011585340995"/>
<polyline points="-295.34193257829287 -70.55739781230574 -299.51655000138555 -63.62724086481823"/>
<polyline points="-295.34193257829287 -70.55739781230574 -299.51655000138555 -63.62724086481823"/>
<polyline points="-272.0264119184176 -93.00572818886332 -277.8924174545323 -89.86000972261384"/>
<polyline points="-277.8924174545323 -89.86000972261384 -287.6487601242375 -91.34993241789688"/>
<polyline points="-277.8924174545323 -89.86000972261384 -287.6487601242375 -91.34993241789688"/>
<polyline points="-287.6487601242375 -91.34993241789688 -293.52871485816155 -96.13687220663108"/>
<polyline points="-251.00110843269096 -111.70541484022333 -256.86711396880554 -108.55969637397382 -276.7907201742385 -106.85286951817515 -285.0331231844834 -101.32347524801376 -294.7197890898131 -100.62673121188494 -316.9024049738157 -104.17105690601767"/>
<polyline points="-316.9024049738157 -104.17105690601767 -322.94037477630184 -98.49043273941578 -341.0539605479059 -94.73890358733227 -347.0919303503921 -89.05827942073037 -355.08047284051463 -88.15927224997702 -369.6839519054079 -95.45313418108302"/>
<polyline points="-369.6839519054079 -95.45313418108302 -372.21811978493804 -91.21657959312196"/>
<polyline points="-369.6839519054079 -95.45313418108302 -372.21811978493804 -91.21657959312196"/>
<polyline points="-369.6839519054079 -95.45313418108302 -376.06686121088865 -93.05305990279939"/>
<polyline points="-376.06686121088865 -93.05305990279939 -384.79792835119633 -88.29758080553066"/>
<polyline points="-355.08047284051463 -88.15927224997702 -361.4633821459953 -85.75919797169347 -378.15082711153616 -95.23349734394789 -382.77784310926484 -101.8660712143801 -390.0819029459702 -108.54009101600569 -403.90871228328325 -134.0174694481606"/>
<polyline points="-403.90871228328325 -134.0174694481606 -405.10943764293773 -143.28049045138857 -416.7908740203219 -159.15517326186972 -417.99159937997626 -168.41819426509784 -422.55838817917186 -177.307881630416 -429.4797859102642 -202.4019781460138"/>
<polyline points="-429.4797859102642 -202.4019781460138 -421.2164231799637 -206.78366898118486"/>
<polyline points="-429.4797859102642 -202.4019781460138 -427.15783647712374 -212.1266445274789"/>
<polyline points="-416.7908740203219 -159.15517326186972 -423.1105566945662 -164.14710792190513"/>
<polyline points="-390.0819029459702 -108.54009101600569 -395.46600743058235 -116.58066809053042"/>
<polyline points="-355.08047284051463 -88.15927224997702 -361.4633821459953 -85.75919797169347"/>
<polyline points="-341.0539605479059 -94.73890358733227 -350.00822948416027 -90.34534518037056"/>
<polyline points="-294.7197890898131 -100.62673121188494 -303.5948808731769 -97.83162410562771"/>
<polyline points="-256.86711396880554 -108.55969637397382 -265.2879620963348 -106.4528509149989"/>
<polyline points="-239.62199592790674 -114.26257961245659 -245.1780450683582 -119.69923760780907"/>
<polyline points="-245.1780450683582 -119.69923760780907 -252.98934124642793 -121.91812762337659"/>
<polyline points="-224.19250815675085 -112.79863709968744 -229.74855729720224 -118.23529509504002"/>
<polyline points="-221.4227380426553 -104.99320127996408 -224.19250815675085 -112.79863709968744"/>
<polyline points="-198.7165408312594 -66.08050892793004 -204.9200581590571 -73.39316205470881"/>
<polyline points="-204.9200581590571 -73.39316205470881 -214.45587271428312 -72.97615029506194"/>
<polyline points="-204.9200581590571 -73.39316205470881 -214.45587271428312 -72.97615029506194"/>
<polyline points="-214.45587271428312 -72.97615029506194 -223.45775929028804 -75.90202651071668"/>
<polyline points="-184.50195457877726 -51.03053442291429 -190.70547190657499 -58.34318754969308 -207.41593370714202 -57.03002455201753 -212.02339977950362 -57.42841689930174 -219.3940851871195 -54.45872374434197 -233.7380960862079 -32.57616490299005"/>
<polyline points="-233.7380960862079 -32.57616490299005 -235.0035998861332 -29.434009163247982 -246.84630088821538 -22.188457866496954 -248.11180468814072 -19.04630212675485 -252.81326079530695 -13.214142054619447 -260.38838385483126 14.115805423629876"/>
<polyline points="-260.38838385483126 14.115805423629876 -258.2047230376458 20.232022824927313"/>
<polyline points="-260.38838385483126 14.115805423629876 -258.2047230376458 20.232022824927313"/>
<polyline points="-260.38838385483126 14.115805423629876 -262.686396617747 20.29342343255212"/>
<polyline points="-262.686396617747 20.29342343255212 -268.06370727719985 20.17103978753111"/>
<polyline points="-252.81326079530695 -13.214142054619447 -255.11127355822254 -7.0365240456972336 -271.4763837336599 4.211257616880719 -276.2133850407832 12.949848848124962 -284.6772837642866 18.104400731111504 -308.98217377791906 24.325652873350045"/>
<polyline points="-308.98217377791906 24.325652873350045 -312.4995708574065 31.780181713925625 -327.71925291037724 43.30347654768116 -331.23664998986476 50.75800538825674 -338.7546284795736 54.98280372926495 -359.18655212575976 53.83295563152546"/>
<polyline points="-359.18655212575976 53.83295563152546 -356.4167978698987 57.882387374424226"/>
<polyline points="-359.18655212575976 53.83295563152546 -360.8917953924756 58.08019419449551"/>
<polyline points="-338.7546284795736 54.98280372926495 -344.41394528675204 59.62174718073985"/>
<polyline points="-338.7546284795736 54.98280372926495 -344.41394528675204 59.62174718073985"/>
<polyline points="-308.98217377791906 24.325652873350045 -315.97784404931195 30.80818786705076"/>
<polyline points="-315.97784404931195 30.80818786705076 -325.56755333960916 31.671283681937414"/>
<polyline points="-315.97784404931195 30.80818786705076 -325.56755333960916 31.671283681937414"/>
<polyline points="-325.56755333960916 31.671283681937414 -331.4275088637431 38.12421277226508"/>
<polyline points="-284.6772837642866 18.104400731111504 -291.67295403567925 24.58693572481214 -311.5713061577741 22.920338742932138 -320.29368703363485 20.322864420047956 -329.67587091619475 16.991819709419037 -348.9367334655762 -4.319166145157499"/>
<polyline points="-348.9367334655762 -4.319166145157499 -355.03846707109693 -11.055472888581026 -372.5692922032146 -20.675893666630426 -378.67102580873535 -27.412200410053956 -386.02483194029776 -34.13491937936913 -396.755210374937 -59.54853549588402"/>
<polyline points="-396.755210374937 -59.54853549588402 -398.88083435971134 -68.86774930457618"/>
<polyline points="-396.755210374937 -59.54853549588402 -398.88083435971134 -68.86774930457618"/>
<polyline points="-396.755210374937 -59.54853549588402 -402.5788062168788 -67.64605156532653"/>
<polyline points="-402.5788062168788 -67.64605156532653 -411.69606525423796 -70.05606510583026"/>
<polyline points="-386.02483194029776 -34.13491937936913 -391.8484277822395 -42.23243544881154 -406.43663478036274 -48.2668962481127 -409.48947957014803 -53.756161713031574 -415.64941668569514 -55.105319623749196 -426.7350884939522 -45.83186514220377"/>
<polyline points="-426.7350884939522 -45.83186514220377 -426.3114464629329 -48.41944056232594 -435.36055140987173 -51.04737989451449 -434.93690937885253 -53.634955314636535 -438.2989418345957 -52.70314770675703 -443.4001037376775 -35.72971508228852"/>
<polyline points="-443.4001037376775 -35.72971508228852 -436.1690780547982 -35.75340906441932"/>
<polyline points="-443.4001037376775 -35.72971508228852 -439.80541510940077 -34.60336086295898"/>
<polyline points="-438.2989418345957 -52.70314770675703 -439.1325808233396 -51.79925261107062"/>
<polyline points="-426.7350884939522 -45.83186514220377 -430.7078175626127 -47.906639953615624"/>
<polyline points="-406.43663478036274 -48.2668962481127 -413.77581243218157 -54.68136343627617"/>
<polyline points="-413.77581243218157 -54.68136343627617 -421.79014513334823 -49.434742853856555"/>
<polyline points="-391.8484277822395 -42.23243544881154 -399.1876054340581 -48.64690263697514"/>
<polyline points="-386.02483194029776 -34.13491937936913 -391.8484277822395 -42.23243544881154"/>
<polyline points="-348.9367334655762 -4.319166145157499 -357.65946790004404 -9.080160268509047"/>
<polyline points="-357.65946790004404 -9.080160268509047 -366.1140802735929 -8.393240203631038"/>
<polyline points="-357.65946790004404 -9.080160268509047 -366.1140802735929 -8.393240203631038"/>
<polyline points="-366.1140802735929 -8.393240203631038 -375.5063747230902 -5.194914814931889"/>
<polyline points="-329.67587091619475 16.991819709419037 -338.3986053506626 12.230825586067487 -352.9664390520677 9.515724296106606 -357.30580202890417 3.9145549566107194 -362.7155167133283 3.2019108235309792 -366.4002624970715 9.296685850132734"/>
<polyline points="-366.4002624970715 9.296685850132734 -366.20985888657424 4.467739952534482 -373.85012476106067 1.317345046149822 -373.6597211505634 -3.5116008514483448 -375.4367819178981 -3.6771396235199596 -370.67978511759105 7.449894947039312"/>
<polyline points="-370.67978511759105 7.449894947039312 -366.1034819473222 4.786244542244177"/>
<polyline points="-370.67978511759105 7.449894947039312 -366.1034819473222 4.786244542244177"/>
<polyline points="-370.67978511759105 7.449894947039312 -370.1343200128443 6.143733990710517"/>
<polyline points="-370.1343200128443 6.143733990710517 -375.0533157038392 1.251083069141071"/>
<polyline points="-375.4367819178981 -3.6771396235199596 -374.8913168131513 -4.983300579848689 -384.92567637726967 4.548885730254794 -385.50050221310823 11.926108264648471 -390.9720041847948 18.38954094761563 -410.33111636007254 41.28016561693077"/>
<polyline points="-410.33111636007254 41.28016561693077 -410.34793725891336 50.97603787431991 -419.2290298370173 66.61677122212987 -419.2458507358581 76.31264347951895 -424.25646734689275 84.74995943229847 -443.24234220138607 106.26494295942588"/>
<polyline points="-443.24234220138607 106.26494295942588 -439.01506272479395 114.45086064263317"/>
<polyline points="-443.24234220138607 106.26494295942588 -442.9819015747667 115.9583002487817"/>
<polyline points="-424.25646734689275 84.74995943229847 -427.40873563794224 94.22919201929142"/>
<polyline points="-424.25646734689275 84.74995943229847 -427.40873563794224 94.22919201929142"/>
<polyline points="-410.33111636007254 41.28016561693077 -413.90937314332973 49.377278795745966"/>
<polyline points="-413.90937314332973 49.377278795745966 -422.22323949108335 50.55770509581959"/>
<polyline points="-413.90937314332973 49.377278795745966 -422.22323949108335 50.55770509581959"/>
<polyline points="-422.22323949108335 50.55770509581959 -424.78535752284415 52.38225489298455"/>
<polyline points="-390.9720041847948 18.38954094761563 -394.55026096805216 26.48665412643072 -413.270844244111 30.22611294061779 -422.2706489952738 34.2317920090235 -432.17902939963 34.169224272554764 -458.66947658669864 20.334884806700792"/>
<polyline points="-458.66947658669864 20.334884806700792 -467.05573420919524 21.149489136360042 -487.013133787048 20.57391433129799 -495.3993914095446 21.388518660957395 -504.91287451858744 18.792104661583956 -525.4244028752173 -2.2456865034581615"/>
<polyline points="-525.4244028752173 -2.2456865034581615 -531.3088491963111 -5.016540315621526"/>
<polyline points="-525.4244028752173 -2.2456865034581615 -531.3088491963111 -5.016540315621526"/>
<polyline points="-525.4244028752173 -2.2456865034581615 -534.1370255464856 -4.9146262607161955"/>
<polyline points="-534.1370255464856 -4.9146262607161955 -543.414559228203 -1.2995501948104005"/>
<polyline points="-504.91287451858744 18.792104661583956 -513.6254971898557 16.123164904325872 -529.3943486309385 7.390885830720986 -534.489797058655 -0.8765885117071844 -540.6385966954397 -5.780902794510745 -546.7308926123982 -16.85899434355275"/>
<polyline points="-546.7308926123982 -16.858994343552766 -547.4461635504746 -25.76984286906088 -556.7529037930167 -38.04502367106555 -557.4681747310931 -46.95587219657387 -560.1148535400124 -52.490420109125466 -557.5180178304721 -59.07874660303332"/>
</svg>