<svg viewBox="-563.114853540013 -256.7746461774187 1134.093380157768 760.8432032080274" xmlns="http://www.w3.org/2000/svg">
<style type="text/css">
svg { stroke:black; stroke-width:2; fill:none; transform:scale(1,-1);}
</style>
<polyline points="567.9785266177552 -98.15720521809912 566.1853282774896 -88.54822969647614"/>
<polyline points="566.1853282774897 -88.54822969647508 559.1788427616007 -94.93346758746566"/>
<polyline points="559.1788427616007 -94.93346758746566 559.3724174103747 -86.45033304387138"/>
<polyline points="559.3724174103747 -86.45033304387138 549.861594651407 -89.5154077747304"/>
<polyline points="549.861594651407 -89.5154077747304 551.5909222149825 -99.00965674369286"/>
<polyline points="551.5909222149825 -99.00965674369286 552.4557780344085 -93.13282420406271"/>
<polyline points="552.4557780344085 -93.13282420406271 554.1851055979839 -102.62707317302524"/>
<polyline points="554.1851055979839 -102.62707317302524 559.4991183111749 -98.8760102621984"/>
<polyline points="559.4991183111749 -98.8760102621984 561.1889708571238 -94.00490458909564"/>
<polyline points="561.1889708571238 -94.00490458909564 554.4219672713479 -89.86340226401471"/>
<polyline points="554.4219672713479 -89.86340226401471 559.0617895244351 -84.60100490152348"/>
<polyline points="559.0617895244351 -84.60100490152348 550.6213623358188 -79.34620390229298"/>
<polyline points="550.6213623358188 -79.34620390229298 549.5033963474424 -89.27991649527156"/>
<polyline points="549.5033963474424 -89.27991649527156 545.9855784182034 -80.28627158796657"/>
<polyline points="545.9855784182034 -80.28627158796657 544.2477682865014 -90.05156136896188"/>
<polyline points="544.2477682865014 -90.05156136896188 537.955123073396 -83.52022067526639"/>
<polyline points="537.955123073396 -83.52022067526639 546.3274827594544 -78.73670143792718"/>
<polyline points="546.3274827594544 -78.73670143792718 538.6883161934319 -85.11910512860747"/>
<polyline points="538.6883161934319 -85.11910512860747 539.8106010659925 -77.73252199732472"/>
<polyline points="539.8106010659925 -77.73252199732472 537.1427909695695 -81.19979231907176"/>
<polyline points="537.1427909695695 -81.19979231907176 539.3523967292955 -90.90121279299392"/>
<polyline points="539.3523967292955 -90.90121279299392 529.685701151478 -90.06388317919297"/>
<polyline points="529.685701151478 -90.06388317919297 530.2806675388977 -80.13353184014117"/>
<polyline points="530.2806675388977 -80.13353184014117 537.6363483225134 -86.624167308145"/>
<polyline points="537.6363483225134 -86.624167308145 540.9764570128998 -94.38520007181977"/>
<polyline points="537.6363483225134 -86.624167308145 540.9764570128998 -94.38520007181977"/>
<polyline points="540.9764570128998 -94.38520007181977 541.2639956479355 -104.36103362973347"/>
<polyline points="541.2639956479355 -104.36103362973347 534.7001038122551 -106.25756334528673 514.7339489055379 -105.24117157004694 505.8720506287381 -109.67032715964442 496.29540065470695 -109.1905586703413 475.7029039641026 -103.82909222083877"/>
<polyline points="475.7029039641026 -103.82909222083877 469.1934163148145 -108.95389603798736 451.08740958438403 -110.65833423142499 444.57792193509596 -115.78313804857359 436.81019821165603 -115.93524200497663 424.4642740584649 -108.1866811145392"/>
<polyline points="424.4642740584649 -108.1866811145392 421.7563886033697 -112.53178214024366"/>
<polyline points="424.4642740584649 -108.1866811145392 421.7563886033697 -112.53178214024366"/>
<polyline points="424.4642740584649 -108.1866811145392 418.13929894650187 -110.11785364619794"/>
<polyline points="418.13929894650187 -110.11785364619794 408.8936771597832 -113.70727928790319"/>
<polyline points="436.81019821165603 -115.93524200497663 430.4852230996929 -117.86641453663539 415.51971610880685 -106.56723211171877 412.1094422744194 -99.71782510458762 405.8614658700353 -92.214405433548 395.33742693800053 -64.7081708423576"/>
<polyline points="395.33742693800053 -64.7081708423576 395.577428098772 -55.58648828407165 386.34606825320105 -38.5024974592008 386.5860694139723 -29.38081490091479 383.272208415115 -19.95199213952109 379.21380671275045 6.654208287399838"/>
<polyline points="379.21380671275045 6.654208287399838 386.4155549910198 13.413772255680568"/>
<polyline points="379.21380671275045 6.654208287399838 382.8551640902201 15.950212458362541"/>
<polyline points="383.272208415115 -19.95199213952109 382.4788019714456 -10.002422078596101"/>
<polyline points="383.272208415115 -19.95199213952109 382.4788019714456 -10.002422078596101"/>
<polyline points="395.33742693800053 -64.7081708423576 391.2238856959794 -56.17248058329102"/>
<polyline points="391.2238856959794 -56.17248058329102 381.8128873974286 -52.87077777876295"/>
<polyline points="391.2238856959794 -56.17248058329102 381.8128873974286 -52.87077777876295"/>
<polyline points="381.8128873974286 -52.87077777876295 374.07785205191215 -50.87409997571303"/>
<polyline points="405.8614658700353 -92.214405433548 401.7479246280142 -83.67871517448144 384.860681886302 -74.8813046663219 380.1640057910551 -68.30367818906544 372.01756549411624 -65.49886290876171 351.6987740539506 -70.7037342094803"/>
<polyline points="351.6987740539506 -70.7037342094803 349.23897899236306 -67.15696252269443 335.2876181512807 -61.73042514546025 332.82782308969325 -58.183653458674385 326.4535906292184 -57.7529739342582 311.3818480592194 -71.41692606299517"/>
<polyline points="311.3818480592194 -71.41692606299517 311.5133363662862 -71.91366652910087"/>
<polyline points="311.3818480592194 -71.41692606299517 311.5133363662862 -71.91366652910087"/>
<polyline points="311.3818480592194 -71.41692606299517 307.18893104575403 -71.16249630344919"/>
<polyline points="307.18893104575403 -71.16249630344919 301.6954811779747 -64.91705522563754"/>
<polyline points="326.4535906292184 -57.7529739342582 322.26067361575303 -57.498544174712194 303.3827172949967 -61.612161814336346 296.51375046778963 -68.11264449167405 287.03684152062004 -71.2944916994964 262.6667714389683 -81.49365823334757"/>
<polyline points="262.6667714389683 -81.49365823334757 257.5090676716264 -90.0165474942001 240.00864564207276 -99.63999886454248 234.85094187473075 -108.16288812539497 226.6910260563489 -113.07454119136145 208.26576016836376 -121.66978741709923"/>
<polyline points="208.26576016836376 -121.66978741709923 210.2030274013558 -130.61893398638625"/>
<polyline points="208.26576016836376 -121.66978741709923 205.8521626581134 -130.0310777682891"/>
<polyline points="226.6910260563489 -113.07454119136145 220.28089519531608 -119.7246103889686"/>
<polyline points="262.6667714389683 -81.49365823334757 254.31388257754045 -86.99175815979542"/>
<polyline points="303.3827172949967 -61.612161814336346 296.21940127195666 -62.10065571961067"/>
<polyline points="296.21940127195666 -62.10065571961067 291.2189369068224 -53.642511077036104"/>
<polyline points="322.26067361575303 -57.498544174712194 315.09735759271297 -57.987038079986554"/>
<polyline points="326.4535906292184 -57.7529739342582 322.26067361575303 -57.498544174712194"/>
<polyline points="351.6987740539506 -70.7037342094803 345.3009442095217 -67.28284803930137"/>
<polyline points="345.3009442095217 -67.28284803930137 335.3276392160947 -66.5911586206437"/>
<polyline points="345.3009442095217 -67.28284803930137 335.3276392160947 -66.5911586206437"/>
<polyline points="335.3276392160947 -66.5911586206437 328.3052138832122 -59.47385893719445"/>
<polyline points="372.01756549411624 -65.49886290876171 365.6197356496874 -62.077976738582855 346.0315250359398 -65.7119913832037 338.5298560080548 -71.04641515284433 329.2978776113736 -74.82247712279091 309.3974183471817 -92.30346621587285"/>
<polyline points="309.3974183471817 -92.30346621587285 304.60722347820115 -100.94840635282452 287.9396946355241 -111.94561795452722 283.1494997665435 -120.59055809147887 276.0372375239103 -127.12422063281404 263.91562100635383 -145.66103848097336"/>
<polyline points="263.91562100635383 -145.66103848097336 262.82615228056255 -155.49384392798916"/>
<polyline points="263.91562100635383 -145.66103848097336 262.82615228056255 -155.49384392798916"/>
<polyline points="263.91562100635383 -145.66103848097336 258.6895893671941 -153.91088788504968"/>
<polyline points="258.6895893671941 -153.91088788504968 250.6169705534712 -158.76404484853654"/>
<polyline points="276.0372375239103 -127.12422063281404 270.8112058847506 -135.37407003689032 254.11602194598032 -137.11423455589537 249.63379551394186 -138.85366043713384 241.97591767952107 -137.36774600512456 225.06827181787816 -118.8088087520782"/>
<polyline points="225.06827181787816 -118.8088087520782 223.4604946061106 -116.67766990985113 210.86683226152465 -112.24758985071439 209.25905504975702 -110.11645100848723 203.89319484881415 -105.51532941255539 192.9971078388508 -80.30074616793443"/>
<polyline points="192.9971078388508 -80.30074616793443 198.53443258398505 -76.23136353039347"/>
<polyline points="192.9971078388508 -80.30074616793443 194.43078154729488 -74.64196219022843"/>
<polyline points="203.89319484881415 -105.51532941255539 200.87248405328486 -100.34961703258365"/>
<polyline points="203.89319484881415 -105.51532941255539 200.87248405328486 -100.34961703258365"/>
<polyline points="225.06827181787816 -118.8088087520782 219.31110435192383 -117.13705896486547"/>
<polyline points="219.31110435192383 -117.13705896486547 209.36624292127203 -116.41755608818453"/>
<polyline points="219.31110435192383 -117.13705896486547 209.36624292127203 -116.41755608818453"/>
<polyline points="209.36624292127203 -116.41755608818453 201.77373905737733 -121.4704070153917"/>
<polyline points="241.97591767952107 -137.36774600512456 236.21875021356672 -135.69599621791176 217.40995386605402 -128.930401599433 210.96500200132567 -121.332107526476 202.0888817659439 -117.22836715800358 182.20363040281939 -107.16285898831373"/>
<polyline points="182.20363040281939 -107.16285898831373 178.43109187187088 -98.43363419412054 162.79911329826962 -87.43189975952798 159.0265747673211 -78.70267496533485 152.25295212928646 -73.58004441555016 139.37153849340703 -66.97918714268371"/>
<polyline points="139.37153849340703 -66.97918714268371 138.98486274162408 -59.353377989331676"/>
<polyline points="139.37153849340703 -66.97918714268371 138.98486274162408 -59.353377989331676"/>
<polyline points="139.37153849340703 -66.97918714268371 134.6698450441989 -60.454554749264354"/>
<polyline points="134.6698450441989 -60.454554749264354 127.54876624347857 -53.46733461216797"/>
<polyline points="152.25295212928646 -73.58004441555016 147.55125868007823 -67.05541202213081 129.83911253830397 -68.94496080731966 124.45919148318627 -71.46761908972645 115.97179259693664 -74.91686789672836 95.54604364086032 -96.70829982589046"/>
<polyline points="95.54604364086032 -96.70829982589046 92.55262771157294 -103.34180323301517 77.83777687586411 -113.10334555173654 74.84436094657667 -119.73684895886129 68.24168481730337 -126.55358464187506 53.713998758327385 -152.48225167813186"/>
<polyline points="53.713998758327385 -152.48225167813186 61.01732020463025 -157.3314131355929"/>
<polyline points="53.713998758327385 -152.48225167813186 53.603571274438686 -161.70579410476398"/>
<polyline points="77.83777687586411 -113.10334555173654 71.23335259569619 -113.68979945053749"/>
<polyline points="115.97179259693664 -74.91686789672836 109.12550264491428 -79.71319389866366"/>
<polyline points="152.25295212928646 -73.58004441555016 147.55125868007823 -67.05541202213081"/>
<polyline points="162.79911329826962 -87.43189975952798 155.16440212741844 -81.35986493708378"/>
<polyline points="202.0888817659439 -117.22836715800358 194.65550766009167 -111.00751303787663"/>
<polyline points="236.21875021356672 -135.69599621791176 228.04209122204637 -133.35152146211612"/>
<polyline points="254.11602194598032 -137.11423455589537 246.70399323381739 -142.75023862069554"/>
<polyline points="246.70399323381739 -142.75023862069554 239.32831849655463 -140.49548476281174"/>
<polyline points="270.8112058847506 -135.37407003689032 263.3991771725877 -141.01007410169055"/>
<polyline points="276.0372375239103 -127.12422063281404 270.8112058847506 -135.37407003689032"/>
<polyline points="309.3974183471817 -92.30346621587285 301.3106081672858 -98.17960489581525"/>
<polyline points="301.3106081672858 -98.17960489581525 291.88159191014745 -96.31896719626599"/>
<polyline points="301.3106081672858 -98.17960489581525 291.88159191014745 -96.31896719626599"/>
<polyline points="291.88159191014745 -96.31896719626599 282.8810018880314 -95.32307015090284"/>
<polyline points="329.2978776113736 -74.82247712279091 321.2110674314777 -80.69861580273327 304.16234735215085 -78.98759170223548 298.58862757279104 -81.32575750610548 291.5033930874063 -78.89806263841665 281.30200703596586 -60.86020030188047"/>
<polyline points="281.30200703596586 -60.86020030188047 279.74460829786216 -61.14178903188594 268.41831174833777 -56.72517170242964 266.8609130102342 -57.0067604324352 262.9778215078341 -52.94942272051707 261.19480459202276 -30.101585267852883"/>
<polyline points="261.19480459202276 -30.101585267852883 263.8944574429011 -28.006337893789624"/>
<polyline points="261.19480459202276 -30.101585267852883 263.8944574429011 -28.006337893789624"/>
<polyline points="261.19480459202276 -30.101585267852883 259.60457344992244 -26.711228977975647"/>
<polyline points="259.60457344992244 -26.711228977975647 253.40813292456153 -28.436807176076545"/>
<polyline points="262.9778215078341 -52.94942272051707 261.3875903657338 -49.55906643063979 248.09294613362124 -35.98105321801728 245.78987039927569 -26.51399194628394 239.05432035172805 -19.146759013847834 219.1017577467357 -1.0530112122210917"/>
<polyline points="219.1017577467357 -1.0530112122210917 218.1962209678839 8.602456121348759 207.05120663365915 25.154242567210485 206.1456698548073 34.80970990078035 200.53142840207846 42.447971043523665 183.15596774595176 54.922462439513154"/>
<polyline points="183.15596774595176 54.922462439513154 187.83202371941226 60.95590099966719"/>
<polyline points="183.15596774595176 54.922462439513154 183.59278406674136 62.404861212632085"/>
<polyline points="200.53142840207846 42.447971043523665 197.01326910684364 50.591601168997755"/>
<polyline points="200.53142840207846 42.447971043523665 197.01326910684364 50.591601168997755"/>
<polyline points="219.1017577467357 -1.0530112122210917 214.29897716147485 7.708435162747584"/>
<polyline points="214.29897716147485 7.708435162747584 204.95984140866787 10.083863679589623"/>
<polyline points="214.29897716147485 7.708435162747584 204.95984140866787 10.083863679589623"/>
<polyline points="204.95984140866787 10.083863679589623 200.31495867900162 15.63450715430841"/>
<polyline points="239.05432035172805 -19.146759013847834 234.25153976646703 -10.385312638879073 214.55589023531834 -6.910641339163743 206.01220644587477 -5.363227697934566 196.05804362646225 -6.141000162190054 171.30726006324272 -23.087712235158023"/>
<polyline points="171.30726006324272 -23.087712235158023 164.28132998043108 -25.92775934806255 145.10023336837227 -29.646302652736356 138.07430328556057 -32.48634976564083 129.25662549709202 -36.80423621483044 111.35059037978672 -60.85311650984339"/>
<polyline points="111.35059037978672 -60.85311650984339 107.37873621706574 -67.5174055085314"/>
<polyline points="111.35059037978672 -60.85311650984339 107.37873621706574 -67.5174055085314"/>
<polyline points="111.35059037978672 -60.85311650984339 103.85556577858274 -66.23800126135593"/>
<polyline points="103.85556577858274 -66.23800126135593 94.88144187322095 -64.71432045514098"/>
<polyline points="129.25662549709202 -36.80423621483044 121.76160089588798 -42.18912096634294 104.80534649030838 -48.099033502180674 99.61544746019023 -55.00017945770046 92.44522690855885 -57.364539106096004 80.94563918684229 -55.67281734909691"/>
<polyline points="80.94563918684229 -55.67281734909691 79.59021281532128 -61.60595673125222 68.16706890078552 -67.92605971118948 66.81164252926455 -73.85919909334471 62.70169679438333 -75.53169524763692 59.08418348858825 -67.8330231598771"/>
<polyline points="59.08418348858825 -67.8330231598771 65.22910046568174 -72.32013335594833"/>
<polyline points="59.08418348858825 -67.8330231598771 61.73185596943987 -71.17070731923818"/>
<polyline points="62.70169679438333 -75.53169524763692 60.954279706347414 -78.1126946624529"/>
<polyline points="80.94563918684229 -55.67281734909691 75.56602540263738 -59.70330803851479"/>
<polyline points="104.80534649030838 -48.099033502180674 95.9146467300357 -52.64893228278807"/>
<polyline points="95.9146467300357 -52.64893228278807 89.81420445196916 -44.76339091466374"/>
<polyline points="121.76160089588798 -42.18912096634294 112.87090113561534 -46.73901974695036"/>
<polyline points="129.25662549709202 -36.80423621483044 121.76160089588798 -42.18912096634294"/>
<polyline points="171.30726006324272 -23.087712235158023 161.88074102263022 -24.570668416960377"/>
<polyline points="161.88074102263022 -24.570668416960377 153.2867806265596 -23.603350569260957"/>
<polyline points="161.88074102263022 -24.570668416960377 153.2867806265596 -23.603350569260957"/>
<polyline points="153.2867806265596 -23.603350569260957 145.17006366166544 -17.762766975988942"/>
<polyline points="196.05804362646225 -6.141000162190054 186.63152458584972 -7.623956343992415 170.3682355766252 -10.999884171357875 163.99755619390123 -17.389769771726527 157.6320004154939 -19.614543751504385 152.1481928294561 -23.79284955345463"/>
<polyline points="152.1481928294561 -23.79284955345463 150.12728474022728 -31.33519154548767 139.86609896563593 -38.70939166810549 137.84519087640703 -46.251733660138555 134.93890517243582 -49.50056747966279 139.00682011973123 -50.85631955791918"/>
<polyline points="139.00682011973123 -50.85631955791918 141.76779523040818 -57.55358767622551"/>
<polyline points="139.00682011973123 -50.85631955791918 141.76779523040818 -57.55358767622551"/>
<polyline points="139.00682011973123 -50.85631955791918 138.05160777450845 -55.77073119173819"/>
<polyline points="138.05160777450845 -55.77073119173819 131.27847409551484 -61.425337498633795"/>
<polyline points="134.93890517243582 -49.50056747966279 133.98369282721302 -54.41497911348179 124.95056386136048 -48.4632488965897 125.40475949758546 -44.179791017150876 121.08740904963234 -38.8765763556401 107.89541586376787 -13.650676678124583"/>
<polyline points="107.89541586376787 -13.650676678124583 109.95405581464183 -5.893560179513196 104.18759438665877 7.263696352891247 106.24623433753267 15.02081285150269 103.25187431040048 23.194276757456088 91.24276174241638 50.68521206857894"/>
<polyline points="91.24276174241638 50.68521206857894 97.76331522439243 58.25648332937235"/>
<polyline points="91.24276174241638 50.68521206857894 94.1418991319028 60.145272304293165"/>
<polyline points="103.25187431040048 23.194276757456088 102.47297736840468 32.329711613057334"/>
<polyline points="103.25187431040048 23.194276757456088 102.47297736840468 32.329711613057334"/>
<polyline points="107.89541586376787 -13.650676678124583 105.87712125939947 -7.159335102380292"/>
<polyline points="105.87712125939947 -7.159335102380292 97.52314782113608 -5.838892650034554"/>
<polyline points="105.87712125939947 -7.159335102380292 97.52314782113608 -5.838892650034554"/>
<polyline points="97.52314782113608 -5.838892650034554 94.38662697659404 -6.975459281309861"/>
<polyline points="121.08740904963234 -38.8765763556401 119.06911444526392 -32.38523477989584 101.25708994973405 -26.168060168978634 93.7704211727996 -19.541692107937767 84.05761941398791 -17.413587510182662 55.491507571124274 -21.640953040159424"/>
<polyline points="55.491507571124274 -21.640953040159424 48.248466287528984 -16.690681165391744 29.03193996306151 -11.389921155694957 21.788898679466218 -6.439649280927354 12.19211267526556 -5.582144720963026 -11.96936053528426 -16.594319158899427"/>
<polyline points="-11.96936053528426 -16.594319158899427 -17.4178778621958 -14.71136709690947"/>
<polyline points="-11.96936053528426 -16.594319158899427 -17.4178778621958 -14.71136709690947"/>
<polyline points="-11.96936053528426 -16.594319158899427 -20.523990413404977 -15.122330354543303"/>
<polyline points="-20.523990413404977 -15.122330354543303 -28.466329535686878 -9.057900169037131"/>
<polyline points="12.19211267526556 -5.582144720963026 3.6374827971448886 -4.110155916606936 -14.688485763800259 -10.791232780996934 -21.888144048587638 -17.65340046014367 -29.727649201265145 -22.612994475776688 -41.485690664037016 -40.74517665268731"/>
<polyline points="-41.485690664037016 -40.74517665268731 -44.87133578345791 -50.12663885111741 -58.31927741874723 -63.19908059108917 -61.70492253816809 -72.58054278951923 -66.52841791447467 -79.67385406048318 -69.05577203365903 -96.8577557272344"/>
<polyline points="-69.05577203365903 -96.8577557272344 -63.37687744308412 -103.85746765231751"/>
<polyline points="-69.05577203365903 -96.8577557272344 -67.91101694490695 -106.45205726755782"/>
<polyline points="-41.485690664037016 -40.74517665268731 -48.13815896706506 -47.72852453739992"/>
<polyline points="3.6374827971448886 -4.110155916606936 -6.160324900805148 -4.46231287075728"/>
<polyline points="84.05761941398791 -17.413587510182662 74.75468382027726 -13.911210299776961"/>
<polyline points="101.25708994973405 -26.168060168978634 95.80690737272982 -20.81026857544889"/>
<polyline points="124.95056386136048 -48.4632488965897 121.95628248131287 -50.34417401305001"/>
<polyline points="134.93890517243582 -49.50056747966279 133.98369282721302 -54.41497911348179"/>
<polyline points="157.6320004154939 -19.614543751504385 152.4755541519761 -24.12553042482179"/>
<polyline points="170.3682355766252 -10.999884171357875 160.49439369130138 -12.418573215402319"/>
<polyline points="196.05804362646225 -6.141000162190054 186.63152458584972 -7.623956343992415"/>
<polyline points="234.25153976646703 -10.385312638879073 226.5918974253237 -3.9569587022465704"/>
<polyline points="248.09294613362124 -35.98105321801728 243.75936618574096 -30.880323306902003"/>
<polyline points="243.75936618574096 -30.880323306902003 235.2564159226261 -36.0276140179645"/>
<polyline points="261.3875903657338 -49.55906643063979 257.05401041785353 -44.45833651952449"/>
<polyline points="262.9778215078341 -52.94942272051707 261.3875903657338 -49.55906643063979"/>
<polyline points="281.30200703596586 -60.86020030188047 275.8857824198131 -59.49515581459669"/>
<polyline points="275.8857824198131 -59.49515581459669 266.89458527146 -55.29186199757412"/>
<polyline points="275.8857824198131 -59.49515581459669 266.89458527146 -55.29186199757412"/>
<polyline points="266.89458527146 -55.29186199757412 257.63382330980374 -58.01652361781282"/>
<polyline points="291.5033930874063 -78.89806263841665 286.0871684712537 -77.53301815113294 271.1585939440174 -64.6130652064862 267.94891410295065 -55.72447313972258 261.45822286539374 -48.134799966264104 248.62017063421493 -25.944552298461062"/>
<polyline points="248.62017063421493 -25.944552298461062 248.65377924537407 -15.947262153249289 238.82202498558476 1.3677136259493323 238.8556335967439 11.365003771161124 234.97200860350787 19.964351488816664 227.87426166281418 38.21971853299427"/>
<polyline points="227.87426166281418 38.21971853299427 230.9282385133167 46.92289340603685"/>
<polyline points="227.87426166281418 38.21971853299427 230.9282385133167 46.92289340603685"/>
<polyline points="227.87426166281418 38.21971853299427 226.485579109467 47.452051771086055"/>
<polyline points="226.485579109467 47.452051771086055 222.4391953867651 56.109744059524594"/>
<polyline points="234.97200860350787 19.964351488816664 233.5833260501607 29.19668472690844 217.32815132485285 36.89773125711066 212.1399283902778 39.04063192180488 203.37439603419617 40.39495110242061 176.65583063031838 29.836991424883625"/>
<polyline points="176.65583063031838 29.836991424883625 172.03975361693696 27.117495739046532 155.65665050367764 26.84332158910752 151.04057349029628 24.12382590327037 142.68908520635452 21.554669732896663 119.26638261268435 3.1331955235559126"/>
<polyline points="119.26638261268435 3.1331955235559126 120.5393670911896 -4.3011062944183855"/>
<polyline points="119.26638261268435 3.1331955235559126 116.083925028691 -3.8215700594530584"/>
<polyline points="142.68908520635452 21.554669732896663 135.89528031641495 17.201420607812423"/>
<polyline points="142.68908520635452 21.554669732896663 135.89528031641495 17.201420607812423"/>
<polyline points="176.65583063031838 29.836991424883625 169.03904502353558 29.80706047504686"/>
<polyline points="169.03904502353558 29.80706047504686 159.93484228096622 33.880923169317974"/>
<polyline points="169.03904502353558 29.80706047504686 159.93484228096622 33.880923169317974"/>
<polyline points="159.93484228096622 33.880923169317974 154.6243573969977 41.182218766645"/>
<polyline points="203.37439603419617 40.39495110242061 195.75761042741328 40.36502015258385 176.3337424601409 43.570547770851135 167.19877139252995 40.03526926159785 158.2011587744223 41.18544315292094 141.3069796684672 45.686928718307335"/>
<polyline points="141.3069796684672 45.686928718307335 134.9203475204498 40.57123240085378 117.92859836027993 39.74324877541655 111.54196621226255 34.627552457963006 104.6692973841019 34.438117211564375 96.83410999085866 39.58793676048424"/>
<polyline points="96.83410999085866 39.58793676048424 94.66185010022983 34.359809851137385"/>
<polyline points="96.83410999085866 39.58793676048424 94.66185010022983 34.359809851137385"/>
<polyline points="96.83410999085866 39.58793676048424 91.29241383967238 37.30712039489027"/>
<polyline points="91.29241383967238 37.30712039489027 81.88221187683374 34.65279726997599"/>
<polyline points="104.6692973841019 34.438117211564375 99.12760123291561 32.157300845970404 86.7901497194275 43.94517637889408 85.15472011645701 50.11246894321204 80.28338002991669 57.88075516417128 72.89898704334493 86.95337714772978"/>
<polyline points="72.89898704334493 86.95337714772978 74.86340027970556 95.28119077920923 68.66634823807095 112.41423868397582 70.63076147443158 120.74205231545527 68.67467953947946 130.33411915338968 66.58734616919595 158.89583590040877"/>
<polyline points="66.58734616919595 158.89583590040877 74.76570894720096 164.47847884521764"/>
<polyline points="66.58734616919595 158.89583590040877 71.48032671119182 167.52545674412704"/>
<polyline points="68.67467953947946 130.33411915338968 69.30029720771002 140.1080887381355"/>
<polyline points="72.89898704334493 86.95337714772978 70.39341618222718 95.33728563835732"/>
<polyline points="86.7901497194275 43.94517637889408 80.12650748945758 45.15262865928058"/>
<polyline points="80.12650748945758 45.15262865928058 71.57226263919465 45.02346796223161"/>
<polyline points="99.12760123291561 32.157300845970404 92.46395900294566 33.36475312635693"/>
<polyline points="104.6692973841019 34.438117211564375 99.12760123291561 32.157300845970404"/>
<polyline points="141.3069796684672 45.686928718307335 132.70992223321224 44.38653532009879"/>
<polyline points="132.70992223321224 44.38653532009879 125.12243800066028 50.717711472156914"/>
<polyline points="132.70992223321224 44.38653532009879 125.12243800066028 50.717711472156914"/>
<polyline points="125.12243800066028 50.717711472156914 115.53055335356864 51.70931165647165"/>
<polyline points="158.2011587744223 41.18544315292094 149.6041013391673 39.885049754712405 137.32838493408235 53.73270408457489 134.31793017349779 59.35050593740455 130.25530540598567 67.79239967606198 130.73494964185116 97.66287468191774"/>
<polyline points="130.73494964185116 97.66287468191774 132.4233257873366 104.51789853843171 127.72426595387826 121.85391561154607 129.41264209936375 128.70893946806004 129.13569309084377 138.21431003168684 137.503969762701 166.8419596776586"/>
<polyline points="137.503969762701 166.8419596776586 143.39941684989506 173.49490911790016"/>
<polyline points="137.503969762701 166.8419596776586 143.39941684989506 173.49490911790016"/>
<polyline points="137.503969762701 166.8419596776586 139.57550308905155 175.76444907903618"/>
<polyline points="139.57550308905155 175.76444907903618 135.98617002448012 181.8032304926143"/>
<polyline points="129.13569309084377 138.21431003168684 131.20722641719433 147.13679943306445 123.078095912394 164.92144358592313 123.2257769335379 173.52557492013912 118.36111113690094 181.1741397962539 98.4995701534817 191.47526311575203"/>
<polyline points="98.4995701534817 191.47526311575203 98.46687883158235 196.63082911940467 90.38470399784316 210.65875610608992 90.35201267594383 215.8143221097426 85.3571129503877 220.76506513649448 64.44180297724631 221.2662648133908"/>
<polyline points="64.44180297724631 221.2662648133908 67.71363976132619 219.4198129794354"/>
<polyline points="64.44180297724631 221.2662648133908 63.951343730106494 221.75199466580457"/>
<polyline points="85.3571129503877 220.76506513649448 81.9372242805354 224.3836564415986"/>
<polyline points="85.3571129503877 220.76506513649448 81.9372242805354 224.3836564415986"/>
<polyline points="98.4995701534817 191.47526311575203 95.34108357445174 198.71991187026455"/>
<polyline points="95.34108357445174 198.71991187026455 87.89326073464906 205.30388221037248"/>
<polyline points="95.34108357445174 198.71991187026455 87.89326073464906 205.30388221037248"/>
<polyline points="87.89326073464906 205.30388221037248 86.71033275868275 215.16597795133822"/>
<polyline points="118.36111113690094 181.1741397962539 115.20262455787096 188.41878855076644 97.45223771032126 197.6270389436075 88.14556181594943 198.35528377715548 78.56082714793727 200.92048779170904 52.5427244419754 197.8837439881156"/>
<polyline points="52.5427244419754 197.8837439881156 43.419514918092304 194.12576326147698 23.549965805241772 195.4783279421235 14.426756281358657 191.7203472154849 4.88198447385526 190.64339328717267 -15.459390762161709 181.45736022884526"/>
<polyline points="-15.459390762161709 181.45736022884526 -22.30021600487565 174.22806591357156"/>
<polyline points="-15.459390762161709 181.45736022884526 -22.30021600487565 174.22806591357156"/>
<polyline points="-15.459390762161709 181.45736022884526 -24.57816940944173 177.92353752222982"/>
<polyline points="-24.57816940944173 177.92353752222982 -34.0251369223971 179.3255439488929"/>
<polyline points="4.88198447385526 190.64339328717267 -4.2367941734247605 187.10957058055718 -18.17494191821481 194.84169561894532 -22.526332673423934 195.35399598304807 -27.48371200624081 200.57961894431494 -28.995327945228997 223.91153021106797"/>
<polyline points="-28.995327945228997 223.91153021106797 -28.680131746320757 225.64496458843647 -35.482352051546115 235.36353607599017 -35.16715585263788 237.0969704533587 -36.3821974988221 243.30719434528928 -29.195121365107504 268.6504761124624"/>
<polyline points="-29.195121365107504 268.6504761124624 -22.055775091747925 263.7776333545395"/>
<polyline points="-29.195121365107504 268.6504761124624 -24.360773893669222 271.46196543645766"/>
<polyline points="-35.482352051546115 235.36353607599017 -41.81547060637358 235.97012783433996"/>
<polyline points="-27.48371200624081 200.57961894431494 -30.775087830356426 204.62917972856576"/>
<polyline points="4.88198447385526 190.64339328717267 -4.2367941734247605 187.10957058055718"/>
<polyline points="23.549965805241772 195.4783279421235 14.711159842404532 198.51722639685568"/>
<polyline points="78.56082714793727 200.92048779170904 68.56569588080185 201.22891168989395"/>
<polyline points="115.20262455787096 188.41878855076644 109.15404333135555 195.41923847030452"/>
<polyline points="123.078095912394 164.92144358592313 122.28164671413275 174.7238399086902"/>
<polyline points="122.28164671413275 174.7238399086902 113.85979596926656 174.95729322720382"/>
<polyline points="131.20722641719433 147.13679943306445 130.41077721893305 156.93919575583152"/>
<polyline points="129.13569309084377 138.21431003168684 131.20722641719433 147.13679943306445"/>
<polyline points="130.73494964185116 97.66287468191774 128.59019918986428 105.91532066247392"/>
<polyline points="128.59019918986428 105.91532066247392 121.30107142292087 112.64392125841727"/>
<polyline points="128.59019918986428 105.91532066247392 121.30107142292087 112.64392125841727"/>
<polyline points="121.30107142292087 112.64392125841727 113.062205274081 115.75430274992146"/>
<polyline points="130.25530540598567 67.79239967606198 128.11055495399884 76.04484565661812 117.36863458713154 91.95399339527121 116.90415259863124 101.15651776273553 111.94489701766341 108.13482321156383 98.62648218820321 117.14355715895913"/>
<polyline points="98.62648218820321 117.14355715895913 100.23852922637388 123.6568854554668 93.33657972574301 137.39231296922895 94.94862676391371 143.90564126573653 91.68431111842678 148.81393292524658 80.75907980828563 148.5005315488901"/>
<polyline points="80.75907980828563 148.5005315488901 83.79911488846474 150.70944910794498"/>
<polyline points="80.75907980828563 148.5005315488901 83.79911488846474 150.70944910794498"/>
<polyline points="80.75907980828563 148.5005315488901 79.83723639449495 152.7882120139723"/>
<polyline points="79.83723639449495 152.7882120139723 78.44991408697439 161.91256344074748"/>
<polyline points="91.68431111842678 148.81393292524658 90.76246770463614 153.10161339032868 74.06721221250307 158.1214021443746 66.91636873266606 155.90071969518002 57.48146561082337 156.8024102661658 28.046175727786423 153.32442134016566"/>
<polyline points="28.046175727786423 153.32442134016566 20.569391208920322 147.5474932485523 1.5556240515526993 145.49142716906456 -5.921160467313392 139.7144990774513 -15.698732079446097 137.69114100176384 -41.695372072480986 131.22515320545713"/>
<polyline points="-41.695372072480986 131.22515320545713 -43.85864051885564 121.49443422337848"/>
<polyline points="-41.695372072480986 131.22515320545713 -47.89144651134454 123.44080898913926"/>
<polyline points="-15.698732079446097 137.69114100176384 -24.65685372882622 133.24880616114334"/>
<polyline points="-15.698732079446097 137.69114100176384 -24.65685372882622 133.24880616114334"/>
<polyline points="28.046175727786423 153.32442134016566 18.852119987719373 151.6777474126492"/>
<polyline points="18.852119987719373 151.6777474126492 11.274315706932745 158.02858257709246"/>
<polyline points="18.852119987719373 151.6777474126492 11.274315706932745 158.02858257709246"/>
<polyline points="11.274315706932745 158.02858257709246 6.146545417094498 161.91390783464624"/>
<polyline points="57.48146561082337 156.8024102661658 48.28740987075642 155.15573633864932 31.854878998715588 166.3536845396516 23.406393901599696 168.48590477188793 16.57026172931882 175.1460216321102 9.438702881165218 200.065816137784"/>
<polyline points="9.438702881165218 200.065816137784 4.494949497798724 202.64935220810614 -8.083238338503724 214.91377292341676 -13.026991721870234 217.49730899373887 -17.119735559591803 224.53616224943147 -14.372770895744425 249.46059079455327"/>
<polyline points="-14.372770895744425 249.46059079455327 -14.60259205604192 252.1511061263625"/>
<polyline points="-14.372770895744425 249.46059079455327 -14.60259205604192 252.1511061263625"/>
<polyline points="-14.372770895744425 249.46059079455327 -17.3313444726735 255.1311917150546"/>
<polyline points="-17.3313444726735 255.1311917150546 -25.863121064638467 258.0030139689451"/>
<polyline points="-17.119735559591803 224.53616224943147 -20.078309136520808 230.20676316993274 -26.257679888361245 249.22762834976345 -24.275949322447776 258.9847835243391 -26.241823410093048 268.4899268759983 -28.472855568625555 290.1347612559661"/>
<polyline points="-28.472855568625555 290.1347612559661 -23.593290359024557 298.4242478883579 -23.869844266774706 317.44837787875736 -18.990279057173705 325.73786451114916 -18.5665361014765 334.1663928184196 -18.667337742982212 348.0789518303956"/>
<polyline points="-18.667337742982212 348.0789518303956 -9.671174581983829 349.8911760402564"/>
<polyline points="-18.667337742982212 348.0789518303956 -12.272173295910928 352.9758758304885"/>
<polyline points="-18.5665361014765 334.1663928184196 -15.713751026178477 341.8070602646944"/>
<polyline points="-28.472855568625555 290.1347612559661 -27.85776086630899 299.79078756017185"/>
<polyline points="-26.257679888361245 249.22762834976345 -29.893307610610893 257.1903260558186"/>
<polyline points="-29.893307610610893 257.1903260558186 -39.557319702591954 256.65979793149"/>
<polyline points="-20.078309136520808 230.20676316993274 -23.713936858770527 238.1694608759879"/>
<polyline points="-17.119735559591803 224.53616224943147 -20.078309136520808 230.20676316993274"/>
<polyline points="9.438702881165218 200.065816137784 2.8057541720444514 205.4312815617116"/>
<polyline points="2.8057541720444514 205.4312815617116 -2.7226640847298222 213.29902318583763"/>
<polyline points="2.8057541720444514 205.4312815617116 -2.7226640847298222 213.29902318583763"/>
<polyline points="-2.7226640847298222 213.29902318583763 -12.35182716577514 215.54275022104133"/>
<polyline points="16.57026172931882 175.1460216321102 9.937313020198065 180.5114870560377 3.2379987944618303 199.01202960712703 3.849195719156826 208.88268174763598 2.5892703191217676 218.23235500918588 8.86654811469528 239.82170736051063"/>
<polyline points="8.86654811469528 239.82170736051063 13.860269378829033 248.47891649234128 15.189864151271113 267.47956905751744 20.183585415404853 276.13677818934804 22.49747298641376 284.61853818895344 33.993124046597316 298.7091968277907"/>
<polyline points="33.993124046597316 298.7091968277907 42.06672358028446 304.12522967859553"/>
<polyline points="33.993124046597316 298.7091968277907 42.06672358028446 304.12522967859553"/>
<polyline points="33.993124046597316 298.7091968277907 38.69548549346644 306.5923708583261"/>
<polyline points="38.69548549346644 306.5923708583261 38.64690342382988 316.5570772015235"/>
<polyline points="22.49747298641376 284.61853818895344 27.199834433282824 292.5017122194889 21.213759489195624 304.4327134510788 21.132017269032115 306.77291764022846 16.502014021153776 310.7862401695165 -6.7510415118747735 311.38948707877876"/>
<polyline points="-6.7510415118747735 311.38948707877876 -8.693068091685273 309.2006452806752 -17.692049295622844 313.6373095172812 -19.634075875433428 311.4484677191777 -25.763435085907663 311.804354112336 -52.1101062252334 305.2296223434666"/>
<polyline points="-52.1101062252334 305.2296223434666 -52.357356525387296 296.7584375012412"/>
<polyline points="-52.1101062252334 305.2296223434666 -55.706079943231195 299.1536415618967"/>
<polyline points="-25.763435085907663 311.804354112336 -31.14999669673187 309.6949850779349"/>
<polyline points="-25.763435085907663 311.804354112336 -31.14999669673187 309.6949850779349"/>
<polyline points="-6.7510415118747735 311.38948707877876 -10.472274765441766 313.2876300806389"/>
<polyline points="-10.472274765441766 313.2876300806389 -15.972260565871409 320.9827627671086"/>
<polyline points="-10.472274765441766 313.2876300806389 -15.972260565871409 320.9827627671086"/>
<polyline points="-15.972260565871409 320.9827627671086 -15.068444358218617 328.74162072169435"/>
<polyline points="16.502014021153776 310.7862401695165 12.780780767586819 312.68438317137657 -2.3537436543247674 324.7490946200242 -12.06319820897181 326.10071149895083 -20.168540422831533 331.9576210398511 -40.19888700902002 348.5811653344961"/>
<polyline points="-40.19888700902002 348.5811653344961 -49.847822812406534 348.16341336832227 -67.54799495956797 357.1649563038049 -77.19693076295442 356.7472043376312 -85.37245036101595 361.1692138219447 -99.38062838133692 375.2894096763845"/>
<polyline points="-99.38062838133692 375.2894096763845 -106.63953832294128 373.4717708233728"/>
<polyline points="-99.38062838133692 375.2894096763845 -106.63953832294128 373.4717708233728"/>
<polyline points="-99.38062838133692 375.2894096763845 -107.78971775617364 377.46610285698625"/>
<polyline points="-107.78971775617364 377.46610285698625 -117.3180383980316 379.7251939400414"/>
<polyline points="-85.37245036101595 361.1692138219447 -93.78153973585259 363.3459070025465 -101.59212653163681 381.29872726028077 -102.6616361850889 389.06982393524765 -104.17788677554945 398.84708535999084 -95.6580441437593 427.33350992658995"/>
<polyline points="-95.6580441437593 427.33350992658995 -91.90079833968122 434.86500681053883 -91.43474161434801 454.31901161818416 -87.67749581026995 461.8505085021331 -85.28295813106281 471.5190267882103 -69.75728139699372 495.407079323142"/>
<polyline points="-69.75728139699372 495.407079323142 -65.52170726341681 490.1059815295191"/>
<polyline points="-69.75728139699372 495.407079323142 -62.111450181766386 501.0685570306087"/>
<polyline points="-104.17788677554945 398.84708535999084 -103.82196374887016 408.31096460809437"/>
<polyline points="-85.37245036101595 361.1692138219447 -93.78153973585259 363.3459070025465"/>
<polyline points="12.780780767586819 312.68438317137657 7.078054489489938 316.95672778364155"/>
<polyline points="21.213759489195624 304.4327134510788 22.6786581809452 312.4479399031815"/>
<polyline points="8.86654811469528 239.82170736051063 9.920045371560064 249.51773815294794"/>
<polyline points="9.937313020198065 180.5114870560377 3.8963280990941036 188.135543082932"/>
<polyline points="48.28740987075642 155.15573633864932 38.65271265030958 156.8768474635054"/>
<polyline points="74.06721221250307 158.1214021443746 69.58988638360525 162.32360672066608"/>
<polyline points="93.33657972574301 137.39231296922895 91.27339242898789 146.92999647951135"/>
<polyline points="111.94489701766341 108.13482321156383 109.30467203470349 115.47284366598365"/>
<polyline points="130.25530540598567 67.79239967606198 128.11055495399884 76.04484565661812"/>
<polyline points="137.32838493408235 53.73270408457489 128.80843262607792 56.14116271270079"/>
<polyline points="158.2011587744223 41.18544315292094 149.6041013391673 39.885049754712405"/>
<polyline points="195.75761042741328 40.36502015258385 186.40071360115215 41.40841066181269"/>
<polyline points="217.32815132485285 36.89773125711066 212.53919333259347 44.69030762198314"/>
<polyline points="212.53919333259347 44.69030762198314 206.6692794808334 47.439374312574984"/>
<polyline points="233.5833260501607 29.19668472690844 228.79436805790132 36.98926109178091"/>
<polyline points="234.97200860350787 19.964351488816664 233.5833260501607 29.19668472690844"/>
<polyline points="248.62017063421493 -25.944552298461062 244.28212049238525 -16.938657988812974"/>
<polyline points="244.28212049238525 -16.938657988812974 234.64649833748211 -14.440115576395382"/>
<polyline points="244.28212049238525 -16.938657988812974 234.64649833748211 -14.440115576395382"/>
<polyline points="234.64649833748211 -14.440115576395382 227.4234065711679 -10.192422965559295"/>
<polyline points="261.45822286539374 -48.134799966264104 257.120172723564 -39.12890565661597 239.16719628244155 -34.117653722062045 233.48887324546533 -30.793059671089058 224.71545649564493 -30.587770777827025 202.78137900431716 -44.86609183479287"/>
<polyline points="202.78137900431716 -44.86609183479287 199.21830252060326 -45.58309797850753 183.70349011392673 -46.6320131120797 180.14041363021295 -47.34901925579436 173.0277399146765 -50.379502514715234 156.80695758919023 -72.45841894253167"/>
<polyline points="156.80695758919023 -72.45841894253167 155.990773266819 -77.194636164317"/>
<polyline points="156.80695758919023 -72.45841894253167 155.990773266819 -77.194636164317"/>
<polyline points="156.80695758919023 -72.45841894253167 151.7363771356572 -76.20244546478354"/>
<polyline points="151.7363771356572 -76.20244546478354 145.32206256115307 -73.04715286382611"/>
<polyline points="173.0277399146765 -50.379502514715234 167.9571594611433 -54.12352903696702 148.97856595796935 -60.39650345715838 142.2710718832369 -67.78493664292594 133.0475013361315 -70.93668590071768 110.92134631227364 -74.47634991011113"/>
<polyline points="110.92134631227364 -74.47634991011113 106.45168908268376 -81.88982105673676 89.81797309070785 -90.43733384558392 85.34831586111795 -97.85080499220956 77.87126119388225 -101.1225002357606 62.31103371646297 -99.7374784588729"/>
<polyline points="62.31103371646297 -99.7374784588729 65.22362413854582 -106.05554741522917"/>
<polyline points="62.31103371646297 -99.7374784588729 60.95321965966602 -105.21384720106653"/>
<polyline points="77.87126119388225 -101.1225002357606 72.32409762317042 -105.59542987332918"/>
<polyline points="77.87126119388225 -101.1225002357606 72.32409762317042 -105.59542987332918"/>
<polyline points="110.92134631227364 -74.47634991011113 102.9937820221042 -79.58524808916052"/>
<polyline points="102.9937820221042 -79.58524808916052 93.23012064455223 -77.55577024205941"/>
<polyline points="102.9937820221042 -79.58524808916052 93.23012064455223 -77.55577024205941"/>
<polyline points="93.23012064455223 -77.55577024205941 85.12424854185211 -81.2583713373884"/>
<polyline points="133.0475013361315 -70.93668590071768 125.11993704596206 -76.04558407976711 106.52076144845016 -69.48757565498913 99.61975921390436 -65.80948030858009 91.48141076756924 -60.21874591721092 77.6558320890153 -33.610587793668216"/>
<polyline points="77.6558320890153 -33.610587793668216 74.37637377533466 -26.63653463876004 60.43300368691409 -13.405358003447398 57.15354537323336 -6.431304848539176 51.88007687075855 1.8755337289263432 46.766146146347715 30.996878679603185"/>
<polyline points="46.766146146347715 30.996878679603185 47.76746851935565 39.73037655913884"/>
<polyline points="46.766146146347715 30.996878679603185 47.76746851935565 39.73037655913884"/>
<polyline points="46.766146146347715 30.996878679603185 43.571023521336095 39.91562910601041"/>
<polyline points="43.571023521336095 39.91562910601041 36.1136047269701 43.680421992860914"/>
<polyline points="51.88007687075855 1.8755337289263432 48.6849542457469 10.794284155333546 34.53521650481085 22.55475472913543 31.89680056338279 30.111572938055453 25.182491214118176 34.47747095827903 7.930725785389687 33.80448709206095"/>
<polyline points="7.930725785389687 33.80448709206095 7.497848763013315 38.170227429829424 -3.1862014460974746 46.49772326444729 -3.6190784684738477 50.86346360221576 -8.560514082750034 52.73490422219825 -21.907996962587653 42.89756805621268"/>
<polyline points="-21.907996962587653 42.89756805621268 -16.146539933717985 42.63734405275447"/>
<polyline points="-21.907996962587653 42.89756805621268 -20.286654443217177 42.90421554553484"/>
<polyline points="-8.560514082750034 52.73490422219825 -11.184345646392295 54.14554182081562"/>
<polyline points="7.930725785389687 33.80448709206095 3.3011389256569754 38.58318755554975"/>
<polyline points="34.53521650481085 22.55475472913543 28.970540142622 30.853823872777003"/>
<polyline points="28.970540142622 30.853823872777003 20.39306866753479 27.18814381412137"/>
<polyline points="48.6849542457469 10.794284155333546 43.12027788355801 19.093353298975142"/>
<polyline points="51.88007687075855 1.8755337289263432 48.6849542457469 10.794284155333546"/>
<polyline points="77.6558320890153 -33.610587793668216 70.86220838172588 -27.24892593414443"/>
<polyline points="70.86220838172588 -27.24892593414443 61.808597113444904 -24.781588427524753"/>
<polyline points="70.86220838172588 -27.24892593414443 61.808597113444904 -24.781588427524753"/>
<polyline points="61.808597113444904 -24.781588427524753 52.224591427879425 -25.837396888491504"/>
<polyline points="91.48141076756924 -60.21874591721092 84.68778706027967 -53.857084057687075 69.46561358324301 -45.0096684436978 65.75328736745465 -37.19123907908095 59.47762800799275 -33.47878527755937 49.65894674530402 -32.30517126783714"/>
<polyline points="49.65894674530402 -32.30517126783714 49.760743708508535 -25.9445223456248 40.46451742487711 -17.337966131928024 40.56631438808165 -10.97731720971564 37.35354374850308 -8.345126156501097 34.436522263303424 -14.309035152593424"/>
<polyline points="34.436522263303424 -14.309035152593424 38.14987398371815 -11.103997450181733"/>
<polyline points="34.436522263303424 -14.309035152593424 38.14987398371815 -11.103997450181733"/>
<polyline points="34.436522263303424 -14.309035152593424 33.72902503484696 -11.135844149200887"/>
<polyline points="33.72902503484696 -11.135844149200887 29.24999928530568 -3.821108927178227"/>
<polyline points="37.35354374850308 -8.345126156501097 36.64604652004658 -5.171935153108503 22.21467943650347 -8.812072515925195 18.577475219929557 -14.270120756675913 10.770480087422838 -17.98820178072213 -14.028971019021263 -34.85550567140784"/>
<polyline points="-14.028971019021263 -34.85550567140784 -17.086987412062815 -43.53814978443139 -31.184994023124826 -54.43416871488896 -34.24301041616636 -63.11681282791249 -41.61019482735792 -69.52466599951777 -64.10219863116237 -87.23412968308372"/>
<polyline points="-64.10219863116237 -87.23412968308372 -61.70917898041204 -96.81698467628364"/>
<polyline points="-64.10219863116237 -87.23412968308372 -66.11491441996293 -97.0003218954774"/>
<polyline points="-41.61019482735792 -69.52466599951777 -47.26469731067225 -77.6700764961255"/>
<polyline points="-41.61019482735792 -69.52466599951777 -47.26469731067225 -77.6700764961255"/>
<polyline points="-14.028971019021263 -34.85550567140784 -20.380172019912735 -40.7135054664291"/>
<polyline points="-20.380172019912735 -40.7135054664291 -29.456643877657335 -38.719852877694684"/>
<polyline points="-20.380172019912735 -40.7135054664291 -29.456643877657335 -38.719852877694684"/>
<polyline points="-29.456643877657335 -38.719852877694684 -33.902720365419526 -37.860643776714404"/>
<polyline points="10.770480087422838 -17.98820178072213 4.419279086531375 -23.846201575743372 -15.313077930598054 -21.689075370100422 -24.66999283472582 -23.702786166813176 -34.26687693735918 -21.001127312726712 -55.19262015059975 -2.1128385630259827"/>
<polyline points="-55.19262015059975 -2.1128385630259827 -62.50924787036718 -2.0102853162021734 -81.09494779298848 3.047025791566155 -88.41157551275596 3.1495790383899456 -96.46038719289334 7.533360432264128 -109.19626266715774 31.113192269005257"/>
<polyline points="-109.19626266715774 31.113192269005257 -112.80638082500455 33.55976296359541"/>
<polyline points="-109.19626266715774 31.113192269005257 -112.80638082500455 33.55976296359541"/>
<polyline points="-109.19626266715774 31.113192269005257 -116.07245816295392 34.86195496639938"/>
<polyline points="-116.07245816295392 34.86195496639938 -125.71278858059326 33.45034560536225"/>
<polyline points="-96.46038719289334 7.533360432264128 -103.33658268868952 11.282123129658256 -117.29114186757067 25.129471212083043 -120.24496583464709 34.6829046976281 -125.72334181328178 42.08779954559567 -132.82096516412417 59.7205604896131"/>
<polyline points="-132.82096516412417 59.7205604896131 -131.77931997727845 69.27786781176077 -139.28934713484125 85.7988815680691 -138.24770194799552 95.35618889021674 -140.50698494893643 102.88332688679141 -140.9012944880634 114.59271506542936"/>
<polyline points="-140.9012944880634 114.59271506542936 -131.86963878151164 118.58990250770673"/>
<polyline points="-140.9012944880634 114.59271506542936 -136.28409660043593 121.81397710059483"/>
<polyline points="-139.28934713484125 85.7988815680691 -144.28487797849223 94.42381287106085"/>
<polyline points="-125.72334181328178 42.08779954559567 -129.0218343245826 50.84129547059589"/>
<polyline points="-96.46038719289334 7.533360432264128 -103.33658268868952 11.282123129658256"/>
<polyline points="-81.09494779298848 3.047025791566155 -90.83868622392328 0.872900408814858"/>
<polyline points="-34.26687693735918 -21.001127312726712 -43.60546314391704 -19.302249181823452"/>
<polyline points="4.419279086531375 -23.846201575743372 -4.191316048125518 -26.91461336061963"/>
<polyline points="22.21467943650347 -8.812072515925195 18.23775776723753 -7.371132114045032"/>
<polyline points="18.23775776723753 -7.371132114045032 11.121654850177922 -0.6726049520762591"/>
<polyline points="36.64604652004658 -5.171935153108503 32.669124850780626 -3.73099475122838"/>
<polyline points="37.35354374850308 -8.345126156501097 36.64604652004658 -5.171935153108503"/>
<polyline points="49.65894674530402 -32.30517126783714 45.462956429708946 -27.202139277654936"/>
<polyline points="45.462956429708946 -27.202139277654936 36.1550345595304 -27.555862924255095"/>
<polyline points="45.462956429708946 -27.202139277654936 36.1550345595304 -27.555862924255095"/>
<polyline points="36.1550345595304 -27.555862924255095 28.09272827683574 -21.666476837395955"/>
<polyline points="59.47762800799275 -33.47878527755937 55.28163769239764 -28.375753287377158 38.907671622931225 -32.88294475594038 34.65955208791406 -37.07800488957034 26.872643681682625 -41.67844176377062 7.836944204220877 -64.83536066354016"/>
<polyline points="7.836944204220877 -64.83536066354016 5.975194799487315 -72.72194063137289 -7.074253901405294 -84.83634878803531 -8.936003306138822 -92.72292875586801 -14.823674847512875 -100.37138838717877 -28.689461554782365 -126.04705881249009"/>
<polyline points="-28.689461554782365 -126.04705881249009 -27.95553098505188 -135.78743999228053"/>
<polyline points="-28.689461554782365 -126.04705881249009 -27.95553098505188 -135.78743999228053"/>
<polyline points="-28.689461554782365 -126.04705881249009 -32.3179596578682 -134.95144604507954"/>
<polyline points="-32.3179596578682 -134.95144604507954 -37.3859433732652 -138.95360125292888"/>
<polyline points="-14.823674847512875 -100.37138838717877 -18.45217295059876 -109.27577561976817 -37.02896662974453 -116.38652217316266 -43.76610835664294 -121.61349486131807 -53.248200515600686 -123.22377532368054 -78.56250029891466 -113.58203095001191"/>
<polyline points="-78.56250029891466 -113.58203095001191 -83.86763187404267 -115.27985093923769 -101.51662370349534 -117.77166453756499 -106.82175527862337 -119.46948452679074 -115.21181355274398 -118.28431489342165 -135.05135669083316 -100.33524974393407"/>
<polyline points="-135.05135669083316 -100.33524974393407 -133.4724206902274 -98.71899417186334"/>
<polyline points="-135.05135669083316 -100.33524974393407 -137.86289230030096 -97.93333422897409"/>
<polyline points="-115.21181355274398 -118.28431489342165 -121.92455052448811 -116.70570982617137"/>
<polyline points="-115.21181355274398 -118.28431489342165 -121.92455052448811 -116.70570982617137"/>
<polyline points="-78.56250029891466 -113.58203095001191 -86.9672580436394 -115.4859854331041"/>
<polyline points="-86.9672580436394 -115.4859854331041 -96.43999226251877 -116.00483581826965"/>
<polyline points="-86.9672580436394 -115.4859854331041 -96.43999226251877 -116.00483581826965"/>
<polyline points="-96.43999226251877 -116.00483581826965 -103.62628107934884 -122.87707869949242"/>
<polyline points="-53.248200515600686 -123.22377532368054 -61.65295826032538 -125.12772980677275 -80.52876327329807 -120.82216824214501 -88.41273512671053 -114.68395413959799 -96.687352699527 -110.92676930735051 -110.05665838906623 -96.07011559072318"/>
<polyline points="-110.05665838906623 -96.07011559072318 -114.39161644265808 -87.19714234370298 -129.0549678612743 -76.27971816267643 -133.38992591486615 -67.40674491565632 -138.8726748526114 -61.347919319607875 -142.9264870214107 -46.79563955114651"/>
<polyline points="-142.9264870214107 -46.79563955114651 -142.75932785802738 -37.40558596532394"/>
<polyline points="-142.9264870214107 -46.79563955114651 -142.75932785802738 -37.40558596532394"/>
<polyline points="-142.9264870214107 -46.79563955114651 -146.6122743689954 -39.006743219912146"/>
<polyline points="-146.6122743689954 -39.006743219912146 -154.91349441242426 -33.43441743730914"/>
<polyline points="-138.8726748526114 -61.347919319607875 -142.55846220019615 -53.55902298837351 -155.06597924935366 -53.59639032942248 -156.58178408222938 -53.48098522830764 -162.11930990378755 -55.98290558424006 -174.76321453500876 -76.99826519371703"/>
<polyline points="-174.76321453500876 -76.99826519371703 -173.58818726304813 -80.90638465847022 -181.4789608864315 -87.85348928810554 -180.30393361447082 -91.76160875285866 -183.66114434834049 -97.52398027997228 -192.40532921549442 -124.35613552981177"/>
<polyline points="-192.40532921549442 -124.35613552981177 -185.29097817869985 -129.85730647862522"/>
<polyline points="-192.40532921549442 -124.35613552981177 -189.06481526202128 -131.49658630631416"/>
<polyline points="-183.66114434834049 -97.52398027997228 -184.5518558753638 -104.06857814665726"/>
<polyline points="-174.76321453500876 -76.99826519371703 -177.98652353654526 -80.05689812978567"/>
<polyline points="-155.06597924935366 -53.59639032942248 -160.590412596079 -48.61431137057671"/>
<polyline points="-160.590412596079 -48.61431137057671 -169.68022127566653 -49.45326406673462"/>
<polyline points="-142.55846220019615 -53.55902298837351 -148.08289554692143 -48.57694402952769"/>
<polyline points="-138.8726748526114 -61.347919319607875 -142.55846220019615 -53.55902298837351"/>
<polyline points="-110.05665838906623 -96.07011559072318 -117.37205924273624 -90.08612188647544"/>
<polyline points="-117.37205924273624 -90.08612188647544 -125.66502137717644 -92.24852177190932"/>
<polyline points="-117.37205924273624 -90.08612188647544 -125.66502137717644 -92.24852177190932"/>
<polyline points="-125.66502137717644 -92.24852177190932 -135.569815526652 -92.22647537669458"/>
<polyline points="-96.687352699527 -110.92676930735051 -104.0027535531971 -104.94277560310267 -117.28282488780172 -108.25196888128747 -120.02910592821591 -107.37276302837896 -124.98547173735501 -110.88138298619624 -129.63827657425995 -132.53487769044034"/>
<polyline points="-129.63827657425995 -132.53487769044034 -128.15606676764983 -134.12217602428265 -134.5453847540444 -141.2719521233843 -133.06317494743422 -142.8592504572266 -134.6095630491591 -148.34894450167462 -132.32453728896624 -174.4468816981578"/>
<polyline points="-132.32453728896624 -174.4468816981578 -127.11995972547503 -178.36231050998109"/>
<polyline points="-132.32453728896624 -174.4468816981578 -127.11995972547503 -178.36231050998109"/>
<polyline points="-132.32453728896624 -174.4468816981578 -131.33995297691422 -179.52086919798094"/>
<polyline points="-131.33995297691422 -179.52086919798094 -134.81888190013564 -179.17046695163074"/>
<polyline points="-134.6095630491591 -148.34894450167462 -133.62497873710709 -153.4229320014977 -145.4769653681694 -167.66973855506194 -147.73747650664546 -177.34368609913744 -154.54380314349663 -184.54861026369622 -178.87700456260893 -199.35625608047357"/>
<polyline points="-178.87700456260893 -199.35625608047357 -181.22044346430332 -208.3431091828516 -193.52060829072724 -224.09518379541714 -195.86404719242165 -233.08203689779515 -202.75122894246658 -239.8500940611618 -226.5245831987036 -247.69491885258742"/>
<polyline points="-226.5245831987036 -247.69491885258742 -224.47242344138436 -252.47066395493846"/>
<polyline points="-226.5245831987036 -247.69491885258742 -228.66646677895667 -253.77464617741867"/>
<polyline points="-202.75122894246658 -239.8500940611618 -208.1103318222015 -246.88219095639673"/>
<polyline points="-202.75122894246658 -239.8500940611618 -208.1103318222015 -246.88219095639673"/>
<polyline points="-178.87700456260893 -199.35625608047357 -184.25437131151216 -207.7750206126607"/>
<polyline points="-184.25437131151216 -207.7750206126607 -192.52915321870213 -210.42692626648648"/>
<polyline points="-184.25437131151216 -207.7750206126607 -192.52915321870213 -210.42692626648648"/>
<polyline points="-192.52915321870213 -210.42692626648648 -195.32633122585477 -217.10248494090746"/>
<polyline points="-154.54380314349663 -184.54861026369622 -159.92116989239992 -192.96737479588342 -178.90412261635007 -195.98955316565656 -188.63145372442014 -196.38007452871466 -198.2065908348934 -195.3057448746987 -220.56442585589298 -178.08228392087193"/>
<polyline points="-220.56442585589298 -178.08228392087193 -228.97058142187367 -173.89886929440112 -248.20130478585887 -169.03621459786999 -256.60746035183956 -164.8527999713992 -265.22437677818033 -160.07066160194574 -280.0774416619464 -136.30104768035284"/>
<polyline points="-280.0774416619464 -136.30104768035284 -285.21492327100543 -128.46930940981866"/>
<polyline points="-280.0774416619464 -136.30104768035284 -285.21492327100543 -128.46930940981866"/>
<polyline points="-280.0774416619464 -136.30104768035284 -287.9342001669056 -130.1243774006473"/>
<polyline points="-287.9342001669056 -130.1243774006473 -297.8247324867719 -130.64028696688678"/>
<polyline points="-265.22437677818033 -160.07066160194574 -273.0811352831394 -153.8939913222402 -286.12686450295803 -149.43784892154025 -289.02200684820366 -143.52827486740014 -293.7050085559695 -142.32003604335617 -296.53763684939906 -149.05327757276456"/>
<polyline points="-296.53763684939906 -149.05327757276456 -294.99908889893953 -144.72722854454233 -300.8583026174686 -141.20024860938443 -299.3197546670089 -136.87419958116234 -300.4290250732546 -136.86921489274923 -295.9012650974468 -149.87168108115605"/>
<polyline points="-295.9012650974468 -149.87168108115605 -287.27759395803474 -144.90070443184626"/>
<polyline points="-295.9012650974468 -149.87168108115605 -290.4258288140759 -148.38797051549048"/>
<polyline points="-296.53763684939906 -149.05327757276456 -299.1346172909621 -146.40951249504596"/>
<polyline points="-273.0811352831394 -153.8939913222402 -281.3338513597325 -149.15044875584618"/>
<polyline points="-198.2065908348934 -195.3057448746987 -207.94970317483265 -193.08311498329053"/>
<polyline points="-178.90412261635007 -195.98955316565656 -186.67066238119085 -202.15475813584615"/>
<polyline points="-145.4769653681694 -167.66973855506194 -147.7850477913892 -174.0118821632099"/>
<polyline points="-134.6095630491591 -148.34894450167462 -133.62497873710709 -153.4229320014977"/>
<polyline points="-124.98547173735501 -110.88138298619624 -127.77376638710685 -113.70192261921159"/>
<polyline points="-117.28282488780172 -108.25196888128747 -125.25868871251856 -105.32947670487701"/>
<polyline points="-96.687352699527 -110.92676930735051 -104.0027535531971 -104.94277560310267"/>
<polyline points="-61.65295826032538 -125.12772980677275 -71.45359513730118 -125.624633392953"/>
<polyline points="-37.02896662974453 -116.38652217316266 -43.76010436076536 -123.6160152145332"/>
<polyline points="-43.76010436076536 -123.6160152145332 -48.76067722709098 -119.8713267052291"/>
<polyline points="-18.45217295059876 -109.27577561976817 -25.183310681619655 -116.5052686611387"/>
<polyline points="-14.823674847512875 -100.37138838717877 -18.45217295059876 -109.27577561976817"/>
<polyline points="7.836944204220877 -64.83536066354016 1.9128927794120767 -70.91501982218578"/>
<polyline points="1.9128927794120767 -70.91501982218578 -8.046914276097551 -71.0613810802165"/>
<polyline points="1.9128927794120767 -70.91501982218578 -8.046914276097551 -71.0613810802165"/>
<polyline points="-8.046914276097551 -71.0613810802165 -14.979124098118943 -69.40726529875593"/>
<polyline points="26.872643681682625 -41.67844176377062 20.948592256873845 -47.758100922416226 1.4610575535165138 -51.50028619982853 -5.853193452654063 -57.08800212785498 -15.15714398804757 -57.90886664432134 -36.09166060703781 -50.06645732163227"/>
<polyline points="-36.09166060703781 -50.06645732163227 -40.88557066070396 -54.081062715774955 -57.72374084816299 -56.83163270853992 -62.517650901829185 -60.846238102682655 -69.85422745775274 -60.46870008648271 -83.4127647430307 -46.55071976325203"/>
<polyline points="-83.4127647430307 -46.55071976325203 -84.70942199478803 -47.801815306676716"/>
<polyline points="-83.4127647430307 -46.55071976325203 -84.70942199478803 -47.801815306676716"/>
<polyline points="-83.4127647430307 -46.55071976325203 -88.86080837327795 -46.94721122415577"/>
<polyline points="-88.86080837327795 -46.94721122415577 -96.77248097633043 -51.91095395153804"/>
<polyline points="-69.85422745775274 -60.46870008648271 -75.30227108800003 -60.86519154738651 -92.64930970413003 -51.7815460352712 -97.67865760062419 -44.04650296830332 -105.6849423510184 -38.0548922680494 -123.33380228550757 -18.281873470490524"/>
<polyline points="-123.33380228550757 -18.281873470490524 -125.49984311446744 -8.528850601224505 -138.92271112307935 6.280673667387396 -141.08875195203913 16.03369653665344 -146.81911372909556 23.76151355115843 -158.12079634873672 41.427027288967075"/>
<polyline points="-158.12079634873672 41.427027288967075 -152.98722894884983 49.8044971840616"/>
<polyline points="-158.12079634873672 41.427027288967075 -157.115570712114 50.818740606591135"/>
<polyline points="-146.81911372909556 23.76151355115843 -150.2591445373719 32.67212799310105"/>
<polyline points="-146.81911372909556 23.76151355115843 -150.2591445373719 32.67212799310105"/>
<polyline points="-123.33380228550757 -18.281873470490524 -129.54726444079705 -10.453481438515443"/>
<polyline points="-129.54726444079705 -10.453481438515443 -139.51058489191826 -10.081602357969137"/>
<polyline points="-129.54726444079705 -10.453481438515443 -139.51058489191826 -10.081602357969137"/>
<polyline points="-139.51058489191826 -10.081602357969137 -147.40026744156123 -7.887871838507773"/>
<polyline points="-105.6849423510184 -38.0548922680494 -111.89840450630791 -30.22650023607423 -130.62916088030767 -28.835705520502962 -137.02067172298905 -26.36626902998363 -145.70190422317873 -27.79012946165154 -164.20135749962225 -45.5752057739058"/>
<polyline points="-164.20135749962225 -45.5752057739058 -167.67119022961649 -46.45925151500661 -182.77968303095227 -50.08823940806609 -186.2495157609466 -50.97228514916681 -192.6254837634573 -55.08061556522397 -203.79936360593427 -79.3572585134892"/>
<polyline points="-203.79936360593427 -79.3572585134892 -203.69832358813898 -83.58374136430649"/>
<polyline points="-203.79936360593427 -79.3572585134892 -203.69832358813898 -83.58374136430649"/>
<polyline points="-203.79936360593427 -79.3572585134892 -208.04980512465912 -83.61925674589384"/>
<polyline points="-208.04980512465912 -83.61925674589384 -215.1133302117258 -81.51115279230868"/>
<polyline points="-192.6254837634573 -55.08061556522397 -196.8759252821821 -59.342613797628594 -214.02254812644568 -69.58307942488773 -218.93264000295545 -78.29297555296384 -227.20149543580226 -83.53489954961016 -247.6828731393336 -93.13265193492822"/>
<polyline points="-247.6828731393336 -93.13265193492822 -250.33362173588702 -101.6540957323781 -264.56704203168687 -114.09120989877003 -267.21779062824027 -122.61265369621988 -273.69897152758597 -127.81441726035064 -288.7646532552159 -131.53694087247047"/>
<polyline points="-288.7646532552159 -131.53694087247047 -284.41938661087676 -137.5066948615577"/>
<polyline points="-288.7646532552159 -131.53694087247047 -288.75234872741487 -137.6965240165716"/>
<polyline points="-273.69897152758597 -127.81441726035064 -278.0137267429473 -133.83998095193004"/>
<polyline points="-247.6828731393336 -93.13265193492822 -254.24005482420276 -100.0642476765945"/>
<polyline points="-214.02254812644568 -69.58307942488773 -220.89834450429788 -74.42312493163762"/>
<polyline points="-220.89834450429788 -74.42312493163762 -227.9661398084895 -67.39122573580981"/>
<polyline points="-196.8759252821821 -59.342613797628594 -203.7517216600343 -64.18265930437848"/>
<polyline points="-192.6254837634573 -55.08061556522397 -196.8759252821821 -59.342613797628594"/>
<polyline points="-164.20135749962225 -45.5752057739058 -171.39432107825334 -46.713889919103224"/>
<polyline points="-171.39432107825334 -46.713889919103224 -181.17899434891243 -48.43762547362519"/>
<polyline points="-171.39432107825334 -46.713889919103224 -181.17899434891243 -48.43762547362519"/>
<polyline points="-181.17899434891243 -48.43762547362519 -189.8583983828659 -43.738089091426986"/>
<polyline points="-145.70190422317873 -27.79012946165154 -152.89486780180982 -28.928813606848948 -170.80027724588746 -37.61275571881111 -176.6448016765206 -45.68863879500606 -184.50195457877732 -51.030534422914336 -198.71654083125946 -66.08050892793003"/>
<polyline points="-198.71654083125946 -66.08050892793003 -201.01879181145733 -75.53580444766166 -214.07853581183335 -88.97178140741883 -216.38078679203105 -98.4270769271505 -221.42273804265542 -104.99320127996403 -227.7649865455677 -116.73952499243612"/>
<polyline points="-227.7649865455677 -116.73952499243612 -226.1360588720941 -125.21281739148013"/>
<polyline points="-227.7649865455677 -116.73952499243612 -226.1360588720941 -125.21281739148013"/>
<polyline points="-227.7649865455677 -116.73952499243612 -230.53475665966332 -124.54496081215949"/>
<polyline points="-230.53475665966332 -124.54496081215949 -237.05010316546586 -132.12115491705606"/>
<polyline points="-221.42273804265542 -104.99320127996403 -224.19250815675107 -112.79863709968731 -239.62199592790685 -114.26257961245649 -243.32745888429207 -113.55498431383441 -251.00110843269113 -111.70541484022311 -272.02641191841786 -93.00572818886307"/>
<polyline points="-272.02641191841786 -93.00572818886307 -273.99554669159727 -87.81555173754805 -287.0778340547719 -81.24462974810511 -289.0469688279514 -76.05445329679 -295.3419325782931 -70.5573978123054 -312.44614422593924 -46.12593221184864"/>
<polyline points="-312.44614422593924 -46.12593221184864 -308.09758737951654 -38.37357346054413"/>
<polyline points="-312.44614422593924 -46.12593221184864 -312.4637479732035 -37.63001158534066"/>
<polyline points="-295.3419325782931 -70.5573978123054 -299.51655000138584 -63.62724086481785"/>
<polyline points="-295.3419325782931 -70.5573978123054 -299.51655000138584 -63.62724086481785"/>
<polyline points="-272.02641191841786 -93.00572818886307 -277.89241745453256 -89.8600097226136"/>
<polyline points="-277.89241745453256 -89.8600097226136 -287.64876012423775 -91.34993241789661"/>
<polyline points="-277.89241745453256 -89.8600097226136 -287.64876012423775 -91.34993241789661"/>
<polyline points="-287.64876012423775 -91.34993241789661 -293.5287148581617 -96.13687220663081"/>
<polyline points="-251.00110843269113 -111.70541484022311 -256.8671139688058 -108.5596963739736 -276.7907201742387 -106.85286951817494 -285.0331231844836 -101.32347524801352 -294.7197890898133 -100.6267312118848 -316.9024049738159 -104.17105690601765"/>
<polyline points="-316.9024049738159 -104.17105690601765 -322.9403747763021 -98.4904327394157 -341.0539605479061 -94.73890358733223 -347.0919303503923 -89.05827942073034 -355.0804728405149 -88.15927224997698 -369.68395190540815 -95.45313418108307"/>
<polyline points="-369.68395190540815 -95.45313418108307 -372.2181197849383 -91.21657959312206"/>
<polyline points="-369.68395190540815 -95.45313418108307 -372.2181197849383 -91.21657959312206"/>
<polyline points="-369.68395190540815 -95.45313418108307 -376.06686121088893 -93.05305990279943"/>
<polyline points="-376.06686121088893 -93.05305990279943 -384.79792835119656 -88.29758080553067"/>
<polyline points="-355.0804728405149 -88.15927224997698 -361.46338214599547 -85.75919797169344 -378.15082711153633 -95.23349734394795 -382.7778431092652 -101.86607121438016 -390.08190294597046 -108.54009101600573 -403.90871228328353 -134.0174694481605"/>
<polyline points="-403.90871228328353 -134.0174694481605 -405.10943764293796 -143.2804904513886 -416.7908740203221 -159.15517326186975 -417.9915993799765 -168.41819426509787 -422.55838817917214 -177.307881630416 -429.47978591026447 -202.40197814601373"/>
<polyline points="-429.47978591026447 -202.40197814601373 -421.216423179964 -206.78366898118483"/>
<polyline points="-429.47978591026447 -202.40197814601373 -427.1578364771241 -212.1266445274789"/>
<polyline points="-416.7908740203221 -159.15517326186975 -423.11055669456647 -164.14710792190516"/>
<polyline points="-390.08190294597046 -108.54009101600573 -395.46600743058264 -116.58066809053048"/>
<polyline points="-355.0804728405149 -88.15927224997698 -361.46338214599547 -85.75919797169344"/>
<polyline points="-341.0539605479061 -94.73890358733223 -350.00822948416055 -90.34534518037047"/>
<polyline points="-294.7197890898133 -100.6267312118848 -303.5948808731772 -97.83162410562753"/>
<polyline points="-256.8671139688058 -108.5596963739736 -265.28796209633504 -106.4528509149987"/>
<polyline points="-239.62199592790685 -114.26257961245649 -245.17804506835833 -119.69923760780891"/>
<polyline points="-245.17804506835833 -119.69923760780891 -252.98934124642813 -121.91812762337646"/>
<polyline points="-224.19250815675107 -112.79863709968731 -229.74855729720244 -118.23529509503989"/>
<polyline points="-221.42273804265542 -104.99320127996403 -224.19250815675107 -112.79863709968731"/>
<polyline points="-198.71654083125946 -66.08050892793003 -204.92005815905716 -73.3931620547088"/>
<polyline points="-204.92005815905716 -73.3931620547088 -214.4558727142833 -72.97615029506196"/>
<polyline points="-204.92005815905716 -73.3931620547088 -214.4558727142833 -72.97615029506196"/>
<polyline points="-214.4558727142833 -72.97615029506196 -223.45775929028824 -75.90202651071664"/>
<polyline points="-184.50195457877732 -51.030534422914336 -190.70547190657507 -58.34318754969312 -207.41593370714216 -57.030024552017515 -212.02339977950373 -57.428416899301716 -219.39408518711963 -54.45872374434194 -233.7380960862081 -32.576164902989966"/>
<polyline points="-233.7380960862081 -32.576164902989966 -235.00359988613337 -29.43400916324786 -246.84630088821555 -22.1884578664968 -248.1118046881409 -19.046302126754682 -252.81326079530706 -13.214142054619254 -260.3883838548315 14.115805423630105"/>
<polyline points="-260.3883838548315 14.115805423630105 -258.204723037646 20.2320228249276"/>
<polyline points="-260.3883838548315 14.115805423630105 -258.204723037646 20.2320228249276"/>
<polyline points="-260.3883838548315 14.115805423630105 -262.68639661774716 20.293423432552423"/>
<polyline points="-262.68639661774716 20.293423432552423 -268.06370727720014 20.171039787531445"/>
<polyline points="-252.81326079530706 -13.214142054619254 -255.11127355822273 -7.036524045697019 -271.4763837336601 4.211257616880988 -276.21338504078335 12.949848848125187 -284.67728376428676 18.104400731111742 -308.9821737779193 24.325652873350215"/>
<polyline points="-308.9821737779193 24.325652873350215 -312.4995708574068 31.7801817139258 -327.7192529103775 43.30347654768133 -331.23664998986493 50.75800538825687 -338.7546284795738 54.98280372926506 -359.18655212576 53.832955631525515"/>
<polyline points="-359.18655212576 53.832955631525515 -356.41679786989897 57.88238737442417"/>
<polyline points="-359.18655212576 53.832955631525515 -360.8917953924758 58.08019419449547"/>
<polyline points="-338.7546284795738 54.98280372926506 -344.41394528675227 59.621747180739945"/>
<polyline points="-338.7546284795738 54.98280372926506 -344.41394528675227 59.621747180739945"/>
<polyline points="-308.9821737779193 24.325652873350215 -315.97784404931207 30.80818786705092"/>
<polyline points="-315.97784404931207 30.80818786705092 -325.5675533396095 31.67128368193761"/>
<polyline points="-315.97784404931207 30.80818786705092 -325.5675533396095 31.67128368193761"/>
<polyline points="-325.5675533396095 31.67128368193761 -331.42750886374347 38.12421277226531"/>
<polyline points="-284.67728376428676 18.104400731111742 -291.6729540356794 24.58693572481234 -311.5713061577743 22.92033874293238 -320.2936870336351 20.32286442004817 -329.6758709161949 16.991819709419254 -348.93673346557637 -4.3191661451572685"/>
<polyline points="-348.93673346557637 -4.3191661451572685 -355.0384670710971 -11.05547288858081 -372.5692922032148 -20.6758936666302 -378.6710258087356 -27.412200410053742 -386.0248319402979 -34.13491937936892 -396.75521037493723 -59.54853549588374"/>
<polyline points="-396.75521037493723 -59.54853549588374 -398.8808343597116 -68.86774930457592"/>
<polyline points="-396.75521037493723 -59.54853549588374 -398.8808343597116 -68.86774930457592"/>
<polyline points="-396.75521037493723 -59.54853549588374 -402.57880621687906 -67.64605156532626"/>
<polyline points="-402.57880621687906 -67.64605156532626 -411.69606525423825 -70.05606510583002"/>
<polyline points="-386.0248319402979 -34.13491937936892 -391.8484277822398 -42.23243544881133 -406.436634780363 -48.26689624811249 -409.4894795701483 -53.756161713031304 -415.6494166856955 -55.105319623748876 -426.73508849395245 -45.83186514220337"/>
<polyline points="-426.73508849395245 -45.83186514220337 -426.31144646293325 -48.41944056232548 -435.36055140987213 -51.04737989451394 -434.9369093788529 -53.63495531463602 -438.29894183459606 -52.70314770675643 -443.4001037376778 -35.72971508228792"/>
<polyline points="-443.4001037376778 -35.72971508228792 -436.1690780547985 -35.75340906441869"/>
<polyline points="-443.4001037376778 -35.72971508228792 -439.80541510940117 -34.603360862958354"/>
<polyline points="-438.29894183459606 -52.70314770675643 -439.13258082333994 -51.79925261107006"/>
<polyline points="-426.73508849395245 -45.83186514220337 -430.707817562613 -47.90663995361524"/>
<polyline points="-406.436634780363 -48.26689624811249 -413.7758124321818 -54.68136343627598"/>
<polyline points="-413.7758124321818 -54.68136343627598 -421.7901451333486 -49.43474285385627"/>
<polyline points="-391.8484277822398 -42.23243544881133 -399.18760543405836 -48.646902636974936"/>
<polyline points="-386.0248319402979 -34.13491937936892 -391.8484277822398 -42.23243544881133"/>
<polyline points="-348.93673346557637 -4.3191661451572685 -357.6594679000444 -9.08016026850879"/>
<polyline points="-357.6594679000444 -9.08016026850879 -366.114080273593 -8.393240203630807"/>
<polyline points="-357.6594679000444 -9.08016026850879 -366.114080273593 -8.393240203630807"/>
<polyline points="-366.114080273593 -8.393240203630807 -375.50637472309046 -5.1949148149316615"/>
<polyline points="-329.6758709161949 16.991819709419254 -338.3986053506627 12.230825586067677 -352.9664390520678 9.515724296106859 -357.3058020289044 3.914554956610975 -362.71551671332855 3.201910823531271 -366.40026249707176 9.296685850133079"/>
<polyline points="-366.40026249707176 9.296685850133079 -366.2098588865745 4.467739952534854 -373.85012476106084 1.31734504615031 -373.65972115056377 -3.511600851447802 -375.4367819178984 -3.677139623519411 -370.6797851175912 7.449894947039955"/>
<polyline points="-370.6797851175912 7.449894947039955 -366.10348194732256 4.786244542244767"/>
<polyline points="-370.6797851175912 7.449894947039955 -366.10348194732256 4.786244542244767"/>
<polyline points="-370.6797851175912 7.449894947039955 -370.13432001284457 6.143733990711201"/>
<polyline points="-370.13432001284457 6.143733990711201 -375.05331570383953 1.2510830691418136"/>
<polyline points="-375.4367819178984 -3.677139623519411 -374.89131681315166 -4.983300579848126 -384.9256763772699 4.548885730255376 -385.5005022131086 11.926108264649125 -390.97200418479525 18.38954094761633 -410.3311163600728 41.28016561693149"/>
<polyline points="-410.3311163600728 41.28016561693149 -410.3479372589137 50.97603787432061 -419.2290298370177 66.61677122213054 -419.2458507358583 76.31264347951962 -424.2564673468931 84.74995943229918 -443.2423422013864 106.2649429594266"/>
<polyline points="-443.2423422013864 106.2649429594266 -439.0150627247942 114.4508606426338"/>
<polyline points="-443.2423422013864 106.2649429594266 -442.98190157476694 115.95830024878234"/>
<polyline points="-424.2564673468931 84.74995943229918 -427.4087356379426 94.22919201929214"/>
<polyline points="-424.2564673468931 84.74995943229918 -427.4087356379426 94.22919201929214"/>
<polyline points="-410.3311163600728 41.28016561693149 -413.9093731433301 49.37727879574666"/>
<polyline points="-413.9093731433301 49.37727879574666 -422.22323949108363 50.55770509582024"/>
<polyline points="-413.9093731433301 49.37727879574666 -422.22323949108363 50.55770509582024"/>
<polyline points="-422.22323949108363 50.55770509582024 -424.78535752284455 52.38225489298537"/>
<polyline points="-390.97200418479525 18.38954094761633 -394.55026096805244 26.4866541264314 -413.27084424411134 30.226112940618474 -422.2706489952742 34.2317920090242 -432.1790293996304 34.1692242725555 -458.669476586699 20.33488480670151"/>
<polyline points="-458.669476586699 20.33488480670151 -467.0557342091957 21.149489136360742 -487.01313378704845 20.57391433129864 -495.39939140954505 21.388518660958095 -504.9128745185878 18.792104661584613 -525.4244028752177 -2.2456865034575055"/>
<polyline points="-525.4244028752177 -2.2456865034575055 -531.3088491963115 -5.016540315620934"/>
<polyline points="-525.4244028752177 -2.2456865034575055 -531.3088491963115 -5.016540315620934"/>
<polyline points="-525.4244028752177 -2.2456865034575055 -534.1370255464858 -4.914626260715656"/>
<polyline points="-534.1370255464858 -4.914626260715656 -543.4145592282032 -1.299550194809794"/>
<polyline points="-504.9128745185878 18.792104661584613 -513.6254971898559 16.123164904326504 -529.3943486309389 7.3908858307216025 -534.4897970586553 -0.8765885117065996 -540.63859669544 -5.780902794510086 -546.7308926123986 -16.858994343551924"/>
<polyline points="-546.7308926123986 -16.858994343551924 -547.4461635504749 -25.769842869060184 -556.7529037930171 -38.045023671064726 -557.4681747310934 -46.95587219657292 -560.114853540013 -52.490420109124564 -557.5180178304724 -59.07874660303243"/>
</svg>
