<svg transform="scale(1,-1)" viewBox="-202.7577858738373 -178.113106025519 411.72857453930226 400.34675030834984" xmlns="http://www.w3.org/2000/svg">
<style>
svg { stroke:black; stroke-width:2; fill:none;}
</style>
<polyline points="108.95879695033057 -0.6412920167622311 107.32811488857742 -5.871167080951916 105.44207631553158 -13.073914288724982"/>
<polyline points="105.44207631553157 -13.073914288724994 103.55603774248561 -20.276661496498054 101.54317307007203 -28.961425528744837"/>
<polyline points="101.54317307007203 -28.961425528744837 99.53030839765846 -37.646189560991644 97.52779102688608 -47.22111810116573"/>
<polyline points="97.52779102688608 -47.22111810116573 95.5252736561137 -56.79604664133981 93.66957183648425 -66.60862413274585"/>
<polyline points="93.66957183648425 -66.60862413274585 91.81387001685479 -76.42120162415192 90.23144676068374 -85.80271712680167"/>
<polyline points="90.23144676068374 -85.80271712680167 88.6490235045127 -95.18423262945143 87.44771834163004 -103.49535136552667"/>
<polyline points="87.44771834163004 -103.49535136552667 86.24641317874737 -111.80647010160193 85.5080930707529 -118.48080306401226"/>
<polyline points="85.5080930707529 -118.48080306401226 84.76977296275842 -125.15513602642262 84.54475320488032 -129.73783845363653"/>
<polyline points="84.54475320488032 -129.73783845363653 84.31973344700219 -134.32054088085044 84.62334876387709 -136.49930917572715"/>
<polyline points="84.62334876387709 -136.49930917572715 84.92696408075197 -138.67807747060385 85.7385235902829 -138.30443217443232"/>
<polyline points="85.7385235902829 -138.30443217443232 86.55008309981379 -137.93078687826076 87.8142803625917 -135.03019130049705"/>
<polyline points="87.8142803625917 -135.03019130049705 89.07847762536962 -132.1295957227333 90.70915968712096 -126.8997206585412"/>
<polyline points="90.70915968712096 -126.8997206585412 92.33984174887232 -121.66984559434907 94.22588032191825 -114.46709838657598"/>
<polyline points="94.22588032191825 -114.46709838657598 96.11191889496418 -107.26435117880293 98.12478356737776 -98.57958714655616"/>
<polyline points="98.12478356737776 -98.57958714655616 100.13764823979133 -89.89482311430933 102.14016561056371 -80.31989457413526"/>
<polyline points="102.14016561056371 -80.31989457413526 104.14268298133608 -70.7449660339612 105.99838480096557 -60.93238854255513"/>
<polyline points="105.99838480096557 -60.93238854255513 107.85408662059501 -51.119811051149085 109.43650987676605 -41.73829554849932"/>
<polyline points="109.43650987676605 -41.73829554849932 111.01893313293711 -32.35678004584959 112.22023829581978 -24.04566130977432"/>
<polyline points="112.22023829581978 -24.04566130977432 113.42154345870246 -15.734542573699065 114.15986356669691 -9.060209611288716"/>
<polyline points="114.15986356669691 -9.060209611288716 114.89818367469137 -2.3858766488783645 115.12320343256948 2.1968257783355547"/>
<polyline points="115.12320343256948 2.1968257783355547 115.3482231904476 6.7795282055494726 115.04460787357273 8.958296500426155"/>
<polyline points="115.04460787357273 8.958296500426155 114.74099255669783 11.137064795302843 113.92943304716692 10.763419499131308"/>
<polyline points="113.92943304716692 10.763419499131308 113.11787353763602 10.389774202959781 111.85367627485812 7.489178625196043"/>
<polyline points="111.85367627485812 7.489178625196043 110.58947901208022 4.5885830474323255 108.95879695032885 -0.6412920167598082"/>
<polyline points="108.95879695032885 -0.6412920167598082 107.32811488857752 -5.87116708095196 105.44207631553157 -13.073914288725007"/>
<polyline points="105.44207631553157 -13.073914288725007 103.5560377424856 -20.276661496498065 101.54317307007202 -28.96142552874485"/>
<polyline points="101.54317307007202 -28.96142552874485 99.53030839765846 -37.64618956099167 97.52779102688608 -47.22111810116573"/>
<polyline points="97.52779102688608 -47.22111810116573 95.5252736561137 -56.79604664133983 93.66957183648425 -66.60862413274587"/>
<polyline points="93.66957183648425 -66.60862413274587 91.8138700168548 -76.42120162415193 90.23144676068374 -85.80271712680168"/>
<polyline points="90.23144676068374 -85.80271712680168 88.6490235045127 -95.18423262945143 87.44771834163004 -103.49535136552667"/>
<polyline points="87.44771834163004 -103.49535136552667 95.15973600904843 -119.7810577354533 91.00499337096339 -115.34407755008414"/>
<polyline points="95.15973600904843 -119.7810577354533 91.01306591608163 -113.26925681453673"/>
<polyline points="86.86639582311484 -106.75745589362018 82.71972573014801 -100.24565497270359"/>
<polyline points="82.71972573014801 -100.24565497270359 78.56498309206297 -95.80867478733443"/>
<polyline points="82.71972573014801 -100.24565497270359 95.44695772287257 -107.51362165535049 90.193800773035 -108.66681539318033"/>
<polyline points="95.44695772287257 -107.51362165535049 89.43367356065609 -106.22947046279756"/>
<polyline points="83.42038939843958 -104.94531927024461 77.4071052362231 -103.6611680776917"/>
<polyline points="77.4071052362231 -103.6611680776917 72.15394828638554 -104.81436181552155"/>
<polyline points="77.4071052362231 -103.6611680776917 91.53950197379417 -99.579725202161 87.23424330598189 -105.97972022308254"/>
<polyline points="91.53950197379417 -99.579725202161 85.653202670521 -103.94896154979793"/>
<polyline points="79.76690336724783 -108.31819789743486 73.88060406397469 -112.68743424507176"/>
<polyline points="73.88060406397469 -112.68743424507176 69.5753453961624 -119.08742926599326"/>
<polyline points="44.44910754760883 -134.53361598325628 36.887394276045185 -138.97996210790728"/>
<polyline points="29.325681004481545 -143.42630823255823 28.89289507831369 -158.26205322962565 28.88475372914038 -148.48519738814866"/>
<polyline points="28.89289507831369 -158.26205322962565 29.000694046020516 -149.36140689010801"/>
<polyline points="29.108493013727312 -140.4607605505904 29.216291981434143 -131.56011421107274"/>
<polyline points="29.216291981434143 -131.56011421107274 29.208150632260832 -121.78325836959573"/>
<polyline points="29.216291981434143 -131.56011421107274 31.80975980828668 -140.9774761572824 34.43052026902745 -150.61702049430826"/>
<polyline points="34.43052026902745 -150.61702049430826 37.05128072976829 -160.25656483133417 39.520733330009286 -169.46137254270826"/>
<polyline points="39.520733330009286 -169.46137254270826 37.370877704011086 -161.31859389085213 35.6871281603631 -154.79276120706004"/>
<polyline points="39.169444301248404 -126.8573490093108 37.48569475760042 -120.33151632551873"/>
<polyline points="35.80194521395244 -113.80568364172663 46.840194162562405 -107.75437715520465 42.77102888103987 -105.95417279643964"/>
<polyline points="46.840194162562405 -107.75437715520465 41.87693016502329 -108.38871617541902"/>
<polyline points="36.91366616748414 -109.02305519563339 31.950402169945004 -109.65739421584779"/>
<polyline points="31.950402169945004 -109.65739421584779 27.881236888422464 -107.85718985708279"/>
<polyline points="31.950402169945004 -109.65739421584779 27.881236888422464 -107.85718985708279 24.983477212238657 -103.7451230714098"/>
<polyline points="24.983477212238657 -103.7451230714098 23.454600674551248 -97.6014244147608 23.39879768481572 -89.84477679764439"/>
<polyline points="23.39879768481572 -89.84477679764439 23.34299469508016 -82.08812918052793 24.764068134828154 -73.24713531958425"/>
<polyline points="24.764068134828154 -73.24713531958425 26.18514157457615 -64.40614145864062 28.986247637323746 -55.08330047505987"/>
<polyline points="28.986247637323746 -55.08330047505987 31.787353700071336 -45.76045949147912 35.77760163668894 -36.59110759156915"/>
<polyline points="35.77760163668894 -36.59110759156915 39.76784957330653 -27.421755691659175 44.675310581110125 -19.030769054328363 56.63733271631323 -3.1603617995639306 49.42304255069311 -9.132347545696847"/>
<polyline points="56.63733271631323 -3.1603617995639306 49.80694218626814 -10.35925274699016"/>
<polyline points="42.976551656223066 -17.558143694416373 36.14616112617797 -24.757034641842587"/>
<polyline points="36.14616112617797 -24.757034641842587 28.931870960557873 -30.72902038797549"/>
<polyline points="44.675310581110125 -19.030769054328363 39.76784957330653 -27.421755691659175 34.27761085203598 -34.462545193837805"/>
<polyline points="34.27761085203598 -34.462545193837805 28.78737213076543 -41.50333469601643 23.088506391834013 -46.71410889392418"/>
<polyline points="23.088506391834013 -46.71410889392418 17.389640652902624 -51.924883091831944 11.870516178597624 -54.95053633509294"/>
<polyline points="11.870516178597624 -54.95053633509294 6.351391704292629 -57.97618957835393 1.3881277067534814 -58.61052859856833"/>
<polyline points="1.3881277067534814 -58.61052859856833 -3.575136290785669 -59.244867618782706 -7.644301572308229 -57.444663260017684"/>
<polyline points="-7.644301572308229 -57.444663260017684 -11.713466853830807 -55.64445890125264 -14.611226530014596 -51.532392115579675"/>
<polyline points="-14.611226530014596 -51.532392115579675 -11.41324932147469 -47.971298199415195 -15.25174457703609 -53.70879041641091"/>
<polyline points="-11.41324932147469 -47.971298199415195 -14.227898082198523 -51.86292164008923"/>
<polyline points="-17.04254684292238 -55.7545450807633 -19.857195603646232 -59.64616852143737"/>
<polyline points="-19.857195603646232 -59.64616852143737 -23.69569085920763 -65.3836607384331"/>
<polyline points="-19.857195603646232 -59.64616852143737 -8.008196668605999 -51.22291476618264 -14.864209511538062 -58.05855768932084"/>
<polyline points="-8.008196668605999 -51.22291476618264 -14.62387665283047 -56.94140240783075"/>
<polyline points="-21.239556637054967 -62.659890049478854 -27.85523662127944 -68.37837769112697"/>
<polyline points="-27.85523662127944 -68.37837769112697 -34.71124946421152 -75.21402061426514"/>
<polyline points="-27.85523662127944 -68.37837769112697 -10.842173304659982 -58.51167570403299 -18.222027641984198 -64.49229653523952"/>
<polyline points="-10.842173304659982 -58.51167570403299 -19.065571811700046 -64.16116323595003"/>
<polyline points="-27.28897031874012 -69.81065076786706 -35.51236882578019 -75.4601382997841"/>
<polyline points="-35.51236882578019 -75.4601382997841 -42.8922231631044 -81.44075913099063"/>
<polyline points="-76.62936136098054 -103.70757595936931 -86.0326593488692 -107.0291902831949"/>
<polyline points="-95.43595733675788 -110.35080460702044 -103.50369416404585 -125.42761024339957 -99.75955874992964 -121.82004936844207"/>
<polyline points="-103.50369416404585 -125.42761024339957 -99.47750311703658 -119.6580348837842"/>
<polyline points="-95.4513120700273 -113.88845952416875 -91.425121023018 -108.11888416455335"/>
<polyline points="-91.425121023018 -108.11888416455335 -87.68098560890178 -104.51132328959585"/>
<polyline points="-91.425121023018 -108.11888416455335 -92.67696565056998 -112.3819656591612 -93.47652075343277 -114.214847033794"/>
<polyline points="-93.47652075343277 -114.214847033794 -94.27607585629553 -116.04772840842682 -94.56885307553624 -115.32550182638299"/>
<polyline points="-94.56885307553624 -115.32550182638299 -94.8028060235716 -118.55361781707298 -95.54754563209991 -124.06763244635752"/>
<polyline points="-88.28521308760173 -147.41318755524097 -89.02995269613002 -152.92720218452553"/>
<polyline points="-89.77469230465833 -158.4412168138101 -80.56135621405272 -175.113106025519 -81.95436898808043 -165.235791395105"/>
<polyline points="-80.56135621405272 -175.113106025519 -83.6670195352108 -165.68522929804763"/>
<polyline points="-86.77268285636886 -156.25735257057633 -89.87834617752699 -146.82947584310497"/>
<polyline points="-89.87834617752699 -146.82947584310497 -91.27135895155463 -136.95216121269104"/>
<polyline points="-89.87834617752699 -146.82947584310497 -91.27135895155463 -136.95216121269104 -90.85678965996449 -127.29853134836283"/>
<polyline points="-90.85678965996449 -127.29853134836283 -88.66289051487009 -118.52646517199685 -84.83917211742 -111.23376449698756"/>
<polyline points="-84.83917211742 -111.23376449698756 -81.01545371996988 -103.94106382197835 -75.82249615995688 -98.62471414756995"/>
<polyline points="-75.82249615995688 -98.62471414756995 -70.62953859994384 -93.30836447316159 -64.42123335331458 -90.33066624398184"/>
<polyline points="-64.42123335331458 -90.33066624398184 -58.21292810668534 -87.35296801480209 -51.412360916288165 -86.91684644429054"/>
<polyline points="-51.412360916288165 -86.91684644429054 -44.611793725890955 -86.48072487377907 -37.682412007282785 -88.6159009262411 -20.818744591638477 -86.99718847360056 -28.817433170112245 -82.75945421109806"/>
<polyline points="-20.818744591638477 -86.99718847360056 -29.323808768988073 -85.22252941445028"/>
<polyline points="-37.82887294633766 -83.44787035529997 -46.33393712368724 -81.67321129614972"/>
<polyline points="-46.33393712368724 -81.67321129614972 -54.33262570216102 -77.43547703364716"/>
<polyline points="-37.682412007282785 -88.6159009262411 -44.61179372589096 -86.48072487377904 -51.19776405993173 -81.91975991777339"/>
<polyline points="-51.19776405993173 -81.91975991777339 -57.7837343939725 -77.35879496176776 -63.5774703490116 -70.68286332661934"/>
<polyline points="-63.5774703490116 -70.68286332661934 -69.37120630405065 -64.00693169147092 -73.97787434935346 -55.67098708561648"/>
<polyline points="-73.97787434935346 -55.67098708561648 -78.5845423946563 -47.33504247976203 -81.69020571581436 -37.90716575229071"/>
<polyline points="-81.69020571581436 -37.90716575229071 -84.79586903697243 -28.479289024819366 -86.18888181100013 -18.601974394405367"/>
<polyline points="-86.18888181100013 -18.601974394405367 -87.58189458502787 -8.72465976399137 -87.16732529343763 0.9289701003367727"/>
<polyline points="-87.16732529343763 0.9289701003367727 -79.25122872655328 19.149031970074063 -86.14368994872369 12.32710177744676"/>
<polyline points="-79.25122872655328 19.149031970074063 -84.86786574479024 10.902042038816106"/>
<polyline points="-90.48450276302721 2.6550521075581432 -96.10113978126414 -5.5919378236998165"/>
<polyline points="-96.10113978126414 -5.5919378236998165 -102.99360100343455 -12.413868016327125"/>
<polyline points="-96.10113978126414 -5.5919378236998165 -79.66643188300512 5.760676526560981 -88.79386738439617 4.046916398423482"/>
<polyline points="-79.66643188300512 5.760676526560981 -88.64475556918114 1.9352962012106754"/>
<polyline points="-97.62307925535714 -1.8900841241396638 -106.60140294153317 -5.715464449489972"/>
<polyline points="-106.60140294153317 -5.715464449489972 -115.72883844292423 -7.4292245776274735"/>
<polyline points="-106.60140294153317 -5.715464449489972 -86.87876522226603 -5.082811102262828 -95.10615493600642 -1.164610669336338"/>
<polyline points="-86.87876522226603 -5.082811102262828 -96.24216978246287 -3.2183440483324395"/>
<polyline points="-105.6055743426597 -1.3538769944020699 -114.96897890285653 0.5105900595283235"/>
<polyline points="-114.96897890285653 0.5105900595283235 -123.19636861659694 4.428790492454798"/>
<polyline points="-161.78600170384072 9.832925329180224 -171.4261120560464 12.446102441152641"/>
<polyline points="-181.06622240825206 15.059279553125053 -191.6362094554093 24.555209071825693 -188.6117900199387 16.04511679266211"/>
<polyline points="-191.6362094554093 24.555209071825693 -187.33494080056212 17.69233374657986"/>
<polyline points="-183.0336721457148 10.829458421334008 -178.7324034908675 3.966583096088145"/>
<polyline points="-178.7324034908675 3.966583096088145 -175.70798405539693 -4.543509183075437"/>
<polyline points="-178.7324034908675 3.966583096088145 -179.6088099231133 12.113966418406157 -179.0754497177498 21.34097697741142"/>
<polyline points="-179.0754497177498 21.34097697741142 -178.54208951238616 30.567987536416634 -176.63531028598942 40.245819810868866"/>
<polyline points="-176.63531028598942 40.245819810868866 -179.78556468024212 30.776694097099572 -183.96460961142392 22.16158021293647"/>
<polyline points="-191.3996960114736 -13.68596102144141 -195.57874094265543 -22.30107490560449"/>
<polyline points="-199.7577858738373 -30.916188789767574 -198.16982558485418 -41.862922657228594 -196.2077180275932 -40.54640575657987"/>
<polyline points="-198.16982558485418 -41.862922657228594 -197.56515834179208 -38.34822015648644"/>
<polyline points="-196.9604910987299 -34.833517655744295 -196.35582385566778 -31.31881515500214"/>
<polyline points="-196.35582385566778 -31.31881515500214 -194.39371629840673 -30.00229825435342"/>
<polyline points="-196.35582385566778 -31.31881515500214 -194.39371629840673 -30.00229825435342 -191.2078828144382 -30.973685404930286"/>
<polyline points="-191.2078828144382 -30.973685404930286 -187.01543269085565 -34.166778177714086 -182.10207447523015 -39.36397257707495"/>
<polyline points="-182.10207447523015 -39.36397257707495 -177.18871625960458 -44.56116697643578 -171.88928719462237 -51.40828279282705"/>
<polyline points="-171.88928719462237 -51.40828279282705 -166.58985812964016 -58.25539860921832 -161.26550554835927 -66.28581621514687"/>
<polyline points="-161.26550554835927 -66.28581621514687 -155.94115296707838 -74.31623382107539 -150.9547226990044 -82.9826935275897"/>
<polyline points="-150.9547226990044 -82.9826935275897 -145.96829243093055 -91.64915323410398 -141.6596014583671 -100.36105013420699 -127.65609665009039 -114.61227956440266 -132.73873832445244 -107.78305775322336"/>
<polyline points="-127.65609665009039 -114.61227956440266 -133.91143932217042 -107.38872463581704"/>
<polyline points="-140.16678199425047 -100.16516970723139 -146.42212466633052 -92.94161477864573"/>
<polyline points="-146.42212466633052 -92.94161477864573 -151.50476634069258 -86.11239296746645"/>
<polyline points="-146.42212466633052 -92.94161477864573 -141.33948299196848 -99.77083658982501 -138.18991091141407 -106.2233318883159"/>
<polyline points="-138.18991091141407 -106.2233318883159 -135.04033883085964 -112.67582718680674 -134.03847447648872 -118.31186908126962"/>
<polyline points="-134.03847447648872 -118.31186908126962 -132.8243557045849 -113.87636753194273 -129.4769939942854 -110.94367842832554"/>
<polyline points="-111.07233847841971 -92.07201244125723 -107.7249767681202 -89.13932333764001"/>
<polyline points="-104.37761505782073 -86.20663423402279 -86.91009902210675 -78.6554334475399 -96.61648312058038 -77.44569262870951"/>
<polyline points="-86.91009902210675 -78.6554334475399 -96.45541897031366 -79.98362009737237"/>
<polyline points="-106.00073891852057 -81.31180674720481 -115.54605886672746 -82.63999339703727"/>
<polyline points="-115.54605886672746 -82.63999339703727 -125.25244296520114 -81.43025257820689"/>
<polyline points="-115.54605886672746 -82.63999339703727 -125.25244296520114 -81.43025257820689 -134.45841717818857 -77.76502612832572"/>
<polyline points="-134.45841717818857 -77.76502612832572 -142.53660957666654 -71.89409317288009 -148.93650469852284 -64.21754809060815"/>
<polyline points="-157.0146970970008 -58.34661513516249 -165.09288949547877 -52.475682179716856 -171.9802587119738 -45.3708098896509"/>
<polyline points="-171.9802587119738 -45.3708098896509 -178.86762792846883 -38.26593759958493 -184.09481113279242 -30.411311280110016"/>
<polyline points="-184.09481113279242 -30.411311280110016 -180.88403783768607 -38.480411825705396 -179.90848334580485 -46.21409073005799"/>
<polyline points="-171.25813738127906 -69.98440701193434 -170.2825828893977 -77.71808591628697"/>
<polyline points="-169.3070283975165 -85.45176482063954 -169.66895487710323 -86.89199098228353 -164.57689603725603 -87.0692366188375"/>
<polyline points="-169.66895487710323 -86.89199098228353 -166.93943779818903 -86.61098211519815"/>
<polyline points="-164.20992071927486 -86.32997324811275 -161.48040364036066 -86.04896438102736"/>
<polyline points="-161.48040364036066 -86.04896438102736 -156.3883448005135 -86.22621001758132"/>
<polyline points="-161.48040364036066 -86.04896438102736 -156.3883448005135 -86.22621001758132 -149.2807595946437 -86.84963116055569"/>
<polyline points="-149.2807595946437 -86.84963116055569 -140.64201820869147 -87.87674268930901 -131.06083659191438 -89.23754865053873"/>
<polyline points="-131.06083659191438 -89.23754865053873 -140.6420182086915 -87.876742689309 -150.51269836276148 -86.2749789730225"/>
<polyline points="-150.51269836276148 -86.2749789730225 -160.38337851683144 -84.67321525673597 -169.87088666776464 -82.9396513356179"/>
<polyline points="-169.87088666776464 -82.9396513356179 -161.41310852160584 -84.68687594519321 -154.5614439837429 -86.32869077350831"/>
<polyline points="-126.4396851892595 -82.48031514365552 -119.58802065139652 -84.12212997197065"/>
<polyline points="-112.73635611353359 -85.76394480028573 -107.49193252325139 -75.60726891098159 -105.49960617564805 -78.62377046005993"/>
<polyline points="-107.49193252325139 -75.60726891098159 -107.81798522336281 -79.79746616703255"/>
<polyline points="-108.1440379234742 -83.98766342308352 -108.47009062358562 -88.17786067913445"/>
<polyline points="-108.47009062358562 -88.17786067913445 -106.47776427598231 -91.1943622282128"/>
<polyline points="-108.47009062358562 -88.17786067913445 -106.47776427598231 -91.1943622282128 -102.30283262877848 -92.83159847475338"/>
<polyline points="-102.30283262877848 -92.83159847475338 -96.22981037433034 -92.97799447421522 -88.6725639431347 -91.62357358116589"/>
<polyline points="-88.6725639431347 -91.62357358116589 -96.22981037433034 -92.97799447421522 -104.7562671269277 -95.74093071420079"/>
<polyline points="-104.7562671269277 -95.74093071420079 -113.28272387952505 -98.5038669541864 -122.19732701647064 -102.48702900232126"/>
<polyline points="-122.19732701647064 -102.48702900232126 -113.50209296688139 -97.55508705713106 -105.6187938355744 -92.0104689080307"/>
<polyline points="-79.83872763974358 -62.14042249712731 -71.95542850843654 -56.595804348026995"/>
<polyline points="-64.0721293771295 -51.05118619892668 -62.32666082499558 -32.3192412762903 -61.168616733352515 -39.01548051223996"/>
<polyline points="-62.32666082499558 -32.3192412762903 -62.17897359694403 -40.63365386373312"/>
<polyline points="-62.03128636889245 -48.948066451175926 -61.88359914084092 -57.262479038618736"/>
<polyline points="-61.88359914084092 -57.262479038618736 -60.72555504919784 -63.9587182745684"/>
<polyline points="-61.88359914084092 -57.262479038618736 -60.72555504919784 -63.9587182745684 -58.63607288505044 -68.58044652115346"/>
<polyline points="-58.63607288505044 -68.58044652115346 -55.75754740485276 -70.81270063613628 -52.28614536309199 -70.50335619055508"/>
<polyline points="-49.4076198828943 -72.73561030553788 -56.540370016231186 -61.92733138717079 -50.68423491578821 -62.71065491734497"/>
<polyline points="-56.540370016231186 -61.92733138717079 -51.66291984839003 -65.1301979121963"/>
<polyline points="-46.785469680548914 -68.33306443722184 -41.90801951270774 -71.53593096224735"/>
<polyline points="-41.90801951270774 -71.53593096224735 -36.05188441226476 -72.31925449242155"/>
<polyline points="-41.90801951270774 -71.53593096224735 -57.387605627346026 -69.70343946055642 -50.20480843039533 -65.52184142757842"/>
<polyline points="-57.387605627346026 -69.70343946055642 -49.663104507213426 -68.01316874138665"/>
<polyline points="-41.93860338708082 -66.32289802221692 -34.2141022669482 -64.63262730304716"/>
<polyline points="-34.2141022669482 -64.63262730304716 -27.031305069997504 -60.45102927006918"/>
<polyline points="-34.2141022669482 -64.63262730304716 -51.33006270951984 -72.50745056588308 -45.43794264732975 -64.55993619209933"/>
<polyline points="-51.33006270951984 -72.50745056588308 -43.850140395510024 -66.35536016632223"/>
<polyline points="-36.37021808150024 -60.203269766761416 -28.890295767490436 -54.05117936720056"/>
<polyline points="-28.890295767490436 -54.05117936720056 -22.998175705300337 -46.10366499341682"/>
<polyline points="-28.890295767490436 -54.05117936720056 -42.440151486141794 -68.64789724516233 -40.0281464164401 -59.38199528484688"/>
<polyline points="-42.440151486141794 -68.64789724516233 -37.68464506991825 -60.07360486759255"/>
<polyline points="-32.92913865369469 -51.49931249002274 -28.173632237471132 -42.92502011245298"/>
<polyline points="-28.173632237471132 -42.92502011245298 -25.76162716776941 -33.65911815213755"/>
<polyline points="-4.396100156353364 -0.053558224604096 1.3917128707825324 7.106705626650576"/>
<polyline points="7.179525897918425 14.266969477905233 4.066766527271532 33.78931682594043 7.76943273926556 26.376880488531558"/>
<polyline points="4.066766527271532 33.78931682594043 6.789049001859607 24.899602137699464"/>
<polyline points="9.511331476447687 16.009887449458482 12.233613951035775 7.120172761217512"/>
<polyline points="12.233613951035775 7.120172761217512 15.93628016302981 -0.2922635761913628"/>
<polyline points="12.233613951035775 7.120172761217512 6.409745145146493 14.119471796936317 -0.0698985890861204 19.150424507243095"/>
<polyline points="-0.0698985890861204 19.150424507243095 -6.549542323318723 24.18137721754986 -13.24338397352427 26.901132489279643"/>
<polyline points="-13.24338397352427 26.901132489279643 -6.791518653710931 26.677921483287136 -1.0213136236235116 28.96646620421665"/>
<polyline points="13.582010316419849 35.202193474918374 19.352215346507272 37.49073819584791"/>
<polyline points="25.122420376594693 39.779282916777426 21.15112950367414 47.75516803520934 23.650706681003662 39.856655953037205"/>
<polyline points="21.15112950367414 47.75516803520934 23.47285157162076 41.60228635533235"/>
<polyline points="25.794573639567385 35.44940467545536 28.11629570751399 29.296522995578385"/>
<polyline points="28.11629570751399 29.296522995578385 30.615872884843526 21.398010913406303"/>
<polyline points="28.11629570751399 29.296522995578385 30.615872884843526 21.398010913406303 33.12296311766756 12.292138974430685"/>
<polyline points="33.12296311766756 12.292138974430685 35.466712349781616 2.5994573031279202 37.48739794424589 -7.019493862516586"/>
<polyline points="37.48739794424589 -7.019493862516586 35.466712349781616 2.5994573031279202 33.90679677688904 11.489162337243833"/>
<polyline points="33.90679677688904 11.489162337243833 32.34688120399646 20.378867371359764 31.354041321085838 27.93350756680431"/>
<polyline points="31.354041321085838 27.93350756680431 30.36120143817523 35.48814776224882 30.003097642521436 41.19288687433565"/>
<polyline points="30.003097642521436 41.19288687433565 29.64499384686764 46.89762598642246 29.94603032034999 50.36369547219"/>
<polyline points="29.94603032034999 50.36369547219 30.247066793832335 53.82976495795753 31.18672839826928 54.82095790990133"/>
<polyline points="31.18672839826928 54.82095790990133 32.126390002706216 55.81215086184517 33.64064035261962 54.2609191183141"/>
<polyline points="33.64064035261962 54.2609191183141 26.587455756239663 49.322561110589504 28.631231478030603 56.27040843724765"/>
<polyline points="26.587455756239663 49.322561110589504 29.470890419841847 54.197172635730716"/>
<polyline points="32.354325083443996 59.071784160871886 35.23775974704616 63.94639568601308"/>
<polyline points="35.23775974704616 63.94639568601308 37.281535468837085 70.89424301267123"/>
<polyline points="35.237759747046155 63.94639568601307 26.55996476806839 49.91633328926639 28.56092961490113 59.53936179803757"/>
<polyline points="26.55996476806839 49.91633328926639 29.841719000004765 58.52882674079014"/>
<polyline points="33.123473231941176 67.14132019231388 36.405227463877566 75.75381364383763"/>
<polyline points="36.405227463877566 75.75381364383763 38.40619231071032 85.3768421526088"/>
<polyline points="36.405227463877566 75.75381364383763 28.245105375918612 57.50724515621307 29.172530788943998 66.72699702886517"/>
<polyline points="28.245105375918612 57.50724515621307 30.837171102250224 67.00229934010179"/>
<polyline points="33.42923682858185 76.49735352399051 36.02130255491345 85.99240770787924"/>
<polyline points="36.02130255491345 85.99240770787924 36.948727967938865 95.21215958053133"/>
<polyline points="48.98163118657153 133.46767862732295 53.76732064233003 141.8437211744773"/>
<polyline points="58.55301009808847 150.2197637216316 52.23078339871918 166.99162254750854 54.50513261473281 161.91978610840542"/>
<polyline points="52.23078339871918 166.99162254750854 55.04438586060827 160.0253703334311"/>
<polyline points="57.857988322497256 153.05911811935366 60.67159078438633 146.09286590527623"/>
<polyline points="60.67159078438633 146.09286590527623 62.9459400003999 141.0210294661731"/>
<polyline points="60.67159078438633 146.09286590527623 56.03100192828037 150.1539563411859 52.16528711911959 152.00943406529282"/>
<polyline points="52.16528711911959 152.00943406529282 48.2995723099588 153.86491178939977 45.47217362359175 153.38832906112802"/>
<polyline points="45.47217362359175 153.38832906112802 47.068573639186475 156.16449391643698 47.325182961121804 161.05104985172304"/>
<polyline points="39.4841836092637 175.33475495306908 39.740792931199024 180.2213108883552"/>
<polyline points="39.99740225313434 185.10786682364125 25.687581886894378 192.70309246652738 32.656416491183144 185.75146956802712"/>
<polyline points="25.687581886894378 192.70309246652738 32.998570165192056 187.13887861729214"/>
<polyline points="40.30955844348973 181.5746647680569 47.62054672178743 176.01045091882165"/>
<polyline points="47.62054672178743 176.01045091882165 54.58938132607616 169.0588280203214"/>
<polyline points="47.62054672178743 176.01045091882165 54.58938132607616 169.0588280203214 60.741147694617446 161.19353768498897"/>
<polyline points="60.741147694617446 161.19353768498897 65.65661311566977 152.95058645117035 69.00079674397905 144.8917178233294"/>
<polyline points="69.00079674397905 144.8917178233294 72.34498037228839 136.83284919548836 73.88998162011015 129.50726175270225"/>
<polyline points="73.88998162011015 129.50726175270225 75.43498286793194 122.18167430991608 75.07551245346244 116.08859473030499"/>
<polyline points="75.07551245346244 116.08859473030499 74.7160420389929 109.99551515069393 72.47659727692525 105.5501767383184"/>
<polyline points="72.47659727692525 105.5501767383184 70.23715251485758 101.10483832594281 66.27034786486924 98.61018354733703 58.41728055811715 87.09818770974586 65.3021757528997 88.60721668230309"/>
<polyline points="58.41728055811715 87.09818770974586 64.01368793946565 90.85884235507402"/>
<polyline points="69.61009532081417 94.61949700040215 75.20650270216267 98.38015164573031"/>
<polyline points="75.20650270216267 98.38015164573031 82.09139789694518 99.88918061828755"/>
<polyline points="66.27034786486924 98.61018354733703 70.23715251485758 101.10483832594281 75.66098587132456 101.47880287022872"/>
<polyline points="75.66098587132456 101.47880287022872 81.08481922779154 101.85276741451467 87.59605601080233 100.0805566587933"/>
<polyline points="87.59605601080233 100.0805566587933 94.10729279381312 98.30834590307187 101.26220297693311 94.51073308162886"/>
<polyline points="101.26220297693311 94.51073308162886 108.41711316005306 90.71312026018585 115.72810143835075 85.14890641095059"/>
<polyline points="115.72810143835075 85.14890641095059 123.03908971664843 79.58469256171533 130.00792432093718 72.63306966321511"/>
<polyline points="130.00792432093718 72.63306966321511 136.9767589252259 65.68144676471486 143.1285252937672 57.816156429382445"/>
<polyline points="143.1285252937672 57.816156429382445 149.2802916623085 49.95086609404999 154.1957570833608 41.70791486023139"/>
<polyline points="154.1957570833608 41.70791486023139 159.11122250441312 33.46496362641279 162.45540613272237 25.406094998571785"/>
<polyline points="162.45540613272237 25.406094998571785 165.79958976103174 17.347226370730773 167.34459100885348 10.02163892794459"/>
<polyline points="167.34459100885348 10.02163892794459 168.88959225667526 2.696051485158467 168.53012184220577 -3.3970280944526134"/>
<polyline points="168.53012184220577 -3.3970280944526134 168.1706514277362 -9.490107674063674 165.9312066656686 -13.935446086439255"/>
<polyline points="165.9312066656686 -13.935446086439255 163.69176190360096 -18.380784498814847 159.72495725361253 -20.87543927742061"/>
<polyline points="159.72495725361253 -20.87543927742061 154.12992207319814 -24.747221495438552 147.13333879624025 -26.451388999544026"/>
<polyline points="147.13333879624025 -26.451388999544026 140.1367555192824 -28.15555650364948 132.2154297337052 -27.575973094707653"/>
<polyline points="132.2154297337052 -27.575973094707653 140.5216727662244 -30.399809765184237 148.64677630973512 -35.27545989471339"/>
<polyline points="174.289428406455 -59.094324053138884 182.4145319499657 -63.96997418266806"/>
<polyline points="190.5396354934764 -68.84562431219723 193.38774151400546 -87.38281240448721 192.81949783070465 -77.52765982847458"/>
<polyline points="193.38774151400546 -87.38281240448721 192.3564528584265 -77.48363272542842"/>
<polyline points="191.32516420284753 -67.58445304636965 190.29387554726844 -57.68527336731087"/>
<polyline points="190.29387554726844 -57.68527336731087 189.72563186396764 -47.830120791298214"/>
<polyline points="190.29387554726844 -57.68527336731087 189.72563186396764 -47.830120791298214 189.65915802089486 -38.69060767997738"/>
<polyline points="189.65915802089486 -38.69060767997738 190.09898410060228 -30.889576748125197 191.01513668260478 -24.958655361934337"/>
<polyline points="191.01513668260478 -24.958655361934337 190.09898410060228 -30.889576748125197 188.76893930075437 -34.54620609749689"/>
<polyline points="188.76893930075437 -34.54620609749689 187.43889450090649 -38.20283544686862 185.78559783831992 -39.33597951212717"/>
<polyline points="185.78559783831992 -39.33597951212717 187.64947692829182 -40.803542626420004 189.59691816587335 -44.77180091928792"/>
<polyline points="186.96693785716013 -60.9837916038702 188.9143790947416 -64.95204989673807"/>
<polyline points="190.8618203323231 -68.92030818960598 181.74347285258713 -83.01144464033581 184.0411302283705 -73.40329566561107"/>
<polyline points="181.74347285258713 -83.01144464033581 185.29282981615145 -74.39084627406655"/>
<polyline points="188.8421867797157 -65.7702479077973 192.39154374327998 -57.14964954152805"/>
<polyline points="192.39154374327998 -57.14964954152805 194.6892011190634 -47.54150056680332"/>
<polyline points="192.39154374327998 -57.14964954152805 194.6892011190634 -47.54150056680332 195.57857735396465 -37.6005804580337"/>
<polyline points="195.57857735396465 -37.6005804580337 194.99906292733888 -28.004346492484572 192.99015078966784 -19.406766156381682"/>
<polyline points="192.99015078966784 -19.406766156381682 194.99906292733888 -28.004346492484572 198.3004687337572 -35.017362307409094"/>
<polyline points="198.3004687337572 -35.017362307409094 201.6018745401757 -42.03037812233366 205.97078866546497 -46.98090397784933"/>
<polyline points="205.97078866546497 -46.98090397784933 200.83210049897122 -44.430238237665115 195.27383139773582 -44.45325626783144"/>
<polyline points="165.24149365286465 -43.41874826189886 159.68322455162934 -43.44176629206523"/>
<polyline points="154.1249554503939 -43.464784322231544 135.8755482115283 -50.54363737228029 142.00511507100833 -42.806492280678334"/>
<polyline points="135.8755482115283 -50.54363737228029 143.77173964970387 -44.70645437658946"/>
<polyline points="151.66793108787945 -38.869271380898624 159.56412252605503 -33.03208838520779"/>
<polyline points="159.56412252605503 -33.03208838520779 165.6936893855351 -25.29494329360583"/>
<polyline points="159.56412252605503 -33.03208838520779 165.6936893855351 -25.29494329360583 169.6389118144342 -16.185109757848576"/>
<polyline points="169.6389118144342 -16.185109757848576 171.13092942401119 -6.323407878686168 170.0680636798491 3.6181036580493897"/>
<polyline points="171.5600812894262 13.479805537211789 162.0503262068441 -4.081886561324262 162.10313064531528 5.599112898914127"/>
<polyline points="162.0503262068441 -4.081886561324262 164.5389655251614 5.474667889877166"/>
<polyline points="167.0276048434787 15.031222341078566 169.516244161796 24.587776792279996"/>
<polyline points="169.516244161796 24.587776792279996 169.5690486002672 34.26877625251836"/>
<polyline points="169.516244161796 24.587776792279996 168.99579843931534 7.180163863931888 164.23759070719981 14.642105249486399"/>
<polyline points="168.99579843931534 7.180163863931888 166.66747014098434 15.548170707601622"/>
<polyline points="164.33914184265333 23.916177551271392 162.01081354432227 32.28418439494113"/>
<polyline points="162.01081354432227 32.28418439494113 157.25260581220675 39.746125780495646"/>
<polyline points="162.01081354432227 32.28418439494113 170.8058619273364 20.41635661675831 162.61654262999875 23.313701125847395"/>
<polyline points="170.8058619273364 20.41635661675831 164.29043230206108 24.987752348099697"/>
<polyline points="157.77500267678576 29.559148079441083 151.25957305151036 34.13054381078248"/>
<polyline points="151.25957305151036 34.13054381078248 143.0702537541727 37.02788831987158"/>
<polyline points="151.25957305151036 34.13054381078248 166.05907198194635 31.993745451021937 156.95606660373775 29.49426634147582"/>
<polyline points="166.05907198194635 31.993745451021937 157.516617481673 31.25296396929895"/>
<polyline points="148.97416298139967 30.51218248757593 140.43170848112632 29.77140100585293"/>
<polyline points="140.43170848112632 29.77140100585293 131.32870310291773 27.271921896306793"/>
<polyline points="97.71943597975967 26.06749359723788 90.69469085968649 24.011881174894167"/>
<polyline points="83.6699457396133 21.956268752550447 64.50204204069033 16.53512102978136 71.39787494645664 23.640226776056554"/>
<polyline points="64.50204204069033 16.53512102978136 73.03260634837659 21.61609067595492"/>
<polyline points="81.56317065606287 26.69706032212848 90.09373496374916 31.77802996830203"/>
<polyline points="90.09373496374916 31.77802996830203 96.98956786951544 38.88313571457722"/>
<polyline points="90.09373496374916 31.77802996830203 83.56528385217091 25.291045019965285 79.12898552806453 17.243063230949836"/>
<polyline points="79.12898552806453 17.243063230949836 74.69268720395812 9.195081441934407 72.6508680667818 0.1345594712429191"/>
<polyline points="72.6508680667818 0.1345594712429191 72.15906141709515 9.590162024528329 69.16714479097274 18.796461472523305"/>
<polyline points="59.96660011958084 57.72350887771299 56.97468349345845 66.92980832570797"/>
<polyline points="53.98276686733602 76.13610777370293 44.88022581857499 90.70906822015763 53.081110564056935 87.01682976837584"/>
<polyline points="44.88022581857499 90.70906822015763 51.481227118464744 85.0260652523275"/>
<polyline points="58.0822284183545 79.34306228449735 64.68322971824425 73.66005931666722"/>
<polyline points="64.68322971824425 73.66005931666722 72.88411446372618 69.96782086488544"/>
<polyline points="64.68322971824425 73.66005931666722 72.88411446372618 69.96782086488544 82.1260059119985 68.51796687792843"/>
<polyline points="82.1260059119985 68.51796687792843 91.77908443380927 69.40930250901029 101.18550868036351 72.58108470787461"/>
<polyline points="101.18550868036351 72.58108470787461 91.77908443380927 69.40930250901029 83.2603467300631 64.17322545759825"/>
<polyline points="83.2603467300631 64.17322545759825 74.74160902631695 58.93714840618621 67.69109576200948 51.99360650025372"/>
<polyline points="67.69109576200948 51.99360650025372 60.64058249770204 45.0500645943212 55.53877450027181 36.872248740011976"/>
<polyline points="55.53877450027181 36.872248740011976 50.436966502841585 28.694432885702742 47.63154355617706 19.839647719008294"/>
<polyline points="47.63154355617706 19.839647719008294 44.82612060951254 10.984862552313855 44.50826765124829 2.05654704912004"/>
<polyline points="44.50826765124829 2.05654704912004 44.19041469298405 -6.871768454073772 46.381792876948964 -15.265164346963301"/>
<polyline points="46.381792876948964 -15.265164346963301 52.76909740179777 -34.217780118915286 45.300101288407454 -27.59694785500941"/>
<polyline points="52.76909740179777 -34.217780118915286 47.249704460013156 -25.88528723396754"/>
<polyline points="41.73031151822852 -17.5527943490198 36.21091857644392 -9.220301464072056"/>
<polyline points="36.21091857644392 -9.220301464072056 28.74192246305359 -2.5994692001661828"/>
<polyline points="36.21091857644392 -9.220301464072056 51.23457971019122 -21.817509591159677 41.45445549781533 -20.105257414988703"/>
<polyline points="51.23457971019122 -21.817509591159677 42.28360526234856 -17.67078526632658"/>
<polyline points="33.33263081450586 -13.524060941493476 24.381656366663194 -9.377336616660374"/>
<polyline points="24.381656366663194 -9.377336616660374 14.601532154287298 -7.6650844404894"/>
<polyline points="24.381656366663194 -9.377336616660374 42.84915555648221 -11.611457954107516 33.89448838189516 -15.459805218719039"/>
<polyline points="42.84915555648221 -11.611457954107516 33.43413823606667 -13.025275931405577"/>
<polyline points="24.01912091565111 -14.439093908703647 14.604103595235564 -15.852911886001717"/>
<polyline points="14.604103595235564 -15.852911886001717 5.649436420648507 -19.701259150613243"/>
<polyline points="-32.47098300684224 -22.922001772492013 -40.76963841145068 -24.25675080589074"/>
<polyline points="-49.06829381605916 -25.591499839289455 -64.99458031702952 -37.39669897305917 -60.58415632887241 -28.46900897021713"/>
<polyline points="-64.99458031702952 -37.39669897305917 -58.58955060259506 -29.719976202997987"/>
<polyline points="-52.184520888160584 -22.043253432936808 -45.779491173726115 -14.366530662875633"/>
<polyline points="-45.779491173726115 -14.366530662875633 -41.369067185568994 -5.438840660033591"/>
<polyline points="-45.779491173726115 -14.366530662875633 -49.14791494178055 -23.670631776691582 -50.25667517384157 -33.604466905718"/>
<polyline points="-50.25667517384157 -33.604466905718 -51.365435405902595 -43.5383020347444 -50.13897192446817 -53.42489673137685"/>
<polyline points="-50.13897192446817 -53.42489673137685 -53.61707765996501 -44.2592975573436 -59.10979849149163 -36.43931434275116"/>
<polyline points="-75.70493621573216 -6.462745563854472 -81.19765704725877 1.3572376507379706"/>
<polyline points="-86.69037787878543 9.177220865330417 -94.69458493173757 14.279191535150655 -87.83058410771655 15.704719150135908"/>
<polyline points="-94.69458493173757 14.279191535150655 -89.06987542777756 13.696611750402221"/>
<polyline points="-83.44516592381758 13.114031965653796 -77.82045641985759 12.531452180905362"/>
<polyline points="-77.82045641985759 12.531452180905362 -70.95645559583656 13.956979795890618"/>
<polyline points="-77.82045641985759 12.531452180905362 -70.95645559583656 13.956979795890618 -63.32093376461392 17.29346745944407"/>
<polyline points="-63.32093376461392 17.29346745944407 -55.434239120691 22.313539051101138 -47.83383687067201 28.675084987950925"/>
<polyline points="-47.83383687067201 28.675084987950925 -40.23343462065302 35.03663092480073 -33.43727961761816 42.30612236419866"/>
<polyline points="-33.43727961761816 42.30612236419866 -26.64112461458332 49.5756138035966 -21.1123635908123 57.25764691735037"/>
<polyline points="-21.1123635908123 57.25764691735037 -15.583602567041227 64.93968003110409 -11.699011449594389 72.51073695767128"/>
<polyline points="-11.699011449594389 72.51073695767128 -7.814420332147552 80.08179388423848 -5.838727586088572 87.02591960583669 4.848061621993876 98.3518781049401 3.6525465644600046 94.16035802121681"/>
<polyline points="4.848061621993876 98.3518781049401 1.4632729127528357 93.25081389013678"/>
<polyline points="-1.9215157964881955 88.14974967533347 -5.306304505729234 83.04868546053012"/>
<polyline points="-5.306304505729234 83.04868546053012 -6.50181956326311 78.85716537680683"/>
<polyline points="-5.838727586088572 87.02591960583669 -3.8630348400295564 93.9700453274349 -3.930880661015728 99.81400915184761"/>
<polyline points="-3.930880661015728 99.81400915184761 -3.9987264820018913 105.6579729762603 -6.105487289453468 110.00351842646056"/>
<polyline points="-6.105487289453468 110.00351842646056 -8.212248096905077 114.34906387666086 -12.214351623381138 116.90004921157097"/>
<polyline points="-12.214351623381138 116.90004921157097 -16.216455149857236 119.45103454648115 -21.841164653817223 120.03361433122957"/>
<polyline points="-21.841164653817223 120.03361433122957 -27.46587415777724 120.616194115978 -34.32987498179819 119.19066650099276"/>
<polyline points="-34.32987498179819 119.19066650099276 -41.19387580581922 117.76513888600755 -48.82939763704186 114.42865122245405"/>
<polyline points="-48.82939763704186 114.42865122245405 -56.46491946826452 111.09216355890064 -64.35161411218743 106.0720919672436"/>
<polyline points="-64.35161411218743 106.0720919672436 -72.23830875611034 101.05202037558652 -79.83871100612933 94.69047443873673"/>
<polyline points="-79.83871100612933 94.69047443873673 -72.23830875611034 101.05202037558652 -65.4421537530755 108.32151181498445"/>
<polyline points="-65.4421537530755 108.32151181498445 -58.64599875004066 115.59100325438237 -53.117237726269614 123.27303636813616"/>
<polyline points="-53.117237726269614 123.27303636813616 -57.00182884371646 115.70197944156891 -58.97752158977542 108.75785371997068"/>
<polyline points="-60.24634130619198 75.32741154551385 -62.222034052250976 68.38328582391564"/>
<polyline points="-64.19772679830993 61.43916010231739 -53.054705792152966 47.13741162255665 -60.38263131973066 49.85598588612669"/>
<polyline points="-53.054705792152966 47.13741162255665 -59.731945223783946 52.246214097259724"/>
<polyline points="-66.4091846554149 57.35501657196282 -73.08642408704587 62.4638190466659"/>
<polyline points="-73.08642408704587 62.4638190466659 -80.41434961462359 65.18239331023595"/>
<polyline points="-73.08642408704587 62.4638190466659 -80.41434961462359 65.18239331023595 -87.89357522341312 65.32547301926708"/>
<polyline points="-87.89357522341312 65.32547301926708 -95.01440404818014 62.883307528039175 -101.29156337224288 58.02232637891013"/>
<polyline points="-64.19772679830993 61.43916010231739 -64.05766647556224 53.36127765222368 -62.4253226444384 46.81984163767673"/>
<polyline points="-62.4253226444384 46.81984163767673 -60.79297881331455 40.278405623129785 -57.77959300832991 35.719204098286845"/>
<polyline points="-57.77959300832991 35.719204098286845 -54.76620720334531 31.160002573443933 -50.5771366872541 28.893737587786294"/>
<polyline points="-50.5771366872541 28.893737587786294 -46.388066171162876 26.627472602128645 -41.30878917687034 26.8085863692489"/>
<polyline points="-41.30878917687034 26.8085863692489 -36.22951218257779 26.98970013636917 -30.606173043342874 29.60585005234272"/>
<polyline points="-30.606173043342874 29.60585005234272 -24.982833904107974 32.221999968316304 -19.198653889262182 37.0948997397617"/>
<polyline points="-19.198653889262182 37.0948997397617 -13.414473874416421 41.96779951120712 -7.863635293162108 48.76536907154802"/>
<polyline points="-7.863635293162108 48.76536907154802 -2.3127967119078114 55.562938631888926 2.6264199596370283 63.8219348491029"/>
<polyline points="2.6264199596370283 63.8219348491029 7.565636631181874 72.08093106631688 11.556631939292966 81.23851699683739"/>
<polyline points="11.556631939292966 81.23851699683739 15.547627247404042 90.39610292735789 18.318421457265167 99.82820422364627"/>
<polyline points="18.318421457265167 99.82820422364627 21.0892156671263 109.2603055199346 22.45098373228938 118.32414006593314"/>
<polyline points="22.45098373228938 118.32414006593314 23.812751797452492 127.38797461193165 23.67269147470478 135.46585706202538"/>
<polyline points="23.67269147470478 135.46585706202538 23.532631151957087 143.54373951211912 21.90028732083325 150.08517552666606"/>
<polyline points="21.90028732083325 150.08517552666606 20.267943489709406 156.626611541213 17.25455768472476 161.1858130660559"/>
<polyline points="17.25455768472476 161.1858130660559 14.241171879740136 165.74501459089885 10.052101363648914 168.0112795765565"/>
<polyline points="10.052101363648914 168.0112795765565 5.8630308475576856 170.27754456221416 0.7837538532651593 170.0964307950939"/>
<polyline points="0.7837538532651593 170.0964307950939 -4.295523141027381 169.9153170279736 -9.918862280262294 167.29916711200005"/>
<polyline points="-9.918862280262294 167.29916711200005 -15.542201419497246 164.68301719602653 -21.326381434342995 159.8101174245811"/>
<polyline points="-21.326381434342995 159.8101174245811 -27.110561449188747 154.93721765313566 -32.66140003044306 148.13964809279477"/>
<polyline points="-32.66140003044306 148.13964809279477 -38.212238611697366 141.34207853245385 -43.151455283242214 133.08308231523992"/>
<polyline points="-43.151455283242214 133.08308231523992 -48.09067195478701 124.82408609802589 -52.08166726289811 115.66650016750538"/>
<polyline points="-52.08166726289811 115.66650016750538 -56.07266257100922 106.50891423698488 -58.84345678087035 97.07681294069653"/>
<polyline points="-58.84345678087035 97.07681294069653 -55.486410296127254 77.4229080540299 -59.479692562009895 85.84274162817796"/>
<polyline points="-55.486410296127254 77.4229080540299 -58.422352867434384 86.86813952049901"/>
<polyline points="-61.358295438741536 96.31337098696817 -64.2942380100487 105.75860245343733"/>
<polyline points="-64.2942380100487 105.75860245343733 -68.28752027593137 114.1784360275854"/>
<polyline points="-64.2942380100487 105.75860245343733 -52.20634905063058 90.44695832519422 -59.22031915348604 94.54193204709294"/>
<polyline points="-52.20634905063058 90.44695832519422 -58.96562301720985 96.52961781425923"/>
<polyline points="-65.7248969837891 102.61227730332422 -72.48417095036838 108.69493679238919"/>
<polyline points="-72.48417095036838 108.69493679238919 -79.49814105322385 112.78991051428791"/>
<polyline points="-72.48417095036838 108.69493679238919 -55.244781616582195 102.83380968235393 -62.7399879817252 101.26228137527649"/>
<polyline points="-55.244781616582195 102.83380968235393 -63.58646821064862 103.53729809261901"/>
<polyline points="-71.92815480471504 104.24078650288412 -80.26984139878147 104.9442749131492"/>
<polyline points="-80.26984139878147 104.9442749131492 -87.76504776392446 103.37274660607173"/>
<polyline points="-121.97827436911338 108.46171696447456 -131.44855412285173 108.50266029137711"/>
<polyline points="-140.91883387659004 108.54360361827968 -149.26941012191466 102.2723134674827 -145.4836997461938 109.65051852340112"/>
<polyline points="-149.26941012191466 102.2723134674827 -145.1484940630864 107.7146827701596"/>
<polyline points="-141.02757800425815 113.15705207283655 -136.90666194542985 118.59942137551346"/>
<polyline points="-136.90666194542985 118.59942137551346 -133.12095156970904 125.97762643143191"/>
<polyline points="-136.90666194542985 118.59942137551346 -138.21322583808384 111.00918051118606 -139.0110690096261 101.9931413200863"/>
<polyline points="-139.0110690096261 101.9931413200863 -139.8089121811684 92.97710212898649 -140.04366293795658 83.14969278227856"/>
<polyline points="-140.04366293795658 83.14969278227856 -140.38800247205364 93.11875057817836 -141.28796612683536 102.55008200912638"/>
<polyline points="-134.6704924018976 139.17632994014426 -135.57045605667923 148.6076613710923"/>
<polyline points="-136.47041971146098 158.03899280204033 -127.64868935665967 168.26641213589846 -128.8289751028925 166.4214278341854"/>
<polyline points="-127.64868935665967 168.26641213589846 -130.54288204281747 164.66432707964918"/>
<polyline points="-133.43707472897523 161.0622420233999 -136.33126741513303 157.46015696715065"/>
<polyline points="-136.33126741513303 157.46015696715065 -137.51155316136587 155.61517266543754"/>
<polyline points="-136.33126741513303 157.46015696715065 -137.51155316136587 155.61517266543754 -136.89749744458237 155.65302174944165"/>
<polyline points="-136.89749744458237 155.65302174944165 -134.5309471471064 157.57112486663672 -130.57317876080157 161.23876645940103"/>
<polyline points="-130.57317876080157 161.23876645940103 -126.61541037449675 164.90640805216546 -121.33613927436818 170.07364440701656"/>
<polyline points="-121.33613927436818 170.07364440701656 -116.05686817423961 175.24088076186771 -109.81586796135316 181.55557326048432"/>
<polyline points="-109.81586796135316 181.55557326048432 -103.57486774846673 187.87026575910087 -96.79745227359011 194.90207854322497"/>
<polyline points="-96.79745227359011 194.90207854322497 -90.02003679871346 201.93389132734913 -83.16807572625083 209.20361797636275 -66.3182754485521 219.23364428283085 -74.20459586625911 213.96802334096054"/>
<polyline points="-66.3182754485521 219.23364428283085 -74.76158450636115 213.91199648374425"/>
<polyline points="-83.20489356417019 208.59034868465756 -91.64820262197928 203.268700885571"/>
<polyline points="-91.64820262197928 203.268700885571 -99.53452303968625 198.00307994370067"/>
</svg>