<svg viewBox="-199.75778587383732 -175.11310602551924 405.7285745393025 394.3467503083501" xmlns="http://www.w3.org/2000/svg">
<style>
svg { stroke:black; stroke-width:2; fill:none;}
</style>
<polyline points="108.95879695032927 -0.641292016759073 107.32811488857755 -5.871167080952048 105.44207631553172 -13.073914288724785"/>
<polyline points="105.44207631553172 -13.073914288724778 103.55603774248576 -20.27666149649785 101.54317307007219 -28.961425528744662"/>
<polyline points="101.54317307007219 -28.961425528744662 99.53030839765864 -37.64618956099147 97.5277910268863 -47.22111810116557"/>
<polyline points="97.5277910268863 -47.22111810116557 95.52527365611394 -56.796046641339665 93.6695718364845 -66.60862413274572"/>
<polyline points="93.6695718364845 -66.60862413274572 91.81387001685505 -76.42120162415178 90.23144676068401 -85.80271712680155"/>
<polyline points="90.23144676068401 -85.80271712680155 88.64902350451298 -95.18423262945129 87.44771834163035 -103.49535136552657"/>
<polyline points="87.44771834163035 -103.49535136552657 86.2464131787477 -111.80647010160178 85.50809307075329 -118.48080306401214"/>
<polyline points="85.50809307075329 -118.48080306401214 84.76977296275881 -125.1551360264225 84.54475320488069 -129.7378384536364"/>
<polyline points="84.54475320488069 -129.7378384536364 84.3197334470026 -134.3205408808503 84.62334876387753 -136.499309175727"/>
<polyline points="84.62334876387753 -136.499309175727 84.92696408075238 -138.6780774706037 85.73852359028334 -138.30443217443215"/>
<polyline points="85.73852359028334 -138.30443217443215 86.55008309981426 -137.9307868782606 87.81428036259219 -135.03019130049685"/>
<polyline points="87.81428036259219 -135.03019130049685 89.07847762537006 -132.12959572273311 90.70915968712143 -126.89972065854097"/>
<polyline points="90.70915968712143 -126.89972065854097 92.33984174887276 -121.66984559434881 94.22588032191867 -114.46709838657574"/>
<polyline points="94.22588032191867 -114.46709838657574 96.1119188949646 -107.26435117880268 98.12478356737817 -98.57958714655585"/>
<polyline points="98.12478356737817 -98.57958714655585 100.13764823979173 -89.89482311430903 102.14016561056411 -80.31989457413495"/>
<polyline points="102.14016561056411 -80.31989457413495 104.14268298133642 -70.74496603396085 105.9983848009659 -60.932388542554776"/>
<polyline points="105.9983848009659 -60.932388542554776 107.85408662059535 -51.11981105114874 109.43650987676638 -41.73829554849897"/>
<polyline points="109.43650987676638 -41.73829554849897 111.01893313293739 -32.356780045849206 112.22023829582002 -24.04566130977397"/>
<polyline points="112.22023829582002 -24.04566130977397 113.42154345870267 -15.734542573698716 114.15986356669711 -9.06020961128836"/>
<polyline points="114.15986356669711 -9.06020961128836 114.89818367469158 -2.3858766488780025 115.12320343256967 2.1968257783359126"/>
<polyline points="115.12320343256967 2.1968257783359126 115.34822319044775 6.779528205549818 115.04460787357287 8.958296500426492"/>
<polyline points="115.04460787357287 8.958296500426492 114.74099255669799 11.13706479530317 113.92943304716704 10.763419499131622"/>
<polyline points="113.92943304716704 10.763419499131622 113.11787353763613 10.389774202960075 111.85367627485823 7.489178625196333"/>
<polyline points="111.85367627485823 7.489178625196333 110.5894790120803 4.588583047432587 108.95879695032899 -0.6412920167595678"/>
<polyline points="108.95879695032899 -0.6412920167595678 107.32811488857762 -5.871167080951721 105.44207631553172 -13.073914288724787"/>
<polyline points="105.44207631553172 -13.073914288724787 103.55603774248576 -20.276661496497866 101.54317307007219 -28.961425528744684"/>
<polyline points="101.54317307007219 -28.961425528744684 99.53030839765864 -37.646189560991495 97.52779102688629 -47.22111810116558"/>
<polyline points="97.52779102688629 -47.22111810116558 95.52527365611392 -56.79604664133968 93.66957183648448 -66.60862413274575"/>
<polyline points="93.66957183648448 -66.60862413274575 91.81387001685503 -76.4212016241518 90.23144676068401 -85.80271712680157"/>
<polyline points="90.23144676068401 -85.80271712680157 88.64902350451298 -95.18423262945129 87.44771834163035 -103.49535136552657"/>
<polyline points="87.44771834163035 -103.49535136552657 95.1597360090488 -119.78105773545319 91.00499337096376 -115.34407755008404"/>
<polyline points="95.1597360090488 -119.78105773545319 91.01306591608198 -113.2692568145366"/>
<polyline points="86.86639582311514 -106.75745589362009 82.71972573014834 -100.24565497270352"/>
<polyline points="82.71972573014834 -100.24565497270352 78.56498309206327 -95.80867478733435"/>
<polyline points="82.71972573014834 -100.24565497270352 95.44695772287291 -107.51362165535033 90.19380077303532 -108.66681539318022"/>
<polyline points="95.44695772287291 -107.51362165535033 89.43367356065642 -106.22947046279744"/>
<polyline points="83.42038939843988 -104.94531927024454 77.40710523622342 -103.66116807769163"/>
<polyline points="77.40710523622342 -103.66116807769163 72.15394828638583 -104.81436181552151"/>
<polyline points="77.40710523622342 -103.66116807769163 91.53950197379449 -99.57972520216092 87.23424330598223 -105.97972022308244"/>
<polyline points="91.53950197379449 -99.57972520216092 85.65320267052132 -103.94896154979784"/>
<polyline points="79.76690336724816 -108.31819789743479 73.88060406397499 -112.6874342450717"/>
<polyline points="73.88060406397499 -112.6874342450717 69.5753453961627 -119.08742926599322"/>
<polyline points="44.449107547609145 -134.53361598325637 36.887394276045505 -138.97996210790737"/>
<polyline points="29.325681004481872 -143.42630823255834 28.892895078314023 -158.26205322962576 28.88475372914069 -148.48519738814875"/>
<polyline points="28.892895078314023 -158.26205322962576 29.000694046020836 -149.36140689010813"/>
<polyline points="29.108493013727635 -140.4607605505905 29.21629198143443 -131.56011421107286"/>
<polyline points="29.21629198143443 -131.56011421107286 29.208150632261113 -121.7832583695958"/>
<polyline points="29.21629198143443 -131.56011421107286 31.809759808286977 -140.9774761572825 34.4305202690278 -150.61702049430838"/>
<polyline points="34.4305202690278 -150.61702049430838 37.05128072976863 -160.25656483133426 39.52073333000966 -169.46137254270835"/>
<polyline points="39.52073333000966 -169.46137254270835 37.37087770401146 -161.3185938908522 35.68712816036344 -154.7927612070602"/>
<polyline points="39.16944430124866 -126.85734900931091 37.485694757600655 -120.33151632551883"/>
<polyline points="35.801945213952656 -113.80568364172674 46.840194162562604 -107.75437715520475 42.77102888104005 -105.95417279643974"/>
<polyline points="46.840194162562604 -107.75437715520475 41.876930165023495 -108.38871617541918"/>
<polyline points="36.91366616748437 -109.02305519563355 31.95040216994522 -109.6573942158479"/>
<polyline points="31.95040216994522 -109.6573942158479 27.881236888422666 -107.85718985708287"/>
<polyline points="31.95040216994522 -109.6573942158479 27.881236888422666 -107.85718985708287 24.983477212238853 -103.74512307140986"/>
<polyline points="24.983477212238853 -103.74512307140986 23.454600674551443 -97.6014244147609 23.39879768481589 -89.84477679764446"/>
<polyline points="23.39879768481589 -89.84477679764446 23.342994695080336 -82.088129180528 24.764068134828307 -73.2471353195843"/>
<polyline points="24.764068134828307 -73.2471353195843 26.185141574576285 -64.40614145864065 28.986247637323864 -55.08330047505991"/>
<polyline points="28.986247637323864 -55.08330047505991 31.787353700071446 -45.76045949147914 35.77760163668902 -36.591107591569155"/>
<polyline points="35.77760163668902 -36.591107591569155 39.7678495733066 -27.421755691659165 44.675310581110196 -19.030769054328342 56.63733271631324 -3.1603617995638795 49.423042550693154 -9.132347545696804"/>
<polyline points="56.63733271631324 -3.1603617995638795 49.80694218626818 -10.359252746990116"/>
<polyline points="42.97655165622311 -17.558143694416337 36.146161126178036 -24.75703464184258"/>
<polyline points="36.146161126178036 -24.75703464184258 28.93187096055794 -30.72902038797549"/>
<polyline points="44.675310581110196 -19.030769054328342 39.7678495733066 -27.421755691659165 34.277610852036055 -34.4625451938378"/>
<polyline points="34.277610852036055 -34.4625451938378 28.787372130765522 -41.503334696016424 23.088506391834123 -46.71410889392419"/>
<polyline points="23.088506391834123 -46.71410889392419 17.38964065290275 -51.92488309183196 11.87051617859775 -54.95053633509297"/>
<polyline points="11.87051617859775 -54.95053633509297 6.351391704292764 -57.97618957835395 1.3881277067536213 -58.61052859856833"/>
<polyline points="1.3881277067536213 -58.61052859856833 -3.5751362907855264 -59.244867618782735 -7.644301572308086 -57.4446632600177"/>
<polyline points="-7.644301572308086 -57.4446632600177 -11.713466853830658 -55.644458901252655 -14.611226530014463 -51.532392115579675"/>
<polyline points="-14.611226530014463 -51.532392115579675 -11.413249321474543 -47.97129819941516 -15.251744577035943 -53.70879041641089"/>
<polyline points="-11.413249321474543 -47.97129819941516 -14.227898082198378 -51.86292164008922"/>
<polyline points="-17.042546842922235 -55.75454508076331 -19.857195603646087 -59.646168521437396"/>
<polyline points="-19.857195603646087 -59.646168521437396 -23.695690859207485 -65.38366073843314"/>
<polyline points="-19.857195603646087 -59.646168521437396 -8.008196668605853 -51.22291476618262 -14.864209511537911 -58.05855768932084"/>
<polyline points="-8.008196668605853 -51.22291476618262 -14.62387665283033 -56.94140240783075"/>
<polyline points="-21.239556637054807 -62.65989004947888 -27.855236621279282 -68.378377691127"/>
<polyline points="-27.855236621279282 -68.378377691127 -34.71124946421135 -75.21402061426521"/>
<polyline points="-27.855236621279282 -68.378377691127 -10.84217330465983 -58.511675704032996 -18.22202764198403 -64.49229653523953"/>
<polyline points="-10.84217330465983 -58.511675704032996 -19.06557181169989 -64.16116323595003"/>
<polyline points="-27.288970318739953 -69.8106507678671 -35.51236882578001 -75.46013829978415"/>
<polyline points="-35.51236882578001 -75.46013829978415 -42.8922231631042 -81.44075913099068"/>
<polyline points="-76.62936136098033 -103.70757595936946 -86.03265934886902 -107.029190283195"/>
<polyline points="-95.43595733675768 -110.3508046070206 -103.50369416404558 -125.42761024339976 -99.75955874992941 -121.82004936844227"/>
<polyline points="-103.50369416404558 -125.42761024339976 -99.47750311703633 -119.65803488378434"/>
<polyline points="-95.45131207002706 -113.88845952416895 -91.42512102301778 -108.11888416455352"/>
<polyline points="-91.42512102301778 -108.11888416455352 -87.68098560890162 -104.51132328959602"/>
<polyline points="-91.42512102301778 -108.11888416455352 -92.67696565056978 -112.3819656591614 -93.47652075343254 -114.21484703379416"/>
<polyline points="-93.47652075343254 -114.21484703379416 -94.27607585629531 -116.04772840842695 -94.56885307553604 -115.32550182638315"/>
<polyline points="-94.56885307553604 -115.32550182638315 -94.80280602357136 -118.55361781707312 -95.54754563209971 -124.06763244635768"/>
<polyline points="-88.28521308760142 -147.41318755524117 -89.02995269612974 -152.92720218452575"/>
<polyline points="-89.77469230465809 -158.44121681381034 -80.56135621405237 -175.11310602551924 -81.95436898808012 -165.23579139510522"/>
<polyline points="-80.56135621405237 -175.11310602551924 -83.6670195352105 -165.68522929804794"/>
<polyline points="-86.77268285636859 -156.2573525705766 -89.87834617752671 -146.8294758431052"/>
<polyline points="-89.87834617752671 -146.8294758431052 -91.2713589515544 -136.9521612126912"/>
<polyline points="-89.87834617752671 -146.8294758431052 -91.2713589515544 -136.9521612126912 -90.85678965996424 -127.2985313483631"/>
<polyline points="-90.85678965996424 -127.2985313483631 -88.66289051486993 -118.52646517199709 -84.83917211741985 -111.23376449698779"/>
<polyline points="-84.83917211741985 -111.23376449698779 -81.01545371996977 -103.94106382197855 -75.82249615995676 -98.62471414757016"/>
<polyline points="-75.82249615995676 -98.62471414757016 -70.62953859994369 -93.3083644731618 -64.42123335331443 -90.33066624398208"/>
<polyline points="-64.42123335331443 -90.33066624398208 -58.21292810668521 -87.35296801480231 -51.41236091628803 -86.91684644429078"/>
<polyline points="-51.41236091628803 -86.91684644429078 -44.611793725890855 -86.48072487377925 -37.68241200728266 -88.6159009262413 -20.818744591638346 -86.99718847360074 -28.817433170112135 -82.75945421109823"/>
<polyline points="-20.818744591638346 -86.99718847360074 -29.32380876898795 -85.22252941445046"/>
<polyline points="-37.82887294633755 -83.44787035530017 -46.333937123687136 -81.67321129614992"/>
<polyline points="-46.333937123687136 -81.67321129614992 -54.332625702160925 -77.43547703364736"/>
<polyline points="-37.68241200728266 -88.6159009262413 -44.61179372589085 -86.48072487377922 -51.19776405993163 -81.91975991777359"/>
<polyline points="-51.19776405993163 -81.91975991777359 -57.7837343939724 -77.35879496176793 -63.57747034901151 -70.68286332661954"/>
<polyline points="-63.57747034901151 -70.68286332661954 -69.37120630405057 -64.00693169147112 -73.97787434935343 -55.670987085616666"/>
<polyline points="-73.97787434935343 -55.670987085616666 -78.58454239465627 -47.33504247976222 -81.69020571581436 -37.90716575229089"/>
<polyline points="-81.69020571581436 -37.90716575229089 -84.79586903697246 -28.47928902481955 -86.18888181100016 -18.60197439440555"/>
<polyline points="-86.18888181100016 -18.60197439440555 -87.58189458502791 -8.724659763991552 -87.16732529343773 0.9289701003365968"/>
<polyline points="-87.16732529343773 0.9289701003365968 -79.25122872655338 19.149031970073914 -86.14368994872382 12.327101777446606"/>
<polyline points="-79.25122872655338 19.149031970073914 -84.86786574479032 10.90204203881594"/>
<polyline points="-90.48450276302728 2.6550521075579634 -96.10113978126422 -5.591937823700015"/>
<polyline points="-96.10113978126422 -5.591937823700015 -102.9936010034346 -12.41386801632734"/>
<polyline points="-96.10113978126422 -5.591937823700015 -79.66643188300522 5.7606765265608235 -88.79386738439625 4.046916398423321"/>
<polyline points="-79.66643188300522 5.7606765265608235 -88.64475556918124 1.9352962012105004"/>
<polyline points="-97.62307925535724 -1.8900841241398445 -106.60140294153325 -5.715464449490178"/>
<polyline points="-106.60140294153325 -5.715464449490178 -115.72883844292429 -7.429224577627695"/>
<polyline points="-106.60140294153325 -5.715464449490178 -86.87876522226608 -5.082811102263003 -95.10615493600649 -1.1646106693365181"/>
<polyline points="-86.87876522226608 -5.082811102263003 -96.24216978246291 -3.218344048332629"/>
<polyline points="-105.60557434265979 -1.3538769944022537 -114.96897890285659 0.5105900595281023"/>
<polyline points="-114.96897890285659 0.5105900595281023 -123.19636861659704 4.428790492454586"/>
<polyline points="-161.78600170384087 9.832925329179949 -171.42611205604655 12.446102441152368"/>
<polyline points="-181.06622240825226 15.059279553124773 -191.6362094554095 24.555209071825413 -188.6117900199389 16.045116792661823"/>
<polyline points="-191.6362094554095 24.555209071825413 -187.3349408005623 17.692333746579575"/>
<polyline points="-183.03367214571497 10.829458421333715 -178.73240349086768 3.9665830960878616"/>
<polyline points="-178.73240349086768 3.9665830960878616 -175.70798405539705 -4.543509183075741"/>
<polyline points="-178.73240349086768 3.9665830960878616 -179.60880992311345 12.113966418405862 -179.07544971774993 21.340976977411135"/>
<polyline points="-179.07544971774993 21.340976977411135 -178.54208951238638 30.567987536416386 -176.63531028598962 40.245819810868596"/>
<polyline points="-176.63531028598962 40.245819810868596 -179.7855646802423 30.776694097099305 -183.9646096114241 22.1615802129362"/>
<polyline points="-191.39969601147368 -13.685961021441692 -195.57874094265551 -22.30107490560478"/>
<polyline points="-199.75778587383732 -30.916188789767887 -198.16982558485427 -41.862922657228886 -196.2077180275932 -40.54640575658016"/>
<polyline points="-198.16982558485427 -41.862922657228886 -197.56515834179208 -38.34822015648673"/>
<polyline points="-196.96049109872996 -34.8335176557446 -196.35582385566778 -31.318815155002465"/>
<polyline points="-196.35582385566778 -31.318815155002465 -194.3937162984068 -30.002298254353736"/>
<polyline points="-196.35582385566778 -31.318815155002465 -194.3937162984068 -30.002298254353736 -191.20788281443828 -30.973685404930606"/>
<polyline points="-191.20788281443828 -30.973685404930606 -187.0154326908558 -34.16677817771443 -182.1020744752302 -39.36397257707527"/>
<polyline points="-182.1020744752302 -39.36397257707527 -177.18871625960463 -44.56116697643612 -171.8892871946224 -51.40828279282739"/>
<polyline points="-171.8892871946224 -51.40828279282739 -166.58985812964016 -58.25539860921867 -161.26550554835922 -66.2858162151472"/>
<polyline points="-161.26550554835922 -66.2858162151472 -155.94115296707838 -74.31623382107573 -150.9547226990044 -82.98269352759004"/>
<polyline points="-150.9547226990044 -82.98269352759004 -145.96829243093043 -91.64915323410436 -141.659601458367 -100.36105013420735 -127.65609665009025 -114.61227956440295 -132.73873832445233 -107.78305775322366"/>
<polyline points="-127.65609665009025 -114.61227956440295 -133.91143932217028 -107.38872463581738"/>
<polyline points="-140.16678199425039 -100.16516970723173 -146.4221246663305 -92.94161477864608"/>
<polyline points="-146.4221246663305 -92.94161477864608 -151.50476634069253 -86.11239296746679"/>
<polyline points="-146.4221246663305 -92.94161477864608 -141.33948299196837 -99.77083658982538 -138.18991091141393 -106.22333188831622"/>
<polyline points="-138.18991091141393 -106.22333188831622 -135.0403388308595 -112.67582718680708 -134.03847447648857 -118.31186908126995"/>
<polyline points="-134.03847447648857 -118.31186908126995 -132.82435570458472 -113.87636753194303 -129.4769939942853 -110.94367842832584"/>
<polyline points="-111.07233847841962 -92.07201244125754 -107.72497676812011 -89.13932333764033"/>
<polyline points="-104.37761505782068 -86.2066342340231 -86.9100990221067 -78.65543344754019 -96.61648312058037 -77.4456926287098"/>
<polyline points="-86.9100990221067 -78.65543344754019 -96.45541897031359 -79.98362009737268"/>
<polyline points="-106.00073891852051 -81.31180674720514 -115.54605886672744 -82.63999339703763"/>
<polyline points="-115.54605886672744 -82.63999339703763 -125.25244296520106 -81.43025257820723"/>
<polyline points="-115.54605886672744 -82.63999339703763 -125.25244296520106 -81.43025257820723 -134.45841717818857 -77.76502612832608"/>
<polyline points="-134.45841717818857 -77.76502612832608 -142.53660957666654 -71.89409317288043 -148.9365046985229 -64.2175480906085"/>
<polyline points="-157.01469709700086 -58.34661513516287 -165.09288949547883 -52.475682179717246 -171.98025871197385 -45.37080988965129"/>
<polyline points="-171.98025871197385 -45.37080988965129 -178.8676279284689 -38.265937599585335 -184.09481113279253 -30.411311280110446"/>
<polyline points="-184.09481113279253 -30.411311280110446 -180.88403783768618 -38.48041182570579 -179.90848334580494 -46.214090730058366"/>
<polyline points="-171.25813738127903 -69.9844070119347 -170.2825828893977 -77.71808591628732"/>
<polyline points="-169.30702839751646 -85.45176482063992 -169.66895487710318 -86.89199098228389 -164.57689603725598 -87.06923661883782"/>
<polyline points="-169.66895487710318 -86.89199098228389 -166.939437798189 -86.61098211519851"/>
<polyline points="-164.20992071927478 -86.32997324811309 -161.48040364036063 -86.04896438102772"/>
<polyline points="-161.48040364036063 -86.04896438102772 -156.38834480051338 -86.22621001758169"/>
<polyline points="-161.48040364036063 -86.04896438102772 -156.38834480051338 -86.22621001758169 -149.28075959464365 -86.84963116055606"/>
<polyline points="-149.28075959464365 -86.84963116055606 -140.64201820869147 -87.87674268930934 -131.0608365919143 -89.23754865053907"/>
<polyline points="-131.0608365919143 -89.23754865053907 -140.64201820869147 -87.87674268930935 -150.51269836276145 -86.27497897302287"/>
<polyline points="-150.51269836276145 -86.27497897302287 -160.38337851683144 -84.67321525673634 -169.87088666776464 -82.93965133561831"/>
<polyline points="-169.87088666776464 -82.93965133561831 -161.4131085216058 -84.68687594519358 -154.56144398374283 -86.32869077350868"/>
<polyline points="-126.43968518925941 -82.48031514365579 -119.58802065139642 -84.12212997197088"/>
<polyline points="-112.73635611353343 -85.76394480028601 -107.49193252325128 -75.60726891098179 -105.49960617564795 -78.62377046006016"/>
<polyline points="-107.49193252325128 -75.60726891098179 -107.81798522336268 -79.7974661670328"/>
<polyline points="-108.14403792347407 -83.98766342308376 -108.47009062358549 -88.17786067913472"/>
<polyline points="-108.47009062358549 -88.17786067913472 -106.47776427598218 -91.19436222821308"/>
<polyline points="-108.47009062358549 -88.17786067913472 -106.47776427598218 -91.19436222821308 -102.30283262877836 -92.83159847475365"/>
<polyline points="-102.30283262877836 -92.83159847475365 -96.2298103743302 -92.97799447421552 -88.67256394313459 -91.6235735811661"/>
<polyline points="-88.67256394313459 -91.6235735811661 -96.2298103743302 -92.97799447421552 -104.75626712692757 -95.74093071420108"/>
<polyline points="-104.75626712692757 -95.74093071420108 -113.28272387952492 -98.50386695418668 -122.19732701647048 -102.48702900232156"/>
<polyline points="-122.19732701647048 -102.48702900232156 -113.50209296688126 -97.5550870571313 -105.61879383557428 -92.01046890803094"/>
<polyline points="-79.83872763974351 -62.1404224971275 -71.95542850843647 -56.59580434802717"/>
<polyline points="-64.07212937712946 -51.05118619892684 -62.32666082499556 -32.31924127629043 -61.168616733352465 -39.015480512240096"/>
<polyline points="-62.32666082499556 -32.31924127629043 -62.17897359694398 -40.633653863733244"/>
<polyline points="-62.03128636889242 -48.94806645117605 -61.88359914084085 -57.262479038618885"/>
<polyline points="-61.88359914084085 -57.262479038618885 -60.72555504919776 -63.958718274568554"/>
<polyline points="-61.88359914084085 -57.262479038618885 -60.72555504919776 -63.958718274568554 -58.63607288505034 -68.58044652115365"/>
<polyline points="-58.63607288505034 -68.58044652115365 -55.75754740485267 -70.81270063613648 -52.28614536309191 -70.50335619055528"/>
<polyline points="-49.407619882894224 -72.73561030553809 -56.54037001623114 -61.92733138717097 -50.68423491578814 -62.710654917345174"/>
<polyline points="-56.54037001623114 -61.92733138717097 -51.66291984838997 -65.13019791219651"/>
<polyline points="-46.78546968054883 -68.33306443722203 -41.90801951270767 -71.53593096224756"/>
<polyline points="-41.90801951270767 -71.53593096224756 -36.051884412264684 -72.31925449242175"/>
<polyline points="-41.90801951270767 -71.53593096224756 -57.38760562734596 -69.70343946055662 -50.20480843039527 -65.52184142757861"/>
<polyline points="-57.38760562734596 -69.70343946055662 -49.66310450721335 -68.01316874138685"/>
<polyline points="-41.93860338708074 -66.32289802221709 -34.21410226694813 -64.63262730304733"/>
<polyline points="-34.21410226694813 -64.63262730304733 -27.031305069997455 -60.451029270069334"/>
<polyline points="-34.21410226694813 -64.63262730304733 -51.33006270951977 -72.50745056588327 -45.437942647329685 -64.55993619209953"/>
<polyline points="-51.33006270951977 -72.50745056588327 -43.850140395509975 -66.35536016632243"/>
<polyline points="-36.370218081500184 -60.203269766761586 -28.890295767490386 -54.051179367200724"/>
<polyline points="-28.890295767490386 -54.051179367200724 -22.99817570530031 -46.10366499341697"/>
<polyline points="-28.890295767490386 -54.051179367200724 -42.44015148614173 -68.64789724516254 -40.02814641644004 -59.381995284847086"/>
<polyline points="-42.44015148614173 -68.64789724516254 -37.6846450699182 -60.07360486759272"/>
<polyline points="-32.92913865369465 -51.499312490022916 -28.173632237471107 -42.92502011245313"/>
<polyline points="-28.173632237471107 -42.92502011245313 -25.761627167769397 -33.659118152137694"/>
<polyline points="-4.396100156353407 -0.0535582246041705 1.3917128707824817 7.106705626650518"/>
<polyline points="7.179525897918369 14.266969477905194 4.066766527271429 33.78931682594041 7.769432739265471 26.376880488531526"/>
<polyline points="4.066766527271429 33.78931682594041 6.789049001859525 24.899602137699425"/>
<polyline points="9.511331476447623 16.009887449458443 12.233613951035723 7.120172761217469"/>
<polyline points="12.233613951035723 7.120172761217469 15.93628016302978 -0.2922635761914097"/>
<polyline points="12.233613951035723 7.120172761217469 6.409745145146427 14.119471796936272 -0.069898589086197 19.15042450724305"/>
<polyline points="-0.069898589086197 19.15042450724305 -6.54954232331881 24.18137721754981 -13.243383973524365 26.901132489279593"/>
<polyline points="-13.243383973524365 26.901132489279593 -6.791518653711025 26.677921483287083 -1.0213136236236087 28.966466204216612"/>
<polyline points="13.582010316419725 35.20219347491832 19.352215346507137 37.49073819584785"/>
<polyline points="25.12242037659455 39.779282916777376 21.151129503673964 47.75516803520926 23.650706681003516 39.85665595303713"/>
<polyline points="21.151129503673964 47.75516803520926 23.472851571620613 41.602286355332275"/>
<polyline points="25.794573639567247 35.44940467545531 28.116295707513878 29.29652299557834"/>
<polyline points="28.116295707513878 29.29652299557834 30.615872884843434 21.398010913406253"/>
<polyline points="28.116295707513878 29.29652299557834 30.615872884843434 21.398010913406253 33.122963117667496 12.292138974430646"/>
<polyline points="33.122963117667496 12.292138974430646 35.466712349781595 2.5994573031278705 37.48739794424587 -7.019493862516643"/>
<polyline points="37.48739794424587 -7.019493862516643 35.466712349781595 2.5994573031278705 33.90679677688899 11.489162337243792"/>
<polyline points="33.90679677688899 11.489162337243792 32.34688120399638 20.37886737135974 31.354041321085752 27.933507566804288"/>
<polyline points="31.354041321085752 27.933507566804288 30.361201438175122 35.48814776224881 30.003097642521322 41.192886874335656"/>
<polyline points="30.003097642521322 41.192886874335656 29.644993846867532 46.89762598642249 29.946030320349877 50.36369547219004"/>
<polyline points="29.946030320349877 50.36369547219004 30.24706679383222 53.82976495795757 31.186728398269167 54.820957909901416"/>
<polyline points="31.186728398269167 54.820957909901416 32.12639000270612 55.81215086184523 33.64064035261954 54.2609191183142"/>
<polyline points="33.64064035261954 54.2609191183142 26.587455756239596 49.32256111058961 28.6312314780305 56.27040843724775"/>
<polyline points="26.587455756239596 49.32256111058961 29.470890419841744 54.197172635730794"/>
<polyline points="32.35432508344389 59.07178416087197 35.237759747046034 63.946395686013176"/>
<polyline points="35.237759747046034 63.946395686013176 37.281535468836935 70.89424301267132"/>
<polyline points="35.237759747046034 63.94639568601316 26.559964768068298 49.916333289266454 28.560929614901017 59.53936179803767"/>
<polyline points="26.559964768068298 49.916333289266454 29.841719000004666 58.528826740790215"/>
<polyline points="33.123473231941055 67.14132019231398 36.40522746387742 75.75381364383774"/>
<polyline points="36.40522746387742 75.75381364383774 38.406192310710146 85.37684215260893"/>
<polyline points="36.40522746387742 75.75381364383774 28.24510537591851 57.50724515621313 29.172530788943874 66.72699702886526"/>
<polyline points="28.24510537591851 57.50724515621313 30.837171102250096 67.00229934010189"/>
<polyline points="33.4292368285817 76.49735352399063 36.021302554913284 85.99240770787937"/>
<polyline points="36.021302554913284 85.99240770787937 36.94872796793867 95.21215958053149"/>
<polyline points="48.981631186571285 133.4676786273231 53.767320642329736 141.84372117447748"/>
<polyline points="58.55301009808822 150.21976372163184 52.23078339871889 166.9916225475088 54.50513261473251 161.91978610840562"/>
<polyline points="52.23078339871889 166.9916225475088 55.04438586060794 160.0253703334313"/>
<polyline points="57.85798832249699 153.05911811935388 60.67159078438605 146.09286590527643"/>
<polyline points="60.67159078438605 146.09286590527643 62.945940000399645 141.0210294661733"/>
<polyline points="60.67159078438605 146.09286590527643 56.03100192828009 150.1539563411861 52.16528711911933 152.00943406529305"/>
<polyline points="52.16528711911933 152.00943406529305 48.29957230995855 153.86491178939997 45.472173623591495 153.38832906112825"/>
<polyline points="45.472173623591495 153.38832906112825 47.0685736391862 156.16449391643715 47.3251829611215 161.05104985172323"/>
<polyline points="39.48418360926335 175.33475495306925 39.74079293119865 180.22131088835536"/>
<polyline points="39.99740225313392 185.1078668236414 25.687581886893952 192.70309246652747 32.65641649118272 185.75146956802723"/>
<polyline points="25.687581886893952 192.70309246652747 32.99857016519165 187.13887861729228"/>
<polyline points="40.309558443489344 181.57466476805703 47.62054672178704 176.01045091882182"/>
<polyline points="47.62054672178704 176.01045091882182 54.58938132607581 169.05882802032158"/>
<polyline points="47.62054672178704 176.01045091882182 54.58938132607581 169.05882802032158 60.74114769461712 161.1935376849891"/>
<polyline points="60.74114769461712 161.1935376849891 65.65661311566944 152.95058645117055 69.00079674397877 144.89171782332954"/>
<polyline points="69.00079674397877 144.89171782332954 72.3449803722881 136.83284919548854 73.88998162010991 129.5072617527024"/>
<polyline points="73.88998162010991 129.5072617527024 75.43498286793168 122.18167430991619 75.07551245346218 116.08859473030512"/>
<polyline points="75.07551245346218 116.08859473030512 74.71604203899267 109.99551515069405 72.476597276925 105.55017673831846"/>
<polyline points="72.476597276925 105.55017673831846 70.23715251485734 101.10483832594285 66.27034786486898 98.6101835473371 58.41728055811692 87.09818770974589 65.30217575289947 88.60721668230313"/>
<polyline points="58.41728055811692 87.09818770974589 64.01368793946543 90.85884235507405"/>
<polyline points="69.61009532081393 94.6194970004022 75.20650270216245 98.38015164573041"/>
<polyline points="75.20650270216245 98.38015164573041 82.09139789694501 99.88918061828764"/>
<polyline points="66.27034786486898 98.6101835473371 70.23715251485734 101.10483832594285 75.66098587132434 101.47880287022882"/>
<polyline points="75.66098587132434 101.47880287022882 81.08481922779131 101.85276741451476 87.59605601080214 100.08055665879341"/>
<polyline points="87.59605601080214 100.08055665879341 94.10729279381295 98.30834590307204 101.26220297693294 94.51073308162903"/>
<polyline points="101.26220297693294 94.51073308162903 108.4171131600529 90.71312026018605 115.7281014383506 85.1489064109508"/>
<polyline points="115.7281014383506 85.1489064109508 123.03908971664829 79.58469256171556 130.00792432093706 72.63306966321534"/>
<polyline points="130.00792432093706 72.63306966321534 136.97675892522585 65.6814467647151 143.12852529376718 57.81615642938266"/>
<polyline points="143.12852529376718 57.81615642938266 149.28029166230849 49.950866094050234 154.19575708336077 41.707914860231625"/>
<polyline points="154.19575708336077 41.707914860231625 159.1112225044131 33.46496362641304 162.45540613272243 25.40609499857202"/>
<polyline points="162.45540613272243 25.40609499857202 165.7995897610318 17.347226370730997 167.34459100885354 10.021638927944812"/>
<polyline points="167.34459100885354 10.021638927944812 168.88959225667534 2.6960514851586717 168.5301218422059 -3.3970280944524385"/>
<polyline points="168.5301218422059 -3.3970280944524385 168.17065142773637 -9.490107674063506 165.9312066656687 -13.9354460864391"/>
<polyline points="165.9312066656687 -13.9354460864391 163.69176190360105 -18.380784498814716 159.72495725361267 -20.875439277420497"/>
<polyline points="159.72495725361267 -20.875439277420497 154.12992207319823 -24.747221495438453 147.13333879624037 -26.451388999543934"/>
<polyline points="147.13333879624037 -26.451388999543934 140.1367555192825 -28.15555650364942 132.21542973370526 -27.575973094707606"/>
<polyline points="132.21542973370526 -27.575973094707606 140.52167276622453 -30.399809765184195 148.64677630973526 -35.275459894713315"/>
<polyline points="174.2894284064552 -59.094324053138784 182.4145319499659 -63.969974182667904"/>
<polyline points="190.53963549347662 -68.84562431219706 193.3877415140057 -87.38281240448704 192.8194978307049 -77.52765982847444"/>
<polyline points="193.3877415140057 -87.38281240448704 192.35645285842674 -77.48363272542828"/>
<polyline points="191.32516420284776 -67.58445304636949 190.2938755472687 -57.6852733673107"/>
<polyline points="190.2938755472687 -57.6852733673107 189.72563186396783 -47.83012079129806"/>
<polyline points="190.2938755472687 -57.6852733673107 189.72563186396783 -47.83012079129806 189.65915802089503 -38.6906076799772"/>
<polyline points="189.65915802089503 -38.6906076799772 190.09898410060242 -30.889576748125016 191.0151366826049 -24.958655361934106"/>
<polyline points="191.0151366826049 -24.958655361934106 190.09898410060242 -30.889576748125016 188.76893930075454 -34.546206097496736"/>
<polyline points="188.76893930075454 -34.546206097496736 187.43889450090663 -38.20283544686844 185.78559783832003 -39.335979512127025"/>
<polyline points="185.78559783832003 -39.335979512127025 187.64947692829196 -40.80354262641984 189.59691816587352 -44.77180091928774"/>
<polyline points="186.9669378571604 -60.98379160387002 188.91437909474186 -64.95204989673786"/>
<polyline points="190.86182033232342 -68.92030818960576 181.74347285258747 -83.01144464033558 184.04113022837078 -73.40329566561086"/>
<polyline points="181.74347285258747 -83.01144464033558 185.2928298161517 -74.39084627406632"/>
<polyline points="188.842186779716 -65.77024790779707 192.39154374328027 -57.14964954152781"/>
<polyline points="192.39154374328027 -57.14964954152781 194.68920111906363 -47.54150056680308"/>
<polyline points="192.39154374328027 -57.14964954152781 194.68920111906363 -47.54150056680308 195.57857735396485 -37.600580458033434"/>
<polyline points="195.57857735396485 -37.600580458033434 194.99906292733903 -28.004346492484302 192.99015078966795 -19.406766156381405"/>
<polyline points="192.99015078966795 -19.406766156381405 194.99906292733903 -28.004346492484302 198.30046873375744 -35.017362307408845"/>
<polyline points="198.30046873375744 -35.017362307408845 201.6018745401759 -42.030378122333396 205.97078866546516 -46.98090397784908"/>
<polyline points="205.97078866546516 -46.98090397784908 200.8321004989714 -44.43023823766486 195.27383139773602 -44.45325626783119"/>
<polyline points="165.24149365286488 -43.41874826189864 159.6832245516295 -43.44176629206499"/>
<polyline points="154.1249554503941 -43.46478432223133 135.8755482115285 -50.54363737228009 142.00511507100853 -42.8064922806781"/>
<polyline points="135.8755482115285 -50.54363737228009 143.77173964970407 -44.70645437658924"/>
<polyline points="151.66793108787965 -38.86927138089839 159.56412252605523 -33.032088385207544"/>
<polyline points="159.56412252605523 -33.032088385207544 165.69368938553527 -25.294943293605574"/>
<polyline points="159.56412252605523 -33.032088385207544 165.69368938553527 -25.294943293605574 169.63891181443438 -16.18510975784831"/>
<polyline points="169.63891181443438 -16.18510975784831 171.13092942401133 -6.323407878685889 170.06806367984925 3.6181036580496704"/>
<polyline points="171.56008128942625 13.479805537212082 162.05032620684423 -4.081886561323996 162.10313064531536 5.5991128989144014"/>
<polyline points="162.05032620684423 -4.081886561323996 164.5389655251615 5.474667889877435"/>
<polyline points="167.0276048434788 15.031222341078866 169.51624416179607 24.587776792280287"/>
<polyline points="169.51624416179607 24.587776792280287 169.56904860026725 34.268776252518684"/>
<polyline points="169.51624416179607 24.587776792280287 168.99579843931545 7.180163863932157 164.2375907071999 14.64210524948667"/>
<polyline points="168.99579843931545 7.180163863932157 166.66747014098445 15.548170707601917"/>
<polyline points="164.33914184265336 23.91617755127168 162.01081354432236 32.28418439494143"/>
<polyline points="162.01081354432236 32.28418439494143 157.25260581220675 39.746125780495944"/>
<polyline points="162.01081354432236 32.28418439494143 170.80586192733645 20.416356616758595 162.6165426299988 23.313701125847675"/>
<polyline points="170.80586192733645 20.416356616758595 164.29043230206113 24.987752348099978"/>
<polyline points="157.77500267678573 29.559148079441375 151.25957305151047 34.13054381078274"/>
<polyline points="151.25957305151047 34.13054381078274 143.0702537541727 37.02788831987184"/>
<polyline points="151.25957305151047 34.13054381078274 166.0590719819464 31.99374545102222 156.95606660373784 29.4942663414761"/>
<polyline points="166.0590719819464 31.99374545102222 157.51661748167302 31.252963969299234"/>
<polyline points="148.97416298139973 30.512182487576194 140.43170848112638 29.771401005853182"/>
<polyline points="140.43170848112638 29.771401005853182 131.3287031029178 27.27192189630704"/>
<polyline points="97.71943597975972 26.067493597238098 90.69469085968653 24.011881174894388"/>
<polyline points="83.66994573961335 21.956268752550674 64.50204204069037 16.53512102978154 71.39787494645668 23.640226776056757"/>
<polyline points="64.50204204069037 16.53512102978154 73.03260634837663 21.61609067595511"/>
<polyline points="81.56317065606291 26.697060322128696 90.09373496374918 31.778029968302263"/>
<polyline points="90.09373496374918 31.778029968302263 96.9895678695155 38.88313571457748"/>
<polyline points="90.09373496374918 31.778029968302263 83.56528385217096 25.2910450199655 79.12898552806456 17.243063230950042"/>
<polyline points="79.12898552806456 17.243063230950042 74.69268720395819 9.195081441934574 72.65086806678188 0.1345594712430785"/>
<polyline points="72.65086806678188 0.1345594712430785 72.1590614170952 9.590162024528498 69.16714479097277 18.79646147252349"/>
<polyline points="59.96660011958079 57.723508877713165 56.974683493458365 66.92980832570815"/>
<polyline points="53.98276686733593 76.13610777370313 44.88022581857485 90.7090682201578 53.0811105640568 87.01682976837607"/>
<polyline points="44.88022581857485 90.7090682201578 51.48122711846464 85.02606525232771"/>
<polyline points="58.082228418354404 79.34306228449756 64.68322971824415 73.66005931666741"/>
<polyline points="64.68322971824415 73.66005931666741 72.8841144637261 69.96782086488567"/>
<polyline points="64.68322971824415 73.66005931666741 72.8841144637261 69.96782086488567 82.12600591199845 68.51796687792869"/>
<polyline points="82.12600591199845 68.51796687792869 91.7790844338092 69.40930250901057 101.1855086803635 72.58108470787488"/>
<polyline points="101.1855086803635 72.58108470787488 91.7790844338092 69.40930250901057 83.26034673006306 64.1732254575985"/>
<polyline points="83.26034673006306 64.1732254575985 74.7416090263169 58.93714840618646 67.69109576200947 51.99360650025394"/>
<polyline points="67.69109576200947 51.99360650025394 60.64058249770204 45.0500645943214 55.53877450027181 36.87224874001216"/>
<polyline points="55.53877450027181 36.87224874001216 50.43696650284159 28.694432885702916 47.631543556177085 19.83964771900848"/>
<polyline points="47.631543556177085 19.83964771900848 44.8261206095126 10.984862552314029 44.50826765124838 2.056547049120217"/>
<polyline points="44.50826765124838 2.056547049120217 44.190414692984156 -6.871768454073605 46.381792876949085 -15.26516434696312"/>
<polyline points="46.381792876949085 -15.26516434696312 52.76909740179795 -34.21778011891511 45.30010128840761 -27.596947855009244"/>
<polyline points="52.76909740179795 -34.21778011891511 47.24970446001329 -25.885287233967368"/>
<polyline points="41.73031151822865 -17.552794349019628 36.21091857644403 -9.220301464071895"/>
<polyline points="36.21091857644403 -9.220301464071895 28.74192246305368 -2.599469200166041"/>
<polyline points="36.21091857644403 -9.220301464071895 51.23457971019136 -21.817509591159503 41.45445549781546 -20.10525741498854"/>
<polyline points="51.23457971019136 -21.817509591159503 42.283605262348686 -17.670785266326412"/>
<polyline points="33.332630814505976 -13.524060941493328 24.381656366663297 -9.377336616660232"/>
<polyline points="24.381656366663297 -9.377336616660232 14.601532154287389 -7.665084440489272"/>
<polyline points="24.381656366663297 -9.377336616660232 42.84915555648234 -11.611457954107353 33.89448838189528 -15.459805218718888"/>
<polyline points="42.84915555648234 -11.611457954107353 33.43413823606679 -13.025275931405423"/>
<polyline points="24.01912091565122 -14.439093908703516 14.604103595235665 -15.852911886001596"/>
<polyline points="14.604103595235665 -15.852911886001596 5.64943642064862 -19.701259150613133"/>
<polyline points="-32.47098300684213 -22.922001772491964 -40.7696384114506 -24.256750805890686"/>
<polyline points="-49.06829381605906 -25.59149983928942 -64.9945803170294 -37.396698973059166 -60.58415632887231 -28.469008970217104"/>
<polyline points="-64.9945803170294 -37.396698973059166 -58.58955060259496 -29.719976202997977"/>
<polyline points="-52.18452088816049 -22.043253432936783 -45.779491173726036 -14.366530662875581"/>
<polyline points="-45.779491173726036 -14.366530662875581 -41.36906718556894 -5.438840660033534"/>
<polyline points="-45.779491173726036 -14.366530662875581 -49.14791494178047 -23.670631776691536 -50.256675173841465 -33.60446690571797"/>
<polyline points="-50.256675173841465 -33.60446690571797 -51.36543540590247 -43.53830203474438 -50.13897192446803 -53.42489673137683"/>
<polyline points="-50.13897192446803 -53.42489673137683 -53.61707765996489 -44.25929755734358 -59.109798491491524 -36.43931434275115"/>
<polyline points="-75.70493621573215 -6.462745563854497 -81.19765704725877 1.357237650737936"/>
<polyline points="-86.69037787878545 9.177220865330375 -94.69458493173764 14.279191535150584 -87.8305841077166 15.704719150135851"/>
<polyline points="-94.69458493173764 14.279191535150584 -89.06987542777762 13.696611750402171"/>
<polyline points="-83.44516592381764 13.114031965653764 -77.82045641985762 12.531452180905342"/>
<polyline points="-77.82045641985762 12.531452180905342 -70.9564555958366 13.956979795890614"/>
<polyline points="-77.82045641985762 12.531452180905342 -70.9564555958366 13.956979795890614 -63.32093376461393 17.293467459444106"/>
<polyline points="-63.32093376461393 17.293467459444106 -55.434239120691004 22.313539051101177 -47.83383687067205 28.675084987950996"/>
<polyline points="-47.83383687067205 28.675084987950996 -40.233434620653064 35.03663092480081 -33.43727961761821 42.30612236419877"/>
<polyline points="-33.43727961761821 42.30612236419877 -26.641124614583386 49.57561380359673 -21.112363590812357 57.25764691735049"/>
<polyline points="-21.112363590812357 57.25764691735049 -15.583602567041316 64.93968003110422 -11.699011449594487 72.5107369576714"/>
<polyline points="-11.699011449594487 72.5107369576714 -7.814420332147678 80.08179388423858 -5.838727586088711 87.02591960583685 4.848061621993716 98.35187810494025 3.6525465644598536 94.16035802121698"/>
<polyline points="4.848061621993716 98.35187810494025 1.4632729127526931 93.25081389013693"/>
<polyline points="-1.9215157964883294 88.14974967533362 -5.306304505729355 83.04868546053028"/>
<polyline points="-5.306304505729355 83.04868546053028 -6.501819563263216 78.857165376807"/>
<polyline points="-5.838727586088711 87.02591960583685 -3.8630348400297123 93.97004532743506 -3.9308806610159053 99.81400915184773"/>
<polyline points="-3.9308806610159053 99.81400915184773 -3.9987264820020743 105.65797297626045 -6.105487289453686 110.00351842646069"/>
<polyline points="-6.105487289453686 110.00351842646069 -8.212248096905311 114.34906387666098 -12.214351623381388 116.90004921157107"/>
<polyline points="-12.214351623381388 116.90004921157107 -16.21645514985747 119.45103454648124 -21.8411646538175 120.03361433122964"/>
<polyline points="-21.8411646538175 120.03361433122964 -27.465874157777517 120.61619411597802 -34.32987498179849 119.19066650099279"/>
<polyline points="-34.32987498179849 119.19066650099279 -41.19387580581952 117.76513888600753 -48.829397637042184 114.42865122245405"/>
<polyline points="-48.829397637042184 114.42865122245405 -56.46491946826482 111.09216355890057 -64.35161411218773 106.07209196724351"/>
<polyline points="-64.35161411218773 106.07209196724351 -72.23830875611061 101.05202037558645 -79.83871100612963 94.69047443873662"/>
<polyline points="-79.83871100612963 94.69047443873662 -72.23830875611061 101.05202037558645 -65.44215375307579 108.3215118149844"/>
<polyline points="-65.44215375307579 108.3215118149844 -58.64599875004099 115.59100325438233 -53.11723772626992 123.27303636813608"/>
<polyline points="-53.11723772626992 123.27303636813608 -57.0018288437168 115.70197944156885 -58.9775215897757 108.75785371997064"/>
<polyline points="-60.24634130619218 75.32741154551381 -62.222034052251146 68.38328582391557"/>
<polyline points="-64.19772679831011 61.439160102317345 -53.05470579215308 47.137411622556606 -60.382631319730834 49.85598588612665"/>
<polyline points="-53.05470579215308 47.137411622556606 -59.73194522378409 52.24621409725968"/>
<polyline points="-66.40918465541509 57.35501657196276 -73.08642408704605 62.46381904666583"/>
<polyline points="-73.08642408704605 62.46381904666583 -80.4143496146238 65.18239331023587"/>
<polyline points="-73.08642408704605 62.46381904666583 -80.4143496146238 65.18239331023587 -87.89357522341334 65.32547301926697"/>
<polyline points="-87.89357522341334 65.32547301926697 -95.01440404818038 62.88330752803903 -101.2915633722431 58.022326378909995"/>
<polyline points="-64.19772679831011 61.439160102317345 -64.05766647556241 53.36127765222363 -62.42532264443853 46.819841637676696"/>
<polyline points="-62.42532264443853 46.819841637676696 -60.792978813314654 40.27840562312976 -57.779593008330025 35.71920409828683"/>
<polyline points="-57.779593008330025 35.71920409828683 -54.766207203345374 31.16000257344391 -50.57713668725415 28.89373758778629"/>
<polyline points="-50.57713668725415 28.89373758778629 -46.388066171162926 26.627472602128687 -41.30878917687037 26.808586369248946"/>
<polyline points="-41.30878917687037 26.808586369248946 -36.22951218257782 26.98970013636923 -30.606173043342892 29.605850052342806"/>
<polyline points="-30.606173043342892 29.605850052342806 -24.982833904107988 32.22199996831641 -19.198653889262207 37.094899739761836"/>
<polyline points="-19.198653889262207 37.094899739761836 -13.41447387441645 41.96779951120727 -7.863635293162136 48.76536907154819"/>
<polyline points="-7.863635293162136 48.76536907154819 -2.3127967119078505 55.562938631889104 2.626419959636974 63.821934849103094"/>
<polyline points="2.626419959636974 63.821934849103094 7.565636631181805 72.08093106631709 11.55663193929289 81.2385169968376"/>
<polyline points="11.55663193929289 81.2385169968376 15.547627247403955 90.39610292735814 18.31842145726506 99.82820422364648"/>
<polyline points="18.31842145726506 99.82820422364648 21.089215667126194 109.26030551993487 22.450983732289227 118.32414006593336"/>
<polyline points="22.450983732289227 118.32414006593336 23.81275179745231 127.38797461193194 23.672691474704592 135.46585706202563"/>
<polyline points="23.672691474704592 135.46585706202563 23.53263115195689 143.54373951211934 21.900287320833023 150.08517552666632"/>
<polyline points="21.900287320833023 150.08517552666632 20.267943489709154 156.62661154121324 17.25455768472449 161.18581306605617"/>
<polyline points="17.25455768472449 161.18581306605617 14.241171879739838 165.74501459089907 10.052101363648589 168.01127957655672"/>
<polyline points="10.052101363648589 168.01127957655672 5.86303084755736 170.27754456221433 0.7837538532648182 170.09643079509408"/>
<polyline points="0.7837538532648182 170.09643079509408 -4.295523141027723 169.91531702797377 -9.918862280262644 167.29916711200022"/>
<polyline points="-9.918862280262644 167.29916711200022 -15.542201419497596 164.6830171960266 -21.32638143434334 159.8101174245812"/>
<polyline points="-21.32638143434334 159.8101174245812 -27.110561449189106 154.93721765313575 -32.661400030443424 148.13964809279483"/>
<polyline points="-32.661400030443424 148.13964809279483 -38.212238611697714 141.34207853245388 -43.15145528324254 133.08308231523986"/>
<polyline points="-43.15145528324254 133.08308231523986 -48.09067195478734 124.82408609802592 -52.08166726289841 115.66650016750539"/>
<polyline points="-52.08166726289841 115.66650016750539 -56.07266257100951 106.50891423698485 -58.8434567808706 97.07681294069651"/>
<polyline points="-58.8434567808706 97.07681294069651 -55.48641029612746 77.42290805402983 -59.47969256201011 85.84274162817792"/>
<polyline points="-55.48641029612746 77.42290805402983 -58.42235286743461 86.86813952049899"/>
<polyline points="-61.3582954387418 96.31337098696814 -64.29423801004899 105.75860245343728"/>
<polyline points="-64.29423801004899 105.75860245343728 -68.28752027593168 114.17843602758538"/>
<polyline points="-64.29423801004899 105.75860245343728 -52.20634905063081 90.44695832519422 -59.2203191534863 94.54193204709291"/>
<polyline points="-52.20634905063081 90.44695832519422 -58.965623017210085 96.52961781425918"/>
<polyline points="-65.72489698378938 102.61227730332415 -72.48417095036866 108.69493679238911"/>
<polyline points="-72.48417095036866 108.69493679238911 -79.49814105322417 112.7899105142878"/>
<polyline points="-72.48417095036866 108.69493679238911 -55.24478161658247 102.83380968235392 -62.73998798172547 101.26228137527646"/>
<polyline points="-55.24478161658247 102.83380968235392 -63.586468210648896 103.53729809261894"/>
<polyline points="-71.92815480471533 104.24078650288403 -80.26984139878178 104.9442749131491"/>
<polyline points="-80.26984139878178 104.9442749131491 -87.76504776392477 103.37274660607162"/>
<polyline points="-121.97827436911379 108.46171696447439 -131.44855412285213 108.50266029137691"/>
<polyline points="-140.91883387659044 108.54360361827942 -149.26941012191506 102.27231346748243 -145.4836997461942 109.65051852340088"/>
<polyline points="-149.26941012191506 102.27231346748243 -145.1484940630868 107.71468277015934"/>
<polyline points="-141.02757800425852 113.15705207283632 -136.9066619454303 118.59942137551324"/>
<polyline points="-136.9066619454303 118.59942137551324 -133.12095156970943 125.97762643143172"/>
<polyline points="-136.9066619454303 118.59942137551324 -138.2132258380842 111.00918051118585 -139.01106900962648 101.99314132008602"/>
<polyline points="-139.01106900962648 101.99314132008602 -139.80891218116878 92.97710212898623 -140.04366293795692 83.14969278227831"/>
<polyline points="-140.04366293795692 83.14969278227831 -140.38800247205404 93.11875057817811 -141.28796612683576 102.55008200912614"/>
<polyline points="-134.6704924018981 139.17632994014403 -135.57045605667975 148.60766137109206"/>
<polyline points="-136.4704197114615 158.03899280204007 -127.64868935666021 168.26641213589826 -128.82897510289305 166.42142783418515"/>
<polyline points="-127.64868935666021 168.26641213589826 -130.54288204281798 164.66432707964898"/>
<polyline points="-133.43707472897577 161.0622420233997 -136.3312674151335 157.46015696715043"/>
<polyline points="-136.3312674151335 157.46015696715043 -137.51155316136635 155.61517266543734"/>
<polyline points="-136.3312674151335 157.46015696715043 -137.51155316136635 155.61517266543734 -136.8974974445829 155.65302174944145"/>
<polyline points="-136.8974974445829 155.65302174944145 -134.53094714710687 157.57112486663652 -130.57317876080202 161.23876645940092"/>
<polyline points="-130.57317876080202 161.23876645940092 -126.61541037449722 164.90640805216526 -121.33613927436865 170.07364440701642"/>
<polyline points="-121.33613927436865 170.07364440701642 -116.05686817424012 175.24088076186757 -109.81586796135367 181.5555732604842"/>
<polyline points="-109.81586796135367 181.5555732604842 -103.57486774846723 187.87026575910082 -96.79745227359061 194.90207854322497"/>
<polyline points="-96.79745227359061 194.90207854322497 -90.020036798714 201.93389132734913 -83.16807572625136 209.20361797636278 -66.31827544855265 219.23364428283085 -74.20459586625962 213.96802334096049"/>
<polyline points="-66.31827544855265 219.23364428283085 -74.76158450636167 213.9119964837442"/>
<polyline points="-83.2048935641707 208.59034868465758 -91.6482026219798 203.26870088557095"/>
<polyline points="-91.6482026219798 203.26870088557095 -99.53452303968673 198.0030799437006"/>
</svg>