<svg baseProfile="full" fill-opacity="0.0" height="100%" stroke="black" stroke-width="1" version="1.1" viewBox="-560.1148535400122,-253.7746461774182,1128.0933801577667,754.8432032080285" width="100%" xmlns="http://www.w3.org/2000/svg" xmlns:ev="http://www.w3.org/2001/xml-events" xmlns:xlink="http://www.w3.org/1999/xlink"><defs /><polyline points="567.9785266177546,-98.15720521809106 566.1853282774891,-88.5482296964744" /><polyline points="566.1853282774891,-88.54822969647498 559.1788427615999,-94.93346758746547" /><polyline points="559.1788427615999,-94.93346758746547 559.3724174103742,-86.45033304387115" /><polyline points="559.3724174103742,-86.45033304387115 549.8615946514063,-89.51540777473026" /><polyline points="549.8615946514063,-89.51540777473026 551.5909222149818,-99.00965674369269" /><polyline points="551.5909222149818,-99.00965674369269 552.4557780344078,-93.13282420406252" /><polyline points="552.4557780344078,-93.13282420406252 554.1851055979834,-102.6270731730251" /><polyline points="554.1851055979834,-102.6270731730251 559.4991183111742,-98.87601026219814" /><polyline points="559.4991183111742,-98.87601026219814 561.1889708571233,-94.0049045890955" /><polyline points="561.1889708571233,-94.0049045890955 554.4219672713473,-89.86340226401444" /><polyline points="554.4219672713473,-89.86340226401444 559.0617895244346,-84.60100490152335" /><polyline points="559.0617895244346,-84.60100490152335 550.6213623358183,-79.34620390229281" /><polyline points="550.6213623358183,-79.34620390229281 549.5033963474418,-89.27991649527141" /><polyline points="549.5033963474418,-89.27991649527141 545.985578418203,-80.28627158796638" /><polyline points="545.985578418203,-80.28627158796638 544.2477682865008,-90.0515613689617" /><polyline points="544.2477682865008,-90.0515613689617 537.9551230733954,-83.52022067526615" /><polyline points="537.9551230733954,-83.52022067526615 546.3274827594539,-78.73670143792695" /><polyline points="546.3274827594539,-78.73670143792695 538.6883161934312,-85.1191051286072" /><polyline points="538.6883161934312,-85.1191051286072 539.810601065992,-77.7325219973245" /><polyline points="539.810601065992,-77.7325219973245 537.142790969569,-81.19979231907152" /><polyline points="537.142790969569,-81.19979231907152 539.3523967292949,-90.90121279299372" /><polyline points="539.3523967292949,-90.90121279299372 529.6857011514776,-90.06388317919271" /><polyline points="529.6857011514776,-90.06388317919271 530.2806675388971,-80.1335318401409" /><polyline points="530.2806675388971,-80.1335318401409 537.6363483225128,-86.6241673081447" /><polyline points="537.6363483225128,-86.6241673081447 540.9764570128993,-94.38520007181965" /><polyline points="537.6363483225128,-86.6241673081447 540.9764570128993,-94.38520007181965" /><polyline points="540.9764570128993,-94.38520007181965 541.263995647935,-104.3610336297333" /><polyline points="541.263995647935,-104.3610336297333 534.7001038122546,-106.2575633452865 514.7339489055373,-105.2411715700467 505.8720506287376,-109.6703271596442 496.2954006547065,-109.1905586703411 475.702903964102,-103.8290922208387" /><polyline points="475.702903964102,-103.8290922208387 469.193416314814,-108.9538960379873 451.0874095843836,-110.658334231425 444.5779219350957,-115.7831380485737 436.8101982116556,-115.9352420049767 424.4642740584646,-108.1866811145394" /><polyline points="424.4642740584646,-108.1866811145394 421.7563886033693,-112.5317821402439" /><polyline points="424.4642740584646,-108.1866811145394 421.7563886033693,-112.5317821402439" /><polyline points="424.4642740584646,-108.1866811145394 418.1392989465016,-110.1178536461982" /><polyline points="418.1392989465016,-110.1178536461982 408.8936771597828,-113.7072792879035" /><polyline points="436.8101982116556,-115.9352420049767 430.4852230996925,-117.8664145366356 415.5197161088065,-106.567232111719 412.1094422744191,-99.71782510458777 405.8614658700349,-92.2144054335482 395.3374269380002,-64.70817084235777" /><polyline points="395.3374269380002,-64.70817084235777 395.5774280987716,-55.58648828407176 386.3460682532007,-38.50249745920095 386.586069413972,-29.38081490091494 383.2722084151147,-19.95199213952127 379.2138067127501,6.654208287399837" /><polyline points="379.2138067127501,6.654208287399837 386.4155549910193,13.41377225568058" /><polyline points="379.2138067127501,6.654208287399837 382.8551640902198,15.95021245836248" /><polyline points="383.2722084151147,-19.95199213952127 382.4788019714453,-10.00242207859623" /><polyline points="383.2722084151147,-19.95199213952127 382.4788019714453,-10.00242207859623" /><polyline points="395.3374269380002,-64.70817084235777 391.2238856959789,-56.17248058329113" /><polyline points="391.2238856959789,-56.17248058329113 381.8128873974281,-52.87077777876305" /><polyline points="391.2238856959789,-56.17248058329113 381.8128873974281,-52.87077777876305" /><polyline points="381.8128873974281,-52.87077777876305 374.0778520519117,-50.87409997571317" /><polyline points="405.8614658700349,-92.2144054335482 401.7479246280137,-83.67871517448165 384.8606818863014,-74.88130466632194 380.1640057910547,-68.30367818906555 372.0175654941161,-65.49886290876188 351.6987740539502,-70.7037342094803" /><polyline points="351.6987740539502,-70.7037342094803 349.2389789923627,-67.15696252269441 335.2876181512805,-61.73042514546017 332.8278230896929,-58.18365345867419 326.453590629218,-57.75297393425792 311.381848059219,-71.41692606299483" /><polyline points="311.381848059219,-71.41692606299483 311.5133363662858,-71.91366652910048" /><polyline points="311.381848059219,-71.41692606299483 311.5133363662858,-71.91366652910048" /><polyline points="311.381848059219,-71.41692606299483 307.1889310457537,-71.16249630344885" /><polyline points="307.1889310457537,-71.16249630344885 301.6954811779743,-64.9170552256371" /><polyline points="326.453590629218,-57.75297393425792 322.2606736157526,-57.49854417471191 303.3827172949964,-61.61216181433602 296.5137504677894,-68.11264449167373 287.0368415206196,-71.29449169949608 262.6667714389681,-81.49365823334735" /><polyline points="262.6667714389681,-81.49365823334735 257.5090676716262,-90.0165474941999 240.0086456420725,-99.63999886454232 234.8509418747306,-108.1628881253948 226.6910260563487,-113.0745411913613 208.2657601683636,-121.6697874170993" /><polyline points="208.2657601683636,-121.6697874170993 210.2030274013556,-130.6189339863863" /><polyline points="208.2657601683636,-121.6697874170993 205.8521626581132,-130.0310777682892" /><polyline points="226.6910260563487,-113.0745411913613 220.2808951953159,-119.7246103889685" /><polyline points="262.6667714389681,-81.49365823334735 254.3138825775402,-86.99175815979524" /><polyline points="303.3827172949964,-61.61216181433602 296.2194012719564,-62.10065571961032" /><polyline points="296.2194012719564,-62.10065571961032 291.2189369068221,-53.64251107703572" /><polyline points="322.2606736157526,-57.49854417471191 315.0973575927125,-57.98703807998624" /><polyline points="326.453590629218,-57.75297393425792 322.2606736157526,-57.49854417471191" /><polyline points="351.6987740539502,-70.7037342094803 345.3009442095213,-67.2828480393013" /><polyline points="345.3009442095213,-67.2828480393013 335.3276392160942,-66.59115862064363" /><polyline points="345.3009442095213,-67.2828480393013 335.3276392160942,-66.59115862064363" /><polyline points="335.3276392160942,-66.59115862064363 328.3052138832119,-59.47385893719441" /><polyline points="372.0175654941161,-65.49886290876188 365.6197356496871,-62.07797673858294 346.0315250359394,-65.71199138320372 338.5298560080545,-71.04641515284436 329.2978776113733,-74.822477122791 309.3974183471814,-92.30346621587302" /><polyline points="309.3974183471814,-92.30346621587302 304.6072234782009,-100.9484063528247 287.9396946355239,-111.9456179545274 283.1494997665433,-120.5905580914791 276.0372375239101,-127.1242206328143 263.9156210063535,-145.6610384809737" /><polyline points="263.9156210063535,-145.6610384809737 262.8261522805623,-155.4938439279896" /><polyline points="263.9156210063535,-145.6610384809737 262.8261522805623,-155.4938439279896" /><polyline points="263.9156210063535,-145.6610384809737 258.6895893671939,-153.9108878850501" /><polyline points="258.6895893671939,-153.9108878850501 250.6169705534709,-158.7640448485369" /><polyline points="276.0372375239101,-127.1242206328143 270.8112058847504,-135.3740700368906 254.1160219459802,-137.1142345558957 249.6337955139417,-138.8536604371342 241.9759176795209,-137.3677460051249 225.068271817878,-118.8088087520787" /><polyline points="225.068271817878,-118.8088087520787 223.4604946061103,-116.6776699098516 210.8668322615245,-112.247589850715 209.259055049757,-110.1164510084879 203.893194848814,-105.5153294125561 192.9971078388507,-80.30074616793515" /><polyline points="192.9971078388507,-80.30074616793515 198.5344325839849,-76.23136353039418" /><polyline points="192.9971078388507,-80.30074616793515 194.4307815472947,-74.64196219022924" /><polyline points="203.893194848814,-105.5153294125561 200.8724840532848,-100.3496170325843" /><polyline points="203.893194848814,-105.5153294125561 200.8724840532848,-100.3496170325843" /><polyline points="225.068271817878,-118.8088087520787 219.3111043519236,-117.1370589648659" /><polyline points="219.3111043519236,-117.1370589648659 209.3662429212719,-116.4175560881851" /><polyline points="219.3111043519236,-117.1370589648659 209.3662429212719,-116.4175560881851" /><polyline points="209.3662429212719,-116.4175560881851 201.7737390573772,-121.4704070153923" /><polyline points="241.9759176795209,-137.3677460051249 236.2187502135666,-135.6959962179122 217.4099538660539,-128.9304015994334 210.9650020013254,-121.3321075264764 202.0888817659437,-117.228367158004 182.2036304028192,-107.162858988314" /><polyline points="182.2036304028192,-107.162858988314 178.4310918718707,-98.43363419412083 162.7991132982694,-87.43189975952822 159.026574767321,-78.70267496533509 152.2529521292862,-73.58004441555036 139.371538493407,-66.97918714268374" /><polyline points="139.371538493407,-66.97918714268374 138.984862741624,-59.35337798933167" /><polyline points="139.371538493407,-66.97918714268374 138.984862741624,-59.35337798933167" /><polyline points="139.371538493407,-66.97918714268374 134.6698450441988,-60.45455474926429" /><polyline points="134.6698450441988,-60.45455474926429 127.5487662434785,-53.46733461216791" /><polyline points="152.2529521292862,-73.58004441555036 147.5512586800781,-67.05541202213092 129.8391125383038,-68.94496080731969 124.459191483186,-71.4676190897265 115.9717925969365,-74.91686789672843 95.54604364086028,-96.70829982589053" /><polyline points="95.54604364086028,-96.70829982589053 92.55262771157287,-103.3418032330152 77.83777687586405,-113.1033455517365 74.8443609465766,-119.7368489588613 68.24168481730332,-126.553584641875 53.71399875832726,-152.4822516781319" /><polyline points="53.71399875832726,-152.4822516781319 61.01732020463015,-157.331413135593" /><polyline points="53.71399875832726,-152.4822516781319 53.60357127443868,-161.705794104764" /><polyline points="77.83777687586405,-113.1033455517365 71.23335259569615,-113.6897994505374" /><polyline points="115.9717925969365,-74.91686789672843 109.1255026449142,-79.71319389866365" /><polyline points="152.2529521292862,-73.58004441555036 147.5512586800781,-67.05541202213092" /><polyline points="162.7991132982694,-87.43189975952822 155.1644021274183,-81.35986493708404" /><polyline points="202.0888817659437,-117.228367158004 194.6555076600916,-111.007513037877" /><polyline points="236.2187502135666,-135.6959962179122 228.0420912220463,-133.3515214621166" /><polyline points="254.1160219459802,-137.1142345558957 246.7039932338171,-142.7502386206959" /><polyline points="246.7039932338171,-142.7502386206959 239.3283184965544,-140.4954847628121" /><polyline points="270.8112058847504,-135.3740700368906 263.3991771725874,-141.0100741016909" /><polyline points="276.0372375239101,-127.1242206328143 270.8112058847504,-135.3740700368906" /><polyline points="309.3974183471814,-92.30346621587302 301.3106081672855,-98.17960489581546" /><polyline points="301.3106081672855,-98.17960489581546 291.8815919101472,-96.31896719626627" /><polyline points="301.3106081672855,-98.17960489581546 291.8815919101472,-96.31896719626627" /><polyline points="291.8815919101472,-96.31896719626627 282.8810018880311,-95.32307015090296" /><polyline points="329.2978776113733,-74.822477122791 321.2110674314775,-80.69861580273336 304.1623473521507,-78.98759170223565 298.5886275727908,-81.3257575061056 291.5033930874061,-78.89806263841685 281.3020070359655,-60.86020030188075" /><polyline points="281.3020070359655,-60.86020030188075 279.744608297862,-61.14178903188627 268.4183117483375,-56.72517170243007 266.860913010234,-57.00676043243564 262.9778215078339,-52.94942272051757 261.1948045920225,-30.1015852678535" /><polyline points="261.1948045920225,-30.1015852678535 263.8944574429009,-28.00633789379029" /><polyline points="261.1948045920225,-30.1015852678535 263.8944574429009,-28.00633789379029" /><polyline points="261.1948045920225,-30.1015852678535 259.6045734499223,-26.71122897797632" /><polyline points="259.6045734499223,-26.71122897797632 253.4081329245613,-28.43680717607726" /><polyline points="262.9778215078339,-52.94942272051757 261.3875903657337,-49.55906643064036 248.092946133621,-35.98105321801786 245.7898703992755,-26.5139919462845 239.0543203517278,-19.14675901384834 219.1017577467355,-1.053011212221557" /><polyline points="219.1017577467355,-1.053011212221557 218.1962209678838,8.602456121348292 207.051206633659,25.15424256721008 206.1456698548071,34.80970990077995 200.5314284020782,42.44797104352333 183.1559677459516,54.92246243951283" /><polyline points="183.1559677459516,54.92246243951283 187.832023719412,60.95590099966695" /><polyline points="183.1559677459516,54.92246243951283 183.5927840667411,62.4048612126319" /><polyline points="200.5314284020782,42.44797104352333 197.0132691068435,50.59160116899734" /><polyline points="200.5314284020782,42.44797104352333 197.0132691068435,50.59160116899734" /><polyline points="219.1017577467355,-1.053011212221557 214.2989771614747,7.708435162747061" /><polyline points="214.2989771614747,7.708435162747061 204.9598414086677,10.08386367958913" /><polyline points="214.2989771614747,7.708435162747061 204.9598414086677,10.08386367958913" /><polyline points="204.9598414086677,10.08386367958913 200.3149586790015,15.63450715430797" /><polyline points="239.0543203517278,-19.14675901384834 234.2515397664668,-10.3853126388797 214.5558902353182,-6.910641339164338 206.0122064458745,-5.3632276979351 196.0580436264621,-6.141000162190585 171.3072600632426,-23.08771223515861" /><polyline points="171.3072600632426,-23.08771223515861 164.2813299804309,-25.92775934806312 145.100233368372,-29.64630265273686 138.0743032855605,-32.48634976564137 129.2566254970919,-36.80423621483094 111.3505903797866,-60.853116509844" /><polyline points="111.3505903797866,-60.853116509844 107.3787362170656,-67.5174055085319" /><polyline points="111.3505903797866,-60.853116509844 107.3787362170656,-67.5174055085319" /><polyline points="111.3505903797866,-60.853116509844 103.8555657785826,-66.23800126135652" /><polyline points="103.8555657785826,-66.23800126135652 94.8814418732209,-64.71432045514146" /><polyline points="129.2566254970919,-36.80423621483094 121.7616008958879,-42.18912096634343 104.8053464903083,-48.09903350218124 99.61544746019024,-55.00017945770103 92.4452269085588,-57.36453910609668 80.94563918684236,-55.6728173490978" /><polyline points="80.94563918684236,-55.6728173490978 79.59021281532134,-61.60595673125309 68.16706890078554,-67.9260597111904 66.81164252926462,-73.85919909334567 62.70169679438337,-75.53169524763794 59.08418348858828,-67.83302315987832" /><polyline points="59.08418348858828,-67.83302315987832 65.2291004656818,-72.32013335594958" /><polyline points="59.08418348858828,-67.83302315987832 61.73185596943993,-71.17070731923947" /><polyline points="62.70169679438337,-75.53169524763794 60.95427970634743,-78.11269466245408" /><polyline points="80.94563918684236,-55.6728173490978 75.5660254026374,-59.70330803851562" /><polyline points="104.8053464903083,-48.09903350218124 95.91464673003564,-52.64893228278866" /><polyline points="95.91464673003564,-52.64893228278866 89.8142044519691,-44.76339091466431" /><polyline points="121.7616008958879,-42.18912096634343 112.8709011356153,-46.73901974695087" /><polyline points="129.2566254970919,-36.80423621483094 121.7616008958879,-42.18912096634343" /><polyline points="171.3072600632426,-23.08771223515861 161.8807410226301,-24.57066841696099" /><polyline points="161.8807410226301,-24.57066841696099 153.2867806265595,-23.60335056926152" /><polyline points="161.8807410226301,-24.57066841696099 153.2867806265595,-23.60335056926152" /><polyline points="153.2867806265595,-23.60335056926152 145.1700636616653,-17.76276697598952" /><polyline points="196.0580436264621,-6.141000162190585 186.6315245858497,-7.623956343992958 170.3682355766251,-10.99988417135846 163.9975561939012,-17.38976977172717 157.6320004154938,-19.61454375150506 152.1481928294561,-23.79284955345546" /><polyline points="152.1481928294561,-23.79284955345546 150.1272847402272,-31.33519154548861 139.8660989656359,-38.70939166810656 137.8451908764069,-46.25173366013964 134.9389051724359,-49.50056747966391 139.0068201197312,-50.85631955792043" /><polyline points="139.0068201197312,-50.85631955792043 141.7677952304082,-57.55358767622686" /><polyline points="139.0068201197312,-50.85631955792043 141.7677952304082,-57.55358767622686" /><polyline points="139.0068201197312,-50.85631955792043 138.0516077745085,-55.77073119173963" /><polyline points="138.0516077745085,-55.77073119173963 131.2784740955148,-61.42533749863517" /><polyline points="134.9389051724359,-49.50056747966391 133.9836928272129,-54.41497911348296 124.9505638613605,-48.46324889659093 125.4047594975855,-44.17979101715219 121.0874090496324,-38.87657635564155 107.8954158637679,-13.65067667812594" /><polyline points="107.8954158637679,-13.65067667812594 109.9540558146418,-5.893560179514562 104.1875943866588,7.263696352889816 106.2462343375327,15.02081285150121 103.2518743104005,23.19427675745462 91.2427617424164,50.6852120685775" /><polyline points="91.2427617424164,50.6852120685775 97.76331522439244,58.25648332937082" /><polyline points="91.2427617424164,50.6852120685775 94.14189913190273,60.14527230429178" /><polyline points="103.2518743104005,23.19427675745462 102.4729773684047,32.3297116130559" /><polyline points="103.2518743104005,23.19427675745462 102.4729773684047,32.3297116130559" /><polyline points="107.8954158637679,-13.65067667812594 105.8771212593994,-7.159335102381626" /><polyline points="105.8771212593994,-7.159335102381626 97.52314782113612,-5.838892650035903" /><polyline points="105.8771212593994,-7.159335102381626 97.52314782113612,-5.838892650035903" /><polyline points="97.52314782113612,-5.838892650035903 94.3866269765941,-6.975459281311304" /><polyline points="121.0874090496324,-38.87657635564155 119.0691144452639,-32.38523477989724 101.2570899497341,-26.16806016898008 93.77042117279959,-19.54169210793922 84.05761941398794,-17.41358751018405 55.49150757112434,-21.64095304016084" /><polyline points="55.49150757112434,-21.64095304016084 48.24846628752903,-16.69068116539311 29.03193996306153,-11.3899211556963 21.78889867946628,-6.439649280928665 12.19211267526567,-5.582144720964302 -11.96936053528414,-16.59431915890064" /><polyline points="-11.96936053528414,-16.59431915890064 -17.41787786219567,-14.71136709691065" /><polyline points="-11.96936053528414,-16.59431915890064 -17.41787786219567,-14.71136709691065" /><polyline points="-11.96936053528414,-16.59431915890064 -20.52399041340481,-15.12233035454448" /><polyline points="-20.52399041340481,-15.12233035454448 -28.46632953568674,-9.057900169038327" /><polyline points="12.19211267526567,-5.582144720964302 3.637482797145031,-4.110155916608139 -14.68848576380012,-10.79123278099823 -21.8881440485875,-17.653400460145 -29.72764920126494,-22.61299447577807 -41.48569066403682,-40.74517665268878" /><polyline points="-41.48569066403682,-40.74517665268878 -44.87133578345772,-50.12663885111889 -58.31927741874702,-63.19908059109075 -61.70492253816787,-72.58054278952085 -66.52841791447452,-79.67385406048486 -69.05577203365881,-96.85775572723614" /><polyline points="-69.05577203365881,-96.85775572723614 -63.37687744308388,-103.8574676523193" /><polyline points="-69.05577203365881,-96.85775572723614 -67.91101694490678,-106.4520572675596" /><polyline points="-41.48569066403682,-40.74517665268878 -48.13815896706493,-47.72852453740146" /><polyline points="3.637482797145031,-4.110155916608139 -6.160324900805059,-4.46231287075855" /><polyline points="84.05761941398794,-17.41358751018405 74.75468382027731,-13.91121029977837" /><polyline points="101.2570899497341,-26.16806016898008 95.80690737272981,-20.81026857545035" /><polyline points="124.9505638613605,-48.46324889659093 121.9562824813129,-50.34417401305134" /><polyline points="134.9389051724359,-49.50056747966391 133.9836928272129,-54.41497911348296" /><polyline points="157.6320004154938,-19.61454375150506 152.475554151976,-24.12553042482257" /><polyline points="170.3682355766251,-10.99988417135846 160.4943936913012,-12.41857321540297" /><polyline points="196.0580436264621,-6.141000162190585 186.6315245858497,-7.623956343992958" /><polyline points="234.2515397664668,-10.3853126388797 226.5918974253236,-3.956958702247187" /><polyline points="248.092946133621,-35.98105321801786 243.7593661857408,-30.88032330690264" /><polyline points="243.7593661857408,-30.88032330690264 235.2564159226259,-36.02761401796511" /><polyline points="261.3875903657337,-49.55906643064036 257.0540104178534,-44.45833651952515" /><polyline points="262.9778215078339,-52.94942272051757 261.3875903657337,-49.55906643064036" /><polyline points="281.3020070359655,-60.86020030188075 275.8857824198129,-59.49515581459703" /><polyline points="275.8857824198129,-59.49515581459703 266.8945852714598,-55.29186199757445" /><polyline points="275.8857824198129,-59.49515581459703 266.8945852714598,-55.29186199757445" /><polyline points="266.8945852714598,-55.29186199757445 257.6338233098036,-58.01652361781317" /><polyline points="291.5033930874061,-78.89806263841685 286.0871684712534,-77.5330181511332 271.1585939440172,-64.61306520648643 267.9489141029504,-55.72447313972284 261.4582228653935,-48.13479996626444 248.6201706342147,-25.94455229846121" /><polyline points="248.6201706342147,-25.94455229846121 248.6537792453738,-15.94726215324944 238.8220249855846,1.367713625949227 238.8556335967437,11.36500377116111 234.9720086035075,19.96435148881673 227.874261662814,38.21971853299439" /><polyline points="227.874261662814,38.21971853299439 230.9282385133164,46.92289340603701" /><polyline points="227.874261662814,38.21971853299439 230.9282385133164,46.92289340603701" /><polyline points="227.874261662814,38.21971853299439 226.4855791094668,47.4520517710862" /><polyline points="226.4855791094668,47.4520517710862 222.4391953867649,56.10974405952476" /><polyline points="234.9720086035075,19.96435148881673 233.5833260501605,29.19668472690845 217.3281513248527,36.89773125711075 212.1399283902776,39.040631921805 203.374396034196,40.3949511024208 176.6558306303182,29.83699142488387" /><polyline points="176.6558306303182,29.83699142488387 172.0397536169369,27.11749573904671 155.6566505036774,26.84332158910777 151.0405734902959,24.1238259032707 142.6890852063544,21.554669732897 119.2663826126842,3.133195523556238" /><polyline points="119.2663826126842,3.133195523556238 120.5393670911895,-4.301106294418012" /><polyline points="119.2663826126842,3.133195523556238 116.0839250286908,-3.821570059452737" /><polyline points="142.6890852063544,21.554669732897 135.8952803164148,17.20142060781281" /><polyline points="142.6890852063544,21.554669732897 135.8952803164148,17.20142060781281" /><polyline points="176.6558306303182,29.83699142488387 169.0390450235354,29.80706047504706" /><polyline points="169.0390450235354,29.80706047504706 159.934842280966,33.88092316931814" /><polyline points="169.0390450235354,29.80706047504706 159.934842280966,33.88092316931814" /><polyline points="159.934842280966,33.88092316931814 154.6243573969976,41.18221876664527" /><polyline points="203.374396034196,40.3949511024208 195.7576104274131,40.36502015258403 176.3337424601406,43.57054777085136 167.1987713925299,40.035269261598 158.2011587744221,41.18544315292107 141.3069796684672,45.68692871830726" /><polyline points="141.3069796684672,45.68692871830726 134.9203475204497,40.57123240085372 117.9285983602798,39.74324877541647 111.5419662122625,34.62755245796286 104.6692973841018,34.43811721156418 96.83410999085865,39.58793676048392" /><polyline points="96.83410999085865,39.58793676048392 94.66185010022974,34.35980985113692" /><polyline points="96.83410999085865,39.58793676048392 94.66185010022974,34.35980985113692" /><polyline points="96.83410999085865,39.58793676048392 91.29241383967236,37.30712039488987" /><polyline points="91.29241383967236,37.30712039488987 81.88221187683372,34.65279726997559" /><polyline points="104.6692973841018,34.43811721156418 99.12760123291552,32.15730084597016 86.79014971942748,43.94517637889378 85.15472011645696,50.11246894321173 80.28338002991664,57.88075516417096 72.89898704334495,86.95337714772946" /><polyline points="72.89898704334495,86.95337714772946 74.86340027970554,95.2811907792089 68.66634823807088,112.4142386839755 70.63076147443148,120.7420523154549 68.6746795394794,130.3341191533893 66.58734616919577,158.8958359004085" /><polyline points="66.58734616919577,158.8958359004085 74.76570894720088,164.4784788452174" /><polyline points="66.58734616919577,158.8958359004085 71.48032671119172,167.5254567441268" /><polyline points="68.6746795394794,130.3341191533893 69.30029720771003,140.1080887381351" /><polyline points="72.89898704334495,86.95337714772946 70.39341618222716,95.33728563835699" /><polyline points="86.79014971942748,43.94517637889378 80.12650748945752,45.15262865928024" /><polyline points="80.12650748945752,45.15262865928024 71.57226263919462,45.02346796223132" /><polyline points="99.12760123291552,32.15730084597016 92.46395900294559,33.36475312635667" /><polyline points="104.6692973841018,34.43811721156418 99.12760123291552,32.15730084597016" /><polyline points="141.3069796684672,45.68692871830726 132.7099222332121,44.38653532009872" /><polyline points="132.7099222332121,44.38653532009872 125.1224380006602,50.71771147215684" /><polyline points="132.7099222332121,44.38653532009872 125.1224380006602,50.71771147215684" /><polyline points="125.1224380006602,50.71771147215684 115.5305533535685,51.70931165647157" /><polyline points="158.2011587744221,41.18544315292107 149.6041013391671,39.88504975471247 137.3283849340822,53.73270408457493 134.3179301734976,59.35050593740458 130.2553054059855,67.79239967606202 130.734949641851,97.6628746819178" /><polyline points="130.734949641851,97.6628746819178 132.4233257873364,104.5178985384317 127.7242659538781,121.853915611546 129.4126420993636,128.70893946806 129.1356930908436,138.2143100316868 137.5039697627008,166.8419596776587" /><polyline points="137.5039697627008,166.8419596776587 143.3994168498948,173.4949091179002" /><polyline points="137.5039697627008,166.8419596776587 143.3994168498948,173.4949091179002" /><polyline points="137.5039697627008,166.8419596776587 139.5755030890513,175.7644490790364" /><polyline points="139.5755030890513,175.7644490790364 135.9861700244799,181.8032304926143" /><polyline points="129.1356930908436,138.2143100316868 131.2072264171942,147.1367994330644 123.0780959123939,164.9214435859231 123.2257769335378,173.5255749201391 118.3611111369007,181.174139796254 98.49957015348159,191.4752631157522" /><polyline points="98.49957015348159,191.4752631157522 98.46687883158224,196.630829119405 90.384703997843,210.6587561060903 90.35201267594364,215.814322109743 85.35711295038753,220.765065136495 64.44180297724616,221.2662648133914" /><polyline points="64.44180297724616,221.2662648133914 67.71363976132594,219.4198129794362" /><polyline points="64.44180297724616,221.2662648133914 63.95134373010634,221.7519946658051" /><polyline points="85.35711295038753,220.765065136495 81.93722428053523,224.3836564415991" /><polyline points="85.35711295038753,220.765065136495 81.93722428053523,224.3836564415991" /><polyline points="98.49957015348159,191.4752631157522 95.34108357445149,198.7199118702648" /><polyline points="95.34108357445149,198.7199118702648 87.8932607346488,205.3038822103729" /><polyline points="95.34108357445149,198.7199118702648 87.8932607346488,205.3038822103729" /><polyline points="87.8932607346488,205.3038822103729 86.7103327586826,215.1659779513385" /><polyline points="118.3611111369007,181.174139796254 115.2026245578707,188.4187885507666 97.45223771032113,197.6270389436076 88.1455618159492,198.3552837771557 78.56082714793716,200.9204877917093 52.54272444197533,197.8837439881157" /><polyline points="52.54272444197533,197.8837439881157 43.41951491809223,194.125763261477 23.54996580524161,195.4783279421237 14.42675628135859,191.7203472154849 4.881984473855304,190.6433932871727 -15.45939076216171,181.4573602288452" /><polyline points="-15.45939076216171,181.4573602288452 -22.30021600487567,174.2280659135714" /><polyline points="-15.45939076216171,181.4573602288452 -22.30021600487567,174.2280659135714" /><polyline points="-15.45939076216171,181.4573602288452 -24.57816940944171,177.9235375222298" /><polyline points="-24.57816940944171,177.9235375222298 -34.02513692239712,179.3255439488928" /><polyline points="4.881984473855304,190.6433932871727 -4.236794173424697,187.1095705805571 -18.17494191821478,194.8416956189454 -22.52633267342383,195.3539959830478 -27.48371200624069,200.5796189443148 -28.99532794522905,223.9115302110678" /><polyline points="-28.99532794522905,223.9115302110678 -28.68013174632064,225.6449645884362 -35.4823520515461,235.3635360759899 -35.1671558526378,237.0969704533583 -36.38219749882207,243.307194345289 -29.19512136510747,268.6504761124619" /><polyline points="-29.19512136510747,268.6504761124619 -22.0557750917479,263.777633354539" /><polyline points="-29.19512136510747,268.6504761124619 -24.36077389366919,271.4619654364572" /><polyline points="-35.4823520515461,235.3635360759899 -41.81547060637355,235.9701278343396" /><polyline points="-27.48371200624069,200.5796189443148 -30.77508783035639,204.6291797285656" /><polyline points="4.881984473855304,190.6433932871727 -4.236794173424697,187.1095705805571" /><polyline points="23.54996580524161,195.4783279421237 14.71115984240446,198.5172263968558" /><polyline points="78.56082714793716,200.9204877917093 68.56569588080173,201.2289116898941" /><polyline points="115.2026245578707,188.4187885507666 109.1540433313555,195.4192384703047" /><polyline points="123.0780959123939,164.9214435859231 122.2816467141326,174.7238399086902" /><polyline points="122.2816467141326,174.7238399086902 113.8597959692664,174.9572932272038" /><polyline points="131.2072264171942,147.1367994330644 130.4107772189329,156.9391957558315" /><polyline points="129.1356930908436,138.2143100316868 131.2072264171942,147.1367994330644" /><polyline points="130.734949641851,97.6628746819178 128.5901991898641,105.9153206624739" /><polyline points="128.5901991898641,105.9153206624739 121.3010714229207,112.6439212584174" /><polyline points="128.5901991898641,105.9153206624739 121.3010714229207,112.6439212584174" /><polyline points="121.3010714229207,112.6439212584174 113.0622052740808,115.7543027499215" /><polyline points="130.2553054059855,67.79239967606202 128.1105549539986,76.0448456566182 117.3686345871314,91.95399339527128 116.9041525986311,101.1565177627356 111.9448970176633,108.134823211564 98.62648218820303,117.1435571589595" /><polyline points="98.62648218820303,117.1435571589595 100.2385292263738,123.6568854554671 93.33657972574287,137.3923129692294 94.94862676391355,143.905641265737 91.68431111842663,148.8139329252471 80.75907980828556,148.5005315488908" /><polyline points="80.75907980828556,148.5005315488908 83.79911488846454,150.7094491079457" /><polyline points="80.75907980828556,148.5005315488908 83.79911488846454,150.7094491079457" /><polyline points="80.75907980828556,148.5005315488908 79.8372363944948,152.788212013973" /><polyline points="79.8372363944948,152.788212013973 78.44991408697422,161.9125634407482" /><polyline points="91.68431111842663,148.8139329252471 90.76246770463595,153.1016133903292 74.06721221250291,158.1214021443752 66.9163687326659,155.9007196951807 57.48146561082322,156.8024102661665 28.04617572778641,153.3244213401663" /><polyline points="28.04617572778641,153.3244213401663 20.56939120892025,147.547493248553 1.555624051552558,145.4914271690654 -5.921160467313483,139.714499077452 -15.69873207944618,137.6911410017645 -41.695372072481,131.2251532054578" /><polyline points="-41.695372072481,131.2251532054578 -43.85864051885568,121.494434223379" /><polyline points="-41.695372072481,131.2251532054578 -47.89144651134459,123.4408089891398" /><polyline points="-15.69873207944618,137.6911410017645 -24.65685372882626,133.248806161144" /><polyline points="-15.69873207944618,137.6911410017645 -24.65685372882626,133.248806161144" /><polyline points="28.04617572778641,153.3244213401663 18.85211998771928,151.67774741265" /><polyline points="18.85211998771928,151.67774741265 11.27431570693276,158.0285825770931" /><polyline points="18.85211998771928,151.67774741265 11.27431570693276,158.0285825770931" /><polyline points="11.27431570693276,158.0285825770931 6.146545417094413,161.913907834647" /><polyline points="57.48146561082322,156.8024102661665 48.28740987075628,155.1557363386501 31.85487899871536,166.3536845396524 23.40639390159958,168.4859047718886 16.57026172931872,175.1460216321108 9.438702881165213,200.0658161377846" /><polyline points="9.438702881165213,200.0658161377846 4.494949497798629,202.6493522081067 -8.083238338503802,214.9137729234173 -13.02699172187031,217.4973089937394 -17.11973555959188,224.5361622494319 -14.37277089574448,249.4605907945537" /><polyline points="-14.37277089574448,249.4605907945537 -14.60259205604198,252.1511061263629" /><polyline points="-14.37277089574448,249.4605907945537 -14.60259205604198,252.1511061263629" /><polyline points="-14.37277089574448,249.4605907945537 -17.33134447267356,255.131191715055" /><polyline points="-17.33134447267356,255.131191715055 -25.86312106463852,258.0030139689455" /><polyline points="-17.11973555959188,224.5361622494319 -20.07830913652085,230.2067631699332 -26.25767988836131,249.2276283497639 -24.27594932244783,258.9847835243397 -26.24182341009312,268.4899268759989 -28.47285556862565,290.1347612559668" /><polyline points="-28.47285556862565,290.1347612559668 -23.59329035902465,298.4242478883587 -23.86984426677479,317.4483778787581 -18.9902790571738,325.73786451115 -18.56653610147661,334.1663928184204 -18.66733774298234,348.0789518303966" /><polyline points="-18.66733774298234,348.0789518303966 -9.671174581983959,349.8911760402574" /><polyline points="-18.66733774298234,348.0789518303966 -12.27217329591106,352.9758758304895" /><polyline points="-18.56653610147661,334.1663928184204 -15.71375102617859,341.8070602646952" /><polyline points="-28.47285556862565,290.1347612559668 -27.85776086630906,299.7907875601725" /><polyline points="-26.25767988836131,249.2276283497639 -29.89330761061094,257.190326055819" /><polyline points="-29.89330761061094,257.190326055819 -39.557319702592,256.6597979314905" /><polyline points="-20.07830913652085,230.2067631699332 -23.71393685877058,238.1694608759883" /><polyline points="-17.11973555959188,224.5361622494319 -20.07830913652085,230.2067631699332" /><polyline points="9.438702881165213,200.0658161377846 2.805754172044277,205.4312815617122" /><polyline points="2.805754172044277,205.4312815617122 -2.7226640847299,213.2990231858382" /><polyline points="2.805754172044277,205.4312815617122 -2.7226640847299,213.2990231858382" /><polyline points="-2.7226640847299,213.2990231858382 -12.35182716577522,215.542750221042" /><polyline points="16.57026172931872,175.1460216321108 9.937313020197962,180.5114870560383 3.23799879446182,199.0120296071276 3.849195719156637,208.8826817476368 2.589270319121671,218.2323550091866 8.866548114695155,239.8217073605115" /><polyline points="8.866548114695155,239.8217073605115 13.86026937882889,248.4789164923422 15.18986415127097,267.4795690575184 20.18358541540469,276.136778189349 22.49747298641359,284.6185381889545 33.99312404659712,298.7091968277919" /><polyline points="33.99312404659712,298.7091968277919 42.06672358028425,304.1252296785968" /><polyline points="33.99312404659712,298.7091968277919 42.06672358028425,304.1252296785968" /><polyline points="33.99312404659712,298.7091968277919 38.69548549346622,306.5923708583273" /><polyline points="38.69548549346622,306.5923708583273 38.64690342382968,316.5570772015247" /><polyline points="22.49747298641359,284.6185381889545 27.19983443328268,292.5017122194899 21.21375948919545,304.4327134510801 21.13201726903192,306.7729176402297 16.50201402115358,310.7862401695177 -6.751041511874939,311.3894870787802" /><polyline points="-6.751041511874939,311.3894870787802 -8.693068091685442,309.2006452806766 -17.69204929562303,313.6373095172827 -19.63407587543359,311.4484677191793 -25.76343508590783,311.8043541123376 -52.11010622523354,305.2296223434683" /><polyline points="-52.11010622523354,305.2296223434683 -52.35735652538745,296.7584375012429" /><polyline points="-52.11010622523354,305.2296223434683 -55.70607994323135,299.1536415618983" /><polyline points="-25.76343508590783,311.8043541123376 -31.14999669673205,309.6949850779365" /><polyline points="-25.76343508590783,311.8043541123376 -31.14999669673205,309.6949850779365" /><polyline points="-6.751041511874939,311.3894870787802 -10.47227476544194,313.2876300806403" /><polyline points="-10.47227476544194,313.2876300806403 -15.97226056587159,320.9827627671102" /><polyline points="-10.47227476544194,313.2876300806403 -15.97226056587159,320.9827627671102" /><polyline points="-15.97226056587159,320.9827627671102 -15.06844435821879,328.7416207216958" /><polyline points="16.50201402115358,310.7862401695177 12.78078076758664,312.6843831713779 -2.353743654324951,324.7490946200257 -12.06319820897197,326.1007114989522 -20.16854042283172,331.9576210398525 -40.19888700902014,348.5811653344974" /><polyline points="-40.19888700902014,348.5811653344974 -49.84782281240667,348.1634133683236 -67.5479949595681,357.1649563038064 -77.19693076295454,356.7472043376324 -85.37245036101608,361.1692138219458 -99.380628381337,375.2894096763857" /><polyline points="-99.380628381337,375.2894096763857 -106.6395383229413,373.4717708233739" /><polyline points="-99.380628381337,375.2894096763857 -106.6395383229413,373.4717708233739" /><polyline points="-99.380628381337,375.2894096763857 -107.7897177561737,377.4661028569875" /><polyline points="-107.7897177561737,377.4661028569875 -117.3180383980316,379.7251939400426" /><polyline points="-85.37245036101608,361.1692138219458 -93.78153973585269,363.3459070025477 -101.5921265316368,381.298727260282 -102.661636185089,389.0698239352488 -104.1778867755496,398.8470853599921 -95.6580441437594,427.3335099265912" /><polyline points="-95.6580441437594,427.3335099265912 -91.90079833968134,434.8650068105402 -91.43474161434811,454.3190116181855 -87.67749581027,461.8505085021345 -85.28295813106293,471.5190267882117 -69.75728139699379,495.4070793231435" /><polyline points="-69.75728139699379,495.4070793231435 -65.52170726341694,490.1059815295206" /><polyline points="-69.75728139699379,495.4070793231435 -62.11145018176654,501.0685570306103" /><polyline points="-104.1778867755496,398.8470853599921 -103.8219637488703,408.3109646080954" /><polyline points="-85.37245036101608,361.1692138219458 -93.78153973585269,363.3459070025477" /><polyline points="12.78078076758664,312.6843831713779 7.078054489489768,316.9567277836429" /><polyline points="21.21375948919545,304.4327134510801 22.67865818094501,312.4479399031828" /><polyline points="8.866548114695155,239.8217073605115 9.920045371559928,249.5177381529489" /><polyline points="9.937313020197962,180.5114870560383 3.896328099094019,188.1355430829327" /><polyline points="48.28740987075628,155.1557363386501 38.65271265030945,156.8768474635061" /><polyline points="74.06721221250291,158.1214021443752 69.58988638360509,162.3236067206668" /><polyline points="93.33657972574287,137.3923129692294 91.27339242898775,146.9299964795118" /><polyline points="111.9448970176633,108.134823211564 109.3046720347033,115.4728436659838" /><polyline points="130.2553054059855,67.79239967606202 128.1105549539986,76.0448456566182" /><polyline points="137.3283849340822,53.73270408457493 128.8084326260778,56.14116271270075" /><polyline points="158.2011587744221,41.18544315292107 149.6041013391671,39.88504975471247" /><polyline points="195.7576104274131,40.36502015258403 186.4007136011519,41.40841066181289" /><polyline points="217.3281513248527,36.89773125711075 212.5391933325932,44.69030762198323" /><polyline points="212.5391933325932,44.69030762198323 206.6692794808332,47.4393743125751" /><polyline points="233.5833260501605,29.19668472690845 228.7943680579011,36.98926109178097" /><polyline points="234.9720086035075,19.96435148881673 233.5833260501605,29.19668472690845" /><polyline points="248.6201706342147,-25.94455229846121 244.282120492385,-16.93865798881306" /><polyline points="244.282120492385,-16.93865798881306 234.6464983374819,-14.44011557639549" /><polyline points="244.282120492385,-16.93865798881306 234.6464983374819,-14.44011557639549" /><polyline points="234.6464983374819,-14.44011557639549 227.4234065711676,-10.19242296555944" /><polyline points="261.4582228653935,-48.13479996626444 257.1201727235637,-39.12890565661622 239.1671962824414,-34.11765372206228 233.4888732454651,-30.79305967108923 224.7154564956447,-30.58777077782714 202.7813790043169,-44.86609183479295" /><polyline points="202.7813790043169,-44.86609183479295 199.2183025206031,-45.58309797850752 183.7034901139266,-46.63201311207964 180.1404136302128,-47.34901925579437 173.0277399146762,-50.37950251471508 156.8069575891901,-72.45841894253151" /><polyline points="156.8069575891901,-72.45841894253151 155.9907732668188,-77.1946361643168" /><polyline points="156.8069575891901,-72.45841894253151 155.9907732668188,-77.1946361643168" /><polyline points="156.8069575891901,-72.45841894253151 151.736377135657,-76.20244546478327" /><polyline points="151.736377135657,-76.20244546478327 145.3220625611529,-73.0471528638259" /><polyline points="173.0277399146762,-50.37950251471508 167.9571594611431,-54.12352903696684 148.9785659579692,-60.39650345715821 142.2710718832367,-67.78493664292581 133.0475013361313,-70.9366859007176 110.9213463122736,-74.47634991011108" /><polyline points="110.9213463122736,-74.47634991011108 106.4516890826837,-81.88982105673675 89.81797309070781,-90.43733384558402 85.34831586111792,-97.85080499220972 77.87126119388223,-101.1225002357607 62.31103371646299,-99.73747845887316" /><polyline points="62.31103371646299,-99.73747845887316 65.22362413854583,-106.0555474152296" /><polyline points="62.31103371646299,-99.73747845887316 60.95321965966597,-105.213847201067" /><polyline points="77.87126119388223,-101.1225002357607 72.32409762317035,-105.5954298733295" /><polyline points="77.87126119388223,-101.1225002357607 72.32409762317035,-105.5954298733295" /><polyline points="110.9213463122736,-74.47634991011108 102.9937820221041,-79.58524808916056" /><polyline points="102.9937820221041,-79.58524808916056 93.2301206445521,-77.55577024205942" /><polyline points="102.9937820221041,-79.58524808916056 93.2301206445521,-77.55577024205942" /><polyline points="93.2301206445521,-77.55577024205942 85.12424854185205,-81.25837133738848" /><polyline points="133.0475013361313,-70.9366859007176 125.1199370459619,-76.04558407976707 106.5207614484501,-69.48757565498903 99.61975921390426,-65.80948030858008 91.48141076756919,-60.21874591721086 77.65583208901519,-33.61058779366813" /><polyline points="77.65583208901519,-33.61058779366813 74.37637377533459,-26.63653463875995 60.43300368691399,-13.40535800344739 57.15354537323331,-6.431304848539132 51.88007687075847,1.875533728926371 46.76614614634761,30.99687867960331" /><polyline points="46.76614614634761,30.99687867960331 47.76746851935549,39.73037655913896" /><polyline points="46.76614614634761,30.99687867960331 47.76746851935549,39.73037655913896" /><polyline points="46.76614614634761,30.99687867960331 43.5710235213361,39.91562910601039" /><polyline points="43.5710235213361,39.91562910601039 36.11360472697016,43.68042199286096" /><polyline points="51.88007687075847,1.875533728926371 48.68495424574684,10.79428415533354 34.53521650481078,22.55475472913549 31.89680056338275,30.1115729380556 25.18249121411812,34.47747095827918 7.930725785389633,33.80448709206122" /><polyline points="7.930725785389633,33.80448709206122 7.49784876301327,38.17022742982977 -3.186201446097576,46.49772326444783 -3.619078468473912,50.86346360221624 -8.560514082750002,52.73490422219872 -21.90799696258757,42.89756805621333" /><polyline points="-21.90799696258757,42.89756805621333 -16.14653993371803,42.63734405275522" /><polyline points="-21.90799696258757,42.89756805621333 -20.28665444321723,42.90421554553557" /><polyline points="-8.560514082750002,52.73490422219872 -11.18434564639235,54.14554182081623" /><polyline points="7.930725785389633,33.80448709206122 3.30113892565684,38.58318755555015" /><polyline points="34.53521650481078,22.55475472913549 28.97054014262186,30.85382387277715" /><polyline points="28.97054014262186,30.85382387277715 20.39306866753478,27.18814381412145" /><polyline points="48.68495424574684,10.79428415533354 43.12027788355797,19.09335329897517" /><polyline points="51.88007687075847,1.875533728926371 48.68495424574684,10.79428415533354" /><polyline points="77.65583208901519,-33.61058779366813 70.86220838172568,-27.24892593414432" /><polyline points="70.86220838172568,-27.24892593414432 61.80859711344483,-24.78158842752469" /><polyline points="70.86220838172568,-27.24892593414432 61.80859711344483,-24.78158842752469" /><polyline points="61.80859711344483,-24.78158842752469 52.22459142787935,-25.83739688849145" /><polyline points="91.48141076756919,-60.21874591721086 84.68778706027959,-53.85708405768705 69.46561358324283,-45.00966844369763 65.75328736745456,-37.19123907908083 59.47762800799267,-33.47878527755923 49.65894674530392,-32.30517126783686" /><polyline points="49.65894674530392,-32.30517126783686 49.7607437085085,-25.94452234562444 40.464517424877,-17.33796613192749 40.56631438808154,-10.97731720971514 37.353543748503,-8.345126156500493 34.43652226330332,-14.30903515259267" /><polyline points="34.43652226330332,-14.30903515259267 38.14987398371806,-11.103997450181" /><polyline points="34.43652226330332,-14.30903515259267 38.14987398371806,-11.103997450181" /><polyline points="34.43652226330332,-14.30903515259267 33.72902503484688,-11.13584414920003" /><polyline points="33.72902503484688,-11.13584414920003 29.24999928530556,-3.821108927177425" /><polyline points="37.353543748503,-8.345126156500493 36.64604652004645,-5.171935153107908 22.2146794365034,-8.812072515924449 18.57747521992947,-14.27012075667517 10.77048008742276,-17.98820178072135 -14.02897101902133,-34.85550567140713" /><polyline points="-14.02897101902133,-34.85550567140713 -17.08698741206289,-43.5381497844307 -31.18499402312482,-54.43416871488813 -34.24301041616638,-63.11681282791172 -41.61019482735783,-69.52466599951698 -64.10219863116227,-87.23412968308308" /><polyline points="-64.10219863116227,-87.23412968308308 -61.70917898041193,-96.81698467628303" /><polyline points="-64.10219863116227,-87.23412968308308 -66.11491441996296,-97.00032189547674" /><polyline points="-41.61019482735783,-69.52466599951698 -47.26469731067234,-77.67007649612468" /><polyline points="-41.61019482735783,-69.52466599951698 -47.26469731067234,-77.67007649612468" /><polyline points="-14.02897101902133,-34.85550567140713 -20.38017201991277,-40.71350546642834" /><polyline points="-20.38017201991277,-40.71350546642834 -29.45664387765737,-38.71985287769392" /><polyline points="-20.38017201991277,-40.71350546642834 -29.45664387765737,-38.71985287769392" /><polyline points="-29.45664387765737,-38.71985287769392 -33.90272036541959,-37.86064377671363" /><polyline points="10.77048008742276,-17.98820178072135 4.419279086531397,-23.84620157574266 -15.31307793059811,-21.68907537009964 -24.66999283472587,-23.70278616681241 -34.26687693735917,-21.0011273127259 -55.19262015059977,-2.112838563025247" /><polyline points="-55.19262015059977,-2.112838563025247 -62.50924787036719,-2.010285316201478 -81.09494779298848,3.047025791566832 -88.4115755127559,3.149579038390579 -96.46038719289326,7.533360432264794 -109.1962626671577,31.11319226900583" /><polyline points="-109.1962626671577,31.11319226900583 -112.8063808250045,33.55976296359599" /><polyline points="-109.1962626671577,31.11319226900583 -112.8063808250045,33.55976296359599" /><polyline points="-109.1962626671577,31.11319226900583 -116.0724581629539,34.86195496639993" /><polyline points="-116.0724581629539,34.86195496639993 -125.7127885805931,33.45034560536281" /><polyline points="-96.46038719289326,7.533360432264794 -103.3365826886895,11.2821231296588 -117.2911418675706,25.12947121208366 -120.244965834647,34.68290469762873 -125.7233418132817,42.08779954559635 -132.8209651641241,59.72056048961394" /><polyline points="-132.8209651641241,59.72056048961394 -131.7793199772784,69.27786781176161 -139.2893471348412,85.79888156807006 -138.2477019479955,95.35618889021772 -140.5069849489364,102.8833268867924 -140.9012944880634,114.5927150654306" /><polyline points="-140.9012944880634,114.5927150654306 -131.8696387815116,118.5899025077079" /><polyline points="-140.9012944880634,114.5927150654306 -136.284096600436,121.813977100596" /><polyline points="-139.2893471348412,85.79888156807006 -144.2848779784921,94.42381287106178" /><polyline points="-125.7233418132817,42.08779954559635 -129.0218343245826,50.84129547059656" /><polyline points="-96.46038719289326,7.533360432264794 -103.3365826886895,11.2821231296588" /><polyline points="-81.09494779298848,3.047025791566832 -90.83868622392329,0.8729004088156272" /><polyline points="-34.26687693735917,-21.0011273127259 -43.60546314391709,-19.30224918182277" /><polyline points="4.419279086531397,-23.84620157574266 -4.191316048125566,-26.91461336061879" /><polyline points="22.2146794365034,-8.812072515924449 18.2377577672374,-7.371132114044315" /><polyline points="18.2377577672374,-7.371132114044315 11.12165485017784,-0.6726049520754979" /><polyline points="36.64604652004645,-5.171935153107908 32.66912485078053,-3.730994751227688" /><polyline points="37.353543748503,-8.345126156500493 36.64604652004645,-5.171935153107908" /><polyline points="49.65894674530392,-32.30517126783686 45.46295642970894,-27.20213927765457" /><polyline points="45.46295642970894,-27.20213927765457 36.1550345595303,-27.55586292425475" /><polyline points="45.46295642970894,-27.20213927765457 36.1550345595303,-27.55586292425475" /><polyline points="36.1550345595303,-27.55586292425475 28.09272827683574,-21.66647683739559" /><polyline points="59.47762800799267,-33.47878527755923 55.28163769239762,-28.37575328737697 38.90767162293115,-32.88294475594013 34.65955208791391,-37.07800488956997 26.87264368168261,-41.67844176377034 7.836944204220821,-64.83536066353992" /><polyline points="7.836944204220821,-64.83536066353992 5.975194799487326,-72.72194063137255 -7.074253901405306,-84.83634878803498 -8.936003306138815,-92.72292875586776 -14.82367484751297,-100.3713883871784 -28.68946155478225,-126.0470588124899" /><polyline points="-28.68946155478225,-126.0470588124899 -27.95553098505192,-135.7874399922803" /><polyline points="-28.68946155478225,-126.0470588124899 -27.95553098505192,-135.7874399922803" /><polyline points="-28.68946155478225,-126.0470588124899 -32.31795965786821,-134.9514460450794" /><polyline points="-32.31795965786821,-134.9514460450794 -37.38594337326518,-138.9536012529286" /><polyline points="-14.82367484751297,-100.3713883871784 -18.45217295059876,-109.2757756197678 -37.02896662974446,-116.3865221731624 -43.7661083566429,-121.6134948613178 -53.24820051560064,-123.2237753236803 -78.56250029891457,-113.5820309500117" /><polyline points="-78.56250029891457,-113.5820309500117 -83.86763187404262,-115.2798509392376 -101.5166237034952,-117.7716645375649 -106.8217552786233,-119.4694845267907 -115.2118135527439,-118.2843148934216 -135.051356690833,-100.3352497439341" /><polyline points="-135.051356690833,-100.3352497439341 -133.4724206902271,-98.71899417186347" /><polyline points="-135.051356690833,-100.3352497439341 -137.8628923003007,-97.93333422897425" /><polyline points="-115.2118135527439,-118.2843148934216 -121.9245505244879,-116.7057098261714" /><polyline points="-115.2118135527439,-118.2843148934216 -121.9245505244879,-116.7057098261714" /><polyline points="-78.56250029891457,-113.5820309500117 -86.9672580436393,-115.4859854331039" /><polyline points="-86.9672580436393,-115.4859854331039 -96.43999226251876,-116.0048358182694" /><polyline points="-86.9672580436393,-115.4859854331039 -96.43999226251876,-116.0048358182694" /><polyline points="-96.43999226251876,-116.0048358182694 -103.6262810793488,-122.8770786994922" /><polyline points="-53.24820051560064,-123.2237753236803 -61.65295826032532,-125.1277298067725 -80.52876327329798,-120.8221682421448 -88.41273512671047,-114.6839541395977 -96.68735269952693,-110.9267693073502 -110.0566583890661,-96.07011559072268" /><polyline points="-110.0566583890661,-96.07011559072268 -114.391616442658,-87.19714234370251 -129.0549678612743,-76.27971816267602 -133.3899259148662,-67.40674491565571 -138.8726748526114,-61.34791931960726 -142.9264870214106,-46.79563955114575" /><polyline points="-142.9264870214106,-46.79563955114575 -142.7593278580273,-37.40558596532313" /><polyline points="-142.9264870214106,-46.79563955114575 -142.7593278580273,-37.40558596532313" /><polyline points="-142.9264870214106,-46.79563955114575 -146.6122743689953,-39.00674321991134" /><polyline points="-146.6122743689953,-39.00674321991134 -154.9134944124242,-33.43441743730836" /><polyline points="-138.8726748526114,-61.34791931960726 -142.558462200196,-53.55902298837297 -155.0659792493536,-53.59639032942179 -156.5817840822293,-53.48098522830693 -162.1193099037874,-55.98290558423927 -174.7632145350087,-76.99826519371621" /><polyline points="-174.7632145350087,-76.99826519371621 -173.588187263048,-80.90638465846925 -181.4789608864314,-87.85348928810457 -180.3039336144707,-91.76160875285764 -183.6611443483404,-97.52398027997121 -192.4053292154942,-124.3561355298106" /><polyline points="-192.4053292154942,-124.3561355298106 -185.2909781786997,-129.8573064786241" /><polyline points="-192.4053292154942,-124.3561355298106 -189.0648152620211,-131.496586306313" /><polyline points="-183.6611443483404,-97.52398027997121 -184.5518558753637,-104.0685781466562" /><polyline points="-174.7632145350087,-76.99826519371621 -177.9865235365451,-80.05689812978474" /><polyline points="-155.0659792493536,-53.59639032942179 -160.5904125960789,-48.61431137057604" /><polyline points="-160.5904125960789,-48.61431137057604 -169.6802212756665,-49.45326406673392" /><polyline points="-142.558462200196,-53.55902298837297 -148.0828955469213,-48.57694402952702" /><polyline points="-138.8726748526114,-61.34791931960726 -142.558462200196,-53.55902298837297" /><polyline points="-110.0566583890661,-96.07011559072268 -117.3720592427361,-90.08612188647493" /><polyline points="-117.3720592427361,-90.08612188647493 -125.6650213771764,-92.2485217719089" /><polyline points="-117.3720592427361,-90.08612188647493 -125.6650213771764,-92.2485217719089" /><polyline points="-125.6650213771764,-92.2485217719089 -135.5698155266519,-92.22647537669408" /><polyline points="-96.68735269952693,-110.9267693073502 -104.002753553197,-104.9427756031024 -117.2828248878016,-108.2519688812871 -120.0291059282158,-107.3727630283785 -124.9854717373548,-110.8813829861958 -129.6382765742599,-132.5348776904398" /><polyline points="-129.6382765742599,-132.5348776904398 -128.1560667676497,-134.1221760242821 -134.5453847540443,-141.2719521233837 -133.0631749474342,-142.8592504572258 -134.609563049159,-148.3489445016739 -132.3245372889662,-174.4468816981571" /><polyline points="-132.3245372889662,-174.4468816981571 -127.1199597254749,-178.3623105099803" /><polyline points="-132.3245372889662,-174.4468816981571 -127.1199597254749,-178.3623105099803" /><polyline points="-132.3245372889662,-174.4468816981571 -131.3399529769141,-179.52086919798" /><polyline points="-131.3399529769141,-179.52086919798 -134.8188819001355,-179.1704669516298" /><polyline points="-134.609563049159,-148.3489445016739 -133.624978737107,-153.4229320014969 -145.4769653681693,-167.669738555061 -147.7374765066453,-177.3436860991366 -154.5438031434965,-184.5486102636954 -178.8770045626088,-199.3562560804729" /><polyline points="-178.8770045626088,-199.3562560804729 -181.2204434643031,-208.3431091828509 -193.5206082907271,-224.0951837954165 -195.8640471924215,-233.0820368977945 -202.7512289424664,-239.8500940611612 -226.5245831987033,-247.6949188525869" /><polyline points="-226.5245831987033,-247.6949188525869 -224.4724234413841,-252.470663954938" /><polyline points="-226.5245831987033,-247.6949188525869 -228.6664667789564,-253.7746461774182" /><polyline points="-202.7512289424664,-239.8500940611612 -208.1103318222013,-246.8821909563961" /><polyline points="-202.7512289424664,-239.8500940611612 -208.1103318222013,-246.8821909563961" /><polyline points="-178.8770045626088,-199.3562560804729 -184.2543713115119,-207.7750206126601" /><polyline points="-184.2543713115119,-207.7750206126601 -192.529153218702,-210.4269262664858" /><polyline points="-184.2543713115119,-207.7750206126601 -192.529153218702,-210.4269262664858" /><polyline points="-192.529153218702,-210.4269262664858 -195.3263312258546,-217.1024849409068" /><polyline points="-154.5438031434965,-184.5486102636954 -159.9211698923997,-192.9673747958827 -178.9041226163499,-195.9895531656556 -188.63145372442,-196.3800745287138 -198.2065908348933,-195.3057448746978 -220.5644258558928,-178.082283920871" /><polyline points="-220.5644258558928,-178.082283920871 -228.9705814218735,-173.8988692944003 -248.2013047858588,-169.0362145978692 -256.6074603518393,-164.8527999713982 -265.2243767781801,-160.0706616019448 -280.0774416619462,-136.3010476803518" /><polyline points="-280.0774416619462,-136.3010476803518 -285.2149232710053,-128.4693094098177" /><polyline points="-280.0774416619462,-136.3010476803518 -285.2149232710053,-128.4693094098177" /><polyline points="-280.0774416619462,-136.3010476803518 -287.9342001669054,-130.1243774006463" /><polyline points="-287.9342001669054,-130.1243774006463 -297.8247324867717,-130.6402869668858" /><polyline points="-265.2243767781801,-160.0706616019448 -273.0811352831391,-153.8939913222393 -286.1268645029578,-149.4378489215392 -289.0220068482034,-143.528274867399 -293.7050085559693,-142.3200360433551 -296.5376368493989,-149.0532775727633" /><polyline points="-296.5376368493989,-149.0532775727633 -294.9990888989394,-144.727228544541 -300.8583026174684,-141.200248609383 -299.3197546670088,-136.8741995811608 -300.4290250732545,-136.8692148927477 -295.9012650974467,-149.8716810811544" /><polyline points="-295.9012650974467,-149.8716810811544 -287.2775939580347,-144.9007044318446" /><polyline points="-295.9012650974467,-149.8716810811544 -290.4258288140757,-148.3879705154888" /><polyline points="-296.5376368493989,-149.0532775727633 -299.134617290962,-146.4095124950447" /><polyline points="-273.0811352831391,-153.8939913222393 -281.3338513597322,-149.1504487558451" /><polyline points="-198.2065908348933,-195.3057448746978 -207.9497031748325,-193.0831149832896" /><polyline points="-178.9041226163499,-195.9895531656556 -186.6706623811908,-202.1547581358454" /><polyline points="-145.4769653681693,-167.669738555061 -147.7850477913891,-174.011882163209" /><polyline points="-134.609563049159,-148.3489445016739 -133.624978737107,-153.4229320014969" /><polyline points="-124.9854717373548,-110.8813829861958 -127.7737663871068,-113.701922619211" /><polyline points="-117.2828248878016,-108.2519688812871 -125.2586887125184,-105.3294767048766" /><polyline points="-96.68735269952693,-110.9267693073502 -104.002753553197,-104.9427756031024" /><polyline points="-61.65295826032532,-125.1277298067725 -71.4535951373011,-125.6246333929528" /><polyline points="-37.02896662974446,-116.3865221731624 -43.76010436076533,-123.6160152145329" /><polyline points="-43.76010436076533,-123.6160152145329 -48.76067722709092,-119.8713267052287" /><polyline points="-18.45217295059876,-109.2757756197678 -25.18331068161957,-116.5052686611383" /><polyline points="-14.82367484751297,-100.3713883871784 -18.45217295059876,-109.2757756197678" /><polyline points="7.836944204220821,-64.83536066353992 1.912892779412043,-70.9150198221854" /><polyline points="1.912892779412043,-70.9150198221854 -8.046914276097562,-71.0613810802162" /><polyline points="1.912892779412043,-70.9150198221854 -8.046914276097562,-71.0613810802162" /><polyline points="-8.046914276097562,-71.0613810802162 -14.97912409811886,-69.40726529875565" /><polyline points="26.87264368168261,-41.67844176377034 20.94859225687377,-47.75810092241593 1.461057553516446,-51.50028619982818 -5.853193452654043,-57.08800212785465 -15.15714398804765,-57.9088666443211 -36.09166060703775,-50.06645732163206" /><polyline points="-36.09166060703775,-50.06645732163206 -40.88557066070382,-54.0810627157749 -57.72374084816293,-56.8316327085399 -62.51765090182911,-60.84623810268266 -69.85422745775257,-60.46870008648285 -83.41276474303056,-46.55071976325214" /><polyline points="-83.41276474303056,-46.55071976325214 -84.70942199478792,-47.80181530667694" /><polyline points="-83.41276474303056,-46.55071976325214 -84.70942199478792,-47.80181530667694" /><polyline points="-83.41276474303056,-46.55071976325214 -88.86080837327783,-46.94721122415597" /><polyline points="-88.86080837327783,-46.94721122415597 -96.77248097633039,-51.91095395153835" /><polyline points="-69.85422745775257,-60.46870008648285 -75.30227108799996,-60.86519154738667 -92.6493097041298,-51.78154603527133 -97.67865760062408,-44.04650296830344 -105.6849423510183,-38.05489226804952 -123.3338022855075,-18.28187347049047" /><polyline points="-123.3338022855075,-18.28187347049047 -125.4998431144673,-8.528850601224518 -138.9227111230792,6.280673667387458 -141.088751952039,16.03369653665344 -146.8191137290955,23.76151355115851 -158.1207963487366,41.42702728896728" /><polyline points="-158.1207963487366,41.42702728896728 -152.9872289488498,49.80449718406179" /><polyline points="-158.1207963487366,41.42702728896728 -157.1155707121139,50.81874060659133" /><polyline points="-146.8191137290955,23.76151355115851 -150.2591445373718,32.67212799310116" /><polyline points="-146.8191137290955,23.76151355115851 -150.2591445373718,32.67212799310116" /><polyline points="-123.3338022855075,-18.28187347049047 -129.5472644407969,-10.45348143851546" /><polyline points="-129.5472644407969,-10.45348143851546 -139.510584891918,-10.08160235796917" /><polyline points="-129.5472644407969,-10.45348143851546 -139.510584891918,-10.08160235796917" /><polyline points="-139.510584891918,-10.08160235796917 -147.4002674415611,-7.887871838507789" /><polyline points="-105.6849423510183,-38.05489226804952 -111.8984045063079,-30.22650023607444 -130.6291608803075,-28.83570552050305 -137.0206717229889,-26.36626902998359 -145.7019042231785,-27.7901294616515 -164.2013574996221,-45.57520577390577" /><polyline points="-164.2013574996221,-45.57520577390577 -167.6711902296163,-46.45925151500651 -182.7796830309521,-50.08823940806588 -186.2495157609464,-50.97228514916657 -192.6254837634571,-55.08061556522377 -203.7993636059341,-79.35725851348896" /><polyline points="-203.7993636059341,-79.35725851348896 -203.6983235881388,-83.58374136430622" /><polyline points="-203.7993636059341,-79.35725851348896 -203.6983235881388,-83.58374136430622" /><polyline points="-203.7993636059341,-79.35725851348896 -208.0498051246589,-83.61925674589354" /><polyline points="-208.0498051246589,-83.61925674589354 -215.1133302117257,-81.51115279230832" /><polyline points="-192.6254837634571,-55.08061556522377 -196.8759252821819,-59.34261379762832 -214.0225481264455,-69.58307942488746 -218.9326400029553,-78.2929755529636 -227.2014954358019,-83.53489954961002 -247.6828731393333,-93.13265193492813" /><polyline points="-247.6828731393333,-93.13265193492813 -250.3336217358867,-101.654095732378 -264.5670420316866,-114.0912098987701 -267.21779062824,-122.6126536962199 -273.6989715275856,-127.8144172603507 -288.7646532552156,-131.5369408724708" /><polyline points="-288.7646532552156,-131.5369408724708 -284.4193866108764,-137.5066948615579" /><polyline points="-288.7646532552156,-131.5369408724708 -288.7523487274146,-137.696524016572" /><polyline points="-273.6989715275856,-127.8144172603507 -278.0137267429471,-133.8399809519302" /><polyline points="-247.6828731393333,-93.13265193492813 -254.2400548242026,-100.0642476765946" /><polyline points="-214.0225481264455,-69.58307942488746 -220.8983445042977,-74.42312493163733" /><polyline points="-220.8983445042977,-74.42312493163733 -227.9661398084893,-67.39122573580953" /><polyline points="-196.8759252821819,-59.34261379762832 -203.751721660034,-64.1826593043782" /><polyline points="-192.6254837634571,-55.08061556522377 -196.8759252821819,-59.34261379762832" /><polyline points="-164.2013574996221,-45.57520577390577 -171.3943210782532,-46.71388991910319" /><polyline points="-171.3943210782532,-46.71388991910319 -181.1789943489123,-48.43762547362511" /><polyline points="-171.3943210782532,-46.71388991910319 -181.1789943489123,-48.43762547362511" /><polyline points="-181.1789943489123,-48.43762547362511 -189.8583983828657,-43.73808909142694" /><polyline points="-145.7019042231785,-27.7901294616515 -152.8948678018098,-28.92881360684887 -170.8002772458873,-37.6127557188111 -176.6448016765204,-45.6886387950061 -184.5019545787771,-51.03053442291433 -198.7165408312592,-66.08050892793021" /><polyline points="-198.7165408312592,-66.08050892793021 -201.0187918114571,-75.53580444766186 -214.0785358118331,-88.97178140741917 -216.3807867920308,-98.42707692715078 -221.4227380426552,-104.9932012799644 -227.7649865455674,-116.7395249924365" /><polyline points="-227.7649865455674,-116.7395249924365 -226.1360588720938,-125.2128173914808" /><polyline points="-227.7649865455674,-116.7395249924365 -226.1360588720938,-125.2128173914808" /><polyline points="-227.7649865455674,-116.7395249924365 -230.534756659663,-124.54496081216" /><polyline points="-230.534756659663,-124.54496081216 -237.0501031654655,-132.1211549170566" /><polyline points="-221.4227380426552,-104.9932012799644 -224.1925081567508,-112.7986370996878 -239.6219959279065,-114.2625796124569 -243.3274588842918,-113.554984313835 -251.0011084326908,-111.7054148402237 -272.0264119184174,-93.00572818886363" /><polyline points="-272.0264119184174,-93.00572818886363 -273.9955466915969,-87.8155517375487 -287.0778340547715,-81.24462974810587 -289.0469688279509,-76.05445329679081 -295.3419325782927,-70.55739781230618 -312.4461442259389,-46.1259322118494" /><polyline points="-312.4461442259389,-46.1259322118494 -308.0975873795163,-38.37357346054488" /><polyline points="-312.4461442259389,-46.1259322118494 -312.4637479732031,-37.63001158534146" /><polyline points="-295.3419325782927,-70.55739781230618 -299.5165500013854,-63.62724086481865" /><polyline points="-295.3419325782927,-70.55739781230618 -299.5165500013854,-63.62724086481865" /><polyline points="-272.0264119184174,-93.00572818886363 -277.8924174545322,-89.86000972261425" /><polyline points="-277.8924174545322,-89.86000972261425 -287.6487601242375,-91.3499324178973" /><polyline points="-277.8924174545322,-89.86000972261425 -287.6487601242375,-91.3499324178973" /><polyline points="-287.6487601242375,-91.3499324178973 -293.5287148581614,-96.13687220663154" /><polyline points="-251.0011084326908,-111.7054148402237 -256.8671139688055,-108.5596963739743 -276.7907201742383,-106.8528695181756 -285.0331231844833,-101.3234752480142 -294.7197890898129,-100.6267312118854 -316.9024049738156,-104.1710569060181" /><polyline points="-316.9024049738156,-104.1710569060181 -322.9403747763017,-98.49043273941618 -341.0539605479058,-94.73890358733264 -347.091930350392,-89.05827942073067 -355.0804728405145,-88.15927224997728 -369.6839519054078,-95.45313418108326" /><polyline points="-369.6839519054078,-95.45313418108326 -372.2181197849378,-91.21657959312222" /><polyline points="-369.6839519054078,-95.45313418108326 -372.2181197849378,-91.21657959312222" /><polyline points="-369.6839519054078,-95.45313418108326 -376.0668612108884,-93.05305990279959" /><polyline points="-376.0668612108884,-93.05305990279959 -384.7979283511963,-88.29758080553093" /><polyline points="-355.0804728405145,-88.15927224997728 -361.4633821459951,-85.75919797169378 -378.1508271115359,-95.23349734394823 -382.7778431092647,-101.8660712143804 -390.0819029459701,-108.540091016006 -403.9087122832831,-134.0174694481609" /><polyline points="-403.9087122832831,-134.0174694481609 -405.1094376429375,-143.2804904513889 -416.7908740203217,-159.1551732618701 -417.991599379976,-168.4181942650982 -422.5583881791716,-177.3078816304163 -429.479785910264,-202.4019781460143" /><polyline points="-429.479785910264,-202.4019781460143 -421.2164231799635,-206.7836689811854" /><polyline points="-429.479785910264,-202.4019781460143 -427.1578364771236,-212.1266445274794" /><polyline points="-416.7908740203217,-159.1551732618701 -423.110556694566,-164.1471079219056" /><polyline points="-390.0819029459701,-108.540091016006 -395.4660074305822,-116.5806680905307" /><polyline points="-355.0804728405145,-88.15927224997728 -361.4633821459951,-85.75919797169378" /><polyline points="-341.0539605479058,-94.73890358733264 -350.0082294841602,-90.3453451803709" /><polyline points="-294.7197890898129,-100.6267312118854 -303.5948808731768,-97.83162410562822" /><polyline points="-256.8671139688055,-108.5596963739743 -265.2879620963347,-106.4528509149993" /><polyline points="-239.6219959279065,-114.2625796124569 -245.178045068358,-119.6992376078094" /><polyline points="-245.178045068358,-119.6992376078094 -252.9893412464278,-121.9181276233769" /><polyline points="-224.1925081567508,-112.7986370996878 -229.7485572972022,-118.2352950950403" /><polyline points="-221.4227380426552,-104.9932012799644 -224.1925081567508,-112.7986370996878" /><polyline points="-198.7165408312592,-66.08050892793021 -204.920058159057,-73.39316205470902" /><polyline points="-204.920058159057,-73.39316205470902 -214.4558727142831,-72.97615029506214" /><polyline points="-204.920058159057,-73.39316205470902 -214.4558727142831,-72.97615029506214" /><polyline points="-214.4558727142831,-72.97615029506214 -223.4577592902879,-75.9020265107169" /><polyline points="-184.5019545787771,-51.03053442291433 -190.7054719065748,-58.34318754969322 -207.4159337071419,-57.03002455201767 -212.0233997795035,-57.42841689930192 -219.3940851871194,-54.45872374434214 -233.7380960862079,-32.57616490299027" /><polyline points="-233.7380960862079,-32.57616490299027 -235.0035998861331,-29.43400916324817 -246.8463008882153,-22.18845786649719 -248.1118046881405,-19.04630212675509 -252.8132607953068,-13.21414205461969 -260.3883838548311,14.11580542362956" /><polyline points="-260.3883838548311,14.11580542362956 -258.2047230376456,20.23202282492711" /><polyline points="-260.3883838548311,14.11580542362956 -258.2047230376456,20.23202282492711" /><polyline points="-260.3883838548311,14.11580542362956 -262.6863966177468,20.29342343255185" /><polyline points="-262.6863966177468,20.29342343255185 -268.0637072771997,20.17103978753085" /><polyline points="-252.8132607953068,-13.21414205461969 -255.1112735582224,-7.036524045697512 -271.4763837336598,4.211257616880465 -276.213385040783,12.94984884812473 -284.6772837642864,18.10440073111127 -308.9821737779188,24.32565287334983" /><polyline points="-308.9821737779188,24.32565287334983 -312.4995708574064,31.78018171392546 -327.719252910377,43.30347654768107 -331.2366499898645,50.75800538825658 -338.7546284795734,54.98280372926487 -359.1865521257595,53.83295563152536" /><polyline points="-359.1865521257595,53.83295563152536 -356.4167978698987,57.88238737442406" /><polyline points="-359.1865521257595,53.83295563152536 -360.8917953924754,58.08019419449544" /><polyline points="-338.7546284795734,54.98280372926487 -344.4139452867519,59.62174718073975" /><polyline points="-338.7546284795734,54.98280372926487 -344.4139452867519,59.62174718073975" /><polyline points="-308.9821737779188,24.32565287334983 -315.9778440493117,30.80818786705052" /><polyline points="-315.9778440493117,30.80818786705052 -325.5675533396092,31.67128368193715" /><polyline points="-315.9778440493117,30.80818786705052 -325.5675533396092,31.67128368193715" /><polyline points="-325.5675533396092,31.67128368193715 -331.427508863743,38.12421277226488" /><polyline points="-284.6772837642864,18.10440073111127 -291.6729540356791,24.58693572481194 -311.571306157774,22.92033874293192 -320.2936870336348,20.32286442004769 -329.6758709161946,16.99181970941876 -348.936733465576,-4.319166145157801" /><polyline points="-348.936733465576,-4.319166145157801 -355.0384670710967,-11.0554728885813 -372.5692922032144,-20.67589366663075 -378.6710258087352,-27.41220041005428 -386.0248319402974,-34.13491937936949 -396.7552103749369,-59.54853549588439" /><polyline points="-396.7552103749369,-59.54853549588439 -398.8808343597112,-68.86774930457648" /><polyline points="-396.7552103749369,-59.54853549588439 -398.8808343597112,-68.86774930457648" /><polyline points="-396.7552103749369,-59.54853549588439 -402.5788062168787,-67.64605156532689" /><polyline points="-402.5788062168787,-67.64605156532689 -411.6960652542376,-70.05606510583054" /><polyline points="-386.0248319402974,-34.13491937936949 -391.8484277822393,-42.23243544881196 -406.4366347803626,-48.26689624811316 -409.4894795701478,-53.75616171303198 -415.6494166856951,-55.10531962374954 -426.7350884939519,-45.83186514220417" /><polyline points="-426.7350884939519,-45.83186514220417 -426.3114464629328,-48.41944056232642 -435.3605514098715,-51.047379894515 -434.9369093788524,-53.63495531463711 -438.2989418345955,-52.7031477067576 -443.4001037376772,-35.72971508228913" /><polyline points="-443.4001037376772,-35.72971508228913 -436.1690780547979,-35.75340906441991" /><polyline points="-443.4001037376772,-35.72971508228913 -439.8054151094006,-34.60336086295958" /><polyline points="-438.2989418345955,-52.7031477067576 -439.1325808233394,-51.79925261107122" /><polyline points="-426.7350884939519,-45.83186514220417 -430.7078175626126,-47.90663995361615" /><polyline points="-406.4366347803626,-48.26689624811316 -413.7758124321813,-54.68136343627661" /><polyline points="-413.7758124321813,-54.68136343627661 -421.7901451333481,-49.43474285385689" /><polyline points="-391.8484277822393,-42.23243544881196 -399.187605434058,-48.6469026369755" /><polyline points="-386.0248319402974,-34.13491937936949 -391.8484277822393,-42.23243544881196" /><polyline points="-348.936733465576,-4.319166145157801 -357.6594679000439,-9.080160268509367" /><polyline points="-357.6594679000439,-9.080160268509367 -366.1140802735926,-8.393240203631375" /><polyline points="-357.6594679000439,-9.080160268509367 -366.1140802735926,-8.393240203631375" /><polyline points="-366.1140802735926,-8.393240203631375 -375.5063747230899,-5.194914814932294" /><polyline points="-329.6758709161946,16.99181970941876 -338.3986053506624,12.23082558606726 -352.9664390520674,9.5157242961063 -357.3058020289041,3.914554956610436 -362.7155167133283,3.201910823530621 -366.4002624970713,9.296685850132212" /><polyline points="-366.4002624970713,9.296685850132212 -366.2098588865741,4.467739952534045 -373.8501247610605,1.317345046149299 -373.6597211505633,-3.511600851448853 -375.4367819178978,-3.677139623520483 -370.6797851175908,7.449894947038764" /><polyline points="-370.6797851175908,7.449894947038764 -366.1034819473221,4.786244542243568" /><polyline points="-370.6797851175908,7.449894947038764 -366.1034819473221,4.786244542243568" /><polyline points="-370.6797851175908,7.449894947038764 -370.134320012844,6.143733990709944" /><polyline points="-370.134320012844,6.143733990709944 -375.0533157038391,1.251083069140486" /><polyline points="-375.4367819178978,-3.677139623520483 -374.8913168131512,-4.983300579849235 -384.9256763772694,4.548885730254213 -385.5005022131081,11.9261082646479 -390.9720041847947,18.38954094761503 -410.3311163600723,41.28016561693028" /><polyline points="-410.3311163600723,41.28016561693028 -410.3479372589131,50.9760378743194 -419.2290298370172,66.61677122212927 -419.245850735858,76.31264347951847 -424.2564673468925,84.74995943229794 -443.2423422013859,106.2649429594254" /><polyline points="-443.2423422013859,106.2649429594254 -439.0150627247938,114.4508606426327" /><polyline points="-443.2423422013859,106.2649429594254 -442.9819015747665,115.9583002487813" /><polyline points="-424.2564673468925,84.74995943229794 -427.4087356379421,94.22919201929095" /><polyline points="-424.2564673468925,84.74995943229794 -427.4087356379421,94.22919201929095" /><polyline points="-410.3311163600723,41.28016561693028 -413.9093731433294,49.37727879574545" /><polyline points="-413.9093731433294,49.37727879574545 -422.2232394910831,50.55770509581896" /><polyline points="-413.9093731433294,49.37727879574545 -422.2232394910831,50.55770509581896" /><polyline points="-422.2232394910831,50.55770509581896 -424.7853575228439,52.38225489298397" /><polyline points="-390.9720041847947,18.38954094761503 -394.5502609680519,26.48665412643018 -413.2708442441108,30.22611294061721 -422.2706489952736,34.23179200902305 -432.1790293996298,34.1692242725542 -458.6694765866985,20.33488480670018" /><polyline points="-458.6694765866985,20.33488480670018 -467.0557342091951,21.14948913635949 -487.0131337870479,20.57391433129746 -495.3993914095444,21.38851866095677 -504.9128745185873,18.79210466158328 -525.4244028752172,-2.245686503458764" /><polyline points="-525.4244028752172,-2.245686503458764 -531.3088491963109,-5.0165403156222" /><polyline points="-525.4244028752172,-2.245686503458764 -531.3088491963109,-5.0165403156222" /><polyline points="-525.4244028752172,-2.245686503458764 -534.1370255464852,-4.914626260716846" /><polyline points="-534.1370255464852,-4.914626260716846 -543.4145592282026,-1.299550194811071" /><polyline points="-504.9128745185873,18.79210466158328 -513.6254971898554,16.12316490432524 -529.3943486309383,7.390885830720213 -534.4897970586547,-0.876588511707896 -540.6385966954392,-5.780902794511412 -546.730892612398,-16.85899434355344" /><polyline points="-546.730892612398,-16.85899434355347 -547.4461635504741,-25.76984286906178 -556.7529037930163,-38.04502367106642 -557.4681747310929,-46.95587219657472 -560.1148535400122,-52.49042010912634 -557.5180178304718,-59.07874660303438" /></svg>
