<svg transform="scale(1,-1)" viewBox="-290.8791261787289 -295.4327640501927 621.5100636217635 602.9304052031155" xmlns="http://www.w3.org/2000/svg">
<style>
svg { stroke:black; stroke-width:2; fill:none;}
</style>
<polyline points="-29.815532227305564 -39.77473914200549 29.48231028628806 40.74709561871657 -69.90056543262695 51.83961624473617 -10.602722919033367 132.3614510054585 29.482310286288076 40.74709561871636 69.5673434916096 -50.86725976802573 -29.815532227305425 -39.77473914200595 10.26950097801604 -131.38909452874802 69.56734349160959 -50.86725976802577 -29.815532227305432 -39.77473914200598 29.482310286288115 40.74709561871632 -69.9005654326269 51.83961624473617 -29.815532227305432 -39.77473914200595 10.269500978016001 -131.3890945287481 69.56734349160959 -50.86725976802586 109.65237669693103 -142.48161515476795 10.269500978016046 -131.38909452874813 69.56734349160959 -50.867259768025825 109.65237669693101 -142.48161515476795 168.9502192105246 -61.95978039404569 69.56734349160959 -50.86725976802584 -29.815532227305432 -39.77473914200597 10.269500978016007 -131.3890945287481 -89.113374740899 -120.29657390272826 -29.815532227305443 -39.77473914200601 10.269500978015987 -131.38909452874813 69.56734349160958 -50.86725976802591 109.65237669693101 -142.48161515476804 10.26950097801603 -131.38909452874813 -89.11337474089899 -120.29657390272837 -29.815532227305443 -39.774739142006084 -129.19840794622044 -28.682218515986204 -89.11337474089899 -120.29657390272835 -49.02834153557745 -211.91092928947037 -148.41121725449247 -200.81840866345064 -108.32618404917098 -292.4327640501927 -49.02834153557747 -211.91092928947043 10.269500978016085 -131.3890945287481 -89.11337474089893 -120.29657390272833 -29.815532227305443 -39.77473914200602 10.26950097801606 -131.38909452874807 -89.11337474089896 -120.29657390272821 -49.028341535577525 -211.9109292894703 -148.4112172544925 -200.8184086634505 -89.11337474089898 -120.29657390272827 -29.815532227305443 -39.774739142005984 10.269500978016042 -131.3890945287481 69.56734349160959 -50.867259768025825 -29.81553222730544 -39.774739142006005 10.269500978015996 -131.38909452874813 69.56734349160958 -50.86725976802591 109.65237669693106 -142.48161515476804 10.26950097801604 -131.3890945287482 -89.11337474089898 -120.2965739027284 -29.815532227305425 -39.7747391420061 -129.19840794622044 -28.68221851598623 -89.11337474089899 -120.29657390272835 -29.815532227305493 -39.77473914200604 10.269500978016032 -131.38909452874813 69.56734349160959 -50.86725976802584 -29.815532227305443 -39.77473914200603 -129.19840794622044 -28.68221851598615 -89.113374740899 -120.29657390272826 -188.496250459814 -109.20405327670841 -129.1984079462204 -28.68221851598616 -228.5812836651354 -17.58969788996642 -169.28344115154195 62.9321368707559 -268.666316870457 74.02465749677569 -228.5812836651354 -17.589697889966374 -188.49625045981398 -109.20405327670848 -129.19840794622044 -28.682218515986207 -89.11337474089893 -120.29657390272827 -188.49625045981395 -109.20405327670849 -129.19840794622036 -28.68221851598625 -228.58128366513537 -17.589697889966367 -169.2834411515418 62.932136870755905 -129.19840794622036 -28.682218515986182 -89.11337474089888 -120.29657390272831 -188.49625045981387 -109.20405327670845 -148.41121725449244 -200.81840866345064 -89.11337474089888 -120.29657390272837 -188.49625045981387 -109.20405327670841 -148.4112172544925 -200.81840866345055 -247.79409297340757 -189.7258880374306 -188.49625045981387 -109.20405327670841 -129.19840794622027 -28.682218515986165 -89.11337474089888 -120.29657390272831 -29.815532227305265 -39.77473914200605 -129.19840794622027 -28.68221851598616 -89.11337474089878 -120.29657390272826 -188.49625045981378 -109.20405327670845 -148.41121725449233 -200.81840866345058 -89.11337474089879 -120.29657390272827 -29.8155322273052 -39.77473914200604 -129.19840794622021 -28.682218515986175 -69.90056543262664 51.83961624473609 -29.815532227305194 -39.774739142006 10.269500978016165 -131.3890945287482 69.5673434916098 -50.86725976802594 109.65237669693123 -142.4816151547681 10.269500978016199 -131.3890945287482 -89.11337474089882 -120.29657390272827 -29.81553222730522 -39.77473914200604 -129.19840794622021 -28.68221851598612 -89.11337474089883 -120.29657390272827 -29.815532227305265 -39.774739142006 10.26950097801618 -131.38909452874813 69.56734349160978 -50.867259768025896 -29.81553222730523 -39.77473914200601 -129.19840794622024 -28.68221851598612 -89.11337474089882 -120.29657390272823 -188.4962504598138 -109.20405327670841 -129.19840794622024 -28.68221851598615 -89.11337474089876 -120.29657390272818 -188.49625045981378 -109.20405327670841 -148.41121725449233 -200.81840866345058 -89.11337474089879 -120.29657390272827 -29.8155322273052 -39.774739142006034 -129.19840794622021 -28.682218515986175 -69.90056543262666 51.8396162447361 -29.815532227305223 -39.77473914200599 -129.19840794622024 -28.6822185159861 -89.11337474089882 -120.29657390272821 -188.4962504598138 -109.20405327670836 -129.19840794622021 -28.68221851598612 -69.90056543262668 51.83961624473616 -29.81553222730524 -39.77473914200593 29.48231028628835 40.747095618716315 -69.90056543262668 51.839616244736185 -10.602722919033168 132.3614510054585 29.482310286288342 40.74709561871641 88.78015279988188 121.26893037943864 -10.602722919033136 132.3614510054585 -109.98559863794814 143.4539716314784 -69.90056543262669 51.839616244736256 -169.28344115154172 62.93213687075611 -109.98559863794812 143.45397163147837 -69.90056543262669 51.83961624473624 -10.602722919033125 132.3614510054585 29.482310286288367 40.7470956187164 -69.90056543262665 51.839616244736234 -169.2834411515417 62.93213687075604 -109.98559863794816 143.45397163147834 -209.36847435686317 154.5464922574982 -169.2834411515417 62.93213687075605 -109.98559863794804 143.45397163147825 -209.3684743568631 154.5464922574982 -150.07063184326952 235.0683270182205 -109.98559863794807 143.45397163147828 -69.90056543262662 51.83961624473619 -169.28344115154167 62.93213687075608 -129.19840794622027 -28.682218515986055 -69.90056543262666 51.83961624473619 -169.2834411515417 62.932136870756 -109.98559863794816 143.4539716314783 -209.36847435686317 154.5464922574982 -169.28344115154172 62.932136870756025 -129.19840794622024 -28.682218515986094 -69.90056543262668 51.83961624473616 -29.8155322273052 -39.77473914200595 -129.19840794622021 -28.682218515986104 -228.58128366513523 -17.589697889966136 -188.49625045981387 -109.20405327670831 -287.8791261787289 -98.11153265068835 -228.58128366513523 -17.589697889966157 -169.28344115154167 62.93213687075609 -129.19840794622027 -28.682218515986044 -69.9005654326266 51.83961624473616 -169.28344115154164 62.93213687075609 -129.19840794622016 -28.682218515986044 -228.58128366513512 -17.58969788996618 -188.49625045981375 -109.20405327670831 -129.19840794622016 -28.682218515986058 -69.9005654326266 51.83961624473616 -169.28344115154158 62.93213687075605 -109.98559863794807 143.45397163147828 -69.90056543262662 51.83961624473615 -169.28344115154167 62.93213687075595 -109.98559863794809 143.45397163147825 -209.36847435686315 154.5464922574981 -169.28344115154164 62.93213687075597 -129.19840794622021 -28.682218515986175 -69.9005654326266 51.839616244736035 -29.81553222730515 -39.77473914200608 -129.19840794622016 -28.68221851598623 -69.90056543262654 51.83961624473598 -169.28344115154155 62.932136870755926 -109.98559863794797 143.45397163147814 -69.90056543262656 51.839616244735986 -29.81553222730507 -39.774739142006126 -129.19840794622007 -28.682218515986268 -89.11337474089864 -120.29657390272835 -29.815532227305088 -39.774739142006105 10.26950097801626 -131.38909452874827 69.5673434916099 -50.867259768026045 109.6523766969313 -142.48161515476824 10.26950097801631 -131.3890945287483 -89.11337474089869 -120.29657390272845 -29.81553222730514 -39.77473914200617 -129.19840794622016 -28.68221851598628 -89.11337474089869 -120.29657390272841 -29.81553222730516 -39.77473914200613 10.26950097801627 -131.38909452874822 69.56734349160988 -50.86725976802596 -29.81553222730513 -39.77473914200611 -129.19840794622016 -28.682218515986204 -89.11337474089873 -120.29657390272833 -188.49625045981372 -109.20405327670848 -129.1984079462202 -28.68221851598623 -89.11337474089866 -120.29657390272831 -188.49625045981372 -109.20405327670849 -148.41121725449227 -200.81840866345058 -89.1133747408987 -120.29657390272831 -29.815532227305088 -39.77473914200609 -129.1984079462201 -28.682218515986193 -69.90056543262654 51.83961624473607 -29.815532227305106 -39.774739142006055 -129.1984079462201 -28.6822185159861 -89.11337474089873 -120.29657390272821 -188.49625045981372 -109.20405327670835 -129.19840794622013 -28.68221851598614 -69.90056543262659 51.83961624473614 -29.815532227305148 -39.77473914200596 29.48231028628844 40.74709561871629 -69.90056543262658 51.83961624473616 -169.28344115154158 62.932136870755976 -109.98559863794804 143.45397163147825 -209.3684743568631 154.54649225749813 -169.2834411515416 62.93213687075601 -129.19840794622016 -28.68221851598615 -69.9005654326266 51.83961624473609 -29.81553222730513 -39.77473914200604 -129.19840794622016 -28.682218515986175 -69.90056543262654 51.839616244736035 -169.28344115154155 62.93213687075595 -109.98559863794794 143.45397163147823 -69.90056543262654 51.83961624473611 -29.81553222730506 -39.77473914200601 -129.19840794622004 -28.68221851598616 -89.11337474089865 -120.29657390272827 -29.815532227305077 -39.77473914200604 -129.19840794622007 -28.682218515986083 -89.11337474089866 -120.29657390272823 -188.4962504598137 -109.20405327670834 -129.19840794622007 -28.68221851598612 -69.90056543262654 51.83961624473613 -29.815532227305095 -39.774739142005984 29.48231028628851 40.74709561871623 -69.9005654326265 51.83961624473613 -29.81553222730501 -39.774739142005984 -129.19840794622002 -28.68221851598614 -89.11337474089858 -120.29657390272826 -29.815532227305027 -39.774739142006 29.482310286288545 40.747095618716216 -69.90056543262644 51.83961624473608 -10.602722919032892 132.36145100545835 29.482310286288538 40.747095618716216 69.5673434916101 -50.86725976802586 -29.815532227304914 -39.77473914200611 10.26950097801662 -131.38909452874822 69.5673434916101 -50.86725976802587 128.86518600520364 29.654574992696418 29.48231028628861 40.7470956187162 88.78015279988212 121.26893037943856 128.8651860052036 29.654574992696475 29.482310286288623 40.74709561871626 69.56734349161013 -50.86725976802582 -29.815532227304896 -39.77473914200609 29.482310286288598 40.74709561871624 88.78015279988202 121.26893037943863 128.86518600520355 29.654574992696563 188.1630285187971 110.17640975341894 88.78015279988205 121.26893037943863 128.86518600520353 29.65457499269653 188.16302851879706 110.17640975341885 228.2480617241186 18.562054366676733 128.86518600520353 29.6545749926965 29.48231028628857 40.747095618716216 88.780152799882 121.26893037943854 -10.602722919032997 132.36145100545832 29.482310286288545 40.747095618716216 88.78015279988193 121.26893037943856 128.86518600520353 29.65457499269652 188.16302851879695 110.17640975341885 88.78015279988193 121.26893037943854 -10.60272291903306 132.36145100545832 29.48231028628849 40.74709561871622 -69.90056543262654 51.83961624473593 -10.602722919033075 132.36145100545826 48.69511959456048 212.88328576618062 -50.687756124354536 223.9758063922004 8.610086389238935 304.49764115292277 48.69511959456048 212.88328576618062 88.78015279988203 121.26893037943859 -10.602722919032978 132.36145100545826 29.48231028628857 40.74709561871618 88.78015279988203 121.26893037943854 -10.602722919032983 132.36145100545826 48.69511959456048 212.88328576618062 -50.687756124354536 223.9758063922004 -10.602722919032988 132.36145100545826 29.482310286288545 40.74709561871618 88.78015279988203 121.26893037943854 128.8651860052036 29.65457499269646 29.482310286288605 40.747095618716166 88.780152799882 121.26893037943859 128.8651860052036 29.6545749926965 188.16302851879706 110.17640975341887 88.78015279988203 121.26893037943854 -10.602722919032974 132.36145100545832 29.482310286288588 40.747095618716216 -69.90056543262644 51.83961624473591 -10.602722919032988 132.36145100545826 29.482310286288545 40.74709561871618 88.78015279988203 121.26893037943854 128.8651860052036 29.654574992696485 29.48231028628861 40.747095618716195 -69.90056543262644 51.83961624473584 -10.602722919033013 132.36145100545826 -109.98559863794804 143.4539716314779 -69.90056543262644 51.839616244735865 -169.28344115154144 62.93213687075568 -129.19840794621996 -28.682218515986413 -228.58128366513495 -17.589697889966647 -169.28344115154147 62.93213687075568 -109.985598637948 143.45397163147805 -69.90056543262645 51.839616244735936 -10.60272291903295 132.36145100545826 -109.98559863794797 143.45397163147805 -69.90056543262637 51.83961624473598 -169.2834411515414 62.93213687075569 -129.19840794621982 -28.68221851598639 -69.90056543262635 51.83961624473598 -10.602722919032841 132.36145100545826 -109.98559863794786 143.45397163147805 -50.687756124354344 223.97580639220035 -10.602722919032846 132.36145100545832 -109.98559863794783 143.45397163147803 -50.687756124354394 223.97580639220035 -150.07063184326944 235.06832701822003 -109.98559863794783 143.45397163147803 -69.90056543262634 51.839616244735915 -10.602722919032857 132.36145100545826 29.48231028628874 40.747095618716195 -69.90056543262628 51.83961624473591 -10.602722919032772 132.3614510054582 -109.98559863794776 143.45397163147803 -50.6877561243543 223.97580639220035 -10.602722919032756 132.3614510054583 29.482310286288836 40.74709561871625 -69.90056543262618 51.839616244735964 -29.81553222730464 -39.77473914200611 29.482310286288847 40.74709561871623 88.78015279988223 121.26893037943863 128.86518600520384 29.654574992696574 188.1630285187973 110.1764097534189 88.78015279988227 121.26893037943859 -10.602722919032747 132.36145100545835 29.48231028628881 40.747095618716266 -69.90056543262622 51.839616244736 -10.602722919032763 132.36145100545835 29.482310286288776 40.74709561871623 88.78015279988227 121.26893037943859 128.86518600520384 29.65457499269651 29.482310286288836 40.74709561871624 -69.9005654326262 51.83961624473589 -10.60272291903278 132.3614510054583 -109.9855986379478 143.453971631478 -69.9005654326262 51.83961624473591 -10.6027229190327 132.3614510054582 -109.98559863794769 143.453971631478 -50.687756124354294 223.97580639220033 -10.602722919032743 132.3614510054582 29.482310286288847 40.7470956187162 -69.90056543262617 51.83961624473593 -29.81553222730463 -39.77473914200616 29.48231028628886 40.74709561871617 -69.90056543262617 51.839616244735886 -10.602722919032711 132.3614510054582 -109.98559863794769 143.453971631478 -69.90056543262617 51.83961624473593 -29.81553222730464 -39.77473914200618 29.482310286288843 40.74709561871615 69.56734349161047 -50.867259768025896 -29.81553222730457 -39.7747391420062 10.269500978016856 -131.38909452874827 69.56734349161042 -50.867259768026024 109.65237669693188 -142.48161515476818 10.269500978016877 -131.3890945287483 -89.11337474089814 -120.29657390272851 -29.815532227304622 -39.77473914200621 -129.1984079462196 -28.682218515986364 -89.11337474089814 -120.2965739027285 -29.81553222730461 -39.77473914200619 10.269500978016863 -131.38909452874827 69.56734349161044 -50.86725976802603 -29.81553222730457 -39.774739142006204 -129.19840794621956 -28.68221851598632 -89.11337474089814 -120.29657390272845 -188.49625045981315 -109.20405327670862 -129.19840794621956 -28.682218515986346 -89.11337474089807 -120.29657390272845 -188.49625045981313 -109.20405327670863 -148.41121725449167 -200.81840866345078 -89.11337474089811 -120.29657390272851 -29.81553222730453 -39.77473914200631 -129.1984079462195 -28.682218515986424 -69.90056543262595 51.83961624473585 -29.81553222730454 -39.7747391420063 -129.19840794621953 -28.682218515986367 -89.11337474089814 -120.29657390272851 -188.49625045981315 -109.20405327670863 -129.19840794621953 -28.68221851598641 -69.90056543262604 51.83961624473591 -29.81553222730455 -39.774739142006204 29.48231028628901 40.74709561871607 -69.90056543262601 51.839616244735886 -169.28344115154098 62.93213687075565 -109.98559863794752 143.45397163147797 -209.36847435686255 154.54649225749773 -169.28344115154098 62.932136870755635 -129.19840794621953 -28.68221851598647 -69.90056543262602 51.83961624473582 -29.815532227304487 -39.77473914200628 -129.1984079462195 -28.68221851598646 -69.90056543262594 51.839616244735815 -169.28344115154093 62.932136870755656 -109.98559863794735 143.45397163147797 -69.90056543262594 51.83961624473582 -29.815532227304416 -39.77473914200629 -129.19840794621942 -28.682218515986463 -89.11337474089798 -120.29657390272858 -29.81553222730442 -39.774739142006325 -129.19840794621942 -28.682218515986413 -89.11337474089801 -120.29657390272855 -188.496250459813 -109.20405327670868 -129.19840794621942 -28.68221851598644 -69.90056543262588 51.839616244735865 -29.81553222730441 -39.77473914200626 29.48231028628917 40.74709561871601 -69.90056543262584 51.839616244735865 -29.815532227304356 -39.77473914200625 -129.19840794621936 -28.68221851598641 -89.11337474089792 -120.29657390272854 -29.815532227304363 -39.77473914200627 29.482310286289252 40.74709561871595 -69.90056543262574 51.83961624473587 -10.602722919032178 132.36145100545812 29.482310286289252 40.74709561871599 88.78015279988269 121.26893037943832 128.86518600520424 29.654574992696208 188.16302851879777 110.17640975341853 88.78015279988277 121.26893037943829 -10.602722919032226 132.36145100545815 29.482310286289216 40.747095618716045 -69.90056543262581 51.839616244735865 -10.602722919032256 132.36145100545815 29.48231028628912 40.74709561871598 88.7801527998827 121.26893037943819 128.86518600520415 29.654574992696084 29.482310286289145 40.747095618715946 -69.90056543262587 51.8396162447358 -10.60272291903229 132.36145100545804 -109.98559863794726 143.45397163147794 -69.90056543262588 51.839616244735815 -10.602722919032214 132.361451005458 -109.98559863794719 143.45397163147794 -50.68775612435361 223.97580639220024 -10.602722919032225 132.36145100545804 29.48231028628925 40.74709561871592 -69.90056543262575 51.83961624473578 -29.815532227304356 -39.77473914200634 29.48231028628923 40.74709561871588 -69.90056543262577 51.83961624473572 -10.602722919032217 132.36145100545798 -109.98559863794719 143.45397163147786 -69.90056543262577 51.83961624473573 -29.81553222730442 -39.774739142006446 29.4823102862892 40.7470956187158 69.56734349161063 -50.8672597680263 -29.815532227304374 -39.77473914200641 -129.1984079462194 -28.68221851598646 -89.11337474089798 -120.29657390272864 -188.49625045981298 -109.20405327670878 -129.19840794621942 -28.682218515986527 -69.90056543262587 51.83961624473574 -29.815532227304455 -39.77473914200641 29.482310286289145 40.74709561871583 -69.90056543262584 51.83961624473573 -29.815532227304367 -39.774739142006396 -129.1984079462194 -28.682218515986538 -89.11337474089795 -120.29657390272865 -29.81553222730438 -39.774739142006425 29.48231028628924 40.74709561871583 -69.90056543262574 51.83961624473573 -10.602722919032177 132.361451005458 29.48231028628925 40.74709561871589 -69.90056543262575 51.83961624473569 -10.602722919032233 132.36145100545798 -109.98559863794723 143.45397163147786 -69.90056543262577 51.83961624473572 -29.815532227304328 -39.77473914200642 29.48231028628923 40.74709561871588 69.56734349161074 -50.86725976802623 -29.815532227304278 -39.77473914200643 29.482310286289284 40.74709561871584 -69.90056543262574 51.83961624473569 -10.60272291903218 132.361451005458 29.482310286289284 40.747095618715875 69.56734349161077 -50.86725976802625 -29.815532227304242 -39.774739142006396 10.269500978017184 -131.38909452874853 69.56734349161077 -50.86725976802626 -29.81553222730426 -39.77473914200656 29.4823102862892 40.74709561871578 -69.90056543262581 51.839616244735545 -29.815532227304267 -39.774739142006545 10.26950097801723 -131.38909452874864 69.56734349161071 -50.86725976802633 109.65237669693225 -142.48161515476843 10.269500978017232 -131.38909452874861 69.5673434916108 -50.867259768026365 -29.815532227304207 -39.7747391420065 29.48231028628933 40.747095618715775 69.5673434916108 -50.867259768026365 109.65237669693227 -142.48161515476846 10.269500978017273 -131.38909452874864 50.35453418333872 -223.0034499154908 109.65237669693227 -142.48161515476852 10.26950097801728 -131.38909452874856 50.35453418333866 -223.00344991549076 -49.02834153557635 -211.9109292894709 10.269500978017252 -131.3890945287486 69.5673434916108 -50.867259768026344 109.65237669693225 -142.4816151547685 168.95021921052583 -61.95978039404625 69.56734349161086 -50.86725976802633 109.65237669693234 -142.48161515476846 10.269500978017325 -131.3890945287486 50.35453418333874 -223.0034499154908 109.65237669693232 -142.4816151547685 168.95021921052592 -61.95978039404631 69.56734349161093 -50.867259768026436 128.86518600520452 29.654574992695853 168.95021921052592 -61.95978039404631 209.0352524158472 -153.57413578078842 268.33309492944096 -73.05230102006624 308.4181281347623 -164.6666564068084 209.0352524158473 -153.57413578078842 109.65237669693232 -142.48161515476855 168.95021921052592 -61.95978039404632 69.56734349161093 -50.867259768026365 109.65237669693227 -142.48161515476852 168.9502192105259 -61.959780394046284 209.0352524158472 -153.57413578078842 268.333094929441 -73.0523010200662 168.95021921052592 -61.95978039404627 69.56734349161093 -50.86725976802631 109.6523766969323 -142.48161515476846 10.269500978017293 -131.3890945287486 69.56734349161093 -50.867259768026344 109.6523766969324 -142.4816151547684 10.269500978017387 -131.3890945287486 50.3545341833388 -223.0034499154908 109.65237669693236 -142.48161515476846 168.95021921052597 -61.95978039404624 69.56734349161098 -50.86725976802637 128.86518600520455 29.654574992695935 168.950219210526 -61.95978039404619 69.567343491611 -50.86725976802627 109.65237669693236 -142.4816151547684 10.269500978017374 -131.38909452874853 69.567343491611 -50.8672597680263 128.86518600520455 29.65457499269599 168.950219210526 -61.959780394046156 228.2480617241196 18.562054366676076 128.86518600520463 29.654574992695995 188.16302851879826 110.17640975341817 88.78015279988331 121.26893037943815 148.07799531347692 201.79076514016037 188.16302851879826 110.17640975341821 228.24806172411968 18.562054366676108 128.86518600520472 29.654574992695967 168.95021921052611 -61.9597803940462 228.24806172411968 18.562054366676033 128.86518600520472 29.65457499269584 188.16302851879823 110.17640975341811 88.78015279988324 121.268930379438 128.8651860052047 29.654574992695874 168.95021921052606 -61.9597803940463 228.2480617241196 18.56205436667593 268.33309492944113 -73.05230102006621 168.95021921052606 -61.95978039404631 228.2480617241196 18.562054366675945 268.33309492944113 -73.05230102006621 327.63093744303467 7.469533740656034 228.24806172411968 18.562054366675948 128.86518600520472 29.654574992695924 168.95021921052606 -61.95978039404624 69.56734349161107 -50.867259768026365 128.8651860052047 29.65457499269589 168.950219210526 -61.95978039404627 228.24806172411965 18.562054366675955 268.33309492944113 -73.05230102006621 168.95021921052606 -61.95978039404626 69.56734349161107 -50.867259768026415 128.86518600520463 29.654574992695853 29.48231028628963 40.74709561871579 69.567343491611 -50.86725976802637 109.6523766969325 -142.48161515476846 10.269500978017492 -131.38909452874861 50.354534183338934 -223.0034499154908 109.65237669693248 -142.4816151547685 168.9502192105261 -61.95978039404626 69.56734349161111 -50.86725976802639 128.8651860052047 29.65457499269589 168.9502192105261 -61.95978039404626 69.56734349161113 -50.86725976802632 109.65237669693246 -142.48161515476846 10.269500978017476 -131.3890945287486 69.5673434916111 -50.867259768026344 128.86518600520463 29.65457499269594 168.95021921052603 -61.95978039404618 228.2480617241196 18.562054366676076 128.86518600520463 29.654574992695967 168.950219210526 -61.95978039404622 228.2480617241196 18.562054366676033 268.33309492944113 -73.0523010200661 168.95021921052606 -61.95978039404622 69.56734349161107 -50.867259768026386 128.86518600520463 29.654574992695895 29.48231028628963 40.747095618715804 69.56734349161107 -50.867259768026365 128.86518600520463 29.65457499269594 168.9502192105261 -61.9597803940462 228.2480617241196 18.562054366676076 128.86518600520463 29.65457499269594 29.48231028628964 40.74709561871585 69.56734349161101 -50.8672597680263 -29.815532227303976 -39.774739142006425 29.482310286289593 40.74709561871583 -69.90056543262541 51.8396162447358 -29.81553222730404 -39.77473914200637 -129.19840794621902 -28.68221851598646 -69.90056543262543 51.83961624473577 -10.602722919031836 132.361451005458 29.482310286289575 40.74709561871585 88.78015279988318 121.2689303794381 -10.602722919031793 132.361451005458 29.482310286289675 40.74709561871588 -69.90056543262533 51.83961624473574 -29.815532227303905 -39.7747391420064 29.482310286289664 40.74709561871586 88.78015279988327 121.26893037943809 -10.602722919031724 132.36145100545798 48.695119594561874 212.88328576618028 88.78015279988327 121.26893037943817 -10.602722919031732 132.3614510054579 48.69511959456176 212.88328576618025 -50.687756124353236 223.97580639220007 -10.602722919031734 132.36145100545792 29.48231028628971 40.747095618715804 88.78015279988325 121.26893037943809 128.86518600520472 29.654574992695995 29.48231028628972 40.74709561871583 88.78015279988337 121.26893037943807 -10.602722919031633 132.36145100545798 48.69511959456196 212.88328576618028 88.78015279988337 121.26893037943817 128.86518600520483 29.654574992696013 29.482310286289813 40.74709561871588 69.56734349161124 -50.867259768026294 128.86518600520483 29.65457499269595 188.1630285187983 110.17640975341827 228.24806172411982 18.562054366676207 287.5459042377133 99.08388912739849 188.1630285187983 110.1764097534183 88.78015279988334 121.26893037943819 128.8651860052048 29.654574992696034 29.482310286289778 40.747095618715896 88.7801527998834 121.26893037943817 128.86518600520472 29.65457499269598 188.16302851879837 110.17640975341823 228.24806172411982 18.562054366676108 128.86518600520483 29.654574992696013 29.482310286289813 40.74709561871586 88.7801527998834 121.26893037943813 -10.602722919031612 132.361451005458 29.4823102862898 40.74709561871588 88.78015279988348 121.26893037943809 -10.602722919031512 132.36145100545804 48.6951195945621 212.88328576618034 88.78015279988348 121.26893037943815 128.86518600520498 29.654574992695995 29.48231028628993 40.74709561871586 69.56734349161134 -50.86725976802626 128.86518600520492 29.65457499269597 29.482310286289923 40.74709561871577 88.78015279988345 121.26893037943807 -10.602722919031558 132.3614510054579 29.482310286289906 40.74709561871578 69.5673434916113 -50.867259768026365 128.86518600520486 29.654574992695864 168.95021921052628 -61.95978039404626 69.56734349161128 -50.86725976802639 109.65237669693272 -142.48161515476846 10.269500978017753 -131.38909452874864 50.35453418333922 -223.0034499154908 109.65237669693272 -142.4816151547685 168.95021921052637 -61.95978039404623 69.56734349161137 -50.867259768026365 128.86518600520498 29.65457499269593 168.95021921052637 -61.95978039404618 69.56734349161138 -50.867259768026294 109.65237669693279 -142.48161515476846 10.269500978017804 -131.38909452874856 69.56734349161142 -50.86725976802632 128.86518600520503 29.654574992695977 168.9502192105264 -61.959780394046135 228.24806172411996 18.562054366676147 128.865186005205 29.654574992695995 168.95021921052637 -61.95978039404617 228.24806172411996 18.56205436667609 268.3330949294415 -73.05230102006607 168.9502192105264 -61.95978039404617 69.56734349161144 -50.86725976802632 128.86518600520498 29.654574992695956 29.482310286289998 40.74709561871586 69.56734349161144 -50.867259768026294 128.86518600520498 29.654574992696002 168.9502192105264 -61.959780394046135 228.24806172411996 18.562054366676144 128.865186005205 29.654574992695995 29.48231028629001 40.74709561871592 69.5673434916114 -50.86725976802623 -29.815532227303617 -39.77473914200636 29.48231028628999 40.7470956187159 88.78015279988362 121.26893037943813 -10.602722919031356 132.36145100545804 48.69511959456224 212.88328576618034 88.78015279988364 121.26893037943823 128.8651860052051 29.65457499269608 29.48231028629009 40.74709561871594 69.56734349161148 -50.86725976802618 128.86518600520506 29.654574992696038 29.482310286290062 40.74709561871587 88.78015279988364 121.26893037943817 -10.602722919031358 132.36145100545804 29.48231028629007 40.747095618715896 69.56734349161144 -50.86725976802624 128.86518600520506 29.654574992696027 168.9502192105265 -61.959780394046106 69.56734349161151 -50.86725976802628 128.865186005205 29.654574992696062 168.9502192105265 -61.95978039404606 228.24806172412008 18.562054366676275 128.86518600520506 29.654574992696038 29.482310286290044 40.74709561871588 69.56734349161151 -50.86725976802623 -29.81553222730349 -39.77473914200645 29.482310286290044 40.74709561871587 69.56734349161147 -50.867259768026294 128.86518600520506 29.65457499269598 168.9502192105265 -61.95978039404615 69.56734349161151 -50.86725976802628 -29.81553222730349 -39.77473914200647 29.48231028629005 40.74709561871583 -69.90056543262494 51.83961624473571 -29.81553222730349 -39.77473914200645 10.26950097801787 -131.38909452874864 69.56734349161151 -50.86725976802637 109.65237669693296 -142.48161515476852 10.269500978017955 -131.38909452874864 -89.11337474089704 -120.29657390272885 -29.815532227303482 -39.77473914200654 -129.19840794621848 -28.682218515986644 -89.11337474089704 -120.29657390272877 -29.815532227303542 -39.77473914200647 10.269500978017941 -131.3890945287486 69.56734349161151 -50.8672597680263 -29.815532227303464 -39.77473914200645 -129.19840794621845 -28.68221851598655 -89.11337474089704 -120.2965739027287 -188.49625045981202 -109.20405327670878 -129.19840794621842 -28.682218515986552 -89.11337474089697 -120.29657390272865 -188.49625045981196 -109.20405327670882 -148.41121725449054 -200.81840866345095 -89.11337474089696 -120.29657390272872 -29.81553222730335 -39.77473914200646 -129.19840794621834 -28.682218515986566 -69.90056543262476 51.83961624473571 -29.81553222730335 -39.774739142006396 -129.19840794621834 -28.68221851598644 -89.113374740897 -120.2965739027286 -188.496250459812 -109.2040532767087 -129.19840794621834 -28.68221851598647 -69.90056543262483 51.83961624473584 -29.81553222730336 -39.7747391420063 29.482310286290247 40.74709561871596 -69.90056543262477 51.83961624473584 -169.28344115153976 62.93213687075567 -109.98559863794618 143.45397163147797 -209.36847435686119 154.54649225749782 -169.28344115153976 62.93213687075569 -129.1984079462184 -28.682218515986456 -69.9005654326248 51.8396162447358 -29.81553222730334 -39.77473914200634 -129.19840794621834 -28.68221851598647 -69.9005654326247 51.83961624473578 -169.2834411515397 62.93213687075569 -109.9855986379461 143.45397163147797 -69.9005654326247 51.83961624473585 -29.815532227303244 -39.77473914200629 -129.19840794621825 -28.682218515986428 -89.11337474089684 -120.29657390272858 -29.81553222730325 -39.77473914200636 -129.19840794621825 -28.6822185159864 -89.11337474089689 -120.29657390272854 -188.49625045981188 -109.20405327670862 -129.19840794621825 -28.682218515986428 -69.9005654326247 51.83961624473585 -29.81553222730328 -39.774739142006304 29.482310286290346 40.74709561871594 -69.90056543262463 51.83961624473585 -29.815532227303198 -39.77473914200628 -129.19840794621823 -28.682218515986417 -89.11337474089679 -120.29657390272858 -29.8155322273032 -39.774739142006354 29.482310286290453 40.747095618715846 -69.90056543262452 51.839616244735815 -10.60272291903092 132.36145100545804 29.48231028629046 40.7470956187159 88.78015279988398 121.26893037943823 128.86518600520546 29.654574992696094 188.16302851879908 110.17640975341835 88.78015279988406 121.26893037943822 -10.60272291903092 132.36145100545812 29.482310286290488 40.74709561871596 -69.90056543262452 51.83961624473583 -10.60272291903089 132.36145100545812 29.482310286290442 40.74709561871591 88.78015279988408 121.26893037943819 128.8651860052055 29.654574992696023 29.482310286290495 40.74709561871592 -69.9005654326245 51.83961624473577 -10.60272291903093 132.36145100545804 -109.98559863794593 143.45397163147794 -69.9005654326245 51.8396162447358 -10.602722919030871 132.36145100545804 -109.98559863794586 143.45397163147794 -50.68775612435229 223.97580639220024 -10.602722919030864 132.36145100545812 29.482310286290602 40.74709561871594 -69.90056543262439 51.8396162447358 -29.815532227303006 -39.774739142006375 29.482310286290584 40.74709561871586 -69.9005654326244 51.8396162447357 -10.602722919030839 132.36145100545798 -109.98559863794583 143.45397163147786 -69.90056543262442 51.8396162447357 -29.815532227303052 -39.77473914200645 29.48231028629053 40.747095618715775 69.56734349161194 -50.8672597680264 -29.815532227303052 -39.77473914200648 -129.19840794621805 -28.68221851598647 -89.11337474089673 -120.29657390272865 -188.49625045981173 -109.2040532767087 -129.19840794621805 -28.682218515986495 -69.90056543262443 51.839616244735794 -29.815532227303066 -39.77473914200639 29.482310286290573 40.747095618715846 -69.9005654326244 51.83961624473577 -29.815532227302977 -39.774739142006375 -129.19840794621797 -28.682218515986506 -89.11337474089657 -120.2965739027287 -29.815532227302977 -39.77473914200643 29.48231028629067 40.747095618715775 -69.90056543262432 51.83961624473574 -10.602722919030724 132.361451005458 29.48231028629067 40.74709561871582 -69.90056543262433 51.83961624473564 -10.602722919030796 132.36145100545792 -109.98559863794581 143.4539716314778 -69.90056543262439 51.839616244735645 -29.81553222730297 -39.7747391420065 29.482310286290616 40.74709561871577 69.56734349161206 -50.867259768026386 -29.815532227302928 -39.77473914200652 29.48231028629069 40.74709561871572 -69.9005654326243 51.83961624473564 -10.602722919030697 132.3614510054579 29.482310286290705 40.747095618715775 69.56734349161212 -50.86725976802637 -29.815532227302857 -39.7747391420065 10.269500978018533 -131.38909452874867 69.56734349161212 -50.86725976802644 109.65237669693357 -142.48161515476858 10.269500978018602 -131.3890945287487 50.35453418333999 -223.00344991549088 109.65237669693357 -142.48161515476866 168.95021921052722 -61.959780394046405 69.56734349161223 -50.867259768026486 128.86518600520583 29.65457499269581 168.95021921052725 -61.95978039404632 69.56734349161223 -50.867259768026464 109.65237669693363 -142.48161515476863 10.269500978018653 -131.38909452874876 69.5673434916122 -50.867259768026464 128.86518600520577 29.6545749926959 168.9502192105272 -61.959780394046206 228.2480617241208 18.562054366676104 128.8651860052058 29.65457499269593 168.9502192105272 -61.959780394046206 228.2480617241208 18.562054366676062 268.3330949294422 -73.0523010200661 168.95021921052725 -61.95978039404622 69.56734349161223 -50.867259768026436 128.8651860052058 29.654574992695895 29.482310286290787 40.74709561871576 69.56734349161223 -50.86725976802639 128.86518600520577 29.65457499269595 168.95021921052728 -61.95978039404618 228.2480617241208 18.56205436667613 128.8651860052058 29.65457499269595 29.482310286290794 40.747095618715825 69.5673434916122 -50.86725976802633 -29.815532227302786 -39.77473914200648 29.482310286290762 40.74709561871582 88.78015279988442 121.26893037943805 -10.602722919030546 132.36145100545798 48.69511959456304 212.88328576618028 88.78015279988442 121.26893037943813 128.86518600520586 29.654574992695977 29.482310286290883 40.747095618715846 69.5673434916123 -50.86725976802631 128.86518600520586 29.654574992695967 29.482310286290883 40.747095618715804 88.78015279988442 121.26893037943807 -10.602722919030548 132.36145100545798 29.482310286290858 40.74709561871582 69.56734349161223 -50.867259768026365 128.86518600520583 29.654574992695885 168.95021921052725 -61.95978039404629 69.56734349161223 -50.867259768026386 128.8651860052058 29.65457499269593 168.95021921052725 -61.95978039404623 228.2480617241208 18.56205436667606 128.86518600520586 29.65457499269592 29.482310286290883 40.747095618715825 69.56734349161229 -50.86725976802633 -29.81553222730269 -39.77473914200645 29.482310286290918 40.747095618715804 69.56734349161223 -50.86725976802637 128.86518600520586 29.654574992695864 168.95021921052728 -61.95978039404631 69.56734349161229 -50.86725976802639 -29.815532227302704 -39.77473914200654 29.482310286290875 40.747095618715754 -69.9005654326241 51.83961624473564 -29.815532227302697 -39.774739142006496 -129.19840794621766 -28.682218515986495 -89.11337474089638 -120.29657390272868 -188.49625045981136 -109.20405327670876 -129.1984079462177 -28.682218515986513 -69.90056543262408 51.83961624473576 -29.815532227302732 -39.774739142006425 29.48231028629093 40.74709561871581 -69.90056543262402 51.83961624473576 -29.81553222730266 -39.77473914200643 -129.19840794621766 -28.682218515986484 -89.1133747408963 -120.29657390272865 -29.815532227302697 -39.77473914200645 29.482310286290954 40.74709561871578 -69.90056543262403 51.83961624473571 -10.602722919030427 132.361451005458 29.48231028629096 40.74709561871588 -69.90056543262403 51.83961624473571 -10.602722919030464 132.361451005458 -109.98559863794544 143.4539716314779 -69.90056543262402 51.83961624473575 -29.815532227302654 -39.774739142006446 29.482310286290943 40.747095618715804 69.5673434916123 -50.867259768026344 -29.815532227302654 -39.77473914200645 29.482310286290996 40.74709561871578 -69.90056543262398 51.83961624473571 -10.602722919030374 132.36145100545798 29.482310286291 40.74709561871588 69.5673434916124 -50.86725976802628 -29.815532227302548 -39.774739142006396 10.269500978018808 -131.38909452874856 69.5673434916124 -50.8672597680263 128.8651860052059 29.654574992696023 168.9502192105274 -61.959780394046106 228.24806172412093 18.562054366676183 128.86518600520597 29.65457499269605 29.48231028629099 40.74709561871595 69.56734349161239 -50.8672597680262 -29.81553222730259 -39.77473914200636 29.48231028629099 40.747095618715925 69.56734349161232 -50.86725976802624 128.86518600520594 29.654574992696023 168.9502192105274 -61.95978039404611 69.56734349161238 -50.86725976802626 -29.815532227302594 -39.77473914200644 29.48231028629093 40.74709561871586 -69.90056543262405 51.83961624473574 -29.815532227302644 -39.77473914200641 29.482310286291 40.747095618715825 -69.90056543262396 51.83961624473575 -10.602722919030366 132.36145100545804 29.482310286291014 40.747095618715925 69.56734349161245 -50.867259768026216 -29.81553222730253 -39.77473914200636 10.269500978018867 -131.38909452874853 69.56734349161242 -50.86725976802626 -29.815532227302548 -39.774739142006396 29.482310286291025 40.74709561871588 -69.90056543262396 51.83961624473576 -29.815532227302555 -39.77473914200637 10.26950097801883 -131.38909452874853 69.5673434916124 -50.86725976802631 109.65237669693384 -142.4816151547685 10.269500978018861 -131.3890945287486"/>
</svg>