<svg transform="scale(1,-1)" viewBox="-1010.1279150291839 -697.5792391592975 2083.1416331920645 1500.8619487184028" xmlns="http://www.w3.org/2000/svg">
<style>
svg { stroke:black; stroke-width:2; fill:none;}
</style>
<polyline points="108.90434680916398 453.86457836038664 13.521186432786267 451.3976711521958"/>
<polyline points="13.521186432786292 451.3976711521965 -81.8619739435886 448.9307639440074"/>
<polyline points="-81.8619739435886 448.9307639440074 -104.54025341283119 520.1879159503018"/>
<polyline points="-81.8619739435886 448.9307639440074 -104.54025341283118 520.1879159503018"/>
<polyline points="-81.8619739435886 448.9307639440074 -59.18369447434602 377.67361193771296"/>
<polyline points="-59.18369447434602 377.67361193771296 -36.50541500510343 306.41645993141844"/>
<polyline points="-36.50541500510343 306.41645993141844 58.877745371271445 308.88336713960757"/>
<polyline points="58.877745371271445 308.88336713960757 154.26090574764632 311.35027434779664"/>
<polyline points="154.26090574764632 311.35027434779664 58.877745371271445 308.88336713960757"/>
<polyline points="-36.50541500510343 306.41645993141844 -16.814088058204337 376.5330247130591"/>
<polyline points="-16.814088058204337 376.5330247130591 2.877238888694724 446.6495894946997"/>
<polyline points="2.877238888694724 446.6495894946997 -16.81408805820433 376.53302471305904"/>
<polyline points="2.877238888694724 446.6495894946997 -92.5059214876801 444.1826822865108"/>
<polyline points="-92.5059214876801 444.1826822865108 -187.889081864055 441.71577507832177"/>
<polyline points="-187.889081864055 441.71577507832177 -168.19775491715595 511.83233985996236"/>
<polyline points="-187.889081864055 441.71577507832177 -168.19775491715586 511.8323398599624"/>
<polyline points="-187.889081864055 441.71577507832177 -207.5804088109541 371.599210296681"/>
<polyline points="-207.5804088109541 371.599210296681 -227.27173575785324 301.4826455150404"/>
<polyline points="-227.27173575785324 301.4826455150404 -131.8885753814784 303.9495527232293"/>
<polyline points="-131.8885753814784 303.9495527232293 -36.50541500510347 306.4164599314184"/>
<polyline points="-36.50541500510347 306.4164599314184 -16.81408805820434 376.5330247130589"/>
<polyline points="-36.50541500510347 306.4164599314184 -16.814088058204323 376.5330247130589"/>
<polyline points="-36.50541500510347 306.4164599314184 -56.19674195200263 236.2998951497778"/>
<polyline points="-56.19674195200263 236.2998951497778 -75.88806889890178 166.18333036813718"/>
<polyline points="-75.88806889890178 166.18333036813718 -53.209789429659175 94.92617836184263"/>
<polyline points="-53.209789429659175 94.92617836184263 -30.53150996041652 23.669026355548123"/>
<polyline points="-30.53150996041652 23.669026355548123 -53.20978942965917 94.92617836184267"/>
<polyline points="-75.88806889890178 166.18333036813718 19.495091477473057 168.65023757632628"/>
<polyline points="19.495091477473057 168.65023757632628 114.87825185384789 171.11714478451532"/>
<polyline points="114.87825185384789 171.11714478451532 92.19997238460529 242.37429679080986"/>
<polyline points="114.87825185384789 171.11714478451532 92.19997238460526 242.37429679080986"/>
<polyline points="114.87825185384789 171.11714478451532 137.55653132309055 99.85999277822073"/>
<polyline points="137.55653132309055 99.85999277822073 160.23481079233323 28.602840771926235"/>
<polyline points="160.23481079233323 28.602840771926235 179.92613773923236 98.7194055535669"/>
<polyline points="179.92613773923236 98.7194055535669 199.61746468613157 168.83597033520763"/>
<polyline points="199.61746468613157 168.83597033520763 179.92613773923244 98.7194055535669"/>
<polyline points="160.23481079233323 28.602840771926235 140.54348384543403 -41.5137240097144"/>
<polyline points="140.54348384543403 -41.5137240097144 120.85215689853484 -111.63028879135508"/>
<polyline points="120.85215689853484 -111.63028879135508 98.17387742929213 -40.37313678506057"/>
<polyline points="120.85215689853484 -111.63028879135508 98.17387742929213 -40.3731367850606"/>
<polyline points="120.85215689853484 -111.63028879135508 143.5304363677776 -182.88744079764956"/>
<polyline points="143.5304363677776 -182.88744079764956 166.20871583702032 -254.1445928039441"/>
<polyline points="166.20871583702032 -254.1445928039441 185.9000427839196 -184.02802802230343"/>
<polyline points="185.9000427839196 -184.02802802230343 205.59136973081885 -113.91146324066273"/>
<polyline points="205.59136973081885 -113.91146324066273 185.9000427839196 -184.02802802230343"/>
<polyline points="166.20871583702032 -254.1445928039441 70.82555546064556 -256.6115000121332"/>
<polyline points="70.82555546064556 -256.6115000121332 -24.557604915729257 -259.0784072203222"/>
<polyline points="-24.557604915729257 -259.0784072203222 70.82555546064552 -256.6115000121333"/>
<polyline points="-24.557604915729257 -259.0784072203222 -44.24893186262856 -329.1949720019628"/>
<polyline points="-44.24893186262856 -329.1949720019628 -63.94025880952785 -399.31153678360363"/>
<polyline points="-63.94025880952785 -399.31153678360363 -159.32341918590262 -401.7784439917925"/>
<polyline points="-63.94025880952785 -399.31153678360363 -159.32341918590262 -401.7784439917925"/>
<polyline points="-63.94025880952785 -399.31153678360363 31.44290156684691 -396.84462957541473"/>
<polyline points="31.44290156684691 -396.84462957541473 126.82606194322166 -394.37772236722554"/>
<polyline points="126.82606194322166 -394.37772236722554 146.51738889012108 -324.26115758558484"/>
<polyline points="146.51738889012108 -324.26115758558484 166.20871583702046 -254.1445928039442"/>
<polyline points="166.20871583702046 -254.1445928039442 143.5304363677776 -182.8874407976497"/>
<polyline points="166.20871583702046 -254.1445928039442 143.53043636777764 -182.8874407976497"/>
<polyline points="166.20871583702046 -254.1445928039442 188.88699530626326 -325.40174481023865"/>
<polyline points="188.88699530626326 -325.40174481023865 211.56527477550608 -396.6588968165332"/>
<polyline points="211.56527477550608 -396.6588968165332 191.87394782860656 -466.77546159817376"/>
<polyline points="191.87394782860656 -466.77546159817376 172.18262088170712 -536.8920263798144"/>
<polyline points="172.18262088170712 -536.8920263798144 191.87394782860656 -466.77546159817376"/>
<polyline points="211.56527477550608 -396.6588968165332 306.9484351518808 -394.19198960834416"/>
<polyline points="306.9484351518808 -394.19198960834416 402.33159552825555 -391.7250824001554"/>
<polyline points="402.33159552825555 -391.7250824001554 306.94843515188074 -394.19198960834416"/>
<polyline points="402.33159552825555 -391.7250824001554 422.022922475155 -321.60851761851467"/>
<polyline points="422.022922475155 -321.60851761851467 441.71424942205437 -251.4919528368739"/>
<polyline points="441.71424942205437 -251.4919528368739 537.0974097984291 -249.02504562868512"/>
<polyline points="441.71424942205437 -251.4919528368739 537.0974097984291 -249.02504562868512"/>
<polyline points="441.71424942205437 -251.4919528368739 346.3310890456798 -253.95886004506286"/>
<polyline points="346.3310890456798 -253.95886004506286 250.94792866930499 -256.4257672532518"/>
<polyline points="250.94792866930499 -256.4257672532518 155.56476829293018 -258.8926744614405"/>
<polyline points="155.56476829293018 -258.8926744614405 60.18160791655543 -261.3595816696294"/>
<polyline points="60.18160791655543 -261.3595816696294 82.85988738579813 -332.61673367592385"/>
<polyline points="60.18160791655543 -261.3595816696294 82.85988738579807 -332.6167336759239"/>
<polyline points="60.18160791655543 -261.3595816696294 37.503328447312796 -190.10242966333487"/>
<polyline points="37.503328447312796 -190.10242966333487 14.825048978070122 -118.8452776570404"/>
<polyline points="14.825048978070122 -118.8452776570404 34.516375924969644 -48.72871287539977"/>
<polyline points="34.516375924969644 -48.72871287539977 54.20770287186914 21.387851906240915"/>
<polyline points="54.20770287186914 21.387851906240915 34.516375924969566 -48.7287128753998"/>
<polyline points="14.825048978070122 -118.8452776570404 34.516375924969594 -48.72871287539977"/>
<polyline points="34.516375924969594 -48.72871287539977 54.20770287186906 21.3878519062409"/>
<polyline points="54.20770287186906 21.3878519062409 149.59086324824383 23.85475911442975"/>
<polyline points="54.20770287186906 21.3878519062409 149.59086324824383 23.854759114429765"/>
<polyline points="54.20770287186906 21.3878519062409 -41.17545750450571 18.920944698052033"/>
<polyline points="-41.17545750450571 18.920944698052033 -136.5586178808805 16.45403748986318"/>
<polyline points="-136.5586178808805 16.45403748986318 -156.24994482778004 -53.66252729177736"/>
<polyline points="-156.24994482778004 -53.66252729177736 -175.94127177467948 -123.77909207341796"/>
<polyline points="-175.94127177467948 -123.77909207341796 -156.24994482778004 -53.662527291777394"/>
<polyline points="-136.5586178808805 16.45403748986318 -113.8803384116379 -54.803114516431435"/>
<polyline points="-113.8803384116379 -54.803114516431435 -91.20205894239534 -126.06026652272597"/>
<polyline points="-91.20205894239534 -126.06026652272597 -113.88033841163796 -54.803114516431364"/>
<polyline points="-91.20205894239534 -126.06026652272597 -71.51073199549583 -55.94370174108533"/>
<polyline points="-71.51073199549583 -55.94370174108533 -51.81940504859641 14.172863040555324"/>
<polyline points="-51.81940504859641 14.172863040555324 -29.141125579353748 -57.08428896573928"/>
<polyline points="-51.81940504859641 14.172863040555324 -29.1411255793538 -57.08428896573928"/>
<polyline points="-51.81940504859641 14.172863040555324 -74.49768451783896 85.43001504684993"/>
<polyline points="-74.49768451783896 85.43001504684993 -97.17596398708153 156.6871670531445"/>
<polyline points="-97.17596398708153 156.6871670531445 -119.85424345632406 227.94431905943907"/>
<polyline points="-119.85424345632406 227.94431905943907 -142.53252292556652 299.20147106573376"/>
<polyline points="-142.53252292556652 299.20147106573376 -237.91568330194133 296.7345638575449"/>
<polyline points="-142.53252292556652 299.20147106573376 -237.91568330194133 296.7345638575449"/>
<polyline points="-142.53252292556652 299.20147106573376 -47.149362549191785 301.66837827392254"/>
<polyline points="-47.149362549191785 301.66837827392254 48.233797827183 304.1352854821114"/>
<polyline points="48.233797827183 304.1352854821114 67.92512477408242 374.251850263752"/>
<polyline points="67.92512477408242 374.251850263752 87.6164517209818 444.36841504539257"/>
<polyline points="87.6164517209818 444.36841504539257 67.92512477408242 374.251850263752"/>
<polyline points="48.233797827183 304.1352854821114 28.542470880283624 234.0187207004707"/>
<polyline points="28.542470880283624 234.0187207004707 8.851143933384227 163.90215591883015"/>
<polyline points="8.851143933384227 163.90215591883015 31.52942340262684 92.64500391253559"/>
<polyline points="8.851143933384227 163.90215591883015 31.529423402626865 92.64500391253559"/>
<polyline points="8.851143933384227 163.90215591883015 -13.827135535858382 235.15930792512472"/>
<polyline points="-13.827135535858382 235.15930792512472 -36.50541500510101 306.41645993141924"/>
<polyline points="-36.50541500510101 306.41645993141924 -16.814088058201705 376.53302471306"/>
<polyline points="-16.814088058201705 376.53302471306 2.8772388886975535 446.6495894947005"/>
<polyline points="2.8772388886975535 446.6495894947005 -16.814088058201747 376.53302471306006"/>
<polyline points="-36.50541500510101 306.41645993141924 58.87774537127379 308.8833671396083"/>
<polyline points="58.87774537127379 308.8833671396083 154.26090574764862 311.3502743477974"/>
<polyline points="154.26090574764862 311.3502743477974 58.877745371273775 308.8833671396083"/>
<polyline points="154.26090574764862 311.3502743477974 134.56957880074927 241.23370956615676"/>
<polyline points="134.56957880074927 241.23370956615676 114.87825185384999 171.11714478451614"/>
<polyline points="114.87825185384999 171.11714478451614 210.26141223022478 173.58405199270513"/>
<polyline points="114.87825185384999 171.11714478451614 210.26141223022475 173.58405199270518"/>
<polyline points="114.87825185384999 171.11714478451614 19.4950914774752 168.6502375763271"/>
<polyline points="19.4950914774752 168.6502375763271 -75.88806889889959 166.1833303681381"/>
<polyline points="-75.88806889889959 166.1833303681381 -56.19674195200029 236.2998951497786"/>
<polyline points="-56.19674195200029 236.2998951497786 -36.505415005101014 306.4164599314191"/>
<polyline points="-36.505415005101014 306.4164599314191 58.87774537127373 308.8833671396083"/>
<polyline points="-36.505415005101014 306.4164599314191 58.87774537127376 308.88336713960825"/>
<polyline points="-36.505415005101014 306.4164599314191 -131.8885753814758 303.94955272323006"/>
<polyline points="-131.8885753814758 303.94955272323006 -227.2717357578506 301.482645515041"/>
<polyline points="-227.2717357578506 301.482645515041 -249.95001522709333 372.73979752133573"/>
<polyline points="-249.95001522709333 372.73979752133573 -272.628294696336 443.9969495276303"/>
<polyline points="-272.628294696336 443.9969495276303 -249.95001522709333 372.7397975213358"/>
<polyline points="-227.2717357578506 301.482645515041 -207.58040881095118 371.59921029668146"/>
<polyline points="-207.58040881095118 371.59921029668146 -187.8890818640518 441.71577507832205"/>
<polyline points="-187.8890818640518 441.71577507832205 -165.2108023948092 370.45862307202736"/>
<polyline points="-187.8890818640518 441.71577507832205 -165.21080239480915 370.45862307202736"/>
<polyline points="-187.8890818640518 441.71577507832205 -210.56736133329446 512.9729270846167"/>
<polyline points="-210.56736133329446 512.9729270846167 -233.2456408025371 584.2300790909114"/>
<polyline points="-233.2456408025371 584.2300790909114 -137.86248042616236 586.6969862991003"/>
<polyline points="-137.86248042616236 586.6969862991003 -42.47932004978754 589.1638935072895"/>
<polyline points="-42.47932004978754 589.1638935072895 -137.8624804261624 586.6969862991004"/>
<polyline points="-233.2456408025371 584.2300790909114 -328.6288011789119 581.7631718827224"/>
<polyline points="-328.6288011789119 581.7631718827224 -424.01196155528675 579.2962646745334"/>
<polyline points="-424.01196155528675 579.2962646745334 -401.33368208604423 508.03911266823883"/>
<polyline points="-424.01196155528675 579.2962646745334 -401.3336820860443 508.03911266823883"/>
<polyline points="-424.01196155528675 579.2962646745334 -446.69024102452937 650.5534166808281"/>
<polyline points="-446.69024102452937 650.5534166808281 -469.36852049377194 721.810568687123"/>
<polyline points="-469.36852049377194 721.810568687123 -373.98536011739725 724.2774758953119"/>
<polyline points="-373.98536011739725 724.2774758953119 -278.6021997410224 726.7443831035014"/>
<polyline points="-278.6021997410224 726.7443831035014 -373.98536011739725 724.2774758953119"/>
<polyline points="-469.36852049377194 721.810568687123 -489.0598474406713 651.6940039054825"/>
<polyline points="-489.0598474406713 651.6940039054825 -508.75117438757025 581.5774391238424"/>
<polyline points="-508.75117438757025 581.5774391238424 -489.0598474406713 651.6940039054825"/>
<polyline points="-508.75117438757025 581.5774391238424 -604.1343347639452 579.1105319156532"/>
<polyline points="-604.1343347639452 579.1105319156532 -699.5174951403201 576.6436247074641"/>
<polyline points="-699.5174951403201 576.6436247074641 -719.2088220872192 506.52705992582366"/>
<polyline points="-699.5174951403201 576.6436247074641 -719.2088220872193 506.52705992582366"/>
<polyline points="-699.5174951403201 576.6436247074641 -679.826168193421 646.7601894891044"/>
<polyline points="-679.826168193421 646.7601894891044 -660.1348412465217 716.8767542707446"/>
<polyline points="-660.1348412465217 716.8767542707446 -564.7516808701467 719.343661478934"/>
<polyline points="-564.7516808701467 719.343661478934 -469.36852049377194 721.810568687123"/>
<polyline points="-469.36852049377194 721.810568687123 -449.67719354687273 791.9271334687634"/>
<polyline points="-469.36852049377194 721.810568687123 -449.67719354687273 791.9271334687634"/>
<polyline points="-469.36852049377194 721.810568687123 -489.0598474406713 651.6940039054826"/>
<polyline points="-489.0598474406713 651.6940039054826 -508.75117438757025 581.5774391238425"/>
<polyline points="-508.75117438757025 581.5774391238425 -604.1343347639452 579.1105319156533"/>
<polyline points="-604.1343347639452 579.1105319156533 -699.5174951403201 576.6436247074641"/>
<polyline points="-699.5174951403201 576.6436247074641 -604.1343347639452 579.110531915653"/>
<polyline points="-508.75117438757025 581.5774391238425 -531.4294538568131 652.8345911301373"/>
<polyline points="-531.4294538568131 652.8345911301373 -554.1077333260561 724.091743136432"/>
<polyline points="-554.1077333260561 724.091743136432 -531.429453856813 652.8345911301371"/>
<polyline points="-554.1077333260561 724.091743136432 -458.72457294968086 726.5586503446211"/>
<polyline points="-458.72457294968086 726.5586503446211 -363.3414125733061 729.0255575528104"/>
<polyline points="-363.3414125733061 729.0255575528104 -386.0196920425488 800.2827095591052"/>
<polyline points="-363.3414125733061 729.0255575528104 -386.0196920425488 800.2827095591052"/>
<polyline points="-363.3414125733061 729.0255575528104 -340.6631331040633 657.7684055465155"/>
<polyline points="-340.6631331040633 657.7684055465155 -317.9848536348206 586.5112535402205"/>
<polyline points="-317.9848536348206 586.5112535402205 -413.36801401119544 584.0443463320315"/>
<polyline points="-413.36801401119544 584.0443463320315 -508.75117438757025 581.5774391238426"/>
<polyline points="-508.75117438757025 581.5774391238426 -531.429453856813 652.8345911301373"/>
<polyline points="-508.75117438757025 581.5774391238426 -531.429453856813 652.8345911301373"/>
<polyline points="-508.75117438757025 581.5774391238426 -486.0728949183276 510.32028711754754"/>
<polyline points="-486.0728949183276 510.32028711754754 -463.39461544908494 439.06313511125285"/>
<polyline points="-463.39461544908494 439.06313511125285 -483.0859423959843 368.94657032961237"/>
<polyline points="-483.0859423959843 368.94657032961237 -502.7772693428837 298.8300055479721"/>
<polyline points="-502.7772693428837 298.8300055479721 -483.0859423959843 368.94657032961237"/>
<polyline points="-463.39461544908494 439.06313511125285 -558.7777758254598 436.5962279030637"/>
<polyline points="-558.7777758254598 436.5962279030637 -654.1609362018347 434.12932069487465"/>
<polyline points="-654.1609362018347 434.12932069487465 -634.4696092549351 504.245885476515"/>
<polyline points="-654.1609362018347 434.12932069487465 -634.4696092549351 504.24588547651496"/>
<polyline points="-654.1609362018347 434.12932069487465 -673.8522631487341 364.0127559132343"/>
<polyline points="-673.8522631487341 364.0127559132343 -693.5435900956335 293.8961911315941"/>
<polyline points="-693.5435900956335 293.8961911315941 -716.2218695648762 365.153343137889"/>
<polyline points="-716.2218695648762 365.153343137889 -738.900149034119 436.41049514418387"/>
<polyline points="-738.900149034119 436.41049514418387 -716.2218695648763 365.153343137889"/>
<polyline points="-693.5435900956335 293.8961911315941 -670.8653106263909 222.6390391252992"/>
<polyline points="-670.8653106263909 222.6390391252992 -648.187031157148 151.38188711900426"/>
<polyline points="-648.187031157148 151.38188711900426 -628.4957042102484 221.49845190064454"/>
<polyline points="-648.187031157148 151.38188711900426 -628.4957042102484 221.49845190064454"/>
<polyline points="-648.187031157148 151.38188711900426 -667.8783581040474 81.26532233736397"/>
<polyline points="-667.8783581040474 81.26532233736397 -687.5696850509468 11.148757555723689"/>
<polyline points="-687.5696850509468 11.148757555723689 -710.24796452019 82.40590956201855"/>
<polyline points="-710.24796452019 82.40590956201855 -732.9262439894327 153.66306156831337"/>
<polyline points="-732.9262439894327 153.66306156831337 -710.24796452019 82.40590956201852"/>
<polyline points="-687.5696850509468 11.148757555723689 -592.1865246745721 13.615664763912749"/>
<polyline points="-592.1865246745721 13.615664763912749 -496.80336429819755 16.08257197210179"/>
<polyline points="-496.80336429819755 16.08257197210179 -592.1865246745721 13.615664763912749"/>
<polyline points="-496.80336429819755 16.08257197210179 -474.12508482895464 -55.174580034193056"/>
<polyline points="-474.12508482895464 -55.174580034193056 -451.44680535971185 -126.43173204048796"/>
<polyline points="-451.44680535971185 -126.43173204048796 -356.0636449833371 -123.96482483229892"/>
<polyline points="-451.44680535971185 -126.43173204048796 -356.0636449833371 -123.96482483229892"/>
<polyline points="-451.44680535971185 -126.43173204048796 -546.8299657360866 -128.89863924867697"/>
<polyline points="-546.8299657360866 -128.89863924867697 -642.2131261124613 -131.36554645686604"/>
<polyline points="-642.2131261124613 -131.36554645686604 -661.9044530593609 -201.48211123850638"/>
<polyline points="-661.9044530593609 -201.48211123850638 -681.5957800062605 -271.5986760201466"/>
<polyline points="-681.5957800062605 -271.5986760201466 -586.2126196298858 -269.13176881195756"/>
<polyline points="-681.5957800062605 -271.5986760201466 -586.2126196298858 -269.13176881195756"/>
<polyline points="-681.5957800062605 -271.5986760201466 -776.9789403826352 -274.06558322833564"/>
<polyline points="-776.9789403826352 -274.06558322833564 -872.3621007590098 -276.53249043652465"/>
<polyline points="-872.3621007590098 -276.53249043652465 -852.6707738121103 -206.41592565488443"/>
<polyline points="-852.6707738121103 -206.41592565488443 -832.9794468652105 -136.2993608732442"/>
<polyline points="-832.9794468652105 -136.2993608732442 -852.6707738121103 -206.41592565488443"/>
<polyline points="-872.3621007590098 -276.53249043652465 -895.0403802282527 -205.2753384302297"/>
<polyline points="-895.0403802282527 -205.2753384302297 -917.7186596974959 -134.0181864239348"/>
<polyline points="-917.7186596974959 -134.0181864239348 -895.0403802282527 -205.2753384302297"/>
<polyline points="-917.7186596974959 -134.0181864239348 -937.4099866443955 -204.134751205575"/>
<polyline points="-937.4099866443955 -204.134751205575 -957.1013135912953 -274.2513159872152"/>
<polyline points="-957.1013135912953 -274.2513159872152 -979.7795930605382 -202.99416398092023"/>
<polyline points="-957.1013135912953 -274.2513159872152 -979.7795930605382 -202.99416398092023"/>
<polyline points="-957.1013135912953 -274.2513159872152 -934.4230341220522 -345.50846799351007"/>
<polyline points="-934.4230341220522 -345.50846799351007 -911.7447546528093 -416.7656199998051"/>
<polyline points="-911.7447546528093 -416.7656199998051 -889.0664751835664 -488.02277200610007"/>
<polyline points="-889.0664751835664 -488.02277200610007 -866.3881957143233 -559.2799240123951"/>
<polyline points="-866.3881957143233 -559.2799240123951 -961.771356090698 -561.746831220584"/>
<polyline points="-866.3881957143233 -559.2799240123951 -961.771356090698 -561.746831220584"/>
<polyline points="-866.3881957143233 -559.2799240123951 -771.0050353379485 -556.813016804206"/>
<polyline points="-771.0050353379485 -556.813016804206 -675.621874961574 -554.3461095960168"/>
<polyline points="-675.621874961574 -554.3461095960168 -695.3132019084736 -624.4626743776571"/>
<polyline points="-695.3132019084736 -624.4626743776571 -715.0045288553736 -694.5792391592975"/>
<polyline points="-715.0045288553736 -694.5792391592975 -695.3132019084736 -624.4626743776571"/>
<polyline points="-866.3881957143233 -559.2799240123951 -889.0664751835664 -488.02277200610007"/>
<polyline points="-889.0664751835664 -488.02277200610007 -911.7447546528093 -416.7656199998051"/>
<polyline points="-911.7447546528093 -416.7656199998051 -1007.1279150291839 -419.23252720799434"/>
<polyline points="-911.7447546528093 -416.7656199998051 -1007.1279150291839 -419.23252720799434"/>
<polyline points="-911.7447546528093 -416.7656199998051 -816.3615942764349 -414.298712791616"/>
<polyline points="-816.3615942764349 -414.298712791616 -720.97843390006 -411.8318055834269"/>
<polyline points="-720.97843390006 -411.8318055834269 -698.3001544308169 -483.0889575897219"/>
<polyline points="-698.3001544308169 -483.0889575897219 -675.6218749615739 -554.3461095960167"/>
<polyline points="-675.6218749615739 -554.3461095960167 -698.3001544308169 -483.0889575897219"/>
<polyline points="-720.97843390006 -411.8318055834269 -740.6697608469597 -481.94837036506726"/>
<polyline points="-740.6697608469597 -481.94837036506726 -760.3610877938593 -552.0649351467075"/>
<polyline points="-760.3610877938593 -552.0649351467075 -740.6697608469597 -481.94837036506726"/>
<polyline points="-760.3610877938593 -552.0649351467075 -783.0393672631026 -480.8077831404127"/>
<polyline points="-783.0393672631026 -480.8077831404127 -805.7176467323458 -409.55063113411774"/>
<polyline points="-805.7176467323458 -409.55063113411774 -825.4089736792453 -479.6671959157581"/>
<polyline points="-805.7176467323458 -409.55063113411774 -825.4089736792453 -479.6671959157581"/>
<polyline points="-805.7176467323458 -409.55063113411774 -786.0263197854459 -339.43406635247754"/>
<polyline points="-786.0263197854459 -339.43406635247754 -766.3349928385464 -269.3175015708372"/>
<polyline points="-766.3349928385464 -269.3175015708372 -743.6567133693034 -340.57465357713204"/>
<polyline points="-743.6567133693034 -340.57465357713204 -720.9784339000604 -411.8318055834267"/>
<polyline points="-720.9784339000604 -411.8318055834267 -740.6697608469598 -481.94837036506703"/>
<polyline points="-720.9784339000604 -411.8318055834267 -740.66976084696 -481.94837036506703"/>
<polyline points="-720.9784339000604 -411.8318055834267 -701.2871069531607 -341.71524080178654"/>
<polyline points="-701.2871069531607 -341.71524080178654 -681.595780006261 -271.5986760201461"/>
<polyline points="-681.595780006261 -271.5986760201461 -586.2126196298865 -269.1317688119571"/>
<polyline points="-586.2126196298865 -269.1317688119571 -490.8294592535118 -266.664861603768"/>
<polyline points="-490.8294592535118 -266.664861603768 -586.2126196298865 -269.131768811957"/>
<polyline points="-681.595780006261 -271.5986760201461 -658.917500537018 -342.85582802644103"/>
<polyline points="-658.917500537018 -342.85582802644103 -636.239221067775 -414.1129800327358"/>
<polyline points="-636.239221067775 -414.1129800327358 -731.6223814441497 -416.57988724092485"/>
<polyline points="-636.239221067775 -414.1129800327358 -731.6223814441497 -416.57988724092485"/>
<polyline points="-636.239221067775 -414.1129800327358 -540.8560606914004 -411.6460728245468"/>
<polyline points="-540.8560606914004 -411.6460728245468 -445.4729003150257 -409.1791656163577"/>
<polyline points="-445.4729003150257 -409.1791656163577 -465.1642272619254 -479.2957303979981"/>
<polyline points="-465.1642272619254 -479.2957303979981 -484.8555542088252 -549.4122951796386"/>
<polyline points="-484.8555542088252 -549.4122951796386 -465.1642272619254 -479.2957303979981"/>
<polyline points="-445.4729003150257 -409.1791656163577 -425.7815733681261 -339.0626008347173"/>
<polyline points="-425.7815733681261 -339.0626008347173 -406.0902464212263 -268.94603605307697"/>
<polyline points="-406.0902464212263 -268.94603605307697 -501.473406797601 -271.4129432612659"/>
<polyline points="-406.0902464212263 -268.94603605307697 -501.473406797601 -271.41294326126587"/>
<polyline points="-406.0902464212263 -268.94603605307697 -310.7070860448517 -266.47912884488807"/>
<polyline points="-310.7070860448517 -266.47912884488807 -215.32392566847696 -264.01222163669905"/>
<polyline points="-215.32392566847696 -264.01222163669905 -235.01525261537662 -334.12878641833953"/>
<polyline points="-235.01525261537662 -334.12878641833953 -254.70657956227623 -404.24535119998006"/>
<polyline points="-254.70657956227623 -404.24535119998006 -235.01525261537657 -334.1287864183395"/>
<polyline points="-215.32392566847696 -264.01222163669905 -238.00220513771973 -192.7550696304044"/>
<polyline points="-238.00220513771973 -192.7550696304044 -260.6804846069625 -121.49791762410966"/>
<polyline points="-260.6804846069625 -121.49791762410966 -238.0022051377197 -192.75506963040428"/>
<polyline points="-260.6804846069625 -121.49791762410966 -240.989157660063 -51.3813528424692"/>
<polyline points="-240.989157660063 -51.3813528424692 -221.2978307131634 18.73521193917128"/>
<polyline points="-221.2978307131634 18.73521193917128 -243.97611018240613 89.99236394546597"/>
<polyline points="-221.2978307131634 18.73521193917128 -243.97611018240613 89.99236394546597"/>
<polyline points="-221.2978307131634 18.73521193917128 -198.6195512439206 -52.52194006712341"/>
<polyline points="-198.6195512439206 -52.52194006712341 -175.9412717746778 -123.77909207341804"/>
<polyline points="-175.9412717746778 -123.77909207341804 -80.55811139830304 -121.3121848652293"/>
<polyline points="-80.55811139830304 -121.3121848652293 14.825048978071656 -118.84527765704044"/>
<polyline points="14.825048978071656 -118.84527765704044 -7.853230491171054 -47.588125650745745"/>
<polyline points="14.825048978071656 -118.84527765704044 -7.85323049117103 -47.58812565074575"/>
<polyline points="14.825048978071656 -118.84527765704044 37.503328447314374 -190.10242966333516"/>
<polyline points="37.503328447314374 -190.10242966333516 60.181607916557084 -261.35958166962985"/>
<polyline points="60.181607916557084 -261.35958166962985 -35.20155245981763 -263.82648887781863"/>
<polyline points="-35.20155245981763 -263.82648887781863 -130.58471283619235 -266.2933960860074"/>
<polyline points="-130.58471283619235 -266.2933960860074 -35.20155245981764 -263.8264888778187"/>
<polyline points="60.181607916557084 -261.35958166962985 40.49028096965736 -331.4761464512703"/>
<polyline points="40.49028096965736 -331.4761464512703 20.79895402275761 -401.5927112329109"/>
<polyline points="20.79895402275761 -401.5927112329109 40.49028096965736 -331.4761464512703"/>
<polyline points="20.79895402275761 -401.5927112329109 116.18211439913227 -399.12580402472224"/>
<polyline points="116.18211439913227 -399.12580402472224 211.565274775507 -396.6588968165334"/>
<polyline points="211.565274775507 -396.6588968165334 191.8739478286073 -466.775461598174"/>
<polyline points="211.565274775507 -396.6588968165334 191.87394782860727 -466.775461598174"/>
<polyline points="211.565274775507 -396.6588968165334 231.25660172240674 -326.5423320348928"/>
<polyline points="231.25660172240674 -326.5423320348928 250.94792866930646 -256.4257672532523"/>
<polyline points="250.94792866930646 -256.4257672532523 270.63925561620624 -186.30920247161183"/>
<polyline points="270.63925561620624 -186.30920247161183 290.33058256310585 -116.19263768997116"/>
<polyline points="290.33058256310585 -116.19263768997116 313.0088620323486 -187.44978969626575"/>
<polyline points="290.33058256310585 -116.19263768997116 313.0088620323486 -187.44978969626573"/>
<polyline points="290.33058256310585 -116.19263768997116 267.65230309386317 -44.93548568367656"/>
<polyline points="267.65230309386317 -44.93548568367656 244.97402362462046 26.32166632261804"/>
<polyline points="244.97402362462046 26.32166632261804 340.35718400099523 28.788573530806755"/>
<polyline points="340.35718400099523 28.788573530806755 435.74034437737 31.25548073899547"/>
<polyline points="435.74034437737 31.25548073899547 340.35718400099523 28.788573530806687"/>
<polyline points="244.97402362462046 26.32166632261804 225.28269667772088 -43.79489845902261"/>
<polyline points="225.28269667772088 -43.79489845902261 205.59136973082119 -113.91146324066312"/>
<polyline points="205.59136973082119 -113.91146324066312 110.20820935444648 -116.37837044885192"/>
<polyline points="205.59136973082119 -113.91146324066312 110.20820935444647 -116.37837044885195"/>
<polyline points="205.59136973082119 -113.91146324066312 300.97453010719596 -111.44455603247438"/>
<polyline points="300.97453010719596 -111.44455603247438 396.3576904835707 -108.97764882428555"/>
<polyline points="396.3576904835707 -108.97764882428555 416.04901743047037 -38.86108404264503"/>
<polyline points="416.04901743047037 -38.86108404264503 435.74034437737004 31.255480738995587"/>
<polyline points="435.74034437737004 31.255480738995587 416.0490174304704 -38.86108404264498"/>
<polyline points="396.3576904835707 -108.97764882428555 419.0359699528134 -180.23480083058013"/>
<polyline points="419.0359699528134 -180.23480083058013 441.7142494220562 -251.4919528368747"/>
<polyline points="441.7142494220562 -251.4919528368747 419.03596995281345 -180.23480083058007"/>
<polyline points="441.7142494220562 -251.4919528368747 422.0229224751566 -321.60851761851535"/>
<polyline points="422.0229224751566 -321.60851761851535 402.33159552825697 -391.72508240015594"/>
<polyline points="402.33159552825697 -391.72508240015594 425.00987499749976 -462.9822344064505"/>
<polyline points="402.33159552825697 -391.72508240015594 425.00987499749976 -462.9822344064505"/>
<polyline points="402.33159552825697 -391.72508240015594 379.6533160590141 -320.46793039386137"/>
<polyline points="379.6533160590141 -320.46793039386137 356.9750365897713 -249.21077838756676"/>
<polyline points="356.9750365897713 -249.21077838756676 376.6663635366709 -179.09421360592606"/>
<polyline points="376.6663635366709 -179.09421360592606 396.3576904835704 -108.97764882428544"/>
<polyline points="396.3576904835704 -108.97764882428544 419.03596995281333 -180.23480083057996"/>
<polyline points="396.3576904835704 -108.97764882428544 419.0359699528133 -180.23480083057996"/>
<polyline points="396.3576904835704 -108.97764882428544 373.6794110143277 -37.72049681799082"/>
<polyline points="373.6794110143277 -37.72049681799082 351.00113154508483 33.536655188303726"/>
<polyline points="351.00113154508483 33.536655188303726 446.3842919214596 36.00356239649264"/>
<polyline points="446.3842919214596 36.00356239649264 541.7674522978342 38.47046960468159"/>
<polyline points="541.7674522978342 38.47046960468159 446.3842919214596 36.003562396492654"/>
<polyline points="351.00113154508483 33.536655188303726 370.6924584919843 103.65321996994429"/>
<polyline points="370.6924584919843 103.65321996994429 390.383785438884 173.76978475158492"/>
<polyline points="390.383785438884 173.76978475158492 295.0006250625093 171.30287754339602"/>
<polyline points="390.383785438884 173.76978475158492 295.0006250625093 171.30287754339608"/>
<polyline points="390.383785438884 173.76978475158492 485.76694581525874 176.2366919597738"/>
<polyline points="485.76694581525874 176.2366919597738 581.1501061916335 178.70359916796272"/>
<polyline points="581.1501061916335 178.70359916796272 603.8283856608762 107.44644716166812"/>
<polyline points="603.8283856608762 107.44644716166812 626.506665130119 36.189295155373486"/>
<polyline points="626.506665130119 36.189295155373486 603.8283856608762 107.44644716166816"/>
<polyline points="581.1501061916335 178.70359916796272 558.4718267223907 249.96075117425727"/>
<polyline points="558.4718267223907 249.96075117425727 535.793547253148 321.21790318055184"/>
<polyline points="535.793547253148 321.21790318055184 440.41038687677315 318.75099597236294"/>
<polyline points="535.793547253148 321.21790318055184 440.41038687677315 318.7509959723629"/>
<polyline points="535.793547253148 321.21790318055184 631.1767076295226 323.6848103887407"/>
<polyline points="631.1767076295226 323.6848103887407 726.5598680058973 326.15171759692964"/>
<polyline points="726.5598680058973 326.15171759692964 749.2381474751402 254.8945655906351"/>
<polyline points="749.2381474751402 254.8945655906351 771.9164269443829 183.63741358434066"/>
<polyline points="771.9164269443829 183.63741358434066 749.2381474751403 254.8945655906351"/>
<polyline points="726.5598680058973 326.15171759692964 706.8685410589977 256.03515281528894"/>
<polyline points="706.8685410589977 256.03515281528894 687.1772141120983 185.9185880336483"/>
<polyline points="687.1772141120983 185.9185880336483 706.8685410589978 256.03515281528894"/>
<polyline points="687.1772141120983 185.9185880336483 664.4989346428557 257.1757400399427"/>
<polyline points="664.4989346428557 257.1757400399427 641.8206551736127 328.43289204623716"/>
<polyline points="641.8206551736127 328.43289204623716 622.1293282267135 258.3163272645965"/>
<polyline points="641.8206551736127 328.43289204623716 622.1293282267135 258.31632726459645"/>
<polyline points="641.8206551736127 328.43289204623716 661.5119821205125 398.5494568278779"/>
<polyline points="661.5119821205125 398.5494568278779 681.2033090674119 468.66602160951857"/>
<polyline points="681.2033090674119 468.66602160951857 703.8815885366547 397.4088696032241"/>
<polyline points="703.8815885366547 397.4088696032241 726.5598680058973 326.15171759692976"/>
<polyline points="726.5598680058973 326.15171759692976 631.1767076295226 323.68481038874074"/>
<polyline points="726.5598680058973 326.15171759692976 631.1767076295226 323.68481038874074"/>
<polyline points="726.5598680058973 326.15171759692976 821.9430283822721 328.61862480511866"/>
<polyline points="821.9430283822721 328.61862480511866 917.3261887586468 331.0855320133076"/>
<polyline points="917.3261887586468 331.0855320133076 894.6479092894042 402.342684019602"/>
<polyline points="894.6479092894042 402.342684019602 871.9696298201613 473.5998360258965"/>
<polyline points="871.9696298201613 473.5998360258965 894.6479092894042 402.3426840196019"/>
<polyline points="917.3261887586468 331.0855320133076 937.0175157055463 401.20209679494843"/>
<polyline points="937.0175157055463 401.20209679494843 956.7088426524459 471.3186615765892"/>
<polyline points="956.7088426524459 471.3186615765892 937.0175157055464 401.20209679494843"/>
<polyline points="956.7088426524459 471.3186615765892 979.3871221216887 400.0615095702948"/>
<polyline points="979.3871221216887 400.0615095702948 1002.0654015909315 328.8043575640005"/>
<polyline points="1002.0654015909315 328.8043575640005 1021.7567285378309 398.9209223456413"/>
<polyline points="1002.0654015909315 328.8043575640005 1021.7567285378309 398.9209223456412"/>
<polyline points="1002.0654015909315 328.8043575640005 982.3740746440318 258.6877927823597"/>
<polyline points="982.3740746440318 258.6877927823597 962.6827476971324 188.57122800071883"/>
<polyline points="962.6827476971324 188.57122800071883 942.991420750233 118.45466321907806"/>
<polyline points="942.991420750233 118.45466321907806 923.3000938033335 48.33809843743724"/>
<polyline points="923.3000938033335 48.33809843743724 1018.6832541797083 50.80500564562613"/>
<polyline points="923.3000938033335 48.33809843743724 1018.6832541797083 50.80500564562612"/>
<polyline points="923.3000938033335 48.33809843743724 827.9169334269587 45.871191229248346"/>
<polyline points="827.9169334269587 45.871191229248346 732.533773050584 43.40428402105944"/>
<polyline points="732.533773050584 43.40428402105944 755.212052519827 -27.852867985234965"/>
<polyline points="755.212052519827 -27.852867985234965 777.8903319890699 -99.11001999152927"/>
<polyline points="777.8903319890699 -99.11001999152927 755.212052519827 -27.852867985234965"/>
<polyline points="732.533773050584 43.40428402105944 755.2120525198269 -27.852867985234965"/>
<polyline points="755.2120525198269 -27.852867985234965 777.8903319890699 -99.1100199915294"/>
<polyline points="777.8903319890699 -99.1100199915294 797.5816589359691 -28.993455209888666"/>
<polyline points="777.8903319890699 -99.1100199915294 797.5816589359691 -28.993455209888666"/>
<polyline points="777.8903319890699 -99.1100199915294 758.1990050421704 -169.22658477317026"/>
<polyline points="758.1990050421704 -169.22658477317026 738.5076780952709 -239.3431495548109"/>
<polyline points="738.5076780952709 -239.3431495548109 715.8293986260279 -168.08599754851647"/>
<polyline points="715.8293986260279 -168.08599754851647 693.1511191567851 -96.82884554222197"/>
<polyline points="693.1511191567851 -96.82884554222197 715.8293986260279 -168.08599754851647"/>
<polyline points="738.5076780952709 -239.3431495548109 833.8908384716455 -236.87624234662192"/>
<polyline points="833.8908384716455 -236.87624234662192 929.27399884802 -234.40933513843285"/>
<polyline points="929.27399884802 -234.40933513843285 833.8908384716455 -236.87624234662192"/>
<polyline points="929.27399884802 -234.40933513843285 951.9522783172631 -305.66648714472734"/>
<polyline points="951.9522783172631 -305.66648714472734 974.6305577865062 -376.9236391510218"/>
<polyline points="974.6305577865062 -376.9236391510218 1070.0137181628809 -374.45673194283285"/>
<polyline points="974.6305577865062 -376.9236391510218 1070.0137181628809 -374.45673194283285"/>
<polyline points="974.6305577865062 -376.9236391510218 879.2473974101314 -379.3905463592108"/>
<polyline points="879.2473974101314 -379.3905463592108 783.8642370337568 -381.85745356739983"/>
<polyline points="783.8642370337568 -381.85745356739983 688.4810766573821 -384.3243607755888"/>
<polyline points="688.4810766573821 -384.3243607755888 593.0979162810074 -386.79126798377774"/>
<polyline points="593.0979162810074 -386.79126798377774 573.4065893341078 -456.90783276541845"/>
<polyline points="593.0979162810074 -386.79126798377774 573.4065893341077 -456.90783276541833"/>
<polyline points="593.0979162810074 -386.79126798377774 612.7892432279067 -316.674703202137"/>
<polyline points="612.7892432279067 -316.674703202137 632.4805701748066 -246.55813842049636"/>
<polyline points="632.4805701748066 -246.55813842049636 655.1588496440494 -317.81529042679085"/>
<polyline points="655.1588496440494 -317.81529042679085 677.8371291132923 -389.0724424330854"/>
<polyline points="677.8371291132923 -389.0724424330854 655.1588496440494 -317.81529042679085"/>
<polyline points="632.4805701748066 -246.55813842049636 609.8022907055637 -175.30098641420184"/>
<polyline points="609.8022907055637 -175.30098641420184 587.124011236321 -104.04383440790727"/>
<polyline points="587.124011236321 -104.04383440790727 682.5071716126957 -101.57692719971841"/>
<polyline points="587.124011236321 -104.04383440790727 682.5071716126957 -101.57692719971837"/>
<polyline points="587.124011236321 -104.04383440790727 491.7408508599463 -106.51074161609623"/>
<polyline points="491.7408508599463 -106.51074161609623 396.35769048357145 -108.9776488242852"/>
<polyline points="396.35769048357145 -108.9776488242852 419.0359699528143 -180.23480083057981"/>
<polyline points="419.0359699528143 -180.23480083057981 441.7142494220571 -251.49195283687436"/>
<polyline points="441.7142494220571 -251.49195283687436 419.03596995281424 -180.23480083057981"/>
<polyline points="396.35769048357145 -108.9776488242852 416.04901743047094 -38.861084042644634"/>
<polyline points="416.04901743047094 -38.861084042644634 435.7403443773706 31.255480738995892"/>
<polyline points="435.7403443773706 31.255480738995892 416.0490174304709 -38.86108404264464"/>
<polyline points="435.7403443773706 31.255480738995892 413.0620649081277 102.51263274529052"/>
<polyline points="413.0620649081277 102.51263274529052 390.38378543888496 173.76978475158512"/>
<polyline points="390.38378543888496 173.76978475158512 410.0751123857844 243.88634953322563"/>
<polyline points="390.38378543888496 173.76978475158512 410.0751123857844 243.88634953322568"/>
<polyline points="390.38378543888496 173.76978475158512 370.69245849198546 103.65321996994456"/>
<polyline points="370.69245849198546 103.65321996994456 351.0011315450859 33.53665518830405"/>
<polyline points="351.0011315450859 33.53665518830405 373.6794110143288 -37.7204968179906"/>
<polyline points="373.6794110143288 -37.7204968179906 396.3576904835717 -108.9776488242852"/>
<polyline points="396.3576904835717 -108.9776488242852 416.0490174304711 -38.86108404264468"/>
<polyline points="396.3576904835717 -108.9776488242852 416.0490174304712 -38.861084042644755"/>
<polyline points="396.3576904835717 -108.9776488242852 376.6663635366723 -179.09421360592583"/>
<polyline points="376.6663635366723 -179.09421360592583 356.97503658977286 -249.2107783875664"/>
<polyline points="356.97503658977286 -249.2107783875664 261.5918762133982 -251.67768559575546"/>
<polyline points="261.5918762133982 -251.67768559575546 166.20871583702342 -254.14459280394445"/>
<polyline points="166.20871583702342 -254.14459280394445 261.5918762133982 -251.6776855957554"/>
<polyline points="356.97503658977286 -249.2107783875664 379.6533160590159 -320.467930393861"/>
<polyline points="379.6533160590159 -320.467930393861 402.33159552825873 -391.7250824001557"/>
<polyline points="402.33159552825873 -391.7250824001557 497.71475590463365 -389.2581751919666"/>
<polyline points="402.33159552825873 -391.7250824001557 497.71475590463365 -389.25817519196664"/>
<polyline points="402.33159552825873 -391.7250824001557 306.94843515188404 -394.1919896083445"/>
<polyline points="306.94843515188404 -394.1919896083445 211.56527477550935 -396.65889681653357"/>
<polyline points="211.56527477550935 -396.65889681653357 231.25660172240893 -326.54233203489304"/>
<polyline points="231.25660172240893 -326.54233203489304 250.9479286693086 -256.4257672532525"/>
<polyline points="250.9479286693086 -256.4257672532525 231.2566017224089 -326.5423320348931"/>
<polyline points="211.56527477550935 -396.65889681653357 191.8739478286097 -466.77546159817416"/>
<polyline points="191.8739478286097 -466.77546159817416 172.18262088171008 -536.8920263798145"/>
<polyline points="172.18262088171008 -536.8920263798145 267.56578125808477 -534.4251191716257"/>
<polyline points="172.18262088171008 -536.8920263798145 267.56578125808477 -534.4251191716257"/>
<polyline points="172.18262088171008 -536.8920263798145 76.7994605053354 -539.3589335880037"/>
<polyline points="76.7994605053354 -539.3589335880037 -18.58369987103924 -541.8258407961926"/>
<polyline points="-18.58369987103924 -541.8258407961926 1.1076270758604356 -471.7092760145522"/>
<polyline points="1.1076270758604356 -471.7092760145522 20.798954022760146 -401.5927112329116"/>
<polyline points="20.798954022760146 -401.5927112329116 1.1076270758604083 -471.7092760145522"/>
<polyline points="-18.58369987103924 -541.8258407961926 -41.261979340282224 -470.5686887898979"/>
<polyline points="-41.261979340282224 -470.5686887898979 -63.94025880952525 -399.3115367836034"/>
<polyline points="-63.94025880952525 -399.3115367836034 -41.26197934028234 -470.5686887898981"/>
<polyline points="-63.94025880952525 -399.3115367836034 -83.63158575642494 -469.4281015652438"/>
<polyline points="-83.63158575642494 -469.4281015652438 -103.32291270332462 -539.5446663468845"/>
<polyline points="-103.32291270332462 -539.5446663468845 -126.00119217256758 -468.2875143405897"/>
<polyline points="-103.32291270332462 -539.5446663468845 -126.00119217256761 -468.2875143405897"/>
<polyline points="-103.32291270332462 -539.5446663468845 -80.64463323408154 -610.8018183531789"/>
<polyline points="-80.64463323408154 -610.8018183531789 -57.96635376483851 -682.0589703594736"/>
</svg>