<svg transform="scale(1,-1)" viewBox="-263.7182250387426 -162.80532740869776 534.1976194793342 418.8139575612968" xmlns="http://www.w3.org/2000/svg">
<style>
svg { stroke:black; stroke-width:2; fill:none;}
</style>
<polyline points="114.13404585989336 34.16605240052459 117.17593462008358 37.00205245679622"/>
<polyline points="120.21782338027363 39.838052513067666 123.25971214046375 42.674052569339"/>
<polyline points="119.35405553780356 52.702065125891004 112.40651017495327 59.894077626171644"/>
<polyline points="112.40651017495327 59.894077626171644 92.85384447904615 40.8654534276195 105.88895494298426 53.55120289332092"/>
<polyline points="119.78404566868477 39.167177892759646 126.731591031535 31.97516539247902"/>
<polyline points="126.731591031535 31.97516539247902 133.67913639438524 24.78315289219838"/>
<polyline points="99.80138984189641 33.67344092733887 93.28383460992735 27.330566194488167"/>
<polyline points="93.28383460992735 27.330566194488167 86.76627937795831 20.987691461637457"/>
<polyline points="99.80138984189641 33.67344092733887 93.28383460992735 27.330566194488167"/>
<polyline points="93.71382474080855 13.795678961356822 100.6613701036588 6.603666461076183"/>
<polyline points="100.6613701036588 6.603666461076183 93.71382474080855 13.795678961356822"/>
<polyline points="112.83650030583452 46.35919039304027 119.35405553780357 52.70206512589099"/>
<polyline points="112.83650030583452 46.35919039304027 119.35405553780357 52.70206512589099"/>
<polyline points="112.83650030583452 46.35919039304027 119.78404566868477 39.167177892759646"/>
<polyline points="133.24914626350406 38.31804012532973 139.76670149547314 44.66091485818043"/>
<polyline points="146.28425672744214 51.00378959103114 139.76670149547314 44.66091485818043"/>
<polyline points="146.28425672744214 51.00378959103114 152.8018119594112 57.346664323881846"/>
<polyline points="162.36125595157034 66.52553911300392 165.40314471176038 69.36153916927528"/>
<polyline points="168.44503347195052 72.1975392255466 171.48692223214056 75.03353928181805"/>
<polyline points="168.44503347195052 72.1975392255466 171.48692223214056 75.03353928181805"/>
<polyline points="181.47635635518085 70.67752683780874 188.42390171803115 63.48551433752812"/>
<polyline points="195.37144708088144 56.29350183724746 186.24578080031117 47.78550166843337 192.32955832069132 53.45750178097611"/>
<polyline points="205.36466878462946 66.14325124667751 211.8822240165984 72.48612597952824"/>
<polyline points="211.8822240165984 72.48612597952824 218.39977924856746 78.82900071237896"/>
<polyline points="192.7633360322801 54.1283764012841 189.72144727209005 51.29237634501265"/>
<polyline points="189.72144727209005 51.29237634501265 186.67955851189998 48.456376288741275"/>
<polyline points="192.7633360322801 54.1283764012841 189.72144727209005 51.29237634501265"/>
<polyline points="193.19711374386904 54.79925102159201 199.71466897583807 61.14212575444272"/>
<polyline points="199.71466897583807 61.14212575444272 193.19711374386904 54.79925102159201"/>
<polyline points="199.71466897583807 61.14212575444272 206.23222420780706 67.48500048729345"/>
<polyline points="198.8471135526604 59.8003765138268 201.88900231285047 62.63637657009815"/>
<polyline points="195.80522479247026 56.964376457555474 192.7633360322801 54.1283764012841"/>
<polyline points="196.2390025040591 57.63525107786341 202.75655773602816 63.9781258107141"/>
<polyline points="209.27411296799718 70.32100054356482 202.75655773602816 63.9781258107141"/>
<polyline points="209.27411296799718 70.32100054356482 215.79166819996624 76.6638752764155"/>
<polyline points="229.25676879478556 75.81473750898557 236.20431415763576 68.62272500870499"/>
<polyline points="243.15185952048603 61.4307125084243 250.0994048833363 54.238700008143674"/>
<polyline points="243.15185952048603 61.4307125084243 250.0994048833363 54.238700008143674"/>
<polyline points="254.00506148599646 44.21068745159166 250.96317272580634 41.374687395320265"/>
<polyline points="192.32955832069132 53.45750178097611 189.2876695605012 50.62150172470473"/>
<polyline points="189.2876695605012 50.62150172470473 186.24578080031114 47.78550166843337"/>
<polyline points="189.72144727209005 51.29237634501265 196.2390025040591 57.63525107786341"/>
<polyline points="196.2390025040591 57.63525107786341 189.72144727209005 51.29237634501265"/>
<polyline points="189.2876695605012 50.62150172470473 186.24578080031114 47.78550166843337"/>
<polyline points="189.72144727209005 51.29237634501265 196.2390025040591 57.63525107786341"/>
<polyline points="196.2390025040591 57.63525107786341 189.72144727209005 51.29237634501265"/>
<polyline points="205.36466878462946 66.14325124667751 211.8822240165984 72.48612597952824"/>
<polyline points="211.8822240165984 72.48612597952824 218.39977924856746 78.82900071237896"/>
<polyline points="198.8471135526604 59.8003765138268 179.29444785675324 40.771752315274696 192.32955832069132 53.45750178097611"/>
<polyline points="178.43446759499082 67.84152678153734 171.48692223214056 75.03353928181801"/>
<polyline points="171.48692223214056 75.03353928181801 164.53937686929035 82.22555178209862"/>
<polyline points="185.38201295784108 60.64951428125674 206.22464904639182 39.07347678041486 192.32955832069132 53.45750178097611 199.27710368354158 46.265489280695505"/>
<polyline points="186.24578080031114 47.78550166843337 183.2038920401211 44.94950161216192"/>
<polyline points="183.2038920401211 44.94950161216192 180.16200327993099 42.113501555890565"/>
<polyline points="189.2876695605012 50.62150172470473 198.41333584107153 59.12950189351887 192.32955832069132 53.45750178097611"/>
<polyline points="179.29444785675327 40.771752315274654 172.7768926247842 34.42887758242397"/>
<polyline points="172.7768926247842 34.42887758242397 166.25933739281515 28.086002849573287"/>
<polyline points="185.81200308872232 47.11462704812538 205.36466878462946 66.14325124667751 185.81200308872232 47.11462704812538"/>
<polyline points="206.22464904639182 39.07347678041486 213.17219440924214 31.881464280134225"/>
<polyline points="213.17219440924214 31.881464280134225 220.11973977209232 24.689451779853627"/>
<polyline points="199.27710368354158 46.265489280695505 178.43446759499082 67.8415267815373 192.32955832069132 53.45750178097607"/>
<polyline points="198.41333584107153 59.12950189351887 201.4552246012616 61.965501949790315"/>
<polyline points="201.4552246012616 61.965501949790315 204.49711336145162 64.8015020060617"/>
<polyline points="195.37144708088144 56.29350183724746 186.24578080031117 47.7855016684333 192.32955832069132 53.45750178097611 198.8471135526604 59.80037651382679"/>
<polyline points="192.32955832069132 53.45750178097611 185.81200308872232 47.11462704812538"/>
<polyline points="192.32955832069132 53.45750178097611 185.81200308872232 47.11462704812538"/>
<polyline points="195.37144708088144 56.29350183724746 198.41333584107153 59.12950189351891"/>
<polyline points="194.93766936929254 55.62262721693959 188.4201141373235 49.27975248408887"/>
<polyline points="181.90255890535454 42.93687775123816 188.4201141373235 49.27975248408887"/>
<polyline points="181.90255890535454 42.93687775123816 175.38500367338548 36.59400301838746"/>
<polyline points="175.8149938042667 23.059115785256104 182.76253916711698 15.867103284975464"/>
<polyline points="189.71008452996725 8.675090784694866 196.6576298928175 1.4830782844142663"/>
<polyline points="189.71008452996725 8.675090784694866 196.6576298928175 1.4830782844142663"/>
<polyline points="206.64706401585786 -2.872934159594968 209.6889527760479 -0.0369341033235631"/>
<polyline points="212.73084153623805 2.799065952947804 232.28350723214513 21.827690151499972 219.24839676820707 9.14194068579853"/>
<polyline points="225.33217428858728 14.81394079834134 228.37406304877732 17.649940854612776"/>
<polyline points="228.37406304877732 17.649940854612776 231.4159518089675 20.485940910884185"/>
<polyline points="235.32539599233527 24.663690207771335 241.84295122430422 31.00656494062206"/>
<polyline points="241.84295122430422 31.00656494062206 248.36050645627324 37.34943967347274"/>
<polyline points="248.36050645627324 37.34943967347274 254.87806168824233 43.69231440632346"/>
<polyline points="264.4375056804015 52.8711891954455 267.47939444059153 55.70718925171696"/>
<polyline points="228.80784076036622 18.320815474920654 219.68217447979586 9.812815306106401 225.76595200017607 15.48481541864925"/>
<polyline points="238.80106246411412 28.170564884350615 245.31861769608318 34.513439617201335"/>
<polyline points="245.31861769608318 34.513439617201335 251.83617292805218 40.85631435005205"/>
<polyline points="226.19972971176492 16.155690038957125 223.15784095157483 13.319689982685682"/>
<polyline points="223.15784095157483 13.319689982685682 220.1159521913847 10.483689926414277"/>
<polyline points="216.20650800801695 6.305940629527127 209.6889527760479 -0.0369341033235934"/>
<polyline points="209.6889527760479 -0.0369341033235934 203.17139754407893 -6.379808836174237"/>
<polyline points="222.72406323998598 12.648815362377844 242.27672893589306 31.677439560929926 229.24161847195495 18.991690095228563"/>
<polyline points="215.34652774625442 33.375715095789765 208.39898238340425 40.56772759607033"/>
<polyline points="208.39898238340425 40.56772759607033 201.45143702055395 47.759740096351"/>
<polyline points="222.29407310910477 26.18370259550917 243.1367091976555 4.607665094667327 229.24161847195495 18.991690095228563"/>
<polyline points="229.24161847195495 18.991690095228563 232.28350723214518 21.827690151499933"/>
<polyline points="229.24161847195495 18.991690095228563 226.19972971176492 16.155690038957086"/>
<polyline points="229.24161847195495 18.991690095228563 226.19972971176492 16.155690038957086"/>
<polyline points="222.29407310910477 26.18370259550917 215.34652774625442 33.375715095789765"/>
<polyline points="205.3570936232141 37.73172753979897 202.31520486302404 34.89572748352756"/>
<polyline points="199.2733161028339 32.059727427256156 202.31520486302404 34.89572748352756"/>
<polyline points="199.2733161028339 32.059727427256156 196.2314273426437 29.22372737098475"/>
<polyline points="186.67198335048462 20.04485258186263 180.15442811851565 13.701977849011909"/>
<polyline points="173.63687288654663 7.359103116161226 167.11931765457757 1.0162283833105072"/>
<polyline points="173.63687288654663 7.359103116161226 167.11931765457757 1.0162283833105072"/>
<polyline points="153.65421705975828 1.8653661507404458 146.70667169690802 9.057378651021066"/>
<polyline points="139.75912633405775 16.24939115130169 148.88479261462817 24.757391320115918 142.80101509424787 19.085391207573124"/>
<polyline points="128.90592436854737 33.46941620813437 121.9583790056971 40.661428708415"/>
<polyline points="121.9583790056971 40.661428708415 115.01083364284683 47.85344120869565"/>
<polyline points="141.93724725177785 31.949403820396576 144.97913601196797 34.785403876667964"/>
<polyline points="144.97913601196797 34.785403876667964 148.02102477215806 37.6214039329394"/>
<polyline points="148.02102477215806 37.6214039329394 151.06291353234818 40.4574039892108"/>
<polyline points="147.15725692968803 50.48541654576281 140.20971156683777 57.677429046043464"/>
<polyline points="138.89535849158773 29.113403764125167 159.7379945801385 7.537366263283274 145.842903854438 21.92139126384451"/>
<polyline points="151.92668137481823 27.593391376387338 154.96857013500832 30.42939143265876"/>
<polyline points="154.96857013500832 30.42939143265876 158.01045889519847 33.26539148893017"/>
<polyline points="162.7798833403286 10.373366319554675 169.7274287031789 3.1813538192740367"/>
<polyline points="169.7274287031789 3.1813538192740367 176.67497406602916 -4.010658681006602"/>
<polyline points="162.7798833403286 10.373366319554675 169.7274287031789 3.1813538192740367"/>
<polyline points="179.7168628262192 -1.1746586247351605 182.75875158640937 1.661341431536204"/>
<polyline points="148.88479261462808 24.75739132011594 139.7591263340577 16.249391151301726 145.842903854438 21.92139126384451"/>
<polyline points="159.7379945801385 7.537366263283289 166.68553994298873 0.345353763002648"/>
<polyline points="166.68553994298873 0.345353763002648 173.63308530583902 -6.84665873727801"/>
<polyline points="146.70667169690796 9.057378651021105 143.6647829367178 6.221378594749718"/>
<polyline points="143.6647829367178 6.221378594749718 140.6228941765277 3.3853785384782777"/>
<polyline points="146.70667169690796 9.057378651021105 143.6647829367178 6.221378594749718"/>
<polyline points="147.57043953937796 -3.8066339618023246 154.51798490222822 -10.998646462082966"/>
<polyline points="154.51798490222822 -10.998646462082966 147.57043953937796 -3.806633961802325"/>
<polyline points="152.79044921728823 14.729378763563892 155.83233797747837 17.565378819835296"/>
<polyline points="152.79044921728823 14.729378763563892 155.83233797747837 17.565378819835296"/>
<polyline points="152.79044921728823 14.729378763563892 159.7379945801385 7.537366263283289"/>
<polyline points="169.72742870317887 3.181353819274033 172.76931746336896 6.017353875545435"/>
<polyline points="175.8112062235591 8.853353931816804 172.76931746336896 6.017353875545435"/>
<polyline points="175.8112062235591 8.853353931816804 178.85309498374926 11.689353988088243"/>
<polyline points="175.3774285119703 8.182479311508926 168.85987328000132 1.8396045786582478"/>
<polyline points="162.3423180480323 -4.503270154192454 155.82476281606327 -10.846144887043158"/>
<polyline points="162.3423180480323 -4.503270154192454 155.82476281606327 -10.846144887043158"/>
<polyline points="156.25475294694454 -24.381032120174478 163.20229830979474 -31.573044620455104"/>
<polyline points="170.14984367264498 -38.76505712073575 189.7025093685521 -19.73643292218372 176.667398904614 -32.42218238788504"/>
<polyline points="182.75117642499427 -26.750182275342258 185.7930651851845 -23.91418221907085"/>
<polyline points="185.7930651851845 -23.91418221907085 188.83495394537462 -21.078182162799447"/>
<polyline points="192.7443981287422 -16.90043286591228 199.26195336071123 -10.557558133061557"/>
<polyline points="199.26195336071126 -10.557558133061594 205.77950859268032 -4.214683400210913"/>
<polyline points="192.7443981287422 -16.90043286591228 199.26195336071126 -10.557558133061594"/>
<polyline points="208.82139735287035 -1.3786833439394692 211.86328611306058 1.4573167123319317"/>
<polyline points="211.86328611306058 1.4573167123319317 208.82139735287035 -1.3786833439394692"/>
<polyline points="211.86328611306058 1.4573167123319317 214.9051748732507 4.2933167686033356"/>
<polyline points="179.70928766480412 -29.58618233161364 173.19173243283518 -35.92905706446434"/>
<polyline points="186.22684289677318 -23.243307598762936 192.7443981287422 -16.90043286591228"/>
<polyline points="202.3038421209014 -7.721558076790192 205.34573088109158 -4.885558020518788"/>
<polyline points="208.3876196412817 -2.0495579642473856 205.34573088109158 -4.885558020518788"/>
<polyline points="208.3876196412817 -2.0495579642473856 211.4295084014718 0.7864420920240566"/>
<polyline points="221.41894252451223 -3.5695703519852175 228.36648788736252 -10.761582852265862"/>
<polyline points="235.31403325021273 -17.95359535254646 242.261578613063 -25.145607852827133"/>
<polyline points="235.31403325021273 -17.95359535254646 242.261578613063 -25.145607852827133"/>
<polyline points="255.72667920788223 -25.99474562025709 262.24423443985125 -19.65187088740641"/>
<polyline points="262.24423443985125 -19.65187088740641 255.72667920788223 -25.99474562025709"/>
<polyline points="189.7025093685521 -19.73643292218372 196.22006460052108 -13.393558189333"/>
<polyline points="196.22006460052108 -13.393558189333 202.73761983249017 -7.050683456482321"/>
<polyline points="183.18495413658306 -26.07930765503436 163.63228844067598 -45.107931853586436 176.667398904614 -32.42218238788504"/>
<polyline points="162.7723081789135 -18.038157387323764 155.8247628160633 -10.846144887043145"/>
<polyline points="155.8247628160633 -10.846144887043145 148.87721745321304 -3.6541323867625057"/>
<polyline points="169.71985354176377 -25.23016988760444 190.5624896303145 -46.80620738844637 176.667398904614 -32.42218238788504"/>
<polyline points="169.71985354176377 -25.23016988760444 162.7723081789135 -18.038157387323764"/>
<polyline points="170.5836213842338 -38.094182500427905 167.54173262404365 -40.93018255669931"/>
<polyline points="167.54173262404365 -40.93018255669931 164.4998438638535 -43.766182612970724"/>
<polyline points="173.6255101444239 -35.25818244415648 182.75117642499424 -26.75018227534222 176.667398904614 -32.42218238788504"/>
<polyline points="163.63228844067598 -45.107931853586436 157.11473320870695 -51.450806586437125"/>
<polyline points="157.11473320870695 -51.450806586437125 150.59717797673792 -57.7936813192878"/>
<polyline points="170.14984367264498 -38.76505712073575 189.7025093685521 -19.73643292218372 176.667398904614 -32.42218238788504"/>
<polyline points="170.14984367264498 -38.76505712073575 163.63228844067598 -45.107931853586436"/>
<polyline points="170.14984367264498 -38.76505712073575 163.63228844067598 -45.107931853586436"/>
<polyline points="150.16718784585672 -44.2587940861565 143.21964248300648 -37.06678158587584"/>
<polyline points="176.667398904614 -32.42218238788504 197.51003499316477 -53.99821988872694 183.61494426746427 -39.61419488816568"/>
<polyline points="170.5798338035262 -52.29994435386707 164.0622785715572 -58.64281908671775"/>
<polyline points="164.0622785715572 -58.64281908671775 157.54472333958816 -64.98569381956843"/>
<polyline points="190.9924797611958 -60.34109462157764 197.94002512404606 -67.5331071218583"/>
<polyline points="197.94002512404606 -67.5331071218583 204.88757048689627 -74.72511962213888"/>
<polyline points="190.9924797611958 -60.34109462157764 197.94002512404606 -67.5331071218583"/>
<polyline points="198.3700152549272 -81.06799435498957 191.8524600229582 -87.41086908784027"/>
<polyline points="191.8524600229582 -87.41086908784027 198.3700152549272 -81.06799435498957"/>
<polyline points="177.0973890354953 -45.95706962101638 170.14984367264498 -38.76505712073575"/>
<polyline points="177.0973890354953 -45.95706962101638 170.14984367264498 -38.76505712073575"/>
<polyline points="177.0973890354953 -45.95706962101638 170.5798338035262 -52.29994435386707"/>
<polyline points="157.11473320870695 -51.450806586437125 150.16718784585672 -44.2587940861565"/>
<polyline points="143.21964248300648 -37.06678158587584 150.16718784585672 -44.2587940861565"/>
<polyline points="143.21964248300648 -37.06678158587584 136.27209712015622 -29.874769085595226"/>
<polyline points="126.28266299711582 -25.518756641586005 123.24077423692569 -28.354756697857404"/>
<polyline points="120.19888547673557 -31.19075675412883 117.15699671654544 -34.02675681040025"/>
<polyline points="120.19888547673557 -31.19075675412883 117.15699671654544 -34.02675681040025"/>
<polyline points="107.59755272438625 -43.205631599522356 101.07999749241728 -49.54850633237306"/>
<polyline points="94.56244226044824 -55.89138106522373 103.68810854101866 -47.3833808964095 97.6043310206384 -53.05538100895234"/>
<polyline points="83.70924029493786 -38.67135600839106 76.7616949320876 -31.47934350811043"/>
<polyline points="76.7616949320876 -31.47934350811043 69.81414956923733 -24.287331007829803"/>
<polyline points="96.74056317816836 -40.191368396128894 99.7824519383585 -37.355368339857485"/>
<polyline points="99.7824519383585 -37.355368339857485 102.82434069854865 -34.51936828358612"/>
<polyline points="96.74056317816836 -40.191368396128894 99.7824519383585 -37.355368339857485"/>
<polyline points="95.87679533569839 -27.327355783305464 88.92924997284814 -20.135343283024852"/>
<polyline points="88.92924997284814 -20.135343283024852 95.87679533569839 -27.327355783305464"/>
<polyline points="88.92924997284814 -20.135343283024852 81.98170460999788 -12.943330782744221"/>
<polyline points="90.65678565778809 -45.86336850867169 87.61489689759802 -48.69936856494309"/>
<polyline points="93.69867441797828 -43.0273684524003 96.74056317816836 -40.191368396128894"/>
<polyline points="92.83490657550826 -30.16335583957687 85.88736121265802 -22.971343339296226"/>
<polyline points="78.93981584980774 -15.779330839015609 85.88736121265802 -22.971343339296226"/>
<polyline points="78.93981584980774 -15.779330839015609 71.9922704869575 -8.587318338734965"/>
<polyline points="58.52716989213821 -7.73818057130503 52.00961466016919 -14.081055304155717"/>
<polyline points="45.492059428200164 -20.42393003700643 38.97450419623113 -26.76680476985711"/>
<polyline points="45.492059428200164 -20.42393003700643 38.97450419623113 -26.76680476985711"/>
<polyline points="35.498837724452244 -30.273679446436418 38.54072648464238 -27.437679390165023"/>
<polyline points="41.58261524483251 -24.601679333893635 38.54072648464238 -27.437679390165023"/>
<polyline points="41.58261524483251 -24.601679333893635 44.624504005022644 -21.765679277622223"/>
<polyline points="40.718847402362506 -11.737666721070214 33.77130203951225 -4.545654220789592"/>
<polyline points="97.6043310206384 -53.05538100895234 106.72999730120878 -44.54738084013813 100.64621978082852 -50.21938095268092"/>
<polyline points="86.75112905512799 -35.83535595211965 79.80358369227775 -28.643343451839037"/>
<polyline points="79.80358369227775 -28.643343451839037 72.85603832942748 -21.451330951558397"/>
<polyline points="99.78245193835852 -37.3553683398575 102.82434069854868 -34.519368283586154"/>
<polyline points="102.82434069854868 -34.519368283586154 105.86622945873879 -31.68336822731471"/>
<polyline points="99.78245193835852 -37.3553683398575 102.82434069854868 -34.519368283586154"/>
<polyline points="98.91868409588858 -24.491355727034104 91.97113873303832 -17.29934322675344"/>
<polyline points="91.97113873303832 -17.29934322675344 98.91868409588858 -24.491355727034104"/>
<polyline points="93.69867441797828 -43.0273684524003 90.65678565778809 -45.86336850867169"/>
<polyline points="93.69867441797828 -43.0273684524003 90.65678565778809 -45.86336850867169"/>
<polyline points="93.69867441797828 -43.0273684524003 86.75112905512799 -35.83535595211965"/>
<polyline points="76.7616949320876 -31.47934350811043 73.71980617189746 -34.315343564381806"/>
<polyline points="70.67791741170731 -37.15134362065321 73.71980617189746 -34.315343564381806"/>
<polyline points="70.67791741170731 -37.15134362065321 67.63602865151721 -39.98734367692461"/>
<polyline points="58.076584659358026 -49.166218466046686 51.55902942738901 -55.50909319889739"/>
<polyline points="45.041474195420015 -61.851967931748106 38.52391896345099 -68.19484266459878"/>
<polyline points="45.041474195420015 -61.851967931748106 38.52391896345099 -68.19484266459878"/>
<polyline points="25.05881836863171 -67.34570489716884 18.11127300578146 -60.15369239688822"/>
<polyline points="11.16372764293121 -52.96167989660758 30.716393338838255 -33.93305569805547 17.681282874900223 -46.61880516375688"/>
<polyline points="11.597505354519951 -52.29080527629966 8.555616594329818 -55.12680533257105"/>
<polyline points="8.555616594329818 -55.12680533257105 5.5137278341396705 -57.96280538884245"/>
<polyline points="27.674504578648126 -36.76905575432685 34.19205981061713 -30.42618102147613"/>
<polyline points="34.19205981061713 -30.42618102147613 40.70961504258616 -24.083306288625423"/>
<polyline points="27.674504578648126 -36.76905575432685 34.19205981061713 -30.42618102147613"/>
<polyline points="37.66772628239602 -26.91930634489683 34.625837522205885 -29.755306401168216"/>
<polyline points="34.625837522205885 -29.755306401168216 37.66772628239602 -26.919306344896825"/>
<polyline points="34.625837522205885 -29.755306401168216 31.583948762015748 -32.59130645743962"/>
<polyline points="14.639394114710093 -49.454805220028256 8.12183888274108 -55.79767995287898"/>
<polyline points="21.156949346679113 -43.11193048717755 27.674504578648126 -36.76905575432685"/>
<polyline points="31.150171050426998 -33.26218107774754 28.10828229023687 -36.09818113401892"/>
<polyline points="25.066393530046724 -38.93418119029031 28.10828229023687 -36.09818113401892"/>
<polyline points="25.066393530046724 -38.93418119029031 22.024504769856602 -41.77018124656171"/>
<polyline points="12.0350706468162 -37.41416880255248 5.0875252839659275 -30.22215630227186"/>
<polyline points="-1.8600200788843426 -23.030143801991255 -8.807565441734598 -15.838131301710622"/>
<polyline points="-1.8600200788843426 -23.030143801991255 -8.807565441734598 -15.838131301710622"/>
<polyline points="-9.237555572615856 -2.303244068579297 -2.720000340646839 4.039630664271411"/>
<polyline points="3.797554891322168 10.382505397122124 10.315110123291188 16.725380129972834"/>
<polyline points="3.797554891322168 10.382505397122124 10.315110123291188 16.725380129972834"/>
<polyline points="13.790776595070076 20.23225480655216 10.748887834879962 17.39625475028078"/>
<polyline points="17.681282874900223 -46.61880516375688 37.23394857080727 -27.59018096520475 24.19883810686924 -40.275930430906165"/>
<polyline points="18.115060586488973 -45.947930543448955 15.07317182629884 -48.78393059972035"/>
<polyline points="15.07317182629884 -48.78393059972035 12.031283066108696 -51.619930655991745"/>
<polyline points="34.19205981061714 -30.426181021476122 40.70961504258616 -24.083306288625415"/>
<polyline points="40.70961504258616 -24.083306288625415 47.227170274555185 -17.740431555774702"/>
<polyline points="34.19205981061714 -30.426181021476122 40.70961504258616 -24.083306288625415"/>
<polyline points="44.185281514365045 -20.576431612046083 41.143392754174926 -23.41243166831747"/>
<polyline points="41.143392754174926 -23.41243166831747 44.185281514365045 -20.576431612046083"/>
<polyline points="21.156949346679113 -43.11193048717755 14.639394114710095 -49.45480522002827"/>
<polyline points="21.156949346679113 -43.11193048717755 14.639394114710095 -49.45480522002827"/>
<polyline points="21.156949346679113 -43.11193048717755 18.115060586488973 -45.947930543448955"/>
<polyline points="8.555616594329827 -55.12680533257107 2.038061362360813 -61.46968006542176"/>
<polyline points="-4.479493869608203 -67.81255479827247 2.038061362360808 -61.46968006542175"/>
<polyline points="-4.479493869608203 -67.81255479827247 -10.997049101577213 -74.15542953112319"/>
<polyline points="-24.462149696396484 -73.30629176369325 -31.409695059246737 -66.11427926341263"/>
<polyline points="-38.35724042209699 -58.92226676313199 -45.30478578494724 -51.73025426285134"/>
<polyline points="-38.35724042209699 -58.92226676313199 -45.30478578494724 -51.73025426285134"/>
<polyline points="-55.29421990798765 -47.374241818842115 -58.33610866817779 -50.21024187511348"/>
<polyline points="-61.37799742836792 -53.046241931384905 -40.53536133981716 -74.6222794322268 -54.430452065517684 -60.238254431665524"/>
<polyline points="-67.46556252945568 -72.92400389736697 -73.9831177614247 -79.26687863021769"/>
<polyline points="-73.9831177614247 -79.26687863021769 -80.5006729933937 -85.60975336306842"/>
<polyline points="-47.05291657178612 -80.96515416507745 -40.10537120893586 -88.15716666535809"/>
<polyline points="-40.10537120893586 -88.15716666535809 -33.15782584608558 -95.34917916563869"/>
<polyline points="-47.05291657178612 -80.96515416507745 -40.10537120893586 -88.15716666535809"/>
<polyline points="-39.675381078054585 -101.6920538984894 -46.192936310023576 -108.03492863134012"/>
<polyline points="-46.192936310023576 -108.03492863134012 -39.675381078054585 -101.6920538984894"/>
<polyline points="-46.192936310023576 -108.03492863134012 -52.710491541992596 -114.37780336419085"/>
<polyline points="-60.94800729748669 -66.58112916451626 -67.89555266033696 -59.38911666423564"/>
<polyline points="-54.00046193463641 -73.77314166479685 -47.05291657178612 -80.96515416507745"/>
<polyline points="-46.622926440904855 -94.50004139820877 -53.14048167287385 -100.84291613105955"/>
<polyline points="-59.65803690484285 -107.18579086391026 -53.14048167287385 -100.84291613105955"/>
<polyline points="-59.65803690484285 -107.18579086391026 -66.17559213681183 -113.52866559676093"/>
<polyline points="-75.73503612897102 -122.70754038588308 -78.77692488916115 -125.54354044215442"/>
<polyline points="-81.81881364935126 -128.37954049842583 -84.86070240954146 -131.21554055469724"/>
<polyline points="-81.81881364935126 -128.37954049842583 -84.86070240954146 -131.21554055469724"/>
<polyline points="-80.9550458068813 -141.2435531112492 -74.00750044403105 -148.43556561152982"/>
<polyline points="-67.05995508118075 -155.62757811181044 -64.01806632099061 -152.79157805553908"/>
<polyline points="-64.01806632099061 -152.79157805553908 -60.97617756080043 -149.9555779992677"/>
<polyline points="-64.4518440325793 -153.46245267584698 -70.96939926454831 -159.80532740869776"/>
<polyline points="-70.96939926454831 -159.80532740869776 -64.4518440325793 -153.46245267584698"/>
<polyline points="-64.01806632099061 -152.79157805553908 -60.97617756080043 -149.9555779992677"/>
<polyline points="-64.4518440325793 -153.46245267584698 -70.96939926454831 -159.80532740869776"/>
<polyline points="-70.96939926454831 -159.80532740869776 -64.4518440325793 -153.46245267584698"/>
<polyline points="-40.53536133981711 -74.62227943222675 -33.587815976966844 -81.81429193250736"/>
<polyline points="-33.587815976966844 -81.81429193250736 -26.640270614116574 -89.00630443278794"/>
<polyline points="-47.48290670266741 -67.43026693194615 -68.32554279121821 -45.8542294311043 -54.430452065517684 -60.238254431665524"/>
<polyline points="-48.346674545137404 -54.56625431912275 -45.30478578494724 -51.73025426285134"/>
<polyline points="-45.30478578494724 -51.73025426285134 -42.262897024757116 -48.89425420657998"/>
<polyline points="-51.388563305327516 -57.40225437539414 -60.514229585897965 -65.91025454420831 -54.43045206551768 -60.23825443166552 -57.47234082570781 -63.0742544879369"/>
<polyline points="-41.39534160157969 -47.55250496596411 -34.87778636961068 -41.20963023311338"/>
<polyline points="-34.877786369610675 -41.20963023311338 -28.36023113764167 -34.866755500262656"/>
<polyline points="-47.91289683354868 -53.89537969881482 -67.46556252945567 -72.92400389736696 -54.4304520655177 -60.238254431665496"/>
<polyline points="-68.32554279121823 -45.854229431104294 -75.27308815406852 -38.662216930823675"/>
<polyline points="-75.27308815406852 -38.662216930823675 -82.22063351691881 -31.47020443054308"/>
<polyline points="-61.377997428367955 -53.046241931384905 -40.53536133981713 -74.62227943222673 -61.377997428367955 -53.046241931384905"/>
<polyline points="-60.514229585897965 -65.91025454420831 -63.556118346088084 -68.7462546004797"/>
<polyline points="-63.556118346088084 -68.7462546004797 -66.59800710627825 -71.58225465675108"/>
<polyline points="-57.47234082570782 -63.07425448793689 -48.34667454513743 -54.56625431912272 -54.4304520655177 -60.238254431665496"/>
<polyline points="-67.46556252945568 -72.92400389736697 -73.9831177614247 -79.26687863021768"/>
<polyline points="-73.9831177614247 -79.26687863021768 -80.50067299339369 -85.60975336306842"/>
<polyline points="-60.94800729748669 -66.58112916451624 -41.3953416015797 -47.55250496596406 -54.430452065517684 -60.2382544316655 -47.48290670266741 -67.43026693194615"/>
<polyline points="-54.430452065517684 -60.2382544316655 -61.377997428367955 -53.046241931384905"/>
<polyline points="-54.430452065517684 -60.2382544316655 -61.377997428367955 -53.046241931384905"/>
<polyline points="-60.94800729748667 -66.58112916451626 -67.46556252945567 -72.92400389736699"/>
<polyline points="-80.93066312427494 -72.07486612993708 -87.8782084871252 -64.88285362965648"/>
<polyline points="-94.82575384997548 -57.69084112937587 -87.8782084871252 -64.88285362965648"/>
<polyline points="-94.82575384997548 -57.69084112937587 -101.77329921282578 -50.498828629095286"/>
<polyline points="-111.7627333358662 -46.14281618508606 -114.80462209605633 -48.978816241357436"/>
<polyline points="-117.84651085624645 -51.81481629762882 -120.88839961643659 -54.650816353900254"/>
<polyline points="-117.84651085624645 -51.81481629762882 -120.88839961643659 -54.650816353900254"/>
<polyline points="-130.44784360859575 -63.82969114302234 -136.96539884056472 -70.17256587587313"/>
<polyline points="-143.48295407253374 -76.51544060872384 -122.64031798398288 -98.09147810956568 -136.53540870968342 -83.70745310900445"/>
<polyline points="-149.5705191736214 -96.39320257470591 -156.08807440559036 -102.73607730755666"/>
<polyline points="-156.08807440559036 -102.73607730755666 -162.60562963755936 -109.07895204040743"/>
<polyline points="-129.15787321595187 -104.4343528424164 -122.2103278531016 -111.62636534269697"/>
<polyline points="-122.2103278531016 -111.62636534269697 -115.26278249025133 -118.81837784297763"/>
<polyline points="-115.26278249025133 -118.81837784297763 -108.31523712740103 -126.01039034325822"/>
<polyline points="-107.88524699651971 -139.54527757638957 -114.40280222848868 -145.8881523092403"/>
<polyline points="-136.10541857880213 -97.24234034213575 -116.55275288289519 -78.21371614358355 -129.58786334683313 -90.89946560928502"/>
<polyline points="-115.69277262113253 -105.28349060984623 -108.74522725828227 -112.47550311012678"/>
<polyline points="-108.74522725828227 -112.47550311012678 -101.79768189543198 -119.6675156104074"/>
<polyline points="-109.60520752004491 -85.40572864386415 -103.08765228807592 -79.06285391101336"/>
<polyline points="-103.08765228807592 -79.06285391101336 -96.57009705610695 -72.71997917816265"/>
<polyline points="-130.01785347771448 -77.36457837615372 -136.96539884056477 -70.17256587587313"/>
<polyline points="-136.96539884056477 -70.17256587587313 -143.9129442034151 -62.980553375592514"/>
<polyline points="-123.07030811486418 -84.55659087643424 -102.22767202631327 -106.13262837727606 -116.12276275201388 -91.74860337671487"/>
<polyline points="-110.03898523163363 -86.07660326417208 -106.99709647144351 -83.24060320790073"/>
<polyline points="-106.99709647144351 -83.24060320790073 -103.95520771125335 -80.40460315162926"/>
<polyline points="-113.08087399182374 -88.9126033204435 -122.20654027239418 -97.42060348925764 -116.12276275201388 -91.74860337671487"/>
<polyline points="-116.12276275201388 -91.74860337671487 -122.64031798398287 -98.09147810956563"/>
<polyline points="-116.12276275201388 -91.74860337671487 -109.60520752004491 -85.40572864386411"/>
<polyline points="-116.12276275201388 -91.74860337671487 -109.60520752004491 -85.40572864386411"/>
<polyline points="-113.08087399182374 -88.9126033204435 -110.03898523163363 -86.07660326417208"/>
<polyline points="-100.47954123947453 -76.8977284750499 -93.96198600750553 -70.55485374219917"/>
<polyline points="-87.44443077553652 -64.21197900934845 -93.96198600750553 -70.55485374219917"/>
<polyline points="-87.44443077553652 -64.21197900934845 -80.92687554356756 -57.869104276497694"/>
<polyline points="-81.35686567444891 -44.33421704336637 -88.30441103729919 -37.14220454308578"/>
<polyline points="-95.2519564001495 -29.950192042805178 -102.19950176299977 -22.758179542524623"/>
<polyline points="-95.2519564001495 -29.950192042805178 -102.19950176299977 -22.758179542524623"/>
<polyline points="-106.10515836565995 -12.730166985972634 -103.06326960546983 -9.894166929701212"/>
<polyline points="-100.02138084527971 -7.058166873429828 -119.57404654118668 -26.086791071982056 -106.5389360772487 -13.401041606280572"/>
<polyline points="-100.4551585568685 -7.729041493737834 -97.41326979667834 -4.8930414374664695"/>
<polyline points="-97.41326979667834 -4.8930414374664695 -94.37138103648824 -2.057041381195084"/>
<polyline points="-116.53215778099654 -23.2507910157107 -123.04971301296553 -29.593665748561442"/>
<polyline points="-123.04971301296553 -29.593665748561442 -129.56726824493447 -35.93654048141216"/>
<polyline points="-129.56726824493447 -35.93654048141216 -136.08482347690347 -42.279415214262954"/>
<polyline points="-139.5604899486824 -45.786289890842326 -136.51860118849226 -42.95028983457091"/>
<polyline points="-110.01460254902757 -16.907916282859944 -119.14026882959789 -25.41591645167406 -113.05649130921768 -19.74391633913133"/>
<polyline points="-126.09160177315567 -32.429665804832794 -132.60915700512464 -38.772540537683554"/>
<polyline points="-132.60915700512464 -38.772540537683554 -139.1267122370936 -45.1154152705343"/>
<polyline points="-125.65782406156684 -31.758791184524824 -128.69971282175698 -34.594791240796205"/>
<polyline points="-128.69971282175698 -34.594791240796205 -131.74160158194707 -37.43079129706755"/>
<polyline points="-125.65782406156684 -31.758791184524824 -128.69971282175698 -34.594791240796205"/>
<polyline points="-138.2591568139161 -43.77366602991832 -144.77671204588506 -50.11654076276903"/>
<polyline points="-119.57404654118668 -26.086791071982073 -100.02138084527972 -7.058166873429788 -113.05649130921769 -19.74391633913131"/>
<polyline points="-119.14026882959789 -25.41591645167406 -122.182157589788 -28.251916507945445"/>
<polyline points="-122.182157589788 -28.251916507945445 -125.22404634997817 -31.08791656421679"/>
<polyline points="-103.06326960546984 -9.894166929701134 -96.54571437350083 -3.551292196850392"/>
<polyline points="-96.54571437350083 -3.551292196850392 -90.02815914153186 2.7915825360003685"/>
<polyline points="-103.06326960546984 -9.894166929701134 -96.54571437350083 -3.551292196850392"/>
<polyline points="-93.07004790172196 -0.044417520270979 -96.11193666191211 -2.880417576542383"/>
<polyline points="-96.11193666191211 -2.880417576542383 -93.07004790172196 -0.044417520270979"/>
<polyline points="-116.0983800694078 -22.57991639540266 -122.61593530137677 -28.922791128253458"/>
<polyline points="-116.0983800694078 -22.57991639540266 -122.61593530137677 -28.922791128253458"/>
<polyline points="-116.0983800694078 -22.57991639540266 -119.14026882959789 -25.41591645167406"/>
<polyline points="-128.69971282175698 -34.59479124079622 -135.21726805372597 -40.93766597364697"/>
<polyline points="-141.73482328569494 -47.28054070649771 -135.21726805372597 -40.93766597364697"/>
<polyline points="-141.73482328569494 -47.28054070649771 -148.25237851766397 -53.623415439348456"/>
<polyline points="-161.71747911248323 -52.774277671918625 -168.66502447533352 -45.582265171638056"/>
<polyline points="-175.61256983818382 -38.39025267135749 -182.56011520103414 -31.198240171076886"/>
<polyline points="-175.61256983818382 -38.39025267135749 -182.56011520103414 -31.198240171076886"/>
<polyline points="-192.54954932407458 -26.842227727067648 -195.59143808426467 -29.678227783339015"/>
<polyline points="-198.63332684445479 -32.514227839610385 -177.7906907559039 -54.09026534045212 -191.68578148160455 -39.706240339890954"/>
<polyline points="-204.72089194554243 -52.39198980559254 -211.23844717751143 -58.73486453844327"/>
<polyline points="-211.23844717751143 -58.73486453844327 -217.75600240948037 -65.07773927129408"/>
<polyline points="-184.30824598787282 -60.43314007330291 -177.36070062502256 -67.62515257358349"/>
<polyline points="-177.36070062502256 -67.62515257358349 -170.41315526217232 -74.81716507386409"/>
<polyline points="-184.30824598787282 -60.43314007330291 -177.36070062502256 -67.62515257358349"/>
<polyline points="-176.9307104941412 -81.16003980671485 -183.44826572611024 -87.50291453956565"/>
<polyline points="-183.44826572611024 -87.50291453956565 -176.9307104941412 -81.16003980671485"/>
<polyline points="-183.44826572611024 -87.50291453956565 -189.96582095807923 -93.8457892724164"/>
<polyline points="-198.20333671357344 -46.04911507274179 -205.15088207642376 -38.85710257246118"/>
<polyline points="-191.2557913507232 -53.24112757302231 -184.30824598787282 -60.43314007330291"/>
<polyline points="-183.87825585699156 -73.9680273064343 -190.3958110889605 -80.31090203928504"/>
<polyline points="-196.91336632092944 -86.65377677213586 -190.3958110889605 -80.31090203928504"/>
<polyline points="-196.91336632092944 -86.65377677213586 -203.43092155289847 -92.9966515049866"/>
<polyline points="-212.99036554505747 -102.17552629410874 -216.03225430524762 -105.01152635038007"/>
<polyline points="-219.07414306543777 -107.84752640665131 -222.11603182562789 -110.68352646292274"/>
<polyline points="-219.07414306543777 -107.84752640665131 -222.11603182562789 -110.68352646292274"/>
<polyline points="-218.21037522296766 -120.71153901947466 -211.26282986011728 -127.90355151975524"/>
<polyline points="-211.26282986011728 -127.90355151975524 -218.21037522296766 -120.71153901947466"/>
<polyline points="-177.7906907559039 -54.09026534045212 -170.84314539305362 -61.28227784073273"/>
<polyline points="-170.84314539305362 -61.28227784073273 -163.89560003020333 -68.47429034101333"/>
<polyline points="-184.73823611875423 -46.89825284017155 -205.5808722073051 -25.322215339329777 -191.68578148160455 -39.706240339890954"/>
<polyline points="-185.60200396122426 -34.03424022734825 -182.56011520103414 -31.198240171076886"/>
<polyline points="-182.56011520103414 -31.198240171076886 -179.51822644084402 -28.36224011480552"/>
<polyline points="-188.64389272141435 -36.87024028361958 -197.76955900198473 -45.37824045243367 -191.68578148160455 -39.706240339890954"/>
<polyline points="-188.64389272141435 -36.87024028361958 -185.60200396122426 -34.03424022734825"/>
<polyline points="-178.65067101766655 -27.02049087418942 -172.13311578569756 -20.677616141338707"/>
<polyline points="-172.13311578569756 -20.677616141338707 -165.6155605537286 -14.334741408487908"/>
<polyline points="-185.1682262496355 -33.36336560704022 -204.72089194554243 -52.391989805592495 -191.68578148160455 -39.706240339890954"/>
<polyline points="-205.5808722073051 -25.322215339329734 -212.52841757015537 -18.130202839049208"/>
<polyline points="-212.52841757015537 -18.130202839049208 -219.47596293300572 -10.9381903387686"/>
<polyline points="-198.63332684445479 -32.514227839610385 -177.7906907559039 -54.09026534045212 -191.68578148160455 -39.706240339890954"/>
<polyline points="-198.63332684445479 -32.514227839610385 -205.5808722073051 -25.322215339329734"/>
<polyline points="-198.63332684445479 -32.514227839610385 -205.5808722073051 -25.322215339329734"/>
<polyline points="-209.48652880996528 -15.2942027827778 -206.44464004977513 -12.458202726506473"/>
<polyline points="-191.68578148160455 -39.706240339890954 -200.81144776217488 -48.21424050870504 -194.7276702417946 -42.54224039616233"/>
<polyline points="-208.62276096749525 -28.158215395601147 -215.5703063303455 -20.96620289532061"/>
<polyline points="-215.5703063303455 -20.96620289532061 -222.5178516931958 -13.774190395039932"/>
<polyline points="-207.75899312502517 -41.022228008424484 -210.80088188521526 -43.858228064695815"/>
<polyline points="-210.80088188521526 -43.858228064695815 -213.84277064540538 -46.694228120967175"/>
<polyline points="-207.75899312502517 -41.022228008424484 -210.80088188521526 -43.858228064695815"/>
<polyline points="-220.79031600825576 -39.50221562068653 -227.73786137110602 -32.31020312040604"/>
<polyline points="-227.73786137110602 -32.31020312040604 -220.79031600825576 -39.50221562068653"/>
<polyline points="-201.67521560464488 -35.35022789588175 -198.63332684445479 -32.514227839610385"/>
<polyline points="-201.67521560464488 -35.35022789588175 -198.63332684445479 -32.514227839610385"/>
<polyline points="-201.67521560464488 -35.35022789588175 -208.62276096749525 -28.158215395601147"/>
<polyline points="-212.52841757015545 -18.13020283904913 -209.48652880996528 -15.29420278277784"/>
<polyline points="-206.44464004977513 -12.458202726506512 -209.48652880996528 -15.29420278277784"/>
<polyline points="-206.44464004977513 -12.458202726506512 -203.402751289585 -9.622202670235145"/>
<polyline points="-193.84330729742592 -0.4433278811129807 -187.32575206545695 5.899546851737742"/>
<polyline points="-180.80819683348795 12.24242158458854 -174.29064160151898 18.585296317439305"/>
<polyline points="-180.80819683348795 12.24242158458854 -174.29064160151898 18.585296317439305"/>
<polyline points="-174.7206317324003 32.120183550570665 -181.66817709525066 39.312196050851234"/>
<polyline points="-188.61572245810092 46.50420855113181 -208.16838815400789 27.475584352579556 -195.13327769006995 40.161333818281086"/>
<polyline points="-189.0495001696897 45.83333393082382 -186.0076114094996 48.66933398709522"/>
<polyline points="-186.0076114094996 48.66933398709522 -182.96572264930953 51.50533404336664"/>
<polyline points="-205.12649939381777 30.31158440885092 -211.64405462578674 23.968709676000127"/>
<polyline points="-211.64405462578674 23.968709676000127 -218.16160985775574 17.6258349431494"/>
<polyline points="-205.12649939381777 30.31158440885092 -211.64405462578674 23.968709676000127"/>
<polyline points="-215.11972109756562 20.46183499942077 -212.0778323373755 23.29783505569213"/>
<polyline points="-212.0778323373755 23.29783505569213 -215.11972109756567 20.46183499942081"/>
<polyline points="-212.0778323373755 23.29783505569213 -209.03594357718546 26.133835111963577"/>
<polyline points="-192.0913889298798 42.99733387455243 -185.57383369791083 49.34020860740321"/>
<polyline points="-198.60894416184883 36.65445914170171 -205.12649939381777 30.31158440885092"/>
<polyline points="-208.60216586559662 26.804709732271565 -205.56027710540658 29.6407097885429"/>
<polyline points="-202.51838834521644 32.47670984481426 -205.56027710540658 29.6407097885429"/>
<polyline points="-202.51838834521644 32.47670984481426 -199.4764995850264 35.312709901085704"/>
<polyline points="-203.3821561876866 45.3407224576377 -210.3297015505369 52.53273495791827"/>
<polyline points="-217.27724691338722 59.724747458198856 -224.22479227623742 66.91675995847937"/>
<polyline points="-217.27724691338722 59.724747458198856 -224.22479227623742 66.91675995847937"/>
<polyline points="-237.68989287105677 67.76589772590927 -244.20744810302577 61.42302299305854"/>
<polyline points="-250.7250033349948 55.08014826020773 -244.20744810302577 61.42302299305854"/>
<polyline points="-250.7250033349948 55.08014826020773 -257.24255856696374 48.73727352735693"/>
<polyline points="-260.7182250387426 45.23039885077751 -257.67633627855247 48.06639890704883"/>
<polyline points="-195.13327769006995 40.161333818281086 -214.68594338597688 21.132709619728796 -201.65083292203897 33.81845908543028"/>
<polyline points="-195.56705540165868 39.49045919797305 -192.52516664146862 42.32645925424447"/>
<polyline points="-192.52516664146862 42.32645925424447 -189.48327788127855 45.16245931051591"/>
<polyline points="-211.64405462578674 23.968709676000124 -218.16160985775576 17.625834943149435"/>
<polyline points="-218.16160985775576 17.625834943149435 -224.67916508972468 11.282960210298599"/>
<polyline points="-211.64405462578674 23.968709676000124 -218.16160985775576 17.625834943149435"/>
<polyline points="-221.63727632953464 14.118960266570042 -218.59538756934455 16.95496032284141"/>
<polyline points="-218.59538756934455 16.95496032284141 -221.63727632953464 14.118960266570042"/>
<polyline points="-198.60894416184883 36.65445914170171 -192.0913889298798 42.99733387455243"/>
<polyline points="-198.60894416184883 36.65445914170171 -192.0913889298798 42.99733387455243"/>
<polyline points="-198.60894416184883 36.65445914170171 -195.56705540165868 39.49045919797305"/>
<polyline points="-186.0076114094996 48.66933398709522 -179.49005617753065 55.01220871994599"/>
<polyline points="-172.97250094556165 61.35508345279673 -179.49005617753065 55.01220871994599"/>
<polyline points="-172.97250094556165 61.35508345279673 -166.45494571359265 67.69795818564752"/>
<polyline points="-166.88493584447394 81.23284541877888 -173.83248120732432 88.42485791905945"/>
<polyline points="-180.78002657017458 95.61687041933999 -187.72757193302488 102.80888291962056"/>
<polyline points="-180.78002657017458 95.61687041933999 -187.72757193302488 102.80888291962056"/>
<polyline points="-191.63322853568513 112.83689547617256 -188.59133977549502 115.67289553244396"/>
<polyline points="-185.5494510153049 118.50889558871533 -164.70681492675402 96.93285808787361 -178.60190565245463 111.31688308843479"/>
<polyline points="-165.56679518851664 124.0026325541363 -159.0492399565477 130.34550728698707"/>
<polyline points="-159.0492399565477 130.34550728698707 -152.5316847245787 136.68838201983786"/>
<polyline points="-158.189259694785 103.27573282072434 -151.24171433193467 96.0837203204438"/>
<polyline points="-151.24171433193467 96.0837203204438 -144.29416896908438 88.89170782016319"/>
<polyline points="-158.189259694785 103.27573282072434 -151.24171433193467 96.0837203204438"/>
<polyline points="-137.77661373711544 95.23458255301398 -131.25905850514647 101.57745728586475"/>
<polyline points="-131.25905850514647 101.57745728586475 -137.77661373711544 95.23458255301398"/>
<polyline points="-131.25905850514647 101.57745728586475 -124.74150327317744 107.92033201871551"/>
<polyline points="-172.08435042048558 117.6597578212855 -179.03189578333598 124.85177032156612"/>
<polyline points="-165.1368050576353 110.4677453210049 -158.189259694785 103.27573282072434"/>
<polyline points="-144.7241590999657 102.42659505329459 -138.20660386799673 108.76946978614534"/>
<polyline points="-131.68904863602776 115.1123445189961 -138.20660386799673 108.76946978614534"/>
<polyline points="-131.68904863602776 115.1123445189961 -125.17149340405877 121.45521925184684"/>
<polyline points="-115.6120494118997 130.634094040969 -112.57016065170961 133.47009409724032"/>
<polyline points="-109.52827189151957 136.30609415351174 -106.48638313132945 139.1420942097831"/>
<polyline points="-109.52827189151957 136.30609415351174 -106.48638313132945 139.1420942097831"/>
<polyline points="-96.49694900828906 134.7860817657739 -89.54940364543873 127.59406926549332"/>
<polyline points="-82.60185828258842 120.4020567652127 -75.65431291973815 113.21004426493218"/>
<polyline points="-82.60185828258842 120.4020567652127 -75.65431291973815 113.21004426493218"/>
<polyline points="-62.18921232491887 112.36090649750238 -55.67165709294988 118.7037812303531"/>
<polyline points="-178.60190565245463 111.31688308843479 -157.75926956390367 89.74084558759304 -171.6543602896043 104.1248705881542"/>
<polyline points="-158.61924982566632 116.81062005385569 -152.1016945936974 123.1534947867065"/>
<polyline points="-152.1016945936974 123.1534947867065 -145.58413936172835 129.49636951955725"/>
<polyline points="-151.24171433193467 96.0837203204438 -144.29416896908438 88.89170782016323"/>
<polyline points="-144.29416896908438 88.89170782016323 -137.34662360623406 81.69969531988261"/>
<polyline points="-151.24171433193467 96.0837203204438 -144.29416896908438 88.89170782016323"/>
<polyline points="-130.82906837426515 88.04257005273341 -124.31151314229615 94.38544478558417"/>
<polyline points="-124.31151314229615 94.38544478558417 -130.82906837426515 88.04257005273341"/>
<polyline points="-165.1368050576353 110.46774532100493 -172.08435042048558 117.6597578212855"/>
<polyline points="-165.1368050576353 110.46774532100493 -172.08435042048558 117.6597578212855"/>
<polyline points="-165.1368050576353 110.46774532100493 -158.61924982566632 116.81062005385569"/>
<polyline points="-159.0492399565477 130.3455072869871 -165.99678531939796 137.53751978726768"/>
<polyline points="-172.9443306822483 144.72953228754827 -165.99678531939796 137.53751978726768"/>
<polyline points="-172.9443306822483 144.72953228754827 -179.89187604509857 151.9215447878288"/>
<polyline points="-183.7975326477588 161.94955734438076 -180.75564388756874 164.78555740065207"/>
<polyline points="-177.7137551273787 167.62155745692348 -174.67186636718858 170.45755751319484"/>
<polyline points="-177.7137551273787 167.62155745692348 -174.67186636718858 170.45755751319484"/>
<polyline points="-165.11242237502955 179.63643230231696 -158.59486714306055 185.97930703516772"/>
<polyline points="-152.07731191109158 192.32218176801854 -161.20297819166186 183.81418159920446 -155.11920067128173 189.48618171174712"/>
<polyline points="-169.0142913969823 203.87020671230837 -175.96183675983255 211.06221921258896"/>
<polyline points="-175.96183675983255 211.06221921258896 -182.9093821226829 218.2542317128695"/>
<polyline points="-168.15052355451215 191.00619409948507 -171.19241231470227 188.17019404321366"/>
<polyline points="-171.19241231470227 188.17019404321366 -174.23430107489233 185.33419398694224"/>
<polyline points="-168.15052355451215 191.00619409948507 -171.19241231470227 188.17019404321366"/>
<polyline points="-181.18184643774262 192.5262064872228 -188.1293918005929 199.71821898750338"/>
<polyline points="-188.1293918005929 199.71821898750338 -181.18184643774262 192.5262064872228"/>
<polyline points="-188.1293918005929 199.71821898750338 -195.07693716344323 206.91023148778393"/>
<polyline points="-162.066746034132 196.6781942120278 -159.0248572739419 199.51419426829918"/>
<polyline points="-165.10863479432206 193.8421941557564 -168.15052355451215 191.00619409948507"/>
<polyline points="-178.13995767755247 195.36220654349418 -185.08750304040282 202.55421904377474"/>
<polyline points="-192.0350484032531 209.74623154405532 -185.08750304040282 202.55421904377474"/>
<polyline points="-192.0350484032531 209.74623154405532 -198.9825937661034 216.9382440443359"/>
<polyline points="-199.41258389698476 230.47313127746725 -192.8950286650158 236.816006010318"/>
<polyline points="-186.3774734330468 243.1588807431688 -179.85991820107782 249.50175547601955"/>
<polyline points="-186.3774734330468 243.1588807431688 -179.85991820107782 249.50175547601955"/>
<polyline points="-176.38425172929885 253.00863015259898 -179.42614048948897 250.17263009632768"/>
</svg>