<svg viewBox="-260.71822503874273 -159.80532740869765 528.1976194793342 412.81395756129655" xmlns="http://www.w3.org/2000/svg">
<style>
svg { stroke:black; stroke-width:2; fill:none;}
</style>
<polyline points="114.13404585989373 34.16605240052067 117.17593462008365 37.00205245679621"/>
<polyline points="120.21782338027374 39.83805251306778 123.25971214046378 42.67405256933915"/>
<polyline points="119.3540555378036 52.70206512589108 112.40651017495334 59.894077626171715"/>
<polyline points="112.40651017495334 59.894077626171715 92.8538444790462 40.86545342761956 105.88895494298428 53.55120289332098"/>
<polyline points="119.78404566868478 39.16717789275973 126.73159103153507 31.975165392479127"/>
<polyline points="126.73159103153507 31.975165392479127 133.67913639438532 24.783152892198473"/>
<polyline points="99.80138984189647 33.67344092733895 93.28383460992741 27.330566194488235"/>
<polyline points="93.28383460992741 27.330566194488235 86.76627937795834 20.987691461637553"/>
<polyline points="99.80138984189647 33.67344092733895 93.28383460992741 27.330566194488235"/>
<polyline points="93.7138247408086 13.795678961356888 100.66137010365885 6.603666461076258"/>
<polyline points="100.66137010365885 6.603666461076258 93.7138247408086 13.795678961356888"/>
<polyline points="112.83650030583456 46.35919039304039 119.35405553780362 52.70206512589106"/>
<polyline points="112.83650030583456 46.35919039304039 119.35405553780362 52.70206512589106"/>
<polyline points="112.83650030583456 46.35919039304039 119.78404566868478 39.16717789275973"/>
<polyline points="133.24914626350414 38.31804012532981 139.76670149547317 44.66091485818053"/>
<polyline points="146.28425672744225 51.00378959103126 139.76670149547317 44.66091485818053"/>
<polyline points="146.28425672744225 51.00378959103126 152.80181195941125 57.34666432388196"/>
<polyline points="162.36125595157037 66.52553911300399 165.40314471176043 69.36153916927536"/>
<polyline points="168.44503347195055 72.19753922554669 171.4869222321406 75.03353928181807"/>
<polyline points="168.44503347195055 72.19753922554669 171.4869222321406 75.03353928181807"/>
<polyline points="181.47635635518097 70.67752683780876 188.42390171803126 63.48551433752809"/>
<polyline points="195.3714470808815 56.29350183724749 186.2457808003112 47.78550166843347 192.3295583206914 53.45750178097614"/>
<polyline points="205.3646687846295 66.14325124667756 211.88222401659854 72.48612597952827"/>
<polyline points="211.88222401659854 72.48612597952827 218.39977924856757 78.82900071237896"/>
<polyline points="192.7633360322802 54.128376401284164 189.7214472720901 51.29237634501282"/>
<polyline points="189.7214472720901 51.29237634501282 186.67955851190007 48.456376288741396"/>
<polyline points="192.7633360322802 54.128376401284164 189.7214472720901 51.29237634501282"/>
<polyline points="193.19711374386918 54.79925102159208 199.7146689758381 61.142125754442894"/>
<polyline points="199.7146689758381 61.142125754442894 193.19711374386918 54.79925102159208"/>
<polyline points="199.7146689758381 61.142125754442894 206.2322242078072 67.48500048729356"/>
<polyline points="198.8471135526604 59.800376513826876 201.88900231285047 62.63637657009826"/>
<polyline points="195.80522479247037 56.9643764575555 192.7633360322802 54.128376401284164"/>
<polyline points="196.23900250405921 57.635251077863515 202.75655773602827 63.97812581071418"/>
<polyline points="209.27411296799724 70.32100054356495 202.75655773602827 63.97812581071418"/>
<polyline points="209.27411296799724 70.32100054356495 215.7916681999663 76.66387527641561"/>
<polyline points="229.25676879478564 75.81473750898571 236.20431415763585 68.62272500870507"/>
<polyline points="243.15185952048614 61.43071250842444 250.0994048833364 54.23870000814382"/>
<polyline points="243.15185952048614 61.43071250842444 250.0994048833364 54.23870000814382"/>
<polyline points="254.0050614859966 44.2106874515918 250.96317272580652 41.37468739532045"/>
<polyline points="192.3295583206914 53.45750178097614 189.2876695605013 50.62150172470479"/>
<polyline points="189.2876695605013 50.62150172470479 186.2457808003112 47.78550166843343"/>
<polyline points="189.7214472720901 51.29237634501282 196.23900250405921 57.63525107786349"/>
<polyline points="196.23900250405921 57.63525107786349 189.7214472720901 51.29237634501282"/>
<polyline points="189.2876695605013 50.62150172470479 186.2457808003112 47.78550166843343"/>
<polyline points="189.7214472720901 51.29237634501282 196.23900250405921 57.63525107786349"/>
<polyline points="196.23900250405921 57.63525107786349 189.7214472720901 51.29237634501282"/>
<polyline points="205.3646687846295 66.14325124667756 211.88222401659854 72.48612597952827"/>
<polyline points="211.88222401659854 72.48612597952827 218.39977924856757 78.82900071237896"/>
<polyline points="198.8471135526604 59.800376513826876 179.2944478567533 40.77175231527479 192.3295583206914 53.45750178097614"/>
<polyline points="178.43446759499085 67.84152678153741 171.4869222321406 75.03353928181804"/>
<polyline points="171.4869222321406 75.03353928181804 164.53937686929035 82.22555178209865"/>
<polyline points="185.38201295784114 60.649514281256806 206.2246490463919 39.073476780414914 192.3295583206914 53.45750178097614 199.27710368354164 46.26548928069551"/>
<polyline points="186.2457808003112 47.78550166843343 183.20389204012113 44.949501612162045"/>
<polyline points="183.20389204012113 44.949501612162045 180.1620032799311 42.11350155589065"/>
<polyline points="189.2876695605013 50.62150172470479 198.41333584107159 59.12950189351889 192.3295583206914 53.45750178097614"/>
<polyline points="179.29444785675338 40.7717523152747 172.77689262478424 34.42887758242404"/>
<polyline points="172.77689262478424 34.42887758242404 166.2593373928152 28.086002849573312"/>
<polyline points="185.81200308872238 47.11462704812539 205.3646687846295 66.14325124667756 185.81200308872238 47.11462704812539"/>
<polyline points="206.2246490463919 39.073476780414914 213.17219440924217 31.881464280134285"/>
<polyline points="213.17219440924217 31.881464280134285 220.11973977209243 24.689451779853652"/>
<polyline points="199.27710368354164 46.26548928069551 178.43446759499082 67.84152678153741 192.32955832069135 53.45750178097617"/>
<polyline points="198.41333584107159 59.12950189351889 201.45522460126165 61.965501949790244"/>
<polyline points="201.45522460126165 61.965501949790244 204.49711336145168 64.80150200606167"/>
<polyline points="195.3714470808815 56.29350183724749 186.2457808003112 47.78550166843339 192.3295583206914 53.45750178097614 198.8471135526604 59.800376513826876"/>
<polyline points="192.3295583206914 53.45750178097614 185.81200308872238 47.11462704812539"/>
<polyline points="192.3295583206914 53.45750178097614 185.81200308872238 47.11462704812539"/>
<polyline points="195.3714470808815 56.29350183724749 198.41333584107159 59.12950189351892"/>
<polyline points="194.93766936929256 55.62262721693961 188.42011413732362 49.27975248408885"/>
<polyline points="181.9025589053545 42.93687775123818 188.42011413732362 49.27975248408885"/>
<polyline points="181.9025589053545 42.93687775123818 175.3850036733855 36.59400301838745"/>
<polyline points="175.81499380426675 23.05911578525608 182.76253916711696 15.867103284975522"/>
<polyline points="189.71008452996728 8.675090784694891 196.65762989281754 1.4830782844142218"/>
<polyline points="189.71008452996728 8.675090784694891 196.65762989281754 1.4830782844142218"/>
<polyline points="206.64706401585786 -2.8729341595949793 209.688952776048 -0.0369341033236266"/>
<polyline points="212.73084153623807 2.7990659529477284 232.2835072321451 21.82769015149994 219.24839676820713 9.141940685798502"/>
<polyline points="225.33217428858728 14.813940798341248 228.37406304877737 17.64994085461268"/>
<polyline points="228.37406304877737 17.64994085461268 231.4159518089675 20.485940910884025"/>
<polyline points="235.32539599233527 24.663690207771293 241.8429512243043 31.00656494062199"/>
<polyline points="241.8429512243043 31.00656494062199 248.36050645627336 37.34943967347269"/>
<polyline points="248.36050645627336 37.34943967347269 254.87806168824238 43.69231440632335"/>
<polyline points="264.4375056804015 52.871189195445474 267.47939444059153 55.70718925171691"/>
<polyline points="228.8078407603662 18.320815474920593 219.68217447979592 9.812815306106417 225.76595200017613 15.484815418649202"/>
<polyline points="238.80106246411415 28.170564884350604 245.31861769608327 34.51343961720127"/>
<polyline points="245.31861769608327 34.51343961720127 251.8361729280523 40.85631435005197"/>
<polyline points="226.199729711765 16.15569003895708 223.15784095157485 13.31968998268569"/>
<polyline points="223.15784095157485 13.31968998268569 220.1159521913848 10.4836899264143"/>
<polyline points="216.20650800801704 6.305940629527034 209.68895277604793 -0.036934103323589"/>
<polyline points="209.68895277604793 -0.036934103323589 203.171397544079 -6.379808836174329"/>
<polyline points="222.72406323998604 12.64881536237781 242.27672893589315 31.677439560929873 229.24161847195506 18.991690095228506"/>
<polyline points="215.3465277462545 33.37571509578974 208.39898238340425 40.56772759607036"/>
<polyline points="208.39898238340425 40.56772759607036 201.45143702055398 47.75974009635095"/>
<polyline points="222.29407310910477 26.183702595509136 243.13670919765565 4.607665094667247 229.24161847195506 18.991690095228506"/>
<polyline points="229.24161847195506 18.991690095228506 232.2835072321452 21.827690151499862"/>
<polyline points="229.24161847195506 18.991690095228506 226.19972971176492 16.15569003895712"/>
<polyline points="229.24161847195506 18.991690095228506 226.19972971176492 16.15569003895712"/>
<polyline points="222.29407310910477 26.183702595509136 215.3465277462545 33.37571509578974"/>
<polyline points="205.35709362321418 37.73172753979894 202.315204863024 34.89572748352759"/>
<polyline points="199.273316102834 32.059727427256114 202.315204863024 34.89572748352759"/>
<polyline points="199.273316102834 32.059727427256114 196.23142734264385 29.22372737098477"/>
<polyline points="186.67198335048474 20.044852581862635 180.1544281185157 13.701977849011936"/>
<polyline points="173.63687288654666 7.359103116161272 167.11931765457763 1.0162283833105727"/>
<polyline points="173.63687288654666 7.359103116161272 167.11931765457763 1.0162283833105727"/>
<polyline points="153.65421705975834 1.865366150740466 146.7066716969081 9.057378651021079"/>
<polyline points="139.75912633405784 16.249391151301708 148.88479261462817 24.757391320115925 142.80101509424793 19.085391207573117"/>
<polyline points="128.9059243685474 33.46941620813436 121.95837900569711 40.66142870841499"/>
<polyline points="121.95837900569711 40.66142870841499 115.01083364284689 47.85344120869562"/>
<polyline points="141.93724725177785 31.949403820396544 144.97913601196797 34.78540387666791"/>
<polyline points="144.97913601196797 34.78540387666791 148.02102477215809 37.621403932939316"/>
<polyline points="148.02102477215809 37.621403932939316 151.06291353234815 40.457403989210725"/>
<polyline points="147.15725692968803 50.485416545762725 140.2097115668378 57.677429046043365"/>
<polyline points="138.89535849158773 29.11340376412518 159.73799458013852 7.537366263283267 145.842903854438 21.921391263844516"/>
<polyline points="151.92668137481826 27.593391376387295 154.96857013500832 30.42939143265868"/>
<polyline points="154.96857013500832 30.42939143265868 158.01045889519847 33.26539148893007"/>
<polyline points="162.7798833403286 10.373366319554679 169.7274287031789 3.181353819274047"/>
<polyline points="169.7274287031789 3.181353819274047 176.6749740660292 -4.010658681006623"/>
<polyline points="162.7798833403286 10.373366319554679 169.7274287031789 3.181353819274047"/>
<polyline points="179.71686282621928 -1.1746586247351918 182.7587515864094 1.6613414315361605"/>
<polyline points="148.8847926146281 24.757391320115925 139.75912633405775 16.24939115130175 145.842903854438 21.921391263844516"/>
<polyline points="159.73799458013852 7.537366263283232 166.6855399429888 0.3453537630026198"/>
<polyline points="166.6855399429888 0.3453537630026198 173.63308530583905 -6.846658737277974"/>
<polyline points="146.70667169690802 9.057378651021137 143.6647829367179 6.221378594749745"/>
<polyline points="143.6647829367179 6.221378594749745 140.62289417652775 3.385378538478374"/>
<polyline points="146.70667169690802 9.057378651021137 143.6647829367179 6.221378594749745"/>
<polyline points="147.57043953937801 -3.806633961802257 154.51798490222828 -10.998646462082865"/>
<polyline points="154.51798490222828 -10.998646462082865 147.57043953937801 -3.8066339618022362"/>
<polyline points="152.79044921728828 14.729378763563899 155.8323379774784 17.565378819835274"/>
<polyline points="152.79044921728828 14.729378763563899 155.8323379774784 17.565378819835274"/>
<polyline points="152.79044921728828 14.729378763563899 159.73799458013852 7.537366263283232"/>
<polyline points="169.72742870317884 3.1813538192740496 172.76931746336902 6.017353875545403"/>
<polyline points="175.81120622355917 8.853353931816791 172.76931746336902 6.017353875545403"/>
<polyline points="175.81120622355917 8.853353931816791 178.8530949837493 11.689353988088184"/>
<polyline points="175.37742851197032 8.182479311508873 168.85987328000135 1.839604578658136"/>
<polyline points="162.3423180480323 -4.5032701541925455 155.8247628160633 -10.846144887043245"/>
<polyline points="162.3423180480323 -4.5032701541925455 155.8247628160633 -10.846144887043245"/>
<polyline points="156.25475294694454 -24.38103212017458 163.20229830979477 -31.57304462045519"/>
<polyline points="170.149843672645 -38.765057120735825 189.70250936855214 -19.73643292218379 176.66739890461403 -32.42218238788514"/>
<polyline points="182.75117642499433 -26.75018227534237 185.79306518518445 -23.914182219070977"/>
<polyline points="185.79306518518445 -23.914182219070977 188.83495394537462 -21.078182162799592"/>
<polyline points="192.74439812874223 -16.900432865912364 199.26195336071123 -10.55755813306166"/>
<polyline points="199.26195336071126 -10.557558133061667 205.7795085926803 -4.214683400211"/>
<polyline points="192.74439812874223 -16.900432865912364 199.26195336071126 -10.557558133061667"/>
<polyline points="208.82139735287046 -1.3786833439396111 211.86328611306052 1.4573167123318171"/>
<polyline points="211.86328611306052 1.4573167123318171 208.82139735287046 -1.3786833439396111"/>
<polyline points="211.86328611306052 1.4573167123318171 214.9051748732507 4.293316768603206"/>
<polyline points="179.70928766480424 -29.586182331613745 173.19173243283515 -35.92905706446441"/>
<polyline points="186.22684289677326 -23.243307598763103 192.74439812874223 -16.900432865912364"/>
<polyline points="202.30384212090144 -7.721558076790311 205.34573088109155 -4.885558020518882"/>
<polyline points="208.38761964128173 -2.0495579642475317 205.34573088109155 -4.885558020518882"/>
<polyline points="208.38761964128173 -2.0495579642475317 211.4295084014718 0.7864420920238981"/>
<polyline points="221.41894252451223 -3.56957035198538 228.3664878873625 -10.76158285226601"/>
<polyline points="235.31403325021276 -17.95359535254664 242.261578613063 -25.145607852827272"/>
<polyline points="235.31403325021276 -17.95359535254664 242.261578613063 -25.145607852827272"/>
<polyline points="255.72667920788228 -25.994745620257238 262.2442344398513 -19.651870887406574"/>
<polyline points="262.2442344398513 -19.651870887406574 255.72667920788228 -25.994745620257238"/>
<polyline points="189.70250936855214 -19.73643292218379 196.2200646005211 -13.393558189333087"/>
<polyline points="196.2200646005211 -13.393558189333087 202.73761983249014 -7.050683456482389"/>
<polyline points="183.18495413658303 -26.07930765503446 163.632288440676 -45.107931853586535 176.66739890461403 -32.42218238788514"/>
<polyline points="162.7723081789135 -18.038157387323857 155.82476281606333 -10.846144887043245"/>
<polyline points="155.82476281606333 -10.846144887043245 148.87721745321306 -3.654132386762595"/>
<polyline points="169.7198535417638 -25.2301698876045 190.5624896303146 -46.80620738844642 176.66739890461403 -32.42218238788514"/>
<polyline points="169.7198535417638 -25.2301698876045 162.7723081789135 -18.038157387323857"/>
<polyline points="170.58362138423377 -38.09418250042791 167.54173262404368 -40.930182556699364"/>
<polyline points="167.54173262404368 -40.930182556699364 164.49984386385356 -43.766182612970724"/>
<polyline points="173.62551014442394 -35.258182444156546 182.7511764249943 -26.750182275342333 176.66739890461403 -32.42218238788514"/>
<polyline points="163.632288440676 -45.107931853586535 157.11473320870698 -51.45080658643724"/>
<polyline points="157.11473320870698 -51.45080658643724 150.59717797673795 -57.79368131928792"/>
<polyline points="170.149843672645 -38.765057120735825 189.70250936855214 -19.73643292218379 176.66739890461403 -32.42218238788514"/>
<polyline points="170.149843672645 -38.765057120735825 163.632288440676 -45.107931853586535"/>
<polyline points="170.149843672645 -38.765057120735825 163.632288440676 -45.107931853586535"/>
<polyline points="150.16718784585674 -44.2587940861566 143.21964248300648 -37.06678158587596"/>
<polyline points="176.66739890461403 -32.42218238788514 197.5100349931648 -53.998219888727 183.61494426746435 -39.61419488816576"/>
<polyline points="170.57983380352627 -52.299944353867176 164.06227857155721 -58.642819086717864"/>
<polyline points="164.06227857155721 -58.642819086717864 157.5447233395882 -64.98569381956854"/>
<polyline points="190.99247976119582 -60.34109462157774 197.94002512404606 -67.53310712185834"/>
<polyline points="197.94002512404606 -67.53310712185834 204.88757048689638 -74.72511962213899"/>
<polyline points="190.99247976119582 -60.34109462157774 197.94002512404606 -67.53310712185834"/>
<polyline points="198.3700152549273 -81.0679943549897 191.85246002295824 -87.41086908784033"/>
<polyline points="191.85246002295824 -87.41086908784033 198.3700152549273 -81.0679943549897"/>
<polyline points="177.09738903549527 -45.95706962101646 170.149843672645 -38.765057120735825"/>
<polyline points="177.09738903549527 -45.95706962101646 170.149843672645 -38.765057120735825"/>
<polyline points="177.09738903549527 -45.95706962101646 170.57983380352627 -52.299944353867176"/>
<polyline points="157.11473320870698 -51.45080658643724 150.16718784585674 -44.2587940861566"/>
<polyline points="143.21964248300648 -37.06678158587596 150.16718784585674 -44.2587940861566"/>
<polyline points="143.21964248300648 -37.06678158587596 136.2720971201562 -29.874769085595304"/>
<polyline points="126.28266299711584 -25.51875664158608 123.24077423692567 -28.354756697857475"/>
<polyline points="120.19888547673553 -31.19075675412887 117.15699671654545 -34.02675681040029"/>
<polyline points="120.19888547673553 -31.19075675412887 117.15699671654545 -34.02675681040029"/>
<polyline points="107.59755272438628 -43.20563159952236 101.07999749241725 -49.54850633237307"/>
<polyline points="94.56244226044826 -55.89138106522377 103.68810854101866 -47.383380896409584 97.6043310206384 -53.055381008952395"/>
<polyline points="83.70924029493787 -38.67135600839113 76.76169493208761 -31.479343508110503"/>
<polyline points="76.76169493208761 -31.479343508110503 69.81414956923734 -24.287331007829877"/>
<polyline points="96.74056317816836 -40.191368396128986 99.78245193835849 -37.35536833985758"/>
<polyline points="99.78245193835849 -37.35536833985758 102.82434069854861 -34.519368283586225"/>
<polyline points="96.74056317816836 -40.191368396128986 99.78245193835849 -37.35536833985758"/>
<polyline points="95.87679533569836 -27.327355783305592 88.9292499728481 -20.135343283024977"/>
<polyline points="88.9292499728481 -20.135343283024977 95.87679533569836 -27.327355783305592"/>
<polyline points="88.9292499728481 -20.135343283024977 81.98170460999783 -12.94333078274434"/>
<polyline points="90.65678565778813 -45.863368508671755 87.61489689759802 -48.69936856494312"/>
<polyline points="93.69867441797825 -43.02736845240036 96.74056317816836 -40.191368396128986"/>
<polyline points="92.83490657550824 -30.16335583957697 85.88736121265799 -22.971343339296343"/>
<polyline points="78.93981584980773 -15.779330839015723 85.88736121265799 -22.971343339296343"/>
<polyline points="78.93981584980773 -15.779330839015723 71.99227048695747 -8.587318338735084"/>
<polyline points="58.52716989213818 -7.738180571305153 52.009614660169156 -14.081055304155848"/>
<polyline points="45.492059428200115 -20.423930037006553 38.974504196231095 -26.766804769857256"/>
<polyline points="45.492059428200115 -20.423930037006553 38.974504196231095 -26.766804769857256"/>
<polyline points="35.49883772445219 -30.27367944643657 38.54072648464232 -27.437679390165176"/>
<polyline points="41.58261524483244 -24.601679333893813 38.54072648464232 -27.437679390165176"/>
<polyline points="41.58261524483244 -24.601679333893813 44.62450400502256 -21.765679277622418"/>
<polyline points="40.718847402362414 -11.737666721070426 33.77130203951216 -4.545654220789805"/>
<polyline points="97.6043310206384 -53.055381008952395 106.72999730120877 -44.54738084013823 100.64621978082852 -50.219380952681"/>
<polyline points="86.75112905512803 -35.835355952119734 79.80358369227771 -28.643343451839097"/>
<polyline points="79.80358369227771 -28.643343451839097 72.85603832942746 -21.451330951558464"/>
<polyline points="99.78245193835852 -37.35536833985762 102.82434069854862 -34.519368283586246"/>
<polyline points="102.82434069854862 -34.519368283586246 105.86622945873876 -31.683368227314844"/>
<polyline points="99.78245193835852 -37.35536833985762 102.82434069854862 -34.519368283586246"/>
<polyline points="98.91868409588852 -24.491355727034232 91.9711387330383 -17.299343226753585"/>
<polyline points="91.9711387330383 -17.299343226753585 98.91868409588852 -24.491355727034232"/>
<polyline points="93.69867441797827 -43.02736845240038 90.65678565778813 -45.863368508671755"/>
<polyline points="93.69867441797827 -43.02736845240038 90.65678565778813 -45.863368508671755"/>
<polyline points="93.69867441797827 -43.02736845240038 86.75112905512803 -35.835355952119734"/>
<polyline points="76.76169493208761 -31.479343508110503 73.71980617189749 -34.31534356438186"/>
<polyline points="70.67791741170733 -37.151343620653236 73.71980617189749 -34.31534356438186"/>
<polyline points="70.67791741170733 -37.151343620653236 67.63602865151722 -39.98734367692461"/>
<polyline points="58.076584659358055 -49.16621846604668 51.55902942738905 -55.50909319889741"/>
<polyline points="45.04147419542002 -61.8519679317481 38.52391896345101 -68.1948426645988"/>
<polyline points="45.04147419542002 -61.8519679317481 38.52391896345101 -68.1948426645988"/>
<polyline points="25.058818368631727 -67.34570489716886 18.11127300578147 -60.15369239688823"/>
<polyline points="11.163727642931212 -52.961679896607606 30.716393338838266 -33.93305569805548 17.68128287490023 -46.618805163756896"/>
<polyline points="11.597505354519969 -52.29080527629965 8.555616594329845 -55.12680533257102"/>
<polyline points="8.555616594329845 -55.12680533257102 5.513727834139705 -57.96280538884239"/>
<polyline points="27.67450457864814 -36.76905575432684 34.19205981061716 -30.426181021476122"/>
<polyline points="34.19205981061716 -30.426181021476122 40.70961504258617 -24.083306288625415"/>
<polyline points="27.67450457864814 -36.76905575432684 34.19205981061716 -30.426181021476122"/>
<polyline points="37.66772628239604 -26.919306344896803 34.62583752220593 -29.75530640116817"/>
<polyline points="34.62583752220593 -29.75530640116817 37.66772628239603 -26.9193063448968"/>
<polyline points="34.62583752220593 -29.75530640116817 31.583948762015787 -32.59130645743956"/>
<polyline points="14.639394114710107 -49.45480522002826 8.121838882741088 -55.79767995287898"/>
<polyline points="21.15694934667912 -43.11193048717755 27.67450457864814 -36.76905575432684"/>
<polyline points="31.150171050427023 -33.26218107774751 28.108282290236904 -36.09818113401889"/>
<polyline points="25.06639353004677 -38.934181190290275 28.108282290236904 -36.09818113401889"/>
<polyline points="25.06639353004677 -38.934181190290275 22.024504769856655 -41.77018124656164"/>
<polyline points="12.03507064681625 -37.414168802552396 5.087525283965973 -30.222156302271785"/>
<polyline points="-1.8600200788843042 -23.030143801991176 -8.807565441734562 -15.838131301710545"/>
<polyline points="-1.8600200788843042 -23.030143801991176 -8.807565441734562 -15.838131301710545"/>
<polyline points="-9.237555572615825 -2.303244068579223 -2.7200003406468047 4.03963066427149"/>
<polyline points="3.797554891322207 10.382505397122204 10.315110123291223 16.72538012997292"/>
<polyline points="3.797554891322207 10.382505397122204 10.315110123291223 16.72538012997292"/>
<polyline points="13.790776595070122 20.23225480655227 10.748887834880016 17.396254750280907"/>
<polyline points="17.68128287490023 -46.618805163756896 37.233948570807286 -27.590180965204766 24.19883810686925 -40.27593043090618"/>
<polyline points="18.115060586488987 -45.94793054344894 15.073171826298863 -48.7839305997203"/>
<polyline points="15.073171826298863 -48.7839305997203 12.031283066108726 -51.61993065599169"/>
<polyline points="34.19205981061716 -30.42618102147612 40.70961504258618 -24.083306288625405"/>
<polyline points="40.70961504258618 -24.083306288625405 47.2271702745552 -17.74043155577469"/>
<polyline points="34.19205981061716 -30.42618102147612 40.70961504258618 -24.083306288625405"/>
<polyline points="44.18528151436507 -20.576431612046054 41.14339275417497 -23.41243166831742"/>
<polyline points="41.14339275417497 -23.41243166831742 44.18528151436507 -20.576431612046054"/>
<polyline points="21.15694934667912 -43.11193048717755 14.63939411471011 -49.45480522002827"/>
<polyline points="21.15694934667912 -43.11193048717755 14.63939411471011 -49.45480522002827"/>
<polyline points="21.15694934667912 -43.11193048717755 18.115060586488987 -45.94793054344894"/>
<polyline points="8.555616594329853 -55.126805332571024 2.038061362360835 -61.46968006542172"/>
<polyline points="-4.479493869608179 -67.81255479827244 2.03806136236083 -61.46968006542172"/>
<polyline points="-4.479493869608179 -67.81255479827244 -10.997049101577197 -74.15542953112316"/>
<polyline points="-24.462149696396473 -73.30629176369324 -31.40969505924673 -66.1142792634126"/>
<polyline points="-38.357240422096986 -58.92226676313197 -45.30478578494724 -51.73025426285135"/>
<polyline points="-38.357240422096986 -58.92226676313197 -45.30478578494724 -51.73025426285135"/>
<polyline points="-55.29421990798765 -47.3742418188421 -58.33610866817777 -50.21024187511347"/>
<polyline points="-61.3779974283679 -53.046241931384856 -40.535361339817136 -74.62227943222673 -54.43045206551765 -60.238254431665474"/>
<polyline points="-67.46556252945567 -72.92400389736693 -73.98311776142471 -79.26687863021765"/>
<polyline points="-73.98311776142471 -79.26687863021765 -80.50067299339369 -85.60975336306836"/>
<polyline points="-47.0529165717861 -80.96515416507742 -40.105371208935814 -88.15716666535803"/>
<polyline points="-40.105371208935814 -88.15716666535803 -33.15782584608554 -95.34917916563865"/>
<polyline points="-47.0529165717861 -80.96515416507742 -40.105371208935814 -88.15716666535803"/>
<polyline points="-39.67538107805455 -101.69205389848932 -46.19293631002354 -108.0349286313401"/>
<polyline points="-46.19293631002354 -108.0349286313401 -39.67538107805455 -101.69205389848933"/>
<polyline points="-46.19293631002354 -108.0349286313401 -52.71049154199255 -114.37780336419081"/>
<polyline points="-60.948007297486676 -66.58112916451618 -67.89555266033695 -59.38911666423558"/>
<polyline points="-54.00046193463638 -73.77314166479682 -47.0529165717861 -80.96515416507742"/>
<polyline points="-46.62292644090483 -94.50004139820872 -53.140481672873825 -100.84291613105945"/>
<polyline points="-59.65803690484283 -107.1857908639102 -53.140481672873825 -100.84291613105945"/>
<polyline points="-59.65803690484283 -107.1857908639102 -66.17559213681183 -113.52866559676087"/>
<polyline points="-75.73503612897099 -122.70754038588302 -78.77692488916111 -125.54354044215438"/>
<polyline points="-81.81881364935123 -128.3795404984257 -84.8607024095414 -131.21554055469713"/>
<polyline points="-81.81881364935123 -128.3795404984257 -84.8607024095414 -131.21554055469713"/>
<polyline points="-80.95504580688126 -141.24355311124904 -74.007500444031 -148.43556561152968"/>
<polyline points="-67.05995508118068 -155.6275781118103 -64.01806632099057 -152.79157805553893"/>
<polyline points="-64.01806632099057 -152.79157805553893 -60.97617756080039 -149.95557799926752"/>
<polyline points="-64.45184403257926 -153.46245267584692 -70.96939926454827 -159.80532740869765"/>
<polyline points="-70.96939926454827 -159.80532740869765 -64.45184403257926 -153.46245267584692"/>
<polyline points="-64.01806632099057 -152.79157805553893 -60.97617756080039 -149.95557799926752"/>
<polyline points="-64.45184403257926 -153.46245267584692 -70.96939926454827 -159.80532740869765"/>
<polyline points="-70.96939926454827 -159.80532740869765 -64.45184403257926 -153.46245267584692"/>
<polyline points="-40.535361339817086 -74.62227943222669 -33.587815976966816 -81.8142919325073"/>
<polyline points="-33.587815976966816 -81.8142919325073 -26.640270614116528 -89.00630443278793"/>
<polyline points="-47.482906702667385 -67.4302669319461 -68.32554279121821 -45.85422943110426 -54.43045206551765 -60.238254431665474"/>
<polyline points="-48.346674545137404 -54.56625431912271 -45.30478578494724 -51.73025426285135"/>
<polyline points="-45.30478578494724 -51.73025426285135 -42.26289702475712 -48.89425420658"/>
<polyline points="-51.388563305327516 -57.40225437539408 -60.51422958589792 -65.91025454420821 -54.43045206551765 -60.238254431665474 -57.472340825707775 -63.07425448793683"/>
<polyline points="-41.395341601579645 -47.55250496596403 -34.877786369610654 -41.20963023311331"/>
<polyline points="-34.87778636961065 -41.20963023311332 -28.36023113764164 -34.8667555002626"/>
<polyline points="-47.91289683354866 -53.89537969881476 -67.46556252945565 -72.92400389736693 -54.43045206551768 -60.23825443166544"/>
<polyline points="-68.32554279121823 -45.854229431104244 -75.27308815406852 -38.662216930823625"/>
<polyline points="-75.27308815406852 -38.662216930823625 -82.22063351691881 -31.47020443054303"/>
<polyline points="-61.37799742836794 -53.04624193138485 -40.5353613398171 -74.62227943222668 -61.37799742836794 -53.04624193138485"/>
<polyline points="-60.51422958589792 -65.91025454420821 -63.55611834608806 -68.74625460047957"/>
<polyline points="-63.55611834608806 -68.74625460047957 -66.59800710627817 -71.58225465675098"/>
<polyline points="-57.47234082570778 -63.07425448793682 -48.34667454513743 -54.56625431912268 -54.43045206551768 -60.23825443166544"/>
<polyline points="-67.46556252945567 -72.92400389736693 -73.9831177614247 -79.26687863021765"/>
<polyline points="-73.9831177614247 -79.26687863021766 -80.50067299339369 -85.60975336306836"/>
<polyline points="-60.948007297486676 -66.58112916451618 -41.39534160157967 -47.552504965964005 -54.43045206551767 -60.23825443166546 -47.482906702667385 -67.4302669319461"/>
<polyline points="-54.43045206551767 -60.23825443166546 -61.37799742836794 -53.04624193138485"/>
<polyline points="-54.43045206551767 -60.23825443166546 -61.37799742836794 -53.04624193138485"/>
<polyline points="-60.948007297486654 -66.5811291645162 -67.46556252945565 -72.92400389736694"/>
<polyline points="-80.93066312427493 -72.07486612993708 -87.87820848712519 -64.88285362965645"/>
<polyline points="-94.8257538499755 -57.69084112937584 -87.87820848712519 -64.88285362965645"/>
<polyline points="-94.8257538499755 -57.69084112937584 -101.77329921282578 -50.49882862909523"/>
<polyline points="-111.7627333358662 -46.14281618508602 -114.8046220960563 -48.97881624135739"/>
<polyline points="-117.84651085624641 -51.814816297628745 -120.88839961643657 -54.65081635390013"/>
<polyline points="-117.84651085624641 -51.814816297628745 -120.88839961643657 -54.65081635390013"/>
<polyline points="-130.44784360859572 -63.82969114302228 -136.96539884056472 -70.17256587587302"/>
<polyline points="-143.4829540725337 -76.51544060872371 -122.64031798398283 -98.09147810956559 -136.53540870968342 -83.70745310900435"/>
<polyline points="-149.57051917362134 -96.39320257470587 -156.0880744055904 -102.73607730755658"/>
<polyline points="-156.0880744055904 -102.73607730755658 -162.60562963755936 -109.07895204040732"/>
<polyline points="-129.1578732159518 -104.43435284241635 -122.21032785310156 -111.6263653426969"/>
<polyline points="-122.21032785310156 -111.6263653426969 -115.2627824902513 -118.8183778429775"/>
<polyline points="-115.2627824902513 -118.8183778429775 -108.31523712740098 -126.01039034325812"/>
<polyline points="-107.88524699651965 -139.54527757638945 -114.40280222848867 -145.88815230924018"/>
<polyline points="-136.1054185788021 -97.24234034213566 -116.55275288289519 -78.2137161435834 -129.5878633468331 -90.89946560928493"/>
<polyline points="-115.69277262113249 -105.28349060984613 -108.74522725828221 -112.47550311012674"/>
<polyline points="-108.74522725828221 -112.47550311012674 -101.79768189543192 -119.66751561040732"/>
<polyline points="-109.60520752004484 -85.40572864386404 -103.08765228807586 -79.06285391101328"/>
<polyline points="-103.08765228807586 -79.06285391101328 -96.5700970561069 -72.71997917816252"/>
<polyline points="-130.01785347771445 -77.36457837615362 -136.96539884056477 -70.17256587587303"/>
<polyline points="-136.96539884056477 -70.17256587587303 -143.91294420341507 -62.98055337559241"/>
<polyline points="-123.07030811486413 -84.5565908764342 -102.22767202631324 -106.13262837727592 -116.12276275201383 -91.74860337671478"/>
<polyline points="-110.03898523163357 -86.07660326417204 -106.99709647144347 -83.2406032079006"/>
<polyline points="-106.99709647144347 -83.2406032079006 -103.95520771125332 -80.40460315162922"/>
<polyline points="-113.08087399182371 -88.9126033204434 -122.20654027239414 -97.4206034892575 -116.12276275201383 -91.74860337671478"/>
<polyline points="-116.12276275201383 -91.74860337671478 -122.64031798398281 -98.09147810956553"/>
<polyline points="-116.12276275201383 -91.74860337671478 -109.60520752004486 -85.40572864386402"/>
<polyline points="-116.12276275201383 -91.74860337671478 -109.60520752004486 -85.40572864386402"/>
<polyline points="-113.08087399182371 -88.9126033204434 -110.03898523163357 -86.07660326417204"/>
<polyline points="-100.47954123947449 -76.89772847504986 -93.96198600750552 -70.55485374219911"/>
<polyline points="-87.44443077553652 -64.21197900934837 -93.96198600750552 -70.55485374219911"/>
<polyline points="-87.44443077553652 -64.21197900934837 -80.92687554356756 -57.869104276497595"/>
<polyline points="-81.35686567444887 -44.334217043366294 -88.30441103729916 -37.14220454308571"/>
<polyline points="-95.25195640014947 -29.950192042805156 -102.19950176299977 -22.758179542524562"/>
<polyline points="-95.25195640014947 -29.950192042805156 -102.19950176299977 -22.758179542524562"/>
<polyline points="-106.10515836565999 -12.730166985972575 -103.06326960546981 -9.894166929701202"/>
<polyline points="-100.02138084527971 -7.05816687342983 -119.57404654118668 -26.086791071982063 -106.53893607724872 -13.401041606280566"/>
<polyline points="-100.45515855686851 -7.729041493737878 -97.41326979667836 -4.893041437466524"/>
<polyline points="-97.41326979667836 -4.893041437466524 -94.3713810364883 -2.057041381195132"/>
<polyline points="-116.53215778099658 -23.250791015710707 -123.04971301296557 -29.593665748561442"/>
<polyline points="-123.04971301296557 -29.593665748561442 -129.56726824493455 -35.93654048141219"/>
<polyline points="-129.56726824493455 -35.93654048141219 -136.0848234769035 -42.27941521426293"/>
<polyline points="-139.56048994868243 -45.78628989084235 -136.5186011884923 -42.950289834571"/>
<polyline points="-110.0146025490276 -16.90791628285997 -119.14026882959789 -25.415916451674036 -113.05649130921769 -19.743916339131324"/>
<polyline points="-126.09160177315569 -32.429665804832815 -132.60915700512467 -38.77254053768354"/>
<polyline points="-132.60915700512467 -38.77254053768354 -139.12671223709364 -45.11541527053431"/>
<polyline points="-125.65782406156687 -31.75879118452475 -128.69971282175698 -34.59479124079616"/>
<polyline points="-128.69971282175698 -34.59479124079616 -131.7416015819471 -37.43079129706748"/>
<polyline points="-125.65782406156687 -31.75879118452475 -128.69971282175698 -34.59479124079616"/>
<polyline points="-138.2591568139161 -43.77366602991825 -144.77671204588503 -50.11654076276897"/>
<polyline points="-119.57404654118668 -26.086791071982063 -100.02138084527974 -7.058166873429774 -113.0564913092177 -19.743916339131303"/>
<polyline points="-119.14026882959789 -25.415916451674036 -122.18215758978799 -28.25191650794537"/>
<polyline points="-122.18215758978799 -28.25191650794537 -125.22404634997812 -31.087916564216712"/>
<polyline points="-103.06326960546984 -9.89416692970111 -96.54571437350086 -3.551292196850353"/>
<polyline points="-96.54571437350086 -3.551292196850353 -90.02815914153189 2.7915825360004227"/>
<polyline points="-103.06326960546984 -9.89416692970111 -96.54571437350086 -3.551292196850353"/>
<polyline points="-93.07004790172198 -0.044417520270951 -96.11193666191207 -2.8804175765423237"/>
<polyline points="-96.11193666191207 -2.8804175765423237 -93.07004790172198 -0.044417520270951"/>
<polyline points="-116.09838006940784 -22.579916395402634 -122.61593530137677 -28.922791128253415"/>
<polyline points="-116.09838006940784 -22.579916395402634 -122.61593530137677 -28.922791128253415"/>
<polyline points="-116.09838006940784 -22.579916395402634 -119.14026882959789 -25.415916451674036"/>
<polyline points="-128.699712821757 -34.59479124079615 -135.21726805372597 -40.937665973646915"/>
<polyline points="-141.73482328569497 -47.28054070649768 -135.21726805372597 -40.937665973646915"/>
<polyline points="-141.73482328569497 -47.28054070649768 -148.25237851766394 -53.62341543934845"/>
<polyline points="-161.71747911248323 -52.77427767191864 -168.6650244753335 -45.582265171638014"/>
<polyline points="-175.61256983818384 -38.39025267135746 -182.5601152010342 -31.19824017107686"/>
<polyline points="-175.61256983818384 -38.39025267135746 -182.5601152010342 -31.19824017107686"/>
<polyline points="-192.54954932407455 -26.842227727067662 -195.59143808426475 -29.678227783338908"/>
<polyline points="-198.63332684445479 -32.51422783961033 -177.79069075590388 -54.09026534045204 -191.68578148160452 -39.7062403398909"/>
<polyline points="-204.72089194554252 -52.3919898055924 -211.23844717751155 -58.73486453844318"/>
<polyline points="-211.23844717751155 -58.73486453844318 -217.7560024094804 -65.07773927129399"/>
<polyline points="-184.3082459878729 -60.43314007330282 -177.36070062502256 -67.6251525735834"/>
<polyline points="-177.36070062502256 -67.6251525735834 -170.4131552621723 -74.81716507386403"/>
<polyline points="-184.3082459878729 -60.43314007330282 -177.36070062502256 -67.6251525735834"/>
<polyline points="-176.93071049414124 -81.16003980671476 -183.44826572611024 -87.5029145395656"/>
<polyline points="-183.44826572611024 -87.5029145395656 -176.93071049414124 -81.16003980671476"/>
<polyline points="-183.44826572611024 -87.5029145395656 -189.96582095807918 -93.84578927241638"/>
<polyline points="-198.2033367135735 -46.0491150727417 -205.15088207642378 -38.85710257246107"/>
<polyline points="-191.25579135072323 -53.241127573022254 -184.3082459878729 -60.43314007330282"/>
<polyline points="-183.87825585699156 -73.96802730643422 -190.39581108896053 -80.31090203928498"/>
<polyline points="-196.91336632092947 -86.65377677213577 -190.39581108896053 -80.31090203928498"/>
<polyline points="-196.91336632092947 -86.65377677213577 -203.43092155289844 -92.99665150498656"/>
<polyline points="-212.99036554505756 -102.17552629410858 -216.03225430524762 -105.01152635037997"/>
<polyline points="-219.07414306543777 -107.84752640665127 -222.1160318256278 -110.68352646292259"/>
<polyline points="-219.07414306543777 -107.84752640665127 -222.1160318256278 -110.68352646292259"/>
<polyline points="-218.21037522296757 -120.71153901947449 -211.2628298601173 -127.90355151975508"/>
<polyline points="-211.2628298601173 -127.90355151975508 -218.21037522296757 -120.71153901947449"/>
<polyline points="-177.79069075590388 -54.09026534045204 -170.8431453930536 -61.28227784073268"/>
<polyline points="-170.8431453930536 -61.28227784073268 -163.89560003020333 -68.47429034101323"/>
<polyline points="-184.73823611875426 -46.89825284017149 -205.5808722073051 -25.322215339329706 -191.68578148160452 -39.7062403398909"/>
<polyline points="-185.60200396122428 -34.03424022734818 -182.5601152010342 -31.19824017107686"/>
<polyline points="-182.5601152010342 -31.19824017107686 -179.51822644084405 -28.362240114805473"/>
<polyline points="-188.6438927214144 -36.87024028361954 -197.76955900198476 -45.378240452433566 -191.68578148160452 -39.7062403398909"/>
<polyline points="-188.6438927214144 -36.87024028361954 -185.60200396122428 -34.03424022734818"/>
<polyline points="-178.65067101766658 -27.020490874189335 -172.13311578569756 -20.67761614133864"/>
<polyline points="-172.13311578569756 -20.67761614133864 -165.6155605537286 -14.334741408487844"/>
<polyline points="-185.16822624963555 -33.36336560704011 -204.7208919455425 -52.39198980559245 -191.68578148160452 -39.7062403398909"/>
<polyline points="-205.5808722073051 -25.322215339329706 -212.5284175701554 -18.13020283904911"/>
<polyline points="-212.5284175701554 -18.13020283904911 -219.47596293300572 -10.93819033876855"/>
<polyline points="-198.63332684445479 -32.51422783961033 -177.79069075590388 -54.09026534045204 -191.68578148160452 -39.7062403398909"/>
<polyline points="-198.63332684445479 -32.51422783961033 -205.5808722073051 -25.322215339329706"/>
<polyline points="-198.63332684445479 -32.51422783961033 -205.5808722073051 -25.322215339329706"/>
<polyline points="-209.4865288099653 -15.294202782777791 -206.44464004977516 -12.458202726506398"/>
<polyline points="-191.68578148160452 -39.7062403398909 -200.8114477621749 -48.21424050870492 -194.7276702417946 -42.542240396162214"/>
<polyline points="-208.62276096749522 -28.158215395601093 -215.57030633034552 -20.96620289532046"/>
<polyline points="-215.57030633034552 -20.96620289532046 -222.5178516931958 -13.774190395039904"/>
<polyline points="-207.75899312502514 -41.02222800842436 -210.80088188521526 -43.858228064695666"/>
<polyline points="-210.80088188521526 -43.858228064695666 -213.84277064540538 -46.69422812096702"/>
<polyline points="-207.75899312502514 -41.02222800842436 -210.80088188521526 -43.858228064695666"/>
<polyline points="-220.79031600825567 -39.50221562068643 -227.73786137110605 -32.31020312040584"/>
<polyline points="-227.73786137110605 -32.31020312040584 -220.79031600825567 -39.50221562068643"/>
<polyline points="-201.67521560464496 -35.350227895881645 -198.63332684445479 -32.51422783961033"/>
<polyline points="-201.67521560464496 -35.350227895881645 -198.63332684445479 -32.51422783961033"/>
<polyline points="-201.67521560464496 -35.350227895881645 -208.62276096749522 -28.158215395601093"/>
<polyline points="-212.52841757015545 -18.130202839049108 -209.4865288099653 -15.294202782777791"/>
<polyline points="-206.44464004977516 -12.458202726506434 -209.4865288099653 -15.294202782777791"/>
<polyline points="-206.44464004977516 -12.458202726506434 -203.40275128958513 -9.622202670235081"/>
<polyline points="-193.843307297426 -0.4433278811129914 -187.32575206545698 5.899546851737784"/>
<polyline points="-180.80819683348804 12.242421584588524 -174.29064160151904 18.585296317439294"/>
<polyline points="-180.80819683348804 12.242421584588524 -174.29064160151904 18.585296317439294"/>
<polyline points="-174.72063173240036 32.12018355057065 -181.66817709525066 39.31219605085122"/>
<polyline points="-188.61572245810098 46.504208551131796 -208.1683881540079 27.47558435257953 -195.13327769006997 40.16133381828104"/>
<polyline points="-189.0495001696898 45.83333393082383 -186.0076114094997 48.66933398709516"/>
<polyline points="-186.0076114094997 48.66933398709516 -182.9657226493096 51.50533404336658"/>
<polyline points="-205.12649939381785 30.311584408850884 -211.6440546257868 23.968709676000106"/>
<polyline points="-211.6440546257868 23.968709676000106 -218.16160985775576 17.625834943149332"/>
<polyline points="-205.12649939381785 30.311584408850884 -211.6440546257868 23.968709676000106"/>
<polyline points="-215.11972109756567 20.461834999420763 -212.07783233737567 23.297835055692122"/>
<polyline points="-212.07783233737567 23.297835055692122 -215.11972109756567 20.461834999420763"/>
<polyline points="-212.07783233737567 23.297835055692122 -209.03594357718546 26.133835111963435"/>
<polyline points="-192.0913889298798 42.99733387455242 -185.57383369791086 49.34020860740318"/>
<polyline points="-198.60894416184885 36.654459141701665 -205.12649939381785 30.311584408850884"/>
<polyline points="-208.60216586559673 26.804709732271505 -205.56027710540673 29.640709788542893"/>
<polyline points="-202.5183883452165 32.47670984481421 -205.56027710540673 29.640709788542893"/>
<polyline points="-202.5183883452165 32.47670984481421 -199.47649958502646 35.31270990108557"/>
<polyline points="-203.38215618768666 45.34072245763753 -210.32970155053692 52.53273495791813"/>
<polyline points="-217.27724691338733 59.724747458198706 -224.2247922762376 66.91675995847928"/>
<polyline points="-217.27724691338733 59.724747458198706 -224.2247922762376 66.91675995847928"/>
<polyline points="-237.6898928710569 67.76589772590916 -244.20744810302594 61.423022993058375"/>
<polyline points="-250.72500333499494 55.0801482602076 -244.20744810302594 61.423022993058375"/>
<polyline points="-250.72500333499494 55.0801482602076 -257.2425585669638 48.73727352735679"/>
<polyline points="-260.71822503874273 45.23039885077738 -257.6763362785527 48.066398907048736"/>
<polyline points="-195.13327769006997 40.16133381828104 -214.68594338597697 21.13270961972876 -201.65083292203897 33.81845908543027"/>
<polyline points="-195.5670554016588 39.490459197973074 -192.52516664146864 42.32645925424437"/>
<polyline points="-192.52516664146864 42.32645925424437 -189.48327788127864 45.16245931051582"/>
<polyline points="-211.6440546257868 23.968709676000106 -218.16160985775576 17.625834943149332"/>
<polyline points="-218.16160985775576 17.625834943149332 -224.67916508972482 11.282960210298596"/>
<polyline points="-211.6440546257868 23.968709676000106 -218.16160985775576 17.625834943149332"/>
<polyline points="-221.63727632953473 14.118960266569992 -218.5953875693447 16.954960322841345"/>
<polyline points="-218.5953875693447 16.954960322841345 -221.63727632953473 14.118960266569992"/>
<polyline points="-198.60894416184885 36.654459141701665 -192.0913889298798 42.99733387455242"/>
<polyline points="-198.60894416184885 36.654459141701665 -192.0913889298798 42.99733387455242"/>
<polyline points="-198.60894416184885 36.654459141701665 -195.5670554016588 39.490459197973074"/>
<polyline points="-186.00761140949965 48.669333987095115 -179.4900561775307 55.01220871994592"/>
<polyline points="-172.97250094556176 61.355083452796734 -179.4900561775307 55.01220871994592"/>
<polyline points="-172.97250094556176 61.355083452796734 -166.45494571359274 67.6979581856475"/>
<polyline points="-166.88493584447406 81.23284541877881 -173.83248120732443 88.4248579190594"/>
<polyline points="-180.78002657017473 95.61687041934 -187.72757193302493 102.80888291962054"/>
<polyline points="-180.78002657017473 95.61687041934 -187.72757193302493 102.80888291962054"/>
<polyline points="-191.63322853568522 112.83689547617251 -188.5913397754951 115.67289553244386"/>
<polyline points="-185.54945101530507 118.50889558871529 -164.70681492675413 96.93285808787354 -178.60190565245475 111.31688308843466"/>
<polyline points="-165.56679518851678 124.00263255413621 -159.04923995654778 130.345507286987"/>
<polyline points="-159.04923995654778 130.345507286987 -152.53168472457878 136.68838201983775"/>
<polyline points="-158.1892596947851 103.27573282072426 -151.2417143319348 96.0837203204437"/>
<polyline points="-151.2417143319348 96.0837203204437 -144.29416896908447 88.8917078201631"/>
<polyline points="-158.1892596947851 103.27573282072426 -151.2417143319348 96.0837203204437"/>
<polyline points="-137.7766137371155 95.2345825530139 -131.25905850514656 101.5774572858647"/>
<polyline points="-131.25905850514656 101.5774572858647 -137.7766137371155 95.2345825530139"/>
<polyline points="-131.25905850514656 101.5774572858647 -124.74150327317753 107.92033201871543"/>
<polyline points="-172.08435042048575 117.65975782128545 -179.031895783336 124.85177032156604"/>
<polyline points="-165.13680505763546 110.46774532100486 -158.1892596947851 103.27573282072426"/>
<polyline points="-144.7241590999658 102.42659505329446 -138.20660386799682 108.76946978614527"/>
<polyline points="-131.68904863602785 115.11234451899603 -138.20660386799682 108.76946978614527"/>
<polyline points="-131.68904863602785 115.11234451899603 -125.17149340405888 121.4552192518468"/>
<polyline points="-115.6120494118998 130.63409404096893 -112.57016065170973 133.4700940972403"/>
<polyline points="-109.52827189151967 136.30609415351162 -106.48638313132957 139.142094209783"/>
<polyline points="-109.52827189151967 136.30609415351162 -106.48638313132957 139.142094209783"/>
<polyline points="-96.49694900828916 134.78608176577376 -89.54940364543884 127.59406926549322"/>
<polyline points="-82.60185828258854 120.40205676521259 -75.6543129197382 113.21004426493201"/>
<polyline points="-82.60185828258854 120.40205676521259 -75.6543129197382 113.21004426493201"/>
<polyline points="-62.18921232491898 112.36090649750224 -55.67165709294997 118.70378123035303"/>
<polyline points="-178.60190565245475 111.31688308843466 -157.75926956390376 89.74084558759297 -171.65436028960443 104.12487058815408"/>
<polyline points="-158.61924982566646 116.81062005385563 -152.1016945936975 123.1534947867064"/>
<polyline points="-152.1016945936975 123.1534947867064 -145.5841393617285 129.4963695195572"/>
<polyline points="-151.2417143319348 96.0837203204437 -144.29416896908447 88.8917078201631"/>
<polyline points="-144.29416896908447 88.8917078201631 -137.34662360623417 81.69969531988255"/>
<polyline points="-151.2417143319348 96.0837203204437 -144.29416896908447 88.8917078201631"/>
<polyline points="-130.8290683742652 88.04257005273331 -124.31151314229623 94.38544478558408"/>
<polyline points="-124.31151314229623 94.38544478558408 -130.8290683742652 88.04257005273331"/>
<polyline points="-165.13680505763546 110.46774532100486 -172.08435042048575 117.65975782128545"/>
<polyline points="-165.13680505763546 110.46774532100486 -172.08435042048575 117.65975782128545"/>
<polyline points="-165.13680505763546 110.46774532100486 -158.61924982566646 116.81062005385563"/>
<polyline points="-159.04923995654775 130.345507286987 -165.99678531939807 137.53751978726757"/>
<polyline points="-172.9443306822484 144.72953228754812 -165.99678531939807 137.53751978726757"/>
<polyline points="-172.9443306822484 144.72953228754812 -179.89187604509868 151.92154478782868"/>
<polyline points="-183.79753264775897 161.9495573443807 -180.75564388756894 164.78555740065204"/>
<polyline points="-177.71375512737885 167.62155745692337 -174.67186636718873 170.4575575131947"/>
<polyline points="-177.71375512737885 167.62155745692337 -174.67186636718873 170.4575575131947"/>
<polyline points="-165.11242237502967 179.6364323023168 -158.5948671430607 185.97930703516755"/>
<polyline points="-152.07731191109175 192.32218176801837 -161.202978191662 183.8141815992043 -155.11920067128185 189.48618171174704"/>
<polyline points="-169.0142913969824 203.87020671230817 -175.96183675983272 211.0622192125888"/>
<polyline points="-175.96183675983272 211.0622192125888 -182.90938212268304 218.25423171286937"/>
<polyline points="-168.1505235545123 191.00619409948487 -171.19241231470235 188.1701940432135"/>
<polyline points="-171.19241231470235 188.1701940432135 -174.23430107489244 185.33419398694218"/>
<polyline points="-168.1505235545123 191.00619409948487 -171.19241231470235 188.1701940432135"/>
<polyline points="-181.1818464377428 192.52620648722277 -188.12939180059305 199.71821898750326"/>
<polyline points="-188.12939180059305 199.71821898750326 -181.1818464377428 192.52620648722277"/>
<polyline points="-188.12939180059305 199.71821898750326 -195.07693716344332 206.91023148778385"/>
<polyline points="-162.0667460341321 196.6781942120276 -159.02485727394205 199.51419426829892"/>
<polyline points="-165.10863479432217 193.84219415575626 -168.1505235545123 191.00619409948487"/>
<polyline points="-178.13995767755262 195.36220654349404 -185.08750304040296 202.55421904377465"/>
<polyline points="-192.03504840325328 209.7462315440552 -185.08750304040296 202.55421904377465"/>
<polyline points="-192.03504840325328 209.7462315440552 -198.98259376610363 216.93824404433582"/>
<polyline points="-199.4125838969849 230.47313127746716 -192.89502866501596 236.81600601031795"/>
<polyline points="-186.37747343304693 243.15888074316868 -179.859918201078 249.50175547601947"/>
<polyline points="-186.37747343304693 243.15888074316868 -179.859918201078 249.50175547601947"/>
<polyline points="-176.38425172929902 253.00863015259893 -179.42614048948911 250.17263009632754"/>
</svg>