<svg baseProfile="full" fill-opacity="0.0" height="100%" stroke="black" stroke-width="1" version="1.1" viewBox="-260.7182250387423,-159.8053274086975,528.1976194793339,412.8139575612963" width="100%" xmlns="http://www.w3.org/2000/svg" xmlns:ev="http://www.w3.org/2001/xml-events" xmlns:xlink="http://www.w3.org/1999/xlink"><defs /><polyline points="114.134045859893,34.16605240052856 117.1759346200832,37.00205245679631" /><polyline points="120.2178233802733,39.83805251306781 123.2597121404634,42.67405256933912" /><polyline points="119.3540555378033,52.70206512589111 112.406510174953,59.89407762617172" /><polyline points="112.406510174953,59.89407762617172 92.85384447904592,40.86545342761958 105.888954942984,53.55120289332099" /><polyline points="119.7840456686845,39.16717789275973 126.7315910315347,31.97516539247912" /><polyline points="126.7315910315347,31.97516539247912 133.679136394385,24.78315289219849" /><polyline points="99.8013898418962,33.67344092733897 93.28383460992713,27.33056619448827" /><polyline points="93.28383460992713,27.33056619448827 86.76627937795814,20.98769146163752" /><polyline points="99.8013898418962,33.67344092733897 93.28383460992713,27.33056619448827" /><polyline points="93.71382474080832,13.79567896135693 100.6613701036586,6.603666461076287" /><polyline points="100.6613701036586,6.603666461076287 93.71382474080832,13.79567896135693" /><polyline points="112.8365003058342,46.3591903930404 119.3540555378033,52.70206512589109" /><polyline points="112.8365003058342,46.3591903930404 119.3540555378033,52.70206512589109" /><polyline points="112.8365003058342,46.3591903930404 119.7840456686845,39.16717789275973" /><polyline points="133.2491462635038,38.31804012532982 139.7667014954729,44.66091485818053" /><polyline points="146.2842567274419,51.00378959103128 139.7667014954729,44.66091485818053" /><polyline points="146.2842567274419,51.00378959103128 152.8018119594109,57.34666432388195" /><polyline points="162.36125595157,66.525539113004 165.4031447117601,69.36153916927535" /><polyline points="168.4450334719502,72.19753922554669 171.4869222321404,75.03353928181802" /><polyline points="168.4450334719502,72.19753922554669 171.4869222321404,75.03353928181802" /><polyline points="181.4763563551807,70.67752683780874 188.423901718031,63.48551433752811" /><polyline points="195.3714470808813,56.29350183724749 186.2457808003109,47.78550166843347 192.3295583206911,53.45750178097614" /><polyline points="205.3646687846292,66.14325124667761 211.8822240165982,72.48612597952824" /><polyline points="211.8822240165982,72.48612597952824 218.3997792485672,78.82900071237901" /><polyline points="192.7633360322799,54.12837640128414 189.7214472720897,51.29237634501274" /><polyline points="189.7214472720897,51.29237634501274 186.6795585118996,48.45637628874145" /><polyline points="192.7633360322799,54.12837640128414 189.7214472720897,51.29237634501274" /><polyline points="193.1971137438686,54.79925102159219 199.7146689758377,61.14212575444281" /><polyline points="199.7146689758377,61.14212575444281 193.1971137438686,54.79925102159219" /><polyline points="199.7146689758377,61.14212575444281 206.2322242078067,67.48500048729355" /><polyline points="198.8471135526602,59.80037651382683 201.8890023128502,62.63637657009819" /><polyline points="195.80522479247,56.96437645755552 192.7633360322799,54.12837640128414" /><polyline points="196.2390025040588,57.63525107786348 202.7565577360278,63.97812581071422" /><polyline points="209.2741129679968,70.32100054356489 202.7565577360278,63.97812581071422" /><polyline points="209.2741129679968,70.32100054356489 215.7916681999659,76.66387527641561" /><polyline points="229.2567687947852,75.8147375089857 236.2043141576354,68.62272500870507" /><polyline points="243.1518595204856,61.43071250842447 250.0994048833359,54.23870000814385" /><polyline points="243.1518595204856,61.43071250842447 250.0994048833359,54.23870000814385" /><polyline points="254.005061485996,44.21068745159183 250.9631727258059,41.37468739532046" /><polyline points="192.3295583206911,53.45750178097614 189.2876695605009,50.62150172470484" /><polyline points="189.2876695605009,50.62150172470484 186.2457808003109,47.78550166843342" /><polyline points="189.7214472720897,51.29237634501274 196.2390025040588,57.63525107786351" /><polyline points="196.2390025040588,57.63525107786351 189.7214472720897,51.29237634501274" /><polyline points="189.2876695605009,50.62150172470484 186.2457808003109,47.78550166843342" /><polyline points="189.7214472720897,51.29237634501274 196.2390025040588,57.63525107786351" /><polyline points="196.2390025040588,57.63525107786351 189.7214472720897,51.29237634501274" /><polyline points="205.3646687846292,66.14325124667761 211.8822240165982,72.48612597952824" /><polyline points="211.8822240165982,72.48612597952824 218.3997792485672,78.82900071237901" /><polyline points="198.8471135526602,59.80037651382683 179.294447856753,40.77175231527475 192.3295583206911,53.45750178097614" /><polyline points="178.4344675949906,67.8415267815374 171.4869222321404,75.03353928181802" /><polyline points="171.4869222321404,75.03353928181802 164.5393768692901,82.22555178209865" /><polyline points="185.3820129578409,60.64951428125673 206.2246490463916,39.07347678041494 192.3295583206911,53.45750178097614 199.2771036835413,46.2654892806955" /><polyline points="186.2457808003109,47.78550166843342 183.2038920401207,44.94950161216207" /><polyline points="183.2038920401207,44.94950161216207 180.1620032799306,42.11350155589071" /><polyline points="189.2876695605009,50.62150172470484 198.4133358410713,59.12950189351887 192.3295583206911,53.45750178097614" /><polyline points="179.294447856753,40.77175231527472 172.776892624784,34.42887758242401" /><polyline points="172.776892624784,34.42887758242401 166.259337392815,28.08600284957331" /><polyline points="185.812003088722,47.11462704812547 205.3646687846292,66.14325124667756 185.812003088722,47.11462704812547" /><polyline points="206.2246490463916,39.07347678041494 213.1721944092419,31.88146428013429" /><polyline points="213.1721944092419,31.88146428013429 220.1197397720921,24.68945177985371" /><polyline points="199.2771036835413,46.2654892806955 178.4344675949906,67.84152678153735 192.3295583206911,53.45750178097614" /><polyline points="198.4133358410713,59.12950189351887 201.4552246012615,61.96550194979025" /><polyline points="201.4552246012615,61.96550194979025 204.4971133614516,64.80150200606163" /><polyline points="195.3714470808813,56.29350183724749 186.2457808003109,47.78550166843338 192.3295583206911,53.45750178097614 198.8471135526601,59.80037651382685" /><polyline points="192.3295583206911,53.45750178097614 185.812003088722,47.11462704812547" /><polyline points="192.3295583206911,53.45750178097614 185.812003088722,47.11462704812547" /><polyline points="195.3714470808813,56.29350183724749 198.4133358410713,59.12950189351891" /><polyline points="194.9376693692924,55.62262721693956 188.4201141373234,49.27975248408885" /><polyline points="181.9025589053545,42.93687775123815 188.4201141373234,49.27975248408885" /><polyline points="181.9025589053545,42.93687775123815 175.3850036733854,36.59400301838743" /><polyline points="175.8149938042666,23.05911578525609 182.7625391671169,15.8671032849755" /><polyline points="189.7100845299671,8.67509078469487 196.6576298928174,1.483078284414242" /><polyline points="189.7100845299671,8.67509078469487 196.6576298928174,1.483078284414242" /><polyline points="206.6470640158579,-2.872934159595046 209.6889527760479,-0.03693410332359164" /><polyline points="212.730841536238,2.799065952947749 232.2835072321452,21.82769015149984 219.2483967682071,9.1419406857985" /><polyline points="225.3321742885873,14.81394079834129 228.3740630487774,17.64994085461263" /><polyline points="228.3740630487774,17.64994085461263 231.4159518089676,20.48594091088401" /><polyline points="235.3253959923352,24.66369020777127 241.8429512243043,31.00656494062194" /><polyline points="241.8429512243043,31.00656494062194 248.3605064562732,37.34943967347265" /><polyline points="248.3605064562732,37.34943967347265 254.8780616882423,43.69231440632336" /><polyline points="264.4375056804014,52.87118919544543 267.4793944405916,55.70718925171684" /><polyline points="228.8078407603663,18.32081547492055 219.6821744797959,9.812815306106378 225.7659520001761,15.48481541864918" /><polyline points="238.8010624641141,28.17056488435056 245.3186176960832,34.51343961720124" /><polyline points="245.3186176960832,34.51343961720124 251.8361729280522,40.85631435005192" /><polyline points="226.1997297117648,16.15569003895709 223.1578409515748,13.31968998268564" /><polyline points="223.1578409515748,13.31968998268564 220.1159521913845,10.48368992641434" /><polyline points="216.206508008017,6.305940629527083 209.6889527760479,-0.03693410332366755" /><polyline points="209.6889527760479,-0.03693410332366755 203.171397544079,-6.379808836174343" /><polyline points="222.7240632399859,12.64881536237784 242.276728935893,31.6774395609299 229.241618471955,18.99169009522851" /><polyline points="215.3465277462545,33.37571509578969 208.3989823834042,40.56772759607031" /><polyline points="208.3989823834042,40.56772759607031 201.451437020554,47.75974009635091" /><polyline points="222.2940731091047,26.1837025955091 243.1367091976554,4.607665094667292 229.241618471955,18.99169009522851" /><polyline points="229.241618471955,18.99169009522851 232.2835072321452,21.82769015149984" /><polyline points="229.241618471955,18.99169009522851 226.1997297117648,16.15569003895709" /><polyline points="229.241618471955,18.99169009522851 226.1997297117648,16.15569003895709" /><polyline points="222.2940731091047,26.1837025955091 215.3465277462545,33.37571509578969" /><polyline points="205.3570936232141,37.73172753979898 202.315204863024,34.89572748352752" /><polyline points="199.2733161028337,32.05972742725618 202.315204863024,34.89572748352752" /><polyline points="199.2733161028337,32.05972742725618 196.2314273426437,29.22372737098469" /><polyline points="186.6719833504845,20.04485258186268 180.1544281185155,13.70197784901197" /><polyline points="173.6368728865464,7.359103116161291 167.1193176545774,1.016228383310577" /><polyline points="173.6368728865464,7.359103116161291 167.1193176545774,1.016228383310577" /><polyline points="153.6542170597582,1.865366150740473 146.7066716969079,9.057378651021102" /><polyline points="139.7591263340577,16.24939115130173 148.8847926146281,24.75739132011589 142.8010150942478,19.08539120757312" /><polyline points="128.9059243685473,33.46941620813435 121.958379005697,40.661428708415" /><polyline points="121.958379005697,40.661428708415 115.0108336428468,47.85344120869559" /><polyline points="141.9372472517778,31.94940382039652 144.979136011968,34.78540387666786" /><polyline points="144.979136011968,34.78540387666786 148.0210247721581,37.62140393293929" /><polyline points="148.0210247721581,37.62140393293929 151.0629135323483,40.45740398921063" /><polyline points="147.1572569296882,50.48541654576268 140.2097115668379,57.67742904604331" /><polyline points="138.8953584915877,29.11340376412511 159.7379945801384,7.537366263283269 145.8429038544379,21.92139126384451" /><polyline points="151.9266813748182,27.59339137638722 154.9685701350084,30.42939143265864" /><polyline points="154.9685701350084,30.42939143265864 158.0104588951986,33.26539148893002" /><polyline points="162.7798833403286,10.37336631955464 169.7274287031789,3.181353819274036" /><polyline points="169.7274287031789,3.181353819274036 176.6749740660291,-4.01065868100663" /><polyline points="162.7798833403286,10.37336631955464 169.7274287031789,3.181353819274036" /><polyline points="179.7168628262193,-1.174658624735252 182.7587515864095,1.661341431536087" /><polyline points="148.8847926146281,24.75739132011585 139.7591263340576,16.24939115130177 145.8429038544379,21.92139126384451" /><polyline points="159.7379945801384,7.537366263283269 166.6855399429887,0.3453537630026584" /><polyline points="166.6855399429887,0.3453537630026584 173.6330853058389,-6.846658737278005" /><polyline points="146.7066716969079,9.057378651021121 143.6647829367177,6.221378594749744" /><polyline points="143.6647829367177,6.221378594749744 140.6228941765275,3.385378538478386" /><polyline points="146.7066716969079,9.057378651021121 143.6647829367177,6.221378594749744" /><polyline points="147.5704395393778,-3.806633961802243 154.517984902228,-10.99864646208285" /><polyline points="154.517984902228,-10.99864646208285 147.5704395393778,-3.806633961802243" /><polyline points="152.7904492172882,14.7293787635639 155.8323379774783,17.56537881983524" /><polyline points="152.7904492172882,14.7293787635639 155.8323379774783,17.56537881983524" /><polyline points="152.7904492172882,14.7293787635639 159.7379945801384,7.537366263283269" /><polyline points="169.7274287031789,3.181353819274036 172.769317463369,6.017353875545375" /><polyline points="175.8112062235591,8.85335393181679 172.769317463369,6.017353875545375" /><polyline points="175.8112062235591,8.85335393181679 178.8530949837493,11.68935398808817" /><polyline points="175.3774285119705,8.182479311508834 168.8598732800015,1.839604578658158" /><polyline points="162.3423180480325,-4.503270154192555 155.8247628160634,-10.84614488704327" /><polyline points="162.3423180480325,-4.503270154192555 155.8247628160634,-10.84614488704327" /><polyline points="156.2547529469447,-24.38103212017459 163.2022983097949,-31.57304462045521" /><polyline points="170.1498436726452,-38.76505712073585 189.7025093685522,-19.73643292218376 176.6673989046142,-32.42218238788515" /><polyline points="182.7511764249945,-26.75018227534236 185.7930651851847,-23.91418221907099" /><polyline points="185.7930651851847,-23.91418221907099 188.8349539453749,-21.07818216279961" /><polyline points="192.7443981287423,-16.90043286591239 199.2619533607114,-10.55755813306175" /><polyline points="199.2619533607114,-10.55755813306167 205.7795085926804,-4.214683400211035" /><polyline points="192.7443981287423,-16.90043286591239 199.2619533607114,-10.55755813306167" /><polyline points="208.8213973528706,-1.37868334393962 211.8632861130608,1.457316712331718" /><polyline points="211.8632861130608,1.457316712331718 208.8213973528706,-1.37868334393962" /><polyline points="211.8632861130608,1.457316712331718 214.9051748732509,4.293316768603134" /><polyline points="179.7092876648044,-29.58618233161377 173.1917324328354,-35.92905706446445" /><polyline points="186.2268428967734,-23.24330759876307 192.7443981287423,-16.90043286591239" /><polyline points="202.3038421209016,-7.721558076790298 205.3457308810918,-4.885558020518919" /><polyline points="208.3876196412819,-2.049557964247543 205.3457308810918,-4.885558020518919" /><polyline points="208.3876196412819,-2.049557964247543 211.4295084014722,0.7864420920237957" /><polyline points="221.4189425245126,-3.569570351985417 228.3664878873628,-10.76158285226604" /><polyline points="235.314033250213,-17.95359535254671 242.2615786130633,-25.1456078528273" /><polyline points="235.314033250213,-17.95359535254671 242.2615786130633,-25.1456078528273" /><polyline points="255.7266792078825,-25.99474562025732 262.2442344398515,-19.65187088740661" /><polyline points="262.2442344398515,-19.65187088740661 255.7266792078825,-25.99474562025732" /><polyline points="189.7025093685522,-19.73643292218376 196.2200646005212,-13.39355818933305" /><polyline points="196.2200646005212,-13.39355818933305 202.7376198324903,-7.050683456482449" /><polyline points="183.1849541365832,-26.07930765503446 163.6322884406761,-45.10793185358654 176.6673989046142,-32.42218238788515" /><polyline points="162.7723081789137,-18.0381573873239 155.8247628160634,-10.84614488704325" /><polyline points="155.8247628160634,-10.84614488704325 148.8772174532132,-3.654132386762623" /><polyline points="169.7198535417639,-25.23016988760449 190.5624896303147,-46.80620738844642 176.6673989046142,-32.42218238788515" /><polyline points="169.7198535417639,-25.23016988760449 162.7723081789137,-18.0381573873239" /><polyline points="170.5836213842338,-38.09418250042791 167.5417326240437,-40.93018255669934" /><polyline points="167.5417326240437,-40.93018255669934 164.4998438638535,-43.7661826129707" /><polyline points="173.625510144424,-35.25818244415655 182.7511764249945,-26.75018227534232 176.6673989046142,-32.42218238788515" /><polyline points="163.6322884406761,-45.10793185358654 157.1147332087071,-51.45080658643723" /><polyline points="157.1147332087071,-51.45080658643723 150.5971779767382,-57.79368131928788" /><polyline points="170.1498436726452,-38.76505712073585 189.7025093685522,-19.73643292218376 176.6673989046142,-32.42218238788515" /><polyline points="170.1498436726452,-38.76505712073585 163.6322884406761,-45.10793185358654" /><polyline points="170.1498436726452,-38.76505712073585 163.6322884406761,-45.10793185358654" /><polyline points="150.1671878458569,-44.25879408615658 143.2196424830066,-37.06678158587597" /><polyline points="176.6673989046142,-32.42218238788515 197.5100349931649,-53.99821988872699 183.6149442674644,-39.61419488816574" /><polyline points="170.5798338035264,-52.29994435386718 164.0622785715574,-58.64281908671786" /><polyline points="164.0622785715574,-58.64281908671786 157.5447233395884,-64.98569381956851" /><polyline points="190.9924797611959,-60.34109462157768 197.9400251240462,-67.53310712185832" /><polyline points="197.9400251240462,-67.53310712185832 204.8875704868964,-74.72511962213892" /><polyline points="190.9924797611959,-60.34109462157768 197.9400251240462,-67.53310712185832" /><polyline points="198.3700152549274,-81.06799435498964 191.8524600229584,-87.41086908784031" /><polyline points="191.8524600229584,-87.41086908784031 198.3700152549274,-81.06799435498964" /><polyline points="177.0973890354954,-45.95706962101643 170.1498436726452,-38.76505712073585" /><polyline points="177.0973890354954,-45.95706962101643 170.1498436726452,-38.76505712073585" /><polyline points="177.0973890354954,-45.95706962101643 170.5798338035264,-52.29994435386718" /><polyline points="157.1147332087071,-51.45080658643723 150.1671878458569,-44.25879408615658" /><polyline points="143.2196424830066,-37.06678158587597 150.1671878458569,-44.25879408615658" /><polyline points="143.2196424830066,-37.06678158587597 136.2720971201564,-29.87476908559535" /><polyline points="126.282662997116,-25.51875664158612 123.2407742369258,-28.35475669785751" /><polyline points="120.1988854767357,-31.19075675412891 117.1569967165455,-34.02675681040031" /><polyline points="120.1988854767357,-31.19075675412891 117.1569967165455,-34.02675681040031" /><polyline points="107.5975527243863,-43.20563159952236 101.0799974924173,-49.54850633237307" /><polyline points="94.56244226044834,-55.89138106522378 103.6881085410189,-47.38338089640955 97.60433102063848,-53.05538100895237" /><polyline points="83.70924029493798,-38.67135600839114 76.76169493208776,-31.47934350811049" /><polyline points="76.76169493208776,-31.47934350811049 69.81414956923749,-24.28733100782987" /><polyline points="96.74056317816854,-40.19136839612902 99.78245193835876,-37.35536833985762" /><polyline points="99.78245193835876,-37.35536833985762 102.8243406985489,-34.51936828358622" /><polyline points="96.74056317816854,-40.19136839612902 99.78245193835876,-37.35536833985762" /><polyline points="95.87679533569866,-27.32735578330561 88.92924997284845,-20.135343283025" /><polyline points="88.92924997284845,-20.135343283025 95.87679533569866,-27.32735578330561" /><polyline points="88.92924997284845,-20.135343283025 81.98170460999812,-12.94333078274435" /><polyline points="90.65678565778825,-45.86336850867175 87.61489689759803,-48.69936856494312" /><polyline points="93.69867441797842,-43.02736845240035 96.74056317816854,-40.19136839612902" /><polyline points="92.83490657550846,-30.163355839577 85.88736121265823,-22.97134333929636" /><polyline points="78.93981584980799,-15.77933083901575 85.88736121265823,-22.97134333929636" /><polyline points="78.93981584980799,-15.77933083901575 71.99227048695774,-8.58731833873513" /><polyline points="58.52716989213848,-7.738180571305187 52.00961466016945,-14.08105530415588" /><polyline points="45.49205942820043,-20.42393003700661 38.97450419623142,-26.76680476985728" /><polyline points="45.49205942820043,-20.42393003700661 38.97450419623142,-26.76680476985728" /><polyline points="35.49883772445262,-30.27367944643657 38.54072648464275,-27.43767939016524" /><polyline points="41.5826152448329,-24.60167933389388 38.54072648464274,-27.43767939016524" /><polyline points="41.5826152448329,-24.60167933389388 44.6245040050231,-21.76567927762248" /><polyline points="40.71884740236302,-11.73766672107046 33.77130203951277,-4.545654220789845" /><polyline points="97.60433102063848,-53.05538100895237 106.729997301209,-44.54738084013825 100.6462197808287,-50.21938095268094" /><polyline points="86.75112905512819,-35.83535595211973 79.80358369227794,-28.64334345183909" /><polyline points="79.80358369227794,-28.64334345183909 72.85603832942768,-21.45133095155848" /><polyline points="99.78245193835879,-37.35536833985766 102.8243406985489,-34.51936828358625" /><polyline points="102.8243406985489,-34.51936828358625 105.866229458739,-31.68336822731493" /><polyline points="99.78245193835879,-37.35536833985766 102.8243406985489,-34.51936828358625" /><polyline points="98.9186840958889,-24.49135572703424 91.97113873303864,-17.29934322675362" /><polyline points="91.97113873303864,-17.29934322675362 98.9186840958889,-24.49135572703424" /><polyline points="93.69867441797842,-43.02736845240035 90.65678565778825,-45.86336850867175" /><polyline points="93.69867441797842,-43.02736845240035 90.65678565778825,-45.86336850867175" /><polyline points="93.69867441797842,-43.02736845240035 86.75112905512819,-35.83535595211973" /><polyline points="76.76169493208776,-31.47934350811049 73.71980617189755,-34.31534356438185" /><polyline points="70.67791741170744,-37.15134362065321 73.71980617189755,-34.31534356438185" /><polyline points="70.67791741170744,-37.15134362065321 67.63602865151722,-39.9873436769246" /><polyline points="58.07658465935803,-49.16621846604665 51.55902942738904,-55.50909319889736" /><polyline points="45.04147419542005,-61.85196793174806 38.52391896345105,-68.19484266459877" /><polyline points="45.04147419542005,-61.85196793174806 38.52391896345105,-68.19484266459877" /><polyline points="25.05881836863179,-67.34570489716883 18.11127300578154,-60.1536923968882" /><polyline points="11.16372764293129,-52.96167989660758 30.71639333883829,-33.93305569805547 17.68128287490029,-46.61880516375689" /><polyline points="11.59750535451997,-52.29080527629959 8.555616594329786,-55.12680533257096" /><polyline points="8.555616594329786,-55.12680533257096 5.513727834139589,-57.96280538884238" /><polyline points="27.6745045786481,-36.76905575432686 34.1920598106171,-30.42618102147614" /><polyline points="34.1920598106171,-30.42618102147614 40.70961504258609,-24.08330628862543" /><polyline points="27.6745045786481,-36.76905575432686 34.1920598106171,-30.42618102147614" /><polyline points="37.66772628239598,-26.91930634489676 34.62583752220579,-29.75530640116813" /><polyline points="34.62583752220579,-29.75530640116813 37.66772628239598,-26.91930634489676" /><polyline points="34.62583752220579,-29.75530640116813 31.58394876201563,-32.59130645743952" /><polyline points="14.63939411471009,-49.45480522002827 8.121838882741095,-55.79767995287899" /><polyline points="21.15694934667908,-43.11193048717755 27.6745045786481,-36.76905575432686" /><polyline points="31.15017105042697,-33.26218107774746 28.10828229023679,-36.09818113401885" /><polyline points="25.06639353004662,-38.93418119029023 28.10828229023679,-36.09818113401885" /><polyline points="25.06639353004662,-38.93418119029023 22.02450476985651,-41.77018124656155" /><polyline points="12.03507064681605,-37.41416880255231 5.087525283965732,-30.22215630227177" /><polyline points="-1.860020078884516,-23.03014380199116 -8.807565441734768,-15.83813130171052" /><polyline points="-1.860020078884516,-23.03014380199116 -8.807565441734768,-15.83813130171052" /><polyline points="-9.237555572616017,-2.303244068579194 -2.720000340647015,4.039630664271519" /><polyline points="3.797554891321984,10.38250539712224 10.31511012329099,16.72538012997294" /><polyline points="3.797554891321984,10.38250539712224 10.31511012329099,16.72538012997294" /><polyline points="13.79077659506983,20.23225480655229 10.74888783487968,17.39625475028094" /><polyline points="17.68128287490029,-46.61880516375689 37.23394857080731,-27.59018096520476 24.1988381068693,-40.27593043090616" /><polyline points="18.11506058648897,-45.94793054344888 15.07317182629879,-48.78393059972028" /><polyline points="15.07317182629879,-48.78393059972028 12.0312830661086,-51.61993065599165" /><polyline points="34.1920598106171,-30.42618102147613 40.70961504258611,-24.08330628862543" /><polyline points="40.70961504258611,-24.08330628862543 47.2271702745551,-17.74043155577469" /><polyline points="34.1920598106171,-30.42618102147613 40.70961504258611,-24.08330628862543" /><polyline points="44.18528151436498,-20.57643161204602 41.14339275417481,-23.41243166831742" /><polyline points="41.14339275417481,-23.41243166831742 44.18528151436498,-20.57643161204602" /><polyline points="21.15694934667909,-43.11193048717756 14.63939411471009,-49.45480522002828" /><polyline points="21.15694934667909,-43.11193048717756 14.63939411471009,-49.45480522002828" /><polyline points="21.15694934667909,-43.11193048717756 18.11506058648897,-45.94793054344888" /><polyline points="8.555616594329791,-55.12680533257096 2.038061362360797,-61.46968006542168" /><polyline points="-4.479493869608207,-67.8125547982724 2.038061362360797,-61.46968006542168" /><polyline points="-4.479493869608207,-67.8125547982724 -10.9970491015772,-74.1554295311231" /><polyline points="-24.46214969639646,-73.30629176369318 -31.40969505924671,-66.11427926341254" /><polyline points="-38.35724042209696,-58.92226676313195 -45.30478578494721,-51.73025426285132" /><polyline points="-38.35724042209696,-58.92226676313195 -45.30478578494721,-51.73025426285132" /><polyline points="-55.29421990798765,-47.37424181884208 -58.33610866817778,-50.2102418751134" /><polyline points="-61.37799742836798,-53.0462419313848 -40.53536133981724,-74.62227943222666 -54.43045206551773,-60.23825443166542" /><polyline points="-67.46556252945571,-72.92400389736687 -73.98311776142472,-79.26687863021756" /><polyline points="-73.98311776142472,-79.26687863021756 -80.5006729933937,-85.60975336306828" /><polyline points="-47.05291657178618,-80.96515416507731 -40.10537120893591,-88.15716666535793" /><polyline points="-40.10537120893591,-88.15716666535793 -33.15782584608566,-95.34917916563856" /><polyline points="-47.05291657178618,-80.96515416507731 -40.10537120893591,-88.15716666535793" /><polyline points="-39.67538107805464,-101.6920538984893 -46.19293631002364,-108.03492863134" /><polyline points="-46.19293631002364,-108.03492863134 -39.67538107805465,-101.6920538984893" /><polyline points="-46.19293631002364,-108.03492863134 -52.71049154199263,-114.3778033641907" /><polyline points="-60.94800729748673,-66.58112916451614 -67.89555266033703,-59.38911666423555" /><polyline points="-54.00046193463648,-73.77314166479678 -47.05291657178618,-80.96515416507731" /><polyline points="-46.62292644090491,-94.50004139820865 -53.14048167287388,-100.8429161310594" /><polyline points="-59.65803690484288,-107.1857908639101 -53.14048167287388,-100.8429161310594" /><polyline points="-59.65803690484288,-107.1857908639101 -66.17559213681184,-113.5286655967608" /><polyline points="-75.73503612897103,-122.7075403858829 -78.77692488916124,-125.5435404421543" /><polyline points="-81.81881364935138,-128.3795404984256 -84.86070240954156,-131.215540554697" /><polyline points="-81.81881364935138,-128.3795404984256 -84.86070240954156,-131.215540554697" /><polyline points="-80.95504580688144,-141.243553111249 -74.0075004440312,-148.4355656115296" /><polyline points="-67.05995508118095,-155.6275781118102 -64.01806632099076,-152.7915780555388" /><polyline points="-64.01806632099076,-152.7915780555388 -60.97617756080054,-149.9555779992675" /><polyline points="-64.45184403257933,-153.4624526758468 -70.96939926454831,-159.8053274086975" /><polyline points="-70.96939926454831,-159.8053274086975 -64.45184403257933,-153.4624526758468" /><polyline points="-64.01806632099076,-152.7915780555388 -60.97617756080054,-149.9555779992675" /><polyline points="-64.45184403257933,-153.4624526758468 -70.96939926454831,-159.8053274086975" /><polyline points="-70.96939926454831,-159.8053274086975 -64.45184403257933,-153.4624526758468" /><polyline points="-40.53536133981716,-74.6222794322266 -33.58781597696692,-81.81429193250723" /><polyline points="-33.58781597696692,-81.81429193250723 -26.64027061411666,-89.00630443278783" /><polyline points="-47.48290670266747,-67.43026693194606 -68.32554279121827,-45.85422943110422 -54.43045206551773,-60.23825443166542" /><polyline points="-48.34667454513741,-54.56625431912271 -45.30478578494721,-51.73025426285132" /><polyline points="-45.30478578494721,-51.73025426285132 -42.26289702475703,-48.89425420657994" /><polyline points="-51.38856330532753,-57.40225437539405 -60.5142295858981,-65.91025454420817 -54.43045206551773,-60.23825443166542 -57.4723408257079,-63.07425448793678" /><polyline points="-41.39534160157976,-47.55250496596399 -34.87778636961078,-41.20963023311327" /><polyline points="-34.87778636961077,-41.20963023311327 -28.36023113764178,-34.86675550026255" /><polyline points="-47.91289683354875,-53.8953796988147 -67.46556252945571,-72.92400389736684 -54.43045206551775,-60.2382544316654" /><polyline points="-68.32554279121828,-45.85422943110421 -75.27308815406853,-38.66221693082356" /><polyline points="-75.27308815406853,-38.66221693082356 -82.22063351691885,-31.47020443054303" /><polyline points="-61.37799742836802,-53.04624193138483 -40.53536133981717,-74.62227943222658 -61.37799742836802,-53.04624193138483" /><polyline points="-60.51422958589811,-65.91025454420816 -63.55611834608822,-68.74625460047947" /><polyline points="-63.55611834608822,-68.74625460047947 -66.59800710627842,-71.58225465675089" /><polyline points="-57.47234082570791,-63.07425448793676 -48.34667454513744,-54.56625431912268 -54.43045206551775,-60.2382544316654" /><polyline points="-67.46556252945571,-72.92400389736684 -73.98311776142472,-79.26687863021756" /><polyline points="-73.98311776142472,-79.26687863021756 -80.50067299339369,-85.60975336306831" /><polyline points="-60.94800729748674,-66.58112916451611 -41.39534160157979,-47.55250496596395 -54.43045206551774,-60.23825443166542 -47.48290670266749,-67.43026693194602" /><polyline points="-54.43045206551774,-60.23825443166542 -61.37799742836802,-53.04624193138483" /><polyline points="-54.43045206551774,-60.23825443166542 -61.37799742836802,-53.04624193138483" /><polyline points="-60.94800729748673,-66.58112916451613 -67.4655625294557,-72.92400389736687" /><polyline points="-80.93066312427497,-72.074866129937 -87.87820848712522,-64.88285362965638" /><polyline points="-94.82575384997548,-57.69084112937578 -87.87820848712522,-64.88285362965638" /><polyline points="-94.82575384997548,-57.69084112937578 -101.7732992128258,-50.49882862909524" /><polyline points="-111.7627333358663,-46.14281618508598 -114.8046220960564,-48.97881624135731" /><polyline points="-117.8465108562466,-51.81481629762869 -120.8883996164367,-54.65081635390014" /><polyline points="-117.8465108562466,-51.81481629762869 -120.8883996164367,-54.65081635390014" /><polyline points="-130.4478436085959,-63.82969114302225 -136.9653988405649,-70.17256587587295" /><polyline points="-143.4829540725339,-76.51544060872364 -122.640317983983,-98.09147810956541 -136.5354087096835,-83.70745310900425" /><polyline points="-149.5705191736215,-96.39320257470577 -156.0880744055904,-102.7360773075565" /><polyline points="-156.0880744055904,-102.7360773075565 -162.6056296375594,-109.0789520404072" /><polyline points="-129.157873215952,-104.4343528424162 -122.2103278531017,-111.6263653426968" /><polyline points="-122.2103278531017,-111.6263653426968 -115.2627824902514,-118.8183778429774" /><polyline points="-115.2627824902514,-118.8183778429774 -108.3152371274011,-126.0103903432579" /><polyline points="-107.8852469965198,-139.5452775763893 -114.4028022284888,-145.8881523092401" /><polyline points="-136.1054185788022,-97.24234034213559 -116.5527528828954,-78.21371614358334 -129.5878633468333,-90.89946560928485" /><polyline points="-115.6927726211326,-105.283490609846 -108.7452272582824,-112.4755031101266" /><polyline points="-108.7452272582824,-112.4755031101266 -101.7976818954321,-119.6675156104072" /><polyline points="-109.605207520045,-85.40572864386392 -103.0876522880761,-79.06285391101318" /><polyline points="-103.0876522880761,-79.06285391101318 -96.57009705610712,-72.71997917816243" /><polyline points="-130.0178534777146,-77.36457837615353 -136.9653988405649,-70.17256587587295" /><polyline points="-136.9653988405649,-70.17256587587295 -143.9129442034152,-62.98055337559234" /><polyline points="-123.0703081148644,-84.55659087643413 -102.2276720263134,-106.1326283772758 -116.122762752014,-91.74860337671467" /><polyline points="-110.0389852316337,-86.07660326417198 -106.9970964714435,-83.24060320790056" /><polyline points="-106.9970964714435,-83.24060320790056 -103.9552077112534,-80.4046031516292" /><polyline points="-113.0808739918238,-88.91260332044324 -122.2065402723944,-97.42060348925743 -116.122762752014,-91.74860337671467" /><polyline points="-116.122762752014,-91.74860337671467 -122.640317983983,-98.0914781095654" /><polyline points="-116.122762752014,-91.74860337671467 -109.6052075200451,-85.4057286438639" /><polyline points="-116.122762752014,-91.74860337671467 -109.6052075200451,-85.4057286438639" /><polyline points="-113.0808739918238,-88.91260332044324 -110.0389852316337,-86.07660326417198" /><polyline points="-100.4795412394746,-76.89772847504982 -93.96198600750562,-70.55485374219904" /><polyline points="-87.44443077553665,-64.21197900934828 -93.96198600750562,-70.55485374219904" /><polyline points="-87.44443077553665,-64.21197900934828 -80.92687554356768,-57.86910427649755" /><polyline points="-81.35686567444903,-44.33421704336624 -88.30441103729926,-37.14220454308566" /><polyline points="-95.25195640014957,-29.95019204280505 -102.199501763,-22.75817954252448" /><polyline points="-95.25195640014957,-29.95019204280505 -102.199501763,-22.75817954252448" /><polyline points="-106.10515836566,-12.7301669859726 -103.0632696054698,-9.894166929701186" /><polyline points="-100.0213808452797,-7.05816687342979 -119.5740465411866,-26.08679107198206 -106.5389360772487,-13.40104160628048" /><polyline points="-100.4551585568684,-7.729041493737875 -97.41326979667821,-4.893041437466482" /><polyline points="-97.41326979667821,-4.893041437466482 -94.37138103648812,-2.057041381195138" /><polyline points="-116.5321577809965,-23.25079101571072 -123.0497130129655,-29.59366574856142" /><polyline points="-123.0497130129655,-29.59366574856142 -129.5672682449344,-35.93654048141215" /><polyline points="-129.5672682449344,-35.93654048141215 -136.0848234769034,-42.27941521426287" /><polyline points="-139.5604899486823,-45.78628989084232 -136.5186011884921,-42.95028983457099" /><polyline points="-110.0146025490275,-16.90791628285999 -119.1402688295979,-25.41591645167401 -113.0564913092176,-19.74391633913131" /><polyline points="-126.0916017731556,-32.42966580483278 -132.6091570051245,-38.77254053768352" /><polyline points="-132.6091570051245,-38.77254053768352 -139.1267122370935,-45.11541527053424" /><polyline points="-125.6578240615669,-31.75879118452476 -128.699712821757,-34.59479124079609" /><polyline points="-128.699712821757,-34.59479124079609 -131.7416015819472,-37.43079129706746" /><polyline points="-125.6578240615669,-31.75879118452476 -128.699712821757,-34.59479124079609" /><polyline points="-138.2591568139162,-43.7736660299182 -144.7767120458851,-50.11654076276897" /><polyline points="-119.5740465411866,-26.08679107198206 -100.0213808452797,-7.058166873429732 -113.0564913092176,-19.74391633913129" /><polyline points="-119.140268829598,-25.41591645167391 -122.1821575897881,-28.25191650794525" /><polyline points="-122.1821575897881,-28.25191650794525 -125.2240463499782,-31.08791656421669" /><polyline points="-103.0632696054699,-9.89416692970111 -96.54571437350094,-3.551292196850301" /><polyline points="-96.54571437350094,-3.551292196850301 -90.02815914153193,2.791582536000413" /><polyline points="-103.0632696054699,-9.89416692970111 -96.54571437350094,-3.551292196850301" /><polyline points="-93.070047901722,-0.04441752027094883 -96.11193666191222,-2.880417576542214" /><polyline points="-96.11193666191222,-2.880417576542214 -93.070047901722,-0.04441752027094883" /><polyline points="-116.0983800694078,-22.57991639540267 -122.6159353013768,-28.9227911282534" /><polyline points="-116.0983800694078,-22.57991639540267 -122.6159353013768,-28.9227911282534" /><polyline points="-116.0983800694078,-22.57991639540267 -119.140268829598,-25.41591645167391" /><polyline points="-128.699712821757,-34.59479124079609 -135.2172680537259,-40.93766597364684" /><polyline points="-141.734823285695,-47.28054070649757 -135.2172680537259,-40.93766597364684" /><polyline points="-141.734823285695,-47.28054070649757 -148.2523785176639,-53.62341543934836" /><polyline points="-161.7174791124832,-52.77427767191859 -168.6650244753335,-45.58226517163798" /><polyline points="-175.6125698381838,-38.39025267135742 -182.5601152010341,-31.19824017107683" /><polyline points="-175.6125698381838,-38.39025267135742 -182.5601152010341,-31.19824017107683" /><polyline points="-192.5495493240746,-26.84222772706751 -195.5914380842647,-29.67822778333896" /><polyline points="-198.6333268444549,-32.51422783961026 -177.790690755904,-54.09026534045201 -191.6857814816045,-39.70624033989082" /><polyline points="-204.7208919455425,-52.39198980559232 -211.2384471775114,-58.73486453844314" /><polyline points="-211.2384471775114,-58.73486453844314 -217.7560024094804,-65.0777392712939" /><polyline points="-184.308245987873,-60.43314007330275 -177.3607006250226,-67.62515257358326" /><polyline points="-177.3607006250226,-67.62515257358326 -170.4131552621724,-74.81716507386395" /><polyline points="-184.308245987873,-60.43314007330275 -177.3607006250226,-67.62515257358326" /><polyline points="-176.9307104941414,-81.16003980671469 -183.4482657261103,-87.50291453956545" /><polyline points="-183.4482657261103,-87.50291453956545 -176.9307104941414,-81.16003980671469" /><polyline points="-183.4482657261103,-87.50291453956545 -189.9658209580793,-93.8457892724163" /><polyline points="-198.2033367135736,-46.04911507274153 -205.1508820764238,-38.85710257246098" /><polyline points="-191.2557913507233,-53.24112757302216 -184.308245987873,-60.43314007330275" /><polyline points="-183.8782558569916,-73.96802730643407 -190.3958110889605,-80.31090203928484" /><polyline points="-196.9133663209296,-86.65377677213567 -190.3958110889605,-80.31090203928484" /><polyline points="-196.9133663209296,-86.65377677213567 -203.4309215528985,-92.99665150498646" /><polyline points="-212.9903655450576,-102.1755262941086 -216.0322543052477,-105.0115263503799" /><polyline points="-219.0741430654378,-107.8475264066512 -222.1160318256279,-110.6835264629225" /><polyline points="-219.0741430654378,-107.8475264066512 -222.1160318256279,-110.6835264629225" /><polyline points="-218.2103752229678,-120.7115390194744 -211.2628298601175,-127.9035515197549" /><polyline points="-211.2628298601175,-127.9035515197549 -218.2103752229678,-120.7115390194744" /><polyline points="-177.790690755904,-54.09026534045201 -170.8431453930537,-61.28227784073255" /><polyline points="-170.8431453930537,-61.28227784073255 -163.8956000302034,-68.47429034101319" /><polyline points="-184.7382361187543,-46.89825284017144 -205.5808722073051,-25.32221533932974 -191.6857814816045,-39.70624033989082" /><polyline points="-185.6020039612243,-34.03424022734814 -182.5601152010341,-31.19824017107683" /><polyline points="-182.5601152010341,-31.19824017107683 -179.518226440844,-28.3622401148055" /><polyline points="-188.6438927214145,-36.87024028361947 -197.7695590019849,-45.3782404524335 -191.6857814816045,-39.70624033989082" /><polyline points="-188.6438927214145,-36.87024028361947 -185.6020039612243,-34.03424022734814" /><polyline points="-178.6506710176666,-27.02049087418928 -172.1331157856977,-20.67761614133848" /><polyline points="-172.1331157856977,-20.67761614133848 -165.6155605537287,-14.33474140848777" /><polyline points="-185.1682262496356,-33.36336560704002 -204.7208919455425,-52.39198980559232 -191.6857814816045,-39.70624033989082" /><polyline points="-205.5808722073051,-25.32221533932974 -212.5284175701554,-18.13020283904908" /><polyline points="-212.5284175701554,-18.13020283904908 -219.4759629330057,-10.93819033876849" /><polyline points="-198.6333268444549,-32.51422783961026 -177.790690755904,-54.09026534045201 -191.6857814816045,-39.70624033989082" /><polyline points="-198.6333268444549,-32.51422783961026 -205.5808722073051,-25.32221533932974" /><polyline points="-198.6333268444549,-32.51422783961026 -205.5808722073051,-25.32221533932974" /><polyline points="-209.4865288099653,-15.29420278277774 -206.4446400497752,-12.4582027265064" /><polyline points="-191.6857814816045,-39.70624033989082 -200.811447762175,-48.21424050870485 -194.7276702417948,-42.54224039616219" /><polyline points="-208.6227609674954,-28.15821539560097 -215.5703063303457,-20.96620289532038" /><polyline points="-215.5703063303457,-20.96620289532038 -222.517851693196,-13.77419039503986" /><polyline points="-207.7589931250253,-41.02222800842428 -210.8008818852154,-43.85822806469558" /><polyline points="-210.8008818852154,-43.85822806469558 -213.8427706454056,-46.69422812096694" /><polyline points="-207.7589931250253,-41.02222800842428 -210.8008818852154,-43.85822806469558" /><polyline points="-220.790316008256,-39.50221562068641 -227.7378613711062,-32.31020312040575" /><polyline points="-227.7378613711062,-32.31020312040575 -220.7903160082559,-39.50221562068633" /><polyline points="-201.675215604645,-35.35022789588152 -198.6333268444549,-32.51422783961026" /><polyline points="-201.675215604645,-35.35022789588152 -198.6333268444549,-32.51422783961026" /><polyline points="-201.675215604645,-35.35022789588152 -208.6227609674954,-28.15821539560097" /><polyline points="-212.5284175701554,-18.13020283904912 -209.4865288099653,-15.29420278277774" /><polyline points="-206.4446400497752,-12.4582027265064 -209.4865288099653,-15.29420278277774" /><polyline points="-206.4446400497752,-12.4582027265064 -203.402751289585,-9.622202670235094" /><polyline points="-193.8433072974259,-0.4433278811129257 -187.3257520654569,5.89954685173779" /><polyline points="-180.808196833488,12.24242158458854 -174.290641601519,18.58529631743933" /><polyline points="-180.808196833488,12.24242158458854 -174.290641601519,18.58529631743933" /><polyline points="-174.7206317324004,32.12018355057065 -181.6681770952506,39.31219605085126" /><polyline points="-188.6157224581009,46.50420855113187 -208.1683881540078,27.47558435257953 -195.1332776900699,40.16133381828107" /><polyline points="-189.0495001696896,45.83333393082379 -186.0076114094995,48.66933398709515" /><polyline points="-186.0076114094995,48.66933398709515 -182.9657226493094,51.50533404336647" /><polyline points="-205.1264993938177,30.31158440885087 -211.6440546257867,23.9687096760002" /><polyline points="-211.6440546257867,23.9687096760002 -218.1616098577556,17.62583494314933" /><polyline points="-205.1264993938177,30.31158440885087 -211.6440546257867,23.9687096760002" /><polyline points="-215.1197210975655,20.46183499942071 -212.0778323373753,23.29783505569205" /><polyline points="-212.0778323373753,23.29783505569205 -215.1197210975655,20.46183499942071" /><polyline points="-212.0778323373753,23.29783505569205 -209.0359435771853,26.13383511196343" /><polyline points="-192.0913889298797,42.99733387455238 -185.5738336979109,49.34020860740323" /><polyline points="-198.6089441618487,36.65445914170165 -205.1264993938177,30.31158440885087" /><polyline points="-208.6021658655965,26.80470973227146 -205.5602771054064,29.64070978854284" /><polyline points="-202.5183883452163,32.47670984481418 -205.5602771054064,29.64070978854284" /><polyline points="-202.5183883452163,32.47670984481418 -199.4764995850261,35.31270990108555" /><polyline points="-203.3821561876863,45.34072245763748 -210.3297015505366,52.53273495791809" /><polyline points="-217.2772469133869,59.72474745819871 -224.2247922762372,66.91675995847923" /><polyline points="-217.2772469133869,59.72474745819871 -224.2247922762372,66.91675995847923" /><polyline points="-237.6898928710565,67.76589772590899 -244.2074481030254,61.42302299305816" /><polyline points="-250.7250033349944,55.08014826020746 -244.2074481030254,61.42302299305816" /><polyline points="-250.7250033349944,55.08014826020746 -257.2425585669634,48.7372735273567" /><polyline points="-260.7182250387423,45.23039885077722 -257.6763362785521,48.06639890704849" /><polyline points="-195.1332776900699,40.16133381828107 -214.6859433859768,21.13270961972881 -201.6508329220388,33.81845908543028" /><polyline points="-195.5670554016585,39.49045919797301 -192.5251666414685,42.32645925424438" /><polyline points="-192.5251666414685,42.32645925424438 -189.4832778812784,45.16245931051571" /><polyline points="-211.6440546257867,23.9687096760002 -218.1616098577556,17.62583494314936" /><polyline points="-218.1616098577556,17.62583494314936 -224.6791650897245,11.2829602102985" /><polyline points="-211.6440546257867,23.9687096760002 -218.1616098577556,17.62583494314936" /><polyline points="-221.6372763295344,14.11896026656992 -218.5953875693443,16.95496032284126" /><polyline points="-218.5953875693443,16.95496032284126 -221.6372763295344,14.11896026656992" /><polyline points="-198.6089441618487,36.65445914170165 -192.0913889298797,42.99733387455238" /><polyline points="-198.6089441618487,36.65445914170165 -192.0913889298797,42.99733387455238" /><polyline points="-198.6089441618487,36.65445914170165 -195.5670554016585,39.49045919797301" /><polyline points="-186.0076114094995,48.66933398709515 -179.4900561775306,55.01220871994592" /><polyline points="-172.9725009455615,61.3550834527966 -179.4900561775306,55.01220871994592" /><polyline points="-172.9725009455615,61.3550834527966 -166.4549457135926,67.69795818564744" /><polyline points="-166.8849358444739,81.2328454187788 -173.8324812073243,88.42485791905936" /><polyline points="-180.7800265701746,95.61687041933993 -187.7275719330248,102.8088829196205" /><polyline points="-180.7800265701746,95.61687041933993 -187.7275719330248,102.8088829196205" /><polyline points="-191.633228535685,112.8368954761725 -188.5913397754949,115.6728955324438" /><polyline points="-185.5494510153048,118.5088955887152 -164.7068149267539,96.9328580878735 -178.6019056524545,111.3168830884346" /><polyline points="-165.5667951885165,124.0026325541361 -159.0492399565475,130.3455072869869" /><polyline points="-159.0492399565475,130.3455072869869 -152.5316847245786,136.6883820198377" /><polyline points="-158.1892596947848,103.2757328207242 -151.2417143319346,96.08372032044352" /><polyline points="-151.2417143319346,96.08372032044352 -144.2941689690842,88.89170782016302" /><polyline points="-158.1892596947848,103.2757328207242 -151.2417143319346,96.08372032044352" /><polyline points="-137.7766137371153,95.2345825530138 -131.2590585051464,101.5774572858646" /><polyline points="-131.2590585051464,101.5774572858646 -137.7766137371153,95.2345825530138" /><polyline points="-131.2590585051464,101.5774572858646 -124.7415032731774,107.9203320187153" /><polyline points="-172.0843504204855,117.6597578212853 -179.0318957833358,124.8517703215659" /><polyline points="-165.1368050576351,110.4677453210048 -158.1892596947848,103.2757328207242" /><polyline points="-144.7241590999656,102.4265950532943 -138.2066038679967,108.7694697861452" /><polyline points="-131.6890486360277,115.1123445189959 -138.2066038679967,108.7694697861452" /><polyline points="-131.6890486360277,115.1123445189959 -125.1714934040587,121.4552192518467" /><polyline points="-115.6120494118996,130.6340940409688 -112.5701606517095,133.4700940972402" /><polyline points="-109.5282718915193,136.3060941535115 -106.4863831313292,139.1420942097828" /><polyline points="-109.5282718915193,136.3060941535115 -106.4863831313292,139.1420942097828" /><polyline points="-96.49694900828878,134.7860817657736 -89.54940364543847,127.5940692654931" /><polyline points="-82.60185828258821,120.4020567652125 -75.65431291973789,113.2100442649319" /><polyline points="-82.60185828258821,120.4020567652125 -75.65431291973789,113.2100442649319" /><polyline points="-62.18921232491864,112.3609064975021 -55.67165709294964,118.7037812303529" /><polyline points="-178.6019056524545,111.3168830884346 -157.7592695639036,89.7408455875929 -171.6543602896042,104.1248705881541" /><polyline points="-158.6192498256661,116.8106200538556 -152.1016945936972,123.1534947867063" /><polyline points="-152.1016945936972,123.1534947867063 -145.5841393617282,129.4963695195571" /><polyline points="-151.2417143319346,96.08372032044352 -144.2941689690842,88.89170782016302" /><polyline points="-144.2941689690842,88.89170782016302 -137.3466236062339,81.69969531988251" /><polyline points="-151.2417143319346,96.08372032044352 -144.2941689690842,88.89170782016302" /><polyline points="-130.8290683742649,88.04257005273327 -124.311513142296,94.38544478558408" /><polyline points="-124.311513142296,94.38544478558408 -130.8290683742649,88.04257005273327" /><polyline points="-165.1368050576351,110.4677453210048 -172.0843504204855,117.6597578212853" /><polyline points="-165.1368050576351,110.4677453210048 -172.0843504204855,117.6597578212853" /><polyline points="-165.1368050576351,110.4677453210048 -158.6192498256661,116.8106200538556" /><polyline points="-159.0492399565475,130.3455072869869 -165.9967853193978,137.5375197872674" /><polyline points="-172.9443306822481,144.729532287548 -165.9967853193978,137.5375197872674" /><polyline points="-172.9443306822481,144.729532287548 -179.8918760450984,151.9215447878286" /><polyline points="-183.7975326477586,161.9495573443805 -180.7556438875686,164.7855574006518" /><polyline points="-177.7137551273784,167.6215574569232 -174.6718663671884,170.4575575131945" /><polyline points="-177.7137551273784,167.6215574569232 -174.6718663671884,170.4575575131945" /><polyline points="-165.1124223750293,179.6364323023166 -158.5948671430602,185.9793070351673" /><polyline points="-152.0773119110913,192.3221817680182 -161.2029781916617,183.8141815992041 -155.1192006712814,189.4861817117468" /><polyline points="-169.014291396982,203.870206712308 -175.9618367598322,211.0622192125885" /><polyline points="-175.9618367598322,211.0622192125885 -182.9093821226826,218.2542317128692" /><polyline points="-168.150523554512,191.0061940994847 -171.192412314702,188.1701940432134" /><polyline points="-171.192412314702,188.1701940432134 -174.2343010748922,185.334193986942" /><polyline points="-168.150523554512,191.0061940994847 -171.192412314702,188.1701940432134" /><polyline points="-181.1818464377425,192.5262064872225 -188.1293918005928,199.7182189875031" /><polyline points="-188.1293918005928,199.7182189875031 -181.1818464377425,192.5262064872225" /><polyline points="-188.1293918005928,199.7182189875031 -195.0769371634431,206.9102314877837" /><polyline points="-162.0667460341317,196.6781942120274 -159.0248572739416,199.5141942682988" /><polyline points="-165.1086347943219,193.8421941557561 -168.150523554512,191.0061940994847" /><polyline points="-178.1399576775524,195.3622065434939 -185.0875030404027,202.5542190437745" /><polyline points="-192.035048403253,209.746231544055 -185.0875030404027,202.5542190437745" /><polyline points="-192.035048403253,209.746231544055 -198.9825937661033,216.9382440443356" /><polyline points="-199.4125838969846,230.4731312774669 -192.8950286650156,236.8160060103176" /><polyline points="-186.3774734330466,243.1588807431685 -179.8599182010777,249.5017554760192" /><polyline points="-186.3774734330466,243.1588807431685 -179.8599182010777,249.5017554760192" /><polyline points="-176.3842517292989,253.0086301525988 -179.426140489489,250.1726300963275" /></svg>
