<svg viewBox="-1007.1279150291849 -694.5792391592986 2077.1416331920677 1494.8619487184042" xmlns="http://www.w3.org/2000/svg">
<style>
svg { stroke:black; stroke-width:2px; fill:none;}
</style>
<polyline points="108.90434680916105 453.86457836038636 13.521186432786104 451.39767115219627"/>
<polyline points="13.521186432786095 451.3976711521967 -81.86197394358891 448.93076394400765"/>
<polyline points="-81.86197394358891 448.93076394400765 -104.5402534128316 520.1879159503019"/>
<polyline points="-81.86197394358891 448.93076394400765 -104.54025341283159 520.1879159503019"/>
<polyline points="-81.86197394358891 448.93076394400765 -59.1836944743463 377.6736119377132"/>
<polyline points="-59.1836944743463 377.6736119377132 -36.505415005103636 306.4164599314188"/>
<polyline points="-36.505415005103636 306.4164599314188 58.87774537127137 308.8833671396078"/>
<polyline points="58.87774537127137 308.8833671396078 154.26090574764635 311.3502743477969"/>
<polyline points="154.26090574764635 311.3502743477969 58.87774537127137 308.8833671396078"/>
<polyline points="-36.505415005103636 306.4164599314188 -16.814088058204543 376.53302471305966"/>
<polyline points="-16.814088058204543 376.53302471305966 2.8772388886945155 446.64958949470036"/>
<polyline points="2.8772388886945155 446.64958949470036 -16.814088058204533 376.53302471305955"/>
<polyline points="2.8772388886945155 446.64958949470036 -92.50592148768044 444.1826822865113"/>
<polyline points="-92.50592148768044 444.1826822865113 -187.88908186405547 441.7157750783223"/>
<polyline points="-187.88908186405547 441.7157750783223 -168.19775491715643 511.83233985996316"/>
<polyline points="-187.88908186405547 441.7157750783223 -168.1977549171564 511.83233985996316"/>
<polyline points="-187.88908186405547 441.7157750783223 -207.58040881095454 371.5992102966814"/>
<polyline points="-207.58040881095454 371.5992102966814 -227.27173575785366 301.48264551504064"/>
<polyline points="-227.27173575785366 301.48264551504064 -131.8885753814787 303.94955272322966"/>
<polyline points="-131.8885753814787 303.94955272322966 -36.505415005103686 306.41645993141873"/>
<polyline points="-36.505415005103686 306.41645993141873 -16.814088058204547 376.5330247130595"/>
<polyline points="-36.505415005103686 306.41645993141873 -16.814088058204526 376.5330247130595"/>
<polyline points="-36.505415005103686 306.41645993141873 -56.19674195200284 236.299895149778"/>
<polyline points="-56.19674195200284 236.299895149778 -75.88806889890196 166.18333036813718"/>
<polyline points="-75.88806889890196 166.18333036813718 -53.20978942965928 94.92617836184266"/>
<polyline points="-53.20978942965928 94.92617836184266 -30.531509960416585 23.669026355548148"/>
<polyline points="-30.531509960416585 23.669026355548148 -53.20978942965927 94.92617836184272"/>
<polyline points="-75.88806889890196 166.18333036813718 19.495091477473004 168.6502375763263"/>
<polyline points="19.495091477473004 168.6502375763263 114.87825185384796 171.11714478451538"/>
<polyline points="114.87825185384796 171.11714478451538 92.19997238460529 242.37429679080992"/>
<polyline points="114.87825185384796 171.11714478451538 92.19997238460526 242.37429679080986"/>
<polyline points="114.87825185384796 171.11714478451538 137.5565313230907 99.85999277822077"/>
<polyline points="137.5565313230907 99.85999277822077 160.23481079233338 28.60284077192628"/>
<polyline points="160.23481079233338 28.60284077192628 179.9261377392325 98.71940555356711"/>
<polyline points="179.9261377392325 98.71940555356711 199.61746468613174 168.83597033520797"/>
<polyline points="199.61746468613174 168.83597033520797 179.9261377392326 98.71940555356711"/>
<polyline points="160.23481079233338 28.60284077192628 140.54348384543428 -41.513724009714494"/>
<polyline points="140.54348384543428 -41.513724009714494 120.85215689853506 -111.63028879135528"/>
<polyline points="120.85215689853506 -111.63028879135528 98.17387742929229 -40.373136785060794"/>
<polyline points="120.85215689853506 -111.63028879135528 98.17387742929229 -40.37313678506084"/>
<polyline points="120.85215689853506 -111.63028879135528 143.5304363677779 -182.88744079764973"/>
<polyline points="143.5304363677779 -182.88744079764973 166.20871583702066 -254.14459280394428"/>
<polyline points="166.20871583702066 -254.14459280394428 185.90004278391993 -184.0280280223035"/>
<polyline points="185.90004278391993 -184.0280280223035 205.59136973081917 -113.91146324066263"/>
<polyline points="205.59136973081917 -113.91146324066263 185.90004278391993 -184.0280280223035"/>
<polyline points="166.20871583702066 -254.14459280394428 70.82555546064575 -256.6115000121334"/>
<polyline points="70.82555546064575 -256.6115000121334 -24.55760491572917 -259.0784072203224"/>
<polyline points="-24.55760491572917 -259.0784072203224 70.82555546064572 -256.6115000121335"/>
<polyline points="-24.55760491572917 -259.0784072203224 -44.24893186262846 -329.19497200196315"/>
<polyline points="-44.24893186262846 -329.19497200196315 -63.94025880952775 -399.31153678360425"/>
<polyline points="-63.94025880952775 -399.31153678360425 -159.32341918590265 -401.77844399179315"/>
<polyline points="-63.94025880952775 -399.31153678360425 -159.32341918590265 -401.77844399179315"/>
<polyline points="-63.94025880952775 -399.31153678360425 31.442901566847148 -396.8446295754151"/>
<polyline points="31.442901566847148 -396.8446295754151 126.82606194322204 -394.377722367226"/>
<polyline points="126.82606194322204 -394.377722367226 146.51738889012142 -324.2611575855852"/>
<polyline points="146.51738889012142 -324.2611575855852 166.20871583702078 -254.14459280394442"/>
<polyline points="166.20871583702078 -254.14459280394442 143.5304363677779 -182.8874407976499"/>
<polyline points="166.20871583702078 -254.14459280394442 143.53043636777792 -182.8874407976499"/>
<polyline points="166.20871583702078 -254.14459280394442 188.88699530626363 -325.4017448102388"/>
<polyline points="188.88699530626363 -325.4017448102388 211.56527477550654 -396.6588968165333"/>
<polyline points="211.56527477550654 -396.6588968165333 191.87394782860707 -466.775461598174"/>
<polyline points="191.87394782860707 -466.775461598174 172.18262088170763 -536.892026379815"/>
<polyline points="172.18262088170763 -536.892026379815 191.87394782860707 -466.775461598174"/>
<polyline points="211.56527477550654 -396.6588968165333 306.9484351518815 -394.1919896083444"/>
<polyline points="306.9484351518815 -394.1919896083444 402.3315955282562 -391.7250824001556"/>
<polyline points="402.3315955282562 -391.7250824001556 306.9484351518814 -394.1919896083444"/>
<polyline points="402.3315955282562 -391.7250824001556 422.0229224751557 -321.6085176185147"/>
<polyline points="422.0229224751557 -321.6085176185147 441.7142494220551 -251.49195283687382"/>
<polyline points="441.7142494220551 -251.49195283687382 537.09740979843 -249.02504562868495"/>
<polyline points="441.7142494220551 -251.49195283687382 537.09740979843 -249.02504562868495"/>
<polyline points="441.7142494220551 -251.49195283687382 346.33108904568024 -253.95886004506272"/>
<polyline points="346.33108904568024 -253.95886004506272 250.9479286693054 -256.4257672532516"/>
<polyline points="250.9479286693054 -256.4257672532516 155.56476829293052 -258.89267446144044"/>
<polyline points="155.56476829293052 -258.89267446144044 60.18160791655562 -261.3595816696292"/>
<polyline points="60.18160791655562 -261.3595816696292 82.8598873857984 -332.6167336759237"/>
<polyline points="60.18160791655562 -261.3595816696292 82.85988738579836 -332.61673367592374"/>
<polyline points="60.18160791655562 -261.3595816696292 37.50332844731294 -190.10242966333485"/>
<polyline points="37.50332844731294 -190.10242966333485 14.825048978070198 -118.84527765704033"/>
<polyline points="14.825048978070198 -118.84527765704033 34.5163759249697 -48.728712875399566"/>
<polyline points="34.5163759249697 -48.728712875399566 54.20770287186919 21.387851906241263"/>
<polyline points="54.20770287186919 21.387851906241263 34.516375924969616 -48.72871287539959"/>
<polyline points="14.825048978070198 -118.84527765704033 34.516375924969644 -48.728712875399566"/>
<polyline points="34.516375924969644 -48.728712875399566 54.20770287186911 21.38785190624126"/>
<polyline points="54.20770287186911 21.38785190624126 149.59086324824398 23.85475911443009"/>
<polyline points="54.20770287186911 21.38785190624126 149.59086324824398 23.854759114430113"/>
<polyline points="54.20770287186911 21.38785190624126 -41.175457504505765 18.920944698052395"/>
<polyline points="-41.175457504505765 18.920944698052395 -136.55861788088066 16.45403748986352"/>
<polyline points="-136.55861788088066 16.45403748986352 -156.2499448277802 -53.66252729177713"/>
<polyline points="-156.2499448277802 -53.66252729177713 -175.94127177467965 -123.77909207341791"/>
<polyline points="-175.94127177467965 -123.77909207341791 -156.24994482778024 -53.66252729177718"/>
<polyline points="-136.55861788088066 16.45403748986352 -113.88033841163802 -54.80311451643108"/>
<polyline points="-113.88033841163802 -54.80311451643108 -91.20205894239542 -126.06026652272558"/>
<polyline points="-91.20205894239542 -126.06026652272558 -113.88033841163812 -54.80311451643102"/>
<polyline points="-91.20205894239542 -126.06026652272558 -71.5107319954959 -55.94370174108487"/>
<polyline points="-71.5107319954959 -55.94370174108487 -51.819405048596465 14.172863040555963"/>
<polyline points="-51.819405048596465 14.172863040555963 -29.141125579353776 -57.08428896573859"/>
<polyline points="-51.819405048596465 14.172863040555963 -29.141125579353833 -57.08428896573859"/>
<polyline points="-51.819405048596465 14.172863040555963 -74.4976845178391 85.43001504685057"/>
<polyline points="-74.4976845178391 85.43001504685057 -97.17596398708174 156.6871670531451"/>
<polyline points="-97.17596398708174 156.6871670531451 -119.85424345632433 227.94431905943975"/>
<polyline points="-119.85424345632433 227.94431905943975 -142.5325229255669 299.2014710657343"/>
<polyline points="-142.5325229255669 299.2014710657343 -237.91568330194178 296.7345638575455"/>
<polyline points="-142.5325229255669 299.2014710657343 -237.91568330194178 296.7345638575455"/>
<polyline points="-142.5325229255669 299.2014710657343 -47.14936254919198 301.66837827392317"/>
<polyline points="-47.14936254919198 301.66837827392317 48.233797827182904 304.1352854821119"/>
<polyline points="48.233797827182904 304.1352854821119 67.9251247740823 374.2518502637526"/>
<polyline points="67.9251247740823 374.2518502637526 87.61645172098171 444.3684150453935"/>
<polyline points="87.61645172098171 444.3684150453935 67.9251247740823 374.2518502637526"/>
<polyline points="48.233797827182904 304.1352854821119 28.542470880283553 234.0187207004711"/>
<polyline points="28.542470880283553 234.0187207004711 8.851143933384165 163.9021559188305"/>
<polyline points="8.851143933384165 163.9021559188305 31.529423402626836 92.64500391253594"/>
<polyline points="8.851143933384165 163.9021559188305 31.529423402626865 92.64500391253594"/>
<polyline points="8.851143933384165 163.9021559188305 -13.827135535858515 235.15930792512506"/>
<polyline points="-13.827135535858515 235.15930792512506 -36.50541500510122 306.4164599314196"/>
<polyline points="-36.50541500510122 306.4164599314196 -16.81408805820191 376.5330247130603"/>
<polyline points="-16.81408805820191 376.5330247130603 2.8772388886973546 446.6495894947011"/>
<polyline points="2.8772388886973546 446.6495894947011 -16.814088058201953 376.53302471306034"/>
<polyline points="-36.50541500510122 306.4164599314196 58.87774537127375 308.8833671396086"/>
<polyline points="58.87774537127375 308.8833671396086 154.26090574764865 311.3502743477976"/>
<polyline points="154.26090574764865 311.3502743477976 58.87774537127373 308.8833671396086"/>
<polyline points="154.26090574764865 311.3502743477976 134.56957880074933 241.23370956615688"/>
<polyline points="134.56957880074933 241.23370956615688 114.87825185385005 171.1171447845161"/>
<polyline points="114.87825185385005 171.1171447845161 210.261412230225 173.58405199270518"/>
<polyline points="114.87825185385005 171.1171447845161 210.26141223022498 173.58405199270518"/>
<polyline points="114.87825185385005 171.1171447845161 19.49509147747515 168.6502375763271"/>
<polyline points="19.49509147747515 168.6502375763271 -75.88806889889977 166.1833303681381"/>
<polyline points="-75.88806889889977 166.1833303681381 -56.19674195200049 236.2998951497788"/>
<polyline points="-56.19674195200049 236.2998951497788 -36.505415005101234 306.41645993141947"/>
<polyline points="-36.505415005101234 306.41645993141947 58.877745371273676 308.8833671396086"/>
<polyline points="-36.505415005101234 306.41645993141947 58.87774537127369 308.88336713960854"/>
<polyline points="-36.505415005101234 306.41645993141947 -131.8885753814761 303.9495527232304"/>
<polyline points="-131.8885753814761 303.9495527232304 -227.27173575785102 301.48264551504127"/>
<polyline points="-227.27173575785102 301.48264551504127 -249.95001522709381 372.73979752133596"/>
<polyline points="-249.95001522709381 372.73979752133596 -272.6282946963366 443.9969495276306"/>
<polyline points="-272.6282946963366 443.9969495276306 -249.95001522709381 372.739797521336"/>
<polyline points="-227.27173575785102 301.48264551504127 -207.58040881095164 371.5992102966819"/>
<polyline points="-207.58040881095164 371.5992102966819 -187.88908186405232 441.7157750783225"/>
<polyline points="-187.88908186405232 441.7157750783225 -165.21080239480958 370.4586230720278"/>
<polyline points="-187.88908186405232 441.7157750783225 -165.21080239480952 370.4586230720278"/>
<polyline points="-187.88908186405232 441.7157750783225 -210.56736133329503 512.9729270846171"/>
<polyline points="-210.56736133329503 512.9729270846171 -233.24564080253776 584.230079090912"/>
<polyline points="-233.24564080253776 584.230079090912 -137.86248042616285 586.6969862991009"/>
<polyline points="-137.86248042616285 586.6969862991009 -42.47932004978788 589.16389350729"/>
<polyline points="-42.47932004978788 589.16389350729 -137.86248042616288 586.6969862991009"/>
<polyline points="-233.24564080253776 584.230079090912 -328.6288011789126 581.7631718827229"/>
<polyline points="-328.6288011789126 581.7631718827229 -424.01196155528754 579.2962646745341"/>
<polyline points="-424.01196155528754 579.2962646745341 -401.333682086045 508.0391126682393"/>
<polyline points="-424.01196155528754 579.2962646745341 -401.33368208604503 508.0391126682391"/>
<polyline points="-424.01196155528754 579.2962646745341 -446.69024102453034 650.5534166808286"/>
<polyline points="-446.69024102453034 650.5534166808286 -469.36852049377296 721.8105686871234"/>
<polyline points="-469.36852049377296 721.8105686871234 -373.98536011739805 724.2774758953124"/>
<polyline points="-373.98536011739805 724.2774758953124 -278.6021997410231 726.7443831035016"/>
<polyline points="-278.6021997410231 726.7443831035016 -373.98536011739805 724.2774758953124"/>
<polyline points="-469.36852049377296 721.8105686871234 -489.05984744067223 651.6940039054829"/>
<polyline points="-489.05984744067223 651.6940039054829 -508.75117438757144 581.5774391238424"/>
<polyline points="-508.75117438757144 581.5774391238424 -489.05984744067223 651.6940039054829"/>
<polyline points="-508.75117438757144 581.5774391238424 -604.1343347639463 579.1105319156533"/>
<polyline points="-604.1343347639463 579.1105319156533 -699.5174951403213 576.6436247074643"/>
<polyline points="-699.5174951403213 576.6436247074643 -719.2088220872204 506.52705992582383"/>
<polyline points="-699.5174951403213 576.6436247074643 -719.2088220872206 506.52705992582383"/>
<polyline points="-699.5174951403213 576.6436247074643 -679.8261681934221 646.7601894891047"/>
<polyline points="-679.8261681934221 646.7601894891047 -660.134841246523 716.8767542707452"/>
<polyline points="-660.134841246523 716.8767542707452 -564.7516808701479 719.3436614789341"/>
<polyline points="-564.7516808701479 719.3436614789341 -469.3685204937729 721.8105686871234"/>
<polyline points="-469.3685204937729 721.8105686871234 -449.6771935468737 791.9271334687638"/>
<polyline points="-469.3685204937729 721.8105686871234 -449.6771935468737 791.9271334687638"/>
<polyline points="-469.3685204937729 721.8105686871234 -489.05984744067223 651.694003905483"/>
<polyline points="-489.05984744067223 651.694003905483 -508.75117438757144 581.5774391238426"/>
<polyline points="-508.75117438757144 581.5774391238426 -604.1343347639463 579.1105319156534"/>
<polyline points="-604.1343347639463 579.1105319156534 -699.5174951403213 576.6436247074643"/>
<polyline points="-699.5174951403213 576.6436247074643 -604.1343347639463 579.1105319156533"/>
<polyline points="-508.75117438757144 581.5774391238426 -531.429453856814 652.8345911301374"/>
<polyline points="-531.429453856814 652.8345911301374 -554.1077333260569 724.0917431364321"/>
<polyline points="-554.1077333260569 724.0917431364321 -531.4294538568139 652.8345911301374"/>
<polyline points="-554.1077333260569 724.0917431364321 -458.7245729496818 726.5586503446214"/>
<polyline points="-458.7245729496818 726.5586503446214 -363.3414125733069 729.0255575528107"/>
<polyline points="-363.3414125733069 729.0255575528107 -386.01969204254965 800.2827095591055"/>
<polyline points="-363.3414125733069 729.0255575528107 -386.01969204254965 800.2827095591055"/>
<polyline points="-363.3414125733069 729.0255575528107 -340.6631331040641 657.7684055465156"/>
<polyline points="-340.6631331040641 657.7684055465156 -317.9848536348214 586.5112535402209"/>
<polyline points="-317.9848536348214 586.5112535402209 -413.3680140111962 584.0443463320318"/>
<polyline points="-413.3680140111962 584.0443463320318 -508.7511743875713 581.5774391238426"/>
<polyline points="-508.7511743875713 581.5774391238426 -531.4294538568139 652.8345911301374"/>
<polyline points="-508.7511743875713 581.5774391238426 -531.4294538568139 652.8345911301374"/>
<polyline points="-508.7511743875713 581.5774391238426 -486.0728949183284 510.3202871175477"/>
<polyline points="-486.0728949183284 510.3202871175477 -463.39461544908585 439.0631351112531"/>
<polyline points="-463.39461544908585 439.0631351112531 -483.08594239598517 368.94657032961254"/>
<polyline points="-483.08594239598517 368.94657032961254 -502.77726934288444 298.830005547972"/>
<polyline points="-502.77726934288444 298.830005547972 -483.08594239598517 368.94657032961254"/>
<polyline points="-463.39461544908585 439.0631351112531 -558.7777758254608 436.59622790306395"/>
<polyline points="-558.7777758254608 436.59622790306395 -654.1609362018356 434.1293206948749"/>
<polyline points="-654.1609362018356 434.1293206948749 -634.4696092549361 504.24588547651535"/>
<polyline points="-654.1609362018356 434.1293206948749 -634.469609254936 504.24588547651535"/>
<polyline points="-654.1609362018356 434.1293206948749 -673.8522631487351 364.0127559132344"/>
<polyline points="-673.8522631487351 364.0127559132344 -693.5435900956345 293.896191131594"/>
<polyline points="-693.5435900956345 293.896191131594 -716.2218695648775 365.15334313788884"/>
<polyline points="-716.2218695648775 365.15334313788884 -738.9001490341202 436.4104951441837"/>
<polyline points="-738.9001490341202 436.4104951441837 -716.2218695648776 365.15334313788884"/>
<polyline points="-693.5435900956345 293.896191131594 -670.8653106263916 222.63903912529906"/>
<polyline points="-670.8653106263916 222.63903912529906 -648.1870311571488 151.38188711900426"/>
<polyline points="-648.1870311571488 151.38188711900426 -628.4957042102496 221.49845190064468"/>
<polyline points="-648.1870311571488 151.38188711900426 -628.4957042102496 221.49845190064468"/>
<polyline points="-648.1870311571488 151.38188711900426 -667.8783581040484 81.26532233736378"/>
<polyline points="-667.8783581040484 81.26532233736378 -687.5696850509477 11.14875755572338"/>
<polyline points="-687.5696850509477 11.14875755572338 -710.2479645201907 82.40590956201822"/>
<polyline points="-710.2479645201907 82.40590956201822 -732.9262439894337 153.66306156831305"/>
<polyline points="-732.9262439894337 153.66306156831305 -710.2479645201907 82.40590956201821"/>
<polyline points="-687.5696850509477 11.14875755572338 -592.186524674573 13.615664763912433"/>
<polyline points="-592.186524674573 13.615664763912433 -496.8033642981982 16.082571972101487"/>
<polyline points="-496.8033642981982 16.082571972101487 -592.186524674573 13.615664763912433"/>
<polyline points="-496.8033642981982 16.082571972101487 -474.12508482895527 -55.17458003419336"/>
<polyline points="-474.12508482895527 -55.17458003419336 -451.44680535971236 -126.4317320404882"/>
<polyline points="-451.44680535971236 -126.4317320404882 -356.0636449833375 -123.96482483229914"/>
<polyline points="-451.44680535971236 -126.4317320404882 -356.0636449833375 -123.96482483229914"/>
<polyline points="-451.44680535971236 -126.4317320404882 -546.829965736087 -128.89863924867726"/>
<polyline points="-546.829965736087 -128.89863924867726 -642.213126112462 -131.3655464568663"/>
<polyline points="-642.213126112462 -131.3655464568663 -661.9044530593616 -201.48211123850677"/>
<polyline points="-661.9044530593616 -201.48211123850677 -681.5957800062613 -271.5986760201472"/>
<polyline points="-681.5957800062613 -271.5986760201472 -586.2126196298865 -269.1317688119582"/>
<polyline points="-681.5957800062613 -271.5986760201472 -586.2126196298865 -269.1317688119582"/>
<polyline points="-681.5957800062613 -271.5986760201472 -776.978940382636 -274.06558322833615"/>
<polyline points="-776.978940382636 -274.06558322833615 -872.3621007590109 -276.5324904365252"/>
<polyline points="-872.3621007590109 -276.5324904365252 -852.6707738121112 -206.41592565488486"/>
<polyline points="-852.6707738121112 -206.41592565488486 -832.9794468652116 -136.29936087324447"/>
<polyline points="-832.9794468652116 -136.29936087324447 -852.6707738121112 -206.41592565488486"/>
<polyline points="-872.3621007590109 -276.5324904365252 -895.0403802282539 -205.27533843023036"/>
<polyline points="-895.0403802282539 -205.27533843023036 -917.7186596974971 -134.0181864239354"/>
<polyline points="-917.7186596974971 -134.0181864239354 -895.0403802282539 -205.27533843023036"/>
<polyline points="-917.7186596974971 -134.0181864239354 -937.4099866443967 -204.13475120557572"/>
<polyline points="-937.4099866443967 -204.13475120557572 -957.1013135912964 -274.2513159872161"/>
<polyline points="-957.1013135912964 -274.2513159872161 -979.7795930605394 -202.9941639809211"/>
<polyline points="-957.1013135912964 -274.2513159872161 -979.7795930605394 -202.9941639809211"/>
<polyline points="-957.1013135912964 -274.2513159872161 -934.4230341220534 -345.50846799351086"/>
<polyline points="-934.4230341220534 -345.50846799351086 -911.7447546528102 -416.76561999980595"/>
<polyline points="-911.7447546528102 -416.76561999980595 -889.0664751835671 -488.02277200610087"/>
<polyline points="-889.0664751835671 -488.02277200610087 -866.3881957143243 -559.2799240123957"/>
<polyline points="-866.3881957143243 -559.2799240123957 -961.771356090699 -561.7468312205849"/>
<polyline points="-866.3881957143243 -559.2799240123957 -961.771356090699 -561.7468312205851"/>
<polyline points="-866.3881957143243 -559.2799240123957 -771.0050353379495 -556.8130168042067"/>
<polyline points="-771.0050353379495 -556.8130168042067 -675.6218749615747 -554.3461095960176"/>
<polyline points="-675.6218749615747 -554.3461095960176 -695.3132019084744 -624.4626743776579"/>
<polyline points="-695.3132019084744 -624.4626743776579 -715.0045288553739 -694.5792391592986"/>
<polyline points="-715.0045288553739 -694.5792391592986 -695.3132019084744 -624.462674377658"/>
<polyline points="-866.3881957143243 -559.2799240123957 -889.0664751835671 -488.02277200610087"/>
<polyline points="-889.0664751835671 -488.02277200610087 -911.7447546528102 -416.76561999980595"/>
<polyline points="-911.7447546528102 -416.76561999980595 -1007.1279150291849 -419.23252720799525"/>
<polyline points="-911.7447546528102 -416.76561999980595 -1007.1279150291849 -419.23252720799513"/>
<polyline points="-911.7447546528102 -416.76561999980595 -816.3615942764357 -414.2987127916169"/>
<polyline points="-816.3615942764357 -414.2987127916169 -720.978433900061 -411.83180558342787"/>
<polyline points="-720.978433900061 -411.83180558342787 -698.3001544308177 -483.08895758972267"/>
<polyline points="-698.3001544308177 -483.08895758972267 -675.6218749615745 -554.3461095960175"/>
<polyline points="-675.6218749615745 -554.3461095960175 -698.3001544308177 -483.08895758972267"/>
<polyline points="-720.978433900061 -411.83180558342787 -740.6697608469602 -481.9483703650682"/>
<polyline points="-740.6697608469602 -481.9483703650682 -760.36108779386 -552.0649351467086"/>
<polyline points="-760.36108779386 -552.0649351467086 -740.6697608469602 -481.9483703650682"/>
<polyline points="-760.36108779386 -552.0649351467086 -783.0393672631033 -480.8077831404138"/>
<polyline points="-783.0393672631033 -480.8077831404138 -805.7176467323466 -409.550631134119"/>
<polyline points="-805.7176467323466 -409.550631134119 -825.4089736792462 -479.6671959157594"/>
<polyline points="-805.7176467323466 -409.550631134119 -825.4089736792462 -479.6671959157594"/>
<polyline points="-805.7176467323466 -409.550631134119 -786.0263197854468 -339.4340663524785"/>
<polyline points="-786.0263197854468 -339.4340663524785 -766.3349928385472 -269.3175015708381"/>
<polyline points="-766.3349928385472 -269.3175015708381 -743.6567133693044 -340.57465357713295"/>
<polyline points="-743.6567133693044 -340.57465357713295 -720.9784339000612 -411.8318055834277"/>
<polyline points="-720.9784339000612 -411.8318055834277 -740.6697608469603 -481.94837036506794"/>
<polyline points="-720.9784339000612 -411.8318055834277 -740.6697608469606 -481.94837036506794"/>
<polyline points="-720.9784339000612 -411.8318055834277 -701.2871069531615 -341.71524080178716"/>
<polyline points="-701.2871069531615 -341.71524080178716 -681.5957800062619 -271.59867602014674"/>
<polyline points="-681.5957800062619 -271.59867602014674 -586.2126196298871 -269.1317688119576"/>
<polyline points="-586.2126196298871 -269.1317688119576 -490.82945925351237 -266.66486160376854"/>
<polyline points="-490.82945925351237 -266.66486160376854 -586.2126196298871 -269.1317688119575"/>
<polyline points="-681.5957800062619 -271.59867602014674 -658.917500537019 -342.85582802644154"/>
<polyline points="-658.917500537019 -342.85582802644154 -636.2392210677757 -414.11298003273646"/>
<polyline points="-636.2392210677757 -414.11298003273646 -731.6223814441505 -416.5798872409254"/>
<polyline points="-636.2392210677757 -414.11298003273646 -731.6223814441505 -416.5798872409254"/>
<polyline points="-636.2392210677757 -414.11298003273646 -540.856060691401 -411.64607282454733"/>
<polyline points="-540.856060691401 -411.64607282454733 -445.4729003150261 -409.17916561635826"/>
<polyline points="-445.4729003150261 -409.17916561635826 -465.16422726192593 -479.29573039799874"/>
<polyline points="-465.16422726192593 -479.29573039799874 -484.8555542088255 -549.4122951796393"/>
<polyline points="-484.8555542088255 -549.4122951796393 -465.16422726192593 -479.29573039799874"/>
<polyline points="-445.4729003150261 -409.17916561635826 -425.7815733681265 -339.06260083471767"/>
<polyline points="-425.7815733681265 -339.06260083471767 -406.0902464212267 -268.94603605307714"/>
<polyline points="-406.0902464212267 -268.94603605307714 -501.4734067976016 -271.4129432612662"/>
<polyline points="-406.0902464212267 -268.94603605307714 -501.4734067976016 -271.4129432612661"/>
<polyline points="-406.0902464212267 -268.94603605307714 -310.7070860448519 -266.47912884488824"/>
<polyline points="-310.7070860448519 -266.47912884488824 -215.32392566847713 -264.01222163669934"/>
<polyline points="-215.32392566847713 -264.01222163669934 -235.01525261537677 -334.12878641833987"/>
<polyline points="-235.01525261537677 -334.12878641833987 -254.7065795622764 -404.24535119998063"/>
<polyline points="-254.7065795622764 -404.24535119998063 -235.0152526153767 -334.12878641833987"/>
<polyline points="-215.32392566847713 -264.01222163669934 -238.00220513771995 -192.7550696304045"/>
<polyline points="-238.00220513771995 -192.7550696304045 -260.6804846069628 -121.49791762410987"/>
<polyline points="-260.6804846069628 -121.49791762410987 -238.00220513771993 -192.7550696304045"/>
<polyline points="-260.6804846069628 -121.49791762410987 -240.98915766006326 -51.38135284246931"/>
<polyline points="-240.98915766006326 -51.38135284246931 -221.29783071316368 18.735211939171304"/>
<polyline points="-221.29783071316368 18.735211939171304 -243.97611018240656 89.99236394546598"/>
<polyline points="-221.29783071316368 18.735211939171304 -243.97611018240656 89.99236394546598"/>
<polyline points="-221.29783071316368 18.735211939171304 -198.61955124392082 -52.52194006712336"/>
<polyline points="-198.61955124392082 -52.52194006712336 -175.94127177467797 -123.77909207341798"/>
<polyline points="-175.94127177467797 -123.77909207341798 -80.5581113983031 -121.31218486522924"/>
<polyline points="-80.5581113983031 -121.31218486522924 14.82504897807173 -118.84527765704036"/>
<polyline points="14.82504897807173 -118.84527765704036 -7.8532304911710415 -47.58812565074568"/>
<polyline points="14.82504897807173 -118.84527765704036 -7.853230491171021 -47.5881256507457"/>
<polyline points="14.82504897807173 -118.84527765704036 37.5033284473145 -190.1024296633351"/>
<polyline points="37.5033284473145 -190.1024296633351 60.18160791655729 -261.35958166962973"/>
<polyline points="60.18160791655729 -261.35958166962973 -35.20155245981758 -263.8264888778186"/>
<polyline points="-35.20155245981758 -263.8264888778186 -130.5847128361924 -266.2933960860073"/>
<polyline points="-130.5847128361924 -266.2933960860073 -35.20155245981758 -263.82648887781863"/>
<polyline points="60.18160791655729 -261.35958166962973 40.49028096965755 -331.47614645127044"/>
<polyline points="40.49028096965755 -331.47614645127044 20.798954022757833 -401.59271123291114"/>
<polyline points="20.798954022757833 -401.59271123291114 40.49028096965755 -331.47614645127044"/>
<polyline points="20.798954022757833 -401.59271123291114 116.18211439913264 -399.12580402472236"/>
<polyline points="116.18211439913264 -399.12580402472236 211.56527477550748 -396.6588968165335"/>
<polyline points="211.56527477550748 -396.6588968165335 191.8739478286078 -466.77546159817416"/>
<polyline points="211.56527477550748 -396.6588968165335 191.87394782860778 -466.77546159817416"/>
<polyline points="211.56527477550748 -396.6588968165335 231.25660172240717 -326.54233203489287"/>
<polyline points="231.25660172240717 -326.54233203489287 250.94792866930695 -256.42576725325216"/>
<polyline points="250.94792866930695 -256.42576725325216 270.6392556162066 -186.30920247161157"/>
<polyline points="270.6392556162066 -186.30920247161157 290.3305825631064 -116.19263768997078"/>
<polyline points="290.3305825631064 -116.19263768997078 313.00886203234904 -187.44978969626536"/>
<polyline points="290.3305825631064 -116.19263768997078 313.00886203234904 -187.4497896962653"/>
<polyline points="290.3305825631064 -116.19263768997078 267.65230309386357 -44.93548568367619"/>
<polyline points="267.65230309386357 -44.93548568367619 244.9740236246208 26.321666322618384"/>
<polyline points="244.9740236246208 26.321666322618384 340.35718400099563 28.788573530807113"/>
<polyline points="340.35718400099563 28.788573530807113 435.74034437737055 31.255480738995843"/>
<polyline points="435.74034437737055 31.255480738995843 340.3571840009957 28.788573530807053"/>
<polyline points="244.9740236246208 26.321666322618384 225.28269667772113 -43.79489845902237"/>
<polyline points="225.28269667772113 -43.79489845902237 205.59136973082153 -113.91146324066301"/>
<polyline points="205.59136973082153 -113.91146324066301 110.20820935444668 -116.37837044885184"/>
<polyline points="205.59136973082153 -113.91146324066301 110.20820935444667 -116.37837044885188"/>
<polyline points="205.59136973082153 -113.91146324066301 300.9745301071963 -111.4445560324743"/>
<polyline points="300.9745301071963 -111.4445560324743 396.3576904835712 -108.97764882428548"/>
<polyline points="396.3576904835712 -108.97764882428548 416.04901743047094 -38.86108404264479"/>
<polyline points="416.04901743047094 -38.86108404264479 435.74034437737055 31.255480738995963"/>
<polyline points="435.74034437737055 31.255480738995963 416.049017430471 -38.86108404264474"/>
<polyline points="396.3576904835712 -108.97764882428548 419.0359699528141 -180.23480083058"/>
<polyline points="419.0359699528141 -180.23480083058 441.7142494220569 -251.49195283687456"/>
<polyline points="441.7142494220569 -251.49195283687456 419.0359699528142 -180.23480083057996"/>
<polyline points="441.7142494220569 -251.49195283687456 422.0229224751573 -321.6085176185153"/>
<polyline points="422.0229224751573 -321.6085176185153 402.33159552825765 -391.72508240015605"/>
<polyline points="402.33159552825765 -391.72508240015605 425.0098749975005 -462.98223440645063"/>
<polyline points="402.33159552825765 -391.72508240015605 425.0098749975005 -462.98223440645063"/>
<polyline points="402.33159552825765 -391.72508240015605 379.65331605901474 -320.4679303938615"/>
<polyline points="379.65331605901474 -320.4679303938615 356.97503658977195 -249.21077838756696"/>
<polyline points="356.97503658977195 -249.21077838756696 376.66636353667144 -179.09421360592611"/>
<polyline points="376.66636353667144 -179.09421360592611 396.35769048357105 -108.97764882428532"/>
<polyline points="396.35769048357105 -108.97764882428532 419.035969952814 -180.2348008305799"/>
<polyline points="396.35769048357105 -108.97764882428532 419.03596995281396 -180.2348008305799"/>
<polyline points="396.35769048357105 -108.97764882428532 373.67941101432814 -37.72049681799073"/>
<polyline points="373.67941101432814 -37.72049681799073 351.00113154508523 33.53665518830378"/>
<polyline points="351.00113154508523 33.53665518830378 446.3842919214601 36.00356239649272"/>
<polyline points="446.3842919214601 36.00356239649272 541.7674522978349 38.47046960468166"/>
<polyline points="541.7674522978349 38.47046960468166 446.3842919214601 36.00356239649273"/>
<polyline points="351.00113154508523 33.53665518830378 370.6924584919848 103.65321996994452"/>
<polyline points="370.6924584919848 103.65321996994452 390.38378543888444 173.76978475158532"/>
<polyline points="390.38378543888444 173.76978475158532 295.0006250625095 171.30287754339636"/>
<polyline points="390.38378543888444 173.76978475158532 295.00062506250947 171.30287754339642"/>
<polyline points="390.38378543888444 173.76978475158532 485.7669458152593 176.2366919597742"/>
<polyline points="485.7669458152593 176.2366919597742 581.150106191634 178.70359916796306"/>
<polyline points="581.150106191634 178.70359916796306 603.8283856608768 107.44644716166852"/>
<polyline points="603.8283856608768 107.44644716166852 626.5066651301198 36.18929515537387"/>
<polyline points="626.5066651301198 36.18929515537387 603.8283856608767 107.44644716166854"/>
<polyline points="581.150106191634 178.70359916796306 558.4718267223914 249.96075117425758"/>
<polyline points="558.4718267223914 249.96075117425758 535.7935472531485 321.2179031805521"/>
<polyline points="535.7935472531485 321.2179031805521 440.4103868767735 318.7509959723633"/>
<polyline points="535.7935472531485 321.2179031805521 440.4103868767735 318.75099597236317"/>
<polyline points="535.7935472531485 321.2179031805521 631.1767076295232 323.6848103887411"/>
<polyline points="631.1767076295232 323.6848103887411 726.559868005898 326.15171759693"/>
<polyline points="726.559868005898 326.15171759693 749.238147475141 254.89456559063552"/>
<polyline points="749.238147475141 254.89456559063552 771.9164269443838 183.637413584341"/>
<polyline points="771.9164269443838 183.637413584341 749.2381474751411 254.89456559063552"/>
<polyline points="726.559868005898 326.15171759693 706.8685410589987 256.0351528152891"/>
<polyline points="706.8685410589987 256.0351528152891 687.1772141120993 185.91858803364826"/>
<polyline points="687.1772141120993 185.91858803364826 706.8685410589989 256.0351528152891"/>
<polyline points="687.1772141120993 185.91858803364826 664.4989346428565 257.17574003994275"/>
<polyline points="664.4989346428565 257.17574003994275 641.8206551736135 328.43289204623716"/>
<polyline points="641.8206551736135 328.43289204623716 622.129328226714 258.3163272645964"/>
<polyline points="641.8206551736135 328.43289204623716 622.129328226714 258.31632726459634"/>
<polyline points="641.8206551736135 328.43289204623716 661.5119821205132 398.54945682787803"/>
<polyline points="661.5119821205132 398.54945682787803 681.2033090674124 468.66602160951896"/>
<polyline points="681.2033090674124 468.66602160951896 703.8815885366552 397.4088696032246"/>
<polyline points="703.8815885366552 397.4088696032246 726.559868005898 326.1517175969301"/>
<polyline points="726.559868005898 326.1517175969301 631.1767076295232 323.68481038874114"/>
<polyline points="726.559868005898 326.1517175969301 631.1767076295232 323.68481038874114"/>
<polyline points="726.559868005898 326.1517175969301 821.9430283822732 328.61862480511905"/>
<polyline points="821.9430283822732 328.61862480511905 917.326188758648 331.08553201330795"/>
<polyline points="917.326188758648 331.08553201330795 894.6479092894051 402.34268401960225"/>
<polyline points="894.6479092894051 402.34268401960225 871.9696298201623 473.5998360258967"/>
<polyline points="871.9696298201623 473.5998360258967 894.6479092894051 402.3426840196022"/>
<polyline points="917.326188758648 331.08553201330795 937.0175157055473 401.20209679494883"/>
<polyline points="937.0175157055473 401.20209679494883 956.7088426524471 471.3186615765898"/>
<polyline points="956.7088426524471 471.3186615765898 937.0175157055475 401.20209679494883"/>
<polyline points="956.7088426524471 471.3186615765898 979.3871221216897 400.06150957029536"/>
<polyline points="979.3871221216897 400.06150957029536 1002.0654015909325 328.80435756400107"/>
<polyline points="1002.0654015909325 328.80435756400107 1021.7567285378318 398.92092234564217"/>
<polyline points="1002.0654015909325 328.80435756400107 1021.7567285378318 398.920922345642"/>
<polyline points="1002.0654015909325 328.80435756400107 982.3740746440329 258.6877927823602"/>
<polyline points="982.3740746440329 258.6877927823602 962.6827476971335 188.57122800071923"/>
<polyline points="962.6827476971335 188.57122800071923 942.9914207502343 118.45466321907831"/>
<polyline points="942.9914207502343 118.45466321907831 923.3000938033347 48.33809843743736"/>
<polyline points="923.3000938033347 48.33809843743736 1018.6832541797096 50.80500564562623"/>
<polyline points="923.3000938033347 48.33809843743736 1018.6832541797094 50.805005645626224"/>
<polyline points="923.3000938033347 48.33809843743736 827.91693342696 45.87119122924844"/>
<polyline points="827.91693342696 45.87119122924844 732.5337730505852 43.404284021059546"/>
<polyline points="732.5337730505852 43.404284021059546 755.2120525198279 -27.852867985234848"/>
<polyline points="755.2120525198279 -27.852867985234848 777.8903319890709 -99.11001999152919"/>
<polyline points="777.8903319890709 -99.11001999152919 755.2120525198279 -27.852867985234848"/>
<polyline points="732.5337730505852 43.404284021059546 755.2120525198279 -27.852867985234848"/>
<polyline points="755.2120525198279 -27.852867985234848 777.8903319890709 -99.1100199915293"/>
<polyline points="777.8903319890709 -99.1100199915293 797.5816589359704 -28.993455209888392"/>
<polyline points="777.8903319890709 -99.1100199915293 797.5816589359704 -28.993455209888392"/>
<polyline points="777.8903319890709 -99.1100199915293 758.1990050421714 -169.2265847731702"/>
<polyline points="758.1990050421714 -169.2265847731702 738.507678095272 -239.3431495548111"/>
<polyline points="738.507678095272 -239.3431495548111 715.8293986260288 -168.08599754851656"/>
<polyline points="715.8293986260288 -168.08599754851656 693.1511191567861 -96.82884554222215"/>
<polyline points="693.1511191567861 -96.82884554222215 715.8293986260288 -168.08599754851656"/>
<polyline points="738.507678095272 -239.3431495548111 833.8908384716467 -236.87624234662195"/>
<polyline points="833.8908384716467 -236.87624234662195 929.2739988480215 -234.40933513843302"/>
<polyline points="929.2739988480215 -234.40933513843302 833.8908384716467 -236.87624234662195"/>
<polyline points="929.2739988480215 -234.40933513843302 951.9522783172646 -305.6664871447274"/>
<polyline points="951.9522783172646 -305.6664871447274 974.6305577865077 -376.9236391510219"/>
<polyline points="974.6305577865077 -376.9236391510219 1070.0137181628827 -374.4567319428329"/>
<polyline points="974.6305577865077 -376.9236391510219 1070.0137181628827 -374.4567319428329"/>
<polyline points="974.6305577865077 -376.9236391510219 879.2473974101327 -379.3905463592109"/>
<polyline points="879.2473974101327 -379.3905463592109 783.8642370337578 -381.8574535673999"/>
<polyline points="783.8642370337578 -381.8574535673999 688.4810766573831 -384.32436077558896"/>
<polyline points="688.4810766573831 -384.32436077558896 593.0979162810083 -386.79126798377786"/>
<polyline points="593.0979162810083 -386.79126798377786 573.4065893341087 -456.9078327654187"/>
<polyline points="593.0979162810083 -386.79126798377786 573.4065893341086 -456.9078327654185"/>
<polyline points="593.0979162810083 -386.79126798377786 612.789243227908 -316.674703202137"/>
<polyline points="612.789243227908 -316.674703202137 632.4805701748078 -246.55813842049622"/>
<polyline points="632.4805701748078 -246.55813842049622 655.1588496440504 -317.8152904267908"/>
<polyline points="655.1588496440504 -317.8152904267908 677.8371291132934 -389.07244243308537"/>
<polyline points="677.8371291132934 -389.07244243308537 655.1588496440504 -317.8152904267908"/>
<polyline points="632.4805701748078 -246.55813842049622 609.8022907055647 -175.30098641420176"/>
<polyline points="609.8022907055647 -175.30098641420176 587.1240112363217 -104.04383440790717"/>
<polyline points="587.1240112363217 -104.04383440790717 682.5071716126967 -101.57692719971831"/>
<polyline points="587.1240112363217 -104.04383440790717 682.5071716126967 -101.57692719971827"/>
<polyline points="587.1240112363217 -104.04383440790717 491.74085085994693 -106.5107416160961"/>
<polyline points="491.74085085994693 -106.5107416160961 396.357690483572 -108.97764882428508"/>
<polyline points="396.357690483572 -108.97764882428508 419.035969952815 -180.23480083057967"/>
<polyline points="419.035969952815 -180.23480083057967 441.7142494220579 -251.49195283687422"/>
<polyline points="441.7142494220579 -251.49195283687422 419.0359699528149 -180.23480083057967"/>
<polyline points="396.357690483572 -108.97764882428508 416.0490174304716 -38.861084042644414"/>
<polyline points="416.0490174304716 -38.861084042644414 435.7403443773711 31.255480738996283"/>
<polyline points="435.7403443773711 31.255480738996283 416.0490174304715 -38.861084042644414"/>
<polyline points="435.7403443773711 31.255480738996283 413.06206490812815 102.51263274529089"/>
<polyline points="413.06206490812815 102.51263274529089 390.3837854388854 173.76978475158546"/>
<polyline points="390.3837854388854 173.76978475158546 410.0751123857849 243.88634953322617"/>
<polyline points="390.3837854388854 173.76978475158546 410.07511238578485 243.88634953322622"/>
<polyline points="390.3837854388854 173.76978475158546 370.69245849198586 103.65321996994481"/>
<polyline points="370.69245849198586 103.65321996994481 351.0011315450864 33.536655188304124"/>
<polyline points="351.0011315450864 33.536655188304124 373.6794110143294 -37.72049681799052"/>
<polyline points="373.6794110143294 -37.72049681799052 396.35769048357224 -108.9776488242851"/>
<polyline points="396.35769048357224 -108.9776488242851 416.04901743047174 -38.86108404264445"/>
<polyline points="396.35769048357224 -108.9776488242851 416.04901743047185 -38.86108404264453"/>
<polyline points="396.35769048357224 -108.9776488242851 376.6663635366729 -179.0942136059259"/>
<polyline points="376.6663635366729 -179.0942136059259 356.97503658977337 -249.2107783875667"/>
<polyline points="356.97503658977337 -249.2107783875667 261.59187621339856 -251.6776855957557"/>
<polyline points="261.59187621339856 -251.6776855957557 166.2087158370238 -254.14459280394462"/>
<polyline points="166.2087158370238 -254.14459280394462 261.5918762133986 -251.67768559575552"/>
<polyline points="356.97503658977337 -249.2107783875667 379.65331605901645 -320.46793039386114"/>
<polyline points="379.65331605901645 -320.46793039386114 402.33159552825947 -391.7250824001557"/>
<polyline points="402.33159552825947 -391.7250824001557 497.71475590463444 -389.2581751919667"/>
<polyline points="402.33159552825947 -391.7250824001557 497.71475590463444 -389.25817519196676"/>
<polyline points="402.33159552825947 -391.7250824001557 306.9484351518846 -394.1919896083448"/>
<polyline points="306.9484351518846 -394.1919896083448 211.56527477550978 -396.65889681653374"/>
<polyline points="211.56527477550978 -396.65889681653374 231.2566017224094 -326.5423320348931"/>
<polyline points="231.2566017224094 -326.5423320348931 250.94792866930902 -256.42576725325245"/>
<polyline points="250.94792866930902 -256.42576725325245 231.2566017224094 -326.54233203489315"/>
<polyline points="211.56527477550978 -396.65889681653374 191.87394782861014 -466.7754615981744"/>
<polyline points="191.87394782861014 -466.7754615981744 172.1826208817106 -536.8920263798151"/>
<polyline points="172.1826208817106 -536.8920263798151 267.5657812580853 -534.4251191716261"/>
<polyline points="172.1826208817106 -536.8920263798151 267.5657812580853 -534.4251191716261"/>
<polyline points="172.1826208817106 -536.8920263798151 76.79946050533574 -539.3589335880041"/>
<polyline points="76.79946050533574 -539.3589335880041 -18.583699871038995 -541.825840796193"/>
<polyline points="-18.583699871038995 -541.825840796193 1.1076270758606632 -471.70927601455236"/>
<polyline points="1.1076270758606632 -471.70927601455236 20.79895402276036 -401.59271123291177"/>
<polyline points="20.79895402276036 -401.59271123291177 1.107627075860636 -471.70927601455236"/>
<polyline points="-18.583699871038995 -541.825840796193 -41.26197934028205 -470.5686887898985"/>
<polyline points="-41.26197934028205 -470.5686887898985 -63.94025880952513 -399.31153678360386"/>
<polyline points="-63.94025880952513 -399.31153678360386 -41.26197934028215 -470.56868878989854"/>
<polyline points="-63.94025880952513 -399.31153678360386 -83.63158575642483 -469.4281015652444"/>
<polyline points="-83.63158575642483 -469.4281015652444 -103.32291270332448 -539.544666346885"/>
<polyline points="-103.32291270332448 -539.544666346885 -126.0011921725675 -468.28751434059035"/>
<polyline points="-103.32291270332448 -539.544666346885 -126.00119217256753 -468.28751434059035"/>
<polyline points="-103.32291270332448 -539.544666346885 -80.64463323408138 -610.8018183531796"/>
<polyline points="-80.64463323408138 -610.8018183531796 -57.96635376483826 -682.0589703594744"/>
</svg>