<svg transform="scale(1,-1)" viewBox="-202.75778587383738 -178.11310602551916 411.72857453930243 400.34675030835024" xmlns="http://www.w3.org/2000/svg">
<style>
svg { stroke:black; stroke-width:2; fill:none;}
</style>
<polyline points="108.95879695032905 -0.6412920167601294 107.32811488857746 -5.87116708095227 105.44207631553166 -13.073914288725044"/>
<polyline points="105.44207631553166 -13.073914288725032 103.55603774248571 -20.2766614964981 101.54317307007211 -28.961425528744908"/>
<polyline points="101.54317307007211 -28.961425528744908 99.53030839765853 -37.646189560991715 97.52779102688616 -47.22111810116582"/>
<polyline points="97.52779102688616 -47.22111810116582 95.52527365611378 -56.7960466413399 93.66957183648431 -66.60862413274596"/>
<polyline points="93.66957183648431 -66.60862413274596 91.81387001685484 -76.42120162415205 90.2314467606838 -85.80271712680178"/>
<polyline points="90.2314467606838 -85.80271712680178 88.64902350451275 -95.18423262945153 87.44771834163011 -103.49535136552682"/>
<polyline points="87.44771834163011 -103.49535136552682 86.24641317874742 -111.80647010160206 85.50809307075295 -118.48080306401242"/>
<polyline points="85.50809307075295 -118.48080306401242 84.76977296275851 -125.1551360264228 84.54475320488037 -129.7378384536367"/>
<polyline points="84.54475320488037 -129.7378384536367 84.31973344700226 -134.3205408808506 84.62334876387719 -136.4993091757273"/>
<polyline points="84.62334876387719 -136.4993091757273 84.92696408075207 -138.67807747060397 85.73852359028301 -138.30443217443246"/>
<polyline points="85.73852359028301 -138.30443217443246 86.55008309981393 -137.9307868782609 87.81428036259184 -135.0301913004972"/>
<polyline points="87.81428036259184 -135.0301913004972 89.07847762536974 -132.12959572273346 90.70915968712107 -126.8997206585413"/>
<polyline points="90.70915968712107 -126.8997206585413 92.33984174887246 -121.66984559434916 94.2258803219184 -114.4670983865761"/>
<polyline points="94.2258803219184 -114.4670983865761 96.11191889496435 -107.26435117880305 98.12478356737792 -98.57958714655622"/>
<polyline points="98.12478356737792 -98.57958714655622 100.13764823979155 -89.8948231143094 102.1401656105639 -80.31989457413532"/>
<polyline points="102.1401656105639 -80.31989457413532 104.14268298133628 -70.74496603396123 105.99838480096574 -60.93238854255516"/>
<polyline points="105.99838480096574 -60.93238854255516 107.8540866205952 -51.11981105114909 109.43650987676627 -41.738295548499345"/>
<polyline points="109.43650987676627 -41.738295548499345 111.0189331329373 -32.35678004584958 112.22023829581997 -24.045661309774328"/>
<polyline points="112.22023829581997 -24.045661309774328 113.42154345870266 -15.734542573699056 114.1598635666971 -9.06020961128871"/>
<polyline points="114.1598635666971 -9.06020961128871 114.89818367469154 -2.3858766488783507 115.12320343256967 2.1968257783355716"/>
<polyline points="115.12320343256967 2.1968257783355716 115.34822319044778 6.779528205549488 115.0446078735729 8.958296500426167"/>
<polyline points="115.0446078735729 8.958296500426167 114.74099255669798 11.137064795302857 113.92943304716707 10.763419499131329"/>
<polyline points="113.92943304716707 10.763419499131329 113.11787353763616 10.389774202959778 111.85367627485823 7.489178625196048"/>
<polyline points="111.85367627485823 7.489178625196048 110.5894790120803 4.58858304743232 108.95879695032895 -0.6412920167598276"/>
<polyline points="108.95879695032895 -0.6412920167598276 107.32811488857759 -5.87116708095198 105.44207631553166 -13.073914288725044"/>
<polyline points="105.44207631553166 -13.073914288725044 103.5560377424857 -20.276661496498114 101.5431730700721 -28.961425528744925"/>
<polyline points="101.5431730700721 -28.961425528744925 99.53030839765854 -37.64618956099173 97.52779102688616 -47.221118101165835"/>
<polyline points="97.52779102688616 -47.221118101165835 95.52527365611377 -56.79604664133992 93.66957183648431 -66.60862413274597"/>
<polyline points="93.66957183648431 -66.60862413274597 91.81387001685484 -76.42120162415205 90.2314467606838 -85.8027171268018"/>
<polyline points="90.2314467606838 -85.8027171268018 88.64902350451275 -95.18423262945153 87.44771834163011 -103.49535136552682"/>
<polyline points="87.44771834163011 -103.49535136552682 95.15973600904854 -119.78105773545347 91.00499337096345 -115.3440775500843"/>
<polyline points="95.15973600904854 -119.78105773545347 91.0130659160817 -113.26925681453689"/>
<polyline points="86.86639582311493 -106.75745589362033 82.7197257301481 -100.24565497270378"/>
<polyline points="82.7197257301481 -100.24565497270378 78.56498309206302 -95.80867478733457"/>
<polyline points="82.7197257301481 -100.24565497270378 95.44695772287263 -107.5136216553506 90.19380077303508 -108.66681539318049"/>
<polyline points="95.44695772287263 -107.5136216553506 89.43367356065615 -106.22947046279769"/>
<polyline points="83.42038939843964 -104.94531927024477 77.40710523622316 -103.66116807769184"/>
<polyline points="77.40710523622316 -103.66116807769184 72.15394828638557 -104.81436181552169"/>
<polyline points="77.40710523622316 -103.66116807769184 91.53950197379424 -99.57972520216116 87.23424330598195 -105.97972022308268"/>
<polyline points="91.53950197379424 -99.57972520216116 85.65320267052107 -103.94896154979809"/>
<polyline points="79.76690336724786 -108.31819789743501 73.88060406397469 -112.6874342450719"/>
<polyline points="73.88060406397469 -112.6874342450719 69.57534539616243 -119.0874292659934"/>
<polyline points="44.44910754760882 -134.53361598325648 36.88739427604516 -138.97996210790745"/>
<polyline points="29.3256810044815 -143.42630823255845 28.892895078313636 -158.26205322962585 28.88475372914033 -148.48519738814883"/>
<polyline points="28.892895078313636 -158.26205322962585 29.000694046020474 -149.3614068901082"/>
<polyline points="29.108493013727294 -140.46076055059058 29.216291981434107 -131.56011421107294"/>
<polyline points="29.216291981434107 -131.56011421107294 29.208150632260814 -121.78325836959594"/>
<polyline points="29.216291981434107 -131.56011421107294 31.809759808286625 -140.97747615728258 34.430520269027426 -150.61702049430846"/>
<polyline points="34.430520269027426 -150.61702049430846 37.051280729768244 -160.25656483133437 39.52073333000923 -169.4613725427085"/>
<polyline points="39.52073333000923 -169.4613725427085 37.370877704011065 -161.31859389085236 35.687128160363066 -154.79276120706032"/>
<polyline points="39.169444301248355 -126.85734900931097 37.48569475760036 -120.3315163255189"/>
<polyline points="35.80194521395237 -113.80568364172682 46.84019416256234 -107.75437715520486 42.771028881039776 -105.95417279643982"/>
<polyline points="46.84019416256234 -107.75437715520486 41.87693016502322 -108.38871617541922"/>
<polyline points="36.91366616748409 -109.02305519563359 31.950402169944947 -109.65739421584796"/>
<polyline points="31.950402169944947 -109.65739421584796 27.881236888422393 -107.85718985708291"/>
<polyline points="31.950402169944947 -109.65739421584796 27.881236888422393 -107.85718985708291 24.983477212238608 -103.74512307140994"/>
<polyline points="24.983477212238608 -103.74512307140994 23.454600674551205 -97.60142441476097 23.398797684815662 -89.8447767976445"/>
<polyline points="23.398797684815662 -89.8447767976445 23.342994695080122 -82.08812918052806 24.76406813482812 -73.24713531958437"/>
<polyline points="24.76406813482812 -73.24713531958437 26.18514157457613 -64.4061414586407 28.986247637323725 -55.083300475059964"/>
<polyline points="28.986247637323725 -55.083300475059964 31.787353700071332 -45.7604594914792 35.777601636688935 -36.59110759156922"/>
<polyline points="35.777601636688935 -36.59110759156922 39.76784957330653 -27.421755691659232 44.67531058111013 -19.030769054328413 56.637332716313246 -3.1603617995639786 49.423042550693125 -9.132347545696891"/>
<polyline points="56.637332716313246 -3.1603617995639786 49.806942186268145 -10.359252746990204"/>
<polyline points="42.97655165622306 -17.558143694416415 36.146161126177965 -24.75703464184264"/>
<polyline points="36.146161126177965 -24.75703464184264 28.931870960557877 -30.72902038797555"/>
<polyline points="44.67531058111013 -19.030769054328413 39.76784957330653 -27.42175569165924 34.27761085203598 -34.46254519383787"/>
<polyline points="34.27761085203598 -34.46254519383787 28.78737213076543 -41.503334696016495 23.08850639183401 -46.71410889392424"/>
<polyline points="23.08850639183401 -46.71410889392424 17.389640652902617 -51.92488309183202 11.870516178597615 -54.950536335093"/>
<polyline points="11.870516178597615 -54.950536335093 6.351391704292623 -57.97618957835399 1.3881277067534763 -58.61052859856839"/>
<polyline points="1.3881277067534763 -58.61052859856839 -3.5751362907856654 -59.24486761878277 -7.6443015723082235 -57.44466326001773"/>
<polyline points="-7.6443015723082235 -57.44466326001773 -11.71346685383079 -55.64445890125269 -14.61122653001458 -51.5323921155797"/>
<polyline points="-14.61122653001458 -51.5323921155797 -11.413249321474655 -47.97129819941521 -15.251744577036067 -53.708790416410935"/>
<polyline points="-11.413249321474655 -47.97129819941521 -14.2278980821985 -51.86292164008926"/>
<polyline points="-17.042546842922363 -55.75454508076334 -19.857195603646225 -59.6461685214374"/>
<polyline points="-19.857195603646225 -59.6461685214374 -23.695690859207637 -65.38366073843315"/>
<polyline points="-19.857195603646225 -59.6461685214374 -8.008196668605974 -51.22291476618268 -14.864209511538046 -58.058557689320885"/>
<polyline points="-8.008196668605974 -51.22291476618268 -14.623876652830457 -56.94140240783077"/>
<polyline points="-21.239556637054946 -62.65989004947889 -27.855236621279442 -68.37837769112703"/>
<polyline points="-27.855236621279442 -68.37837769112703 -34.71124946421153 -75.21402061426521"/>
<polyline points="-27.855236621279442 -68.37837769112703 -10.842173304659966 -58.51167570403303 -18.222027641984184 -64.49229653523956"/>
<polyline points="-10.842173304659966 -58.51167570403303 -19.06557181170004 -64.16116323595007"/>
<polyline points="-27.28897031874012 -69.81065076786712 -35.512368825780186 -75.46013829978416"/>
<polyline points="-35.512368825780186 -75.46013829978416 -42.89222316310439 -81.44075913099068"/>
<polyline points="-76.62936136098054 -103.70757595936936 -86.03265934886927 -107.02919028319494"/>
<polyline points="-95.43595733675794 -110.35080460702054 -103.5036941640459 -125.42761024339964 -99.75955874992968 -121.82004936844214"/>
<polyline points="-103.5036941640459 -125.42761024339964 -99.47750311703662 -119.65803488378424"/>
<polyline points="-95.45131207002733 -113.88845952416885 -91.42512102301805 -108.1188841645534"/>
<polyline points="-91.42512102301805 -108.1188841645534 -87.68098560890185 -104.51132328959591"/>
<polyline points="-91.42512102301805 -108.1188841645534 -92.67696565057005 -112.3819656591613 -93.47652075343282 -114.21484703379409"/>
<polyline points="-93.47652075343282 -114.21484703379409 -94.27607585629558 -116.04772840842688 -94.5688530755363 -115.32550182638303"/>
<polyline points="-94.5688530755363 -115.32550182638303 -94.80280602357165 -118.55361781707309 -95.54754563209997 -124.06763244635759"/>
<polyline points="-88.28521308760176 -147.41318755524108 -89.0299526961301 -152.92720218452564"/>
<polyline points="-89.77469230465846 -158.44121681381023 -80.56135621405278 -175.11310602551916 -81.95436898808052 -165.23579139510514"/>
<polyline points="-80.56135621405278 -175.11310602551916 -83.66701953521088 -165.6852292980478"/>
<polyline points="-86.77268285636896 -156.25735257057644 -89.87834617752704 -146.8294758431051"/>
<polyline points="-89.87834617752704 -146.8294758431051 -91.27135895155473 -136.9521612126911"/>
<polyline points="-89.87834617752704 -146.8294758431051 -91.27135895155473 -136.9521612126911 -90.85678965996456 -127.29853134836297"/>
<polyline points="-90.85678965996456 -127.29853134836297 -88.6628905148702 -118.52646517199695 -84.83917211742012 -111.23376449698769"/>
<polyline points="-84.83917211742012 -111.23376449698769 -81.01545371997003 -103.94106382197842 -75.82249615995698 -98.62471414757009"/>
<polyline points="-75.82249615995698 -98.62471414757009 -70.62953859994391 -93.30836447316169 -64.42123335331465 -90.33066624398195"/>
<polyline points="-64.42123335331465 -90.33066624398195 -58.21292810668542 -87.35296801480222 -51.412360916288236 -86.91684644429064"/>
<polyline points="-51.412360916288236 -86.91684644429064 -44.61179372589106 -86.48072487377915 -37.682412007282885 -88.61590092624122 -20.81874459163856 -86.99718847360069 -28.817433170112327 -82.75945421109815"/>
<polyline points="-20.81874459163856 -86.99718847360069 -29.323808768988158 -85.2225294144504"/>
<polyline points="-37.828872946337746 -83.4478703553001 -46.33393712368733 -81.6732112961498"/>
<polyline points="-46.33393712368733 -81.6732112961498 -54.33262570216111 -77.43547703364727"/>
<polyline points="-37.682412007282885 -88.61590092624122 -44.61179372589106 -86.48072487377914 -51.197764059931814 -81.91975991777348"/>
<polyline points="-51.197764059931814 -81.91975991777348 -57.783734393972594 -77.35879496176783 -63.57747034901168 -70.6828633266194"/>
<polyline points="-63.57747034901168 -70.6828633266194 -69.37120630405073 -64.00693169147101 -73.97787434935354 -55.67098708561653"/>
<polyline points="-73.97787434935354 -55.67098708561653 -78.5845423946564 -47.33504247976208 -81.69020571581446 -37.90716575229072"/>
<polyline points="-81.69020571581446 -37.90716575229072 -84.79586903697252 -28.479289024819373 -86.18888181100023 -18.601974394405364"/>
<polyline points="-86.18888181100023 -18.601974394405364 -87.58189458502792 -8.724659763991355 -87.16732529343773 0.9289701003367898"/>
<polyline points="-87.16732529343773 0.9289701003367898 -79.25122872655332 19.149031970074102 -86.14368994872376 12.327101777446797"/>
<polyline points="-79.25122872655332 19.149031970074102 -84.86786574479028 10.902042038816136"/>
<polyline points="-90.48450276302727 2.6550521075581717 -96.10113978126422 -5.591937823699805"/>
<polyline points="-96.10113978126422 -5.591937823699805 -102.99360100343463 -12.413868016327104"/>
<polyline points="-96.10113978126422 -5.591937823699805 -79.66643188300519 5.76067652656101 -88.79386738439624 4.046916398423517"/>
<polyline points="-79.66643188300519 5.76067652656101 -88.64475556918121 1.9352962012107002"/>
<polyline points="-97.62307925535724 -1.8900841241396347 -106.60140294153324 -5.715464449489951"/>
<polyline points="-106.60140294153324 -5.715464449489951 -115.72883844292427 -7.429224577627441"/>
<polyline points="-106.60140294153324 -5.715464449489951 -86.87876522226608 -5.08281110226281 -95.10615493600648 -1.1646106693363183"/>
<polyline points="-86.87876522226608 -5.08281110226281 -96.24216978246292 -3.218344048332411"/>
<polyline points="-105.60557434265978 -1.3538769944020272 -114.96897890285663 0.5105900595283609"/>
<polyline points="-114.96897890285663 0.5105900595283609 -123.19636861659703 4.428790492454854"/>
<polyline points="-161.78600170384084 9.832925329180288 -171.42611205604652 12.446102441152728"/>
<polyline points="-181.06622240825214 15.059279553125139 -191.63620945540944 24.555209071825814 -188.61179001993884 16.045116792662203"/>
<polyline points="-191.63620945540944 24.555209071825814 -187.3349408005622 17.692333746579944"/>
<polyline points="-183.03367214571492 10.829458421334092 -178.73240349086763 3.966583096088226"/>
<polyline points="-178.73240349086763 3.966583096088226 -175.70798405539702 -4.543509183075378"/>
<polyline points="-178.73240349086763 3.966583096088226 -179.60880992311343 12.113966418406239 -179.07544971774985 21.340976977411493"/>
<polyline points="-179.07544971774985 21.340976977411493 -178.54208951238627 30.567987536416744 -176.6353102859895 40.245819810868966"/>
<polyline points="-176.6353102859895 40.245819810868966 -179.78556468024223 30.77669409709969 -183.96460961142407 22.161580212936578"/>
<polyline points="-191.3996960114737 -13.685961021441328 -195.57874094265551 -22.301074905604416"/>
<polyline points="-199.75778587383738 -30.91618878976751 -198.16982558485435 -41.86292265722853 -196.2077180275933 -40.546405756579816"/>
<polyline points="-198.16982558485435 -41.86292265722853 -197.56515834179217 -38.34822015648637"/>
<polyline points="-196.96049109873 -34.83351765574424 -196.35582385566786 -31.318815155002103"/>
<polyline points="-196.35582385566786 -31.318815155002103 -194.39371629840684 -30.002298254353363"/>
<polyline points="-196.35582385566786 -31.318815155002103 -194.39371629840684 -30.002298254353363 -191.2078828144383 -30.973685404930247"/>
<polyline points="-191.2078828144383 -30.973685404930247 -187.01543269085585 -34.16677817771407 -182.10207447523027 -39.363972577074925"/>
<polyline points="-182.10207447523027 -39.363972577074925 -177.18871625960472 -44.56116697643579 -171.88928719462248 -51.408282792827045"/>
<polyline points="-171.88928719462248 -51.408282792827045 -166.5898581296403 -58.255398609218325 -161.26550554835939 -66.28581621514687"/>
<polyline points="-161.26550554835939 -66.28581621514687 -155.94115296707852 -74.3162338210754 -150.95472269900455 -82.98269352758972"/>
<polyline points="-150.95472269900455 -82.98269352758972 -145.96829243093063 -91.64915323410405 -141.65960145836718 -100.36105013420703 -127.65609665009052 -114.61227956440275 -132.73873832445256 -107.78305775322345"/>
<polyline points="-127.65609665009052 -114.61227956440275 -133.91143932217057 -107.3887246358171"/>
<polyline points="-140.16678199425058 -100.16516970723144 -146.42212466633072 -92.9416147786458"/>
<polyline points="-146.42212466633072 -92.9416147786458 -151.50476634069275 -86.11239296746649"/>
<polyline points="-146.42212466633072 -92.9416147786458 -141.3394829919686 -99.77083658982511 -138.1899109114142 -106.22333188831601"/>
<polyline points="-138.1899109114142 -106.22333188831601 -135.04033883085972 -112.67582718680686 -134.03847447648886 -118.31186908126975"/>
<polyline points="-134.03847447648886 -118.31186908126975 -132.824355704585 -113.87636753194282 -129.47699399428555 -110.94367842832561"/>
<polyline points="-111.07233847841985 -92.07201244125729 -107.72497676812034 -89.13932333764012"/>
<polyline points="-104.37761505782088 -86.20663423402287 -86.91009902210689 -78.65543344753996 -96.61648312058053 -77.44569262870961"/>
<polyline points="-86.91009902210689 -78.65543344753996 -96.4554189703138 -79.98362009737245"/>
<polyline points="-106.0007389185207 -81.31180674720493 -115.5460588667276 -82.63999339703736"/>
<polyline points="-115.5460588667276 -82.63999339703736 -125.25244296520128 -81.43025257820698"/>
<polyline points="-115.5460588667276 -82.63999339703736 -125.25244296520128 -81.43025257820698 -134.45841717818877 -77.76502612832581"/>
<polyline points="-134.45841717818877 -77.76502612832581 -142.5366095766667 -71.89409317288012 -148.936504698523 -64.21754809060822"/>
<polyline points="-157.01469709700098 -58.34661513516252 -165.09288949547894 -52.47568217971691 -171.98025871197396 -45.37080988965092"/>
<polyline points="-171.98025871197396 -45.37080988965092 -178.867627928469 -38.26593759958494 -184.0948111327926 -30.41131128011002"/>
<polyline points="-184.0948111327926 -30.41131128011002 -180.88403783768626 -38.480411825705396 -179.90848334580502 -46.21409073005799"/>
<polyline points="-171.2581373812792 -69.98440701193437 -170.28258288939787 -77.718085916287"/>
<polyline points="-169.30702839751663 -85.4517648206396 -169.66895487710335 -86.89199098228359 -164.57689603725615 -87.06923661883755"/>
<polyline points="-169.66895487710335 -86.89199098228359 -166.93943779818918 -86.6109821151982"/>
<polyline points="-164.209920719275 -86.32997324811276 -161.48040364036083 -86.04896438102742"/>
<polyline points="-161.48040364036083 -86.04896438102742 -156.3883448005136 -86.22621001758137"/>
<polyline points="-161.48040364036083 -86.04896438102742 -156.3883448005136 -86.22621001758137 -149.28075959464388 -86.84963116055575"/>
<polyline points="-149.28075959464388 -86.84963116055575 -140.64201820869164 -87.87674268930908 -131.06083659191447 -89.23754865053877"/>
<polyline points="-131.06083659191447 -89.23754865053877 -140.64201820869164 -87.87674268930908 -150.51269836276165 -86.27497897302257"/>
<polyline points="-150.51269836276165 -86.27497897302257 -160.38337851683164 -84.673215256736 -169.87088666776478 -82.93965133561795"/>
<polyline points="-169.87088666776478 -82.93965133561795 -161.41310852160603 -84.68687594519325 -154.56144398374303 -86.32869077350837"/>
<polyline points="-126.43968518925958 -82.48031514365557 -119.58802065139659 -84.12212997197068"/>
<polyline points="-112.73635611353363 -85.76394480028581 -107.49193252325145 -75.60726891098163 -105.49960617564814 -78.62377046006"/>
<polyline points="-107.49193252325145 -75.60726891098163 -107.81798522336287 -79.79746616703261"/>
<polyline points="-108.14403792347427 -83.98766342308356 -108.47009062358569 -88.17786067913453"/>
<polyline points="-108.47009062358569 -88.17786067913453 -106.4777642759824 -91.1943622282129"/>
<polyline points="-108.47009062358569 -88.17786067913453 -106.4777642759824 -91.1943622282129 -102.30283262877856 -92.83159847475346"/>
<polyline points="-102.30283262877856 -92.83159847475346 -96.22981037433043 -92.97799447421531 -88.6725639431348 -91.62357358116597"/>
<polyline points="-88.6725639431348 -91.62357358116597 -96.22981037433043 -92.97799447421531 -104.75626712692781 -95.74093071420089"/>
<polyline points="-104.75626712692781 -95.74093071420089 -113.28272387952515 -98.5038669541865 -122.19732701647072 -102.48702900232136"/>
<polyline points="-122.19732701647072 -102.48702900232136 -113.5020929668815 -97.55508705713112 -105.61879383557448 -92.0104689080308"/>
<polyline points="-79.83872763974364 -62.14042249712735 -71.9554285084366 -56.59580434802704"/>
<polyline points="-64.07212937712956 -51.051186198926715 -62.32666082499561 -32.319241276290306 -61.16861673335255 -39.01548051223998"/>
<polyline points="-62.32666082499561 -32.319241276290306 -62.17897359694407 -40.63365386373313"/>
<polyline points="-62.03128636889252 -48.94806645117596 -61.88359914084097 -57.26247903861878"/>
<polyline points="-61.88359914084097 -57.26247903861878 -60.72555504919791 -63.958718274568426"/>
<polyline points="-61.88359914084097 -57.26247903861878 -60.72555504919791 -63.958718274568426 -58.63607288505051 -68.58044652115355"/>
<polyline points="-58.63607288505051 -68.58044652115355 -55.75754740485283 -70.81270063613636 -52.286145363092075 -70.50335619055515"/>
<polyline points="-49.407619882894394 -72.73561030553797 -56.54037001623126 -61.92733138717086 -50.68423491578828 -62.710654917345046"/>
<polyline points="-56.54037001623126 -61.92733138717086 -51.66291984839013 -65.13019791219638"/>
<polyline points="-46.785469680549 -68.33306443722195 -41.90801951270783 -71.53593096224743"/>
<polyline points="-41.90801951270783 -71.53593096224743 -36.05188441226486 -72.31925449242165"/>
<polyline points="-41.90801951270783 -71.53593096224743 -57.38760562734612 -69.70343946055651 -50.204808430395424 -65.5218414275785"/>
<polyline points="-57.38760562734612 -69.70343946055651 -49.66310450721352 -68.01316874138675"/>
<polyline points="-41.9386033870809 -66.32289802221699 -34.214102266948295 -64.63262730304724"/>
<polyline points="-34.214102266948295 -64.63262730304724 -27.031305069997604 -60.451029270069256"/>
<polyline points="-34.214102266948295 -64.63262730304724 -51.330062709519936 -72.50745056588316 -45.43794264732984 -64.55993619209941"/>
<polyline points="-51.330062709519936 -72.50745056588316 -43.85014039551013 -66.35536016632234"/>
<polyline points="-36.370218081500326 -60.20326976676148 -28.890295767490517 -54.051179367200646"/>
<polyline points="-28.890295767490517 -54.051179367200646 -22.998175705300422 -46.10366499341689"/>
<polyline points="-28.890295767490517 -54.051179367200646 -42.44015148614189 -68.64789724516243 -40.02814641644018 -59.38199528484698"/>
<polyline points="-42.44015148614189 -68.64789724516243 -37.68464506991834 -60.07360486759263"/>
<polyline points="-32.92913865369477 -51.49931249002283 -28.173632237471214 -42.92502011245305"/>
<polyline points="-28.173632237471214 -42.92502011245305 -25.761627167769486 -33.65911815213761"/>
<polyline points="-4.39610015635341 -0.0535582246041208 1.3917128707824962 7.106705626650561"/>
<polyline points="7.1795258979184 14.26696947790523 4.066766527271508 33.78931682594045 7.769432739265531 26.376880488531558"/>
<polyline points="4.066766527271508 33.78931682594045 6.789049001859582 24.89960213769946"/>
<polyline points="9.511331476447658 16.00988744945847 12.233613951035736 7.12017276121749"/>
<polyline points="12.233613951035736 7.12017276121749 15.936280163029778 -0.2922635761913975"/>
<polyline points="12.233613951035736 7.12017276121749 6.409745145146457 14.119471796936308 -0.0698985890861534 19.15042450724309"/>
<polyline points="-0.0698985890861534 19.15042450724309 -6.549542323318753 24.181377217549866 -13.2433839735243 26.901132489279657"/>
<polyline points="-13.2433839735243 26.901132489279657 -6.791518653710962 26.67792148328714 -1.0213136236235418 28.96646620421667"/>
<polyline points="13.582010316419804 35.20219347491837 19.352215346507222 37.4907381958479"/>
<polyline points="25.12242037659464 39.77928291677742 21.151129503674074 47.75516803520933 23.6507066810036 39.8566559530372"/>
<polyline points="21.151129503674074 47.75516803520933 23.4728515716207 41.60228635533233"/>
<polyline points="25.79457363956733 35.44940467545537 28.116295707513945 29.296522995578375"/>
<polyline points="28.116295707513945 29.296522995578375 30.615872884843476 21.398010913406278"/>
<polyline points="28.116295707513945 29.296522995578375 30.615872884843476 21.398010913406278 33.12296311766751 12.292138974430648"/>
<polyline points="33.12296311766751 12.292138974430648 35.46671234978159 2.5994573031278696 37.48739794424584 -7.019493862516649"/>
<polyline points="37.48739794424584 -7.019493862516649 35.46671234978159 2.5994573031278696 33.90679677688901 11.489162337243794"/>
<polyline points="33.90679677688901 11.489162337243794 32.34688120399643 20.378867371359735 31.354041321085806 27.933507566804295"/>
<polyline points="31.354041321085806 27.933507566804295 30.3612014381752 35.488147762248815 30.003097642521414 41.19288687433565"/>
<polyline points="30.003097642521414 41.19288687433565 29.644993846867635 46.89762598642249 29.94603032034999 50.36369547219003"/>
<polyline points="29.94603032034999 50.36369547219003 30.247066793832342 53.82976495795756 31.186728398269295 54.82095790990136"/>
<polyline points="31.186728398269295 54.82095790990136 32.12639000270625 55.81215086184522 33.64064035261967 54.26091911831414"/>
<polyline points="33.64064035261967 54.26091911831414 26.587455756239706 49.322561110589554 28.63123147803064 56.270408437247724"/>
<polyline points="26.587455756239706 49.322561110589554 29.470890419841872 54.19717263573076"/>
<polyline points="32.354325083444024 59.071784160871935 35.23775974704618 63.94639568601314"/>
<polyline points="35.23775974704618 63.94639568601314 37.281535468837106 70.89424301267128"/>
<polyline points="35.23775974704618 63.94639568601312 26.55996476806841 49.916333289266426 28.560929614901152 59.53936179803762"/>
<polyline points="26.55996476806841 49.916333289266426 29.8417190000048 58.52882674079017"/>
<polyline points="33.12347323194121 67.14132019231394 36.405227463877594 75.7538136438377"/>
<polyline points="36.405227463877594 75.7538136438377 38.40619231071035 85.37684215260889"/>
<polyline points="36.405227463877594 75.7538136438377 28.245105375918637 57.50724515621311 29.172530788944023 66.72699702886523"/>
<polyline points="28.245105375918637 57.50724515621311 30.83717110225026 67.00229934010184"/>
<polyline points="33.42923682858188 76.4973535239906 36.0213025549135 85.99240770787934"/>
<polyline points="36.0213025549135 85.99240770787934 36.948727967938886 95.21215958053145"/>
<polyline points="48.9816311865716 133.46767862732304 53.767320642330084 141.84372117447742"/>
<polyline points="58.55301009808856 150.21976372163175 52.23078339871929 166.9916225475087 54.50513261473288 161.9197861084056"/>
<polyline points="52.23078339871929 166.9916225475087 55.04438586060832 160.02537033343128"/>
<polyline points="57.85798832249735 153.05911811935385 60.6715907843864 146.09286590527637"/>
<polyline points="60.6715907843864 146.09286590527637 62.94594000039997 141.02102946617325"/>
<polyline points="60.6715907843864 146.09286590527637 56.03100192828044 150.15395634118602 52.165287119119675 152.00943406529296"/>
<polyline points="52.165287119119675 152.00943406529296 48.299572309958926 153.8649117893999 45.47217362359187 153.38832906112825"/>
<polyline points="45.47217362359187 153.38832906112825 47.06857363918657 156.16449391643712 47.325182961121875 161.0510498517232"/>
<polyline points="39.484183609263766 175.33475495306925 39.74079293119907 180.22131088835536"/>
<polyline points="39.99740225313435 185.10786682364144 25.68758188689441 192.70309246652755 32.656416491183144 185.75146956802726"/>
<polyline points="25.68758188689441 192.70309246652755 32.998570165192106 187.13887861729233"/>
<polyline points="40.30955844348978 181.57466476805703 47.620546721787456 176.01045091882182"/>
<polyline points="47.620546721787456 176.01045091882182 54.589381326076214 169.05882802032158"/>
<polyline points="47.620546721787456 176.01045091882182 54.589381326076214 169.05882802032158 60.741147694617496 161.1935376849891"/>
<polyline points="60.741147694617496 161.1935376849891 65.65661311566981 152.95058645117052 69.00079674397912 144.89171782332951"/>
<polyline points="69.00079674397912 144.89171782332951 72.34498037228843 136.83284919548848 73.8899816201102 129.50726175270233"/>
<polyline points="73.8899816201102 129.50726175270233 75.43498286793198 122.18167430991618 75.07551245346245 116.08859473030508"/>
<polyline points="75.07551245346245 116.08859473030508 74.71604203899292 109.99551515069402 72.47659727692525 105.55017673831841"/>
<polyline points="72.47659727692525 105.55017673831841 70.23715251485758 101.10483832594285 66.27034786486922 98.61018354733707 58.41728055811711 87.09818770974587 65.3021757528997 88.60721668230315"/>
<polyline points="58.41728055811711 87.09818770974587 64.01368793946564 90.85884235507407"/>
<polyline points="69.61009532081414 94.61949700040216 75.20650270216265 98.38015164573036"/>
<polyline points="75.20650270216265 98.38015164573036 82.09139789694522 99.88918061828758"/>
<polyline points="66.27034786486922 98.61018354733707 70.23715251485758 101.10483832594285 75.66098587132457 101.47880287022876"/>
<polyline points="75.66098587132457 101.47880287022876 81.08481922779154 101.85276741451469 87.59605601080237 100.08055665879333"/>
<polyline points="87.59605601080237 100.08055665879333 94.10729279381316 98.30834590307192 101.26220297693315 94.51073308162889"/>
<polyline points="101.26220297693315 94.51073308162889 108.41711316005313 90.7131202601859 115.72810143835082 85.14890641095063"/>
<polyline points="115.72810143835082 85.14890641095063 123.03908971664846 79.58469256171534 130.0079243209372 72.63306966321512"/>
<polyline points="130.0079243209372 72.63306966321512 136.976758925226 65.68144676471488 143.12852529376727 57.81615642938243"/>
<polyline points="143.12852529376727 57.81615642938243 149.28029166230854 49.950866094049985 154.19575708336086 41.707914860231355"/>
<polyline points="154.19575708336086 41.707914860231355 159.11122250441315 33.46496362641273 162.45540613272246 25.406094998571735"/>
<polyline points="162.45540613272246 25.406094998571735 165.79958976103177 17.347226370730716 167.34459100885357 10.021638927944512"/>
<polyline points="167.34459100885357 10.021638927944512 168.88959225667534 2.6960514851583697 168.53012184220586 -3.397028094452719"/>
<polyline points="168.53012184220586 -3.397028094452719 168.17065142773632 -9.49010767406379 165.9312066656686 -13.93544608643938"/>
<polyline points="165.9312066656686 -13.93544608643938 163.69176190360096 -18.380784498814986 159.7249572536126 -20.875439277420757"/>
<polyline points="159.7249572536126 -20.875439277420757 154.12992207319814 -24.74722149543869 147.1333387962403 -26.451388999544157"/>
<polyline points="147.1333387962403 -26.451388999544157 140.1367555192824 -28.15555650364961 132.21542973370524 -27.575973094707795"/>
<polyline points="132.21542973370524 -27.575973094707795 140.52167276622444 -30.399809765184386 148.64677630973517 -35.27545989471355"/>
<polyline points="174.28942840645502 -59.094324053139076 182.41453194996572 -63.96997418266823"/>
<polyline points="190.53963549347645 -68.84562431219739 193.3877415140055 -87.38281240448742 192.81949783070468 -77.5276598284748"/>
<polyline points="193.3877415140055 -87.38281240448742 192.3564528584265 -77.48363272542862"/>
<polyline points="191.32516420284753 -67.58445304636983 190.29387554726856 -57.68527336731104"/>
<polyline points="190.29387554726856 -57.68527336731104 189.72563186396772 -47.830120791298405"/>
<polyline points="190.29387554726856 -57.68527336731104 189.72563186396772 -47.830120791298405 189.65915802089492 -38.69060767997753"/>
<polyline points="189.65915802089492 -38.69060767997753 190.09898410060234 -30.889576748125354 191.0151366826048 -24.958655361934447"/>
<polyline points="191.0151366826048 -24.958655361934447 190.09898410060234 -30.889576748125354 188.7689393007544 -34.546206097497056"/>
<polyline points="188.7689393007544 -34.546206097497056 187.43889450090649 -38.20283544686877 185.78559783831992 -39.33597951212734"/>
<polyline points="185.78559783831992 -39.33597951212734 187.64947692829182 -40.80354262642016 189.59691816587338 -44.77180091928806"/>
<polyline points="186.96693785716022 -60.983791603870365 188.9143790947417 -64.95204989673825"/>
<polyline points="190.86182033232325 -68.92030818960616 181.74347285258725 -83.01144464033597 184.04113022837058 -73.40329566561125"/>
<polyline points="181.74347285258725 -83.01144464033597 185.29282981615154 -74.39084627406673"/>
<polyline points="188.84218677971577 -65.77024790779745 192.39154374328012 -57.14964954152821"/>
<polyline points="192.39154374328012 -57.14964954152821 194.68920111906348 -47.541500566803464"/>
<polyline points="192.39154374328012 -57.14964954152821 194.68920111906348 -47.541500566803464 195.57857735396476 -37.60058045803383"/>
<polyline points="195.57857735396476 -37.60058045803383 194.99906292733894 -28.00434649248469 192.9901507896679 -19.406766156381778"/>
<polyline points="192.9901507896679 -19.406766156381778 194.99906292733894 -28.00434649248469 198.3004687337573 -35.01736230740923"/>
<polyline points="198.3004687337573 -35.01736230740923 201.60187454017571 -42.03037812233378 205.97078866546505 -46.98090397784949"/>
<polyline points="205.97078866546505 -46.98090397784949 200.8321004989713 -44.43023823766524 195.27383139773588 -44.45325626783158"/>
<polyline points="165.24149365286476 -43.41874826189899 159.68322455162937 -43.441766292065324"/>
<polyline points="154.124955450394 -43.464784322231665 135.87554821152835 -50.543637372280386 142.00511507100842 -42.80649228067842"/>
<polyline points="135.87554821152835 -50.543637372280386 143.77173964970393 -44.70645437658955"/>
<polyline points="151.66793108787954 -38.86927138089871 159.56412252605514 -33.032088385207885"/>
<polyline points="159.56412252605514 -33.032088385207885 165.69368938553518 -25.294943293605915"/>
<polyline points="159.56412252605514 -33.032088385207885 165.69368938553518 -25.294943293605915 169.63891181443427 -16.18510975784865"/>
<polyline points="169.63891181443427 -16.18510975784865 171.13092942401133 -6.323407878686248 170.06806367984925 3.618103658049317"/>
<polyline points="171.56008128942628 13.479805537211744 162.0503262068442 -4.081886561324326 162.10313064531533 5.599112898914078"/>
<polyline points="162.0503262068442 -4.081886561324326 164.5389655251615 5.474667889877103"/>
<polyline points="167.02760484347883 15.031222341078522 169.51624416179612 24.587776792279957"/>
<polyline points="169.51624416179612 24.587776792279957 169.56904860026734 34.268776252518336"/>
<polyline points="169.51624416179612 24.587776792279957 168.99579843931545 7.180163863931832 164.23759070719993 14.642105249486349"/>
<polyline points="168.99579843931545 7.180163863931832 166.66747014098442 15.548170707601585"/>
<polyline points="164.33914184265342 23.916177551271353 162.01081354432242 32.2841843949411"/>
<polyline points="162.01081354432242 32.2841843949411 157.25260581220684 39.74612578049564"/>
<polyline points="162.01081354432242 32.2841843949411 170.8058619273365 20.416356616758264 162.61654262999886 23.313701125847356"/>
<polyline points="170.8058619273365 20.416356616758264 164.2904323020612 24.987752348099647"/>
<polyline points="157.77500267678582 29.55914807944107 151.2595730515105 34.130543810782456"/>
<polyline points="151.2595730515105 34.130543810782456 143.07025375417282 37.027888319871565"/>
<polyline points="151.2595730515105 34.130543810782456 166.05907198194643 31.993745451021912 156.95606660373787 29.494266341475782"/>
<polyline points="166.05907198194643 31.993745451021912 157.51661748167308 31.252963969298918"/>
<polyline points="148.9741629813998 30.512182487575895 140.43170848112644 29.771401005852898"/>
<polyline points="140.43170848112644 29.771401005852898 131.32870310291784 27.271921896306775"/>
<polyline points="97.71943597975975 26.067493597237885 90.69469085968659 24.011881174894185"/>
<polyline points="83.6699457396134 21.95626875255047 64.50204204069043 16.535121029781383 71.39787494645672 23.640226776056586"/>
<polyline points="64.50204204069043 16.535121029781383 73.03260634837669 21.61609067595494"/>
<polyline points="81.56317065606297 26.697060322128504 90.09373496374924 31.77802996830206"/>
<polyline points="90.09373496374924 31.77802996830206 96.98956786951558 38.88313571457726"/>
<polyline points="90.09373496374924 31.77802996830206 83.56528385217102 25.291045019965303 79.1289855280646 17.24306323094985"/>
<polyline points="79.1289855280646 17.24306323094985 74.6926872039582 9.195081441934404 72.65086806678188 0.1345594712429072"/>
<polyline points="72.65086806678188 0.1345594712429072 72.15906141709522 9.590162024528333 69.16714479097281 18.796461472523323"/>
<polyline points="59.96660011958092 57.72350887771305 56.97468349345852 66.92980832570804"/>
<polyline points="53.982766867336096 76.13610777370302 44.88022581857508 90.70906822015776 53.081110564057006 87.01682976837594"/>
<polyline points="44.88022581857508 90.70906822015776 51.48122711846484 85.02606525232758"/>
<polyline points="58.08222841835458 79.34306228449744 64.68322971824433 73.6600593166673"/>
<polyline points="64.68322971824433 73.6600593166673 72.88411446372628 69.96782086488552"/>
<polyline points="64.68322971824433 73.6600593166673 72.88411446372628 69.96782086488552 82.12600591199862 68.5179668779285"/>
<polyline points="82.12600591199862 68.5179668779285 91.7790844338094 69.40930250901037 101.18550868036367 72.58108470787467"/>
<polyline points="101.18550868036367 72.58108470787467 91.7790844338094 69.40930250901037 83.2603467300632 64.17322545759832"/>
<polyline points="83.2603467300632 64.17322545759832 74.74160902631704 58.93714840618628 67.6910957620096 51.993606500253776"/>
<polyline points="67.6910957620096 51.993606500253776 60.64058249770215 45.050064594321256 55.5387745002719 36.872248740012026"/>
<polyline points="55.5387745002719 36.872248740012026 50.43696650284165 28.6944328857028 47.631543556177135 19.839647719008337"/>
<polyline points="47.631543556177135 19.839647719008337 44.82612060951263 10.984862552313889 44.50826765124838 2.0565470491200624"/>
<polyline points="44.50826765124838 2.0565470491200624 44.190414692984135 -6.871768454073756 46.38179287694906 -15.265164346963289"/>
<polyline points="46.38179287694906 -15.265164346963289 52.76909740179787 -34.217780118915286 45.30010128840755 -27.596947855009414"/>
<polyline points="52.76909740179787 -34.217780118915286 47.249704460013234 -25.885287233967542"/>
<polyline points="41.73031151822861 -17.552794349019795 36.21091857644401 -9.22030146407204"/>
<polyline points="36.21091857644401 -9.22030146407204 28.74192246305368 -2.5994692001661583"/>
<polyline points="36.21091857644401 -9.22030146407204 51.234579710191305 -21.817509591159677 41.45445549781542 -20.105257414988706"/>
<polyline points="51.234579710191305 -21.817509591159677 42.28360526234865 -17.670785266326575"/>
<polyline points="33.33263081450593 -13.524060941493463 24.381656366663275 -9.377336616660353"/>
<polyline points="24.381656366663275 -9.377336616660353 14.601532154287371 -7.665084440489376"/>
<polyline points="24.381656366663275 -9.377336616660353 42.84915555648231 -11.611457954107507 33.89448838189525 -15.459805218719033"/>
<polyline points="42.84915555648231 -11.611457954107507 33.434138236066744 -13.025275931405565"/>
<polyline points="24.019120915651186 -14.439093908703631 14.604103595235632 -15.852911886001698"/>
<polyline points="14.604103595235632 -15.852911886001698 5.649436420648575 -19.701259150613225"/>
<polyline points="-32.470983006842175 -22.922001772491978 -40.76963841145064 -24.2567508058907"/>
<polyline points="-49.06829381605911 -25.591499839289412 -64.99458031702949 -37.39669897305915 -60.58415632887239 -28.469008970217093"/>
<polyline points="-64.99458031702949 -37.39669897305915 -58.58955060259501 -29.719976202997955"/>
<polyline points="-52.18452088816053 -22.043253432936762 -45.779491173726065 -14.36653066287558"/>
<polyline points="-45.779491173726065 -14.36653066287558 -41.36906718556894 -5.438840660033532"/>
<polyline points="-45.779491173726065 -14.36653066287558 -49.14791494178051 -23.670631776691533 -50.25667517384154 -33.60446690571796"/>
<polyline points="-50.25667517384154 -33.60446690571796 -51.36543540590256 -43.538302034744355 -50.13897192446815 -53.42489673137684"/>
<polyline points="-50.13897192446815 -53.42489673137684 -53.617077659964984 -44.25929755734358 -59.109798491491595 -36.43931434275114"/>
<polyline points="-75.70493621573216 -6.462745563854414 -81.19765704725877 1.3572376507380377"/>
<polyline points="-86.69037787878543 9.177220865330503 -94.69458493173758 14.279191535150739 -87.83058410771656 15.704719150135983"/>
<polyline points="-94.69458493173758 14.279191535150739 -89.06987542777757 13.696611750402308"/>
<polyline points="-83.44516592381758 13.11403196565388 -77.82045641985758 12.53145218090545"/>
<polyline points="-77.82045641985758 12.53145218090545 -70.95645559583653 13.956979795890694"/>
<polyline points="-77.82045641985758 12.53145218090545 -70.95645559583653 13.956979795890694 -63.32093376461388 17.293467459444162"/>
<polyline points="-63.32093376461388 17.293467459444162 -55.43423912069095 22.313539051101227 -47.83383687067195 28.675084987951028"/>
<polyline points="-47.83383687067195 28.675084987951028 -40.233434620652964 35.03663092480084 -33.4372796176181 42.30612236419878"/>
<polyline points="-33.4372796176181 42.30612236419878 -26.641124614583255 49.575613803596724 -21.112363590812215 57.25764691735048"/>
<polyline points="-21.112363590812215 57.25764691735048 -15.583602567041147 64.93968003110422 -11.699011449594309 72.51073695767141"/>
<polyline points="-11.699011449594309 72.51073695767141 -7.814420332147473 80.0817938842386 -5.838727586088493 87.02591960583683 4.848061621993958 98.35187810494025 3.6525465644600774 94.16035802121695"/>
<polyline points="4.848061621993958 98.35187810494025 1.4632729127529234 93.25081389013691"/>
<polyline points="-1.921515796488111 88.14974967533361 -5.306304505729146 83.04868546053027"/>
<polyline points="-5.306304505729146 83.04868546053027 -6.501819563263016 78.85716537680695"/>
<polyline points="-5.838727586088493 87.02591960583683 -3.8630348400294925 93.97004532743506 -3.930880661015661 99.81400915184777"/>
<polyline points="-3.930880661015661 99.81400915184777 -3.9987264820018296 105.65797297626045 -6.105487289453416 110.00351842646074"/>
<polyline points="-6.105487289453416 110.00351842646074 -8.212248096905041 114.34906387666102 -12.214351623381114 116.9000492115711"/>
<polyline points="-12.214351623381114 116.9000492115711 -16.21645514985721 119.45103454648127 -21.841164653817206 120.03361433122971"/>
<polyline points="-21.841164653817206 120.03361433122971 -27.46587415777722 120.61619411597816 -34.32987498179819 119.1906665009929"/>
<polyline points="-34.32987498179819 119.1906665009929 -41.19387580581923 117.76513888600766 -48.82939763704187 114.42865122245422"/>
<polyline points="-48.82939763704187 114.42865122245422 -56.464919468264554 111.09216355890074 -64.35161411218748 106.07209196724372"/>
<polyline points="-64.35161411218748 106.07209196724372 -72.23830875611037 101.05202037558665 -79.8387110061294 94.69047443873686"/>
<polyline points="-79.8387110061294 94.69047443873686 -72.23830875611037 101.05202037558665 -65.44215375307554 108.32151181498459"/>
<polyline points="-65.44215375307554 108.32151181498459 -58.6459987500407 115.59100325438254 -53.11723772626964 123.27303636813629"/>
<polyline points="-53.11723772626964 123.27303636813629 -57.00182884371652 115.70197944156907 -58.97752158977544 108.75785371997081"/>
<polyline points="-60.24634130619198 75.32741154551397 -62.222034052250976 68.38328582391573"/>
<polyline points="-64.19772679830997 61.439160102317494 -53.05470579215295 47.13741162255671 -60.3826313197307 49.855985886126774"/>
<polyline points="-53.05470579215295 47.13741162255671 -59.73194522378394 52.2462140972598"/>
<polyline points="-66.40918465541493 57.355016571962906 -73.08642408704588 62.463819046665996"/>
<polyline points="-73.08642408704588 62.463819046665996 -80.41434961462362 65.18239331023607"/>
<polyline points="-73.08642408704588 62.463819046665996 -80.41434961462362 65.18239331023607 -87.89357522341318 65.32547301926718"/>
<polyline points="-87.89357522341318 65.32547301926718 -95.01440404818021 62.88330752803927 -101.29156337224296 58.02232637891024"/>
<polyline points="-64.19772679830997 61.439160102317494 -64.05766647556227 53.36127765222376 -62.425322644438396 46.81984163767682"/>
<polyline points="-62.425322644438396 46.81984163767682 -60.79297881331456 40.27840562312987 -57.779593008329925 35.71920409828694"/>
<polyline points="-57.779593008329925 35.71920409828694 -54.766207203345296 31.160002573443997 -50.577136687254075 28.89373758778636"/>
<polyline points="-50.577136687254075 28.89373758778636 -46.388066171162855 26.62747260212873 -41.308789176870306 26.80858636924899"/>
<polyline points="-41.308789176870306 26.80858636924899 -36.22951218257775 26.989700136369255 -30.60617304334282 29.605850052342813"/>
<polyline points="-30.60617304334282 29.605850052342813 -24.982833904107896 32.221999968316396 -19.198653889262108 37.09489973976181"/>
<polyline points="-19.198653889262108 37.09489973976181 -13.414473874416332 41.96779951120723 -7.863635293162014 48.765369071548136"/>
<polyline points="-7.863635293162014 48.765369071548136 -2.3127967119077106 55.56293863188904 2.6264199596371376 63.821934849103044"/>
<polyline points="2.6264199596371376 63.821934849103044 7.565636631181988 72.080931066317 11.556631939293093 81.23851699683753"/>
<polyline points="11.556631939293093 81.23851699683753 15.547627247404181 90.39610292735806 18.318421457265305 99.8282042236464"/>
<polyline points="18.318421457265305 99.8282042236464 21.089215667126442 109.26030551993475 22.450983732289522 118.3241400659333"/>
<polyline points="22.450983732289522 118.3241400659333 23.812751797452616 127.38797461193185 23.67269147470493 135.46585706202555"/>
<polyline points="23.67269147470493 135.46585706202555 23.532631151957236 143.5437395121193 21.900287320833392 150.08517552666626"/>
<polyline points="21.900287320833392 150.08517552666626 20.267943489709534 156.6266115412132 17.254557684724894 161.1858130660562"/>
<polyline points="17.254557684724894 161.1858130660562 14.24117187974023 165.74501459089905 10.052101363648998 168.01127957655675"/>
<polyline points="10.052101363648998 168.01127957655675 5.86303084755779 170.27754456221436 0.7837538532652226 170.0964307950941"/>
<polyline points="0.7837538532652226 170.0964307950941 -4.295523141027314 169.91531702797386 -9.918862280262239 167.2991671120003"/>
<polyline points="-9.918862280262239 167.2991671120003 -15.5422014194972 164.6830171960267 -21.32638143434296 159.81011742458134"/>
<polyline points="-21.32638143434296 159.81011742458134 -27.11056144918872 154.93721765313586 -32.66140003044303 148.13964809279497"/>
<polyline points="-32.66140003044303 148.13964809279497 -38.21223861169736 141.34207853245405 -43.151455283242214 133.08308231524"/>
<polyline points="-43.151455283242214 133.08308231524 -48.09067195478704 124.82408609802604 -52.08166726289812 115.66650016750556"/>
<polyline points="-52.08166726289812 115.66650016750556 -56.07266257100923 106.50891423698499 -58.84345678087038 97.07681294069666"/>
<polyline points="-58.84345678087038 97.07681294069666 -55.48641029612727 77.42290805403 -59.47969256200992 85.8427416281781"/>
<polyline points="-55.48641029612727 77.42290805403 -58.422352867434405 86.86813952049913"/>
<polyline points="-61.35829543874156 96.31337098696831 -64.29423801004872 105.75860245343746"/>
<polyline points="-64.29423801004872 105.75860245343746 -68.28752027593139 114.17843602758558"/>
<polyline points="-64.29423801004872 105.75860245343746 -52.206349050630585 90.44695832519439 -59.220319153486074 94.54193204709307"/>
<polyline points="-52.206349050630585 90.44695832519439 -58.965623017209865 96.52961781425935"/>
<polyline points="-65.72489698378912 102.61227730332432 -72.48417095036844 108.69493679238933"/>
<polyline points="-72.48417095036844 108.69493679238933 -79.49814105322389 112.78991051428805"/>
<polyline points="-72.48417095036844 108.69493679238933 -55.24478161658223 102.83380968235407 -62.73998798172522 101.26228137527663"/>
<polyline points="-55.24478161658223 102.83380968235407 -63.58646821064864 103.53729809261914"/>
<polyline points="-71.92815480471509 104.24078650288426 -80.26984139878152 104.94427491314933"/>
<polyline points="-80.26984139878152 104.94427491314933 -87.76504776392453 103.37274660607187"/>
<polyline points="-121.97827436911349 108.46171696447477 -131.44855412285185 108.5026602913773"/>
<polyline points="-140.91883387659016 108.54360361827983 -149.26941012191477 102.27231346748286 -145.48369974619393 109.6505185234013"/>
<polyline points="-149.26941012191477 102.27231346748286 -145.14849406308653 107.71468277015975"/>
<polyline points="-141.0275780042583 113.15705207283669 -136.90666194543 118.5994213755136"/>
<polyline points="-136.90666194543 118.5994213755136 -133.12095156970912 125.97762643143207"/>
<polyline points="-136.90666194543 118.5994213755136 -138.21322583808399 111.00918051118622 -139.01106900962625 101.99314132008641"/>
<polyline points="-139.01106900962625 101.99314132008641 -139.80891218116855 92.97710212898662 -140.04366293795664 83.14969278227869"/>
<polyline points="-140.04366293795664 83.14969278227869 -140.38800247205376 93.11875057817848 -141.2879661268355 102.55008200912654"/>
<polyline points="-134.67049240189772 139.17632994014443 -135.57045605667946 148.60766137109246"/>
<polyline points="-136.47041971146112 158.0389928020405 -127.64868935665982 168.26641213589872 -128.82897510289266 166.42142783418558"/>
<polyline points="-127.64868935665982 168.26641213589872 -130.5428820428176 164.6643270796494"/>
<polyline points="-133.43707472897535 161.06224202340013 -136.3312674151331 157.46015696715085"/>
<polyline points="-136.3312674151331 157.46015696715085 -137.51155316136598 155.61517266543777"/>
<polyline points="-136.3312674151331 157.46015696715085 -137.51155316136598 155.61517266543777 -136.8974974445825 155.65302174944185"/>
<polyline points="-136.8974974445825 155.65302174944185 -134.53094714710647 157.57112486663692 -130.57317876080165 161.23876645940126"/>
<polyline points="-130.57317876080165 161.23876645940126 -126.61541037449682 164.90640805216566 -121.33613927436825 170.07364440701676"/>
<polyline points="-121.33613927436825 170.07364440701676 -116.05686817423971 175.24088076186794 -109.81586796135319 181.55557326048452"/>
<polyline points="-109.81586796135319 181.55557326048452 -103.57486774846676 187.8702657591012 -96.79745227359017 194.9020785432253"/>
<polyline points="-96.79745227359017 194.9020785432253 -90.02003679871349 201.93389132734941 -83.16807572625085 209.20361797636303 -66.31827544855213 219.2336442828311 -74.20459586625911 213.96802334096077"/>
<polyline points="-66.31827544855213 219.2336442828311 -74.76158450636112 213.91199648374447"/>
<polyline points="-83.20489356417022 208.59034868465784 -91.6482026219793 203.26870088557126"/>
<polyline points="-91.6482026219793 203.26870088557126 -99.53452303968626 198.0030799437009"/>
</svg>