<svg transform="scale(1,-1)" viewBox="-563.1148535400127 -256.77464617741896 1134.0933801577678 760.8432032080277" xmlns="http://www.w3.org/2000/svg">
<style>
svg { stroke:black; stroke-width:2; fill:none;}
</style>
<polyline points="567.978526617755 -98.15720521809011 566.1853282774898 -88.54822969647441"/>
<polyline points="566.1853282774898 -88.54822969647533 559.1788427616007 -94.93346758746567"/>
<polyline points="559.1788427616007 -94.93346758746567 559.3724174103749 -86.45033304387134"/>
<polyline points="559.3724174103749 -86.45033304387134 549.8615946514069 -89.5154077747304"/>
<polyline points="549.8615946514069 -89.5154077747304 551.5909222149825 -99.0096567436929"/>
<polyline points="551.5909222149825 -99.0096567436929 552.4557780344085 -93.13282420406274"/>
<polyline points="552.4557780344085 -93.13282420406274 554.1851055979839 -102.62707317302524"/>
<polyline points="554.1851055979839 -102.62707317302524 559.4991183111749 -98.87601026219846"/>
<polyline points="559.4991183111749 -98.87601026219846 561.1889708571239 -94.00490458909567"/>
<polyline points="561.1889708571239 -94.00490458909567 554.4219672713481 -89.86340226401477"/>
<polyline points="554.4219672713481 -89.86340226401477 559.0617895244353 -84.60100490152355"/>
<polyline points="559.0617895244353 -84.60100490152355 550.621362335819 -79.34620390229307"/>
<polyline points="550.621362335819 -79.34620390229307 549.5033963474424 -89.2799164952716"/>
<polyline points="549.5033963474424 -89.2799164952716 545.9855784182035 -80.28627158796664"/>
<polyline points="545.9855784182035 -80.28627158796664 544.2477682865014 -90.05156136896188"/>
<polyline points="544.2477682865014 -90.05156136896188 537.955123073396 -83.52022067526644"/>
<polyline points="537.955123073396 -83.52022067526644 546.3274827594545 -78.73670143792728"/>
<polyline points="546.3274827594545 -78.73670143792728 538.688316193432 -85.11910512860757"/>
<polyline points="538.688316193432 -85.11910512860757 539.8106010659926 -77.73252199732477"/>
<polyline points="539.8106010659926 -77.73252199732477 537.1427909695695 -81.19979231907178"/>
<polyline points="537.1427909695695 -81.19979231907178 539.3523967292955 -90.90121279299403"/>
<polyline points="539.3523967292955 -90.90121279299403 529.6857011514782 -90.063883179193"/>
<polyline points="529.6857011514782 -90.063883179193 530.2806675388977 -80.1335318401412"/>
<polyline points="530.2806675388977 -80.1335318401412 537.6363483225134 -86.62416730814499"/>
<polyline points="537.6363483225134 -86.62416730814499 540.9764570129 -94.38520007181991"/>
<polyline points="537.6363483225134 -86.62416730814499 540.9764570129 -94.38520007181991"/>
<polyline points="540.9764570129 -94.38520007181991 541.2639956479358 -104.36103362973357"/>
<polyline points="541.2639956479358 -104.36103362973357 534.7001038122552 -106.25756334528674 514.733948905538 -105.241171570047 505.87205062873824 -109.67032715964449 496.2954006547071 -109.19055867034137 475.70290396410263 -103.82909222083883"/>
<polyline points="475.70290396410263 -103.82909222083883 469.19341631481467 -108.95389603798746 451.08740958438415 -110.658334231425 444.57792193509624 -115.78313804857362 436.8101982116562 -115.93524200497669 424.46427405846504 -108.18668111453914"/>
<polyline points="424.46427405846504 -108.18668111453914 421.75638860336994 -112.53178214024359"/>
<polyline points="424.46427405846504 -108.18668111453914 421.75638860336994 -112.53178214024359"/>
<polyline points="424.46427405846504 -108.18668111453914 418.1392989465021 -110.11785364619793"/>
<polyline points="418.1392989465021 -110.11785364619793 408.8936771597834 -113.70727928790315"/>
<polyline points="436.8101982116562 -115.93524200497669 430.48522309969314 -117.86641453663543 415.5197161088069 -106.56723211171875 412.10944227441956 -99.71782510458756 405.8614658700354 -92.21440543354794 395.33742693800065 -64.70817084235756"/>
<polyline points="395.33742693800065 -64.70817084235756 395.57742809877215 -55.586488284071564 386.34606825320117 -38.50249745920073 386.5860694139726 -29.380814900914807 383.2722084151152 -19.951992139521092 379.2138067127505 6.654208287399935"/>
<polyline points="379.2138067127505 6.654208287399935 386.41555499101986 13.413772255680657"/>
<polyline points="379.2138067127505 6.654208287399935 382.8551640902203 15.950212458362568"/>
<polyline points="383.2722084151152 -19.951992139521092 382.47880197144576 -10.002422078596041"/>
<polyline points="383.2722084151152 -19.951992139521092 382.47880197144576 -10.002422078596041"/>
<polyline points="395.33742693800065 -64.70817084235756 391.2238856959795 -56.172480583290984"/>
<polyline points="391.2238856959795 -56.172480583290984 381.8128873974287 -52.870777778762914"/>
<polyline points="391.2238856959795 -56.172480583290984 381.8128873974287 -52.870777778762914"/>
<polyline points="381.8128873974287 -52.870777778762914 374.0778520519124 -50.874099975713"/>
<polyline points="405.8614658700354 -92.21440543354794 401.7479246280142 -83.67871517448133 384.8606818863021 -74.88130466632181 380.16400579105533 -68.30367818906544 372.0175654941164 -65.49886290876172 351.6987740539507 -70.70373420948027"/>
<polyline points="351.6987740539507 -70.70373420948027 349.23897899236323 -67.15696252269446 335.2876181512808 -61.73042514546031 332.82782308969314 -58.18365345867443 326.45359062921847 -57.75297393425827 311.3818480592194 -71.41692606299529"/>
<polyline points="311.3818480592194 -71.41692606299529 311.5133363662861 -71.91366652910096"/>
<polyline points="311.3818480592194 -71.41692606299529 311.5133363662861 -71.91366652910096"/>
<polyline points="311.3818480592194 -71.41692606299529 307.1889310457541 -71.1624963034493"/>
<polyline points="307.1889310457541 -71.1624963034493 301.69548117797467 -64.91705522563767"/>
<polyline points="326.45359062921847 -57.75297393425827 322.2606736157531 -57.49854417471233 303.38271729499667 -61.61216181433637 296.5137504677897 -68.11264449167416 287.0368415206201 -71.29449169949652 262.66677143896834 -81.49365823334763"/>
<polyline points="262.66677143896834 -81.49365823334763 257.5090676716264 -90.01654749420018 240.00864564207282 -99.63999886454255 234.85094187473078 -108.16288812539504 226.69102605634893 -113.07454119136153 208.26576016836378 -121.66978741709929"/>
<polyline points="208.26576016836378 -121.66978741709929 210.20302740135585 -130.61893398638628"/>
<polyline points="208.26576016836378 -121.66978741709929 205.8521626581135 -130.03107776828915"/>
<polyline points="226.69102605634893 -113.07454119136153 220.28089519531608 -119.7246103889687"/>
<polyline points="262.66677143896834 -81.49365823334763 254.31388257754048 -86.9917581597955"/>
<polyline points="303.38271729499667 -61.61216181433637 296.2194012719566 -62.10065571961074"/>
<polyline points="296.2194012719566 -62.10065571961074 291.2189369068224 -53.64251107703619"/>
<polyline points="322.2606736157531 -57.49854417471233 315.09735759271297 -57.98703807998666"/>
<polyline points="326.45359062921847 -57.75297393425827 322.2606736157531 -57.49854417471233"/>
<polyline points="351.6987740539507 -70.70373420948027 345.3009442095218 -67.2828480393014"/>
<polyline points="345.3009442095218 -67.2828480393014 335.3276392160948 -66.59115862064374"/>
<polyline points="345.3009442095218 -67.2828480393014 335.3276392160948 -66.59115862064374"/>
<polyline points="335.3276392160948 -66.59115862064374 328.3052138832122 -59.47385893719445"/>
<polyline points="372.0175654941164 -65.49886290876172 365.6197356496875 -62.077976738582834 346.0315250359399 -65.7119913832037 338.52985600805505 -71.04641515284435 329.2978776113738 -74.82247712279091 309.3974183471818 -92.30346621587285"/>
<polyline points="309.3974183471818 -92.30346621587285 304.6072234782012 -100.94840635282453 287.9396946355243 -111.94561795452722 283.1494997665436 -120.5905580914789 276.03723752391045 -127.12422063281406 263.91562100635394 -145.66103848097333"/>
<polyline points="263.91562100635394 -145.66103848097333 262.82615228056267 -155.4938439279891"/>
<polyline points="263.91562100635394 -145.66103848097333 262.82615228056267 -155.4938439279891"/>
<polyline points="263.91562100635394 -145.66103848097333 258.6895893671943 -153.91088788504962"/>
<polyline points="258.6895893671943 -153.91088788504962 250.6169705534713 -158.76404484853649"/>
<polyline points="276.03723752391045 -127.12422063281406 270.81120588475073 -135.37407003689037 254.11602194598044 -137.1142345558953 249.63379551394198 -138.8536604371338 241.97591767952127 -137.3677460051245 225.0682718178783 -118.80880875207812"/>
<polyline points="225.0682718178783 -118.80880875207812 223.4604946061108 -116.67766990985103 210.86683226152488 -112.24758985071429 209.25905504975728 -110.11645100848712 203.89319484881435 -105.51532941255527 192.99710783885104 -80.30074616793429"/>
<polyline points="192.99710783885104 -80.30074616793429 198.5344325839853 -76.2313635303933"/>
<polyline points="192.99710783885104 -80.30074616793429 194.43078154729508 -74.64196219022827"/>
<polyline points="203.89319484881435 -105.51532941255527 200.87248405328506 -100.34961703258352"/>
<polyline points="203.89319484881435 -105.51532941255527 200.87248405328506 -100.34961703258352"/>
<polyline points="225.0682718178783 -118.80880875207812 219.31110435192397 -117.13705896486539"/>
<polyline points="219.31110435192397 -117.13705896486539 209.3662429212722 -116.41755608818444"/>
<polyline points="219.31110435192397 -117.13705896486539 209.3662429212722 -116.41755608818444"/>
<polyline points="209.3662429212722 -116.41755608818444 201.77373905737753 -121.47040701539164"/>
<polyline points="241.97591767952127 -137.3677460051245 236.21875021356686 -135.6959962179117 217.4099538660542 -128.93040159943294 210.96500200132584 -121.33210752647591 202.08888176594402 -117.22836715800351 182.20363040281953 -107.16285898831372"/>
<polyline points="182.20363040281953 -107.16285898831372 178.431091871871 -98.43363419412053 162.79911329826965 -87.43189975952795 159.02657476732116 -78.70267496533484 152.2529521292865 -73.58004441555015 139.3715384934071 -66.97918714268374"/>
<polyline points="139.3715384934071 -66.97918714268374 138.98486274162414 -59.353377989331705"/>
<polyline points="139.3715384934071 -66.97918714268374 138.98486274162414 -59.353377989331705"/>
<polyline points="139.3715384934071 -66.97918714268374 134.6698450441989 -60.45455474926439"/>
<polyline points="134.6698450441989 -60.45455474926439 127.54876624347857 -53.46733461216799"/>
<polyline points="152.2529521292865 -73.58004441555015 147.55125868007832 -67.05541202213082 129.839112538304 -68.94496080731966 124.45919148318627 -71.46761908972645 115.97179259693664 -74.91686789672839 95.54604364086039 -96.7082998258905"/>
<polyline points="95.54604364086039 -96.7082998258905 92.552627711573 -103.34180323301523 77.8377768758641 -113.10334555173661 74.84436094657667 -119.73684895886136 68.24168481730335 -126.55358464187512 53.713998758327406 -152.48225167813195"/>
<polyline points="53.713998758327406 -152.48225167813195 61.01732020463026 -157.331413135593"/>
<polyline points="53.713998758327406 -152.48225167813195 53.60357127443872 -161.7057941047641"/>
<polyline points="77.8377768758641 -113.10334555173661 71.23335259569618 -113.68979945053758"/>
<polyline points="115.97179259693664 -74.91686789672839 109.1255026449143 -79.7131938986637"/>
<polyline points="152.2529521292865 -73.58004441555015 147.55125868007832 -67.05541202213082"/>
<polyline points="162.79911329826965 -87.43189975952795 155.1644021274185 -81.35986493708376"/>
<polyline points="202.08888176594402 -117.22836715800351 194.65550766009179 -111.00751303787658"/>
<polyline points="236.21875021356686 -135.6959962179117 228.0420912220466 -133.35152146211612"/>
<polyline points="254.11602194598044 -137.1142345558953 246.7039932338175 -142.75023862069554"/>
<polyline points="246.7039932338175 -142.75023862069554 239.32831849655483 -140.4954847628117"/>
<polyline points="270.81120588475073 -135.37407003689037 263.39917717258777 -141.01007410169052"/>
<polyline points="276.03723752391045 -127.12422063281406 270.81120588475073 -135.37407003689037"/>
<polyline points="309.3974183471818 -92.30346621587285 301.31060816728586 -98.17960489581522"/>
<polyline points="301.31060816728586 -98.17960489581522 291.8815919101475 -96.31896719626594"/>
<polyline points="301.31060816728586 -98.17960489581522 291.8815919101475 -96.31896719626594"/>
<polyline points="291.8815919101475 -96.31896719626594 282.8810018880315 -95.32307015090282"/>
<polyline points="329.2978776113738 -74.82247712279091 321.21106743147783 -80.69861580273329 304.1623473521511 -78.98759170223552 298.58862757279115 -81.3257575061055 291.50339308740644 -78.8980626384166 281.30200703596586 -60.860200301880354"/>
<polyline points="281.30200703596586 -60.860200301880354 279.7446082978623 -61.14178903188586 268.41831174833794 -56.72517170242952 266.86091301023436 -57.00676043243505 262.97782150783434 -52.94942272051696 261.194804592023 -30.10158526785277"/>
<polyline points="261.194804592023 -30.10158526785277 263.8944574429013 -28.00633789378947"/>
<polyline points="261.194804592023 -30.10158526785277 263.8944574429013 -28.00633789378947"/>
<polyline points="261.194804592023 -30.10158526785277 259.60457344992267 -26.711228977975455"/>
<polyline points="259.60457344992267 -26.711228977975455 253.40813292456173 -28.436807176076353"/>
<polyline points="262.97782150783434 -52.94942272051696 261.38759036573396 -49.55906643063964 248.09294613362147 -35.98105321801714 245.78987039927588 -26.513991946283795 239.0543203517282 -19.146759013847678 219.1017577467359 -1.0530112122209503"/>
<polyline points="219.1017577467359 -1.0530112122209503 218.1962209678841 8.602456121348869 207.05120663365926 25.154242567210627 206.14566985480744 34.80970990078049 200.53142840207855 42.44797104352382 183.15596774595187 54.92246243951327"/>
<polyline points="183.15596774595187 54.92246243951327 187.83202371941238 60.95590099966728"/>
<polyline points="183.15596774595187 54.92246243951327 183.59278406674144 62.40486121263218"/>
<polyline points="200.53142840207855 42.44797104352382 197.01326910684378 50.591601168997876"/>
<polyline points="200.53142840207855 42.44797104352382 197.01326910684378 50.591601168997876"/>
<polyline points="219.1017577467359 -1.0530112122209503 214.298977161475 7.708435162747755"/>
<polyline points="214.298977161475 7.708435162747755 204.959841408668 10.08386367958978"/>
<polyline points="214.298977161475 7.708435162747755 204.959841408668 10.08386367958978"/>
<polyline points="204.959841408668 10.08386367958978 200.31495867900176 15.634507154308611"/>
<polyline points="239.0543203517282 -19.146759013847678 234.2515397664673 -10.385312638878945 214.55589023531851 -6.910641339163621 206.01220644587488 -5.363227697934392 196.05804362646242 -6.141000162189914 171.3072600632429 -23.087712235157877"/>
<polyline points="171.3072600632429 -23.087712235157877 164.28132998043117 -25.92775934806237 145.10023336837241 -29.646302652736217 138.07430328556075 -32.48634976564071 129.25662549709216 -36.804236214830325 111.35059037978688 -60.85311650984328"/>
<polyline points="111.35059037978688 -60.85311650984328 107.37873621706586 -67.51740550853128"/>
<polyline points="111.35059037978688 -60.85311650984328 107.37873621706586 -67.51740550853128"/>
<polyline points="111.35059037978688 -60.85311650984328 103.85556577858287 -66.23800126135582"/>
<polyline points="103.85556577858287 -66.23800126135582 94.8814418732211 -64.71432045514086"/>
<polyline points="129.25662549709216 -36.804236214830325 121.76160089588808 -42.18912096634283 104.8053464903085 -48.09903350218054 99.61544746019038 -55.00017945770034 92.44522690855904 -57.36453910609586 80.94563918684251 -55.672817349096725"/>
<polyline points="80.94563918684251 -55.672817349096725 79.5902128153215 -61.605956731252036 68.16706890078574 -67.92605971118925 66.81164252926477 -73.85919909334449 62.70169679438358 -75.53169524763669 59.08418348858854 -67.8330231598769"/>
<polyline points="59.08418348858854 -67.8330231598769 65.22910046568204 -72.32013335594809"/>
<polyline points="59.08418348858854 -67.8330231598769 61.731855969440176 -71.17070731923793"/>
<polyline points="62.70169679438358 -75.53169524763669 60.95427970634767 -78.11269466245268"/>
<polyline points="80.94563918684251 -55.672817349096725 75.56602540263758 -59.7033080385146"/>
<polyline points="104.8053464903085 -48.09903350218054 95.91464673003586 -52.64893228278799"/>
<polyline points="95.91464673003586 -52.64893228278799 89.8142044519693 -44.76339091466363"/>
<polyline points="121.76160089588808 -42.18912096634283 112.87090113561548 -46.73901974695024"/>
<polyline points="129.25662549709216 -36.804236214830325 121.76160089588808 -42.18912096634283"/>
<polyline points="171.3072600632429 -23.087712235157877 161.8807410226304 -24.570668416960235"/>
<polyline points="161.8807410226304 -24.570668416960235 153.2867806265598 -23.603350569260844"/>
<polyline points="161.8807410226304 -24.570668416960235 153.2867806265598 -23.603350569260844"/>
<polyline points="153.2867806265598 -23.603350569260844 145.17006366166558 -17.762766975988797"/>
<polyline points="196.05804362646242 -6.141000162189914 186.63152458584992 -7.623956343992266 170.36823557662538 -10.999884171357719 163.9975561939015 -17.389769771726364 157.6320004154941 -19.614543751504247 152.14819282945635 -23.792849553454435"/>
<polyline points="152.14819282945635 -23.792849553454435 150.1272847402275 -31.335191545487465 139.86609896563618 -38.70939166810528 137.84519087640732 -46.25173366013831 134.9389051724361 -49.50056747966256 139.00682011973157 -50.85631955791889"/>
<polyline points="139.00682011973157 -50.85631955791889 141.76779523040852 -57.55358767622525"/>
<polyline points="139.00682011973157 -50.85631955791889 141.76779523040852 -57.55358767622525"/>
<polyline points="139.00682011973157 -50.85631955791889 138.05160777450877 -55.77073119173794"/>
<polyline points="138.05160777450877 -55.77073119173794 131.27847409551515 -61.425337498633496"/>
<polyline points="134.9389051724361 -49.50056747966256 133.98369282721333 -54.41497911348155 124.95056386136085 -48.46324889658941 125.40475949758579 -44.17979101715057 121.08740904963265 -38.87657635563978 107.8954158637682 -13.650676678124238"/>
<polyline points="107.8954158637682 -13.650676678124238 109.95405581464212 -5.893560179512859 104.1875943866591 7.263696352891604 106.24623433753301 15.02081285150306 103.25187431040085 23.19427675745647 91.24276174241673 50.6852120685793"/>
<polyline points="91.24276174241673 50.6852120685793 97.76331522439281 58.25648332937267"/>
<polyline points="91.24276174241673 50.6852120685793 94.14189913190316 60.14527230429349"/>
<polyline points="103.25187431040085 23.19427675745647 102.47297736840503 32.32971161305774"/>
<polyline points="103.25187431040085 23.19427675745647 102.47297736840503 32.32971161305774"/>
<polyline points="107.8954158637682 -13.650676678124238 105.8771212593998 -7.159335102379993"/>
<polyline points="105.8771212593998 -7.159335102379993 97.52314782113645 -5.838892650034258"/>
<polyline points="105.8771212593998 -7.159335102379993 97.52314782113645 -5.838892650034258"/>
<polyline points="97.52314782113645 -5.838892650034258 94.3866269765944 -6.975459281309524"/>
<polyline points="121.08740904963265 -38.87657635563978 119.06911444526425 -32.38523477989551 101.25708994973442 -26.16806016897831 93.77042117279993 -19.54169210793746 84.05761941398823 -17.413587510182328 55.49150757112462 -21.64095304015912"/>
<polyline points="55.49150757112462 -21.64095304015912 48.24846628752931 -16.690681165391478 29.031939963061816 -11.389921155694687 21.78889867946652 -6.439649280927084 12.192112675265847 -5.58214472096271 -11.969360535283988 -16.594319158899143"/>
<polyline points="-11.969360535283988 -16.594319158899143 -17.417877862195546 -14.711367096909173"/>
<polyline points="-11.969360535283988 -16.594319158899143 -17.417877862195546 -14.711367096909173"/>
<polyline points="-11.969360535283988 -16.594319158899143 -20.52399041340472 -15.122330354543024"/>
<polyline points="-20.52399041340472 -15.122330354543024 -28.46632953568663 -9.057900169036884"/>
<polyline points="12.192112675265847 -5.58214472096271 3.6374827971451698 -4.11015591660665 -14.688485763799978 -10.791232780996692 -21.888144048587357 -17.65340046014342 -29.72764920126486 -22.612994475776418 -41.4856906640367 -40.74517665268703"/>
<polyline points="-41.4856906640367 -40.74517665268703 -44.87133578345758 -50.12663885111713 -58.3192774187469 -63.199080591088844 -61.70492253816777 -72.5805427895189 -66.52841791447433 -79.67385406048284 -69.05577203365864 -96.85775572723402"/>
<polyline points="-69.05577203365864 -96.85775572723402 -63.376877443083735 -103.85746765231717"/>
<polyline points="-69.05577203365864 -96.85775572723402 -67.91101694490656 -106.4520572675575"/>
<polyline points="-41.4856906640367 -40.74517665268703 -48.13815896706474 -47.728524537399565"/>
<polyline points="3.6374827971451698 -4.11015591660665 -6.160324900804873 -4.462312870756985"/>
<polyline points="84.05761941398823 -17.413587510182328 74.75468382027759 -13.911210299776661"/>
<polyline points="101.25708994973442 -26.16806016897831 95.80690737273014 -20.810268575448582"/>
<polyline points="124.95056386136085 -48.46324889658941 121.95628248131318 -50.34417401304971"/>
<polyline points="134.9389051724361 -49.50056747966256 133.98369282721333 -54.41497911348155"/>
<polyline points="157.6320004154941 -19.614543751504247 152.47555415197633 -24.125530424821644"/>
<polyline points="170.36823557662538 -10.999884171357719 160.49439369130155 -12.418573215402168"/>
<polyline points="196.05804362646242 -6.141000162189914 186.63152458584992 -7.623956343992266"/>
<polyline points="234.2515397664673 -10.385312638878945 226.59189742532388 -3.9569587022464314"/>
<polyline points="248.09294613362147 -35.98105321801714 243.7593661857412 -30.88032330690181"/>
<polyline points="243.7593661857412 -30.88032330690181 235.25641592262625 -36.02761401796428"/>
<polyline points="261.38759036573396 -49.55906643063964 257.05401041785376 -44.458336519524345"/>
<polyline points="262.97782150783434 -52.94942272051696 261.38759036573396 -49.55906643063964"/>
<polyline points="281.30200703596586 -60.860200301880354 275.88578241981327 -59.49515581459664"/>
<polyline points="275.88578241981327 -59.49515581459664 266.8945852714602 -55.291861997574074"/>
<polyline points="275.88578241981327 -59.49515581459664 266.8945852714602 -55.291861997574074"/>
<polyline points="266.8945852714602 -55.291861997574074 257.6338233098039 -58.01652361781274"/>
<polyline points="291.50339308740644 -78.8980626384166 286.0871684712538 -77.53301815113288 271.1585939440176 -64.61306520648618 267.94891410295077 -55.72447313972255 261.4582228653939 -48.134799966264055 248.62017063421504 -25.944552298461055"/>
<polyline points="248.62017063421504 -25.944552298461055 248.65377924537412 -15.947262153249246 238.82202498558485 1.3677136259493399 238.85563359674398 11.365003771161144 234.97200860350796 19.964351488816703 227.87426166281426 38.219718532994285"/>
<polyline points="227.87426166281426 38.219718532994285 230.92823851331673 46.92289340603687"/>
<polyline points="227.87426166281426 38.219718532994285 230.92823851331673 46.92289340603687"/>
<polyline points="227.87426166281426 38.219718532994285 226.48557910946707 47.45205177108608"/>
<polyline points="226.48557910946707 47.45205177108608 222.4391953867651 56.10974405952463"/>
<polyline points="234.97200860350796 19.964351488816703 233.58332605016074 29.196684726908515 217.3281513248529 36.89773125711071 212.13992839027782 39.04063192180492 203.3743960341962 40.39495110242061 176.6558306303184 29.836991424883617"/>
<polyline points="176.6558306303184 29.836991424883617 172.03975361693705 27.1174957390465 155.6566505036776 26.843321589107493 151.04057349029625 24.12382590327032 142.68908520635452 21.554669732896595 119.26638261268428 3.133195523555854"/>
<polyline points="119.26638261268428 3.133195523555854 120.5393670911896 -4.301106294418475"/>
<polyline points="119.26638261268428 3.133195523555854 116.08392502869096 -3.821570059453136"/>
<polyline points="142.68908520635452 21.554669732896595 135.89528031641493 17.201420607812356"/>
<polyline points="142.68908520635452 21.554669732896595 135.89528031641493 17.201420607812356"/>
<polyline points="176.6558306303184 29.836991424883617 169.0390450235356 29.807060475046843"/>
<polyline points="169.0390450235356 29.807060475046843 159.9348422809662 33.880923169317974"/>
<polyline points="169.0390450235356 29.807060475046843 159.9348422809662 33.880923169317974"/>
<polyline points="159.9348422809662 33.880923169317974 154.6243573969977 41.182218766645"/>
<polyline points="203.3743960341962 40.39495110242061 195.75761042741334 40.36502015258385 176.3337424601409 43.57054777085116 167.19877139252998 40.035269261597875 158.20115877442237 41.18544315292094 141.30697966846725 45.686928718307385"/>
<polyline points="141.30697966846725 45.686928718307385 134.9203475204499 40.57123240085383 117.92859836027999 39.743248775416625 111.54196621226262 34.62755245796308 104.66929738410197 34.43811721156445 96.83410999085876 39.58793676048437"/>
<polyline points="96.83410999085876 39.58793676048437 94.66185010022997 34.3598098511375"/>
<polyline points="96.83410999085876 39.58793676048437 94.66185010022997 34.3598098511375"/>
<polyline points="96.83410999085876 39.58793676048437 91.29241383967253 37.3071203948904"/>
<polyline points="91.29241383967253 37.3071203948904 81.88221187683382 34.65279726997614"/>
<polyline points="104.66929738410197 34.43811721156445 99.12760123291568 32.157300845970504 86.7901497194276 43.945176378894196 85.1547201164571 50.112468943212164 80.28338002991677 57.88075516417142 72.89898704334503 86.9533771477299"/>
<polyline points="72.89898704334503 86.9533771477299 74.86340027970564 95.28119077920937 68.66634823807107 112.41423868397597 70.63076147443167 120.74205231545545 68.67467953947956 130.33411915338982 66.58734616919602 158.89583590040897"/>
<polyline points="66.58734616919602 158.89583590040897 74.76570894720105 164.4784788452178"/>
<polyline points="66.58734616919602 158.89583590040897 71.4803267111919 167.52545674412718"/>
<polyline points="68.67467953947956 130.33411915338982 69.30029720771013 140.10808873813568"/>
<polyline points="72.89898704334503 86.9533771477299 70.39341618222728 95.33728563835744"/>
<polyline points="86.7901497194276 43.945176378894196 80.12650748945768 45.152628659280694"/>
<polyline points="80.12650748945768 45.152628659280694 71.57226263919473 45.023467962231734"/>
<polyline points="99.12760123291568 32.157300845970504 92.46395900294574 33.36475312635704"/>
<polyline points="104.66929738410197 34.43811721156445 99.12760123291568 32.157300845970504"/>
<polyline points="141.30697966846725 45.686928718307385 132.7099222332123 44.38653532009885"/>
<polyline points="132.7099222332123 44.38653532009885 125.12243800066031 50.71771147215699"/>
<polyline points="132.7099222332123 44.38653532009885 125.12243800066031 50.71771147215699"/>
<polyline points="125.12243800066031 50.71771147215699 115.53055335356866 51.70931165647169"/>
<polyline points="158.20115877442237 41.18544315292094 149.60410133916733 39.88504975471244 137.32838493408238 53.73270408457494 134.3179301734978 59.3505059374046 130.2553054059857 67.79239967606203 130.73494964185116 97.6628746819178"/>
<polyline points="130.73494964185116 97.6628746819178 132.42332578733664 104.51789853843178 127.72426595387832 121.85391561154614 129.41264209936378 128.7089394680601 129.13569309084383 138.21431003168695 137.50396976270102 166.84195967765874"/>
<polyline points="137.50396976270102 166.84195967765874 143.39941684989512 173.49490911790025"/>
<polyline points="137.50396976270102 166.84195967765874 143.39941684989512 173.49490911790025"/>
<polyline points="137.50396976270102 166.84195967765874 139.5755030890516 175.76444907903635"/>
<polyline points="139.5755030890516 175.76444907903635 135.98617002448012 181.8032304926144"/>
<polyline points="129.13569309084383 138.21431003168695 131.2072264171944 147.13679943306457 123.07809591239403 164.92144358592327 123.22577693353794 173.52557492013926 118.36111113690094 181.174139796254 98.49957015348171 191.47526311575209"/>
<polyline points="98.49957015348171 191.47526311575209 98.46687883158233 196.63082911940475 90.3847039978431 210.65875610609 90.35201267594375 215.81432210974262 85.35711295038763 220.7650651364945 64.44180297724623 221.2662648133908"/>
<polyline points="64.44180297724623 221.2662648133908 67.71363976132608 219.41981297943545"/>
<polyline points="64.44180297724623 221.2662648133908 63.95134373010638 221.75199466580452"/>
<polyline points="85.35711295038763 220.7650651364945 81.93722428053532 224.38365644159862"/>
<polyline points="85.35711295038763 220.7650651364945 81.93722428053532 224.38365644159862"/>
<polyline points="98.49957015348171 191.47526311575209 95.34108357445172 198.71991187026458"/>
<polyline points="95.34108357445172 198.71991187026458 87.89326073464902 205.30388221037265"/>
<polyline points="95.34108357445172 198.71991187026458 87.89326073464902 205.30388221037265"/>
<polyline points="87.89326073464902 205.30388221037265 86.71033275868272 215.1659779513383"/>
<polyline points="118.36111113690094 181.174139796254 115.20262455787099 188.41878855076652 97.4522377103213 197.62703894360754 88.14556181594942 198.35528377715556 78.56082714793727 200.92048779170915 52.54272444197541 197.88374398811573"/>
<polyline points="52.54272444197541 197.88374398811573 43.419514918092304 194.1257632614771 23.549965805241776 195.47832794212363 14.426756281358653 191.720347215485 4.881984473855254 190.64339328717278 -15.45939076216169 181.4573602288454"/>
<polyline points="-15.45939076216169 181.4573602288454 -22.300216004875626 174.2280659135717"/>
<polyline points="-15.45939076216169 181.4573602288454 -22.300216004875626 174.2280659135717"/>
<polyline points="-15.45939076216169 181.4573602288454 -24.578169409441696 177.92353752222994"/>
<polyline points="-24.578169409441696 177.92353752222994 -34.02513692239709 179.32554394889303"/>
<polyline points="4.881984473855254 190.64339328717278 -4.236794173424755 187.10957058055732 -18.17494191821479 194.84169561894547 -22.526332673423898 195.35399598304818 -27.48371200624079 200.5796189443151 -28.995327945228954 223.9115302110681"/>
<polyline points="-28.995327945228954 223.9115302110681 -28.680131746320686 225.6449645884367 -35.48235205154603 235.36353607599037 -35.16715585263779 237.0969704533589 -36.382197498822016 243.30719434528956 -29.1951213651074 268.6504761124626"/>
<polyline points="-29.1951213651074 268.6504761124626 -22.05577509174781 263.7776333545398"/>
<polyline points="-29.1951213651074 268.6504761124626 -24.36077389366909 271.46196543645794"/>
<polyline points="-35.48235205154603 235.36353607599037 -41.81547060637349 235.97012783434016"/>
<polyline points="-27.48371200624079 200.5796189443151 -30.77508783035638 204.6291797285659"/>
<polyline points="4.881984473855254 190.64339328717278 -4.236794173424755 187.10957058055732"/>
<polyline points="23.549965805241776 195.47832794212363 14.711159842404529 198.5172263968558"/>
<polyline points="78.56082714793727 200.92048779170915 68.56569588080183 201.228911689894"/>
<polyline points="115.20262455787099 188.41878855076652 109.15404333135557 195.41923847030463"/>
<polyline points="123.07809591239403 164.92144358592327 122.2816467141328 174.72383990869037"/>
<polyline points="122.2816467141328 174.72383990869037 113.85979596926659 174.95729322720393"/>
<polyline points="131.2072264171944 147.13679943306457 130.41077721893308 156.93919575583163"/>
<polyline points="129.13569309084383 138.21431003168695 131.2072264171944 147.13679943306457"/>
<polyline points="130.73494964185116 97.6628746819178 128.5901991898643 105.91532066247403"/>
<polyline points="128.5901991898643 105.91532066247403 121.30107142292086 112.64392125841735"/>
<polyline points="128.5901991898643 105.91532066247403 121.30107142292086 112.64392125841735"/>
<polyline points="121.30107142292086 112.64392125841735 113.06220527408101 115.75430274992156"/>
<polyline points="130.2553054059857 67.79239967606203 128.11055495399887 76.04484565661821 117.36863458713151 91.95399339527127 116.90415259863128 101.15651776273556 111.94489701766345 108.13482321156388 98.62648218820316 117.14355715895915"/>
<polyline points="98.62648218820316 117.14355715895915 100.23852922637386 123.6568854554668 93.33657972574294 137.39231296922895 94.94862676391365 143.9056412657365 91.68431111842672 148.8139329252465 80.75907980828552 148.50053154889005"/>
<polyline points="80.75907980828552 148.50053154889005 83.79911488846459 150.70944910794492"/>
<polyline points="80.75907980828552 148.50053154889005 83.79911488846459 150.70944910794492"/>
<polyline points="80.75907980828552 148.50053154889005 79.83723639449484 152.78821201397224"/>
<polyline points="79.83723639449484 152.78821201397224 78.44991408697426 161.91256344074736"/>
<polyline points="91.68431111842672 148.8139329252465 90.76246770463601 153.10161339032865 74.06721221250295 158.12140214437457 66.91636873266592 155.90071969517996 57.481465610823236 156.80241026616574 28.046175727786302 153.3244213401656"/>
<polyline points="28.046175727786302 153.3244213401656 20.569391208920177 147.54749324855226 1.5556240515525537 145.49142716906456 -5.921160467313553 139.71449907745122 -15.698732079446255 137.69114100176378 -41.69537207248112 131.22515320545708"/>
<polyline points="-41.69537207248112 131.22515320545708 -43.85864051885578 121.49443422337842"/>
<polyline points="-41.69537207248112 131.22515320545708 -47.89144651134469 123.44080898913919"/>
<polyline points="-15.698732079446255 137.69114100176378 -24.65685372882638 133.24880616114328"/>
<polyline points="-15.698732079446255 137.69114100176378 -24.65685372882638 133.24880616114328"/>
<polyline points="28.046175727786302 153.3244213401656 18.852119987719238 151.6777474126492"/>
<polyline points="18.852119987719238 151.6777474126492 11.2743157069326 158.02858257709244"/>
<polyline points="18.852119987719238 151.6777474126492 11.2743157069326 158.02858257709244"/>
<polyline points="11.2743157069326 158.02858257709244 6.146545417094342 161.91390783464618"/>
<polyline points="57.481465610823236 156.80241026616574 48.28740987075627 155.15573633864932 31.85487899871544 166.35368453965145 23.406393901599554 168.48590477188785 16.57026172931868 175.1460216321101 9.438702881165085 200.06581613778397"/>
<polyline points="9.438702881165085 200.06581613778397 4.494949497798597 202.6493522081061 -8.083238338503833 214.9137729234167 -13.026991721870347 217.49730899373893 -17.119735559591927 224.53616224943147 -14.3727708957445 249.46059079455335"/>
<polyline points="-14.3727708957445 249.46059079455335 -14.60259205604198 252.1511061263626"/>
<polyline points="-14.3727708957445 249.46059079455335 -14.60259205604198 252.1511061263626"/>
<polyline points="-14.3727708957445 249.46059079455335 -17.33134447267359 255.1311917150547"/>
<polyline points="-17.33134447267359 255.1311917150547 -25.863121064638552 258.0030139689452"/>
<polyline points="-17.119735559591927 224.53616224943147 -20.0783091365209 230.2067631699328 -26.25767988836136 249.22762834976353 -24.275949322447882 258.9847835243392 -26.241823410093172 268.4899268759984 -28.47285556862571 290.1347612559661"/>
<polyline points="-28.47285556862571 290.1347612559661 -23.59329035902472 298.42424788835797 -23.869844266774873 317.44837787875736 -18.990279057173886 325.73786451114916 -18.566536101476675 334.16639281841964 -18.667337742982436 348.0789518303955"/>
<polyline points="-18.667337742982436 348.0789518303955 -9.67117458198404 349.8911760402564"/>
<polyline points="-18.667337742982436 348.0789518303955 -12.272173295911134 352.9758758304885"/>
<polyline points="-18.566536101476675 334.16639281841964 -15.713751026178661 341.8070602646944"/>
<polyline points="-28.47285556862571 290.1347612559661 -27.857760866309135 299.7907875601718"/>
<polyline points="-26.25767988836136 249.22762834976353 -29.893307610610975 257.1903260558186"/>
<polyline points="-29.893307610610975 257.1903260558186 -39.55731970259205 256.65979793149"/>
<polyline points="-20.0783091365209 230.2067631699328 -23.713936858770634 238.16946087598797"/>
<polyline points="-17.119735559591927 224.53616224943147 -20.0783091365209 230.2067631699328"/>
<polyline points="9.438702881165085 200.06581613778397 2.805754172044325 205.43128156171156"/>
<polyline points="2.805754172044325 205.43128156171156 -2.7226640847299626 213.2990231858376"/>
<polyline points="2.805754172044325 205.43128156171156 -2.7226640847299626 213.2990231858376"/>
<polyline points="-2.7226640847299626 213.2990231858376 -12.351827165775285 215.54275022104133"/>
<polyline points="16.57026172931868 175.1460216321101 9.937313020197923 180.51148705603762 3.2379987944616775 199.01202960712695 3.849195719156685 208.88268174763593 2.589270319121614 218.23235500918582 8.866548114695108 239.82170736051052"/>
<polyline points="8.866548114695108 239.82170736051052 13.860269378828855 248.47891649234117 15.189864151270907 267.4795690575173 20.183585415404647 276.136778189348 22.497472986413545 284.61853818895344 33.99312404659708 298.70919682779055"/>
<polyline points="33.99312404659708 298.70919682779055 42.066723580284226 304.1252296785955"/>
<polyline points="33.99312404659708 298.70919682779055 42.066723580284226 304.1252296785955"/>
<polyline points="33.99312404659708 298.70919682779055 38.69548549346619 306.59237085832603"/>
<polyline points="38.69548549346619 306.59237085832603 38.64690342382963 316.5570772015234"/>
<polyline points="22.497472986413545 284.61853818895344 27.199834433282607 292.5017122194888 21.213759489195382 304.4327134510787 21.132017269031845 306.77291764022846 16.502014021153506 310.7862401695164 -6.751041511875062 311.38948707877876"/>
<polyline points="-6.751041511875062 311.38948707877876 -8.693068091685591 309.2006452806751 -17.692049295623196 313.63730951728104 -19.634075875433766 311.4484677191775 -25.763435085908018 311.80435411233583 -52.11010622523378 305.2296223434664"/>
<polyline points="-52.11010622523378 305.2296223434664 -52.3573565253877 296.758437501241"/>
<polyline points="-52.11010622523378 305.2296223434664 -55.706079943231586 299.1536415618964"/>
<polyline points="-25.763435085908018 311.80435411233583 -31.14999669673222 309.69498507793463"/>
<polyline points="-25.763435085908018 311.80435411233583 -31.14999669673222 309.69498507793463"/>
<polyline points="-6.751041511875062 311.38948707877876 -10.472274765442076 313.28763008063873"/>
<polyline points="-10.472274765442076 313.28763008063873 -15.972260565871732 320.9827627671085"/>
<polyline points="-10.472274765442076 313.28763008063873 -15.972260565871732 320.9827627671085"/>
<polyline points="-15.972260565871732 320.9827627671085 -15.06844435821896 328.7416207216942"/>
<polyline points="16.502014021153506 310.7862401695164 12.78078076758653 312.6843831713764 -2.3537436543250676 324.7490946200242 -12.063198208972103 326.10071149895083 -20.168540422831867 331.95762103985106 -40.198887009020304 348.58116533449595"/>
<polyline points="-40.198887009020304 348.58116533449595 -49.84782281240682 348.1634133683222 -67.5479949595683 357.1649563038049 -77.19693076295475 356.7472043376311 -85.37245036101626 361.16921382194465 -99.38062838133723 375.28940967638454"/>
<polyline points="-99.38062838133723 375.28940967638454 -106.63953832294159 373.4717708233727"/>
<polyline points="-99.38062838133723 375.28940967638454 -106.63953832294159 373.4717708233727"/>
<polyline points="-99.38062838133723 375.28940967638454 -107.78971775617391 377.46610285698625"/>
<polyline points="-107.78971775617391 377.46610285698625 -117.31803839803187 379.72519394004127"/>
<polyline points="-85.37245036101626 361.16921382194465 -93.78153973585289 363.3459070025465 -101.5921265316371 381.29872726028054 -102.6616361850892 389.0698239352475 -104.17788677554975 398.8470853599908 -95.6580441437596 427.3335099265898"/>
<polyline points="-95.6580441437596 427.3335099265898 -91.90079833968151 434.8650068105388 -91.43474161434831 454.3190116181841 -87.67749581027019 461.850508502133 -85.28295813106308 471.5190267882103 -69.75728139699403 495.407079323142"/>
<polyline points="-69.75728139699403 495.407079323142 -65.52170726341711 490.1059815295191"/>
<polyline points="-69.75728139699403 495.407079323142 -62.111450181766706 501.0685570306088"/>
<polyline points="-104.17788677554975 398.8470853599908 -103.82196374887044 408.3109646080942"/>
<polyline points="-85.37245036101626 361.16921382194465 -93.78153973585289 363.3459070025465"/>
<polyline points="12.78078076758653 312.6843831713764 7.078054489489644 316.9567277836414"/>
<polyline points="21.213759489195382 304.4327134510787 22.67865818094495 312.4479399031815"/>
<polyline points="8.866548114695108 239.82170736051052 9.920045371559878 249.5177381529479"/>
<polyline points="9.937313020197923 180.51148705603762 3.8963280990939753 188.13554308293197"/>
<polyline points="48.28740987075627 155.15573633864932 38.65271265030944 156.87684746350533"/>
<polyline points="74.06721221250295 158.12140214437457 69.5898863836051 162.32360672066608"/>
<polyline points="93.33657972574294 137.39231296922895 91.27339242898782 146.92999647951132"/>
<polyline points="111.94489701766345 108.13482321156388 109.30467203470349 115.47284366598367"/>
<polyline points="130.2553054059857 67.79239967606203 128.11055495399887 76.04484565661821"/>
<polyline points="137.32838493408238 53.73270408457494 128.80843262607803 56.141162712700805"/>
<polyline points="158.20115877442237 41.18544315292094 149.60410133916733 39.88504975471244"/>
<polyline points="195.75761042741334 40.36502015258385 186.40071360115215 41.40841066181273"/>
<polyline points="217.3281513248529 36.89773125711071 212.53919333259356 44.69030762198316"/>
<polyline points="212.53919333259356 44.69030762198316 206.66927948083347 47.43937431257503"/>
<polyline points="233.58332605016074 29.196684726908515 228.79436805790138 36.989261091780975"/>
<polyline points="234.97200860350796 19.964351488816703 233.58332605016074 29.196684726908515"/>
<polyline points="248.62017063421504 -25.944552298461055 244.28212049238533 -16.93865798881293"/>
<polyline points="244.28212049238533 -16.93865798881293 234.64649833748226 -14.440115576395364"/>
<polyline points="244.28212049238533 -16.93865798881293 234.64649833748226 -14.440115576395364"/>
<polyline points="234.64649833748226 -14.440115576395364 227.423406571168 -10.192422965559231"/>
<polyline points="261.4582228653939 -48.134799966264055 257.1201727235641 -39.128905656615935 239.16719628244164 -34.117653722061995 233.48887324546538 -30.79305967108902 224.71545649564504 -30.587770777827025 202.78137900431722 -44.866091834792854"/>
<polyline points="202.78137900431722 -44.866091834792854 199.21830252060337 -45.583097978507524 183.70349011392685 -46.632013112079754 180.14041363021295 -47.3490192557944 173.0277399146764 -50.37950251471526 156.80695758919026 -72.45841894253174"/>
<polyline points="156.80695758919026 -72.45841894253174 155.99077326681902 -77.1946361643171"/>
<polyline points="156.80695758919026 -72.45841894253174 155.99077326681902 -77.1946361643171"/>
<polyline points="156.80695758919026 -72.45841894253174 151.73637713565716 -76.20244546478361"/>
<polyline points="151.73637713565716 -76.20244546478361 145.32206256115307 -73.04715286382623"/>
<polyline points="173.0277399146764 -50.37950251471526 167.95715946114333 -54.12352903696708 148.97856595796932 -60.39650345715845 142.2710718832369 -67.784936642926 133.0475013361315 -70.93668590071776 110.92134631227364 -74.47634991011114"/>
<polyline points="110.92134631227364 -74.47634991011114 106.4516890826838 -81.88982105673678 89.81797309070792 -90.43733384558394 85.34831586111804 -97.85080499220956 77.87126119388233 -101.12250023576057 62.311033716463065 -99.73747845887287"/>
<polyline points="62.311033716463065 -99.73747845887287 65.22362413854593 -106.05554741522913"/>
<polyline points="62.311033716463065 -99.73747845887287 60.953219659666125 -105.21384720106647"/>
<polyline points="77.87126119388233 -101.12250023576057 72.32409762317049 -105.59542987332922"/>
<polyline points="77.87126119388233 -101.12250023576057 72.32409762317049 -105.59542987332922"/>
<polyline points="110.92134631227364 -74.47634991011114 102.99378202210423 -79.58524808916054"/>
<polyline points="102.99378202210423 -79.58524808916054 93.23012064455227 -77.55577024205944"/>
<polyline points="102.99378202210423 -79.58524808916054 93.23012064455227 -77.55577024205944"/>
<polyline points="93.23012064455227 -77.55577024205944 85.12424854185213 -81.25837133738844"/>
<polyline points="133.0475013361315 -70.93668590071776 125.11993704596209 -76.04558407976715 106.52076144845019 -69.4875756549892 99.61975921390439 -65.80948030858015 91.48141076756926 -60.21874591721096 77.65583208901535 -33.610587793668266"/>
<polyline points="77.65583208901535 -33.610587793668266 74.37637377533466 -26.636534638760054 60.4330036869141 -13.405358003447411 57.15354537323337 -6.4313048485391855 51.88007687075853 1.8755337289263536 46.7661461463477 30.99687867960318"/>
<polyline points="46.7661461463477 30.99687867960318 47.76746851935566 39.73037655913885"/>
<polyline points="46.7661461463477 30.99687867960318 47.76746851935566 39.73037655913885"/>
<polyline points="46.7661461463477 30.99687867960318 43.571023521336095 39.9156291060104"/>
<polyline points="43.571023521336095 39.9156291060104 36.113604726970095 43.680421992860936"/>
<polyline points="51.88007687075853 1.8755337289263536 48.6849542457469 10.794284155333562 34.53521650481084 22.55475472913543 31.896800563382765 30.11157293805545 25.182491214118144 34.47747095827901 7.930725785389623 33.8044870920609"/>
<polyline points="7.930725785389623 33.8044870920609 7.497848763013239 38.170227429829374 -3.18620144609757 46.49772326444721 -3.619078468473958 50.863463602215674 -8.560514082750153 52.73490422219815 -21.907996962587806 42.89756805621256"/>
<polyline points="-21.907996962587806 42.89756805621256 -16.146539933718152 42.63734405275434"/>
<polyline points="-21.907996962587806 42.89756805621256 -20.286654443217344 42.90421554553472"/>
<polyline points="-8.560514082750153 52.73490422219815 -11.18434564639243 54.145541820815524"/>
<polyline points="7.930725785389623 33.8044870920609 3.3011389256569004 38.58318755554969"/>
<polyline points="34.53521650481084 22.55475472913543 28.970540142621992 30.853823872776992"/>
<polyline points="28.970540142621992 30.853823872776992 20.39306866753478 27.18814381412138"/>
<polyline points="48.6849542457469 10.794284155333562 43.12027788355801 19.093353298975153"/>
<polyline points="51.88007687075853 1.8755337289263536 48.6849542457469 10.794284155333562"/>
<polyline points="77.65583208901535 -33.610587793668266 70.86220838172588 -27.24892593414446"/>
<polyline points="70.86220838172588 -27.24892593414446 61.80859711344492 -24.78158842752479"/>
<polyline points="70.86220838172588 -27.24892593414446 61.80859711344492 -24.78158842752479"/>
<polyline points="61.80859711344492 -24.78158842752479 52.224591427879425 -25.837396888491533"/>
<polyline points="91.48141076756926 -60.21874591721096 84.68778706027969 -53.85708405768712 69.465613583243 -45.00966844369783 65.75328736745462 -37.191239079080994 59.477628007992735 -33.478785277559425 49.65894674530396 -32.305171267837224"/>
<polyline points="49.65894674530396 -32.305171267837224 49.76074370850846 -25.944522345624893 40.46451742487702 -17.337966131928145 40.56631438808153 -10.97731720971578 37.35354374850295 -8.345126156501248 34.43652226330327 -14.309035152593596"/>
<polyline points="34.43652226330327 -14.309035152593596 38.14987398371799 -11.103997450181918"/>
<polyline points="34.43652226330327 -14.309035152593596 38.14987398371799 -11.103997450181918"/>
<polyline points="34.43652226330327 -14.309035152593596 33.729025034846785 -11.135844149201066"/>
<polyline points="33.729025034846785 -11.135844149201066 29.249999285305503 -3.8211089271784493"/>
<polyline points="37.35354374850295 -8.345126156501248 36.64604652004644 -5.1719351531086755 22.214679436503314 -8.812072515925355 18.577475219929394 -14.270120756676098 10.77048008742267 -17.9882017807223 -14.028971019021434 -34.85550567140804"/>
<polyline points="-14.028971019021434 -34.85550567140804 -17.086987412062992 -43.538149784431596 -31.184994023125014 -54.43416871488916 -34.24301041616655 -63.1168128279127 -41.61019482735811 -69.52466599951799 -64.10219863116255 -87.23412968308395"/>
<polyline points="-64.10219863116255 -87.23412968308395 -61.7091789804122 -96.8169846762839"/>
<polyline points="-64.10219863116255 -87.23412968308395 -66.11491441996311 -97.00032189547763"/>
<polyline points="-41.61019482735811 -69.52466599951799 -47.264697310672446 -77.67007649612576"/>
<polyline points="-41.61019482735811 -69.52466599951799 -47.264697310672446 -77.67007649612576"/>
<polyline points="-14.028971019021434 -34.85550567140804 -20.38017201991291 -40.71350546642931"/>
<polyline points="-20.38017201991291 -40.71350546642931 -29.456643877657523 -38.71985287769488"/>
<polyline points="-20.38017201991291 -40.71350546642931 -29.456643877657523 -38.71985287769488"/>
<polyline points="-29.456643877657523 -38.71985287769488 -33.90272036541972 -37.86064377671462"/>
<polyline points="10.77048008742267 -17.9882017807223 4.4192790865311995 -23.846201575743567 -15.313077930598231 -21.68907537010065 -24.669992834725996 -23.702786166813347 -34.266876937359356 -21.0011273127269 -55.192620150599936 -2.1128385630261546"/>
<polyline points="-55.192620150599936 -2.1128385630261546 -62.509247870367346 -2.0102853162023506 -81.09494779298869 3.0470257915660084 -88.4115755127561 3.149579038389801 -96.4603871928935 7.533360432264 -109.19626266715791 31.11319226900514"/>
<polyline points="-109.19626266715791 31.11319226900514 -112.8063808250047 33.5597629635953"/>
<polyline points="-109.19626266715791 31.11319226900514 -112.8063808250047 33.5597629635953"/>
<polyline points="-109.19626266715791 31.11319226900514 -116.07245816295406 34.86195496639926"/>
<polyline points="-116.07245816295406 34.86195496639926 -125.71278858059338 33.45034560536213"/>
<polyline points="-96.4603871928935 7.533360432264 -103.33658268868967 11.282123129658137 -117.29114186757083 25.129471212082883 -120.24496583464727 34.68290469762797 -125.72334181328193 42.087799545595495 -132.82096516412437 59.72056048961295"/>
<polyline points="-132.82096516412437 59.72056048961295 -131.77931997727867 69.27786781176059 -139.2893471348415 85.79888156806894 -138.24770194799575 95.35618889021654 -140.50698494893672 102.88332688679122 -140.9012944880637 114.59271506542916"/>
<polyline points="-140.9012944880637 114.59271506542916 -131.86963878151192 118.58990250770651"/>
<polyline points="-140.9012944880637 114.59271506542916 -136.28409660043627 121.81397710059458"/>
<polyline points="-139.2893471348415 85.79888156806894 -144.28487797849246 94.42381287106068"/>
<polyline points="-125.72334181328193 42.087799545595495 -129.02183432458284 50.841295470595725"/>
<polyline points="-96.4603871928935 7.533360432264 -103.33658268868967 11.282123129658137"/>
<polyline points="-81.09494779298869 3.0470257915660084 -90.83868622392345 0.8729004088146988"/>
<polyline points="-34.266876937359356 -21.0011273127269 -43.60546314391722 -19.302249181823683"/>
<polyline points="4.4192790865311995 -23.846201575743567 -4.191316048125698 -26.914613360619825"/>
<polyline points="22.214679436503314 -8.812072515925355 18.237757767237362 -7.371132114045222"/>
<polyline points="18.237757767237362 -7.371132114045222 11.121654850177753 -0.672604952076435"/>
<polyline points="36.64604652004644 -5.1719351531086755 32.66912485078048 -3.7309947512285464"/>
<polyline points="37.35354374850295 -8.345126156501248 36.64604652004644 -5.1719351531086755"/>
<polyline points="49.65894674530396 -32.305171267837224 45.462956429708875 -27.202139277655057"/>
<polyline points="45.462956429708875 -27.202139277655057 36.155034559530314 -27.55586292425521"/>
<polyline points="45.462956429708875 -27.202139277655057 36.155034559530314 -27.55586292425521"/>
<polyline points="36.155034559530314 -27.55586292425521 28.092728276835665 -21.666476837396086"/>
<polyline points="59.477628007992735 -33.478785277559425 55.2816376923976 -28.375753287377226 38.90767162293117 -32.88294475594045 34.65955208791401 -37.07800488957044 26.872643681682565 -41.678441763770714 7.83694420422081 -64.83536066354027"/>
<polyline points="7.83694420422081 -64.83536066354027 5.975194799487246 -72.72194063137303 -7.074253901405375 -84.83634878803545 -8.936003306138907 -92.72292875586815 -14.823674847512967 -100.3713883871789 -28.689461554782433 -126.04705881249023"/>
<polyline points="-28.689461554782433 -126.04705881249023 -27.955530985051947 -135.7874399922807"/>
<polyline points="-28.689461554782433 -126.04705881249023 -27.955530985051947 -135.7874399922807"/>
<polyline points="-28.689461554782433 -126.04705881249023 -32.31795965786828 -134.9514460450797"/>
<polyline points="-32.31795965786828 -134.9514460450797 -37.38594337326529 -138.95360125292905"/>
<polyline points="-14.823674847512967 -100.3713883871789 -18.452172950598847 -109.27577561976834 -37.02896662974461 -116.3865221731628 -43.76610835664302 -121.61349486131826 -53.24820051560077 -123.22377532368067 -78.56250029891471 -113.58203095001207"/>
<polyline points="-78.56250029891471 -113.58203095001207 -83.86763187404273 -115.2798509392378 -101.51662370349538 -117.77166453756509 -106.82175527862343 -119.46948452679084 -115.21181355274402 -118.28431489342172 -135.05135669083316 -100.33524974393416"/>
<polyline points="-135.05135669083316 -100.33524974393416 -133.47242069022744 -98.71899417186341"/>
<polyline points="-135.05135669083316 -100.33524974393416 -137.86289230030098 -97.93333422897416"/>
<polyline points="-115.21181355274402 -118.28431489342172 -121.92455052448813 -116.70570982617144"/>
<polyline points="-115.21181355274402 -118.28431489342172 -121.92455052448813 -116.70570982617144"/>
<polyline points="-78.56250029891471 -113.58203095001207 -86.96725804363945 -115.48598543310423"/>
<polyline points="-86.96725804363945 -115.48598543310423 -96.43999226251884 -116.00483581826981"/>
<polyline points="-86.96725804363945 -115.48598543310423 -96.43999226251884 -116.00483581826981"/>
<polyline points="-96.43999226251884 -116.00483581826981 -103.62628107934893 -122.87707869949254"/>
<polyline points="-53.24820051560077 -123.22377532368067 -61.65295826032547 -125.12772980677288 -80.52876327329815 -120.82216824214518 -88.41273512671063 -114.68395413959813 -96.68735269952708 -110.92676930735064 -110.05665838906638 -96.07011559072333"/>
<polyline points="-110.05665838906638 -96.07011559072333 -114.3916164426582 -87.19714234370315 -129.05496786127443 -76.27971816267663 -133.38992591486632 -67.40674491565647 -138.87267485261162 -61.34791931960804 -142.92648702141094 -46.79563955114671"/>
<polyline points="-142.92648702141094 -46.79563955114671 -142.75932785802758 -37.40558596532414"/>
<polyline points="-142.92648702141094 -46.79563955114671 -142.75932785802758 -37.40558596532414"/>
<polyline points="-142.92648702141094 -46.79563955114671 -146.6122743689956 -39.00674321991238"/>
<polyline points="-146.6122743689956 -39.00674321991238 -154.91349441242448 -33.43441743730937"/>
<polyline points="-138.87267485261162 -61.34791931960804 -142.55846220019632 -53.5590229883737 -155.06597924935386 -53.596390329422704 -156.58178408222958 -53.480985228307865 -162.1193099037878 -55.98290558424031 -174.76321453500907 -76.99826519371729"/>
<polyline points="-174.76321453500907 -76.99826519371729 -173.58818726304835 -80.9063846584705 -181.4789608864318 -87.85348928810583 -180.3039336144711 -91.761608752859 -183.66114434834083 -97.52398027997258 -192.4053292154948 -124.35613552981212"/>
<polyline points="-192.4053292154948 -124.35613552981212 -185.29097817870007 -129.8573064786256"/>
<polyline points="-192.4053292154948 -124.35613552981212 -189.06481526202163 -131.4965863063145"/>
<polyline points="-183.66114434834083 -97.52398027997258 -184.55185587536414 -104.06857814665766"/>
<polyline points="-174.76321453500907 -76.99826519371729 -177.9865235365455 -80.05689812978592"/>
<polyline points="-155.06597924935386 -53.596390329422704 -160.59041259607926 -48.61431137057692"/>
<polyline points="-160.59041259607926 -48.61431137057692 -169.68022127566678 -49.4532640667348"/>
<polyline points="-142.55846220019632 -53.5590229883737 -148.08289554692163 -48.57694402952789"/>
<polyline points="-138.87267485261162 -61.34791931960804 -142.55846220019632 -53.5590229883737"/>
<polyline points="-110.05665838906638 -96.07011559072333 -117.3720592427364 -90.08612188647561"/>
<polyline points="-117.3720592427364 -90.08612188647561 -125.6650213771766 -92.24852177190952"/>
<polyline points="-117.3720592427364 -90.08612188647561 -125.6650213771766 -92.24852177190952"/>
<polyline points="-125.6650213771766 -92.24852177190952 -135.56981552665215 -92.22647537669478"/>
<polyline points="-96.68735269952708 -110.92676930735064 -104.00275355319721 -104.9427756031028 -117.28282488780187 -108.25196888128764 -120.02910592821605 -107.37276302837917 -124.98547173735516 -110.88138298619644 -129.63827657426015 -132.53487769044057"/>
<polyline points="-129.63827657426015 -132.53487769044057 -128.15606676765 -134.12217602428288 -134.54538475404456 -141.27195212338458 -133.06317494743448 -142.85925045722684 -134.6095630491593 -148.3489445016749 -132.32453728896647 -174.44688169815814"/>
<polyline points="-132.32453728896647 -174.44688169815814 -127.11995972547525 -178.36231050998137"/>
<polyline points="-132.32453728896647 -174.44688169815814 -127.11995972547525 -178.36231050998137"/>
<polyline points="-132.32453728896647 -174.44688169815814 -131.33995297691445 -179.52086919798123"/>
<polyline points="-131.33995297691445 -179.52086919798123 -134.81888190013586 -179.17046695163108"/>
<polyline points="-134.6095630491593 -148.3489445016749 -133.6249787371073 -153.42293200149803 -145.47696536816966 -167.66973855506228 -147.73747650664572 -177.34368609913778 -154.54380314349686 -184.54861026369656 -178.87700456260913 -199.3562560804739"/>
<polyline points="-178.87700456260913 -199.3562560804739 -181.2204434643035 -208.34310918285192 -193.52060829072747 -224.09518379541746 -195.86404719242188 -233.08203689779543 -202.75122894246675 -239.85009406116217 -226.52458319870377 -247.69491885258776"/>
<polyline points="-226.52458319870377 -247.69491885258776 -224.47242344138456 -252.47066395493871"/>
<polyline points="-226.52458319870377 -247.69491885258776 -228.66646677895685 -253.77464617741893"/>
<polyline points="-202.75122894246675 -239.85009406116217 -208.11033182220172 -246.882190956397"/>
<polyline points="-202.75122894246675 -239.85009406116217 -208.11033182220172 -246.882190956397"/>
<polyline points="-178.87700456260913 -199.3562560804739 -184.2543713115124 -207.77502061266105"/>
<polyline points="-184.2543713115124 -207.77502061266105 -192.52915321870236 -210.42692626648676"/>
<polyline points="-184.2543713115124 -207.77502061266105 -192.52915321870236 -210.42692626648676"/>
<polyline points="-192.52915321870236 -210.42692626648676 -195.32633122585497 -217.10248494090786"/>
<polyline points="-154.54380314349686 -184.54861026369656 -159.92116989240012 -192.96737479588376 -178.90412261635032 -195.9895531656569 -188.63145372442037 -196.380074528715 -198.2065908348937 -195.30574487469903 -220.5644258558932 -178.08228392087227"/>
<polyline points="-220.5644258558932 -178.08228392087227 -228.97058142187393 -173.89886929440152 -248.2013047858592 -169.0362145978703 -256.60746035183985 -164.85279997139955 -265.2243767781805 -160.07066160194606 -280.07744166194675 -136.30104768035318"/>
<polyline points="-280.07744166194675 -136.30104768035318 -285.21492327100583 -128.46930940981895"/>
<polyline points="-280.07744166194675 -136.30104768035318 -285.21492327100583 -128.46930940981895"/>
<polyline points="-280.07744166194675 -136.30104768035318 -287.93420016690595 -130.12437740064757"/>
<polyline points="-287.93420016690595 -130.12437740064757 -297.82473248677223 -130.64028696688712"/>
<polyline points="-265.2243767781805 -160.07066160194606 -273.08113528313964 -153.89399132224057 -286.1268645029583 -149.43784892154056 -289.02200684820394 -143.52827486740048 -293.70500855596975 -142.32003604335657 -296.53763684939946 -149.05327757276498"/>
<polyline points="-296.53763684939946 -149.05327757276498 -294.99908889893993 -144.72722854454273 -300.85830261746906 -141.2002486093849 -299.3197546670093 -136.87419958116277 -300.42902507325505 -136.86921489274968 -295.90126509744726 -149.87168108115657"/>
<polyline points="-295.90126509744726 -149.87168108115657 -287.27759395803525 -144.90070443184675"/>
<polyline points="-295.90126509744726 -149.87168108115657 -290.4258288140763 -148.387970515491"/>
<polyline points="-296.53763684939946 -149.05327757276498 -299.1346172909625 -146.40951249504633"/>
<polyline points="-273.08113528313964 -153.89399132224057 -281.33385135973276 -149.15044875584653"/>
<polyline points="-198.2065908348937 -195.30574487469903 -207.9497031748329 -193.08311498329087"/>
<polyline points="-178.90412261635032 -195.9895531656569 -186.67066238119114 -202.15475813584646"/>
<polyline points="-145.47696536816966 -167.66973855506228 -147.7850477913894 -174.01188216321023"/>
<polyline points="-134.6095630491593 -148.3489445016749 -133.6249787371073 -153.42293200149803"/>
<polyline points="-124.98547173735516 -110.88138298619644 -127.77376638710703 -113.7019226192118"/>
<polyline points="-117.28282488780187 -108.25196888128764 -125.25868871251868 -105.3294767048772"/>
<polyline points="-96.68735269952708 -110.92676930735064 -104.00275355319721 -104.9427756031028"/>
<polyline points="-61.65295826032547 -125.12772980677288 -71.45359513730125 -125.62463339295314"/>
<polyline points="-37.02896662974461 -116.3865221731628 -43.76010436076545 -123.61601521453335"/>
<polyline points="-43.76010436076545 -123.61601521453335 -48.76067722709107 -119.87132670522927"/>
<polyline points="-18.452172950598847 -109.27577561976834 -25.183310681619744 -116.50526866113886"/>
<polyline points="-14.823674847512967 -100.3713883871789 -18.452172950598847 -109.27577561976834"/>
<polyline points="7.83694420422081 -64.83536066354027 1.9128927794120063 -70.9150198221859"/>
<polyline points="1.9128927794120063 -70.9150198221859 -8.046914276097626 -71.06138108021663"/>
<polyline points="1.9128927794120063 -70.9150198221859 -8.046914276097626 -71.06138108021663"/>
<polyline points="-8.046914276097626 -71.06138108021663 -14.979124098119028 -69.40726529875604"/>
<polyline points="26.872643681682565 -41.678441763770714 20.948592256873773 -47.758100922416325 1.4610575535164414 -51.50028619982862 -5.853193452654129 -57.08800212785508 -15.157143988047638 -57.90886664432143 -36.09166060703786 -50.066457321632335"/>
<polyline points="-36.09166060703786 -50.066457321632335 -40.885570660704 -54.08106271577502 -57.723740848163025 -56.83163270853996 -62.5176509018292 -60.8462381026827 -69.85422745775276 -60.468700086482784 -83.4127647430307 -46.55071976325203"/>
<polyline points="-83.4127647430307 -46.55071976325203 -84.70942199478802 -47.8018153066767"/>
<polyline points="-83.4127647430307 -46.55071976325203 -84.70942199478802 -47.8018153066767"/>
<polyline points="-83.4127647430307 -46.55071976325203 -88.86080837327793 -46.94721122415577"/>
<polyline points="-88.86080837327793 -46.94721122415577 -96.77248097633041 -51.91095395153801"/>
<polyline points="-69.85422745775276 -60.468700086482784 -75.30227108800003 -60.86519154738654 -92.64930970413003 -51.781546035271205 -97.67865760062419 -44.0465029683033 -105.68494235101842 -38.05489226804941 -123.3338022855076 -18.281873470490545"/>
<polyline points="-123.3338022855076 -18.281873470490545 -125.49984311446744 -8.528850601224523 -138.92271112307938 6.280673667387393 -141.08875195203922 16.033696536653448 -146.81911372909565 23.761513551158433 -158.12079634873686 41.42702728896705"/>
<polyline points="-158.12079634873686 41.42702728896705 -152.98722894884995 49.80449718406156"/>
<polyline points="-158.12079634873686 41.42702728896705 -157.11557071211408 50.81874060659108"/>
<polyline points="-146.81911372909565 23.761513551158433 -150.259144537372 32.672127993101064"/>
<polyline points="-146.81911372909565 23.761513551158433 -150.259144537372 32.672127993101064"/>
<polyline points="-123.3338022855076 -18.281873470490545 -129.54726444079708 -10.45348143851546"/>
<polyline points="-129.54726444079708 -10.45348143851546 -139.51058489191828 -10.081602357969171"/>
<polyline points="-129.54726444079708 -10.45348143851546 -139.51058489191828 -10.081602357969171"/>
<polyline points="-139.51058489191828 -10.081602357969171 -147.40026744156125 -7.8878718385077775"/>
<polyline points="-105.68494235101842 -38.05489226804941 -111.89840450630793 -30.226500236074255 -130.62916088030767 -28.83570552050297 -137.02067172298905 -26.36626902998365 -145.70190422317876 -27.79012946165158 -164.20135749962233 -45.57520577390586"/>
<polyline points="-164.20135749962233 -45.57520577390586 -167.67119022961657 -46.45925151500668 -182.7796830309524 -50.088239408066165 -186.24951576094668 -50.9722851491669 -192.6254837634574 -55.08061556522411 -203.79936360593436 -79.35725851348933"/>
<polyline points="-203.79936360593436 -79.35725851348933 -203.69832358813917 -83.58374136430663"/>
<polyline points="-203.79936360593436 -79.35725851348933 -203.69832358813917 -83.58374136430663"/>
<polyline points="-203.79936360593436 -79.35725851348933 -208.04980512465923 -83.61925674589398"/>
<polyline points="-208.04980512465923 -83.61925674589398 -215.11333021172595 -81.51115279230879"/>
<polyline points="-192.6254837634574 -55.08061556522411 -196.87592528218224 -59.34261379762871 -214.02254812644586 -69.58307942488781 -218.93264000295557 -78.29297555296395 -227.2014954358023 -83.53489954961032 -247.68287313933362 -93.13265193492833"/>
<polyline points="-247.68287313933362 -93.13265193492833 -250.33362173588702 -101.65409573237821 -264.567042031687 -114.09120989877015 -267.2177906282403 -122.61265369621998 -273.698971527586 -127.81441726035067 -288.76465325521593 -131.53694087247055"/>
<polyline points="-288.76465325521593 -131.53694087247055 -284.41938661087676 -137.50669486155772"/>
<polyline points="-288.76465325521593 -131.53694087247055 -288.752348727415 -137.69652401657166"/>
<polyline points="-273.698971527586 -127.81441726035067 -278.0137267429475 -133.83998095193013"/>
<polyline points="-247.68287313933362 -93.13265193492833 -254.24005482420282 -100.06424767659462"/>
<polyline points="-214.02254812644586 -69.58307942488781 -220.898344504298 -74.42312493163776"/>
<polyline points="-220.898344504298 -74.42312493163776 -227.9661398084896 -67.39122573580997"/>
<polyline points="-196.87592528218224 -59.34261379762871 -203.75172166003443 -64.18265930437859"/>
<polyline points="-192.6254837634574 -55.08061556522411 -196.87592528218224 -59.34261379762871"/>
<polyline points="-164.20135749962233 -45.57520577390586 -171.39432107825345 -46.713889919103295"/>
<polyline points="-171.39432107825345 -46.713889919103295 -181.17899434891257 -48.43762547362522"/>
<polyline points="-171.39432107825345 -46.713889919103295 -181.17899434891257 -48.43762547362522"/>
<polyline points="-181.17899434891257 -48.43762547362522 -189.858398382866 -43.73808909142704"/>
<polyline points="-145.70190422317876 -27.79012946165158 -152.89486780180985 -28.92881360684899 -170.8002772458875 -37.61275571881116 -176.64480167652064 -45.688638795006106 -184.50195457877734 -51.03053442291441 -198.71654083125946 -66.08050892793008"/>
<polyline points="-198.71654083125946 -66.08050892793008 -201.01879181145733 -75.53580444766166 -214.07853581183332 -88.97178140741887 -216.38078679203113 -98.4270769271505 -221.42273804265545 -104.99320127996403 -227.76498654556764 -116.73952499243609"/>
<polyline points="-227.76498654556764 -116.73952499243609 -226.136058872094 -125.21281739148012"/>
<polyline points="-227.76498654556764 -116.73952499243609 -226.136058872094 -125.21281739148012"/>
<polyline points="-227.76498654556764 -116.73952499243609 -230.5347566596632 -124.54496081215943"/>
<polyline points="-230.5347566596632 -124.54496081215943 -237.05010316546583 -132.121154917056"/>
<polyline points="-221.42273804265545 -104.99320127996403 -224.192508156751 -112.79863709968735 -239.62199592790685 -114.26257961245646 -243.327458884292 -113.55498431383442 -251.00110843269107 -111.70541484022311 -272.02641191841775 -93.00572818886303"/>
<polyline points="-272.02641191841775 -93.00572818886303 -273.9955466915972 -87.815551737548 -287.0778340547718 -81.244629748105 -289.0469688279513 -76.05445329678996 -295.341932578293 -70.55739781230531 -312.44614422593924 -46.125932211848514"/>
<polyline points="-312.44614422593924 -46.125932211848514 -308.0975873795164 -38.373573460543966"/>
<polyline points="-312.44614422593924 -46.125932211848514 -312.46374797320345 -37.63001158534055"/>
<polyline points="-295.341932578293 -70.55739781230531 -299.5165500013858 -63.627240864817786"/>
<polyline points="-295.341932578293 -70.55739781230531 -299.5165500013858 -63.627240864817786"/>
<polyline points="-272.02641191841775 -93.00572818886303 -277.89241745453256 -89.8600097226135"/>
<polyline points="-277.89241745453256 -89.8600097226135 -287.6487601242377 -91.34993241789653"/>
<polyline points="-277.89241745453256 -89.8600097226135 -287.6487601242377 -91.34993241789653"/>
<polyline points="-287.6487601242377 -91.34993241789653 -293.52871485816166 -96.13687220663073"/>
<polyline points="-251.00110843269107 -111.70541484022311 -256.86711396880577 -108.5596963739736 -276.79072017423863 -106.85286951817488 -285.0331231844836 -101.32347524801347 -294.7197890898133 -100.62673121188475 -316.90240497381586 -104.17105690601758"/>
<polyline points="-316.90240497381586 -104.17105690601758 -322.9403747763021 -98.49043273941565 -341.0539605479061 -94.7389035873322 -347.0919303503923 -89.0582794207303 -355.0804728405149 -88.15927224997692 -369.68395190540815 -95.4531341810831"/>
<polyline points="-369.68395190540815 -95.4531341810831 -372.2181197849384 -91.2165795931221"/>
<polyline points="-369.68395190540815 -95.4531341810831 -372.2181197849384 -91.2165795931221"/>
<polyline points="-369.68395190540815 -95.4531341810831 -376.06686121088893 -93.05305990279949"/>
<polyline points="-376.06686121088893 -93.05305990279949 -384.7979283511967 -88.29758080553071"/>
<polyline points="-355.0804728405149 -88.15927224997692 -361.4633821459956 -85.7591979716935 -378.1508271115363 -95.23349734394795 -382.7778431092652 -101.86607121438021 -390.08190294597046 -108.54009101600577 -403.90871228328365 -134.01746944816057"/>
<polyline points="-403.90871228328365 -134.01746944816057 -405.109437642938 -143.28049045138857 -416.7908740203221 -159.15517326186983 -417.99159937997655 -168.4181942650979 -422.5583881791723 -177.30788163041612 -429.4797859102646 -202.40197814601373"/>
<polyline points="-429.4797859102646 -202.40197814601373 -421.2164231799641 -206.78366898118492"/>
<polyline points="-429.4797859102646 -202.40197814601373 -427.1578364771241 -212.12664452747896"/>
<polyline points="-416.7908740203221 -159.15517326186983 -423.1105566945665 -164.1471079219054"/>
<polyline points="-390.08190294597046 -108.54009101600577 -395.4660074305827 -116.58066809053054"/>
<polyline points="-355.0804728405149 -88.15927224997692 -361.4633821459956 -85.7591979716935"/>
<polyline points="-341.0539605479061 -94.7389035873322 -350.00822948416055 -90.34534518037047"/>
<polyline points="-294.7197890898133 -100.62673121188475 -303.59488087317715 -97.8316241056275"/>
<polyline points="-256.86711396880577 -108.5596963739736 -265.287962096335 -106.45285091499862"/>
<polyline points="-239.62199592790685 -114.26257961245646 -245.17804506835827 -119.69923760780887"/>
<polyline points="-245.17804506835827 -119.69923760780887 -252.9893412464281 -121.91812762337648"/>
<polyline points="-224.192508156751 -112.79863709968735 -229.74855729720238 -118.2352950950399"/>
<polyline points="-221.42273804265545 -104.99320127996403 -224.192508156751 -112.79863709968735"/>
<polyline points="-198.71654083125946 -66.08050892793008 -204.92005815905722 -73.3931620547088"/>
<polyline points="-204.92005815905722 -73.3931620547088 -214.45587271428332 -72.97615029506191"/>
<polyline points="-204.92005815905722 -73.3931620547088 -214.45587271428332 -72.97615029506191"/>
<polyline points="-214.45587271428332 -72.97615029506191 -223.45775929028824 -75.90202651071667"/>
<polyline points="-184.50195457877734 -51.03053442291441 -190.70547190657507 -58.34318754969315 -207.4159337071422 -57.030024552017586 -212.02339977950376 -57.428416899301695 -219.39408518711966 -54.458723744341924 -233.73809608620806 -32.57616490298993"/>
<polyline points="-233.73809608620806 -32.57616490298993 -235.00359988613332 -29.434009163247836 -246.84630088821552 -22.188457866496773 -248.1118046881408 -19.046302126754632 -252.81326079530706 -13.214142054619135 -260.3883838548315 14.115805423630222"/>
<polyline points="-260.3883838548315 14.115805423630222 -258.204723037646 20.23202282492773"/>
<polyline points="-260.3883838548315 14.115805423630222 -258.204723037646 20.23202282492773"/>
<polyline points="-260.3883838548315 14.115805423630222 -262.68639661774716 20.29342343255251"/>
<polyline points="-262.68639661774716 20.29342343255251 -268.0637072772 20.171039787531544"/>
<polyline points="-252.81326079530706 -13.214142054619135 -255.11127355822273 -7.036524045696932 -271.47638373366004 4.211257616881086 -276.2133850407833 12.949848848125292 -284.67728376428676 18.10440073111181 -308.98217377791923 24.325652873350293"/>
<polyline points="-308.98217377791923 24.325652873350293 -312.4995708574067 31.780181713925877 -327.7192529103775 43.303476547681385 -331.2366499898649 50.75800538825688 -338.75462847957385 54.982803729265065 -359.1865521257601 53.832955631525515"/>
<polyline points="-359.1865521257601 53.832955631525515 -356.416797869899 57.882387374424226"/>
<polyline points="-359.1865521257601 53.832955631525515 -360.8917953924759 58.080194194495554"/>
<polyline points="-338.75462847957385 54.982803729265065 -344.41394528675227 59.621747180739966"/>
<polyline points="-338.75462847957385 54.982803729265065 -344.41394528675227 59.621747180739966"/>
<polyline points="-308.98217377791923 24.325652873350293 -315.97784404931207 30.808187867051004"/>
<polyline points="-315.97784404931207 30.808187867051004 -325.5675533396095 31.671283681937684"/>
<polyline points="-315.97784404931207 30.808187867051004 -325.5675533396095 31.671283681937684"/>
<polyline points="-325.5675533396095 31.671283681937684 -331.42750886374324 38.12421277226531"/>
<polyline points="-284.67728376428676 18.10440073111181 -291.6729540356795 24.58693572481245 -311.57130615777425 22.92033874293245 -320.2936870336351 20.322864420048266 -329.6758709161949 16.991819709419335 -348.9367334655765 -4.3191661451571415"/>
<polyline points="-348.9367334655765 -4.3191661451571415 -355.0384670710973 -11.055472888580683 -372.5692922032148 -20.67589366663015 -378.6710258087357 -27.412200410053618 -386.0248319402979 -34.13491937936888 -396.75521037493735 -59.548535495883655"/>
<polyline points="-396.75521037493735 -59.548535495883655 -398.88083435971174 -68.86774930457582"/>
<polyline points="-396.75521037493735 -59.548535495883655 -398.88083435971174 -68.86774930457582"/>
<polyline points="-396.75521037493735 -59.548535495883655 -402.578806216879 -67.64605156532622"/>
<polyline points="-402.578806216879 -67.64605156532622 -411.69606525423825 -70.05606510582992"/>
<polyline points="-386.0248319402979 -34.13491937936888 -391.84842778223964 -42.23243544881128 -406.43663478036297 -48.26689624811238 -409.48947957014843 -53.756161713031204 -415.6494166856954 -55.10531962374876 -426.7350884939524 -45.83186514220319"/>
<polyline points="-426.7350884939524 -45.83186514220319 -426.31144646293325 -48.41944056232532 -435.360551409872 -51.04737989451375 -434.9369093788528 -53.6349553146358 -438.29894183459595 -52.70314770675625 -443.40010373767774 -35.72971508228764"/>
<polyline points="-443.40010373767774 -35.72971508228764 -436.1690780547983 -35.75340906441848"/>
<polyline points="-443.40010373767774 -35.72971508228764 -439.80541510940094 -34.60336086295805"/>
<polyline points="-438.29894183459595 -52.70314770675625 -439.13258082333977 -51.7992526110698"/>
<polyline points="-426.7350884939524 -45.83186514220319 -430.70781756261295 -47.906639953615084"/>
<polyline points="-406.43663478036297 -48.26689624811238 -413.7758124321818 -54.681363436275845"/>
<polyline points="-413.7758124321818 -54.681363436275845 -421.7901451333484 -49.434742853856214"/>
<polyline points="-391.84842778223964 -42.23243544881128 -399.18760543405836 -48.646902636974914"/>
<polyline points="-386.0248319402979 -34.13491937936888 -391.84842778223964 -42.23243544881128"/>
<polyline points="-348.9367334655765 -4.3191661451571415 -357.65946790004415 -9.08016026850876"/>
<polyline points="-357.65946790004415 -9.08016026850876 -366.11408027359306 -8.393240203630695"/>
<polyline points="-357.65946790004415 -9.08016026850876 -366.11408027359306 -8.393240203630695"/>
<polyline points="-366.11408027359306 -8.393240203630695 -375.50637472309035 -5.194914814931566"/>
<polyline points="-329.6758709161949 16.991819709419335 -338.3986053506627 12.230825586067743 -352.966439052068 9.515724296106976 -357.30580202890445 3.9145549566111226 -362.71551671332867 3.2019108235313816 -366.4002624970716 9.296685850133288"/>
<polyline points="-366.4002624970716 9.296685850133288 -366.20985888657447 4.467739952535103 -373.8501247610608 1.3173450461505065 -373.6597211505635 -3.5116008514476196 -375.43678191789826 -3.6771396235191744 -370.67978511759094 7.449894947040175"/>
<polyline points="-370.67978511759094 7.449894947040175 -366.10348194732234 4.7862445422451065"/>
<polyline points="-370.67978511759094 7.449894947040175 -366.10348194732234 4.7862445422451065"/>
<polyline points="-370.67978511759094 7.449894947040175 -370.13432001284434 6.143733990711444"/>
<polyline points="-370.13432001284434 6.143733990711444 -375.0533157038393 1.2510830691420267"/>
<polyline points="-375.43678191789826 -3.6771396235191744 -374.89131681315155 -4.983300579847883 -384.9256763772698 4.548885730255671 -385.50050221310835 11.926108264649395 -390.972004184795 18.389540947616506 -410.33111636007266 41.2801656169317"/>
<polyline points="-410.33111636007266 41.2801656169317 -410.3479372589135 50.97603787432091 -419.2290298370175 66.61677122213092 -419.24585073585826 76.31264347951999 -424.25646734689303 84.74995943229955 -443.24234220138624 106.26494295942682"/>
<polyline points="-443.24234220138624 106.26494295942682 -439.0150627247941 114.45086064263414"/>
<polyline points="-443.24234220138624 106.26494295942682 -442.9819015747668 115.95830024878262"/>
<polyline points="-424.25646734689303 84.74995943229955 -427.40873563794247 94.22919201929251"/>
<polyline points="-424.25646734689303 84.74995943229955 -427.40873563794247 94.22919201929251"/>
<polyline points="-410.33111636007266 41.2801656169317 -413.9093731433298 49.377278795746946"/>
<polyline points="-413.9093731433298 49.377278795746946 -422.22323949108363 50.55770509582062"/>
<polyline points="-413.9093731433298 49.377278795746946 -422.22323949108363 50.55770509582062"/>
<polyline points="-422.22323949108363 50.55770509582062 -424.7853575228443 52.38225489298566"/>
<polyline points="-390.972004184795 18.389540947616506 -394.55026096805227 26.48665412643167 -413.2708442441111 30.22611294061878 -422.2706489952741 34.23179200902455 -432.17902939963017 34.169224272555724 -458.669476586699 20.334884806701773"/>
<polyline points="-458.669476586699 20.334884806701773 -467.0557342091956 21.14948913636106 -487.01313378704833 20.573914331298962 -495.3993914095448 21.38851866095825 -504.91287451858767 18.79210466158486 -525.4244028752175 -2.2456865034573075"/>
<polyline points="-525.4244028752175 -2.2456865034573075 -531.3088491963115 -5.016540315620674"/>
<polyline points="-525.4244028752175 -2.2456865034573075 -531.3088491963115 -5.016540315620674"/>
<polyline points="-525.4244028752175 -2.2456865034573075 -534.1370255464857 -4.9146262607154405"/>
<polyline points="-534.1370255464857 -4.9146262607154405 -543.4145592282031 -1.2995501948095896"/>
<polyline points="-504.91287451858767 18.79210466158486 -513.6254971898559 16.123164904326774 -529.3943486309388 7.390885830721822 -534.4897970586553 -0.8765885117062696 -540.6385966954399 -5.780902794509755 -546.7308926123985 -16.858994343551643"/>
<polyline points="-546.7308926123985 -16.858994343551625 -547.4461635504747 -25.769842869059854 -556.7529037930169 -38.04502367106444 -557.4681747310932 -46.95587219657275 -560.1148535400127 -52.49042010912425 -557.5180178304722 -59.078746603032116"/>
</svg>