<svg transform="scale(1,-1)" viewBox="-290.8791261787291 -295.4327640501928 621.5100636217643 602.9304052031155" xmlns="http://www.w3.org/2000/svg">
<style>
svg { stroke:black; stroke-width:2; fill:none;}
</style>
<polyline points="-29.815532227307724 -39.774739142004464 29.48231028628813 40.74709561871627 -69.90056543262712 51.83961624473609 -10.602722919033575 132.3614510054584 29.48231028628804 40.747095618716365 69.56734349160973 -50.867259768025654 -29.81553222730542 -39.77473914200596 10.26950097801622 -131.389094528748 69.56734349160973 -50.867259768025704 -29.815532227305425 -39.774739142006005 29.48231028628808 40.747095618716344 -69.90056543262709 51.83961624473607 -29.81553222730542 -39.77473914200597 10.26950097801619 -131.38909452874807 69.5673434916097 -50.86725976802579 109.65237669693137 -142.48161515476787 10.269500978016227 -131.38909452874807 69.56734349160972 -50.867259768025754 109.65237669693133 -142.4816151547678 168.9502192105249 -61.959780394045495 69.56734349160972 -50.86725976802577 -29.815532227305425 -39.774739142006005 10.26950097801619 -131.38909452874807 -89.11337474089896 -120.29657390272833 -29.81553222730544 -39.77473914200605 10.269500978016161 -131.38909452874813 69.5673434916097 -50.86725976802584 109.65237669693136 -142.48161515476787 10.2695009780162 -131.38909452874813 -89.11337474089895 -120.29657390272844 -29.81553222730544 -39.77473914200612 -129.1984079462206 -28.682218515986353 -89.11337474089895 -120.29657390272841 -49.02834153557719 -211.91092928947043 -148.41121725449239 -200.81840866345078 -108.32618404917066 -292.4327640501928 -49.02834153557724 -211.91092928947052 10.269500978016262 -131.38909452874813 -89.1133747408989 -120.29657390272844 -29.81553222730544 -39.774739142006055 10.26950097801624 -131.38909452874807 -89.11337474089892 -120.29657390272831 -49.02834153557726 -211.91092928947037 -148.41121725449247 -200.81840866345067 -89.11337474089893 -120.29657390272833 -29.815532227305432 -39.77473914200602 10.269500978016227 -131.38909452874807 69.56734349160972 -50.867259768025754 -29.815532227305425 -39.77473914200604 10.269500978016172 -131.3890945287481 69.5673434916097 -50.86725976802584 109.65237669693137 -142.48161515476792 10.269500978016218 -131.38909452874813 -89.11337474089893 -120.29657390272844 -29.815532227305415 -39.77473914200613 -129.19840794622058 -28.68221851598639 -89.11337474089893 -120.2965739027284 -29.81553222730548 -39.77473914200606 10.269500978016216 -131.3890945287481 69.56734349160972 -50.86725976802577 -29.815532227305432 -39.774739142006055 -129.19840794622058 -28.6822185159863 -89.11337474089896 -120.29657390272833 -188.49625045981415 -109.20405327670866 -129.19840794622053 -28.682218515986296 -228.58128366513574 -17.58969788996671 -169.28344115154226 62.9321368707557 -268.6663168704575 74.02465749677539 -228.58128366513574 -17.589697889966633 -188.4962504598141 -109.2040532767087 -129.19840794622058 -28.682218515986364 -89.11337474089889 -120.2965739027284 -188.49625045981406 -109.20405327670872 -129.1984079462205 -28.682218515986392 -228.58128366513563 -17.58969788996663 -169.28344115154212 62.9321368707557 -129.1984079462205 -28.682218515986325 -89.11337474089883 -120.2965739027284 -188.49625045981398 -109.20405327670866 -148.41121725449239 -200.81840866345075 -89.11337474089883 -120.29657390272844 -188.49625045981398 -109.20405327670862 -148.41121725449244 -200.8184086634507 -247.79409297340757 -189.72588803743082 -188.49625045981404 -109.20405327670859 -129.1984079462204 -28.682218515986314 -89.11337474089883 -120.2965739027284 -29.815532227305255 -39.77473914200609 -129.19840794622039 -28.68221851598631 -89.11337474089873 -120.29657390272837 -188.49625045981392 -109.20405327670868 -148.41121725449224 -200.81840866345067 -89.11337474089875 -120.2965739027284 -29.8155322273052 -39.77473914200608 -129.19840794622036 -28.68221851598632 -69.9005654326268 51.839616244736 -29.815532227305194 -39.77473914200604 10.269500978016339 -131.38909452874813 69.56734349160993 -50.86725976802586 109.65237669693154 -142.48161515476795 10.269500978016369 -131.38909452874813 -89.11337474089878 -120.29657390272837 -29.815532227305205 -39.774739142006084 -129.19840794622036 -28.682218515986268 -89.11337474089879 -120.2965739027284 -29.81553222730526 -39.77473914200605 10.269500978016366 -131.3890945287481 69.5673434916099 -50.86725976802582 -29.81553222730522 -39.77473914200605 -129.19840794622039 -28.68221851598626 -89.11337474089878 -120.29657390272833 -188.49625045981395 -109.20405327670866 -129.19840794622039 -28.682218515986285 -89.11337474089872 -120.29657390272831 -188.4962504598139 -109.20405327670862 -148.41121725449224 -200.81840866345067 -89.11337474089875 -120.2965739027284 -29.815532227305194 -39.77473914200607 -129.19840794622036 -28.68221851598632 -69.90056543262683 51.83961624473601 -29.815532227305223 -39.774739142006034 -129.19840794622039 -28.682218515986253 -89.11337474089876 -120.29657390272831 -188.49625045981392 -109.20405327670859 -129.19840794622036 -28.682218515986268 -69.90056543262685 51.83961624473606 -29.815532227305237 -39.77473914200596 29.482310286288318 40.747095618716344 -69.90056543262685 51.83961624473609 -10.602722919033372 132.36145100545843 29.482310286288307 40.747095618716436 88.7801527998818 121.26893037943874 -10.602722919033349 132.36145100545846 -109.98559863794851 143.45397163147823 -69.90056543262686 51.83961624473616 -169.28344115154204 62.9321368707559 -109.98559863794846 143.45397163147823 -69.90056543262688 51.83961624473615 -10.602722919033349 132.36145100545846 29.482310286288335 40.74709561871643 -69.90056543262682 51.83961624473614 -169.28344115154198 62.93213687075582 -109.98559863794851 143.45397163147817 -209.3684743568637 154.54649225749787 -169.283441151542 62.93213687075584 -109.98559863794839 143.45397163147808 -209.3684743568636 154.5464922574979 -150.07063184327004 235.0683270182202 -109.98559863794841 143.45397163147814 -69.90056543262679 51.8396162447361 -169.28344115154198 62.932136870755855 -129.19840794622039 -28.682218515986207 -69.90056543262683 51.83961624473611 -169.283441151542 62.932136870755784 -109.98559863794851 143.45397163147814 -209.3684743568637 154.54649225749787 -169.283441151542 62.93213687075582 -129.19840794622039 -28.682218515986253 -69.90056543262685 51.83961624473606 -29.8155322273052 -39.774739142005984 -129.19840794622036 -28.682218515986253 -228.5812836651355 -17.5896978899664 -188.49625045981398 -109.20405327670849 -287.8791261787291 -98.11153265068866 -228.58128366513554 -17.58969788996642 -169.283441151542 62.9321368707559 -129.19840794622039 -28.682218515986207 -69.90056543262678 51.83961624473607 -169.28344115154195 62.932136870755876 -129.19840794622027 -28.682218515986193 -228.58128366513546 -17.589697889966438 -188.49625045981387 -109.20405327670848 -129.1984079462203 -28.682218515986186 -69.90056543262678 51.83961624473607 -169.28344115154192 62.93213687075584 -109.98559863794841 143.45397163147814 -69.9005654326268 51.83961624473606 -169.28344115154195 62.93213687075574 -109.98559863794844 143.4539716314781 -209.36847435686363 154.5464922574978 -169.28344115154195 62.93213687075575 -129.19840794622036 -28.68221851598632 -69.9005654326268 51.83961624473594 -29.81553222730514 -39.774739142006105 -129.1984079462203 -28.682218515986367 -69.9005654326267 51.839616244735886 -169.2834411515419 62.9321368707557 -109.98559863794831 143.45397163147797 -69.90056543262672 51.839616244735886 -29.81553222730506 -39.774739142006155 -129.19840794622021 -28.682218515986417 -89.11337474089862 -120.29657390272845 -29.815532227305088 -39.77473914200613 10.269500978016456 -131.38909452874827 69.56734349161006 -50.86725976802596 109.65237669693164 -142.48161515476806 10.269500978016499 -131.38909452874825 -89.11337474089865 -120.29657390272854 -29.81553222730513 -39.7747391420062 -129.1984079462203 -28.682218515986435 -89.11337474089866 -120.29657390272851 -29.81553222730514 -39.774739142006155 10.269500978016458 -131.3890945287482 69.56734349161002 -50.86725976802588 -29.815532227305123 -39.77473914200615 -129.19840794622027 -28.682218515986335 -89.1133747408987 -120.29657390272847 -188.49625045981387 -109.20405327670872 -129.19840794622033 -28.68221851598639 -89.11337474089864 -120.29657390272841 -188.49625045981384 -109.20405327670872 -148.4112172544922 -200.81840866345075 -89.11337474089866 -120.29657390272841 -29.815532227305088 -39.77473914200612 -129.19840794622021 -28.682218515986346 -69.9005654326267 51.83961624473598 -29.815532227305095 -39.77473914200609 -129.19840794622024 -28.68221851598623 -89.11337474089869 -120.29657390272833 -188.49625045981384 -109.20405327670859 -129.19840794622027 -28.682218515986285 -69.90056543262676 51.83961624473605 -29.81553222730514 -39.774739142005984 29.482310286288413 40.74709561871631 -69.90056543262675 51.83961624473606 -169.28344115154192 62.93213687075577 -109.98559863794839 143.45397163147808 -209.3684743568636 154.54649225749787 -169.28344115154192 62.93213687075579 -129.19840794622033 -28.682218515986296 -69.90056543262678 51.839616244736 -29.815532227305116 -39.774739142006055 -129.19840794622027 -28.68221851598633 -69.9005654326267 51.83961624473594 -169.2834411515419 62.93213687075573 -109.9855986379483 143.45397163147805 -69.9005654326267 51.83961624473602 -29.815532227305045 -39.77473914200605 -129.1984079462202 -28.682218515986296 -89.1133747408986 -120.29657390272837 -29.81553222730506 -39.77473914200608 -129.19840794622021 -28.68221851598622 -89.11337474089864 -120.29657390272833 -188.4962504598138 -109.20405327670852 -129.19840794622021 -28.682218515986275 -69.9005654326267 51.83961624473605 -29.81553222730508 -39.77473914200602 29.482310286288484 40.74709561871626 -69.90056543262666 51.83961624473605 -29.815532227305 -39.77473914200601 -129.19840794622016 -28.68221851598629 -89.11337474089855 -120.29657390272837 -29.81553222730501 -39.774739142006034 29.482310286288527 40.74709561871624 -69.90056543262662 51.839616244736 -10.602722919033113 132.3614510054583 29.48231028628852 40.747095618716244 69.56734349161027 -50.867259768025775 -29.815532227304896 -39.77473914200614 10.269500978016822 -131.3890945287482 69.56734349161027 -50.867259768025775 128.86518600520375 29.654574992696567 29.482310286288588 40.74709561871624 88.78015279988206 121.26893037943863 128.86518600520375 29.654574992696624 29.482310286288588 40.74709561871629 69.5673434916103 -50.86725976802573 -29.815532227304878 -39.77473914200611 29.48231028628857 40.74709561871626 88.78015279988195 121.2689303794387 128.8651860052037 29.65457499269668 188.16302851879715 110.1764097534191 88.78015279988198 121.26893037943869 128.86518600520367 29.65457499269665 188.16302851879715 110.17640975341901 228.24806172411886 18.562054366676993 128.8651860052037 29.65457499269664 29.482310286288538 40.747095618716244 88.78015279988193 121.2689303794386 -10.602722919033218 132.36145100545826 29.482310286288527 40.74709561871624 88.78015279988189 121.26893037943864 128.86518600520367 29.65457499269665 188.16302851879706 110.17640975341904 88.78015279988189 121.26893037943863 -10.60272291903329 132.36145100545826 29.48231028628846 40.74709561871625 -69.9005654326267 51.83961624473583 -10.602722919033301 132.36145100545826 48.69511959456024 212.88328576618065 -50.68775612435496 223.9758063922003 8.610086389238473 304.4976411529226 48.69511959456024 212.88328576618065 88.78015279988196 121.26893037943863 -10.602722919033202 132.36145100545824 29.482310286288545 40.747095618716216 88.78015279988196 121.26893037943859 -10.602722919033207 132.36145100545818 48.69511959456024 212.88328576618065 -50.68775612435496 223.9758063922003 -10.602722919033202 132.36145100545824 29.48231028628852 40.7470956187162 88.78015279988196 121.26893037943859 128.86518600520373 29.6545749926966 29.48231028628858 40.747095618716195 88.78015279988193 121.26893037943864 128.86518600520373 29.65457499269665 188.16302851879715 110.17640975341905 88.78015279988196 121.26893037943859 -10.602722919033198 132.36145100545826 29.482310286288563 40.74709561871624 -69.9005654326266 51.83961624473582 -10.602722919033202 132.36145100545824 29.48231028628852 40.7470956187162 88.78015279988196 121.26893037943859 128.86518600520373 29.65457499269665 29.482310286288588 40.74709561871622 -69.9005654326266 51.83961624473575 -10.602722919033237 132.3614510054582 -109.98559863794841 143.45397163147777 -69.9005654326266 51.83961624473578 -169.28344115154178 62.93213687075547 -129.19840794622007 -28.682218515986563 -228.5812836651352 -17.589697889966914 -169.2834411515418 62.93213687075545 -109.98559863794837 143.45397163147786 -69.90056543262662 51.83961624473585 -10.602722919033178 132.36145100545826 -109.98559863794831 143.45397163147786 -69.90056543262654 51.83961624473587 -169.28344115154172 62.93213687075547 -129.19840794621996 -28.68221851598654 -69.90056543262652 51.83961624473587 -10.602722919033063 132.3614510054582 -109.98559863794823 143.45397163147786 -50.68775612435474 223.97580639220024 -10.602722919033075 132.36145100545826 -109.98559863794823 143.45397163147786 -50.687756124354785 223.97580639220024 -150.07063184327 235.0683270182198 -109.98559863794823 143.45397163147786 -69.90056543262651 51.8396162447358 -10.602722919033072 132.3614510054582 29.482310286288715 40.74709561871622 -69.90056543262645 51.8396162447358 -10.602722919032997 132.36145100545818 -109.98559863794813 143.45397163147786 -50.68775612435471 223.97580639220024 -10.602722919032974 132.36145100545826 29.482310286288808 40.74709561871628 -69.90056543262637 51.839616244735865 -29.815532227304622 -39.77473914200614 29.48231028628882 40.74709561871627 88.78015279988215 121.2689303794387 128.865186005204 29.654574992696723 188.16302851879738 110.17640975341905 88.78015279988222 121.26893037943867 -10.602722919032965 132.36145100545835 29.482310286288783 40.7470956187163 -69.90056543262638 51.839616244735886 -10.602722919032992 132.3614510054583 29.48231028628875 40.74709561871625 88.78015279988222 121.26893037943867 128.86518600520398 29.654574992696677 29.482310286288808 40.747095618716266 -69.90056543262637 51.839616244735794 -10.602722919033 132.36145100545824 -109.98559863794816 143.45397163147783 -69.90056543262638 51.839616244735815 -10.602722919032928 132.36145100545818 -109.98559863794806 143.45397163147783 -50.68775612435467 223.9758063922002 -10.602722919032967 132.36145100545818 29.48231028628883 40.74709561871624 -69.90056543262634 51.83961624473582 -29.815532227304605 -39.7747391420062 29.482310286288836 40.7470956187162 -69.90056543262632 51.83961624473578 -10.602722919032928 132.36145100545818 -109.98559863794806 143.45397163147783 -69.90056543262634 51.83961624473582 -29.815532227304622 -39.77473914200622 29.48231028628882 40.74709561871618 69.56734349161063 -50.86725976802582 -29.815532227304548 -39.774739142006226 10.269500978017067 -131.38909452874822 69.56734349161057 -50.86725976802593 109.65237669693225 -142.481615154768 10.269500978017094 -131.38909452874825 -89.11337474089808 -120.29657390272862 -29.815532227304605 -39.77473914200625 -129.1984079462198 -28.682218515986502 -89.1133747408981 -120.29657390272855 -29.815532227304587 -39.77473914200622 10.269500978017085 -131.38909452874825 69.56734349161061 -50.86725976802595 -29.815532227304548 -39.77473914200624 -129.1984079462197 -28.68221851598646 -89.11337474089807 -120.2965739027285 -188.49625045981324 -109.20405327670882 -129.1984079462197 -28.682218515986495 -89.11337474089801 -120.29657390272854 -188.4962504598132 -109.20405327670885 -148.4112172544916 -200.81840866345092 -89.11337474089805 -120.29657390272858 -29.81553222730451 -39.77473914200634 -129.19840794621965 -28.682218515986552 -69.90056543262614 51.83961624473575 -29.815532227304523 -39.77473914200633 -129.19840794621965 -28.682218515986516 -89.11337474089808 -120.29657390272862 -188.49625045981324 -109.20405327670882 -129.19840794621967 -28.68221851598653 -69.9005654326262 51.83961624473582 -29.81553222730453 -39.77473914200623 29.48231028628899 40.747095618716095 -69.90056543262618 51.8396162447358 -169.28344115154135 62.93213687075545 -109.98559863794786 143.4539716314778 -209.36847435686306 154.54649225749745 -169.28344115154135 62.93213687075544 -129.19840794621965 -28.68221851598663 -69.90056543262617 51.83961624473573 -29.815532227304473 -39.77473914200632 -129.19840794621965 -28.682218515986612 -69.9005654326261 51.8396162447357 -169.28344115154127 62.93213687075544 -109.98559863794775 143.4539716314778 -69.9005654326261 51.83961624473572 -29.8155322273044 -39.77473914200632 -129.1984079462196 -28.682218515986605 -89.11337474089792 -120.29657390272868 -29.815532227304402 -39.774739142006354 -129.1984079462196 -28.682218515986552 -89.11337474089794 -120.2965739027286 -188.49625045981315 -109.20405327670889 -129.1984079462196 -28.682218515986584 -69.90056543262604 51.83961624473577 -29.8155322273044 -39.77473914200629 29.482310286289152 40.74709561871603 -69.90056543262601 51.83961624473577 -29.81553222730433 -39.77473914200628 -129.1984079462195 -28.68221851598654 -89.11337474089787 -120.29657390272862 -29.81553222730435 -39.7747391420063 29.482310286289234 40.74709561871598 -69.90056543262592 51.83961624473577 -10.602722919032386 132.3614510054581 29.482310286289234 40.747095618716024 88.78015279988263 121.2689303794384 128.86518600520435 29.654574992696357 188.1630285187979 110.17640975341868 88.78015279988273 121.26893037943837 -10.602722919032455 132.36145100545812 29.48231028628919 40.74709561871607 -69.90056543262597 51.83961624473576 -10.602722919032477 132.3614510054581 29.48231028628911 40.74709561871601 88.78015279988264 121.26893037943829 128.8651860052043 29.654574992696244 29.482310286289135 40.747095618715974 -69.90056543262602 51.8396162447357 -10.602722919032493 132.36145100545798 -109.98559863794765 143.4539716314778 -69.90056543262604 51.83961624473571 -10.602722919032425 132.36145100545798 -109.98559863794758 143.45397163147777 -50.687756124354024 223.97580639220013 -10.602722919032432 132.36145100545798 29.482310286289223 40.74709561871595 -69.90056543262592 51.83961624473569 -29.81553222730433 -39.77473914200637 29.482310286289206 40.74709561871591 -69.90056543262595 51.839616244735616 -10.602722919032429 132.36145100545795 -109.98559863794758 143.45397163147769 -69.90056543262595 51.83961624473564 -29.81553222730441 -39.774739142006474 29.48231028628919 40.747095618715825 69.5673434916108 -50.86725976802621 -29.815532227304356 -39.77473914200644 -129.1984079462195 -28.68221851598662 -89.11337474089794 -120.29657390272874 -188.4962504598131 -109.20405327670899 -129.19840794621956 -28.682218515986676 -69.90056543262604 51.83961624473564 -29.815532227304434 -39.77473914200643 29.482310286289135 40.747095618715846 -69.90056543262602 51.83961624473563 -29.81553222730435 -39.77473914200642 -129.1984079462195 -28.682218515986698 -89.1133747408979 -120.29657390272878 -29.815532227304363 -39.77473914200645 29.482310286289223 40.74709561871586 -69.90056543262594 51.83961624473563 -10.602722919032386 132.36145100545798 29.482310286289223 40.74709561871592 -69.90056543262594 51.83961624473559 -10.602722919032438 132.36145100545795 -109.9855986379476 143.4539716314777 -69.90056543262595 51.839616244735616 -29.81553222730431 -39.77473914200645 29.482310286289206 40.74709561871591 69.56734349161091 -50.867259768026145 -29.815532227304267 -39.77473914200645 29.48231028628926 40.747095618715875 -69.90056543262591 51.83961624473559 -10.602722919032386 132.36145100545798 29.48231028628926 40.747095618715896 69.56734349161093 -50.86725976802616 -29.815532227304217 -39.774739142006425 10.269500978017412 -131.38909452874847 69.56734349161094 -50.86725976802618 -29.815532227304235 -39.77473914200658 29.482310286289188 40.74709561871581 -69.90056543262598 51.83961624473545 -29.81553222730425 -39.774739142006574 10.26950097801745 -131.38909452874864 69.5673434916109 -50.86725976802624 109.65237669693263 -142.48161515476826 10.269500978017444 -131.38909452874861 69.567343491611 -50.86725976802627 -29.815532227304182 -39.77473914200654 29.482310286289312 40.74709561871579 69.567343491611 -50.86725976802627 109.65237669693263 -142.48161515476832 10.269500978017499 -131.3890945287486 50.35453418333916 -223.00344991549068 109.65237669693263 -142.48161515476835 10.269500978017513 -131.3890945287485 50.3545341833391 -223.00344991549062 -49.02834153557608 -211.9109292894708 10.26950097801747 -131.3890945287486 69.56734349161098 -50.86725976802625 109.65237669693262 -142.48161515476832 168.95021921052614 -61.959780394046014 69.56734349161103 -50.86725976802624 109.65237669693269 -142.4816151547683 10.26950097801756 -131.38909452874853 50.35453418333917 -223.00344991549068 109.65237669693269 -142.48161515476835 168.95021921052626 -61.959780394046106 69.56734349161108 -50.86725976802633 128.8651860052046 29.65457499269599 168.95021921052626 -61.959780394046085 209.03525241584776 -153.57413578078817 268.3330949294415 -73.05230102006591 308.418128134763 -164.66665640680802 209.03525241584785 -153.5741357807882 109.65237669693269 -142.4816151547684 168.95021921052626 -61.959780394046106 69.56734349161111 -50.86725976802627 109.65237669693263 -142.48161515476835 168.95021921052623 -61.95978039404604 209.03525241584782 -153.57413578078814 268.3330949294415 -73.05230102006588 168.95021921052628 -61.959780394046064 69.56734349161111 -50.867259768026216 109.65237669693266 -142.48161515476832 10.269500978017515 -131.38909452874853 69.5673434916111 -50.86725976802624 109.65237669693276 -142.4816151547683 10.269500978017618 -131.38909452874853 50.35453418333921 -223.00344991549062 109.65237669693273 -142.48161515476832 168.9502192105263 -61.959780394046035 69.56734349161115 -50.86725976802626 128.8651860052047 29.65457499269608 168.9502192105263 -61.95978039404599 69.56734349161117 -50.86725976802618 109.65237669693273 -142.48161515476824 10.269500978017605 -131.38909452874847 69.56734349161117 -50.8672597680262 128.86518600520466 29.654574992696144 168.9502192105263 -61.95978039404595 228.2480617241199 18.562054366676357 128.86518600520475 29.654574992696137 188.16302851879834 110.17640975341834 88.78015279988324 121.26893037943822 148.0779953134768 201.79076514016052 188.16302851879837 110.1764097534184 228.24806172412005 18.562054366676378 128.86518600520486 29.654574992696098 168.95021921052643 -61.95978039404597 228.24806172412005 18.56205436667628 128.86518600520486 29.65457499269599 188.1630285187983 110.17640975341831 88.78015279988317 121.26893037943805 128.86518600520478 29.654574992696027 168.9502192105264 -61.959780394046085 228.2480617241199 18.5620543666762 268.33309492944153 -73.05230102006587 168.95021921052637 -61.959780394046106 228.2480617241199 18.5620543666762 268.33309492944153 -73.05230102006587 327.6309374430352 7.469533740656464 228.24806172412002 18.56205436667619 128.86518600520486 29.654574992696084 168.95021921052643 -61.95978039404604 69.56734349161125 -50.86725976802626 128.86518600520478 29.654574992696027 168.95021921052634 -61.95978039404606 228.24806172411996 18.562054366676193 268.33309492944153 -73.05230102006587 168.9502192105264 -61.95978039404604 69.56734349161124 -50.86725976802631 128.86518600520475 29.654574992695988 29.48231028628961 40.747095618715804 69.56734349161118 -50.86725976802628 109.65237669693285 -142.48161515476832 10.269500978017723 -131.3890945287486 50.354534183339354 -223.0034499154907 109.65237669693288 -142.48161515476835 168.95021921052643 -61.959780394046035 69.5673434916113 -50.8672597680263 128.86518600520478 29.654574992696027 168.95021921052643 -61.959780394046035 69.5673434916113 -50.867259768026216 109.65237669693285 -142.48161515476832 10.269500978017708 -131.38909452874853 69.56734349161128 -50.86725976802625 128.86518600520475 29.654574992696084 168.95021921052637 -61.959780394045964 228.2480617241199 18.562054366676357 128.86518600520475 29.654574992696116 168.95021921052634 -61.959780394046 228.2480617241199 18.562054366676257 268.3330949294416 -73.05230102006577 168.9502192105264 -61.959780394046 69.56734349161124 -50.86725976802628 128.86518600520475 29.654574992696034 29.48231028628961 40.74709561871582 69.56734349161125 -50.86725976802626 128.86518600520475 29.654574992696084 168.9502192105264 -61.959780394045985 228.2480617241199 18.562054366676357 128.86518600520475 29.654574992696084 29.482310286289614 40.74709561871588 69.5673434916112 -50.8672597680262 -29.815532227303958 -39.77473914200645 29.482310286289568 40.747095618715846 -69.90056543262558 51.8396162447357 -29.81553222730402 -39.774739142006396 -129.1984079462192 -28.682218515986612 -69.90056543262561 51.839616244735666 -10.602722919032058 132.36145100545792 29.48231028628955 40.747095618715875 88.78015279988311 121.26893037943817 -10.602722919032008 132.36145100545792 29.482310286289657 40.74709561871592 -69.90056543262551 51.83961624473564 -29.81553222730388 -39.774739142006425 29.48231028628964 40.74709561871588 88.7801527998832 121.26893037943815 -10.602722919031956 132.36145100545795 48.69511959456162 212.88328576618028 88.78015279988321 121.26893037943823 -10.602722919031967 132.36145100545787 48.69511959456151 212.88328576618025 -50.68775612435365 223.9758063921999 -10.602722919031967 132.36145100545787 29.482310286289685 40.747095618715825 88.78015279988317 121.26893037943817 128.8651860052049 29.654574992696137 29.4823102862897 40.74709561871584 88.7801527998833 121.26893037943815 -10.602722919031857 132.36145100545792 48.6951195945617 212.88328576618028 88.78015279988331 121.26893037943823 128.86518600520495 29.65457499269615 29.4823102862898 40.747095618715896 69.56734349161142 -50.8672597680262 128.86518600520495 29.654574992696098 188.16302851879843 110.1764097534185 228.2480617241201 18.562054366676463 287.54590423771356 99.08388912739875 188.16302851879843 110.1764097534185 88.78015279988328 121.26893037943826 128.8651860052049 29.654574992696183 29.482310286289763 40.74709561871593 88.78015279988334 121.26893037943823 128.8651860052049 29.654574992696137 188.16302851879846 110.17640975341844 228.2480617241201 18.56205436667636 128.86518600520495 29.65457499269615 29.482310286289792 40.74709561871588 88.78015279988333 121.26893037943817 -10.602722919031828 132.36145100545798 29.482310286289774 40.74709561871589 88.78015279988342 121.26893037943817 -10.602722919031722 132.361451005458 48.695119594561824 212.88328576618028 88.78015279988342 121.26893037943823 128.86518600520506 29.654574992696144 29.482310286289913 40.74709561871589 69.56734349161151 -50.867259768026166 128.86518600520506 29.65457499269613 29.482310286289895 40.7470956187158 88.78015279988337 121.26893037943813 -10.602722919031793 132.3614510054579 29.482310286289877 40.74709561871579 69.56734349161147 -50.86725976802626 128.865186005205 29.654574992696006 168.95021921052663 -61.959780394046035 69.56734349161148 -50.86725976802628 109.65237669693313 -142.48161515476832 10.269500978017996 -131.3890945287486 50.354534183339666 -223.00344991549068 109.65237669693312 -142.48161515476832 168.9502192105267 -61.959780394046014 69.56734349161157 -50.86725976802626 128.8651860052051 29.654574992696084 168.9502192105267 -61.959780394045964 69.56734349161157 -50.86725976802619 109.65237669693319 -142.48161515476826 10.269500978018046 -131.38909452874853 69.56734349161162 -50.867259768026216 128.86518600520515 29.65457499269612 168.95021921052674 -61.95978039404591 228.2480617241203 18.562054366676406 128.86518600520512 29.65457499269614 168.95021921052674 -61.95978039404594 228.24806172412025 18.562054366676353 268.3330949294419 -73.05230102006574 168.95021921052674 -61.95978039404593 69.56734349161161 -50.867259768026216 128.86518600520512 29.65457499269609 29.482310286289973 40.74709561871588 69.56734349161162 -50.8672597680262 128.8651860052051 29.65457499269613 168.95021921052674 -61.95978039404591 228.2480617241203 18.562054366676406 128.86518600520512 29.65457499269614 29.482310286289977 40.74709561871594 69.56734349161158 -50.86725976802614 -29.81553222730359 -39.77473914200638 29.482310286289966 40.74709561871592 88.78015279988357 121.26893037943822 -10.602722919031573 132.361451005458 48.695119594561966 212.88328576618028 88.78015279988357 121.26893037943829 128.8651860052052 29.65457499269623 29.482310286290065 40.74709561871597 69.56734349161167 -50.86725976802609 128.86518600520517 29.654574992696176 29.482310286290044 40.747095618715896 88.78015279988357 121.26893037943823 -10.602722919031576 132.36145100545798 29.482310286290044 40.747095618715925 69.56734349161162 -50.867259768026145 128.86518600520517 29.654574992696176 168.95021921052685 -61.95978039404588 69.56734349161171 -50.86725976802618 128.86518600520512 29.654574992696208 168.95021921052685 -61.959780394045815 228.24806172412033 18.562054366676538 128.86518600520517 29.654574992696176 29.48231028629002 40.7470956187159 69.56734349161171 -50.86725976802612 -29.815532227303464 -39.774739142006474 29.48231028629002 40.74709561871589 69.56734349161165 -50.86725976802618 128.86518600520517 29.654574992696126 168.95021921052685 -61.95978039404591 69.56734349161171 -50.86725976802618 -29.815532227303464 -39.77473914200649 29.482310286290037 40.74709561871585 -69.90056543262511 51.839616244735595 -29.815532227303464 -39.774739142006474 10.269500978018105 -131.3890945287486 69.56734349161171 -50.86725976802628 109.65237669693337 -142.48161515476835 10.269500978018188 -131.3890945287486 -89.11337474089697 -120.29657390272888 -29.815532227303446 -39.77473914200655 -129.19840794621862 -28.682218515986783 -89.11337474089696 -120.29657390272882 -29.81553222730351 -39.77473914200649 10.269500978018176 -131.38909452874853 69.56734349161172 -50.8672597680262 -29.81553222730344 -39.77473914200647 -129.19840794621862 -28.682218515986698 -89.11337474089697 -120.29657390272877 -188.4962504598122 -109.20405327670903 -129.1984079462186 -28.682218515986698 -89.11337474089689 -120.29657390272872 -188.4962504598121 -109.20405327670903 -148.4112172544904 -200.81840866345112 -89.1133747408969 -120.29657390272878 -29.815532227303326 -39.77473914200649 -129.19840794621848 -28.6822185159867 -69.90056543262493 51.83961624473561 -29.815532227303326 -39.774739142006425 -129.19840794621848 -28.682218515986573 -89.11337474089692 -120.29657390272868 -188.4962504598121 -109.2040532767089 -129.19840794621848 -28.682218515986595 -69.900565432625 51.83961624473574 -29.81553222730334 -39.77473914200632 29.48231028629022 40.747095618715974 -69.90056543262496 51.83961624473574 -169.28344115154013 62.93213687075545 -109.98559863794658 143.45397163147774 -209.36847435686175 154.5464922574975 -169.28344115154013 62.932136870755464 -129.1984079462185 -28.682218515986605 -69.900565432625 51.8396162447357 -29.815532227303315 -39.77473914200636 -129.19840794621848 -28.682218515986595 -69.90056543262487 51.839616244735666 -169.28344115154005 62.932136870755464 -109.98559863794648 143.45397163147777 -69.90056543262489 51.83961624473575 -29.815532227303226 -39.77473914200631 -129.1984079462184 -28.682218515986584 -89.11337474089677 -120.29657390272865 -29.815532227303233 -39.77473914200639 -129.1984079462184 -28.682218515986538 -89.11337474089682 -120.29657390272864 -188.496250459812 -109.20405327670878 -129.1984079462184 -28.682218515986584 -69.90056543262489 51.83961624473575 -29.81553222730325 -39.77473914200632 29.48231028629032 40.74709561871597 -69.90056543262483 51.83961624473576 -29.815532227303173 -39.774739142006304 -129.19840794621834 -28.682218515986573 -89.11337474089672 -120.29657390272868 -29.815532227303173 -39.774739142006375 29.48231028629043 40.747095618715875 -69.90056543262472 51.83961624473569 -10.602722919031162 132.361451005458 29.482310286290435 40.747095618715925 88.78015279988391 121.26893037943829 128.8651860052056 29.654574992696247 188.16302851879917 110.17640975341857 88.780152799884 121.26893037943829 -10.602722919031153 132.36145100545804 29.482310286290467 40.74709561871599 -69.9005654326247 51.83961624473573 -10.602722919031123 132.36145100545804 29.482310286290417 40.74709561871594 88.78015279988402 121.26893037943823 128.86518600520563 29.654574992696183 29.48231028629047 40.74709561871594 -69.90056543262469 51.83961624473566 -10.602722919031162 132.361451005458 -109.98559863794632 143.45397163147777 -69.9005654326247 51.8396162447357 -10.602722919031107 132.36145100545798 -109.98559863794627 143.45397163147777 -50.68775612435275 223.97580639220007 -10.602722919031097 132.36145100545804 29.482310286290577 40.747095618715974 -69.90056543262459 51.8396162447357 -29.81553222730298 -39.77473914200641 29.482310286290566 40.74709561871588 -69.90056543262459 51.839616244735595 -10.602722919031065 132.3614510054579 -109.9855986379462 143.45397163147769 -69.90056543262462 51.839616244735595 -29.81553222730303 -39.77473914200647 29.482310286290513 40.747095618715804 69.56734349161214 -50.86725976802631 -29.815532227303017 -39.774739142006496 -129.19840794621817 -28.682218515986605 -89.11337474089663 -120.29657390272874 -188.49625045981182 -109.20405327670885 -129.19840794621817 -28.68221851598664 -69.90056543262465 51.83961624473569 -29.815532227303024 -39.77473914200641 29.48231028629055 40.74709561871587 -69.90056543262459 51.83961624473566 -29.81553222730294 -39.7747391420064 -129.19840794621808 -28.68221851598665 -89.11337474089649 -120.29657390272874 -29.815532227302946 -39.77473914200647 29.482310286290645 40.747095618715804 -69.9005654326245 51.839616244735616 -10.602722919030969 132.36145100545795 29.48231028629065 40.74709561871585 -69.90056543262452 51.83961624473553 -10.602722919031022 132.36145100545784 -109.98559863794618 143.45397163147763 -69.90056543262457 51.83961624473555 -29.815532227302935 -39.77473914200653 29.48231028629059 40.7470956187158 69.56734349161228 -50.86725976802627 -29.815532227302892 -39.774739142006545 29.482310286290673 40.74709561871574 -69.90056543262449 51.839616244735524 -10.602722919030935 132.36145100545784 29.48231028629068 40.747095618715804 69.56734349161233 -50.86725976802626 -29.81553222730283 -39.774739142006524 10.269500978018801 -131.38909452874861 69.56734349161233 -50.867259768026344 109.65237669693401 -142.4816151547684 10.269500978018858 -131.38909452874864 50.35453418334048 -223.0034499154908 109.652376696934 -142.48161515476846 168.95021921052762 -61.9597803940462 69.56734349161243 -50.86725976802637 128.86518600520597 29.654574992695967 168.95021921052762 -61.95978039404609 69.56734349161243 -50.86725976802635 109.65237669693407 -142.48161515476843 10.269500978018918 -131.38909452874873 69.5673434916124 -50.86725976802635 128.8651860052059 29.654574992696045 168.95021921052756 -61.95978039404597 228.2480617241211 18.562054366676403 128.8651860052059 29.654574992696073 168.9502192105276 -61.95978039404599 228.2480617241211 18.562054366676335 268.3330949294428 -73.05230102006576 168.95021921052762 -61.95978039404599 69.56734349161243 -50.86725976802632 128.8651860052059 29.65457499269605 29.482310286290762 40.74709561871577 69.56734349161245 -50.867259768026294 128.8651860052059 29.65457499269612 168.95021921052762 -61.95978039404595 228.2480617241211 18.562054366676403 128.86518600520594 29.654574992696098 29.48231028629077 40.74709561871584 69.56734349161242 -50.867259768026216 -29.81553222730275 -39.77473914200651 29.482310286290744 40.74709561871583 88.78015279988435 121.26893037943813 -10.602722919030793 132.36145100545795 48.695119594562755 212.8832857661802 88.78015279988436 121.26893037943819 128.86518600520603 29.654574992696116 29.482310286290865 40.74709561871588 69.5673434916125 -50.8672597680262 128.86518600520603 29.654574992696116 29.482310286290858 40.74709561871582 88.78015279988435 121.26893037943815 -10.602722919030786 132.36145100545792 29.48231028629084 40.74709561871583 69.56734349161245 -50.86725976802626 128.86518600520597 29.654574992696034 168.95021921052762 -61.959780394046064 69.56734349161245 -50.86725976802627 128.86518600520597 29.65457499269608 168.95021921052762 -61.959780394046 228.24806172412116 18.56205436667635 128.86518600520603 29.654574992696062 29.482310286290858 40.747095618715846 69.5673434916125 -50.86725976802623 -29.81553222730266 -39.774739142006474 29.4823102862909 40.74709561871583 69.56734349161245 -50.86725976802627 128.86518600520606 29.654574992696027 168.95021921052768 -61.95978039404609 69.5673434916125 -50.86725976802628 -29.815532227302665 -39.774739142006545 29.482310286290858 40.74709561871578 -69.90056543262429 51.839616244735545 -29.81553222730266 -39.77473914200651 -129.1984079462178 -28.682218515986662 -89.1133747408963 -120.29657390272874 -188.49625045981142 -109.2040532767089 -129.19840794621786 -28.68221851598667 -69.90056543262428 51.839616244735645 -29.815532227302697 -39.774739142006446 29.482310286290918 40.74709561871584 -69.90056543262422 51.83961624473566 -29.815532227302626 -39.774739142006446 -129.19840794621777 -28.68221851598661 -89.11337474089622 -120.29657390272872 -29.815532227302654 -39.77473914200646 29.482310286290936 40.74709561871582 -69.90056543262422 51.839616244735616 -10.602722919030677 132.36145100545795 29.482310286290947 40.7470956187159 -69.90056543262422 51.839616244735616 -10.602722919030715 132.36145100545795 -109.98559863794587 143.4539716314777 -69.9005654326242 51.83961624473564 -29.815532227302626 -39.77473914200645 29.482310286290918 40.74709561871583 69.56734349161253 -50.86725976802623 -29.81553222730261 -39.77473914200647 29.48231028629098 40.747095618715804 -69.90056543262415 51.839616244735595 -10.602722919030606 132.36145100545792 29.482310286290996 40.74709561871591 69.56734349161262 -50.867259768026166 -29.81553222730252 -39.77473914200641 10.269500978019073 -131.3890945287485 69.56734349161263 -50.8672597680262 128.86518600520608 29.654574992696176 168.9502192105278 -61.95978039404589 228.2480617241213 18.56205436667648 128.8651860052061 29.654574992696208 29.48231028629097 40.74709561871599 69.5673434916126 -50.867259768026095 -29.815532227302555 -39.774739142006375 29.48231028629097 40.74709561871595 69.56734349161255 -50.86725976802614 128.8651860052061 29.654574992696194 168.95021921052776 -61.9597803940459 69.5673434916126 -50.867259768026145 -29.815532227302565 -39.77473914200645 29.48231028629091 40.74709561871588 -69.90056543262425 51.83961624473564 -29.81553222730261 -39.774739142006425 29.482310286290982 40.747095618715846 -69.90056543262416 51.83961624473566 -10.602722919030606 132.36145100545804 29.482310286291 40.747095618715946 69.56734349161268 -50.867259768026116 -29.815532227302487 -39.774739142006375 10.26950097801913 -131.38909452874844 69.56734349161263 -50.867259768026145 -29.81553222730252 -39.77473914200641 29.482310286291007 40.74709561871591 -69.90056543262415 51.839616244735666 -29.81553222730252 -39.77473914200639 10.269500978019108 -131.38909452874847 69.56734349161263 -50.8672597680262 109.65237669693428 -142.48161515476826 10.269500978019135 -131.38909452874853"/>
</svg>