<svg transform="scale(1,-1)" viewBox="-290.8791261787291 -295.4327640501923 621.5100636217644 602.9304052031141" xmlns="http://www.w3.org/2000/svg">
<style>
svg { stroke:black; stroke-width:2; fill:none;}
</style>
<polyline points="-29.81553222730518 -39.77473914200575 29.482310286288016 40.747095618715925 -69.90056543262719 51.839616244735886 -10.6027229190337 132.36145100545806 29.48231028628803 40.747095618716294 69.56734349160982 -50.86725976802545 -29.81553222730537 -39.774739142005906 10.269500978016382 -131.38909452874765 69.56734349160982 -50.86725976802549 -29.81553222730538 -39.77473914200594 29.48231028628807 40.74709561871627 -69.90056543262716 51.83961624473587 -29.815532227305376 -39.77473914200592 10.269500978016337 -131.3890945287477 69.56734349160982 -50.86725976802558 109.65237669693158 -142.4816151547674 10.269500978016382 -131.38909452874773 69.56734349160982 -50.86725976802555 109.65237669693155 -142.48161515476735 168.95021921052503 -61.95978039404514 69.56734349160982 -50.86725976802556 -29.81553222730538 -39.77473914200594 10.269500978016344 -131.3890945287477 -89.11337474089886 -120.29657390272814 -29.815532227305386 -39.77473914200598 10.269500978016323 -131.38909452874773 69.56734349160982 -50.86725976802563 109.65237669693155 -142.4816151547674 10.269500978016364 -131.38909452874773 -89.11337474089885 -120.29657390272823 -29.815532227305386 -39.77473914200605 -129.1984079462206 -28.682218515986428 -89.11337474089885 -120.2965739027282 -49.028341535577 -211.91092928947 -148.41121725449227 -200.81840866345044 -108.32618404917044 -292.4327640501923 -49.028341535577034 -211.91092928947003 10.269500978016422 -131.38909452874773 -89.11337474089879 -120.2965739027282 -29.815532227305386 -39.774739142005984 10.269500978016394 -131.3890945287477 -89.11337474089879 -120.29657390272808 -49.02834153557708 -211.91092928946992 -148.4112172544923 -200.8184086634503 -89.1133747408988 -120.29657390272814 -29.815532227305386 -39.774739142005956 10.269500978016382 -131.3890945287477 69.56734349160983 -50.86725976802555 -29.81553222730538 -39.77473914200598 10.269500978016332 -131.38909452874773 69.56734349160982 -50.86725976802563 109.65237669693158 -142.48161515476747 10.269500978016378 -131.3890945287478 -89.11337474089883 -120.29657390272827 -29.81553222730537 -39.77473914200607 -129.19840794622058 -28.682218515986452 -89.1133747408988 -120.2965739027282 -29.815532227305436 -39.774739142006 10.269500978016369 -131.38909452874773 69.5673434916098 -50.86725976802556 -29.81553222730538 -39.77473914200599 -129.1984079462206 -28.68221851598637 -89.11337474089886 -120.29657390272814 -188.4962504598141 -109.20405327670856 -129.19840794622056 -28.68221851598638 -228.58128366513574 -17.589697889966885 -169.28344115154235 62.93213687075535 -268.66631687045765 74.02465749677489 -228.58128366513574 -17.589697889966843 -188.49625045981406 -109.20405327670862 -129.19840794622058 -28.682218515986428 -89.11337474089878 -120.29657390272816 -188.49625045981404 -109.20405327670862 -129.1984079462205 -28.682218515986467 -228.58128366513566 -17.58969788996684 -169.2834411515422 62.93213687075536 -129.1984079462205 -28.682218515986406 -89.1133747408987 -120.29657390272818 -188.49625045981395 -109.20405327670856 -148.41121725449221 -200.81840866345044 -89.11337474089872 -120.29657390272824 -188.49625045981395 -109.20405327670854 -148.41121725449227 -200.81840866345036 -247.79409297340754 -189.72588803743068 -188.496250459814 -109.20405327670854 -129.19840794622044 -28.682218515986385 -89.1133747408987 -120.29657390272818 -29.8155322273052 -39.77473914200603 -129.1984079462204 -28.68221851598639 -89.11337474089862 -120.29657390272816 -188.4962504598139 -109.20405327670858 -148.41121725449213 -200.81840866345036 -89.11337474089864 -120.29657390272816 -29.815532227305155 -39.77473914200601 -129.19840794622039 -28.6822185159864 -69.90056543262686 51.839616244735794 -29.815532227305148 -39.77473914200597 10.2695009780165 -131.3890945287478 69.56734349161003 -50.86725976802566 109.65237669693174 -142.4816151547675 10.269500978016532 -131.3890945287478 -89.11337474089865 -120.29657390272816 -29.815532227305166 -39.77473914200602 -129.19840794622039 -28.682218515986342 -89.11337474089868 -120.29657390272816 -29.81553222730521 -39.77473914200598 10.269500978016518 -131.38909452874773 69.56734349161 -50.86725976802561 -29.81553222730518 -39.77473914200599 -129.1984079462204 -28.68221851598635 -89.11337474089865 -120.29657390272811 -188.49625045981392 -109.20405327670856 -129.1984079462204 -28.682218515986374 -89.11337474089862 -120.29657390272811 -188.4962504598139 -109.20405327670856 -148.41121725449213 -200.81840866345036 -89.11337474089864 -120.29657390272816 -29.815532227305148 -39.774739142006005 -129.19840794622039 -28.6822185159864 -69.9005654326269 51.8396162447358 -29.815532227305173 -39.77473914200597 -129.1984079462204 -28.682218515986328 -89.11337474089865 -120.2965739027281 -188.49625045981392 -109.20405327670849 -129.19840794622039 -28.682218515986342 -69.90056543262692 51.83961624473585 -29.81553222730519 -39.7747391420059 29.482310286288307 40.74709561871627 -69.90056543262692 51.839616244735886 -10.602722919033498 132.36145100545812 29.482310286288286 40.74709561871636 88.78015279988175 121.26893037943853 -10.602722919033466 132.36145100545812 -109.98559863794866 143.45397163147774 -69.90056543262693 51.83961624473596 -169.28344115154215 62.932136870755556 -109.98559863794864 143.45397163147774 -69.90056543262693 51.83961624473594 -10.602722919033457 132.36145100545812 29.48231028628832 40.74709561871635 -69.90056543262688 51.839616244735936 -169.2834411515421 62.93213687075549 -109.98559863794868 143.45397163147769 -209.36847435686389 154.54649225749722 -169.28344115154212 62.93213687075551 -109.98559863794857 143.45397163147763 -209.3684743568638 154.54649225749728 -150.07063184327032 235.06832701821946 -109.98559863794858 143.45397163147766 -69.90056543262686 51.83961624473589 -169.2834411515421 62.932136870755535 -129.1984079462204 -28.68221851598628 -69.9005654326269 51.8396162447359 -169.2834411515421 62.93213687075544 -109.98559863794868 143.45397163147766 -209.36847435686389 154.54649225749725 -169.28344115154212 62.93213687075547 -129.1984079462204 -28.682218515986328 -69.90056543262692 51.83961624473585 -29.815532227305155 -39.77473914200591 -129.19840794622039 -28.682218515986328 -228.58128366513546 -17.589697889966615 -188.49625045981395 -109.20405327670844 -287.8791261787291 -98.11153265068877 -228.58128366513552 -17.589697889966633 -169.2834411515421 62.93213687075554 -129.1984079462204 -28.682218515986268 -69.90056543262685 51.839616244735865 -169.28344115154206 62.932136870755535 -129.19840794622027 -28.682218515986257 -228.58128366513546 -17.58969788996665 -188.49625045981387 -109.20405327670844 -129.1984079462203 -28.68221851598627 -69.90056543262685 51.839616244735865 -169.28344115154204 62.93213687075549 -109.98559863794858 143.45397163147766 -69.90056543262686 51.83961624473585 -169.2834411515421 62.9321368707554 -109.98559863794861 143.45397163147763 -209.36847435686386 154.54649225749716 -169.2834411515421 62.93213687075542 -129.19840794622039 -28.6822185159864 -69.90056543262686 51.83961624473574 -29.815532227305102 -39.774739142006034 -129.1984079462203 -28.682218515986445 -69.90056543262678 51.839616244735694 -169.283441151542 62.93213687075536 -109.98559863794851 143.45397163147751 -69.90056543262679 51.839616244735694 -29.815532227305017 -39.77473914200609 -129.19840794622024 -28.682218515986488 -89.11337474089851 -120.29657390272824 -29.81553222730504 -39.77473914200607 10.269500978016593 -131.3890945287479 69.56734349161015 -50.86725976802577 109.65237669693181 -142.48161515476758 10.269500978016643 -131.3890945287479 -89.11337474089855 -120.29657390272831 -29.815532227305095 -39.77473914200613 -129.1984079462203 -28.6822185159865 -89.11337474089856 -120.29657390272828 -29.815532227305113 -39.7747391420061 10.269500978016604 -131.38909452874785 69.5673434916101 -50.867259768025676 -29.815532227305084 -39.774739142006084 -129.1984079462203 -28.68221851598642 -89.1133747408986 -120.29657390272823 -188.49625045981384 -109.20405327670862 -129.19840794622033 -28.682218515986452 -89.11337474089854 -120.29657390272823 -188.49625045981378 -109.20405327670866 -148.41121725449204 -200.81840866345038 -89.11337474089856 -120.2965739027282 -29.81553222730504 -39.774739142006055 -129.19840794622027 -28.68221851598641 -69.90056543262678 51.83961624473578 -29.815532227305052 -39.77473914200603 -129.19840794622027 -28.682218515986317 -89.11337474089858 -120.29657390272811 -188.49625045981384 -109.20405327670849 -129.19840794622027 -28.68221851598636 -69.90056543262683 51.83961624473585 -29.815532227305102 -39.77473914200592 29.482310286288392 40.747095618716244 -69.90056543262682 51.83961624473585 -169.283441151542 62.93213687075542 -109.98559863794857 143.45397163147763 -209.36847435686374 154.54649225749722 -169.283441151542 62.93213687075545 -129.1984079462203 -28.68221851598637 -69.90056543262685 51.839616244735794 -29.815532227305077 -39.774739142006 -129.1984079462203 -28.6822185159864 -69.90056543262678 51.83961624473576 -169.28344115154198 62.93213687075539 -109.98559863794851 143.4539716314776 -69.90056543262678 51.83961624473582 -29.815532227305013 -39.77473914200598 -129.1984079462202 -28.682218515986385 -89.1133747408985 -120.29657390272816 -29.815532227305024 -39.77473914200601 -129.19840794622024 -28.682218515986307 -89.11337474089855 -120.29657390272811 -188.49625045981378 -109.20405327670848 -129.19840794622024 -28.682218515986342 -69.90056543262678 51.83961624473585 -29.81553222730505 -39.774739142005956 29.482310286288463 40.74709561871619 -69.90056543262673 51.83961624473584 -29.815532227304963 -39.77473914200594 -129.19840794622016 -28.68221851598637 -89.11337474089845 -120.29657390272811 -29.81553222730498 -39.77473914200596 29.482310286288506 40.74709561871617 -69.90056543262669 51.8396162447358 -10.602722919033221 132.36145100545798 29.48231028628849 40.74709561871617 69.56734349161033 -50.86725976802557 -29.81553222730487 -39.77473914200607 10.269500978016948 -131.38909452874785 69.56734349161033 -50.86725976802558 128.86518600520375 29.654574992696634 29.482310286288563 40.747095618716166 88.78015279988199 121.26893037943842 128.86518600520378 29.65457499269669 29.48231028628857 40.74709561871622 69.56734349161036 -50.867259768025534 -29.81553222730485 -39.77473914200605 29.482310286288545 40.7470956187162 88.78015279988188 121.26893037943849 128.86518600520373 29.65457499269677 188.1630285187971 110.17640975341904 88.7801527998819 121.26893037943849 128.86518600520367 29.654574992696748 188.1630285187971 110.17640975341895 228.24806172411894 18.56205436667721 128.86518600520373 29.654574992696713 29.48231028628851 40.74709561871617 88.78015279988188 121.26893037943842 -10.602722919033326 132.36145100545792 29.4823102862885 40.74709561871617 88.78015279988182 121.26893037943846 128.86518600520367 29.654574992696734 188.163028518797 110.17640975341898 88.78015279988182 121.26893037943842 -10.602722919033388 132.36145100545795 29.48231028628844 40.74709561871617 -69.90056543262678 51.839616244735645 -10.602722919033402 132.36145100545792 48.69511959456006 212.8832857661802 -50.68775612435515 223.97580639219967 8.610086389238232 304.49764115292186 48.69511959456006 212.8832857661802 88.7801527998819 121.26893037943843 -10.602722919033308 132.3614510054579 29.482310286288524 40.747095618716145 88.7801527998819 121.26893037943842 -10.602722919033313 132.36145100545784 48.69511959456006 212.8832857661802 -50.68775612435515 223.97580639219967 -10.602722919033319 132.3614510054579 29.48231028628849 40.74709561871613 88.7801527998819 121.26893037943842 128.86518600520378 29.65457499269668 29.482310286288552 40.74709561871612 88.78015279988188 121.26893037943843 128.86518600520378 29.654574992696723 188.1630285187971 110.176409753419 88.7801527998819 121.26893037943842 -10.602722919033305 132.36145100545792 29.482310286288534 40.74709561871617 -69.90056543262668 51.83961624473562 -10.602722919033319 132.3614510054579 29.48231028628849 40.74709561871613 88.7801527998819 121.26893037943842 128.86518600520378 29.654574992696705 29.48231028628856 40.74709561871615 -69.90056543262668 51.839616244735545 -10.602722919033347 132.36145100545784 -109.98559863794857 143.4539716314773 -69.90056543262668 51.83961624473557 -169.28344115154187 62.93213687075512 -129.1984079462201 -28.682218515986627 -228.58128366513523 -17.589697889967123 -169.28344115154192 62.932136870755116 -109.98559863794854 143.4539716314774 -69.90056543262669 51.83961624473566 -10.60272291903328 132.36145100545792 -109.98559863794851 143.4539716314774 -69.90056543262659 51.83961624473568 -169.28344115154178 62.93213687075514 -129.19840794621996 -28.682218515986612 -69.90056543262658 51.83961624473568 -10.602722919033171 132.3614510054579 -109.98559863794837 143.4539716314774 -50.687756124354955 223.97580639219962 -10.602722919033177 132.36145100545795 -109.9855986379484 143.45397163147737 -50.687756124355005 223.97580639219967 -150.07063184327026 235.0683270182191 -109.9855986379484 143.45397163147737 -69.90056543262656 51.8396162447356 -10.602722919033189 132.3614510054579 29.48231028628869 40.747095618716145 -69.90056543262651 51.839616244735595 -10.602722919033104 132.36145100545784 -109.9855986379483 143.45397163147737 -50.68775612435491 223.97580639219962 -10.602722919033083 132.36145100545792 29.48231028628878 40.74709561871621 -69.90056543262642 51.839616244735666 -29.815532227304594 -39.77473914200608 29.482310286288797 40.74709561871619 88.78015279988207 121.26893037943852 128.86518600520404 29.65457499269679 188.16302851879732 110.17640975341904 88.78015279988213 121.26893037943846 -10.602722919033075 132.36145100545798 29.482310286288754 40.74709561871622 -69.90056543262645 51.839616244735694 -10.60272291903309 132.36145100545795 29.482310286288726 40.74709561871619 88.78015279988213 121.26893037943846 128.86518600520398 29.654574992696737 29.48231028628878 40.747095618716195 -69.90056543262642 51.83961624473559 -10.60272291903311 132.36145100545792 -109.98559863794836 143.45397163147734 -69.90056543262642 51.8396162447356 -10.602722919033033 132.36145100545784 -109.98559863794829 143.45397163147737 -50.6877561243549 223.97580639219962 -10.602722919033074 132.36145100545784 29.482310286288797 40.747095618716166 -69.9005654326264 51.83961624473562 -29.815532227304576 -39.77473914200613 29.482310286288808 40.74709561871613 -69.90056543262638 51.83961624473559 -10.602722919033043 132.36145100545784 -109.98559863794829 143.45397163147737 -69.9005654326264 51.83961624473562 -29.81553222730459 -39.774739142006155 29.482310286288797 40.74709561871611 69.5673434916107 -50.86725976802561 -29.815532227304523 -39.77473914200617 10.269500978017184 -131.38909452874796 69.56734349161064 -50.86725976802573 109.65237669693241 -142.48161515476752 10.269500978017204 -131.38909452874796 -89.113374740898 -120.29657390272841 -29.815532227304576 -39.77473914200618 -129.1984079462198 -28.68221851598658 -89.11337474089801 -120.29657390272834 -29.815532227304566 -39.774739142006155 10.26950097801719 -131.38909452874796 69.56734349161069 -50.867259768025754 -29.815532227304523 -39.774739142006176 -129.1984079462197 -28.682218515986534 -89.11337474089801 -120.29657390272833 -188.4962504598132 -109.20405327670875 -129.1984079462197 -28.682218515986566 -89.11337474089794 -120.29657390272833 -188.49625045981315 -109.20405327670879 -148.4112172544915 -200.8184086634506 -89.11337474089797 -120.29657390272841 -29.815532227304487 -39.77473914200627 -129.19840794621967 -28.68221851598664 -69.9005654326262 51.839616244735545 -29.8155322273045 -39.77473914200626 -129.19840794621967 -28.68221851598659 -89.113374740898 -120.29657390272841 -188.4962504598132 -109.20405327670879 -129.19840794621967 -28.682218515986616 -69.90056543262627 51.83961624473562 -29.815532227304505 -39.774739142006176 29.482310286288964 40.747095618716024 -69.90056543262624 51.839616244735595 -169.28344115154144 62.9321368707551 -109.98559863794806 143.45397163147734 -209.36847435686326 154.54649225749685 -169.2834411515414 62.93213687075508 -129.19840794621967 -28.682218515986698 -69.90056543262625 51.839616244735524 -29.81553222730445 -39.77473914200624 -129.19840794621965 -28.682218515986683 -69.90056543262617 51.839616244735495 -169.28344115154133 62.93213687075512 -109.98559863794792 143.45397163147734 -69.90056543262617 51.83961624473551 -29.815532227304377 -39.77473914200625 -129.1984079462196 -28.682218515986687 -89.11337474089784 -120.29657390272847 -29.81553222730438 -39.77473914200628 -129.1984079462196 -28.682218515986627 -89.11337474089787 -120.29657390272845 -188.4962504598131 -109.2040532767088 -129.1984079462196 -28.682218515986648 -69.90056543262611 51.83961624473555 -29.815532227304377 -39.774739142006226 29.482310286289128 40.74709561871596 -69.90056543262607 51.83961624473555 -29.815532227304317 -39.77473914200621 -129.19840794621953 -28.682218515986623 -89.11337474089778 -120.29657390272843 -29.81553222730432 -39.77473914200623 29.482310286289206 40.747095618715925 -69.90056543262597 51.83961624473555 -10.602722919032509 132.36145100545775 29.482310286289206 40.74709561871595 88.78015279988256 121.26893037943819 128.86518600520435 29.654574992696418 188.16302851879786 110.17640975341864 88.78015279988264 121.26893037943819 -10.602722919032553 132.36145100545775 29.48231028628917 40.747095618715996 -69.90056543262604 51.83961624473555 -10.602722919032587 132.36145100545775 29.48231028628908 40.74709561871594 88.78015279988259 121.26893037943806 128.86518600520427 29.6545749926963 29.482310286289106 40.7470956187159 -69.90056543262608 51.83961624473548 -10.602722919032619 132.36145100545767 -109.9855986379478 143.45397163147734 -69.90056543262611 51.8396162447355 -10.602722919032544 132.36145100545764 -109.98559863794773 143.45397163147732 -50.68775612435423 223.97580639219944 -10.602722919032551 132.36145100545764 29.482310286289188 40.74709561871588 -69.90056543262598 51.839616244735474 -29.81553222730431 -39.774739142006304 29.482310286289177 40.74709561871584 -69.900565432626 51.839616244735396 -10.602722919032546 132.3614510054576 -109.98559863794773 143.45397163147723 -69.90056543262602 51.83961624473542 -29.81553222730438 -39.7747391420064 29.48231028628916 40.747095618715754 69.56734349161086 -50.867259768026 -29.815532227304328 -39.774739142006375 -129.19840794621953 -28.682218515986694 -89.11337474089785 -120.29657390272853 -188.49625045981304 -109.20405327670889 -129.1984079462196 -28.68221851598674 -69.90056543262611 51.83961624473543 -29.815532227304406 -39.77473914200637 29.4823102862891 40.74709561871579 -69.90056543262607 51.83961624473541 -29.815532227304328 -39.774739142006354 -129.19840794621953 -28.682218515986765 -89.11337474089781 -120.29657390272857 -29.815532227304338 -39.77473914200638 29.482310286289195 40.74709561871579 -69.90056543262598 51.83961624473542 -10.602722919032505 132.36145100545764 29.482310286289202 40.747095618715846 -69.90056543262598 51.83961624473538 -10.602722919032562 132.36145100545758 -109.98559863794776 143.45397163147726 -69.900565432626 51.839616244735396 -29.81553222730428 -39.77473914200638 29.482310286289177 40.74709561871584 69.56734349161097 -50.86725976802595 -29.81553222730424 -39.77473914200638 29.48231028628923 40.747095618715804 -69.90056543262597 51.83961624473537 -10.602722919032512 132.36145100545764 29.48231028628923 40.74709561871583 69.56734349161101 -50.86725976802596 -29.815532227304196 -39.774739142006354 10.269500978017513 -131.38909452874816 69.56734349161101 -50.86725976802598 -29.815532227304214 -39.774739142006524 29.48231028628916 40.74709561871574 -69.90056543262604 51.83961624473525 -29.81553222730422 -39.77473914200652 10.269500978017556 -131.3890945287483 69.56734349161096 -50.86725976802603 109.65237669693276 -142.4816151547678 10.269500978017556 -131.38909452874825 69.56734349161104 -50.86725976802607 -29.81553222730416 -39.77473914200648 29.482310286289284 40.747095618715726 69.56734349161104 -50.86725976802607 109.65237669693279 -142.48161515476784 10.269500978017598 -131.38909452874825 50.354534183339325 -223.00344991549005 109.65237669693279 -142.4816151547679 10.269500978017607 -131.38909452874822 50.354534183339275 -223.00344991549 -49.02834153557594 -211.91092928947037 10.269500978017577 -131.38909452874825 69.56734349161104 -50.867259768026045 109.65237669693276 -142.48161515476787 168.95021921052623 -61.95978039404569 69.56734349161108 -50.867259768026024 109.65237669693283 -142.48161515476784 10.26950097801765 -131.38909452874825 50.35453418333935 -223.00344991549 109.65237669693283 -142.4816151547679 168.9502192105263 -61.95978039404576 69.56734349161115 -50.86725976802614 128.8651860052046 29.654574992696062 168.9502192105263 -61.95978039404575 209.03525241584794 -153.57413578078754 268.3330949294416 -73.05230102006543 308.41812813476315 -164.66665640680725 209.035252415848 -153.57413578078754 109.65237669693283 -142.48161515476792 168.9502192105263 -61.95978039404577 69.56734349161115 -50.86725976802607 109.65237669693279 -142.4816151547679 168.95021921052628 -61.95978039404571 209.03525241584796 -153.57413578078751 268.3330949294416 -73.05230102006539 168.9502192105263 -61.959780394045715 69.56734349161117 -50.86725976802602 109.65237669693282 -142.48161515476784 10.26950097801762 -131.38909452874825 69.56734349161115 -50.867259768026045 109.6523766969329 -142.4816151547678 10.269500978017712 -131.38909452874825 50.3545341833394 -223.00344991549 109.65237669693286 -142.48161515476784 168.95021921052637 -61.95978039404569 69.56734349161121 -50.86725976802607 128.8651860052047 29.654574992696137 168.9502192105264 -61.95978039404564 69.56734349161124 -50.86725976802598 109.65237669693289 -142.48161515476778 10.269500978017696 -131.38909452874816 69.56734349161124 -50.867259768026 128.86518600520466 29.65457499269619 168.9502192105264 -61.959780394045616 228.24806172411994 18.562054366676545 128.86518600520475 29.654574992696208 188.16302851879834 110.17640975341831 88.78015279988318 121.26893037943805 148.07799531347666 201.79076514016018 188.16302851879834 110.17640975341838 228.24806172412002 18.562054366676577 128.86518600520486 29.654574992696176 168.9502192105265 -61.95978039404566 228.24806172412002 18.56205436667651 128.86518600520483 29.654574992696052 188.1630285187983 110.17640975341827 88.7801527998831 121.26893037943786 128.8651860052048 29.65457499269608 168.95021921052646 -61.95978039404575 228.24806172411994 18.5620543666764 268.33309492944164 -73.05230102006539 168.95021921052646 -61.95978039404577 228.24806172411994 18.562054366676414 268.33309492944164 -73.05230102006539 327.63093744303524 7.46953374065676 228.24806172412002 18.56205436667642 128.86518600520486 29.654574992696137 168.95021921052648 -61.959780394045694 69.5673434916113 -50.867259768026045 128.8651860052048 29.65457499269609 168.9502192105264 -61.959780394045715 228.24806172411996 18.562054366676428 268.33309492944164 -73.05230102006539 168.95021921052646 -61.959780394045715 69.56734349161128 -50.86725976802611 128.86518600520472 29.654574992696062 29.482310286289582 40.74709561871574 69.56734349161124 -50.867259768026074 109.652376696933 -142.48161515476787 10.269500978017817 -131.38909452874825 50.35453418333955 -223.00344991549005 109.652376696933 -142.4816151547679 168.95021921052648 -61.959780394045694 69.56734349161134 -50.867259768026095 128.8651860052048 29.65457499269609 168.95021921052648 -61.959780394045694 69.56734349161137 -50.86725976802602 109.65237669693298 -142.48161515476784 10.2695009780178 -131.38909452874822 69.56734349161133 -50.86725976802603 128.86518600520475 29.654574992696144 168.95021921052643 -61.959780394045616 228.24806172411994 18.562054366676545 128.86518600520475 29.654574992696173 168.95021921052643 -61.959780394045666 228.24806172411994 18.5620543666765 268.33309492944176 -73.05230102006527 168.95021921052648 -61.959780394045666 69.56734349161128 -50.867259768026074 128.86518600520475 29.654574992696098 29.482310286289586 40.747095618715754 69.5673434916113 -50.867259768026045 128.86518600520475 29.654574992696144 168.95021921052648 -61.959780394045644 228.24806172411994 18.562054366676545 128.86518600520475 29.654574992696144 29.482310286289593 40.747095618715804 69.56734349161125 -50.867259768025995 -29.815532227303922 -39.774739142006375 29.48231028628954 40.74709561871578 -69.90056543262565 51.83961624473548 -29.81553222730399 -39.77473914200632 -129.1984079462192 -28.682218515986683 -69.90056543262567 51.83961624473546 -10.60272291903216 132.36145100545764 29.48231028628953 40.747095618715804 88.78015279988307 121.268930379438 -10.60272291903212 132.36145100545764 29.48231028628963 40.747095618715846 -69.90056543262557 51.83961624473543 -29.81553222730386 -39.774739142006354 29.48231028628961 40.74709561871582 88.78015279988315 121.26893037943798 -10.602722919032049 132.3614510054576 48.695119594561454 212.88328576617982 88.78015279988315 121.26893037943806 -10.60272291903206 132.36145100545752 48.695119594561355 212.88328576617982 -50.68775612435385 223.97580639219933 -10.602722919032065 132.36145100545752 29.48231028628966 40.747095618715754 88.78015279988311 121.26893037943798 128.86518600520486 29.65457499269621 29.48231028628967 40.74709561871578 88.78015279988324 121.26893037943796 -10.602722919031958 132.3614510054576 48.69511959456153 212.88328576617982 88.78015279988324 121.26893037943805 128.86518600520495 29.65457499269623 29.48231028628977 40.74709561871583 69.56734349161148 -50.867259768025995 128.86518600520495 29.654574992696165 188.1630285187984 110.17640975341841 228.24806172412016 18.562054366676673 287.5459042377136 99.08388912739883 188.1630285187984 110.17640975341841 88.78015279988321 121.26893037943807 128.8651860052049 29.654574992696247 29.48231028628973 40.74709561871586 88.78015279988327 121.26893037943805 128.86518600520486 29.65457499269619 188.16302851879846 110.17640975341838 228.24806172412013 18.562054366676577 128.86518600520495 29.65457499269623 29.482310286289767 40.74709561871582 88.78015279988327 121.26893037943802 -10.602722919031937 132.36145100545764 29.482310286289753 40.74709561871583 88.78015279988335 121.26893037943798 -10.602722919031839 132.36145100545767 48.69511959456168 212.88328576617985 88.78015279988335 121.26893037943805 128.86518600520506 29.65457499269622 29.482310286289884 40.747095618715825 69.56734349161155 -50.86725976802595 128.86518600520506 29.654574992696183 29.482310286289874 40.74709561871574 88.78015279988333 121.26893037943796 -10.602722919031885 132.36145100545752 29.48231028628985 40.74709561871574 69.56734349161151 -50.86725976802605 128.86518600520498 29.65457499269608 168.9502192105267 -61.959780394045694 69.5673434916115 -50.867259768026074 109.65237669693325 -142.48161515476784 10.269500978018076 -131.38909452874825 50.35453418333982 -223.00344991549 109.65237669693325 -142.48161515476787 168.95021921052683 -61.95978039404568 69.56734349161161 -50.86725976802605 128.8651860052051 29.654574992696137 168.95021921052683 -61.95978039404562 69.56734349161161 -50.86725976802598 109.65237669693332 -142.4816151547678 10.269500978018126 -131.3890945287482 69.56734349161167 -50.86725976802602 128.86518600520515 29.654574992696183 168.95021921052685 -61.95978039404557 228.24806172412028 18.562054366676623 128.86518600520512 29.6545749926962 168.95021921052683 -61.9597803940456 228.24806172412028 18.562054366676566 268.3330949294421 -73.05230102006526 168.95021921052685 -61.9597803940456 69.56734349161167 -50.86725976802602 128.86518600520512 29.654574992696162 29.48231028628995 40.74709561871581 69.56734349161167 -50.867259768025995 128.8651860052051 29.65457499269621 168.95021921052685 -61.95978039404557 228.24806172412028 18.562054366676623 128.86518600520512 29.6545749926962 29.482310286289955 40.74709561871587 69.56734349161162 -50.86725976802593 -29.815532227303574 -39.77473914200632 29.482310286289938 40.74709561871585 88.7801527998835 121.26893037943802 -10.602722919031683 132.3614510054577 48.695119594561824 212.88328576617985 88.78015279988351 121.2689303794381 128.8651860052052 29.6545749926963 29.48231028629004 40.7470956187159 69.56734349161171 -50.86725976802588 128.86518600520517 29.654574992696258 29.48231028629001 40.74709561871583 88.7801527998835 121.26893037943805 -10.602722919031683 132.36145100545767 29.482310286290016 40.74709561871587 69.56734349161167 -50.86725976802594 128.86518600520517 29.654574992696244 168.9502192105269 -61.959780394045545 69.56734349161175 -50.867259768025974 128.86518600520512 29.65457499269628 168.9502192105269 -61.95978039404549 228.24806172412036 18.56205436667675 128.86518600520517 29.654574992696258 29.482310286289998 40.74709561871583 69.56734349161175 -50.86725976802593 -29.815532227303436 -39.774739142006396 29.48231028628999 40.747095618715825 69.5673434916117 -50.867259768025974 128.86518600520517 29.654574992696197 168.95021921052688 -61.95978039404557 69.56734349161175 -50.867259768025974 -29.815532227303443 -39.77473914200642 29.48231028629001 40.74709561871579 -69.90056543262517 51.83961624473539 -29.815532227303436 -39.774739142006396 10.269500978018193 -131.38909452874825 69.56734349161175 -50.86725976802607 109.65237669693346 -142.48161515476787 10.269500978018279 -131.38909452874825 -89.1133747408969 -120.2965739027287 -29.81553222730343 -39.774739142006496 -129.19840794621865 -28.682218515986865 -89.1133747408969 -120.29657390272864 -29.815532227303496 -39.77473914200643 10.269500978018264 -131.3890945287482 69.56734349161175 -50.867259768025995 -29.815532227303418 -39.77473914200641 -129.1984079462186 -28.682218515986765 -89.11337474089693 -120.2965739027286 -188.49625045981213 -109.20405327670893 -129.19840794621857 -28.682218515986776 -89.11337474089683 -120.29657390272855 -188.49625045981202 -109.20405327670899 -148.41121725449034 -200.8184086634508 -89.11337474089684 -120.2965739027286 -29.815532227303304 -39.77473914200642 -129.1984079462185 -28.682218515986786 -69.90056543262499 51.83961624473541 -29.8155322273033 -39.774739142006354 -129.1984079462185 -28.68221851598665 -89.11337474089684 -120.29657390272847 -188.49625045981202 -109.20405327670883 -129.1984079462185 -28.682218515986687 -69.90056543262503 51.83961624473553 -29.81553222730332 -39.774739142006254 29.482310286290193 40.74709561871591 -69.900565432625 51.839616244735524 -169.2834411515402 62.932136870755095 -109.98559863794671 143.45397163147726 -209.3684743568619 154.5464922574969 -169.2834411515402 62.93213687075512 -129.1984079462185 -28.682218515986683 -69.90056543262502 51.83961624473548 -29.815532227303294 -39.7747391420063 -129.1984079462185 -28.682218515986687 -69.90056543262493 51.839616244735474 -169.28344115154013 62.93213687075512 -109.98559863794664 143.4539716314773 -69.90056543262493 51.839616244735545 -29.815532227303205 -39.77473914200624 -129.1984079462184 -28.68221851598664 -89.1133747408967 -120.29657390272847 -29.81553222730321 -39.77473914200632 -129.1984079462184 -28.682218515986605 -89.11337474089675 -120.29657390272843 -188.49625045981196 -109.20405327670876 -129.1984079462184 -28.68221851598664 -69.90056543262493 51.839616244735545 -29.815532227303233 -39.77473914200626 29.4823102862903 40.7470956187159 -69.90056543262487 51.83961624473555 -29.815532227303155 -39.77473914200624 -129.19840794621837 -28.682218515986634 -89.11337474089666 -120.29657390272847 -29.815532227303162 -39.77473914200632 29.482310286290407 40.7470956187158 -69.90056543262476 51.839616244735495 -10.602722919031244 132.36145100545767 29.482310286290414 40.74709561871585 88.78015279988385 121.26893037943807 128.8651860052056 29.65457499269631 188.1630285187991 110.1764097534185 88.78015279988395 121.26893037943807 -10.602722919031242 132.36145100545772 29.48231028629044 40.74709561871591 -69.90056543262475 51.839616244735524 -10.602722919031212 132.36145100545772 29.482310286290403 40.74709561871585 88.78015279988398 121.26893037943805 128.8651860052056 29.65457499269624 29.48231028629045 40.74709561871587 -69.90056543262473 51.83961624473546 -10.602722919031251 132.36145100545767 -109.98559863794642 143.45397163147726 -69.90056543262475 51.839616244735495 -10.602722919031194 132.36145100545764 -109.98559863794638 143.45397163147726 -50.68775612435288 223.97580639219944 -10.602722919031185 132.36145100545772 29.482310286290545 40.7470956187159 -69.90056543262463 51.839616244735495 -29.815532227302967 -39.77473914200634 29.482310286290545 40.74709561871581 -69.90056543262463 51.839616244735396 -10.60272291903116 132.36145100545758 -109.98559863794632 143.45397163147717 -69.90056543262465 51.839616244735396 -29.81553222730302 -39.7747391420064 29.48231028629049 40.74709561871574 69.56734349161216 -50.867259768026095 -29.815532227303006 -39.77473914200644 -129.1984079462182 -28.682218515986694 -89.11337474089659 -120.29657390272855 -188.49625045981182 -109.20405327670883 -129.1984079462182 -28.682218515986715 -69.90056543262469 51.839616244735495 -29.81553222730302 -39.77473914200634 29.48231028629052 40.7470956187158 -69.90056543262465 51.83961624473546 -29.815532227302935 -39.77473914200634 -129.19840794621808 -28.682218515986726 -89.11337474089645 -120.29657390272855 -29.81553222730293 -39.774739142006396 29.482310286290616 40.74709561871574 -69.90056543262455 51.83961624473541 -10.602722919031047 132.3614510054576 29.482310286290623 40.747095618715775 -69.90056543262456 51.83961624473532 -10.602722919031118 132.36145100545752 -109.98559863794631 143.45397163147715 -69.90056543262462 51.83961624473536 -29.815532227302924 -39.77473914200647 29.482310286290563 40.74709561871573 69.5673434916123 -50.86725976802607 -29.81553222730289 -39.77473914200648 29.482310286290645 40.747095618715676 -69.90056543262453 51.83961624473532 -10.602722919031017 132.3614510054575 29.48231028629065 40.74709561871573 69.56734349161235 -50.86725976802607 -29.815532227302818 -39.77473914200646 10.269500978018847 -131.3890945287483 69.56734349161233 -50.86725976802614 109.65237669693407 -142.4816151547679 10.269500978018911 -131.38909452874833 50.35453418334059 -223.00344991549014 109.65237669693406 -142.48161515476798 168.95021921052762 -61.95978039404582 69.56734349161245 -50.867259768026166 128.86518600520597 29.654574992696023 168.95021921052762 -61.95978039404574 69.56734349161248 -50.867259768026145 109.65237669693413 -142.48161515476792 10.26950097801897 -131.3890945287484 69.56734349161242 -50.867259768026145 128.86518600520589 29.654574992696116 168.9502192105276 -61.95978039404562 228.24806172412107 18.562054366676588 128.8651860052059 29.65457499269614 168.9502192105276 -61.95978039404562 228.24806172412107 18.562054366676545 268.33309492944284 -73.05230102006524 168.95021921052762 -61.95978039404564 69.56734349161246 -50.867259768026116 128.86518600520589 29.65457499269611 29.48231028629074 40.74709561871572 69.56734349161248 -50.86725976802609 128.86518600520586 29.654574992696173 168.95021921052762 -61.959780394045595 228.24806172412107 18.562054366676616 128.86518600520589 29.654574992696165 29.482310286290748 40.74709561871578 69.56734349161246 -50.86725976802602 -29.815532227302732 -39.77473914200644 29.48231028629072 40.747095618715775 88.78015279988428 121.26893037943793 -10.602722919030867 132.3614510054576 48.695119594562634 212.88328576617977 88.78015279988429 121.26893037943802 128.86518600520597 29.6545749926962 29.482310286290836 40.74709561871581 69.56734349161253 -50.867259768026 128.86518600520597 29.654574992696187 29.48231028629083 40.747095618715754 88.78015279988428 121.26893037943796 -10.602722919030867 132.3614510054576 29.48231028629081 40.747095618715775 69.56734349161248 -50.86725976802605 128.86518600520594 29.654574992696105 168.95021921052762 -61.959780394045694 69.56734349161248 -50.86725976802607 128.8651860052059 29.65457499269615 168.95021921052762 -61.959780394045644 228.24806172412113 18.562054366676552 128.86518600520597 29.654574992696144 29.482310286290836 40.74709561871578 69.56734349161253 -50.86725976802603 -29.81553222730265 -39.774739142006396 29.482310286290865 40.747095618715775 69.56734349161248 -50.86725976802607 128.865186005206 29.654574992696084 168.95021921052768 -61.959780394045715 69.56734349161252 -50.867259768026074 -29.815532227302658 -39.77473914200648 29.482310286290826 40.74709561871572 -69.90056543262436 51.83961624473532 -29.81553222730265 -39.774739142006446 -129.1984079462178 -28.682218515986715 -89.11337474089625 -120.29657390272855 -188.49625045981145 -109.20405327670886 -129.19840794621786 -28.68221851598673 -69.90056543262432 51.83961624473543 -29.815532227302686 -39.774739142006375 29.482310286290883 40.747095618715775 -69.90056543262428 51.83961624473544 -29.815532227302615 -39.774739142006375 -129.19840794621777 -28.682218515986705 -89.11337474089616 -120.29657390272853 -29.81553222730265 -39.77473914200639 29.4823102862909 40.74709561871575 -69.90056543262428 51.839616244735396 -10.602722919030747 132.3614510054576 29.482310286290915 40.747095618715846 -69.90056543262428 51.839616244735396 -10.602722919030784 132.3614510054576 -109.985598637946 143.4539716314773 -69.90056543262428 51.83961624473543 -29.815532227302615 -39.77473914200639 29.48231028629088 40.74709561871576 69.56734349161255 -50.867259768026024 -29.815532227302615 -39.774739142006396 29.482310286290943 40.74709561871574 -69.90056543262422 51.83961624473539 -10.602722919030697 132.3614510054576 29.482310286290954 40.74709561871584 69.56734349161263 -50.867259768025974 -29.815532227302516 -39.774739142006354 10.26950097801912 -131.38909452874816 69.56734349161263 -50.867259768025995 128.86518600520608 29.654574992696254 168.95021921052776 -61.95978039404553 228.24806172412121 18.56205436667668 128.8651860052061 29.65457499269628 29.482310286290936 40.74709561871591 69.56734349161262 -50.86725976802589 -29.81553222730255 -39.774739142006304 29.482310286290936 40.74709561871588 69.56734349161255 -50.86725976802593 128.8651860052061 29.654574992696247 168.95021921052776 -61.959780394045545 69.56734349161262 -50.86725976802594 -29.815532227302562 -39.77473914200639 29.482310286290872 40.74709561871582 -69.90056543262429 51.83961624473542 -29.815532227302604 -39.774739142006354 29.482310286290954 40.74709561871578 -69.9005654326242 51.83961624473544 -10.602722919030688 132.3614510054577 29.482310286290954 40.74709561871588 69.56734349161268 -50.86725976802591 -29.815532227302494 -39.77473914200632 10.269500978019177 -131.38909452874813 69.56734349161263 -50.86725976802594 -29.815532227302516 -39.774739142006354 29.482310286290975 40.74709561871584 -69.9005654326242 51.83961624473546 -29.815532227302516 -39.77473914200632 10.269500978019138 -131.38909452874816 69.56734349161263 -50.867259768026 109.65237669693431 -142.48161515476778 10.269500978019174 -131.38909452874822"/>
</svg>