<svg transform="scale(1,-1)" viewBox="-1010.1279150291839 -697.5792391592989 2083.141633192065 1500.8619487184048" xmlns="http://www.w3.org/2000/svg">
<style>
svg { stroke:black; stroke-width:2; fill:none;}
</style>
<polyline points="108.90434680915978 453.86457836038704 13.521186432785765 451.3976711521982"/>
<polyline points="13.521186432785905 451.3976711521968 -81.86197394358896 448.9307639440078"/>
<polyline points="-81.86197394358896 448.9307639440078 -104.54025341283172 520.1879159503023"/>
<polyline points="-81.86197394358896 448.9307639440078 -104.5402534128317 520.1879159503023"/>
<polyline points="-81.86197394358896 448.9307639440078 -59.18369447434627 377.6736119377135"/>
<polyline points="-59.18369447434627 377.6736119377135 -36.50541500510354 306.4164599314189"/>
<polyline points="-36.50541500510354 306.4164599314189 58.87774537127131 308.88336713960797"/>
<polyline points="58.87774537127131 308.88336713960797 154.26090574764615 311.35027434779704"/>
<polyline points="154.26090574764615 311.35027434779704 58.87774537127131 308.88336713960797"/>
<polyline points="-36.50541500510354 306.4164599314189 -16.814088058204387 376.53302471305983"/>
<polyline points="-16.814088058204387 376.53302471305983 2.877238888694738 446.64958949470076"/>
<polyline points="2.877238888694738 446.64958949470076 -16.814088058204387 376.53302471305983"/>
<polyline points="2.877238888694738 446.64958949470076 -92.50592148768006 444.18268228651164"/>
<polyline points="-92.50592148768006 444.18268228651164 -187.8890818640549 441.7157750783226"/>
<polyline points="-187.8890818640549 441.7157750783226 -168.19775491715578 511.83233985996344"/>
<polyline points="-187.8890818640549 441.7157750783226 -168.19775491715575 511.83233985996355"/>
<polyline points="-187.8890818640549 441.7157750783226 -207.58040881095403 371.59921029668175"/>
<polyline points="-207.58040881095403 371.59921029668175 -227.2717357578533 301.4826455150409"/>
<polyline points="-227.2717357578533 301.4826455150409 -131.88857538147843 303.9495527232299"/>
<polyline points="-131.88857538147843 303.9495527232299 -36.50541500510359 306.4164599314189"/>
<polyline points="-36.50541500510359 306.4164599314189 -16.814088058204394 376.5330247130598"/>
<polyline points="-36.50541500510359 306.4164599314189 -16.814088058204366 376.5330247130598"/>
<polyline points="-36.50541500510359 306.4164599314189 -56.19674195200282 236.29989514977805"/>
<polyline points="-56.19674195200282 236.29989514977805 -75.88806889890202 166.18333036813723"/>
<polyline points="-75.88806889890202 166.18333036813723 -53.209789429659295 94.9261783618427"/>
<polyline points="-53.209789429659295 94.9261783618427 -30.53150996041651 23.66902635554818"/>
<polyline points="-30.53150996041651 23.66902635554818 -53.209789429659274 94.92617836184274"/>
<polyline points="-75.88806889890202 166.18333036813723 19.495091477472783 168.6502375763263"/>
<polyline points="19.495091477472783 168.6502375763263 114.87825185384759 171.11714478451538"/>
<polyline points="114.87825185384759 171.11714478451538 92.19997238460485 242.37429679080995"/>
<polyline points="114.87825185384759 171.11714478451538 92.19997238460482 242.37429679080992"/>
<polyline points="114.87825185384759 171.11714478451538 137.55653132309035 99.85999277822079"/>
<polyline points="137.55653132309035 99.85999277822079 160.23481079233318 28.60284077192628"/>
<polyline points="160.23481079233318 28.60284077192628 179.9261377392324 98.71940555356714"/>
<polyline points="179.9261377392324 98.71940555356714 199.6174646861316 168.83597033520812"/>
<polyline points="199.6174646861316 168.83597033520812 179.92613773923244 98.71940555356717"/>
<polyline points="160.23481079233318 28.60284077192628 140.54348384543394 -41.513724009714565"/>
<polyline points="140.54348384543394 -41.513724009714565 120.8521568985347 -111.63028879135545"/>
<polyline points="120.8521568985347 -111.63028879135545 98.17387742929185 -40.37313678506093"/>
<polyline points="120.8521568985347 -111.63028879135545 98.17387742929184 -40.37313678506097"/>
<polyline points="120.8521568985347 -111.63028879135545 143.53043636777755 -182.8874407976499"/>
<polyline points="143.53043636777755 -182.8874407976499 166.2087158370204 -254.14459280394442"/>
<polyline points="166.2087158370204 -254.14459280394442 185.90004278391973 -184.0280280223035"/>
<polyline points="185.90004278391973 -184.0280280223035 205.59136973081908 -113.91146324066268"/>
<polyline points="205.59136973081908 -113.91146324066268 185.90004278391973 -184.0280280223035"/>
<polyline points="166.2087158370204 -254.14459280394442 70.82555546064566 -256.6115000121335"/>
<polyline points="70.82555546064566 -256.6115000121335 -24.5576049157291 -259.07840722032256"/>
<polyline points="-24.5576049157291 -259.07840722032256 70.82555546064563 -256.61150001213355"/>
<polyline points="-24.5576049157291 -259.07840722032256 -44.248931862628474 -329.19497200196344"/>
<polyline points="-44.248931862628474 -329.19497200196344 -63.94025880952785 -399.3115367836043"/>
<polyline points="-63.94025880952785 -399.3115367836043 -159.32341918590262 -401.7784439917934"/>
<polyline points="-63.94025880952785 -399.3115367836043 -159.32341918590262 -401.7784439917934"/>
<polyline points="-63.94025880952785 -399.3115367836043 31.442901566846917 -396.8446295754154"/>
<polyline points="31.442901566846917 -396.8446295754154 126.82606194322162 -394.3777223672263"/>
<polyline points="126.82606194322162 -394.3777223672263 146.51738889012108 -324.26115758558547"/>
<polyline points="146.51738889012108 -324.26115758558547 166.20871583702052 -254.14459280394453"/>
<polyline points="166.20871583702052 -254.14459280394453 143.53043636777755 -182.88744079765004"/>
<polyline points="166.20871583702052 -254.14459280394453 143.53043636777758 -182.88744079765004"/>
<polyline points="166.20871583702052 -254.14459280394453 188.88699530626343 -325.401744810239"/>
<polyline points="188.88699530626343 -325.401744810239 211.56527477550645 -396.6588968165335"/>
<polyline points="211.56527477550645 -396.6588968165335 191.8739478286069 -466.77546159817433"/>
<polyline points="191.8739478286069 -466.77546159817433 172.18262088170738 -536.8920263798153"/>
<polyline points="172.18262088170738 -536.8920263798153 191.8739478286069 -466.77546159817433"/>
<polyline points="211.56527477550645 -396.6588968165335 306.9484351518812 -394.19198960834456"/>
<polyline points="306.9484351518812 -394.19198960834456 402.3315955282559 -391.7250824001557"/>
<polyline points="402.3315955282559 -391.7250824001557 306.94843515188114 -394.19198960834456"/>
<polyline points="402.3315955282559 -391.7250824001557 422.0229224751553 -321.6085176185149"/>
<polyline points="422.0229224751553 -321.6085176185149 441.7142494220549 -251.49195283687388"/>
<polyline points="441.7142494220549 -251.49195283687388 537.0974097984296 -249.0250456286851"/>
<polyline points="441.7142494220549 -251.49195283687388 537.0974097984296 -249.0250456286851"/>
<polyline points="441.7142494220549 -251.49195283687388 346.33108904568013 -253.95886004506275"/>
<polyline points="346.33108904568013 -253.95886004506275 250.94792866930544 -256.42576725325165"/>
<polyline points="250.94792866930544 -256.42576725325165 155.56476829293072 -258.89267446144044"/>
<polyline points="155.56476829293072 -258.89267446144044 60.181607916555976 -261.3595816696292"/>
<polyline points="60.181607916555976 -261.3595816696292 82.85988738579883 -332.6167336759238"/>
<polyline points="60.181607916555976 -261.3595816696292 82.85988738579879 -332.61673367592385"/>
<polyline points="60.181607916555976 -261.3595816696292 37.5033284473132 -190.1024296633348"/>
<polyline points="37.5033284473132 -190.1024296633348 14.82504897807041 -118.84527765704031"/>
<polyline points="14.82504897807041 -118.84527765704031 34.51637592496999 -48.728712875399516"/>
<polyline points="34.51637592496999 -48.728712875399516 54.20770287186956 21.387851906241387"/>
<polyline points="54.20770287186956 21.387851906241387 34.51637592496989 -48.72871287539953"/>
<polyline points="14.82504897807041 -118.84527765704031 34.516375924969935 -48.728712875399516"/>
<polyline points="34.516375924969935 -48.728712875399516 54.207702871869465 21.38785190624138"/>
<polyline points="54.207702871869465 21.38785190624138 149.5908632482442 23.854759114430227"/>
<polyline points="54.207702871869465 21.38785190624138 149.5908632482442 23.854759114430244"/>
<polyline points="54.207702871869465 21.38785190624138 -41.17545750450525 18.92094469805254"/>
<polyline points="-41.17545750450525 18.92094469805254 -136.55861788087995 16.454037489863676"/>
<polyline points="-136.55861788087995 16.454037489863676 -156.2499448277796 -53.66252729177706"/>
<polyline points="-156.2499448277796 -53.66252729177706 -175.94127177467914 -123.77909207341787"/>
<polyline points="-175.94127177467914 -123.77909207341787 -156.24994482777961 -53.662527291777096"/>
<polyline points="-136.55861788087995 16.454037489863676 -113.88033841163728 -54.80311451643094"/>
<polyline points="-113.88033841163728 -54.80311451643094 -91.20205894239461 -126.06026652272544"/>
<polyline points="-91.20205894239461 -126.06026652272544 -113.88033841163738 -54.80311451643088"/>
<polyline points="-91.20205894239461 -126.06026652272544 -71.51073199549504 -55.94370174108463"/>
<polyline points="-71.51073199549504 -55.94370174108463 -51.81940504859553 14.172863040556239"/>
<polyline points="-51.81940504859553 14.172863040556239 -29.141125579352757 -57.08428896573834"/>
<polyline points="-51.81940504859553 14.172863040556239 -29.14112557935281 -57.08428896573833"/>
<polyline points="-51.81940504859553 14.172863040556239 -74.49768451783822 85.43001504685085"/>
<polyline points="-74.49768451783822 85.43001504685085 -97.17596398708093 156.68716705314543"/>
<polyline points="-97.17596398708093 156.68716705314543 -119.8542434563236 227.94431905944006"/>
<polyline points="-119.8542434563236 227.94431905944006 -142.53252292556624 299.20147106573467"/>
<polyline points="-142.53252292556624 299.20147106573467 -237.915683301941 296.7345638575459"/>
<polyline points="-142.53252292556624 299.20147106573467 -237.915683301941 296.7345638575459"/>
<polyline points="-142.53252292556624 299.20147106573467 -47.149362549191466 301.6683782739234"/>
<polyline points="-47.149362549191466 301.6683782739234 48.23379782718325 304.1352854821122"/>
<polyline points="48.23379782718325 304.1352854821122 67.92512477408278 374.25185026375294"/>
<polyline points="67.92512477408278 374.25185026375294 87.61645172098223 444.36841504539376"/>
<polyline points="87.61645172098223 444.36841504539376 67.92512477408278 374.25185026375294"/>
<polyline points="48.23379782718325 304.1352854821122 28.542470880283833 234.01872070047142"/>
<polyline points="28.542470880283833 234.01872070047142 8.851143933384382 163.90215591883063"/>
<polyline points="8.851143933384382 163.90215591883063 31.529423402627124 92.64500391253607"/>
<polyline points="8.851143933384382 163.90215591883063 31.529423402627152 92.64500391253607"/>
<polyline points="8.851143933384382 163.90215591883063 -13.827135535858357 235.15930792512518"/>
<polyline points="-13.827135535858357 235.15930792512518 -36.50541500510112 306.41645993141975"/>
<polyline points="-36.50541500510112 306.41645993141975 -16.814088058201758 376.5330247130606"/>
<polyline points="-16.814088058201758 376.5330247130606 2.877238888697574 446.6495894947015"/>
<polyline points="2.877238888697574 446.6495894947015 -16.814088058201797 376.5330247130606"/>
<polyline points="-36.50541500510112 306.41645993141975 58.87774537127365 308.8833671396088"/>
<polyline points="58.87774537127365 308.8833671396088 154.26090574764848 311.35027434779784"/>
<polyline points="154.26090574764848 311.35027434779784 58.87774537127365 308.8833671396088"/>
<polyline points="154.26090574764848 311.35027434779784 134.56957880074907 241.23370956615693"/>
<polyline points="134.56957880074907 241.23370956615693 114.87825185384969 171.11714478451617"/>
<polyline points="114.87825185384969 171.11714478451617 210.2614122302245 173.58405199270516"/>
<polyline points="114.87825185384969 171.11714478451617 210.26141223022444 173.58405199270518"/>
<polyline points="114.87825185384969 171.11714478451617 19.49509147747494 168.65023757632716"/>
<polyline points="19.49509147747494 168.65023757632716 -75.88806889889983 166.18333036813814"/>
<polyline points="-75.88806889889983 166.18333036813814 -56.19674195200047 236.29989514977885"/>
<polyline points="-56.19674195200047 236.29989514977885 -36.505415005101135 306.4164599314196"/>
<polyline points="-36.505415005101135 306.4164599314196 58.8777453712736 308.88336713960877"/>
<polyline points="-36.505415005101135 306.4164599314196 58.87774537127362 308.8833671396087"/>
<polyline points="-36.505415005101135 306.4164599314196 -131.88857538147587 303.94955272323057"/>
<polyline points="-131.88857538147587 303.94955272323057 -227.2717357578506 301.4826455150415"/>
<polyline points="-227.2717357578506 301.4826455150415 -249.95001522709344 372.73979752133613"/>
<polyline points="-249.95001522709344 372.73979752133613 -272.6282946963363 443.9969495276308"/>
<polyline points="-272.6282946963363 443.9969495276308 -249.9500152270935 372.73979752133613"/>
<polyline points="-227.2717357578506 301.4826455150415 -207.58040881095116 371.59921029668203"/>
<polyline points="-207.58040881095116 371.59921029668203 -187.88908186405175 441.71577507832285"/>
<polyline points="-187.88908186405175 441.71577507832285 -165.210802394809 370.4586230720281"/>
<polyline points="-187.88908186405175 441.71577507832285 -165.21080239480895 370.4586230720281"/>
<polyline points="-187.88908186405175 441.71577507832285 -210.56736133329454 512.9729270846176"/>
<polyline points="-210.56736133329454 512.9729270846176 -233.24564080253734 584.2300790909122"/>
<polyline points="-233.24564080253734 584.2300790909122 -137.86248042616256 586.6969862991012"/>
<polyline points="-137.86248042616256 586.6969862991012 -42.47932004978777 589.1638935072903"/>
<polyline points="-42.47932004978777 589.1638935072903 -137.8624804261626 586.6969862991012"/>
<polyline points="-233.24564080253734 584.2300790909122 -328.62880117891206 581.7631718827233"/>
<polyline points="-328.62880117891206 581.7631718827233 -424.0119615552869 579.2962646745343"/>
<polyline points="-424.0119615552869 579.2962646745343 -401.3336820860443 508.0391126682397"/>
<polyline points="-424.0119615552869 579.2962646745343 -401.33368208604423 508.0391126682396"/>
<polyline points="-424.0119615552869 579.2962646745343 -446.6902410245296 650.5534166808292"/>
<polyline points="-446.6902410245296 650.5534166808292 -469.36852049377245 721.8105686871239"/>
<polyline points="-469.36852049377245 721.8105686871239 -373.98536011739753 724.2774758953128"/>
<polyline points="-373.98536011739753 724.2774758953128 -278.6021997410228 726.744383103502"/>
<polyline points="-278.6021997410228 726.744383103502 -373.9853601173976 724.2774758953129"/>
<polyline points="-469.36852049377245 721.8105686871239 -489.0598474406718 651.6940039054833"/>
<polyline points="-489.0598474406718 651.6940039054833 -508.7511743875708 581.5774391238426"/>
<polyline points="-508.7511743875708 581.5774391238426 -489.0598474406718 651.6940039054833"/>
<polyline points="-508.7511743875708 581.5774391238426 -604.1343347639457 579.1105319156536"/>
<polyline points="-604.1343347639457 579.1105319156536 -699.5174951403204 576.6436247074646"/>
<polyline points="-699.5174951403204 576.6436247074646 -719.2088220872198 506.527059925824"/>
<polyline points="-699.5174951403204 576.6436247074646 -719.2088220872198 506.527059925824"/>
<polyline points="-699.5174951403204 576.6436247074646 -679.8261681934213 646.7601894891051"/>
<polyline points="-679.8261681934213 646.7601894891051 -660.1348412465219 716.8767542707456"/>
<polyline points="-660.1348412465219 716.8767542707456 -564.7516808701472 719.3436614789349"/>
<polyline points="-564.7516808701472 719.3436614789349 -469.36852049377245 721.8105686871239"/>
<polyline points="-469.36852049377245 721.8105686871239 -449.67719354687307 791.9271334687644"/>
<polyline points="-469.36852049377245 721.8105686871239 -449.67719354687307 791.9271334687644"/>
<polyline points="-469.36852049377245 721.8105686871239 -489.0598474406718 651.6940039054833"/>
<polyline points="-489.0598474406718 651.6940039054833 -508.7511743875709 581.5774391238427"/>
<polyline points="-508.7511743875709 581.5774391238427 -604.1343347639457 579.1105319156537"/>
<polyline points="-604.1343347639457 579.1105319156537 -699.5174951403204 576.6436247074645"/>
<polyline points="-699.5174951403204 576.6436247074645 -604.1343347639456 579.1105319156537"/>
<polyline points="-508.7511743875709 581.5774391238427 -531.4294538568137 652.8345911301376"/>
<polyline points="-531.4294538568137 652.8345911301376 -554.1077333260565 724.0917431364327"/>
<polyline points="-554.1077333260565 724.0917431364327 -531.4294538568136 652.8345911301376"/>
<polyline points="-554.1077333260565 724.0917431364327 -458.7245729496817 726.5586503446215"/>
<polyline points="-458.7245729496817 726.5586503446215 -363.3414125733069 729.0255575528106"/>
<polyline points="-363.3414125733069 729.0255575528106 -386.01969204254976 800.2827095591059"/>
<polyline points="-363.3414125733069 729.0255575528106 -386.01969204254976 800.2827095591059"/>
<polyline points="-363.3414125733069 729.0255575528106 -340.6631331040641 657.7684055465161"/>
<polyline points="-340.6631331040641 657.7684055465161 -317.9848536348212 586.5112535402211"/>
<polyline points="-317.9848536348212 586.5112535402211 -413.36801401119595 584.0443463320321"/>
<polyline points="-413.36801401119595 584.0443463320321 -508.7511743875709 581.5774391238429"/>
<polyline points="-508.7511743875709 581.5774391238429 -531.4294538568136 652.8345911301376"/>
<polyline points="-508.7511743875709 581.5774391238429 -531.4294538568136 652.8345911301378"/>
<polyline points="-508.7511743875709 581.5774391238429 -486.07289491832796 510.3202871175481"/>
<polyline points="-486.07289491832796 510.3202871175481 -463.3946154490852 439.06313511125336"/>
<polyline points="-463.3946154490852 439.06313511125336 -483.08594239598466 368.94657032961277"/>
<polyline points="-483.08594239598466 368.94657032961277 -502.77726934288404 298.83000554797223"/>
<polyline points="-502.77726934288404 298.83000554797223 -483.08594239598466 368.94657032961277"/>
<polyline points="-463.3946154490852 439.06313511125336 -558.77777582546 436.59622790306423"/>
<polyline points="-558.77777582546 436.59622790306423 -654.1609362018348 434.1293206948752"/>
<polyline points="-654.1609362018348 434.1293206948752 -634.4696092549351 504.2458854765157"/>
<polyline points="-654.1609362018348 434.1293206948752 -634.4696092549351 504.2458854765156"/>
<polyline points="-654.1609362018348 434.1293206948752 -673.8522631487343 364.0127559132346"/>
<polyline points="-673.8522631487343 364.0127559132346 -693.5435900956338 293.8961911315942"/>
<polyline points="-693.5435900956338 293.8961911315942 -716.2218695648768 365.15334313788895"/>
<polyline points="-716.2218695648768 365.15334313788895 -738.9001490341194 436.41049514418404"/>
<polyline points="-738.9001490341194 436.41049514418404 -716.2218695648769 365.15334313788907"/>
<polyline points="-693.5435900956338 293.8961911315942 -670.865310626391 222.63903912529935"/>
<polyline points="-670.865310626391 222.63903912529935 -648.187031157148 151.38188711900438"/>
<polyline points="-648.187031157148 151.38188711900438 -628.4957042102484 221.4984519006449"/>
<polyline points="-648.187031157148 151.38188711900438 -628.4957042102484 221.4984519006449"/>
<polyline points="-648.187031157148 151.38188711900438 -667.8783581040475 81.2653223373639"/>
<polyline points="-667.8783581040475 81.2653223373639 -687.5696850509471 11.14875755572339"/>
<polyline points="-687.5696850509471 11.14875755572339 -710.2479645201901 82.40590956201827"/>
<polyline points="-710.2479645201901 82.40590956201827 -732.9262439894331 153.66306156831314"/>
<polyline points="-732.9262439894331 153.66306156831314 -710.2479645201901 82.40590956201821"/>
<polyline points="-687.5696850509471 11.14875755572339 -592.1865246745725 13.61566476391243"/>
<polyline points="-592.1865246745725 13.61566476391243 -496.80336429819766 16.082571972101483"/>
<polyline points="-496.80336429819766 16.082571972101483 -592.1865246745725 13.61566476391243"/>
<polyline points="-496.80336429819766 16.082571972101483 -474.1250848289548 -55.174580034193376"/>
<polyline points="-474.1250848289548 -55.174580034193376 -451.44680535971185 -126.43173204048826"/>
<polyline points="-451.44680535971185 -126.43173204048826 -356.06364498333716 -123.96482483229923"/>
<polyline points="-451.44680535971185 -126.43173204048826 -356.06364498333716 -123.96482483229923"/>
<polyline points="-451.44680535971185 -126.43173204048826 -546.8299657360865 -128.89863924867728"/>
<polyline points="-546.8299657360865 -128.89863924867728 -642.2131261124612 -131.36554645686633"/>
<polyline points="-642.2131261124612 -131.36554645686633 -661.9044530593609 -201.4821112385068"/>
<polyline points="-661.9044530593609 -201.4821112385068 -681.5957800062606 -271.5986760201473"/>
<polyline points="-681.5957800062606 -271.5986760201473 -586.2126196298858 -269.13176881195835"/>
<polyline points="-681.5957800062606 -271.5986760201473 -586.2126196298858 -269.1317688119583"/>
<polyline points="-681.5957800062606 -271.5986760201473 -776.9789403826353 -274.06558322833627"/>
<polyline points="-776.9789403826353 -274.06558322833627 -872.36210075901 -276.5324904365254"/>
<polyline points="-872.36210075901 -276.5324904365254 -852.67077381211 -206.41592565488494"/>
<polyline points="-852.67077381211 -206.41592565488494 -832.9794468652104 -136.29936087324447"/>
<polyline points="-832.9794468652104 -136.29936087324447 -852.67077381211 -206.41592565488494"/>
<polyline points="-872.36210075901 -276.5324904365254 -895.0403802282528 -205.27533843023042"/>
<polyline points="-895.0403802282528 -205.27533843023042 -917.7186596974962 -134.01818642393548"/>
<polyline points="-917.7186596974962 -134.01818642393548 -895.0403802282528 -205.27533843023042"/>
<polyline points="-917.7186596974962 -134.01818642393548 -937.409986644396 -204.1347512055759"/>
<polyline points="-937.409986644396 -204.1347512055759 -957.1013135912956 -274.2513159872164"/>
<polyline points="-957.1013135912956 -274.2513159872164 -979.7795930605388 -202.99416398092131"/>
<polyline points="-957.1013135912956 -274.2513159872164 -979.7795930605388 -202.99416398092131"/>
<polyline points="-957.1013135912956 -274.2513159872164 -934.4230341220525 -345.5084679935111"/>
<polyline points="-934.4230341220525 -345.5084679935111 -911.7447546528094 -416.76561999980623"/>
<polyline points="-911.7447546528094 -416.76561999980623 -889.0664751835664 -488.0227720061011"/>
<polyline points="-889.0664751835664 -488.0227720061011 -866.3881957143233 -559.2799240123962"/>
<polyline points="-866.3881957143233 -559.2799240123962 -961.7713560906977 -561.7468312205852"/>
<polyline points="-866.3881957143233 -559.2799240123962 -961.7713560906977 -561.7468312205854"/>
<polyline points="-866.3881957143233 -559.2799240123962 -771.0050353379487 -556.8130168042069"/>
<polyline points="-771.0050353379487 -556.8130168042069 -675.621874961574 -554.346109596018"/>
<polyline points="-675.621874961574 -554.346109596018 -695.3132019084737 -624.4626743776583"/>
<polyline points="-695.3132019084737 -624.4626743776583 -715.0045288553737 -694.5792391592989"/>
<polyline points="-715.0045288553737 -694.5792391592989 -695.3132019084737 -624.4626743776585"/>
<polyline points="-866.3881957143233 -559.2799240123962 -889.0664751835664 -488.0227720061011"/>
<polyline points="-889.0664751835664 -488.0227720061011 -911.7447546528094 -416.76561999980623"/>
<polyline points="-911.7447546528094 -416.76561999980623 -1007.1279150291839 -419.2325272079955"/>
<polyline points="-911.7447546528094 -416.76561999980623 -1007.1279150291839 -419.23252720799536"/>
<polyline points="-911.7447546528094 -416.76561999980623 -816.3615942764349 -414.2987127916171"/>
<polyline points="-816.3615942764349 -414.2987127916171 -720.9784339000604 -411.8318055834281"/>
<polyline points="-720.9784339000604 -411.8318055834281 -698.300154430817 -483.088957589723"/>
<polyline points="-698.300154430817 -483.088957589723 -675.6218749615738 -554.3461095960179"/>
<polyline points="-675.6218749615738 -554.3461095960179 -698.300154430817 -483.088957589723"/>
<polyline points="-720.9784339000604 -411.8318055834281 -740.6697608469601 -481.94837036506857"/>
<polyline points="-740.6697608469601 -481.94837036506857 -760.3610877938597 -552.0649351467091"/>
<polyline points="-760.3610877938597 -552.0649351467091 -740.6697608469601 -481.94837036506857"/>
<polyline points="-760.3610877938597 -552.0649351467091 -783.0393672631029 -480.80778314041436"/>
<polyline points="-783.0393672631029 -480.80778314041436 -805.7176467323462 -409.55063113411944"/>
<polyline points="-805.7176467323462 -409.55063113411944 -825.408973679246 -479.6671959157598"/>
<polyline points="-805.7176467323462 -409.55063113411944 -825.408973679246 -479.6671959157598"/>
<polyline points="-805.7176467323462 -409.55063113411944 -786.0263197854465 -339.4340663524788"/>
<polyline points="-786.0263197854465 -339.4340663524788 -766.3349928385468 -269.3175015708383"/>
<polyline points="-766.3349928385468 -269.3175015708383 -743.6567133693038 -340.5746535771332"/>
<polyline points="-743.6567133693038 -340.5746535771332 -720.9784339000606 -411.83180558342787"/>
<polyline points="-720.9784339000606 -411.83180558342787 -740.6697608469601 -481.94837036506834"/>
<polyline points="-720.9784339000606 -411.83180558342787 -740.6697608469603 -481.94837036506846"/>
<polyline points="-720.9784339000606 -411.83180558342787 -701.2871069531608 -341.7152408017874"/>
<polyline points="-701.2871069531608 -341.7152408017874 -681.5957800062612 -271.59867602014685"/>
<polyline points="-681.5957800062612 -271.59867602014685 -586.2126196298866 -269.1317688119578"/>
<polyline points="-586.2126196298866 -269.1317688119578 -490.82945925351186 -266.66486160376866"/>
<polyline points="-490.82945925351186 -266.66486160376866 -586.2126196298865 -269.13176881195767"/>
<polyline points="-681.5957800062612 -271.59867602014685 -658.9175005370181 -342.8558280264417"/>
<polyline points="-658.9175005370181 -342.8558280264417 -636.2392210677749 -414.1129800327365"/>
<polyline points="-636.2392210677749 -414.1129800327365 -731.6223814441497 -416.57988724092553"/>
<polyline points="-636.2392210677749 -414.1129800327365 -731.6223814441497 -416.57988724092553"/>
<polyline points="-636.2392210677749 -414.1129800327365 -540.8560606914003 -411.64607282454745"/>
<polyline points="-540.8560606914003 -411.64607282454745 -445.4729003150256 -409.1791656163584"/>
<polyline points="-445.4729003150256 -409.1791656163584 -465.1642272619254 -479.2957303979989"/>
<polyline points="-465.1642272619254 -479.2957303979989 -484.8555542088252 -549.4122951796396"/>
<polyline points="-484.8555542088252 -549.4122951796396 -465.1642272619254 -479.2957303979989"/>
<polyline points="-445.4729003150256 -409.1791656163584 -425.7815733681258 -339.0626008347178"/>
<polyline points="-425.7815733681258 -339.0626008347178 -406.090246421226 -268.9460360530772"/>
<polyline points="-406.090246421226 -268.9460360530772 -501.47340679760066 -271.4129432612662"/>
<polyline points="-406.090246421226 -268.9460360530772 -501.47340679760066 -271.4129432612661"/>
<polyline points="-406.090246421226 -268.9460360530772 -310.7070860448515 -266.4791288448883"/>
<polyline points="-310.7070860448515 -266.4791288448883 -215.32392566847676 -264.01222163669945"/>
<polyline points="-215.32392566847676 -264.01222163669945 -235.01525261537648 -334.1287864183401"/>
<polyline points="-235.01525261537648 -334.1287864183401 -254.70657956227618 -404.2453511999807"/>
<polyline points="-254.70657956227618 -404.2453511999807 -235.01525261537643 -334.1287864183401"/>
<polyline points="-215.32392566847676 -264.01222163669945 -238.00220513771964 -192.75506963040462"/>
<polyline points="-238.00220513771964 -192.75506963040462 -260.68048460696264 -121.49791762410999"/>
<polyline points="-260.68048460696264 -121.49791762410999 -238.00220513771964 -192.75506963040462"/>
<polyline points="-260.68048460696264 -121.49791762410999 -240.98915766006294 -51.38135284246931"/>
<polyline points="-240.98915766006294 -51.38135284246931 -221.29783071316328 18.73521193917135"/>
<polyline points="-221.29783071316328 18.73521193917135 -243.97611018240625 89.99236394546601"/>
<polyline points="-221.29783071316328 18.73521193917135 -243.97611018240625 89.99236394546601"/>
<polyline points="-221.29783071316328 18.73521193917135 -198.61955124392037 -52.52194006712333"/>
<polyline points="-198.61955124392037 -52.52194006712333 -175.9412717746774 -123.77909207341796"/>
<polyline points="-175.9412717746774 -123.77909207341796 -80.55811139830273 -121.31218486522923"/>
<polyline points="-80.55811139830273 -121.31218486522923 14.825048978071942 -118.84527765704038"/>
<polyline points="14.825048978071942 -118.84527765704038 -7.853230491170895 -47.588125650745674"/>
<polyline points="14.825048978071942 -118.84527765704038 -7.853230491170872 -47.588125650745695"/>
<polyline points="14.825048978071942 -118.84527765704038 37.50332844731478 -190.1024296633351"/>
<polyline points="37.50332844731478 -190.1024296633351 60.181607916557624 -261.3595816696298"/>
<polyline points="60.181607916557624 -261.3595816696298 -35.20155245981706 -263.82648887781863"/>
<polyline points="-35.20155245981706 -263.82648887781863 -130.58471283619176 -266.2933960860073"/>
<polyline points="-130.58471283619176 -266.2933960860073 -35.201552459817066 -263.8264888778187"/>
<polyline points="60.181607916557624 -261.3595816696298 40.49028096965784 -331.4761464512705"/>
<polyline points="40.49028096965784 -331.4761464512705 20.798954022758036 -401.5927112329113"/>
<polyline points="20.798954022758036 -401.5927112329113 40.49028096965784 -331.4761464512705"/>
<polyline points="20.798954022758036 -401.5927112329113 116.1821143991327 -399.12580402472247"/>
<polyline points="116.1821143991327 -399.12580402472247 211.56527477550736 -396.65889681653374"/>
<polyline points="211.56527477550736 -396.65889681653374 191.87394782860756 -466.77546159817456"/>
<polyline points="211.56527477550736 -396.65889681653374 191.87394782860756 -466.77546159817456"/>
<polyline points="211.56527477550736 -396.65889681653374 231.25660172240714 -326.542332034893"/>
<polyline points="231.25660172240714 -326.542332034893 250.94792866930692 -256.4257672532523"/>
<polyline points="250.94792866930692 -256.4257672532523 270.63925561620675 -186.3092024716115"/>
<polyline points="270.63925561620675 -186.3092024716115 290.33058256310653 -116.19263768997068"/>
<polyline points="290.33058256310653 -116.19263768997068 313.0088620323493 -187.4497896962653"/>
<polyline points="290.33058256310653 -116.19263768997068 313.0088620323494 -187.44978969626527"/>
<polyline points="290.33058256310653 -116.19263768997068 267.65230309386374 -44.93548568367609"/>
<polyline points="267.65230309386374 -44.93548568367609 244.97402362462088 26.321666322618483"/>
<polyline points="244.97402362462088 26.321666322618483 340.3571840009956 28.78857353080721"/>
<polyline points="340.3571840009956 28.78857353080721 435.7403443773702 31.255480738995928"/>
<polyline points="435.7403443773702 31.255480738995928 340.3571840009956 28.78857353080715"/>
<polyline points="244.97402362462088 26.321666322618483 225.28269667772113 -43.79489845902233"/>
<polyline points="225.28269667772113 -43.79489845902233 205.59136973082144 -113.91146324066304"/>
<polyline points="205.59136973082144 -113.91146324066304 110.20820935444674 -116.37837044885188"/>
<polyline points="205.59136973082144 -113.91146324066304 110.20820935444674 -116.37837044885192"/>
<polyline points="205.59136973082144 -113.91146324066304 300.97453010719613 -111.44455603247431"/>
<polyline points="300.97453010719613 -111.44455603247431 396.3576904835709 -108.97764882428554"/>
<polyline points="396.3576904835709 -108.97764882428554 416.04901743047054 -38.8610840426448"/>
<polyline points="416.04901743047054 -38.8610840426448 435.74034437737026 31.25548073899603"/>
<polyline points="435.74034437737026 31.25548073899603 416.04901743047054 -38.861084042644755"/>
<polyline points="396.3576904835709 -108.97764882428554 419.0359699528137 -180.23480083058007"/>
<polyline points="419.0359699528137 -180.23480083058007 441.71424942205664 -251.49195283687465"/>
<polyline points="441.71424942205664 -251.49195283687465 419.03596995281373 -180.23480083058007"/>
<polyline points="441.71424942205664 -251.49195283687465 422.022922475157 -321.6085176185154"/>
<polyline points="422.022922475157 -321.6085176185154 402.3315955282572 -391.7250824001562"/>
<polyline points="402.3315955282572 -391.7250824001562 425.0098749975002 -462.98223440645086"/>
<polyline points="402.3315955282572 -391.7250824001562 425.0098749975002 -462.98223440645086"/>
<polyline points="402.3315955282572 -391.7250824001562 379.65331605901434 -320.46793039386176"/>
<polyline points="379.65331605901434 -320.46793039386176 356.9750365897714 -249.21077838756713"/>
<polyline points="356.9750365897714 -249.21077838756713 376.66636353667093 -179.0942136059262"/>
<polyline points="376.66636353667093 -179.0942136059262 396.35769048357065 -108.97764882428538"/>
<polyline points="396.35769048357065 -108.97764882428538 419.0359699528136 -180.23480083057993"/>
<polyline points="396.35769048357065 -108.97764882428538 419.03596995281356 -180.23480083057993"/>
<polyline points="396.35769048357065 -108.97764882428538 373.6794110143277 -37.720496817990785"/>
<polyline points="373.6794110143277 -37.720496817990785 351.0011315450847 33.53665518830375"/>
<polyline points="351.0011315450847 33.53665518830375 446.38429192145935 36.00356239649266"/>
<polyline points="446.38429192145935 36.00356239649266 541.767452297834 38.47046960468159"/>
<polyline points="541.767452297834 38.47046960468159 446.38429192145935 36.00356239649268"/>
<polyline points="351.0011315450847 33.53665518830375 370.6924584919843 103.65321996994456"/>
<polyline points="370.6924584919843 103.65321996994456 390.383785438884 173.76978475158538"/>
<polyline points="390.383785438884 173.76978475158538 295.0006250625093 171.30287754339648"/>
<polyline points="390.383785438884 173.76978475158538 295.0006250625093 171.3028775433965"/>
<polyline points="390.383785438884 173.76978475158538 485.7669458152587 176.23669195977425"/>
<polyline points="485.7669458152587 176.23669195977425 581.1501061916333 178.70359916796312"/>
<polyline points="581.1501061916333 178.70359916796312 603.8283856608762 107.44644716166853"/>
<polyline points="603.8283856608762 107.44644716166853 626.5066651301192 36.189295155373934"/>
<polyline points="626.5066651301192 36.189295155373934 603.8283856608762 107.44644716166857"/>
<polyline points="581.1501061916333 178.70359916796312 558.4718267223906 249.96075117425772"/>
<polyline points="558.4718267223906 249.96075117425772 535.7935472531476 321.21790318055224"/>
<polyline points="535.7935472531476 321.21790318055224 440.41038687677286 318.75099597236334"/>
<polyline points="535.7935472531476 321.21790318055224 440.4103868767728 318.7509959723632"/>
<polyline points="535.7935472531476 321.21790318055224 631.1767076295223 323.68481038874114"/>
<polyline points="631.1767076295223 323.68481038874114 726.559868005897 326.15171759693004"/>
<polyline points="726.559868005897 326.15171759693004 749.23814747514 254.8945655906356"/>
<polyline points="749.23814747514 254.8945655906356 771.9164269443827 183.63741358434106"/>
<polyline points="771.9164269443827 183.63741358434106 749.2381474751401 254.89456559063564"/>
<polyline points="726.559868005897 326.15171759693004 706.8685410589975 256.0351528152891"/>
<polyline points="706.8685410589975 256.0351528152891 687.1772141120981 185.91858803364823"/>
<polyline points="687.1772141120981 185.91858803364823 706.8685410589976 256.0351528152891"/>
<polyline points="687.1772141120981 185.91858803364823 664.498934642855 257.1757400399427"/>
<polyline points="664.498934642855 257.1757400399427 641.8206551736122 328.4328920462371"/>
<polyline points="641.8206551736122 328.4328920462371 622.1293282267126 258.3163272645963"/>
<polyline points="641.8206551736122 328.4328920462371 622.1293282267126 258.3163272645963"/>
<polyline points="641.8206551736122 328.4328920462371 661.5119821205116 398.5494568278781"/>
<polyline points="661.5119821205116 398.5494568278781 681.2033090674112 468.6660216095191"/>
<polyline points="681.2033090674112 468.6660216095191 703.881588536654 397.4088696032245"/>
<polyline points="703.881588536654 397.4088696032245 726.559868005897 326.15171759693015"/>
<polyline points="726.559868005897 326.15171759693015 631.1767076295222 323.6848103887412"/>
<polyline points="726.559868005897 326.15171759693015 631.1767076295223 323.68481038874125"/>
<polyline points="726.559868005897 326.15171759693015 821.9430283822717 328.61862480511905"/>
<polyline points="821.9430283822717 328.61862480511905 917.3261887586465 331.08553201330795"/>
<polyline points="917.3261887586465 331.08553201330795 894.6479092894036 402.3426840196023"/>
<polyline points="894.6479092894036 402.3426840196023 871.9696298201607 473.59983602589665"/>
<polyline points="871.9696298201607 473.59983602589665 894.6479092894036 402.3426840196023"/>
<polyline points="917.3261887586465 331.08553201330795 937.017515705546 401.2020967949489"/>
<polyline points="937.017515705546 401.2020967949489 956.7088426524456 471.31866157658993"/>
<polyline points="956.7088426524456 471.31866157658993 937.0175157055461 401.202096794949"/>
<polyline points="956.7088426524456 471.31866157658993 979.3871221216887 400.0615095702956"/>
<polyline points="979.3871221216887 400.0615095702956 1002.0654015909315 328.80435756400124"/>
<polyline points="1002.0654015909315 328.80435756400124 1021.7567285378307 398.92092234564245"/>
<polyline points="1002.0654015909315 328.80435756400124 1021.7567285378309 398.9209223456423"/>
<polyline points="1002.0654015909315 328.80435756400124 982.3740746440318 258.6877927823603"/>
<polyline points="982.3740746440318 258.6877927823603 962.6827476971324 188.57122800071926"/>
<polyline points="962.6827476971324 188.57122800071926 942.9914207502329 118.45466321907824"/>
<polyline points="942.9914207502329 118.45466321907824 923.3000938033334 48.33809843743722"/>
<polyline points="923.3000938033334 48.33809843743722 1018.6832541797081 50.80500564562611"/>
<polyline points="923.3000938033334 48.33809843743722 1018.6832541797081 50.80500564562609"/>
<polyline points="923.3000938033334 48.33809843743722 827.9169334269586 45.87119122924833"/>
<polyline points="827.9169334269586 45.87119122924833 732.5337730505838 43.404284021059446"/>
<polyline points="732.5337730505838 43.404284021059446 755.212052519827 -27.85286798523497"/>
<polyline points="755.212052519827 -27.85286798523497 777.8903319890698 -99.11001999152931"/>
<polyline points="777.8903319890698 -99.11001999152931 755.212052519827 -27.85286798523497"/>
<polyline points="732.5337730505838 43.404284021059446 755.2120525198269 -27.852867985234962"/>
<polyline points="755.2120525198269 -27.852867985234962 777.8903319890698 -99.11001999152943"/>
<polyline points="777.8903319890698 -99.11001999152943 797.5816589359694 -28.99345520988845"/>
<polyline points="777.8903319890698 -99.11001999152943 797.5816589359694 -28.99345520988845"/>
<polyline points="777.8903319890698 -99.11001999152943 758.1990050421704 -169.22658477317037"/>
<polyline points="758.1990050421704 -169.22658477317037 738.5076780952706 -239.34314955481136"/>
<polyline points="738.5076780952706 -239.34314955481136 715.8293986260277 -168.08599754851681"/>
<polyline points="715.8293986260277 -168.08599754851681 693.1511191567848 -96.8288455422224"/>
<polyline points="693.1511191567848 -96.8288455422224 715.8293986260277 -168.08599754851681"/>
<polyline points="738.5076780952706 -239.34314955481136 833.8908384716452 -236.87624234662226"/>
<polyline points="833.8908384716452 -236.87624234662226 929.2739988480201 -234.40933513843328"/>
<polyline points="929.2739988480201 -234.40933513843328 833.8908384716452 -236.87624234662226"/>
<polyline points="929.2739988480201 -234.40933513843328 951.9522783172631 -305.6664871447277"/>
<polyline points="951.9522783172631 -305.6664871447277 974.6305577865063 -376.9236391510223"/>
<polyline points="974.6305577865063 -376.9236391510223 1070.013718162881 -374.4567319428334"/>
<polyline points="974.6305577865063 -376.9236391510223 1070.013718162881 -374.4567319428334"/>
<polyline points="974.6305577865063 -376.9236391510223 879.2473974101316 -379.3905463592112"/>
<polyline points="879.2473974101316 -379.3905463592112 783.864237033757 -381.8574535674003"/>
<polyline points="783.864237033757 -381.8574535674003 688.4810766573823 -384.32436077558924"/>
<polyline points="688.4810766573823 -384.32436077558924 593.0979162810077 -386.7912679837781"/>
<polyline points="593.0979162810077 -386.7912679837781 573.4065893341078 -456.90783276541896"/>
<polyline points="593.0979162810077 -386.7912679837781 573.4065893341078 -456.9078327654188"/>
<polyline points="593.0979162810077 -386.7912679837781 612.7892432279073 -316.67470320213715"/>
<polyline points="612.7892432279073 -316.67470320213715 632.480570174807 -246.55813842049636"/>
<polyline points="632.480570174807 -246.55813842049636 655.1588496440498 -317.8152904267908"/>
<polyline points="655.1588496440498 -317.8152904267908 677.837129113293 -389.0724424330855"/>
<polyline points="677.837129113293 -389.0724424330855 655.1588496440498 -317.8152904267908"/>
<polyline points="632.480570174807 -246.55813842049636 609.8022907055639 -175.30098641420184"/>
<polyline points="609.8022907055639 -175.30098641420184 587.1240112363212 -104.04383440790726"/>
<polyline points="587.1240112363212 -104.04383440790726 682.5071716126959 -101.5769271997184"/>
<polyline points="587.1240112363212 -104.04383440790726 682.5071716126959 -101.57692719971834"/>
<polyline points="587.1240112363212 -104.04383440790726 491.7408508599464 -106.5107416160962"/>
<polyline points="491.7408508599464 -106.5107416160962 396.3576904835717 -108.97764882428517"/>
<polyline points="396.3576904835717 -108.97764882428517 419.0359699528146 -180.23480083057976"/>
<polyline points="419.0359699528146 -180.23480083057976 441.7142494220576 -251.49195283687433"/>
<polyline points="441.7142494220576 -251.49195283687433 419.0359699528145 -180.23480083057976"/>
<polyline points="396.3576904835717 -108.97764882428517 416.04901743047117 -38.86108404264441"/>
<polyline points="416.04901743047117 -38.86108404264441 435.74034437737083 31.255480738996347"/>
<polyline points="435.74034437737083 31.255480738996347 416.0490174304711 -38.86108404264441"/>
<polyline points="435.74034437737083 31.255480738996347 413.06206490812787 102.51263274529096"/>
<polyline points="413.06206490812787 102.51263274529096 390.383785438885 173.76978475158555"/>
<polyline points="390.383785438885 173.76978475158555 410.0751123857847 243.8863495332263"/>
<polyline points="390.383785438885 173.76978475158555 410.0751123857846 243.8863495332263"/>
<polyline points="390.383785438885 173.76978475158555 370.6924584919854 103.65321996994483"/>
<polyline points="370.6924584919854 103.65321996994483 351.0011315450858 33.53665518830408"/>
<polyline points="351.0011315450858 33.53665518830408 373.6794110143289 -37.72049681799058"/>
<polyline points="373.6794110143289 -37.72049681799058 396.3576904835719 -108.97764882428517"/>
<polyline points="396.3576904835719 -108.97764882428517 416.04901743047134 -38.86108404264444"/>
<polyline points="396.3576904835719 -108.97764882428517 416.04901743047145 -38.861084042644514"/>
<polyline points="396.3576904835719 -108.97764882428517 376.6663635366724 -179.09421360592597"/>
<polyline points="376.6663635366724 -179.09421360592597 356.9750365897728 -249.21077838756682"/>
<polyline points="356.9750365897728 -249.21077838756682 261.59187621339817 -251.67768559575583"/>
<polyline points="261.59187621339817 -251.67768559575583 166.20871583702356 -254.14459280394476"/>
<polyline points="166.20871583702356 -254.14459280394476 261.5918762133982 -251.67768559575578"/>
<polyline points="356.9750365897728 -249.21077838756682 379.653316059016 -320.4679303938614"/>
<polyline points="379.653316059016 -320.4679303938614 402.331595528259 -391.725082400156"/>
<polyline points="402.331595528259 -391.725082400156 497.7147559046337 -389.258175191967"/>
<polyline points="402.331595528259 -391.725082400156 497.7147559046337 -389.25817519196704"/>
<polyline points="402.331595528259 -391.725082400156 306.9484351518843 -394.191989608345"/>
<polyline points="306.9484351518843 -394.191989608345 211.56527477550964 -396.65889681653397"/>
<polyline points="211.56527477550964 -396.65889681653397 231.25660172240939 -326.54233203489326"/>
<polyline points="231.25660172240939 -326.54233203489326 250.94792866930902 -256.4257672532525"/>
<polyline points="250.94792866930902 -256.4257672532525 231.25660172240939 -326.5423320348933"/>
<polyline points="211.56527477550964 -396.65889681653397 191.87394782860997 -466.7754615981746"/>
<polyline points="191.87394782860997 -466.7754615981746 172.1826208817103 -536.8920263798154"/>
<polyline points="172.1826208817103 -536.8920263798154 267.56578125808494 -534.4251191716264"/>
<polyline points="172.1826208817103 -536.8920263798154 267.56578125808494 -534.4251191716264"/>
<polyline points="172.1826208817103 -536.8920263798154 76.79946050533565 -539.3589335880044"/>
<polyline points="76.79946050533565 -539.3589335880044 -18.583699871038935 -541.8258407961933"/>
<polyline points="-18.583699871038935 -541.8258407961933 1.1076270758607922 -471.7092760145527"/>
<polyline points="1.1076270758607922 -471.7092760145527 20.798954022760558 -401.592711232912"/>
<polyline points="20.798954022760558 -401.592711232912 1.107627075860765 -471.7092760145527"/>
<polyline points="-18.583699871038935 -541.8258407961933 -41.26197934028205 -470.56868878989883"/>
<polyline points="-41.26197934028205 -470.56868878989883 -63.94025880952525 -399.3115367836041"/>
<polyline points="-63.94025880952525 -399.3115367836041 -41.261979340282195 -470.5686887898988"/>
<polyline points="-63.94025880952525 -399.3115367836041 -83.63158575642497 -469.4281015652447"/>
<polyline points="-83.63158575642497 -469.4281015652447 -103.32291270332473 -539.5446663468856"/>
<polyline points="-103.32291270332473 -539.5446663468856 -126.00119217256778 -468.28751434059075"/>
<polyline points="-103.32291270332473 -539.5446663468856 -126.00119217256784 -468.28751434059075"/>
<polyline points="-103.32291270332473 -539.5446663468856 -80.64463323408154 -610.8018183531802"/>
<polyline points="-80.64463323408154 -610.8018183531802 -57.96635376483838 -682.058970359475"/>
</svg>