<svg transform="scale(1,-1)" viewBox="-642.2109430467146 -194.20022890968758 1287.3002996353644 426.484756432998" xmlns="http://www.w3.org/2000/svg">
<style>
svg { stroke:black; stroke-width:2; fill:none;}
</style>
<polyline points="642.0893565886497 -132.86823132641342 611.9583329777175 -92.96683515839027 562.3371984442773 -99.11036896347431 592.4682220552086 -139.01176513149704 572.9781111326997 -185.05669510460368 523.3569765992592 -191.20022890968758 493.2259529883278 -151.29883274166485 542.8470875217682 -145.15529893658095 562.3371984442773 -99.11036896347433 512.716063910837 -105.25390276855828 482.58504029990553 -65.35250660053555 532.2061748333458 -59.20897279545164 551.696285755855 -13.164042822344959 521.5652621449236 26.737353345677754 471.9441276114832 20.593819540593817 502.0751512224145 -19.307576627428894 482.5850402999055 -65.3525066005355 432.9639057664651 -71.49604040561947 402.8328821555337 -31.59464423759674 452.4540166889742 -25.451110432512795 471.94412761148317 20.593819540593856 441.8131040005518 60.495215708616584 392.19196946711145 54.35168190353267 422.3229930780429 14.450285735509922 402.8328821555337 -31.59464423759669 372.70185854460226 8.30675193042601 323.080724011162 2.163218125342112 353.2117476220933 -37.73817804268062 333.7216366995843 -83.78310801578723 284.10050216614394 -89.92664182087117 253.96947855521248 -50.02524565284847 303.5906130886529 -43.881711847764514 323.08072401116203 2.163218125342111 273.4595894777216 -3.980315679741814 243.3285658667902 35.92108048828087 292.9497004002306 42.064614293364784 312.4398113227396 88.10954426647142 282.30878771180824 128.01094043449413 232.6876531783679 121.86740662941021 262.8186767892992 81.9660104613875 243.32856586679017 35.92108048828087 213.19754225585882 75.82247665630358 163.57640772241848 69.67894285121966 193.7074313333498 29.777546683196945 174.21732041084076 -16.267383289909663 124.59618587740039 -22.410917094993604 94.46516226646898 17.490479073029068 144.0862967999094 23.634012878113015 163.57640772241842 69.67894285121963 133.44538411148707 109.58033901924233 83.82424957804669 103.43680521415844 113.95527318897804 63.53540904613572 94.46516226646901 17.490479073029107 44.84402773302856 11.346945267945141 14.713004122097217 51.24834143596784 64.33413865553763 57.39187524105178 83.82424957804665 103.4368052141584 34.203115044606236 97.29327140907445 4.072091433674847 137.1946675770971 53.69322596711527 143.33820138218104 73.18333688962427 189.38313135528773 43.05231327869296 229.2845275233104 -6.568821254747421 223.14099371822644 23.5622023561839 183.2395975502038 4.072091433674878 137.19466757709716 -15.418019488834126 91.14973760399054 -65.03915402227454 85.00620379890661 -45.54904309976549 131.05113377201326 -75.68006671069683 170.952529940036 -125.30120124413725 164.80899613495203 -144.7913121666463 118.76406616184538 -95.1701776332059 124.90759996692935 -65.03915402227454 85.00620379890661 -114.66028855571497 78.86266999382269 -134.15039947822407 32.81774002071601 -84.52926494478362 38.96127382579997 -54.39824133385226 -0.9401223422227339 -73.88835225636137 -46.9850523153294 -123.50948678980177 -53.12858612041332 -104.01937586729272 -7.083656147306706 -134.15039947822407 32.817740020716 -183.77153401166444 26.674206215632093 -203.26164493417357 -19.37072375747458 -153.6405104007331 -13.22718995239061 -123.50948678980177 -53.128586120413324 -142.99959771231087 -99.17351609351996 -192.62073224575119 -105.31704989860388 -173.1306213232422 -59.27211992549728 -203.26164493417357 -19.370723757474575 -222.75175585668254 -65.41565373058118 -272.37289039012296 -71.55918753566513 -252.88277946761391 -25.514257562558477 -283.01380307854527 14.387138605464225 -332.6349376119857 8.243604800380279 -352.12504853449485 -37.80132517272643 -302.5039140010544 -31.65779136764243 -272.37289039012296 -71.55918753566513 -302.50391400105434 -31.65779136764243 -352.12504853449485 -37.80132517272643 -321.99402492356353 -77.70272134074912 -341.4841358460725 -123.74765131385576 -391.1052703795129 -129.89118511893963 -421.23629399044427 -89.98978895091689 -371.61515945700376 -83.84625514583296 -352.12504853449474 -37.80132517272634 -401.7461830679351 -43.944858977810235 -431.8772066788664 -4.043462809787536 -382.25607214542606 2.100070995296371 -362.765961222917 48.145000968403046 -392.89698483384825 88.04639713642565 -442.5181193672887 81.90286333134169 -412.38709575635727 42.00146716331898 -431.87720667886634 -4.043462809787619 -451.3673176013755 -50.08839278289429 -500.9884521348159 -56.2319265879782 -481.4983412123068 -10.186996614871589 -511.6293648232382 29.714399553151093 -561.2504993566786 23.570865748067195 -580.7406102791875 -22.4740642250394 -531.1194757457472 -16.330530419955494 -500.98845213481576 -56.23192658797821 -531.1194757457472 -16.330530419955494 -580.7406102791875 -22.474064225039395 -550.6095866682562 -62.375460393062106 -570.0996975907652 -108.42039036616866 -589.5898085132742 -154.46532033927528 -639.2109430467146 -160.60885414435913 -589.5898085132742 -154.46532033927528"/>
</svg>