<svg viewBox="-360.0331245800853 -99.69573992734746 784.7618954436841 209.0480808703306" xmlns="http://www.w3.org/2000/svg">
<style>
svg { stroke:black; stroke-width:2; fill:none;}
</style>
<polyline points="-350.39604475068876 40.89931857872374 -348.9364878156654 32.294190044788685"/>
<polyline points="-348.9364878156655 32.294190044788685 -352.9177182760504 39.51089425197973"/>
<polyline points="-352.9177182760504 39.51089425197973 -349.4067520728284 37.50706810336119"/>
<polyline points="-349.4067520728284 37.50706810336119 -357.0203140065147 38.71107326154197"/>
<polyline points="-357.0203140065147 38.71107326154197 -352.645393065809 46.65510043453219"/>
<polyline points="-352.645393065809 46.65510043453219 -354.71180880546785 43.45555476857189"/>
<polyline points="-354.71180880546785 43.45555476857189 -355.83280154595246 37.38082494721304"/>
<polyline points="-355.83280154595246 37.38082494721304 -354.52310401447903 46.761945392894596"/>
<polyline points="-354.52310401447903 46.761945392894596 -349.6976590168614 47.01811552401055"/>
<polyline points="-349.6976590168614 47.01811552401055 -357.24025061005256 40.70146546107544"/>
<polyline points="-357.24025061005256 40.70146546107544 -358.1585033499818 39.165152716647405"/>
<polyline points="-358.1585033499818 39.165152716647405 -349.79724475523307 43.56108445785124"/>
<polyline points="-349.79724475523307 43.56108445785124 -343.12082993321474 39.522902385416394"/>
<polyline points="-343.12082993321474 39.522902385416394 -346.19522310683845 39.65470638798579"/>
<polyline points="-346.19522310683845 39.65470638798579 -355.8189421739086 41.09460893482294"/>
<polyline points="-355.8189421739086 41.09460893482294 -359.45063895385084 38.5992231345377"/>
<polyline points="-359.45063895385084 38.5992231345377 -360.0331245800853 31.479936982225073"/>
<polyline points="-359.45063895385084 38.5992231345377 -360.0331245800853 31.479936982225073"/>
<polyline points="-360.0331245800853 31.479936982225073 -356.6857588789934 26.895897050218323"/>
<polyline points="-356.6857588789934 26.895897050218323 -347.69664731184076 27.24129273779764 -328.51951712951575 21.578897369192592 -320.09253438356467 16.752174243907024 -310.87015115510957 12.97571871736866 -288.292304643626 -4.527678905503392"/>
<polyline points="-288.292304643626 -4.527678905503392 -281.1374759779525 -11.310005264174809 -263.36533536369535 -20.45378245902607 -256.21050669802185 -27.236108817697477 -247.80233081796078 -32.51607104459517 -228.1098179423223 -51.91218613602969"/>
<polyline points="-228.1098179423223 -51.91218613602969 -222.49759457147823 -60.173612153219054"/>
<polyline points="-228.1098179423223 -51.91218613602969 -222.49759457147823 -60.173612153219054"/>
<polyline points="-228.1098179423223 -51.91218613602969 -220.2747716964667 -58.090038874835024"/>
<polyline points="-220.2747716964667 -58.090038874835024 -210.70705888602896 -60.43516258492636"/>
<polyline points="-247.80233081796078 -32.51607104459517 -239.96728457210517 -38.693923783400486 -223.28992070759554 -43.77469743566564 -217.04750305723795 -48.89819690418265 -209.20421883449745 -50.93995692507048 -191.00231123049463 -50.675826180765036"/>
<polyline points="-191.00231123049463 -50.675826180765036 -186.37173945210287 -55.19499513351423 -171.91563872579067 -60.299927180737384 -167.28506694739892 -64.81909613348657 -160.55747092533494 -66.60587973835261 -145.1626393243536 -63.640458526130516"/>
<polyline points="-145.1626393243536 -63.640458526130516 -145.298673298006 -67.94671708729963"/>
<polyline points="-145.1626393243536 -63.640458526130516 -142.18876826294252 -66.95989886607431"/>
<polyline points="-160.55747092533494 -66.60587973835261 -154.70854115210108 -68.9305526234613"/>
<polyline points="-160.55747092533494 -66.60587973835261 -154.70854115210108 -68.9305526234613"/>
<polyline points="-191.00231123049463 -50.675826180765036 -183.86090633388577 -53.506141117795565"/>
<polyline points="-183.86090633388577 -53.506141117795565 -174.2943350775756 -52.44977693279419"/>
<polyline points="-183.86090633388577 -53.506141117795565 -174.2943350775756 -52.44977693279419"/>
<polyline points="-174.2943350775756 -52.44977693279419 -164.64482116678795 -55.0310777179712"/>
<polyline points="-209.20421883449745 -50.93995692507048 -202.06281393788862 -53.77027186210102 -185.41514621782088 -48.85876900035973 -179.38463213871128 -46.36124539861375 -171.43296730837244 -42.779962950219385 -151.74075219342987 -23.130123837235733"/>
<polyline points="-151.74075219342987 -23.130123837235733 -147.1260718991895 -18.64899201392015 -132.47820896427046 -10.765288682301202 -127.86352867003006 -6.28415685898563 -120.9011509183615 -1.2843822243717096 -103.58102266783278 21.36086779752376"/>
<polyline points="-103.58102266783278 21.36086779752376 -100.3887217873624 27.719708435763348"/>
<polyline points="-103.58102266783278 21.36086779752376 -100.3887217873624 27.719708435763348"/>
<polyline points="-103.58102266783278 21.36086779752376 -97.50875919721868 26.762669141304748"/>
<polyline points="-97.50875919721868 26.762669141304748 -89.66134746360093 27.675384871150957"/>
<polyline points="-120.9011509183615 -1.2843822243717096 -114.82888744774738 4.117419119409283 -97.61260448102131 14.154674573388895 -91.2430203450087 21.826923747417645 -82.70044945276746 27.014991874414275 -58.72882001104137 41.17204860112779"/>
<polyline points="-58.72882001104137 41.17204860112779 -53.211374140369436 49.38181233472991 -37.168604469739606 61.243224283460634 -31.651158599067728 69.45298801706278 -23.69826735098339 75.21959858611929 -1.2122139059118877 88.22825517825588"/>
<polyline points="-1.2122139059118877 88.22825517825588 0.3387435220804293 97.07359181149099"/>
<polyline points="-1.2122139059118877 88.22825517825588 3.4288353487022873 96.25903431090337"/>
<polyline points="-23.69826735098339 75.21959858611929 -16.509344153456663 81.7652174645756"/>
<polyline points="-58.72882001104137 41.17204860112779 -50.856581191017845 47.31327224737581"/>
<polyline points="-97.61260448102131 14.154674573388895 -89.79433292480124 18.761551183439583"/>
<polyline points="-89.79433292480124 18.761551183439583 -80.93529090641634 14.591891357545805"/>
<polyline points="-114.82888744774738 4.117419119409283 -107.01061589152734 8.724295729459964"/>
<polyline points="-120.9011509183615 -1.2843822243717096 -114.82888744774738 4.117419119409283"/>
<polyline points="-151.74075219342987 -23.130123837235733 -144.53438341301455 -19.313036954876765"/>
<polyline points="-144.53438341301455 -19.313036954876765 -134.7482240141894 -17.45274760241442"/>
<polyline points="-144.53438341301455 -19.313036954876765 -134.7482240141894 -17.45274760241442"/>
<polyline points="-134.7482240141894 -17.45274760241442 -125.49211288594928 -19.9992214078547"/>
<polyline points="-171.43296730837244 -42.779962950219385 -164.22659852795715 -38.96287606786045 -146.50905073405963 -29.73704444765318 -139.74378151511314 -22.5090286810809 -131.13636081212013 -17.45169786305675 -108.70409529335457 -1.2094998197156825"/>
<polyline points="-108.70409529335457 -1.2094998197156825 -103.12108652109981 7.075053874768021 -86.98364314773926 18.81403633426427 -81.40063437548454 27.09859002874796 -73.60218332650838 33.088715376763126 -53.32342875352177 49.136941043498744"/>
<polyline points="-53.32342875352177 49.136941043498744 -48.98876571858227 57.7937094354417"/>
<polyline points="-53.32342875352177 49.136941043498744 -48.98876571858227 57.7937094354417"/>
<polyline points="-53.32342875352177 49.136941043498744 -46.3181693441102 56.00076854768836"/>
<polyline points="-46.3181693441102 56.00076854768836 -38.021635899774594 61.066066253071625"/>
<polyline points="-73.60218332650838 33.088715376763126 -66.59692391709682 39.952542880952755 -48.31378601882284 43.830915206926505 -41.109032947128654 47.03952308091943 -32.0933612965509 47.99856427668363 -7.531101282315906 41.27788892042778"/>
<polyline points="-7.531101282315906 41.27788892042778 -1.2629093168746202 42.80166916030018 15.84717354028173 44.79370368914062 22.115365505723034 46.317483929013015 30.505182341183087 46.19332134574599 53.21011714400069 35.70056434007733"/>
<polyline points="53.21011714400069 35.70056434007733 55.41585637761884 35.27556625587605"/>
<polyline points="53.21011714400069 35.70056434007733 58.43628374524575 35.19860711517762"/>
<polyline points="30.505182341183087 46.19332134574599 38.19059977539767 46.05464064236482"/>
<polyline points="30.505182341183087 46.19332134574599 38.19059977539767 46.05464064236482"/>
<polyline points="-7.531101282315906 41.27788892042778 0.9081965330976592 42.50090348337442"/>
<polyline points="0.9081965330976592 42.50090348337442 10.901424852216032 42.633010090790584"/>
<polyline points="0.9081965330976592 42.50090348337442 10.901424852216032 42.633010090790584"/>
<polyline points="10.901424852216032 42.633010090790584 19.63387357660349 47.355049965872865"/>
<polyline points="-32.0933612965509 47.99856427668363 -23.654063481137353 49.22157883963028 -4.360055928658195 44.44695389943069 3.9188945992901667 40.29698977259032 13.303004999912657 36.88833370619527 37.3464083008366 19.588179365138306"/>
<polyline points="37.3464083008366 19.588179365138306 44.50772260142015 13.361522531980015 62.56272352338901 5.029679301112161 69.72403782397251 -1.1969775320461227 78.39194587748557 -6.175605869358555 99.90945655385003 -25.754511005539236"/>
<polyline points="99.90945655385003 -25.754511005539236 105.7186852960302 -33.64618830083857"/>
<polyline points="99.90945655385003 -25.754511005539236 105.7186852960302 -33.64618830083857"/>
<polyline points="99.90945655385003 -25.754511005539236 107.98191808404376 -31.596304784029655"/>
<polyline points="107.98191808404376 -31.596304784029655 117.37997411848598 -33.29819565764153"/>
<polyline points="78.39194587748557 -6.175605869358555 86.46440740767923 -12.017399647848983 104.28199622070622 -17.320731751904425 111.30800547477504 -22.741229401723256 119.81206176660152 -25.02172109566929 140.49464556812188 -26.426614053371594"/>
<polyline points="140.49464556812188 -26.426614053371594 146.0874056769389 -31.50417585263608 162.03244715333642 -37.25614014530267 167.62520726215342 -42.33370194456717 175.15674966314992 -44.552394618351556 193.14589719004192 -43.587607345680055"/>
<polyline points="193.14589719004192 -43.587607345680055 191.11511599667534 -49.70587602644745"/>
<polyline points="193.14589719004192 -43.587607345680055 197.19625794558658 -47.69073203791702"/>
<polyline points="162.03244715333642 -37.25614014530267 170.3344120625601 -42.21466922221339"/>
<polyline points="119.81206176660152 -25.02172109566929 127.70609640138767 -28.175675882795353"/>
<polyline points="78.39194587748557 -6.175605869358555 86.46440740767923 -12.017399647848983"/>
<polyline points="62.56272352338901 5.029679301112161 71.69196586927757 3.194038906886458"/>
<polyline points="13.303004999912657 36.88833370619527 22.27905401127167 32.69467439199088"/>
<polyline points="-23.654063481137353 49.22157883963028 -14.14945796412853 49.69777474783002"/>
<polyline points="-48.31378601882284 43.830915206926505 -39.77354898883144 48.70861984766802"/>
<polyline points="-39.77354898883144 48.70861984766802 -31.30527580802409 47.84015760233493"/>
<polyline points="-66.59692391709682 39.952542880952755 -58.05668688710544 44.83024752169425"/>
<polyline points="-73.60218332650838 33.088715376763126 -66.59692391709682 39.952542880952755"/>
<polyline points="-108.70409529335457 -1.2094998197156825 -100.74962069391412 4.8331029990817855"/>
<polyline points="-100.74962069391412 4.8331029990817855 -90.78210581345698 5.35153004163958"/>
<polyline points="-100.74962069391412 4.8331029990817855 -90.78210581345698 5.35153004163958"/>
<polyline points="-90.78210581345698 5.35153004163958 -81.69108037542654 5.812609414728576"/>
<polyline points="-131.13636081212013 -17.45169786305675 -123.18188621267967 -11.40909504425929 -104.53767541316682 -8.55848974784474 -96.9444980560759 -4.985543471615569 -87.895684858837 -4.313764580304835 -64.65652133210043 -10.314175589194258"/>
<polyline points="-64.65652133210043 -10.314175589194258 -58.245793117818394 -7.841206981092184 -41.05127638446528 -5.858668084862585 -34.64054817018327 -3.3856994767605224 -26.37593109083287 -3.351841392078183 -5.542017805382004 -12.514262776869172"/>
<polyline points="-5.542017805382004 -12.514262776869172 -0.4680501470332091 -11.609236964217272"/>
<polyline points="-5.542017805382004 -12.514262776869172 -0.4680501470332091 -11.609236964217272"/>
<polyline points="-5.542017805382004 -12.514262776869172 2.0221137437157655 -12.151174909316284"/>
<polyline points="2.0221137437157655 -12.151174909316284 10.961339322196459 -8.804087388301856"/>
<polyline points="-26.37593109083287 -3.351841392078183 -18.811799541735137 -2.988753524525291 -0.7380311499905483 -9.747744726424969 6.34157977365966 -14.720044775436913 15.102119471916918 -19.09103173915896 37.65586844199184 -38.84787175653639"/>
<polyline points="37.65586844199184 -38.84787175653639 43.521899089229294 -45.77192693385902 60.020790707406064 -55.9389056316992 65.88682135464344 -62.862960809021814 73.82593478105467 -68.72181353558074 94.0785275131127 -90.49567754966638"/>
<polyline points="94.0785275131127 -90.49567754966638 95.56091000932767 -99.69573992734746"/>
<polyline points="94.0785275131127 -90.49567754966638 98.6313515887165 -98.94084839249192"/>
<polyline points="73.82593478105467 -68.72181353558074 81.00024160022198 -75.37310174555412"/>
<polyline points="73.82593478105467 -68.72181353558074 81.00024160022198 -75.37310174555412"/>
<polyline points="37.65586844199184 -38.84787175653639 45.80569335519203 -43.951771645734546"/>
<polyline points="45.80569335519203 -43.951771645734546 55.75390081835583 -44.66174092576809"/>
<polyline points="45.80569335519203 -43.951771645734546 55.75390081835583 -44.66174092576809"/>
<polyline points="55.75390081835583 -44.66174092576809 65.01060819307985 -42.53731407357139"/>
<polyline points="15.102119471916918 -19.09103173915896 23.251944385117127 -24.194931628357104 41.715155032035184 -30.276355751020326 49.21780218060091 -36.308045357971196 58.114205917037644 -39.255940251147024 80.39284327595198 -44.80674945330214"/>
<polyline points="80.39284327595198 -44.80674945330214 86.60242590820796 -51.0300857838681 103.4541573498601 -58.397788534131145 109.66373998211606 -64.62112486469708 117.69760026962996 -67.89648727454767 137.39633233117414 -71.81438764209129"/>
<polyline points="137.39633233117414 -71.81438764209129 142.16177173108994 -77.54459362654416"/>
<polyline points="137.39633233117414 -71.81438764209129 142.16177173108994 -77.54459362654416"/>
<polyline points="137.39633233117414 -71.81438764209129 144.70778118239275 -75.89052930520111"/>
<polyline points="144.70778118239275 -75.89052930520111 153.64212128328558 -80.28613244421017"/>
<polyline points="117.69760026962996 -67.89648727454767 125.00904912084856 -71.97262893765749 142.599336495274 -69.46266074590558 149.28752229015635 -68.3345952024448 157.7929724119518 -65.93097097038961 179.61721278852187 -49.19518291467309"/>
<polyline points="179.61721278852187 -49.19518291467309 185.05274661432068 -46.017863683445015 200.9559550415993 -40.575063579840396 206.39148886739824 -37.39774434861231 214.03734574855565 -33.55493410512419 233.6046665732209 -13.459610813054008"/>
<polyline points="233.6046665732209 -13.459610813054008 234.60058525163524 -8.135406694870074"/>
<polyline points="233.6046665732209 -13.459610813054008 237.72623468491184 -8.24945452176699"/>
<polyline points="214.03734574855565 -33.55493410512419 220.87261740204636 -29.337806179539268"/>
<polyline points="179.61721278852187 -49.19518291467309 187.45789888834148 -46.618597572683136"/>
<polyline points="142.599336495274 -69.46266074590558 151.26844096342765 -71.67613534509962"/>
<polyline points="151.26844096342765 -71.67613534509962 160.18409026779204 -72.28428152640667"/>
<polyline points="125.00904912084856 -71.97262893765749 133.67815358900222 -74.1861035368515"/>
<polyline points="117.69760026962996 -67.89648727454767 125.00904912084856 -71.97262893765749"/>
<polyline points="80.39284327595198 -44.80674945330214 88.74533724081695 -48.754329013998124"/>
<polyline points="88.74533724081695 -48.754329013998124 98.57707727139373 -47.56109663132172"/>
<polyline points="88.74533724081695 -48.754329013998124 98.57707727139373 -47.56109663132172"/>
<polyline points="98.57707727139373 -47.56109663132172 108.09701371433009 -48.70981265122059"/>
<polyline points="58.114205917037644 -39.255940251147024 66.4666998819027 -43.20351981184302 84.377159761301 -39.97535463874961 91.56558962899553 -39.44994740315537 100.07997654106558 -36.799904247223 120.40812993582321 -19.846232014657797"/>
<polyline points="120.40812993582321 -19.846232014657797 126.11367695084613 -17.6530181613511 142.11622441179432 -12.258241287574815 147.8217714268172 -10.065027434268103 155.33558492299184 -6.285674898667428 172.8203049928281 13.826057276226532"/>
<polyline points="172.8203049928281 13.826057276226532 176.91013482484732 17.822453269475684"/>
<polyline points="172.8203049928281 13.826057276226532 176.91013482484732 17.822453269475684"/>
<polyline points="172.8203049928281 13.826057276226532 179.56462262582707 17.65548720647596"/>
<polyline points="179.56462262582707 17.65548720647596 188.35354956578044 17.384655892936912"/>
<polyline points="155.33558492299184 -6.285674898667428 162.0799025559907 -2.4562449684179857 178.7319913665589 8.368718214688323 184.69895919272915 16.039145641062515 192.73294803478174 21.991444397916776 213.3915441919123 41.71372405398299"/>
<polyline points="213.3915441919123 41.71372405398299 218.07985484777916 50.52460864703973 232.9072878827248 63.94277700678281 237.59559853859173 72.75366159983953 244.73260358504976 79.69005843950293 263.28473866081157 99.43299587766705"/>
<polyline points="263.28473866081157 99.43299587766705 263.50172093090674 109.35234094298315"/>
<polyline points="263.28473866081157 99.43299587766705 266.701043115516 108.7263804378074"/>
<polyline points="244.73260358504976 79.69005843950293 250.9900036889296 87.4234282628267"/>
<polyline points="244.73260358504976 79.69005843950293 250.9900036889296 87.4234282628267"/>
<polyline points="213.3915441919123 41.71372405398299 220.67271184048903 48.557703259491355"/>
<polyline points="220.67271184048903 48.557703259491355 230.5338780264238 50.172305902316154"/>
<polyline points="220.67271184048903 48.557703259491355 230.5338780264238 50.172305902316154"/>
<polyline points="230.5338780264238 50.172305902316154 239.50998495755735 51.07700105216891"/>
<polyline points="192.73294803478174 21.991444397916776 200.0141156833584 28.835423603425138 218.2852179987079 34.363829258582186 225.48545997201717 39.320261731648806 234.43154424345323 41.415769600285586 258.24368111544266 40.01987222853188"/>
<polyline points="258.24368111544266 40.01987222853188 264.3903668959692 43.98396544207212 281.3241695247269 48.9037191421464 287.4708553052535 52.86781235568663 295.70952837350933 54.421074968578665 317.4663911566412 49.83690513041537"/>
<polyline points="317.4663911566412 49.83690513041537 322.45283646175443 52.268695146459734"/>
<polyline points="317.4663911566412 49.83690513041537 322.45283646175443 52.268695146459734"/>
<polyline points="317.4663911566412 49.83690513041537 324.9776804455711 51.749546232694414"/>
<polyline points="324.9776804455711 51.749546232694414 333.53018527381494 56.33124883513759"/>
<polyline points="295.70952837350933 54.421074968578665 303.2208176624392 56.33371607085772 321.92329440924163 52.14787366161472 329.50418877000897 48.562015872538886 338.68181172346686 45.391219516949334 363.17271208106115 28.091445406058536"/>
<polyline points="363.17271208106115 28.091445406058536 369.74735699115223 22.35630735514591 387.23849669101963 14.604552548758166 393.81314160111083 8.869414497845515 402.32768012991454 4.095810035811251 424.7287708635988 -15.784862756019525"/>
</svg>