<svg baseProfile="full" fill-opacity="0.0" height="100%" stroke="black" stroke-width="1" version="1.1" viewBox="-139.469352151777,-103.0331216507226,303.3454240788633,206.61848142496132" width="100%" xmlns="http://www.w3.org/2000/svg" xmlns:ev="http://www.w3.org/2001/xml-events" xmlns:xlink="http://www.w3.org/1999/xlink"><defs /><polyline points="139.1343413439695,-21.2983699527351 83.6582000382463,-99.25146932514667 131.6802755761475,-16.9229391465679 163.8760719270863,72.70776002021758 123.5566411766496,-13.82594492483797 139.0007677138889,80.59648745554105 115.0077925759452,-12.10879666575529 74.55078630117302,-99.73636322790061 106.8858633841285,-9.002495554557488 105.1066923965101,87.87699621367629 98.16632569078712,-8.745061976029874 74.04982506057536,-103.0331216507226 89.61733942186379,-7.02856999696699 49.07895354903096,-96.29021310156996 81.49617782395178,-3.899366547429946 97.0711861751916,92.92133985215861 72.94637158387008,-2.19058046647804 53.97481598308405,94.73948503550898 64.31698286860595,-3.447524731822067 57.28922485933339,-102.138492147407 55.59631968586015,-3.210877280256769 31.44110266009515,-99.5086703143143 47.04693850978855,-1.485576308119316 45.33243699475064,97.91817930614661 38.32612792979025,-1.254700232457892 -2.249486501954391,-92.38995175459476 30.20602810825956,1.920270348150136 45.79732978726725,100.5058727195299 21.656785315059,3.646249537290579 19.93322476136069,103.5456637777202 12.93660615456053,3.871880811102986 -11.19014184297043,-93.149317984409 4.387658616275072,5.601725340618214 -31.38173728097169,98.97529211507384 -3.886934255128064,2.841434622205099 6.574088949676447,-96.55623216865241 -12.51466294474989,1.554005729451069 -19.36907018596273,-98.05051578456879 -21.23568225896661,1.77421242487252 -40.37794680503754,99.68032322685599 -29.86285462523876,0.4851303301296921 -53.85251032151797,-96.07895024588012 -38.415040095101,2.203023195945666 -40.31241116384926,101.5057392018118 -47.13604213494411,2.423922593840624 -66.28372608319013,99.6356906309922 -55.76306949675035,1.148023296375418 -62.59600265584016,-97.42154643967292 -64.48414490929574,1.368683443700435 -104.8456574086216,-88.3482685553186 -72.61107086449782,4.500485482286246 -57.25956579649677,101.1651439504401 -81.1637118703358,6.207240904139948 -83.14366969277528,103.5853597742387 -89.88353152559753,6.447375258393792 -113.748442889736,-87.6610387896023 -98.43603952781295,8.151769304183901 -117.7729811187121,102.7039220597735 -107.058785364465,6.936987240453188 -113.6713636948707,-88.65294486049159 -115.7786212000816,7.176449118035826 -139.469352151777,-85.11416712768674 -124.3338764410015,8.850383682965141 -126.5578829472389,103.535505229344 -133.0532668672933,9.094054028783193" /></svg>
