<svg viewBox="-287.87912617872934 -292.43276405019225 615.5100636217646 596.9304052031143" xmlns="http://www.w3.org/2000/svg">
<style>
svg { stroke:black; stroke-width:2; fill:none;}
</style>
<polyline points="-29.815532227305336 -39.77473914200624 29.482310286288133 40.74709561871606 -69.90056543262712 51.839616244736035 -10.602722919033475 132.36145100545818 29.482310286288104 40.74709561871627 69.56734349160978 -50.86725976802563 -29.81553222730545 -39.7747391420059 10.269500978016168 -131.38909452874782 69.56734349160978 -50.867259768025676 -29.815532227305457 -39.77473914200593 29.482310286288147 40.74709561871624 -69.90056543262709 51.83961624473602 -29.81553222730545 -39.7747391420059 10.269500978016122 -131.38909452874788 69.56734349160975 -50.86725976802577 109.65237669693137 -142.4816151547677 10.269500978016168 -131.3890945287479 69.56734349160976 -50.86725976802574 109.65237669693136 -142.48161515476767 168.95021921052495 -61.95978039404552 69.56734349160976 -50.86725976802575 -29.81553222730545 -39.77473914200593 10.26950097801613 -131.38909452874788 -89.11337474089909 -120.29657390272807 -29.81553222730546 -39.77473914200596 10.269500978016108 -131.38909452874793 69.56734349160975 -50.86725976802582 109.65237669693133 -142.48161515476772 10.269500978016145 -131.38909452874793 -89.11337474089908 -120.29657390272816 -29.815532227305475 -39.774739142006034 -129.19840794622067 -28.682218515986218 -89.11337474089906 -120.29657390272813 -49.02834153557738 -211.91092928946995 -148.4112172544926 -200.8184086634503 -108.32618404917098 -292.43276405019225 -49.02834153557741 -211.91092928947003 10.269500978016207 -131.38909452874793 -89.11337474089903 -120.29657390272816 -29.81553222730546 -39.77473914200598 10.269500978016183 -131.38909452874788 -89.11337474089906 -120.29657390272803 -49.02834153557746 -211.91092928946995 -148.41121725449264 -200.81840866345019 -89.11337474089905 -120.29657390272808 -29.81553222730546 -39.77473914200594 10.269500978016167 -131.38909452874788 69.56734349160976 -50.86725976802574 -29.815532227305457 -39.77473914200596 10.269500978016115 -131.38909452874793 69.56734349160975 -50.86725976802582 109.65237669693137 -142.48161515476775 10.269500978016156 -131.38909452874793 -89.11337474089908 -120.2965739027282 -29.815532227305443 -39.77473914200606 -129.19840794622067 -28.682218515986243 -89.11337474089906 -120.29657390272813 -29.81553222730551 -39.774739142005984 10.269500978016158 -131.3890945287479 69.56734349160976 -50.86725976802575 -29.81553222730546 -39.77473914200598 -129.19840794622067 -28.68221851598616 -89.11337474089909 -120.29657390272807 -188.4962504598143 -109.20405327670832 -129.19840794622058 -28.682218515986182 -228.58128366513589 -17.589697889966487 -169.2834411515423 62.932136870755706 -268.66631687045754 74.02465749677546 -228.58128366513589 -17.58969788996644 -188.49625045981426 -109.20405327670838 -129.19840794622067 -28.68221851598622 -89.11337474089903 -120.29657390272813 -188.4962504598142 -109.20405327670838 -129.19840794622053 -28.682218515986264 -228.58128366513577 -17.58969788996644 -169.28344115154218 62.932136870755684 -129.19840794622056 -28.682218515986197 -89.11337474089899 -120.29657390272811 -188.49625045981418 -109.20405327670834 -148.41121725449256 -200.81840866345027 -89.11337474089898 -120.29657390272817 -188.49625045981418 -109.2040532767083 -148.41121725449264 -200.8184086634502 -247.79409297340783 -189.72588803743037 -188.49625045981418 -109.2040532767083 -129.1984079462205 -28.682218515986182 -89.11337474089899 -120.29657390272811 -29.815532227305273 -39.77473914200601 -129.19840794622047 -28.682218515986186 -89.11337474089886 -120.29657390272808 -188.49625045981406 -109.20405327670834 -148.41121725449247 -200.81840866345027 -89.11337474089889 -120.29657390272811 -29.815532227305223 -39.774739142006 -129.19840794622039 -28.6822185159862 -69.90056543262678 51.83961624473596 -29.81553222730522 -39.774739142005956 10.269500978016282 -131.38909452874793 69.56734349160996 -50.867259768025846 109.65237669693154 -142.4816151547678 10.26950097801632 -131.38909452874796 -89.11337474089892 -120.29657390272811 -29.81553222730523 -39.774739142006005 -129.19840794622044 -28.68221851598614 -89.11337474089892 -120.29657390272811 -29.815532227305276 -39.774739142005956 10.269500978016305 -131.38909452874793 69.56734349160993 -50.8672597680258 -29.81553222730524 -39.77473914200597 -129.19840794622047 -28.682218515986147 -89.1133747408989 -120.29657390272807 -188.49625045981412 -109.2040532767083 -129.19840794622047 -28.682218515986172 -89.11337474089886 -120.29657390272806 -188.49625045981406 -109.20405327670832 -148.41121725449247 -200.81840866345027 -89.11337474089889 -120.29657390272811 -29.815532227305223 -39.77473914200599 -129.19840794622039 -28.6822185159862 -69.90056543262682 51.83961624473596 -29.81553222730524 -39.774739142005956 -129.1984079462205 -28.682218515986126 -89.1133747408989 -120.29657390272806 -188.4962504598141 -109.20405327670825 -129.19840794622044 -28.68221851598614 -69.90056543262683 51.83961624473602 -29.815532227305255 -39.77473914200589 29.482310286288378 40.747095618716244 -69.90056543262683 51.83961624473605 -10.602722919033273 132.3614510054582 29.482310286288367 40.74709561871633 88.78015279988196 121.2689303794385 -10.60272291903324 132.36145100545824 -109.98559863794846 143.45397163147805 -69.90056543262685 51.83961624473612 -169.28344115154206 62.932136870755926 -109.98559863794843 143.45397163147803 -69.90056543262685 51.83961624473611 -10.602722919033233 132.36145100545824 29.482310286288403 40.74709561871632 -69.90056543262679 51.83961624473609 -169.28344115154204 62.93213687075582 -109.98559863794846 143.453971631478 -209.3684743568637 154.5464922574978 -169.28344115154204 62.93213687075584 -109.98559863794834 143.45397163147794 -209.36847435686357 154.5464922574978 -150.07063184326995 235.0683270182199 -109.98559863794839 143.45397163147794 -69.90056543262678 51.83961624473606 -169.28344115154204 62.93213687075587 -129.19840794622047 -28.682218515986072 -69.9005654326268 51.83961624473606 -169.28344115154204 62.9321368707558 -109.98559863794846 143.45397163147797 -209.3684743568637 154.5464922574978 -169.28344115154204 62.93213687075582 -129.1984079462205 -28.682218515986126 -69.90056543262683 51.83961624473602 -29.815532227305223 -39.7747391420059 -129.19840794622047 -28.682218515986126 -228.5812836651356 -17.58969788996623 -188.49625045981415 -109.20405327670818 -287.87912617872934 -98.11153265068832 -228.58128366513563 -17.589697889966242 -169.283441151542 62.93213687075589 -129.19840794622047 -28.68221851598606 -69.90056543262675 51.83961624473603 -169.28344115154198 62.93213687075588 -129.19840794622036 -28.682218515986058 -228.5812836651356 -17.589697889966267 -188.49625045981404 -109.2040532767082 -129.19840794622039 -28.682218515986072 -69.90056543262675 51.83961624473603 -169.28344115154198 62.93213687075582 -109.98559863794839 143.45397163147794 -69.90056543262678 51.83961624473602 -169.283441151542 62.93213687075573 -109.98559863794841 143.45397163147794 -209.36847435686366 154.54649225749768 -169.283441151542 62.93213687075574 -129.19840794622039 -28.6822185159862 -69.90056543262678 51.83961624473589 -29.815532227305177 -39.774739142006034 -129.19840794622036 -28.682218515986246 -69.90056543262669 51.83961624473585 -169.28344115154192 62.9321368707557 -109.98559863794829 143.45397163147777 -69.9005654326267 51.83961624473584 -29.8155322273051 -39.774739142006084 -129.19840794622027 -28.68221851598629 -89.11337474089875 -120.2965739027282 -29.815532227305123 -39.77473914200606 10.269500978016374 -131.38909452874805 69.56734349161007 -50.867259768025946 109.65237669693161 -142.4816151547679 10.269500978016422 -131.38909452874802 -89.11337474089879 -120.29657390272826 -29.81553222730517 -39.774739142006126 -129.19840794622036 -28.6822185159863 -89.11337474089879 -120.29657390272824 -29.815532227305184 -39.77473914200609 10.269500978016383 -131.389094528748 69.56734349161005 -50.86725976802586 -29.81553222730516 -39.77473914200607 -129.19840794622039 -28.682218515986218 -89.11337474089885 -120.29657390272816 -188.496250459814 -109.20405327670838 -129.19840794622039 -28.682218515986253 -89.11337474089879 -120.29657390272816 -188.49625045981398 -109.20405327670842 -148.4112172544924 -200.81840866345027 -89.1133747408988 -120.29657390272816 -29.815532227305116 -39.77473914200604 -129.1984079462203 -28.68221851598621 -69.90056543262669 51.83961624473592 -29.815532227305123 -39.77473914200601 -129.1984079462203 -28.68221851598612 -89.11337474089885 -120.29657390272806 -188.496250459814 -109.20405327670825 -129.19840794622036 -28.682218515986154 -69.90056543262673 51.839616244736 -29.815532227305177 -39.774739142005906 29.482310286288467 40.74709561871622 -69.90056543262672 51.83961624473602 -169.28344115154195 62.93213687075575 -109.98559863794834 143.45397163147794 -209.36847435686352 154.54649225749773 -169.28344115154195 62.93213687075578 -129.19840794622039 -28.682218515986165 -69.90056543262676 51.83961624473596 -29.815532227305148 -39.77473914200599 -129.19840794622036 -28.6822185159862 -69.9005654326267 51.83961624473591 -169.28344115154192 62.93213687075572 -109.98559863794827 143.45397163147788 -69.90056543262668 51.839616244735964 -29.815532227305088 -39.774739142005956 -129.19840794622027 -28.682218515986175 -89.1133747408987 -120.29657390272808 -29.815532227305088 -39.774739142006 -129.19840794622027 -28.682218515986104 -89.11337474089878 -120.29657390272807 -188.49625045981395 -109.20405327670824 -129.1984079462203 -28.68221851598614 -69.90056543262668 51.839616244736 -29.815532227305123 -39.77473914200593 29.48231028628853 40.747095618716166 -69.90056543262664 51.839616244736 -29.815532227305034 -39.77473914200593 -129.19840794622027 -28.68221851598616 -89.11337474089866 -120.29657390272807 -29.815532227305052 -39.77473914200595 29.48231028628858 40.747095618716145 -69.9005654326266 51.83961624473594 -10.602722919033004 132.3614510054581 29.482310286288566 40.747095618716145 69.56734349161027 -50.867259768025725 -29.815532227304946 -39.77473914200605 10.269500978016735 -131.38909452874796 69.56734349161026 -50.86725976802574 128.8651860052038 29.654574992696425 29.48231028628864 40.74709561871614 88.7801527998822 121.26893037943836 128.8651860052038 29.65457499269648 29.48231028628864 40.7470956187162 69.5673434916103 -50.8672597680257 -29.81553222730492 -39.774739142006034 29.482310286288627 40.747095618716166 88.78015279988207 121.26893037943846 128.86518600520378 29.654574992696567 188.16302851879732 110.1764097534188 88.78015279988212 121.26893037943844 128.86518600520375 29.65457499269654 188.16302851879732 110.17640975341871 228.2480617241189 18.562054366676822 128.86518600520375 29.65457499269651 29.482310286288588 40.747095618716145 88.78015279988207 121.26893037943834 -10.602722919033097 132.36145100545804 29.482310286288573 40.747095618716145 88.78015279988202 121.2689303794384 128.86518600520375 29.654574992696524 188.16302851879723 110.17640975341874 88.780152799882 121.26893037943839 -10.602722919033164 132.36145100545804 29.482310286288513 40.74709561871615 -69.90056543262669 51.839616244735794 -10.602722919033178 132.36145100545798 48.69511959456041 212.88328576618022 -50.68775612435476 223.97580639219993 8.610086389238749 304.4976411529221 48.6951195945604 212.88328576618022 88.7801527998821 121.2689303794384 -10.602722919033088 132.361451005458 29.48231028628859 40.747095618716116 88.7801527998821 121.26893037943836 -10.602722919033086 132.36145100545798 48.69511959456041 212.88328576618022 -50.68775612435476 223.97580639219993 -10.602722919033097 132.361451005458 29.482310286288563 40.74709561871611 88.7801527998821 121.26893037943836 128.86518600520384 29.65457499269647 29.482310286288627 40.7470956187161 88.78015279988207 121.26893037943839 128.8651860052038 29.65457499269652 188.16302851879735 110.17640975341874 88.7801527998821 121.26893037943836 -10.602722919033077 132.36145100545804 29.482310286288605 40.74709561871614 -69.90056543262658 51.83961624473578 -10.602722919033097 132.361451005458 29.482310286288563 40.74709561871611 88.7801527998821 121.26893037943836 128.8651860052038 29.654574992696503 29.482310286288634 40.74709561871612 -69.90056543262658 51.83961624473571 -10.60272291903312 132.36145100545798 -109.98559863794834 143.45397163147757 -69.90056543262656 51.83961624473573 -169.28344115154175 62.93213687075545 -129.19840794622021 -28.682218515986428 -228.58128366513535 -17.589697889966747 -169.28344115154178 62.93213687075544 -109.98559863794829 143.4539716314777 -69.9005654326266 51.839616244735815 -10.602722919033058 132.36145100545804 -109.98559863794827 143.4539716314777 -69.90056543262652 51.83961624473582 -169.28344115154172 62.93213687075545 -129.19840794622004 -28.682218515986413 -69.90056543262651 51.83961624473582 -10.602722919032951 132.36145100545798 -109.98559863794814 143.4539716314777 -50.68775612435458 223.97580639219987 -10.602722919032955 132.36145100545806 -109.98559863794814 143.45397163147769 -50.68775612435464 223.97580639219993 -150.07063184326987 235.0683270182195 -109.98559863794814 143.45397163147769 -69.90056543262651 51.83961624473576 -10.602722919032967 132.36145100545798 29.48231028628877 40.74709561871612 -69.90056543262644 51.83961624473575 -10.602722919032882 132.36145100545795 -109.98559863794807 143.45397163147766 -50.68775612435454 223.97580639219987 -10.602722919032868 132.36145100545806 29.482310286288854 40.747095618716195 -69.90056543262635 51.83961624473582 -29.815532227304672 -39.77473914200606 29.48231028628887 40.74709561871617 88.78015279988229 121.26893037943844 128.86518600520404 29.654574992696592 188.16302851879757 110.17640975341878 88.78015279988234 121.2689303794384 -10.60272291903285 132.3614510054581 29.48231028628883 40.7470956187162 -69.90056543262638 51.83961624473584 -10.602722919032873 132.36145100545806 29.482310286288794 40.747095618716166 88.78015279988234 121.2689303794384 128.86518600520404 29.654574992696535 29.482310286288854 40.74709561871618 -69.90056543262635 51.83961624473575 -10.602722919032884 132.361451005458 -109.98559863794807 143.45397163147763 -69.90056543262635 51.83961624473577 -10.60272291903281 132.36145100545798 -109.98559863794803 143.45397163147763 -50.687756124354536 223.97580639219993 -10.602722919032859 132.36145100545798 29.48231028628888 40.747095618716145 -69.90056543262632 51.83961624473577 -29.815532227304647 -39.774739142006105 29.482310286288882 40.747095618716116 -69.90056543262634 51.83961624473574 -10.60272291903282 132.36145100545798 -109.98559863794803 143.45397163147763 -69.90056543262632 51.83961624473577 -29.815532227304658 -39.77473914200613 29.48231028628887 40.74709561871609 69.56734349161061 -50.867259768025775 -29.8155322273046 -39.77473914200614 10.269500978016962 -131.38909452874802 69.56734349161059 -50.8672597680259 109.65237669693218 -142.4816151547678 10.269500978016982 -131.38909452874802 -89.1133747408982 -120.29657390272834 -29.815532227304647 -39.774739142006155 -129.19840794621985 -28.682218515986378 -89.11337474089824 -120.2965739027283 -29.81553222730463 -39.774739142006126 10.26950097801697 -131.38909452874802 69.5673434916106 -50.86725976802591 -29.815532227304594 -39.77473914200615 -129.1984079462198 -28.682218515986335 -89.11337474089821 -120.29657390272827 -188.4962504598134 -109.2040532767085 -129.19840794621982 -28.682218515986357 -89.11337474089814 -120.29657390272827 -188.49625045981338 -109.20405327670852 -148.41121725449185 -200.81840866345047 -89.11337474089817 -120.29657390272834 -29.81553222730456 -39.77473914200624 -129.19840794621973 -28.68221851598644 -69.90056543262612 51.8396162447357 -29.81553222730457 -39.77473914200624 -129.19840794621976 -28.68221851598638 -89.1133747408982 -120.29657390272834 -188.4962504598134 -109.20405327670852 -129.19840794621976 -28.682218515986413 -69.9005654326262 51.83961624473577 -29.815532227304576 -39.77473914200615 29.48231028628904 40.747095618715996 -69.90056543262617 51.83961624473575 -169.28344115154138 62.93213687075543 -109.98559863794785 143.45397163147766 -209.368474356863 154.5464922574973 -169.28344115154135 62.93213687075542 -129.19840794621973 -28.682218515986484 -69.90056543262618 51.83961624473568 -29.815532227304516 -39.77473914200622 -129.1984079462197 -28.682218515986474 -69.9005654326261 51.83961624473566 -169.2834411515413 62.93213687075544 -109.98559863794769 143.45397163147763 -69.9005654326261 51.83961624473568 -29.815532227304445 -39.774739142006226 -129.19840794621965 -28.682218515986484 -89.11337474089805 -120.2965739027284 -29.815532227304452 -39.774739142006254 -129.19840794621965 -28.682218515986428 -89.1133747408981 -120.29657390272838 -188.49625045981327 -109.20405327670856 -129.19840794621965 -28.68221851598645 -69.90056543262605 51.83961624473573 -29.815532227304452 -39.7747391420062 29.4823102862892 40.74709561871594 -69.90056543262598 51.839616244735716 -29.815532227304384 -39.77473914200619 -129.1984079462196 -28.682218515986417 -89.113374740898 -120.29657390272835 -29.8155322273044 -39.774739142006204 29.48231028628928 40.7470956187159 -69.90056543262591 51.839616244735716 -10.60272291903229 132.3614510054579 29.48231028628928 40.747095618715925 88.78015279988277 121.26893037943812 128.8651860052045 29.654574992696215 188.1630285187981 110.1764097534184 88.78015279988288 121.26893037943809 -10.60272291903233 132.3614510054579 29.48231028628924 40.747095618715974 -69.90056543262595 51.839616244735716 -10.602722919032365 132.3614510054579 29.482310286289156 40.74709561871591 88.7801527998828 121.26893037943802 128.86518600520435 29.6545749926961 29.482310286289188 40.74709561871588 -69.90056543262601 51.83961624473566 -10.602722919032393 132.36145100545778 -109.98559863794758 143.45397163147757 -69.90056543262602 51.839616244735666 -10.602722919032328 132.36145100545775 -109.9855986379475 143.4539716314776 -50.68775612435386 223.97580639219976 -10.602722919032326 132.36145100545778 29.48231028628926 40.74709561871585 -69.90056543262591 51.83961624473564 -29.815532227304384 -39.774739142006275 29.48231028628924 40.74709561871581 -69.90056543262594 51.83961624473557 -10.60272291903233 132.36145100545775 -109.9855986379475 143.45397163147751 -69.90056543262594 51.83961624473559 -29.815532227304452 -39.77473914200639 29.482310286289234 40.74709561871573 69.56734349161077 -50.867259768026145 -29.815532227304402 -39.774739142006354 -129.1984079462196 -28.68221851598648 -89.11337474089805 -120.29657390272845 -188.49625045981327 -109.20405327670865 -129.19840794621962 -28.682218515986538 -69.90056543262604 51.839616244735595 -29.81553222730448 -39.77473914200634 29.482310286289174 40.74709561871577 -69.90056543262601 51.83961624473559 -29.815532227304402 -39.77473914200633 -129.19840794621962 -28.682218515986563 -89.11337474089801 -120.2965739027285 -29.815532227304416 -39.77473914200636 29.482310286289263 40.74709561871577 -69.90056543262591 51.83961624473557 -10.602722919032283 132.36145100545775 29.482310286289263 40.747095618715825 -69.90056543262591 51.839616244735545 -10.602722919032345 132.36145100545772 -109.98559863794755 143.45397163147751 -69.90056543262594 51.83961624473557 -29.815532227304356 -39.77473914200636 29.482310286289245 40.74709561871581 69.56734349161088 -50.867259768026095 -29.815532227304313 -39.77473914200637 29.482310286289305 40.747095618715775 -69.9005654326259 51.83961624473553 -10.602722919032288 132.36145100545775 29.482310286289305 40.74709561871581 69.56734349161091 -50.86725976802611 -29.815532227304267 -39.77473914200633 10.26950097801729 -131.38909452874827 69.56734349161091 -50.86725976802613 -29.815532227304292 -39.774739142006496 29.482310286289234 40.74709561871572 -69.90056543262597 51.83961624473541 -29.815532227304296 -39.77473914200649 10.269500978017332 -131.3890945287484 69.56734349161087 -50.86725976802618 109.65237669693254 -142.4816151547681 10.269500978017332 -131.38909452874833 69.56734349161097 -50.86725976802621 -29.815532227304235 -39.774739142006446 29.48231028628936 40.7470956187157 69.56734349161097 -50.86725976802621 109.65237669693256 -142.4816151547681 10.269500978017378 -131.38909452874836 50.354534183338956 -223.00344991549034 109.65237669693256 -142.48161515476818 10.269500978017385 -131.38909452874827 50.35453418333889 -223.00344991549022 -49.0283415355763 -211.9109292894704 10.269500978017355 -131.38909452874833 69.56734349161096 -50.86725976802619 109.65237669693254 -142.48161515476815 168.9502192105262 -61.959780394046014 69.567343491611 -50.86725976802618 109.6523766969326 -142.48161515476812 10.269500978017424 -131.3890945287483 50.35453418333899 -223.0034499154903 109.6523766969326 -142.48161515476818 168.95021921052626 -61.959780394046085 69.56734349161107 -50.867259768026294 128.86518600520472 29.65457499269586 168.95021921052626 -61.959780394046085 209.0352524158477 -153.574135780788 268.33309492944153 -73.05230102006594 308.4181281347629 -164.66665640680793 209.0352524158478 -153.57413578078805 109.6523766969326 -142.4816151547682 168.95021921052626 -61.959780394046106 69.56734349161108 -50.86725976802621 109.65237669693256 -142.48161515476818 168.95021921052626 -61.95978039404604 209.03525241584774 -153.57413578078797 268.33309492944153 -73.0523010200659 168.95021921052628 -61.95978039404604 69.56734349161108 -50.867259768026145 109.65237669693259 -142.48161515476812 10.269500978017394 -131.3890945287483 69.56734349161108 -50.86725976802618 109.65237669693268 -142.4816151547681 10.269500978017483 -131.3890945287483 50.35453418333904 -223.0034499154903 109.65237669693263 -142.48161515476812 168.9502192105263 -61.959780394046035 69.56734349161113 -50.86725976802622 128.86518600520478 29.654574992695938 168.95021921052637 -61.959780394045985 69.56734349161114 -50.867259768026116 109.65237669693266 -142.48161515476806 10.269500978017469 -131.38909452874825 69.56734349161114 -50.86725976802614 128.86518600520475 29.654574992696006 168.95021921052634 -61.95978039404595 228.24806172412 18.562054366676165 128.86518600520483 29.654574992696 188.1630285187985 110.17640975341807 88.7801527998834 121.26893037943793 148.0779953134771 201.7907651401601 188.16302851879857 110.17640975341811 228.24806172412013 18.56205436667619 128.86518600520492 29.654574992695977 168.95021921052646 -61.95978039404599 228.2480617241201 18.562054366676115 128.86518600520495 29.65457499269585 188.16302851879848 110.17640975341801 88.78015279988333 121.26893037943776 128.86518600520486 29.654574992695885 168.95021921052643 -61.95978039404609 228.24806172412 18.562054366676023 268.3330949294416 -73.0523010200659 168.95021921052643 -61.95978039404611 228.24806172412 18.56205436667603 268.3330949294416 -73.0523010200659 327.63093744303535 7.469533740656189 228.2480617241201 18.562054366676037 128.86518600520495 29.654574992695927 168.95021921052643 -61.95978039404602 69.56734349161123 -50.86725976802621 128.86518600520486 29.654574992695903 168.95021921052637 -61.959780394046064 228.24806172412005 18.562054366676044 268.3330949294416 -73.0523010200659 168.95021921052643 -61.95978039404606 69.56734349161121 -50.86725976802627 128.8651860052048 29.654574992695867 29.482310286289664 40.74709561871572 69.56734349161115 -50.86725976802623 109.65237669693278 -142.48161515476812 10.269500978017593 -131.38909452874833 50.354534183339176 -223.0034499154903 109.65237669693278 -142.48161515476815 168.95021921052643 -61.95978039404604 69.56734349161128 -50.86725976802626 128.86518600520486 29.654574992695895 168.95021921052643 -61.95978039404604 69.56734349161131 -50.867259768026166 109.65237669693275 -142.48161515476812 10.269500978017584 -131.3890945287483 69.56734349161124 -50.86725976802621 128.8651860052048 29.65457499269595 168.95021921052637 -61.959780394045964 228.24806172412 18.562054366676165 128.8651860052048 29.654574992695974 168.95021921052637 -61.959780394046014 228.24806172412 18.56205436667612 268.3330949294416 -73.05230102006578 168.95021921052643 -61.959780394046 69.56734349161123 -50.867259768026244 128.8651860052048 29.654574992695906 29.482310286289664 40.74709561871573 69.56734349161123 -50.86725976802621 128.8651860052048 29.65457499269594 168.95021921052643 -61.959780394045985 228.24806172412 18.562054366676165 128.8651860052048 29.65457499269594 29.482310286289668 40.74709561871578 69.56734349161117 -50.867259768026145 -29.815532227303994 -39.77473914200637 29.48231028628963 40.74709561871576 -69.90056543262557 51.83961624473566 -29.815532227304065 -39.77473914200631 -129.19840794621922 -28.68221851598648 -69.90056543262557 51.839616244735616 -10.602722919031937 132.36145100545772 29.482310286289604 40.747095618715775 88.78015279988328 121.26893037943789 -10.602722919031894 132.36145100545775 29.48231028628971 40.747095618715825 -69.90056543262548 51.83961624473561 -29.815532227303926 -39.77473914200635 29.482310286289692 40.74709561871579 88.78015279988338 121.26893037943789 -10.602722919031827 132.36145100545772 48.69511959456184 212.8832857661799 88.78015279988338 121.26893037943798 -10.602722919031836 132.36145100545764 48.69511959456173 212.88328576617982 -50.687756124353456 223.97580639219956 -10.602722919031837 132.36145100545767 29.482310286289746 40.74709561871573 88.78015279988335 121.26893037943789 128.86518600520495 29.654574992696006 29.482310286289753 40.74709561871576 88.78015279988345 121.26893037943789 -10.602722919031736 132.36145100545772 48.69511959456191 212.88328576617985 88.78015279988347 121.26893037943798 128.86518600520503 29.65457499269603 29.482310286289845 40.747095618715804 69.5673434916114 -50.86725976802614 128.86518600520503 29.65457499269597 188.16302851879863 110.17640975341816 228.24806172412025 18.562054366676293 287.5459042377138 99.08388912739842 188.16302851879863 110.17640975341816 88.78015279988345 121.26893037943799 128.86518600520498 29.654574992696045 29.482310286289806 40.74709561871584 88.78015279988348 121.26893037943798 128.86518600520495 29.654574992695988 188.16302851879863 110.17640975341811 228.2480617241202 18.562054366676197 128.86518600520503 29.65457499269603 29.48231028628984 40.74709561871579 88.7801527998835 121.26893037943793 -10.60272291903171 132.36145100545772 29.482310286289835 40.747095618715804 88.78015279988357 121.26893037943789 -10.602722919031613 132.36145100545778 48.69511959456206 212.88328576617994 88.7801527998836 121.26893037943795 128.86518600520515 29.65457499269601 29.48231028628996 40.747095618715804 69.56734349161147 -50.867259768026116 128.86518600520517 29.654574992695984 29.482310286289955 40.74709561871572 88.78015279988354 121.26893037943786 -10.602722919031663 132.36145100545764 29.482310286289938 40.74709561871572 69.56734349161144 -50.86725976802622 128.86518600520506 29.65457499269588 168.95021921052663 -61.95978039404604 69.56734349161144 -50.867259768026244 109.65237669693303 -142.48161515476812 10.269500978017849 -131.38909452874836 50.354534183339446 -223.0034499154903 109.65237669693303 -142.48161515476815 168.9502192105267 -61.959780394046014 69.56734349161152 -50.86725976802622 128.86518600520517 29.654574992695938 168.9502192105267 -61.95978039404595 69.56734349161154 -50.867259768026145 109.65237669693309 -142.4816151547681 10.269500978017899 -131.3890945287483 69.5673434916116 -50.86725976802618 128.86518600520523 29.654574992695988 168.9502192105268 -61.95978039404591 228.2480617241204 18.562054366676232 128.8651860052052 29.654574992696006 168.95021921052674 -61.95978039404594 228.2480617241204 18.562054366676172 268.3330949294419 -73.05230102006576 168.9502192105268 -61.95978039404594 69.5673434916116 -50.86725976802618 128.8651860052052 29.654574992695963 29.48231028629003 40.74709561871579 69.5673434916116 -50.86725976802616 128.86518600520517 29.65457499269601 168.9502192105268 -61.95978039404591 228.2480617241204 18.562054366676232 128.8651860052052 29.654574992696006 29.482310286290037 40.747095618715846 69.56734349161154 -50.86725976802609 -29.81553222730365 -39.7747391420063 29.48231028629002 40.747095618715825 88.78015279988371 121.26893037943793 -10.602722919031455 132.36145100545778 48.69511959456219 212.8832857661799 88.78015279988371 121.26893037943803 128.86518600520532 29.65457499269609 29.48231028629012 40.74709561871588 69.56734349161162 -50.867259768026045 128.86518600520526 29.654574992696055 29.482310286290083 40.74709561871581 88.78015279988374 121.26893037943798 -10.602722919031455 132.36145100545775 29.48231028629009 40.747095618715846 69.5673434916116 -50.867259768026095 128.86518600520526 29.65457499269604 168.95021921052683 -61.95978039404589 69.56734349161168 -50.867259768026145 128.8651860052052 29.654574992696077 168.95021921052685 -61.959780394045815 228.24806172412048 18.562054366676367 128.86518600520526 29.654574992696055 29.482310286290073 40.74709561871581 69.56734349161168 -50.86725976802609 -29.815532227303517 -39.77473914200638 29.48231028629008 40.74709561871579 69.56734349161162 -50.86725976802614 128.86518600520526 29.654574992696 168.95021921052685 -61.95978039404592 69.56734349161168 -50.867259768026145 -29.815532227303525 -39.7747391420064 29.48231028629009 40.74709561871577 -69.9005654326251 51.83961624473555 -29.815532227303517 -39.77473914200638 10.26950097801797 -131.38909452874833 69.56734349161168 -50.86725976802623 109.65237669693325 -142.48161515476818 10.269500978018053 -131.38909452874836 -89.11337474089711 -120.29657390272862 -29.815532227303507 -39.77473914200647 -129.1984079462187 -28.68221851598666 -89.11337474089713 -120.29657390272857 -29.81553222730357 -39.7747391420064 10.269500978018034 -131.3890945287483 69.56734349161168 -50.86725976802616 -29.815532227303493 -39.77473914200639 -129.19840794621868 -28.682218515986563 -89.11337474089714 -120.2965739027285 -188.49625045981236 -109.2040532767087 -129.19840794621868 -28.682218515986573 -89.11337474089706 -120.29657390272845 -188.49625045981222 -109.20405327670875 -148.41121725449065 -200.81840866345067 -89.11337474089707 -120.29657390272853 -29.81553222730338 -39.7747391420064 -129.1984079462186 -28.682218515986584 -69.90056543262492 51.83961624473555 -29.815532227303375 -39.77473914200633 -129.19840794621857 -28.682218515986452 -89.11337474089707 -120.2965739027284 -188.49625045981222 -109.2040532767086 -129.19840794621857 -28.682218515986484 -69.90056543262496 51.8396162447357 -29.815532227303393 -39.77473914200624 29.482310286290282 40.74709561871588 -69.90056543262493 51.83961624473569 -169.2834411515401 62.93213687075543 -109.98559863794645 143.45397163147754 -209.36847435686164 154.54649225749733 -169.2834411515401 62.932136870755464 -129.1984079462186 -28.682218515986484 -69.90056543262496 51.83961624473566 -29.815532227303375 -39.774739142006275 -129.19840794621857 -28.682218515986484 -69.90056543262487 51.83961624473562 -169.28344115154002 62.932136870755464 -109.98559863794637 143.45397163147754 -69.90056543262486 51.83961624473569 -29.815532227303287 -39.77473914200622 -129.19840794621848 -28.682218515986445 -89.11337474089692 -120.2965739027284 -29.81553222730329 -39.7747391420063 -129.19840794621848 -28.682218515986413 -89.11337474089697 -120.29657390272835 -188.49625045981213 -109.20405327670852 -129.19840794621848 -28.682218515986445 -69.90056543262486 51.83961624473569 -29.815532227303308 -39.77473914200623 29.48231028629038 40.74709561871587 -69.9005654326248 51.8396162447357 -29.815532227303233 -39.77473914200622 -129.19840794621845 -28.682218515986435 -89.11337474089687 -120.2965739027284 -29.815532227303237 -39.7747391420063 29.482310286290485 40.74709561871579 -69.90056543262469 51.83961624473566 -10.602722919031015 132.36145100545775 29.482310286290495 40.74709561871584 88.7801527998841 121.26893037943802 128.86518600520566 29.654574992696112 188.16302851879936 110.17640975341828 88.78015279988418 121.26893037943802 -10.602722919031015 132.36145100545784 29.48231028629052 40.747095618715896 -69.90056543262466 51.83961624473568 -10.602722919030988 132.36145100545784 29.482310286290485 40.747095618715846 88.78015279988418 121.26893037943799 128.8651860052057 29.654574992696034 29.482310286290524 40.747095618715846 -69.90056543262466 51.83961624473561 -10.602722919031024 132.36145100545775 -109.9855986379462 143.45397163147754 -69.90056543262467 51.83961624473566 -10.602722919030967 132.36145100545775 -109.98559863794615 143.45397163147754 -50.687756124352504 223.9758063921997 -10.60272291903096 132.36145100545784 29.482310286290627 40.74709561871588 -69.90056543262455 51.83961624473566 -29.815532227303034 -39.77473914200631 29.482310286290627 40.7470956187158 -69.90056543262456 51.839616244735545 -10.602722919030935 132.3614510054577 -109.9855986379461 143.45397163147743 -69.90056543262457 51.839616244735545 -29.815532227303088 -39.774739142006375 29.482310286290573 40.74709561871572 69.56734349161208 -50.867259768026244 -29.815532227303084 -39.7747391420064 -129.19840794621825 -28.682218515986484 -89.11337474089682 -120.29657390272845 -188.49625045981202 -109.20405327670856 -129.19840794621825 -28.682218515986506 -69.90056543262462 51.839616244735645 -29.815532227303088 -39.77473914200631 29.482310286290602 40.747095618715775 -69.90056543262459 51.839616244735616 -29.815532227303006 -39.77473914200631 -129.19840794621817 -28.682218515986527 -89.11337474089667 -120.29657390272848 -29.815532227303006 -39.77473914200636 29.48231028629069 40.74709561871572 -69.90056543262446 51.839616244735566 -10.602722919030823 132.36145100545775 29.48231028629069 40.747095618715754 -69.90056543262448 51.83961624473548 -10.60272291903089 132.3614510054576 -109.98559863794608 143.4539716314774 -69.90056543262455 51.8396162447355 -29.815532227302995 -39.77473914200644 29.482310286290645 40.74709561871571 69.5673434916122 -50.86725976802621 -29.81553222730296 -39.77473914200643 29.482310286290716 40.74709561871565 -69.90056543262445 51.83961624473548 -10.60272291903079 132.3614510054576 29.482310286290726 40.74709561871571 69.56734349161226 -50.86725976802621 -29.815532227302892 -39.774739142006425 10.269500978018613 -131.38909452874833 69.56734349161226 -50.86725976802627 109.65237669693387 -142.48161515476815 10.269500978018687 -131.3890945287484 50.3545341833402 -223.0034499154903 109.65237669693384 -142.48161515476826 168.95021921052754 -61.959780394046156 69.56734349161236 -50.8672597680263 128.86518600520603 29.654574992695828 168.95021921052754 -61.95978039404606 69.56734349161238 -50.86725976802628 109.65237669693391 -142.48161515476818 10.269500978018735 -131.38909452874844 69.56734349161235 -50.867259768026294 128.8651860052059 29.654574992695927 168.95021921052748 -61.95978039404595 228.24806172412116 18.56205436667622 128.86518600520597 29.65457499269595 168.95021921052748 -61.959780394045964 228.24806172412116 18.56205436667618 268.3330949294428 -73.05230102006573 168.95021921052754 -61.95978039404597 69.56734349161236 -50.86725976802625 128.86518600520594 29.654574992695917 29.482310286290815 40.747095618715676 69.56734349161239 -50.86725976802622 128.86518600520594 29.654574992695977 168.9502192105276 -61.95978039404592 228.24806172412124 18.562054366676254 128.86518600520597 29.654574992695977 29.48231028629083 40.747095618715754 69.56734349161238 -50.867259768026145 -29.81553222730282 -39.7747391420064 29.482310286290794 40.74709561871575 88.78015279988453 121.26893037943786 -10.602722919030642 132.3614510054577 48.69511959456301 212.88328576617982 88.78015279988453 121.26893037943795 128.86518600520606 29.65457499269601 29.482310286290904 40.74709561871579 69.56734349161246 -50.867259768026145 128.86518600520606 29.654574992696 29.482310286290904 40.74709561871573 88.78015279988452 121.2689303794379 -10.602722919030644 132.3614510054577 29.482310286290893 40.747095618715754 69.56734349161239 -50.86725976802619 128.86518600520603 29.654574992695917 168.95021921052754 -61.95978039404602 69.56734349161239 -50.86725976802621 128.865186005206 29.65457499269596 168.9502192105275 -61.959780394045964 228.2480617241213 18.562054366676197 128.86518600520606 29.654574992695952 29.482310286290904 40.74709561871577 69.56734349161246 -50.86725976802618 -29.815532227302725 -39.77473914200637 29.482310286290947 40.74709561871574 69.5673434916124 -50.86725976802621 128.86518600520608 29.654574992695895 168.95021921052762 -61.95978039404602 69.56734349161243 -50.86725976802622 -29.81553222730274 -39.774739142006446 29.482310286290904 40.74709561871569 -69.90056543262425 51.839616244735474 -29.815532227302732 -39.77473914200641 -129.1984079462179 -28.68221851598651 -89.11337474089648 -120.29657390272845 -188.49625045981162 -109.2040532767086 -129.1984079462179 -28.68221851598653 -69.90056543262423 51.839616244735595 -29.81553222730276 -39.77473914200634 29.48231028629096 40.74709561871576 -69.90056543262418 51.839616244735595 -29.815532227302697 -39.77473914200633 -129.19840794621788 -28.6822185159865 -89.11337474089638 -120.29657390272843 -29.815532227302732 -39.77473914200636 29.482310286290982 40.747095618715726 -69.90056543262419 51.83961624473555 -10.602722919030526 132.36145100545772 29.482310286291 40.747095618715825 -69.90056543262418 51.839616244735545 -10.602722919030562 132.36145100545772 -109.98559863794573 143.4539716314775 -69.90056543262418 51.83961624473557 -29.815532227302697 -39.77473914200635 29.482310286290954 40.74709561871575 69.56734349161248 -50.867259768026166 -29.81553222730269 -39.77473914200637 29.482310286291032 40.74709561871572 -69.90056543262412 51.839616244735545 -10.602722919030473 132.3614510054577 29.482310286291035 40.74709561871582 69.56734349161256 -50.86725976802611 -29.81553222730259 -39.77473914200632 10.269500978018888 -131.38909452874825 69.56734349161256 -50.86725976802613 128.86518600520608 29.654574992696066 168.9502192105277 -61.959780394045815 228.24806172412138 18.562054366676325 128.86518600520614 29.654574992696087 29.482310286291025 40.74709561871589 69.56734349161255 -50.86725976802604 -29.815532227302626 -39.77473914200628 29.482310286291014 40.74709561871587 69.56734349161248 -50.86725976802607 128.86518600520617 29.654574992696062 168.9502192105277 -61.95978039404583 69.56734349161255 -50.86725976802609 -29.815532227302636 -39.77473914200635 29.482310286290947 40.747095618715804 -69.90056543262422 51.83961624473557 -29.815532227302683 -39.77473914200632 29.482310286291042 40.74709561871577 -69.90056543262412 51.83961624473559 -10.602722919030455 132.36145100545775 29.482310286291042 40.74709561871587 69.5673434916126 -50.867259768026045 -29.81553222730256 -39.77473914200628 10.269500978018954 -131.3890945287482 69.56734349161256 -50.86725976802609 -29.81553222730259 -39.77473914200632 29.482310286291053 40.74709561871582 -69.90056543262412 51.839616244735595 -29.81553222730259 -39.77473914200629 10.269500978018907 -131.38909452874822 69.56734349161256 -50.86725976802614 109.65237669693411 -142.48161515476804 10.269500978018945 -131.38909452874825"/>
</svg>