<svg viewBox="-287.8791261787288 -292.43276405019265 615.5100636217635 596.930405203115" xmlns="http://www.w3.org/2000/svg">
<style>
svg { stroke:black; stroke-width:2px; fill:none;}
</style>
<polyline points="-29.81553222730488 -39.77473914200544 29.48231028628804 40.74709561871625 -69.90056543262693 51.839616244736106 -10.602722919033395 132.36145100545835 29.482310286288065 40.747095618716344 69.56734349160956 -50.86725976802566 -29.81553222730542 -39.774739142005934 10.26950097801605 -131.38909452874793 69.56734349160956 -50.86725976802571 -29.81553222730543 -39.77473914200596 29.4823102862881 40.747095618716294 -69.90056543262693 51.83961624473609 -29.81553222730543 -39.774739142005934 10.269500978016014 -131.389094528748 69.56734349160956 -50.8672597680258 109.65237669693104 -142.4816151547678 10.269500978016053 -131.389094528748 69.56734349160956 -50.86725976802577 109.65237669693099 -142.48161515476778 168.95021921052455 -61.959780394045545 69.56734349160956 -50.867259768025775 -29.81553222730543 -39.77473914200596 10.269500978016014 -131.389094528748 -89.11337474089899 -120.29657390272821 -29.81553222730544 -39.774739142006 10.26950097801599 -131.38909452874805 69.56734349160955 -50.867259768025846 109.65237669693099 -142.48161515476784 10.269500978016046 -131.38909452874802 -89.11337474089896 -120.2965739027283 -29.815532227305436 -39.77473914200607 -129.19840794622044 -28.682218515986246 -89.11337474089895 -120.29657390272828 -49.02834153557741 -211.91092928947026 -148.41121725449244 -200.8184086634505 -108.32618404917093 -292.43276405019265 -49.02834153557743 -211.91092928947026 10.269500978016088 -131.38909452874802 -89.1133747408989 -120.2965739027283 -29.81553222730544 -39.774739142006005 10.26950097801606 -131.389094528748 -89.11337474089892 -120.29657390272816 -49.028341535577475 -211.91092928947018 -148.4112172544925 -200.81840866345038 -89.11337474089893 -120.29657390272821 -29.815532227305436 -39.77473914200597 10.26950097801605 -131.389094528748 69.56734349160956 -50.86725976802577 -29.815532227305436 -39.774739142006 10.26950097801601 -131.38909452874802 69.56734349160955 -50.867259768025846 109.65237669693101 -142.48161515476787 10.269500978016055 -131.38909452874807 -89.11337474089896 -120.29657390272834 -29.815532227305418 -39.774739142006084 -129.1984079462204 -28.68221851598627 -89.11337474089893 -120.29657390272828 -29.815532227305482 -39.77473914200603 10.269500978016042 -131.389094528748 69.56734349160956 -50.867259768025775 -29.815532227305436 -39.774739142006005 -129.19840794622044 -28.682218515986197 -89.11337474089899 -120.29657390272821 -188.496250459814 -109.20405327670842 -129.19840794622039 -28.682218515986204 -228.58128366513537 -17.589697889966512 -169.28344115154195 62.93213687075576 -268.666316870457 74.0246574967755 -228.58128366513543 -17.589697889966462 -188.49625045981395 -109.2040532767085 -129.19840794622044 -28.682218515986246 -89.1133747408989 -120.29657390272824 -188.49625045981392 -109.2040532767085 -129.19840794622033 -28.682218515986293 -228.58128366513535 -17.589697889966452 -169.28344115154178 62.93213687075578 -129.19840794622033 -28.682218515986236 -89.11337474089886 -120.29657390272828 -188.49625045981387 -109.20405327670845 -148.4112172544924 -200.8184086634505 -89.11337474089885 -120.29657390272831 -188.49625045981387 -109.20405327670841 -148.41121725449247 -200.81840866345047 -247.79409297340754 -189.7258880374306 -188.49625045981387 -109.20405327670841 -129.19840794622027 -28.68221851598621 -89.11337474089886 -120.29657390272828 -29.815532227305255 -39.77473914200605 -129.19840794622024 -28.682218515986214 -89.11337474089875 -120.29657390272826 -188.49625045981378 -109.20405327670846 -148.41121725449233 -200.81840866345047 -89.11337474089876 -120.29657390272826 -29.8155322273052 -39.77473914200603 -129.1984079462202 -28.682218515986225 -69.90056543262664 51.839616244736014 -29.815532227305198 -39.77473914200599 10.269500978016165 -131.38909452874807 69.56734349160978 -50.86725976802588 109.65237669693119 -142.48161515476792 10.269500978016207 -131.38909452874807 -89.11337474089879 -120.29657390272824 -29.815532227305216 -39.77473914200603 -129.1984079462202 -28.68221851598617 -89.11337474089879 -120.29657390272824 -29.815532227305255 -39.77473914200599 10.269500978016191 -131.38909452874802 69.56734349160976 -50.867259768025825 -29.815532227305226 -39.774739142006005 -129.19840794622024 -28.682218515986175 -89.11337474089879 -120.2965739027282 -188.49625045981378 -109.20405327670842 -129.19840794622024 -28.682218515986197 -89.11337474089873 -120.2965739027282 -188.49625045981375 -109.20405327670842 -148.41121725449233 -200.81840866345047 -89.11337474089876 -120.29657390272824 -29.8155322273052 -39.77473914200603 -129.1984079462202 -28.682218515986225 -69.90056543262666 51.839616244736014 -29.815532227305226 -39.774739142005984 -129.19840794622021 -28.682218515986158 -89.11337474089878 -120.29657390272816 -188.49625045981378 -109.2040532767084 -129.1984079462202 -28.68221851598617 -69.90056543262669 51.83961624473609 -29.815532227305244 -39.77473914200592 29.48231028628834 40.74709561871631 -69.90056543262669 51.839616244736106 -10.602722919033186 132.36145100545838 29.48231028628832 40.747095618716386 88.78015279988185 121.26893037943863 -10.602722919033166 132.3614510054584 -109.98559863794814 143.4539716314782 -69.9005654326267 51.839616244736185 -169.2834411515417 62.93213687075598 -109.98559863794813 143.4539716314782 -69.90056543262669 51.83961624473616 -10.602722919033154 132.3614510054584 29.48231028628835 40.74709561871638 -69.90056543262665 51.83961624473616 -169.28344115154164 62.93213687075589 -109.98559863794814 143.45397163147814 -209.3684743568632 154.54649225749793 -169.2834411515417 62.932136870755905 -109.98559863794806 143.45397163147805 -209.36847435686315 154.54649225749796 -150.07063184326952 235.06832701822017 -109.98559863794807 143.4539716314781 -69.90056543262662 51.83961624473612 -169.2834411515417 62.93213687075594 -129.19840794622024 -28.682218515986094 -69.90056543262668 51.83961624473612 -169.28344115154167 62.93213687075585 -109.98559863794814 143.4539716314781 -209.3684743568632 154.54649225749793 -169.2834411515417 62.932136870755876 -129.19840794622021 -28.682218515986158 -69.90056543262669 51.83961624473609 -29.8155322273052 -39.774739142005934 -129.1984079462202 -28.682218515986158 -228.5812836651352 -17.589697889966242 -188.49625045981384 -109.20405327670831 -287.8791261787288 -98.11153265068843 -228.5812836651352 -17.589697889966263 -169.2834411515417 62.93213687075595 -129.19840794622021 -28.682218515986083 -69.9005654326266 51.83961624473609 -169.28344115154164 62.93213687075595 -129.1984079462201 -28.682218515986094 -228.58128366513515 -17.589697889966285 -188.49625045981372 -109.20405327670835 -129.19840794622016 -28.6822185159861 -69.9005654326266 51.83961624473609 -169.28344115154158 62.932136870755905 -109.98559863794807 143.4539716314781 -69.90056543262664 51.83961624473608 -169.28344115154164 62.932136870755805 -109.98559863794813 143.45397163147808 -209.3684743568632 154.54649225749785 -169.2834411515416 62.932136870755826 -129.1984079462202 -28.682218515986225 -69.90056543262664 51.83961624473596 -29.815532227305148 -39.77473914200606 -129.19840794622013 -28.68221851598629 -69.90056543262654 51.8396162447359 -169.28344115154155 62.93213687075576 -109.98559863794799 143.45397163147797 -69.90056543262655 51.8396162447359 -29.81553222730506 -39.77473914200612 -129.19840794622004 -28.682218515986335 -89.11337474089864 -120.29657390272831 -29.815532227305088 -39.774739142006084 10.269500978016278 -131.38909452874816 69.56734349160992 -50.86725976802598 109.6523766969313 -142.48161515476804 10.269500978016323 -131.38909452874816 -89.11337474089866 -120.29657390272838 -29.815532227305138 -39.774739142006155 -129.19840794622016 -28.682218515986325 -89.11337474089868 -120.29657390272835 -29.815532227305148 -39.77473914200611 10.269500978016278 -131.3890945287481 69.56734349160986 -50.867259768025896 -29.81553222730513 -39.774739142006105 -129.19840794622013 -28.682218515986257 -89.11337474089872 -120.29657390272831 -188.49625045981375 -109.20405327670849 -129.19840794622016 -28.682218515986282 -89.11337474089866 -120.29657390272828 -188.4962504598137 -109.20405327670854 -148.41121725449221 -200.81840866345047 -89.1133747408987 -120.2965739027283 -29.815532227305084 -39.77473914200608 -129.1984079462201 -28.682218515986243 -69.90056543262652 51.839616244736 -29.815532227305095 -39.77473914200605 -129.19840794622007 -28.68221851598614 -89.11337474089872 -120.2965739027282 -188.49625045981372 -109.20405327670836 -129.19840794622013 -28.682218515986197 -69.90056543262659 51.83961624473608 -29.815532227305148 -39.77473914200595 29.482310286288428 40.74709561871627 -69.90056543262658 51.83961624473609 -169.28344115154158 62.932136870755826 -109.98559863794806 143.45397163147805 -209.36847435686306 154.5464922574979 -169.2834411515416 62.93213687075587 -129.19840794622016 -28.682218515986204 -69.90056543262662 51.839616244736014 -29.81553222730512 -39.77473914200602 -129.19840794622016 -28.682218515986232 -69.90056543262654 51.839616244735964 -169.28344115154152 62.9321368707558 -109.98559863794799 143.45397163147805 -69.90056543262654 51.839616244736035 -29.815532227305052 -39.774739142006 -129.19840794622004 -28.68221851598622 -89.11337474089864 -120.29657390272824 -29.81553222730507 -39.77473914200603 -129.19840794622007 -28.68221851598613 -89.11337474089868 -120.29657390272821 -188.4962504598137 -109.20405327670835 -129.19840794622004 -28.682218515986175 -69.90056543262654 51.83961624473607 -29.815532227305095 -39.77473914200597 29.4823102862885 40.747095618716216 -69.90056543262648 51.83961624473606 -29.815532227305013 -39.77473914200597 -129.19840794622002 -28.68221851598619 -89.11337474089856 -120.29657390272821 -29.815532227305024 -39.77473914200599 29.482310286288534 40.747095618716195 -69.90056543262645 51.83961624473601 -10.602722919032912 132.36145100545826 29.48231028628853 40.7470956187162 69.56734349161009 -50.86725976802579 -29.815532227304907 -39.774739142006084 10.26950097801664 -131.3890945287481 69.56734349161009 -50.86725976802579 128.86518600520358 29.654574992696464 29.482310286288595 40.74709561871619 88.78015279988209 121.26893037943853 128.8651860052036 29.654574992696517 29.4823102862886 40.747095618716244 69.56734349161013 -50.86725976802575 -29.81553222730489 -39.77473914200607 29.482310286288588 40.74709561871622 88.78015279988198 121.26893037943857 128.86518600520355 29.654574992696602 188.163028518797 110.17640975341895 88.78015279988202 121.26893037943857 128.86518600520355 29.65457499269657 188.16302851879698 110.17640975341884 228.24806172411857 18.56205436667685 128.86518600520355 29.654574992696535 29.482310286288552 40.747095618716195 88.78015279988196 121.26893037943847 -10.602722919033035 132.3614510054582 29.482310286288534 40.747095618716195 88.78015279988192 121.26893037943852 128.86518600520355 29.65457499269656 188.16302851879692 110.17640975341884 88.7801527998819 121.26893037943847 -10.6027229190331 132.3614510054582 29.482310286288474 40.7470956187162 -69.90056543262655 51.83961624473584 -10.602722919033107 132.36145100545818 48.695119594560424 212.88328576618045 -50.68775612435457 223.97580639220016 8.610086389238885 304.4976411529224 48.695119594560424 212.88328576618045 88.78015279988202 121.26893037943854 -10.602722919032999 132.36145100545818 29.482310286288552 40.74709561871616 88.78015279988202 121.26893037943852 -10.602722919033013 132.36145100545812 48.695119594560424 212.88328576618045 -50.68775612435457 223.97580639220016 -10.60272291903303 132.36145100545818 29.482310286288534 40.74709561871615 88.78015279988202 121.26893037943852 128.8651860052036 29.654574992696492 29.482310286288588 40.74709561871614 88.78015279988196 121.26893037943852 128.8651860052036 29.654574992696546 188.163028518797 110.17640975341887 88.78015279988202 121.26893037943852 -10.602722919033011 132.36145100545818 29.482310286288577 40.7470956187162 -69.90056543262644 51.83961624473583 -10.60272291903303 132.36145100545818 29.482310286288534 40.74709561871615 88.78015279988202 121.26893037943852 128.86518600520358 29.654574992696524 29.482310286288595 40.74709561871618 -69.90056543262644 51.83961624473576 -10.602722919033058 132.36145100545812 -109.98559863794803 143.45397163147774 -69.90056543262642 51.839616244735794 -169.2834411515414 62.932136870755535 -129.19840794621993 -28.682218515986467 -228.58128366513492 -17.58969788996676 -169.28344115154144 62.93213687075553 -109.98559863794803 143.45397163147786 -69.90056543262644 51.839616244735865 -10.602722919032972 132.3614510054582 -109.98559863794799 143.45397163147786 -69.90056543262635 51.839616244735886 -169.28344115154138 62.93213687075555 -129.19840794621982 -28.682218515986442 -69.90056543262634 51.839616244735886 -10.60272291903286 132.36145100545815 -109.98559863794786 143.4539716314779 -50.68775612435436 223.97580639220016 -10.60272291903286 132.36145100545824 -109.98559863794786 143.45397163147786 -50.687756124354415 223.97580639220016 -150.07063184326952 235.0683270182198 -109.98559863794786 143.45397163147786 -69.90056543262634 51.83961624473582 -10.602722919032873 132.36145100545818 29.48231028628873 40.74709561871617 -69.90056543262628 51.83961624473582 -10.602722919032797 132.36145100545812 -109.98559863794779 143.45397163147783 -50.68775612435434 223.97580639220016 -10.602722919032757 132.3614510054582 29.482310286288822 40.747095618716244 -69.90056543262618 51.839616244735886 -29.815532227304637 -39.774739142006105 29.48231028628884 40.74709561871623 88.78015279988219 121.26893037943859 128.86518600520384 29.65457499269662 188.1630285187973 110.17640975341892 88.78015279988225 121.26893037943857 -10.602722919032766 132.36145100545826 29.48231028628879 40.74709561871625 -69.90056543262622 51.839616244735915 -10.602722919032782 132.3614510054582 29.48231028628876 40.74709561871621 88.78015279988225 121.26893037943857 128.86518600520384 29.65457499269656 29.482310286288822 40.74709561871622 -69.9005654326262 51.83961624473581 -10.602722919032805 132.36145100545815 -109.98559863794782 143.45397163147783 -69.9005654326262 51.83961624473582 -10.602722919032711 132.36145100545812 -109.98559863794775 143.45397163147783 -50.68775612435431 223.97580639220016 -10.602722919032757 132.36145100545815 29.48231028628884 40.747095618716195 -69.90056543262617 51.83961624473584 -29.81553222730462 -39.77473914200615 29.48231028628885 40.747095618716166 -69.90056543262617 51.8396162447358 -10.602722919032722 132.36145100545812 -109.98559863794775 143.45397163147783 -69.90056543262617 51.83961624473584 -29.815532227304633 -39.774739142006176 29.482310286288833 40.747095618716145 69.56734349161046 -50.867259768025825 -29.815532227304555 -39.774739142006176 10.269500978016861 -131.38909452874822 69.56734349161042 -50.86725976802595 109.65237669693192 -142.48161515476795 10.269500978016893 -131.3890945287482 -89.11337474089811 -120.29657390272847 -29.815532227304615 -39.7747391420062 -129.19840794621962 -28.682218515986406 -89.11337474089812 -120.29657390272844 -29.815532227304598 -39.77473914200617 10.269500978016872 -131.38909452874822 69.56734349161046 -50.867259768025974 -29.81553222730456 -39.77473914200618 -129.19840794621953 -28.682218515986374 -89.11337474089812 -120.2965739027284 -188.49625045981313 -109.20405327670863 -129.19840794621953 -28.682218515986392 -89.11337474089805 -120.29657390272843 -188.49625045981313 -109.20405327670868 -148.41121725449162 -200.8184086634507 -89.11337474089808 -120.29657390272847 -29.81553222730452 -39.77473914200629 -129.1984079462195 -28.682218515986474 -69.90056543262597 51.83961624473577 -29.81553222730453 -39.77473914200628 -129.19840794621953 -28.682218515986417 -89.11337474089811 -120.29657390272847 -188.49625045981313 -109.20405327670868 -129.19840794621953 -28.682218515986456 -69.90056543262604 51.83961624473583 -29.81553222730454 -39.77473914200619 29.482310286289003 40.74709561871605 -69.900565432626 51.83961624473582 -169.28344115154098 62.93213687075551 -109.98559863794753 143.45397163147783 -209.36847435686255 154.54649225749753 -169.283441151541 62.93213687075551 -129.19840794621953 -28.68221851598652 -69.90056543262601 51.83961624473575 -29.815532227304477 -39.77473914200626 -129.19840794621945 -28.68221851598651 -69.90056543262592 51.839616244735716 -169.2834411515409 62.93213687075553 -109.9855986379474 143.4539716314778 -69.90056543262592 51.83961624473574 -29.815532227304413 -39.774739142006275 -129.19840794621942 -28.68221851598652 -89.11337474089794 -120.29657390272853 -29.815532227304413 -39.774739142006304 -129.19840794621942 -28.682218515986452 -89.11337474089798 -120.2965739027285 -188.49625045981298 -109.20405327670872 -129.19840794621942 -28.682218515986488 -69.90056543262587 51.839616244735794 -29.815532227304406 -39.77473914200625 29.482310286289167 40.74709561871598 -69.90056543262583 51.83961624473578 -29.815532227304345 -39.77473914200623 -129.19840794621933 -28.68221851598645 -89.11337474089791 -120.29657390272848 -29.81553222730436 -39.77473914200626 29.48231028628925 40.747095618715946 -69.90056543262574 51.839616244735794 -10.602722919032189 132.36145100545804 29.482310286289238 40.747095618715974 88.78015279988267 121.26893037943829 128.8651860052042 29.654574992696247 188.16302851879774 110.1764097534185 88.78015279988276 121.26893037943825 -10.602722919032235 132.36145100545806 29.482310286289206 40.747095618716024 -69.9005654326258 51.83961624473578 -10.602722919032278 132.36145100545804 29.482310286289124 40.74709561871596 88.78015279988267 121.26893037943813 128.86518600520415 29.654574992696126 29.48231028628915 40.74709561871593 -69.90056543262587 51.83961624473571 -10.602722919032292 132.36145100545795 -109.98559863794732 143.4539716314778 -69.90056543262587 51.83961624473573 -10.602722919032228 132.3614510054579 -109.98559863794725 143.45397163147777 -50.68775612435365 223.97580639219998 -10.602722919032235 132.36145100545792 29.482310286289238 40.7470956187159 -69.90056543262575 51.8396162447357 -29.815532227304345 -39.77473914200633 29.48231028628922 40.74709561871587 -69.90056543262578 51.83961624473564 -10.602722919032235 132.3614510054579 -109.98559863794725 143.45397163147769 -69.9005654326258 51.839616244735645 -29.815532227304413 -39.77473914200642 29.482310286289202 40.747095618715775 69.56734349161061 -50.867259768026216 -29.815532227304363 -39.7747391420064 -129.19840794621936 -28.68221851598652 -89.11337474089795 -120.29657390272858 -188.49625045981298 -109.20405327670878 -129.1984079462194 -28.682218515986566 -69.90056543262588 51.83961624473566 -29.81553222730444 -39.77473914200638 29.48231028628915 40.74709561871581 -69.90056543262584 51.839616244735645 -29.815532227304363 -39.77473914200638 -129.19840794621936 -28.682218515986598 -89.11337474089791 -120.29657390272862 -29.815532227304377 -39.7747391420064 29.48231028628923 40.74709561871581 -69.90056543262575 51.839616244735645 -10.602722919032193 132.3614510054579 29.482310286289238 40.747095618715875 -69.90056543262575 51.8396162447356 -10.602722919032255 132.3614510054579 -109.98559863794726 143.45397163147769 -69.90056543262578 51.83961624473564 -29.81553222730431 -39.77473914200641 29.48231028628922 40.74709561871587 69.56734349161073 -50.86725976802616 -29.815532227304274 -39.77473914200641 29.482310286289273 40.747095618715825 -69.90056543262574 51.839616244735595 -10.602722919032205 132.3614510054579 29.482310286289273 40.74709561871585 69.56734349161076 -50.86725976802618 -29.815532227304228 -39.774739142006375 10.2695009780172 -131.38909452874842 69.56734349161076 -50.86725976802619 -29.81553222730425 -39.77473914200654 29.482310286289202 40.74709561871577 -69.9005654326258 51.83961624473546 -29.815532227304256 -39.77473914200653 10.26950097801727 -131.38909452874853 69.56734349161073 -50.86725976802625 109.65237669693225 -142.48161515476824 10.269500978017273 -131.3890945287485 69.56734349161081 -50.86725976802628 -29.815532227304193 -39.774739142006496 29.482310286289326 40.747095618715754 69.56734349161081 -50.86725976802628 109.65237669693231 -142.48161515476826 10.26950097801732 -131.38909452874853 50.35453418333876 -223.00344991549056 109.65237669693231 -142.48161515476832 10.269500978017314 -131.38909452874844 50.354534183338714 -223.00344991549045 -49.02834153557631 -211.91092928947066 10.269500978017293 -131.38909452874847 69.5673434916108 -50.86725976802626 109.65237669693228 -142.4816151547683 168.95021921052583 -61.959780394046106 69.56734349161084 -50.86725976802624 109.65237669693235 -142.4816151547683 10.269500978017359 -131.38909452874847 50.35453418333879 -223.00344991549053 109.65237669693235 -142.48161515476835 168.95021921052592 -61.95978039404616 69.56734349161094 -50.86725976802635 128.86518600520446 29.654574992695892 168.95021921052594 -61.95978039404616 209.03525241584725 -153.5741357807882 268.33309492944085 -73.05230102006603 308.41812813476224 -164.6666564068081 209.0352524158473 -153.57413578078823 109.65237669693235 -142.48161515476838 168.95021921052594 -61.959780394046184 69.56734349161093 -50.86725976802628 109.65237669693231 -142.48161515476832 168.95021921052592 -61.95978039404613 209.03525241584728 -153.57413578078817 268.3330949294409 -73.05230102006598 168.95021921052594 -61.95978039404612 69.56734349161091 -50.86725976802623 109.65237669693235 -142.4816151547683 10.269500978017334 -131.38909452874847 69.56734349161094 -50.86725976802626 109.65237669693242 -142.48161515476824 10.269500978017412 -131.38909452874847 50.35453418333887 -223.00344991549053 109.6523766969324 -142.4816151547683 168.950219210526 -61.9597803940461 69.56734349161098 -50.86725976802628 128.86518600520455 29.654574992695974 168.950219210526 -61.95978039404605 69.567343491611 -50.86725976802619 109.6523766969324 -142.48161515476824 10.269500978017412 -131.38909452874842 69.567343491611 -50.86725976802621 128.86518600520455 29.654574992696034 168.950219210526 -61.95978039404603 228.24806172411957 18.562054366676172 128.8651860052046 29.654574992696034 188.16302851879826 110.17640975341818 88.78015279988327 121.26893037943807 148.07799531347686 201.79076514016032 188.16302851879826 110.17640975341824 228.24806172411976 18.562054366676204 128.86518600520472 29.654574992696016 168.9502192105261 -61.95978039404606 228.2480617241197 18.562054366676136 128.86518600520472 29.65457499269588 188.16302851879823 110.17640975341813 88.78015279988318 121.26893037943792 128.86518600520466 29.654574992695913 168.95021921052606 -61.95978039404616 228.24806172411962 18.56205436667604 268.3330949294411 -73.05230102006598 168.95021921052606 -61.959780394046184 228.24806172411957 18.56205436667606 268.3330949294411 -73.05230102006598 327.6309374430346 7.469533740656199 228.2480617241197 18.56205436667606 128.86518600520472 29.654574992695974 168.9502192105261 -61.959780394046106 69.56734349161107 -50.86725976802627 128.86518600520466 29.65457499269593 168.950219210526 -61.95978039404613 228.24806172411965 18.562054366676048 268.3330949294411 -73.05230102006598 168.9502192105261 -61.95978039404613 69.56734349161107 -50.86725976802632 128.86518600520458 29.654574992695892 29.482310286289625 40.74709561871577 69.56734349161101 -50.86725976802629 109.65237669693252 -142.4816151547683 10.269500978017525 -131.38909452874853 50.35453418333902 -223.00344991549056 109.65237669693254 -142.48161515476832 168.9502192105261 -61.95978039404612 69.56734349161113 -50.86725976802632 128.86518600520466 29.65457499269593 168.9502192105261 -61.95978039404612 69.56734349161114 -50.86725976802624 109.65237669693252 -142.4816151547683 10.269500978017511 -131.38909452874844 69.56734349161111 -50.86725976802627 128.8651860052046 29.654574992695974 168.95021921052603 -61.95978039404603 228.24806172411957 18.562054366676172 128.8651860052046 29.654574992696006 168.95021921052603 -61.95978039404608 228.24806172411962 18.56205436667614 268.3330949294411 -73.05230102006588 168.95021921052606 -61.95978039404608 69.56734349161106 -50.8672597680263 128.86518600520458 29.65457499269593 29.482310286289625 40.74709561871579 69.56734349161107 -50.86725976802627 128.8651860052046 29.654574992695974 168.9502192105261 -61.95978039404605 228.24806172411957 18.562054366676172 128.8651860052046 29.654574992695974 29.48231028628963 40.74709561871584 69.56734349161101 -50.867259768026216 -29.815532227303958 -39.7747391420064 29.482310286289582 40.74709561871582 -69.90056543262541 51.83961624473571 -29.815532227304026 -39.774739142006354 -129.19840794621902 -28.682218515986523 -69.90056543262543 51.83961624473569 -10.602722919031862 132.3614510054579 29.482310286289557 40.747095618715825 88.78015279988317 121.26893037943806 -10.602722919031814 132.3614510054579 29.48231028628967 40.74709561871588 -69.90056543262534 51.83961624473566 -29.815532227303887 -39.77473914200638 29.482310286289653 40.747095618715846 88.78015279988324 121.26893037943802 -10.602722919031757 132.3614510054579 48.69511959456182 212.8832857661801 88.78015279988325 121.26893037943812 -10.602722919031752 132.3614510054578 48.695119594561724 212.8832857661801 -50.68775612435328 223.97580639219987 -10.60272291903177 132.3614510054578 29.4823102862897 40.74709561871579 88.78015279988321 121.26893037943803 128.86518600520472 29.654574992696052 29.482310286289714 40.74709561871581 88.78015279988333 121.26893037943799 -10.602722919031654 132.3614510054579 48.695119594561895 212.88328576618008 88.78015279988333 121.26893037943807 128.86518600520483 29.654574992696055 29.48231028628981 40.74709561871586 69.56734349161124 -50.867259768026216 128.8651860052048 29.654574992696 188.1630285187983 110.17640975341828 228.2480617241198 18.5620543666763 287.5459042377133 99.08388912739852 188.1630285187983 110.17640975341828 88.78015279988331 121.26893037943813 128.86518600520475 29.654574992696077 29.48231028628977 40.74709561871589 88.78015279988335 121.26893037943807 128.86518600520472 29.65457499269602 188.1630285187983 110.17640975341823 228.2480617241198 18.562054366676215 128.86518600520483 29.654574992696055 29.48231028628981 40.747095618715846 88.78015279988335 121.26893037943806 -10.602722919031635 132.3614510054579 29.482310286289795 40.74709561871586 88.78015279988344 121.26893037943806 -10.602722919031534 132.36145100545795 48.69511959456205 212.8832857661802 88.78015279988345 121.2689303794381 128.86518600520492 29.65457499269604 29.48231028628992 40.74709561871584 69.56734349161134 -50.86725976802618 128.8651860052049 29.654574992696016 29.48231028628991 40.747095618715754 88.7801527998834 121.26893037943799 -10.602722919031587 132.3614510054578 29.48231028628989 40.74709561871576 69.56734349161131 -50.86725976802627 128.86518600520486 29.654574992695903 168.9502192105263 -61.959780394046106 69.5673434916113 -50.86725976802629 109.65237669693278 -142.48161515476826 10.269500978017787 -131.38909452874853 50.354534183339254 -223.00344991549053 109.65237669693275 -142.4816151547683 168.95021921052637 -61.9597803940461 69.56734349161138 -50.86725976802628 128.86518600520495 29.654574992695974 168.95021921052637 -61.95978039404605 69.5673434916114 -50.86725976802621 109.65237669693285 -142.48161515476824 10.269500978017842 -131.38909452874844 69.56734349161145 -50.86725976802623 128.865186005205 29.654574992696016 168.9502192105264 -61.95978039404599 228.24806172412 18.562054366676243 128.865186005205 29.65457499269603 168.9502192105264 -61.959780394046014 228.24806172412 18.562054366676183 268.3330949294414 -73.05230102006585 168.95021921052646 -61.95978039404603 69.56734349161144 -50.86725976802624 128.86518600520498 29.654574992695995 29.482310286289987 40.74709561871584 69.56734349161145 -50.86725976802621 128.86518600520498 29.65457499269604 168.9502192105264 -61.95978039404599 228.24806172412 18.56205436667624 128.865186005205 29.65457499269603 29.48231028628999 40.74709561871589 69.5673434916114 -50.86725976802616 -29.815532227303603 -39.77473914200635 29.482310286289973 40.747095618715875 88.78015279988361 121.26893037943812 -10.60272291903139 132.36145100545798 48.69511959456217 212.88328576618017 88.78015279988362 121.2689303794382 128.86518600520506 29.654574992696116 29.482310286290083 40.74709561871592 69.5673434916115 -50.8672597680261 128.86518600520503 29.65457499269608 29.48231028629005 40.74709561871585 88.78015279988361 121.26893037943813 -10.60272291903138 132.36145100545792 29.48231028629006 40.74709561871588 69.56734349161145 -50.86725976802616 128.86518600520503 29.654574992696077 168.95021921052654 -61.959780394045964 69.56734349161155 -50.867259768026194 128.865186005205 29.65457499269611 168.95021921052654 -61.959780394045914 228.24806172412008 18.562054366676385 128.86518600520503 29.65457499269608 29.482310286290033 40.74709561871586 69.56734349161155 -50.867259768026145 -29.81553222730347 -39.77473914200643 29.482310286290033 40.747095618715846 69.5673434916115 -50.867259768026194 128.86518600520503 29.65457499269603 168.95021921052654 -61.95978039404601 69.56734349161154 -50.867259768026194 -29.81553222730347 -39.77473914200645 29.482310286290044 40.74709561871581 -69.90056543262496 51.839616244735616 -29.81553222730347 -39.774739142006425 10.269500978017899 -131.38909452874853 69.56734349161152 -50.8672597680263 109.65237669693302 -142.48161515476832 10.269500978017991 -131.38909452874853 -89.113374740897 -120.29657390272877 -29.81553222730346 -39.77473914200651 -129.19840794621845 -28.682218515986694 -89.11337474089699 -120.29657390272871 -29.815532227303525 -39.77473914200645 10.26950097801797 -131.38909452874847 69.56734349161154 -50.867259768026216 -29.815532227303446 -39.774739142006425 -129.19840794621842 -28.682218515986598 -89.11337474089703 -120.29657390272865 -188.496250459812 -109.20405327670883 -129.19840794621842 -28.6822185159866 -89.11337474089693 -120.29657390272861 -188.49625045981196 -109.20405327670886 -148.41121725449045 -200.81840866345092 -89.11337474089694 -120.29657390272867 -29.81553222730334 -39.77473914200645 -129.19840794621837 -28.682218515986612 -69.90056543262476 51.83961624473562 -29.815532227303336 -39.774739142006375 -129.19840794621834 -28.682218515986488 -89.11337474089694 -120.29657390272854 -188.49625045981196 -109.20405327670873 -129.19840794621834 -28.68221851598651 -69.90056543262483 51.83961624473575 -29.81553222730334 -39.77473914200627 29.48231028629023 40.74709561871593 -69.90056543262479 51.83961624473575 -169.2834411515398 62.932136870755514 -109.98559863794623 143.45397163147774 -209.3684743568612 154.5464922574976 -169.2834411515398 62.932136870755556 -129.19840794621837 -28.682218515986513 -69.90056543262482 51.839616244735716 -29.815532227303322 -39.774739142006325 -129.19840794621834 -28.68221851598651 -69.90056543262473 51.83961624473569 -169.28344115153973 62.93213687075555 -109.98559863794615 143.45397163147774 -69.90056543262472 51.83961624473576 -29.815532227303233 -39.77473914200627 -129.19840794621825 -28.682218515986477 -89.1133747408968 -120.29657390272853 -29.81553222730324 -39.77473914200635 -129.19840794621828 -28.68221851598643 -89.11337474089686 -120.2965739027285 -188.49625045981188 -109.20405327670863 -129.19840794621825 -28.682218515986477 -69.90056543262472 51.83961624473576 -29.81553222730326 -39.77473914200628 29.48231028629034 40.74709561871592 -69.90056543262466 51.83961624473577 -29.81553222730318 -39.77473914200627 -129.1984079462182 -28.682218515986467 -89.11337474089675 -120.29657390272854 -29.81553222730319 -39.77473914200634 29.482310286290446 40.74709561871583 -69.90056543262456 51.839616244735716 -10.602722919030958 132.36145100545795 29.48231028629045 40.74709561871589 88.78015279988396 121.26893037943816 128.86518600520546 29.654574992696137 188.16302851879902 110.1764097534184 88.78015279988405 121.26893037943816 -10.602722919030965 132.36145100545804 29.482310286290474 40.74709561871594 -69.90056543262453 51.83961624473575 -10.60272291903093 132.361451005458 29.48231028629044 40.7470956187159 88.78015279988406 121.26893037943813 128.86518600520546 29.654574992696066 29.482310286290485 40.7470956187159 -69.9005654326245 51.83961624473569 -10.602722919030976 132.36145100545798 -109.98559863794598 143.45397163147777 -69.9005654326245 51.839616244735716 -10.602722919030912 132.36145100545792 -109.98559863794588 143.45397163147777 -50.68775612435236 223.9758063922 -10.602722919030905 132.361451005458 29.482310286290588 40.747095618715925 -69.90056543262442 51.83961624473573 -29.815532227302995 -39.77473914200636 29.48231028629058 40.74709561871584 -69.90056543262443 51.83961624473562 -10.602722919030866 132.36145100545787 -109.98559863794587 143.45397163147769 -69.90056543262443 51.83961624473562 -29.815532227303045 -39.774739142006425 29.482310286290527 40.74709561871577 69.56734349161196 -50.86725976802632 -29.815532227303038 -39.77473914200645 -129.19840794621803 -28.68221851598651 -89.11337474089667 -120.29657390272862 -188.4962504598117 -109.20405327670869 -129.198407946218 -28.68221851598653 -69.90056543262446 51.8396162447357 -29.815532227303045 -39.77473914200636 29.482310286290563 40.74709561871583 -69.90056543262443 51.83961624473569 -29.815532227302953 -39.774739142006354 -129.19840794621794 -28.68221851598654 -89.11337474089655 -120.29657390272867 -29.81553222730296 -39.77473914200641 29.48231028629065 40.747095618715754 -69.90056543262433 51.83961624473564 -10.602722919030754 132.3614510054579 29.48231028629066 40.74709561871581 -69.90056543262436 51.839616244735545 -10.602722919030821 132.3614510054578 -109.98559863794587 143.4539716314776 -69.90056543262439 51.83961624473557 -29.815532227302953 -39.77473914200649 29.482310286290605 40.74709561871575 69.56734349161209 -50.86725976802629 -29.815532227302906 -39.77473914200649 29.482310286290684 40.7470956187157 -69.9005654326243 51.83961624473555 -10.60272291903073 132.3614510054578 29.482310286290694 40.747095618715754 69.56734349161215 -50.86725976802629 -29.815532227302842 -39.77473914200649 10.269500978018575 -131.38909452874853 69.56734349161214 -50.86725976802635 109.65237669693366 -142.48161515476838 10.26950097801864 -131.3890945287486 50.35453418334006 -223.00344991549065 109.65237669693362 -142.48161515476843 168.95021921052725 -61.959780394046255 69.56734349161226 -50.867259768026386 128.8651860052058 29.654574992695856 168.95021921052725 -61.95978039404617 69.56734349161225 -50.86725976802635 109.65237669693369 -142.48161515476838 10.269500978018707 -131.38909452874864 69.56734349161222 -50.867259768026365 128.86518600520574 29.654574992695952 168.9502192105272 -61.95978039404606 228.2480617241208 18.562054366676218 128.86518600520574 29.654574992695963 168.9502192105272 -61.95978039404606 228.2480617241208 18.562054366676175 268.33309492944227 -73.05230102006587 168.95021921052725 -61.95978039404607 69.56734349161225 -50.86725976802633 128.86518600520574 29.65457499269594 29.482310286290776 40.74709561871573 69.56734349161226 -50.8672597680263 128.86518600520574 29.654574992696 168.95021921052728 -61.95978039404603 228.2480617241208 18.562054366676243 128.86518600520577 29.654574992695988 29.482310286290783 40.747095618715804 69.56734349161225 -50.86725976802623 -29.81553222730277 -39.77473914200646 29.48231028629076 40.74709561871579 88.78015279988439 121.26893037943799 -10.602722919030576 132.3614510054579 48.69511959456297 212.88328576618008 88.78015279988439 121.26893037943807 128.86518600520589 29.65457499269603 29.48231028629088 40.747095618715825 69.56734349161233 -50.86725976802623 128.86518600520589 29.65457499269601 29.482310286290872 40.747095618715775 88.7801527998844 121.26893037943803 -10.60272291903057 132.36145100545787 29.482310286290854 40.74709561871579 69.56734349161226 -50.86725976802628 128.86518600520583 29.65457499269593 168.95021921052725 -61.95978039404612 69.56734349161226 -50.86725976802629 128.8651860052058 29.654574992695977 168.95021921052725 -61.95978039404607 228.24806172412084 18.56205436667619 128.86518600520586 29.654574992695967 29.48231028629088 40.74709561871581 69.56734349161233 -50.86725976802626 -29.81553222730267 -39.77473914200643 29.482310286290904 40.747095618715775 69.56734349161226 -50.86725976802629 128.86518600520589 29.654574992695906 168.9502192105273 -61.95978039404615 69.56734349161233 -50.86725976802631 -29.81553222730268 -39.77473914200651 29.48231028629087 40.74709561871573 -69.90056543262412 51.83961624473555 -29.81553222730268 -39.774739142006474 -129.19840794621766 -28.682218515986545 -89.11337474089633 -120.29657390272862 -188.4962504598113 -109.20405327670869 -129.1984079462177 -28.68221851598656 -69.90056543262409 51.83961624473568 -29.81553222730271 -39.7747391420064 29.482310286290925 40.74709561871579 -69.90056543262405 51.83961624473568 -29.815532227302633 -39.7747391420064 -129.19840794621763 -28.68221851598653 -89.11337474089625 -120.29657390272861 -29.81553222730267 -39.774739142006425 29.48231028629095 40.74709561871577 -69.90056543262406 51.83961624473564 -10.602722919030466 132.3614510054579 29.48231028629096 40.74709561871587 -69.90056543262406 51.83961624473564 -10.602722919030521 132.3614510054579 -109.98559863794553 143.4539716314777 -69.90056543262405 51.839616244735666 -29.815532227302633 -39.77473914200641 29.482310286290925 40.74709561871578 69.56734349161233 -50.86725976802626 -29.815532227302626 -39.774739142006425 29.482310286290986 40.747095618715754 -69.90056543262399 51.83961624473564 -10.602722919030429 132.3614510054579 29.482310286291003 40.74709561871587 69.56734349161245 -50.867259768026194 -29.815532227302533 -39.77473914200638 10.269500978018854 -131.38909452874844 69.56734349161245 -50.867259768026216 128.86518600520594 29.65457499269607 168.95021921052742 -61.95978039404596 228.248061724121 18.5620543666763 128.86518600520594 29.6545749926961 29.482310286290986 40.74709561871594 69.56734349161242 -50.867259768026116 -29.815532227302572 -39.77473914200635 29.48231028629098 40.74709561871591 69.56734349161236 -50.867259768026166 128.86518600520597 29.654574992696066 168.9502192105274 -61.95978039404598 69.5673434916124 -50.867259768026166 -29.815532227302572 -39.77473914200642 29.48231028629092 40.74709561871584 -69.90056543262406 51.83961624473566 -29.815532227302622 -39.774739142006375 29.482310286290996 40.74709561871581 -69.90056543262399 51.83961624473568 -10.602722919030418 132.36145100545795 29.48231028629101 40.74709561871591 69.56734349161248 -50.86725976802614 -29.81553222730251 -39.77473914200635 10.269500978018923 -131.3890945287484 69.56734349161246 -50.867259768026166 -29.815532227302533 -39.77473914200638 29.48231028629102 40.74709561871586 -69.90056543262399 51.83961624473569 -29.815532227302533 -39.774739142006354 10.269500978018872 -131.38909452874842 69.56734349161245 -50.86725976802623 109.6523766969339 -142.48161515476826 10.269500978018916 -131.38909452874844"/>
</svg>