<svg viewBox="-260.71822503874256 -159.80532740869768 528.1976194793344 412.8139575612968" xmlns="http://www.w3.org/2000/svg">
<style>
svg { stroke:black; stroke-width:2; fill:none;}
</style>
<polyline points="114.13404585989383 34.16605240052229 117.17593462008357 37.002052456796264"/>
<polyline points="120.21782338027366 39.83805251306756 123.25971214046375 42.67405256933891"/>
<polyline points="119.35405553780356 52.70206512589095 112.40651017495334 59.89407762617156"/>
<polyline points="112.40651017495334 59.89407762617156 92.85384447904617 40.865453427619414 105.88895494298428 53.551202893320834"/>
<polyline points="119.78404566868477 39.167177892759575 126.73159103153503 31.97516539247894"/>
<polyline points="126.73159103153503 31.97516539247894 133.6791363943853 24.78315289219827"/>
<polyline points="99.80138984189647 33.6734409273388 93.28383460992737 27.330566194488103"/>
<polyline points="93.28383460992737 27.330566194488103 86.76627937795831 20.98769146163742"/>
<polyline points="99.80138984189647 33.6734409273388 93.28383460992737 27.330566194488103"/>
<polyline points="93.71382474080858 13.795678961356732 100.66137010365883 6.603666461076101"/>
<polyline points="100.66137010365883 6.603666461076101 93.71382474080858 13.795678961356732"/>
<polyline points="112.83650030583452 46.35919039304022 119.3540555378036 52.702065125890904"/>
<polyline points="112.83650030583452 46.35919039304022 119.3540555378036 52.702065125890904"/>
<polyline points="112.83650030583452 46.35919039304022 119.78404566868477 39.167177892759575"/>
<polyline points="133.2491462635041 38.31804012532964 139.76670149547311 44.66091485818036"/>
<polyline points="146.28425672744217 51.00378959103103 139.76670149547311 44.66091485818036"/>
<polyline points="146.28425672744217 51.00378959103103 152.80181195941122 57.34666432388174"/>
<polyline points="162.3612559515704 66.5255391130038 165.40314471176046 69.3615391692752"/>
<polyline points="168.44503347195058 72.19753922554655 171.48692223214064 75.03353928181795"/>
<polyline points="168.44503347195058 72.19753922554655 171.48692223214064 75.03353928181795"/>
<polyline points="181.476356355181 70.67752683780868 188.42390171803126 63.48551433752805"/>
<polyline points="195.37144708088155 56.293501837247426 186.2457808003112 47.78550166843327 192.32955832069143 53.457501780976"/>
<polyline points="205.36466878462952 66.1432512466774 211.8822240165986 72.48612597952811"/>
<polyline points="211.8822240165986 72.48612597952811 218.39977924856765 78.82900071237876"/>
<polyline points="192.76333603228028 54.12837640128394 189.72144727209016 51.292376345012585"/>
<polyline points="189.72144727209016 51.292376345012585 186.6795585119 48.45637628874118"/>
<polyline points="192.76333603228028 54.12837640128394 189.72144727209016 51.292376345012585"/>
<polyline points="193.1971137438691 54.79925102159184 199.71466897583812 61.14212575444255"/>
<polyline points="199.71466897583812 61.14212575444255 193.1971137438691 54.79925102159184"/>
<polyline points="199.71466897583812 61.14212575444255 206.2322242078071 67.48500048729335"/>
<polyline points="198.84711355266052 59.800376513826734 201.88900231285055 62.636376570098115"/>
<polyline points="195.8052247924703 56.96437645755534 192.76333603228028 54.12837640128394"/>
<polyline points="196.23900250405921 57.635251077863245 202.75655773602818 63.978125810713976"/>
<polyline points="209.2741129679972 70.32100054356468 202.75655773602818 63.978125810713976"/>
<polyline points="209.2741129679972 70.32100054356468 215.7916681999663 76.66387527641538"/>
<polyline points="229.2567687947856 75.81473750898547 236.20431415763585 68.6227250087048"/>
<polyline points="243.15185952048617 61.43071250842416 250.09940488333638 54.238700008143525"/>
<polyline points="243.15185952048617 61.43071250842416 250.09940488333638 54.238700008143525"/>
<polyline points="254.00506148599652 44.21068745159154 250.9631727258064 41.37468739532006"/>
<polyline points="192.32955832069143 53.457501780976 189.2876695605013 50.621501724704665"/>
<polyline points="189.2876695605013 50.621501724704665 186.2457808003112 47.78550166843323"/>
<polyline points="189.72144727209016 51.29237634501254 196.23900250405921 57.635251077863245"/>
<polyline points="196.23900250405921 57.635251077863245 189.72144727209016 51.29237634501254"/>
<polyline points="189.2876695605013 50.621501724704665 186.2457808003112 47.78550166843323"/>
<polyline points="189.72144727209016 51.29237634501254 196.23900250405921 57.635251077863245"/>
<polyline points="196.23900250405921 57.635251077863245 189.72144727209016 51.29237634501254"/>
<polyline points="205.36466878462952 66.1432512466774 211.8822240165986 72.48612597952811"/>
<polyline points="211.8822240165986 72.48612597952811 218.39977924856765 78.82900071237876"/>
<polyline points="198.84711355266052 59.800376513826734 179.2944478567533 40.77175231527466 192.32955832069143 53.457501780976"/>
<polyline points="178.43446759499096 67.8415267815373 171.48692223214064 75.03353928181797"/>
<polyline points="171.48692223214064 75.03353928181797 164.53937686929044 82.22555178209856"/>
<polyline points="185.38201295784117 60.64951428125666 206.22464904639187 39.0734767804148 192.32955832069143 53.457501780976 199.2771036835416 46.2654892806954"/>
<polyline points="186.2457808003112 47.78550166843323 183.20389204012108 44.94950161216183"/>
<polyline points="183.20389204012108 44.94950161216183 180.16200327993099 42.11350155589047"/>
<polyline points="189.2876695605013 50.621501724704665 198.41333584107159 59.12950189351883 192.32955832069143 53.457501780976"/>
<polyline points="179.29444785675332 40.77175231527462 172.7768926247843 34.42887758242387"/>
<polyline points="172.7768926247843 34.42887758242387 166.25933739281527 28.086002849573198"/>
<polyline points="185.81200308872232 47.11462704812536 205.36466878462952 66.1432512466774 185.81200308872232 47.11462704812536"/>
<polyline points="206.22464904639187 39.0734767804148 213.17219440924217 31.881464280134168"/>
<polyline points="213.17219440924217 31.881464280134168 220.11973977209243 24.689451779853528"/>
<polyline points="199.2771036835416 46.2654892806954 178.43446759499096 67.84152678153724 192.32955832069143 53.457501780976"/>
<polyline points="198.41333584107159 59.12950189351883 201.45522460126176 61.96550194979022"/>
<polyline points="201.45522460126176 61.96550194979022 204.4971133614518 64.80150200606165"/>
<polyline points="195.37144708088155 56.293501837247426 186.24578080031122 47.78550166843316 192.32955832069143 53.457501780976 198.84711355266052 59.8003765138267"/>
<polyline points="192.32955832069143 53.457501780976 185.81200308872232 47.11462704812536"/>
<polyline points="192.32955832069143 53.457501780976 185.81200308872232 47.11462704812536"/>
<polyline points="195.37144708088155 56.293501837247426 198.41333584107159 59.129501893518864"/>
<polyline points="194.93766936929268 55.62262721693955 188.42011413732365 49.27975248408882"/>
<polyline points="181.90255890535465 42.936877751238114 188.42011413732365 49.27975248408882"/>
<polyline points="181.90255890535465 42.936877751238114 175.38500367338557 36.594003018387426"/>
<polyline points="175.8149938042668 23.059115785256047 182.76253916711704 15.867103284975455"/>
<polyline points="189.7100845299673 8.675090784694854 196.65762989281762 1.4830782844141817"/>
<polyline points="189.7100845299673 8.675090784694854 196.65762989281762 1.4830782844141817"/>
<polyline points="206.64706401585795 -2.87293415959502 209.688952776048 -0.0369341033235834"/>
<polyline points="212.7308415362382 2.799065952947814 232.28350723214527 21.827690151499933 219.24839676820721 9.141940685798511"/>
<polyline points="225.33217428858745 14.813940798341308 228.37406304877757 17.64994085461274"/>
<polyline points="228.37406304877757 17.64994085461274 231.41595180896766 20.485940910884178"/>
<polyline points="235.32539599233547 24.6636902077713 241.84295122430447 31.006564940621967"/>
<polyline points="241.84295122430447 31.006564940621967 248.36050645627353 37.34943967347268"/>
<polyline points="248.36050645627353 37.34943967347268 254.87806168824258 43.69231440632336"/>
<polyline points="264.43750568040167 52.871189195445496 267.4793944405918 55.7071892517169"/>
<polyline points="228.80784076036642 18.320815474920586 219.68217447979598 9.8128153061064 225.76595200017624 15.48481541864922"/>
<polyline points="238.80106246411432 28.17056488435061 245.31861769608335 34.51343961720129"/>
<polyline points="245.31861769608335 34.51343961720129 251.83617292805246 40.856314350051875"/>
<polyline points="226.1997297117651 16.155690038957065 223.15784095157488 13.319689982685631"/>
<polyline points="223.15784095157488 13.319689982685631 220.11595219138482 10.483689926414195"/>
<polyline points="216.20650800801707 6.30594062952711 209.68895277604804 -0.0369341033236392"/>
<polyline points="209.68895277604804 -0.0369341033236392 203.17139754407907 -6.379808836174282"/>
<polyline points="222.72406323998615 12.648815362377754 242.27672893589323 31.67743956092989 229.24161847195518 18.991690095228503"/>
<polyline points="215.34652774625468 33.3757150957897 208.39898238340442 40.567727596070334"/>
<polyline points="208.39898238340442 40.567727596070334 201.45143702055415 47.75974009635094"/>
<polyline points="222.2940731091049 26.183702595509104 243.13670919765568 4.607665094667266 229.24161847195518 18.991690095228503"/>
<polyline points="229.24161847195518 18.991690095228503 232.2835072321453 21.8276901514999"/>
<polyline points="229.24161847195518 18.991690095228503 226.199729711765 16.1556900389571"/>
<polyline points="229.24161847195518 18.991690095228503 226.199729711765 16.1556900389571"/>
<polyline points="222.2940731091049 26.183702595509104 215.34652774625468 33.3757150957897"/>
<polyline points="205.3570936232143 37.73172753979886 202.31520486302415 34.89572748352751"/>
<polyline points="199.27331610283397 32.05972742725611 202.31520486302415 34.89572748352751"/>
<polyline points="199.27331610283397 32.05972742725611 196.23142734264388 29.223727370984633"/>
<polyline points="186.67198335048474 20.044852581862564 180.1544281185157 13.701977849011849"/>
<polyline points="173.63687288654668 7.35910311616117 167.11931765457766 1.0162283833104568"/>
<polyline points="173.63687288654668 7.35910311616117 167.11931765457766 1.0162283833104568"/>
<polyline points="153.6542170597583 1.8653661507403951 146.7066716969081 9.057378651021008"/>
<polyline points="139.75912633405784 16.24939115130166 148.88479261462822 24.75739132011593 142.80101509424796 19.085391207573075"/>
<polyline points="128.90592436854746 33.46941620813433 121.95837900569717 40.66142870841495"/>
<polyline points="121.95837900569717 40.66142870841495 115.01083364284695 47.853441208695614"/>
<polyline points="141.93724725177796 31.949403820396558 144.9791360119681 34.78540387666796"/>
<polyline points="144.9791360119681 34.78540387666796 148.02102477215823 37.621403932939394"/>
<polyline points="148.02102477215823 37.621403932939394 151.06291353234838 40.457403989210775"/>
<polyline points="147.15725692968823 50.48541654576284 140.20971156683797 57.677429046043486"/>
<polyline points="138.8953584915878 29.113403764125128 159.7379945801386 7.537366263283207 145.84290385443808 21.92139126384447"/>
<polyline points="151.92668137481837 27.593391376387327 154.9685701350085 30.42939143265875"/>
<polyline points="154.9685701350085 30.42939143265875 158.01045889519864 33.265391488930135"/>
<polyline points="162.7798833403287 10.37336631955464 169.72742870317902 3.18135381927401"/>
<polyline points="169.72742870317902 3.18135381927401 176.67497406602922 -4.010658681006622"/>
<polyline points="162.7798833403287 10.37336631955464 169.72742870317902 3.18135381927401"/>
<polyline points="179.71686282621937 -1.1746586247351867 182.75875158640952 1.6613414315362087"/>
<polyline points="148.88479261462822 24.757391320115897 139.7591263340578 16.249391151301662 145.84290385443808 21.92139126384447"/>
<polyline points="159.73799458013858 7.537366263283198 166.68553994298884 0.3453537630025679"/>
<polyline points="166.68553994298884 0.3453537630025679 173.63308530583907 -6.84665873727808"/>
<polyline points="146.70667169690807 9.05737865102103 143.66478293671787 6.221378594749655"/>
<polyline points="143.66478293671787 6.221378594749655 140.62289417652775 3.385378538478221"/>
<polyline points="146.70667169690807 9.05737865102103 143.66478293671787 6.221378594749655"/>
<polyline points="147.570439539378 -3.806633961802425 154.51798490222825 -10.998646462083018"/>
<polyline points="154.51798490222825 -10.998646462083018 147.570439539378 -3.806633961802402"/>
<polyline points="152.79044921728834 14.729378763563842 155.83233797747846 17.565378819835278"/>
<polyline points="152.79044921728834 14.729378763563842 155.83233797747846 17.565378819835278"/>
<polyline points="152.79044921728834 14.729378763563842 159.73799458013858 7.537366263283198"/>
<polyline points="169.727428703179 3.181353819273985 172.76931746336913 6.0173538755454175"/>
<polyline points="175.81120622355925 8.853353931816814 172.76931746336913 6.0173538755454175"/>
<polyline points="175.81120622355925 8.853353931816814 178.85309498374943 11.689353988088213"/>
<polyline points="175.37742851197046 8.182479311508967 168.8598732800015 1.8396045786582471"/>
<polyline points="162.34231804803244 -4.503270154192441 155.8247628160634 -10.846144887043096"/>
<polyline points="162.34231804803244 -4.503270154192441 155.8247628160634 -10.846144887043096"/>
<polyline points="156.25475294694465 -24.381032120174464 163.20229830979488 -31.57304462045507"/>
<polyline points="170.14984367264515 -38.76505712073574 189.7025093685522 -19.736432922183702 176.66739890461415 -32.42218238788505"/>
<polyline points="182.75117642499453 -26.75018227534227 185.79306518518467 -23.914182219070796"/>
<polyline points="185.79306518518467 -23.914182219070796 188.83495394537476 -21.07818216279936"/>
<polyline points="192.74439812874243 -16.900432865912272 199.26195336071143 -10.557558133061587"/>
<polyline points="199.26195336071143 -10.557558133061594 205.77950859268046 -4.214683400210951"/>
<polyline points="192.74439812874243 -16.900432865912272 199.26195336071143 -10.557558133061594"/>
<polyline points="208.82139735287063 -1.3786833439394828 211.86328611306075 1.4573167123319484"/>
<polyline points="211.86328611306075 1.4573167123319484 208.82139735287063 -1.3786833439394828"/>
<polyline points="211.86328611306075 1.4573167123319484 214.90517487325096 4.293316768603387"/>
<polyline points="179.70928766480438 -29.586182331613664 173.19173243283527 -35.92905706446429"/>
<polyline points="186.22684289677335 -23.243307598762954 192.74439812874243 -16.900432865912272"/>
<polyline points="202.30384212090155 -7.721558076790158 205.3457308810918 -4.885558020518761"/>
<polyline points="208.3876196412819 -2.0495579642473287 205.3457308810918 -4.885558020518761"/>
<polyline points="208.3876196412819 -2.0495579642473287 211.42950840147208 0.7864420920241043"/>
<polyline points="221.4189425245125 -3.569570351985212 228.36648788736275 -10.7615828522658"/>
<polyline points="235.314033250213 -17.953595352546436 242.26157861306322 -25.1456078528271"/>
<polyline points="235.314033250213 -17.953595352546436 242.26157861306322 -25.1456078528271"/>
<polyline points="255.7266792078825 -25.99474562025706 262.24423443985154 -19.65187088740637"/>
<polyline points="262.24423443985154 -19.65187088740637 255.7266792078825 -25.99474562025706"/>
<polyline points="189.7025093685522 -19.736432922183702 196.22006460052123 -13.393558189333021"/>
<polyline points="196.22006460052123 -13.393558189333021 202.7376198324903 -7.050683456482341"/>
<polyline points="183.18495413658326 -26.07930765503438 163.63228844067612 -45.10793185358639 176.66739890461415 -32.42218238788505"/>
<polyline points="162.7723081789137 -18.03815738732378 155.82476281606344 -10.846144887043122"/>
<polyline points="155.82476281606344 -10.846144887043122 148.8772174532132 -3.6541323867624733"/>
<polyline points="169.71985354176388 -25.230169887604383 190.56248963031464 -46.80620738844632 176.66739890461415 -32.42218238788505"/>
<polyline points="169.71985354176388 -25.230169887604383 162.7723081789137 -18.03815738732378"/>
<polyline points="170.58362138423382 -38.094182500427905 167.54173262404373 -40.9301825566993"/>
<polyline points="167.54173262404373 -40.9301825566993 164.49984386385356 -43.76618261297073"/>
<polyline points="173.62551014442403 -35.25818244415645 182.75117642499447 -26.750182275342226 176.66739890461415 -32.42218238788505"/>
<polyline points="163.63228844067612 -45.10793185358639 157.11473320870707 -51.4508065864371"/>
<polyline points="157.11473320870707 -51.4508065864371 150.59717797673807 -57.793681319287785"/>
<polyline points="170.14984367264515 -38.76505712073574 189.7025093685522 -19.736432922183702 176.66739890461415 -32.42218238788505"/>
<polyline points="170.14984367264515 -38.76505712073574 163.63228844067612 -45.10793185358639"/>
<polyline points="170.14984367264515 -38.76505712073574 163.63228844067612 -45.10793185358639"/>
<polyline points="150.1671878458568 -44.25879408615643 143.21964248300657 -37.06678158587581"/>
<polyline points="176.66739890461415 -32.42218238788505 197.5100349931649 -53.998219888726915 183.61494426746447 -39.614194888165734"/>
<polyline points="170.5798338035263 -52.29994435386702 164.06227857155733 -58.64281908671773"/>
<polyline points="164.06227857155733 -58.64281908671773 157.5447233395883 -64.98569381956843"/>
<polyline points="190.99247976119588 -60.34109462157761 197.9400251240462 -67.53310712185827"/>
<polyline points="197.9400251240462 -67.53310712185827 204.8875704868964 -74.72511962213892"/>
<polyline points="190.99247976119588 -60.34109462157761 197.9400251240462 -67.53310712185827"/>
<polyline points="198.37001525492732 -81.06799435498957 191.85246002295838 -87.41086908784027"/>
<polyline points="191.85246002295838 -87.41086908784027 198.37001525492732 -81.06799435498957"/>
<polyline points="177.0973890354954 -45.957069621016366 170.14984367264515 -38.76505712073574"/>
<polyline points="177.0973890354954 -45.957069621016366 170.14984367264515 -38.76505712073574"/>
<polyline points="177.0973890354954 -45.957069621016366 170.5798338035263 -52.29994435386702"/>
<polyline points="157.11473320870707 -51.4508065864371 150.1671878458568 -44.25879408615643"/>
<polyline points="143.21964248300657 -37.06678158587581 150.1671878458568 -44.25879408615643"/>
<polyline points="143.21964248300657 -37.06678158587581 136.27209712015636 -29.874769085595183"/>
<polyline points="126.28266299711592 -25.518756641585963 123.24077423692579 -28.3547566978574"/>
<polyline points="120.19888547673565 -31.19075675412881 117.1569967165455 -34.026756810400265"/>
<polyline points="120.19888547673565 -31.19075675412881 117.1569967165455 -34.026756810400265"/>
<polyline points="107.59755272438633 -43.205631599522356 101.0799974924173 -49.548506332373044"/>
<polyline points="94.56244226044831 -55.89138106522374 103.68810854101875 -47.38338089640947 97.60433102063844 -53.05538100895231"/>
<polyline points="83.70924029493793 -38.671356008391044 76.76169493208766 -31.47934350811042"/>
<polyline points="76.76169493208766 -31.47934350811042 69.8141495692374 -24.287331007829778"/>
<polyline points="96.74056317816844 -40.19136839612886 99.7824519383586 -37.35536833985745"/>
<polyline points="99.7824519383586 -37.35536833985745 102.82434069854875 -34.51936828358604"/>
<polyline points="96.74056317816844 -40.19136839612886 99.7824519383586 -37.35536833985745"/>
<polyline points="95.87679533569853 -27.327355783305425 88.92924997284824 -20.135343283024778"/>
<polyline points="88.92924997284824 -20.135343283024778 95.87679533569853 -27.327355783305425"/>
<polyline points="88.92924997284824 -20.135343283024778 81.98170460999802 -12.94333078274415"/>
<polyline points="90.65678565778818 -45.86336850867167 87.61489689759803 -48.699368564943086"/>
<polyline points="93.69867441797832 -43.02736845240026 96.74056317816844 -40.19136839612886"/>
<polyline points="92.83490657550834 -30.163355839576795 85.8873612126581 -22.97134333929617"/>
<polyline points="78.93981584980786 -15.779330839015547 85.8873612126581 -22.97134333929617"/>
<polyline points="78.93981584980786 -15.779330839015547 71.99227048695761 -8.587318338734912"/>
<polyline points="58.52716989213833 -7.738180571304965 52.009614660169305 -14.081055304155655"/>
<polyline points="45.49205942820028 -20.42393003700635 38.97450419623123 -26.76680476985704"/>
<polyline points="45.49205942820028 -20.42393003700635 38.97450419623123 -26.76680476985704"/>
<polyline points="35.49883772445235 -30.27367944643633 38.540726484642505 -27.437679390164917"/>
<polyline points="41.58261524483265 -24.60167933389353 38.540726484642505 -27.437679390164917"/>
<polyline points="41.58261524483265 -24.60167933389353 44.62450400502279 -21.7656792776221"/>
<polyline points="40.718847402362684 -11.737666721070086 33.77130203951242 -4.5456542207894595"/>
<polyline points="97.60433102063844 -53.05538100895231 106.7299973012089 -44.54738084013808 100.64621978082863 -50.219380952680915"/>
<polyline points="86.75112905512808 -35.83535595211962 79.80358369227783 -28.643343451838994"/>
<polyline points="79.80358369227783 -28.643343451838994 72.85603832942756 -21.45133095155836"/>
<polyline points="99.78245193835863 -37.35536833985746 102.82434069854881 -34.5193682835861"/>
<polyline points="102.82434069854881 -34.5193682835861 105.86622945873896 -31.683368227314645"/>
<polyline points="99.78245193835863 -37.35536833985746 102.82434069854881 -34.5193682835861"/>
<polyline points="98.91868409588871 -24.49135572703402 91.97113873303844 -17.299343226753354"/>
<polyline points="91.97113873303844 -17.299343226753354 98.91868409588871 -24.49135572703402"/>
<polyline points="93.69867441797834 -43.02736845240029 90.65678565778818 -45.86336850867167"/>
<polyline points="93.69867441797834 -43.02736845240029 90.65678565778818 -45.86336850867167"/>
<polyline points="93.69867441797834 -43.02736845240029 86.75112905512808 -35.83535595211962"/>
<polyline points="76.76169493208766 -31.47934350811042 73.71980617189753 -34.3153435643818"/>
<polyline points="70.67791741170736 -37.1513436206532 73.71980617189753 -34.3153435643818"/>
<polyline points="70.67791741170736 -37.1513436206532 67.63602865151722 -39.9873436769246"/>
<polyline points="58.07658465935803 -49.1662184660467 51.559029427389014 -55.509093198897396"/>
<polyline points="45.041474195419994 -61.85196793174809 38.52391896345098 -68.1948426645988"/>
<polyline points="45.041474195419994 -61.85196793174809 38.52391896345098 -68.1948426645988"/>
<polyline points="25.058818368631695 -67.34570489716883 18.11127300578145 -60.153692396888204"/>
<polyline points="11.163727642931198 -52.96167989660757 30.71639333883826 -33.93305569805547 17.68128287490022 -46.61880516375687"/>
<polyline points="11.597505354519908 -52.29080527629967 8.555616594329763 -55.12680533257107"/>
<polyline points="8.555616594329763 -55.12680533257107 5.513727834139605 -57.962805388842476"/>
<polyline points="27.67450457864812 -36.76905575432685 34.19205981061714 -30.426181021476147"/>
<polyline points="34.19205981061714 -30.426181021476147 40.709615042586165 -24.083306288625444"/>
<polyline points="27.67450457864812 -36.76905575432685 34.19205981061714 -30.426181021476147"/>
<polyline points="37.667726282396 -26.91930634489686 34.625837522205856 -29.755306401168248"/>
<polyline points="34.625837522205856 -29.755306401168248 37.667726282396 -26.919306344896853"/>
<polyline points="34.625837522205856 -29.755306401168248 31.583948762015698 -32.59130645743966"/>
<polyline points="14.63939411471007 -49.45480522002825 8.121838882741052 -55.797679952878966"/>
<polyline points="21.156949346679095 -43.111930487177546 27.67450457864812 -36.76905575432685"/>
<polyline points="31.150171050426984 -33.262181077747556 28.108282290236836 -36.098181134018944"/>
<polyline points="25.066393530046675 -38.93418119029035 28.108282290236836 -36.098181134018944"/>
<polyline points="25.066393530046675 -38.93418119029035 22.02450476985653 -41.77018124656175"/>
<polyline points="12.03507064681612 -37.41416880255253 5.087525283965851 -30.222156302271912"/>
<polyline points="-1.8600200788844161 -23.030143801991294 -8.807565441734669 -15.838131301710664"/>
<polyline points="-1.8600200788844161 -23.030143801991294 -8.807565441734669 -15.838131301710664"/>
<polyline points="-9.237555572615918 -2.303244068579345 -2.7200003406468953 4.039630664271359"/>
<polyline points="3.797554891322118 10.382505397122069 10.315110123291136 16.72538012997277"/>
<polyline points="3.797554891322118 10.382505397122069 10.315110123291136 16.72538012997277"/>
<polyline points="13.790776595070021 20.23225480655208 10.74888783487989 17.396254750280697"/>
<polyline points="17.68128287490022 -46.61880516375687 37.23394857080728 -27.59018096520475 24.198838106869243 -40.27593043090616"/>
<polyline points="18.115060586488937 -45.94793054344896 15.07317182629879 -48.78393059972036"/>
<polyline points="15.07317182629879 -48.78393059972036 12.031283066108626 -51.619930655991766"/>
<polyline points="34.19205981061714 -30.426181021476143 40.709615042586165 -24.083306288625433"/>
<polyline points="40.709615042586165 -24.083306288625433 47.22717027455519 -17.74043155577473"/>
<polyline points="34.19205981061714 -30.426181021476143 40.709615042586165 -24.083306288625433"/>
<polyline points="44.18528151436504 -20.576431612046115 41.1433927541749 -23.412431668317506"/>
<polyline points="41.1433927541749 -23.412431668317506 44.18528151436504 -20.576431612046115"/>
<polyline points="21.156949346679095 -43.111930487177546 14.639394114710075 -49.454805220028256"/>
<polyline points="21.156949346679095 -43.111930487177546 14.639394114710075 -49.454805220028256"/>
<polyline points="21.156949346679095 -43.111930487177546 18.115060586488937 -45.94793054344896"/>
<polyline points="8.555616594329772 -55.126805332571074 2.038061362360752 -61.46968006542176"/>
<polyline points="-4.479493869608267 -67.81255479827247 2.038061362360747 -61.469680065421755"/>
<polyline points="-4.479493869608267 -67.81255479827247 -10.997049101577282 -74.15542953112316"/>
<polyline points="-24.462149696396555 -73.30629176369325 -31.4096950592468 -66.11427926341261"/>
<polyline points="-38.35724042209705 -58.922266763131965 -45.30478578494732 -51.730254262851325"/>
<polyline points="-38.35724042209705 -58.922266763131965 -45.30478578494732 -51.730254262851325"/>
<polyline points="-55.29421990798772 -47.37424181884211 -58.33610866817788 -50.210241875113496"/>
<polyline points="-61.377997428368026 -53.04624193138491 -40.53536133981728 -74.6222794322268 -54.43045206551779 -60.23825443166553"/>
<polyline points="-67.46556252945582 -72.92400389736696 -73.98311776142484 -79.26687863021768"/>
<polyline points="-73.98311776142484 -79.26687863021768 -80.50067299339383 -85.60975336306836"/>
<polyline points="-47.05291657178625 -80.96515416507746 -40.10537120893597 -88.15716666535806"/>
<polyline points="-40.10537120893597 -88.15716666535806 -33.15782584608571 -95.3491791656387"/>
<polyline points="-47.05291657178625 -80.96515416507746 -40.10537120893597 -88.15716666535806"/>
<polyline points="-39.67538107805471 -101.6920538984894 -46.19293631002372 -108.03492863134015"/>
<polyline points="-46.19293631002372 -108.03492863134015 -39.67538107805471 -101.6920538984894"/>
<polyline points="-46.19293631002372 -108.03492863134015 -52.71049154199274 -114.37780336419083"/>
<polyline points="-60.948007297486804 -66.58112916451624 -67.89555266033706 -59.38911666423563"/>
<polyline points="-54.00046193463655 -73.77314166479687 -47.05291657178625 -80.96515416507746"/>
<polyline points="-46.622926440904976 -94.50004139820881 -53.140481672873975 -100.84291613105951"/>
<polyline points="-59.658036904842994 -107.18579086391024 -53.140481672873975 -100.84291613105951"/>
<polyline points="-59.658036904842994 -107.18579086391024 -66.17559213681199 -113.52866559676092"/>
<polyline points="-75.73503612897119 -122.70754038588305 -78.77692488916132 -125.54354044215445"/>
<polyline points="-81.8188136493515 -128.37954049842583 -84.86070240954166 -131.21554055469724"/>
<polyline points="-81.8188136493515 -128.37954049842583 -84.86070240954166 -131.21554055469724"/>
<polyline points="-80.95504580688153 -141.24355311124924 -74.00750044403128 -148.4355656115299"/>
<polyline points="-67.05995508118097 -155.6275781118105 -64.01806632099085 -152.79157805553908"/>
<polyline points="-64.01806632099085 -152.79157805553908 -60.97617756080065 -149.9555779992677"/>
<polyline points="-64.4518440325795 -153.46245267584703 -70.96939926454851 -159.80532740869768"/>
<polyline points="-70.96939926454851 -159.80532740869768 -64.4518440325795 -153.46245267584703"/>
<polyline points="-64.01806632099085 -152.79157805553908 -60.97617756080065 -149.9555779992677"/>
<polyline points="-64.4518440325795 -153.46245267584703 -70.96939926454851 -159.80532740869768"/>
<polyline points="-70.96939926454851 -159.80532740869768 -64.4518440325795 -153.46245267584703"/>
<polyline points="-40.535361339817236 -74.62227943222673 -33.58781597696696 -81.8142919325074"/>
<polyline points="-33.58781597696696 -81.8142919325074 -26.64027061411668 -89.006304432788"/>
<polyline points="-47.48290670266752 -67.43026693194618 -68.32554279121831 -45.85422943110431 -54.43045206551779 -60.23825443166553"/>
<polyline points="-48.34667454513748 -54.56625431912275 -45.30478578494732 -51.730254262851325"/>
<polyline points="-45.30478578494732 -51.730254262851325 -42.262897024757166 -48.89425420657994"/>
<polyline points="-51.38856330532763 -57.40225437539412 -60.5142295858981 -65.91025454420834 -54.43045206551779 -60.23825443166553 -57.47234082570794 -63.07425448793694"/>
<polyline points="-41.39534160157977 -47.55250496596411 -34.87778636961077 -41.209630233113394"/>
<polyline points="-34.87778636961076 -41.209630233113394 -28.36023113764175 -34.866755500262705"/>
<polyline points="-47.912896833548785 -53.895379698814814 -67.46556252945582 -72.92400389736694 -54.430452065517805 -60.23825443166552"/>
<polyline points="-68.32554279121834 -45.854229431104294 -75.2730881540686 -38.66221693082367"/>
<polyline points="-75.2730881540686 -38.66221693082367 -82.22063351691891 -31.470204430543074"/>
<polyline points="-61.37799742836807 -53.04624193138491 -40.53536133981725 -74.62227943222673 -61.37799742836807 -53.04624193138491"/>
<polyline points="-60.5142295858981 -65.91025454420834 -63.55611834608826 -68.74625460047972"/>
<polyline points="-63.55611834608826 -68.74625460047972 -66.5980071062784 -71.58225465675115"/>
<polyline points="-57.47234082570795 -63.07425448793693 -48.34667454513752 -54.56625431912272 -54.430452065517805 -60.23825443166552"/>
<polyline points="-67.46556252945582 -72.92400389736694 -73.98311776142482 -79.26687863021766"/>
<polyline points="-73.98311776142482 -79.26687863021769 -80.50067299339382 -85.60975336306836"/>
<polyline points="-60.94800729748681 -66.58112916451623 -41.395341601579794 -47.55250496596409 -54.4304520655178 -60.238254431665524 -47.482906702667535 -67.43026693194615"/>
<polyline points="-54.4304520655178 -60.238254431665524 -61.37799742836807 -53.04624193138491"/>
<polyline points="-54.4304520655178 -60.238254431665524 -61.37799742836807 -53.04624193138491"/>
<polyline points="-60.94800729748679 -66.58112916451624 -67.4655625294558 -72.92400389736697"/>
<polyline points="-80.93066312427507 -72.07486612993709 -87.87820848712533 -64.88285362965648"/>
<polyline points="-94.8257538499756 -57.690841129375855 -87.87820848712533 -64.88285362965648"/>
<polyline points="-94.8257538499756 -57.690841129375855 -101.77329921282589 -50.49882862909526"/>
<polyline points="-111.76273333586633 -46.14281618508602 -114.80462209605646 -48.978816241357464"/>
<polyline points="-117.8465108562466 -51.81481629762885 -120.88839961643674 -54.65081635390027"/>
<polyline points="-117.8465108562466 -51.81481629762885 -120.88839961643674 -54.65081635390027"/>
<polyline points="-130.44784360859592 -63.82969114302237 -136.96539884056492 -70.17256587587312"/>
<polyline points="-143.48295407253391 -76.51544060872385 -122.64031798398307 -98.09147810956568 -136.53540870968362 -83.70745310900442"/>
<polyline points="-149.57051917362162 -96.39320257470594 -156.0880744055906 -102.73607730755664"/>
<polyline points="-156.0880744055906 -102.73607730755664 -162.6056296375596 -109.07895204040739"/>
<polyline points="-129.1578732159521 -104.4343528424164 -122.21032785310179 -111.62636534269701"/>
<polyline points="-122.21032785310179 -111.62636534269701 -115.26278249025152 -118.81837784297765"/>
<polyline points="-115.26278249025152 -118.81837784297765 -108.31523712740123 -126.01039034325825"/>
<polyline points="-107.88524699651994 -139.5452775763896 -114.40280222848892 -145.88815230924033"/>
<polyline points="-136.10541857880233 -97.24234034213576 -116.55275288289538 -78.21371614358361 -129.58786334683336 -90.89946560928504"/>
<polyline points="-115.69277262113278 -105.28349060984625 -108.74522725828247 -112.47550311012685"/>
<polyline points="-108.74522725828247 -112.47550311012685 -101.79768189543216 -119.66751561040743"/>
<polyline points="-109.60520752004508 -85.40572864386414 -103.08765228807611 -79.06285391101339"/>
<polyline points="-103.08765228807611 -79.06285391101339 -96.57009705610717 -72.71997917816266"/>
<polyline points="-130.0178534777147 -77.36457837615373 -136.96539884056497 -70.17256587587312"/>
<polyline points="-136.96539884056497 -70.17256587587312 -143.91294420341526 -62.98055337559253"/>
<polyline points="-123.07030811486439 -84.55659087643429 -102.22767202631348 -106.13262837727609 -116.12276275201408 -91.74860337671491"/>
<polyline points="-110.03898523163377 -86.0766032641721 -106.99709647144367 -83.24060320790072"/>
<polyline points="-106.99709647144367 -83.24060320790072 -103.9552077112535 -80.40460315162925"/>
<polyline points="-113.08087399182394 -88.91260332044348 -122.2065402723944 -97.42060348925769 -116.12276275201408 -91.74860337671491"/>
<polyline points="-116.12276275201408 -91.74860337671491 -122.64031798398305 -98.0914781095656"/>
<polyline points="-116.12276275201408 -91.74860337671491 -109.60520752004508 -85.40572864386415"/>
<polyline points="-116.12276275201408 -91.74860337671491 -109.60520752004508 -85.40572864386415"/>
<polyline points="-113.08087399182394 -88.91260332044348 -110.03898523163377 -86.0766032641721"/>
<polyline points="-100.47954123947466 -76.89772847504995 -93.96198600750566 -70.55485374219921"/>
<polyline points="-87.44443077553669 -64.21197900934847 -93.96198600750566 -70.55485374219921"/>
<polyline points="-87.44443077553669 -64.21197900934847 -80.9268755435677 -57.86910427649769"/>
<polyline points="-81.35686567444903 -44.334217043366394 -88.3044110372993 -37.142204543085796"/>
<polyline points="-95.25195640014962 -29.950192042805206 -102.19950176299993 -22.758179542524612"/>
<polyline points="-95.25195640014962 -29.950192042805206 -102.19950176299993 -22.758179542524612"/>
<polyline points="-106.10515836566006 -12.730166985972621 -103.06326960546991 -9.894166929701203"/>
<polyline points="-100.02138084527978 -7.0581668734298075 -119.57404654118675 -26.086791071982013 -106.53893607724875 -13.401041606280574"/>
<polyline points="-100.45515855686851 -7.729041493737817 -97.41326979667835 -4.8930414374664215"/>
<polyline points="-97.41326979667835 -4.8930414374664215 -94.37138103648826 -2.0570413811950052"/>
<polyline points="-116.53215778099663 -23.250791015710657 -123.04971301296563 -29.59366574856139"/>
<polyline points="-123.04971301296563 -29.59366574856139 -129.56726824493458 -35.936540481412116"/>
<polyline points="-129.56726824493458 -35.936540481412116 -136.08482347690358 -42.27941521426284"/>
<polyline points="-139.56048994868246 -45.786289890842276 -136.51860118849234 -42.95028983457082"/>
<polyline points="-110.01460254902764 -16.907916282859926 -119.140268829598 -25.41591645167404 -113.05649130921775 -19.743916339131324"/>
<polyline points="-126.09160177315576 -32.42966580483279 -132.60915700512473 -38.772540537683525"/>
<polyline points="-132.60915700512473 -38.772540537683525 -139.12671223709373 -45.115415270534264"/>
<polyline points="-125.65782406156703 -31.758791184524746 -128.69971282175712 -34.59479124079621"/>
<polyline points="-128.69971282175712 -34.59479124079621 -131.74160158194726 -37.43079129706757"/>
<polyline points="-125.65782406156703 -31.758791184524746 -128.69971282175712 -34.59479124079621"/>
<polyline points="-138.25915681391623 -43.773666029918296 -144.7767120458852 -50.11654076276903"/>
<polyline points="-119.57404654118675 -26.08679107198203 -100.02138084527981 -7.058166873429758 -113.05649130921776 -19.743916339131307"/>
<polyline points="-119.140268829598 -25.41591645167404 -122.18215758978816 -28.251916507945424"/>
<polyline points="-122.18215758978816 -28.251916507945424 -125.22404634997828 -31.087916564216805"/>
<polyline points="-103.06326960546991 -9.894166929701138 -96.54571437350093 -3.5512921968503752"/>
<polyline points="-96.54571437350093 -3.5512921968503752 -90.02815914153194 2.791582536000387"/>
<polyline points="-103.06326960546991 -9.894166929701138 -96.54571437350093 -3.5512921968503752"/>
<polyline points="-93.07004790172205 -0.044417520271011 -96.11193666191221 -2.8804175765423863"/>
<polyline points="-96.11193666191221 -2.8804175765423863 -93.07004790172205 -0.044417520271011"/>
<polyline points="-116.0983800694079 -22.579916395402652 -122.61593530137688 -28.922791128253433"/>
<polyline points="-116.0983800694079 -22.579916395402652 -122.61593530137688 -28.922791128253433"/>
<polyline points="-116.0983800694079 -22.579916395402652 -119.140268829598 -25.41591645167404"/>
<polyline points="-128.69971282175712 -34.59479124079619 -135.21726805372612 -40.93766597364692"/>
<polyline points="-141.7348232856951 -47.2805407064977 -135.21726805372612 -40.93766597364692"/>
<polyline points="-141.7348232856951 -47.2805407064977 -148.25237851766408 -53.623415439348484"/>
<polyline points="-161.71747911248335 -52.774277671918625 -168.66502447533367 -45.58226517163797"/>
<polyline points="-175.612569838184 -38.39025267135743 -182.5601152010343 -31.19824017107683"/>
<polyline points="-175.612569838184 -38.39025267135743 -182.5601152010343 -31.19824017107683"/>
<polyline points="-192.54954932407466 -26.842227727067634 -195.59143808426484 -29.67822778333896"/>
<polyline points="-198.63332684445496 -32.5142278396104 -177.79069075590417 -54.0902653404521 -191.6857814816047 -39.706240339890954"/>
<polyline points="-204.72089194554263 -52.39198980559247 -211.2384471775117 -58.734864538443254"/>
<polyline points="-211.2384471775117 -58.734864538443254 -217.75600240948066 -65.077739271294"/>
<polyline points="-184.30824598787305 -60.43314007330291 -177.3607006250228 -67.62515257358349"/>
<polyline points="-177.3607006250228 -67.62515257358349 -170.41315526217255 -74.81716507386406"/>
<polyline points="-184.30824598787305 -60.43314007330291 -177.3607006250228 -67.62515257358349"/>
<polyline points="-176.93071049414152 -81.16003980671489 -183.4482657261104 -87.50291453956567"/>
<polyline points="-183.4482657261104 -87.50291453956567 -176.93071049414152 -81.16003980671489"/>
<polyline points="-183.4482657261104 -87.50291453956567 -189.9658209580794 -93.84578927241638"/>
<polyline points="-198.20333671357366 -46.04911507274176 -205.15088207642398 -38.85710257246114"/>
<polyline points="-191.2557913507234 -53.24112757302232 -184.30824598787305 -60.43314007330291"/>
<polyline points="-183.87825585699176 -73.96802730643428 -190.3958110889607 -80.31090203928503"/>
<polyline points="-196.9133663209297 -86.65377677213581 -190.3958110889607 -80.31090203928503"/>
<polyline points="-196.9133663209297 -86.65377677213581 -203.43092155289872 -92.99665150498656"/>
<polyline points="-212.99036554505778 -102.17552629410869 -216.03225430524785 -105.01152635038011"/>
<polyline points="-219.07414306543802 -107.84752640665133 -222.1160318256281 -110.68352646292276"/>
<polyline points="-219.07414306543802 -107.84752640665133 -222.1160318256281 -110.68352646292276"/>
<polyline points="-218.21037522296794 -120.7115390194747 -211.26282986011768 -127.90355151975518"/>
<polyline points="-211.26282986011768 -127.90355151975518 -218.21037522296794 -120.7115390194747"/>
<polyline points="-177.79069075590417 -54.0902653404521 -170.84314539305382 -61.282277840732725"/>
<polyline points="-170.84314539305382 -61.282277840732725 -163.89560003020352 -68.47429034101333"/>
<polyline points="-184.73823611875443 -46.89825284017158 -205.5808722073053 -25.322215339329773 -191.6857814816047 -39.706240339890954"/>
<polyline points="-185.6020039612244 -34.03424022734827 -182.5601152010343 -31.19824017107683"/>
<polyline points="-182.5601152010343 -31.19824017107683 -179.5182264408441 -28.362240114805434"/>
<polyline points="-188.64389272141455 -36.870240283619594 -197.769559001985 -45.378240452433666 -191.6857814816047 -39.706240339890954"/>
<polyline points="-188.64389272141455 -36.870240283619594 -185.6020039612244 -34.03424022734827"/>
<polyline points="-178.65067101766675 -27.020490874189417 -172.1331157856977 -20.677616141338714"/>
<polyline points="-172.1331157856977 -20.677616141338714 -165.61556055372876 -14.334741408487925"/>
<polyline points="-185.16822624963575 -33.3633656070402 -204.72089194554258 -52.39198980559251 -191.6857814816047 -39.706240339890954"/>
<polyline points="-205.5808722073053 -25.322215339329773 -212.5284175701556 -18.130202839049147"/>
<polyline points="-212.5284175701556 -18.130202839049147 -219.47596293300586 -10.938190338768592"/>
<polyline points="-198.63332684445496 -32.5142278396104 -177.79069075590417 -54.0902653404521 -191.68578148160466 -39.706240339890996"/>
<polyline points="-198.63332684445496 -32.5142278396104 -205.5808722073053 -25.322215339329773"/>
<polyline points="-198.63332684445496 -32.5142278396104 -205.5808722073053 -25.322215339329773"/>
<polyline points="-209.48652880996548 -15.294202782777782 -206.4446400497753 -12.45820272650639"/>
<polyline points="-191.6857814816047 -39.706240339890954 -200.8114477621751 -48.21424050870506 -194.72767024179478 -42.54224039616235"/>
<polyline points="-208.62276096749542 -28.158215395601125 -215.57030633034574 -20.96620289532054"/>
<polyline points="-215.57030633034574 -20.96620289532054 -222.51785169319604 -13.774190395039945"/>
<polyline points="-207.75899312502543 -41.02222800842447 -210.80088188521552 -43.858228064695794"/>
<polyline points="-210.80088188521552 -43.858228064695794 -213.84277064540566 -46.6942281209672"/>
<polyline points="-207.75899312502543 -41.02222800842447 -210.80088188521552 -43.858228064695794"/>
<polyline points="-220.79031600825599 -39.5022156206866 -227.73786137110628 -32.310203120406044"/>
<polyline points="-227.73786137110628 -32.310203120406044 -220.79031600825599 -39.5022156206866"/>
<polyline points="-201.67521560464513 -35.35022789588176 -198.63332684445496 -32.5142278396104"/>
<polyline points="-201.67521560464513 -35.35022789588176 -198.63332684445496 -32.5142278396104"/>
<polyline points="-201.67521560464513 -35.35022789588176 -208.62276096749542 -28.158215395601125"/>
<polyline points="-212.5284175701556 -18.130202839049176 -209.48652880996548 -15.294202782777779"/>
<polyline points="-206.4446400497753 -12.458202726506418 -209.48652880996548 -15.294202782777779"/>
<polyline points="-206.4446400497753 -12.458202726506418 -203.40275128958515 -9.622202670235097"/>
<polyline points="-193.84330729742604 -0.4433278811129558 -187.32575206545712 5.899546851737827"/>
<polyline points="-180.8081968334881 12.242421584588573 -174.29064160151907 18.58529631743932"/>
<polyline points="-180.8081968334881 12.242421584588573 -174.29064160151907 18.58529631743932"/>
<polyline points="-174.7206317324004 32.12018355057068 -181.66817709525068 39.31219605085124"/>
<polyline points="-188.61572245810103 46.50420855113186 -208.16838815400794 27.47558435257957 -195.13327769007 40.16133381828109"/>
<polyline points="-189.0495001696898 45.833333930823926 -186.00761140949967 48.66933398709529"/>
<polyline points="-186.00761140949967 48.66933398709529 -182.96572264930955 51.50533404336673"/>
<polyline points="-205.12649939381788 30.311584408850972 -211.64405462578682 23.968709676000227"/>
<polyline points="-211.64405462578682 23.968709676000227 -218.16160985775576 17.625834943149442"/>
<polyline points="-205.12649939381788 30.311584408850972 -211.64405462578682 23.968709676000227"/>
<polyline points="-215.1197210975657 20.46183499942088 -212.07783233737564 23.29783505569224"/>
<polyline points="-212.07783233737564 23.29783505569224 -215.1197210975657 20.46183499942088"/>
<polyline points="-212.07783233737564 23.29783505569224 -209.03594357718546 26.133835111963634"/>
<polyline points="-192.0913889298799 42.99733387455252 -185.5738336979109 49.340208607403284"/>
<polyline points="-198.60894416184885 36.65445914170174 -205.12649939381788 30.311584408850972"/>
<polyline points="-208.60216586559673 26.804709732271586 -205.56027710540658 29.640709788542985"/>
<polyline points="-202.5183883452165 32.47670984481437 -205.56027710540658 29.640709788542985"/>
<polyline points="-202.5183883452165 32.47670984481437 -199.4764995850264 35.31270990108574"/>
<polyline points="-203.38215618768655 45.34072245763777 -210.3297015505368 52.53273495791838"/>
<polyline points="-217.27724691338716 59.72474745819895 -224.22479227623748 66.91675995847955"/>
<polyline points="-217.27724691338716 59.72474745819895 -224.22479227623748 66.91675995847955"/>
<polyline points="-237.68989287105674 67.76589772590937 -244.20744810302574 61.42302299305858"/>
<polyline points="-250.72500333499474 55.08014826020789 -244.20744810302574 61.42302299305858"/>
<polyline points="-250.72500333499474 55.08014826020789 -257.2425585669637 48.73727352735707"/>
<polyline points="-260.71822503874256 45.230398850777675 -257.6763362785525 48.06639890704904"/>
<polyline points="-195.13327769007 40.16133381828109 -214.68594338597697 21.13270961972879 -201.65083292203903 33.818459085430355"/>
<polyline points="-195.56705540165873 39.49045919797312 -192.52516664146864 42.32645925424451"/>
<polyline points="-192.52516664146864 42.32645925424451 -189.48327788127853 45.16245931051594"/>
<polyline points="-211.64405462578682 23.968709676000234 -218.16160985775576 17.62583494314941"/>
<polyline points="-218.16160985775576 17.62583494314941 -224.67916508972485 11.282960210298706"/>
<polyline points="-211.64405462578682 23.968709676000234 -218.16160985775576 17.62583494314941"/>
<polyline points="-221.6372763295347 14.1189602665701 -218.59538756934467 16.954960322841465"/>
<polyline points="-218.59538756934467 16.954960322841465 -221.6372763295347 14.1189602665701"/>
<polyline points="-198.60894416184885 36.65445914170174 -192.0913889298799 42.99733387455252"/>
<polyline points="-198.60894416184885 36.65445914170174 -192.0913889298799 42.99733387455252"/>
<polyline points="-198.60894416184885 36.65445914170174 -195.56705540165873 39.49045919797312"/>
<polyline points="-186.00761140949967 48.66933398709529 -179.4900561775307 55.01220871994605"/>
<polyline points="-172.97250094556168 61.355083452796826 -179.4900561775307 55.01220871994605"/>
<polyline points="-172.97250094556168 61.355083452796826 -166.45494571359274 67.6979581856476"/>
<polyline points="-166.88493584447397 81.23284541877891 -173.8324812073243 88.4248579190595"/>
<polyline points="-180.7800265701746 95.61687041934012 -187.7275719330249 102.80888291962064"/>
<polyline points="-180.7800265701746 95.61687041934012 -187.7275719330249 102.80888291962064"/>
<polyline points="-191.63322853568513 112.83689547617264 -188.59133977549496 115.67289553244402"/>
<polyline points="-185.5494510153049 118.50889558871543 -164.706814926754 96.9328580878737 -178.60190565245458 111.31688308843484"/>
<polyline points="-165.56679518851658 124.00263255413634 -159.04923995654764 130.34550728698716"/>
<polyline points="-159.04923995654764 130.34550728698716 -152.53168472457858 136.68838201983786"/>
<polyline points="-158.18925969478497 103.27573282072443 -151.24171433193467 96.08372032044386"/>
<polyline points="-151.24171433193467 96.08372032044386 -144.29416896908435 88.89170782016328"/>
<polyline points="-158.18925969478497 103.27573282072443 -151.24171433193467 96.08372032044386"/>
<polyline points="-137.77661373711538 95.23458255301402 -131.2590585051464 101.57745728586482"/>
<polyline points="-131.2590585051464 101.57745728586482 -137.77661373711538 95.23458255301402"/>
<polyline points="-131.2590585051464 101.57745728586482 -124.74150327317741 107.92033201871558"/>
<polyline points="-172.08435042048555 117.6597578212856 -179.03189578333587 124.85177032156619"/>
<polyline points="-165.13680505763526 110.46774532100498 -158.18925969478497 103.27573282072443"/>
<polyline points="-144.72415909996565 102.42659505329462 -138.2066038679967 108.76946978614542"/>
<polyline points="-131.6890486360277 115.11234451899617 -138.2066038679967 108.76946978614542"/>
<polyline points="-131.6890486360277 115.11234451899617 -125.17149340405871 121.45521925184694"/>
<polyline points="-115.61204941189966 130.63409404096907 -112.57016065170957 133.47009409724046"/>
<polyline points="-109.52827189151947 136.30609415351182 -106.48638313132933 139.14209420978318"/>
<polyline points="-109.52827189151947 136.30609415351182 -106.48638313132933 139.14209420978318"/>
<polyline points="-96.49694900828891 134.786081765774 -89.54940364543862 127.5940692654934"/>
<polyline points="-82.60185828258831 120.40205676521283 -75.654312919738 113.21004426493226"/>
<polyline points="-82.60185828258831 120.40205676521283 -75.654312919738 113.21004426493226"/>
<polyline points="-62.18921232491874 112.36090649750243 -55.671657092949744 118.70378123035319"/>
<polyline points="-178.60190565245458 111.31688308843484 -157.75926956390364 89.74084558759313 -171.65436028960426 104.12487058815422"/>
<polyline points="-158.6192498256663 116.81062005385577 -152.1016945936973 123.15349478670655"/>
<polyline points="-152.1016945936973 123.15349478670655 -145.5841393617283 129.4963695195573"/>
<polyline points="-151.24171433193467 96.08372032044386 -144.29416896908435 88.89170782016328"/>
<polyline points="-144.29416896908435 88.89170782016328 -137.3466236062341 81.69969531988268"/>
<polyline points="-151.24171433193467 96.08372032044386 -144.29416896908435 88.89170782016328"/>
<polyline points="-130.8290683742651 88.04257005273347 -124.3115131422961 94.38544478558426"/>
<polyline points="-124.3115131422961 94.38544478558426 -130.8290683742651 88.04257005273347"/>
<polyline points="-165.13680505763526 110.46774532100498 -172.08435042048555 117.6597578212856"/>
<polyline points="-165.13680505763526 110.46774532100498 -172.08435042048555 117.6597578212856"/>
<polyline points="-165.13680505763526 110.46774532100498 -158.6192498256663 116.81062005385577"/>
<polyline points="-159.0492399565476 130.34550728698716 -165.9967853193979 137.53751978726774"/>
<polyline points="-172.9443306822482 144.7295322875483 -165.9967853193979 137.53751978726774"/>
<polyline points="-172.9443306822482 144.7295322875483 -179.89187604509854 151.9215447878289"/>
<polyline points="-183.79753264775874 161.94955734438088 -180.75564388756865 164.7855574006522"/>
<polyline points="-177.7137551273786 167.6215574569235 -174.67186636718844 170.45755751319493"/>
<polyline points="-177.7137551273786 167.6215574569235 -174.67186636718844 170.45755751319493"/>
<polyline points="-165.11242237502938 179.6364323023171 -158.59486714306038 185.97930703516786"/>
<polyline points="-152.0773119110914 192.32218176801865 -161.2029781916617 183.8141815992045 -155.11920067128153 189.4861817117472"/>
<polyline points="-169.0142913969821 203.87020671230837 -175.96183675983238 211.06221921258899"/>
<polyline points="-175.96183675983238 211.06221921258899 -182.90938212268267 218.2542317128696"/>
<polyline points="-168.15052355451198 191.0061940994851 -171.19241231470212 188.1701940432137"/>
<polyline points="-171.19241231470212 188.1701940432137 -174.23430107489222 185.33419398694227"/>
<polyline points="-168.15052355451198 191.0061940994851 -171.19241231470212 188.1701940432137"/>
<polyline points="-181.1818464377425 192.5262064872229 -188.12939180059286 199.7182189875035"/>
<polyline points="-188.12939180059286 199.7182189875035 -181.1818464377425 192.5262064872229"/>
<polyline points="-188.12939180059286 199.7182189875035 -195.07693716344315 206.91023148778407"/>
<polyline points="-162.0667460341318 196.67819421202788 -159.02485727394173 199.5141942682992"/>
<polyline points="-165.10863479432194 193.84219415575643 -168.15052355451198 191.0061940994851"/>
<polyline points="-178.13995767755245 195.36220654349427 -185.0875030404027 202.55421904377482"/>
<polyline points="-192.035048403253 209.74623154405543 -185.0875030404027 202.55421904377482"/>
<polyline points="-192.035048403253 209.74623154405543 -198.9825937661033 216.93824404433602"/>
<polyline points="-199.4125838969847 230.47313127746742 -192.89502866501567 236.81600601031815"/>
<polyline points="-186.3774734330467 243.1588807431689 -179.85991820107765 249.50175547601958"/>
<polyline points="-186.3774734330467 243.1588807431689 -179.85991820107765 249.50175547601958"/>
<polyline points="-176.38425172929874 253.00863015259907 -179.42614048948886 250.17263009632765"/>
</svg>