<svg viewBox="-560.1148535400125 -253.77464617741845 1128.0933801577676 754.843203208028" xmlns="http://www.w3.org/2000/svg">
<style>
svg { stroke:black; stroke-width:2px; fill:none;}
</style>
<polyline points="567.9785266177552 -98.15720521809449 566.1853282774898 -88.54822969647529"/>
<polyline points="566.1853282774898 -88.54822969647506 559.1788427616005 -94.93346758746546"/>
<polyline points="559.1788427616005 -94.93346758746546 559.3724174103747 -86.4503330438711"/>
<polyline points="559.3724174103747 -86.4503330438711 549.861594651407 -89.5154077747302"/>
<polyline points="549.861594651407 -89.5154077747302 551.5909222149826 -99.00965674369272"/>
<polyline points="551.5909222149826 -99.00965674369272 552.4557780344084 -93.1328242040625"/>
<polyline points="552.4557780344084 -93.1328242040625 554.1851055979839 -102.62707317302504"/>
<polyline points="554.1851055979839 -102.62707317302504 559.4991183111749 -98.87601026219816"/>
<polyline points="559.4991183111749 -98.87601026219816 561.1889708571238 -94.00490458909542"/>
<polyline points="561.1889708571238 -94.00490458909542 554.421967271348 -89.8634022640145"/>
<polyline points="554.421967271348 -89.8634022640145 559.0617895244351 -84.60100490152328"/>
<polyline points="559.0617895244351 -84.60100490152328 550.621362335819 -79.34620390229279"/>
<polyline points="550.621362335819 -79.34620390229279 549.5033963474425 -89.27991649527144"/>
<polyline points="549.5033963474425 -89.27991649527144 545.9855784182035 -80.28627158796634"/>
<polyline points="545.9855784182035 -80.28627158796634 544.2477682865015 -90.05156136896176"/>
<polyline points="544.2477682865015 -90.05156136896176 537.9551230733961 -83.5202206752662"/>
<polyline points="537.9551230733961 -83.5202206752662 546.3274827594545 -78.73670143792698"/>
<polyline points="546.3274827594545 -78.73670143792698 538.6883161934319 -85.11910512860729"/>
<polyline points="538.6883161934319 -85.11910512860729 539.8106010659926 -77.73252199732448"/>
<polyline points="539.8106010659926 -77.73252199732448 537.1427909695695 -81.19979231907153"/>
<polyline points="537.1427909695695 -81.19979231907153 539.3523967292956 -90.90121279299375"/>
<polyline points="539.3523967292956 -90.90121279299375 529.6857011514782 -90.06388317919279"/>
<polyline points="529.6857011514782 -90.06388317919279 530.2806675388977 -80.13353184014096"/>
<polyline points="530.2806675388977 -80.13353184014096 537.6363483225134 -86.62416730814475"/>
<polyline points="537.6363483225134 -86.62416730814475 540.9764570128998 -94.38520007181963"/>
<polyline points="537.6363483225134 -86.62416730814475 540.9764570128998 -94.38520007181963"/>
<polyline points="540.9764570128998 -94.38520007181963 541.2639956479356 -104.36103362973324"/>
<polyline points="541.2639956479356 -104.36103362973324 534.7001038122552 -106.25756334528656 514.733948905538 -105.24117157004679 505.8720506287382 -109.67032715964426 496.2954006547071 -109.1905586703411 475.7029039641028 -103.82909222083875"/>
<polyline points="475.7029039641028 -103.82909222083875 469.1934163148146 -108.95389603798722 451.0874095843841 -110.65833423142489 444.57792193509624 -115.78313804857355 436.81019821165614 -115.93524200497657 424.4642740584651 -108.1866811145392"/>
<polyline points="424.4642740584651 -108.1866811145392 421.75638860336994 -112.53178214024365"/>
<polyline points="424.4642740584651 -108.1866811145392 421.75638860336994 -112.53178214024365"/>
<polyline points="424.4642740584651 -108.1866811145392 418.1392989465021 -110.11785364619797"/>
<polyline points="418.1392989465021 -110.11785364619797 408.89367715978346 -113.70727928790329"/>
<polyline points="436.81019821165614 -115.93524200497657 430.48522309969314 -117.86641453663538 415.519716108807 -106.56723211171875 412.10944227441956 -99.71782510458752 405.8614658700355 -92.21440543354801 395.3374269380006 -64.70817084235752"/>
<polyline points="395.3374269380006 -64.70817084235752 395.57742809877203 -55.58648828407161 386.3460682532012 -38.50249745920079 386.58606941397255 -29.380814900914835 383.2722084151151 -19.951992139521114 379.2138067127506 6.654208287399885"/>
<polyline points="379.2138067127506 6.654208287399885 386.4155549910198 13.413772255680684"/>
<polyline points="379.2138067127506 6.654208287399885 382.8551640902201 15.950212458362609"/>
<polyline points="383.2722084151151 -19.951992139521114 382.4788019714456 -10.002422078596078"/>
<polyline points="383.2722084151151 -19.951992139521114 382.4788019714456 -10.002422078596078"/>
<polyline points="395.3374269380006 -64.70817084235752 391.22388569597956 -56.172480583291026"/>
<polyline points="391.22388569597956 -56.172480583291026 381.81288739742877 -52.870777778762935"/>
<polyline points="391.22388569597956 -56.172480583291026 381.81288739742877 -52.870777778762935"/>
<polyline points="381.81288739742877 -52.870777778762935 374.0778520519122 -50.87409997571299"/>
<polyline points="405.8614658700355 -92.21440543354801 401.74792462801435 -83.67871517448137 384.860681886302 -74.88130466632181 380.1640057910554 -68.30367818906547 372.0175654941163 -65.49886290876171 351.6987740539507 -70.7037342094802"/>
<polyline points="351.6987740539507 -70.7037342094802 349.23897899236306 -67.15696252269429 335.2876181512808 -61.73042514546014 332.82782308969325 -58.18365345867423 326.4535906292184 -57.752973934258016 311.3818480592194 -71.416926062995"/>
<polyline points="311.3818480592194 -71.416926062995 311.5133363662861 -71.9136665291006"/>
<polyline points="311.3818480592194 -71.416926062995 311.5133363662861 -71.9136665291006"/>
<polyline points="311.3818480592194 -71.416926062995 307.18893104575415 -71.16249630344899"/>
<polyline points="307.18893104575415 -71.16249630344899 301.69548117797467 -64.91705522563731"/>
<polyline points="326.4535906292184 -57.752973934258016 322.26067361575303 -57.498544174712045 303.3827172949967 -61.612161814336105 296.5137504677897 -68.11264449167389 287.0368415206201 -71.29449169949623 262.6667714389683 -81.49365823334742"/>
<polyline points="262.6667714389683 -81.49365823334742 257.50906767162644 -90.01654749419995 240.00864564207288 -99.6399988645423 234.8509418747308 -108.16288812539482 226.69102605634905 -113.07454119136138 208.26576016836387 -121.66978741709922"/>
<polyline points="208.26576016836387 -121.66978741709922 210.203027401356 -130.61893398638622"/>
<polyline points="208.26576016836387 -121.66978741709922 205.85216265811357 -130.03107776828907"/>
<polyline points="226.69102605634905 -113.07454119136138 220.28089519531616 -119.7246103889685"/>
<polyline points="262.6667714389683 -81.49365823334742 254.3138825775406 -86.9917581597953"/>
<polyline points="303.3827172949967 -61.612161814336105 296.21940127195666 -62.100655719610465"/>
<polyline points="296.21940127195666 -62.100655719610465 291.21893690682253 -53.642511077035905"/>
<polyline points="322.26067361575303 -57.498544174712045 315.0973575927129 -57.98703807998634"/>
<polyline points="326.4535906292184 -57.752973934258016 322.26067361575303 -57.498544174712045"/>
<polyline points="351.6987740539507 -70.7037342094802 345.3009442095218 -67.28284803930129"/>
<polyline points="345.3009442095218 -67.28284803930129 335.32763921609484 -66.59115862064363"/>
<polyline points="345.3009442095218 -67.28284803930129 335.32763921609484 -66.59115862064363"/>
<polyline points="335.32763921609484 -66.59115862064363 328.3052138832122 -59.473858937194294"/>
<polyline points="372.0175654941163 -65.49886290876171 365.61973564968736 -62.0779767385828 346.03152503593986 -65.71199138320364 338.52985600805494 -71.0464151528443 329.2978776113738 -74.8224771227909 309.3974183471819 -92.30346621587283"/>
<polyline points="309.3974183471819 -92.30346621587283 304.60722347820126 -100.94840635282448 287.93969463552423 -111.94561795452722 283.1494997665438 -120.59055809147891 276.03723752391056 -127.12422063281407 263.915621006354 -145.66103848097345"/>
<polyline points="263.915621006354 -145.66103848097345 262.82615228056284 -155.49384392798927"/>
<polyline points="263.915621006354 -145.66103848097345 262.82615228056284 -155.49384392798927"/>
<polyline points="263.915621006354 -145.66103848097345 258.68958936719446 -153.91088788504976"/>
<polyline points="258.68958936719446 -153.91088788504976 250.61697055347148 -158.76404484853663"/>
<polyline points="276.03723752391056 -127.12422063281407 270.81120588475085 -135.37407003689037 254.11602194598052 -137.11423455589545 249.63379551394215 -138.85366043713395 241.97591767952125 -137.36774600512462 225.06827181787838 -118.80880875207836"/>
<polyline points="225.06827181787838 -118.80880875207836 223.4604946061108 -116.67766990985128 210.86683226152493 -112.24758985071459 209.2590550497573 -110.1164510084875 203.89319484881437 -105.51532941255562 192.99710783885106 -80.30074616793472"/>
<polyline points="192.99710783885106 -80.30074616793472 198.5344325839853 -76.23136353039372"/>
<polyline points="192.99710783885106 -80.30074616793472 194.4307815472951 -74.6419621902287"/>
<polyline points="203.89319484881437 -105.51532941255562 200.8724840532851 -100.34961703258386"/>
<polyline points="203.89319484881437 -105.51532941255562 200.8724840532851 -100.34961703258386"/>
<polyline points="225.06827181787838 -118.80880875207836 219.31110435192403 -117.13705896486562"/>
<polyline points="219.31110435192403 -117.13705896486562 209.36624292127232 -116.41755608818467"/>
<polyline points="219.31110435192403 -117.13705896486562 209.36624292127232 -116.41755608818467"/>
<polyline points="209.36624292127232 -116.41755608818467 201.77373905737758 -121.47040701539187"/>
<polyline points="241.97591767952125 -137.36774600512462 236.21875021356698 -135.6959962179119 217.40995386605428 -128.93040159943317 210.96500200132587 -121.3321075264761 202.0888817659441 -117.22836715800366 182.2036304028196 -107.16285898831381"/>
<polyline points="182.2036304028196 -107.16285898831381 178.43109187187105 -98.43363419412063 162.79911329826973 -87.43189975952804 159.02657476732125 -78.70267496533492 152.25295212928657 -73.58004441555019 139.37153849340712 -66.97918714268367"/>
<polyline points="139.37153849340712 -66.97918714268367 138.9848627416242 -59.35337798933165"/>
<polyline points="139.37153849340712 -66.97918714268367 138.9848627416242 -59.35337798933165"/>
<polyline points="139.37153849340712 -66.97918714268367 134.66984504419895 -60.454554749264304"/>
<polyline points="134.66984504419895 -60.454554749264304 127.54876624347862 -53.46733461216792"/>
<polyline points="152.25295212928657 -73.58004441555019 147.55125868007838 -67.05541202213082 129.83911253830402 -68.94496080731963 124.45919148318634 -71.46761908972645 115.97179259693672 -74.91686789672835 95.54604364086047 -96.70829982589048"/>
<polyline points="95.54604364086047 -96.70829982589048 92.5526277115731 -103.34180323301516 77.83777687586422 -113.10334555173651 74.84436094657681 -119.73684895886123 68.2416848173035 -126.55358464187502 53.713998758327584 -152.48225167813186"/>
<polyline points="53.713998758327584 -152.48225167813186 61.01732020463044 -157.3314131355929"/>
<polyline points="53.713998758327584 -152.48225167813186 53.60357127443889 -161.70579410476398"/>
<polyline points="77.83777687586422 -113.10334555173651 71.23335259569632 -113.68979945053746"/>
<polyline points="115.97179259693672 -74.91686789672835 109.12550264491435 -79.71319389866362"/>
<polyline points="152.25295212928657 -73.58004441555019 147.55125868007838 -67.05541202213082"/>
<polyline points="162.79911329826973 -87.43189975952804 155.1644021274186 -81.35986493708384"/>
<polyline points="202.0888817659441 -117.22836715800366 194.65550766009184 -111.00751303787672"/>
<polyline points="236.21875021356698 -135.6959962179119 228.0420912220467 -133.3515214621163"/>
<polyline points="254.11602194598052 -137.11423455589545 246.70399323381758 -142.7502386206956"/>
<polyline points="246.70399323381758 -142.7502386206956 239.32831849655489 -140.4954847628118"/>
<polyline points="270.81120588475085 -135.37407003689037 263.399177172588 -141.01007410169063"/>
<polyline points="276.03723752391056 -127.12422063281407 270.81120588475085 -135.37407003689037"/>
<polyline points="309.3974183471819 -92.30346621587283 301.310608167286 -98.17960489581527"/>
<polyline points="301.310608167286 -98.17960489581527 291.8815919101476 -96.31896719626602"/>
<polyline points="301.310608167286 -98.17960489581527 291.8815919101476 -96.31896719626602"/>
<polyline points="291.8815919101476 -96.31896719626602 282.8810018880315 -95.32307015090282"/>
<polyline points="329.2978776113738 -74.8224771227909 321.2110674314779 -80.69861580273323 304.162347352151 -78.98759170223548 298.58862757279115 -81.3257575061055 291.50339308740644 -78.89806263841665 281.3020070359659 -60.8602003018805"/>
<polyline points="281.3020070359659 -60.8602003018805 279.7446082978623 -61.14178903188605 268.41831174833794 -56.72517170242978 266.8609130102343 -57.0067604324353 262.9778215078343 -52.94942272051719 261.19480459202293 -30.101585267853086"/>
<polyline points="261.19480459202293 -30.101585267853086 263.8944574429013 -28.006337893789876"/>
<polyline points="261.19480459202293 -30.101585267853086 263.8944574429013 -28.006337893789876"/>
<polyline points="261.19480459202293 -30.101585267853086 259.6045734499226 -26.711228977975836"/>
<polyline points="259.6045734499226 -26.711228977975836 253.4081329245617 -28.436807176076773"/>
<polyline points="262.9778215078343 -52.94942272051719 261.38759036573396 -49.55906643063995 248.09294613362138 -35.98105321801745 245.78987039927583 -26.513991946284136 239.05432035172808 -19.14675901384803 219.10175774673579 -1.0530112122212585"/>
<polyline points="219.10175774673579 -1.0530112122212585 218.19622096788402 8.602456121348588 207.05120663365918 25.154242567210343 206.14566985480732 34.80970990078024 200.53142840207846 42.44797104352352 183.15596774595178 54.92246243951307"/>
<polyline points="183.15596774595178 54.92246243951307 187.83202371941223 60.955900999667115"/>
<polyline points="183.15596774595178 54.92246243951307 183.5927840667413 62.40486121263202"/>
<polyline points="200.53142840207846 42.44797104352352 197.01326910684372 50.59160116899761"/>
<polyline points="200.53142840207846 42.44797104352352 197.01326910684372 50.59160116899761"/>
<polyline points="219.10175774673579 -1.0530112122212585 214.29897716147497 7.708435162747424"/>
<polyline points="214.29897716147497 7.708435162747424 204.95984140866793 10.083863679589458"/>
<polyline points="214.29897716147497 7.708435162747424 204.95984140866793 10.083863679589458"/>
<polyline points="204.95984140866793 10.083863679589458 200.3149586790017 15.634507154308245"/>
<polyline points="239.05432035172808 -19.14675901384803 234.25153976646723 -10.385312638879276 214.55589023531843 -6.910641339163938 206.0122064458748 -5.3632276979347315 196.0580436264624 -6.141000162190229 171.30726006324284 -23.087712235158257"/>
<polyline points="171.30726006324284 -23.087712235158257 164.28132998043117 -25.927759348062693 145.10023336837236 -29.64630265273654 138.07430328556075 -32.486349765641016 129.25662549709213 -36.80423621483061 111.35059037978688 -60.853116509843574"/>
<polyline points="111.35059037978688 -60.853116509843574 107.37873621706588 -67.51740550853157"/>
<polyline points="111.35059037978688 -60.853116509843574 107.37873621706588 -67.51740550853157"/>
<polyline points="111.35059037978688 -60.853116509843574 103.85556577858289 -66.23800126135612"/>
<polyline points="103.85556577858289 -66.23800126135612 94.88144187322115 -64.71432045514113"/>
<polyline points="129.25662549709213 -36.80423621483061 121.7616008958881 -42.18912096634308 104.80534649030855 -48.09903350218087 99.61544746019041 -55.00017945770069 92.44522690855905 -57.36453910609623 80.94563918684253 -55.672817349097215"/>
<polyline points="80.94563918684253 -55.672817349097215 79.59021281532151 -61.60595673125253 68.16706890078576 -67.92605971118985 66.81164252926482 -73.85919909334511 62.70169679438362 -75.53169524763732 59.084183488588565 -67.8330231598776"/>
<polyline points="59.084183488588565 -67.8330231598776 65.22910046568204 -72.32013335594884"/>
<polyline points="59.084183488588565 -67.8330231598776 61.73185596944021 -71.17070731923877"/>
<polyline points="62.70169679438362 -75.53169524763732 60.95427970634773 -78.11269466245332"/>
<polyline points="80.94563918684253 -55.672817349097215 75.5660254026376 -59.703308038515125"/>
<polyline points="104.80534649030855 -48.09903350218087 95.91464673003587 -52.64893228278828"/>
<polyline points="95.91464673003587 -52.64893228278828 89.81420445196929 -44.76339091466398"/>
<polyline points="121.7616008958881 -42.18912096634308 112.8709011356155 -46.73901974695054"/>
<polyline points="129.25662549709213 -36.80423621483061 121.7616008958881 -42.18912096634308"/>
<polyline points="171.30726006324284 -23.087712235158257 161.8807410226304 -24.57066841696058"/>
<polyline points="161.8807410226304 -24.57066841696058 153.28678062655976 -23.603350569261185"/>
<polyline points="161.8807410226304 -24.57066841696058 153.28678062655976 -23.603350569261185"/>
<polyline points="153.28678062655976 -23.603350569261185 145.17006366166555 -17.762766975989155"/>
<polyline points="196.0580436264624 -6.141000162190229 186.63152458584983 -7.623956343992602 170.36823557662532 -10.999884171358062 163.9975561939014 -17.389769771726773 157.63200041549405 -19.614543751504648 152.14819282945632 -23.792849553454957"/>
<polyline points="152.14819282945632 -23.792849553454957 150.12728474022748 -31.33519154548803 139.86609896563613 -38.70939166810589 137.84519087640734 -46.25173366013896 134.9389051724361 -49.500567479663225 139.00682011973154 -50.85631955791971"/>
<polyline points="139.00682011973154 -50.85631955791971 141.7677952304085 -57.553587676226016"/>
<polyline points="139.00682011973154 -50.85631955791971 141.7677952304085 -57.553587676226016"/>
<polyline points="139.00682011973154 -50.85631955791971 138.05160777450877 -55.77073119173878"/>
<polyline points="138.05160777450877 -55.77073119173878 131.27847409551515 -61.425337498634285"/>
<polyline points="134.9389051724361 -49.500567479663225 133.9836928272133 -54.41497911348225 124.9505638613608 -48.46324889659018 125.40475949758574 -44.17979101715136 121.08740904963263 -38.876576355640616 107.89541586376815 -13.65067667812517"/>
<polyline points="107.89541586376815 -13.65067667812517 109.95405581464206 -5.893560179513684 104.18759438665901 7.263696352890644 106.24623433753291 15.02081285150208 103.25187431040074 23.194276757455498 91.2427617424166 50.685212068578316"/>
<polyline points="91.2427617424166 50.685212068578316 97.76331522439266 58.25648332937173"/>
<polyline points="91.2427617424166 50.685212068578316 94.141899131903 60.14527230429254"/>
<polyline points="103.25187431040074 23.194276757455498 102.47297736840493 32.32971161305675"/>
<polyline points="103.25187431040074 23.194276757455498 102.47297736840493 32.32971161305675"/>
<polyline points="107.89541586376815 -13.65067667812517 105.87712125939976 -7.1593351023808385"/>
<polyline points="105.87712125939976 -7.1593351023808385 97.52314782113639 -5.83889265003514"/>
<polyline points="105.87712125939976 -7.1593351023808385 97.52314782113639 -5.83889265003514"/>
<polyline points="97.52314782113639 -5.83889265003514 94.38662697659433 -6.975459281310455"/>
<polyline points="121.08740904963263 -38.876576355640616 119.06911444526425 -32.3852347798964 101.25708994973438 -26.168060168979235 93.77042117279986 -19.54169210793832 84.0576194139882 -17.4135875101832 55.49150757112458 -21.640953040159953"/>
<polyline points="55.49150757112458 -21.640953040159953 48.248466287529276 -16.690681165392327 29.031939963061777 -11.389921155695534 21.788898679466474 -6.439649280927916 12.192112675265811 -5.582144720963567 -11.969360535284007 -16.594319158899914"/>
<polyline points="-11.969360535284007 -16.594319158899914 -17.417877862195564 -14.711367096909983"/>
<polyline points="-11.969360535284007 -16.594319158899914 -17.417877862195564 -14.711367096909983"/>
<polyline points="-11.969360535284007 -16.594319158899914 -20.523990413404732 -15.122330354543806"/>
<polyline points="-20.523990413404732 -15.122330354543806 -28.466329535686654 -9.057900169037625"/>
<polyline points="12.192112675265811 -5.582144720963567 3.6374827971451262 -4.11015591660748 -14.688485763799997 -10.79123278099748 -21.88814404858737 -17.653400460144248 -29.727649201264864 -22.612994475777302 -41.48569066403668 -40.74517665268793"/>
<polyline points="-41.48569066403668 -40.74517665268793 -44.87133578345756 -50.126638851118045 -58.31927741874687 -63.19908059108981 -61.7049225381677 -72.58054278951987 -66.52841791447428 -79.67385406048389 -69.05577203365857 -96.85775572723514"/>
<polyline points="-69.05577203365857 -96.85775572723514 -63.37687744308366 -103.85746765231829"/>
<polyline points="-69.05577203365857 -96.85775572723514 -67.91101694490646 -106.4520572675587"/>
<polyline points="-41.48569066403668 -40.74517665268793 -48.13815896706472 -47.72852453740052"/>
<polyline points="3.6374827971451262 -4.11015591660748 -6.160324900804904 -4.462312870757782"/>
<polyline points="84.0576194139882 -17.4135875101832 74.75468382027752 -13.911210299777489"/>
<polyline points="101.25708994973438 -26.168060168979235 95.8069073727301 -20.810268575449452"/>
<polyline points="124.9505638613608 -48.46324889659018 121.95628248131317 -50.34417401305056"/>
<polyline points="134.9389051724361 -49.500567479663225 133.9836928272133 -54.41497911348225"/>
<polyline points="157.63200041549405 -19.614543751504648 152.47555415197627 -24.12553042482207"/>
<polyline points="170.36823557662532 -10.999884171358062 160.49439369130144 -12.418573215402558"/>
<polyline points="196.0580436264624 -6.141000162190229 186.63152458584983 -7.623956343992602"/>
<polyline points="234.25153976646723 -10.385312638879276 226.5918974253238 -3.9569587022467685"/>
<polyline points="248.09294613362138 -35.98105321801745 243.75936618574113 -30.880323306902188"/>
<polyline points="243.75936618574113 -30.880323306902188 235.2564159226262 -36.0276140179647"/>
<polyline points="261.38759036573396 -49.55906643063995 257.0540104178537 -44.45833651952465"/>
<polyline points="262.9778215078343 -52.94942272051719 261.38759036573396 -49.55906643063995"/>
<polyline points="281.3020070359659 -60.8602003018805 275.8857824198132 -59.495155814596764"/>
<polyline points="275.8857824198132 -59.495155814596764 266.89458527146024 -55.29186199757424"/>
<polyline points="275.8857824198132 -59.495155814596764 266.89458527146024 -55.29186199757424"/>
<polyline points="266.89458527146024 -55.29186199757424 257.6338233098039 -58.01652361781294"/>
<polyline points="291.50339308740644 -78.89806263841665 286.0871684712538 -77.53301815113299 271.1585939440175 -64.61306520648625 267.94891410295077 -55.72447313972263 261.45822286539385 -48.13479996626419 248.62017063421501 -25.9445522984611"/>
<polyline points="248.62017063421501 -25.9445522984611 248.6537792453741 -15.947262153249286 238.8220249855848 1.3677136259493472 238.85563359674393 11.365003771161135 234.97200860350787 19.96435148881673 227.87426166281418 38.21971853299437"/>
<polyline points="227.87426166281418 38.21971853299437 230.92823851331661 46.92289340603694"/>
<polyline points="227.87426166281418 38.21971853299437 230.92823851331661 46.92289340603694"/>
<polyline points="227.87426166281418 38.21971853299437 226.48557910946693 47.45205177108614"/>
<polyline points="226.48557910946693 47.45205177108614 222.43919538676502 56.10974405952472"/>
<polyline points="234.97200860350787 19.96435148881673 233.58332605016068 29.196684726908483 217.32815132485277 36.897731257110756 212.13992839027767 39.04063192180501 203.37439603419605 40.39495110242075 176.6558306303184 29.836991424883717"/>
<polyline points="176.6558306303184 29.836991424883717 172.03975361693696 27.117495739046632 155.65665050367755 26.843321589107678 151.0405734902962 24.12382590327052 142.68908520635443 21.55466973289682 119.26638261268427 3.133195523556076"/>
<polyline points="119.26638261268427 3.133195523556076 120.53936709118958 -4.30110629441823"/>
<polyline points="119.26638261268427 3.133195523556076 116.08392502869094 -3.8215700594529074"/>
<polyline points="142.68908520635443 21.55466973289682 135.8952803164149 17.20142060781258"/>
<polyline points="142.68908520635443 21.55466973289682 135.8952803164149 17.20142060781258"/>
<polyline points="176.6558306303184 29.836991424883717 169.03904502353555 29.807060475046953"/>
<polyline points="169.03904502353555 29.807060475046953 159.93484228096614 33.88092316931808"/>
<polyline points="169.03904502353555 29.807060475046953 159.93484228096614 33.88092316931808"/>
<polyline points="159.93484228096614 33.88092316931808 154.6243573969976 41.18221876664513"/>
<polyline points="203.37439603419605 40.39495110242075 195.75761042741323 40.365020152583966 176.3337424601408 43.570547770851235 167.1987713925299 40.03526926159795 158.20115877442223 41.18544315292102 141.30697966846716 45.686928718307335"/>
<polyline points="141.30697966846716 45.686928718307335 134.9203475204498 40.571232400853766 117.9285983602799 39.74324877541652 111.54196621226257 34.62755245796295 104.66929738410191 34.4381172115643 96.83410999085866 39.587936760484105"/>
<polyline points="96.83410999085866 39.587936760484105 94.6618501002299 34.3598098511372"/>
<polyline points="96.83410999085866 39.587936760484105 94.6618501002299 34.3598098511372"/>
<polyline points="96.83410999085866 39.587936760484105 91.29241383967242 37.30712039489012"/>
<polyline points="91.29241383967242 37.30712039489012 81.88221187683376 34.65279726997582"/>
<polyline points="104.66929738410191 34.4381172115643 99.1276012329156 32.15730084597032 86.7901497194275 43.94517637889397 85.15472011645703 50.112468943211894 80.2833800299167 57.88075516417114 72.89898704334489 86.95337714772967"/>
<polyline points="72.89898704334489 86.95337714772967 74.8634002797055 95.28119077920911 68.6663482380709 112.41423868397567 70.6307614744315 120.7420523154551 68.67467953947937 130.33411915338954 66.58734616919581 158.89583590040866"/>
<polyline points="66.58734616919581 158.89583590040866 74.76570894720082 164.4784788452175"/>
<polyline points="66.58734616919581 158.89583590040866 71.48032671119167 167.52545674412693"/>
<polyline points="68.67467953947937 130.33411915338954 69.30029720770993 140.1080887381354"/>
<polyline points="72.89898704334489 86.95337714772967 70.39341618222713 95.3372856383572"/>
<polyline points="86.7901497194275 43.94517637889397 80.12650748945758 45.15262865928047"/>
<polyline points="80.12650748945758 45.15262865928047 71.57226263919463 45.02346796223151"/>
<polyline points="99.1276012329156 32.15730084597032 92.46395900294567 33.36475312635682"/>
<polyline points="104.66929738410191 34.4381172115643 99.1276012329156 32.15730084597032"/>
<polyline points="141.30697966846716 45.686928718307335 132.7099222332122 44.38653532009878"/>
<polyline points="132.7099222332122 44.38653532009878 125.12243800066022 50.71771147215692"/>
<polyline points="132.7099222332122 44.38653532009878 125.12243800066022 50.71771147215692"/>
<polyline points="125.12243800066022 50.71771147215692 115.53055335356858 51.70931165647162"/>
<polyline points="158.20115877442223 41.18544315292102 149.60410133916724 39.885049754712476 137.3283849340823 53.73270408457495 134.3179301734977 59.35050593740459 130.25530540598558 67.792399676062 130.73494964185102 97.66287468191777"/>
<polyline points="130.73494964185102 97.66287468191777 132.4233257873365 104.5178985384317 127.72426595387813 121.85391561154606 129.4126420993636 128.70893946806 129.13569309084363 138.2143100316868 137.5039697627008 166.84195967765865"/>
<polyline points="137.5039697627008 166.84195967765865 143.39941684989486 173.4949091179002"/>
<polyline points="137.5039697627008 166.84195967765865 143.39941684989486 173.4949091179002"/>
<polyline points="137.5039697627008 166.84195967765865 139.57550308905135 175.76444907903627"/>
<polyline points="139.57550308905135 175.76444907903627 135.9861700244799 181.8032304926143"/>
<polyline points="129.13569309084363 138.2143100316868 131.20722641719416 147.13679943306443 123.07809591239382 164.92144358592316 123.2257769335377 173.52557492013918 118.3611111369007 181.17413979625397 98.49957015348146 191.4752631157521"/>
<polyline points="98.49957015348146 191.4752631157521 98.46687883158212 196.63082911940475 90.38470399784285 210.65875610609012 90.3520126759435 215.81432210974282 85.35711295038736 220.76506513649463 64.44180297724594 221.266264813391"/>
<polyline points="64.44180297724594 221.266264813391 67.71363976132582 219.4198129794357"/>
<polyline points="64.44180297724594 221.266264813391 63.951343730106124 221.75199466580474"/>
<polyline points="85.35711295038736 220.76506513649463 81.93722428053503 224.38365644159876"/>
<polyline points="85.35711295038736 220.76506513649463 81.93722428053503 224.38365644159876"/>
<polyline points="98.49957015348146 191.4752631157521 95.34108357445146 198.7199118702646"/>
<polyline points="95.34108357445146 198.7199118702646 87.89326073464873 205.30388221037262"/>
<polyline points="95.34108357445146 198.7199118702646 87.89326073464873 205.30388221037262"/>
<polyline points="87.89326073464873 205.30388221037262 86.71033275868243 215.16597795133833"/>
<polyline points="118.3611111369007 181.17413979625397 115.20262455787073 188.4187885507665 97.45223771032104 197.6270389436075 88.14556181594916 198.35528377715556 78.56082714793702 200.92048779170915 52.54272444197517 197.8837439881156"/>
<polyline points="52.54272444197517 197.8837439881156 43.41951491809206 194.125763261477 23.549965805241527 195.4783279421235 14.426756281358426 191.7203472154849 4.881984473855031 190.64339328717261 -15.459390762161902 181.45736022884523"/>
<polyline points="-15.459390762161902 181.45736022884523 -22.300216004875832 174.22806591357147"/>
<polyline points="-15.459390762161902 181.45736022884523 -22.300216004875832 174.22806591357147"/>
<polyline points="-15.459390762161902 181.45736022884523 -24.578169409441923 177.9235375222297"/>
<polyline points="-24.578169409441923 177.9235375222297 -34.0251369223973 179.32554394889283"/>
<polyline points="4.881984473855031 190.64339328717261 -4.236794173424984 187.10957058055723 -18.17494191821502 194.84169561894532 -22.526332673424147 195.35399598304798 -27.483712006241035 200.5796189443149 -28.995327945229217 223.91153021106786"/>
<polyline points="-28.995327945229217 223.91153021106786 -28.68013174632096 225.6449645884363 -35.48235205154631 235.36353607599 -35.16715585263807 237.0969704533585 -36.38219749882231 243.30719434528908 -29.19512136510772 268.6504761124622"/>
<polyline points="-29.19512136510772 268.6504761124622 -22.055775091748146 263.7776333545393"/>
<polyline points="-29.19512136510772 268.6504761124622 -24.360773893669432 271.46196543645743"/>
<polyline points="-35.48235205154631 235.36353607599 -41.81547060637378 235.9701278343398"/>
<polyline points="-27.483712006241035 200.5796189443149 -30.77508783035663 204.62917972856567"/>
<polyline points="4.881984473855031 190.64339328717261 -4.236794173424984 187.10957058055723"/>
<polyline points="23.549965805241527 195.4783279421235 14.711159842404276 198.5172263968557"/>
<polyline points="78.56082714793702 200.92048779170915 68.5656958808016 201.22891168989395"/>
<polyline points="115.20262455787073 188.4187885507665 109.15404333135531 195.4192384703046"/>
<polyline points="123.07809591239382 164.92144358592316 122.28164671413253 174.72383990869028"/>
<polyline points="122.28164671413253 174.72383990869028 113.85979596926637 174.95729322720382"/>
<polyline points="131.20722641719416 147.13679943306443 130.41077721893288 156.9391957558315"/>
<polyline points="129.13569309084363 138.2143100316868 131.20722641719416 147.13679943306443"/>
<polyline points="130.73494964185102 97.66287468191777 128.59019918986417 105.91532066247396"/>
<polyline points="128.59019918986417 105.91532066247396 121.30107142292071 112.64392125841728"/>
<polyline points="128.59019918986417 105.91532066247396 121.30107142292071 112.64392125841728"/>
<polyline points="121.30107142292071 112.64392125841728 113.06220527408087 115.7543027499215"/>
<polyline points="130.25530540598558 67.792399676062 128.11055495399876 76.04484565661816 117.36863458713141 91.95399339527125 116.90415259863111 101.15651776273555 111.94489701766327 108.13482321156388 98.62648218820303 117.14355715895924"/>
<polyline points="98.62648218820303 117.14355715895924 100.23852922637367 123.65688545546696 93.33657972574278 137.3923129692291 94.94862676391348 143.9056412657368 91.68431111842652 148.81393292524677 80.75907980828535 148.5005315488904"/>
<polyline points="80.75907980828535 148.5005315488904 83.79911488846442 150.7094491079453"/>
<polyline points="80.75907980828535 148.5005315488904 83.79911488846442 150.7094491079453"/>
<polyline points="80.75907980828535 148.5005315488904 79.83723639449464 152.78821201397255"/>
<polyline points="79.83723639449464 152.78821201397255 78.44991408697408 161.91256344074776"/>
<polyline points="91.68431111842652 148.81393292524677 90.76246770463582 153.10161339032896 74.06721221250277 158.12140214437485 66.91636873266573 155.90071969518027 57.48146561082305 156.8024102661661 28.046175727786128 153.3244213401659"/>
<polyline points="28.046175727786128 153.3244213401659 20.569391208920027 147.54749324855257 1.5556240515524007 145.49142716906488 -5.921160467313688 139.71449907745156 -15.69873207944638 137.69114100176412 -41.69537207248125 131.22515320545736"/>
<polyline points="-41.69537207248125 131.22515320545736 -43.85864051885589 121.49443422337869"/>
<polyline points="-41.69537207248125 131.22515320545736 -47.8914465113448 123.44080898913948"/>
<polyline points="-15.69873207944638 137.69114100176412 -24.65685372882651 133.2488061611436"/>
<polyline points="-15.69873207944638 137.69114100176412 -24.65685372882651 133.2488061611436"/>
<polyline points="28.046175727786128 153.3244213401659 18.852119987719078 151.67774741264952"/>
<polyline points="18.852119987719078 151.67774741264952 11.274315706932436 158.02858257709272"/>
<polyline points="18.852119987719078 151.67774741264952 11.274315706932436 158.02858257709272"/>
<polyline points="11.274315706932436 158.02858257709272 6.146545417094171 161.91390783464655"/>
<polyline points="57.48146561082305 156.8024102661661 48.28740987075609 155.15573633864966 31.854878998715247 166.35368453965182 23.406393901599355 168.4859047718882 16.570261729318492 175.14602163211043 9.438702881164865 200.06581613778425"/>
<polyline points="9.438702881164865 200.06581613778425 4.494949497798372 202.64935220810636 -8.083238338504083 214.91377292341696 -13.02699172187058 217.49730899373904 -17.119735559592158 224.53616224943158 -14.372770895744779 249.46059079455338"/>
<polyline points="-14.372770895744779 249.46059079455338 -14.602592056042278 252.15110612636266"/>
<polyline points="-14.372770895744779 249.46059079455338 -14.602592056042278 252.15110612636266"/>
<polyline points="-14.372770895744779 249.46059079455338 -17.331344472673884 255.1311917150548"/>
<polyline points="-17.331344472673884 255.1311917150548 -25.863121064638843 258.0030139689452"/>
<polyline points="-17.119735559592158 224.53616224943158 -20.07830913652117 230.206763169933 -26.257679888361636 249.22762834976362 -24.27594932244817 258.9847835243394 -26.24182341009347 268.4899268759985 -28.472855568626038 290.13476125596645"/>
<polyline points="-28.472855568626038 290.13476125596645 -23.593290359025037 298.42424788835814 -23.86984426677522 317.4483778787576 -18.99027905717425 325.73786451114944 -18.566536101477045 334.1663928184199 -18.66733774298281 348.0789518303959"/>
<polyline points="-18.66733774298281 348.0789518303959 -9.67117458198442 349.8911760402569"/>
<polyline points="-18.66733774298281 348.0789518303959 -12.272173295911516 352.9758758304889"/>
<polyline points="-18.566536101477045 334.1663928184199 -15.713751026179052 341.8070602646947"/>
<polyline points="-28.472855568626038 290.13476125596645 -27.857760866309462 299.7907875601721"/>
<polyline points="-26.257679888361636 249.22762834976362 -29.893307610611277 257.1903260558187"/>
<polyline points="-29.893307610611277 257.1903260558187 -39.557319702592345 256.6597979314901"/>
<polyline points="-20.07830913652117 230.206763169933 -23.713936858770907 238.16946087598802"/>
<polyline points="-17.119735559592158 224.53616224943158 -20.07830913652117 230.206763169933"/>
<polyline points="9.438702881164865 200.06581613778425 2.8057541720440953 205.43128156171176"/>
<polyline points="2.8057541720440953 205.43128156171176 -2.7226640847301917 213.29902318583777"/>
<polyline points="2.8057541720440953 205.43128156171176 -2.7226640847301917 213.29902318583777"/>
<polyline points="-2.7226640847301917 213.29902318583777 -12.351827165775509 215.54275022104156"/>
<polyline points="16.570261729318492 175.14602163211043 9.937313020197724 180.51148705603794 3.237998794461458 199.0120296071273 3.8491957191564485 208.88268174763627 2.5892703191213715 218.23235500918614 8.866548114694845 239.82170736051097"/>
<polyline points="8.866548114694845 239.82170736051097 13.860269378828564 248.47891649234165 15.189864151270623 267.4795690575178 20.18358541540432 276.13677818934843 22.49747298641323 284.6185381889539 33.99312404659674 298.7091968277911"/>
<polyline points="33.99312404659674 298.7091968277911 42.06672358028387 304.125229678596"/>
<polyline points="33.99312404659674 298.7091968277911 42.06672358028387 304.125229678596"/>
<polyline points="33.99312404659674 298.7091968277911 38.69548549346583 306.59237085832655"/>
<polyline points="38.69548549346583 306.59237085832655 38.646903423829265 316.5570772015239"/>
<polyline points="22.49747298641323 284.6185381889539 27.199834433282284 292.50171221948926 21.213759489195052 304.4327134510793 21.132017269031522 306.77291764022897 16.502014021153165 310.786240169517 -6.751041511875392 311.38948707877944"/>
<polyline points="-6.751041511875392 311.38948707877944 -8.693068091685898 309.20064528067576 -17.692049295623516 313.6373095172818 -19.634075875434075 311.4484677191783 -25.763435085908323 311.8043541123367 -52.11010622523409 305.2296223434672"/>
<polyline points="-52.11010622523409 305.2296223434672 -52.35735652538798 296.75843750124176"/>
<polyline points="-52.11010622523409 305.2296223434672 -55.70607994323187 299.1536415618973"/>
<polyline points="-25.763435085908323 311.8043541123367 -31.149996696732536 309.69498507793554"/>
<polyline points="-25.763435085908323 311.8043541123367 -31.149996696732536 309.69498507793554"/>
<polyline points="-6.751041511875392 311.38948707877944 -10.472274765442396 313.2876300806395"/>
<polyline points="-10.472274765442396 313.2876300806395 -15.97226056587207 320.9827627671093"/>
<polyline points="-10.472274765442396 313.2876300806395 -15.97226056587207 320.9827627671093"/>
<polyline points="-15.97226056587207 320.9827627671093 -15.068444358219303 328.7416207216949"/>
<polyline points="16.502014021153165 310.786240169517 12.780780767586192 312.6843831713771 -2.353743654325401 324.74909462002483 -12.06319820897246 326.1007114989514 -20.168540422832194 331.95762103985163 -40.19888700902067 348.5811653344966"/>
<polyline points="-40.19888700902067 348.5811653344966 -49.84782281240721 348.1634133683227 -67.54799495956865 357.16495630380547 -77.19693076295506 356.7472043376315 -85.3724503610166 361.1692138219451 -99.38062838133759 375.2894096763849"/>
<polyline points="-99.38062838133759 375.2894096763849 -106.63953832294193 373.4717708233731"/>
<polyline points="-99.38062838133759 375.2894096763849 -106.63953832294193 373.4717708233731"/>
<polyline points="-99.38062838133759 375.2894096763849 -107.78971775617428 377.46610285698677"/>
<polyline points="-107.78971775617428 377.46610285698677 -117.31803839803229 379.7251939400418"/>
<polyline points="-85.3724503610166 361.1692138219451 -93.78153973585323 363.3459070025469 -101.59212653163746 381.2987272602813 -102.6616361850896 389.06982393524805 -104.17788677555015 398.84708535999135 -95.65804414376004 427.33350992659024"/>
<polyline points="-95.65804414376004 427.33350992659024 -91.900798339682 434.86500681053934 -91.43474161434881 454.3190116181847 -87.67749581027071 461.8505085021335 -85.2829581310636 471.5190267882108 -69.75728139699456 495.4070793231425"/>
<polyline points="-69.75728139699456 495.4070793231425 -65.52170726341765 490.1059815295197"/>
<polyline points="-69.75728139699456 495.4070793231425 -62.111450181767246 501.06855703060944"/>
<polyline points="-104.17788677555015 398.84708535999135 -103.8219637488709 408.31096460809476"/>
<polyline points="-85.3724503610166 361.1692138219451 -93.78153973585323 363.3459070025469"/>
<polyline points="12.780780767586192 312.6843831713771 7.0780544894893165 316.95672778364195"/>
<polyline points="21.213759489195052 304.4327134510793 22.678658180944602 312.44793990318203"/>
<polyline points="8.866548114694845 239.82170736051097 9.920045371559603 249.5177381529483"/>
<polyline points="9.937313020197724 180.51148705603794 3.8963280990937608 188.13554308293226"/>
<polyline points="48.28740987075609 155.15573633864966 38.65271265030926 156.8768474635057"/>
<polyline points="74.06721221250277 158.12140214437485 69.58988638360493 162.32360672066642"/>
<polyline points="93.33657972574278 137.3923129692291 91.27339242898765 146.92999647951152"/>
<polyline points="111.94489701766327 108.13482321156388 109.30467203470333 115.4728436659837"/>
<polyline points="130.25530540598558 67.792399676062 128.11055495399876 76.04484565661816"/>
<polyline points="137.3283849340823 53.73270408457495 128.80843262607792 56.1411627127008"/>
<polyline points="158.20115877442223 41.18544315292102 149.60410133916724 39.885049754712476"/>
<polyline points="195.75761042741323 40.365020152583966 186.4007136011521 41.40841066181282"/>
<polyline points="217.32815132485277 36.897731257110756 212.53919333259344 44.69030762198319"/>
<polyline points="212.53919333259344 44.69030762198319 206.66927948083338 47.43937431257506"/>
<polyline points="233.58332605016068 29.196684726908483 228.79436805790127 36.989261091780975"/>
<polyline points="234.97200860350787 19.96435148881673 233.58332605016068 29.196684726908483"/>
<polyline points="248.62017063421501 -25.9445522984611 244.28212049238522 -16.938657988812963"/>
<polyline points="244.28212049238522 -16.938657988812963 234.64649833748211 -14.440115576395367"/>
<polyline points="244.28212049238522 -16.938657988812963 234.64649833748211 -14.440115576395367"/>
<polyline points="234.64649833748211 -14.440115576395367 227.42340657116793 -10.192422965559306"/>
<polyline points="261.45822286539385 -48.13479996626419 257.1201727235641 -39.12890565661605 239.16719628244167 -34.1176537220621 233.48887324546538 -30.793059671089047 224.71545649564501 -30.587770777827053 202.78137900431716 -44.86609183479283"/>
<polyline points="202.78137900431716 -44.86609183479283 199.21830252060334 -45.583097978507496 183.7034901139268 -46.63201311207963 180.14041363021298 -47.349019255794296 173.02773991467643 -50.379502514715114 156.80695758919026 -72.45841894253157"/>
<polyline points="156.80695758919026 -72.45841894253157 155.99077326681905 -77.19463616431688"/>
<polyline points="156.80695758919026 -72.45841894253157 155.99077326681905 -77.19463616431688"/>
<polyline points="156.80695758919026 -72.45841894253157 151.73637713565722 -76.20244546478341"/>
<polyline points="151.73637713565722 -76.20244546478341 145.32206256115313 -73.047152863826"/>
<polyline points="173.02773991467643 -50.379502514715114 167.95715946114345 -54.123529036966936 148.97856595796938 -60.39650345715829 142.27107188323697 -67.78493664292583 133.04750133613157 -70.93668590071762 110.92134631227373 -74.47634991011108"/>
<polyline points="110.92134631227373 -74.47634991011108 106.45168908268386 -81.88982105673674 89.81797309070802 -90.43733384558398 85.34831586111814 -97.85080499220959 77.87126119388242 -101.12250023576063 62.31103371646316 -99.73747845887304"/>
<polyline points="62.31103371646316 -99.73747845887304 65.22362413854603 -106.05554741522928"/>
<polyline points="62.31103371646316 -99.73747845887304 60.95321965966621 -105.21384720106668"/>
<polyline points="77.87126119388242 -101.12250023576063 72.32409762317057 -105.59542987332928"/>
<polyline points="77.87126119388242 -101.12250023576063 72.32409762317057 -105.59542987332928"/>
<polyline points="110.92134631227373 -74.47634991011108 102.99378202210428 -79.5852480891605"/>
<polyline points="102.99378202210428 -79.5852480891605 93.2301206445523 -77.5557702420594"/>
<polyline points="102.99378202210428 -79.5852480891605 93.2301206445523 -77.5557702420594"/>
<polyline points="93.2301206445523 -77.5557702420594 85.12424854185221 -81.25837133738837"/>
<polyline points="133.04750133613157 -70.93668590071762 125.11993704596212 -76.04558407976702 106.52076144845024 -69.48757565498907 99.61975921390444 -65.80948030858006 91.4814107675693 -60.218745917210896 77.65583208901538 -33.61058779366817"/>
<polyline points="77.65583208901538 -33.61058779366817 74.37637377533467 -26.636534638759983 60.4330036869141 -13.405358003447363 57.15354537323335 -6.43130484853915 51.88007687075852 1.8755337289263738 46.766146146347666 30.99687867960322"/>
<polyline points="46.766146146347666 30.99687867960322 47.7674685193556 39.73037655913888"/>
<polyline points="46.766146146347666 30.99687867960322 47.7674685193556 39.73037655913888"/>
<polyline points="46.766146146347666 30.99687867960322 43.57102352133604 39.91562910601045"/>
<polyline points="43.57102352133604 39.91562910601045 36.11360472697004 43.680421992860936"/>
<polyline points="51.88007687075852 1.8755337289263738 48.68495424574688 10.79428415533357 34.535216504810805 22.554754729135464 31.896800563382723 30.11157293805552 25.1824912141181 34.4774709582791 7.930725785389593 33.804487092061066"/>
<polyline points="7.930725785389593 33.804487092061066 7.497848763013203 38.170227429829566 -3.1862014460976114 46.49772326444746 -3.6190784684740014 50.86346360221597 -8.560514082750196 52.73490422219846 -21.907996962587834 42.89756805621295"/>
<polyline points="-21.907996962587834 42.89756805621295 -16.146539933718174 42.63734405275475"/>
<polyline points="-21.907996962587834 42.89756805621295 -20.286654443217365 42.904215545535145"/>
<polyline points="-8.560514082750196 52.73490422219846 -11.184345646392472 54.14554182081589"/>
<polyline points="7.930725785389593 33.804487092061066 3.3011389256568666 38.58318755554987"/>
<polyline points="34.535216504810805 22.554754729135464 28.97054014262195 30.853823872777042"/>
<polyline points="28.97054014262195 30.853823872777042 20.393068667534745 27.188143814121396"/>
<polyline points="48.68495424574688 10.79428415533357 43.120277883557975 19.09335329897516"/>
<polyline points="51.88007687075852 1.8755337289263738 48.68495424574688 10.79428415533357"/>
<polyline points="77.65583208901538 -33.61058779366817 70.86220838172589 -27.248925934144395"/>
<polyline points="70.86220838172589 -27.248925934144395 61.80859711344493 -24.781588427524714"/>
<polyline points="70.86220838172589 -27.248925934144395 61.80859711344493 -24.781588427524714"/>
<polyline points="61.80859711344493 -24.781588427524714 52.22459142787946 -25.83739688849146"/>
<polyline points="91.4814107675693 -60.218745917210896 84.68778706027976 -53.857084057687054 69.46561358324304 -45.009668443697734 65.75328736745466 -37.19123907908089 59.47762800799276 -33.47878527755929 49.658946745304 -32.30517126783699"/>
<polyline points="49.658946745304 -32.30517126783699 49.76074370850849 -25.94452234562462 40.46451742487703 -17.33796613192781 40.56631438808155 -10.977317209715412 37.35354374850298 -8.345126156500848 34.436522263303296 -14.309035152593108"/>
<polyline points="34.436522263303296 -14.309035152593108 38.149873983718024 -11.103997450181414"/>
<polyline points="34.436522263303296 -14.309035152593108 38.149873983718024 -11.103997450181414"/>
<polyline points="34.436522263303296 -14.309035152593108 33.72902503484682 -11.135844149200535"/>
<polyline points="33.72902503484682 -11.135844149200535 29.249999285305524 -3.821108927177891"/>
<polyline points="37.35354374850298 -8.345126156500848 36.64604652004646 -5.171935153108234 22.214679436503342 -8.812072515924879 18.57747521992943 -14.270120756675599 10.770480087422717 -17.988201780721806 -14.02897101902136 -34.85550567140752"/>
<polyline points="-14.02897101902136 -34.85550567140752 -17.08698741206291 -43.538149784431084 -31.18499402312491 -54.434168714888635 -34.24301041616644 -63.116812827912156 -41.61019482735799 -69.52466599951745 -64.1021986311624 -87.23412968308347"/>
<polyline points="-64.1021986311624 -87.23412968308347 -61.70917898041205 -96.81698467628334"/>
<polyline points="-64.1021986311624 -87.23412968308347 -66.11491441996296 -97.00032189547714"/>
<polyline points="-41.61019482735799 -69.52466599951745 -47.264697310672304 -77.67007649612519"/>
<polyline points="-41.61019482735799 -69.52466599951745 -47.264697310672304 -77.67007649612519"/>
<polyline points="-14.02897101902136 -34.85550567140752 -20.38017201991283 -40.71350546642879"/>
<polyline points="-20.38017201991283 -40.71350546642879 -29.45664387765743 -38.71985287769435"/>
<polyline points="-20.38017201991283 -40.71350546642879 -29.45664387765743 -38.71985287769435"/>
<polyline points="-29.45664387765743 -38.71985287769435 -33.90272036541964 -37.86064377671403"/>
<polyline points="10.770480087422717 -17.988201780721806 4.419279086531254 -23.84620157574306 -15.313077930598176 -21.68907537010011 -24.66999283472593 -23.70278616681285 -34.26687693735929 -21.001127312726414 -55.192620150599886 -2.1128385630256905"/>
<polyline points="-55.192620150599886 -2.1128385630256905 -62.50924787036732 -2.01028531620189 -81.09494779298863 3.0470257915664343 -88.41157551275606 3.149579038390194 -96.46038719289345 7.533360432264378 -109.1962626671579 31.113192269005474"/>
<polyline points="-109.1962626671579 31.113192269005474 -112.80638082500468 33.55976296359562"/>
<polyline points="-109.1962626671579 31.113192269005474 -112.80638082500468 33.55976296359562"/>
<polyline points="-109.1962626671579 31.113192269005474 -116.07245816295409 34.86195496639958"/>
<polyline points="-116.07245816295409 34.86195496639958 -125.71278858059337 33.45034560536242"/>
<polyline points="-96.46038719289345 7.533360432264378 -103.33658268868962 11.28212312965847 -117.29114186757081 25.129471212083267 -120.24496583464723 34.68290469762832 -125.72334181328195 42.08779954559589 -132.8209651641244 59.720560489613405"/>
<polyline points="-132.8209651641244 59.720560489613405 -131.77931997727865 69.27786781176108 -139.2893471348415 85.79888156806945 -138.24770194799578 95.3561888902171 -140.50698494893672 102.88332688679178 -140.90129448806377 114.59271506542981"/>
<polyline points="-140.90129448806377 114.59271506542981 -131.86963878151198 118.58990250770718"/>
<polyline points="-140.90129448806377 114.59271506542981 -136.28409660043636 121.81397710059527"/>
<polyline points="-139.2893471348415 85.79888156806945 -144.2848779784925 94.42381287106117"/>
<polyline points="-125.72334181328195 42.08779954559589 -129.02183432458284 50.84129547059613"/>
<polyline points="-96.46038719289345 7.533360432264378 -103.33658268868962 11.28212312965847"/>
<polyline points="-81.09494779298863 3.0470257915664343 -90.83868622392339 0.8729004088151002"/>
<polyline points="-34.26687693735929 -21.001127312726414 -43.60546314391717 -19.30224918182317"/>
<polyline points="4.419279086531254 -23.84620157574306 -4.191316048125637 -26.914613360619303"/>
<polyline points="22.214679436503342 -8.812072515924879 18.23775776723739 -7.371132114044719"/>
<polyline points="18.23775776723739 -7.371132114044719 11.121654850177782 -0.6726049520759353"/>
<polyline points="36.64604652004646 -5.171935153108234 32.66912485078049 -3.730994751228073"/>
<polyline points="37.35354374850298 -8.345126156500848 36.64604652004646 -5.171935153108234"/>
<polyline points="49.658946745304 -32.30517126783699 45.46295642970892 -27.20213927765477"/>
<polyline points="45.46295642970892 -27.20213927765477 36.15503455953036 -27.555862924254935"/>
<polyline points="45.46295642970892 -27.20213927765477 36.15503455953036 -27.555862924254935"/>
<polyline points="36.15503455953036 -27.555862924254935 28.092728276835697 -21.6664768373958"/>
<polyline points="59.47762800799276 -33.47878527755929 55.28163769239763 -28.375753287377055 38.90767162293122 -32.88294475594025 34.65955208791405 -37.0780048895702 26.87264368168261 -41.67844176377046 7.836944204220894 -64.83536066354003"/>
<polyline points="7.836944204220894 -64.83536066354003 5.975194799487343 -72.72194063137277 -7.074253901405259 -84.83634878803515 -8.93600330613878 -92.72292875586784 -14.823674847512828 -100.37138838717863 -28.689461554782273 -126.04705881249"/>
<polyline points="-28.689461554782273 -126.04705881249 -27.955530985051766 -135.78743999228044"/>
<polyline points="-28.689461554782273 -126.04705881249 -27.955530985051766 -135.78743999228044"/>
<polyline points="-28.689461554782273 -126.04705881249 -32.317959657868094 -134.95144604507942"/>
<polyline points="-32.317959657868094 -134.95144604507942 -37.3859433732651 -138.95360125292876"/>
<polyline points="-14.823674847512828 -100.37138838717863 -18.4521729505987 -109.27577561976803 -37.028966629744446 -116.38652217316253 -43.76610835664285 -121.61349486131796 -53.24820051560061 -123.22377532368043 -78.56250029891454 -113.58203095001186"/>
<polyline points="-78.56250029891454 -113.58203095001186 -83.86763187404257 -115.27985093923763 -101.51662370349524 -117.77166453756494 -106.82175527862326 -119.46948452679071 -115.21181355274385 -118.28431489342168 -135.05135669083302 -100.3352497439341"/>
<polyline points="-135.05135669083302 -100.3352497439341 -133.47242069022727 -98.71899417186339"/>
<polyline points="-135.05135669083302 -100.3352497439341 -137.8628923003008 -97.93333422897413"/>
<polyline points="-115.21181355274385 -118.28431489342168 -121.92455052448797 -116.70570982617141"/>
<polyline points="-115.21181355274385 -118.28431489342168 -121.92455052448797 -116.70570982617141"/>
<polyline points="-78.56250029891454 -113.58203095001186 -86.96725804363928 -115.48598543310403"/>
<polyline points="-86.96725804363928 -115.48598543310403 -96.43999226251869 -116.00483581826958"/>
<polyline points="-86.96725804363928 -115.48598543310403 -96.43999226251869 -116.00483581826958"/>
<polyline points="-96.43999226251869 -116.00483581826958 -103.62628107934876 -122.87707869949234"/>
<polyline points="-53.24820051560061 -123.22377532368043 -61.652958260325285 -125.12772980677263 -80.528763273298 -120.82216824214493 -88.41273512671047 -114.68395413959787 -96.68735269952691 -110.9267693073504 -110.0566583890662 -96.07011559072302"/>
<polyline points="-110.0566583890662 -96.07011559072302 -114.39161644265805 -87.19714234370278 -129.0549678612743 -76.27971816267625 -133.38992591486618 -67.40674491565609 -138.8726748526115 -61.34791931960764 -142.92648702141076 -46.79563955114622"/>
<polyline points="-142.92648702141076 -46.79563955114622 -142.75932785802746 -37.40558596532362"/>
<polyline points="-142.92648702141076 -46.79563955114622 -142.75932785802746 -37.40558596532362"/>
<polyline points="-142.92648702141076 -46.79563955114622 -146.61227436899551 -39.00674321991182"/>
<polyline points="-146.61227436899551 -39.00674321991182 -154.91349441242434 -33.43441743730887"/>
<polyline points="-138.8726748526115 -61.34791931960764 -142.55846220019617 -53.55902298837328 -155.06597924935372 -53.59639032942221 -156.58178408222943 -53.480985228307354 -162.11930990378767 -55.98290558423979 -174.7632145350089 -76.99826519371669"/>
<polyline points="-174.7632145350089 -76.99826519371669 -173.5881872630482 -80.90638465846988 -181.4789608864316 -87.85348928810515 -180.30393361447085 -91.76160875285831 -183.66114434834063 -97.52398027997185 -192.40532921549453 -124.35613552981137"/>
<polyline points="-192.40532921549453 -124.35613552981137 -185.29097817869985 -129.85730647862482"/>
<polyline points="-192.40532921549453 -124.35613552981137 -189.06481526202143 -131.49658630631373"/>
<polyline points="-183.66114434834063 -97.52398027997185 -184.55185587536394 -104.06857814665689"/>
<polyline points="-174.7632145350089 -76.99826519371669 -177.98652353654538 -80.05689812978531"/>
<polyline points="-155.06597924935372 -53.59639032942221 -160.59041259607906 -48.614311370576445"/>
<polyline points="-160.59041259607906 -48.614311370576445 -169.68022127566664 -49.453264066734334"/>
<polyline points="-142.55846220019617 -53.55902298837328 -148.0828955469215 -48.576944029527446"/>
<polyline points="-138.8726748526115 -61.34791931960764 -142.55846220019617 -53.55902298837328"/>
<polyline points="-110.0566583890662 -96.07011559072302 -117.37205924273624 -90.08612188647528"/>
<polyline points="-117.37205924273624 -90.08612188647528 -125.66502137717643 -92.24852177190913"/>
<polyline points="-117.37205924273624 -90.08612188647528 -125.66502137717643 -92.24852177190913"/>
<polyline points="-125.66502137717643 -92.24852177190913 -135.56981552665198 -92.2264753766944"/>
<polyline points="-96.68735269952691 -110.9267693073504 -104.00275355319702 -104.9427756031025 -117.28282488780168 -108.2519688812873 -120.02910592821587 -107.37276302837883 -124.98547173735503 -110.88138298619606 -129.6382765742599 -132.53487769044014"/>
<polyline points="-129.6382765742599 -132.53487769044014 -128.1560667676498 -134.12217602428242 -134.54538475404433 -141.271952123384 -133.0631749474342 -142.8592504572263 -134.60956304915905 -148.34894450167434 -132.32453728896618 -174.44688169815748"/>
<polyline points="-132.32453728896618 -174.44688169815748 -127.11995972547498 -178.36231050998072"/>
<polyline points="-132.32453728896618 -174.44688169815748 -127.11995972547498 -178.36231050998072"/>
<polyline points="-132.32453728896618 -174.44688169815748 -131.33995297691416 -179.52086919798055"/>
<polyline points="-131.33995297691416 -179.52086919798055 -134.81888190013555 -179.17046695163035"/>
<polyline points="-134.60956304915905 -148.34894450167434 -133.62497873710709 -153.42293200149737 -145.47696536816937 -167.66973855506166 -147.7374765066454 -177.34368609913713 -154.54380314349663 -184.5486102636959 -178.87700456260885 -199.3562560804733"/>
<polyline points="-178.87700456260885 -199.3562560804733 -181.22044346430317 -208.3431091828513 -193.52060829072713 -224.09518379541683 -195.86404719242154 -233.08203689779484 -202.7512289424664 -239.85009406116154 -226.52458319870337 -247.69491885258734"/>
<polyline points="-226.52458319870337 -247.69491885258734 -224.4724234413841 -252.4706639549383"/>
<polyline points="-226.52458319870337 -247.69491885258734 -228.66646677895645 -253.77464617741845"/>
<polyline points="-202.7512289424664 -239.85009406116154 -208.11033182220132 -246.8821909563965"/>
<polyline points="-202.7512289424664 -239.85009406116154 -208.11033182220132 -246.8821909563965"/>
<polyline points="-178.87700456260885 -199.3562560804733 -184.25437131151202 -207.77502061266048"/>
<polyline points="-184.25437131151202 -207.77502061266048 -192.52915321870205 -210.4269262664862"/>
<polyline points="-184.25437131151202 -207.77502061266048 -192.52915321870205 -210.4269262664862"/>
<polyline points="-192.52915321870205 -210.4269262664862 -195.3263312258546 -217.1024849409072"/>
<polyline points="-154.54380314349663 -184.5486102636959 -159.92116989239983 -192.96737479588307 -178.90412261635004 -195.9895531656562 -188.63145372442008 -196.38007452871435 -198.20659083489338 -195.30574487469838 -220.5644258558929 -178.0822839208716"/>
<polyline points="-220.5644258558929 -178.0822839208716 -228.97058142187362 -173.89886929440084 -248.20130478585887 -169.03621459786964 -256.60746035183956 -164.85279997139887 -265.2243767781803 -160.07066160194537 -280.07744166194647 -136.30104768035244"/>
<polyline points="-280.07744166194647 -136.30104768035244 -285.21492327100543 -128.46930940981824"/>
<polyline points="-280.07744166194647 -136.30104768035244 -285.21492327100543 -128.46930940981824"/>
<polyline points="-280.07744166194647 -136.30104768035244 -287.9342001669056 -130.1243774006469"/>
<polyline points="-287.9342001669056 -130.1243774006469 -297.82473248677195 -130.64028696688638"/>
<polyline points="-265.2243767781803 -160.07066160194537 -273.08113528313936 -153.89399132223986 -286.12686450295803 -149.4378489215398 -289.0220068482038 -143.5282748673997 -293.7050085559695 -142.32003604335574 -296.5376368493992 -149.05327757276402"/>
<polyline points="-296.5376368493992 -149.05327757276402 -294.9990888989396 -144.72722854454193 -300.8583026174687 -141.20024860938395 -299.3197546670091 -136.87419958116172 -300.42902507325476 -136.86921489274863 -295.901265097447 -149.87168108115537"/>
<polyline points="-295.901265097447 -149.87168108115537 -287.2775939580349 -144.90070443184567"/>
<polyline points="-295.901265097447 -149.87168108115537 -290.42582881407594 -148.38797051548974"/>
<polyline points="-296.5376368493992 -149.05327757276402 -299.13461729096224 -146.40951249504548"/>
<polyline points="-273.08113528313936 -153.89399132223986 -281.3338513597324 -149.15044875584582"/>
<polyline points="-198.20659083489338 -195.30574487469838 -207.94970317483256 -193.08311498329016"/>
<polyline points="-178.90412261635004 -195.9895531656562 -186.67066238119085 -202.15475813584578"/>
<polyline points="-145.47696536816937 -167.66973855506166 -147.78504779138916 -174.01188216320952"/>
<polyline points="-134.60956304915905 -148.34894450167434 -133.62497873710709 -153.42293200149737"/>
<polyline points="-124.98547173735503 -110.88138298619606 -127.77376638710683 -113.70192261921139"/>
<polyline points="-117.28282488780168 -108.2519688812873 -125.25868871251853 -105.32947670487685"/>
<polyline points="-96.68735269952691 -110.9267693073504 -104.00275355319702 -104.9427756031025"/>
<polyline points="-61.652958260325285 -125.12772980677263 -71.45359513730106 -125.62463339295292"/>
<polyline points="-37.028966629744446 -116.38652217316253 -43.76010436076528 -123.61601521453308"/>
<polyline points="-43.76010436076528 -123.61601521453308 -48.76067722709091 -119.87132670522897"/>
<polyline points="-18.4521729505987 -109.27577561976803 -25.18331068161959 -116.50526866113854"/>
<polyline points="-14.823674847512828 -100.37138838717863 -18.4521729505987 -109.27577561976803"/>
<polyline points="7.836944204220894 -64.83536066354003 1.9128927794121018 -70.91501982218566"/>
<polyline points="1.9128927794121018 -70.91501982218566 -8.046914276097526 -71.06138108021638"/>
<polyline points="1.9128927794121018 -70.91501982218566 -8.046914276097526 -71.06138108021638"/>
<polyline points="-8.046914276097526 -71.06138108021638 -14.979124098118927 -69.40726529875577"/>
<polyline points="26.87264368168261 -41.67844176377046 20.948592256873837 -47.75810092241608 1.4610575535165136 -51.500286199828395 -5.85319345265405 -57.088002127854864 -15.157143988047556 -57.90886664432123 -36.09166060703779 -50.06645732163221"/>
<polyline points="-36.09166060703779 -50.06645732163221 -40.88557066070392 -54.08106271577492 -57.723740848162926 -56.83163270853991 -62.517650901829114 -60.84623810268267 -69.85422745775269 -60.46870008648275 -83.41276474303064 -46.55071976325209"/>
<polyline points="-83.41276474303064 -46.55071976325209 -84.7094219947879 -47.801815306676815"/>
<polyline points="-83.41276474303064 -46.55071976325209 -84.7094219947879 -47.801815306676815"/>
<polyline points="-83.41276474303064 -46.55071976325209 -88.86080837327785 -46.94721122415588"/>
<polyline points="-88.86080837327785 -46.94721122415588 -96.77248097633033 -51.91095395153813"/>
<polyline points="-69.85422745775269 -60.46870008648275 -75.30227108799993 -60.86519154738657 -92.64930970412998 -51.78154603527125 -97.67865760062409 -44.04650296830337 -105.68494235101834 -38.054892268049464 -123.33380228550756 -18.281873470490538"/>
<polyline points="-123.33380228550756 -18.281873470490538 -125.49984311446741 -8.528850601224521 -138.92271112307935 6.28067366738737 -141.0887519520392 16.033696536653437 -146.81911372909565 23.761513551158444 -158.1207963487368 41.427027288967125"/>
<polyline points="-158.1207963487368 41.427027288967125 -152.98722894884997 49.804497184061674"/>
<polyline points="-158.1207963487368 41.427027288967125 -157.1155707121141 50.8187406065912"/>
<polyline points="-146.81911372909565 23.761513551158444 -150.25914453737198 32.67212799310107"/>
<polyline points="-146.81911372909565 23.761513551158444 -150.25914453737198 32.67212799310107"/>
<polyline points="-123.33380228550756 -18.281873470490538 -129.54726444079705 -10.453481438515475"/>
<polyline points="-129.54726444079705 -10.453481438515475 -139.51058489191826 -10.081602357969158"/>
<polyline points="-129.54726444079705 -10.453481438515475 -139.51058489191826 -10.081602357969158"/>
<polyline points="-139.51058489191826 -10.081602357969158 -147.40026744156117 -7.887871838507805"/>
<polyline points="-105.68494235101834 -38.054892268049464 -111.89840450630787 -30.226500236074298 -130.6291608803076 -28.835705520503012 -137.020671722989 -26.366269029983673 -145.70190422317867 -27.790129461651567 -164.20135749962222 -45.57520577390582"/>
<polyline points="-164.20135749962222 -45.57520577390582 -167.67119022961643 -46.459251515006606 -182.77968303095233 -50.08823940806604 -186.2495157609466 -50.972285149166744 -192.6254837634573 -55.08061556522392 -203.7993636059342 -79.3572585134891"/>
<polyline points="-203.7993636059342 -79.3572585134891 -203.69832358813898 -83.58374136430639"/>
<polyline points="-203.7993636059342 -79.3572585134891 -203.69832358813898 -83.58374136430639"/>
<polyline points="-203.7993636059342 -79.3572585134891 -208.04980512465912 -83.61925674589375"/>
<polyline points="-208.04980512465912 -83.61925674589375 -215.11333021172575 -81.51115279230858"/>
<polyline points="-192.6254837634573 -55.08061556522392 -196.87592528218207 -59.34261379762853 -214.02254812644568 -69.58307942488767 -218.93264000295542 -78.29297555296378 -227.20149543580217 -83.53489954961013 -247.68287313933348 -93.13265193492823"/>
<polyline points="-247.68287313933348 -93.13265193492823 -250.33362173588682 -101.65409573237811 -264.5670420316868 -114.09120989877012 -267.21779062824015 -122.61265369621995 -273.6989715275858 -127.81441726035068 -288.76465325521565 -131.53694087247064"/>
<polyline points="-288.76465325521565 -131.53694087247064 -284.41938661087653 -137.50669486155786"/>
<polyline points="-288.76465325521565 -131.53694087247064 -288.7523487274147 -137.69652401657183"/>
<polyline points="-273.6989715275858 -127.81441726035068 -278.0137267429472 -133.83998095193016"/>
<polyline points="-247.68287313933348 -93.13265193492823 -254.24005482420262 -100.06424767659458"/>
<polyline points="-214.02254812644568 -69.58307942488767 -220.89834450429785 -74.42312493163753"/>
<polyline points="-220.89834450429785 -74.42312493163753 -227.96613980848943 -67.39122573580975"/>
<polyline points="-196.87592528218207 -59.34261379762853 -203.7517216600343 -64.18265930437839"/>
<polyline points="-192.6254837634573 -55.08061556522392 -196.87592528218207 -59.34261379762853"/>
<polyline points="-164.20135749962222 -45.57520577390582 -171.39432107825334 -46.71388991910323"/>
<polyline points="-171.39432107825334 -46.71388991910323 -181.17899434891243 -48.43762547362518"/>
<polyline points="-171.39432107825334 -46.71388991910323 -181.17899434891243 -48.43762547362518"/>
<polyline points="-181.17899434891243 -48.43762547362518 -189.8583983828659 -43.738089091426964"/>
<polyline points="-145.70190422317867 -27.790129461651567 -152.8948678018098 -28.928813606848966 -170.8002772458874 -37.61275571881115 -176.6448016765206 -45.6886387950061 -184.5019545787773 -51.03053442291439 -198.71654083125938 -66.08050892793017"/>
<polyline points="-198.71654083125938 -66.08050892793017 -201.0187918114572 -75.53580444766175 -214.07853581183318 -88.971781407419 -216.38078679203088 -98.42707692715064 -221.42273804265528 -104.99320127996417 -227.76498654556744 -116.73952499243634"/>
<polyline points="-227.76498654556744 -116.73952499243634 -226.13605887209383 -125.21281739148043"/>
<polyline points="-227.76498654556744 -116.73952499243634 -226.13605887209383 -125.21281739148043"/>
<polyline points="-227.76498654556744 -116.73952499243634 -230.53475665966312 -124.54496081215974"/>
<polyline points="-230.53475665966312 -124.54496081215974 -237.05010316546557 -132.12115491705632"/>
<polyline points="-221.42273804265528 -104.99320127996417 -224.19250815675085 -112.79863709968754 -239.6219959279067 -114.26257961245669 -243.3274588842918 -113.5549843138347 -251.00110843269093 -111.70541484022336 -272.0264119184176 -93.00572818886337"/>
<polyline points="-272.0264119184176 -93.00572818886337 -273.99554669159704 -87.81555173754829 -287.0778340547717 -81.24462974810545 -289.04696882795116 -76.05445329679043 -295.3419325782928 -70.5573978123058 -312.4461442259391 -46.12593221184902"/>
<polyline points="-312.4461442259391 -46.12593221184902 -308.09758737951626 -38.37357346054447"/>
<polyline points="-312.4461442259391 -46.12593221184902 -312.46374797320334 -37.63001158534101"/>
<polyline points="-295.3419325782928 -70.5573978123058 -299.51655000138555 -63.627240864818276"/>
<polyline points="-295.3419325782928 -70.5573978123058 -299.51655000138555 -63.627240864818276"/>
<polyline points="-272.0264119184176 -93.00572818886337 -277.89241745453234 -89.86000972261387"/>
<polyline points="-277.89241745453234 -89.86000972261387 -287.6487601242376 -91.34993241789694"/>
<polyline points="-277.89241745453234 -89.86000972261387 -287.6487601242376 -91.34993241789694"/>
<polyline points="-287.6487601242376 -91.34993241789694 -293.52871485816155 -96.13687220663112"/>
<polyline points="-251.00110843269093 -111.70541484022336 -256.86711396880554 -108.55969637397395 -276.79072017423846 -106.85286951817524 -285.03312318448343 -101.32347524801384 -294.71978908981305 -100.62673121188507 -316.90240497381586 -104.17105690601782"/>
<polyline points="-316.90240497381586 -104.17105690601782 -322.94037477630195 -98.49043273941591 -341.05396054790594 -94.73890358733246 -347.0919303503921 -89.05827942073056 -355.0804728405147 -88.15927224997718 -369.68395190540804 -95.4531341810832"/>
<polyline points="-369.68395190540804 -95.4531341810832 -372.2181197849381 -91.2165795931222"/>
<polyline points="-369.68395190540804 -95.4531341810832 -372.2181197849381 -91.2165795931222"/>
<polyline points="-369.68395190540804 -95.4531341810832 -376.0668612108887 -93.05305990279962"/>
<polyline points="-376.0668612108887 -93.05305990279962 -384.7979283511965 -88.2975808055308"/>
<polyline points="-355.0804728405147 -88.15927224997718 -361.4633821459953 -85.75919797169358 -378.1508271115361 -95.23349734394812 -382.77784310926495 -101.86607121438031 -390.0819029459702 -108.5400910160059 -403.90871228328336 -134.0174694481607"/>
<polyline points="-403.90871228328336 -134.0174694481607 -405.1094376429378 -143.28049045138872 -416.79087402032195 -159.15517326186992 -417.9915993799762 -168.41819426509807 -422.55838817917197 -177.30788163041623 -429.4797859102643 -202.40197814601396"/>
<polyline points="-429.4797859102643 -202.40197814601396 -421.2164231799636 -206.78366898118517"/>
<polyline points="-429.4797859102643 -202.40197814601396 -427.1578364771238 -212.12664452747916"/>
<polyline points="-416.79087402032195 -159.15517326186992 -423.1105566945663 -164.14710792190542"/>
<polyline points="-390.0819029459702 -108.5400910160059 -395.4660074305825 -116.5806680905306"/>
<polyline points="-355.0804728405147 -88.15927224997718 -361.4633821459953 -85.75919797169358"/>
<polyline points="-341.05396054790594 -94.73890358733246 -350.0082294841604 -90.34534518037064"/>
<polyline points="-294.71978908981305 -100.62673121188507 -303.594880873177 -97.83162410562781"/>
<polyline points="-256.86711396880554 -108.55969637397395 -265.28796209633475 -106.45285091499896"/>
<polyline points="-239.6219959279067 -114.26257961245669 -245.17804506835816 -119.69923760780917"/>
<polyline points="-245.17804506835816 -119.69923760780917 -252.98934124642787 -121.91812762337665"/>
<polyline points="-224.19250815675085 -112.79863709968754 -229.74855729720218 -118.23529509504012"/>
<polyline points="-221.42273804265528 -104.99320127996417 -224.19250815675085 -112.79863709968754"/>
<polyline points="-198.71654083125938 -66.08050892793017 -204.92005815905708 -73.3931620547089"/>
<polyline points="-204.92005815905708 -73.3931620547089 -214.45587271428312 -72.9761502950621"/>
<polyline points="-204.92005815905708 -73.3931620547089 -214.45587271428312 -72.9761502950621"/>
<polyline points="-214.45587271428312 -72.9761502950621 -223.45775929028807 -75.90202651071678"/>
<polyline points="-184.5019545787773 -51.03053442291439 -190.70547190657499 -58.3431875496932 -207.41593370714207 -57.03002455201763 -212.02339977950365 -57.428416899301844 -219.39408518711954 -54.458723744342045 -233.73809608620797 -32.5761649029901"/>
<polyline points="-233.73809608620797 -32.5761649029901 -235.0035998861333 -29.43400916324804 -246.84630088821544 -22.188457866497007 -248.11180468814078 -19.046302126754938 -252.813260795307 -13.214142054619483 -260.3883838548314 14.115805423629864"/>
<polyline points="-260.3883838548314 14.115805423629864 -258.2047230376459 20.232022824927345"/>
<polyline points="-260.3883838548314 14.115805423629864 -258.2047230376459 20.232022824927345"/>
<polyline points="-260.3883838548314 14.115805423629864 -262.68639661774716 20.293423432552164"/>
<polyline points="-262.68639661774716 20.293423432552164 -268.0637072772 20.17103978753115"/>
<polyline points="-252.813260795307 -13.214142054619483 -255.1112735582226 -7.036524045697271 -271.47638373366 4.2112576168806815 -276.21338504078335 12.949848848124944 -284.6772837642867 18.104400731111465 -308.98217377791923 24.325652873350005"/>
<polyline points="-308.98217377791923 24.325652873350005 -312.49957085740675 31.780181713925607 -327.7192529103775 43.303476547681086 -331.2366499898649 50.75800538825666 -338.75462847957385 54.982803729264916 -359.18655212576 53.83295563152536"/>
<polyline points="-359.18655212576 53.83295563152536 -356.41679786989897 57.88238737442411"/>
<polyline points="-359.18655212576 53.83295563152536 -360.8917953924758 58.08019419449541"/>
<polyline points="-338.75462847957385 54.982803729264916 -344.41394528675227 59.62174718073976"/>
<polyline points="-338.75462847957385 54.982803729264916 -344.41394528675227 59.62174718073976"/>
<polyline points="-308.98217377791923 24.325652873350005 -315.9778440493121 30.80818786705072"/>
<polyline points="-315.9778440493121 30.80818786705072 -325.5675533396095 31.671283681937407"/>
<polyline points="-315.9778440493121 30.80818786705072 -325.5675533396095 31.671283681937407"/>
<polyline points="-325.5675533396095 31.671283681937407 -331.42750886374336 38.12421277226505"/>
<polyline points="-284.6772837642867 18.104400731111465 -291.6729540356794 24.58693572481211 -311.57130615777425 22.92033874293212 -320.293687033635 20.322864420047882 -329.67587091619475 16.991819709418937 -348.93673346557637 -4.319166145157545"/>
<polyline points="-348.93673346557637 -4.319166145157545 -355.0384670710971 -11.055472888581106 -372.56929220321473 -20.675893666630493 -378.6710258087355 -27.41220041005404 -386.02483194029776 -34.13491937936923 -396.7552103749371 -59.54853549588409"/>
<polyline points="-396.7552103749371 -59.54853549588409 -398.8808343597115 -68.86774930457634"/>
<polyline points="-396.7552103749371 -59.54853549588409 -398.8808343597115 -68.86774930457634"/>
<polyline points="-396.7552103749371 -59.54853549588409 -402.5788062168789 -67.64605156532657"/>
<polyline points="-402.5788062168789 -67.64605156532657 -411.69606525423796 -70.05606510583038"/>
<polyline points="-386.02483194029776 -34.13491937936923 -391.8484277822396 -42.232435448811664 -406.436634780363 -48.26689624811276 -409.48947957014815 -53.75616171303168 -415.64941668569526 -55.10531962374923 -426.7350884939524 -45.83186514220381"/>
<polyline points="-426.7350884939524 -45.83186514220381 -426.3114464629331 -48.419440562325946 -435.36055140987185 -51.047379894514485 -434.93690937885265 -53.63495531463657 -438.2989418345958 -52.70314770675706 -443.40010373767757 -35.72971508228852"/>
<polyline points="-443.40010373767757 -35.72971508228852 -436.1690780547982 -35.753409064419294"/>
<polyline points="-443.40010373767757 -35.72971508228852 -439.8054151094007 -34.60336086295896"/>
<polyline points="-438.2989418345958 -52.70314770675706 -439.13258082333965 -51.79925261107056"/>
<polyline points="-426.7350884939524 -45.83186514220381 -430.7078175626127 -47.906639953615695"/>
<polyline points="-406.436634780363 -48.26689624811276 -413.7758124321817 -54.681363436276264"/>
<polyline points="-413.7758124321817 -54.681363436276264 -421.79014513334835 -49.43474285385656"/>
<polyline points="-391.8484277822396 -42.232435448811664 -399.18760543405824 -48.64690263697527"/>
<polyline points="-386.02483194029776 -34.13491937936923 -391.8484277822396 -42.232435448811664"/>
<polyline points="-348.93673346557637 -4.319166145157545 -357.6594679000441 -9.080160268509097"/>
<polyline points="-357.6594679000441 -9.080160268509097 -366.11408027359295 -8.393240203631109"/>
<polyline points="-357.6594679000441 -9.080160268509097 -366.11408027359295 -8.393240203631109"/>
<polyline points="-366.11408027359295 -8.393240203631109 -375.5063747230903 -5.1949148149319635"/>
<polyline points="-329.67587091619475 16.991819709418937 -338.39860535066276 12.230825586067468 -352.9664390520678 9.515724296106578 -357.30580202890434 3.9145549566106514 -362.71551671332855 3.2019108235309464 -366.4002624970716 9.29668585013274"/>
<polyline points="-366.4002624970716 9.29668585013274 -366.20985888657435 4.467739952534475 -373.8501247610607 1.3173450461498357 -373.6597211505634 -3.511600851448319 -375.43678191789814 -3.677139623519961 -370.67978511759094 7.449894947039366"/>
<polyline points="-370.67978511759094 7.449894947039366 -366.1034819473222 4.7862445422442494"/>
<polyline points="-370.67978511759094 7.449894947039366 -366.1034819473222 4.7862445422442494"/>
<polyline points="-370.67978511759094 7.449894947039366 -370.1343200128443 6.143733990710566"/>
<polyline points="-370.1343200128443 6.143733990710566 -375.0533157038393 1.251083069141128"/>
<polyline points="-375.43678191789814 -3.677139623519961 -374.89131681315155 -4.983300579848659 -384.9256763772696 4.548885730254866 -385.50050221310835 11.926108264648509 -390.9720041847951 18.389540947615746 -410.3311163600727 41.28016561693084"/>
<polyline points="-410.3311163600727 41.28016561693084 -410.3479372589136 50.97603787432004 -419.2290298370175 66.61677122212997 -419.2458507358583 76.31264347951911 -424.2564673468928 84.74995943229855 -443.2423422013863 106.26494295942605"/>
<polyline points="-443.2423422013863 106.26494295942605 -439.01506272479423 114.45086064263333"/>
<polyline points="-443.2423422013863 106.26494295942605 -442.9819015747668 115.95830024878177"/>
<polyline points="-424.2564673468928 84.74995943229855 -427.40873563794247 94.22919201929159"/>
<polyline points="-424.2564673468928 84.74995943229855 -427.40873563794247 94.22919201929159"/>
<polyline points="-410.3311163600727 41.28016561693084 -413.90937314332973 49.37727879574604"/>
<polyline points="-413.90937314332973 49.37727879574604 -422.2232394910835 50.55770509581968"/>
<polyline points="-413.90937314332973 49.37727879574604 -422.2232394910835 50.55770509581968"/>
<polyline points="-422.2232394910835 50.55770509581968 -424.7853575228443 52.38225489298469"/>
<polyline points="-390.9720041847951 18.389540947615746 -394.5502609680522 26.48665412643079 -413.2708442441111 30.22611294061788 -422.27064899527403 34.23179200902364 -432.1790293996301 34.169224272554786 -458.6694765866988 20.334884806700796"/>
<polyline points="-458.6694765866988 20.334884806700796 -467.05573420919546 21.1494891363601 -487.0131337870482 20.573914331298102 -495.39939140954476 21.388518660957416 -504.9128745185876 18.792104661583924 -525.4244028752174 -2.2456865034581477"/>
<polyline points="-525.4244028752174 -2.2456865034581477 -531.3088491963113 -5.016540315621585"/>
<polyline points="-525.4244028752174 -2.2456865034581477 -531.3088491963113 -5.016540315621585"/>
<polyline points="-525.4244028752174 -2.2456865034581477 -534.1370255464856 -4.914626260716208"/>
<polyline points="-534.1370255464856 -4.914626260716208 -543.414559228203 -1.2995501948104553"/>
<polyline points="-504.9128745185876 18.792104661583924 -513.6254971898558 16.123164904325947 -529.3943486309386 7.390885830720953 -534.4897970586551 -0.8765885117072463 -540.6385966954398 -5.780902794510721 -546.7308926123983 -16.858994343552705"/>
<polyline points="-546.7308926123983 -16.858994343552705 -547.4461635504746 -25.76984286906092 -556.7529037930167 -38.0450236710656 -557.4681747310931 -46.955872196573885 -560.1148535400125 -52.49042010912537 -557.5180178304721 -59.078746603033345"/>
</svg>