<svg viewBox="-385.5204701827505 -406.8954866409721 776.2466852691423 813.8037145946117" xmlns="http://www.w3.org/2000/svg">
<style>
svg { stroke:black; stroke-width:2px; fill:none;}
</style>
<polyline points="390.72021588447456 -3.217199671244202 388.88837524981955 -33.160568365126586 385.4922646169831 -62.966829586765044 380.54119248914856 -92.55428644595551 372.52545466904354 -121.46256217634 363.00806943556177 -149.91153407122175 352.01512328008306 -177.82322547610065 338.16563111440263 -204.43362813906302 322.94271741107406 -230.28258832817806 306.38810711842626 -255.29925584030684 286.12822857047234 -277.4241466952309 264.7384035911383 -298.4584121449827 242.27726020390406 -318.3443987300382 217.8610290767835 -335.7747456612226 192.56621251776892 -351.9033924029213 166.46214186082742 -366.68613145550364 138.95611522986593 -378.66053613438 110.86124810132857 -389.1790249655339 82.25454655316435 -398.2127675022105 52.58727198910387 -402.6683162786945 22.727505535630314 -405.56520271306715 -7.242909262934484 -406.8954866409721 -37.18834754164029 -405.0871126888265 -66.99809630071132 -401.71410317598816 -96.59044909084895 -396.7857032870766 -125.50596286868523 -388.792401290524 -153.96353190692057 -379.2968364338409 -181.88515598688292 -368.3250354002708 -206.9271189152657 -351.8094070230209 -231.0706263555411 -334.00569559378016 -254.2495026320102 -314.9626998480553 -275.31135149990394 -293.60220093299165 -295.22668022384335 -271.16853279814626 -313.94090227209387 -247.72318456853165 -330.10260037866965 -222.45089593056616 -344.9198054465824 -196.36722478826954 -358.3519045466721 -169.5436646711891 -367.4280948895127 -140.95273462415904 -374.9958449155469 -111.92558368948714 -381.0344119479812 -82.54177327023282 -383.96930196791715 -52.68792016035379 -385.3381183726664 -22.720956015228463 -385.13710933160917 7.276981799399417 -381.80249058142977 37.08966506365764 -376.9125855678761 66.68741820007168 -370.48079718069687 95.9891158246091 -359.5499289775234 123.92498214688715 -347.1723349913487 151.25114042076459 -333.3819413469329 177.89269154583076 -316.8830890906579 202.94744466495413 -299.0959707182047 227.1050491795389 -280.0693394846647 250.29929077478482 -258.7232078563254 271.3784719225047 -236.3035540489517 291.3122673410753 -212.8718287752586 310.0460398828357 -186.06622975088743 323.51356467030126 -158.59243536868956 335.5606906043645 -130.5257493893866 346.15439735022545 -101.50561131692554 353.7574459739095 -72.1272886697907 359.8322652969369 -42.47130538829554 364.3622046617989 -12.504297322641413 365.76864755392955 17.49523746999666 365.60580767545525 47.44507234999404 363.87413135916404 76.75648046557448 357.4834219369351 105.69344036143804 349.56840237274355 134.1766378418937 340.15076718504827 161.5197531270071 327.8085353998975 188.17958295228496 314.05315525746545 214.08305457727826 298.9223292985977 238.2634622192767 281.1677035909583 261.48159830243594 262.17284086653535 283.6738235296248 241.98980472373978 302.44014911573436 218.58591875780655 319.9561190675743 194.2327276074319 336.17372332902676 168.99698167678952 349.66532324807554 142.20474443805276 361.73641331271705 114.74386285083813 372.3539075041352 86.68960528279372 379.9814328995301 57.679357701030526 386.0803521735303 28.31035142077938 390.6339486123362 -1.336915153160217 387.40603341981836 -31.16261155081916 382.62196774073624 -60.77864754580418 376.29486436658004 -90.10384764203845 366.93814443836385 -118.60737161117059 356.10287166690625 -146.58230375405645 343.81874478172324 -173.95196672620597 328.7419399960939 -199.8882141324426 312.32877504363205 -225.00003180088154 294.62423726860715 -249.21858998479453 273.3534396671164 -270.3740122119061 251.00486084631527 -290.38753325846164 227.6397567073206 -309.20429745439515 202.4363457820661 -325.4765878710889 176.41609545799614 -340.4078585056302 149.6503254326037 -353.9571837830696 121.61524396129678 -364.6355262535956 93.05995203901624 -373.83231604100104 64.06271773606687 -381.52234538373983 34.21977129885441 -384.58803271193335 4.25732771959178 -386.08802797724326 -25.742488026534097 -386.0182197969106 -55.570817141537084 -382.8140521813943 -85.19054118543451 -378.0535441586849 -114.52047455346347 -371.7497439503734 -143.0312139199967 -362.41568329602416 -171.0143569591264 -351.60262626213085 -198.39320382086697 -339.34021068641675 -222.6368159079889 -321.67066923092955 -245.9228009738687 -302.7566649624904 -268.1873337520302 -282.65003985210274 -288.2289494176641 -260.3270488902676 -307.07517760086535 -236.98588336681556 -324.674362100169 -212.6905197940219 -339.63851117514156 -186.68919993750475 -353.22173812569287 -159.940472695078 -365.38681227090996 -132.51765446883184 -373.1182572501759 -103.53136791374736 -379.3225272551532 -74.18011282867019 -383.98261681301125 -44.54433896360762 -385.5204701827505 -14.583872220061968 -385.48866363112086 15.41608963473395 -383.88728433767017 45.373318790607755 -379.1643639554444 74.99921980461512 -372.8978752435733 104.33741866034383 -365.10499421203775 133.3075013940034 -352.88175471078705 160.7043791122569 -339.2418208626066 187.42425515485397 -324.222578778074 213.39389219883748 -306.5719201707519 237.65196482487866 -287.676274524718 260.9532939852409 -267.5874334912677 283.23401235635083 -245.28037461140713 303.29362619907766 -221.95442877372977 322.15855314902524 -197.67353077441024 339.77708575270856 -170.26843368989975 351.98065403384385 -142.26217435949144 362.7337266328182 -113.73151599331842 372.0068301250743 -84.38807857042642 378.247902366556 -54.758185696358794 382.94522345715467 -24.923050847934654 386.0859183662678 5.076934738706511 386.09186377466517 35.03615647141052 384.5282488298922 64.87249820584799 381.39935929182707 93.85353898731229 373.64731841377574 122.38938469890991 364.38964150040334 150.40182057104772 353.65170320063623 177.13886969757115 340.0454518064162 203.1274134221026 325.0590303165365 228.29621895273473 308.7335154706075 251.62133542377651 289.8674018875548 273.92733749548626 269.8068841920849 295.1530859666564 248.60694686881132 312.8062471809501 224.35073606693837 329.16610715088706 199.20421244780232 344.1878246374499 173.23630088472947 356.4138370352376 145.84085935380827 367.18968304767463 117.84342934519111 376.4858268298605 89.3207498684542 382.7506249175942 59.982772493642194 387.47174598629704 30.357435022856265 390.63624977128046 0.525938446871912 386.01917838825136 -29.11422572297909 379.85745575454206 -58.47266325046552 372.16797072359515 -87.46890469900445 361.49053662728875 -115.50286143110745 349.36085625086577 -142.94015042330926 335.81217620511427 -169.70556797362497 319.540791173128 -194.90872039086904 301.97301087275474 -219.22634033959815 283.15698736867625 -242.59177491382957 260.921572697158 -262.729701136354 237.66288325510888 -281.67705598318867 213.44466949359762 -299.381906071713 187.50895911605315 -314.4592486904524 160.8199285233105 -328.1593092081281 133.45073049309264 -340.44453671114064 104.9476557945107 -349.80267327884854 75.99412787974748 -357.6569957547826 46.669506356282405 -363.98597598698353 16.71596949395599 -365.6549905757001 -13.283815921168971 -365.7548480484747 -43.247622562529195 -364.28527470291544 -72.89378256642543 -359.69277199749854 -102.25888365048031 -353.55576559300215 -131.26243811376537 -345.891076597403 -159.30620639138695 -335.23765991175435 -186.75388424441175 -323.13187707145755 -213.5302394957096 -309.60690918581514 -236.9224304758835 -290.8237950284324 -259.2999201659947 -270.84266594670885 -280.6013734222427 -249.71828882658593 -299.5788506337638 -226.48371436334182 -317.3146909336535 -202.28827140048497 -333.7602816164534 -177.19827796537214 -347.494059113742 -150.52717978801923 -359.8135099885773 -123.17434355161573 -370.68486748242555 -95.21474147901323 -377.05447623402614 -65.89910252219995 -381.8815217255918 -36.29057049901512 -385.1527733609536 -6.470300337670315 -385.29003595285764 23.528591433332597 -383.85749361522477 53.49328018570756 -380.8590728470281 83.34163479040416 -374.7579885011451 112.71335910389779 -367.1284400459984 141.7252714867127 -357.99133954358064 170.2978523036009 -344.5022155764575 197.0934626124419 -329.62954048793796 223.1463251091487 -313.41407924665276 248.38503070853054 -294.6499912349985 271.7913152383311 -274.68693403523383 294.1834445988262 -253.57962499952836 315.500043519896 -230.36022933742393 334.4945609075476 -206.1788284486205 352.2478136609833 -181.10170187212583 368.71114134841895 -153.15674092450706 379.6231375479515 -124.6789879275589 389.0578444747424 -95.74649842278154 396.9894022529035 -66.1436914688594 401.8544603221527 -36.32680987638067 405.1637590750164 -6.3775796452441895 406.90822795363965 23.589950833599868 405.5138291029773 53.44348864180013 402.55316291157095 83.1012073073183 398.0343443596579 111.68864752463524 388.93877586656106 139.7610899792641 378.3596683134018 167.24159005772847 366.3260182986383 193.31416506543104 351.4868591424834 218.57462121198455 335.3036438127732 242.95372134292398 317.82072937784517 265.3725155621348 297.8861887569197 286.7175507563101 276.80578835843187 306.93032166765784 254.63730809459332 323.4316524863619 229.58406959028522 338.5995350031008 203.70152854818483 352.3923951062027 177.0606272142151 363.3259425458014 149.12439058963352 372.7828099346332 120.65418228294334 380.7370766565239 91.72803715617331 385.62523287021367 62.129125088746754 388.95799063262604 32.31489597524021 390.72621508639173 2.367068545292372"/>
</svg>