<svg baseProfile="full" fill-opacity="0.0" height="100%" stroke="black" stroke-width="1" version="1.1" viewBox="-1007.127915029183,-694.5792391592984,2077.141633192065,1494.8619487184033" width="100%" xmlns="http://www.w3.org/2000/svg" xmlns:ev="http://www.w3.org/2001/xml-events" xmlns:xlink="http://www.w3.org/1999/xlink"><defs /><polyline points="108.9043468091588,453.8645783603828 13.52118643278546,451.3976711521952" /><polyline points="13.52118643278567,451.3976711521965 -81.8619739435892,448.9307639440074" /><polyline points="-81.8619739435892,448.9307639440074 -104.5402534128319,520.1879159503018" /><polyline points="-81.8619739435892,448.9307639440074 -104.5402534128319,520.1879159503019" /><polyline points="-81.8619739435892,448.9307639440074 -59.18369447434654,377.673611937713" /><polyline points="-59.18369447434654,377.673611937713 -36.50541500510396,306.4164599314186" /><polyline points="-36.50541500510396,306.4164599314186 58.8777453712709,308.8833671396077" /><polyline points="58.8777453712709,308.8833671396077 154.2609057476458,311.3502743477969" /><polyline points="154.2609057476458,311.3502743477969 58.8777453712709,308.8833671396077" /><polyline points="-36.50541500510396,306.4164599314186 -16.81408805820502,376.5330247130594" /><polyline points="-16.81408805820502,376.5330247130594 2.877238888693921,446.6495894947001" /><polyline points="2.877238888693921,446.6495894947001 -16.81408805820499,376.5330247130594" /><polyline points="2.877238888693921,446.6495894947001 -92.50592148768096,444.182682286511" /><polyline points="-92.50592148768096,444.182682286511 -187.8890818640558,441.7157750783218" /><polyline points="-187.8890818640558,441.7157750783218 -168.1977549171568,511.8323398599626" /><polyline points="-187.8890818640558,441.7157750783218 -168.1977549171568,511.8323398599628" /><polyline points="-187.8890818640558,441.7157750783218 -207.5804088109548,371.5992102966813" /><polyline points="-207.5804088109548,371.5992102966813 -227.2717357578538,301.4826455150404" /><polyline points="-227.2717357578538,301.4826455150404 -131.8885753814789,303.9495527232295" /><polyline points="-131.8885753814789,303.9495527232295 -36.50541500510401,306.4164599314186" /><polyline points="-36.50541500510401,306.4164599314186 -16.81408805820502,376.5330247130593" /><polyline points="-36.50541500510401,306.4164599314186 -16.81408805820507,376.5330247130594" /><polyline points="-36.50541500510401,306.4164599314186 -56.19674195200298,236.2998951497779" /><polyline points="-56.19674195200298,236.2998951497779 -75.88806889890199,166.1833303681371" /><polyline points="-75.88806889890199,166.1833303681371 -53.20978942965927,94.92617836184266" /><polyline points="-53.20978942965927,94.92617836184266 -30.53150996041664,23.66902635554812" /><polyline points="-30.53150996041664,23.66902635554812 -53.20978942965927,94.92617836184266" /><polyline points="-75.88806889890199,166.1833303681371 19.49509147747285,168.6502375763262" /><polyline points="19.49509147747285,168.6502375763262 114.8782518538477,171.1171447845155" /><polyline points="114.8782518538477,171.1171447845155 92.19997238460508,242.37429679081" /><polyline points="114.8782518538477,171.1171447845155 92.19997238460503,242.3742967908099" /><polyline points="114.8782518538477,171.1171447845155 137.5565313230904,99.85999277822087" /><polyline points="137.5565313230904,99.85999277822087 160.2348107923331,28.60284077192636" /><polyline points="160.2348107923331,28.60284077192636 179.9261377392321,98.7194055535671" /><polyline points="179.9261377392321,98.7194055535671 199.6174646861311,168.8359703352079" /><polyline points="199.6174646861311,168.8359703352079 179.9261377392322,98.7194055535671" /><polyline points="160.2348107923331,28.60284077192636 140.5434838454342,-41.51372400971437" /><polyline points="140.5434838454342,-41.51372400971437 120.8521568985352,-111.6302887913551" /><polyline points="120.8521568985352,-111.6302887913551 98.17387742929239,-40.37313678506063" /><polyline points="120.8521568985352,-111.6302887913551 98.17387742929239,-40.37313678506068" /><polyline points="120.8521568985352,-111.6302887913551 143.5304363677779,-182.8874407976496" /><polyline points="143.5304363677779,-182.8874407976496 166.2087158370207,-254.1445928039441" /><polyline points="166.2087158370207,-254.1445928039441 185.9000427839198,-184.0280280223034" /><polyline points="185.9000427839198,-184.0280280223034 205.5913697308189,-113.9114632406626" /><polyline points="205.5913697308189,-113.9114632406626 185.9000427839198,-184.0280280223034" /><polyline points="166.2087158370207,-254.1445928039441 70.82555546064592,-256.6115000121333" /><polyline points="70.82555546064592,-256.6115000121333 -24.55760491572886,-259.0784072203223" /><polyline points="-24.55760491572886,-259.0784072203223 70.8255554606459,-256.6115000121334" /><polyline points="-24.55760491572886,-259.0784072203223 -44.24893186262799,-329.1949720019631" /><polyline points="-44.24893186262799,-329.1949720019631 -63.94025880952704,-399.3115367836039" /><polyline points="-63.94025880952704,-399.3115367836039 -159.3234191859019,-401.778443991793" /><polyline points="-63.94025880952704,-399.3115367836039 -159.3234191859019,-401.778443991793" /><polyline points="-63.94025880952704,-399.3115367836039 31.44290156684765,-396.844629575415" /><polyline points="31.44290156684765,-396.844629575415 126.8260619432224,-394.3777223672258" /><polyline points="126.8260619432224,-394.3777223672258 146.5173888901216,-324.261157585585" /><polyline points="146.5173888901216,-324.261157585585 166.2087158370209,-254.1445928039442" /><polyline points="166.2087158370209,-254.1445928039442 143.5304363677779,-182.8874407976498" /><polyline points="166.2087158370209,-254.1445928039442 143.5304363677779,-182.8874407976498" /><polyline points="166.2087158370209,-254.1445928039442 188.8869953062637,-325.4017448102387" /><polyline points="188.8869953062637,-325.4017448102387 211.5652747755066,-396.6588968165332" /><polyline points="211.5652747755066,-396.6588968165332 191.8739478286073,-466.7754615981739" /><polyline points="191.8739478286073,-466.7754615981739 172.1826208817079,-536.8920263798146" /><polyline points="172.1826208817079,-536.8920263798146 191.8739478286073,-466.7754615981739" /><polyline points="211.5652747755066,-396.6588968165332 306.9484351518814,-394.1919896083443" /><polyline points="306.9484351518814,-394.1919896083443 402.3315955282561,-391.7250824001552" /><polyline points="402.3315955282561,-391.7250824001552 306.9484351518814,-394.1919896083443" /><polyline points="402.3315955282561,-391.7250824001552 422.0229224751553,-321.6085176185145" /><polyline points="422.0229224751553,-321.6085176185145 441.7142494220545,-251.4919528368737" /><polyline points="441.7142494220545,-251.4919528368737 537.0974097984293,-249.0250456286848" /><polyline points="441.7142494220545,-251.4919528368737 537.0974097984293,-249.0250456286848" /><polyline points="441.7142494220545,-251.4919528368737 346.3310890456798,-253.9588600450626" /><polyline points="346.3310890456798,-253.9588600450626 250.9479286693051,-256.4257672532515" /><polyline points="250.9479286693051,-256.4257672532515 155.5647682929303,-258.8926744614404" /><polyline points="155.5647682929303,-258.8926744614404 60.18160791655557,-261.3595816696292" /><polyline points="60.18160791655557,-261.3595816696292 82.85988738579837,-332.6167336759237" /><polyline points="60.18160791655557,-261.3595816696292 82.85988738579826,-332.6167336759238" /><polyline points="60.18160791655557,-261.3595816696292 37.5033284473129,-190.1024296633348" /><polyline points="37.5033284473129,-190.1024296633348 14.82504897807016,-118.8452776570404" /><polyline points="14.82504897807016,-118.8452776570404 34.51637592496948,-48.72871287539967" /><polyline points="34.51637592496948,-48.72871287539967 54.20770287186882,21.38785190624111" /><polyline points="54.20770287186882,21.38785190624111 34.5163759249694,-48.72871287539967" /><polyline points="14.82504897807016,-118.8452776570404 34.51637592496948,-48.72871287539967" /><polyline points="34.51637592496948,-48.72871287539967 54.20770287186872,21.38785190624112" /><polyline points="54.20770287186872,21.38785190624112 149.5908632482436,23.85475911443002" /><polyline points="54.20770287186872,21.38785190624112 149.5908632482436,23.85475911443003" /><polyline points="54.20770287186872,21.38785190624112 -41.17545750450605,18.9209446980522" /><polyline points="-41.17545750450605,18.9209446980522 -136.5586178808808,16.45403748986329" /><polyline points="-136.5586178808808,16.45403748986329 -156.2499448277801,-53.66252729177732" /><polyline points="-156.2499448277801,-53.66252729177732 -175.9412717746794,-123.779092073418" /><polyline points="-175.9412717746794,-123.779092073418 -156.2499448277801,-53.66252729177738" /><polyline points="-136.5586178808808,16.45403748986329 -113.8803384116382,-54.80311451643131" /><polyline points="-113.8803384116382,-54.80311451643131 -91.20205894239558,-126.0602665227259" /><polyline points="-91.20205894239558,-126.0602665227259 -113.8803384116382,-54.80311451643123" /><polyline points="-91.20205894239558,-126.0602665227259 -71.51073199549626,-55.94370174108516" /><polyline points="-71.51073199549626,-55.94370174108516 -51.81940504859691,14.17286304055565" /><polyline points="-51.81940504859691,14.17286304055565 -29.1411255793542,-57.08428896573898" /><polyline points="-51.81940504859691,14.17286304055565 -29.1411255793543,-57.0842889657389" /><polyline points="-51.81940504859691,14.17286304055565 -74.49768451783952,85.43001504685014" /><polyline points="-74.49768451783952,85.43001504685014 -97.17596398708214,156.6871670531447" /><polyline points="-97.17596398708214,156.6871670531447 -119.8542434563247,227.9443190594393" /><polyline points="-119.8542434563247,227.9443190594393 -142.5325229255673,299.2014710657339" /><polyline points="-142.5325229255673,299.2014710657339 -237.9156833019421,296.7345638575451" /><polyline points="-142.5325229255673,299.2014710657339 -237.9156833019421,296.7345638575449" /><polyline points="-142.5325229255673,299.2014710657339 -47.14936254919252,301.6683782739227" /><polyline points="-47.14936254919252,301.6683782739227 48.23379782718226,304.1352854821117" /><polyline points="48.23379782718226,304.1352854821117 67.92512477408148,374.2518502637523" /><polyline points="67.92512477408148,374.2518502637523 87.61645172098075,444.368415045393" /><polyline points="87.61645172098075,444.368415045393 67.92512477408148,374.2518502637523" /><polyline points="48.23379782718226,304.1352854821117 28.54247088028307,234.018720700471" /><polyline points="28.54247088028307,234.018720700471 8.851143933383817,163.9021559188304" /><polyline points="8.851143933383817,163.9021559188304 31.52942340262646,92.6450039125358" /><polyline points="8.851143933383817,163.9021559188304 31.52942340262646,92.64500391253578" /><polyline points="8.851143933383817,163.9021559188304 -13.82713553585882,235.1593079251249" /><polyline points="-13.82713553585882,235.1593079251249 -36.50541500510152,306.4164599314195" /><polyline points="-36.50541500510152,306.4164599314195 -16.81408805820241,376.5330247130602" /><polyline points="-16.81408805820241,376.5330247130602 2.877238888696673,446.6495894947008" /><polyline points="2.877238888696673,446.6495894947008 -16.81408805820241,376.5330247130602" /><polyline points="-36.50541500510152,306.4164599314195 58.87774537127328,308.8833671396085" /><polyline points="58.87774537127328,308.8833671396085 154.2609057476481,311.3502743477976" /><polyline points="154.2609057476481,311.3502743477976 58.87774537127328,308.8833671396085" /><polyline points="154.2609057476481,311.3502743477976 134.569578800749,241.233709566157" /><polyline points="134.569578800749,241.233709566157 114.8782518538498,171.1171447845161" /><polyline points="114.8782518538498,171.1171447845161 210.2614122302246,173.5840519927053" /><polyline points="114.8782518538498,171.1171447845161 210.2614122302246,173.5840519927052" /><polyline points="114.8782518538498,171.1171447845161 19.49509147747504,168.6502375763271" /><polyline points="19.49509147747504,168.6502375763271 -75.88806889889976,166.183330368138" /><polyline points="-75.88806889889976,166.183330368138 -56.19674195200061,236.2998951497787" /><polyline points="-56.19674195200061,236.2998951497787 -36.50541500510156,306.4164599314193" /><polyline points="-36.50541500510156,306.4164599314193 58.87774537127323,308.8833671396085" /><polyline points="-36.50541500510156,306.4164599314193 58.87774537127323,308.8833671396085" /><polyline points="-36.50541500510156,306.4164599314193 -131.8885753814763,303.9495527232302" /><polyline points="-131.8885753814763,303.9495527232302 -227.2717357578511,301.4826455150411" /><polyline points="-227.2717357578511,301.4826455150411 -249.9500152270939,372.7397975213357" /><polyline points="-249.9500152270939,372.7397975213357 -272.6282946963365,443.9969495276303" /><polyline points="-272.6282946963365,443.9969495276303 -249.9500152270939,372.7397975213357" /><polyline points="-227.2717357578511,301.4826455150411 -207.5804088109519,371.5992102966816" /><polyline points="-207.5804088109519,371.5992102966816 -187.8890818640527,441.7157750783222" /><polyline points="-187.8890818640527,441.7157750783222 -165.2108023948099,370.4586230720275" /><polyline points="-187.8890818640527,441.7157750783222 -165.2108023948099,370.4586230720275" /><polyline points="-187.8890818640527,441.7157750783222 -210.5673613332953,512.972927084617" /><polyline points="-210.5673613332953,512.972927084617 -233.2456408025381,584.2300790909114" /><polyline points="-233.2456408025381,584.2300790909114 -137.8624804261633,586.6969862991004" /><polyline points="-137.8624804261633,586.6969862991004 -42.47932004978847,589.1638935072898" /><polyline points="-42.47932004978847,589.1638935072898 -137.8624804261633,586.6969862991006" /><polyline points="-233.2456408025381,584.2300790909114 -328.6288011789129,581.7631718827225" /><polyline points="-328.6288011789129,581.7631718827225 -424.0119615552877,579.2962646745334" /><polyline points="-424.0119615552877,579.2962646745334 -401.3336820860451,508.0391126682387" /><polyline points="-424.0119615552877,579.2962646745334 -401.3336820860451,508.0391126682387" /><polyline points="-424.0119615552877,579.2962646745334 -446.6902410245304,650.5534166808281" /><polyline points="-446.6902410245304,650.5534166808281 -469.3685204937731,721.8105686871228" /><polyline points="-469.3685204937731,721.8105686871228 -373.9853601173983,724.2774758953121" /><polyline points="-373.9853601173983,724.2774758953121 -278.6021997410235,726.7443831035013" /><polyline points="-278.6021997410235,726.7443831035013 -373.9853601173983,724.2774758953121" /><polyline points="-469.3685204937731,721.8105686871228 -489.0598474406721,651.6940039054825" /><polyline points="-489.0598474406721,651.6940039054825 -508.7511743875712,581.577439123842" /><polyline points="-508.7511743875712,581.577439123842 -489.0598474406721,651.6940039054826" /><polyline points="-508.7511743875712,581.577439123842 -604.1343347639458,579.1105319156529" /><polyline points="-604.1343347639458,579.1105319156529 -699.5174951403208,576.6436247074639" /><polyline points="-699.5174951403208,576.6436247074639 -719.2088220872198,506.5270599258233" /><polyline points="-699.5174951403208,576.6436247074639 -719.2088220872199,506.5270599258233" /><polyline points="-699.5174951403208,576.6436247074639 -679.8261681934217,646.7601894891042" /><polyline points="-679.8261681934217,646.7601894891042 -660.1348412465227,716.8767542707445" /><polyline points="-660.1348412465227,716.8767542707445 -564.751680870148,719.3436614789338" /><polyline points="-564.751680870148,719.3436614789338 -469.368520493773,721.8105686871228" /><polyline points="-469.368520493773,721.8105686871228 -449.6771935468739,791.9271334687631" /><polyline points="-469.368520493773,721.8105686871228 -449.6771935468739,791.9271334687631" /><polyline points="-469.368520493773,721.8105686871228 -489.059847440672,651.6940039054825" /><polyline points="-489.059847440672,651.6940039054825 -508.7511743875712,581.5774391238423" /><polyline points="-508.7511743875712,581.5774391238423 -604.1343347639458,579.1105319156529" /><polyline points="-604.1343347639458,579.1105319156529 -699.5174951403206,576.6436247074639" /><polyline points="-699.5174951403206,576.6436247074639 -604.1343347639458,579.1105319156529" /><polyline points="-508.7511743875712,581.5774391238423 -531.4294538568138,652.834591130137" /><polyline points="-531.4294538568138,652.834591130137 -554.1077333260565,724.0917431364319" /><polyline points="-554.1077333260565,724.0917431364319 -531.4294538568137,652.834591130137" /><polyline points="-554.1077333260565,724.0917431364319 -458.7245729496818,726.558650344621" /><polyline points="-458.7245729496818,726.558650344621 -363.3414125733068,729.0255575528104" /><polyline points="-363.3414125733068,729.0255575528104 -386.0196920425497,800.282709559105" /><polyline points="-363.3414125733068,729.0255575528104 -386.0196920425497,800.282709559105" /><polyline points="-363.3414125733068,729.0255575528104 -340.6631331040642,657.7684055465154" /><polyline points="-340.6631331040642,657.7684055465154 -317.9848536348214,586.5112535402207" /><polyline points="-317.9848536348214,586.5112535402207 -413.3680140111961,584.0443463320314" /><polyline points="-413.3680140111961,584.0443463320314 -508.7511743875712,581.5774391238423" /><polyline points="-508.7511743875712,581.5774391238423 -531.4294538568136,652.8345911301371" /><polyline points="-508.7511743875712,581.5774391238423 -531.4294538568136,652.8345911301371" /><polyline points="-508.7511743875712,581.5774391238423 -486.0728949183282,510.3202871175475" /><polyline points="-486.0728949183282,510.3202871175475 -463.3946154490857,439.0631351112526" /><polyline points="-463.3946154490857,439.0631351112526 -483.0859423959848,368.9465703296121" /><polyline points="-483.0859423959848,368.9465703296121 -502.7772693428839,298.8300055479718" /><polyline points="-502.7772693428839,298.8300055479718 -483.0859423959848,368.9465703296121" /><polyline points="-463.3946154490857,439.0631351112526 -558.7777758254604,436.5962279030636" /><polyline points="-558.7777758254604,436.5962279030636 -654.1609362018353,434.1293206948744" /><polyline points="-654.1609362018353,434.1293206948744 -634.4696092549359,504.2458854765148" /><polyline points="-654.1609362018353,434.1293206948744 -634.4696092549359,504.2458854765147" /><polyline points="-654.1609362018353,434.1293206948744 -673.8522631487347,364.0127559132341" /><polyline points="-673.8522631487347,364.0127559132341 -693.5435900956337,293.8961911315937" /><polyline points="-693.5435900956337,293.8961911315937 -716.2218695648764,365.1533431378885" /><polyline points="-716.2218695648764,365.1533431378885 -738.9001490341194,436.4104951441835" /><polyline points="-738.9001490341194,436.4104951441835 -716.2218695648767,365.1533431378886" /><polyline points="-693.5435900956337,293.8961911315937 -670.865310626391,222.6390391252988" /><polyline points="-670.865310626391,222.6390391252988 -648.1870311571481,151.3818871190039" /><polyline points="-648.1870311571481,151.3818871190039 -628.4957042102487,221.4984519006442" /><polyline points="-648.1870311571481,151.3818871190039 -628.4957042102487,221.4984519006442" /><polyline points="-648.1870311571481,151.3818871190039 -667.8783581040474,81.26532233736347" /><polyline points="-667.8783581040474,81.26532233736347 -687.5696850509465,11.14875755572309" /><polyline points="-687.5696850509465,11.14875755572309 -710.2479645201897,82.40590956201798" /><polyline points="-710.2479645201897,82.40590956201798 -732.9262439894325,153.6630615683129" /><polyline points="-732.9262439894325,153.6630615683129 -710.2479645201897,82.40590956201798" /><polyline points="-687.5696850509465,11.14875755572309 -592.186524674572,13.61566476391229" /><polyline points="-592.186524674572,13.61566476391229 -496.8033642981973,16.08257197210139" /><polyline points="-496.8033642981973,16.08257197210139 -592.186524674572,13.61566476391229" /><polyline points="-496.8033642981973,16.08257197210139 -474.1250848289544,-55.17458003419345" /><polyline points="-474.1250848289544,-55.17458003419345 -451.4468053597116,-126.4317320404883" /><polyline points="-451.4468053597116,-126.4317320404883 -356.0636449833368,-123.9648248322992" /><polyline points="-451.4468053597116,-126.4317320404883 -356.0636449833368,-123.9648248322992" /><polyline points="-451.4468053597116,-126.4317320404883 -546.8299657360864,-128.8986392486774" /><polyline points="-546.8299657360864,-128.8986392486774 -642.2131261124609,-131.3655464568665" /><polyline points="-642.2131261124609,-131.3655464568665 -661.9044530593602,-201.4821112385069" /><polyline points="-661.9044530593602,-201.4821112385069 -681.5957800062599,-271.5986760201473" /><polyline points="-681.5957800062599,-271.5986760201473 -586.2126196298854,-269.1317688119583" /><polyline points="-681.5957800062599,-271.5986760201473 -586.2126196298854,-269.1317688119582" /><polyline points="-681.5957800062599,-271.5986760201473 -776.9789403826347,-274.0655832283363" /><polyline points="-776.9789403826347,-274.0655832283363 -872.3621007590092,-276.5324904365256" /><polyline points="-872.3621007590092,-276.5324904365256 -852.6707738121097,-206.4159256548852" /><polyline points="-852.6707738121097,-206.4159256548852 -832.9794468652103,-136.2993608732447" /><polyline points="-832.9794468652103,-136.2993608732447 -852.6707738121097,-206.4159256548852" /><polyline points="-872.3621007590092,-276.5324904365256 -895.0403802282522,-205.2753384302305" /><polyline points="-895.0403802282522,-205.2753384302305 -917.7186596974951,-134.0181864239355" /><polyline points="-917.7186596974951,-134.0181864239355 -895.0403802282522,-205.2753384302305" /><polyline points="-917.7186596974951,-134.0181864239355 -937.4099866443947,-204.1347512055759" /><polyline points="-937.4099866443947,-204.1347512055759 -957.1013135912948,-274.2513159872162" /><polyline points="-957.1013135912948,-274.2513159872162 -979.7795930605371,-202.9941639809212" /><polyline points="-957.1013135912948,-274.2513159872162 -979.7795930605371,-202.9941639809212" /><polyline points="-957.1013135912948,-274.2513159872162 -934.4230341220513,-345.5084679935111" /><polyline points="-934.4230341220513,-345.5084679935111 -911.7447546528084,-416.7656199998061" /><polyline points="-911.7447546528084,-416.7656199998061 -889.0664751835653,-488.022772006101" /><polyline points="-889.0664751835653,-488.022772006101 -866.3881957143224,-559.2799240123959" /><polyline points="-866.3881957143224,-559.2799240123959 -961.771356090697,-561.746831220585" /><polyline points="-866.3881957143224,-559.2799240123959 -961.771356090697,-561.7468312205851" /><polyline points="-866.3881957143224,-559.2799240123959 -771.0050353379476,-556.8130168042068" /><polyline points="-771.0050353379476,-556.8130168042068 -675.6218749615729,-554.3461095960176" /><polyline points="-675.6218749615729,-554.3461095960176 -695.3132019084725,-624.462674377658" /><polyline points="-695.3132019084725,-624.462674377658 -715.004528855372,-694.5792391592984" /><polyline points="-715.004528855372,-694.5792391592984 -695.3132019084724,-624.462674377658" /><polyline points="-866.3881957143224,-559.2799240123959 -889.0664751835653,-488.022772006101" /><polyline points="-889.0664751835653,-488.022772006101 -911.7447546528084,-416.7656199998061" /><polyline points="-911.7447546528084,-416.7656199998061 -1007.127915029183,-419.2325272079954" /><polyline points="-911.7447546528084,-416.7656199998061 -1007.127915029183,-419.2325272079954" /><polyline points="-911.7447546528084,-416.7656199998061 -816.3615942764336,-414.298712791617" /><polyline points="-816.3615942764336,-414.298712791617 -720.978433900059,-411.8318055834279" /><polyline points="-720.978433900059,-411.8318055834279 -698.300154430816,-483.0889575897227" /><polyline points="-698.300154430816,-483.0889575897227 -675.6218749615726,-554.3461095960175" /><polyline points="-675.6218749615726,-554.3461095960175 -698.300154430816,-483.0889575897227" /><polyline points="-720.978433900059,-411.8318055834279 -740.6697608469586,-481.9483703650682" /><polyline points="-740.6697608469586,-481.9483703650682 -760.361087793858,-552.0649351467085" /><polyline points="-760.361087793858,-552.0649351467085 -740.6697608469586,-481.9483703650682" /><polyline points="-760.361087793858,-552.0649351467085 -783.0393672631013,-480.8077831404137" /><polyline points="-783.0393672631013,-480.8077831404137 -805.7176467323445,-409.5506311341188" /><polyline points="-805.7176467323445,-409.5506311341188 -825.4089736792438,-479.667195915759" /><polyline points="-805.7176467323445,-409.5506311341188 -825.4089736792438,-479.667195915759" /><polyline points="-805.7176467323445,-409.5506311341188 -786.026319785445,-339.4340663524785" /><polyline points="-786.026319785445,-339.4340663524785 -766.3349928385455,-269.317501570838" /><polyline points="-766.3349928385455,-269.317501570838 -743.6567133693026,-340.5746535771328" /><polyline points="-743.6567133693026,-340.5746535771328 -720.9784339000594,-411.8318055834276" /><polyline points="-720.9784339000594,-411.8318055834276 -740.6697608469586,-481.9483703650681" /><polyline points="-720.9784339000594,-411.8318055834276 -740.6697608469588,-481.9483703650681" /><polyline points="-720.9784339000594,-411.8318055834276 -701.28710695316,-341.7152408017872" /><polyline points="-701.28710695316,-341.7152408017872 -681.5957800062605,-271.5986760201468" /><polyline points="-681.5957800062605,-271.5986760201468 -586.2126196298857,-269.1317688119576" /><polyline points="-586.2126196298857,-269.1317688119576 -490.8294592535112,-266.6648616037686" /><polyline points="-490.8294592535112,-266.6648616037686 -586.2126196298857,-269.1317688119576" /><polyline points="-681.5957800062605,-271.5986760201468 -658.9175005370173,-342.8558280264417" /><polyline points="-658.9175005370173,-342.8558280264417 -636.2392210677743,-414.1129800327363" /><polyline points="-636.2392210677743,-414.1129800327363 -731.6223814441491,-416.5798872409256" /><polyline points="-636.2392210677743,-414.1129800327363 -731.6223814441491,-416.5798872409256" /><polyline points="-636.2392210677743,-414.1129800327363 -540.8560606913996,-411.6460728245473" /><polyline points="-540.8560606913996,-411.6460728245473 -445.472900315025,-409.1791656163582" /><polyline points="-445.472900315025,-409.1791656163582 -465.1642272619246,-479.2957303979987" /><polyline points="-465.1642272619246,-479.2957303979987 -484.855554208824,-549.4122951796393" /><polyline points="-484.855554208824,-549.4122951796393 -465.1642272619246,-479.2957303979987" /><polyline points="-445.472900315025,-409.1791656163582 -425.7815733681254,-339.0626008347178" /><polyline points="-425.7815733681254,-339.0626008347178 -406.0902464212259,-268.9460360530774" /><polyline points="-406.0902464212259,-268.9460360530774 -501.4734067976005,-271.4129432612663" /><polyline points="-406.0902464212259,-268.9460360530774 -501.4734067976005,-271.4129432612663" /><polyline points="-406.0902464212259,-268.9460360530774 -310.7070860448513,-266.4791288448882" /><polyline points="-310.7070860448513,-266.4791288448882 -215.3239256684765,-264.0122216366993" /><polyline points="-215.3239256684765,-264.0122216366993 -235.0152526153761,-334.1287864183398" /><polyline points="-235.0152526153761,-334.1287864183398 -254.7065795622755,-404.2453511999803" /><polyline points="-254.7065795622755,-404.2453511999803 -235.0152526153761,-334.1287864183398" /><polyline points="-215.3239256684765,-264.0122216366993 -238.0022051377194,-192.7550696304046" /><polyline points="-238.0022051377194,-192.7550696304046 -260.6804846069622,-121.4979176241099" /><polyline points="-260.6804846069622,-121.4979176241099 -238.0022051377193,-192.7550696304045" /><polyline points="-260.6804846069622,-121.4979176241099 -240.9891576600628,-51.3813528424693" /><polyline points="-240.9891576600628,-51.3813528424693 -221.2978307131634,18.73521193917121" /><polyline points="-221.2978307131634,18.73521193917121 -243.9761101824063,89.99236394546588" /><polyline points="-221.2978307131634,18.73521193917121 -243.9761101824063,89.99236394546588" /><polyline points="-221.2978307131634,18.73521193917121 -198.6195512439205,-52.52194006712347" /><polyline points="-198.6195512439205,-52.52194006712347 -175.9412717746778,-123.7790920734181" /><polyline points="-175.9412717746778,-123.7790920734181 -80.55811139830307,-121.3121848652293" /><polyline points="-80.55811139830307,-121.3121848652293 14.82504897807167,-118.8452776570404" /><polyline points="14.82504897807167,-118.8452776570404 -7.853230491171079,-47.58812565074571" /><polyline points="14.82504897807167,-118.8452776570404 -7.853230491170972,-47.58812565074571" /><polyline points="14.82504897807167,-118.8452776570404 37.50332844731448,-190.1024296633351" /><polyline points="37.50332844731448,-190.1024296633351 60.18160791655723,-261.3595816696298" /><polyline points="60.18160791655723,-261.3595816696298 -35.20155245981747,-263.8264888778187" /><polyline points="-35.20155245981747,-263.8264888778187 -130.5847128361922,-266.2933960860074" /><polyline points="-130.5847128361922,-266.2933960860074 -35.20155245981747,-263.8264888778187" /><polyline points="60.18160791655723,-261.3595816696298 40.4902809696577,-331.4761464512704" /><polyline points="40.4902809696577,-331.4761464512704 20.79895402275813,-401.592711232911" /><polyline points="20.79895402275813,-401.592711232911 40.4902809696577,-331.4761464512704" /><polyline points="20.79895402275813,-401.592711232911 116.1821143991328,-399.1258040247222" /><polyline points="116.1821143991328,-399.1258040247222 211.5652747755075,-396.6588968165334" /><polyline points="211.5652747755075,-396.6588968165334 191.873947828608,-466.7754615981741" /><polyline points="211.5652747755075,-396.6588968165334 191.873947828608,-466.7754615981741" /><polyline points="211.5652747755075,-396.6588968165334 231.2566017224071,-326.5423320348926" /><polyline points="231.2566017224071,-326.5423320348926 250.9479286693066,-256.4257672532521" /><polyline points="250.9479286693066,-256.4257672532521 270.6392556162062,-186.3092024716114" /><polyline points="270.6392556162062,-186.3092024716114 290.3305825631057,-116.1926376899708" /><polyline points="290.3305825631057,-116.1926376899708 313.0088620323484,-187.4497896962654" /><polyline points="290.3305825631057,-116.1926376899708 313.0088620323484,-187.4497896962653" /><polyline points="290.3305825631057,-116.1926376899708 267.6523030938629,-44.93548568367623" /><polyline points="267.6523030938629,-44.93548568367623 244.9740236246202,26.32166632261835" /><polyline points="244.9740236246202,26.32166632261835 340.3571840009948,28.78857353080713" /><polyline points="340.3571840009948,28.78857353080713 435.7403443773696,31.25548073899591" /><polyline points="435.7403443773696,31.25548073899591 340.357184000995,28.7885735308071" /><polyline points="244.9740236246202,26.32166632261835 225.2826966777207,-43.79489845902229" /><polyline points="225.2826966777207,-43.79489845902229 205.5913697308212,-113.911463240663" /><polyline points="205.5913697308212,-113.911463240663 110.2082093544465,-116.3783704488518" /><polyline points="205.5913697308212,-113.911463240663 110.2082093544465,-116.3783704488518" /><polyline points="205.5913697308212,-113.911463240663 300.974530107196,-111.4445560324742" /><polyline points="300.974530107196,-111.4445560324742 396.3576904835707,-108.9776488242853" /><polyline points="396.3576904835707,-108.9776488242853 416.0490174304704,-38.8610840426447" /><polyline points="416.0490174304704,-38.8610840426447 435.7403443773697,31.25548073899605" /><polyline points="435.7403443773697,31.25548073899605 416.0490174304704,-38.86108404264462" /><polyline points="396.3576904835707,-108.9776488242853 419.0359699528134,-180.2348008305799" /><polyline points="419.0359699528134,-180.2348008305799 441.7142494220565,-251.4919528368744" /><polyline points="441.7142494220565,-251.4919528368744 419.0359699528136,-180.2348008305798" /><polyline points="441.7142494220565,-251.4919528368744 422.0229224751569,-321.608517618515" /><polyline points="422.0229224751569,-321.608517618515 402.3315955282575,-391.7250824001558" /><polyline points="402.3315955282575,-391.7250824001558 425.0098749975002,-462.9822344064505" /><polyline points="402.3315955282575,-391.7250824001558 425.0098749975002,-462.9822344064505" /><polyline points="402.3315955282575,-391.7250824001558 379.6533160590146,-320.4679303938613" /><polyline points="379.6533160590146,-320.4679303938613 356.9750365897717,-249.2107783875667" /><polyline points="356.9750365897717,-249.2107783875667 376.6663635366711,-179.0942136059259" /><polyline points="376.6663635366711,-179.0942136059259 396.3576904835705,-108.9776488242851" /><polyline points="396.3576904835705,-108.9776488242851 419.0359699528134,-180.2348008305796" /><polyline points="396.3576904835705,-108.9776488242851 419.0359699528134,-180.2348008305796" /><polyline points="396.3576904835705,-108.9776488242851 373.6794110143276,-37.72049681799057" /><polyline points="373.6794110143276,-37.72049681799057 351.0011315450847,33.53665518830393" /><polyline points="351.0011315450847,33.53665518830393 446.3842919214595,36.00356239649291" /><polyline points="446.3842919214595,36.00356239649291 541.7674522978342,38.47046960468192" /><polyline points="541.7674522978342,38.47046960468192 446.3842919214595,36.00356239649297" /><polyline points="351.0011315450847,33.53665518830393 370.6924584919842,103.6532199699446" /><polyline points="370.6924584919842,103.6532199699446 390.3837854388836,173.7697847515854" /><polyline points="390.3837854388836,173.7697847515854 295.0006250625089,171.3028775433963" /><polyline points="390.3837854388836,173.7697847515854 295.0006250625088,171.3028775433965" /><polyline points="390.3837854388836,173.7697847515854 485.7669458152583,176.2366919597742" /><polyline points="485.7669458152583,176.2366919597742 581.1501061916331,178.7035991679632" /><polyline points="581.1501061916331,178.7035991679632 603.8283856608757,107.4464471616687" /><polyline points="603.8283856608757,107.4464471616687 626.5066651301186,36.18929515537413" /><polyline points="626.5066651301186,36.18929515537413 603.8283856608758,107.4464471616687" /><polyline points="581.1501061916331,178.7035991679632 558.47182672239,249.9607511742578" /><polyline points="558.47182672239,249.9607511742578 535.7935472531473,321.2179031805524" /><polyline points="535.7935472531473,321.2179031805524 440.4103868767726,318.7509959723634" /><polyline points="535.7935472531473,321.2179031805524 440.4103868767726,318.7509959723633" /><polyline points="535.7935472531473,321.2179031805524 631.1767076295222,323.6848103887413" /><polyline points="631.1767076295222,323.6848103887413 726.5598680058969,326.1517175969302" /><polyline points="726.5598680058969,326.1517175969302 749.2381474751396,254.8945655906358" /><polyline points="749.2381474751396,254.8945655906358 771.9164269443825,183.6374135843413" /><polyline points="771.9164269443825,183.6374135843413 749.2381474751397,254.8945655906358" /><polyline points="726.5598680058969,326.1517175969302 706.8685410589977,256.0351528152895" /><polyline points="706.8685410589977,256.0351528152895 687.1772141120983,185.9185880336487" /><polyline points="687.1772141120983,185.9185880336487 706.8685410589977,256.0351528152895" /><polyline points="687.1772141120983,185.9185880336487 664.4989346428555,257.1757400399432" /><polyline points="664.4989346428555,257.1757400399432 641.8206551736126,328.4328920462376" /><polyline points="641.8206551736126,328.4328920462376 622.1293282267133,258.3163272645968" /><polyline points="641.8206551736126,328.4328920462376 622.1293282267133,258.3163272645968" /><polyline points="641.8206551736126,328.4328920462376 661.5119821205118,398.5494568278784" /><polyline points="661.5119821205118,398.5494568278784 681.203309067411,468.6660216095192" /><polyline points="681.203309067411,468.6660216095192 703.881588536654,397.4088696032248" /><polyline points="703.881588536654,397.4088696032248 726.5598680058969,326.1517175969304" /><polyline points="726.5598680058969,326.1517175969304 631.1767076295221,323.6848103887413" /><polyline points="726.5598680058969,326.1517175969304 631.1767076295221,323.6848103887414" /><polyline points="726.5598680058969,326.1517175969304 821.9430283822716,328.6186248051193" /><polyline points="821.9430283822716,328.6186248051193 917.3261887586464,331.0855320133084" /><polyline points="917.3261887586464,331.0855320133084 894.6479092894034,402.3426840196026" /><polyline points="894.6479092894034,402.3426840196026 871.9696298201605,473.599836025897" /><polyline points="871.9696298201605,473.599836025897 894.6479092894034,402.3426840196026" /><polyline points="917.3261887586464,331.0855320133084 937.0175157055456,401.2020967949492" /><polyline points="937.0175157055456,401.2020967949492 956.708842652445,471.3186615765901" /><polyline points="956.708842652445,471.3186615765901 937.0175157055457,401.2020967949491" /><polyline points="956.708842652445,471.3186615765901 979.3871221216879,400.0615095702958" /><polyline points="979.3871221216879,400.0615095702958 1002.065401590931,328.8043575640014" /><polyline points="1002.065401590931,328.8043575640014 1021.75672853783,398.9209223456423" /><polyline points="1002.065401590931,328.8043575640014 1021.75672853783,398.9209223456422" /><polyline points="1002.065401590931,328.8043575640014 982.3740746440313,258.6877927823605" /><polyline points="982.3740746440313,258.6877927823605 962.6827476971321,188.5712280007196" /><polyline points="962.6827476971321,188.5712280007196 942.9914207502327,118.4546632190787" /><polyline points="942.9914207502327,118.4546632190787 923.3000938033335,48.33809843743781" /><polyline points="923.3000938033335,48.33809843743781 1018.683254179708,50.80500564562677" /><polyline points="923.3000938033335,48.33809843743781 1018.683254179708,50.80500564562677" /><polyline points="923.3000938033335,48.33809843743781 827.9169334269587,45.87119122924882" /><polyline points="827.9169334269587,45.87119122924882 732.533773050584,43.40428402105999" /><polyline points="732.533773050584,43.40428402105999 755.212052519827,-27.85286798523449" /><polyline points="755.212052519827,-27.85286798523449 777.8903319890699,-99.11001999152879" /><polyline points="777.8903319890699,-99.11001999152879 755.212052519827,-27.85286798523449" /><polyline points="732.533773050584,43.40428402105999 755.212052519827,-27.85286798523451" /><polyline points="755.212052519827,-27.85286798523451 777.8903319890699,-99.11001999152894" /><polyline points="777.8903319890699,-99.11001999152894 797.5816589359691,-28.99345520988807" /><polyline points="777.8903319890699,-99.11001999152894 797.5816589359691,-28.99345520988805" /><polyline points="777.8903319890699,-99.11001999152894 758.1990050421705,-169.2265847731698" /><polyline points="758.1990050421705,-169.2265847731698 738.5076780952712,-239.3431495548106" /><polyline points="738.5076780952712,-239.3431495548106 715.8293986260284,-168.0859975485161" /><polyline points="715.8293986260284,-168.0859975485161 693.1511191567855,-96.8288455422217" /><polyline points="693.1511191567855,-96.8288455422217 715.8293986260284,-168.0859975485161" /><polyline points="738.5076780952712,-239.3431495548106 833.8908384716459,-236.8762423466215" /><polyline points="833.8908384716459,-236.8762423466215 929.2739988480205,-234.4093351384325" /><polyline points="929.2739988480205,-234.4093351384325 833.8908384716458,-236.8762423466214" /><polyline points="929.2739988480205,-234.4093351384325 951.9522783172636,-305.6664871447269" /><polyline points="951.9522783172636,-305.6664871447269 974.6305577865065,-376.9236391510213" /><polyline points="974.6305577865065,-376.9236391510213 1070.013718162882,-374.4567319428323" /><polyline points="974.6305577865065,-376.9236391510213 1070.013718162882,-374.4567319428323" /><polyline points="974.6305577865065,-376.9236391510213 879.2473974101318,-379.3905463592104" /><polyline points="879.2473974101318,-379.3905463592104 783.8642370337571,-381.8574535673995" /><polyline points="783.8642370337571,-381.8574535673995 688.4810766573826,-384.3243607755884" /><polyline points="688.4810766573826,-384.3243607755884 593.0979162810078,-386.7912679837775" /><polyline points="593.0979162810078,-386.7912679837775 573.4065893341084,-456.9078327654183" /><polyline points="593.0979162810078,-386.7912679837775 573.4065893341083,-456.9078327654182" /><polyline points="593.0979162810078,-386.7912679837775 612.7892432279074,-316.6747032021367" /><polyline points="612.7892432279074,-316.6747032021367 632.4805701748069,-246.558138420496" /><polyline points="632.4805701748069,-246.558138420496 655.1588496440496,-317.8152904267905" /><polyline points="655.1588496440496,-317.8152904267905 677.8371291132926,-389.0724424330851" /><polyline points="677.8371291132926,-389.0724424330851 655.1588496440496,-317.8152904267905" /><polyline points="632.4805701748069,-246.558138420496 609.8022907055639,-175.3009864142014" /><polyline points="609.8022907055639,-175.3009864142014 587.124011236321,-104.0438344079069" /><polyline points="587.124011236321,-104.0438344079069 682.5071716126956,-101.5769271997179" /><polyline points="587.124011236321,-104.0438344079069 682.5071716126956,-101.5769271997179" /><polyline points="587.124011236321,-104.0438344079069 491.7408508599463,-106.5107416160958" /><polyline points="491.7408508599463,-106.5107416160958 396.3576904835716,-108.9776488242849" /><polyline points="396.3576904835716,-108.9776488242849 419.0359699528143,-180.2348008305795" /><polyline points="419.0359699528143,-180.2348008305795 441.7142494220573,-251.491952836874" /><polyline points="441.7142494220573,-251.491952836874 419.0359699528143,-180.2348008305795" /><polyline points="396.3576904835716,-108.9776488242849 416.0490174304709,-38.86108404264423" /><polyline points="416.0490174304709,-38.86108404264423 435.7403443773703,31.25548073899635" /><polyline points="435.7403443773703,31.25548073899635 416.0490174304708,-38.86108404264424" /><polyline points="435.7403443773703,31.25548073899635 413.0620649081274,102.512632745291" /><polyline points="413.0620649081274,102.512632745291 390.3837854388846,173.7697847515855" /><polyline points="390.3837854388846,173.7697847515855 410.0751123857839,243.8863495332261" /><polyline points="390.3837854388846,173.7697847515855 410.0751123857838,243.8863495332262" /><polyline points="390.3837854388846,173.7697847515855 370.6924584919852,103.653219969945" /><polyline points="370.6924584919852,103.653219969945 351.0011315450859,33.5366551883043" /><polyline points="351.0011315450859,33.5366551883043 373.6794110143289,-37.72049681799037" /><polyline points="373.6794110143289,-37.72049681799037 396.3576904835717,-108.9776488242849" /><polyline points="396.3576904835717,-108.9776488242849 416.049017430471,-38.86108404264422" /><polyline points="396.3576904835717,-108.9776488242849 416.0490174304711,-38.86108404264439" /><polyline points="396.3576904835717,-108.9776488242849 376.6663635366725,-179.0942136059256" /><polyline points="376.6663635366725,-179.0942136059256 356.9750365897732,-249.2107783875663" /><polyline points="356.9750365897732,-249.2107783875663 261.5918762133985,-251.6776855957554" /><polyline points="261.5918762133985,-251.6776855957554 166.2087158370238,-254.1445928039444" /><polyline points="166.2087158370238,-254.1445928039444 261.5918762133985,-251.6776855957553" /><polyline points="356.9750365897732,-249.2107783875663 379.6533160590162,-320.4679303938609" /><polyline points="379.6533160590162,-320.4679303938609 402.3315955282592,-391.7250824001554" /><polyline points="402.3315955282592,-391.7250824001554 497.714755904634,-389.2581751919664" /><polyline points="402.3315955282592,-391.7250824001554 497.714755904634,-389.2581751919665" /><polyline points="402.3315955282592,-391.7250824001554 306.9484351518846,-394.1919896083445" /><polyline points="306.9484351518846,-394.1919896083445 211.5652747755098,-396.6588968165337" /><polyline points="211.5652747755098,-396.6588968165337 231.2566017224093,-326.542332034893" /><polyline points="231.2566017224093,-326.542332034893 250.9479286693088,-256.4257672532523" /><polyline points="250.9479286693088,-256.4257672532523 231.2566017224093,-326.542332034893" /><polyline points="211.5652747755098,-396.6588968165337 191.8739478286103,-466.7754615981743" /><polyline points="191.8739478286103,-466.7754615981743 172.1826208817109,-536.8920263798149" /><polyline points="172.1826208817109,-536.8920263798149 267.5657812580857,-534.4251191716257" /><polyline points="172.1826208817109,-536.8920263798149 267.5657812580857,-534.4251191716257" /><polyline points="172.1826208817109,-536.8920263798149 76.79946050533621,-539.3589335880039" /><polyline points="76.79946050533621,-539.3589335880039 -18.58369987103832,-541.8258407961929" /><polyline points="-18.58369987103832,-541.8258407961929 1.107627075861124,-471.7092760145522" /><polyline points="1.107627075861124,-471.7092760145522 20.79895402276066,-401.5927112329115" /><polyline points="20.79895402276066,-401.5927112329115 1.107627075861124,-471.7092760145522" /><polyline points="-18.58369987103832,-541.8258407961929 -41.26197934028144,-470.5686887898984" /><polyline points="-41.26197934028144,-470.5686887898984 -63.94025880952452,-399.3115367836036" /><polyline points="-63.94025880952452,-399.3115367836036 -41.26197934028152,-470.5686887898984" /><polyline points="-63.94025880952452,-399.3115367836036 -83.63158575642402,-469.4281015652442" /><polyline points="-83.63158575642402,-469.4281015652442 -103.3229127033236,-539.5446663468849" /><polyline points="-103.3229127033236,-539.5446663468849 -126.0011921725665,-468.2875143405902" /><polyline points="-103.3229127033236,-539.5446663468849 -126.0011921725666,-468.2875143405902" /><polyline points="-103.3229127033236,-539.5446663468849 -80.64463323408046,-610.8018183531794" /><polyline points="-80.64463323408046,-610.8018183531794 -57.96635376483732,-682.0589703594741" /></svg>
