<svg viewBox="-173.20508075688778 -149.99999999999977 346.4101615137756 299.99999999999966" xmlns="http://www.w3.org/2000/svg">
<style>
svg { stroke:black; stroke-width:2; fill:none;}
</style>
<polyline points="-0.0000000000000341 -0.0000000000001245 -0.000000000000461 -100.0000000000002 -86.60254037844452 -149.99999999999977 -86.60254037844413 -49.99999999999977 -0.0000000000000675 -0.0000000000001098 -86.6025403784441 -49.99999999999984 -173.20508075688778 0.0000000000004658 -86.60254037844379 50.000000000000234 -0.0000000000000628 -0.0000000000000378 0.0000000000000971 100 86.60254037844406 149.99999999999986 86.60254037844392 49.99999999999982 0.0000000000000105 -0.0000000000000648 86.60254037844389 49.99999999999989 173.20508075688775 -0.0000000000001422 86.60254037844388 -50.00000000000015 -0.0000000000000028 -0.0000000000001417 -86.60254037844382 -50.00000000000021 -173.20508075688772 -0.0000000000002606 -86.60254037844393 49.999999999999844 0.0000000000000005 -0.0000000000000475 -86.60254037844395 49.999999999999794 -86.60254037844419 149.99999999999986 -0.0000000000001765 100.00000000000003 0.0000000000000784 -0.0000000000000025 86.60254037844376 50.00000000000028 173.2050807568878 0.0000000000005572 86.60254037844415 -49.99999999999977 0.0000000000000801 -0.0000000000001054 86.60254037844417 -49.999999999999716 86.60254037844466 -149.99999999999977 0.0000000000005207 -100.00000000000016 -0.0000000000000065 -0.0000000000001554"/>
</svg>