<svg viewBox="-560.1148535400126 -253.77464617741762 1128.0933801577676 754.8432032080278" xmlns="http://www.w3.org/2000/svg">
<style>
svg { stroke:black; stroke-width:2; fill:none;}
</style>
<polyline points="567.9785266177549 -98.15720521809978 566.1853282774897 -88.54822969647485"/>
<polyline points="566.1853282774897 -88.54822969647525 559.1788427616004 -94.93346758746539"/>
<polyline points="559.1788427616004 -94.93346758746539 559.3724174103747 -86.45033304387118"/>
<polyline points="559.3724174103747 -86.45033304387118 549.8615946514069 -89.51540777473026"/>
<polyline points="549.8615946514069 -89.51540777473026 551.5909222149825 -99.00965674369277"/>
<polyline points="551.5909222149825 -99.00965674369277 552.4557780344084 -93.13282420406247"/>
<polyline points="552.4557780344084 -93.13282420406247 554.1851055979839 -102.627073173025"/>
<polyline points="554.1851055979839 -102.627073173025 559.4991183111748 -98.87601026219811"/>
<polyline points="559.4991183111748 -98.87601026219811 561.1889708571238 -94.00490458909547"/>
<polyline points="561.1889708571238 -94.00490458909547 554.421967271348 -89.86340226401444"/>
<polyline points="554.421967271348 -89.86340226401444 559.0617895244351 -84.60100490152327"/>
<polyline points="559.0617895244351 -84.60100490152327 550.6213623358187 -79.34620390229279"/>
<polyline points="550.6213623358187 -79.34620390229279 549.5033963474423 -89.27991649527132"/>
<polyline points="549.5033963474423 -89.27991649527132 545.9855784182035 -80.28627158796633"/>
<polyline points="545.9855784182035 -80.28627158796633 544.2477682865012 -90.05156136896166"/>
<polyline points="544.2477682865012 -90.05156136896166 537.955123073396 -83.52022067526613"/>
<polyline points="537.955123073396 -83.52022067526613 546.3274827594545 -78.73670143792694"/>
<polyline points="546.3274827594545 -78.73670143792694 538.6883161934319 -85.11910512860719"/>
<polyline points="538.6883161934319 -85.11910512860719 539.8106010659926 -77.73252199732444"/>
<polyline points="539.8106010659926 -77.73252199732444 537.1427909695695 -81.1997923190714"/>
<polyline points="537.1427909695695 -81.1997923190714 539.3523967292955 -90.90121279299368"/>
<polyline points="539.3523967292955 -90.90121279299368 529.6857011514782 -90.06388317919267"/>
<polyline points="529.6857011514782 -90.06388317919267 530.2806675388977 -80.13353184014092"/>
<polyline points="530.2806675388977 -80.13353184014092 537.6363483225134 -86.62416730814466"/>
<polyline points="537.6363483225134 -86.62416730814466 540.9764570128999 -94.38520007181955"/>
<polyline points="537.6363483225134 -86.62416730814466 540.9764570128999 -94.38520007181955"/>
<polyline points="540.9764570128999 -94.38520007181955 541.2639956479355 -104.36103362973327"/>
<polyline points="541.2639956479355 -104.36103362973327 534.7001038122552 -106.2575633452864 514.7339489055379 -105.24117157004667 505.8720506287381 -109.67032715964415 496.295400654707 -109.19055867034105 475.7029039641026 -103.82909222083866"/>
<polyline points="475.7029039641026 -103.82909222083866 469.19341631481444 -108.95389603798735 451.08740958438415 -110.65833423142506 444.57792193509613 -115.78313804857366 436.81019821165603 -115.93524200497673 424.464274058465 -108.18668111453945"/>
<polyline points="424.464274058465 -108.18668111453945 421.75638860336977 -112.53178214024405"/>
<polyline points="424.464274058465 -108.18668111453945 421.75638860336977 -112.53178214024405"/>
<polyline points="424.464274058465 -108.18668111453945 418.139298946502 -110.11785364619831"/>
<polyline points="418.139298946502 -110.11785364619831 408.89367715978335 -113.70727928790363"/>
<polyline points="436.81019821165603 -115.93524200497673 430.4852230996929 -117.86641453663553 415.51971610880685 -106.567232111719 412.10944227441945 -99.71782510458786 405.86146587003526 -92.21440543354824 395.3374269380005 -64.70817084235777"/>
<polyline points="395.3374269380005 -64.70817084235777 395.5774280987719 -55.586488284071876 386.346068253201 -38.502497459201045 386.5860694139726 -29.380814900915134 383.272208415115 -19.95199213952139 379.21380671275045 6.654208287399734"/>
<polyline points="379.21380671275045 6.654208287399734 386.4155549910198 13.413772255680428"/>
<polyline points="379.21380671275045 6.654208287399734 382.8551640902201 15.950212458362357"/>
<polyline points="383.272208415115 -19.95199213952139 382.4788019714456 -10.002422078596371"/>
<polyline points="383.272208415115 -19.95199213952139 382.4788019714456 -10.002422078596371"/>
<polyline points="395.3374269380005 -64.70817084235777 391.2238856959795 -56.172480583291275"/>
<polyline points="391.2238856959795 -56.172480583291275 381.81288739742865 -52.87077777876319"/>
<polyline points="391.2238856959795 -56.172480583291275 381.81288739742865 -52.87077777876319"/>
<polyline points="381.81288739742865 -52.87077777876319 374.0778520519122 -50.87409997571332"/>
<polyline points="405.86146587003526 -92.21440543354824 401.74792462801423 -83.67871517448174 384.86068188630196 -74.88130466632212 380.1640057910552 -68.30367818906565 372.01756549411624 -65.49886290876188 351.6987740539506 -70.7037342094803"/>
<polyline points="351.6987740539506 -70.7037342094803 349.23897899236306 -67.15696252269431 335.2876181512807 -61.730425145460096 332.82782308969325 -58.1836534586741 326.4535906292183 -57.752973934257874 311.3818480592193 -71.41692606299472"/>
<polyline points="311.3818480592193 -71.41692606299472 311.51333636628607 -71.91366652910028"/>
<polyline points="311.3818480592193 -71.41692606299472 311.51333636628607 -71.91366652910028"/>
<polyline points="311.3818480592193 -71.41692606299472 307.18893104575403 -71.16249630344865"/>
<polyline points="307.18893104575403 -71.16249630344865 301.69548117797467 -64.9170552256369"/>
<polyline points="326.4535906292183 -57.752973934257874 322.260673615753 -57.49854417471185 303.3827172949967 -61.612161814335884 296.5137504677897 -68.11264449167365 287.03684152062 -71.29449169949595 262.66677143896834 -81.49365823334725"/>
<polyline points="262.66677143896834 -81.49365823334725 257.5090676716264 -90.01654749419978 240.0086456420728 -99.63999886454218 234.8509418747308 -108.1628881253947 226.6910260563489 -113.07454119136119 208.26576016836378 -121.66978741709916"/>
<polyline points="208.26576016836378 -121.66978741709916 210.20302740135585 -130.61893398638625"/>
<polyline points="208.26576016836378 -121.66978741709916 205.85216265811346 -130.03107776828904"/>
<polyline points="226.6910260563489 -113.07454119136119 220.2808951953161 -119.72461038896839"/>
<polyline points="262.66677143896834 -81.49365823334725 254.31388257754048 -86.9917581597951"/>
<polyline points="303.3827172949967 -61.612161814335884 296.2194012719566 -62.10065571961017"/>
<polyline points="296.2194012719566 -62.10065571961017 291.2189369068225 -53.64251107703565"/>
<polyline points="322.260673615753 -57.49854417471185 315.0973575927128 -57.9870380799861"/>
<polyline points="326.4535906292183 -57.752973934257874 322.260673615753 -57.49854417471185"/>
<polyline points="351.6987740539506 -70.7037342094803 345.3009442095217 -67.28284803930131"/>
<polyline points="345.3009442095217 -67.28284803930131 335.32763921609467 -66.59115862064367"/>
<polyline points="345.3009442095217 -67.28284803930131 335.32763921609467 -66.59115862064367"/>
<polyline points="335.32763921609467 -66.59115862064367 328.30521388321216 -59.47385893719432"/>
<polyline points="372.01756549411624 -65.49886290876188 365.61973564968736 -62.077976738582954 346.03152503593986 -65.7119913832038 338.5298560080549 -71.04641515284442 329.2978776113737 -74.82247712279096 309.3974183471818 -92.3034662158731"/>
<polyline points="309.3974183471818 -92.3034662158731 304.6072234782011 -100.94840635282468 287.9396946355242 -111.94561795452744 283.1494997665435 -120.59055809147908 276.03723752391045 -127.1242206328143 263.9156210063539 -145.6610384809738"/>
<polyline points="263.9156210063539 -145.6610384809738 262.82615228056267 -155.49384392798962"/>
<polyline points="263.9156210063539 -145.6610384809738 262.82615228056267 -155.49384392798962"/>
<polyline points="263.9156210063539 -145.6610384809738 258.6895893671943 -153.91088788505013"/>
<polyline points="258.6895893671943 -153.91088788505013 250.61697055347125 -158.7640448485369"/>
<polyline points="276.03723752391045 -127.1242206328143 270.8112058847507 -135.37407003689063 254.11602194598038 -137.11423455589573 249.63379551394198 -138.85366043713427 241.9759176795212 -137.36774600512504 225.06827181787816 -118.80880875207882"/>
<polyline points="225.06827181787816 -118.80880875207882 223.4604946061107 -116.67766990985179 210.86683226152476 -112.24758985071514 209.25905504975717 -110.11645100848813 203.8931948488143 -105.51532941255631 192.9971078388509 -80.30074616793543"/>
<polyline points="192.9971078388509 -80.30074616793543 198.5344325839852 -76.2313635303945"/>
<polyline points="192.9971078388509 -80.30074616793543 194.43078154729497 -74.64196219022945"/>
<polyline points="203.8931948488143 -105.51532941255631 200.87248405328495 -100.34961703258459"/>
<polyline points="203.8931948488143 -105.51532941255631 200.87248405328495 -100.34961703258459"/>
<polyline points="225.06827181787816 -118.80880875207882 219.31110435192383 -117.13705896486607"/>
<polyline points="219.31110435192383 -117.13705896486607 209.36624292127212 -116.41755608818517"/>
<polyline points="219.31110435192383 -117.13705896486607 209.36624292127212 -116.41755608818517"/>
<polyline points="209.36624292127212 -116.41755608818517 201.77373905737747 -121.47040701539241"/>
<polyline points="241.9759176795212 -137.36774600512504 236.21875021356678 -135.69599621791227 217.40995386605414 -128.93040159943357 210.9650020013257 -121.33210752647648 202.08888176594402 -117.22836715800408 182.2036304028194 -107.16285898831407"/>
<polyline points="182.2036304028194 -107.16285898831407 178.4310918718709 -98.43363419412083 162.79911329826965 -87.43189975952825 159.02657476732116 -78.70267496533509 152.25295212928648 -73.58004441555036 139.3715384934071 -66.97918714268368"/>
<polyline points="139.3715384934071 -66.97918714268368 138.98486274162414 -59.35337798933162"/>
<polyline points="139.3715384934071 -66.97918714268368 138.98486274162414 -59.35337798933162"/>
<polyline points="139.3715384934071 -66.97918714268368 134.66984504419887 -60.45455474926426"/>
<polyline points="134.66984504419887 -60.45455474926426 127.54876624347858 -53.46733461216789"/>
<polyline points="152.25295212928648 -73.58004441555036 147.5512586800783 -67.05541202213095 129.83911253830397 -68.94496080731972 124.45919148318633 -71.46761908972648 115.97179259693667 -74.91686789672835 95.54604364086036 -96.70829982589046"/>
<polyline points="95.54604364086036 -96.70829982589046 92.55262771157301 -103.3418032330151 77.83777687586414 -113.1033455517364 74.8443609465767 -119.73684895886107 68.24168481730341 -126.55358464187482 53.71399875832746 -152.48225167813172"/>
<polyline points="53.71399875832746 -152.48225167813172 61.01732020463031 -157.33141313559275"/>
<polyline points="53.71399875832746 -152.48225167813172 53.60357127443878 -161.7057941047638"/>
<polyline points="77.83777687586414 -113.1033455517364 71.2333525956962 -113.68979945053731"/>
<polyline points="115.97179259693667 -74.91686789672835 109.1255026449143 -79.71319389866359"/>
<polyline points="152.25295212928648 -73.58004441555036 147.5512586800783 -67.05541202213095"/>
<polyline points="162.79911329826965 -87.43189975952825 155.16440212741847 -81.35986493708404"/>
<polyline points="202.08888176594402 -117.22836715800408 194.65550766009176 -111.00751303787712"/>
<polyline points="236.21875021356678 -135.69599621791227 228.04209122204654 -133.35152146211678"/>
<polyline points="254.11602194598038 -137.11423455589573 246.70399323381744 -142.75023862069594"/>
<polyline points="246.70399323381744 -142.75023862069594 239.32831849655472 -140.49548476281208"/>
<polyline points="270.8112058847507 -135.37407003689063 263.3991771725878 -141.0100741016909"/>
<polyline points="276.03723752391045 -127.1242206328143 270.8112058847507 -135.37407003689063"/>
<polyline points="309.3974183471818 -92.3034662158731 301.3106081672858 -98.17960489581543"/>
<polyline points="301.3106081672858 -98.17960489581543 291.88159191014745 -96.31896719626624"/>
<polyline points="301.3106081672858 -98.17960489581543 291.88159191014745 -96.31896719626624"/>
<polyline points="291.88159191014745 -96.31896719626624 282.88100188803145 -95.32307015090302"/>
<polyline points="329.2978776113737 -74.82247712279096 321.21106743147766 -80.69861580273333 304.1623473521509 -78.98759170223566 298.5886275727911 -81.3257575061057 291.5033930874064 -78.89806263841692 281.30200703596586 -60.860200301880866"/>
<polyline points="281.30200703596586 -60.860200301880866 279.7446082978622 -61.14178903188646 268.4183117483378 -56.72517170243029 266.8609130102342 -57.00676043243587 262.9778215078342 -52.94942272051785 261.1948045920228 -30.101585267853782"/>
<polyline points="261.1948045920228 -30.101585267853782 263.89445744290117 -28.006337893790594"/>
<polyline points="261.1948045920228 -30.101585267853782 263.89445744290117 -28.006337893790594"/>
<polyline points="261.1948045920228 -30.101585267853782 259.60457344992255 -26.711228977976628"/>
<polyline points="259.60457344992255 -26.711228977976628 253.40813292456156 -28.43680717607757"/>
<polyline points="262.9778215078342 -52.94942272051785 261.3875903657339 -49.559066430640605 248.0929461336213 -35.98105321801814 245.78987039927577 -26.513991946284847 239.05432035172802 -19.14675901384873 219.1017577467357 -1.053011212221841"/>
<polyline points="219.1017577467357 -1.053011212221841 218.19622096788396 8.602456121347993 207.05120663365918 25.154242567209778 206.14566985480732 34.80970990077966 200.53142840207843 42.447971043523005 183.15596774595173 54.922462439512685"/>
<polyline points="183.15596774595173 54.922462439512685 187.8320237194123 60.95590099966676"/>
<polyline points="183.15596774595173 54.922462439512685 183.59278406674133 62.40486121263165"/>
<polyline points="200.53142840207843 42.447971043523005 197.01326910684372 50.59160116899713"/>
<polyline points="200.53142840207843 42.447971043523005 197.01326910684372 50.59160116899713"/>
<polyline points="219.1017577467357 -1.053011212221841 214.2989771614749 7.708435162746847"/>
<polyline points="214.2989771614749 7.708435162746847 204.9598414086679 10.083863679588854"/>
<polyline points="214.2989771614749 7.708435162746847 204.9598414086679 10.083863679588854"/>
<polyline points="204.9598414086679 10.083863679588854 200.3149586790016 15.634507154307625"/>
<polyline points="239.05432035172802 -19.14675901384873 234.25153976646712 -10.385312638879942 214.55589023531843 -6.910641339164629 206.01220644587474 -5.363227697935387 196.0580436264623 -6.141000162190885 171.30726006324278 -23.087712235158882"/>
<polyline points="171.30726006324278 -23.087712235158882 164.2813299804311 -25.927759348063315 145.1002333683723 -29.64630265273712 138.07430328556063 -32.486349765641535 129.25662549709205 -36.80423621483116 111.3505903797868 -60.853116509844114"/>
<polyline points="111.3505903797868 -60.853116509844114 107.37873621706584 -67.51740550853211"/>
<polyline points="111.3505903797868 -60.853116509844114 107.37873621706584 -67.51740550853211"/>
<polyline points="111.3505903797868 -60.853116509844114 103.85556577858279 -66.23800126135664"/>
<polyline points="103.85556577858279 -66.23800126135664 94.88144187322104 -64.71432045514162"/>
<polyline points="129.25662549709205 -36.80423621483116 121.76160089588804 -42.18912096634362 104.80534649030845 -48.099033502181435 99.61544746019028 -55.00017945770126 92.44522690855894 -57.364539106096856 80.9456391868424 -55.67281734909798"/>
<polyline points="80.9456391868424 -55.67281734909798 79.59021281532138 -61.605956731253364 68.16706890078562 -67.92605971119076 66.81164252926466 -73.85919909334605 62.70169679438346 -75.53169524763831 59.0841834885884 -67.83302315987873"/>
<polyline points="59.0841834885884 -67.83302315987873 65.22910046568188 -72.32013335595003"/>
<polyline points="59.0841834885884 -67.83302315987873 61.731855969440005 -71.17070731923988"/>
<polyline points="62.70169679438346 -75.53169524763831 60.95427970634754 -78.11269466245436"/>
<polyline points="80.9456391868424 -55.67281734909798 75.56602540263748 -59.703308038515935"/>
<polyline points="104.80534649030845 -48.099033502181435 95.91464673003577 -52.648932282788834"/>
<polyline points="95.91464673003577 -52.648932282788834 89.81420445196922 -44.763390914664505"/>
<polyline points="121.76160089588804 -42.18912096634362 112.8709011356154 -46.739019746951044"/>
<polyline points="129.25662549709205 -36.80423621483116 121.76160089588804 -42.18912096634362"/>
<polyline points="171.30726006324278 -23.087712235158882 161.88074102263027 -24.5706684169612"/>
<polyline points="161.88074102263027 -24.5706684169612 153.28678062655968 -23.60335056926183"/>
<polyline points="161.88074102263027 -24.5706684169612 153.28678062655968 -23.60335056926183"/>
<polyline points="153.28678062655968 -23.60335056926183 145.17006366166547 -17.762766975989788"/>
<polyline points="196.0580436264623 -6.141000162190885 186.6315245858498 -7.623956343993231 170.36823557662532 -10.999884171358778 163.99755619390135 -17.389769771727476 157.63200041549396 -19.61454375150539 152.14819282945618 -23.792849553455877"/>
<polyline points="152.14819282945618 -23.792849553455877 150.12728474022737 -31.335191545488964 139.866098965636 -38.709391668106946 137.84519087640717 -46.25173366014004 134.93890517243594 -49.50056747966433 139.00682011973137 -50.856319557920955"/>
<polyline points="139.00682011973137 -50.856319557920955 141.76779523040832 -57.55358767622736"/>
<polyline points="139.00682011973137 -50.856319557920955 141.76779523040832 -57.55358767622736"/>
<polyline points="139.00682011973137 -50.856319557920955 138.0516077745086 -55.770731191740055"/>
<polyline points="138.0516077745086 -55.770731191740055 131.27847409551495 -61.42533749863566"/>
<polyline points="134.93890517243594 -49.50056747966433 133.98369282721313 -54.41497911348344 124.95056386136064 -48.46324889659145 125.40475949758559 -44.179791017152695 121.08740904963247 -38.87657635564195 107.89541586376798 -13.650676678126487"/>
<polyline points="107.89541586376798 -13.650676678126487 109.95405581464192 -5.89356017951513 104.18759438665889 7.263696352889192 106.24623433753278 15.020812851500592 103.25187431040061 23.19427675745398 91.2427617424165 50.685212068576845"/>
<polyline points="91.2427617424165 50.685212068576845 97.76331522439256 58.25648332937022"/>
<polyline points="91.2427617424165 50.685212068576845 94.14189913190289 60.14527230429101"/>
<polyline points="103.25187431040061 23.19427675745398 102.47297736840476 32.32971161305519"/>
<polyline points="103.25187431040061 23.19427675745398 102.47297736840476 32.32971161305519"/>
<polyline points="107.89541586376798 -13.650676678126487 105.8771212593996 -7.159335102382271"/>
<polyline points="105.8771212593996 -7.159335102382271 97.52314782113625 -5.8388926500365805"/>
<polyline points="105.8771212593996 -7.159335102382271 97.52314782113625 -5.8388926500365805"/>
<polyline points="97.52314782113625 -5.8388926500365805 94.38662697659419 -6.975459281312008"/>
<polyline points="121.08740904963247 -38.87657635564195 119.06911444526405 -32.38523477989776 101.25708994973424 -26.168060168980592 93.77042117279971 -19.541692107939763 84.05761941398804 -17.41358751018461 55.49150757112444 -21.640953040161328"/>
<polyline points="55.49150757112444 -21.640953040161328 48.24846628752913 -16.690681165393652 29.03193996306165 -11.389921155696841 21.788898679466346 -6.439649280929176 12.192112675265681 -5.582144720964836 -11.969360535284135 -16.59431915890112"/>
<polyline points="-11.969360535284135 -16.59431915890112 -17.41787786219569 -14.71136709691111"/>
<polyline points="-11.969360535284135 -16.59431915890112 -17.41787786219569 -14.71136709691111"/>
<polyline points="-11.969360535284135 -16.59431915890112 -20.523990413404864 -15.122330354544951"/>
<polyline points="-20.523990413404864 -15.122330354544951 -28.466329535686768 -9.057900169038774"/>
<polyline points="12.192112675265681 -5.582144720964836 3.6374827971450023 -4.110155916608695 -14.688485763800134 -10.791232780998754 -21.888144048587513 -17.653400460145466 -29.727649201265017 -22.61299447577852 -41.48569066403685 -40.74517665268931"/>
<polyline points="-41.48569066403685 -40.74517665268931 -44.87133578345775 -50.12663885111946 -58.319277418747056 -63.19908059109127 -61.704922538167914 -72.58054278952132 -66.52841791447449 -79.67385406048533 -69.05577203365881 -96.85775572723672"/>
<polyline points="-69.05577203365881 -96.85775572723672 -63.37687744308391 -103.85746765231983"/>
<polyline points="-69.05577203365881 -96.85775572723672 -67.91101694490672 -106.45205726756028"/>
<polyline points="-41.48569066403685 -40.74517665268931 -48.138158967064896 -47.72852453740189"/>
<polyline points="3.6374827971450023 -4.110155916608695 -6.1603249008050325 -4.462312870759008"/>
<polyline points="84.05761941398804 -17.41358751018461 74.75468382027739 -13.911210299778913"/>
<polyline points="101.25708994973424 -26.168060168980592 95.80690737272992 -20.810268575450877"/>
<polyline points="124.95056386136064 -48.46324889659145 121.95628248131301 -50.344174013051834"/>
<polyline points="134.93890517243594 -49.50056747966433 133.98369282721313 -54.41497911348344"/>
<polyline points="157.63200041549396 -19.61454375150539 152.47555415197616 -24.125530424822866"/>
<polyline points="170.36823557662532 -10.999884171358778 160.4943936913014 -12.418573215403226"/>
<polyline points="196.0580436264623 -6.141000162190885 186.6315245858498 -7.623956343993231"/>
<polyline points="234.25153976646712 -10.385312638879942 226.59189742532368 -3.9569587022474217"/>
<polyline points="248.0929461336213 -35.98105321801814 243.75936618574104 -30.880323306902923"/>
<polyline points="243.75936618574104 -30.880323306902923 235.25641592262616 -36.027614017965426"/>
<polyline points="261.3875903657339 -49.559066430640605 257.05401041785365 -44.458336519525375"/>
<polyline points="262.9778215078342 -52.94942272051785 261.3875903657339 -49.559066430640605"/>
<polyline points="281.30200703596586 -60.860200301880866 275.88578241981315 -59.4951558145972"/>
<polyline points="275.88578241981315 -59.4951558145972 266.8945852714601 -55.291861997574635"/>
<polyline points="275.88578241981315 -59.4951558145972 266.8945852714601 -55.291861997574635"/>
<polyline points="266.8945852714601 -55.291861997574635 257.6338233098038 -58.016523617813334"/>
<polyline points="291.5033930874064 -78.89806263841692 286.08716847125373 -77.5330181511333 271.15859394401747 -64.61306520648658 267.9489141029507 -55.72447313972298 261.45822286539374 -48.134799966264474 248.62017063421496 -25.9445522984613"/>
<polyline points="248.62017063421496 -25.9445522984613 248.65377924537404 -15.947262153249484 238.8220249855848 1.3677136259491292 238.85563359674393 11.36500377116095 234.9720086035079 19.96435148881653 227.87426166281418 38.219718532994335"/>
<polyline points="227.87426166281418 38.219718532994335 230.92823851331664 46.92289340603694"/>
<polyline points="227.87426166281418 38.219718532994335 230.92823851331664 46.92289340603694"/>
<polyline points="227.87426166281418 38.219718532994335 226.48557910946693 47.452051771086154"/>
<polyline points="226.48557910946693 47.452051771086154 222.4391953867651 56.10974405952465"/>
<polyline points="234.9720086035079 19.96435148881653 233.58332605016068 29.19668472690837 217.32815132485288 36.89773125711063 212.1399283902777 39.04063192180496 203.3743960341961 40.39495110242071 176.65583063031838 29.836991424883756"/>
<polyline points="176.65583063031838 29.836991424883756 172.03975361693702 27.117495739046696 155.6566505036776 26.843321589107806 151.04057349029623 24.123825903270717 142.68908520635446 21.55466973289706 119.26638261268431 3.133195523556312"/>
<polyline points="119.26638261268431 3.133195523556312 120.53936709118958 -4.301106294417951"/>
<polyline points="119.26638261268431 3.133195523556312 116.08392502869097 -3.8215700594526254"/>
<polyline points="142.68908520635446 21.55466973289706 135.8952803164149 17.20142060781285"/>
<polyline points="142.68908520635446 21.55466973289706 135.8952803164149 17.20142060781285"/>
<polyline points="176.65583063031838 29.836991424883756 169.03904502353555 29.807060475047027"/>
<polyline points="169.03904502353555 29.807060475047027 159.93484228096617 33.88092316931816"/>
<polyline points="169.03904502353555 29.807060475047027 159.93484228096617 33.88092316931816"/>
<polyline points="159.93484228096617 33.88092316931816 154.62435739699768 41.182218766645235"/>
<polyline points="203.3743960341961 40.39495110242071 195.75761042741323 40.36502015258399 176.33374246014085 43.57054777085124 167.19877139252998 40.03526926159794 158.20115877442225 41.18544315292096 141.30697966846716 45.68692871830719"/>
<polyline points="141.30697966846716 45.68692871830719 134.9203475204498 40.57123240085358 117.92859836027992 39.74324877541629 111.54196621226257 34.627552457962665 104.66929738410188 34.438117211564 96.83410999085868 39.58793676048364"/>
<polyline points="96.83410999085868 39.58793676048364 94.66185010022987 34.3598098511367"/>
<polyline points="96.83410999085868 39.58793676048364 94.66185010022987 34.3598098511367"/>
<polyline points="96.83410999085868 39.58793676048364 91.29241383967243 37.307120394889594"/>
<polyline points="91.29241383967243 37.307120394889594 81.88221187683375 34.65279726997531"/>
<polyline points="104.66929738410188 34.438117211564 99.1276012329156 32.15730084596997 86.7901497194275 43.94517637889357 85.15472011645703 50.11246894321146 80.28338002991669 57.880755164170694 72.89898704334493 86.95337714772921"/>
<polyline points="72.89898704334493 86.95337714772921 74.86340027970554 95.2811907792086 68.66634823807094 112.41423868397516 70.63076147443155 120.74205231545459 68.67467953947943 130.334119153389 66.58734616919591 158.89583590040817"/>
<polyline points="66.58734616919591 158.89583590040817 74.76570894720092 164.478478845217"/>
<polyline points="66.58734616919591 158.89583590040817 71.48032671119176 167.52545674412642"/>
<polyline points="68.67467953947943 130.334119153389 69.30029720770999 140.10808873813482"/>
<polyline points="72.89898704334493 86.95337714772921 70.39341618222716 95.33728563835673"/>
<polyline points="86.7901497194275 43.94517637889357 80.1265074894576 45.15262865928002"/>
<polyline points="80.1265074894576 45.15262865928002 71.57226263919463 45.02346796223109"/>
<polyline points="99.1276012329156 32.15730084596997 92.46395900294566 33.36475312635643"/>
<polyline points="104.66929738410188 34.438117211564 99.1276012329156 32.15730084596997"/>
<polyline points="141.30697966846716 45.68692871830719 132.7099222332122 44.38653532009861"/>
<polyline points="132.7099222332122 44.38653532009861 125.12243800066024 50.71771147215676"/>
<polyline points="132.7099222332122 44.38653532009861 125.12243800066024 50.71771147215676"/>
<polyline points="125.12243800066024 50.71771147215676 115.5305533535686 51.70931165647147"/>
<polyline points="158.20115877442225 41.18544315292096 149.60410133916724 39.88504975471243 137.32838493408232 53.73270408457487 134.31793017349776 59.35050593740448 130.2553054059856 67.79239967606188 130.7349496418511 97.66287468191763"/>
<polyline points="130.7349496418511 97.66287468191763 132.42332578733655 104.51789853843155 127.7242659538782 121.85391561154587 129.4126420993637 128.70893946805975 129.1356930908437 138.21431003168658 137.5039697627009 166.8419596776584"/>
<polyline points="137.5039697627009 166.8419596776584 143.39941684989498 173.49490911789988"/>
<polyline points="137.5039697627009 166.8419596776584 143.39941684989498 173.49490911789988"/>
<polyline points="137.5039697627009 166.8419596776584 139.57550308905147 175.764449079036"/>
<polyline points="139.57550308905147 175.764449079036 135.98617002448 181.80323049261398"/>
<polyline points="129.1356930908437 138.21431003168658 131.2072264171943 147.1367994330641 123.07809591239392 164.92144358592284 123.22577693353783 173.52557492013895 118.36111113690085 181.17413979625374 98.49957015348163 191.475263115752"/>
<polyline points="98.49957015348163 191.475263115752 98.46687883158225 196.6308291194047 90.38470399784303 210.65875610609007 90.35201267594368 215.81432210974287 85.35711295038755 220.7650651364948 64.44180297724617 221.26626481339125"/>
<polyline points="64.44180297724617 221.26626481339125 67.71363976132604 219.41981297943602"/>
<polyline points="64.44180297724617 221.26626481339125 63.95134373010633 221.75199466580506"/>
<polyline points="85.35711295038755 220.7650651364948 81.93722428053522 224.38365644159904"/>
<polyline points="85.35711295038755 220.7650651364948 81.93722428053522 224.38365644159904"/>
<polyline points="98.49957015348163 191.475263115752 95.34108357445163 198.71991187026458"/>
<polyline points="95.34108357445163 198.71991187026458 87.89326073464896 205.3038822103726"/>
<polyline points="95.34108357445163 198.71991187026458 87.89326073464896 205.3038822103726"/>
<polyline points="87.89326073464896 205.3038822103726 86.71033275868263 215.16597795133833"/>
<polyline points="118.36111113690085 181.17413979625374 115.20262455787088 188.4187885507663 97.45223771032117 197.62703894360737 88.14556181594934 198.35528377715542 78.56082714793718 200.92048779170898 52.54272444197532 197.8837439881154"/>
<polyline points="52.54272444197532 197.8837439881154 43.41951491809222 194.12576326147683 23.549965805241687 195.47832794212334 14.42675628135857 191.72034721548474 4.881984473855176 190.64339328717244 -15.459390762161778 181.4573602288449"/>
<polyline points="-15.459390762161778 181.4573602288449 -22.30021600487571 174.22806591357113"/>
<polyline points="-15.459390762161778 181.4573602288449 -22.30021600487571 174.22806591357113"/>
<polyline points="-15.459390762161778 181.4573602288449 -24.578169409441795 177.92353752222937"/>
<polyline points="-24.578169409441795 177.92353752222937 -34.02513692239717 179.3255439488925"/>
<polyline points="4.881984473855176 190.64339328717244 -4.236794173424843 187.10957058055695 -18.174941918214873 194.84169561894504 -22.526332673423997 195.35399598304767 -27.48371200624089 200.57961894431452 -28.995327945229068 223.9115302110674"/>
<polyline points="-28.995327945229068 223.9115302110674 -28.68013174632082 225.6449645884358 -35.48235205154617 235.36353607598937 -35.16715585263794 237.09697045335787 -36.38219749882216 243.3071943452884 -29.195121365107553 268.6504761124614"/>
<polyline points="-29.195121365107553 268.6504761124614 -22.05577509174798 263.77763335453847"/>
<polyline points="-29.195121365107553 268.6504761124614 -24.36077389366928 271.46196543645664"/>
<polyline points="-35.48235205154617 235.36353607598937 -41.81547060637365 235.97012783433914"/>
<polyline points="-27.48371200624089 200.57961894431452 -30.775087830356497 204.62917972856522"/>
<polyline points="4.881984473855176 190.64339328717244 -4.236794173424843 187.10957058055695"/>
<polyline points="23.549965805241687 195.47832794212334 14.71115984240444 198.51722639685553"/>
<polyline points="78.56082714793718 200.92048779170898 68.56569588080175 201.22891168989383"/>
<polyline points="115.20262455787088 188.4187885507663 109.15404333135547 195.41923847030444"/>
<polyline points="123.07809591239392 164.92144358592284 122.28164671413265 174.72383990868997"/>
<polyline points="122.28164671413265 174.72383990868997 113.85979596926646 174.95729322720348"/>
<polyline points="131.2072264171943 147.1367994330641 130.41077721893296 156.9391957558312"/>
<polyline points="129.1356930908437 138.21431003168658 131.2072264171943 147.1367994330641"/>
<polyline points="130.7349496418511 97.66287468191763 128.59019918986425 105.9153206624738"/>
<polyline points="128.59019918986425 105.9153206624738 121.30107142292081 112.64392125841715"/>
<polyline points="128.59019918986425 105.9153206624738 121.30107142292081 112.64392125841715"/>
<polyline points="121.30107142292081 112.64392125841715 113.06220527408091 115.7543027499213"/>
<polyline points="130.2553054059856 67.79239967606188 128.11055495399881 76.044845656618 117.36863458713148 91.95399339527113 116.9041525986312 101.15651776273545 111.94489701766338 108.13482321156383 98.62648218820313 117.14355715895934"/>
<polyline points="98.62648218820313 117.14355715895934 100.23852922637379 123.65688545546709 93.33657972574291 137.3923129692293 94.9486267639136 143.905641265737 91.68431111842668 148.81393292524703 80.75907980828552 148.50053154889085"/>
<polyline points="80.75907980828552 148.50053154889085 83.7991148884646 150.7094491079458"/>
<polyline points="80.75907980828552 148.50053154889085 83.7991148884646 150.7094491079458"/>
<polyline points="80.75907980828552 148.50053154889085 79.83723639449484 152.78821201397307"/>
<polyline points="79.83723639449484 152.78821201397307 78.44991408697427 161.9125634407483"/>
<polyline points="91.68431111842668 148.81393292524703 90.762467704636 153.1016133903293 74.06721221250294 158.12140214437522 66.91636873266592 155.90071969518075 57.48146561082325 156.80241026616656 28.046175727786302 153.32442134016634"/>
<polyline points="28.046175727786302 153.32442134016634 20.569391208920198 147.54749324855305 1.5556240515525799 145.49142716906533 -5.921160467313523 139.71449907745207 -15.69873207944622 137.69114100176463 -41.69537207248108 131.2251532054578"/>
<polyline points="-41.69537207248108 131.2251532054578 -43.858640518855736 121.4944342233791"/>
<polyline points="-41.69537207248108 131.2251532054578 -47.891446511344654 123.44080898913991"/>
<polyline points="-15.69873207944622 137.69114100176463 -24.65685372882634 133.24880616114416"/>
<polyline points="-15.69873207944622 137.69114100176463 -24.65685372882634 133.24880616114416"/>
<polyline points="28.046175727786302 153.32442134016634 18.852119987719245 151.67774741264998"/>
<polyline points="18.852119987719245 151.67774741264998 11.274315706932613 158.02858257709318"/>
<polyline points="18.852119987719245 151.67774741264998 11.274315706932613 158.02858257709318"/>
<polyline points="11.274315706932613 158.02858257709318 6.1465454170943525 161.91390783464703"/>
<polyline points="57.48146561082325 156.80241026616656 48.287409870756285 155.15573633865012 31.85487899871545 166.35368453965233 23.406393901599554 168.48590477188864 16.570261729318688 175.1460216321109 9.43870288116508 200.06581613778462"/>
<polyline points="9.43870288116508 200.06581613778462 4.494949497798582 202.64935220810673 -8.083238338503861 214.91377292341718 -13.026991721870367 217.4973089937393 -17.11973555959195 224.5361622494318 -14.372770895744557 249.4605907945535"/>
<polyline points="-14.372770895744557 249.4605907945535 -14.602592056042042 252.1511061263627"/>
<polyline points="-14.372770895744557 249.4605907945535 -14.602592056042042 252.1511061263627"/>
<polyline points="-14.372770895744557 249.4605907945535 -17.331344472673642 255.13119171505485"/>
<polyline points="-17.331344472673642 255.13119171505485 -25.8631210646386 258.0030139689453"/>
<polyline points="-17.11973555959195 224.5361622494318 -20.078309136520947 230.20676316993308 -26.257679888361384 249.22762834976382 -24.27594932244792 258.9847835243395 -26.24182341009321 268.48992687599866 -28.47285556862573 290.1347612559667"/>
<polyline points="-28.47285556862573 290.1347612559667 -23.593290359024756 298.42424788835854 -23.869844266774916 317.448377878758 -18.990279057173915 325.7378645111498 -18.566536101476725 334.16639281842026 -18.667337742982465 348.07895183039653"/>
<polyline points="-18.667337742982465 348.07895183039653 -9.671174581984053 349.8911760402574"/>
<polyline points="-18.667337742982465 348.07895183039653 -12.27217329591116 352.9758758304895"/>
<polyline points="-18.566536101476725 334.16639281842026 -15.713751026178697 341.8070602646951"/>
<polyline points="-28.47285556862573 290.1347612559667 -27.857760866309164 299.7907875601724"/>
<polyline points="-26.257679888361384 249.22762834976382 -29.893307610611036 257.1903260558189"/>
<polyline points="-29.893307610611036 257.1903260558189 -39.557319702592096 256.65979793149023"/>
<polyline points="-20.078309136520947 230.20676316993308 -23.713936858770666 238.16946087598814"/>
<polyline points="-17.11973555959195 224.5361622494318 -20.078309136520947 230.20676316993308"/>
<polyline points="9.43870288116508 200.06581613778462 2.8057541720443098 205.4312815617121"/>
<polyline points="2.8057541720443098 205.4312815617121 -2.7226640847299697 213.29902318583814"/>
<polyline points="2.8057541720443098 205.4312815617121 -2.7226640847299697 213.29902318583814"/>
<polyline points="-2.7226640847299697 213.29902318583814 -12.351827165775287 215.54275022104193"/>
<polyline points="16.570261729318688 175.1460216321109 9.937313020197932 180.5114870560384 3.237998794461682 199.01202960712774 3.849195719156674 208.88268174763672 2.5892703191215993 218.23235500918656 8.866548114695107 239.8217073605115"/>
<polyline points="8.866548114695107 239.8217073605115 13.860269378828855 248.47891649234217 15.189864151270907 267.4795690575184 20.18358541540464 276.13677818934906 22.49747298641353 284.6185381889546 33.99312404659708 298.7091968277919"/>
<polyline points="33.99312404659708 298.7091968277919 42.06672358028423 304.1252296785969"/>
<polyline points="33.99312404659708 298.7091968277919 42.06672358028423 304.1252296785969"/>
<polyline points="33.99312404659708 298.7091968277919 38.6954854934662 306.5923708583274"/>
<polyline points="38.6954854934662 306.5923708583274 38.646903423829635 316.5570772015248"/>
<polyline points="22.49747298641353 284.6185381889546 27.199834433282607 292.50171221948995 21.213759489195386 304.43271345108 21.132017269031873 306.77291764022976 16.502014021153524 310.7862401695179 -6.7510415118750275 311.3894870787804"/>
<polyline points="-6.7510415118750275 311.3894870787804 -8.693068091685543 309.2006452806767 -17.692049295623118 313.6373095172829 -19.634075875433698 311.4484677191795 -25.763435085907943 311.8043541123379 -52.11010622523367 305.2296223434686"/>
<polyline points="-52.11010622523367 305.2296223434686 -52.357356525387594 296.7584375012431"/>
<polyline points="-52.11010622523367 305.2296223434686 -55.706079943231494 299.1536415618987"/>
<polyline points="-25.763435085907943 311.8043541123379 -31.14999669673215 309.6949850779368"/>
<polyline points="-25.763435085907943 311.8043541123379 -31.14999669673215 309.6949850779368"/>
<polyline points="-6.7510415118750275 311.3894870787804 -10.472274765442029 313.2876300806404"/>
<polyline points="-10.472274765442029 313.2876300806404 -15.972260565871695 320.9827627671103"/>
<polyline points="-10.472274765442029 313.2876300806404 -15.972260565871695 320.9827627671103"/>
<polyline points="-15.972260565871695 320.9827627671103 -15.0684443582189 328.741620721696"/>
<polyline points="16.502014021153524 310.7862401695179 12.78078076758655 312.68438317137804 -2.35374365432502 324.74909462002574 -12.06319820897207 326.1007114989524 -20.168540422831814 331.9576210398526 -40.198887009020275 348.5811653344974"/>
<polyline points="-40.198887009020275 348.5811653344974 -49.84782281240681 348.16341336832363 -67.54799495956823 357.16495630380626 -77.19693076295471 356.7472043376325 -85.37245036101623 361.1692138219459 -99.3806283813372 375.28940967638556"/>
<polyline points="-99.3806283813372 375.28940967638556 -106.63953832294153 373.4717708233738"/>
<polyline points="-99.3806283813372 375.28940967638556 -106.63953832294153 373.4717708233738"/>
<polyline points="-99.3806283813372 375.28940967638556 -107.78971775617389 377.4661028569875"/>
<polyline points="-107.78971775617389 377.4661028569875 -117.31803839803186 379.7251939400425"/>
<polyline points="-85.37245036101623 361.1692138219459 -93.78153973585286 363.34590700254773 -101.59212653163705 381.2987272602821 -102.6616361850892 389.0698239352488 -104.17788677554972 398.8470853599922 -95.6580441437596 427.33350992659115"/>
<polyline points="-95.6580441437596 427.33350992659115 -91.90079833968151 434.86500681054 -91.43474161434828 454.3190116181853 -87.67749581027023 461.8505085021343 -85.28295813106311 471.5190267882115 -69.75728139699406 495.4070793231432"/>
<polyline points="-69.75728139699406 495.4070793231432 -65.52170726341717 490.1059815295203"/>
<polyline points="-69.75728139699406 495.4070793231432 -62.11145018176675 501.0685570306102"/>
<polyline points="-104.17788677554972 398.8470853599922 -103.82196374887043 408.31096460809545"/>
<polyline points="-85.37245036101623 361.1692138219459 -93.78153973585286 363.34590700254773"/>
<polyline points="12.78078076758655 312.68438317137804 7.078054489489677 316.956727783643"/>
<polyline points="21.213759489195386 304.43271345108 22.678658180944964 312.4479399031828"/>
<polyline points="8.866548114695107 239.8217073605115 9.920045371559866 249.517738152949"/>
<polyline points="9.937313020197932 180.5114870560384 3.896328099093972 188.13554308293263"/>
<polyline points="48.287409870756285 155.15573633865012 38.65271265030944 156.8768474635062"/>
<polyline points="74.06721221250294 158.12140214437522 69.58988638360512 162.32360672066687"/>
<polyline points="93.33657972574291 137.3923129692293 91.27339242898779 146.92999647951177"/>
<polyline points="111.94489701766338 108.13482321156383 109.3046720347034 115.47284366598367"/>
<polyline points="130.2553054059856 67.79239967606188 128.11055495399881 76.044845656618"/>
<polyline points="137.32838493408232 53.73270408457487 128.80843262607792 56.1411627127007"/>
<polyline points="158.20115877442225 41.18544315292096 149.60410133916724 39.88504975471243"/>
<polyline points="195.75761042741323 40.36502015258399 186.40071360115215 41.40841066181286"/>
<polyline points="217.32815132485288 36.89773125711063 212.53919333259344 44.69030762198315"/>
<polyline points="212.53919333259344 44.69030762198315 206.66927948083344 47.439374312574934"/>
<polyline points="233.58332605016068 29.19668472690837 228.79436805790132 36.98926109178083"/>
<polyline points="234.9720086035079 19.96435148881653 233.58332605016068 29.19668472690837"/>
<polyline points="248.62017063421496 -25.9445522984613 244.28212049238516 -16.938657988813162"/>
<polyline points="244.28212049238516 -16.938657988813162 234.64649833748211 -14.440115576395574"/>
<polyline points="244.28212049238516 -16.938657988813162 234.64649833748211 -14.440115576395574"/>
<polyline points="234.64649833748211 -14.440115576395574 227.42340657116787 -10.192422965559539"/>
<polyline points="261.45822286539374 -48.134799966264474 257.12017272356405 -39.128905656616325 239.16719628244158 -34.11765372206236 233.48887324546538 -30.793059671089296 224.715456495645 -30.587770777827227 202.78137900431713 -44.86609183479295"/>
<polyline points="202.78137900431713 -44.86609183479295 199.2183025206033 -45.58309797850754 183.70349011392676 -46.63201311207962 180.14041363021292 -47.34901925579421 173.0277399146764 -50.379502514715 156.80695758919026 -72.4584189425314"/>
<polyline points="156.80695758919026 -72.4584189425314 155.99077326681902 -77.19463616431668"/>
<polyline points="156.80695758919026 -72.4584189425314 155.99077326681902 -77.19463616431668"/>
<polyline points="156.80695758919026 -72.4584189425314 151.7363771356572 -76.20244546478321"/>
<polyline points="151.7363771356572 -76.20244546478321 145.32206256115307 -73.04715286382573"/>
<polyline points="173.0277399146764 -50.379502514715 167.95715946114336 -54.123529036966794 148.97856595796932 -60.39650345715813 142.2710718832369 -67.78493664292569 133.04750133613152 -70.93668590071745 110.92134631227367 -74.47634991011105"/>
<polyline points="110.92134631227367 -74.47634991011105 106.45168908268376 -81.88982105673672 89.81797309070792 -90.43733384558399 85.34831586111804 -97.85080499220966 77.87126119388232 -101.1225002357607 62.31103371646305 -99.73747845887323"/>
<polyline points="62.31103371646305 -99.73747845887323 65.22362413854592 -106.0555474152296"/>
<polyline points="62.31103371646305 -99.73747845887323 60.95321965966611 -105.21384720106694"/>
<polyline points="77.87126119388232 -101.1225002357607 72.32409762317049 -105.5954298733294"/>
<polyline points="77.87126119388232 -101.1225002357607 72.32409762317049 -105.5954298733294"/>
<polyline points="110.92134631227367 -74.47634991011105 102.99378202210421 -79.58524808916049"/>
<polyline points="102.99378202210421 -79.58524808916049 93.23012064455227 -77.55577024205937"/>
<polyline points="102.99378202210421 -79.58524808916049 93.23012064455227 -77.55577024205937"/>
<polyline points="93.23012064455227 -77.55577024205937 85.12424854185213 -81.25837133738831"/>
<polyline points="133.04750133613152 -70.93668590071745 125.11993704596208 -76.04558407976691 106.52076144845019 -69.48757565498894 99.61975921390437 -65.80948030857999 91.48141076756927 -60.21874591721084 77.65583208901535 -33.61058779366807"/>
<polyline points="77.65583208901535 -33.61058779366807 74.37637377533466 -26.636534638759926 60.433003686914084 -13.40535800344733 57.15354537323334 -6.431304848539152 51.88007687075854 1.8755337289263603 46.7661461463477 30.996878679603256"/>
<polyline points="46.7661461463477 30.996878679603256 47.76746851935564 39.73037655913889"/>
<polyline points="46.7661461463477 30.996878679603256 47.76746851935564 39.73037655913889"/>
<polyline points="46.7661461463477 30.996878679603256 43.571023521336066 39.91562910601046"/>
<polyline points="43.571023521336066 39.91562910601046 36.113604726970074 43.680421992860936"/>
<polyline points="51.88007687075854 1.8755337289263603 48.68495424574689 10.794284155333548 34.535216504810826 22.554754729135492 31.896800563382754 30.11157293805558 25.182491214118144 34.4774709582792 7.9307257853896465 33.804487092061315"/>
<polyline points="7.9307257853896465 33.804487092061315 7.497848763013267 38.17022742982985 -3.1862014460975314 46.49772326444785 -3.6190784684739117 50.86346360221639 -8.560514082750105 52.73490422219897 -21.907996962587728 42.89756805621357"/>
<polyline points="-21.907996962587728 42.89756805621357 -16.146539933718067 42.63734405275543"/>
<polyline points="-21.907996962587728 42.89756805621357 -20.286654443217262 42.90421554553581"/>
<polyline points="-8.560514082750105 52.73490422219897 -11.184345646392375 54.145541820816426"/>
<polyline points="7.9307257853896465 33.804487092061315 3.3011389256569266 38.58318755555018"/>
<polyline points="34.535216504810826 22.554754729135492 28.970540142621978 30.85382387277707"/>
<polyline points="28.970540142621978 30.85382387277707 20.393068667534774 27.188143814121407"/>
<polyline points="48.68495424574689 10.794284155333548 43.120277883557996 19.093353298975146"/>
<polyline points="51.88007687075854 1.8755337289263603 48.68495424574689 10.794284155333548"/>
<polyline points="77.65583208901535 -33.61058779366807 70.86220838172586 -27.24892593414431"/>
<polyline points="70.86220838172586 -27.24892593414431 61.80859711344491 -24.781588427524614"/>
<polyline points="70.86220838172586 -27.24892593414431 61.80859711344491 -24.781588427524614"/>
<polyline points="61.80859711344491 -24.781588427524614 52.22459142787943 -25.837396888491377"/>
<polyline points="91.48141076756927 -60.21874591721084 84.6877870602797 -53.857084057687 69.465613583243 -45.009668443697606 65.75328736745462 -37.191239079080724 59.477628007992735 -33.478785277559105 49.658946745304 -32.30517126783664"/>
<polyline points="49.658946745304 -32.30517126783664 49.760743708508514 -25.944522345624232 40.464517424877066 -17.33796613192733 40.566314388081594 -10.977317209714894 37.35354374850302 -8.345126156500273 34.43652226330336 -14.309035152592356"/>
<polyline points="34.43652226330336 -14.309035152592356 38.14987398371809 -11.103997450180591"/>
<polyline points="34.43652226330336 -14.309035152592356 38.14987398371809 -11.103997450180591"/>
<polyline points="34.43652226330336 -14.309035152592356 33.72902503484689 -11.13584414919974"/>
<polyline points="33.72902503484689 -11.13584414919974 29.249999285305606 -3.821108927177049"/>
<polyline points="37.35354374850302 -8.345126156500273 36.646046520046525 -5.171935153107598 22.214679436503403 -8.812072515924163 18.57747521992949 -14.270120756674844 10.770480087422778 -17.98820178072102 -14.028971019021316 -34.85550567140675"/>
<polyline points="-14.028971019021316 -34.85550567140675 -17.08698741206286 -43.53814978443029 -31.184994023124876 -54.43416871488778 -34.243010416166406 -63.11681282791129 -41.61019482735797 -69.52466599951656 -64.10219863116241 -87.23412968308259"/>
<polyline points="-64.10219863116241 -87.23412968308259 -61.709178980412055 -96.81698467628253"/>
<polyline points="-64.10219863116241 -87.23412968308259 -66.11491441996296 -97.00032189547628"/>
<polyline points="-41.61019482735797 -69.52466599951656 -47.264697310672275 -77.67007649612432"/>
<polyline points="-41.61019482735797 -69.52466599951656 -47.264697310672275 -77.67007649612432"/>
<polyline points="-14.028971019021316 -34.85550567140675 -20.380172019912777 -40.713505466427975"/>
<polyline points="-20.380172019912777 -40.713505466427975 -29.45664387765738 -38.71985287769353"/>
<polyline points="-20.380172019912777 -40.713505466427975 -29.45664387765738 -38.71985287769353"/>
<polyline points="-29.45664387765738 -38.71985287769353 -33.902720365419576 -37.860643776713175"/>
<polyline points="10.770480087422778 -17.98820178072102 4.419279086531313 -23.84620157574224 -15.31307793059811 -21.68907537009929 -24.66999283472588 -23.702786166812036 -34.266876937359235 -21.001127312725593 -55.19262015059981 -2.1128385630249253"/>
<polyline points="-55.19262015059981 -2.1128385630249253 -62.50924787036724 -2.0102853162011662 -81.09494779298855 3.0470257915671297 -88.41157551275602 3.1495790383908706 -96.4603871928934 7.533360432265029 -109.19626266715782 31.113192269006074"/>
<polyline points="-109.19626266715782 31.113192269006074 -112.80638082500458 33.55976296359614"/>
<polyline points="-109.19626266715782 31.113192269006074 -112.80638082500458 33.55976296359614"/>
<polyline points="-109.19626266715782 31.113192269006074 -116.07245816295398 34.861954966400134"/>
<polyline points="-116.07245816295398 34.861954966400134 -125.7127885805933 33.45034560536297"/>
<polyline points="-96.4603871928934 7.533360432265029 -103.33658268868957 11.282123129659107 -117.29114186757073 25.129471212083914 -120.24496583464719 34.68290469762899 -125.72334181328185 42.08779954559658 -132.82096516412423 59.72056048961422"/>
<polyline points="-132.82096516412423 59.72056048961422 -131.7793199772785 69.2778678117619 -139.28934713484134 85.79888156807031 -138.2477019479956 95.356188890218 -140.50698494893655 102.88332688679273 -140.90129448806357 114.59271506543097"/>
<polyline points="-140.90129448806357 114.59271506543097 -131.8696387815118 118.58990250770826"/>
<polyline points="-140.90129448806357 114.59271506543097 -136.28409660043613 121.81397710059645"/>
<polyline points="-139.28934713484134 85.79888156807031 -144.28487797849232 94.42381287106208"/>
<polyline points="-125.72334181328185 42.08779954559658 -129.0218343245827 50.84129547059686"/>
<polyline points="-96.4603871928934 7.533360432265029 -103.33658268868957 11.282123129659107"/>
<polyline points="-81.09494779298855 3.0470257915671297 -90.83868622392333 0.872900408815836"/>
<polyline points="-34.266876937359235 -21.001127312725593 -43.60546314391709 -19.302249181822372"/>
<polyline points="4.419279086531313 -23.84620157574224 -4.191316048125579 -26.914613360618457"/>
<polyline points="22.214679436503403 -8.812072515924163 18.23775776723746 -7.371132114043958"/>
<polyline points="18.23775776723746 -7.371132114043958 11.121654850177855 -0.672604952075179"/>
<polyline points="36.646046520046525 -5.171935153107598 32.66912485078056 -3.730994751227401"/>
<polyline points="37.35354374850302 -8.345126156500273 36.646046520046525 -5.171935153107598"/>
<polyline points="49.658946745304 -32.30517126783664 45.46295642970893 -27.202139277654386"/>
<polyline points="45.46295642970893 -27.202139277654386 36.15503455953038 -27.555862924254512"/>
<polyline points="45.46295642970893 -27.202139277654386 36.15503455953038 -27.555862924254512"/>
<polyline points="36.15503455953038 -27.555862924254512 28.09272827683572 -21.666476837395365"/>
<polyline points="59.477628007992735 -33.478785277559105 55.28163769239761 -28.375753287376817 38.90767162293122 -32.88294475593996 34.65955208791405 -37.07800488956986 26.872643681682618 -41.67844176377011 7.836944204220874 -64.83536066353966"/>
<polyline points="7.836944204220874 -64.83536066353966 5.975194799487318 -72.72194063137238 -7.0742539014052905 -84.83634878803471 -8.936003306138815 -92.72292875586737 -14.823674847512867 -100.37138838717813 -28.689461554782337 -126.04705881248954"/>
<polyline points="-28.689461554782337 -126.04705881248954 -27.955530985051833 -135.78743999227996"/>
<polyline points="-28.689461554782337 -126.04705881248954 -27.955530985051833 -135.78743999227996"/>
<polyline points="-28.689461554782337 -126.04705881248954 -32.317959657868165 -134.95144604507897"/>
<polyline points="-32.317959657868165 -134.95144604507897 -37.385943373265185 -138.95360125292825"/>
<polyline points="-14.823674847512867 -100.37138838717813 -18.45217295059875 -109.27577561976753 -37.0289666297445 -116.38652217316205 -43.7661083566429 -121.61349486131752 -53.248200515600665 -123.22377532367997 -78.56250029891463 -113.58203095001143"/>
<polyline points="-78.56250029891463 -113.58203095001143 -83.86763187404266 -115.27985093923729 -101.51662370349528 -117.77166453756465 -106.82175527862333 -119.46948452679048 -115.21181355274393 -118.28431489342147 -135.05135669083305 -100.33524974393396"/>
<polyline points="-135.05135669083305 -100.33524974393396 -133.47242069022735 -98.71899417186333"/>
<polyline points="-135.05135669083305 -100.33524974393396 -137.8628923003009 -97.93333422897403"/>
<polyline points="-115.21181355274393 -118.28431489342147 -121.92455052448807 -116.70570982617124"/>
<polyline points="-115.21181355274393 -118.28431489342147 -121.92455052448807 -116.70570982617124"/>
<polyline points="-78.56250029891463 -113.58203095001143 -86.96725804363936 -115.48598543310368"/>
<polyline points="-86.96725804363936 -115.48598543310368 -96.43999226251874 -116.00483581826924"/>
<polyline points="-86.96725804363936 -115.48598543310368 -96.43999226251874 -116.00483581826924"/>
<polyline points="-96.43999226251874 -116.00483581826924 -103.62628107934883 -122.87707869949199"/>
<polyline points="-53.248200515600665 -123.22377532367997 -61.65295826032535 -125.12772980677222 -80.52876327329804 -120.82216824214447 -88.41273512671054 -114.68395413959742 -96.68735269952695 -110.9267693073499 -110.05665838906621 -96.07011559072241"/>
<polyline points="-110.05665838906621 -96.07011559072241 -114.39161644265806 -87.19714234370217 -129.05496786127432 -76.27971816267555 -133.38992591486618 -67.40674491565541 -138.87267485261145 -61.3479193196069 -142.92648702141076 -46.79563955114533"/>
<polyline points="-142.92648702141076 -46.79563955114533 -142.7593278580274 -37.40558596532272"/>
<polyline points="-142.92648702141076 -46.79563955114533 -142.7593278580274 -37.40558596532272"/>
<polyline points="-142.92648702141076 -46.79563955114533 -146.61227436899546 -39.00674321991093"/>
<polyline points="-146.61227436899546 -39.00674321991093 -154.91349441242426 -33.43441743730796"/>
<polyline points="-138.87267485261145 -61.3479193196069 -142.55846220019617 -53.55902298837251 -155.0659792493537 -53.596390329421375 -156.58178408222943 -53.48098522830643 -162.11930990378764 -55.982905584238814 -174.76321453500884 -76.99826519371564"/>
<polyline points="-174.76321453500884 -76.99826519371564 -173.58818726304813 -80.90638465846878 -181.47896088643162 -87.85348928810396 -180.30393361447094 -91.76160875285706 -183.6611443483406 -97.52398027997057 -192.4053292154945 -124.35613552981"/>
<polyline points="-192.4053292154945 -124.35613552981 -185.29097817869982 -129.85730647862346"/>
<polyline points="-192.4053292154945 -124.35613552981 -189.06481526202137 -131.49658630631234"/>
<polyline points="-183.6611443483406 -97.52398027997057 -184.5518558753639 -104.06857814665553"/>
<polyline points="-174.76321453500884 -76.99826519371564 -177.9865235365453 -80.0568981297842"/>
<polyline points="-155.0659792493537 -53.596390329421375 -160.59041259607906 -48.614311370575535"/>
<polyline points="-160.59041259607906 -48.614311370575535 -169.6802212756666 -49.453264066733446"/>
<polyline points="-142.55846220019617 -53.55902298837251 -148.0828955469215 -48.576944029526636"/>
<polyline points="-138.87267485261145 -61.3479193196069 -142.55846220019617 -53.55902298837251"/>
<polyline points="-110.05665838906621 -96.07011559072241 -117.37205924273626 -90.08612188647461"/>
<polyline points="-117.37205924273626 -90.08612188647461 -125.66502137717647 -92.2485217719085"/>
<polyline points="-117.37205924273626 -90.08612188647461 -125.66502137717647 -92.2485217719085"/>
<polyline points="-125.66502137717647 -92.2485217719085 -135.569815526652 -92.22647537669374"/>
<polyline points="-96.68735269952695 -110.9267693073499 -104.00275355319705 -104.94277560310204 -117.28282488780172 -108.25196888128674 -120.02910592821591 -107.37276302837815 -124.98547173735503 -110.88138298619539 -129.63827657425995 -132.53487769043934"/>
<polyline points="-129.63827657425995 -132.53487769043934 -128.15606676764983 -134.12217602428152 -134.54538475404436 -141.27195212338307 -133.06317494743425 -142.8592504572253 -134.6095630491591 -148.3489445016733 -132.32453728896624 -174.44688169815635"/>
<polyline points="-132.32453728896624 -174.44688169815635 -127.11995972547503 -178.3623105099796"/>
<polyline points="-132.32453728896624 -174.44688169815635 -127.11995972547503 -178.3623105099796"/>
<polyline points="-132.32453728896624 -174.44688169815635 -131.33995297691422 -179.52086919797938"/>
<polyline points="-131.33995297691422 -179.52086919797938 -134.8188819001356 -179.17046695162918"/>
<polyline points="-134.6095630491591 -148.3489445016733 -133.62497873710709 -153.42293200149635 -145.4769653681694 -167.66973855506052 -147.73747650664546 -177.343686099136 -154.54380314349663 -184.54861026369477 -178.8770045626089 -199.35625608047224"/>
<polyline points="-178.8770045626089 -199.35625608047224 -181.2204434643033 -208.34310918285027 -193.5206082907272 -224.0951837954158 -195.8640471924216 -233.0820368977938 -202.75122894246655 -239.85009406116052 -226.5245831987035 -247.6949188525863"/>
<polyline points="-226.5245831987035 -247.6949188525863 -224.47242344138428 -252.4706639549374"/>
<polyline points="-226.5245831987035 -247.6949188525863 -228.66646677895656 -253.77464617741762"/>
<polyline points="-202.75122894246655 -239.85009406116052 -208.11033182220146 -246.8821909563955"/>
<polyline points="-202.75122894246655 -239.85009406116052 -208.11033182220146 -246.8821909563955"/>
<polyline points="-178.8770045626089 -199.35625608047224 -184.2543713115121 -207.77502061265938"/>
<polyline points="-184.2543713115121 -207.77502061265938 -192.52915321870216 -210.42692626648508"/>
<polyline points="-184.2543713115121 -207.77502061265938 -192.52915321870216 -210.42692626648508"/>
<polyline points="-192.52915321870216 -210.42692626648508 -195.32633122585466 -217.1024849409061"/>
<polyline points="-154.54380314349663 -184.54861026369477 -159.92116989239992 -192.96737479588194 -178.90412261635007 -195.98955316565508 -188.6314537244201 -196.38007452871315 -198.2065908348934 -195.30574487469718 -220.56442585589295 -178.08228392087034"/>
<polyline points="-220.56442585589295 -178.08228392087034 -228.97058142187365 -173.89886929439962 -248.2013047858589 -169.03621459786845 -256.6074603518396 -164.8527999713976 -265.22437677818033 -160.07066160194415 -280.0774416619464 -136.30104768035116"/>
<polyline points="-280.0774416619464 -136.30104768035116 -285.2149232710055 -128.46930940981696"/>
<polyline points="-280.0774416619464 -136.30104768035116 -285.2149232710055 -128.46930940981696"/>
<polyline points="-280.0774416619464 -136.30104768035116 -287.93420016690567 -130.12437740064556"/>
<polyline points="-287.93420016690567 -130.12437740064556 -297.8247324867719 -130.6402869668851"/>
<polyline points="-265.22437677818033 -160.07066160194415 -273.08113528313936 -153.89399132223866 -286.12686450295803 -149.4378489215385 -289.02200684820366 -143.52827486739838 -293.7050085559695 -142.32003604335435 -296.5376368493992 -149.05327757276245"/>
<polyline points="-296.5376368493992 -149.05327757276245 -294.9990888989396 -144.72722854454017 -300.8583026174686 -141.20024860938216 -299.319754667009 -136.87419958115998 -300.4290250732547 -136.86921489274675 -295.90126509744687 -149.87168108115344"/>
<polyline points="-295.90126509744687 -149.87168108115344 -287.2775939580349 -144.90070443184362"/>
<polyline points="-295.90126509744687 -149.87168108115344 -290.4258288140759 -148.38797051548778"/>
<polyline points="-296.5376368493992 -149.05327757276245 -299.13461729096224 -146.40951249504377"/>
<polyline points="-273.08113528313936 -153.89399132223866 -281.3338513597325 -149.1504487558445"/>
<polyline points="-198.2065908348934 -195.30574487469718 -207.94970317483265 -193.083114983289"/>
<polyline points="-178.90412261635007 -195.98955316565508 -186.67066238119088 -202.15475813584462"/>
<polyline points="-145.4769653681694 -167.66973855506052 -147.78504779138916 -174.0118821632084"/>
<polyline points="-134.6095630491591 -148.3489445016733 -133.62497873710709 -153.42293200149635"/>
<polyline points="-124.98547173735503 -110.88138298619539 -127.77376638710685 -113.70192261921066"/>
<polyline points="-117.28282488780172 -108.25196888128674 -125.25868871251855 -105.32947670487624"/>
<polyline points="-96.68735269952695 -110.9267693073499 -104.00275355319705 -104.94277560310204"/>
<polyline points="-61.65295826032535 -125.12772980677222 -71.45359513730114 -125.6246333929525"/>
<polyline points="-37.0289666297445 -116.38652217316205 -43.760104360765354 -123.61601521453258"/>
<polyline points="-43.760104360765354 -123.61601521453258 -48.76067722709095 -119.87132670522843"/>
<polyline points="-18.45217295059875 -109.27577561976753 -25.183310681619638 -116.50526866113803"/>
<polyline points="-14.823674847512867 -100.37138838717813 -18.45217295059875 -109.27577561976753"/>
<polyline points="7.836944204220874 -64.83536066353966 1.9128927794120787 -70.91501982218526"/>
<polyline points="1.9128927794120787 -70.91501982218526 -8.04691427609755 -71.06138108021598"/>
<polyline points="1.9128927794120787 -70.91501982218526 -8.04691427609755 -71.06138108021598"/>
<polyline points="-8.04691427609755 -71.06138108021598 -14.979124098118943 -69.40726529875535"/>
<polyline points="26.872643681682618 -41.67844176377011 20.94859225687383 -47.758100922415686 1.4610575535165062 -51.500286199828025 -5.853193452654065 -57.08800212785451 -15.157143988047569 -57.90886664432089 -36.091660607037795 -50.06645732163197"/>
<polyline points="-36.091660607037795 -50.06645732163197 -40.88557066070394 -54.081062715774706 -57.723740848162976 -56.831632708539786 -62.51765090182914 -60.84623810268258 -69.85422745775273 -60.46870008648271 -83.41276474303068 -46.550719763252175"/>
<polyline points="-83.41276474303068 -46.550719763252175 -84.70942199478797 -47.80181530667693"/>
<polyline points="-83.41276474303068 -46.550719763252175 -84.70942199478797 -47.80181530667693"/>
<polyline points="-83.41276474303068 -46.550719763252175 -88.86080837327792 -46.94721122415597"/>
<polyline points="-88.86080837327792 -46.94721122415597 -96.77248097633039 -51.91095395153829"/>
<polyline points="-69.85422745775273 -60.46870008648271 -75.30227108799998 -60.86519154738656 -92.64930970413 -51.78154603527125 -97.67865760062415 -44.0465029683034 -105.68494235101838 -38.054892268049485 -123.33380228550755 -18.28187347049048"/>
<polyline points="-123.33380228550755 -18.28187347049048 -125.49984311446741 -8.52885060122445 -138.92271112307935 6.280673667387469 -141.08875195203916 16.03369653665353 -146.81911372909562 23.761513551158536 -158.1207963487368 41.42702728896736"/>
<polyline points="-158.1207963487368 41.42702728896736 -152.98722894884992 49.80449718406192"/>
<polyline points="-158.1207963487368 41.42702728896736 -157.11557071211405 50.81874060659144"/>
<polyline points="-146.81911372909562 23.761513551158536 -150.25914453737198 32.67212799310121"/>
<polyline points="-146.81911372909562 23.761513551158536 -150.25914453737198 32.67212799310121"/>
<polyline points="-123.33380228550755 -18.28187347049048 -129.54726444079702 -10.45348143851541"/>
<polyline points="-129.54726444079702 -10.45348143851541 -139.51058489191823 -10.081602357969102"/>
<polyline points="-129.54726444079702 -10.45348143851541 -139.51058489191823 -10.081602357969102"/>
<polyline points="-139.51058489191823 -10.081602357969102 -147.40026744156125 -7.887871838507744"/>
<polyline points="-105.68494235101838 -38.054892268049485 -111.89840450630791 -30.226500236074312 -130.62916088030764 -28.835705520502984 -137.02067172298905 -26.36626902998358 -145.7019042231787 -27.790129461651457 -164.20135749962225 -45.57520577390562"/>
<polyline points="-164.20135749962225 -45.57520577390562 -167.67119022961646 -46.45925151500637 -182.77968303095233 -50.08823940806573 -186.24951576094662 -50.97228514916638 -192.6254837634573 -55.08061556522354 -203.79936360593427 -79.35725851348863"/>
<polyline points="-203.79936360593427 -79.35725851348863 -203.69832358813903 -83.58374136430588"/>
<polyline points="-203.79936360593427 -79.35725851348863 -203.69832358813903 -83.58374136430588"/>
<polyline points="-203.79936360593427 -79.35725851348863 -208.04980512465912 -83.61925674589322"/>
<polyline points="-208.04980512465912 -83.61925674589322 -215.1133302117258 -81.511152792308"/>
<polyline points="-192.6254837634573 -55.08061556522354 -196.8759252821821 -59.34261379762809 -214.02254812644568 -69.58307942488719 -218.93264000295545 -78.29297555296333 -227.2014954358022 -83.5348995496097 -247.6828731393335 -93.1326519349279"/>
<polyline points="-247.6828731393335 -93.1326519349279 -250.33362173588696 -101.65409573237778 -264.56704203168687 -114.09120989876986 -267.2177906282402 -122.61265369621972 -273.69897152758585 -127.81441726035051 -288.76465325521576 -131.53694087247058"/>
<polyline points="-288.76465325521576 -131.53694087247058 -284.41938661087664 -137.5066948615578"/>
<polyline points="-288.76465325521576 -131.53694087247058 -288.7523487274148 -137.69652401657177"/>
<polyline points="-273.69897152758585 -127.81441726035051 -278.0137267429473 -133.83998095193"/>
<polyline points="-247.6828731393335 -93.1326519349279 -254.24005482420267 -100.06424767659425"/>
<polyline points="-214.02254812644568 -69.58307942488719 -220.89834450429794 -74.42312493163705"/>
<polyline points="-220.89834450429794 -74.42312493163705 -227.96613980848946 -67.39122573580924"/>
<polyline points="-196.8759252821821 -59.34261379762809 -203.75172166003424 -64.18265930437796"/>
<polyline points="-192.6254837634573 -55.08061556522354 -196.8759252821821 -59.34261379762809"/>
<polyline points="-164.20135749962225 -45.57520577390562 -171.39432107825334 -46.713889919103"/>
<polyline points="-171.39432107825334 -46.713889919103 -181.1789943489124 -48.43762547362497"/>
<polyline points="-171.39432107825334 -46.713889919103 -181.1789943489124 -48.43762547362497"/>
<polyline points="-181.1789943489124 -48.43762547362497 -189.8583983828659 -43.73808909142674"/>
<polyline points="-145.7019042231787 -27.790129461651457 -152.8948678018098 -28.928813606848834 -170.80027724588746 -37.612755718811 -176.6448016765206 -45.68863879500594 -184.50195457877732 -51.03053442291428 -198.71654083125946 -66.08050892793015"/>
<polyline points="-198.71654083125946 -66.08050892793015 -201.01879181145728 -75.53580444766177 -214.07853581183326 -88.97178140741906 -216.380786792031 -98.42707692715071 -221.42273804265537 -104.9932012799643 -227.76498654556767 -116.7395249924366"/>
<polyline points="-227.76498654556767 -116.7395249924366 -226.13605887209397 -125.21281739148068"/>
<polyline points="-227.76498654556767 -116.7395249924366 -226.13605887209397 -125.21281739148068"/>
<polyline points="-227.76498654556767 -116.7395249924366 -230.5347566596632 -124.54496081216003"/>
<polyline points="-230.5347566596632 -124.54496081216003 -237.05010316546574 -132.1211549170566"/>
<polyline points="-221.42273804265537 -104.9932012799643 -224.19250815675093 -112.7986370996877 -239.62199592790677 -114.26257961245692 -243.327458884292 -113.55498431383491 -251.001108432691 -111.70541484022368 -272.0264119184177 -93.0057281888637"/>
<polyline points="-272.0264119184177 -93.0057281888637 -273.9955466915972 -87.81555173754873 -287.0778340547718 -81.24462974810588 -289.0469688279513 -76.05445329679088 -295.341932578293 -70.55739781230632 -312.4461442259393 -46.12593221184955"/>
<polyline points="-312.4461442259393 -46.12593221184955 -308.0975873795165 -38.373573460545025"/>
<polyline points="-312.4461442259393 -46.12593221184955 -312.4637479732035 -37.630011585341585"/>
<polyline points="-295.341932578293 -70.55739781230632 -299.5165500013857 -63.62724086481882"/>
<polyline points="-295.341932578293 -70.55739781230632 -299.5165500013857 -63.62724086481882"/>
<polyline points="-272.0264119184177 -93.0057281888637 -277.89241745453245 -89.86000972261424"/>
<polyline points="-277.89241745453245 -89.86000972261424 -287.64876012423764 -91.34993241789734"/>
<polyline points="-277.89241745453245 -89.86000972261424 -287.64876012423764 -91.34993241789734"/>
<polyline points="-287.64876012423764 -91.34993241789734 -293.52871485816166 -96.13687220663158"/>
<polyline points="-251.001108432691 -111.70541484022368 -256.8671139688057 -108.55969637397423 -276.7907201742386 -106.85286951817558 -285.03312318448354 -101.3234752480141 -294.7197890898132 -100.62673121188536 -316.90240497381586 -104.17105690601805"/>
<polyline points="-316.90240497381586 -104.17105690601805 -322.940374776302 -98.49043273941608 -341.053960547906 -94.73890358733257 -347.0919303503922 -89.05827942073063 -355.08047284051486 -88.15927224997719 -369.68395190540804 -95.45313418108306"/>
<polyline points="-369.68395190540804 -95.45313418108306 -372.21811978493815 -91.216579593122"/>
<polyline points="-369.68395190540804 -95.45313418108306 -372.21811978493815 -91.216579593122"/>
<polyline points="-369.68395190540804 -95.45313418108306 -376.0668612108887 -93.05305990279948"/>
<polyline points="-376.0668612108887 -93.05305990279948 -384.7979283511965 -88.29758080553064"/>
<polyline points="-355.08047284051486 -88.15927224997719 -361.4633821459955 -85.75919797169361 -378.1508271115363 -95.23349734394806 -382.7778431092651 -101.86607121438023 -390.0819029459704 -108.54009101600585 -403.9087122832835 -134.01746944816068"/>
<polyline points="-403.9087122832835 -134.01746944816068 -405.10943764293796 -143.2804904513887 -416.79087402032206 -159.15517326186983 -417.9915993799764 -168.41819426509798 -422.55838817917214 -177.30788163041612 -429.47978591026435 -202.40197814601402"/>
<polyline points="-429.47978591026435 -202.40197814601402 -421.2164231799639 -206.78366898118512"/>
<polyline points="-429.47978591026435 -202.40197814601402 -427.1578364771239 -212.12664452747916"/>
<polyline points="-416.79087402032206 -159.15517326186983 -423.1105566945663 -164.14710792190536"/>
<polyline points="-390.0819029459704 -108.54009101600585 -395.4660074305825 -116.58066809053057"/>
<polyline points="-355.08047284051486 -88.15927224997719 -361.4633821459955 -85.75919797169361"/>
<polyline points="-341.053960547906 -94.73890358733257 -350.0082294841604 -90.3453451803708"/>
<polyline points="-294.7197890898132 -100.62673121188536 -303.59488087317703 -97.8316241056281"/>
<polyline points="-256.8671139688057 -108.55969637397423 -265.2879620963349 -106.45285091499936"/>
<polyline points="-239.62199592790677 -114.26257961245692 -245.17804506835827 -119.69923760780941"/>
<polyline points="-245.17804506835827 -119.69923760780941 -252.989341246428 -121.91812762337686"/>
<polyline points="-224.19250815675093 -112.7986370996877 -229.74855729720227 -118.23529509504031"/>
<polyline points="-221.42273804265537 -104.9932012799643 -224.19250815675093 -112.7986370996877"/>
<polyline points="-198.71654083125946 -66.08050892793015 -204.9200581590572 -73.39316205470892"/>
<polyline points="-204.9200581590572 -73.39316205470892 -214.45587271428326 -72.9761502950621"/>
<polyline points="-204.9200581590572 -73.39316205470892 -214.45587271428326 -72.9761502950621"/>
<polyline points="-214.45587271428326 -72.9761502950621 -223.45775929028812 -75.90202651071681"/>
<polyline points="-184.50195457877732 -51.03053442291428 -190.70547190657504 -58.34318754969309 -207.4159337071421 -57.030024552017586 -212.02339977950373 -57.42841689930182 -219.39408518711963 -54.45872374434209 -233.73809608620806 -32.57616490299021"/>
<polyline points="-233.73809608620806 -32.57616490299021 -235.00359988613334 -29.4340091632482 -246.84630088821552 -22.188457866497227 -248.1118046881408 -19.04630212675521 -252.81326079530703 -13.214142054619822 -260.3883838548314 14.115805423629494"/>
<polyline points="-260.3883838548314 14.115805423629494 -258.2047230376459 20.232022824926943"/>
<polyline points="-260.3883838548314 14.115805423629494 -258.2047230376459 20.232022824926943"/>
<polyline points="-260.3883838548314 14.115805423629494 -262.68639661774716 20.293423432551744"/>
<polyline points="-262.68639661774716 20.293423432551744 -268.0637072772001 20.17103978753072"/>
<polyline points="-252.81326079530703 -13.214142054619822 -255.11127355822268 -7.036524045697643 -271.47638373366004 4.211257616880361 -276.21338504078335 12.94984884812458 -284.6772837642867 18.10440073111113 -308.98217377791923 24.325652873349757"/>
<polyline points="-308.98217377791923 24.325652873349757 -312.49957085740664 31.780181713925394 -327.71925291037746 43.303476547680944 -331.2366499898649 50.7580053882565 -338.7546284795738 54.98280372926481 -359.18655212575993 53.83295563152537"/>
<polyline points="-359.18655212575993 53.83295563152537 -356.41679786989897 57.88238737442417"/>
<polyline points="-359.18655212575993 53.83295563152537 -360.89179539247584 58.0801941944955"/>
<polyline points="-338.7546284795738 54.98280372926481 -344.41394528675227 59.621747180739746"/>
<polyline points="-338.7546284795738 54.98280372926481 -344.41394528675227 59.621747180739746"/>
<polyline points="-308.98217377791923 24.325652873349757 -315.9778440493121 30.8081878670505"/>
<polyline points="-315.9778440493121 30.8081878670505 -325.5675533396095 31.67128368193719"/>
<polyline points="-315.9778440493121 30.8081878670505 -325.5675533396095 31.67128368193719"/>
<polyline points="-325.5675533396095 31.67128368193719 -331.42750886374336 38.12421277226478"/>
<polyline points="-284.6772837642867 18.10440073111113 -291.6729540356794 24.586935724811788 -311.57130615777425 22.9203387429318 -320.293687033635 20.322864420047612 -329.6758709161949 16.991819709418692 -348.93673346557637 -4.319166145157897"/>
<polyline points="-348.93673346557637 -4.319166145157897 -355.03846707109716 -11.055472888581406 -372.56929220321473 -20.67589366663086 -378.6710258087356 -27.412200410054368 -386.0248319402978 -34.13491937936949 -396.75521037493723 -59.54853549588449"/>
<polyline points="-396.75521037493723 -59.54853549588449 -398.88083435971157 -68.86774930457665"/>
<polyline points="-396.75521037493723 -59.54853549588449 -398.88083435971157 -68.86774930457665"/>
<polyline points="-396.75521037493723 -59.54853549588449 -402.57880621687895 -67.64605156532697"/>
<polyline points="-402.57880621687895 -67.64605156532697 -411.6960652542381 -70.0560651058307"/>
<polyline points="-386.0248319402978 -34.13491937936949 -391.84842778223964 -42.23243544881198 -406.436634780363 -48.2668962481132 -409.48947957014826 -53.756161713032085 -415.64941668569537 -55.105319623749715 -426.7350884939524 -45.831865142204435"/>
<polyline points="-426.7350884939524 -45.831865142204435 -426.3114464629332 -48.4194405623266 -435.36055140987196 -51.04737989451519 -434.93690937885276 -53.63495531463736 -438.29894183459595 -52.70314770675783 -443.4001037376776 -35.7297150822895"/>
<polyline points="-443.4001037376776 -35.7297150822895 -436.1690780547984 -35.75340906442034"/>
<polyline points="-443.4001037376776 -35.7297150822895 -439.8054151094008 -34.60336086296004"/>
<polyline points="-438.29894183459595 -52.70314770675783 -439.1325808233398 -51.7992526110715"/>
<polyline points="-426.7350884939524 -45.831865142204435 -430.70781756261283 -47.90663995361635"/>
<polyline points="-406.436634780363 -48.2668962481132 -413.77581243218174 -54.68136343627669"/>
<polyline points="-413.77581243218174 -54.68136343627669 -421.7901451333484 -49.43474285385697"/>
<polyline points="-391.84842778223964 -42.23243544881198 -399.1876054340583 -48.64690263697558"/>
<polyline points="-386.0248319402978 -34.13491937936949 -391.84842778223964 -42.23243544881198"/>
<polyline points="-348.93673346557637 -4.319166145157897 -357.6594679000442 -9.08016026850946"/>
<polyline points="-357.6594679000442 -9.08016026850946 -366.11408027359295 -8.393240203631493"/>
<polyline points="-357.6594679000442 -9.08016026850946 -366.11408027359295 -8.393240203631493"/>
<polyline points="-366.11408027359295 -8.393240203631493 -375.5063747230903 -5.194914814932357"/>
<polyline points="-329.6758709161949 16.991819709418692 -338.39860535066276 12.23082558606713 -352.96643905206776 9.515724296106178 -357.3058020289044 3.914554956610241 -362.71551671332855 3.2019108235304494 -366.40026249707165 9.296685850132095"/>
<polyline points="-366.40026249707165 9.296685850132095 -366.20985888657447 4.467739952533802 -373.8501247610608 1.3173450461490848 -373.6597211505636 -3.5116008514491206 -375.43678191789826 -3.6771396235207776 -370.6797851175911 7.449894947038343"/>
<polyline points="-370.6797851175911 7.449894947038343 -366.1034819473224 4.786244542243146"/>
<polyline points="-370.6797851175911 7.449894947038343 -366.1034819473224 4.786244542243146"/>
<polyline points="-370.6797851175911 7.449894947038343 -370.13432001284434 6.143733990709525"/>
<polyline points="-370.13432001284434 6.143733990709525 -375.0533157038394 1.2510830691400465"/>
<polyline points="-375.43678191789826 -3.6771396235207776 -374.89131681315155 -4.983300579849564 -384.9256763772698 4.548885730253818 -385.5005022131084 11.926108264647489 -390.97200418479514 18.389540947614677 -410.3311163600727 41.28016561692979"/>
<polyline points="-410.3311163600727 41.28016561692979 -410.34793725891365 50.976037874319005 -419.22902983701755 66.61677122212888 -419.24585073585837 76.31264347951794 -424.25646734689303 84.74995943229743 -443.2423422013863 106.26494295942497"/>
<polyline points="-443.2423422013863 106.26494295942497 -439.01506272479423 114.45086064263225"/>
<polyline points="-443.2423422013863 106.26494295942497 -442.9819015747669 115.95830024878073"/>
<polyline points="-424.25646734689303 84.74995943229743 -427.4087356379425 94.22919201929042"/>
<polyline points="-424.25646734689303 84.74995943229743 -427.4087356379425 94.22919201929042"/>
<polyline points="-410.3311163600727 41.28016561692979 -413.9093731433299 49.377278795744964"/>
<polyline points="-413.9093731433299 49.377278795744964 -422.22323949108363 50.55770509581862"/>
<polyline points="-413.9093731433299 49.377278795744964 -422.22323949108363 50.55770509581862"/>
<polyline points="-422.22323949108363 50.55770509581862 -424.78535752284427 52.38225489298349"/>
<polyline points="-390.97200418479514 18.389540947614677 -394.5502609680524 26.48665412642972 -413.2708442441111 30.22611294061673 -422.27064899527403 34.23179200902248 -432.1790293996302 34.169224272553734 -458.669476586699 20.334884806699787"/>
<polyline points="-458.669476586699 20.334884806699787 -467.0557342091955 21.1494891363591 -487.0131337870484 20.57391433129703 -495.39939140954493 21.38851866095641 -504.9128745185876 18.792104661582915 -525.4244028752177 -2.2456865034591194"/>
<polyline points="-525.4244028752177 -2.2456865034591194 -531.3088491963114 -5.016540315622514"/>
<polyline points="-525.4244028752177 -2.2456865034591194 -531.3088491963114 -5.016540315622514"/>
<polyline points="-525.4244028752177 -2.2456865034591194 -534.1370255464858 -4.914626260717185"/>
<polyline points="-534.1370255464858 -4.914626260717185 -543.4145592282032 -1.299550194811346"/>
<polyline points="-504.9128745185876 18.792104661582915 -513.6254971898558 16.123164904324906 -529.3943486309387 7.390885830719927 -534.4897970586552 -0.8765885117082575 -540.6385966954398 -5.780902794511855 -546.7308926123985 -16.858994343553906"/>
<polyline points="-546.7308926123985 -16.858994343553924 -547.4461635504748 -25.769842869062174 -556.7529037930169 -38.04502367106689 -557.4681747310933 -46.95587219657519 -560.1148535400126 -52.490420109126816 -557.5180178304724 -59.07874660303492"/>
</svg>