<svg viewBox="-1007.1279150291833 -694.5792391592964 2077.1416331920627 1494.861948718402" xmlns="http://www.w3.org/2000/svg">
<style>
svg { stroke:black; stroke-width:2; fill:none;}
</style>
<polyline points="108.90434680915973 453.86457836038045 13.521186432787246 451.3976711521966"/>
<polyline points="13.521186432787191 451.3976711521965 -81.86197394358764 448.93076394400737"/>
<polyline points="-81.86197394358764 448.93076394400737 -104.54025341283004 520.1879159503018"/>
<polyline points="-81.86197394358764 448.93076394400737 -104.54025341283004 520.1879159503018"/>
<polyline points="-81.86197394358764 448.93076394400737 -59.18369447434527 377.6736119377128"/>
<polyline points="-59.18369447434527 377.6736119377128 -36.5054150051029 306.41645993141833"/>
<polyline points="-36.5054150051029 306.41645993141833 58.877745371271914 308.88336713960734"/>
<polyline points="58.877745371271914 308.88336713960734 154.2609057476467 311.3502743477964"/>
<polyline points="154.2609057476467 311.3502743477964 58.877745371271914 308.88336713960734"/>
<polyline points="-36.5054150051029 306.41645993141833 -16.814088058203637 376.53302471305904"/>
<polyline points="-16.814088058203637 376.53302471305904 2.8772388886953992 446.6495894946995"/>
<polyline points="2.8772388886953992 446.6495894946995 -16.814088058203637 376.53302471305904"/>
<polyline points="2.8772388886953992 446.6495894946995 -92.50592148767932 444.1826822865105"/>
<polyline points="-92.50592148767932 444.1826822865105 -187.8890818640541 441.71577507832154"/>
<polyline points="-187.8890818640541 441.71577507832154 -168.1977549171549 511.83233985996213"/>
<polyline points="-187.8890818640541 441.71577507832154 -168.19775491715487 511.8323398599622"/>
<polyline points="-187.8890818640541 441.71577507832154 -207.58040881095337 371.59921029668095"/>
<polyline points="-207.58040881095337 371.59921029668095 -227.27173575785247 301.4826455150404"/>
<polyline points="-227.27173575785247 301.4826455150404 -131.88857538147772 303.9495527232293"/>
<polyline points="-131.88857538147772 303.9495527232293 -36.50541500510293 306.4164599314183"/>
<polyline points="-36.50541500510293 306.4164599314183 -16.814088058203644 376.53302471305886"/>
<polyline points="-36.50541500510293 306.4164599314183 -16.814088058203644 376.53302471305886"/>
<polyline points="-36.50541500510293 306.4164599314183 -56.19674195200214 236.29989514977785"/>
<polyline points="-56.19674195200214 236.29989514977785 -75.88806889890137 166.1833303681373"/>
<polyline points="-75.88806889890137 166.1833303681373 -53.20978942965892 94.92617836184269"/>
<polyline points="-53.20978942965892 94.92617836184269 -30.53150996041647 23.669026355548112"/>
<polyline points="-30.53150996041647 23.669026355548112 -53.20978942965891 94.92617836184273"/>
<polyline points="-75.88806889890137 166.1833303681373 19.4950914774734 168.6502375763263"/>
<polyline points="19.4950914774734 168.6502375763263 114.87825185384817 171.11714478451532"/>
<polyline points="114.87825185384817 171.11714478451532 92.19997238460574 242.37429679080995"/>
<polyline points="114.87825185384817 171.11714478451532 92.19997238460572 242.37429679080995"/>
<polyline points="114.87825185384817 171.11714478451532 137.5565313230906 99.85999277822073"/>
<polyline points="137.5565313230906 99.85999277822073 160.2348107923331 28.602840771926136"/>
<polyline points="160.2348107923331 28.602840771926136 179.92613773923233 98.71940555356673"/>
<polyline points="179.92613773923233 98.71940555356673 199.61746468613154 168.83597033520738"/>
<polyline points="199.61746468613154 168.83597033520738 179.9261377392324 98.71940555356673"/>
<polyline points="160.2348107923331 28.602840771926136 140.54348384543383 -41.5137240097144"/>
<polyline points="140.54348384543383 -41.5137240097144 120.8521568985346 -111.630288791355"/>
<polyline points="120.8521568985346 -111.630288791355 98.17387742929209 -40.373136785060424"/>
<polyline points="120.8521568985346 -111.630288791355 98.17387742929209 -40.37313678506047"/>
<polyline points="120.8521568985346 -111.630288791355 143.53043636777716 -182.88744079764956"/>
<polyline points="143.53043636777716 -182.88744079764956 166.2087158370197 -254.14459280394408"/>
<polyline points="166.2087158370197 -254.14459280394408 185.90004278391902 -184.02802802230352"/>
<polyline points="185.90004278391902 -184.02802802230352 205.5913697308184 -113.91146324066293"/>
<polyline points="205.5913697308184 -113.91146324066293 185.90004278391902 -184.02802802230352"/>
<polyline points="166.2087158370197 -254.14459280394408 70.825555460645 -256.61150001213315"/>
<polyline points="70.825555460645 -256.61150001213315 -24.557604915729712 -259.0784072203221"/>
<polyline points="-24.557604915729712 -259.0784072203221 70.82555546064499 -256.61150001213326"/>
<polyline points="-24.557604915729712 -259.0784072203221 -44.24893186262908 -329.1949720019627"/>
<polyline points="-44.24893186262908 -329.1949720019627 -63.94025880952846 -399.3115367836034"/>
<polyline points="-63.94025880952846 -399.3115367836034 -159.32341918590308 -401.7784439917922"/>
<polyline points="-63.94025880952846 -399.3115367836034 -159.32341918590308 -401.7784439917922"/>
<polyline points="-63.94025880952846 -399.3115367836034 31.442901566846277 -396.84462957541433"/>
<polyline points="31.442901566846277 -396.84462957541433 126.8260619432209 -394.37772236722543"/>
<polyline points="126.8260619432209 -394.37772236722543 146.51738889012032 -324.26115758558484"/>
<polyline points="146.51738889012032 -324.26115758558484 166.2087158370198 -254.1445928039442"/>
<polyline points="166.2087158370198 -254.1445928039442 143.53043636777716 -182.8874407976497"/>
<polyline points="166.2087158370198 -254.1445928039442 143.53043636777718 -182.8874407976497"/>
<polyline points="166.2087158370198 -254.1445928039442 188.8869953062624 -325.4017448102387"/>
<polyline points="188.8869953062624 -325.4017448102387 211.5652747755051 -396.6588968165333"/>
<polyline points="211.5652747755051 -396.6588968165333 191.87394782860548 -466.77546159817393"/>
<polyline points="191.87394782860548 -466.77546159817393 172.18262088170593 -536.8920263798144"/>
<polyline points="172.18262088170593 -536.8920263798144 191.87394782860548 -466.77546159817393"/>
<polyline points="211.5652747755051 -396.6588968165333 306.9484351518797 -394.19198960834444"/>
<polyline points="306.9484351518797 -394.19198960834444 402.3315955282543 -391.7250824001556"/>
<polyline points="402.3315955282543 -391.7250824001556 306.94843515187966 -394.19198960834444"/>
<polyline points="402.3315955282543 -391.7250824001556 422.02292247515396 -321.60851761851507"/>
<polyline points="422.02292247515396 -321.60851761851507 441.71424942205334 -251.49195283687436"/>
<polyline points="441.71424942205334 -251.49195283687436 537.0974097984281 -249.0250456286855"/>
<polyline points="441.71424942205334 -251.49195283687436 537.0974097984281 -249.0250456286855"/>
<polyline points="441.71424942205334 -251.49195283687436 346.33108904567877 -253.95886004506326"/>
<polyline points="346.33108904567877 -253.95886004506326 250.94792866930408 -256.42576725325205"/>
<polyline points="250.94792866930408 -256.42576725325205 155.56476829292941 -258.8926744614407"/>
<polyline points="155.56476829292941 -258.8926744614407 60.18160791655473 -261.3595816696295"/>
<polyline points="60.18160791655473 -261.3595816696295 82.85988738579725 -332.6167336759241"/>
<polyline points="60.18160791655473 -261.3595816696295 82.85988738579721 -332.61673367592414"/>
<polyline points="60.18160791655473 -261.3595816696295 37.50332844731229 -190.10242966333502"/>
<polyline points="37.50332844731229 -190.10242966333502 14.82504897806981 -118.8452776570405"/>
<polyline points="14.82504897806981 -118.8452776570405 34.516375924969395 -48.72871287539999"/>
<polyline points="34.516375924969395 -48.72871287539999 54.20770287186896 21.387851906240613"/>
<polyline points="54.20770287186896 21.387851906240613 34.5163759249693 -48.7287128754"/>
<polyline points="14.82504897806981 -118.8452776570405 34.516375924969346 -48.728712875399985"/>
<polyline points="34.516375924969346 -48.728712875399985 54.20770287186888 21.387851906240606"/>
<polyline points="54.20770287186888 21.387851906240606 149.59086324824355 23.854759114429424"/>
<polyline points="54.20770287186888 21.387851906240606 149.59086324824355 23.854759114429438"/>
<polyline points="54.20770287186888 21.387851906240606 -41.1754575045058 18.9209446980518"/>
<polyline points="-41.1754575045058 18.9209446980518 -136.55861788088046 16.45403748986299"/>
<polyline points="-136.55861788088046 16.45403748986299 -156.24994482778007 -53.66252729177745"/>
<polyline points="-156.24994482778007 -53.66252729177745 -175.9412717746796 -123.77909207341796"/>
<polyline points="-175.9412717746796 -123.77909207341796 -156.2499448277801 -53.66252729177749"/>
<polyline points="-136.55861788088046 16.45403748986299 -113.88033841163809 -54.80311451643168"/>
<polyline points="-113.88033841163809 -54.80311451643168 -91.20205894239574 -126.06026652272625"/>
<polyline points="-91.20205894239574 -126.06026652272625 -113.88033841163818 -54.803114516431606"/>
<polyline points="-91.20205894239574 -126.06026652272625 -71.51073199549617 -55.943701741085725"/>
<polyline points="-71.51073199549617 -55.943701741085725 -51.81940504859663 14.172863040554853"/>
<polyline points="-51.81940504859663 14.172863040554853 -29.141125579354203 -57.0842889657398"/>
<polyline points="-51.81940504859663 14.172863040554853 -29.14112557935426 -57.084288965739816"/>
<polyline points="-51.81940504859663 14.172863040554853 -74.49768451783902 85.43001504684952"/>
<polyline points="-74.49768451783902 85.43001504684952 -97.17596398708139 156.68716705314415"/>
<polyline points="-97.17596398708139 156.68716705314415 -119.85424345632374 227.9443190594388"/>
<polyline points="-119.85424345632374 227.9443190594388 -142.53252292556604 299.2014710657335"/>
<polyline points="-142.53252292556604 299.2014710657335 -237.9156833019408 296.7345638575447"/>
<polyline points="-142.53252292556604 299.2014710657335 -237.9156833019408 296.7345638575447"/>
<polyline points="-142.53252292556604 299.2014710657335 -47.14936254919136 301.6683782739222"/>
<polyline points="-47.14936254919136 301.6683782739222 48.2337978271833 304.13528548211093"/>
<polyline points="48.2337978271833 304.13528548211093 67.92512477408279 374.25185026375135"/>
<polyline points="67.92512477408279 374.25185026375135 87.61645172098227 444.3684150453919"/>
<polyline points="87.61645172098227 444.3684150453919 67.92512477408279 374.25185026375135"/>
<polyline points="48.2337978271833 304.13528548211093 28.542470880283897 234.01872070047048"/>
<polyline points="28.542470880283897 234.01872070047048 8.851143933384435 163.90215591882998"/>
<polyline points="8.851143933384435 163.90215591882998 31.529423402626847 92.64500391253536"/>
<polyline points="8.851143933384435 163.90215591882998 31.52942340262688 92.64500391253537"/>
<polyline points="8.851143933384435 163.90215591882998 -13.827135535857986 235.1593079251246"/>
<polyline points="-13.827135535857986 235.1593079251246 -36.50541500510042 306.41645993141924"/>
<polyline points="-36.50541500510042 306.41645993141924 -16.81408805820108 376.5330247130597"/>
<polyline points="-16.81408805820108 376.5330247130597 2.8772388886982863 446.64958949470025"/>
<polyline points="2.8772388886982863 446.64958949470025 -16.814088058201104 376.5330247130598"/>
<polyline points="-36.50541500510042 306.41645993141924 58.877745371274294 308.8833671396082"/>
<polyline points="58.877745371274294 308.8833671396082 154.26090574764896 311.35027434779715"/>
<polyline points="154.26090574764896 311.35027434779715 58.87774537127427 308.8833671396082"/>
<polyline points="154.26090574764896 311.35027434779715 134.56957880074964 241.23370956615665"/>
<polyline points="134.56957880074964 241.23370956615665 114.87825185385027 171.11714478451617"/>
<polyline points="114.87825185385027 171.11714478451617 210.261412230225 173.5840519927051"/>
<polyline points="114.87825185385027 171.11714478451617 210.26141223022495 173.5840519927051"/>
<polyline points="114.87825185385027 171.11714478451617 19.49509147747556 168.65023757632716"/>
<polyline points="19.49509147747556 168.65023757632716 -75.88806889889915 166.18333036813817"/>
<polyline points="-75.88806889889915 166.18333036813817 -56.19674195199979 236.2998951497786"/>
<polyline points="-56.19674195199979 236.2998951497786 -36.505415005100424 306.4164599314191"/>
<polyline points="-36.505415005100424 306.4164599314191 58.877745371274194 308.8833671396081"/>
<polyline points="-36.505415005100424 306.4164599314191 58.87774537127426 308.88336713960814"/>
<polyline points="-36.505415005100424 306.4164599314191 -131.88857538147522 303.94955272323"/>
<polyline points="-131.88857538147522 303.94955272323 -227.27173575784985 301.482645515041"/>
<polyline points="-227.27173575784985 301.482645515041 -249.95001522709236 372.73979752133573"/>
<polyline points="-249.95001522709236 372.73979752133573 -272.628294696335 443.9969495276304"/>
<polyline points="-272.628294696335 443.9969495276304 -249.95001522709236 372.7397975213358"/>
<polyline points="-227.27173575784985 301.482645515041 -207.58040881095036 371.5992102966813"/>
<polyline points="-207.58040881095036 371.5992102966813 -187.8890818640509 441.7157750783219"/>
<polyline points="-187.8890818640509 441.7157750783219 -165.21080239480847 370.4586230720271"/>
<polyline points="-187.8890818640509 441.7157750783219 -165.21080239480847 370.4586230720271"/>
<polyline points="-187.8890818640509 441.7157750783219 -210.56736133329338 512.9729270846166"/>
<polyline points="-210.56736133329338 512.9729270846166 -233.24564080253597 584.2300790909112"/>
<polyline points="-233.24564080253597 584.2300790909112 -137.86248042616117 586.6969862991002"/>
<polyline points="-137.86248042616117 586.6969862991002 -42.479320049786416 589.1638935072892"/>
<polyline points="-42.479320049786416 589.1638935072892 -137.86248042616114 586.6969862991003"/>
<polyline points="-233.24564080253597 584.2300790909112 -328.62880117891063 581.7631718827224"/>
<polyline points="-328.62880117891063 581.7631718827224 -424.0119615552853 579.2962646745334"/>
<polyline points="-424.0119615552853 579.2962646745334 -401.33368208604304 508.03911266823866"/>
<polyline points="-424.0119615552853 579.2962646745334 -401.33368208604304 508.03911266823866"/>
<polyline points="-424.0119615552853 579.2962646745334 -446.69024102452784 650.5534166808281"/>
<polyline points="-446.69024102452784 650.5534166808281 -469.3685204937702 721.8105686871232"/>
<polyline points="-469.3685204937702 721.8105686871232 -373.98536011739543 724.277475895312"/>
<polyline points="-373.98536011739543 724.277475895312 -278.6021997410207 726.7443831035011"/>
<polyline points="-278.6021997410207 726.7443831035011 -373.9853601173955 724.2774758953123"/>
<polyline points="-469.3685204937702 721.8105686871232 -489.05984744066956 651.6940039054826"/>
<polyline points="-489.05984744066956 651.6940039054826 -508.75117438756865 581.5774391238424"/>
<polyline points="-508.75117438756865 581.5774391238424 -489.05984744066956 651.6940039054826"/>
<polyline points="-508.75117438756865 581.5774391238424 -604.1343347639435 579.1105319156535"/>
<polyline points="-604.1343347639435 579.1105319156535 -699.517495140318 576.6436247074645"/>
<polyline points="-699.517495140318 576.6436247074645 -719.2088220872175 506.52705992582423"/>
<polyline points="-699.517495140318 576.6436247074645 -719.2088220872176 506.5270599258243"/>
<polyline points="-699.517495140318 576.6436247074645 -679.826168193419 646.7601894891046"/>
<polyline points="-679.826168193419 646.7601894891046 -660.1348412465197 716.8767542707451"/>
<polyline points="-660.1348412465197 716.8767542707451 -564.751680870145 719.343661478934"/>
<polyline points="-564.751680870145 719.343661478934 -469.3685204937702 721.8105686871232"/>
<polyline points="-469.3685204937702 721.8105686871232 -449.6771935468709 791.9271334687631"/>
<polyline points="-469.3685204937702 721.8105686871232 -449.6771935468709 791.9271334687631"/>
<polyline points="-469.3685204937702 721.8105686871232 -489.0598474406695 651.6940039054828"/>
<polyline points="-489.0598474406695 651.6940039054828 -508.75117438756865 581.5774391238426"/>
<polyline points="-508.75117438756865 581.5774391238426 -604.1343347639433 579.1105319156536"/>
<polyline points="-604.1343347639433 579.1105319156536 -699.5174951403181 576.6436247074644"/>
<polyline points="-699.5174951403181 576.6436247074644 -604.1343347639432 579.1105319156536"/>
<polyline points="-508.75117438756865 581.5774391238426 -531.4294538568112 652.8345911301376"/>
<polyline points="-531.4294538568112 652.8345911301376 -554.1077333260537 724.0917431364325"/>
<polyline points="-554.1077333260537 724.0917431364325 -531.4294538568112 652.8345911301376"/>
<polyline points="-554.1077333260537 724.0917431364325 -458.72457294967876 726.5586503446215"/>
<polyline points="-458.72457294967876 726.5586503446215 -363.3414125733041 729.0255575528105"/>
<polyline points="-363.3414125733041 729.0255575528105 -386.0196920425466 800.2827095591056"/>
<polyline points="-363.3414125733041 729.0255575528105 -386.0196920425466 800.2827095591056"/>
<polyline points="-363.3414125733041 729.0255575528105 -340.6631331040616 657.7684055465157"/>
<polyline points="-340.6631331040616 657.7684055465157 -317.9848536348191 586.5112535402209"/>
<polyline points="-317.9848536348191 586.5112535402209 -413.3680140111939 584.0443463320318"/>
<polyline points="-413.3680140111939 584.0443463320318 -508.75117438756865 581.5774391238426"/>
<polyline points="-508.75117438756865 581.5774391238426 -531.4294538568112 652.8345911301376"/>
<polyline points="-508.75117438756865 581.5774391238426 -531.4294538568112 652.8345911301377"/>
<polyline points="-508.75117438756865 581.5774391238426 -486.0728949183261 510.3202871175478"/>
<polyline points="-486.0728949183261 510.3202871175478 -463.3946154490838 439.0631351112529"/>
<polyline points="-463.3946154490838 439.0631351112529 -483.0859423959832 368.9465703296127"/>
<polyline points="-483.0859423959832 368.9465703296127 -502.7772693428824 298.83000554797246"/>
<polyline points="-502.7772693428824 298.83000554797246 -483.0859423959832 368.9465703296127"/>
<polyline points="-463.3946154490838 439.0631351112529 -558.7777758254583 436.59622790306395"/>
<polyline points="-558.7777758254583 436.59622790306395 -654.1609362018331 434.12932069487505"/>
<polyline points="-654.1609362018331 434.12932069487505 -634.4696092549339 504.2458854765151"/>
<polyline points="-654.1609362018331 434.12932069487505 -634.4696092549337 504.2458854765151"/>
<polyline points="-654.1609362018331 434.12932069487505 -673.8522631487326 364.0127559132347"/>
<polyline points="-673.8522631487326 364.0127559132347 -693.5435900956321 293.89619113159455"/>
<polyline points="-693.5435900956321 293.89619113159455 -716.2218695648747 365.15334313788946"/>
<polyline points="-716.2218695648747 365.15334313788946 -738.9001490341172 436.4104951441844"/>
<polyline points="-738.9001490341172 436.4104951441844 -716.2218695648749 365.15334313788946"/>
<polyline points="-693.5435900956321 293.89619113159455 -670.8653106263894 222.63903912529955"/>
<polyline points="-670.8653106263894 222.63903912529955 -648.1870311571471 151.38188711900463"/>
<polyline points="-648.1870311571471 151.38188711900463 -628.4957042102476 221.49845190064488"/>
<polyline points="-648.1870311571471 151.38188711900463 -628.4957042102476 221.49845190064488"/>
<polyline points="-648.1870311571471 151.38188711900463 -667.8783581040466 81.26532233736444"/>
<polyline points="-667.8783581040466 81.26532233736444 -687.5696850509462 11.148757555724272"/>
<polyline points="-687.5696850509462 11.148757555724272 -710.2479645201887 82.40590956201916"/>
<polyline points="-710.2479645201887 82.40590956201916 -732.9262439894316 153.66306156831408"/>
<polyline points="-732.9262439894316 153.66306156831408 -710.2479645201887 82.40590956201912"/>
<polyline points="-687.5696850509462 11.148757555724272 -592.1865246745716 13.615664763913259"/>
<polyline points="-592.1865246745716 13.615664763913259 -496.8033642981968 16.082571972102247"/>
<polyline points="-496.8033642981968 16.082571972102247 -592.1865246745716 13.615664763913259"/>
<polyline points="-496.8033642981968 16.082571972102247 -474.1250848289542 -55.17458003419265"/>
<polyline points="-474.1250848289542 -55.17458003419265 -451.44680535971156 -126.43173204048757"/>
<polyline points="-451.44680535971156 -126.43173204048757 -356.06364498333687 -123.9648248322986"/>
<polyline points="-451.44680535971156 -126.43173204048757 -356.06364498333687 -123.9648248322986"/>
<polyline points="-451.44680535971156 -126.43173204048757 -546.8299657360863 -128.89863924867655"/>
<polyline points="-546.8299657360863 -128.89863924867655 -642.2131261124607 -131.3655464568656"/>
<polyline points="-642.2131261124607 -131.3655464568656 -661.9044530593605 -201.48211123850575"/>
<polyline points="-661.9044530593605 -201.48211123850575 -681.5957800062603 -271.59867602014594"/>
<polyline points="-681.5957800062603 -271.59867602014594 -586.2126196298857 -269.1317688119571"/>
<polyline points="-681.5957800062603 -271.59867602014594 -586.2126196298858 -269.1317688119571"/>
<polyline points="-681.5957800062603 -271.59867602014594 -776.978940382635 -274.0655832283349"/>
<polyline points="-776.978940382635 -274.0655832283349 -872.3621007590094 -276.5324904365241"/>
<polyline points="-872.3621007590094 -276.5324904365241 -852.6707738121098 -206.41592565488378"/>
<polyline points="-852.6707738121098 -206.41592565488378 -832.97944686521 -136.29936087324367"/>
<polyline points="-832.97944686521 -136.29936087324367 -852.6707738121098 -206.41592565488378"/>
<polyline points="-872.3621007590094 -276.5324904365241 -895.0403802282522 -205.275338430229"/>
<polyline points="-895.0403802282522 -205.275338430229 -917.7186596974951 -134.01818642393394"/>
<polyline points="-917.7186596974951 -134.01818642393394 -895.0403802282522 -205.275338430229"/>
<polyline points="-917.7186596974951 -134.01818642393394 -937.4099866443948 -204.13475120557408"/>
<polyline points="-937.4099866443948 -204.13475120557408 -957.1013135912945 -274.2513159872142"/>
<polyline points="-957.1013135912945 -274.2513159872142 -979.7795930605373 -202.9941639809191"/>
<polyline points="-957.1013135912945 -274.2513159872142 -979.7795930605373 -202.9941639809191"/>
<polyline points="-957.1013135912945 -274.2513159872142 -934.4230341220517 -345.50846799350916"/>
<polyline points="-934.4230341220517 -345.50846799350916 -911.744754652809 -416.76561999980436"/>
<polyline points="-911.744754652809 -416.76561999980436 -889.066475183566 -488.02277200609916"/>
<polyline points="-889.066475183566 -488.02277200609916 -866.3881957143234 -559.2799240123943"/>
<polyline points="-866.3881957143234 -559.2799240123943 -961.7713560906979 -561.7468312205831"/>
<polyline points="-866.3881957143234 -559.2799240123943 -961.771356090698 -561.7468312205832"/>
<polyline points="-866.3881957143234 -559.2799240123943 -771.0050353379489 -556.8130168042051"/>
<polyline points="-771.0050353379489 -556.8130168042051 -675.6218749615742 -554.3461095960162"/>
<polyline points="-675.6218749615742 -554.3461095960162 -695.3132019084741 -624.4626743776563"/>
<polyline points="-695.3132019084741 -624.4626743776563 -715.0045288553738 -694.5792391592964"/>
<polyline points="-715.0045288553738 -694.5792391592964 -695.3132019084741 -624.4626743776563"/>
<polyline points="-866.3881957143234 -559.2799240123943 -889.066475183566 -488.02277200609916"/>
<polyline points="-889.066475183566 -488.02277200609916 -911.744754652809 -416.76561999980436"/>
<polyline points="-911.744754652809 -416.76561999980436 -1007.1279150291833 -419.23252720799337"/>
<polyline points="-911.744754652809 -416.76561999980436 -1007.1279150291833 -419.23252720799326"/>
<polyline points="-911.744754652809 -416.76561999980436 -816.3615942764344 -414.2987127916152"/>
<polyline points="-816.3615942764344 -414.2987127916152 -720.9784339000598 -411.83180558342605"/>
<polyline points="-720.9784339000598 -411.83180558342605 -698.3001544308169 -483.0889575897211"/>
<polyline points="-698.3001544308169 -483.0889575897211 -675.621874961574 -554.346109596016"/>
<polyline points="-675.621874961574 -554.346109596016 -698.3001544308169 -483.0889575897211"/>
<polyline points="-720.9784339000598 -411.83180558342605 -740.6697608469597 -481.9483703650663"/>
<polyline points="-740.6697608469597 -481.9483703650663 -760.3610877938593 -552.0649351467066"/>
<polyline points="-760.3610877938593 -552.0649351467066 -740.6697608469597 -481.9483703650663"/>
<polyline points="-760.3610877938593 -552.0649351467066 -783.0393672631022 -480.80778314041163"/>
<polyline points="-783.0393672631022 -480.80778314041163 -805.7176467323453 -409.55063113411666"/>
<polyline points="-805.7176467323453 -409.55063113411666 -825.4089736792449 -479.66719591575685"/>
<polyline points="-805.7176467323453 -409.55063113411666 -825.4089736792449 -479.66719591575685"/>
<polyline points="-805.7176467323453 -409.55063113411666 -786.0263197854456 -339.43406635247646"/>
<polyline points="-786.0263197854456 -339.43406635247646 -766.3349928385458 -269.3175015708363"/>
<polyline points="-766.3349928385458 -269.3175015708363 -743.656713369303 -340.57465357713124"/>
<polyline points="-743.656713369303 -340.57465357713124 -720.9784339000602 -411.83180558342593"/>
<polyline points="-720.9784339000602 -411.83180558342593 -740.6697608469598 -481.94837036506595"/>
<polyline points="-720.9784339000602 -411.83180558342593 -740.6697608469601 -481.94837036506607"/>
<polyline points="-720.9784339000602 -411.83180558342593 -701.2871069531604 -341.7152408017858"/>
<polyline points="-701.2871069531604 -341.7152408017858 -681.595780006261 -271.5986760201456"/>
<polyline points="-681.595780006261 -271.5986760201456 -586.2126196298863 -269.1317688119564"/>
<polyline points="-586.2126196298863 -269.1317688119564 -490.8294592535117 -266.66486160376746"/>
<polyline points="-490.8294592535117 -266.66486160376746 -586.2126196298863 -269.13176881195636"/>
<polyline points="-681.595780006261 -271.5986760201456 -658.917500537018 -342.8558280264404"/>
<polyline points="-658.917500537018 -342.8558280264404 -636.2392210677752 -414.1129800327353"/>
<polyline points="-636.2392210677752 -414.1129800327353 -731.6223814441497 -416.5798872409244"/>
<polyline points="-636.2392210677752 -414.1129800327353 -731.6223814441497 -416.5798872409244"/>
<polyline points="-636.2392210677752 -414.1129800327353 -540.8560606914006 -411.6460728245462"/>
<polyline points="-540.8560606914006 -411.6460728245462 -445.472900315026 -409.1791656163573"/>
<polyline points="-445.472900315026 -409.1791656163573 -465.1642272619258 -479.2957303979975"/>
<polyline points="-465.1642272619258 -479.2957303979975 -484.85555420882554 -549.4122951796378"/>
<polyline points="-484.85555420882554 -549.4122951796378 -465.1642272619258 -479.2957303979975"/>
<polyline points="-445.472900315026 -409.1791656163573 -425.78157336812626 -339.06260083471693"/>
<polyline points="-425.78157336812626 -339.06260083471693 -406.09024642122637 -268.9460360530767"/>
<polyline points="-406.09024642122637 -268.9460360530767 -501.4734067976009 -271.41294326126564"/>
<polyline points="-406.09024642122637 -268.9460360530767 -501.473406797601 -271.4129432612656"/>
<polyline points="-406.09024642122637 -268.9460360530767 -310.7070860448518 -266.47912884488784"/>
<polyline points="-310.7070860448518 -266.47912884488784 -215.32392566847724 -264.01222163669894"/>
<polyline points="-215.32392566847724 -264.01222163669894 -235.01525261537688 -334.1287864183392"/>
<polyline points="-235.01525261537688 -334.1287864183392 -254.70657956227663 -404.24535119997967"/>
<polyline points="-254.70657956227663 -404.24535119997967 -235.01525261537682 -334.1287864183392"/>
<polyline points="-215.32392566847724 -264.01222163669894 -238.00220513771984 -192.75506963040405"/>
<polyline points="-238.00220513771984 -192.75506963040405 -260.6804846069624 -121.49791762410936"/>
<polyline points="-260.6804846069624 -121.49791762410936 -238.00220513771984 -192.75506963040405"/>
<polyline points="-260.6804846069624 -121.49791762410936 -240.98915766006286 -51.38135284246903"/>
<polyline points="-240.98915766006286 -51.38135284246903 -221.29783071316314 18.735211939171364"/>
<polyline points="-221.29783071316314 18.735211939171364 -243.9761101824057 89.99236394546608"/>
<polyline points="-221.29783071316314 18.735211939171364 -243.9761101824057 89.99236394546608"/>
<polyline points="-221.29783071316314 18.735211939171364 -198.61955124392054 -52.521940067123374"/>
<polyline points="-198.61955124392054 -52.521940067123374 -175.94127177467792 -123.77909207341806"/>
<polyline points="-175.94127177467792 -123.77909207341806 -80.5581113983033 -121.31218486522933"/>
<polyline points="-80.5581113983033 -121.31218486522933 14.825048978071344 -118.84527765704053"/>
<polyline points="14.825048978071344 -118.84527765704053 -7.853230491171175 -47.588125650745795"/>
<polyline points="14.825048978071344 -118.84527765704053 -7.853230491171158 -47.58812565074581"/>
<polyline points="14.825048978071344 -118.84527765704053 37.50332844731386 -190.10242966333527"/>
<polyline points="37.50332844731386 -190.10242966333527 60.18160791655635 -261.3595816696301"/>
<polyline points="60.18160791655635 -261.3595816696301 -35.20155245981825 -263.8264888778188"/>
<polyline points="-35.20155245981825 -263.8264888778188 -130.5847128361929 -266.2933960860075"/>
<polyline points="-130.5847128361929 -266.2933960860075 -35.20155245981825 -263.8264888778188"/>
<polyline points="60.18160791655635 -261.3595816696301 40.49028096965658 -331.4761464512705"/>
<polyline points="40.49028096965658 -331.4761464512705 20.79895402275682 -401.5927112329109"/>
<polyline points="20.79895402275682 -401.5927112329109 40.49028096965658 -331.4761464512705"/>
<polyline points="20.79895402275682 -401.5927112329109 116.18211439913132 -399.1258040247223"/>
<polyline points="116.18211439913132 -399.1258040247223 211.56527477550594 -396.6588968165336"/>
<polyline points="211.56527477550594 -396.6588968165336 191.8739478286063 -466.77546159817393"/>
<polyline points="211.56527477550594 -396.6588968165336 191.8739478286063 -466.77546159817393"/>
<polyline points="211.56527477550594 -396.6588968165336 231.25660172240572 -326.54233203489304"/>
<polyline points="231.25660172240572 -326.54233203489304 250.9479286693056 -256.4257672532526"/>
<polyline points="250.9479286693056 -256.4257672532526 270.6392556162054 -186.30920247161217"/>
<polyline points="270.6392556162054 -186.30920247161217 290.33058256310517 -116.19263768997163"/>
<polyline points="290.33058256310517 -116.19263768997163 313.0088620323477 -187.4497896962663"/>
<polyline points="290.33058256310517 -116.19263768997163 313.00886203234774 -187.44978969626627"/>
<polyline points="290.33058256310517 -116.19263768997163 267.6523030938627 -44.93548568367701"/>
<polyline points="267.6523030938627 -44.93548568367701 244.97402362462012 26.321666322617645"/>
<polyline points="244.97402362462012 26.321666322617645 340.3571840009948 28.78857353080631"/>
<polyline points="340.3571840009948 28.78857353080631 435.74034437736935 31.25548073899499"/>
<polyline points="435.74034437736935 31.25548073899499 340.3571840009948 28.788573530806264"/>
<polyline points="244.97402362462012 26.321666322617645 225.28269667772045 -43.794898459022896"/>
<polyline points="225.28269667772045 -43.794898459022896 205.5913697308207 -113.91146324066331"/>
<polyline points="205.5913697308207 -113.91146324066331 110.2082093544461 -116.37837044885207"/>
<polyline points="205.5913697308207 -113.91146324066331 110.20820935444608 -116.37837044885212"/>
<polyline points="205.5913697308207 -113.91146324066331 300.9745301071954 -111.44455603247462"/>
<polyline points="300.9745301071954 -111.44455603247462 396.3576904835701 -108.97764882428586"/>
<polyline points="396.3576904835701 -108.97764882428586 416.04901743046975 -38.861084042645416"/>
<polyline points="416.04901743046975 -38.861084042645416 435.7403443773694 31.255480738995118"/>
<polyline points="435.7403443773694 31.255480738995118 416.04901743046986 -38.86108404264538"/>
<polyline points="396.3576904835701 -108.97764882428586 419.03596995281265 -180.23480083058047"/>
<polyline points="419.03596995281265 -180.23480083058047 441.7142494220551 -251.49195283687507"/>
<polyline points="441.7142494220551 -251.49195283687507 419.03596995281276 -180.2348008305804"/>
<polyline points="441.7142494220551 -251.49195283687507 422.0229224751555 -321.6085176185156"/>
<polyline points="422.0229224751555 -321.6085176185156 402.3315955282558 -391.72508240015605"/>
<polyline points="402.3315955282558 -391.72508240015605 425.00987499749823 -462.98223440645074"/>
<polyline points="402.3315955282558 -391.72508240015605 425.00987499749823 -462.98223440645074"/>
<polyline points="402.3315955282558 -391.72508240015605 379.6533160590131 -320.4679303938615"/>
<polyline points="379.6533160590131 -320.4679303938615 356.9750365897705 -249.21077838756688"/>
<polyline points="356.9750365897705 -249.21077838756688 376.66636353667013 -179.09421360592626"/>
<polyline points="376.66636353667013 -179.09421360592626 396.3576904835698 -108.97764882428572"/>
<polyline points="396.3576904835698 -108.97764882428572 419.0359699528126 -180.23480083058027"/>
<polyline points="396.3576904835698 -108.97764882428572 419.0359699528125 -180.2348008305803"/>
<polyline points="396.3576904835698 -108.97764882428572 373.6794110143272 -37.72049681799107"/>
<polyline points="373.6794110143272 -37.72049681799107 351.00113154508455 33.536655188303534"/>
<polyline points="351.00113154508455 33.536655188303534 446.3842919214591 36.00356239649239"/>
<polyline points="446.3842919214591 36.00356239649239 541.7674522978338 38.47046960468132"/>
<polyline points="541.7674522978338 38.47046960468132 446.3842919214591 36.00356239649241"/>
<polyline points="351.00113154508455 33.536655188303534 370.6924584919842 103.65321996994405"/>
<polyline points="370.6924584919842 103.65321996994405 390.38378543888376 173.76978475158455"/>
<polyline points="390.38378543888376 173.76978475158455 295.0006250625092 171.30287754339565"/>
<polyline points="390.38378543888376 173.76978475158455 295.0006250625092 171.30287754339574"/>
<polyline points="390.38378543888376 173.76978475158455 485.7669458152585 176.23669195977334"/>
<polyline points="485.7669458152585 176.23669195977334 581.1501061916331 178.70359916796227"/>
<polyline points="581.1501061916331 178.70359916796227 603.8283856608756 107.44644716166755"/>
<polyline points="603.8283856608756 107.44644716166755 626.5066651301183 36.18929515537289"/>
<polyline points="626.5066651301183 36.18929515537289 603.8283856608756 107.44644716166759"/>
<polyline points="581.1501061916331 178.70359916796227 558.4718267223906 249.96075117425687"/>
<polyline points="558.4718267223906 249.96075117425687 535.793547253148 321.21790318055145"/>
<polyline points="535.793547253148 321.21790318055145 440.4103868767734 318.75099597236266"/>
<polyline points="535.793547253148 321.21790318055145 440.4103868767734 318.75099597236266"/>
<polyline points="535.793547253148 321.21790318055145 631.1767076295226 323.6848103887403"/>
<polyline points="631.1767076295226 323.6848103887403 726.5598680058972 326.15171759692913"/>
<polyline points="726.5598680058972 326.15171759692913 749.2381474751398 254.89456559063458"/>
<polyline points="749.2381474751398 254.89456559063458 771.9164269443825 183.63741358434004"/>
<polyline points="771.9164269443825 183.63741358434004 749.23814747514 254.89456559063458"/>
<polyline points="726.5598680058972 326.15171759692913 706.8685410589978 256.03515281528865"/>
<polyline points="706.8685410589978 256.03515281528865 687.1772141120982 185.91858803364795"/>
<polyline points="687.1772141120982 185.91858803364795 706.868541058998 256.0351528152886"/>
<polyline points="687.1772141120982 185.91858803364795 664.4989346428557 257.1757400399426"/>
<polyline points="664.4989346428557 257.1757400399426 641.8206551736131 328.432892046237"/>
<polyline points="641.8206551736131 328.432892046237 622.1293282267135 258.3163272645964"/>
<polyline points="641.8206551736131 328.432892046237 622.1293282267135 258.3163272645963"/>
<polyline points="641.8206551736131 328.432892046237 661.5119821205125 398.5494568278777"/>
<polyline points="661.5119821205125 398.5494568278777 681.2033090674119 468.66602160951834"/>
<polyline points="681.2033090674119 468.66602160951834 703.8815885366546 397.4088696032238"/>
<polyline points="703.8815885366546 397.4088696032238 726.5598680058972 326.1517175969293"/>
<polyline points="726.5598680058972 326.1517175969293 631.1767076295224 323.68481038874035"/>
<polyline points="726.5598680058972 326.1517175969293 631.1767076295225 323.6848103887403"/>
<polyline points="726.5598680058972 326.1517175969293 821.9430283822719 328.61862480511815"/>
<polyline points="821.9430283822719 328.61862480511815 917.3261887586465 331.0855320133071"/>
<polyline points="917.3261887586465 331.0855320133071 894.6479092894039 402.34268401960156"/>
<polyline points="894.6479092894039 402.34268401960156 871.9696298201615 473.599836025896"/>
<polyline points="871.9696298201615 473.599836025896 894.6479092894039 402.34268401960156"/>
<polyline points="917.3261887586465 331.0855320133071 937.0175157055461 401.20209679494775"/>
<polyline points="937.0175157055461 401.20209679494775 956.7088426524457 471.3186615765884"/>
<polyline points="956.7088426524457 471.3186615765884 937.0175157055462 401.20209679494775"/>
<polyline points="956.7088426524457 471.3186615765884 979.3871221216883 400.06150957029394"/>
<polyline points="979.3871221216883 400.06150957029394 1002.0654015909312 328.80435756399953"/>
<polyline points="1002.0654015909312 328.80435756399953 1021.7567285378303 398.92092234564046"/>
<polyline points="1002.0654015909312 328.80435756399953 1021.7567285378306 398.9209223456403"/>
<polyline points="1002.0654015909312 328.80435756399953 982.3740746440313 258.6877927823589"/>
<polyline points="982.3740746440313 258.6877927823589 962.6827476971318 188.57122800071826"/>
<polyline points="962.6827476971318 188.57122800071826 942.9914207502324 118.45466321907747"/>
<polyline points="942.9914207502324 118.45466321907747 923.3000938033326 48.33809843743679"/>
<polyline points="923.3000938033326 48.33809843743679 1018.6832541797077 50.80500564562561"/>
<polyline points="923.3000938033326 48.33809843743679 1018.6832541797077 50.80500564562561"/>
<polyline points="923.3000938033326 48.33809843743679 827.9169334269582 45.8711912292479"/>
<polyline points="827.9169334269582 45.8711912292479 732.5337730505832 43.40428402105905"/>
<polyline points="732.5337730505832 43.40428402105905 755.212052519826 -27.85286798523539"/>
<polyline points="755.212052519826 -27.85286798523539 777.890331989069 -99.11001999152975"/>
<polyline points="777.890331989069 -99.11001999152975 755.212052519826 -27.85286798523539"/>
<polyline points="732.5337730505832 43.40428402105905 755.212052519826 -27.85286798523539"/>
<polyline points="755.212052519826 -27.85286798523539 777.8903319890688 -99.11001999152988"/>
<polyline points="777.8903319890688 -99.11001999152988 797.5816589359682 -28.993455209889213"/>
<polyline points="777.8903319890688 -99.11001999152988 797.5816589359682 -28.993455209889213"/>
<polyline points="777.8903319890688 -99.11001999152988 758.1990050421692 -169.2265847731706"/>
<polyline points="758.1990050421692 -169.2265847731706 738.5076780952697 -239.3431495548112"/>
<polyline points="738.5076780952697 -239.3431495548112 715.829398626027 -168.0859975485167"/>
<polyline points="715.829398626027 -168.0859975485167 693.1511191567844 -96.82884554222218"/>
<polyline points="693.1511191567844 -96.82884554222218 715.829398626027 -168.0859975485167"/>
<polyline points="738.5076780952697 -239.3431495548112 833.8908384716441 -236.8762423466222"/>
<polyline points="833.8908384716441 -236.8762423466222 929.2739988480188 -234.40933513843325"/>
<polyline points="929.2739988480188 -234.40933513843325 833.8908384716441 -236.8762423466222"/>
<polyline points="929.2739988480188 -234.40933513843325 951.9522783172617 -305.6664871447278"/>
<polyline points="951.9522783172617 -305.6664871447278 974.6305577865046 -376.92363915102226"/>
<polyline points="974.6305577865046 -376.92363915102226 1070.0137181628793 -374.4567319428334"/>
<polyline points="974.6305577865046 -376.92363915102226 1070.0137181628793 -374.4567319428334"/>
<polyline points="974.6305577865046 -376.92363915102226 879.24739741013 -379.3905463592112"/>
<polyline points="879.24739741013 -379.3905463592112 783.8642370337552 -381.8574535674003"/>
<polyline points="783.8642370337552 -381.8574535674003 688.4810766573806 -384.3243607755892"/>
<polyline points="688.4810766573806 -384.3243607755892 593.0979162810061 -386.79126798377797"/>
<polyline points="593.0979162810061 -386.79126798377797 573.4065893341066 -456.90783276541856"/>
<polyline points="593.0979162810061 -386.79126798377797 573.4065893341063 -456.90783276541856"/>
<polyline points="593.0979162810061 -386.79126798377797 612.7892432279057 -316.6747032021374"/>
<polyline points="612.7892432279057 -316.6747032021374 632.4805701748056 -246.5581384204969"/>
<polyline points="632.4805701748056 -246.5581384204969 655.1588496440481 -317.8152904267914"/>
<polyline points="655.1588496440481 -317.8152904267914 677.8371291132906 -389.0724424330861"/>
<polyline points="677.8371291132906 -389.0724424330861 655.1588496440481 -317.8152904267914"/>
<polyline points="632.4805701748056 -246.5581384204969 609.8022907055628 -175.30098641420224"/>
<polyline points="609.8022907055628 -175.30098641420224 587.12401123632 -104.0438344079077"/>
<polyline points="587.12401123632 -104.0438344079077 682.5071716126947 -101.57692719971884"/>
<polyline points="587.12401123632 -104.0438344079077 682.5071716126948 -101.5769271997188"/>
<polyline points="587.12401123632 -104.0438344079077 491.74085085994545 -106.51074161609652"/>
<polyline points="491.74085085994545 -106.51074161609652 396.3576904835708 -108.97764882428548"/>
<polyline points="396.3576904835708 -108.97764882428548 419.03596995281345 -180.23480083058016"/>
<polyline points="419.03596995281345 -180.23480083058016 441.71424942205624 -251.49195283687473"/>
<polyline points="441.71424942205624 -251.49195283687473 419.0359699528134 -180.23480083058016"/>
<polyline points="396.3576904835708 -108.97764882428548 416.0490174304704 -38.86108404264505"/>
<polyline points="416.0490174304704 -38.86108404264505 435.74034437737 31.25548073899543"/>
<polyline points="435.74034437737 31.25548073899543 416.04901743047037 -38.86108404264503"/>
<polyline points="435.74034437737 31.25548073899543 413.0620649081274 102.5126327452901"/>
<polyline points="413.0620649081274 102.5126327452901 390.3837854388848 173.76978475158472"/>
<polyline points="390.3837854388848 173.76978475158472 410.07511238578445 243.88634953322523"/>
<polyline points="390.3837854388848 173.76978475158472 410.07511238578434 243.88634953322523"/>
<polyline points="390.3837854388848 173.76978475158472 370.69245849198524 103.65321996994429"/>
<polyline points="370.69245849198524 103.65321996994429 351.00113154508574 33.53665518830386"/>
<polyline points="351.00113154508574 33.53665518830386 373.6794110143284 -37.72049681799085"/>
<polyline points="373.6794110143284 -37.72049681799085 396.3576904835711 -108.97764882428552"/>
<polyline points="396.3576904835711 -108.97764882428552 416.04901743047054 -38.86108404264507"/>
<polyline points="396.3576904835711 -108.97764882428552 416.0490174304706 -38.86108404264515"/>
<polyline points="396.3576904835711 -108.97764882428552 376.6663635366715 -179.09421360592597"/>
<polyline points="376.6663635366715 -179.09421360592597 356.975036589772 -249.2107783875666"/>
<polyline points="356.975036589772 -249.2107783875666 261.59187621339737 -251.67768559575552"/>
<polyline points="261.59187621339737 -251.67768559575552 166.20871583702282 -254.14459280394442"/>
<polyline points="166.20871583702282 -254.14459280394442 261.5918762133974 -251.67768559575543"/>
<polyline points="356.975036589772 -249.2107783875666 379.6533160590147 -320.46793039386114"/>
<polyline points="379.6533160590147 -320.46793039386114 402.3315955282575 -391.72508240015577"/>
<polyline points="402.3315955282575 -391.72508240015577 497.7147559046322 -389.25817519196687"/>
<polyline points="402.3315955282575 -391.72508240015577 497.7147559046322 -389.2581751919669"/>
<polyline points="402.3315955282575 -391.72508240015577 306.9484351518829 -394.1919896083447"/>
<polyline points="306.9484351518829 -394.1919896083447 211.56527477550827 -396.65889681653374"/>
<polyline points="211.56527477550827 -396.65889681653374 231.25660172240802 -326.5423320348933"/>
<polyline points="231.25660172240802 -326.5423320348933 250.94792866930774 -256.42576725325284"/>
<polyline points="250.94792866930774 -256.42576725325284 231.256601722408 -326.5423320348934"/>
<polyline points="211.56527477550827 -396.65889681653374 191.87394782860866 -466.7754615981741"/>
<polyline points="191.87394782860866 -466.7754615981741 172.182620881709 -536.8920263798146"/>
<polyline points="172.182620881709 -536.8920263798146 267.5657812580836 -534.4251191716255"/>
<polyline points="172.182620881709 -536.8920263798146 267.5657812580836 -534.4251191716255"/>
<polyline points="172.182620881709 -536.8920263798146 76.79946050533437 -539.3589335880035"/>
<polyline points="76.79946050533437 -539.3589335880035 -18.583699871040228 -541.8258407961924"/>
<polyline points="-18.583699871040228 -541.8258407961924 1.1076270758595728 -471.709276014552"/>
<polyline points="1.1076270758595728 -471.709276014552 20.79895402275932 -401.59271123291165"/>
<polyline points="20.79895402275932 -401.59271123291165 1.1076270758595457 -471.709276014552"/>
<polyline points="-18.583699871040228 -541.8258407961924 -41.26197934028306 -470.56868878989786"/>
<polyline points="-41.26197934028306 -470.56868878989786 -63.940258809525844 -399.31153678360306"/>
<polyline points="-63.940258809525844 -399.31153678360306 -41.26197934028309 -470.56868878989786"/>
<polyline points="-63.940258809525844 -399.31153678360306 -83.63158575642561 -469.42810156524354"/>
<polyline points="-83.63158575642561 -469.42810156524354 -103.32291270332536 -539.544666346884"/>
<polyline points="-103.32291270332536 -539.544666346884 -126.00119217256814 -468.28751434058927"/>
<polyline points="-103.32291270332536 -539.544666346884 -126.00119217256817 -468.2875143405892"/>
<polyline points="-103.32291270332536 -539.544666346884 -80.64463323408248 -610.8018183531785"/>
<polyline points="-80.64463323408248 -610.8018183531785 -57.96635376483967 -682.0589703594734"/>
</svg>