<svg baseProfile="full" fill-opacity="0.0" height="100%" stroke="black" stroke-width="1" version="1.1" viewBox="-199.7577858738375,-175.1131060255193,405.7285745393027,394.34675030835047" width="100%" xmlns="http://www.w3.org/2000/svg" xmlns:ev="http://www.w3.org/2001/xml-events" xmlns:xlink="http://www.w3.org/1999/xlink"><defs /><polyline points="108.9587969503293,-0.6412920167599117 107.3281148885777,-5.871167080951679 105.4420763155317,-13.07391428872503" /><polyline points="105.4420763155317,-13.07391428872503 103.5560377424857,-20.27666149649809 101.5431730700721,-28.9614255287449" /><polyline points="101.5431730700721,-28.9614255287449 99.53030839765856,-37.64618956099171 97.52779102688619,-47.22111810116581" /><polyline points="97.52779102688619,-47.22111810116581 95.5252736561138,-56.79604664133991 93.66957183648435,-66.60862413274599" /><polyline points="93.66957183648435,-66.60862413274599 91.81387001685489,-76.42120162415203 90.23144676068381,-85.80271712680182" /><polyline points="90.23144676068381,-85.80271712680182 88.64902350451274,-95.18423262945159 87.44771834163012,-103.4953513655269" /><polyline points="87.44771834163012,-103.4953513655269 86.24641317874746,-111.8064701016021 85.50809307075296,-118.4808030640125" /><polyline points="85.50809307075296,-118.4808030640125 84.76977296275848,-125.1551360264229 84.54475320488038,-129.7378384536367" /><polyline points="84.54475320488038,-129.7378384536367 84.31973344700226,-134.3205408808507 84.62334876387715,-136.4993091757274" /><polyline points="84.62334876387715,-136.4993091757274 84.92696408075203,-138.6780774706041 85.73852359028294,-138.3044321744325" /><polyline points="85.73852359028294,-138.3044321744325 86.55008309981385,-137.9307868782611 87.81428036259173,-135.0301913004973" /><polyline points="87.81428036259173,-135.0301913004973 89.07847762536967,-132.1295957227336 90.70915968712099,-126.8997206585414" /><polyline points="90.70915968712099,-126.8997206585414 92.33984174887235,-121.6698455943493 94.22588032191828,-114.4670983865762" /><polyline points="94.22588032191828,-114.4670983865762 96.11191889496423,-107.2643511788032 98.12478356737783,-98.57958714655636" /><polyline points="98.12478356737783,-98.57958714655636 100.1376482397914,-89.89482311430955 102.1401656105638,-80.3198945741355" /><polyline points="102.1401656105638,-80.3198945741355 104.1426829813362,-70.7449660339614 105.9983848009656,-60.93238854255529" /><polyline points="105.9983848009656,-60.93238854255529 107.8540866205951,-51.11981105114922 109.4365098767661,-41.73829554849947" /><polyline points="109.4365098767661,-41.73829554849947 111.0189331329372,-32.3567800458497 112.2202382958199,-24.04566130977443" /><polyline points="112.2202382958199,-24.04566130977443 113.4215434587026,-15.73454257369915 114.159863566697,-9.06020961128878" /><polyline points="114.159863566697,-9.06020961128878 114.8981836746915,-2.385876648878408 115.1232034325696,2.196825778335513" /><polyline points="115.1232034325696,2.196825778335513 115.3482231904477,6.779528205549443 115.0446078735729,8.958296500426139" /><polyline points="115.0446078735729,8.958296500426139 114.7409925566979,11.13706479530284 113.929433047167,10.7634194991313" /><polyline points="113.929433047167,10.7634194991313 113.1178735376361,10.38977420295977 111.8536762748582,7.489178625196041" /><polyline points="111.8536762748582,7.489178625196041 110.5894790120803,4.588583047432314 108.9587969503289,-0.6412920167598292" /><polyline points="108.9587969503289,-0.6412920167598292 107.3281148885776,-5.871167080951976 105.4420763155317,-13.07391428872504" /><polyline points="105.4420763155317,-13.07391428872504 103.5560377424857,-20.27666149649812 101.5431730700721,-28.96142552874492" /><polyline points="101.5431730700721,-28.96142552874492 99.53030839765856,-37.64618956099174 97.52779102688619,-47.22111810116584" /><polyline points="97.52779102688619,-47.22111810116584 95.52527365611378,-56.79604664133993 93.66957183648435,-66.608624132746" /><polyline points="93.66957183648435,-66.608624132746 91.81387001685489,-76.42120162415208 90.23144676068381,-85.80271712680182" /><polyline points="90.23144676068381,-85.80271712680182 88.64902350451274,-95.18423262945161 87.44771834163011,-103.4953513655269" /><polyline points="87.44771834163011,-103.4953513655269 95.15973600904852,-119.7810577354536 91.00499337096348,-115.3440775500843" /><polyline points="95.15973600904852,-119.7810577354536 91.01306591608173,-113.269256814537" /><polyline points="86.8663958231149,-106.7574558936204 82.7197257301481,-100.2456549727038" /><polyline points="82.7197257301481,-100.2456549727038 78.56498309206304,-95.80867478733461" /><polyline points="82.7197257301481,-100.2456549727038 95.44695772287267,-107.5136216553507 90.19380077303505,-108.6668153931805" /><polyline points="95.44695772287267,-107.5136216553507 89.43367356065617,-106.2294704627977" /><polyline points="83.42038939843965,-104.9453192702448 77.40710523622317,-103.6611680776919" /><polyline points="77.40710523622317,-103.6611680776919 72.1539482863856,-104.8143618155218" /><polyline points="77.40710523622317,-103.6611680776919 91.53950197379424,-99.5797252021612 87.23424330598198,-105.9797202230827" /><polyline points="91.53950197379424,-99.5797252021612 85.6532026705211,-103.9489615497981" /><polyline points="79.76690336724793,-108.318197897435 73.88060406397476,-112.687434245072" /><polyline points="73.88060406397476,-112.687434245072 69.57534539616246,-119.0874292659935" /><polyline points="44.44910754760886,-134.5336159832565 36.8873942760452,-138.9799621079075" /><polyline points="29.32568100448157,-143.4263082325585 28.89289507831368,-158.2620532296259 28.88475372914038,-148.4851973881489" /><polyline points="28.89289507831368,-158.2620532296259 29.0006940460205,-149.3614068901083" /><polyline points="29.10849301372734,-140.4607605505906 29.21629198143416,-131.560114211073" /><polyline points="29.21629198143416,-131.560114211073 29.20815063226083,-121.783258369596" /><polyline points="29.21629198143416,-131.560114211073 31.80975980828669,-140.9774761572826 34.43052026902748,-150.6170204943085" /><polyline points="34.43052026902748,-150.6170204943085 37.05128072976828,-160.2565648313345 39.52073333000929,-169.4613725427085" /><polyline points="39.52073333000929,-169.4613725427085 37.3708777040111,-161.3185938908524 35.68712816036312,-154.7927612070603" /><polyline points="39.16944430124841,-126.857349009311 37.48569475760045,-120.3315163255189" /><polyline points="35.80194521395249,-113.8056836417268 46.84019416256245,-107.7543771552048 42.77102888103991,-105.9541727964397" /><polyline points="46.84019416256245,-107.7543771552048 41.87693016502335,-108.3887161754191" /><polyline points="36.91366616748419,-109.0230551956336 31.95040216994506,-109.6573942158479" /><polyline points="31.95040216994506,-109.6573942158479 27.88123688842246,-107.857189857083" /><polyline points="31.95040216994506,-109.6573942158479 27.88123688842246,-107.857189857083 24.98347721223868,-103.7451230714099" /><polyline points="24.98347721223868,-103.7451230714099 23.45460067455128,-97.60142441476091 23.39879768481573,-89.84477679764447" /><polyline points="23.39879768481573,-89.84477679764447 23.34299469508019,-82.08812918052803 24.7640681348282,-73.24713531958434" /><polyline points="24.7640681348282,-73.24713531958434 26.18514157457616,-64.4061414586407 28.98624763732379,-55.08330047505992" /><polyline points="28.98624763732379,-55.08330047505992 31.78735370007137,-45.76045949147919 35.77760163668898,-36.59110759156919" /><polyline points="35.77760163668898,-36.59110759156919 39.76784957330659,-27.42175569165921 44.67531058111019,-19.03076905432838 56.6373327163133,-3.160361799563935 49.42304255069318,-9.132347545696852" /><polyline points="56.6373327163133,-3.160361799563935 49.80694218626821,-10.35925274699016" /><polyline points="42.9765516562231,-17.55814369441638 36.146161126178,-24.75703464184262" /><polyline points="36.146161126178,-24.75703464184262 28.9318709605579,-30.72902038797553" /><polyline points="44.67531058111019,-19.03076905432838 39.76784957330659,-27.42175569165921 34.27761085203602,-34.46254519383785" /><polyline points="34.27761085203602,-34.46254519383785 28.78737213076547,-41.50333469601648 23.08850639183404,-46.71410889392425" /><polyline points="23.08850639183404,-46.71410889392425 17.38964065290262,-51.92488309183202 11.87051617859762,-54.95053633509303" /><polyline points="11.87051617859762,-54.95053633509303 6.351391704292612,-57.97618957835404 1.388127706753459,-58.61052859856843" /><polyline points="1.388127706753459,-58.61052859856843 -3.575136290785693,-59.24486761878281 -7.644301572308275,-57.44466326001779" /><polyline points="-7.644301572308275,-57.44466326001779 -11.71346685383084,-55.64445890125275 -14.61122653001463,-51.53239211557977" /><polyline points="-14.61122653001463,-51.53239211557977 -11.41324932147474,-47.97129819941529 -15.25174457703617,-53.70879041641101" /><polyline points="-11.41324932147474,-47.97129819941529 -14.22789808219855,-51.86292164008933" /><polyline points="-17.04254684292246,-55.75454508076337 -19.85719560364625,-59.64616852143747" /><polyline points="-19.85719560364625,-59.64616852143747 -23.69569085920771,-65.38366073843324" /><polyline points="-19.85719560364625,-59.64616852143747 -8.008196668605978,-51.22291476618275 -14.86420951153812,-58.05855768932095" /><polyline points="-8.008196668605978,-51.22291476618275 -14.62387665283052,-56.94140240783086" /><polyline points="-21.23955663705507,-62.65989004947896 -27.85523662127949,-68.37837769112708" /><polyline points="-27.85523662127949,-68.37837769112708 -34.71124946421153,-75.2140206142653" /><polyline points="-27.85523662127949,-68.37837769112708 -10.84217330466001,-58.51167570403311 -18.22202764198424,-64.49229653523963" /><polyline points="-10.84217330466001,-58.51167570403311 -19.06557181170014,-64.16116323595013" /><polyline points="-27.28897031874017,-69.81065076786722 -35.51236882578028,-75.46013829978425" /><polyline points="-35.51236882578028,-75.46013829978425 -42.89222316310452,-81.44075913099077" /><polyline points="-76.62936136098062,-103.7075759593695 -86.03265934886939,-107.0291902831951" /><polyline points="-95.4359573367581,-110.3508046070206 -103.5036941640461,-125.4276102433998 -99.75955874992978,-121.8200493684423" /><polyline points="-103.5036941640461,-125.4276102433998 -99.47750311703676,-119.6580348837844" /><polyline points="-95.45131207002746,-113.888459524169 -91.42512102301819,-108.1188841645536" /><polyline points="-91.42512102301819,-108.1188841645536 -87.6809856089019,-104.511323289596" /><polyline points="-91.42512102301819,-108.1188841645536 -92.67696565057017,-112.3819656591614 -93.47652075343291,-114.2148470337942" /><polyline points="-93.47652075343291,-114.2148470337942 -94.27607585629575,-116.047728408427 -94.56885307553641,-115.3255018263832" /><polyline points="-94.56885307553641,-115.3255018263832 -94.80280602357178,-118.5536178170732 -95.54754563210011,-124.0676324463577" /><polyline points="-88.28521308760186,-147.4131875552413 -89.02995269613024,-152.9272021845258" /><polyline points="-89.77469230465846,-158.4412168138104 -80.56135621405289,-175.1131060255193 -81.95436898808062,-165.2357913951053" /><polyline points="-80.56135621405289,-175.1131060255193 -83.66701953521091,-165.6852292980479" /><polyline points="-86.77268285636902,-156.2573525705766 -89.87834617752715,-146.8294758431053" /><polyline points="-89.87834617752715,-146.8294758431053 -91.27135895155482,-136.9521612126912" /><polyline points="-89.87834617752715,-146.8294758431053 -91.27135895155482,-136.9521612126912 -90.85678965996463,-127.2985313483631" /><polyline points="-90.85678965996463,-127.2985313483631 -88.6628905148702,-118.526465171997 -84.83917211742015,-111.2337644969878" /><polyline points="-84.83917211742015,-111.2337644969878 -81.0154537199701,-103.9410638219785 -75.82249615995701,-98.62471414757009" /><polyline points="-75.82249615995701,-98.62471414757009 -70.62953859994396,-93.30836447316173 -64.4212333533146,-90.33066624398202" /><polyline points="-64.4212333533146,-90.33066624398202 -58.21292810668537,-87.35296801480224 -51.41236091628826,-86.91684644429068" /><polyline points="-51.41236091628826,-86.91684644429068 -44.61179372589105,-86.48072487377918 -37.68241200728287,-88.61590092624122 -20.81874459163857,-86.9971884736007 -28.81743317011228,-82.75945421109813" /><polyline points="-20.81874459163857,-86.9971884736007 -29.32380876898806,-85.22252941445042" /><polyline points="-37.82887294633767,-83.44787035530008 -46.33393712368729,-81.67321129614983" /><polyline points="-46.33393712368729,-81.67321129614983 -54.33262570216108,-77.43547703364726" /><polyline points="-37.68241200728287,-88.61590092624122 -44.61179372589104,-86.48072487377915 -51.19776405993181,-81.91975991777353" /><polyline points="-51.19776405993181,-81.91975991777353 -57.78373439397257,-77.35879496176787 -63.57747034901165,-70.68286332661944" /><polyline points="-63.57747034901165,-70.68286332661944 -69.3712063040507,-64.00693169147101 -73.97787434935358,-55.67098708561655" /><polyline points="-73.97787434935358,-55.67098708561655 -78.58454239465641,-47.33504247976212 -81.69020571581446,-37.90716575229072" /><polyline points="-81.69020571581446,-37.90716575229072 -84.79586903697258,-28.47928902481936 -86.18888181100031,-18.60197439440538" /><polyline points="-86.18888181100031,-18.60197439440538 -87.58189458502798,-8.724659763991363 -87.16732529343773,0.9289701003367888" /><polyline points="-87.16732529343773,0.9289701003367888 -79.2512287265533,19.1490319700741 -86.1436899487238,12.32710177744681" /><polyline points="-79.2512287265533,19.1490319700741 -84.8678657447903,10.90204203881613" /><polyline points="-90.48450276302732,2.655052107558166 -96.10113978126425,-5.591937823699812" /><polyline points="-96.10113978126425,-5.591937823699812 -102.9936010034346,-12.41386801632715" /><polyline points="-96.10113978126425,-5.591937823699812 -79.66643188300519,5.760676526561002 -88.79386738439624,4.046916398423503" /><polyline points="-79.66643188300519,5.760676526561002 -88.64475556918127,1.935296201210696" /><polyline points="-97.6230792553573,-1.890084124139649 -106.6014029415333,-5.715464449489975" /><polyline points="-106.6014029415333,-5.715464449489975 -115.7288384429243,-7.429224577627483" /><polyline points="-106.6014029415333,-5.715464449489975 -86.87876522226611,-5.082811102262825 -95.10615493600649,-1.164610669336338" /><polyline points="-86.87876522226611,-5.082811102262825 -96.24216978246298,-3.218344048332431" /><polyline points="-105.6055743426598,-1.353876994402052 -114.9689789028567,0.51059005952833" /><polyline points="-114.9689789028567,0.51059005952833 -123.1963686165971,4.428790492454815" /><polyline points="-161.7860017038409,9.832925329180243 -171.4261120560467,12.44610244115267" /><polyline points="-181.0662224082523,15.0592795531251 -191.6362094554096,24.55520907182576 -188.611790019939,16.04511679266215" /><polyline points="-191.6362094554096,24.55520907182576 -187.3349408005622,17.69233374657988" /><polyline points="-183.0336721457151,10.82945842133403 -178.7324034908678,3.966583096088186" /><polyline points="-178.7324034908678,3.966583096088186 -175.7079840553971,-4.543509183075435" /><polyline points="-178.7324034908678,3.966583096088186 -179.6088099231135,12.11396641840618 -179.07544971775,21.34097697741144" /><polyline points="-179.07544971775,21.34097697741144 -178.5420895123864,30.5679875364167 -176.6353102859896,40.24581981086892" /><polyline points="-176.6353102859896,40.24581981086892 -179.7855646802424,30.77669409709964 -183.9646096114241,22.16158021293651" /><polyline points="-191.3996960114738,-13.68596102144143 -195.5787409426557,-22.30107490560453" /><polyline points="-199.7577858738375,-30.91618878976763 -198.1698255848545,-41.86292265722867 -196.2077180275935,-40.54640575657994" /><polyline points="-198.1698255848545,-41.86292265722867 -197.5651583417924,-38.34822015648649" /><polyline points="-196.9604910987302,-34.83351765574434 -196.355823855668,-31.31881515500218" /><polyline points="-196.355823855668,-31.31881515500218 -194.393716298407,-30.00229825435346" /><polyline points="-196.355823855668,-31.31881515500218 -194.393716298407,-30.00229825435346 -191.2078828144384,-30.97368540493033" /><polyline points="-191.2078828144384,-30.97368540493033 -187.0154326908559,-34.16677817771411 -182.1020744752304,-39.36397257707501" /><polyline points="-182.1020744752304,-39.36397257707501 -177.1887162596047,-44.56116697643583 -171.8892871946225,-51.40828279282714" /><polyline points="-171.8892871946225,-51.40828279282714 -166.5898581296404,-58.25539860921841 -161.2655055483595,-66.28581621514692" /><polyline points="-161.2655055483595,-66.28581621514692 -155.9411529670786,-74.31623382107549 -150.9547226990047,-82.9826935275898" /><polyline points="-150.9547226990047,-82.9826935275898 -145.9682924309307,-91.64915323410416 -141.6596014583672,-100.3610501342072 -127.6560966500905,-114.6122795644029 -132.7387383244526,-107.7830577532236" /><polyline points="-127.6560966500905,-114.6122795644029 -133.9114393221706,-107.3887246358172" /><polyline points="-140.1667819942507,-100.1651697072315 -146.4221246663307,-92.94161477864587" /><polyline points="-146.4221246663307,-92.94161477864587 -151.5047663406928,-86.11239296746656" /><polyline points="-146.4221246663307,-92.94161477864587 -141.3394829919686,-99.77083658982522 -138.1899109114142,-106.223331888316" /><polyline points="-138.1899109114142,-106.223331888316 -135.0403388308598,-112.6758271868069 -134.0384744764889,-118.3118690812699" /><polyline points="-134.0384744764889,-118.3118690812699 -132.8243557045851,-113.8763675319429 -129.4769939942856,-110.9436784283257" /><polyline points="-111.0723384784199,-92.07201244125733 -107.7249767681203,-89.13932333764015" /><polyline points="-104.3776150578209,-86.20663423402293 -86.91009902210689,-78.65543344753999 -96.61648312058047,-77.44569262870966" /><polyline points="-86.91009902210689,-78.65543344753999 -96.45541897031374,-79.98362009737248" /><polyline points="-106.0007389185207,-81.31180674720493 -115.5460588667276,-82.63999339703739" /><polyline points="-115.5460588667276,-82.63999339703739 -125.2524429652013,-81.430252578207" /><polyline points="-115.5460588667276,-82.63999339703739 -125.2524429652013,-81.430252578207 -134.4584171781888,-77.76502612832581" /><polyline points="-134.4584171781888,-77.76502612832581 -142.5366095766668,-71.89409317288018 -148.936504698523,-64.21754809060825" /><polyline points="-157.0146970970009,-58.34661513516256 -165.092889495479,-52.47568217971695 -171.980258711974,-45.37080988965096" /><polyline points="-171.980258711974,-45.37080988965096 -178.867627928469,-38.26593759958499 -184.0948111327926,-30.41131128011003" /><polyline points="-184.0948111327926,-30.41131128011003 -180.8840378376863,-38.48041182570537 -179.9084833458051,-46.21409073005799" /><polyline points="-171.2581373812792,-69.98440701193444 -170.282582889398,-77.71808591628705" /><polyline points="-169.3070283975167,-85.45176482063968 -169.6689548771034,-86.89199098228366 -164.5768960372562,-87.06923661883759" /><polyline points="-169.6689548771034,-86.89199098228366 -166.9394377981893,-86.61098211519828" /><polyline points="-164.2099207192751,-86.32997324811288 -161.4804036403609,-86.04896438102746" /><polyline points="-161.4804036403609,-86.04896438102746 -156.3883448005137,-86.22621001758147" /><polyline points="-161.4804036403609,-86.04896438102746 -156.3883448005137,-86.22621001758147 -149.2807595946439,-86.84963116055584" /><polyline points="-149.2807595946439,-86.84963116055584 -140.6420182086917,-87.87674268930911 -131.0608365919146,-89.23754865053881" /><polyline points="-131.0608365919146,-89.23754865053881 -140.6420182086917,-87.87674268930911 -150.5126983627617,-86.2749789730226" /><polyline points="-150.5126983627617,-86.2749789730226 -160.3833785168317,-84.67321525673607 -169.8708866677649,-82.93965133561801" /><polyline points="-169.8708866677649,-82.93965133561801 -161.413108521606,-84.6868759451933 -154.5614439837431,-86.32869077350844" /><polyline points="-126.4396851892597,-82.48031514365563 -119.5880206513967,-84.12212997197075" /><polyline points="-112.7363561135337,-85.76394480028591 -107.4919325232515,-75.60726891098174 -105.4996061756482,-78.62377046006007" /><polyline points="-107.4919325232515,-75.60726891098174 -107.8179852233629,-79.79746616703271" /><polyline points="-108.1440379234743,-83.98766342308363 -108.4700906235857,-88.17786067913461" /><polyline points="-108.4700906235857,-88.17786067913461 -106.4777642759824,-91.19436222821292" /><polyline points="-108.4700906235857,-88.17786067913461 -106.4777642759824,-91.19436222821292 -102.3028326287786,-92.83159847475353" /><polyline points="-102.3028326287786,-92.83159847475353 -96.2298103743305,-92.97799447421532 -88.67256394313482,-91.62357358116599" /><polyline points="-88.67256394313482,-91.62357358116599 -96.2298103743305,-92.97799447421532 -104.7562671269279,-95.74093071420097" /><polyline points="-104.7562671269279,-95.74093071420097 -113.2827238795251,-98.50386695418656 -122.1973270164708,-102.4870290023214" /><polyline points="-122.1973270164708,-102.4870290023214 -113.5020929668816,-97.55508705713123 -105.6187938355745,-92.01046890803087" /><polyline points="-79.83872763974371,-62.14042249712743 -71.95542850843664,-56.59580434802708" /><polyline points="-64.07212937712957,-51.05118619892676 -62.32666082499566,-32.31924127629036 -61.16861673335255,-39.01548051224003" /><polyline points="-62.32666082499566,-32.31924127629036 -62.17897359694415,-40.63365386373317" /><polyline points="-62.0312863688925,-48.94806645117605 -61.88359914084094,-57.26247903861882" /><polyline points="-61.88359914084094,-57.26247903861882 -60.72555504919794,-63.95871827456845" /><polyline points="-61.88359914084094,-57.26247903861882 -60.72555504919794,-63.95871827456845 -58.63607288505049,-68.58044652115358" /><polyline points="-58.63607288505049,-68.58044652115358 -55.75754740485284,-70.8127006361364 -52.28614536309212,-70.5033561905552" /><polyline points="-49.40761988289437,-72.73561030553799 -56.54037001623124,-61.92733138717086 -50.68423491578832,-62.71065491734505" /><polyline points="-56.54037001623124,-61.92733138717086 -51.66291984839014,-65.1301979121964" /><polyline points="-46.78546968054896,-68.33306443722192 -41.90801951270777,-71.53593096224748" /><polyline points="-41.90801951270777,-71.53593096224748 -36.05188441226485,-72.3192544924216" /><polyline points="-41.90801951270777,-71.53593096224748 -57.38760562734608,-69.7034394605565 -50.2048084303954,-65.5218414275785" /><polyline points="-57.38760562734608,-69.7034394605565 -49.66310450721352,-68.01316874138678" /><polyline points="-41.93860338708085,-66.32289802221696 -34.21410226694821,-64.63262730304722" /><polyline points="-34.21410226694821,-64.63262730304722 -27.03130506999754,-60.45102927006922" /><polyline points="-34.21410226694821,-64.63262730304722 -51.33006270951994,-72.50745056588318 -45.43794264732976,-64.5599361920994" /><polyline points="-51.33006270951994,-72.50745056588318 -43.85014039551014,-66.3553601663223" /><polyline points="-36.37021808150025,-60.2032697667615 -28.89029576749045,-54.05117936720061" /><polyline points="-28.89029576749045,-54.05117936720061 -22.9981757053004,-46.10366499341684" /><polyline points="-28.89029576749045,-54.05117936720061 -42.44015148614181,-68.64789724516241 -40.02814641644014,-59.38199528484695" /><polyline points="-42.44015148614181,-68.64789724516241 -37.6846450699183,-60.07360486759262" /><polyline points="-32.92913865369468,-51.49931249002285 -28.17363223747117,-42.92502011245304" /><polyline points="-28.17363223747117,-42.92502011245304 -25.76162716776948,-33.65911815213757" /><polyline points="-4.396100156353389,-0.05355822460408859 1.391712870782557,7.106705626650626" /><polyline points="7.179525897918454,14.26696947790528 4.066766527271517,33.78931682594052 7.769432739265591,26.37688048853164" /><polyline points="4.066766527271517,33.78931682594052 6.789049001859638,24.89960213769952" /><polyline points="9.511331476447719,16.00988744945853 12.2336139510358,7.120172761217535" /><polyline points="12.2336139510358,7.120172761217535 15.93628016302986,-0.2922635761913141" /><polyline points="12.2336139510358,7.120172761217535 6.409745145146515,14.11947179693636 -0.06989858908606111,19.15042450724314" /><polyline points="-0.06989858908606111,19.15042450724314 -6.549542323318714,24.18137721754992 -13.24338397352422,26.90113248927969" /><polyline points="-13.24338397352422,26.90113248927969 -6.791518653710859,26.67792148328719 -1.021313623623515,28.96646620421674" /><polyline points="13.5820103164199,35.20219347491847 19.35221534650733,37.490738195848" /><polyline points="25.12242037659475,39.7792829167775 21.1511295036742,47.75516803520942 23.65070668100373,39.8566559530373" /><polyline points="21.1511295036742,47.75516803520942 23.47285157162084,41.60228635533249" /><polyline points="25.79457363956744,35.44940467545549 28.11629570751405,29.29652299557848" /><polyline points="28.11629570751405,29.29652299557848 30.61587288484358,21.39801091340634" /><polyline points="28.11629570751405,29.29652299557848 30.61587288484358,21.39801091340634 33.12296311766762,12.29213897443075" /><polyline points="33.12296311766762,12.29213897443075 35.46671234978168,2.599457303127929 37.48739794424596,-7.019493862516535" /><polyline points="37.48739794424596,-7.019493862516535 35.46671234978168,2.59945730312794 33.90679677688911,11.48916233724389" /><polyline points="33.90679677688911,11.48916233724389 32.34688120399653,20.37886737135983 31.3540413210859,27.9335075668044" /><polyline points="31.3540413210859,27.9335075668044 30.36120143817528,35.48814776224891 30.0030976425215,41.19288687433575" /><polyline points="30.0030976425215,41.19288687433575 29.6449938468677,46.89762598642258 29.94603032035005,50.36369547219009" /><polyline points="29.94603032035005,50.36369547219009 30.2470667938324,53.82976495795764 31.18672839826934,54.82095790990142" /><polyline points="31.18672839826934,54.82095790990142 32.12639000270629,55.81215086184527 33.6406403526197,54.2609191183142" /><polyline points="33.6406403526197,54.2609191183142 26.58745575623972,49.32256111058961 28.63123147803065,56.27040843724776" /><polyline points="26.58745575623972,49.32256111058961 29.47089041984189,54.19717263573081" /><polyline points="32.35432508344405,59.07178416087199 35.23775974704621,63.94639568601321" /><polyline points="35.23775974704621,63.94639568601321 37.28153546883715,70.89424301267135" /><polyline points="35.23775974704621,63.9463956860132 26.55996476806844,49.91633328926649 28.56092961490118,59.53936179803768" /><polyline points="26.55996476806844,49.91633328926649 29.84171900000483,58.52882674079026" /><polyline points="33.12347323194123,67.141320192314 36.40522746387763,75.75381364383777" /><polyline points="36.40522746387763,75.75381364383777 38.40619231071038,85.37684215260896" /><polyline points="36.40522746387763,75.75381364383777 28.24510537591867,57.50724515621317 29.17253078894405,66.72699702886528" /><polyline points="28.24510537591867,57.50724515621317 30.83717110225028,67.00229934010191" /><polyline points="33.42923682858191,76.49735352399065 36.02130255491351,85.99240770787937" /><polyline points="36.02130255491351,85.99240770787937 36.94872796793892,95.21215958053153" /><polyline points="48.98163118657163,133.4676786273232 53.76732064233011,141.8437211744775" /><polyline points="58.55301009808863,150.2197637216319 52.23078339871931,166.9916225475089 54.5051326147329,161.9197861084056" /><polyline points="52.23078339871931,166.9916225475089 55.04438586060833,160.0253703334313" /><polyline points="57.85798832249738,153.0591181193539 60.67159078438643,146.0928659052765" /><polyline points="60.67159078438643,146.0928659052765 62.94594000040003,141.0210294661733" /><polyline points="60.67159078438643,146.0928659052765 56.03100192828047,150.1539563411862 52.1652871191197,152.0094340652931" /><polyline points="52.1652871191197,152.0094340652931 48.29957230995893,153.8649117894 45.47217362359185,153.3883290611283" /><polyline points="45.47217362359185,153.3883290611283 47.06857363918657,156.1644939164372 47.32518296112191,161.0510498517233" /><polyline points="39.48418360926382,175.3347549530694 39.74079293119912,180.2213108883554" /><polyline points="39.99740225313442,185.1078668236416 25.68758188689446,192.7030924665278 32.6564164911833,185.7514695680275" /><polyline points="25.68758188689446,192.7030924665278 32.99857016519218,187.1388786172925" /><polyline points="40.30955844348984,181.5746647680572 47.62054672178753,176.010450918822" /><polyline points="47.62054672178753,176.010450918822 54.58938132607629,169.0588280203218" /><polyline points="47.62054672178753,176.010450918822 54.58938132607629,169.0588280203218 60.74114769461759,161.1935376849893" /><polyline points="60.74114769461759,161.1935376849893 65.65661311566988,152.9505864511706 69.00079674397921,144.8917178233297" /><polyline points="69.00079674397921,144.8917178233297 72.34498037228853,136.8328491954886 73.88998162011029,129.5072617527024" /><polyline points="73.88998162011029,129.5072617527024 75.43498286793208,122.1816743099163 75.07551245346257,116.0885947303052" /><polyline points="75.07551245346257,116.0885947303052 74.71604203899304,109.9955151506941 72.47659727692538,105.5501767383185" /><polyline points="72.47659727692538,105.5501767383185 70.23715251485774,101.104838325943 66.27034786486936,98.61018354733726 58.41728055811726,87.098187709746 65.30217575289984,88.60721668230332" /><polyline points="58.41728055811726,87.098187709746 64.01368793946578,90.85884235507416" /><polyline points="69.6100953208143,94.61949700040233 75.2065027021628,98.38015164573056" /><polyline points="75.2065027021628,98.38015164573056 82.09139789694537,99.8891806182877" /><polyline points="66.27034786486936,98.61018354733726 70.23715251485774,101.104838325943 75.6609858713247,101.4788028702289" /><polyline points="75.6609858713247,101.4788028702289 81.08481922779168,101.8527674145148 87.59605601080249,100.0805566587935" /><polyline points="87.59605601080249,100.0805566587935 94.10729279381327,98.30834590307202 101.2622029769333,94.510733081629" /><polyline points="101.2622029769333,94.510733081629 108.4171131600532,90.71312026018606 115.7281014383509,85.1489064109508" /><polyline points="115.7281014383509,85.1489064109508 123.0390897166486,79.58469256171543 130.0079243209373,72.63306966321524" /><polyline points="130.0079243209373,72.63306966321524 136.9767589252261,65.68144676471506 143.1285252937674,57.81615642938251" /><polyline points="143.1285252937674,57.81615642938251 149.2802916623087,49.95086609405008 154.195757083361,41.70791486023146" /><polyline points="154.195757083361,41.70791486023146 159.1112225044133,33.46496362641285 162.4554061327226,25.40609499857184" /><polyline points="162.4554061327226,25.40609499857184 165.799589761032,17.34722637073081 167.3445910088537,10.02163892794463" /><polyline points="167.3445910088537,10.02163892794463 168.8895922566755,2.696051485158495 168.530121842206,-3.397028094452623" /><polyline points="168.530121842206,-3.397028094452623 168.1706514277365,-9.490107674063676 165.9312066656688,-13.93544608643924" /><polyline points="165.9312066656688,-13.93544608643924 163.6917619036012,-18.38078449881483 159.7249572536128,-20.87543927742059" /><polyline points="159.7249572536128,-20.87543927742059 154.1299220731983,-24.74722149543853 147.1333387962405,-26.45138899954401" /><polyline points="147.1333387962405,-26.45138899954401 140.1367555192826,-28.15555650364946 132.2154297337054,-27.57597309470767" /><polyline points="132.2154297337054,-27.57597309470767 140.5216727662246,-30.39980976518427 148.6467763097353,-35.27545989471343" /><polyline points="174.2894284064552,-59.09432405313897 182.4145319499659,-63.96997418266812" /><polyline points="190.5396354934766,-68.84562431219727 193.3877415140057,-87.38281240448734 192.8194978307048,-77.52765982847465" /><polyline points="193.3877415140057,-87.38281240448734 192.3564528584267,-77.48363272542852" /><polyline points="191.3251642028477,-67.58445304636972 190.2938755472687,-57.68527336731093" /><polyline points="190.2938755472687,-57.68527336731093 189.7256318639679,-47.83012079129832" /><polyline points="190.2938755472687,-57.68527336731093 189.7256318639679,-47.83012079129832 189.6591580208951,-38.69060767997743" /><polyline points="189.6591580208951,-38.69060767997743 190.0989841006025,-30.88957674812525 191.015136682605,-24.95865536193431" /><polyline points="191.015136682605,-24.95865536193431 190.0989841006025,-30.88957674812525 188.7689393007546,-34.54620609749692" /><polyline points="188.7689393007546,-34.54620609749692 187.4388945009067,-38.20283544686867 185.7855978383202,-39.3359795121272" /><polyline points="185.7855978383202,-39.3359795121272 187.649476928292,-40.80354262642005 189.5969181658735,-44.77180091928795" /><polyline points="186.9669378571604,-60.9837916038703 188.9143790947419,-64.95204989673816" /><polyline points="190.8618203323234,-68.92030818960609 181.7434728525874,-83.01144464033591 184.0411302283707,-73.40329566561121" /><polyline points="181.7434728525874,-83.01144464033591 185.2928298161516,-74.39084627406667" /><polyline points="188.8421867797159,-65.77024790779738 192.3915437432803,-57.14964954152813" /><polyline points="192.3915437432803,-57.14964954152813 194.6892011190636,-47.54150056680339" /><polyline points="192.3915437432803,-57.14964954152813 194.6892011190636,-47.54150056680339 195.5785773539649,-37.60058045803375" /><polyline points="195.5785773539649,-37.60058045803375 194.9990629273391,-28.0043464924846 192.990150789668,-19.4067661563817" /><polyline points="192.990150789668,-19.4067661563817 194.9990629273391,-28.0043464924846 198.3004687337575,-35.01736230740915" /><polyline points="198.3004687337575,-35.01736230740915 201.6018745401759,-42.03037812233371 205.9707886654652,-46.98090397784941" /><polyline points="205.9707886654652,-46.98090397784941 200.8321004989714,-44.43023823766516 195.2738313977361,-44.45325626783151" /><polyline points="165.2414936528649,-43.41874826189893 159.6832245516295,-43.44176629206529" /><polyline points="154.1249554503941,-43.46478432223163 135.8755482115284,-50.54363737228036 142.0051150710085,-42.80649228067838" /><polyline points="135.8755482115284,-50.54363737228036 143.771739649704,-44.70645437658953" /><polyline points="151.6679310878796,-38.86927138089869 159.5641225260553,-33.03208838520785" /><polyline points="159.5641225260553,-33.03208838520785 165.6936893855353,-25.29494329360588" /><polyline points="159.5641225260553,-33.03208838520785 165.6936893855353,-25.29494329360588 169.6389118144344,-16.18510975784859" /><polyline points="169.6389118144344,-16.18510975784859 171.1309294240114,-6.323407878686193 170.0680636798494,3.618103658049387" /><polyline points="171.5600812894264,13.47980553721181 162.0503262068443,-4.081886561324246 162.1031306453155,5.599112898914144" /><polyline points="162.0503262068443,-4.081886561324246 164.5389655251616,5.474667889877179" /><polyline points="167.0276048434789,15.03122234107861 169.5162441617962,24.58777679228004" /><polyline points="169.5162441617962,24.58777679228004 169.5690486002674,34.26877625251843" /><polyline points="169.5162441617962,24.58777679228004 168.9957984393156,7.180163863931914 164.2375907072,14.64210524948643" /><polyline points="168.9957984393156,7.180163863931914 166.6674701409846,15.54817070760165" /><polyline points="164.3391418426535,23.91617755127143 162.0108135443225,32.28418439494118" /><polyline points="162.0108135443225,32.28418439494118 157.2526058122069,39.74612578049572" /><polyline points="162.0108135443225,32.28418439494118 170.8058619273367,20.41635661675833 162.6165426299989,23.31370112584745" /><polyline points="170.8058619273367,20.41635661675833 164.2904323020612,24.98775234809974" /><polyline points="157.7750026767859,29.55914807944115 151.2595730515106,34.13054381078253" /><polyline points="151.2595730515106,34.13054381078253 143.0702537541729,37.02788831987164" /><polyline points="151.2595730515106,34.13054381078253 166.0590719819465,31.993745451022 156.956066603738,29.49426634147586" /><polyline points="166.0590719819465,31.993745451022 157.5166174816732,31.25296396929899" /><polyline points="148.9741629813999,30.51218248757599 140.4317084811265,29.77140100585298" /><polyline points="140.4317084811265,29.77140100585298 131.3287031029179,27.27192189630683" /><polyline points="97.71943597975981,26.06749359723792 90.69469085968659,24.0118811748942" /><polyline points="83.6699457396134,21.95626875255047 64.5020420406904,16.53512102978138 71.39787494645672,23.64022677605658" /><polyline points="64.5020420406904,16.53512102978138 73.03260634837669,21.61609067595495" /><polyline points="81.56317065606298,26.69706032212851 90.09373496374927,31.77802996830209" /><polyline points="90.09373496374927,31.77802996830209 96.98956786951557,38.88313571457727" /><polyline points="90.09373496374927,31.77802996830209 83.565283852171,25.29104501996531 79.12898552806459,17.24306323094986" /><polyline points="79.12898552806459,17.24306323094986 74.6926872039582,9.195081441934411 72.65086806678188,0.1345594712429135" /><polyline points="72.65086806678188,0.1345594712429135 72.15906141709523,9.590162024528334 69.16714479097281,18.79646147252334" /><polyline points="59.96660011958093,57.72350887771306 56.97468349345851,66.92980832570807" /><polyline points="53.98276686733611,76.13610777370305 44.88022581857506,90.70906822015779 53.08111056405701,87.01682976837601" /><polyline points="44.88022581857506,90.70906822015779 51.48122711846484,85.02606525232763" /><polyline points="58.0822284183546,79.34306228449748 64.68322971824432,73.6600593166673" /><polyline points="64.68322971824432,73.6600593166673 72.88411446372626,69.96782086488555" /><polyline points="64.68322971824432,73.6600593166673 72.88411446372626,69.96782086488555 82.12600591199862,68.51796687792853" /><polyline points="82.12600591199862,68.51796687792853 91.77908443380936,69.4093025090104 101.1855086803637,72.58108470787471" /><polyline points="101.1855086803637,72.58108470787471 91.77908443380936,69.4093025090104 83.2603467300632,64.17322545759835" /><polyline points="83.2603467300632,64.17322545759835 74.74160902631704,58.9371484061863 67.69109576200957,51.99360650025376" /><polyline points="67.69109576200957,51.99360650025376 60.64058249770211,45.05006459432126 55.53877450027186,36.87224874001203" /><polyline points="55.53877450027186,36.87224874001203 50.43696650284161,28.69443288570278 47.6315435561771,19.83964771900832" /><polyline points="47.6315435561771,19.83964771900832 44.82612060951258,10.98486255231385 44.50826765124833,2.056547049120026" /><polyline points="44.50826765124833,2.056547049120026 44.19041469298408,-6.871768454073807 46.38179287694899,-15.26516434696335" /><polyline points="46.38179287694899,-15.26516434696335 52.76909740179781,-34.21778011891536 45.30010128840748,-27.59694785500948" /><polyline points="52.76909740179781,-34.21778011891536 47.24970446001317,-25.8852872339676" /><polyline points="41.73031151822856,-17.55279434901985 36.21091857644394,-9.220301464072094" /><polyline points="36.21091857644394,-9.220301464072094 28.74192246305361,-2.599469200166208" /><polyline points="36.21091857644394,-9.220301464072094 51.23457971019124,-21.81750959115974 41.45445549781535,-20.10525741498876" /><polyline points="51.23457971019124,-21.81750959115974 42.28360526234859,-17.67078526632664" /><polyline points="33.33263081450588,-13.52406094149352 24.3816563666632,-9.377336616660411" /><polyline points="24.3816563666632,-9.377336616660411 14.60153215428729,-7.665084440489437" /><polyline points="24.3816563666632,-9.377336616660411 42.84915555648224,-11.61145795410756 33.89448838189519,-15.45980521871909" /><polyline points="42.84915555648224,-11.61145795410756 33.43413823606669,-13.02527593140562" /><polyline points="24.01912091565111,-14.43909390870369 14.60410359523555,-15.85291188600177" /><polyline points="14.60410359523555,-15.85291188600177 5.649436420648485,-19.70125915061329" /><polyline points="-32.47098300684227,-22.92200177249207 -40.7696384114508,-24.2567508058908" /><polyline points="-49.06829381605925,-25.59149983928953 -64.99458031702959,-37.39669897305926 -60.58415632887246,-28.4690089702172" /><polyline points="-64.99458031702959,-37.39669897305926 -58.5895506025951,-29.71997620299808" /><polyline points="-52.18452088816064,-22.04325343293689 -45.77949117372618,-14.36653066287569" /><polyline points="-45.77949117372618,-14.36653066287569 -41.36906718556906,-5.438840660033628" /><polyline points="-45.77949117372618,-14.36653066287569 -49.14791494178067,-23.67063177669165 -50.25667517384167,-33.60446690571809" /><polyline points="-50.25667517384167,-33.60446690571809 -51.36543540590268,-43.53830203474448 -50.13897192446834,-53.42489673137695" /><polyline points="-50.13897192446834,-53.42489673137695 -53.61707765996509,-44.25929755734371 -59.10979849149179,-36.43931434275125" /><polyline points="-75.70493621573229,-6.462745563854496 -81.19765704725884,1.357237650737954" /><polyline points="-86.69037787878558,9.177220865330423 -94.69458493173771,14.27919153515068 -87.83058410771665,15.70471915013593" /><polyline points="-94.69458493173771,14.27919153515068 -89.06987542777766,13.69661175040224" /><polyline points="-83.44516592381764,13.1140319656538 -77.82045641985772,12.53145218090537" /><polyline points="-77.82045641985772,12.53145218090537 -70.95645559583666,13.95697979589061" /><polyline points="-77.82045641985772,12.53145218090537 -70.95645559583666,13.95697979589061 -63.32093376461399,17.29346745944407" /><polyline points="-63.32093376461399,17.29346745944407 -55.43423912069106,22.31353905110115 -47.83383687067208,28.67508498795095" /><polyline points="-47.83383687067208,28.67508498795095 -40.23343462065315,35.03663092480078 -33.43727961761828,42.30612236419872" /><polyline points="-33.43727961761828,42.30612236419872 -26.6411246145834,49.57561380359669 -21.11236359081235,57.25764691735045" /><polyline points="-21.11236359081235,57.25764691735045 -15.58360256704131,64.93968003110417 -11.69901144959438,72.51073695767137" /><polyline points="-11.69901144959438,72.51073695767137 -7.814420332147588,80.08179388423859 -5.838727586088577,87.02591960583683 4.848061621993905,98.35187810494024 3.652546564460044,94.16035802121695" /><polyline points="4.848061621993905,98.35187810494024 1.463272912752882,93.25081389013693" /><polyline points="-1.921515796488223,88.1497496753336 -5.306304505729243,83.04868546053024" /><polyline points="-5.306304505729243,83.04868546053024 -6.501819563263096,78.85716537680692" /><polyline points="-5.838727586088577,87.02591960583683 -3.863034840029563,93.97004532743507 -3.930880661015693,99.81400915184776" /><polyline points="-3.930880661015693,99.81400915184776 -3.998726482001881,105.6579729762605 -6.1054872894534,110.0035184264607" /><polyline points="-6.1054872894534,110.0035184264607 -8.212248096905078,114.3490638766611 -12.21435162338113,116.9000492115712" /><polyline points="-12.21435162338113,116.9000492115712 -16.21645514985718,119.4510345464814 -21.84116465381726,120.0336143312297" /><polyline points="-21.84116465381726,120.0336143312297 -27.46587415777725,120.6161941159782 -34.32987498179822,119.190666500993" /><polyline points="-34.32987498179822,119.190666500993 -41.1938758058192,117.7651388860077 -48.82939763704188,114.4286512224543" /><polyline points="-48.82939763704188,114.4286512224543 -56.46491946826455,111.0921635589008 -64.35161411218743,106.0720919672437" /><polyline points="-64.35161411218743,106.0720919672437 -72.23830875611044,101.0520203755867 -79.83871100612947,94.69047443873693" /><polyline points="-79.83871100612947,94.69047443873693 -72.23830875611044,101.0520203755867 -65.44215375307554,108.3215118149847" /><polyline points="-65.44215375307554,108.3215118149847 -58.6459987500407,115.5910032543826 -53.11723772626961,123.2730363681364" /><polyline points="-53.11723772626961,123.2730363681364 -57.00182884371646,115.7019794415691 -58.97752158977546,108.7578537199709" /><polyline points="-60.2463413061921,75.327411545514 -62.22203405225101,68.38328582391573" /><polyline points="-64.19772679831,61.4391601023175 -53.05470579215307,47.13741162255672 -60.38263131973071,49.85598588612679" /><polyline points="-53.05470579215307,47.13741162255672 -59.73194522378394,52.24621409725981" /><polyline points="-66.40918465541495,57.35501657196292 -73.08642408704596,62.46381904666601" /><polyline points="-73.08642408704596,62.46381904666601 -80.41434961462365,65.18239331023608" /><polyline points="-73.08642408704596,62.46381904666601 -80.41434961462365,65.18239331023608 -87.89357522341312,65.32547301926719" /><polyline points="-87.89357522341312,65.32547301926719 -95.01440404818025,62.8833075280393 -101.291563372243,58.02232637891026" /><polyline points="-64.19772679831,61.4391601023175 -64.05766647556233,53.36127765222378 -62.42532264443848,46.81984163767681" /><polyline points="-62.42532264443848,46.81984163767681 -60.79297881331458,40.27840562312984 -57.77959300833,35.71920409828691" /><polyline points="-57.77959300833,35.71920409828691 -54.76620720334533,31.16000257344395 -50.57713668725415,28.89373758778632" /><polyline points="-50.57713668725415,28.89373758778632 -46.38806617116294,26.62747260212868 -41.30878917687043,26.80858636924894" /><polyline points="-41.30878917687043,26.80858636924894 -36.22951218257791,26.9897001363692 -30.60617304334293,29.60585005234275" /><polyline points="-30.60617304334293,29.60585005234275 -24.98283390410796,32.22199996831631 -19.19865388926228,37.09489973976176" /><polyline points="-19.19865388926228,37.09489973976176 -13.41447387441646,41.96779951120717 -7.863635293162115,48.76536907154807" /><polyline points="-7.863635293162115,48.76536907154807 -2.312796711907833,55.56293863188898 2.62641995963701,63.82193484910298" /><polyline points="2.62641995963701,63.82193484910298 7.565636631181861,72.08093106631695 11.55663193929292,81.2385169968375" /><polyline points="11.55663193929292,81.2385169968375 15.54762724740406,90.39610292735802 18.31842145726519,99.82820422364637" /><polyline points="18.31842145726519,99.82820422364637 21.0892156671263,109.2603055199347 22.45098373228945,118.3241400659333" /><polyline points="22.45098373228945,118.3241400659333 23.81275179745254,127.3879746119318 23.6726914747048,135.4658570620256" /><polyline points="23.6726914747048,135.4658570620256 23.53263115195714,143.5437395121193 21.90028732083329,150.0851755266663" /><polyline points="21.90028732083329,150.0851755266663 20.26794348970949,156.6266115412132 17.25455768472481,161.1858130660562" /><polyline points="17.25455768472481,161.1858130660562 14.24117187974025,165.7450145908991 10.05210136364898,168.0112795765568" /><polyline points="10.05210136364898,168.0112795765568 5.863030847557737,170.2775445622144 0.7837538532652197,170.0964307950941" /><polyline points="0.7837538532652197,170.0964307950941 -4.295523141027391,169.9153170279739 -9.918862280262264,167.2991671120003" /><polyline points="-9.918862280262264,167.2991671120003 -15.54220141949722,164.6830171960268 -21.32638143434292,159.8101174245814" /><polyline points="-21.32638143434292,159.8101174245814 -27.11056144918876,154.9372176531359 -32.66140003044309,148.139648092795" /><polyline points="-32.66140003044309,148.139648092795 -38.21223861169733,141.3420785324541 -43.15145528324221,133.0830823152401" /><polyline points="-43.15145528324221,133.0830823152401 -48.09067195478709,124.8240860980261 -52.08166726289814,115.6665001675056" /><polyline points="-52.08166726289814,115.6665001675056 -56.0726625710093,106.5089142369851 -58.8434567808704,97.07681294069671" /><polyline points="-58.8434567808704,97.07681294069671 -55.48641029612729,77.42290805403003 -59.47969256200989,85.84274162817812" /><polyline points="-55.48641029612729,77.42290805403003 -58.42235286743445,86.86813952049918" /><polyline points="-61.35829543874156,96.31337098696835 -64.29423801004877,105.7586024534375" /><polyline points="-64.29423801004877,105.7586024534375 -68.28752027593141,114.1784360275856" /><polyline points="-64.29423801004877,105.7586024534375 -52.20634905063063,90.4469583251944 -59.22031915348614,94.54193204709313" /><polyline points="-52.20634905063063,90.4469583251944 -58.96562301720986,96.5296178142594" /><polyline points="-65.72489698378912,102.6122773033244 -72.48417095036838,108.6949367923894" /><polyline points="-72.48417095036838,108.6949367923894 -79.4981410532239,112.7899105142881" /><polyline points="-72.48417095036838,108.6949367923894 -55.24478161658222,102.8338096823541 -62.73998798172521,101.2622813752767" /><polyline points="-55.24478161658222,102.8338096823541 -63.5864682106487,103.5372980926192" /><polyline points="-71.92815480471506,104.2407865028843 -80.26984139878152,104.9442749131494" /><polyline points="-80.26984139878152,104.9442749131494 -87.76504776392451,103.3727466060719" /><polyline points="-121.9782743691135,108.4617169644748 -131.4485541228518,108.5026602913774" /><polyline points="-140.9188338765903,108.5436036182799 -149.2694101219148,102.2723134674829 -145.4836997461939,109.6505185234014" /><polyline points="-149.2694101219148,102.2723134674829 -145.1484940630865,107.7146827701598" /><polyline points="-141.0275780042583,113.1570520728368 -136.9066619454301,118.5994213755137" /><polyline points="-136.9066619454301,118.5994213755137 -133.1209515697091,125.9776264314321" /><polyline points="-136.9066619454301,118.5994213755137 -138.213225838084,111.0091805111863 -139.0110690096262,101.9931413200864" /><polyline points="-139.0110690096262,101.9931413200864 -139.8089121811685,92.9771021289867 -140.0436629379567,83.14969278227873" /><polyline points="-140.0436629379567,83.14969278227873 -140.3880024720539,93.11875057817852 -141.2879661268356,102.5500820091266" /><polyline points="-134.6704924018977,139.1763299401445 -135.5704560566794,148.6076613710926" /><polyline points="-136.4704197114611,158.0389928020406 -127.6486893566597,168.2664121358988 -128.8289751028925,166.4214278341857" /><polyline points="-127.6486893566597,168.2664121358988 -130.5428820428176,164.6643270796495" /><polyline points="-133.4370747289753,161.0622420234003 -136.3312674151332,157.4601569671509" /><polyline points="-136.3312674151332,157.4601569671509 -137.511553161366,155.6151726654378" /><polyline points="-136.3312674151332,157.4601569671509 -137.511553161366,155.6151726654378 -136.8974974445825,155.653021749442" /><polyline points="-136.8974974445825,155.653021749442 -134.5309471471066,157.571124866637 -130.5731787608017,161.2387664594014" /><polyline points="-130.5731787608017,161.2387664594014 -126.6154103744968,164.9064080521657 -121.3361392743683,170.0736444070168" /><polyline points="-121.3361392743683,170.0736444070168 -116.0568681742396,175.2408807618679 -109.8158679613533,181.5555732604846" /><polyline points="-109.8158679613533,181.5555732604846 -103.5748677484668,187.8702657591012 -96.79745227359012,194.9020785432253" /><polyline points="-96.79745227359012,194.9020785432253 -90.02003679871352,201.9338913273495 -83.16807572625088,209.2036179763632 -66.31827544855209,219.2336442828312 -74.20459586625913,213.9680233409609" /><polyline points="-66.31827544855209,219.2336442828312 -74.76158450636125,213.9119964837445" /><polyline points="-83.20489356417022,208.590348684658 -91.64820262197928,203.2687008855713" /><polyline points="-91.64820262197928,203.2687008855713 -99.53452303968636,198.0030799437011" /></svg>
