<svg baseProfile="full" fill-opacity="0.0" height="100%" stroke="black" stroke-width="1" version="1.1" viewBox="-754.4443870593653,-125.6323681989317,1508.8887741187314,278.2502726525141" width="100%" xmlns="http://www.w3.org/2000/svg" xmlns:ev="http://www.w3.org/2001/xml-events" xmlns:xlink="http://www.w3.org/1999/xlink"><defs /><polyline points="-754.4443870593653,-18.71385136450358 -742.7154231245014,-33.37388996440543 -730.9975058577355,-47.60239862179608 -719.300594274239,-60.81543612958014 -707.6135658456117,-73.44819972095583 -695.9532852058297,-84.07560651894934 -684.30084592698,-93.95443054252875 -672.6623047416223,-102.2318916197475 -661.029770097001,-109.662355715829 -649.4145004878518,-113.4684603473486 -637.8017788884315,-116.3257494929882 -626.1919580031968,-117.2579149063313 -614.5824793467269,-117.2207244995649 -602.9695880671266,-114.2902604227513 -591.3540931721113,-110.4119142523198 -579.7312443560829,-104.6831954966566 -568.1036717925376,-98.05866871805618 -556.4427663855004,-87.37540332165635 -544.7734202409825,-75.9849862831487 -533.085649747361,-63.30607789079501 -521.3879621801395,-50.05048306744272 -509.6581377587385,-35.35951721163202 -497.9169348121487,-20.29408415341664 -486.1522201282603,-4.644095283327368 -474.375457142971,11.21387112090835 -462.5495709679078,27.32665270061428 -450.7113933350475,43.35771361262677 -438.8489307802293,59.05215281825398 -426.9745624642524,74.49290666684547 -415.0659368281911,88.84269389244942 -403.1465162203547,102.7232336278243 -391.2066774055722,115.5167687772368 -379.2572890942965,127.6964724587354 -367.2618930635314,135.3576936502389 -355.2609693953804,142.1519999004057 -343.251025128358,147.1420844360472 -331.2376204770026,151.2013779970962 -319.2181763966627,152.3940380850709 -307.1981906519229,152.617904453582 -295.1793445226111,150.9052595968555 -283.1621755574999,148.231890785658 -271.1589257664934,141.8462711741896 -259.1608955406621,134.5820142912972 -247.1752689978911,125.642264051042 -235.1967817781223,115.9117086315505 -223.243146936484,104.030363596749 -211.2988412871079,91.51459548240797 -199.3745623683877,77.86770814797256 -187.460908663168,63.72820961718111 -175.6049296517626,47.92061963985513 -163.7611034908279,31.94684423308747 -151.9418538697747,15.81415373239115 -140.1349391819766,-0.3106925239770548 -128.3646821765263,-16.06376867904669 -116.6063815792019,-31.57833432093256 -104.8713398563042,-46.4488539035925 -93.1475166021919,-60.91616385967703 -81.46489726286639,-73.26551588477652 -69.79147533915871,-84.96866306907546 -58.13488577866907,-95.2550920582252 -46.48587037708204,-104.7761240544756 -34.8558878928683,-111.8063256449745 -23.23094347899773,-117.9513667508655 -11.61400317354959,-122.2627867833262 -4.875121061086298e-13,-125.6323681989317 11.61400317354858,-122.2627867833269 23.23094347899669,-117.9513667508668 34.85588789286737,-111.8063256449765 46.48587037708094,-104.7761240544782 58.13488577866806,-95.2550920582283 69.7914753391577,-84.9686630690792 81.46489726286538,-73.2655158847807 93.1475166021909,-60.91616385968183 104.8713398563032,-46.44885390359757 116.606381579201,-31.57833432093793 128.3646821765254,-16.06376867905222 140.1349391819757,-0.3106925239826739 151.9418538697741,15.81415373238556 163.7611034908272,31.94684423308174 175.6049296517619,47.92061963984958 187.4609086631673,63.72820961717578 199.3745623683872,77.86770814796766 211.2988412871074,91.51459548240337 223.2431469364835,104.0303635967449 235.1967817781217,115.9117086315468 247.1752689978905,125.6422640510391 259.1608955406617,134.582014291295 271.158925766493,141.8462711741878 283.1621755574995,148.2318907856569 295.1793445226107,150.9052595968551 307.1981906519226,152.6179044535824 319.2181763966624,152.3940380850719 331.2376204770022,151.2013779970979 343.2510251283576,147.1420844360496 355.2609693953801,142.1519999004088 367.2618930635313,135.3576936502427 379.2572890942962,127.6964724587395 391.2066774055721,115.5167687772413 403.1465162203547,102.7232336278293 415.0659368281911,88.84269389245468 426.9745624642525,74.49290666685117 438.8489307802295,59.05215281825957 450.7113933350477,43.35771361263257 462.549570967908,27.32665270062014 474.3754571429711,11.21387112091414 486.1522201282605,-4.64409528332145 497.916934812149,-20.29408415341093 509.6581377587385,-35.35951721162661 521.3879621801397,-50.05048306743775 533.085649747361,-63.30607789079056 544.7734202409827,-75.98498628314455 556.4427663855005,-87.37540332165277 568.1036717925379,-98.05866871805318 579.7312443560829,-104.6831954966542 591.3540931721114,-110.411914252318 602.9695880671267,-114.2902604227503 614.5824793467269,-117.2207244995645 626.1919580031968,-117.2579149063317 637.8017788884315,-116.3257494929894 649.4145004878518,-113.4684603473504 661.0297700970008,-109.6623557158318 672.6623047416222,-102.231891619751 684.30084592698,-93.95443054253295 695.9532852058297,-84.07560651895416 707.6135658456114,-73.44819972096107 719.3005942742387,-60.815436129586 730.9975058577355,-47.60239862180233 742.7154231245014,-33.37388996441176 754.444387059366,-18.71385136450966" /></svg>
