<svg transform="scale(1,-1)" viewBox="-563.1148535400121 -256.7746461774184 1134.093380157768 760.8432032080275" xmlns="http://www.w3.org/2000/svg">
<style>
svg { stroke:black; stroke-width:2; fill:none;}
</style>
<polyline points="567.9785266177561 -98.15720521809519 566.1853282774892 -88.54822969647485"/>
<polyline points="566.1853282774894 -88.54822969647482 559.1788427616001 -94.93346758746542"/>
<polyline points="559.1788427616001 -94.93346758746542 559.3724174103744 -86.45033304387114"/>
<polyline points="559.3724174103744 -86.45033304387114 549.8615946514064 -89.51540777473015"/>
<polyline points="549.8615946514064 -89.51540777473015 551.590922214982 -99.00965674369266"/>
<polyline points="551.590922214982 -99.00965674369266 552.455778034408 -93.13282420406243"/>
<polyline points="552.455778034408 -93.13282420406243 554.1851055979836 -102.62707317302505"/>
<polyline points="554.1851055979836 -102.62707317302505 559.4991183111745 -98.87601026219816"/>
<polyline points="559.4991183111745 -98.87601026219816 561.1889708571234 -94.00490458909539"/>
<polyline points="561.1889708571234 -94.00490458909539 554.4219672713475 -89.86340226401447"/>
<polyline points="554.4219672713475 -89.86340226401447 559.0617895244347 -84.60100490152323"/>
<polyline points="559.0617895244347 -84.60100490152323 550.6213623358185 -79.34620390229279"/>
<polyline points="550.6213623358185 -79.34620390229279 549.5033963474419 -89.27991649527131"/>
<polyline points="549.5033963474419 -89.27991649527131 545.9855784182032 -80.28627158796635"/>
<polyline points="545.9855784182032 -80.28627158796635 544.2477682865009 -90.05156136896169"/>
<polyline points="544.2477682865009 -90.05156136896169 537.9551230733956 -83.52022067526613"/>
<polyline points="537.9551230733956 -83.52022067526613 546.327482759454 -78.73670143792694"/>
<polyline points="546.327482759454 -78.73670143792694 538.6883161934314 -85.11910512860723"/>
<polyline points="538.6883161934314 -85.11910512860723 539.810601065992 -77.7325219973245"/>
<polyline points="539.810601065992 -77.7325219973245 537.1427909695691 -81.19979231907148"/>
<polyline points="537.1427909695691 -81.19979231907148 539.3523967292952 -90.90121279299377"/>
<polyline points="539.3523967292952 -90.90121279299377 529.6857011514776 -90.06388317919266"/>
<polyline points="529.6857011514776 -90.06388317919266 530.2806675388972 -80.13353184014086"/>
<polyline points="530.2806675388972 -80.13353184014086 537.6363483225131 -86.62416730814473"/>
<polyline points="537.6363483225131 -86.62416730814473 540.9764570128995 -94.3852000718196"/>
<polyline points="537.6363483225131 -86.62416730814473 540.9764570128995 -94.3852000718196"/>
<polyline points="540.9764570128995 -94.3852000718196 541.2639956479353 -104.3610336297333"/>
<polyline points="541.2639956479353 -104.3610336297333 534.7001038122547 -106.25756334528643 514.7339489055375 -105.24117157004665 505.87205062873784 -109.6703271596442 496.29540065470667 -109.19055867034109 475.70290396410223 -103.82909222083858"/>
<polyline points="475.70290396410223 -103.82909222083858 469.19341631481427 -108.95389603798723 451.0874095843838 -110.65833423142483 444.57792193509584 -115.78313804857343 436.81019821165575 -115.93524200497652 424.4642740584647 -108.18668111453908"/>
<polyline points="424.4642740584647 -108.18668111453908 421.75638860336954 -112.53178214024359"/>
<polyline points="424.4642740584647 -108.18668111453908 421.75638860336954 -112.53178214024359"/>
<polyline points="424.4642740584647 -108.18668111453908 418.13929894650164 -110.11785364619786"/>
<polyline points="418.13929894650164 -110.11785364619786 408.8936771597831 -113.70727928790323"/>
<polyline points="436.81019821165575 -115.93524200497652 430.48522309969275 -117.86641453663528 415.5197161088066 -106.56723211171867 412.10944227441917 -99.71782510458749 405.861465870035 -92.21440543354788 395.3374269380003 -64.7081708423575"/>
<polyline points="395.3374269380003 -64.7081708423575 395.5774280987717 -55.58648828407157 386.3460682532008 -38.502497459200725 386.5860694139722 -29.38081490091476 383.27220841511485 -19.9519921395211 379.21380671275017 6.654208287399948"/>
<polyline points="379.21380671275017 6.654208287399948 386.4155549910195 13.413772255680655"/>
<polyline points="379.21380671275017 6.654208287399948 382.8551640902198 15.950212458362577"/>
<polyline points="383.27220841511485 -19.9519921395211 382.47880197144525 -10.002422078596043"/>
<polyline points="383.27220841511485 -19.9519921395211 382.47880197144525 -10.002422078596043"/>
<polyline points="395.3374269380003 -64.7081708423575 391.22388569597916 -56.17248058329093"/>
<polyline points="391.22388569597916 -56.17248058329093 381.8128873974283 -52.87077777876288"/>
<polyline points="391.22388569597916 -56.17248058329093 381.8128873974283 -52.87077777876288"/>
<polyline points="381.8128873974283 -52.87077777876288 374.0778520519119 -50.87409997571298"/>
<polyline points="405.861465870035 -92.21440543354788 401.74792462801395 -83.67871517448137 384.86068188630173 -74.88130466632175 380.16400579105505 -68.30367818906542 372.01756549411607 -65.49886290876165 351.6987740539504 -70.70373420948017"/>
<polyline points="351.6987740539504 -70.70373420948017 349.23897899236295 -67.15696252269431 335.2876181512805 -61.7304251454601 332.827823089693 -58.183653458674236 326.4535906292181 -57.75297393425799 311.3818480592191 -71.41692606299496"/>
<polyline points="311.3818480592191 -71.41692606299496 311.5133363662859 -71.9136665291006"/>
<polyline points="311.3818480592191 -71.41692606299496 311.5133363662859 -71.9136665291006"/>
<polyline points="311.3818480592191 -71.41692606299496 307.18893104575386 -71.16249630344902"/>
<polyline points="307.18893104575386 -71.16249630344902 301.69548117797444 -64.91705522563724"/>
<polyline points="326.4535906292181 -57.75297393425799 322.2606736157528 -57.498544174712045 303.3827172949965 -61.612161814336105 296.5137504677894 -68.11264449167383 287.0368415206199 -71.29449169949622 262.6667714389681 -81.49365823334739"/>
<polyline points="262.6667714389681 -81.49365823334739 257.5090676716262 -90.0165474941999 240.0086456420727 -99.63999886454228 234.85094187473072 -108.16288812539482 226.69102605634887 -113.0745411913613 208.26576016836373 -121.66978741709916"/>
<polyline points="208.26576016836373 -121.66978741709916 210.20302740135588 -130.6189339863862"/>
<polyline points="208.26576016836373 -121.66978741709916 205.85216265811349 -130.03107776828904"/>
<polyline points="226.69102605634887 -113.0745411913613 220.28089519531602 -119.72461038896847"/>
<polyline points="262.6667714389681 -81.49365823334739 254.31388257754037 -86.99175815979525"/>
<polyline points="303.3827172949965 -61.612161814336105 296.21940127195643 -62.10065571961041"/>
<polyline points="296.21940127195643 -62.10065571961041 291.21893690682225 -53.64251107703591"/>
<polyline points="322.2606736157528 -57.498544174712045 315.0973575927127 -57.987038079986334"/>
<polyline points="326.4535906292181 -57.75297393425799 322.2606736157528 -57.498544174712045"/>
<polyline points="351.6987740539504 -70.70373420948017 345.3009442095215 -67.28284803930126"/>
<polyline points="345.3009442095215 -67.28284803930126 335.3276392160944 -66.59115862064355"/>
<polyline points="345.3009442095215 -67.28284803930126 335.3276392160944 -66.59115862064355"/>
<polyline points="335.3276392160944 -66.59115862064355 328.3052138832119 -59.47385893719427"/>
<polyline points="372.01756549411607 -65.49886290876165 365.6197356496871 -62.07797673858273 346.0315250359396 -65.71199138320362 338.52985600805476 -71.04641515284426 329.2978776113735 -74.82247712279081 309.39741834718166 -92.3034662158728"/>
<polyline points="309.39741834718166 -92.3034662158728 304.60722347820104 -100.94840635282448 287.939694635524 -111.94561795452717 283.14949976654344 -120.59055809147883 276.03723752391033 -127.12422063281403 263.91562100635383 -145.66103848097342"/>
<polyline points="263.91562100635383 -145.66103848097342 262.82615228056255 -155.4938439279892"/>
<polyline points="263.91562100635383 -145.66103848097342 262.82615228056255 -155.4938439279892"/>
<polyline points="263.91562100635383 -145.66103848097342 258.6895893671942 -153.91088788504968"/>
<polyline points="258.6895893671942 -153.91088788504968 250.61697055347116 -158.76404484853649"/>
<polyline points="276.03723752391033 -127.12422063281403 270.8112058847507 -135.37407003689034 254.11602194598035 -137.11423455589537 249.63379551394198 -138.8536604371339 241.97591767952113 -137.3677460051246 225.06827181787816 -118.80880875207825"/>
<polyline points="225.06827181787816 -118.80880875207825 223.46049460611064 -116.67766990985122 210.86683226152476 -112.24758985071453 209.25905504975717 -110.11645100848742 203.8931948488142 -105.51532941255554 192.99710783885087 -80.30074616793462"/>
<polyline points="192.99710783885087 -80.30074616793462 198.5344325839851 -76.23136353039364"/>
<polyline points="192.99710783885087 -80.30074616793462 194.43078154729494 -74.64196219022863"/>
<polyline points="203.8931948488142 -105.51532941255554 200.87248405328492 -100.34961703258381"/>
<polyline points="203.8931948488142 -105.51532941255554 200.87248405328492 -100.34961703258381"/>
<polyline points="225.06827181787816 -118.80880875207825 219.3111043519239 -117.13705896486553"/>
<polyline points="219.3111043519239 -117.13705896486553 209.36624292127206 -116.4175560881846"/>
<polyline points="219.3111043519239 -117.13705896486553 209.36624292127206 -116.4175560881846"/>
<polyline points="209.36624292127206 -116.4175560881846 201.7737390573774 -121.4704070153918"/>
<polyline points="241.97591767952113 -137.3677460051246 236.21875021356675 -135.69599621791178 217.4099538660541 -128.93040159943305 210.96500200132567 -121.332107526476 202.08888176594397 -117.22836715800364 182.2036304028194 -107.16285898831374"/>
<polyline points="182.2036304028194 -107.16285898831374 178.4310918718709 -98.43363419412054 162.79911329826956 -87.431899759528 159.02657476732105 -78.70267496533486 152.25295212928646 -73.58004441555016 139.371538493407 -66.97918714268367"/>
<polyline points="139.371538493407 -66.97918714268367 138.98486274162406 -59.35337798933162"/>
<polyline points="139.371538493407 -66.97918714268367 138.98486274162406 -59.35337798933162"/>
<polyline points="139.371538493407 -66.97918714268367 134.66984504419884 -60.45455474926429"/>
<polyline points="134.66984504419884 -60.45455474926429 127.54876624347852 -53.4673346121679"/>
<polyline points="152.25295212928646 -73.58004441555016 147.55125868007823 -67.05541202213081 129.83911253830394 -68.94496080731963 124.45919148318626 -71.46761908972641 115.97179259693662 -74.91686789672832 95.54604364086038 -96.70829982589042"/>
<polyline points="95.54604364086038 -96.70829982589042 92.55262771157304 -103.34180323301513 77.8377768758642 -113.1033455517365 74.84436094657676 -119.73684895886119 68.24168481730348 -126.55358464187498 53.713998758327556 -152.48225167813175"/>
<polyline points="53.713998758327556 -152.48225167813175 61.017320204630416 -157.33141313559284"/>
<polyline points="53.713998758327556 -152.48225167813175 53.60357127443889 -161.7057941047639"/>
<polyline points="77.8377768758642 -113.1033455517365 71.23335259569625 -113.68979945053742"/>
<polyline points="115.97179259693662 -74.91686789672832 109.12550264491428 -79.7131938986636"/>
<polyline points="152.25295212928646 -73.58004441555016 147.55125868007823 -67.05541202213081"/>
<polyline points="162.79911329826956 -87.431899759528 155.16440212741844 -81.35986493708378"/>
<polyline points="202.08888176594397 -117.22836715800364 194.6555076600917 -111.00751303787665"/>
<polyline points="236.21875021356675 -135.69599621791178 228.04209122204648 -133.35152146211627"/>
<polyline points="254.11602194598035 -137.11423455589537 246.70399323381736 -142.7502386206955"/>
<polyline points="246.70399323381736 -142.7502386206955 239.32831849655466 -140.49548476281177"/>
<polyline points="270.8112058847507 -135.37407003689034 263.3991771725877 -141.01007410169052"/>
<polyline points="276.03723752391033 -127.12422063281403 270.8112058847507 -135.37407003689034"/>
<polyline points="309.39741834718166 -92.3034662158728 301.3106081672857 -98.17960489581519"/>
<polyline points="301.3106081672857 -98.17960489581519 291.8815919101474 -96.31896719626596"/>
<polyline points="301.3106081672857 -98.17960489581519 291.8815919101474 -96.31896719626596"/>
<polyline points="291.8815919101474 -96.31896719626596 282.8810018880312 -95.32307015090275"/>
<polyline points="329.2978776113735 -74.82247712279081 321.21106743147755 -80.69861580273319 304.1623473521508 -78.98759170223545 298.588627572791 -81.32575750610545 291.5033930874062 -78.89806263841662 281.3020070359657 -60.86020030188042"/>
<polyline points="281.3020070359657 -60.86020030188042 279.7446082978621 -61.141789031886 268.41831174833766 -56.72517170242969 266.8609130102341 -57.00676043243528 262.97782150783405 -52.94942272051718 261.1948045920227 -30.101585267853046"/>
<polyline points="261.1948045920227 -30.101585267853046 263.894457442901 -28.00633789378976"/>
<polyline points="261.1948045920227 -30.101585267853046 263.894457442901 -28.00633789378976"/>
<polyline points="261.1948045920227 -30.101585267853046 259.6045734499223 -26.7112289779758"/>
<polyline points="259.6045734499223 -26.7112289779758 253.40813292456153 -28.436807176076744"/>
<polyline points="262.97782150783405 -52.94942272051718 261.38759036573373 -49.55906643063988 248.09294613362115 -35.98105321801742 245.78987039927563 -26.513991946284083 239.05432035172788 -19.146759013847948 219.1017577467356 -1.0530112122212265"/>
<polyline points="219.1017577467356 -1.0530112122212265 218.19622096788382 8.602456121348608 207.05120663365898 25.154242567210378 206.14566985480712 34.80970990078024 200.53142840207826 42.44797104352358 183.15596774595159 54.92246243951307"/>
<polyline points="183.15596774595159 54.92246243951307 187.83202371941206 60.955900999667115"/>
<polyline points="183.15596774595159 54.92246243951307 183.59278406674113 62.40486121263204"/>
<polyline points="200.53142840207826 42.44797104352358 197.0132691068435 50.59160116899766"/>
<polyline points="200.53142840207826 42.44797104352358 197.0132691068435 50.59160116899766"/>
<polyline points="219.1017577467356 -1.0530112122212265 214.2989771614747 7.70843516274748"/>
<polyline points="214.2989771614747 7.70843516274748 204.95984140866773 10.083863679589484"/>
<polyline points="214.2989771614747 7.70843516274748 204.95984140866773 10.083863679589484"/>
<polyline points="204.95984140866773 10.083863679589484 200.31495867900156 15.634507154308295"/>
<polyline points="239.05432035172788 -19.146759013847948 234.25153976646698 -10.38531263887922 214.55589023531823 -6.910641339163921 206.01220644587463 -5.363227697934727 196.0580436264622 -6.1410001621901715 171.3072600632427 -23.08771223515816"/>
<polyline points="171.3072600632427 -23.08771223515816 164.28132998043102 -25.927759348062633 145.10023336837224 -29.646302652736487 138.07430328556057 -32.486349765640966 129.25662549709202 -36.80423621483058 111.35059037978678 -60.85311650984353"/>
<polyline points="111.35059037978678 -60.85311650984353 107.3787362170658 -67.5174055085315"/>
<polyline points="111.35059037978678 -60.85311650984353 107.3787362170658 -67.5174055085315"/>
<polyline points="111.35059037978678 -60.85311650984353 103.8555657785828 -66.23800126135606"/>
<polyline points="103.8555657785828 -66.23800126135606 94.88144187322102 -64.71432045514108"/>
<polyline points="129.25662549709202 -36.80423621483058 121.76160089588801 -42.189120966343054 104.80534649030842 -48.09903350218083 99.61544746019034 -55.00017945770063 92.44522690855895 -57.36453910609619 80.94563918684241 -55.67281734909714"/>
<polyline points="80.94563918684241 -55.67281734909714 79.59021281532141 -61.605956731252476 68.16706890078568 -67.92605971118977 66.81164252926473 -73.85919909334504 62.701696794383544 -75.53169524763722 59.08418348858847 -67.83302315987751"/>
<polyline points="59.08418348858847 -67.83302315987751 65.22910046568194 -72.32013335594871"/>
<polyline points="59.08418348858847 -67.83302315987751 61.73185596944008 -71.17070731923859"/>
<polyline points="62.701696794383544 -75.53169524763722 60.95427970634761 -78.11269466245322"/>
<polyline points="80.94563918684241 -55.67281734909714 75.56602540263752 -59.70330803851504"/>
<polyline points="104.80534649030842 -48.09903350218083 95.91464673003576 -52.64893228278824"/>
<polyline points="95.91464673003576 -52.64893228278824 89.81420445196922 -44.763390914663916"/>
<polyline points="121.76160089588801 -42.189120966343054 112.87090113561541 -46.73901974695049"/>
<polyline points="129.25662549709202 -36.80423621483058 121.76160089588801 -42.189120966343054"/>
<polyline points="171.3072600632427 -23.08771223515816 161.88074102263022 -24.570668416960515"/>
<polyline points="161.88074102263022 -24.570668416960515 153.2867806265596 -23.603350569261153"/>
<polyline points="161.88074102263022 -24.570668416960515 153.2867806265596 -23.603350569261153"/>
<polyline points="153.2867806265596 -23.603350569261153 145.17006366166538 -17.76276697598909"/>
<polyline points="196.0580436264622 -6.1410001621901715 186.6315245858497 -7.623956343992549 170.3682355766252 -10.999884171358058 163.99755619390126 -17.38976977172672 157.63200041549388 -19.61454375150458 152.14819282945615 -23.792849553454896"/>
<polyline points="152.14819282945615 -23.792849553454896 150.1272847402273 -31.33519154548795 139.86609896563598 -38.70939166810581 137.84519087640717 -46.25173366013888 134.93890517243597 -49.50056747966313 139.00682011973137 -50.85631955791958"/>
<polyline points="139.00682011973137 -50.85631955791958 141.76779523040835 -57.553587676225916"/>
<polyline points="139.00682011973137 -50.85631955791958 141.76779523040835 -57.553587676225916"/>
<polyline points="139.00682011973137 -50.85631955791958 138.05160777450862 -55.77073119173861"/>
<polyline points="138.05160777450862 -55.77073119173861 131.27847409551495 -61.42533749863419"/>
<polyline points="134.93890517243597 -49.50056747966313 133.98369282721313 -54.41497911348217 124.95056386136065 -48.46324889659008 125.4047594975856 -44.179791017151295 121.08740904963247 -38.8765763556405 107.89541586376801 -13.650676678125027"/>
<polyline points="107.89541586376801 -13.650676678125027 109.95405581464192 -5.893560179513636 104.1875943866589 7.263696352890748 106.2462343375328 15.020812851502166 103.2518743104006 23.194276757455622 91.24276174241643 50.685212068578466"/>
<polyline points="91.24276174241643 50.685212068578466 97.7633152243925 58.25648332937182"/>
<polyline points="91.24276174241643 50.685212068578466 94.14189913190283 60.14527230429266"/>
<polyline points="103.2518743104006 23.194276757455622 102.47297736840477 32.329711613056844"/>
<polyline points="103.2518743104006 23.194276757455622 102.47297736840477 32.329711613056844"/>
<polyline points="107.89541586376801 -13.650676678125027 105.87712125939959 -7.159335102380775"/>
<polyline points="105.87712125939959 -7.159335102380775 97.52314782113623 -5.838892650035012"/>
<polyline points="105.87712125939959 -7.159335102380775 97.52314782113623 -5.838892650035012"/>
<polyline points="97.52314782113623 -5.838892650035012 94.38662697659419 -6.975459281310383"/>
<polyline points="121.08740904963247 -38.8765763556405 119.06911444526406 -32.38523477989629 101.25708994973422 -26.168060168979082 93.77042117279976 -19.541692107938243 84.05761941398808 -17.413587510183095 55.49150757112448 -21.640953040159882"/>
<polyline points="55.49150757112448 -21.640953040159882 48.248466287529176 -16.690681165392245 29.031939963061692 -11.389921155695431 21.78889867946639 -6.439649280927777 12.192112675265736 -5.582144720963459 -11.96936053528405 -16.594319158899882"/>
<polyline points="-11.96936053528405 -16.594319158899882 -17.4178778621956 -14.711367096909864"/>
<polyline points="-11.96936053528405 -16.594319158899882 -17.4178778621956 -14.711367096909864"/>
<polyline points="-11.96936053528405 -16.594319158899882 -20.52399041340477 -15.122330354543712"/>
<polyline points="-20.52399041340477 -15.122330354543712 -28.466329535686672 -9.057900169037548"/>
<polyline points="12.192112675265736 -5.582144720963459 3.6374827971450627 -4.110155916607368 -14.688485763800045 -10.791232780997401 -21.888144048587407 -17.653400460144148 -29.727649201264896 -22.612994475777185 -41.48569066403671 -40.74517665268782"/>
<polyline points="-41.48569066403671 -40.74517665268782 -44.87133578345759 -50.12663885111793 -58.3192774187469 -63.1990805910897 -61.704922538167736 -72.58054278951977 -66.52841791447428 -79.67385406048375 -69.05577203365858 -96.85775572723499"/>
<polyline points="-69.05577203365858 -96.85775572723499 -63.376877443083664 -103.85746765231814"/>
<polyline points="-69.05577203365858 -96.85775572723499 -67.91101694490648 -106.45205726755852"/>
<polyline points="-41.48569066403671 -40.74517665268782 -48.13815896706474 -47.728524537400396"/>
<polyline points="3.6374827971450627 -4.110155916607368 -6.16032490080496 -4.462312870757692"/>
<polyline points="84.05761941398808 -17.413587510183095 74.75468382027742 -13.911210299777453"/>
<polyline points="101.25708994973422 -26.168060168979082 95.80690737272997 -20.810268575449346"/>
<polyline points="124.95056386136065 -48.46324889659008 121.95628248131301 -50.34417401305043"/>
<polyline points="134.93890517243597 -49.50056747966313 133.98369282721313 -54.41497911348217"/>
<polyline points="157.63200041549388 -19.61454375150458 152.4755541519761 -24.125530424822013"/>
<polyline points="170.3682355766252 -10.999884171358058 160.49439369130133 -12.418573215402466"/>
<polyline points="196.0580436264622 -6.1410001621901715 186.6315245858497 -7.623956343992549"/>
<polyline points="234.25153976646698 -10.38531263887922 226.59189742532357 -3.9569587022467188"/>
<polyline points="248.09294613362115 -35.98105321801742 243.75936618574087 -30.88032330690213"/>
<polyline points="243.75936618574087 -30.88032330690213 235.256415922626 -36.02761401796462"/>
<polyline points="261.38759036573373 -49.55906643063988 257.0540104178535 -44.458336519524615"/>
<polyline points="262.97782150783405 -52.94942272051718 261.38759036573373 -49.55906643063988"/>
<polyline points="281.3020070359657 -60.86020030188042 275.885782419813 -59.4951558145967"/>
<polyline points="275.885782419813 -59.4951558145967 266.8945852714599 -55.29186199757415"/>
<polyline points="275.885782419813 -59.4951558145967 266.8945852714599 -55.29186199757415"/>
<polyline points="266.8945852714599 -55.29186199757415 257.63382330980363 -58.01652361781286"/>
<polyline points="291.5033930874062 -78.89806263841662 286.08716847125356 -77.53301815113294 271.1585939440173 -64.61306520648623 267.94891410295054 -55.72447313972262 261.4582228653936 -48.134799966264126 248.6201706342148 -25.944552298461065"/>
<polyline points="248.6201706342148 -25.944552298461065 248.65377924537387 -15.947262153249238 238.82202498558453 1.3677136259493574 238.85563359674373 11.365003771161135 234.97200860350765 19.964351488816714 227.87426166281395 38.21971853299437"/>
<polyline points="227.87426166281395 38.21971853299437 230.92823851331642 46.92289340603693"/>
<polyline points="227.87426166281395 38.21971853299437 230.92823851331642 46.92289340603693"/>
<polyline points="227.87426166281395 38.21971853299437 226.4855791094667 47.45205177108614"/>
<polyline points="226.4855791094667 47.45205177108614 222.43919538676482 56.109744059524665"/>
<polyline points="234.97200860350765 19.964351488816714 233.58332605016048 29.196684726908487 217.32815132485268 36.89773125711072 212.13992839027753 39.040631921804994 203.3743960341959 40.394951102420706 176.6558306303182 29.836991424883717"/>
<polyline points="176.6558306303182 29.836991424883717 172.03975361693682 27.117495739046618 155.65665050367744 26.843321589107635 151.04057349029605 24.123825903270493 142.68908520635435 21.554669732896787 119.26638261268417 3.133195523556056"/>
<polyline points="119.26638261268417 3.133195523556056 120.53936709118948 -4.301106294418246"/>
<polyline points="119.26638261268417 3.133195523556056 116.08392502869087 -3.821570059452916"/>
<polyline points="142.68908520635435 21.554669732896787 135.89528031641478 17.20142060781256"/>
<polyline points="142.68908520635435 21.554669732896787 135.89528031641478 17.20142060781256"/>
<polyline points="176.6558306303182 29.836991424883717 169.03904502353538 29.807060475046942"/>
<polyline points="169.03904502353538 29.807060475046942 159.93484228096597 33.880923169318066"/>
<polyline points="169.03904502353538 29.807060475046942 159.93484228096597 33.880923169318066"/>
<polyline points="159.93484228096597 33.880923169318066 154.62435739699757 41.18221876664509"/>
<polyline points="203.3743960341959 40.394951102420706 195.75761042741306 40.365020152583966 176.33374246014068 43.57054777085121 167.19877139252975 40.035269261597925 158.2011587744221 41.18544315292099 141.30697966846705 45.68692871830734"/>
<polyline points="141.30697966846705 45.68692871830734 134.9203475204497 40.571232400853766 117.92859836027978 39.74324877541652 111.54196621226245 34.627552457962935 104.66929738410181 34.43811721156429 96.83410999085856 39.58793676048414"/>
<polyline points="96.83410999085856 39.58793676048414 94.66185010022976 34.35980985113725"/>
<polyline points="96.83410999085856 39.58793676048414 94.66185010022976 34.35980985113725"/>
<polyline points="96.83410999085856 39.58793676048414 91.29241383967234 37.30712039489013"/>
<polyline points="91.29241383967234 37.30712039489013 81.88221187683367 34.652797269975856"/>
<polyline points="104.66929738410181 34.43811721156429 99.1276012329155 32.15730084597035 86.79014971942745 43.94517637889399 85.15472011645693 50.112468943211915 80.2833800299166 57.880755164171156 72.8989870433448 86.95337714772965"/>
<polyline points="72.8989870433448 86.95337714772965 74.86340027970542 95.28119077920908 68.66634823807081 112.41423868397563 70.6307614744314 120.74205231545514 68.67467953947926 130.33411915338954 66.58734616919573 158.8958359004086"/>
<polyline points="66.58734616919573 158.8958359004086 74.76570894720071 164.47847884521752"/>
<polyline points="66.58734616919573 158.8958359004086 71.48032671119158 167.5254567441269"/>
<polyline points="68.67467953947926 130.33411915338954 69.30029720770982 140.10808873813534"/>
<polyline points="72.8989870433448 86.95337714772965 70.39341618222704 95.33728563835717"/>
<polyline points="86.79014971942745 43.94517637889399 80.12650748945747 45.15262865928051"/>
<polyline points="80.12650748945747 45.15262865928051 71.57226263919456 45.02346796223152"/>
<polyline points="99.1276012329155 32.15730084597035 92.46395900294559 33.364753126356824"/>
<polyline points="104.66929738410181 34.43811721156429 99.1276012329155 32.15730084597035"/>
<polyline points="141.30697966846705 45.68692871830734 132.70992223321207 44.38653532009877"/>
<polyline points="132.70992223321207 44.38653532009877 125.1224380006601 50.71771147215692"/>
<polyline points="132.70992223321207 44.38653532009877 125.1224380006601 50.71771147215692"/>
<polyline points="125.1224380006601 50.71771147215692 115.53055335356848 51.709311656471634"/>
<polyline points="158.2011587744221 41.18544315292099 149.60410133916713 39.885049754712455 137.32838493408218 53.7327040845749 134.3179301734976 59.35050593740459 130.25530540598547 67.79239967606199 130.73494964185087 97.66287468191774"/>
<polyline points="130.73494964185087 97.66287468191774 132.42332578733635 104.51789853843167 127.72426595387802 121.85391561154604 129.41264209936344 128.70893946805998 129.1356930908435 138.21431003168684 137.50396976270062 166.8419596776586"/>
<polyline points="137.50396976270062 166.8419596776586 143.39941684989472 173.4949091179001"/>
<polyline points="137.50396976270062 166.8419596776586 143.39941684989472 173.4949091179001"/>
<polyline points="137.50396976270062 166.8419596776586 139.5755030890512 175.76444907903615"/>
<polyline points="139.5755030890512 175.76444907903615 135.98617002447975 181.8032304926142"/>
<polyline points="129.1356930908435 138.21431003168684 131.20722641719402 147.13679943306437 123.07809591239368 164.9214435859231 123.22577693353753 173.5255749201391 118.36111113690059 181.1741397962539 98.49957015348134 191.47526311575203"/>
<polyline points="98.49957015348134 191.47526311575203 98.46687883158197 196.63082911940467 90.38470399784276 210.65875610608995 90.3520126759434 215.81432210974262 85.35711295038726 220.7650651364946 64.44180297724589 221.2662648133909"/>
<polyline points="64.44180297724589 221.2662648133909 67.71363976132577 219.4198129794356"/>
<polyline points="64.44180297724589 221.2662648133909 63.95134373010604 221.75199466580463"/>
<polyline points="85.35711295038726 220.7650651364946 81.93722428053493 224.3836564415987"/>
<polyline points="85.35711295038726 220.7650651364946 81.93722428053493 224.3836564415987"/>
<polyline points="98.49957015348134 191.47526311575203 95.34108357445136 198.7199118702645"/>
<polyline points="95.34108357445136 198.7199118702645 87.89326073464863 205.30388221037256"/>
<polyline points="95.34108357445136 198.7199118702645 87.89326073464863 205.30388221037256"/>
<polyline points="87.89326073464863 205.30388221037256 86.71033275868233 215.16597795133825"/>
<polyline points="118.36111113690059 181.1741397962539 115.20262455787062 188.41878855076638 97.45223771032092 197.6270389436075 88.1455618159491 198.35528377715542 78.56082714793692 200.92048779170915 52.542724441975075 197.88374398811553"/>
<polyline points="52.542724441975075 197.88374398811553 43.419514918092 194.12576326147692 23.549965805241484 195.47832794212346 14.426756281358372 191.72034721548485 4.881984473854982 190.64339328717261 -15.459390762161934 181.45736022884518"/>
<polyline points="-15.459390762161934 181.45736022884518 -22.300216004875853 174.22806591357144"/>
<polyline points="-15.459390762161934 181.45736022884518 -22.300216004875853 174.22806591357144"/>
<polyline points="-15.459390762161934 181.45736022884518 -24.578169409441934 177.92353752222968"/>
<polyline points="-24.578169409441934 177.92353752222968 -34.0251369223973 179.32554394889277"/>
<polyline points="4.881984473854982 190.64339328717261 -4.236794173425018 187.1095705805571 -18.174941918215048 194.84169561894518 -22.526332673424164 195.35399598304798 -27.48371200624105 200.57961894431486 -28.995327945229242 223.91153021106777"/>
<polyline points="-28.995327945229242 223.91153021106777 -28.680131746321003 225.6449645884363 -35.48235205154635 235.36353607599 -35.1671558526381 237.0969704533585 -36.38219749882234 243.30719434528896 -29.195121365107763 268.6504761124621"/>
<polyline points="-29.195121365107763 268.6504761124621 -22.05577509174819 263.77763335453926"/>
<polyline points="-29.195121365107763 268.6504761124621 -24.36077389366951 271.4619654364573"/>
<polyline points="-35.48235205154635 235.36353607599 -41.815470606373815 235.97012783433973"/>
<polyline points="-27.48371200624105 200.57961894431486 -30.775087830356654 204.6291797285656"/>
<polyline points="4.881984473854982 190.64339328717261 -4.236794173425018 187.1095705805571"/>
<polyline points="23.549965805241484 195.47832794212346 14.71115984240424 198.5172263968556"/>
<polyline points="78.56082714793692 200.92048779170915 68.5656958808015 201.2289116898939"/>
<polyline points="115.20262455787062 188.41878855076638 109.1540433313552 195.41923847030452"/>
<polyline points="123.07809591239368 164.9214435859231 122.28164671413239 174.72383990869017"/>
<polyline points="122.28164671413239 174.72383990869017 113.85979596926626 174.95729322720373"/>
<polyline points="131.20722641719402 147.13679943306437 130.41077721893274 156.93919575583143"/>
<polyline points="129.1356930908435 138.21431003168684 131.20722641719402 147.13679943306437"/>
<polyline points="130.73494964185087 97.66287468191774 128.59019918986402 105.91532066247393"/>
<polyline points="128.59019918986402 105.91532066247393 121.30107142292061 112.64392125841722"/>
<polyline points="128.59019918986402 105.91532066247393 121.30107142292061 112.64392125841722"/>
<polyline points="121.30107142292061 112.64392125841722 113.06220527408074 115.75430274992144"/>
<polyline points="130.25530540598547 67.79239967606199 128.11055495399864 76.04484565661814 117.3686345871313 91.95399339527123 116.90415259863101 101.15651776273552 111.94489701766318 108.13482321156384 98.62648218820291 117.14355715895921"/>
<polyline points="98.62648218820291 117.14355715895921 100.23852922637357 123.6568854554669 93.3365797257427 137.39231296922904 94.94862676391334 143.90564126573668 91.68431111842644 148.81393292524666 80.75907980828526 148.5005315488903"/>
<polyline points="80.75907980828526 148.5005315488903 83.79911488846433 150.7094491079452"/>
<polyline points="80.75907980828526 148.5005315488903 83.79911488846433 150.7094491079452"/>
<polyline points="80.75907980828526 148.5005315488903 79.83723639449458 152.7882120139725"/>
<polyline points="79.83723639449458 152.7882120139725 78.44991408697403 161.91256344074768"/>
<polyline points="91.68431111842644 148.81393292524666 90.76246770463574 153.10161339032882 74.0672122125027 158.12140214437474 66.91636873266569 155.9007196951802 57.48146561082301 156.80241026616602 28.046175727786107 153.32442134016583"/>
<polyline points="28.046175727786107 153.32442134016583 20.569391208920006 147.54749324855248 1.555624051552409 145.4914271690648 -5.921160467313683 139.71449907745148 -15.69873207944637 137.691141001764 -41.695372072481206 131.22515320545725"/>
<polyline points="-41.695372072481206 131.22515320545725 -43.85864051885586 121.49443422337859"/>
<polyline points="-41.695372072481206 131.22515320545725 -47.89144651134475 123.44080898913937"/>
<polyline points="-15.69873207944637 137.691141001764 -24.656853728826484 133.24880616114353"/>
<polyline points="-15.69873207944637 137.691141001764 -24.656853728826484 133.24880616114353"/>
<polyline points="28.046175727786107 153.32442134016583 18.85211998771906 151.67774741264944"/>
<polyline points="18.85211998771906 151.67774741264944 11.274315706932429 158.02858257709264"/>
<polyline points="18.85211998771906 151.67774741264944 11.274315706932429 158.02858257709264"/>
<polyline points="11.274315706932429 158.02858257709264 6.146545417094168 161.9139078346464"/>
<polyline points="57.48146561082301 156.80241026616602 48.28740987075606 155.15573633864958 31.85487899871523 166.3536845396517 23.40639390159935 168.4859047718881 16.570261729318478 175.14602163211032 9.438702881164854 200.0658161377841"/>
<polyline points="9.438702881164854 200.0658161377841 4.4949494977983555 202.64935220810628 -8.083238338504097 214.9137729234169 -13.026991721870594 217.49730899373893 -17.11973555959216 224.5361622494315 -14.372770895744791 249.46059079455327"/>
<polyline points="-14.372770895744791 249.46059079455327 -14.602592056042305 252.15110612636255"/>
<polyline points="-14.372770895744791 249.46059079455327 -14.602592056042305 252.15110612636255"/>
<polyline points="-14.372770895744791 249.46059079455327 -17.33134447267389 255.13119171505468"/>
<polyline points="-17.33134447267389 255.13119171505468 -25.863121064638843 258.00301396894514"/>
<polyline points="-17.11973555959216 224.5361622494315 -20.078309136521167 230.20676316993286 -26.257679888361626 249.2276283497635 -24.275949322448177 258.9847835243392 -26.241823410093467 268.4899268759984 -28.472855568626038 290.13476125596617"/>
<polyline points="-28.472855568626038 290.13476125596617 -23.593290359025037 298.424247888358 -23.86984426677522 317.44837787875747 -18.990279057174245 325.73786451114927 -18.56653610147706 334.16639281841975 -18.66733774298281 348.0789518303958"/>
<polyline points="-18.66733774298281 348.0789518303958 -9.671174581984445 349.89117604025665"/>
<polyline points="-18.66733774298281 348.0789518303958 -12.272173295911541 352.97587583048875"/>
<polyline points="-18.56653610147706 334.16639281841975 -15.713751026179045 341.8070602646945"/>
<polyline points="-28.472855568626038 290.13476125596617 -27.857760866309462 299.7907875601719"/>
<polyline points="-26.257679888361626 249.2276283497635 -29.89330761061128 257.19032605581856"/>
<polyline points="-29.89330761061128 257.19032605581856 -39.55731970259233 256.65979793149"/>
<polyline points="-20.078309136521167 230.20676316993286 -23.713936858770882 238.1694608759879"/>
<polyline points="-17.11973555959216 224.5361622494315 -20.078309136521167 230.20676316993286"/>
<polyline points="9.438702881164854 200.0658161377841 2.805754172044086 205.43128156171173"/>
<polyline points="2.805754172044086 205.43128156171173 -2.722664084730202 213.29902318583774"/>
<polyline points="2.805754172044086 205.43128156171173 -2.722664084730202 213.29902318583774"/>
<polyline points="-2.722664084730202 213.29902318583774 -12.351827165775509 215.54275022104144"/>
<polyline points="16.570261729318478 175.14602163211032 9.937313020197713 180.51148705603782 3.2379987944614625 199.0120296071272 3.849195719156443 208.88268174763616 2.5892703191213595 218.23235500918602 8.866548114694828 239.82170736051077"/>
<polyline points="8.866548114694828 239.82170736051077 13.860269378828555 248.47891649234145 15.189864151270598 267.47956905751766 20.183585415404302 276.13677818934826 22.497472986413207 284.61853818895366 33.993124046596705 298.709196827791"/>
<polyline points="33.993124046596705 298.709196827791 42.06672358028383 304.1252296785958"/>
<polyline points="33.993124046596705 298.709196827791 42.06672358028383 304.1252296785958"/>
<polyline points="33.993124046596705 298.709196827791 38.69548549346582 306.5923708583265"/>
<polyline points="38.69548549346582 306.5923708583265 38.646903423829244 316.5570772015237"/>
<polyline points="22.497472986413207 284.61853818895366 27.199834433282263 292.50171221948915 21.213759489195024 304.4327134510791 21.132017269031497 306.77291764022885 16.50201402115315 310.7862401695168 -6.751041511875392 311.3894870787792"/>
<polyline points="-6.751041511875392 311.3894870787792 -8.693068091685886 309.20064528067553 -17.69204929562348 313.6373095172816 -19.63407587543406 311.44846771917815 -25.763435085908288 311.8043541123365 -52.110106225234006 305.22962234346704"/>
<polyline points="-52.110106225234006 305.22962234346704 -52.357356525387914 296.75843750124164"/>
<polyline points="-52.110106225234006 305.22962234346704 -55.7060799432318 299.1536415618971"/>
<polyline points="-25.763435085908288 311.8043541123365 -31.149996696732508 309.69498507793537"/>
<polyline points="-25.763435085908288 311.8043541123365 -31.149996696732508 309.69498507793537"/>
<polyline points="-6.751041511875392 311.3894870787792 -10.472274765442384 313.28763008063925"/>
<polyline points="-10.472274765442384 313.28763008063925 -15.972260565872045 320.98276276710897"/>
<polyline points="-10.472274765442384 313.28763008063925 -15.972260565872045 320.98276276710897"/>
<polyline points="-15.972260565872045 320.98276276710897 -15.068444358219258 328.7416207216947"/>
<polyline points="16.50201402115315 310.7862401695168 12.780780767586185 312.68438317137696 -2.353743654325389 324.74909462002455 -12.063198208972445 326.1007114989512 -20.16854042283219 331.9576210398515 -40.198887009020645 348.5811653344963"/>
<polyline points="-40.198887009020645 348.5811653344963 -49.84782281240717 348.1634133683226 -67.54799495956861 357.16495630380524 -77.19693076295502 356.7472043376314 -85.37245036101656 361.1692138219449 -99.38062838133749 375.28940967638465"/>
<polyline points="-99.38062838133749 375.28940967638465 -106.63953832294187 373.47177082337305"/>
<polyline points="-99.38062838133749 375.28940967638465 -106.63953832294187 373.47177082337305"/>
<polyline points="-99.38062838133749 375.28940967638465 -107.78971775617426 377.4661028569866"/>
<polyline points="-107.78971775617426 377.4661028569866 -117.31803839803219 379.72519394004155"/>
<polyline points="-85.37245036101656 361.1692138219449 -93.78153973585319 363.34590700254677 -101.59212653163742 381.298727260281 -102.66163618508953 389.0698239352478 -104.17788677555006 398.8470853599911 -95.65804414375998 427.3335099265902"/>
<polyline points="-95.65804414375998 427.3335099265902 -91.90079833968194 434.8650068105391 -91.43474161434877 454.31901161818433 -87.67749581027064 461.8505085021334 -85.28295813106355 471.5190267882106 -69.75728139699451 495.40707932314217"/>
<polyline points="-69.75728139699451 495.40707932314217 -65.52170726341762 490.10598152951945"/>
<polyline points="-69.75728139699451 495.40707932314217 -62.111450181767246 501.0685570306091"/>
<polyline points="-104.17788677555006 398.8470853599911 -103.82196374887084 408.3109646080946"/>
<polyline points="-85.37245036101656 361.1692138219449 -93.78153973585319 363.34590700254677"/>
<polyline points="12.780780767586185 312.68438317137696 7.078054489489314 316.9567277836418"/>
<polyline points="21.213759489195024 304.4327134510791 22.678658180944595 312.44793990318186"/>
<polyline points="8.866548114694828 239.82170736051077 9.920045371559594 249.5177381529482"/>
<polyline points="9.937313020197713 180.51148705603782 3.896328099093756 188.13554308293217"/>
<polyline points="48.28740987075606 155.15573633864958 38.65271265030924 156.8768474635056"/>
<polyline points="74.0672122125027 158.12140214437474 69.58988638360488 162.3236067206663"/>
<polyline points="93.3365797257427 137.39231296922904 91.27339242898756 146.92999647951143"/>
<polyline points="111.94489701766318 108.13482321156384 109.3046720347032 115.47284366598367"/>
<polyline points="130.25530540598547 67.79239967606199 128.11055495399864 76.04484565661814"/>
<polyline points="137.32838493408218 53.7327040845749 128.80843262607777 56.1411627127008"/>
<polyline points="158.2011587744221 41.18544315292099 149.60410133916713 39.885049754712455"/>
<polyline points="195.75761042741306 40.365020152583966 186.40071360115192 41.40841066181279"/>
<polyline points="217.32815132485268 36.89773125711072 212.53919333259324 44.69030762198319"/>
<polyline points="212.53919333259324 44.69030762198319 206.66927948083318 47.439374312575005"/>
<polyline points="233.58332605016048 29.196684726908487 228.7943680579011 36.98926109178096"/>
<polyline points="234.97200860350765 19.964351488816714 233.58332605016048 29.196684726908487"/>
<polyline points="248.6201706342148 -25.944552298461065 244.28212049238502 -16.938657988812928"/>
<polyline points="244.28212049238502 -16.938657988812928 234.64649833748192 -14.440115576395366"/>
<polyline points="244.28212049238502 -16.938657988812928 234.64649833748192 -14.440115576395366"/>
<polyline points="234.64649833748192 -14.440115576395366 227.42340657116767 -10.192422965559274"/>
<polyline points="261.4582228653936 -48.134799966264126 257.1201727235638 -39.12890565661599 239.1671962824414 -34.11765372206205 233.48887324546521 -30.793059671089058 224.7154564956449 -30.587770777827043 202.78137900431705 -44.86609183479283"/>
<polyline points="202.78137900431705 -44.86609183479283 199.21830252060323 -45.583097978507475 183.70349011392665 -46.63201311207961 180.1404136302128 -47.349019255794275 173.02773991467632 -50.379502514715114 156.80695758919018 -72.45841894253157"/>
<polyline points="156.80695758919018 -72.45841894253157 155.99077326681896 -77.19463616431688"/>
<polyline points="156.80695758919018 -72.45841894253157 155.99077326681896 -77.19463616431688"/>
<polyline points="156.80695758919018 -72.45841894253157 151.7363771356571 -76.2024454647834"/>
<polyline points="151.7363771356571 -76.2024454647834 145.32206256115302 -73.04715286382597"/>
<polyline points="173.02773991467632 -50.379502514715114 167.95715946114328 -54.123529036966936 148.97856595796927 -60.396503457158275 142.27107188323686 -67.78493664292581 133.0475013361315 -70.93668590071759 110.92134631227364 -74.47634991011107"/>
<polyline points="110.92134631227364 -74.47634991011107 106.45168908268376 -81.88982105673671 89.81797309070794 -90.43733384558392 85.34831586111805 -97.85080499220953 77.87126119388236 -101.12250023576058 62.311033716463115 -99.73747845887299"/>
<polyline points="62.311033716463115 -99.73747845887299 65.22362413854597 -106.05554741522924"/>
<polyline points="62.311033716463115 -99.73747845887299 60.95321965966617 -105.21384720106663"/>
<polyline points="77.87126119388236 -101.12250023576058 72.32409762317053 -105.5954298733292"/>
<polyline points="77.87126119388236 -101.12250023576058 72.32409762317053 -105.5954298733292"/>
<polyline points="110.92134631227364 -74.47634991011107 102.99378202210421 -79.58524808916047"/>
<polyline points="102.99378202210421 -79.58524808916047 93.23012064455226 -77.55577024205935"/>
<polyline points="102.99378202210421 -79.58524808916047 93.23012064455226 -77.55577024205935"/>
<polyline points="93.23012064455226 -77.55577024205935 85.12424854185217 -81.25837133738834"/>
<polyline points="133.0475013361315 -70.93668590071759 125.11993704596206 -76.04558407976701 106.52076144845019 -69.48757565498906 99.61975921390436 -65.80948030858005 91.48141076756926 -60.218745917210875 77.65583208901532 -33.61058779366816"/>
<polyline points="77.65583208901532 -33.61058779366816 74.37637377533461 -26.636534638759983 60.433003686914056 -13.405358003447361 57.15354537323331 -6.431304848539152 51.8800768707585 1.875533728926365 46.76614614634762 30.996878679603203"/>
<polyline points="46.76614614634762 30.996878679603203 47.76746851935557 39.73037655913886"/>
<polyline points="46.76614614634762 30.996878679603203 47.76746851935557 39.73037655913886"/>
<polyline points="46.76614614634762 30.996878679603203 43.571023521335995 39.91562910601043"/>
<polyline points="43.571023521335995 39.91562910601043 36.11360472697 43.68042199286093"/>
<polyline points="51.8800768707585 1.875533728926365 48.684954245746844 10.794284155333564 34.535216504810776 22.554754729135453 31.896800563382705 30.111572938055495 25.182491214118077 34.47747095827907 7.930725785389594 33.80448709206104"/>
<polyline points="7.930725785389594 33.80448709206104 7.497848763013208 38.17022742982954 -3.1862014460975967 46.497723264447416 -3.619078468473982 50.86346360221591 -8.56051408275017 52.734904222198416 -21.907996962587784 42.89756805621289"/>
<polyline points="-21.907996962587784 42.89756805621289 -16.146539933718135 42.63734405275471"/>
<polyline points="-21.907996962587784 42.89756805621289 -20.28665444321732 42.90421554553508"/>
<polyline points="-8.56051408275017 52.734904222198416 -11.184345646392446 54.145541820815815"/>
<polyline points="7.930725785389594 33.80448709206104 3.301138925656872 38.58318755554985"/>
<polyline points="34.535216504810776 22.554754729135453 28.97054014262192 30.853823872777024"/>
<polyline points="28.97054014262192 30.853823872777024 20.393068667534724 27.188143814121382"/>
<polyline points="48.684954245746844 10.794284155333564 43.12027788355795 19.093353298975156"/>
<polyline points="51.8800768707585 1.875533728926365 48.684954245746844 10.794284155333564"/>
<polyline points="77.65583208901532 -33.61058779366816 70.86220838172582 -27.24892593414438"/>
<polyline points="70.86220838172582 -27.24892593414438 61.80859711344487 -24.7815884275247"/>
<polyline points="70.86220838172582 -27.24892593414438 61.80859711344487 -24.7815884275247"/>
<polyline points="61.80859711344487 -24.7815884275247 52.224591427879425 -25.837396888491448"/>
<polyline points="91.48141076756926 -60.218745917210875 84.68778706027967 -53.85708405768704 69.46561358324298 -45.009668443697706 65.75328736745462 -37.191239079080866 59.47762800799272 -33.47878527755929 49.658946745303965 -32.305171267837"/>
<polyline points="49.658946745303965 -32.305171267837 49.76074370850848 -25.944522345624627 40.46451742487703 -17.337966131927846 40.566314388081544 -10.977317209715446 37.35354374850297 -8.345126156500882 34.436522263303296 -14.309035152593127"/>
<polyline points="34.436522263303296 -14.309035152593127 38.149873983718024 -11.103997450181447"/>
<polyline points="34.436522263303296 -14.309035152593127 38.149873983718024 -11.103997450181447"/>
<polyline points="34.436522263303296 -14.309035152593127 33.729025034846835 -11.13584414920058"/>
<polyline points="33.729025034846835 -11.13584414920058 29.24999928530554 -3.821108927177929"/>
<polyline points="37.35354374850297 -8.345126156500882 36.64604652004646 -5.171935153108271 22.21467943650336 -8.812072515924923 18.577475219929454 -14.270120756675656 10.770480087422749 -17.98820178072185 -14.028971019021313 -34.85550567140758"/>
<polyline points="-14.028971019021313 -34.85550567140758 -17.08698741206285 -43.53814978443112 -31.184994023124837 -54.434168714888656 -34.24301041616636 -63.11681282791217 -41.6101948273579 -69.52466599951751 -64.10219863116231 -87.23412968308345"/>
<polyline points="-64.10219863116231 -87.23412968308345 -61.70917898041195 -96.81698467628341"/>
<polyline points="-64.10219863116231 -87.23412968308345 -66.11491441996286 -97.00032189547711"/>
<polyline points="-41.6101948273579 -69.52466599951751 -47.264697310672204 -77.67007649612522"/>
<polyline points="-41.6101948273579 -69.52466599951751 -47.264697310672204 -77.67007649612522"/>
<polyline points="-14.028971019021313 -34.85550567140758 -20.380172019912767 -40.7135054664288"/>
<polyline points="-20.380172019912767 -40.7135054664288 -29.45664387765736 -38.71985287769441"/>
<polyline points="-20.380172019912767 -40.7135054664288 -29.45664387765736 -38.71985287769441"/>
<polyline points="-29.45664387765736 -38.71985287769441 -33.90272036541955 -37.86064377671412"/>
<polyline points="10.770480087422749 -17.98820178072185 4.419279086531293 -23.846201575743095 -15.31307793059812 -21.689075370100163 -24.669992834725875 -23.702786166812867 -34.26687693735922 -21.00112731272646 -55.1926201505998 -2.112838563025752"/>
<polyline points="-55.1926201505998 -2.112838563025752 -62.50924787036723 -2.01028531620193 -81.09494779298853 3.0470257915663637 -88.41157551275596 3.1495790383901565 -96.46038719289336 7.533360432264356 -109.1962626671578 31.113192269005435"/>
<polyline points="-109.1962626671578 31.113192269005435 -112.80638082500458 33.559762963595574"/>
<polyline points="-109.1962626671578 31.113192269005435 -112.80638082500458 33.559762963595574"/>
<polyline points="-109.1962626671578 31.113192269005435 -116.07245816295395 34.86195496639952"/>
<polyline points="-116.07245816295395 34.86195496639952 -125.71278858059326 33.45034560536239"/>
<polyline points="-96.46038719289336 7.533360432264356 -103.33658268868952 11.282123129658425 -117.2911418675707 25.12947121208322 -120.24496583464713 34.682904697628274 -125.72334181328182 42.087799545595836 -132.82096516412426 59.72056048961333"/>
<polyline points="-132.82096516412426 59.72056048961333 -131.7793199772785 69.27786781176097 -139.2893471348414 85.79888156806936 -138.24770194799564 95.356188890217 -140.50698494893658 102.88332688679166 -140.9012944880636 114.5927150654297"/>
<polyline points="-140.9012944880636 114.5927150654297 -131.8696387815119 118.58990250770708"/>
<polyline points="-140.9012944880636 114.5927150654297 -136.2840966004362 121.81397710059518"/>
<polyline points="-139.2893471348414 85.79888156806936 -144.28487797849235 94.42381287106109"/>
<polyline points="-125.72334181328182 42.087799545595836 -129.0218343245827 50.84129547059607"/>
<polyline points="-96.46038719289336 7.533360432264356 -103.33658268868952 11.282123129658425"/>
<polyline points="-81.09494779298853 3.0470257915663637 -90.83868622392329 0.8729004088150787"/>
<polyline points="-34.26687693735922 -21.00112731272646 -43.60546314391708 -19.302249181823193"/>
<polyline points="4.419279086531293 -23.846201575743095 -4.191316048125592 -26.91461336061932"/>
<polyline points="22.21467943650336 -8.812072515924923 18.237757767237415 -7.371132114044765"/>
<polyline points="18.237757767237415 -7.371132114044765 11.121654850177809 -0.6726049520759749"/>
<polyline points="36.64604652004646 -5.171935153108271 32.669124850780506 -3.7309947512281294"/>
<polyline points="37.35354374850297 -8.345126156500882 36.64604652004646 -5.171935153108271"/>
<polyline points="49.658946745303965 -32.305171267837 45.462956429708896 -27.20213927765478"/>
<polyline points="45.462956429708896 -27.20213927765478 36.15503455953035 -27.555862924254953"/>
<polyline points="45.462956429708896 -27.20213927765478 36.15503455953035 -27.555862924254953"/>
<polyline points="36.15503455953035 -27.555862924254953 28.092728276835693 -21.666476837395813"/>
<polyline points="59.47762800799272 -33.47878527755929 55.281637692397595 -28.37575328737706 38.9076716229312 -32.88294475594026 34.65955208791404 -37.07800488957022 26.872643681682618 -41.678441763770465 7.836944204220916 -64.83536066354002"/>
<polyline points="7.836944204220916 -64.83536066354002 5.975194799487366 -72.72194063137277 -7.0742539014052195 -84.83634878803515 -8.936003306138737 -92.72292875586784 -14.82367484751278 -100.37138838717861 -28.689461554782213 -126.04705881248996"/>
<polyline points="-28.689461554782213 -126.04705881248996 -27.955530985051706 -135.78743999228038"/>
<polyline points="-28.689461554782213 -126.04705881248996 -27.955530985051706 -135.78743999228038"/>
<polyline points="-28.689461554782213 -126.04705881248996 -32.31795965786804 -134.9514460450794"/>
<polyline points="-32.31795965786804 -134.9514460450794 -37.385943373265036 -138.95360125292868"/>
<polyline points="-14.82367484751278 -100.37138838717861 -18.452172950598648 -109.27577561976801 -37.02896662974438 -116.3865221731625 -43.76610835664277 -121.6134948613179 -53.24820051560052 -123.22377532368041 -78.56250029891447 -113.58203095001183"/>
<polyline points="-78.56250029891447 -113.58203095001183 -83.86763187404249 -115.27985093923759 -101.51662370349513 -117.77166453756492 -106.82175527862314 -119.46948452679068 -115.21181355274372 -118.28431489342164 -135.05135669083288 -100.33524974393409"/>
<polyline points="-135.05135669083288 -100.33524974393409 -133.47242069022712 -98.7189941718634"/>
<polyline points="-135.05135669083288 -100.33524974393409 -137.8628923003007 -97.93333422897412"/>
<polyline points="-115.21181355274372 -118.28431489342164 -121.92455052448786 -116.70570982617136"/>
<polyline points="-115.21181355274372 -118.28431489342164 -121.92455052448786 -116.70570982617136"/>
<polyline points="-78.56250029891447 -113.58203095001183 -86.96725804363918 -115.48598543310405"/>
<polyline points="-86.96725804363918 -115.48598543310405 -96.43999226251859 -116.00483581826958"/>
<polyline points="-86.96725804363918 -115.48598543310405 -96.43999226251859 -116.00483581826958"/>
<polyline points="-96.43999226251859 -116.00483581826958 -103.62628107934862 -122.87707869949234"/>
<polyline points="-53.24820051560052 -123.22377532368041 -61.652958260325185 -125.1277298067726 -80.52876327329788 -120.82216824214493 -88.41273512671033 -114.6839541395979 -96.6873526995268 -110.92676930735037 -110.05665838906604 -96.07011559072302"/>
<polyline points="-110.05665838906604 -96.07011559072302 -114.39161644265792 -87.19714234370282 -129.05496786127415 -76.2797181626762 -133.38992591486604 -67.40674491565609 -138.8726748526113 -61.347919319607655 -142.92648702141062 -46.795639551146245"/>
<polyline points="-142.92648702141062 -46.795639551146245 -142.75932785802732 -37.405585965323645"/>
<polyline points="-142.92648702141062 -46.795639551146245 -142.75932785802732 -37.405585965323645"/>
<polyline points="-142.92648702141062 -46.795639551146245 -146.61227436899534 -39.006743219911925"/>
<polyline points="-146.61227436899534 -39.006743219911925 -154.91349441242417 -33.43441743730892"/>
<polyline points="-138.8726748526113 -61.347919319607655 -142.55846220019603 -53.5590229883733 -155.06597924935355 -53.59639032942226 -156.58178408222926 -53.48098522830736 -162.11930990378747 -55.98290558423982 -174.76321453500864 -76.99826519371675"/>
<polyline points="-174.76321453500864 -76.99826519371675 -173.58818726304798 -80.9063846584699 -181.4789608864313 -87.8534892881052 -180.30393361447074 -91.7616087528583 -183.66114434834043 -97.52398027997192 -192.40532921549425 -124.35613552981137"/>
<polyline points="-192.40532921549425 -124.35613552981137 -185.29097817869956 -129.85730647862485"/>
<polyline points="-192.40532921549425 -124.35613552981137 -189.06481526202114 -131.49658630631373"/>
<polyline points="-183.66114434834043 -97.52398027997192 -184.55185587536369 -104.06857814665693"/>
<polyline points="-174.76321453500864 -76.99826519371675 -177.98652353654518 -80.05689812978527"/>
<polyline points="-155.06597924935355 -53.59639032942226 -160.5904125960789 -48.614311370576424"/>
<polyline points="-160.5904125960789 -48.614311370576424 -169.6802212756665 -49.453264066734405"/>
<polyline points="-142.55846220019603 -53.5590229883733 -148.08289554692135 -48.57694402952748"/>
<polyline points="-138.8726748526113 -61.347919319607655 -142.55846220019603 -53.5590229883733"/>
<polyline points="-110.05665838906604 -96.07011559072302 -117.3720592427361 -90.08612188647527"/>
<polyline points="-117.3720592427361 -90.08612188647527 -125.66502137717632 -92.24852177190911"/>
<polyline points="-117.3720592427361 -90.08612188647527 -125.66502137717632 -92.24852177190911"/>
<polyline points="-125.66502137717632 -92.24852177190911 -135.56981552665187 -92.22647537669441"/>
<polyline points="-96.6873526995268 -110.92676930735037 -104.00275355319691 -104.94277560310253 -117.28282488780157 -108.25196888128727 -120.0291059282157 -107.37276302837884 -124.98547173735481 -110.88138298619606 -129.63827657425978 -132.53487769044014"/>
<polyline points="-129.63827657425978 -132.53487769044014 -128.15606676764966 -134.12217602428242 -134.54538475404414 -141.27195212338404 -133.06317494743405 -142.85925045722632 -134.60956304915888 -148.3489445016743 -132.324537288966 -174.44688169815748"/>
<polyline points="-132.324537288966 -174.44688169815748 -127.1199597254748 -178.36231050998066"/>
<polyline points="-132.324537288966 -174.44688169815748 -127.1199597254748 -178.36231050998066"/>
<polyline points="-132.324537288966 -174.44688169815748 -131.339952976914 -179.5208691979806"/>
<polyline points="-131.339952976914 -179.5208691979806 -134.81888190013538 -179.17046695163032"/>
<polyline points="-134.60956304915888 -148.3489445016743 -133.62497873710686 -153.42293200149746 -145.47696536816918 -167.6697385550616 -147.73747650664518 -177.3436860991372 -154.54380314349638 -184.54861026369593 -178.8770045626086 -199.35625608047334"/>
<polyline points="-178.8770045626086 -199.35625608047334 -181.22044346430295 -208.3431091828513 -193.5206082907269 -224.0951837954169 -195.86404719242125 -233.0820368977948 -202.75122894246616 -239.8500940611615 -226.5245831987031 -247.69491885258725"/>
<polyline points="-226.5245831987031 -247.69491885258725 -224.47242344138385 -252.4706639549382"/>
<polyline points="-226.5245831987031 -247.69491885258725 -228.6664667789562 -253.77464617741842"/>
<polyline points="-202.75122894246616 -239.8500940611615 -208.11033182220103 -246.88219095639653"/>
<polyline points="-202.75122894246616 -239.8500940611615 -208.11033182220103 -246.88219095639653"/>
<polyline points="-178.8770045626086 -199.35625608047334 -184.25437131151176 -207.77502061266046"/>
<polyline points="-184.25437131151176 -207.77502061266046 -192.52915321870185 -210.4269262664861"/>
<polyline points="-184.25437131151176 -207.77502061266046 -192.52915321870185 -210.4269262664861"/>
<polyline points="-192.52915321870185 -210.4269262664861 -195.32633122585437 -217.10248494090723"/>
<polyline points="-154.54380314349638 -184.54861026369593 -159.92116989239966 -192.9673747958831 -178.90412261634972 -195.98955316565625 -188.63145372441983 -196.38007452871435 -198.2065908348931 -195.30574487469838 -220.5644258558926 -178.08228392087162"/>
<polyline points="-220.5644258558926 -178.08228392087162 -228.97058142187328 -173.8988692944008 -248.20130478585855 -169.03621459786967 -256.6074603518393 -164.85279997139887 -265.22437677817993 -160.0706616019454 -280.0774416619462 -136.30104768035244"/>
<polyline points="-280.0774416619462 -136.30104768035244 -285.2149232710052 -128.4693094098183"/>
<polyline points="-280.0774416619462 -136.30104768035244 -285.2149232710052 -128.4693094098183"/>
<polyline points="-280.0774416619462 -136.30104768035244 -287.9342001669054 -130.12437740064698"/>
<polyline points="-287.9342001669054 -130.12437740064698 -297.8247324867716 -130.64028696688644"/>
<polyline points="-265.22437677817993 -160.0706616019454 -273.08113528313913 -153.89399132223988 -286.12686450295774 -149.43784892153988 -289.02200684820343 -143.52827486739972 -293.70500855596913 -142.3200360433558 -296.53763684939884 -149.05327757276413"/>
<polyline points="-296.53763684939884 -149.05327757276413 -294.99908889893925 -144.72722854454187 -300.8583026174684 -141.20024860938386 -299.3197546670087 -136.87419958116186 -300.42902507325437 -136.86921489274872 -295.90126509744664 -149.87168108115554"/>
<polyline points="-295.90126509744664 -149.87168108115554 -287.27759395803463 -144.90070443184564"/>
<polyline points="-295.90126509744664 -149.87168108115554 -290.4258288140756 -148.38797051548985"/>
<polyline points="-296.53763684939884 -149.05327757276413 -299.1346172909619 -146.40951249504545"/>
<polyline points="-273.08113528313913 -153.89399132223988 -281.33385135973214 -149.15044875584582"/>
<polyline points="-198.2065908348931 -195.30574487469838 -207.9497031748323 -193.08311498329013"/>
<polyline points="-178.90412261634972 -195.98955316565625 -186.67066238119054 -202.15475813584575"/>
<polyline points="-145.47696536816918 -167.6697385550616 -147.78504779138893 -174.01188216320963"/>
<polyline points="-134.60956304915888 -148.3489445016743 -133.62497873710686 -153.42293200149746"/>
<polyline points="-124.98547173735481 -110.88138298619606 -127.77376638710669 -113.70192261921142"/>
<polyline points="-117.28282488780157 -108.25196888128727 -125.25868871251836 -105.32947670487684"/>
<polyline points="-96.6873526995268 -110.92676930735037 -104.00275355319691 -104.94277560310253"/>
<polyline points="-61.652958260325185 -125.1277298067726 -71.45359513730098 -125.62463339295287"/>
<polyline points="-37.02896662974438 -116.3865221731625 -43.760104360765226 -123.61601521453302"/>
<polyline points="-43.760104360765226 -123.61601521453302 -48.76067722709083 -119.87132670522897"/>
<polyline points="-18.452172950598648 -109.27577561976801 -25.18331068161953 -116.50526866113852"/>
<polyline points="-14.82367484751278 -100.37138838717861 -18.452172950598648 -109.27577561976801"/>
<polyline points="7.836944204220916 -64.83536066354002 1.9128927794121275 -70.91501982218564"/>
<polyline points="1.9128927794121275 -70.91501982218564 -8.046914276097493 -71.06138108021638"/>
<polyline points="1.9128927794121275 -70.91501982218564 -8.046914276097493 -71.06138108021638"/>
<polyline points="-8.046914276097493 -71.06138108021638 -14.979124098118886 -69.40726529875577"/>
<polyline points="26.872643681682618 -41.678441763770465 20.94859225687384 -47.75810092241608 1.4610575535165375 -51.50028619982838 -5.853193452654021 -57.08800212785485 -15.15714398804752 -57.90886664432122 -36.091660607037724 -50.06645732163219"/>
<polyline points="-36.091660607037724 -50.06645732163219 -40.88557066070388 -54.081062715774905 -57.72374084816287 -56.8316327085399 -62.517650901829036 -60.84623810268264 -69.8542274577526 -60.46870008648274 -83.41276474303055 -46.55071976325208"/>
<polyline points="-83.41276474303055 -46.55071976325208 -84.70942199478785 -47.80181530667677"/>
<polyline points="-83.41276474303055 -46.55071976325208 -84.70942199478785 -47.80181530667677"/>
<polyline points="-83.41276474303055 -46.55071976325208 -88.86080837327778 -46.94721122415582"/>
<polyline points="-88.86080837327778 -46.94721122415582 -96.77248097633026 -51.91095395153812"/>
<polyline points="-69.8542274577526 -60.46870008648274 -75.30227108799986 -60.865191547386544 -92.64930970412989 -51.781546035271234 -97.678657600624 -44.04650296830337 -105.68494235101824 -38.05489226804947 -123.33380228550745 -18.28187347049054"/>
<polyline points="-123.33380228550745 -18.28187347049054 -125.4998431144673 -8.52885060122453 -138.92271112307924 6.280673667387377 -141.08875195203905 16.033696536653444 -146.81911372909548 23.761513551158405 -158.12079634873672 41.427027288967096"/>
<polyline points="-158.12079634873672 41.427027288967096 -152.98722894884986 49.80449718406163"/>
<polyline points="-158.12079634873672 41.427027288967096 -157.115570712114 50.818740606591156"/>
<polyline points="-146.81911372909548 23.761513551158405 -150.25914453737187 32.672127993101064"/>
<polyline points="-146.81911372909548 23.761513551158405 -150.25914453737187 32.672127993101064"/>
<polyline points="-123.33380228550745 -18.28187347049054 -129.54726444079694 -10.45348143851547"/>
<polyline points="-129.54726444079694 -10.45348143851547 -139.51058489191814 -10.081602357969171"/>
<polyline points="-129.54726444079694 -10.45348143851547 -139.51058489191814 -10.081602357969171"/>
<polyline points="-139.51058489191814 -10.081602357969171 -147.4002674415611 -7.887871838507806"/>
<polyline points="-105.68494235101824 -38.05489226804947 -111.89840450630777 -30.226500236074294 -130.62916088030752 -28.83570552050299 -137.0206717229889 -26.366269029983638 -145.70190422317856 -27.790129461651553 -164.2013574996221 -45.575205773905815"/>
<polyline points="-164.2013574996221 -45.575205773905815 -167.67119022961623 -46.459251515006606 -182.77968303095204 -50.08823940806609 -186.24951576094642 -50.972285149166765 -192.62548376345705 -55.08061556522394 -203.79936360593402 -79.35725851348907"/>
<polyline points="-203.79936360593402 -79.35725851348907 -203.69832358813883 -83.5837413643064"/>
<polyline points="-203.79936360593402 -79.35725851348907 -203.69832358813883 -83.5837413643064"/>
<polyline points="-203.79936360593402 -79.35725851348907 -208.04980512465886 -83.61925674589376"/>
<polyline points="-208.04980512465886 -83.61925674589376 -215.1133302117255 -81.51115279230856"/>
<polyline points="-192.62548376345705 -55.08061556522394 -196.87592528218192 -59.3426137976285 -214.0225481264455 -69.58307942488767 -218.9326400029551 -78.29297555296381 -227.20149543580192 -83.53489954961015 -247.68287313933325 -93.13265193492822"/>
<polyline points="-247.68287313933325 -93.13265193492822 -250.33362173588665 -101.65409573237804 -264.5670420316865 -114.09120989877006 -267.21779062823987 -122.61265369621995 -273.6989715275855 -127.81441726035061 -288.76465325521536 -131.5369408724706"/>
<polyline points="-288.76465325521536 -131.5369408724706 -284.41938661087624 -137.5066948615578"/>
<polyline points="-288.76465325521536 -131.5369408724706 -288.75234872741447 -137.69652401657174"/>
<polyline points="-273.6989715275855 -127.81441726035061 -278.013726742947 -133.8399809519301"/>
<polyline points="-247.68287313933325 -93.13265193492822 -254.24005482420236 -100.06424767659455"/>
<polyline points="-214.0225481264455 -69.58307942488767 -220.8983445042976 -74.42312493163752"/>
<polyline points="-220.8983445042976 -74.42312493163752 -227.96613980848923 -67.39122573580974"/>
<polyline points="-196.87592528218192 -59.3426137976285 -203.75172166003406 -64.18265930437843"/>
<polyline points="-192.62548376345705 -55.08061556522394 -196.87592528218192 -59.3426137976285"/>
<polyline points="-164.2013574996221 -45.575205773905815 -171.39432107825317 -46.713889919103195"/>
<polyline points="-171.39432107825317 -46.713889919103195 -181.17899434891223 -48.437625473625175"/>
<polyline points="-171.39432107825317 -46.713889919103195 -181.17899434891223 -48.437625473625175"/>
<polyline points="-181.17899434891223 -48.437625473625175 -189.85839838286572 -43.73808909142698"/>
<polyline points="-145.70190422317856 -27.790129461651553 -152.89486780180962 -28.92881360684896 -170.80027724588723 -37.61275571881113 -176.6448016765204 -45.68863879500607 -184.50195457877712 -51.03053442291436 -198.71654083125924 -66.08050892793013"/>
<polyline points="-198.71654083125924 -66.08050892793013 -201.01879181145702 -75.53580444766173 -214.07853581183298 -88.97178140741894 -216.38078679203068 -98.42707692715062 -221.42273804265506 -104.99320127996414 -227.76498654556733 -116.73952499243626"/>
<polyline points="-227.76498654556733 -116.73952499243626 -226.13605887209366 -125.21281739148033"/>
<polyline points="-227.76498654556733 -116.73952499243626 -226.13605887209366 -125.21281739148033"/>
<polyline points="-227.76498654556733 -116.73952499243626 -230.53475665966283 -124.54496081215967"/>
<polyline points="-230.53475665966283 -124.54496081215967 -237.0501031654654 -132.12115491705626"/>
<polyline points="-221.42273804265506 -104.99320127996414 -224.19250815675062 -112.79863709968747 -239.62199592790648 -114.26257961245663 -243.32745888429167 -113.55498431383462 -251.00110843269073 -111.7054148402233 -272.0264119184173 -93.00572818886334"/>
<polyline points="-272.0264119184173 -93.00572818886334 -273.9955466915968 -87.8155517375483 -287.0778340547714 -81.24462974810538 -289.04696882795093 -76.05445329679031 -295.34193257829264 -70.55739781230571 -312.4461442259389 -46.12593221184895"/>
<polyline points="-312.4461442259389 -46.12593221184895 -308.09758737951614 -38.37357346054441"/>
<polyline points="-312.4461442259389 -46.12593221184895 -312.46374797320306 -37.630011585340974"/>
<polyline points="-295.34193257829264 -70.55739781230571 -299.5165500013853 -63.6272408648182"/>
<polyline points="-295.34193257829264 -70.55739781230571 -299.5165500013853 -63.6272408648182"/>
<polyline points="-272.0264119184173 -93.00572818886334 -277.89241745453216 -89.8600097226138"/>
<polyline points="-277.89241745453216 -89.8600097226138 -287.6487601242373 -91.34993241789691"/>
<polyline points="-277.89241745453216 -89.8600097226138 -287.6487601242373 -91.34993241789691"/>
<polyline points="-287.6487601242373 -91.34993241789691 -293.5287148581613 -96.13687220663107"/>
<polyline points="-251.00110843269073 -111.7054148402233 -256.86711396880537 -108.55969637397384 -276.7907201742383 -106.85286951817518 -285.0331231844832 -101.32347524801376 -294.7197890898128 -100.626731211885 -316.9024049738155 -104.17105690601781"/>
<polyline points="-316.9024049738155 -104.17105690601781 -322.9403747763017 -98.4904327394159 -341.0539605479056 -94.73890358733243 -347.0919303503918 -89.05827942073056 -355.0804728405145 -88.15927224997712 -369.68395190540775 -95.45313418108316"/>
<polyline points="-369.68395190540775 -95.45313418108316 -372.21811978493776 -91.21657959312212"/>
<polyline points="-369.68395190540775 -95.45313418108316 -372.21811978493776 -91.21657959312212"/>
<polyline points="-369.68395190540775 -95.45313418108316 -376.06686121088836 -93.05305990279953"/>
<polyline points="-376.06686121088836 -93.05305990279953 -384.7979283511961 -88.29758080553081"/>
<polyline points="-355.0804728405145 -88.15927224997712 -361.463382145995 -85.75919797169362 -378.1508271115359 -95.23349734394807 -382.7778431092646 -101.86607121438023 -390.0819029459699 -108.54009101600592 -403.908712283283 -134.01746944816068"/>
<polyline points="-403.908712283283 -134.01746944816068 -405.1094376429374 -143.28049045138866 -416.79087402032144 -159.15517326186995 -417.99159937997587 -168.41819426509798 -422.5583881791717 -177.30788163041612 -429.4797859102639 -202.4019781460139"/>
<polyline points="-429.4797859102639 -202.4019781460139 -421.21642317996333 -206.7836689811851"/>
<polyline points="-429.4797859102639 -202.4019781460139 -427.15783647712345 -212.126644527479"/>
<polyline points="-416.79087402032144 -159.15517326186995 -423.1105566945658 -164.14710792190536"/>
<polyline points="-390.0819029459699 -108.54009101600592 -395.46600743058207 -116.58066809053061"/>
<polyline points="-355.0804728405145 -88.15927224997712 -361.463382145995 -85.75919797169362"/>
<polyline points="-341.0539605479056 -94.73890358733243 -350.00822948416004 -90.34534518037067"/>
<polyline points="-294.7197890898128 -100.626731211885 -303.59488087317663 -97.83162410562777"/>
<polyline points="-256.86711396880537 -108.55969637397384 -265.2879620963346 -106.45285091499895"/>
<polyline points="-239.62199592790648 -114.26257961245663 -245.17804506835787 -119.69923760780912"/>
<polyline points="-245.17804506835787 -119.69923760780912 -252.98934124642764 -121.91812762337659"/>
<polyline points="-224.19250815675062 -112.79863709968747 -229.748557297202 -118.23529509504006"/>
<polyline points="-221.42273804265506 -104.99320127996414 -224.19250815675062 -112.79863709968747"/>
<polyline points="-198.71654083125924 -66.08050892793013 -204.9200581590569 -73.39316205470891"/>
<polyline points="-204.9200581590569 -73.39316205470891 -214.45587271428298 -72.97615029506201"/>
<polyline points="-204.9200581590569 -73.39316205470891 -214.45587271428298 -72.97615029506201"/>
<polyline points="-214.45587271428298 -72.97615029506201 -223.45775929028795 -75.9020265107167"/>
<polyline points="-184.50195457877712 -51.03053442291436 -190.70547190657484 -58.34318754969317 -207.41593370714187 -57.03002455201762 -212.02339977950342 -57.42841689930183 -219.39408518711932 -54.458723744342045 -233.73809608620778 -32.57616490299011"/>
<polyline points="-233.73809608620778 -32.57616490299011 -235.00359988613306 -29.434009163248017 -246.84630088821524 -22.18845786649701 -248.11180468814058 -19.046302126754895 -252.81326079530686 -13.214142054619453 -260.38838385483126 14.1158054236299"/>
<polyline points="-260.38838385483126 14.1158054236299 -258.20472303764575 20.232022824927377"/>
<polyline points="-260.38838385483126 14.1158054236299 -258.20472303764575 20.232022824927377"/>
<polyline points="-260.38838385483126 14.1158054236299 -262.68639661774694 20.293423432552167"/>
<polyline points="-262.68639661774694 20.293423432552167 -268.0637072771998 20.17103978753118"/>
<polyline points="-252.81326079530686 -13.214142054619453 -255.11127355822245 -7.036524045697222 -271.4763837336598 4.211257616880753 -276.213385040783 12.949848848124935 -284.67728376428647 18.104400731111493 -308.98217377791894 24.32565287335002"/>
<polyline points="-308.98217377791894 24.32565287335002 -312.49957085740647 31.780181713925597 -327.71925291037724 43.30347654768114 -331.2366499898646 50.75800538825663 -338.7546284795735 54.982803729264845 -359.18655212575976 53.83295563152536"/>
<polyline points="-359.18655212575976 53.83295563152536 -356.4167978698987 57.8823873744241"/>
<polyline points="-359.18655212575976 53.83295563152536 -360.89179539247556 58.0801941944954"/>
<polyline points="-338.7546284795735 54.982803729264845 -344.413945286752 59.62174718073976"/>
<polyline points="-338.7546284795735 54.982803729264845 -344.413945286752 59.62174718073976"/>
<polyline points="-308.98217377791894 24.32565287335002 -315.9778440493117 30.808187867050698"/>
<polyline points="-315.9778440493117 30.808187867050698 -325.56755333960916 31.671283681937382"/>
<polyline points="-315.9778440493117 30.808187867050698 -325.56755333960916 31.671283681937382"/>
<polyline points="-325.56755333960916 31.671283681937382 -331.4275088637431 38.12421277226507"/>
<polyline points="-284.67728376428647 18.104400731111493 -291.67295403567925 24.586935724812157 -311.5713061577741 22.920338742932138 -320.2936870336348 20.32286442004788 -329.6758709161946 16.99181970941899 -348.93673346557597 -4.31916614515752"/>
<polyline points="-348.93673346557597 -4.31916614515752 -355.0384670710967 -11.055472888581086 -372.56929220321445 -20.675893666630508 -378.67102580873524 -27.412200410054023 -386.0248319402975 -34.1349193793692 -396.7552103749368 -59.54853549588405"/>
<polyline points="-396.7552103749368 -59.54853549588405 -398.8808343597112 -68.86774930457622"/>
<polyline points="-396.7552103749368 -59.54853549588405 -398.8808343597112 -68.86774930457622"/>
<polyline points="-396.7552103749368 -59.54853549588405 -402.5788062168786 -67.64605156532652"/>
<polyline points="-402.5788062168786 -67.64605156532652 -411.6960652542377 -70.05606510583027"/>
<polyline points="-386.0248319402975 -34.1349193793692 -391.8484277822393 -42.23243544881163 -406.4366347803625 -48.26689624811275 -409.4894795701479 -53.75616171303164 -415.6494166856951 -55.105319623749146 -426.73508849395205 -45.831865142203746"/>
<polyline points="-426.73508849395205 -45.831865142203746 -426.3114464629326 -48.41944056232588 -435.36055140987145 -51.04737989451442 -434.93690937885236 -53.63495531463651 -438.2989418345955 -52.70314770675689 -443.4001037376771 -35.729715082288465"/>
<polyline points="-443.4001037376771 -35.729715082288465 -436.1690780547979 -35.753409064419245"/>
<polyline points="-443.4001037376771 -35.729715082288465 -439.8054151094005 -34.60336086295888"/>
<polyline points="-438.2989418345955 -52.70314770675689 -439.1325808233394 -51.79925261107049"/>
<polyline points="-426.73508849395205 -45.831865142203746 -430.7078175626124 -47.90663995361564"/>
<polyline points="-406.4366347803625 -48.26689624811275 -413.7758124321812 -54.681363436276264"/>
<polyline points="-413.7758124321812 -54.681363436276264 -421.79014513334795 -49.434742853856555"/>
<polyline points="-391.8484277822393 -42.23243544881163 -399.18760543405784 -48.64690263697522"/>
<polyline points="-386.0248319402975 -34.1349193793692 -391.8484277822393 -42.23243544881163"/>
<polyline points="-348.93673346557597 -4.31916614515752 -357.6594679000439 -9.08016026850908"/>
<polyline points="-357.6594679000439 -9.08016026850908 -366.11408027359266 -8.393240203631061"/>
<polyline points="-357.6594679000439 -9.08016026850908 -366.11408027359266 -8.393240203631061"/>
<polyline points="-366.11408027359266 -8.393240203631061 -375.5063747230899 -5.194914814931942"/>
<polyline points="-329.6758709161946 16.99181970941899 -338.39860535066236 12.230825586067434 -352.96643905206747 9.51572429610658 -357.30580202890405 3.9145549566106768 -362.7155167133282 3.2019108235309264 -366.4002624970713 9.296685850132768"/>
<polyline points="-366.4002624970713 9.296685850132768 -366.20985888657407 4.467739952534493 -373.85012476106044 1.3173450461499003 -373.6597211505633 -3.511600851448252 -375.43678191789786 -3.6771396235198592 -370.67978511759077 7.4498949470394304"/>
<polyline points="-370.67978511759077 7.4498949470394304 -366.103481947322 4.786244542244303"/>
<polyline points="-370.67978511759077 7.4498949470394304 -366.103481947322 4.786244542244303"/>
<polyline points="-370.67978511759077 7.4498949470394304 -370.1343200128441 6.143733990710685"/>
<polyline points="-370.1343200128441 6.143733990710685 -375.05331570383913 1.2510830691412433"/>
<polyline points="-375.43678191789786 -3.6771396235198592 -374.89131681315126 -4.983300579848585 -384.9256763772693 4.548885730254904 -385.50050221310806 11.926108264648605 -390.97200418479474 18.389540947615775 -410.3311163600723 41.28016561693093"/>
<polyline points="-410.3311163600723 41.28016561693093 -410.3479372589132 50.976037874320056 -419.22902983701726 66.61677122213004 -419.24585073585797 76.3126434795191 -424.25646734689263 84.74995943229865 -443.242342201386 106.264942959426"/>
<polyline points="-443.242342201386 106.264942959426 -439.0150627247939 114.45086064263332"/>
<polyline points="-443.242342201386 106.264942959426 -442.98190157476654 115.95830024878177"/>
<polyline points="-424.25646734689263 84.74995943229865 -427.40873563794224 94.2291920192916"/>
<polyline points="-424.25646734689263 84.74995943229865 -427.40873563794224 94.2291920192916"/>
<polyline points="-410.3311163600723 41.28016561693093 -413.9093731433295 49.37727879574609"/>
<polyline points="-413.9093731433295 49.37727879574609 -422.2232394910833 50.557705095819706"/>
<polyline points="-413.9093731433295 49.37727879574609 -422.2232394910833 50.557705095819706"/>
<polyline points="-422.2232394910833 50.557705095819706 -424.785357522844 52.382254892984754"/>
<polyline points="-390.97200418479474 18.389540947615775 -394.550260968052 26.486654126430835 -413.27084424411083 30.22611294061797 -422.2706489952736 34.231792009023664 -432.1790293996299 34.1692242725549 -458.6694765866985 20.334884806700916"/>
<polyline points="-458.6694765866985 20.334884806700916 -467.05573420919507 21.149489136360163 -487.0131337870479 20.57391433129811 -495.3993914095445 21.3885186609575 -504.9128745185872 18.792104661584 -525.4244028752172 -2.245686503458059"/>
<polyline points="-525.4244028752172 -2.245686503458059 -531.3088491963109 -5.016540315621521"/>
<polyline points="-525.4244028752172 -2.245686503458059 -531.3088491963109 -5.016540315621521"/>
<polyline points="-525.4244028752172 -2.245686503458059 -534.1370255464852 -4.914626260716146"/>
<polyline points="-534.1370255464852 -4.914626260716146 -543.4145592282027 -1.2995501948103754"/>
<polyline points="-504.9128745185872 18.792104661584 -513.6254971898554 16.12316490432594 -529.3943486309382 7.390885830721007 -534.4897970586546 -0.8765885117071954 -540.6385966954393 -5.780902794510694 -546.730892612398 -16.85899434355265"/>
<polyline points="-546.730892612398 -16.85899434355263 -547.4461635504742 -25.769842869060838 -556.7529037930163 -38.04502367106549 -557.4681747310927 -46.955872196573715 -560.1148535400121 -52.49042010912531 -557.5180178304716 -59.078746603033224"/>
</svg>