<svg transform="scale(1,-1)" viewBox="-263.71822503874256 -162.80532740869754 534.1976194793342 418.8139575612963" xmlns="http://www.w3.org/2000/svg">
<style>
svg { stroke:black; stroke-width:2; fill:none;}
</style>
<polyline points="114.13404585989362 34.16605240052499 117.1759346200836 37.00205245679633"/>
<polyline points="120.21782338027369 39.83805251306779 123.25971214046376 42.67405256933914"/>
<polyline points="119.35405553780356 52.70206512589108 112.40651017495333 59.8940776261717"/>
<polyline points="112.40651017495333 59.8940776261717 92.85384447904619 40.86545342761958 105.8889549429843 53.55120289332098"/>
<polyline points="119.78404566868478 39.16717789275974 126.73159103153503 31.975165392479123"/>
<polyline points="126.73159103153503 31.975165392479123 133.67913639438527 24.78315289219849"/>
<polyline points="99.80138984189645 33.673440927338945 93.28383460992738 27.330566194488252"/>
<polyline points="93.28383460992738 27.330566194488252 86.76627937795833 20.98769146163756"/>
<polyline points="99.80138984189645 33.673440927338945 93.28383460992738 27.330566194488252"/>
<polyline points="93.71382474080856 13.795678961356908 100.66137010365883 6.603666461076252"/>
<polyline points="100.66137010365883 6.603666461076252 93.71382474080856 13.795678961356908"/>
<polyline points="112.83650030583455 46.359190393040365 119.35405553780359 52.702065125891096"/>
<polyline points="112.83650030583455 46.359190393040365 119.35405553780359 52.702065125891096"/>
<polyline points="112.83650030583455 46.359190393040365 119.78404566868478 39.16717789275974"/>
<polyline points="133.24914626350412 38.318040125329844 139.76670149547311 44.66091485818053"/>
<polyline points="146.28425672744217 51.00378959103125 139.76670149547311 44.66091485818053"/>
<polyline points="146.28425672744217 51.00378959103125 152.80181195941125 57.34666432388197"/>
<polyline points="162.36125595157037 66.525539113004 165.40314471176043 69.36153916927535"/>
<polyline points="168.44503347195055 72.19753922554665 171.48692223214067 75.03353928181804"/>
<polyline points="168.44503347195055 72.19753922554665 171.48692223214067 75.03353928181804"/>
<polyline points="181.47635635518103 70.67752683780873 188.42390171803123 63.48551433752811"/>
<polyline points="195.3714470808814 56.29350183724752 186.24578080031117 47.78550166843345 192.32955832069138 53.45750178097614"/>
<polyline points="205.36466878462946 66.14325124667756 211.88222401659854 72.48612597952824"/>
<polyline points="211.88222401659854 72.48612597952824 218.39977924856754 78.82900071237896"/>
<polyline points="192.76333603228022 54.128376401284115 189.7214472720901 51.29237634501278"/>
<polyline points="189.7214472720901 51.29237634501278 186.67955851189998 48.456376288741424"/>
<polyline points="192.76333603228022 54.128376401284115 189.7214472720901 51.29237634501278"/>
<polyline points="193.19711374386907 54.79925102159211 199.71466897583812 61.14212575444283"/>
<polyline points="199.71466897583812 61.14212575444283 193.19711374386907 54.79925102159211"/>
<polyline points="199.71466897583812 61.14212575444283 206.23222420780715 67.48500048729355"/>
<polyline points="198.84711355266037 59.80037651382685 201.8890023128505 62.636376570098236"/>
<polyline points="195.80522479247028 56.9643764575555 192.76333603228022 54.128376401284115"/>
<polyline points="196.23900250405913 57.6352510778635 202.75655773602818 63.97812581071421"/>
<polyline points="209.27411296799724 70.32100054356492 202.75655773602818 63.97812581071421"/>
<polyline points="209.27411296799724 70.32100054356492 215.7916681999663 76.6638752764156"/>
<polyline points="229.2567687947856 75.81473750898571 236.20431415763585 68.62272500870509"/>
<polyline points="243.15185952048608 61.430712508424435 250.09940488333632 54.23870000814381"/>
<polyline points="243.15185952048608 61.430712508424435 250.09940488333632 54.23870000814381"/>
<polyline points="254.0050614859965 44.2106874515918 250.96317272580632 41.37468739532048"/>
<polyline points="192.32955832069138 53.45750178097614 189.28766956050126 50.62150172470475"/>
<polyline points="189.28766956050126 50.62150172470475 186.24578080031114 47.78550166843345"/>
<polyline points="189.7214472720901 51.29237634501278 196.23900250405913 57.6352510778635"/>
<polyline points="196.23900250405913 57.6352510778635 189.7214472720901 51.29237634501278"/>
<polyline points="189.28766956050126 50.62150172470475 186.24578080031114 47.78550166843345"/>
<polyline points="189.7214472720901 51.29237634501278 196.23900250405913 57.6352510778635"/>
<polyline points="196.23900250405913 57.6352510778635 189.7214472720901 51.29237634501278"/>
<polyline points="205.36466878462946 66.14325124667756 211.88222401659854 72.48612597952824"/>
<polyline points="211.88222401659854 72.48612597952824 218.39977924856754 78.82900071237896"/>
<polyline points="198.84711355266037 59.80037651382685 179.29444785675327 40.771752315274746 192.32955832069138 53.45750178097614"/>
<polyline points="178.43446759499088 67.84152678153737 171.48692223214067 75.03353928181801"/>
<polyline points="171.48692223214067 75.03353928181801 164.53937686929035 82.22555178209865"/>
<polyline points="185.3820129578412 60.64951428125678 206.22464904639187 39.07347678041488 192.32955832069138 53.45750178097614 199.27710368354164 46.26548928069546"/>
<polyline points="186.24578080031114 47.78550166843345 183.2038920401211 44.94950161216203"/>
<polyline points="183.2038920401211 44.94950161216203 180.162003279931 42.113501555890714"/>
<polyline points="189.28766956050126 50.62150172470475 198.41333584107156 59.129501893518906 192.32955832069138 53.45750178097614"/>
<polyline points="179.2944478567533 40.7717523152747 172.77689262478424 34.428877582424"/>
<polyline points="172.77689262478424 34.428877582424 166.25933739281524 28.086002849573262"/>
<polyline points="185.81200308872235 47.114627048125385 205.36466878462946 66.14325124667756 185.81200308872235 47.114627048125385"/>
<polyline points="206.22464904639187 39.07347678041488 213.17219440924217 31.881464280134235"/>
<polyline points="213.17219440924217 31.881464280134235 220.1197397720924 24.689451779853602"/>
<polyline points="199.27710368354164 46.26548928069546 178.43446759499085 67.84152678153738 192.32955832069138 53.45750178097614"/>
<polyline points="198.41333584107156 59.129501893518906 201.45522460126165 61.96550194979026"/>
<polyline points="201.45522460126165 61.96550194979026 204.49711336145168 64.80150200606164"/>
<polyline points="195.3714470808814 56.29350183724752 186.24578080031117 47.785501668433376 192.32955832069138 53.45750178097614 198.84711355266037 59.80037651382685"/>
<polyline points="192.32955832069138 53.45750178097614 185.81200308872235 47.114627048125385"/>
<polyline points="192.32955832069138 53.45750178097614 185.81200308872235 47.114627048125385"/>
<polyline points="195.3714470808814 56.29350183724752 198.41333584107159 59.1295018935189"/>
<polyline points="194.93766936929256 55.62262721693957 188.42011413732354 49.27975248408887"/>
<polyline points="181.9025589053545 42.93687775123816 188.42011413732354 49.27975248408887"/>
<polyline points="181.9025589053545 42.93687775123816 175.3850036733855 36.59400301838744"/>
<polyline points="175.8149938042667 23.05911578525605 182.76253916711696 15.867103284975494"/>
<polyline points="189.71008452996722 8.67509078469486 196.65762989281748 1.4830782844142274"/>
<polyline points="189.71008452996722 8.67509078469486 196.65762989281748 1.4830782844142274"/>
<polyline points="206.64706401585786 -2.872934159595023 209.68895277604793 -0.036934103323601"/>
<polyline points="212.73084153623805 2.799065952947746 232.2835072321451 21.82769015149989 219.2483967682071 9.141940685798497"/>
<polyline points="225.33217428858728 14.813940798341227 228.37406304877737 17.649940854612613"/>
<polyline points="228.37406304877737 17.649940854612613 231.41595180896746 20.485940910884032"/>
<polyline points="235.32539599233525 24.66369020777127 241.84295122430433 31.00656494062195"/>
<polyline points="241.84295122430433 31.00656494062195 248.36050645627333 37.34943967347266"/>
<polyline points="248.36050645627333 37.34943967347266 254.87806168824238 43.69231440632334"/>
<polyline points="264.4375056804016 52.871189195445346 267.47939444059165 55.70718925171682"/>
<polyline points="228.8078407603663 18.32081547492052 219.68217447979595 9.812815306106407 225.76595200017613 15.484815418649175"/>
<polyline points="238.8010624641142 28.17056488435057 245.3186176960832 34.51343961720124"/>
<polyline points="245.3186176960832 34.51343961720124 251.83617292805232 40.8563143500519"/>
<polyline points="226.19972971176497 16.155690038957083 223.15784095157488 13.319689982685622"/>
<polyline points="223.15784095157488 13.319689982685622 220.1159521913847 10.48368992641432"/>
<polyline points="216.20650800801704 6.305940629527037 209.68895277604793 -0.0369341033236392"/>
<polyline points="209.68895277604793 -0.0369341033236392 203.1713975440789 -6.379808836174317"/>
<polyline points="222.72406323998598 12.648815362377832 242.27672893589315 31.67743956092982 229.24161847195506 18.991690095228503"/>
<polyline points="215.34652774625448 33.37571509578977 208.39898238340427 40.56772759607032"/>
<polyline points="208.39898238340427 40.56772759607032 201.451437020554 47.759740096350924"/>
<polyline points="222.29407310910477 26.1837025955091 243.13670919765556 4.607665094667276 229.24161847195506 18.991690095228503"/>
<polyline points="229.24161847195506 18.991690095228503 232.28350723214518 21.827690151499855"/>
<polyline points="229.24161847195506 18.991690095228503 226.19972971176497 16.155690038957044"/>
<polyline points="229.24161847195506 18.991690095228503 226.19972971176497 16.155690038957044"/>
<polyline points="222.29407310910477 26.1837025955091 215.34652774625448 33.37571509578977"/>
<polyline points="205.35709362321418 37.731727539798904 202.31520486302406 34.89572748352753"/>
<polyline points="199.27331610283397 32.05972742725611 202.31520486302406 34.89572748352753"/>
<polyline points="199.27331610283397 32.05972742725611 196.23142734264377 29.223727370984754"/>
<polyline points="186.67198335048468 20.044852581862624 180.15442811851568 13.701977849011985"/>
<polyline points="173.6368728865466 7.359103116161269 167.11931765457754 1.0162283833105556"/>
<polyline points="173.6368728865466 7.359103116161269 167.11931765457754 1.0162283833105556"/>
<polyline points="153.65421705975828 1.865366150740474 146.70667169690805 9.05737865102109"/>
<polyline points="139.75912633405778 16.24939115130172 148.88479261462814 24.757391320115907 142.8010150942479 19.085391207573103"/>
<polyline points="128.90592436854737 33.46941620813437 121.95837900569715 40.66142870841498"/>
<polyline points="121.95837900569715 40.66142870841498 115.01083364284689 47.85344120869562"/>
<polyline points="141.9372472517779 31.949403820396522 144.979136011968 34.785403876667885"/>
<polyline points="144.979136011968 34.785403876667885 148.0210247721581 37.62140393293927"/>
<polyline points="148.0210247721581 37.62140393293927 151.06291353234823 40.45740398921067"/>
<polyline points="147.15725692968812 50.48541654576266 140.20971156683788 57.67742904604327"/>
<polyline points="138.89535849158779 29.113403764125124 159.73799458013852 7.53736626328326 145.84290385443802 21.92139126384449"/>
<polyline points="151.92668137481826 27.593391376387252 154.9685701350084 30.429391432658655"/>
<polyline points="154.9685701350084 30.429391432658655 158.0104588951985 33.26539148893006"/>
<polyline points="162.77988334032864 10.373366319554641 169.7274287031789 3.1813538192740287"/>
<polyline points="169.7274287031789 3.1813538192740287 176.6749740660291 -4.010658681006605"/>
<polyline points="162.77988334032864 10.373366319554641 169.7274287031789 3.1813538192740287"/>
<polyline points="179.71686282621926 -1.1746586247352215 182.7587515864094 1.6613414315361617"/>
<polyline points="148.88479261462814 24.757391320115868 139.7591263340577 16.24939115130176 145.84290385443802 21.92139126384449"/>
<polyline points="159.7379945801385 7.537366263283242 166.68553994298875 0.3453537630026082"/>
<polyline points="166.68553994298875 0.3453537630026082 173.63308530583902 -6.846658737278024"/>
<polyline points="146.706671696908 9.057378651021127 143.66478293671784 6.2213785947497655"/>
<polyline points="143.66478293671784 6.2213785947497655 140.62289417652772 3.3853785384783617"/>
<polyline points="146.706671696908 9.057378651021127 143.66478293671784 6.2213785947497655"/>
<polyline points="147.57043953937796 -3.8066339618022518 154.51798490222822 -10.998646462082887"/>
<polyline points="154.51798490222822 -10.998646462082887 147.57043953937796 -3.8066339618022518"/>
<polyline points="152.79044921728826 14.729378763563895 155.8323379774784 17.56537881983524"/>
<polyline points="152.79044921728826 14.729378763563895 155.8323379774784 17.56537881983524"/>
<polyline points="152.79044921728826 14.729378763563895 159.7379945801385 7.537366263283242"/>
<polyline points="169.72742870317884 3.18135381927403 172.76931746336902 6.017353875545375"/>
<polyline points="175.81120622355914 8.853353931816757 172.76931746336902 6.017353875545375"/>
<polyline points="175.81120622355914 8.853353931816757 178.85309498374932 11.68935398808814"/>
<polyline points="175.3774285119704 8.182479311508807 168.85987328000138 1.8396045786581317"/>
<polyline points="162.3423180480323 -4.503270154192563 155.82476281606327 -10.846144887043275"/>
<polyline points="162.3423180480323 -4.503270154192563 155.82476281606327 -10.846144887043275"/>
<polyline points="156.2547529469445 -24.381032120174613 163.20229830979474 -31.573044620455224"/>
<polyline points="170.14984367264503 -38.7650571207359 189.70250936855206 -19.736432922183806 176.66739890461398 -32.42218238788516"/>
<polyline points="182.75117642499433 -26.750182275342414 185.79306518518445 -23.914182219071012"/>
<polyline points="185.79306518518445 -23.914182219071012 188.83495394537462 -21.07818216279963"/>
<polyline points="192.74439812874223 -16.900432865912386 199.26195336071126 -10.557558133061747"/>
<polyline points="199.26195336071126 -10.557558133061747 205.7795085926803 -4.2146834002110305"/>
<polyline points="192.74439812874223 -16.900432865912386 199.26195336071126 -10.557558133061747"/>
<polyline points="208.82139735287046 -1.37868334393965 211.8632861130606 1.4573167123317332"/>
<polyline points="211.8632861130606 1.4573167123317332 208.82139735287046 -1.37868334393965"/>
<polyline points="211.8632861130606 1.4573167123317332 214.9051748732508 4.293316768603114"/>
<polyline points="179.70928766480415 -29.586182331613777 173.19173243283518 -35.92905706446445"/>
<polyline points="186.22684289677318 -23.243307598763096 192.74439812874223 -16.900432865912386"/>
<polyline points="202.30384212090144 -7.721558076790365 205.34573088109158 -4.885558020518981"/>
<polyline points="208.38761964128173 -2.0495579642475605 205.34573088109158 -4.885558020518981"/>
<polyline points="208.38761964128173 -2.0495579642475605 211.42950840147182 0.7864420920238596"/>
<polyline points="221.41894252451223 -3.569570351985429 228.36648788736255 -10.761582852266061"/>
<polyline points="235.31403325021273 -17.953595352546696 242.26157861306297 -25.145607852827325"/>
<polyline points="235.31403325021273 -17.953595352546696 242.26157861306297 -25.145607852827325"/>
<polyline points="255.7266792078823 -25.99474562025732 262.24423443985125 -19.651870887406602"/>
<polyline points="262.24423443985125 -19.651870887406602 255.7266792078823 -25.99474562025732"/>
<polyline points="189.70250936855206 -19.736432922183806 196.22006460052108 -13.39355818933309"/>
<polyline points="196.22006460052108 -13.39355818933309 202.73761983249014 -7.050683456482413"/>
<polyline points="183.1849541365831 -26.079307655034505 163.63228844067595 -45.107931853586535 176.66739890461398 -32.42218238788516"/>
<polyline points="162.77230817891353 -18.038157387323896 155.8247628160633 -10.846144887043257"/>
<polyline points="155.8247628160633 -10.846144887043257 148.87721745321306 -3.6541323867626265"/>
<polyline points="169.7198535417637 -25.23016988760452 190.5624896303145 -46.80620738844645 176.66739890461398 -32.42218238788516"/>
<polyline points="169.7198535417637 -25.23016988760452 162.77230817891353 -18.038157387323896"/>
<polyline points="170.58362138423374 -38.09418250042796 167.5417326240436 -40.93018255669936"/>
<polyline points="167.5417326240436 -40.93018255669936 164.49984386385344 -43.766182612970745"/>
<polyline points="173.62551014442388 -35.25818244415656 182.7511764249943 -26.75018227534237 176.66739890461398 -32.42218238788516"/>
<polyline points="163.63228844067595 -45.107931853586535 157.11473320870692 -51.45080658643723"/>
<polyline points="157.11473320870692 -51.45080658643723 150.5971779767379 -57.793681319287934"/>
<polyline points="170.14984367264503 -38.7650571207359 189.70250936855206 -19.736432922183806 176.66739890461398 -32.42218238788516"/>
<polyline points="170.14984367264503 -38.7650571207359 163.63228844067595 -45.107931853586535"/>
<polyline points="170.14984367264503 -38.7650571207359 163.63228844067595 -45.107931853586535"/>
<polyline points="150.1671878458567 -44.25879408615659 143.21964248300645 -37.066781585875965"/>
<polyline points="176.66739890461398 -32.42218238788516 197.51003499316474 -53.998219888727036 183.61494426746424 -39.61419488816579"/>
<polyline points="170.5798338035262 -52.299944353867176 164.0622785715572 -58.64281908671787"/>
<polyline points="164.0622785715572 -58.64281908671787 157.54472333958813 -64.98569381956855"/>
<polyline points="190.9924797611957 -60.341094621577696 197.94002512404595 -67.53310712185834"/>
<polyline points="197.94002512404595 -67.53310712185834 204.88757048689624 -74.725119622139"/>
<polyline points="190.9924797611957 -60.341094621577696 197.94002512404595 -67.53310712185834"/>
<polyline points="198.3700152549272 -81.06799435498965 191.85246002295816 -87.41086908784035"/>
<polyline points="191.85246002295816 -87.41086908784035 198.3700152549272 -81.06799435498965"/>
<polyline points="177.09738903549527 -45.95706962101649 170.14984367264503 -38.7650571207359"/>
<polyline points="177.09738903549527 -45.95706962101649 170.14984367264503 -38.7650571207359"/>
<polyline points="177.09738903549527 -45.95706962101649 170.5798338035262 -52.299944353867176"/>
<polyline points="157.11473320870692 -51.45080658643723 150.1671878458567 -44.25879408615659"/>
<polyline points="143.21964248300645 -37.066781585875965 150.1671878458567 -44.25879408615659"/>
<polyline points="143.21964248300645 -37.066781585875965 136.2720971201562 -29.874769085595325"/>
<polyline points="126.2826629971158 -25.518756641586098 123.24077423692567 -28.3547566978575"/>
<polyline points="120.19888547673554 -31.190756754128902 117.15699671654542 -34.02675681040032"/>
<polyline points="120.19888547673554 -31.190756754128902 117.15699671654542 -34.02675681040032"/>
<polyline points="107.5975527243862 -43.20563159952237 101.07999749241722 -49.54850633237308"/>
<polyline points="94.56244226044821 -55.891381065223776 103.68810854101864 -47.383380896409605 97.60433102063834 -53.055381008952374"/>
<polyline points="83.70924029493781 -38.67135600839112 76.76169493208758 -31.47934350811051"/>
<polyline points="76.76169493208758 -31.47934350811051 69.81414956923732 -24.287331007829877"/>
<polyline points="96.74056317816836 -40.19136839612899 99.7824519383585 -37.35536833985762"/>
<polyline points="99.7824519383585 -37.35536833985762 102.82434069854864 -34.51936828358626"/>
<polyline points="96.74056317816836 -40.19136839612899 99.7824519383585 -37.35536833985762"/>
<polyline points="95.87679533569839 -27.327355783305634 88.92924997284815 -20.135343283025026"/>
<polyline points="88.92924997284815 -20.135343283025026 95.87679533569839 -27.327355783305634"/>
<polyline points="88.92924997284815 -20.135343283025026 81.98170460999788 -12.94333078274439"/>
<polyline points="90.65678565778808 -45.863368508671755 87.61489689759797 -48.69936856494314"/>
<polyline points="93.69867441797821 -43.02736845240038 96.74056317816836 -40.19136839612899"/>
<polyline points="92.83490657550823 -30.16335583957698 85.887361212658 -22.971343339296375"/>
<polyline points="78.93981584980774 -15.779330839015756 85.887361212658 -22.971343339296375"/>
<polyline points="78.93981584980774 -15.779330839015756 71.99227048695751 -8.587318338735132"/>
<polyline points="58.52716989213822 -7.738180571305185 52.00961466016919 -14.081055304155885"/>
<polyline points="45.49205942820017 -20.42393003700659 38.97450419623113 -26.766804769857288"/>
<polyline points="45.49205942820017 -20.42393003700659 38.97450419623113 -26.766804769857288"/>
<polyline points="35.49883772445224 -30.273679446436613 38.54072648464238 -27.437679390165233"/>
<polyline points="41.58261524483252 -24.601679333893877 38.54072648464238 -27.437679390165233"/>
<polyline points="41.58261524483252 -24.601679333893877 44.62450400502265 -21.765679277622482"/>
<polyline points="40.718847402362535 -11.737666721070505 33.771302039512285 -4.545654220789888"/>
<polyline points="97.60433102063834 -53.055381008952374 106.72999730120877 -44.54738084013827 100.64621978082847 -50.21938095268099"/>
<polyline points="86.75112905512798 -35.83535595211974 79.80358369227773 -28.64334345183911"/>
<polyline points="79.80358369227773 -28.64334345183911 72.85603832942748 -21.451330951558496"/>
<polyline points="99.78245193835852 -37.35536833985765 102.82434069854867 -34.51936828358628"/>
<polyline points="102.82434069854867 -34.51936828358628 105.8662294587388 -31.683368227314894"/>
<polyline points="99.78245193835852 -37.35536833985765 102.82434069854867 -34.51936828358628"/>
<polyline points="98.91868409588857 -24.491355727034282 91.97113873303833 -17.299343226753628"/>
<polyline points="91.97113873303833 -17.299343226753628 98.91868409588857 -24.491355727034282"/>
<polyline points="93.69867441797821 -43.02736845240038 90.65678565778808 -45.863368508671755"/>
<polyline points="93.69867441797821 -43.02736845240038 90.65678565778808 -45.863368508671755"/>
<polyline points="93.69867441797821 -43.02736845240038 86.75112905512798 -35.83535595211974"/>
<polyline points="76.76169493208758 -31.47934350811051 73.71980617189745 -34.31534356438187"/>
<polyline points="70.67791741170728 -37.15134362065323 73.71980617189745 -34.31534356438187"/>
<polyline points="70.67791741170728 -37.15134362065323 67.63602865151717 -39.9873436769246"/>
<polyline points="58.076584659357984 -49.16621846604667 51.55902942738896 -55.50909319889738"/>
<polyline points="45.04147419541994 -61.85196793174808 38.523918963450924 -68.19484266459878"/>
<polyline points="45.04147419541994 -61.85196793174808 38.523918963450924 -68.19484266459878"/>
<polyline points="25.058818368631638 -67.34570489716884 18.1112730057814 -60.1536923968882"/>
<polyline points="11.163727642931159 -52.961679896607585 30.71639333883822 -33.93305569805547 17.68128287490018 -46.61880516375688"/>
<polyline points="11.59750535451989 -52.29080527629962 8.555616594329756 -55.12680533257097"/>
<polyline points="8.555616594329756 -55.12680533257097 5.513727834139604 -57.96280538884234"/>
<polyline points="27.6745045786481 -36.76905575432683 34.19205981061711 -30.426181021476115"/>
<polyline points="34.19205981061711 -30.426181021476115 40.70961504258614 -24.0833062886254"/>
<polyline points="27.6745045786481 -36.76905575432683 34.19205981061711 -30.426181021476115"/>
<polyline points="37.66772628239598 -26.919306344896786 34.62583752220585 -29.755306401168152"/>
<polyline points="34.62583752220585 -29.755306401168152 37.667726282395975 -26.91930634489678"/>
<polyline points="34.62583752220585 -29.755306401168152 31.583948762015705 -32.59130645743953"/>
<polyline points="14.639394114710043 -49.45480522002823 8.121838882741022 -55.79767995287895"/>
<polyline points="21.15694934667906 -43.11193048717754 27.6745045786481 -36.76905575432683"/>
<polyline points="31.150171050426966 -33.2621810777475 28.108282290236833 -36.09818113401886"/>
<polyline points="25.06639353004667 -38.934181190290225 28.108282290236833 -36.09818113401886"/>
<polyline points="25.06639353004667 -38.934181190290225 22.02450476985655 -41.7701812465616"/>
<polyline points="12.035070646816147 -37.414168802552354 5.087525283965884 -30.222156302271742"/>
<polyline points="-1.8600200788843817 -23.030143801991137 -8.807565441734628 -15.838131301710511"/>
<polyline points="-1.8600200788843817 -23.030143801991137 -8.807565441734628 -15.838131301710511"/>
<polyline points="-9.237555572615872 -2.303244068579196 -2.7200003406468487 4.039630664271516"/>
<polyline points="3.797554891322166 10.382505397122234 10.315110123291184 16.725380129972944"/>
<polyline points="3.797554891322166 10.382505397122234 10.315110123291184 16.725380129972944"/>
<polyline points="13.790776595070081 20.232254806552298 10.748887834879959 17.396254750280935"/>
<polyline points="17.68128287490018 -46.61880516375688 37.23394857080725 -27.59018096520476 24.1988381068692 -40.27593043090618"/>
<polyline points="18.115060586488916 -45.94793054344892 15.073171826298783 -48.78393059972027"/>
<polyline points="15.073171826298783 -48.78393059972027 12.031283066108632 -51.61993065599166"/>
<polyline points="34.19205981061711 -30.426181021476115 40.70961504258614 -24.083306288625394"/>
<polyline points="40.70961504258614 -24.083306288625394 47.22717027455517 -17.74043155577468"/>
<polyline points="34.19205981061711 -30.426181021476115 40.70961504258614 -24.083306288625394"/>
<polyline points="44.18528151436504 -20.576431612046047 41.1433927541749 -23.412431668317414"/>
<polyline points="41.1433927541749 -23.412431668317414 44.18528151436503 -20.57643161204603"/>
<polyline points="21.15694934667906 -43.11193048717754 14.639394114710045 -49.45480522002825"/>
<polyline points="21.15694934667906 -43.11193048717754 14.639394114710045 -49.45480522002825"/>
<polyline points="21.15694934667906 -43.11193048717754 18.115060586488916 -45.94793054344892"/>
<polyline points="8.555616594329765 -55.126805332570974 2.0380613623607458 -61.469680065421706"/>
<polyline points="-4.47949386960828 -67.8125547982724 2.0380613623607404 -61.469680065421684"/>
<polyline points="-4.47949386960828 -67.8125547982724 -10.997049101577295 -74.15542953112312"/>
<polyline points="-24.46214969639657 -73.3062917636932 -31.409695059246815 -66.11427926341258"/>
<polyline points="-38.35724042209706 -58.92226676313195 -45.30478578494731 -51.73025426285134"/>
<polyline points="-38.35724042209706 -58.92226676313195 -45.30478578494731 -51.73025426285134"/>
<polyline points="-55.2942199079877 -47.37424181884209 -58.33610866817784 -50.21024187511344"/>
<polyline points="-61.377997428368005 -53.04624193138482 -40.53536133981725 -74.62227943222668 -54.43045206551774 -60.23825443166544"/>
<polyline points="-67.46556252945578 -72.92400389736687 -73.9831177614248 -79.26687863021759"/>
<polyline points="-73.9831177614248 -79.26687863021759 -80.5006729933938 -85.60975336306831"/>
<polyline points="-47.05291657178622 -80.96515416507735 -40.10537120893596 -88.15716666535796"/>
<polyline points="-40.10537120893596 -88.15716666535796 -33.15782584608569 -95.34917916563856"/>
<polyline points="-47.05291657178622 -80.96515416507735 -40.10537120893596 -88.15716666535796"/>
<polyline points="-39.6753810780547 -101.69205389848928 -46.192936310023704 -108.03492863134004"/>
<polyline points="-46.192936310023704 -108.03492863134004 -39.6753810780547 -101.69205389848928"/>
<polyline points="-46.192936310023704 -108.03492863134004 -52.71049154199272 -114.3778033641907"/>
<polyline points="-60.94800729748676 -66.58112916451616 -67.89555266033703 -59.38911666423555"/>
<polyline points="-54.00046193463651 -73.77314166479674 -47.05291657178622 -80.96515416507735"/>
<polyline points="-46.62292644090497 -94.50004139820865 -53.14048167287398 -100.84291613105938"/>
<polyline points="-59.658036904842994 -107.18579086391011 -53.14048167287398 -100.84291613105938"/>
<polyline points="-59.658036904842994 -107.18579086391011 -66.17559213681196 -113.52866559676086"/>
<polyline points="-75.73503612897116 -122.70754038588294 -78.7769248891613 -125.54354044215427"/>
<polyline points="-81.81881364935143 -128.37954049842563 -84.86070240954163 -131.21554055469701"/>
<polyline points="-81.81881364935143 -128.37954049842563 -84.86070240954163 -131.21554055469701"/>
<polyline points="-80.95504580688146 -141.24355311124899 -74.00750044403122 -148.4355656115296"/>
<polyline points="-67.05995508118095 -155.6275781118102 -64.0180663209908 -152.7915780555388"/>
<polyline points="-64.0180663209908 -152.7915780555388 -60.97617756080062 -149.95557799926746"/>
<polyline points="-64.45184403257949 -153.46245267584683 -70.96939926454851 -159.80532740869754"/>
<polyline points="-70.96939926454851 -159.80532740869754 -64.45184403257949 -153.46245267584683"/>
<polyline points="-64.0180663209908 -152.7915780555388 -60.97617756080062 -149.95557799926746"/>
<polyline points="-64.45184403257949 -153.46245267584683 -70.96939926454851 -159.80532740869754"/>
<polyline points="-70.96939926454851 -159.80532740869754 -64.45184403257949 -153.46245267584683"/>
<polyline points="-40.53536133981721 -74.62227943222662 -33.58781597696694 -81.81429193250723"/>
<polyline points="-33.58781597696694 -81.81429193250723 -26.640270614116673 -89.00630443278783"/>
<polyline points="-47.48290670266748 -67.43026693194605 -68.32554279121828 -45.8542294311042 -54.43045206551774 -60.23825443166544"/>
<polyline points="-48.34667454513747 -54.566254319122706 -45.30478578494731 -51.73025426285134"/>
<polyline points="-45.30478578494731 -51.73025426285134 -42.26289702475717 -48.894254206579994"/>
<polyline points="-51.3885633053276 -57.40225437539406 -60.51422958589804 -65.91025454420814 -54.43045206551774 -60.23825443166544 -57.47234082570789 -63.07425448793679"/>
<polyline points="-41.395341601579744 -47.55250496596398 -34.87778636961073 -41.20963023311327"/>
<polyline points="-34.877786369610725 -41.20963023311327 -28.36023113764172 -34.86675550026256"/>
<polyline points="-47.91289683354876 -53.89537969881471 -67.46556252945577 -72.92400389736686 -54.43045206551777 -60.238254431665425"/>
<polyline points="-68.32554279121831 -45.85422943110417 -75.27308815406857 -38.66221693082358"/>
<polyline points="-75.27308815406857 -38.66221693082358 -82.22063351691884 -31.470204430543003"/>
<polyline points="-61.37799742836805 -53.04624193138481 -40.53536133981723 -74.62227943222659 -61.37799742836805 -53.04624193138481"/>
<polyline points="-60.51422958589804 -65.91025454420814 -63.556118346088184 -68.74625460047952"/>
<polyline points="-63.556118346088184 -68.74625460047952 -66.59800710627833 -71.5822546567509"/>
<polyline points="-57.472340825707896 -63.07425448793676 -48.34667454513749 -54.566254319122685 -54.43045206551777 -60.238254431665425"/>
<polyline points="-67.46556252945578 -72.92400389736684 -73.9831177614248 -79.26687863021759"/>
<polyline points="-73.9831177614248 -79.26687863021759 -80.5006729933938 -85.60975336306826"/>
<polyline points="-60.94800729748676 -66.58112916451614 -41.395341601579766 -47.55250496596396 -54.43045206551776 -60.23825443166543 -47.48290670266748 -67.43026693194602"/>
<polyline points="-54.43045206551776 -60.23825443166543 -61.37799742836803 -53.04624193138483"/>
<polyline points="-54.43045206551776 -60.23825443166543 -61.37799742836803 -53.04624193138483"/>
<polyline points="-60.94800729748675 -66.58112916451617 -67.46556252945575 -72.92400389736687"/>
<polyline points="-80.93066312427503 -72.074866129937 -87.87820848712526 -64.8828536296564"/>
<polyline points="-94.82575384997553 -57.69084112937581 -87.87820848712526 -64.8828536296564"/>
<polyline points="-94.82575384997553 -57.69084112937581 -101.77329921282585 -50.49882862909522"/>
<polyline points="-111.76273333586624 -46.14281618508599 -114.8046220960564 -48.97881624135735"/>
<polyline points="-117.84651085624654 -51.8148162976287 -120.88839961643667 -54.65081635390009"/>
<polyline points="-117.84651085624654 -51.8148162976287 -120.88839961643667 -54.65081635390009"/>
<polyline points="-130.44784360859583 -63.82969114302219 -136.96539884056483 -70.17256587587293"/>
<polyline points="-143.48295407253383 -76.51544060872365 -122.64031798398301 -98.09147810956546 -136.53540870968357 -83.70745310900425"/>
<polyline points="-149.5705191736215 -96.39320257470577 -156.0880744055905 -102.73607730755647"/>
<polyline points="-156.0880744055905 -102.73607730755647 -162.6056296375595 -109.07895204040723"/>
<polyline points="-129.157873215952 -104.4343528424162 -122.21032785310173 -111.62636534269677"/>
<polyline points="-122.21032785310173 -111.62636534269677 -115.26278249025147 -118.8183778429774"/>
<polyline points="-115.26278249025147 -118.8183778429774 -108.31523712740119 -126.01039034325797"/>
<polyline points="-107.88524699651988 -139.54527757638934 -114.4028022284889 -145.88815230924004"/>
<polyline points="-136.10541857880224 -97.24234034213558 -116.5527528828953 -78.21371614358335 -129.58786334683325 -90.8994656092848"/>
<polyline points="-115.69277262113268 -105.28349060984603 -108.7452272582824 -112.47550311012661"/>
<polyline points="-108.7452272582824 -112.47550311012661 -101.79768189543213 -119.6675156104072"/>
<polyline points="-109.60520752004498 -85.40572864386395 -103.08765228807601 -79.06285391101322"/>
<polyline points="-103.08765228807601 -79.06285391101322 -96.57009705610703 -72.71997917816245"/>
<polyline points="-130.0178534777146 -77.36457837615355 -136.96539884056486 -70.17256587587295"/>
<polyline points="-136.96539884056486 -70.17256587587295 -143.91294420341518 -62.98055337559234"/>
<polyline points="-123.07030811486429 -84.55659087643406 -102.22767202631344 -106.13262837727581 -116.122762752014 -91.74860337671467"/>
<polyline points="-110.03898523163375 -86.07660326417196 -106.9970964714436 -83.24060320790059"/>
<polyline points="-106.9970964714436 -83.24060320790059 -103.95520771125342 -80.4046031516292"/>
<polyline points="-113.08087399182386 -88.91260332044332 -122.20654027239429 -97.4206034892574 -116.122762752014 -91.74860337671467"/>
<polyline points="-116.122762752014 -91.74860337671467 -122.64031798398298 -98.09147810956546"/>
<polyline points="-116.122762752014 -91.74860337671467 -109.60520752004503 -85.40572864386387"/>
<polyline points="-116.122762752014 -91.74860337671467 -109.60520752004503 -85.40572864386387"/>
<polyline points="-113.08087399182386 -88.91260332044332 -110.03898523163375 -86.07660326417196"/>
<polyline points="-100.4795412394746 -76.89772847504979 -93.96198600750562 -70.55485374219907"/>
<polyline points="-87.4444307755366 -64.21197900934834 -93.96198600750562 -70.55485374219907"/>
<polyline points="-87.4444307755366 -64.21197900934834 -80.92687554356766 -57.86910427649756"/>
<polyline points="-81.35686567444897 -44.33421704336625 -88.30441103729925 -37.14220454308566"/>
<polyline points="-95.25195640014954 -29.95019204280508 -102.19950176299986 -22.758179542524505"/>
<polyline points="-95.25195640014954 -29.95019204280508 -102.19950176299986 -22.758179542524505"/>
<polyline points="-106.10515836565997 -12.730166985972561 -103.06326960546987 -9.894166929701179"/>
<polyline points="-100.02138084527972 -7.058166873429814 -119.57404654118672 -26.086791071982034 -106.53893607724869 -13.40104160628057"/>
<polyline points="-100.45515855686851 -7.729041493737838 -97.41326979667836 -4.893041437466513"/>
<polyline points="-97.41326979667836 -4.893041437466513 -94.37138103648824 -2.057041381195147"/>
<polyline points="-116.53215778099656 -23.25079101571073 -123.04971301296557 -29.593665748561442"/>
<polyline points="-123.04971301296557 -29.593665748561442 -129.56726824493455 -35.93654048141218"/>
<polyline points="-129.56726824493455 -35.93654048141218 -136.08482347690352 -42.27941521426292"/>
<polyline points="-139.56048994868243 -45.78628989084235 -136.5186011884923 -42.950289834570995"/>
<polyline points="-110.01460254902759 -16.907916282859937 -119.14026882959793 -25.415916451673997 -113.05649130921768 -19.7439163391313"/>
<polyline points="-126.09160177315572 -32.429665804832766 -132.60915700512467 -38.77254053768355"/>
<polyline points="-132.60915700512467 -38.77254053768355 -139.1267122370937 -45.115415270534285"/>
<polyline points="-125.65782406156693 -31.758791184524732 -128.699712821757 -34.59479124079613"/>
<polyline points="-128.699712821757 -34.59479124079613 -131.74160158194715 -37.430791297067444"/>
<polyline points="-125.65782406156693 -31.758791184524732 -128.699712821757 -34.59479124079613"/>
<polyline points="-138.25915681391615 -43.7736660299182 -144.77671204588512 -50.11654076276892"/>
<polyline points="-119.57404654118672 -26.086791071982034 -100.02138084527978 -7.058166873429737 -113.05649130921769 -19.74391633913128"/>
<polyline points="-119.14026882959793 -25.415916451673997 -122.18215758978806 -28.25191650794532"/>
<polyline points="-122.18215758978806 -28.25191650794532 -125.2240463499782 -31.087916564216666"/>
<polyline points="-103.0632696054699 -9.894166929701065 -96.54571437350089 -3.551292196850332"/>
<polyline points="-96.54571437350089 -3.551292196850332 -90.02815914153187 2.79158253600044"/>
<polyline points="-103.0632696054699 -9.894166929701065 -96.54571437350089 -3.551292196850332"/>
<polyline points="-93.07004790172198 -0.0444175202709254 -96.11193666191214 -2.88041757654227"/>
<polyline points="-96.11193666191214 -2.88041757654227 -93.07004790172198 -0.0444175202709254"/>
<polyline points="-116.09838006940784 -22.57991639540261 -122.61593530137682 -28.92279112825338"/>
<polyline points="-116.09838006940784 -22.57991639540261 -122.61593530137682 -28.92279112825338"/>
<polyline points="-116.09838006940784 -22.57991639540261 -119.14026882959793 -25.415916451673997"/>
<polyline points="-128.699712821757 -34.59479124079613 -135.21726805372606 -40.937665973646865"/>
<polyline points="-141.73482328569503 -47.280540706497625 -135.21726805372606 -40.937665973646865"/>
<polyline points="-141.73482328569503 -47.280540706497625 -148.25237851766403 -53.62341543934838"/>
<polyline points="-161.7174791124833 -52.77427767191855 -168.66502447533358 -45.582265171637935"/>
<polyline points="-175.6125698381839 -38.39025267135742 -182.56011520103422 -31.198240171076822"/>
<polyline points="-175.6125698381839 -38.39025267135742 -182.56011520103422 -31.198240171076822"/>
<polyline points="-192.5495493240746 -26.842227727067616 -195.59143808426475 -29.678227783338887"/>
<polyline points="-198.6333268444548 -32.51422783961023 -177.790690755904 -54.09026534045198 -191.68578148160455 -39.70624033989086"/>
<polyline points="-204.72089194554252 -52.391989805592374 -211.23844717751157 -58.73486453844309"/>
<polyline points="-211.23844717751157 -58.73486453844309 -217.75600240948052 -65.07773927129391"/>
<polyline points="-184.30824598787297 -60.43314007330274 -177.3607006250227 -67.62515257358334"/>
<polyline points="-177.3607006250227 -67.62515257358334 -170.41315526217238 -74.81716507386396"/>
<polyline points="-184.30824598787297 -60.43314007330274 -177.3607006250227 -67.62515257358334"/>
<polyline points="-176.93071049414132 -81.16003980671476 -183.44826572611035 -87.50291453956547"/>
<polyline points="-183.44826572611035 -87.50291453956547 -176.93071049414132 -81.16003980671476"/>
<polyline points="-183.44826572611035 -87.50291453956547 -189.96582095807938 -93.84578927241627"/>
<polyline points="-198.20333671357358 -46.04911507274157 -205.15088207642384 -38.85710257246106"/>
<polyline points="-191.2557913507233 -53.241127573022204 -184.30824598787297 -60.43314007330274"/>
<polyline points="-183.87825585699164 -73.96802730643412 -190.3958110889606 -80.31090203928494"/>
<polyline points="-196.91336632092958 -86.65377677213569 -190.3958110889606 -80.31090203928494"/>
<polyline points="-196.91336632092958 -86.65377677213569 -203.43092155289858 -92.99665150498647"/>
<polyline points="-212.9903655450577 -102.17552629410851 -216.03225430524782 -105.01152635037987"/>
<polyline points="-219.0741430654379 -107.84752640665118 -222.11603182562803 -110.68352646292243"/>
<polyline points="-219.0741430654379 -107.84752640665118 -222.11603182562803 -110.68352646292243"/>
<polyline points="-218.2103752229678 -120.71153901947439 -211.26282986011745 -127.90355151975498"/>
<polyline points="-211.26282986011745 -127.90355151975498 -218.2103752229678 -120.71153901947439"/>
<polyline points="-177.790690755904 -54.09026534045198 -170.84314539305367 -61.282277840732576"/>
<polyline points="-170.84314539305367 -61.282277840732576 -163.89560003020338 -68.47429034101319"/>
<polyline points="-184.7382361187543 -46.898252840171395 -205.58087220730513 -25.32221533932963 -191.68578148160455 -39.70624033989086"/>
<polyline points="-185.60200396122437 -34.03424022734817 -182.56011520103422 -31.198240171076822"/>
<polyline points="-182.56011520103422 -31.198240171076822 -179.51822644084407 -28.36224011480548"/>
<polyline points="-188.6438927214145 -36.87024028361948 -197.76955900198485 -45.37824045243348 -191.68578148160455 -39.70624033989086"/>
<polyline points="-188.6438927214145 -36.87024028361948 -185.60200396122437 -34.03424022734817"/>
<polyline points="-178.6506710176667 -27.02049087418928 -172.13311578569764 -20.67761614133857"/>
<polyline points="-172.13311578569764 -20.67761614133857 -165.61556055372864 -14.334741408487758"/>
<polyline points="-185.16822624963564 -33.363365607040045 -204.7208919455425 -52.39198980559242 -191.68578148160455 -39.70624033989086"/>
<polyline points="-205.58087220730513 -25.32221533932963 -212.52841757015537 -18.13020283904908"/>
<polyline points="-212.52841757015537 -18.13020283904908 -219.47596293300572 -10.938190338768555"/>
<polyline points="-198.6333268444548 -32.51422783961023 -177.790690755904 -54.09026534045198 -191.68578148160455 -39.70624033989086"/>
<polyline points="-198.6333268444548 -32.51422783961023 -205.58087220730513 -25.32221533932963"/>
<polyline points="-198.6333268444548 -32.51422783961023 -205.58087220730513 -25.32221533932963"/>
<polyline points="-209.4865288099653 -15.294202782777768 -206.44464004977516 -12.458202726506425"/>
<polyline points="-191.68578148160455 -39.70624033989086 -200.81144776217496 -48.21424050870482 -194.7276702417946 -42.54224039616218"/>
<polyline points="-208.62276096749534 -28.158215395600976 -215.57030633034552 -20.966202895320457"/>
<polyline points="-215.57030633034552 -20.966202895320457 -222.51785169319587 -13.77419039503986"/>
<polyline points="-207.75899312502523 -41.02222800842427 -210.80088188521538 -43.858228064695545"/>
<polyline points="-210.80088188521538 -43.858228064695545 -213.84277064540552 -46.69422812096692"/>
<polyline points="-207.75899312502523 -41.02222800842427 -210.80088188521538 -43.858228064695545"/>
<polyline points="-220.7903160082558 -39.50221562068632 -227.73786137110616 -32.31020312040577"/>
<polyline points="-227.73786137110616 -32.31020312040577 -220.7903160082558 -39.50221562068632"/>
<polyline points="-201.675215604645 -35.350227895881616 -198.6333268444548 -32.51422783961023"/>
<polyline points="-201.675215604645 -35.350227895881616 -198.6333268444548 -32.51422783961023"/>
<polyline points="-201.675215604645 -35.350227895881616 -208.62276096749534 -28.158215395600976"/>
<polyline points="-212.5284175701554 -18.130202839049073 -209.4865288099653 -15.294202782777768"/>
<polyline points="-206.44464004977516 -12.458202726506462 -209.4865288099653 -15.294202782777768"/>
<polyline points="-206.44464004977516 -12.458202726506462 -203.4027512895851 -9.622202670235072"/>
<polyline points="-193.84330729742595 -0.4433278811129778 -187.32575206545692 5.899546851737775"/>
<polyline points="-180.80819683348798 12.242421584588605 -174.29064160151896 18.585296317439322"/>
<polyline points="-180.80819683348798 12.242421584588605 -174.29064160151896 18.585296317439322"/>
<polyline points="-174.72063173240028 32.120183550570665 -181.66817709525054 39.31219605085119"/>
<polyline points="-188.61572245810095 46.50420855113182 -208.16838815400789 27.47558435257949 -195.1332776900699 40.16133381828104"/>
<polyline points="-189.04950016968965 45.833333930823756 -186.00761140949953 48.66933398709513"/>
<polyline points="-186.00761140949953 48.66933398709513 -182.96572264930944 51.50533404336648"/>
<polyline points="-205.12649939381777 30.31158440885087 -211.64405462578677 23.968709676000117"/>
<polyline points="-211.64405462578677 23.968709676000117 -218.16160985775568 17.625834943149332"/>
<polyline points="-205.12649939381777 30.31158440885087 -211.64405462578677 23.968709676000117"/>
<polyline points="-215.11972109756562 20.461834999420756 -212.07783233737555 23.29783505569207"/>
<polyline points="-212.07783233737555 23.29783505569207 -215.11972109756567 20.461834999420798"/>
<polyline points="-212.07783233737555 23.29783505569207 -209.03594357718546 26.13383511196349"/>
<polyline points="-192.09138892987977 42.99733387455239 -185.57383369791077 49.34020860740318"/>
<polyline points="-198.60894416184877 36.65445914170167 -205.12649939381777 30.31158440885087"/>
<polyline points="-208.60216586559662 26.80470973227147 -205.5602771054065 29.640709788542818"/>
<polyline points="-202.51838834521644 32.4767098448142 -205.5602771054065 29.640709788542818"/>
<polyline points="-202.51838834521644 32.4767098448142 -199.47649958502637 35.31270990108554"/>
<polyline points="-203.38215618768655 45.34072245763755 -210.32970155053675 52.532734957918095"/>
<polyline points="-217.2772469133871 59.72474745819865 -224.22479227623742 66.91675995847926"/>
<polyline points="-217.2772469133871 59.72474745819865 -224.22479227623742 66.91675995847926"/>
<polyline points="-237.6898928710567 67.76589772590908 -244.2074481030257 61.42302299305834"/>
<polyline points="-250.72500333499468 55.0801482602075 -244.2074481030257 61.42302299305834"/>
<polyline points="-250.72500333499468 55.0801482602075 -257.2425585669636 48.73727352735674"/>
<polyline points="-260.71822503874256 45.23039885077731 -257.6763362785524 48.06639890704861"/>
<polyline points="-195.1332776900699 40.16133381828104 -214.6859433859768 21.132709619728697 -201.65083292203892 33.818459085430284"/>
<polyline points="-195.5670554016587 39.49045919797303 -192.52516664146862 42.32645925424439"/>
<polyline points="-192.52516664146862 42.32645925424439 -189.4832778812784 45.16245931051572"/>
<polyline points="-211.64405462578677 23.968709676000117 -218.1616098577557 17.625834943149375"/>
<polyline points="-218.1616098577557 17.625834943149375 -224.67916508972468 11.282960210298542"/>
<polyline points="-211.64405462578677 23.968709676000117 -218.1616098577557 17.625834943149375"/>
<polyline points="-221.63727632953461 14.11896026657 -218.59538756934455 16.954960322841305"/>
<polyline points="-218.59538756934455 16.954960322841305 -221.63727632953461 14.11896026657"/>
<polyline points="-198.60894416184877 36.65445914170167 -192.09138892987977 42.99733387455239"/>
<polyline points="-198.60894416184877 36.65445914170167 -192.09138892987977 42.99733387455239"/>
<polyline points="-198.60894416184877 36.65445914170167 -195.5670554016587 39.49045919797303"/>
<polyline points="-186.00761140949953 48.66933398709513 -179.4900561775306 55.012208719945924"/>
<polyline points="-172.97250094556162 61.35508345279669 -179.4900561775306 55.012208719945924"/>
<polyline points="-172.97250094556162 61.35508345279669 -166.4549457135926 67.69795818564745"/>
<polyline points="-166.88493584447386 81.2328454187788 -173.83248120732424 88.42485791905936"/>
<polyline points="-180.7800265701745 95.61687041933999 -187.72757193302485 102.80888291962052"/>
<polyline points="-180.7800265701745 95.61687041933999 -187.72757193302485 102.80888291962052"/>
<polyline points="-191.633228535685 112.83689547617243 -188.5913397754949 115.6728955324438"/>
<polyline points="-185.5494510153048 118.50889558871523 -164.70681492675388 96.93285808787343 -178.60190565245452 111.31688308843462"/>
<polyline points="-165.56679518851647 124.00263255413608 -159.04923995654755 130.34550728698693"/>
<polyline points="-159.04923995654755 130.34550728698693 -152.53168472457855 136.68838201983766"/>
<polyline points="-158.18925969478488 103.27573282072422 -151.2417143319346 96.08372032044366"/>
<polyline points="-151.2417143319346 96.08372032044366 -144.2941689690843 88.89170782016308"/>
<polyline points="-158.18925969478488 103.27573282072422 -151.2417143319346 96.08372032044366"/>
<polyline points="-137.7766137371153 95.23458255301384 -131.25905850514633 101.5774572858646"/>
<polyline points="-131.25905850514633 101.5774572858646 -137.7766137371153 95.23458255301384"/>
<polyline points="-131.25905850514633 101.5774572858646 -124.74150327317733 107.92033201871536"/>
<polyline points="-172.08435042048546 117.65975782128534 -179.03189578333576 124.85177032156591"/>
<polyline points="-165.1368050576352 110.46774532100478 -158.18925969478488 103.27573282072422"/>
<polyline points="-144.7241590999656 102.4265950532944 -138.20660386799662 108.7694697861452"/>
<polyline points="-131.68904863602765 115.11234451899597 -138.20660386799662 108.7694697861452"/>
<polyline points="-131.68904863602765 115.11234451899597 -125.17149340405864 121.45521925184671"/>
<polyline points="-115.61204941189958 130.63409404096882 -112.5701606517095 133.47009409724018"/>
<polyline points="-109.52827189151937 136.3060941535115 -106.48638313132932 139.1420942097829"/>
<polyline points="-109.52827189151937 136.3060941535115 -106.48638313132932 139.1420942097829"/>
<polyline points="-96.49694900828891 134.78608176577364 -89.54940364543859 127.59406926549309"/>
<polyline points="-82.6018582825883 120.40205676521249 -75.65431291973799 113.21004426493195"/>
<polyline points="-82.6018582825883 120.40205676521249 -75.65431291973799 113.21004426493195"/>
<polyline points="-62.18921232491873 112.36090649750214 -55.67165709294972 118.7037812303529"/>
<polyline points="-178.60190565245452 111.31688308843462 -157.7592695639036 89.7408455875929 -171.65436028960423 104.12487058815404"/>
<polyline points="-158.61924982566623 116.81062005385557 -152.10169459369723 123.15349478670632"/>
<polyline points="-152.10169459369723 123.15349478670632 -145.58413936172823 129.4963695195571"/>
<polyline points="-151.2417143319346 96.08372032044366 -144.2941689690843 88.89170782016309"/>
<polyline points="-144.2941689690843 88.89170782016309 -137.346623606234 81.6996953198825"/>
<polyline points="-151.2417143319346 96.08372032044366 -144.2941689690843 88.89170782016309"/>
<polyline points="-130.829068374265 88.04257005273327 -124.31151314229605 94.38544478558403"/>
<polyline points="-124.31151314229605 94.38544478558403 -130.829068374265 88.04257005273327"/>
<polyline points="-165.1368050576352 110.46774532100478 -172.08435042048546 117.65975782128535"/>
<polyline points="-165.1368050576352 110.46774532100478 -172.08435042048546 117.65975782128535"/>
<polyline points="-165.1368050576352 110.46774532100478 -158.61924982566623 116.81062005385557"/>
<polyline points="-159.04923995654755 130.34550728698693 -165.99678531939782 137.53751978726748"/>
<polyline points="-172.94433068224816 144.72953228754807 -165.99678531939782 137.53751978726748"/>
<polyline points="-172.94433068224816 144.72953228754807 -179.89187604509846 151.92154478782865"/>
<polyline points="-183.7975326477587 161.9495573443806 -180.75564388756854 164.7855574006519"/>
<polyline points="-177.7137551273785 167.62155745692326 -174.67186636718841 170.45755751319456"/>
<polyline points="-177.7137551273785 167.62155745692326 -174.67186636718841 170.45755751319456"/>
<polyline points="-165.11242237502935 179.63643230231665 -158.59486714306036 185.97930703516744"/>
<polyline points="-152.07731191109136 192.32218176801823 -161.20297819166166 183.8141815992042 -155.11920067128148 189.4861817117469"/>
<polyline points="-169.01429139698195 203.87020671230798 -175.96183675983224 211.06221921258862"/>
<polyline points="-175.96183675983224 211.06221921258862 -182.9093821226826 218.25423171286917"/>
<polyline points="-168.15052355451192 191.0061940994848 -171.19241231470207 188.1701940432134"/>
<polyline points="-171.19241231470207 188.1701940432134 -174.23430107489213 185.33419398694207"/>
<polyline points="-168.15052355451192 191.0061940994848 -171.19241231470207 188.1701940432134"/>
<polyline points="-181.1818464377424 192.52620648722262 -188.1293918005927 199.71821898750315"/>
<polyline points="-188.1293918005927 199.71821898750315 -181.1818464377424 192.52620648722262"/>
<polyline points="-188.1293918005927 199.71821898750315 -195.076937163443 206.91023148778373"/>
<polyline points="-162.06674603413174 196.67819421202748 -159.02485727394165 199.51419426829884"/>
<polyline points="-165.10863479432186 193.84219415575615 -168.15052355451192 191.0061940994848"/>
<polyline points="-178.13995767755233 195.36220654349395 -185.08750304040262 202.55421904377454"/>
<polyline points="-192.0350484032529 209.74623154405512 -185.08750304040262 202.55421904377454"/>
<polyline points="-192.0350484032529 209.74623154405512 -198.9825937661032 216.93824404433573"/>
<polyline points="-199.41258389698456 230.47313127746696 -192.89502866501553 236.81600601031778"/>
<polyline points="-186.3774734330465 243.15888074316857 -179.85991820107748 249.50175547601924"/>
<polyline points="-186.3774734330465 243.15888074316857 -179.85991820107748 249.50175547601924"/>
<polyline points="-176.38425172929863 253.00863015259878 -179.42614048948872 250.17263009632748"/>
</svg>