<svg transform="scale(1,-1)" viewBox="-202.75778587383746 -178.1131060255188 411.7285745393025 400.3467503083496" xmlns="http://www.w3.org/2000/svg">
<style>
svg { stroke:black; stroke-width:2; fill:none;}
</style>
<polyline points="108.95879695032937 -0.641292016759774 107.32811488857767 -5.871167080951625 105.44207631553155 -13.073914288725074"/>
<polyline points="105.44207631553155 -13.073914288725073 103.5560377424856 -20.27666149649814 101.543173070072 -28.961425528744925"/>
<polyline points="101.543173070072 -28.961425528744925 99.53030839765843 -37.64618956099173 97.52779102688602 -47.221118101165814"/>
<polyline points="97.52779102688602 -47.221118101165814 95.52527365611364 -56.796046641339885 93.66957183648417 -66.60862413274593"/>
<polyline points="93.66957183648417 -66.60862413274593 91.81387001685468 -76.42120162415198 90.23144676068358 -85.80271712680172"/>
<polyline points="90.23144676068358 -85.80271712680172 88.64902350451254 -95.18423262945146 87.44771834162985 -103.49535136552672"/>
<polyline points="87.44771834162985 -103.49535136552672 86.24641317874716 -111.80647010160195 85.5080930707527 -118.48080306401229"/>
<polyline points="85.5080930707527 -118.48080306401229 84.76977296275818 -125.1551360264226 84.54475320488005 -129.73783845363653"/>
<polyline points="84.54475320488005 -129.73783845363653 84.31973344700194 -134.32054088085042 84.62334876387682 -136.49930917572706"/>
<polyline points="84.62334876387682 -136.49930917572706 84.92696408075169 -138.67807747060377 85.73852359028263 -138.30443217443224"/>
<polyline points="85.73852359028263 -138.30443217443224 86.55008309981353 -137.93078687826065 87.81428036259146 -135.03019130049694"/>
<polyline points="87.81428036259146 -135.03019130049694 89.07847762536933 -132.1295957227332 90.70915968712067 -126.89972065854106"/>
<polyline points="90.70915968712067 -126.89972065854106 92.33984174887205 -121.66984559434889 94.22588032191798 -114.46709838657586"/>
<polyline points="94.22588032191798 -114.46709838657586 96.1119188949639 -107.2643511788028 98.12478356737749 -98.57958714655602"/>
<polyline points="98.12478356737749 -98.57958714655602 100.13764823979113 -89.89482311430919 102.14016561056349 -80.31989457413513"/>
<polyline points="102.14016561056349 -80.31989457413513 104.14268298133591 -70.74496603396105 105.99838480096538 -60.932388542555"/>
<polyline points="105.99838480096538 -60.932388542555 107.85408662059487 -51.119811051148936 109.43650987676591 -41.7382955484992"/>
<polyline points="109.43650987676591 -41.7382955484992 111.018933132937 -32.35678004584947 112.22023829581968 -24.04566130977423"/>
<polyline points="112.22023829581968 -24.04566130977423 113.42154345870235 -15.734542573698983 114.15986356669684 -9.060209611288654"/>
<polyline points="114.15986356669684 -9.060209611288654 114.89818367469132 -2.3858766488783134 115.12320343256945 2.196825778335588"/>
<polyline points="115.12320343256945 2.196825778335588 115.34822319044761 6.779528205549492 115.04460787357272 8.958296500426162"/>
<polyline points="115.04460787357272 8.958296500426162 114.74099255669783 11.137064795302846 113.92943304716695 10.763419499131302"/>
<polyline points="113.92943304716695 10.763419499131302 113.11787353763602 10.389774202959744 111.85367627485812 7.489178625196002"/>
<polyline points="111.85367627485812 7.489178625196002 110.58947901208019 4.5885830474322695 108.95879695032887 -0.6412920167598765"/>
<polyline points="108.95879695032887 -0.6412920167598765 107.32811488857752 -5.8711670809520315 105.44207631553154 -13.073914288725085"/>
<polyline points="105.44207631553154 -13.073914288725085 103.5560377424856 -20.27666149649815 101.54317307007202 -28.96142552874495"/>
<polyline points="101.54317307007202 -28.96142552874495 99.53030839765842 -37.64618956099175 97.52779102688602 -47.22111810116583"/>
<polyline points="97.52779102688602 -47.22111810116583 95.52527365611363 -56.7960466413399 93.66957183648415 -66.60862413274593"/>
<polyline points="93.66957183648415 -66.60862413274593 91.8138700168547 -76.42120162415202 90.2314467606836 -85.80271712680174"/>
<polyline points="90.2314467606836 -85.80271712680174 88.64902350451254 -95.18423262945146 87.44771834162985 -103.49535136552672"/>
<polyline points="87.44771834162985 -103.49535136552672 95.15973600904826 -119.78105773545335 91.00499337096322 -115.34407755008417"/>
<polyline points="95.15973600904826 -119.78105773545335 91.01306591608146 -113.26925681453676"/>
<polyline points="86.86639582311464 -106.75745589362023 82.71972573014787 -100.24565497270365"/>
<polyline points="82.71972573014787 -100.24565497270365 78.56498309206282 -95.8086747873345"/>
<polyline points="82.71972573014787 -100.24565497270365 95.44695772287241 -107.5136216553505 90.19380077303484 -108.66681539318037"/>
<polyline points="95.44695772287241 -107.5136216553505 89.4336735606559 -106.2294704627976"/>
<polyline points="83.42038939843944 -104.94531927024467 77.40710523622296 -103.66116807769176"/>
<polyline points="77.40710523622296 -103.66116807769176 72.15394828638537 -104.81436181552161"/>
<polyline points="77.40710523622296 -103.66116807769176 91.53950197379406 -99.57972520216107 87.23424330598172 -105.97972022308258"/>
<polyline points="91.53950197379406 -99.57972520216107 85.65320267052084 -103.948961549798"/>
<polyline points="79.76690336724768 -108.3181978974349 73.88060406397452 -112.68743424507181"/>
<polyline points="73.88060406397452 -112.68743424507181 69.57534539616219 -119.08742926599332"/>
<polyline points="44.44910754760861 -134.53361598325637 36.88739427604496 -138.97996210790734"/>
<polyline points="29.32568100448134 -143.42630823255828 28.892895078313437 -158.26205322962574 28.88475372914015 -148.48519738814872"/>
<polyline points="28.892895078313437 -158.26205322962574 29.00069404602028 -149.36140689010807"/>
<polyline points="29.1084930137271 -140.46076055059046 29.21629198143395 -131.56011421107283"/>
<polyline points="29.21629198143395 -131.56011421107283 29.208150632260654 -121.78325836959581"/>
<polyline points="29.21629198143395 -131.56011421107283 31.809759808286447 -140.97747615728244 34.43052026902721 -150.61702049430832"/>
<polyline points="34.43052026902721 -150.61702049430832 37.05128072976802 -160.25656483133423 39.52073333000903 -169.4613725427083"/>
<polyline points="39.52073333000903 -169.4613725427083 37.37087770401084 -161.3185938908522 35.68712816036286 -154.79276120706015"/>
<polyline points="39.169444301248234 -126.8573490093109 37.48569475760028 -120.33151632551882"/>
<polyline points="35.80194521395231 -113.80568364172677 46.84019416256231 -107.75437715520485 42.77102888103974 -105.95417279643979"/>
<polyline points="46.84019416256231 -107.75437715520485 41.876930165023175 -108.38871617541919"/>
<polyline points="36.91366616748402 -109.02305519563355 31.95040216994487 -109.65739421584793"/>
<polyline points="31.95040216994487 -109.65739421584793 27.88123688842233 -107.85718985708284"/>
<polyline points="31.95040216994487 -109.65739421584793 27.88123688842233 -107.85718985708284 24.9834772122385 -103.74512307140986"/>
<polyline points="24.9834772122385 -103.74512307140986 23.454600674551124 -97.60142441476088 23.398797684815584 -89.84477679764443"/>
<polyline points="23.398797684815584 -89.84477679764443 23.34299469508004 -82.088129180528 24.764068134828058 -73.24713531958433"/>
<polyline points="24.764068134828058 -73.24713531958433 26.185141574576058 -64.40614145864068 28.986247637323682 -55.08330047505994"/>
<polyline points="28.986247637323682 -55.08330047505994 31.78735370007129 -45.76045949147921 35.777601636688914 -36.591107591569234"/>
<polyline points="35.777601636688914 -36.591107591569234 39.76784957330651 -27.421755691659268 44.67531058111014 -19.030769054328466 56.63733271631327 -3.160361799564062 49.42304255069314 -9.132347545696957"/>
<polyline points="56.63733271631327 -3.160361799564062 49.806942186268174 -10.359252746990272"/>
<polyline points="42.97655165622306 -17.558143694416465 36.146161126177965 -24.75703464184267"/>
<polyline points="36.146161126177965 -24.75703464184267 28.93187096055783 -30.729020387975552"/>
<polyline points="44.67531058111014 -19.030769054328466 39.76784957330651 -27.42175569165927 34.27761085203595 -34.462545193837876"/>
<polyline points="34.27761085203595 -34.462545193837876 28.787372130765377 -41.50333469601648 23.08850639183395 -46.71410889392423"/>
<polyline points="23.08850639183395 -46.71410889392423 17.38964065290254 -51.92488309183196 11.870516178597525 -54.95053633509294"/>
<polyline points="11.870516178597525 -54.95053633509294 6.351391704292507 -57.97618957835391 1.3881277067533595 -58.61052859856828"/>
<polyline points="1.3881277067533595 -58.61052859856828 -3.575136290785803 -59.24486761878265 -7.644301572308361 -57.444663260017606"/>
<polyline points="-7.644301572308361 -57.444663260017606 -11.713466853830939 -55.64445890125254 -14.611226530014731 -51.532392115579555"/>
<polyline points="-14.611226530014731 -51.532392115579555 -11.41324932147483 -47.97129819941505 -15.251744577036243 -53.708790416410785"/>
<polyline points="-11.41324932147483 -47.97129819941505 -14.227898082198665 -51.8629216400891"/>
<polyline points="-17.04254684292252 -55.75454508076317 -19.85719560364638 -59.64616852143724"/>
<polyline points="-19.85719560364638 -59.64616852143724 -23.695690859207794 -65.38366073843298"/>
<polyline points="-19.85719560364638 -59.64616852143724 -8.008196668606132 -51.22291476618252 -14.864209511538212 -58.058557689320715"/>
<polyline points="-8.008196668606132 -51.22291476618252 -14.623876652830623 -56.941402407830616"/>
<polyline points="-21.23955663705512 -62.65989004947873 -27.8552366212796 -68.37837769112683"/>
<polyline points="-27.8552366212796 -68.37837769112683 -34.7112494642117 -75.21402061426501"/>
<polyline points="-27.8552366212796 -68.37837769112683 -10.842173304660125 -58.51167570403288 -18.22202764198436 -64.49229653523939"/>
<polyline points="-10.842173304660125 -58.51167570403288 -19.06557181170021 -64.1611632359499"/>
<polyline points="-27.288970318740283 -69.81065076786692 -35.51236882578037 -75.46013829978395"/>
<polyline points="-35.51236882578037 -75.46013829978395 -42.89222316310459 -81.44075913099044"/>
<polyline points="-76.62936136098077 -103.70757595936908 -86.03265934886952 -107.02919028319464"/>
<polyline points="-95.43595733675816 -110.35080460702018 -103.50369416404617 -125.42761024339929 -99.75955874992997 -121.82004936844181"/>
<polyline points="-103.50369416404617 -125.42761024339929 -99.47750311703687 -119.65803488378391"/>
<polyline points="-95.45131207002756 -113.8884595241685 -91.42512102301828 -108.11888416455314"/>
<polyline points="-91.42512102301828 -108.11888416455314 -87.68098560890205 -104.51132328959562"/>
<polyline points="-91.42512102301828 -108.11888416455314 -92.67696565057028 -112.38196565916095 -93.47652075343308 -114.21484703379377"/>
<polyline points="-93.47652075343308 -114.21484703379377 -94.27607585629586 -116.04772840842654 -94.56885307553658 -115.3255018263827"/>
<polyline points="-94.56885307553658 -115.3255018263827 -94.80280602357192 -118.5536178170727 -95.54754563210024 -124.06763244635724"/>
<polyline points="-88.28521308760203 -147.41318755524074 -89.02995269613035 -152.9272021845253"/>
<polyline points="-89.7746923046587 -158.44121681380986 -80.56135621405306 -175.1131060255188 -81.95436898808077 -165.2357913951048"/>
<polyline points="-80.56135621405306 -175.1131060255188 -83.66701953521114 -165.68522929804743"/>
<polyline points="-86.77268285636923 -156.25735257057616 -89.87834617752728 -146.82947584310477"/>
<polyline points="-89.87834617752728 -146.82947584310477 -91.27135895155496 -136.95216121269078"/>
<polyline points="-89.87834617752728 -146.82947584310477 -91.27135895155496 -136.95216121269078 -90.85678965996476 -127.29853134836266"/>
<polyline points="-90.85678965996476 -127.29853134836266 -88.66289051487037 -118.52646517199665 -84.83917211742028 -111.23376449698742"/>
<polyline points="-84.83917211742028 -111.23376449698742 -81.01545371997015 -103.94106382197818 -75.8224961599571 -98.62471414756982"/>
<polyline points="-75.8224961599571 -98.62471414756982 -70.62953859994401 -93.30836447316149 -64.42123335331476 -90.3306662439818"/>
<polyline points="-64.42123335331476 -90.3306662439818 -58.21292810668551 -87.35296801480204 -51.41236091628831 -86.91684644429053"/>
<polyline points="-51.41236091628831 -86.91684644429053 -44.61179372589113 -86.48072487377902 -37.68241200728295 -88.61590092624112 -20.818744591638605 -86.9971884736006 -28.817433170112373 -82.75945421109806"/>
<polyline points="-20.818744591638605 -86.9971884736006 -29.323808768988204 -85.2225294144503"/>
<polyline points="-37.828872946337796 -83.4478703553 -46.33393712368738 -81.67321129614967"/>
<polyline points="-46.33393712368738 -81.67321129614967 -54.33262570216115 -77.43547703364715"/>
<polyline points="-37.68241200728295 -88.61590092624112 -44.61179372589112 -86.480724873779 -51.19776405993187 -81.91975991777333"/>
<polyline points="-51.19776405993187 -81.91975991777333 -57.783734393972665 -77.35879496176769 -63.577470349011726 -70.68286332661927"/>
<polyline points="-63.577470349011726 -70.68286332661927 -69.37120630405079 -64.00693169147087 -73.9778743493536 -55.67098708561638"/>
<polyline points="-73.9778743493536 -55.67098708561638 -78.58454239465641 -47.33504247976194 -81.69020571581444 -37.9071657522906"/>
<polyline points="-81.69020571581444 -37.9071657522906 -84.79586903697253 -28.47928902481926 -86.1888818110002 -18.601974394405268"/>
<polyline points="-86.1888818110002 -18.601974394405268 -87.58189458502791 -8.724659763991278 -87.16732529343766 0.9289701003368497"/>
<polyline points="-87.16732529343766 0.9289701003368497 -79.25122872655326 19.149031970074134 -86.1436899487237 12.32710177744685"/>
<polyline points="-79.25122872655326 19.149031970074134 -84.86786574479024 10.902042038816177"/>
<polyline points="-90.48450276302722 2.6550521075582307 -96.10113978126421 -5.5919378236997135"/>
<polyline points="-96.10113978126421 -5.5919378236997135 -102.99360100343462 -12.413868016327019"/>
<polyline points="-96.10113978126421 -5.5919378236997135 -79.66643188300512 5.760676526561054 -88.79386738439618 4.0469163984235825"/>
<polyline points="-79.66643188300512 5.760676526561054 -88.64475556918116 1.9352962012107597"/>
<polyline points="-97.62307925535718 -1.890084124139545 -106.60140294153318 -5.71546444948985"/>
<polyline points="-106.60140294153318 -5.71546444948985 -115.72883844292427 -7.4292245776273305"/>
<polyline points="-106.60140294153318 -5.71546444948985 -86.87876522226604 -5.082811102262731 -95.10615493600643 -1.1646106693362317"/>
<polyline points="-86.87876522226604 -5.082811102262731 -96.2421697824629 -3.218344048332327"/>
<polyline points="-105.60557434265972 -1.3538769944019393 -114.96897890285658 0.510590059528459"/>
<polyline points="-114.96897890285658 0.510590059528459 -123.19636861659694 4.428790492454959"/>
<polyline points="-161.78600170384078 9.832925329180433 -171.42611205604646 12.446102441152874"/>
<polyline points="-181.06622240825214 15.059279553125315 -191.63620945540939 24.555209071825978 -188.6117900199388 16.04511679266239"/>
<polyline points="-191.63620945540939 24.555209071825978 -187.33494080056218 17.692333746580125"/>
<polyline points="-183.0336721457149 10.829458421334259 -178.73240349086763 3.966583096088407"/>
<polyline points="-178.73240349086763 3.966583096088407 -175.70798405539702 -4.54350918307519"/>
<polyline points="-178.73240349086763 3.966583096088407 -179.60880992311337 12.11396641840641 -179.07544971774985 21.340976977411664"/>
<polyline points="-179.07544971774985 21.340976977411664 -178.5420895123862 30.567987536416904 -176.63531028598942 40.2458198108691"/>
<polyline points="-176.63531028598942 40.2458198108691 -179.78556468024215 30.776694097099835 -183.964609611424 22.161580212936755"/>
<polyline points="-191.39969601147374 -13.685961021441086 -195.57874094265554 -22.301074905604157"/>
<polyline points="-199.75778587383746 -30.916188789767226 -198.16982558485446 -41.86292265722819 -196.20771802759344 -40.546405756579496"/>
<polyline points="-198.16982558485446 -41.86292265722819 -197.56515834179226 -38.348220156486065"/>
<polyline points="-196.9604910987301 -34.833517655743954 -196.3558238556679 -31.318815155001797"/>
<polyline points="-196.3558238556679 -31.318815155001797 -194.39371629840687 -30.00229825435312"/>
<polyline points="-196.3558238556679 -31.318815155001797 -194.39371629840687 -30.00229825435312 -191.20788281443836 -30.97368540492999"/>
<polyline points="-191.20788281443836 -30.97368540492999 -187.01543269085582 -34.166778177713816 -182.10207447523035 -39.36397257707467"/>
<polyline points="-182.10207447523035 -39.36397257707467 -177.18871625960472 -44.56116697643554 -171.88928719462254 -51.40828279282682"/>
<polyline points="-171.88928719462254 -51.40828279282682 -166.58985812964033 -58.2553986092181 -161.26550554835944 -66.28581621514664"/>
<polyline points="-161.26550554835944 -66.28581621514664 -155.94115296707858 -74.3162338210752 -150.95472269900466 -82.98269352758949"/>
<polyline points="-150.95472269900466 -82.98269352758949 -145.96829243093075 -91.64915323410378 -141.65960145836732 -100.36105013420679 -127.65609665009063 -114.6122795644025 -132.7387383244527 -107.78305775322318"/>
<polyline points="-127.65609665009063 -114.6122795644025 -133.91143932217068 -107.38872463581684"/>
<polyline points="-140.16678199425075 -100.1651697072312 -146.42212466633077 -92.94161477864553"/>
<polyline points="-146.42212466633077 -92.94161477864553 -151.5047663406928 -86.11239296746625"/>
<polyline points="-146.42212466633077 -92.94161477864553 -141.3394829919687 -99.77083658982485 -138.18991091141427 -106.2233318883157"/>
<polyline points="-138.18991091141427 -106.2233318883157 -135.04033883085987 -112.67582718680656 -134.038474476489 -118.31186908126938"/>
<polyline points="-134.038474476489 -118.31186908126938 -132.82435570458514 -113.87636753194253 -129.4769939942857 -110.94367842832533"/>
<polyline points="-111.07233847841992 -92.0720124412571 -107.72497676812038 -89.13932333763992"/>
<polyline points="-104.37761505782092 -86.20663423402272 -86.9100990221069 -78.65543344753986 -96.61648312058054 -77.44569262870945"/>
<polyline points="-86.9100990221069 -78.65543344753986 -96.45541897031379 -79.98362009737231"/>
<polyline points="-106.00073891852072 -81.31180674720476 -115.54605886672765 -82.6399933970372"/>
<polyline points="-115.54605886672765 -82.6399933970372 -125.2524429652013 -81.4302525782068"/>
<polyline points="-115.54605886672765 -82.6399933970372 -125.2524429652013 -81.4302525782068 -134.45841717818877 -77.76502612832562"/>
<polyline points="-134.45841717818877 -77.76502612832562 -142.5366095766667 -71.89409317287996 -148.936504698523 -64.217548090608"/>
<polyline points="-157.01469709700095 -58.346615135162374 -165.09288949547891 -52.4756821797167 -171.98025871197387 -45.37080988965075"/>
<polyline points="-171.98025871197387 -45.37080988965075 -178.86762792846892 -38.26593759958476 -184.09481113279253 -30.411311280109864"/>
<polyline points="-184.09481113279253 -30.411311280109864 -180.88403783768615 -38.48041182570522 -179.908483345805 -46.214090730057805"/>
<polyline points="-171.25813738127923 -69.98440701193411 -170.2825828893979 -77.7180859162867"/>
<polyline points="-169.30702839751672 -85.45176482063928 -169.66895487710346 -86.89199098228323 -164.57689603725623 -87.06923661883724"/>
<polyline points="-169.66895487710346 -86.89199098228323 -166.9394377981893 -86.6109821151979"/>
<polyline points="-164.20992071927512 -86.3299732481125 -161.48040364036092 -86.04896438102715"/>
<polyline points="-161.48040364036092 -86.04896438102715 -156.3883448005137 -86.22621001758111"/>
<polyline points="-161.48040364036092 -86.04896438102715 -156.3883448005137 -86.22621001758111 -149.28075959464394 -86.8496311605555"/>
<polyline points="-149.28075959464394 -86.8496311605555 -140.6420182086917 -87.87674268930883 -131.06083659191452 -89.23754865053859"/>
<polyline points="-131.06083659191452 -89.23754865053859 -140.6420182086917 -87.87674268930884 -150.5126983627617 -86.27497897302233"/>
<polyline points="-150.5126983627617 -86.27497897302233 -160.3833785168317 -84.6732152567358 -169.8708866677648 -82.93965133561768"/>
<polyline points="-169.8708866677648 -82.93965133561768 -161.41310852160606 -84.686875945193 -154.5614439837431 -86.32869077350811"/>
<polyline points="-126.43968518925972 -82.48031514365533 -119.5880206513967 -84.12212997197042"/>
<polyline points="-112.7363561135338 -85.76394480028554 -107.49193252325159 -75.60726891098136 -105.49960617564827 -78.62377046005973"/>
<polyline points="-107.49193252325159 -75.60726891098136 -107.81798522336298 -79.79746616703235"/>
<polyline points="-108.14403792347441 -83.98766342308333 -108.47009062358583 -88.1778606791343"/>
<polyline points="-108.47009062358583 -88.1778606791343 -106.47776427598252 -91.19436222821265"/>
<polyline points="-108.47009062358583 -88.1778606791343 -106.47776427598252 -91.19436222821265 -102.30283262877867 -92.8315984747532"/>
<polyline points="-102.30283262877867 -92.8315984747532 -96.22981037433051 -92.97799447421512 -88.6725639431349 -91.62357358116576"/>
<polyline points="-88.6725639431349 -91.62357358116576 -96.22981037433051 -92.97799447421512 -104.7562671269279 -95.74093071420064"/>
<polyline points="-104.7562671269279 -95.74093071420064 -113.28272387952528 -98.50386695418624 -122.19732701647082 -102.48702900232108"/>
<polyline points="-122.19732701647082 -102.48702900232108 -113.50209296688163 -97.55508705713088 -105.61879383557458 -92.01046890803057"/>
<polyline points="-79.83872763974372 -62.14042249712719 -71.95542850843668 -56.59580434802689"/>
<polyline points="-64.07212937712963 -51.05118619892657 -62.326660824995685 -32.3192412762902 -61.168616733352614 -39.01548051223986"/>
<polyline points="-62.326660824995685 -32.3192412762902 -62.17897359694413 -40.63365386373301"/>
<polyline points="-62.03128636889257 -48.948066451175826 -61.88359914084104 -57.26247903861864"/>
<polyline points="-61.88359914084104 -57.26247903861864 -60.725555049197986 -63.958718274568305"/>
<polyline points="-61.88359914084104 -57.26247903861864 -60.725555049197986 -63.958718274568305 -58.63607288505057 -68.5804465211534"/>
<polyline points="-58.63607288505057 -68.5804465211534 -55.757547404852886 -70.81270063613624 -52.28614536309212 -70.50335619055505"/>
<polyline points="-49.40761988289443 -72.73561030553789 -56.54037001623131 -61.927331387170746 -50.68423491578831 -62.71065491734496"/>
<polyline points="-56.54037001623131 -61.927331387170746 -51.66291984839017 -65.1301979121963"/>
<polyline points="-46.78546968054902 -68.33306443722184 -41.90801951270786 -71.53593096224736"/>
<polyline points="-41.90801951270786 -71.53593096224736 -36.051884412264876 -72.3192544924216"/>
<polyline points="-41.90801951270786 -71.53593096224736 -57.387605627346154 -69.7034394605564 -50.204808430395445 -65.52184142757842"/>
<polyline points="-57.387605627346154 -69.7034394605564 -49.66310450721353 -68.01316874138666"/>
<polyline points="-41.938603387080924 -66.32289802221693 -34.214102266948295 -64.63262730304717"/>
<polyline points="-34.214102266948295 -64.63262730304717 -27.031305069997593 -60.45102927006922"/>
<polyline points="-34.214102266948295 -64.63262730304717 -51.33006270951995 -72.50745056588306 -45.437942647329855 -64.55993619209934"/>
<polyline points="-51.33006270951995 -72.50745056588306 -43.850140395510145 -66.35536016632226"/>
<polyline points="-36.37021808150032 -60.20326976676143 -28.890295767490507 -54.05117936720061"/>
<polyline points="-28.890295767490507 -54.05117936720061 -22.998175705300397 -46.10366499341689"/>
<polyline points="-28.890295767490507 -54.05117936720061 -42.4401514861419 -68.64789724516235 -40.02814641644017 -59.381995284846916"/>
<polyline points="-42.4401514861419 -68.64789724516235 -37.68464506991834 -60.073604867592586"/>
<polyline points="-32.92913865369475 -51.49931249002279 -28.17363223747118 -42.92502011245302"/>
<polyline points="-28.17363223747118 -42.92502011245302 -25.761627167769447 -33.6591181521376"/>
<polyline points="-4.396100156353331 -0.0535582246041794 1.391712870782581 7.106705626650488"/>
<polyline points="7.1795258979184915 14.26696947790514 4.066766527271626 33.78931682594034 7.769432739265645 26.37688048853145"/>
<polyline points="4.066766527271626 33.78931682594034 6.789049001859691 24.89960213769936"/>
<polyline points="9.51133147644776 16.009887449458375 12.233613951035826 7.120172761217404"/>
<polyline points="12.233613951035826 7.120172761217404 15.93628016302986 -0.2922635761914847"/>
<polyline points="12.233613951035826 7.120172761217404 6.409745145146553 14.119471796936214 -0.069898589086054 19.150424507243013"/>
<polyline points="-0.069898589086054 19.150424507243013 -6.54954232331865 24.18137721754979 -13.243383973524205 26.901132489279593"/>
<polyline points="-13.243383973524205 26.901132489279593 -6.7915186537108525 26.67792148328706 -1.0213136236234217 28.966466204216562"/>
<polyline points="13.582010316419979 35.202193474918204 19.35221534650741 37.49073819584771"/>
<polyline points="25.122420376594842 39.77928291677721 21.151129503674323 47.75516803520911 23.650706681003822 39.85665595303698"/>
<polyline points="21.151129503674323 47.75516803520911 23.472851571620932 41.60228635533214"/>
<polyline points="25.79457363956753 35.44940467545516 28.116295707514123 29.296522995578187"/>
<polyline points="28.116295707514123 29.296522995578187 30.615872884843633 21.3980109134061"/>
<polyline points="28.116295707514123 29.296522995578187 30.615872884843633 21.3980109134061 33.122963117667645 12.292138974430499"/>
<polyline points="33.122963117667645 12.292138974430499 35.4667123497817 2.5994573031277333 37.487397944245956 -7.019493862516778"/>
<polyline points="37.487397944245956 -7.019493862516778 35.4667123497817 2.5994573031277333 33.90679677688914 11.48916233724365"/>
<polyline points="33.90679677688914 11.48916233724365 32.34688120399657 20.378867371359586 31.35404132108594 27.933507566804135"/>
<polyline points="31.35404132108594 27.933507566804135 30.361201438175343 35.488147762248666 30.00309764252156 41.19288687433549"/>
<polyline points="30.00309764252156 41.19288687433549 29.644993846867774 46.89762598642233 29.946030320350125 50.36369547218989"/>
<polyline points="29.946030320350125 50.36369547218989 30.247066793832477 53.82976495795741 31.186728398269413 54.82095790990123"/>
<polyline points="31.186728398269413 54.82095790990123 32.12639000270635 55.812150861845076 33.640640352619755 54.260919118314035"/>
<polyline points="33.640640352619755 54.260919118314035 26.58745575623977 49.32256111058948 28.631231478030717 56.27040843724762"/>
<polyline points="26.58745575623977 49.32256111058948 29.470890419841954 54.19717263573066"/>
<polyline points="32.354325083444124 59.07178416087183 35.23775974704629 63.946395686013"/>
<polyline points="35.23775974704629 63.946395686013 37.281535468837234 70.89424301267111"/>
<polyline points="35.23775974704628 63.946395686012984 26.55996476806849 49.916333289266326 28.560929614901255 59.53936179803752"/>
<polyline points="26.55996476806849 49.916333289266326 29.8417190000049 58.52882674079007"/>
<polyline points="33.12347323194133 67.14132019231381 36.405227463877736 75.75381364383755"/>
<polyline points="36.405227463877736 75.75381364383755 38.4061923107105 85.37684215260872"/>
<polyline points="36.405227463877736 75.75381364383755 28.245105375918744 57.507245156212974 29.172530788944144 66.7269970288651"/>
<polyline points="28.245105375918744 57.507245156212974 30.83717110225037 67.00229934010171"/>
<polyline points="33.42923682858201 76.49735352399045 36.02130255491363 85.99240770787915"/>
<polyline points="36.02130255491363 85.99240770787915 36.94872796793904 95.21215958053125"/>
<polyline points="48.98163118657181 133.4676786273228 53.76732064233031 141.84372117447717"/>
<polyline points="58.553010098088805 150.2197637216315 52.23078339871952 166.99162254750843 54.505132614733135 161.9197861084053"/>
<polyline points="52.23078339871952 166.99162254750843 55.04438586060854 160.02537033343097"/>
<polyline points="57.857988322497576 153.05911811935354 60.671590784386616 146.09286590527608"/>
<polyline points="60.671590784386616 146.09286590527608 62.94594000040023 141.021029466173"/>
<polyline points="60.671590784386616 146.09286590527608 56.03100192828067 150.15395634118576 52.16528711911991 152.0094340652927"/>
<polyline points="52.16528711911991 152.0094340652927 48.29957230995913 153.86491178939968 45.47217362359205 153.38832906112793"/>
<polyline points="45.47217362359205 153.38832906112793 47.06857363918679 156.16449391643687 47.32518296112211 161.05104985172292"/>
<polyline points="39.484183609264086 175.3347549530689 39.7407929311994 180.22131088835502"/>
<polyline points="39.997402253134744 185.1078668236411 25.68758188689479 192.70309246652715 32.65641649118355 185.75146956802698"/>
<polyline points="25.68758188689479 192.70309246652715 32.99857016519246 187.13887861729194"/>
<polyline points="40.309558443490126 181.5746647680567 47.62054672178779 176.01045091882145"/>
<polyline points="47.62054672178779 176.01045091882145 54.589381326076534 169.05882802032122"/>
<polyline points="47.62054672178779 176.01045091882145 54.589381326076534 169.05882802032122 60.7411476946178 161.19353768498877"/>
<polyline points="60.7411476946178 161.19353768498877 65.6566131156701 152.95058645117015 69.00079674397941 144.89171782332915"/>
<polyline points="69.00079674397941 144.89171782332915 72.3449803722887 136.83284919548817 73.88998162011049 129.507261752702"/>
<polyline points="73.88998162011049 129.507261752702 75.43498286793223 122.18167430991582 75.07551245346272 116.08859473030472"/>
<polyline points="75.07551245346272 116.08859473030472 74.7160420389932 109.99551515069368 72.47659727692553 105.5501767383181"/>
<polyline points="72.47659727692553 105.5501767383181 70.23715251485787 101.10483832594251 66.27034786486952 98.61018354733673 58.41728055811742 87.09818770974557 65.30217575289997 88.6072166823028"/>
<polyline points="58.41728055811742 87.09818770974557 64.01368793946592 90.85884235507372"/>
<polyline points="69.61009532081444 94.61949700040186 75.20650270216294 98.38015164573002"/>
<polyline points="75.20650270216294 98.38015164573002 82.0913978969455 99.88918061828726"/>
<polyline points="66.27034786486952 98.61018354733673 70.23715251485787 101.10483832594251 75.66098587132484 101.47880287022845"/>
<polyline points="75.66098587132484 101.47880287022845 81.08481922779181 101.8527674145144 87.5960560108026 100.08055665879299"/>
<polyline points="87.5960560108026 100.08055665879299 94.10729279381339 98.3083459030716 101.26220297693337 94.51073308162859"/>
<polyline points="101.26220297693337 94.51073308162859 108.41711316005335 90.71312026018559 115.72810143835099 85.14890641095033"/>
<polyline points="115.72810143835099 85.14890641095033 123.03908971664865 79.58469256171509 130.00792432093735 72.63306966321484"/>
<polyline points="130.00792432093735 72.63306966321484 136.97675892522614 65.68144676471461 143.1285252937674 57.81615642938215"/>
<polyline points="143.1285252937674 57.81615642938215 149.28029166230866 49.950866094049715 154.19575708336097 41.70791486023107"/>
<polyline points="154.19575708336097 41.70791486023107 159.11122250441326 33.46496362641246 162.45540613272254 25.40609499857147"/>
<polyline points="162.45540613272254 25.40609499857147 165.79958976103185 17.347226370730457 167.34459100885366 10.021638927944265"/>
<polyline points="167.34459100885366 10.021638927944265 168.8895922566754 2.69605148515813 168.5301218422059 -3.3970280944529763"/>
<polyline points="168.5301218422059 -3.3970280944529763 168.17065142773637 -9.49010767406404 165.93120666566873 -13.935446086439628"/>
<polyline points="165.93120666566873 -13.935446086439628 163.69176190360105 -18.38078449881522 159.72495725361264 -20.875439277421005"/>
<polyline points="159.72495725361264 -20.875439277421005 154.12992207319826 -24.747221495438946 147.1333387962404 -26.451388999544406"/>
<polyline points="147.1333387962404 -26.451388999544406 140.13675551928253 -28.15555650364986 132.2154297337053 -27.575973094708036"/>
<polyline points="132.2154297337053 -27.575973094708036 140.5216727662245 -30.399809765184628 148.64677630973523 -35.27545989471379"/>
<polyline points="174.28942840645502 -59.094324053139296 182.41453194996572 -63.96997418266844"/>
<polyline points="190.5396354934764 -68.84562431219759 193.38774151400543 -87.3828124044876 192.81949783070462 -77.52765982847497"/>
<polyline points="193.38774151400543 -87.3828124044876 192.3564528584265 -77.48363272542879"/>
<polyline points="191.32516420284747 -67.58445304637003 190.29387554726853 -57.685273367311254"/>
<polyline points="190.29387554726853 -57.685273367311254 189.72563186396775 -47.83012079129863"/>
<polyline points="190.29387554726853 -57.685273367311254 189.72563186396775 -47.83012079129863 189.65915802089492 -38.69060767997776"/>
<polyline points="189.65915802089492 -38.69060767997776 190.09898410060234 -30.889576748125602 191.01513668260486 -24.958655361934706"/>
<polyline points="191.01513668260486 -24.958655361934706 190.09898410060234 -30.889576748125602 188.76893930075445 -34.54620609749731"/>
<polyline points="188.76893930075445 -34.54620609749731 187.43889450090657 -38.202835446869024 185.78559783832 -39.335979512127594"/>
<polyline points="185.78559783832 -39.335979512127594 187.64947692829188 -40.8035426264204 189.59691816587338 -44.771800919288296"/>
<polyline points="186.96693785716016 -60.98379160387053 188.91437909474158 -64.9520498967384"/>
<polyline points="190.86182033232313 -68.92030818960629 181.7434728525871 -83.01144464033607 184.0411302283705 -73.40329566561137"/>
<polyline points="181.7434728525871 -83.01144464033607 185.29282981615142 -74.39084627406683"/>
<polyline points="188.84218677971566 -65.7702479077976 192.39154374328 -57.149649541528355"/>
<polyline points="192.39154374328 -57.149649541528355 194.68920111906343 -47.54150056680364"/>
<polyline points="192.39154374328 -57.149649541528355 194.68920111906343 -47.54150056680364 195.5785773539647 -37.60058045803401"/>
<polyline points="195.5785773539647 -37.60058045803401 194.99906292733894 -28.004346492484895 192.99015078966787 -19.406766156381984"/>
<polyline points="192.99015078966787 -19.406766156381984 194.99906292733894 -28.004346492484895 198.3004687337573 -35.017362307409435"/>
<polyline points="198.3004687337573 -35.017362307409435 201.6018745401757 -42.03037812233399 205.970788665465 -46.98090397784969"/>
<polyline points="205.970788665465 -46.98090397784969 200.83210049897122 -44.43023823766544 195.27383139773585 -44.45325626783177"/>
<polyline points="165.2414936528647 -43.418748261899104 159.6832245516293 -43.44176629206544"/>
<polyline points="154.1249554503939 -43.464784322231765 135.8755482115282 -50.543637372280436 142.0051150710083 -42.806492280678505"/>
<polyline points="135.8755482115282 -50.543637372280436 143.77173964970387 -44.70645437658963"/>
<polyline points="151.66793108787945 -38.86927138089882 159.56412252605506 -33.032088385208006"/>
<polyline points="159.56412252605506 -33.032088385208006 165.69368938553515 -25.29494329360606"/>
<polyline points="159.56412252605506 -33.032088385208006 165.69368938553515 -25.29494329360606 169.6389118144342 -16.185109757848803"/>
<polyline points="169.6389118144342 -16.185109757848803 171.13092942401127 -6.323407878686409 170.06806367984925 3.6181036580491406"/>
<polyline points="171.56008128942622 13.479805537211545 162.05032620684415 -4.08188656132449 162.10313064531536 5.599112898913899"/>
<polyline points="162.05032620684415 -4.08188656132449 164.53896552516147 5.474667889876916"/>
<polyline points="167.0276048434788 15.031222341078324 169.51624416179615 24.587776792279733"/>
<polyline points="169.51624416179615 24.587776792279733 169.56904860026734 34.268776252518116"/>
<polyline points="169.51624416179615 24.587776792279733 168.99579843931548 7.180163863931623 164.23759070719993 14.64210524948615"/>
<polyline points="168.99579843931548 7.180163863931623 166.66747014098445 15.548170707601388"/>
<polyline points="164.33914184265345 23.916177551271137 162.01081354432245 32.2841843949409"/>
<polyline points="162.01081354432245 32.2841843949409 157.25260581220687 39.74612578049542"/>
<polyline points="162.01081354432245 32.2841843949409 170.80586192733654 20.41635661675802 162.61654262999883 23.31370112584714"/>
<polyline points="170.80586192733654 20.41635661675802 164.2904323020612 24.98775234809943"/>
<polyline points="157.77500267678585 29.559148079440856 151.25957305151047 34.13054381078225"/>
<polyline points="151.25957305151047 34.13054381078225 143.07025375417282 37.027888319871394"/>
<polyline points="151.25957305151047 34.13054381078225 166.05907198194646 31.993745451021685 156.95606660373787 29.494266341475594"/>
<polyline points="166.05907198194646 31.993745451021685 157.51661748167314 31.2529639692987"/>
<polyline points="148.9741629813998 30.5121824875757 140.43170848112644 29.771401005852724"/>
<polyline points="140.43170848112644 29.771401005852724 131.32870310291787 27.271921896306623"/>
<polyline points="97.71943597975974 26.067493597237775 90.69469085968655 24.01188117489409"/>
<polyline points="83.66994573961334 21.956268752550404 64.50204204069037 16.535121029781337 71.3978749464567 23.64022677605652"/>
<polyline points="64.50204204069037 16.535121029781337 73.03260634837665 21.616090675954883"/>
<polyline points="81.56317065606294 26.697060322128433 90.09373496374924 31.778029968301976"/>
<polyline points="90.09373496374924 31.778029968301976 96.98956786951553 38.88313571457714"/>
<polyline points="90.09373496374924 31.778029968301976 83.56528385217096 25.29104501996523 79.12898552806456 17.243063230949797"/>
<polyline points="79.12898552806456 17.243063230949797 74.69268720395816 9.195081441934349 72.65086806678181 0.1345594712428708"/>
<polyline points="72.65086806678181 0.1345594712428708 72.15906141709516 9.590162024528281 69.16714479097277 18.796461472523262"/>
<polyline points="59.96660011958095 57.72350887771292 56.974683493458556 66.92980832570791"/>
<polyline points="53.98276686733617 76.13610777370289 44.88022581857518 90.70906822015762 53.08111056405709 87.0168297683758"/>
<polyline points="44.88022581857518 90.70906822015762 51.481227118464915 85.02606525232746"/>
<polyline points="58.08222841835465 79.34306228449731 64.68322971824438 73.66005931666717"/>
<polyline points="64.68322971824438 73.66005931666717 72.88411446372632 69.9678208648854"/>
<polyline points="64.68322971824438 73.66005931666717 72.88411446372632 69.9678208648854 82.12600591199863 68.51796687792837"/>
<polyline points="82.12600591199863 68.51796687792837 91.7790844338094 69.40930250901023 101.18550868036368 72.58108470787454"/>
<polyline points="101.18550868036368 72.58108470787454 91.7790844338094 69.40930250901023 83.26034673006322 64.1732254575982"/>
<polyline points="83.26034673006322 64.1732254575982 74.74160902631705 58.93714840618618 67.69109576200958 51.99360650025368"/>
<polyline points="67.69109576200958 51.99360650025368 60.64058249770213 45.050064594321185 55.53877450027186 36.872248740011976"/>
<polyline points="55.53877450027186 36.872248740011976 50.43696650284161 28.694432885702774 47.63154355617707 19.83964771900833"/>
<polyline points="47.63154355617707 19.83964771900833 44.826120609512536 10.984862552313906 44.50826765124827 2.0565470491200997"/>
<polyline points="44.50826765124827 2.0565470491200997 44.19041469298401 -6.871768454073701 46.3817928769489 -15.265164346963225"/>
<polyline points="46.3817928769489 -15.265164346963225 52.76909740179766 -34.2177801189152 45.30010128840737 -27.596947855009326"/>
<polyline points="52.76909740179766 -34.2177801189152 47.24970446001307 -25.88528723396745"/>
<polyline points="41.730311518228454 -17.552794349019713 36.21091857644386 -9.22030146407197"/>
<polyline points="36.21091857644386 -9.22030146407197 28.741922463053555 -2.599469200166092"/>
<polyline points="36.21091857644386 -9.22030146407197 51.234579710191156 -21.81750959115961 41.454455497815246 -20.105257414988625"/>
<polyline points="51.234579710191156 -21.81750959115961 42.28360526234849 -17.670785266326494"/>
<polyline points="33.33263081450579 -13.524060941493385 24.38165636666313 -9.377336616660271"/>
<polyline points="24.38165636666313 -9.377336616660271 14.601532154287233 -7.665084440489282"/>
<polyline points="24.38165636666313 -9.377336616660271 42.84915555648217 -11.611457954107442 33.894488381895094 -15.45980521871895"/>
<polyline points="42.84915555648217 -11.611457954107442 33.43413823606661 -13.025275931405492"/>
<polyline points="24.019120915651033 -14.439093908703539 14.604103595235475 -15.852911886001598"/>
<polyline points="14.604103595235475 -15.852911886001598 5.649436420648419 -19.701259150613097"/>
<polyline points="-32.47098300684235 -22.92200177249181 -40.76963841145083 -24.256750805890498"/>
<polyline points="-49.06829381605931 -25.5914998392892 -64.99458031702969 -37.396698973058896 -60.584156328872574 -28.469008970216876"/>
<polyline points="-64.99458031702969 -37.396698973058896 -58.58955060259521 -29.71997620299773"/>
<polyline points="-52.18452088816071 -22.04325343293656 -45.77949117372623 -14.366530662875384"/>
<polyline points="-45.77949117372623 -14.366530662875384 -41.36906718556909 -5.438840660033359"/>
<polyline points="-45.77949117372623 -14.366530662875384 -49.147914941780684 -23.67063177669134 -50.256675173841735 -33.60446690571775"/>
<polyline points="-50.256675173841735 -33.60446690571775 -51.36543540590278 -43.538302034744135 -50.13897192446838 -53.42489673137659"/>
<polyline points="-50.13897192446838 -53.42489673137659 -53.6170776599652 -44.25929755734334 -59.10979849149179 -36.439314342750905"/>
<polyline points="-75.70493621573226 -6.462745563854232 -81.19765704725886 1.3572376507382073"/>
<polyline points="-86.69037787878548 9.17722086533066 -94.69458493173762 14.27919153515088 -87.8305841077166 15.704719150136127"/>
<polyline points="-94.69458493173762 14.27919153515088 -89.06987542777765 13.69661175040246"/>
<polyline points="-83.44516592381765 13.114031965654029 -77.82045641985765 12.531452180905603"/>
<polyline points="-77.82045641985765 12.531452180905603 -70.95645559583666 13.956979795890849"/>
<polyline points="-77.82045641985765 12.531452180905603 -70.95645559583666 13.956979795890849 -63.320933764613976 17.293467459444308"/>
<polyline points="-63.320933764613976 17.293467459444308 -55.43423912069104 22.31353905110136 -47.83383687067204 28.67508498795115"/>
<polyline points="-47.83383687067204 28.67508498795115 -40.23343462065305 35.03663092480093 -33.43727961761816 42.306122364198856"/>
<polyline points="-33.43727961761816 42.306122364198856 -26.64112461458332 49.575613803596795 -21.11236359081225 57.25764691735052"/>
<polyline points="-21.11236359081225 57.25764691735052 -15.583602567041169 64.93968003110423 -11.699011449594312 72.51073695767141"/>
<polyline points="-11.699011449594312 72.51073695767141 -7.8144203321474555 80.08179388423858 -5.838727586088461 87.02591960583679 4.848061621994029 98.35187810494018 3.652546564460132 94.1603580212169"/>
<polyline points="4.848061621994029 98.35187810494018 1.4632729127529753 93.25081389013684"/>
<polyline points="-1.9215157964880953 88.14974967533355 -5.306304505729143 83.04868546053022"/>
<polyline points="-5.306304505729143 83.04868546053022 -6.501819563263024 78.85716537680696"/>
<polyline points="-5.838727586088461 87.02591960583679 -3.863034840029433 93.970045327435 -3.9308806610155793 99.81400915184769"/>
<polyline points="-3.9308806610155793 99.81400915184769 -3.9987264820017336 105.65797297626033 -6.105487289453311 110.00351842646059"/>
<polyline points="-6.105487289453311 110.00351842646059 -8.212248096904897 114.34906387666089 -12.214351623380953 116.90004921157099"/>
<polyline points="-12.214351623380953 116.90004921157099 -16.216455149857005 119.45103454648113 -21.841164653817017 120.03361433122956"/>
<polyline points="-21.841164653817017 120.03361433122956 -27.465874157777012 120.616194115978 -34.329874981798 119.19066650099276"/>
<polyline points="-34.329874981798 119.19066650099276 -41.193875805819005 117.76513888600753 -48.829397637041666 114.42865122245406"/>
<polyline points="-48.829397637041666 114.42865122245406 -56.464919468264306 111.09216355890062 -64.35161411218726 106.0720919672436"/>
<polyline points="-64.35161411218726 106.0720919672436 -72.23830875611017 101.05202037558655 -79.83871100612919 94.69047443873676"/>
<polyline points="-79.83871100612919 94.69047443873676 -72.23830875611017 101.05202037558655 -65.4421537530753 108.32151181498448"/>
<polyline points="-65.4421537530753 108.32151181498448 -58.64599875004046 115.59100325438239 -53.11723772626937 123.27303636813608"/>
<polyline points="-53.11723772626937 123.27303636813608 -57.00182884371625 115.70197944156892 -58.97752158977522 108.7578537199707"/>
<polyline points="-60.24634130619187 75.32741154551391 -62.22203405225088 68.3832858239157"/>
<polyline points="-64.19772679830986 61.43916010231748 -53.0547057921529 47.13741162255673 -60.38263131973061 49.855985886126795"/>
<polyline points="-53.0547057921529 47.13741162255673 -59.73194522378389 52.246214097259816"/>
<polyline points="-66.40918465541483 57.3550165719629 -73.08642408704578 62.46381904666599"/>
<polyline points="-73.08642408704578 62.46381904666599 -80.41434961462352 65.18239331023604"/>
<polyline points="-73.08642408704578 62.46381904666599 -80.41434961462352 65.18239331023604 -87.89357522341302 65.32547301926715"/>
<polyline points="-87.89357522341302 65.32547301926715 -95.01440404818007 62.88330752803926 -101.29156337224279 58.02232637891022"/>
<polyline points="-64.19772679830986 61.43916010231748 -64.05766647556219 53.361277652223784 -62.42532264443836 46.81984163767684"/>
<polyline points="-62.42532264443836 46.81984163767684 -60.792978813314505 40.278405623129906 -57.7795930083299 35.71920409828699"/>
<polyline points="-57.7795930083299 35.71920409828699 -54.76620720334531 31.160002573444068 -50.577136687254104 28.893737587786436"/>
<polyline points="-50.577136687254104 28.893737587786436 -46.38806617116289 26.627472602128805 -41.308789176870356 26.80858636924907"/>
<polyline points="-41.308789176870356 26.80858636924907 -36.22951218257781 26.98970013636934 -30.60617304334289 29.605850052342905"/>
<polyline points="-30.60617304334289 29.605850052342905 -24.982833904107988 32.22199996831648 -19.19865388926219 37.09489973976189"/>
<polyline points="-19.19865388926219 37.09489973976189 -13.414473874416425 41.96779951120731 -7.8636352931620985 48.7653690715482"/>
<polyline points="-7.8636352931620985 48.7653690715482 -2.312796711907792 55.562938631889104 2.6264199596370625 63.82193484910309"/>
<polyline points="2.6264199596370625 63.82193484910309 7.565636631181926 72.08093106631705 11.55663193929304 81.23851699683753"/>
<polyline points="11.55663193929304 81.23851699683753 15.547627247404137 90.39610292735803 18.318421457265288 99.82820422364638"/>
<polyline points="18.318421457265288 99.82820422364638 21.089215667126453 109.26030551993472 22.450983732289544 118.32414006593324"/>
<polyline points="22.450983732289544 118.32414006593324 23.812751797452663 127.38797461193178 23.672691474704983 135.46585706202544"/>
<polyline points="23.672691474704983 135.46585706202544 23.532631151957297 143.54373951211917 21.90028732083349 150.0851755266661"/>
<polyline points="21.90028732083349 150.0851755266661 20.267943489709662 156.62661154121304 17.254557684725025 161.18581306605594"/>
<polyline points="17.254557684725025 161.18581306605594 14.241171879740392 165.74501459089888 10.052101363649184 168.0112795765565"/>
<polyline points="10.052101363649184 168.0112795765565 5.863030847557961 170.27754456221413 0.7837538532654494 170.0964307950939"/>
<polyline points="0.7837538532654494 170.0964307950939 -4.29552314102708 169.91531702797363 -9.918862280262012 167.29916711200008"/>
<polyline points="-9.918862280262012 167.29916711200008 -15.542201419496967 164.6830171960265 -21.326381434342714 159.8101174245811"/>
<polyline points="-21.326381434342714 159.8101174245811 -27.110561449188484 154.93721765313563 -32.66140003044281 148.13964809279477"/>
<polyline points="-32.66140003044281 148.13964809279477 -38.212238611697146 141.34207853245385 -43.15145528324196 133.08308231523992"/>
<polyline points="-43.15145528324196 133.08308231523992 -48.090671954786814 124.82408609802592 -52.081667262897916 115.66650016750538"/>
<polyline points="-52.081667262897916 115.66650016750538 -56.072662571009054 106.50891423698491 -58.843456780870206 97.07681294069656"/>
<polyline points="-58.843456780870206 97.07681294069656 -55.48641029612714 77.42290805402993 -59.479692562009745 85.842741628178"/>
<polyline points="-55.48641029612714 77.42290805402993 -58.42235286743425 86.86813952049907"/>
<polyline points="-61.35829543874138 96.31337098696821 -64.29423801004855 105.75860245343736"/>
<polyline points="-64.29423801004855 105.75860245343736 -68.28752027593119 114.17843602758545"/>
<polyline points="-64.29423801004855 105.75860245343736 -52.20634905063044 90.44695832519427 -59.22031915348591 94.54193204709298"/>
<polyline points="-52.20634905063044 90.44695832519427 -58.96562301720967 96.52961781425925"/>
<polyline points="-65.72489698378892 102.61227730332423 -72.48417095036821 108.69493679238919"/>
<polyline points="-72.48417095036821 108.69493679238919 -79.49814105322368 112.78991051428794"/>
<polyline points="-72.48417095036821 108.69493679238919 -55.24478161658204 102.83380968235394 -62.73998798172502 101.26228137527653"/>
<polyline points="-55.24478161658204 102.83380968235394 -63.586468210648455 103.53729809261904"/>
<polyline points="-71.92815480471488 104.24078650288415 -80.2698413987813 104.9442749131492"/>
<polyline points="-80.2698413987813 104.9442749131492 -87.76504776392426 103.37274660607177"/>
<polyline points="-121.97827436911324 108.46171696447463 -131.44855412285156 108.5026602913772"/>
<polyline points="-140.91883387658987 108.54360361827975 -149.26941012191452 102.27231346748276 -145.48369974619362 109.65051852340119"/>
<polyline points="-149.26941012191452 102.27231346748276 -145.14849406308625 107.71468277015964"/>
<polyline points="-141.02757800425798 113.15705207283662 -136.90666194542965 118.5994213755135"/>
<polyline points="-136.90666194542965 118.5994213755135 -133.12095156970878 125.97762643143196"/>
<polyline points="-136.90666194542965 118.5994213755135 -138.21322583808367 111.0091805111861 -139.01106900962594 101.99314132008634"/>
<polyline points="-139.01106900962594 101.99314132008634 -139.80891218116824 92.97710212898656 -140.04366293795638 83.1496927822786"/>
<polyline points="-140.04366293795638 83.1496927822786 -140.3880024720535 93.1187505781784 -141.28796612683522 102.55008200912647"/>
<polyline points="-134.67049240189738 139.17632994014426 -135.570456056679 148.60766137109226"/>
<polyline points="-136.4704197114607 158.03899280204027 -127.64868935665932 168.2664121358984 -128.8289751028922 166.42142783418535"/>
<polyline points="-127.64868935665932 168.2664121358984 -130.54288204281715 164.66432707964918"/>
<polyline points="-133.43707472897498 161.06224202339993 -136.3312674151327 157.46015696715065"/>
<polyline points="-136.3312674151327 157.46015696715065 -137.5115531613656 155.61517266543754"/>
<polyline points="-136.3312674151327 157.46015696715065 -137.5115531613656 155.61517266543754 -136.89749744458214 155.6530217494417"/>
<polyline points="-136.89749744458214 155.6530217494417 -134.53094714710613 157.57112486663672 -130.57317876080128 161.23876645940112"/>
<polyline points="-130.57317876080128 161.23876645940112 -126.61541037449646 164.9064080521655 -121.33613927436785 170.07364440701662"/>
<polyline points="-121.33613927436785 170.07364440701662 -116.05686817423933 175.24088076186774 -109.81586796135288 181.55557326048435"/>
<polyline points="-109.81586796135288 181.55557326048435 -103.5748677484664 187.87026575910096 -96.79745227358978 194.90207854322506"/>
<polyline points="-96.79745227358978 194.90207854322506 -90.02003679871314 201.93389132734913 -83.1680757262505 209.20361797636278 -66.31827544855172 219.23364428283082 -74.20459586625876 213.9680233409605"/>
<polyline points="-66.31827544855172 219.23364428283082 -74.76158450636078 213.91199648374422"/>
<polyline points="-83.20489356416984 208.5903486846576 -91.64820262197892 203.26870088557104"/>
<polyline points="-91.64820262197892 203.26870088557104 -99.53452303968592 198.0030799437007"/>
</svg>