<svg viewBox="-1010.1279150291839 -697.5792391592983 2083.1416331920655 1500.8619487184037" xmlns="http://www.w3.org/2000/svg">
<style type="text/css">
svg { stroke:black; stroke-width:2; fill:none; transform:scale(1,-1);}
</style>
<polyline points="108.90434680916094 453.86457836038596 13.521186432785495 451.3976711521975"/>
<polyline points="13.521186432785813 451.3976711521966 -81.86197394358908 448.9307639440075"/>
<polyline points="-81.86197394358908 448.9307639440075 -104.54025341283186 520.1879159503021"/>
<polyline points="-81.86197394358908 448.9307639440075 -104.54025341283185 520.1879159503021"/>
<polyline points="-81.86197394358908 448.9307639440075 -59.18369447434637 377.67361193771313"/>
<polyline points="-59.18369447434637 377.67361193771313 -36.50541500510365 306.4164599314187"/>
<polyline points="-36.50541500510365 306.4164599314187 58.87774537127119 308.88336713960786"/>
<polyline points="58.87774537127119 308.88336713960786 154.26090574764606 311.3502743477969"/>
<polyline points="154.26090574764606 311.3502743477969 58.87774537127119 308.88336713960786"/>
<polyline points="-36.50541500510365 306.4164599314187 -16.814088058204494 376.53302471305943"/>
<polyline points="-16.814088058204494 376.53302471305943 2.8772388886945697 446.6495894947002"/>
<polyline points="2.8772388886945697 446.6495894947002 -16.814088058204494 376.53302471305943"/>
<polyline points="2.8772388886945697 446.6495894947002 -92.50592148768028 444.18268228651124"/>
<polyline points="-92.50592148768028 444.18268228651124 -187.88908186405516 441.7157750783221"/>
<polyline points="-187.88908186405516 441.7157750783221 -168.19775491715606 511.832339859963"/>
<polyline points="-187.88908186405516 441.7157750783221 -168.197754917156 511.832339859963"/>
<polyline points="-187.88908186405516 441.7157750783221 -207.58040881095428 371.59921029668135"/>
<polyline points="-207.58040881095428 371.59921029668135 -227.27173575785343 301.4826455150406"/>
<polyline points="-227.27173575785343 301.4826455150406 -131.88857538147857 303.94955272322954"/>
<polyline points="-131.88857538147857 303.94955272322954 -36.50541500510368 306.4164599314186"/>
<polyline points="-36.50541500510368 306.4164599314186 -16.814088058204515 376.5330247130594"/>
<polyline points="-36.50541500510368 306.4164599314186 -16.814088058204515 376.53302471305943"/>
<polyline points="-36.50541500510368 306.4164599314186 -56.19674195200289 236.2998951497779"/>
<polyline points="-56.19674195200289 236.2998951497779 -75.88806889890208 166.1833303681372"/>
<polyline points="-75.88806889890208 166.1833303681372 -53.20978942965932 94.92617836184266"/>
<polyline points="-53.20978942965932 94.92617836184266 -30.531509960416532 23.669026355548148"/>
<polyline points="-30.531509960416532 23.669026355548148 -53.20978942965931 94.9261783618427"/>
<polyline points="-75.88806889890208 166.1833303681372 19.49509147747277 168.6502375763263"/>
<polyline points="19.49509147747277 168.6502375763263 114.87825185384762 171.1171447845154"/>
<polyline points="114.87825185384762 171.1171447845154 92.19997238460483 242.37429679080998"/>
<polyline points="114.87825185384762 171.1171447845154 92.19997238460479 242.37429679080995"/>
<polyline points="114.87825185384762 171.1171447845154 137.55653132309038 99.85999277822086"/>
<polyline points="137.55653132309038 99.85999277822086 160.2348107923332 28.602840771926328"/>
<polyline points="160.2348107923332 28.602840771926328 179.9261377392324 98.7194055535671"/>
<polyline points="179.9261377392324 98.7194055535671 199.61746468613157 168.83597033520795"/>
<polyline points="199.61746468613157 168.83597033520795 179.92613773923244 98.71940555356711"/>
<polyline points="160.2348107923332 28.602840771926328 140.543483845434 -41.51372400971444"/>
<polyline points="140.543483845434 -41.51372400971444 120.85215689853479 -111.63028879135526"/>
<polyline points="120.85215689853479 -111.63028879135526 98.17387742929193 -40.373136785060694"/>
<polyline points="120.85215689853479 -111.63028879135526 98.17387742929192 -40.373136785060744"/>
<polyline points="120.85215689853479 -111.63028879135526 143.53043636777767 -182.8874407976497"/>
<polyline points="143.53043636777767 -182.8874407976497 166.20871583702052 -254.1445928039442"/>
<polyline points="166.20871583702052 -254.1445928039442 185.90004278391984 -184.0280280223034"/>
<polyline points="185.90004278391984 -184.0280280223034 205.59136973081914 -113.91146324066263"/>
<polyline points="205.59136973081914 -113.91146324066263 185.90004278391984 -184.0280280223034"/>
<polyline points="166.20871583702052 -254.1445928039442 70.82555546064575 -256.6115000121333"/>
<polyline points="70.82555546064575 -256.6115000121333 -24.557604915729033 -259.0784072203224"/>
<polyline points="-24.557604915729033 -259.0784072203224 70.82555546064572 -256.6115000121334"/>
<polyline points="-24.557604915729033 -259.0784072203224 -44.24893186262837 -329.19497200196315"/>
<polyline points="-44.24893186262837 -329.19497200196315 -63.940258809527684 -399.311536783604"/>
<polyline points="-63.940258809527684 -399.311536783604 -159.32341918590245 -401.77844399179304"/>
<polyline points="-63.940258809527684 -399.311536783604 -159.32341918590245 -401.77844399179304"/>
<polyline points="-63.940258809527684 -399.311536783604 31.44290156684706 -396.84462957541507"/>
<polyline points="31.44290156684706 -396.84462957541507 126.82606194322186 -394.377722367226"/>
<polyline points="126.82606194322186 -394.377722367226 146.51738889012123 -324.26115758558507"/>
<polyline points="146.51738889012123 -324.26115758558507 166.20871583702066 -254.1445928039444"/>
<polyline points="166.20871583702066 -254.1445928039444 143.53043636777767 -182.88744079764984"/>
<polyline points="166.20871583702066 -254.1445928039444 143.53043636777767 -182.88744079764984"/>
<polyline points="166.20871583702066 -254.1445928039444 188.8869953062636 -325.40174481023877"/>
<polyline points="188.8869953062636 -325.40174481023877 211.56527477550657 -396.65889681653323"/>
<polyline points="211.56527477550657 -396.65889681653323 191.87394782860704 -466.775461598174"/>
<polyline points="191.87394782860704 -466.775461598174 172.1826208817076 -536.8920263798148"/>
<polyline points="172.1826208817076 -536.8920263798148 191.87394782860704 -466.775461598174"/>
<polyline points="211.56527477550657 -396.65889681653323 306.9484351518813 -394.19198960834433"/>
<polyline points="306.9484351518813 -394.19198960834433 402.33159552825595 -391.72508240015543"/>
<polyline points="402.33159552825595 -391.72508240015543 306.94843515188126 -394.1919896083443"/>
<polyline points="402.33159552825595 -391.72508240015543 422.0229224751555 -321.60851761851455"/>
<polyline points="422.0229224751555 -321.60851761851455 441.71424942205493 -251.4919528368737"/>
<polyline points="441.71424942205493 -251.4919528368737 537.0974097984297 -249.02504562868486"/>
<polyline points="441.71424942205493 -251.4919528368737 537.0974097984297 -249.02504562868486"/>
<polyline points="441.71424942205493 -251.4919528368737 346.33108904568024 -253.95886004506272"/>
<polyline points="346.33108904568024 -253.95886004506272 250.94792866930555 -256.42576725325165"/>
<polyline points="250.94792866930555 -256.42576725325165 155.56476829293072 -258.8926744614404"/>
<polyline points="155.56476829293072 -258.8926744614404 60.18160791655598 -261.3595816696293"/>
<polyline points="60.18160791655598 -261.3595816696293 82.85988738579887 -332.61673367592385"/>
<polyline points="60.18160791655598 -261.3595816696293 82.85988738579881 -332.61673367592385"/>
<polyline points="60.18160791655598 -261.3595816696293 37.5033284473132 -190.10242966333482"/>
<polyline points="37.5033284473132 -190.10242966333482 14.825048978070399 -118.84527765704034"/>
<polyline points="14.825048978070399 -118.84527765704034 34.51637592496995 -48.72871287539963"/>
<polyline points="34.51637592496995 -48.72871287539963 54.20770287186947 21.387851906241178"/>
<polyline points="54.20770287186947 21.387851906241178 34.51637592496987 -48.728712875399644"/>
<polyline points="14.825048978070399 -118.84527765704034 34.51637592496989 -48.72871287539963"/>
<polyline points="34.51637592496989 -48.72871287539963 54.207702871869394 21.387851906241174"/>
<polyline points="54.207702871869394 21.387851906241174 149.59086324824415 23.85475911443005"/>
<polyline points="54.207702871869394 21.387851906241174 149.59086324824418 23.854759114430074"/>
<polyline points="54.207702871869394 21.387851906241174 -41.17545750450537 18.920944698052278"/>
<polyline points="-41.17545750450537 18.920944698052278 -136.55861788088006 16.45403748986338"/>
<polyline points="-136.55861788088006 16.45403748986338 -156.24994482777973 -53.66252729177726"/>
<polyline points="-156.24994482777973 -53.66252729177726 -175.9412717746792 -123.77909207341798"/>
<polyline points="-175.9412717746792 -123.77909207341798 -156.24994482777973 -53.662527291777295"/>
<polyline points="-136.55861788088006 16.45403748986338 -113.88033841163745 -54.8031145164312"/>
<polyline points="-113.88033841163745 -54.8031145164312 -91.20205894239474 -126.06026652272574"/>
<polyline points="-91.20205894239474 -126.06026652272574 -113.8803384116375 -54.803114516431165"/>
<polyline points="-91.20205894239474 -126.06026652272574 -71.51073199549519 -55.94370174108502"/>
<polyline points="-71.51073199549519 -55.94370174108502 -51.8194050485957 14.172863040555779"/>
<polyline points="-51.8194050485957 14.172863040555779 -29.14112557935295 -57.0842889657388"/>
<polyline points="-51.8194050485957 14.172863040555779 -29.141125579352998 -57.084288965738786"/>
<polyline points="-51.8194050485957 14.172863040555779 -74.49768451783842 85.4300150468504"/>
<polyline points="-74.49768451783842 85.4300150468504 -97.17596398708115 156.68716705314495"/>
<polyline points="-97.17596398708115 156.68716705314495 -119.85424345632381 227.94431905943958"/>
<polyline points="-119.85424345632381 227.94431905943958 -142.53252292556644 299.2014710657342"/>
<polyline points="-142.53252292556644 299.2014710657342 -237.91568330194116 296.73456385754525"/>
<polyline points="-142.53252292556644 299.2014710657342 -237.91568330194116 296.73456385754525"/>
<polyline points="-142.53252292556644 299.2014710657342 -47.14936254919167 301.668378273923"/>
<polyline points="-47.14936254919167 301.668378273923 48.23379782718309 304.13528548211184"/>
<polyline points="48.23379782718309 304.13528548211184 67.92512477408253 374.25185026375254"/>
<polyline points="67.92512477408253 374.25185026375254 87.61645172098193 444.3684150453933"/>
<polyline points="87.61645172098193 444.3684150453933 67.92512477408253 374.25185026375254"/>
<polyline points="48.23379782718309 304.13528548211184 28.542470880283734 234.01872070047108"/>
<polyline points="28.542470880283734 234.01872070047108 8.851143933384304 163.9021559188304"/>
<polyline points="8.851143933384304 163.9021559188304 31.52942340262702 92.6450039125359"/>
<polyline points="8.851143933384304 163.9021559188304 31.52942340262705 92.64500391253587"/>
<polyline points="8.851143933384304 163.9021559188304 -13.827135535858448 235.15930792512498"/>
<polyline points="-13.827135535858448 235.15930792512498 -36.505415005101256 306.4164599314196"/>
<polyline points="-36.505415005101256 306.4164599314196 -16.814088058201886 376.5330247130603"/>
<polyline points="-16.814088058201886 376.5330247130603 2.877238888697379 446.649589494701"/>
<polyline points="2.877238888697379 446.649589494701 -16.814088058201914 376.5330247130603"/>
<polyline points="-36.505415005101256 306.4164599314196 58.877745371273555 308.8833671396086"/>
<polyline points="58.877745371273555 308.8833671396086 154.26090574764828 311.3502743477977"/>
<polyline points="154.26090574764828 311.3502743477977 58.877745371273555 308.8833671396086"/>
<polyline points="154.26090574764828 311.3502743477977 134.569578800749 241.2337095661569"/>
<polyline points="134.569578800749 241.2337095661569 114.87825185384972 171.1171447845162"/>
<polyline points="114.87825185384972 171.1171447845162 210.26141223022444 173.5840519927053"/>
<polyline points="114.87825185384972 171.1171447845162 210.26141223022444 173.5840519927053"/>
<polyline points="114.87825185384972 171.1171447845162 19.495091477474908 168.65023757632713"/>
<polyline points="19.495091477474908 168.65023757632713 -75.88806889889987 166.1833303681381"/>
<polyline points="-75.88806889889987 166.1833303681381 -56.19674195200052 236.2998951497787"/>
<polyline points="-56.19674195200052 236.2998951497787 -36.50541500510125 306.4164599314194"/>
<polyline points="-36.50541500510125 306.4164599314194 58.87774537127351 308.88336713960854"/>
<polyline points="-36.50541500510125 306.4164599314194 58.87774537127352 308.8833671396085"/>
<polyline points="-36.50541500510125 306.4164599314194 -131.88857538147602 303.9495527232303"/>
<polyline points="-131.88857538147602 303.9495527232303 -227.27173575785073 301.4826455150411"/>
<polyline points="-227.27173575785073 301.4826455150411 -249.95001522709364 372.7397975213358"/>
<polyline points="-249.95001522709364 372.7397975213358 -272.62829469633647 443.99694952763053"/>
<polyline points="-272.62829469633647 443.99694952763053 -249.95001522709364 372.7397975213358"/>
<polyline points="-227.27173575785073 301.4826455150411 -207.58040881095135 371.5992102966817"/>
<polyline points="-207.58040881095135 371.5992102966817 -187.889081864052 441.71577507832245"/>
<polyline points="-187.889081864052 441.71577507832245 -165.2108023948092 370.4586230720277"/>
<polyline points="-187.889081864052 441.71577507832245 -165.21080239480915 370.45862307202776"/>
<polyline points="-187.889081864052 441.71577507832245 -210.5673613332948 512.9729270846171"/>
<polyline points="-210.5673613332948 512.9729270846171 -233.24564080253762 584.2300790909118"/>
<polyline points="-233.24564080253762 584.2300790909118 -137.8624804261628 586.6969862991009"/>
<polyline points="-137.8624804261628 586.6969862991009 -42.47932004978795 589.1638935072899"/>
<polyline points="-42.47932004978795 589.1638935072899 -137.86248042616282 586.6969862991009"/>
<polyline points="-233.24564080253762 584.2300790909118 -328.6288011789124 581.7631718827229"/>
<polyline points="-328.6288011789124 581.7631718827229 -424.01196155528714 579.2962646745337"/>
<polyline points="-424.01196155528714 579.2962646745337 -401.3336820860446 508.03911266823906"/>
<polyline points="-424.01196155528714 579.2962646745337 -401.33368208604463 508.03911266823906"/>
<polyline points="-424.01196155528714 579.2962646745337 -446.69024102453 650.5534166808285"/>
<polyline points="-446.69024102453 650.5534166808285 -469.36852049377273 721.8105686871232"/>
<polyline points="-469.36852049377273 721.8105686871232 -373.9853601173979 724.2774758953123"/>
<polyline points="-373.9853601173979 724.2774758953123 -278.60219974102307 726.7443831035014"/>
<polyline points="-278.60219974102307 726.7443831035014 -373.98536011739793 724.2774758953125"/>
<polyline points="-469.36852049377273 721.8105686871232 -489.05984744067194 651.6940039054826"/>
<polyline points="-489.05984744067194 651.6940039054826 -508.75117438757115 581.5774391238422"/>
<polyline points="-508.75117438757115 581.5774391238422 -489.05984744067194 651.6940039054826"/>
<polyline points="-508.75117438757115 581.5774391238422 -604.1343347639458 579.1105319156532"/>
<polyline points="-604.1343347639458 579.1105319156532 -699.5174951403208 576.643624707464"/>
<polyline points="-699.5174951403208 576.643624707464 -719.2088220872199 506.5270599258237"/>
<polyline points="-699.5174951403208 576.643624707464 -719.20882208722 506.5270599258237"/>
<polyline points="-699.5174951403208 576.643624707464 -679.8261681934215 646.7601894891044"/>
<polyline points="-679.8261681934215 646.7601894891044 -660.1348412465223 716.8767542707449"/>
<polyline points="-660.1348412465223 716.8767542707449 -564.7516808701474 719.3436614789339"/>
<polyline points="-564.7516808701474 719.3436614789339 -469.3685204937727 721.8105686871231"/>
<polyline points="-469.3685204937727 721.8105686871231 -449.6771935468734 791.9271334687636"/>
<polyline points="-469.3685204937727 721.8105686871231 -449.6771935468734 791.9271334687636"/>
<polyline points="-469.3685204937727 721.8105686871231 -489.059847440672 651.6940039054829"/>
<polyline points="-489.059847440672 651.6940039054829 -508.75117438757115 581.5774391238424"/>
<polyline points="-508.75117438757115 581.5774391238424 -604.1343347639458 579.1105319156532"/>
<polyline points="-604.1343347639458 579.1105319156532 -699.5174951403208 576.643624707464"/>
<polyline points="-699.5174951403208 576.643624707464 -604.1343347639458 579.110531915653"/>
<polyline points="-508.75117438757115 581.5774391238424 -531.429453856814 652.8345911301374"/>
<polyline points="-531.429453856814 652.8345911301374 -554.1077333260567 724.091743136432"/>
<polyline points="-554.1077333260567 724.091743136432 -531.4294538568139 652.8345911301373"/>
<polyline points="-554.1077333260567 724.091743136432 -458.72457294968183 726.5586503446211"/>
<polyline points="-458.72457294968183 726.5586503446211 -363.34141257330714 729.0255575528105"/>
<polyline points="-363.34141257330714 729.0255575528105 -386.01969204255 800.2827095591055"/>
<polyline points="-363.34141257330714 729.0255575528105 -386.01969204255 800.2827095591055"/>
<polyline points="-363.34141257330714 729.0255575528105 -340.6631331040643 657.7684055465156"/>
<polyline points="-340.6631331040643 657.7684055465156 -317.98485363482143 586.5112535402208"/>
<polyline points="-317.98485363482143 586.5112535402208 -413.3680140111962 584.0443463320318"/>
<polyline points="-413.3680140111962 584.0443463320318 -508.75117438757104 581.5774391238424"/>
<polyline points="-508.75117438757104 581.5774391238424 -531.4294538568139 652.8345911301374"/>
<polyline points="-508.75117438757104 581.5774391238424 -531.4294538568138 652.8345911301374"/>
<polyline points="-508.75117438757104 581.5774391238424 -486.0728949183282 510.32028711754765"/>
<polyline points="-486.0728949183282 510.32028711754765 -463.3946154490855 439.06313511125285"/>
<polyline points="-463.3946154490855 439.06313511125285 -483.0859423959849 368.94657032961237"/>
<polyline points="-483.0859423959849 368.94657032961237 -502.77726934288427 298.83000554797206"/>
<polyline points="-502.77726934288427 298.83000554797206 -483.0859423959849 368.94657032961237"/>
<polyline points="-463.3946154490855 439.06313511125285 -558.7777758254604 436.5962279030638"/>
<polyline points="-558.7777758254604 436.5962279030638 -654.160936201835 434.1293206948747"/>
<polyline points="-654.160936201835 434.1293206948747 -634.4696092549357 504.2458854765151"/>
<polyline points="-654.160936201835 434.1293206948747 -634.4696092549357 504.2458854765151"/>
<polyline points="-654.160936201835 434.1293206948747 -673.8522631487347 364.01275591323434"/>
<polyline points="-673.8522631487347 364.01275591323434 -693.5435900956342 293.89619113159387"/>
<polyline points="-693.5435900956342 293.89619113159387 -716.221869564877 365.1533431378887"/>
<polyline points="-716.221869564877 365.1533431378887 -738.90014903412 436.4104951441836"/>
<polyline points="-738.90014903412 436.4104951441836 -716.2218695648771 365.15334313788867"/>
<polyline points="-693.5435900956342 293.89619113159387 -670.8653106263912 222.63903912529895"/>
<polyline points="-670.8653106263912 222.63903912529895 -648.1870311571481 151.3818871190041"/>
<polyline points="-648.1870311571481 151.3818871190041 -628.4957042102488 221.4984519006445"/>
<polyline points="-648.1870311571481 151.3818871190041 -628.4957042102488 221.4984519006445"/>
<polyline points="-648.1870311571481 151.3818871190041 -667.8783581040477 81.26532233736366"/>
<polyline points="-667.8783581040477 81.26532233736366 -687.5696850509472 11.148757555723245"/>
<polyline points="-687.5696850509472 11.148757555723245 -710.2479645201902 82.40590956201811"/>
<polyline points="-710.2479645201902 82.40590956201811 -732.9262439894333 153.66306156831294"/>
<polyline points="-732.9262439894333 153.66306156831294 -710.2479645201902 82.4059095620181"/>
<polyline points="-687.5696850509472 11.148757555723245 -592.1865246745724 13.615664763912374"/>
<polyline points="-592.1865246745724 13.615664763912374 -496.8033642981979 16.082571972101444"/>
<polyline points="-496.8033642981979 16.082571972101444 -592.1865246745724 13.615664763912374"/>
<polyline points="-496.8033642981979 16.082571972101444 -474.12508482895487 -55.174580034193426"/>
<polyline points="-474.12508482895487 -55.174580034193426 -451.44680535971185 -126.43173204048827"/>
<polyline points="-451.44680535971185 -126.43173204048827 -356.0636449833372 -123.9648248322992"/>
<polyline points="-451.44680535971185 -126.43173204048827 -356.0636449833372 -123.9648248322992"/>
<polyline points="-451.44680535971185 -126.43173204048827 -546.8299657360866 -128.89863924867737"/>
<polyline points="-546.8299657360866 -128.89863924867737 -642.2131261124613 -131.3655464568664"/>
<polyline points="-642.2131261124613 -131.3655464568664 -661.904453059361 -201.48211123850686"/>
<polyline points="-661.904453059361 -201.48211123850686 -681.5957800062607 -271.5986760201472"/>
<polyline points="-681.5957800062607 -271.5986760201472 -586.212619629886 -269.13176881195824"/>
<polyline points="-681.5957800062607 -271.5986760201472 -586.2126196298859 -269.1317688119582"/>
<polyline points="-681.5957800062607 -271.5986760201472 -776.9789403826353 -274.0655832283362"/>
<polyline points="-776.9789403826353 -274.0655832283362 -872.36210075901 -276.53249043652545"/>
<polyline points="-872.36210075901 -276.53249043652545 -852.6707738121102 -206.41592565488503"/>
<polyline points="-852.6707738121102 -206.41592565488503 -832.9794468652105 -136.29936087324467"/>
<polyline points="-832.9794468652105 -136.29936087324467 -852.6707738121102 -206.41592565488503"/>
<polyline points="-872.36210075901 -276.53249043652545 -895.040380228253 -205.27533843023048"/>
<polyline points="-895.040380228253 -205.27533843023048 -917.7186596974962 -134.0181864239355"/>
<polyline points="-917.7186596974962 -134.0181864239355 -895.040380228253 -205.27533843023048"/>
<polyline points="-917.7186596974962 -134.0181864239355 -937.4099866443959 -204.1347512055758"/>
<polyline points="-937.4099866443959 -204.1347512055758 -957.1013135912956 -274.2513159872162"/>
<polyline points="-957.1013135912956 -274.2513159872162 -979.7795930605386 -202.9941639809211"/>
<polyline points="-957.1013135912956 -274.2513159872162 -979.7795930605386 -202.9941639809211"/>
<polyline points="-957.1013135912956 -274.2513159872162 -934.4230341220523 -345.50846799351103"/>
<polyline points="-934.4230341220523 -345.50846799351103 -911.7447546528094 -416.76561999980606"/>
<polyline points="-911.7447546528094 -416.76561999980606 -889.0664751835662 -488.02277200610087"/>
<polyline points="-889.0664751835662 -488.02277200610087 -866.3881957143233 -559.2799240123959"/>
<polyline points="-866.3881957143233 -559.2799240123959 -961.7713560906981 -561.7468312205851"/>
<polyline points="-866.3881957143233 -559.2799240123959 -961.7713560906981 -561.7468312205852"/>
<polyline points="-866.3881957143233 -559.2799240123959 -771.0050353379486 -556.8130168042068"/>
<polyline points="-771.0050353379486 -556.8130168042068 -675.6218749615739 -554.3461095960178"/>
<polyline points="-675.6218749615739 -554.3461095960178 -695.3132019084736 -624.4626743776581"/>
<polyline points="-695.3132019084736 -624.4626743776581 -715.0045288553733 -694.5792391592983"/>
<polyline points="-715.0045288553733 -694.5792391592983 -695.3132019084736 -624.4626743776581"/>
<polyline points="-866.3881957143233 -559.2799240123959 -889.0664751835662 -488.02277200610087"/>
<polyline points="-889.0664751835662 -488.02277200610087 -911.7447546528094 -416.76561999980606"/>
<polyline points="-911.7447546528094 -416.76561999980606 -1007.1279150291839 -419.2325272079953"/>
<polyline points="-911.7447546528094 -416.76561999980606 -1007.1279150291839 -419.23252720799525"/>
<polyline points="-911.7447546528094 -416.76561999980606 -816.361594276435 -414.29871279161694"/>
<polyline points="-816.361594276435 -414.29871279161694 -720.9784339000602 -411.83180558342787"/>
<polyline points="-720.9784339000602 -411.83180558342787 -698.3001544308169 -483.0889575897227"/>
<polyline points="-698.3001544308169 -483.0889575897227 -675.6218749615737 -554.3461095960175"/>
<polyline points="-675.6218749615737 -554.3461095960175 -698.3001544308169 -483.0889575897227"/>
<polyline points="-720.9784339000602 -411.83180558342787 -740.6697608469599 -481.9483703650683"/>
<polyline points="-740.6697608469599 -481.9483703650683 -760.3610877938594 -552.0649351467086"/>
<polyline points="-760.3610877938594 -552.0649351467086 -740.6697608469599 -481.9483703650683"/>
<polyline points="-760.3610877938594 -552.0649351467086 -783.0393672631028 -480.8077831404138"/>
<polyline points="-783.0393672631028 -480.8077831404138 -805.7176467323461 -409.55063113411893"/>
<polyline points="-805.7176467323461 -409.55063113411893 -825.4089736792458 -479.6671959157593"/>
<polyline points="-805.7176467323461 -409.55063113411893 -825.4089736792458 -479.6671959157593"/>
<polyline points="-805.7176467323461 -409.55063113411893 -786.0263197854464 -339.43406635247857"/>
<polyline points="-786.0263197854464 -339.43406635247857 -766.3349928385467 -269.317501570838"/>
<polyline points="-766.3349928385467 -269.317501570838 -743.6567133693037 -340.57465357713295"/>
<polyline points="-743.6567133693037 -340.57465357713295 -720.9784339000605 -411.83180558342764"/>
<polyline points="-720.9784339000605 -411.83180558342764 -740.6697608469599 -481.94837036506806"/>
<polyline points="-720.9784339000605 -411.83180558342764 -740.6697608469601 -481.9483703650681"/>
<polyline points="-720.9784339000605 -411.83180558342764 -701.2871069531607 -341.7152408017872"/>
<polyline points="-701.2871069531607 -341.7152408017872 -681.5957800062613 -271.5986760201468"/>
<polyline points="-681.5957800062613 -271.5986760201468 -586.2126196298865 -269.13176881195767"/>
<polyline points="-586.2126196298865 -269.13176881195767 -490.82945925351197 -266.66486160376854"/>
<polyline points="-490.82945925351197 -266.66486160376854 -586.2126196298864 -269.1317688119576"/>
<polyline points="-681.5957800062613 -271.5986760201468 -658.9175005370182 -342.85582802644166"/>
<polyline points="-658.9175005370182 -342.85582802644166 -636.2392210677748 -414.11298003273635"/>
<polyline points="-636.2392210677748 -414.11298003273635 -731.6223814441497 -416.5798872409255"/>
<polyline points="-636.2392210677748 -414.11298003273635 -731.6223814441497 -416.5798872409255"/>
<polyline points="-636.2392210677748 -414.11298003273635 -540.8560606914003 -411.64607282454733"/>
<polyline points="-540.8560606914003 -411.64607282454733 -445.47290031502547 -409.1791656163582"/>
<polyline points="-445.47290031502547 -409.1791656163582 -465.16422726192525 -479.2957303979988"/>
<polyline points="-465.16422726192525 -479.2957303979988 -484.855554208825 -549.4122951796393"/>
<polyline points="-484.855554208825 -549.4122951796393 -465.16422726192525 -479.2957303979988"/>
<polyline points="-445.47290031502547 -409.1791656163582 -425.7815733681259 -339.06260083471767"/>
<polyline points="-425.7815733681259 -339.06260083471767 -406.090246421226 -268.9460360530773"/>
<polyline points="-406.090246421226 -268.9460360530773 -501.4734067976008 -271.4129432612663"/>
<polyline points="-406.090246421226 -268.9460360530773 -501.4734067976008 -271.41294326126626"/>
<polyline points="-406.090246421226 -268.9460360530773 -310.7070860448514 -266.47912884488835"/>
<polyline points="-310.7070860448514 -266.47912884488835 -215.32392566847676 -264.01222163669934"/>
<polyline points="-215.32392566847676 -264.01222163669934 -235.0152526153764 -334.12878641833987"/>
<polyline points="-235.0152526153764 -334.12878641833987 -254.70657956227603 -404.2453511999804"/>
<polyline points="-254.70657956227603 -404.2453511999804 -235.01525261537634 -334.12878641833987"/>
<polyline points="-215.32392566847676 -264.01222163669934 -238.00220513771967 -192.7550696304046"/>
<polyline points="-238.00220513771967 -192.7550696304046 -260.6804846069626 -121.4979176241099"/>
<polyline points="-260.6804846069626 -121.4979176241099 -238.0022051377196 -192.7550696304045"/>
<polyline points="-260.6804846069626 -121.4979176241099 -240.98915766006303 -51.38135284246934"/>
<polyline points="-240.98915766006303 -51.38135284246934 -221.2978307131633 18.735211939171233"/>
<polyline points="-221.2978307131633 18.735211939171233 -243.97611018240627 89.99236394546591"/>
<polyline points="-221.2978307131633 18.735211939171233 -243.97611018240627 89.99236394546591"/>
<polyline points="-221.2978307131633 18.735211939171233 -198.61955124392043 -52.52194006712344"/>
<polyline points="-198.61955124392043 -52.52194006712344 -175.94127177467752 -123.77909207341806"/>
<polyline points="-175.94127177467752 -123.77909207341806 -80.55811139830277 -121.31218486522928"/>
<polyline points="-80.55811139830277 -121.31218486522928 14.825048978071939 -118.84527765704041"/>
<polyline points="14.825048978071939 -118.84527765704041 -7.853230491170907 -47.58812565074572"/>
<polyline points="14.825048978071939 -118.84527765704041 -7.853230491170891 -47.58812565074573"/>
<polyline points="14.825048978071939 -118.84527765704041 37.50332844731476 -190.10242966333507"/>
<polyline points="37.50332844731476 -190.10242966333507 60.181607916557624 -261.3595816696298"/>
<polyline points="60.181607916557624 -261.3595816696298 -35.2015524598171 -263.82648887781863"/>
<polyline points="-35.2015524598171 -263.82648887781863 -130.58471283619176 -266.2933960860074"/>
<polyline points="-130.58471283619176 -266.2933960860074 -35.20155245981708 -263.8264888778187"/>
<polyline points="60.181607916557624 -261.3595816696298 40.49028096965787 -331.47614645127044"/>
<polyline points="40.49028096965787 -331.47614645127044 20.79895402275812 -401.5927112329112"/>
<polyline points="20.79895402275812 -401.5927112329112 40.49028096965787 -331.47614645127044"/>
<polyline points="20.79895402275812 -401.5927112329112 116.18211439913276 -399.1258040247222"/>
<polyline points="116.18211439913276 -399.1258040247222 211.5652747755075 -396.6588968165335"/>
<polyline points="211.5652747755075 -396.6588968165335 191.87394782860778 -466.7754615981742"/>
<polyline points="211.5652747755075 -396.6588968165335 191.87394782860775 -466.7754615981742"/>
<polyline points="211.5652747755075 -396.6588968165335 231.25660172240723 -326.54233203489275"/>
<polyline points="231.25660172240723 -326.54233203489275 250.947928669307 -256.4257672532522"/>
<polyline points="250.947928669307 -256.4257672532522 270.63925561620675 -186.30920247161157"/>
<polyline points="270.63925561620675 -186.30920247161157 290.3305825631065 -116.19263768997078"/>
<polyline points="290.3305825631065 -116.19263768997078 313.0088620323494 -187.44978969626538"/>
<polyline points="290.3305825631065 -116.19263768997078 313.0088620323494 -187.44978969626536"/>
<polyline points="290.3305825631065 -116.19263768997078 267.6523030938637 -44.93548568367623"/>
<polyline points="267.6523030938637 -44.93548568367623 244.97402362462086 26.321666322618356"/>
<polyline points="244.97402362462086 26.321666322618356 340.3571840009956 28.78857353080712"/>
<polyline points="340.3571840009956 28.78857353080712 435.7403443773702 31.255480738995875"/>
<polyline points="435.7403443773702 31.255480738995875 340.35718400099563 28.788573530807064"/>
<polyline points="244.97402362462086 26.321666322618356 225.28269667772113 -43.794898459022406"/>
<polyline points="225.28269667772113 -43.794898459022406 205.59136973082147 -113.91146324066302"/>
<polyline points="205.59136973082147 -113.91146324066302 110.20820935444675 -116.37837044885184"/>
<polyline points="205.59136973082147 -113.91146324066302 110.20820935444674 -116.3783704488519"/>
<polyline points="205.59136973082147 -113.91146324066302 300.9745301071962 -111.44455603247427"/>
<polyline points="300.9745301071962 -111.44455603247427 396.357690483571 -108.97764882428537"/>
<polyline points="396.357690483571 -108.97764882428537 416.04901743047066 -38.86108404264477"/>
<polyline points="416.04901743047066 -38.86108404264477 435.74034437737026 31.255480738995992"/>
<polyline points="435.74034437737026 31.255480738995992 416.04901743047066 -38.86108404264472"/>
<polyline points="396.357690483571 -108.97764882428537 419.03596995281384 -180.23480083057993"/>
<polyline points="419.03596995281384 -180.23480083057993 441.71424942205675 -251.49195283687447"/>
<polyline points="441.71424942205675 -251.49195283687447 419.0359699528139 -180.2348008305799"/>
<polyline points="441.71424942205675 -251.49195283687447 422.0229224751571 -321.60851761851524"/>
<polyline points="422.0229224751571 -321.60851761851524 402.3315955282574 -391.72508240015605"/>
<polyline points="402.3315955282574 -391.72508240015605 425.0098749975004 -462.98223440645063"/>
<polyline points="402.3315955282574 -391.72508240015605 425.0098749975004 -462.98223440645063"/>
<polyline points="402.3315955282574 -391.72508240015605 379.65331605901446 -320.46793039386137"/>
<polyline points="379.65331605901446 -320.46793039386137 356.9750365897715 -249.21077838756682"/>
<polyline points="356.9750365897715 -249.21077838756682 376.66636353667116 -179.094213605926"/>
<polyline points="376.66636353667116 -179.094213605926 396.3576904835707 -108.97764882428527"/>
<polyline points="396.3576904835707 -108.97764882428527 419.0359699528138 -180.23480083057976"/>
<polyline points="396.3576904835707 -108.97764882428527 419.03596995281373 -180.23480083057976"/>
<polyline points="396.3576904835707 -108.97764882428527 373.67941101432774 -37.72049681799066"/>
<polyline points="373.67941101432774 -37.72049681799066 351.00113154508483 33.536655188303875"/>
<polyline points="351.00113154508483 33.536655188303875 446.3842919214596 36.003562396492825"/>
<polyline points="446.3842919214596 36.003562396492825 541.7674522978342 38.470469604681824"/>
<polyline points="541.7674522978342 38.470469604681824 446.3842919214595 36.00356239649284"/>
<polyline points="351.00113154508483 33.536655188303875 370.6924584919844 103.65321996994459"/>
<polyline points="370.6924584919844 103.65321996994459 390.383785438884 173.76978475158532"/>
<polyline points="390.383785438884 173.76978475158532 295.0006250625093 171.3028775433964"/>
<polyline points="390.383785438884 173.76978475158532 295.0006250625093 171.30287754339642"/>
<polyline points="390.383785438884 173.76978475158532 485.76694581525874 176.23669195977425"/>
<polyline points="485.76694581525874 176.23669195977425 581.1501061916333 178.70359916796315"/>
<polyline points="581.1501061916333 178.70359916796315 603.8283856608764 107.44644716166857"/>
<polyline points="603.8283856608764 107.44644716166857 626.5066651301191 36.18929515537397"/>
<polyline points="626.5066651301191 36.18929515537397 603.8283856608764 107.44644716166863"/>
<polyline points="581.1501061916333 178.70359916796315 558.4718267223903 249.96075117425772"/>
<polyline points="558.4718267223903 249.96075117425772 535.7935472531476 321.21790318055224"/>
<polyline points="535.7935472531476 321.21790318055224 440.410386876773 318.75099597236334"/>
<polyline points="535.7935472531476 321.21790318055224 440.41038687677286 318.75099597236334"/>
<polyline points="535.7935472531476 321.21790318055224 631.1767076295222 323.6848103887412"/>
<polyline points="631.1767076295222 323.6848103887412 726.559868005897 326.1517175969302"/>
<polyline points="726.559868005897 326.1517175969302 749.2381474751401 254.89456559063566"/>
<polyline points="749.2381474751401 254.89456559063566 771.9164269443828 183.6374135843412"/>
<polyline points="771.9164269443828 183.6374135843412 749.2381474751402 254.89456559063566"/>
<polyline points="726.559868005897 326.1517175969302 706.8685410589976 256.0351528152893"/>
<polyline points="706.8685410589976 256.0351528152893 687.1772141120981 185.91858803364852"/>
<polyline points="687.1772141120981 185.91858803364852 706.8685410589976 256.03515281528934"/>
<polyline points="687.1772141120981 185.91858803364852 664.4989346428551 257.1757400399429"/>
<polyline points="664.4989346428551 257.1757400399429 641.8206551736123 328.4328920462375"/>
<polyline points="641.8206551736123 328.4328920462375 622.1293282267128 258.3163272645966"/>
<polyline points="641.8206551736123 328.4328920462375 622.1293282267128 258.31632726459657"/>
<polyline points="641.8206551736123 328.4328920462375 661.5119821205116 398.5494568278784"/>
<polyline points="661.5119821205116 398.5494568278784 681.2033090674113 468.66602160951913"/>
<polyline points="681.2033090674113 468.66602160951913 703.8815885366541 397.4088696032246"/>
<polyline points="703.8815885366541 397.4088696032246 726.559868005897 326.15171759693027"/>
<polyline points="726.559868005897 326.15171759693027 631.1767076295222 323.68481038874125"/>
<polyline points="726.559868005897 326.15171759693027 631.1767076295222 323.68481038874125"/>
<polyline points="726.559868005897 326.15171759693027 821.9430283822718 328.6186248051193"/>
<polyline points="821.9430283822718 328.6186248051193 917.3261887586467 331.0855320133081"/>
<polyline points="917.3261887586467 331.0855320133081 894.647909289404 402.3426840196026"/>
<polyline points="894.647909289404 402.3426840196026 871.9696298201609 473.5998360258968"/>
<polyline points="871.9696298201609 473.5998360258968 894.647909289404 402.3426840196026"/>
<polyline points="917.3261887586467 331.0855320133081 937.017515705546 401.202096794949"/>
<polyline points="937.017515705546 401.202096794949 956.7088426524458 471.3186615765901"/>
<polyline points="956.7088426524458 471.3186615765901 937.0175157055462 401.202096794949"/>
<polyline points="956.7088426524458 471.3186615765901 979.3871221216885 400.0615095702957"/>
<polyline points="979.3871221216885 400.0615095702957 1002.0654015909315 328.80435756400124"/>
<polyline points="1002.0654015909315 328.80435756400124 1021.7567285378311 398.92092234564217"/>
<polyline points="1002.0654015909315 328.80435756400124 1021.7567285378311 398.9209223456421"/>
<polyline points="1002.0654015909315 328.80435756400124 982.3740746440319 258.6877927823604"/>
<polyline points="982.3740746440319 258.6877927823604 962.6827476971324 188.57122800071946"/>
<polyline points="962.6827476971324 188.57122800071946 942.991420750233 118.4546632190785"/>
<polyline points="942.991420750233 118.4546632190785 923.3000938033337 48.33809843743764"/>
<polyline points="923.3000938033337 48.33809843743764 1018.6832541797083 50.805005645626494"/>
<polyline points="923.3000938033337 48.33809843743764 1018.6832541797083 50.80500564562645"/>
<polyline points="923.3000938033337 48.33809843743764 827.9169334269587 45.87119122924867"/>
<polyline points="827.9169334269587 45.87119122924867 732.5337730505839 43.40428402105971"/>
<polyline points="732.5337730505839 43.40428402105971 755.212052519827 -27.852867985234674"/>
<polyline points="755.212052519827 -27.852867985234674 777.8903319890701 -99.110019991529"/>
<polyline points="777.8903319890701 -99.110019991529 755.212052519827 -27.852867985234674"/>
<polyline points="732.5337730505839 43.40428402105971 755.2120525198269 -27.852867985234678"/>
<polyline points="755.2120525198269 -27.852867985234678 777.89033198907 -99.11001999152913"/>
<polyline points="777.89033198907 -99.11001999152913 797.5816589359695 -28.993455209888232"/>
<polyline points="777.89033198907 -99.11001999152913 797.5816589359695 -28.993455209888232"/>
<polyline points="777.89033198907 -99.11001999152913 758.1990050421705 -169.22658477317006"/>
<polyline points="758.1990050421705 -169.22658477317006 738.507678095271 -239.34314955481082"/>
<polyline points="738.507678095271 -239.34314955481082 715.829398626028 -168.08599754851633"/>
<polyline points="715.829398626028 -168.08599754851633 693.1511191567851 -96.82884554222191"/>
<polyline points="693.1511191567851 -96.82884554222191 715.829398626028 -168.08599754851633"/>
<polyline points="738.507678095271 -239.34314955481082 833.8908384716457 -236.87624234662175"/>
<polyline points="833.8908384716457 -236.87624234662175 929.2739988480203 -234.40933513843274"/>
<polyline points="929.2739988480203 -234.40933513843274 833.8908384716457 -236.87624234662175"/>
<polyline points="929.2739988480203 -234.40933513843274 951.9522783172634 -305.6664871447272"/>
<polyline points="951.9522783172634 -305.6664871447272 974.6305577865065 -376.92363915102175"/>
<polyline points="974.6305577865065 -376.92363915102175 1070.0137181628816 -374.4567319428328"/>
<polyline points="974.6305577865065 -376.92363915102175 1070.0137181628816 -374.4567319428328"/>
<polyline points="974.6305577865065 -376.92363915102175 879.247397410132 -379.39054635921065"/>
<polyline points="879.247397410132 -379.39054635921065 783.8642370337573 -381.8574535673997"/>
<polyline points="783.8642370337573 -381.8574535673997 688.4810766573826 -384.3243607755887"/>
<polyline points="688.4810766573826 -384.3243607755887 593.0979162810078 -386.79126798377774"/>
<polyline points="593.0979162810078 -386.79126798377774 573.4065893341083 -456.90783276541845"/>
<polyline points="593.0979162810078 -386.79126798377774 573.4065893341082 -456.90783276541833"/>
<polyline points="593.0979162810078 -386.79126798377774 612.7892432279074 -316.6747032021368"/>
<polyline points="612.7892432279074 -316.6747032021368 632.4805701748072 -246.55813842049622"/>
<polyline points="632.4805701748072 -246.55813842049622 655.1588496440502 -317.81529042679057"/>
<polyline points="655.1588496440502 -317.81529042679057 677.837129113293 -389.0724424330852"/>
<polyline points="677.837129113293 -389.0724424330852 655.1588496440502 -317.81529042679057"/>
<polyline points="632.4805701748072 -246.55813842049622 609.8022907055641 -175.30098641420162"/>
<polyline points="609.8022907055641 -175.30098641420162 587.1240112363213 -104.04383440790704"/>
<polyline points="587.1240112363213 -104.04383440790704 682.5071716126959 -101.57692719971818"/>
<polyline points="587.1240112363213 -104.04383440790704 682.5071716126959 -101.57692719971813"/>
<polyline points="587.1240112363213 -104.04383440790704 491.7408508599464 -106.51074161609601"/>
<polyline points="491.7408508599464 -106.51074161609601 396.35769048357184 -108.97764882428504"/>
<polyline points="396.35769048357184 -108.97764882428504 419.0359699528147 -180.23480083057956"/>
<polyline points="419.0359699528147 -180.23480083057956 441.71424942205766 -251.49195283687416"/>
<polyline points="441.71424942205766 -251.49195283687416 419.0359699528147 -180.23480083057956"/>
<polyline points="396.35769048357184 -108.97764882428504 416.0490174304713 -38.86108404264436"/>
<polyline points="416.0490174304713 -38.86108404264436 435.7403443773709 31.255480738996297"/>
<polyline points="435.7403443773709 31.255480738996297 416.0490174304712 -38.861084042644364"/>
<polyline points="435.7403443773709 31.255480738996297 413.0620649081279 102.51263274529092"/>
<polyline points="413.0620649081279 102.51263274529092 390.38378543888496 173.76978475158555"/>
<polyline points="390.38378543888496 173.76978475158555 410.0751123857845 243.88634953322614"/>
<polyline points="390.38378543888496 173.76978475158555 410.0751123857845 243.88634953322617"/>
<polyline points="390.38378543888496 173.76978475158555 370.6924584919854 103.65321996994487"/>
<polyline points="370.6924584919854 103.65321996994487 351.00113154508597 33.536655188304216"/>
<polyline points="351.00113154508597 33.536655188304216 373.679411014329 -37.720496817990444"/>
<polyline points="373.679411014329 -37.720496817990444 396.35769048357196 -108.97764882428505"/>
<polyline points="396.35769048357196 -108.97764882428505 416.0490174304715 -38.86108404264439"/>
<polyline points="396.35769048357196 -108.97764882428505 416.0490174304715 -38.86108404264448"/>
<polyline points="396.35769048357196 -108.97764882428505 376.6663635366725 -179.09421360592572"/>
<polyline points="376.6663635366725 -179.09421360592572 356.975036589773 -249.2107783875665"/>
<polyline points="356.975036589773 -249.2107783875665 261.59187621339834 -251.67768559575555"/>
<polyline points="261.59187621339834 -251.67768559575555 166.20871583702365 -254.14459280394453"/>
<polyline points="166.20871583702365 -254.14459280394453 261.59187621339834 -251.6776855957555"/>
<polyline points="356.975036589773 -249.2107783875665 379.6533160590161 -320.467930393861"/>
<polyline points="379.6533160590161 -320.467930393861 402.3315955282593 -391.72508240015566"/>
<polyline points="402.3315955282593 -391.72508240015566 497.71475590463393 -389.2581751919666"/>
<polyline points="402.3315955282593 -391.72508240015566 497.71475590463393 -389.2581751919667"/>
<polyline points="402.3315955282593 -391.72508240015566 306.94843515188444 -394.19198960834456"/>
<polyline points="306.94843515188444 -394.19198960834456 211.56527477550986 -396.65889681653385"/>
<polyline points="211.56527477550986 -396.65889681653385 231.2566017224095 -326.54233203489304"/>
<polyline points="231.2566017224095 -326.54233203489304 250.94792866930908 -256.42576725325245"/>
<polyline points="250.94792866930908 -256.42576725325245 231.25660172240947 -326.54233203489315"/>
<polyline points="211.56527477550986 -396.65889681653385 191.87394782861017 -466.7754615981744"/>
<polyline points="191.87394782861017 -466.7754615981744 172.18262088171056 -536.8920263798151"/>
<polyline points="172.18262088171056 -536.8920263798151 267.56578125808517 -534.425119171626"/>
<polyline points="172.18262088171056 -536.8920263798151 267.56578125808517 -534.425119171626"/>
<polyline points="172.18262088171056 -536.8920263798151 76.79946050533584 -539.3589335880041"/>
<polyline points="76.79946050533584 -539.3589335880041 -18.583699871038792 -541.825840796193"/>
<polyline points="-18.583699871038792 -541.825840796193 1.1076270758609328 -471.7092760145525"/>
<polyline points="1.1076270758609328 -471.7092760145525 20.798954022760647 -401.59271123291177"/>
<polyline points="20.798954022760647 -401.59271123291177 1.1076270758609055 -471.7092760145525"/>
<polyline points="-18.583699871038792 -541.825840796193 -41.26197934028189 -470.5686887898985"/>
<polyline points="-41.26197934028189 -470.5686887898985 -63.9402588095251 -399.31153678360374"/>
<polyline points="-63.9402588095251 -399.31153678360374 -41.26197934028205 -470.5686887898985"/>
<polyline points="-63.9402588095251 -399.31153678360374 -83.63158575642483 -469.4281015652443"/>
<polyline points="-83.63158575642483 -469.4281015652443 -103.32291270332449 -539.544666346885"/>
<polyline points="-103.32291270332449 -539.544666346885 -126.00119217256757 -468.28751434059035"/>
<polyline points="-103.32291270332449 -539.544666346885 -126.00119217256757 -468.28751434059035"/>
<polyline points="-103.32291270332449 -539.544666346885 -80.64463323408131 -610.8018183531796"/>
<polyline points="-80.64463323408131 -610.8018183531796 -57.96635376483816 -682.0589703594742"/>
</svg>
