<svg baseProfile="full" fill-opacity="0.0" height="100%" stroke="black" stroke-width="1" version="1.1" viewBox="-385.5204701827502,-406.8954866409724,776.2466852691418,813.8037145946121" width="100%" xmlns="http://www.w3.org/2000/svg" xmlns:ev="http://www.w3.org/2001/xml-events" xmlns:xlink="http://www.w3.org/1999/xlink"><defs /><polyline points="390.7202158844747,-3.217199671233383 388.8883752498205,-33.16056836511591 385.4922646169849,-62.96682958675446 380.5411924891511,-92.55428644594495 372.525454669047,-121.4625621763297 363.008069435566,-149.9115340712116 352.015123280088,-177.823225476091 338.1656311144084,-204.4336281390536 322.9427174110804,-230.2825883281692 306.3881071184334,-255.2992558402984 286.1282285704801,-277.424146695223 264.7384035911467,-298.4584121449755 242.277260203913,-318.3443987300316 217.8610290767929,-335.7747456612166 192.5662125177788,-351.9033924029161 166.4621418608377,-366.6861314554992 138.9561152298764,-378.6605361343762 110.8612481013394,-389.179024965531 82.25454655317546,-398.2127675022082 52.58727198911514,-402.6683162786931 22.72750553564165,-405.5652027130666 -7.2429092629231,-406.8954866409724 -37.18834754162891,-405.0871126888277 -66.99809630070007,-401.7141031759903 -96.59044909083786,-396.7857032870794 -125.5059628686743,-388.7924012905276 -153.96353190691,-379.2968364338453 -181.8851559868726,-368.325035400276 -206.9271189152558,-351.8094070230267 -231.0706263555318,-334.0056955937868 -254.2495026320014,-314.9626998480624 -275.3113514998957,-293.6022009329995 -295.2266802238358,-271.1685327981546 -313.9409022720869,-247.7231845685405 -330.1026003786636,-222.4508959305754 -344.919805446577,-196.3672247882792 -358.3519045466674,-169.5436646711991 -367.4280948895088,-140.9527346241693 -374.9958449155438,-111.9255836894976 -381.0344119479789,-82.5417732702435 -383.9693019679158,-52.68792016036452 -385.3381183726659,-22.72095601523916 -385.1371093316094,7.276981799388721 -381.8024905814308,37.08966506364704 -376.912585567878,66.6874182000612 -370.4807971806995,95.98911582459884 -359.5499289775268,123.9249821468771 -347.1723349913529,151.2511404207549 -333.3819413469377,177.8926915458215 -316.8830890906637,202.9474446649454 -299.095970718211,227.1050491795306 -280.0693394846718,250.2992907747771 -258.723207856333,271.3784719224976 -236.3035540489599,291.3122673410688 -212.8718287752673,310.0460398828298 -186.0662297508965,323.5135646702961 -158.592435368699,335.5606906043602 -130.5257493893964,346.1543973502218 -101.5056113169354,353.7574459739068 -72.1272886698008,359.8322652969351 -42.47130538830576,364.3622046617978 -12.50429732265166,365.7686475539293 17.49523746998642,365.6058076754558 47.44507234998386,363.8741313591655 76.75648046556441,357.4834219369374 105.6934403614282,349.5684023727466 134.1766378418842,340.150767185052 161.519753126998,327.8085353999021 188.1795829522761,314.0531552574708 214.0830545772698,298.9223292986038 238.2634622192688,281.167703590965 261.4815983024286,262.1728408665427 283.6738235296181,241.9898047237477 302.4401491157283,218.5859187578149 319.9561190675689,194.2327276074409 336.173723329022,168.9969816767989 349.6653232480716,142.2047444380625 361.7364133127139,114.7438628508482 372.3539075041326,86.68960528280411 379.9814328995285,57.67935770104111 386.0803521735294,28.31035142079013 390.6339486123363,-1.336915153149346 387.4060334198192,-31.16261155080838 382.6219677407378,-60.77864754579355 376.2948643665825,-90.10384764202799 366.9381444383672,-118.6073716111604 356.1028716669103,-146.5823037540466 343.8187447817281,-173.9519667261964 328.7419399960994,-199.8882141324335 312.3287750436383,-225.0000318008729 294.6242372686141,-249.2185899847864 273.353439667124,-270.3740122118985 251.0048608463234,-290.3875332584547 227.6397567073293,-309.2042974543889 202.4363457820751,-325.4765878710834 176.4160954580057,-340.4078585056254 149.6503254326136,-353.9571837830655 121.615243961307,-364.6355262535922 93.05995203902663,-373.8323160409986 64.06271773607752,-381.5223453837381 34.2197712988652,-384.5880327119325 4.257327719602495,-386.0880279772433 -25.74248802652334,-386.0182197969114 -55.5708171415264,-382.8140521813959 -85.19054118542394,-378.0535441586873 -114.5204745534531,-371.7497439503766 -143.0312139199866,-362.4156832960283 -171.0143569591166,-351.6026262621357 -198.3932038208575,-339.3402106864224 -222.63681590798,-321.6706692309359 -245.9228009738603,-302.7566649624973 -268.1873337520224,-282.6500398521104 -288.2289494176568,-260.3270488902757 -307.0751776008587,-236.9858833668242 -324.674362100163,-212.690519794031 -339.6385111751364,-186.6891999375143 -353.2217381256884,-159.9404726950879 -365.3868122709063,-132.5176544688421 -373.1182572501731,-103.5313679137578 -379.3225272551511,-74.18011282868078 -383.98261681301,-44.54433896361832 -385.5204701827502,-14.58387222007271 -385.4886636311214,15.41608963472318 -383.8872843376714,45.37331879059705 -379.1643639554464,74.99921980460462 -372.8978752435762,104.3374186603334 -365.1049942120414,133.3075013939933 -352.8817547107916,160.7043791122472 -339.2418208626119,187.4242551548446 -324.22257877808,213.3938921988285 -306.5719201707586,237.6519648248702 -287.6762745247253,260.9532939852328 -267.5874334912756,283.2340123563435 -245.2803746114156,303.293626199071 -221.9544287737388,322.1585531490191 -197.6735307744197,339.7770857527032 -170.2684336899096,351.9806540338392 -142.2621743595014,362.7337266328143 -113.7315159933288,372.0068301250712 -84.388078570437,378.2479023665538 -54.7581856963695,382.9452234571532 -24.9230508479455,386.0859183662672 5.076934738695721,386.0918637746654 35.03615647139979,384.5282488298934 64.87249820583735,381.3993592918291 93.85353898730185,373.6473184137784 122.3893846988998,364.3896415004068 150.4018205710379,353.6517032006404 177.1388696975616,340.0454518064213 203.1274134220935,325.0590303165422 228.2962189527262,308.7335154706139 251.6213354237685,289.867401887562 273.9273374954788,269.8068841920927 295.1530859666495,248.6069468688196 312.8062471809438,224.3507360669472 329.1661071508815,199.2042124478115 344.187824637445,173.2363008847392 356.4138370352336,145.8408593538182 367.1896830476713,117.8434293452014 376.485826829858,89.32074986846472 382.7506249175926,59.98277249365288 387.4717459862962,30.35743502286706 390.6362497712805,0.5259384468827671 386.0191783882522,-29.11422572296834 379.8574557545437,-58.47266325045498 372.1679707235975,-87.46890469899415 361.490536627292,-115.5028614310974 349.3608562508697,-142.9401504232996 335.8121762051189,-169.7055679736156 319.5407911731335,-194.9087203908602 301.9730108727609,-219.2263403395897 283.156987368683,-242.5917749138217 260.9215726971653,-262.7297011363468 237.6628832551166,-281.677055983182 213.444669493606,-299.3819060717071 187.508959116062,-314.4592486904473 160.8199285233197,-328.1593092081238 133.4507304931023,-340.4445367111372 104.9476557945205,-349.8026732788458 75.99412787975749,-357.6569957547806 46.66950635629259,-363.9859759869823 16.71596949396626,-365.6549905756997 -13.28381592115875,-365.7548480484751 -43.24762256251898,-364.2852747029167 -72.89378256641541,-359.6927719975007 -102.2588836504705,-353.555765593005 -131.2624381137557,-345.8910765974067 -159.3062063913776,-335.2376599117589 -186.7538842444027,-323.1318770714628 -213.530239495701,-309.6069091858212 -236.9224304758754,-290.8237950284391 -259.2999201659871,-270.8426659467161 -280.6013734222358,-249.7182888265938 -299.5788506337575,-226.4837143633502 -317.3146909336479,-202.2882714004938 -333.7602816164485,-177.1982779653815 -347.4940591137379,-150.527179788029 -359.8135099885739,-123.1743435516258 -370.6848674824229,-95.21474147902356 -377.0544762340243,-65.89910252221053 -381.8815217255909,-36.29057049902577 -385.1527733609534,-6.470300337681063 -385.2900359528583,23.52859143332187 -383.8574936152263,53.49328018569688 -380.8590728470304,83.34163479039357 -374.7579885011482,112.7133591038873 -367.1284400460023,141.7252714867026 -357.9913395435854,170.2978523035909 -344.502215576463,197.0934626124324 -329.6295404879442,223.1463251091398 -313.4140792466597,248.3850307085219 -294.649991235006,271.791315238323 -274.686934035242,294.1834445988186 -253.5796249995371,315.5000435198891 -230.3602293374333,334.4945609075414 -206.1788284486303,352.2478136609777 -181.1017018721361,368.7111413484139 -153.1567409245178,379.6231375479474 -124.6789879275697,389.0578444747389 -95.74649842279261,396.9894022529009 -66.14369146887061,401.8544603221511 -36.32680987639196,405.1637590750155 -6.377579645255597,406.9082279536396 23.58995083358856,405.513829102978 53.44348864178896,402.5531629115727 83.10120730730713,398.0343443596603 111.6886475246244,388.9387758665644 139.7610899792537,378.3596683134058 167.2415900577183,366.3260182986433 193.3141650654212,351.4868591424888 218.5746212119752,335.3036438127793 242.9537213429151,317.820729377852 265.3725155621265,297.8861887569271 286.7175507563024,276.8057883584398 306.9303216676508,254.6373080946019 323.4316524863555,229.5840695902943 338.5995350030951,203.7015285481943 352.3923951061977,177.060627214225 363.3259425457973,149.1243905896436 372.7828099346298,120.6541822829538 380.7370766565214,91.72803715618396 385.6252328702119,62.1291250887575 388.9579906326251,32.31489597525106 390.7262150863917,2.367068545303241" /></svg>
