<svg viewBox="-211.95 -211.95 426 426" xmlns="http://www.w3.org/2000/svg">
<style>
svg { stroke:black; stroke-width:2; fill:none;}
</style>
<path d="M-208.95,-208.95 L-208.95,-8.95 L-8.95,-8.95 L-8.95,-208.95 z" fill-rule="evenodd"/>
<path d="M191.05,-208.95 L-8.95,-208.95 L-8.95,-8.95 L191.05,-8.95 z" fill-rule="evenodd"/>
<path d="M-208.95,191.05 L-8.95,191.05 L-8.95,-8.95 L-208.95,-8.95 z" fill-rule="evenodd"/>
<path d="M191.05,-8.95 L-8.95,-8.95 L-8.95,191.05 L191.05,191.05 z" fill-rule="evenodd"/>
<path d="M-208.95,-208.95 L-208.95,-8.95 L-8.95,-8.95 L-8.95,-208.95 z" fill-rule="evenodd" stroke="gray" stroke-dasharray="6"/>
<path d="M11.05,-208.95 L11.05,-8.95 L211.05,-8.95 L211.05,-208.95 z" fill-rule="evenodd" stroke="gray" stroke-dasharray="6"/>
<path d="M-208.95,11.05 L-208.95,211.05 L-8.95,211.05 L-8.95,11.05 z" fill-rule="evenodd" stroke="gray" stroke-dasharray="6"/>
<path d="M11.05,11.05 L11.05,211.05 L211.05,211.05 L211.05,11.05 z" fill-rule="evenodd" stroke="gray" stroke-dasharray="6"/>
</svg>