<svg viewBox="-13 -3 166 196.5255888325765" xmlns="http://www.w3.org/2000/svg">
<style type="text/css">
svg { stroke:black; stroke-width:2; fill:none; transform:scale(1,-1);}
</style>
<polyline points="0 0 -10 17.32050807568877"/>
<polyline points="0 0 20 0"/>
<polyline points="20 0 30 17.32050807568877"/>
<polyline points="60 0 50 17.32050807568877"/>
<polyline points="60 0 80 0"/>
<polyline points="80 0 90 17.32050807568877"/>
<polyline points="120 0 110 17.32050807568877"/>
<polyline points="120 0 140 0"/>
<polyline points="140 0 150 17.32050807568877"/>
<polyline points="-10 17.32050807568877 0 34.64101615137754"/>
<polyline points="30 17.32050807568877 20 34.64101615137754"/>
<polyline points="30 17.32050807568877 50 17.32050807568877"/>
<polyline points="50 17.32050807568877 60 34.64101615137754"/>
<polyline points="90 17.32050807568877 80 34.64101615137754"/>
<polyline points="90 17.32050807568877 110 17.32050807568877"/>
<polyline points="110 17.32050807568877 120 34.64101615137754"/>
<polyline points="150 17.32050807568877 140 34.64101615137754"/>
<polyline points="0 34.64101615137754 -10 51.96152422706631"/>
<polyline points="0 34.64101615137754 20 34.64101615137754"/>
<polyline points="20 34.64101615137754 30 51.96152422706631"/>
<polyline points="60 34.64101615137754 50 51.96152422706631"/>
<polyline points="60 34.64101615137754 80 34.64101615137754"/>
<polyline points="80 34.64101615137754 90 51.96152422706631"/>
<polyline points="120 34.64101615137754 110 51.96152422706631"/>
<polyline points="120 34.64101615137754 140 34.64101615137754"/>
<polyline points="140 34.64101615137754 150 51.96152422706631"/>
<polyline points="-10 51.96152422706631 0 69.28203230275508"/>
<polyline points="30 51.96152422706631 20 69.28203230275508"/>
<polyline points="30 51.96152422706631 50 51.96152422706631"/>
<polyline points="50 51.96152422706631 60 69.28203230275508"/>
<polyline points="90 51.96152422706631 80 69.28203230275508"/>
<polyline points="90 51.96152422706631 110 51.96152422706631"/>
<polyline points="110 51.96152422706631 120 69.28203230275508"/>
<polyline points="150 51.96152422706631 140 69.28203230275508"/>
<polyline points="0 69.28203230275508 -10 86.60254037844385"/>
<polyline points="0 69.28203230275508 20 69.28203230275508"/>
<polyline points="20 69.28203230275508 30 86.60254037844385"/>
<polyline points="60 69.28203230275508 50 86.60254037844385"/>
<polyline points="60 69.28203230275508 80 69.28203230275508"/>
<polyline points="80 69.28203230275508 90 86.60254037844385"/>
<polyline points="120 69.28203230275508 110 86.60254037844385"/>
<polyline points="120 69.28203230275508 140 69.28203230275508"/>
<polyline points="140 69.28203230275508 150 86.60254037844385"/>
<polyline points="-10 86.60254037844385 0 103.92304845413263"/>
<polyline points="30 86.60254037844385 20 103.92304845413263"/>
<polyline points="30 86.60254037844385 50 86.60254037844385"/>
<polyline points="50 86.60254037844385 60 103.92304845413263"/>
<polyline points="90 86.60254037844385 80 103.92304845413263"/>
<polyline points="90 86.60254037844385 110 86.60254037844385"/>
<polyline points="110 86.60254037844385 120 103.92304845413263"/>
<polyline points="150 86.60254037844385 140 103.92304845413263"/>
<polyline points="0 103.92304845413263 -10 121.2435565298214"/>
<polyline points="0 103.92304845413263 20 103.92304845413263"/>
<polyline points="20 103.92304845413263 30 121.2435565298214"/>
<polyline points="60 103.92304845413263 50 121.2435565298214"/>
<polyline points="60 103.92304845413263 80 103.92304845413263"/>
<polyline points="80 103.92304845413263 90 121.2435565298214"/>
<polyline points="120 103.92304845413263 110 121.2435565298214"/>
<polyline points="120 103.92304845413263 140 103.92304845413263"/>
<polyline points="140 103.92304845413263 150 121.2435565298214"/>
<polyline points="-10 121.2435565298214 0 138.56406460551017"/>
<polyline points="30 121.2435565298214 20 138.56406460551017"/>
<polyline points="30 121.2435565298214 50 121.2435565298214"/>
<polyline points="50 121.2435565298214 60 138.56406460551017"/>
<polyline points="90 121.2435565298214 80 138.56406460551017"/>
<polyline points="90 121.2435565298214 110 121.2435565298214"/>
<polyline points="110 121.2435565298214 120 138.56406460551017"/>
<polyline points="150 121.2435565298214 140 138.56406460551017"/>
<polyline points="0 138.56406460551017 -10 155.88457268119893"/>
<polyline points="0 138.56406460551017 20 138.56406460551017"/>
<polyline points="20 138.56406460551017 30 155.88457268119893"/>
<polyline points="60 138.56406460551017 50 155.88457268119893"/>
<polyline points="60 138.56406460551017 80 138.56406460551017"/>
<polyline points="80 138.56406460551017 90 155.88457268119893"/>
<polyline points="120 138.56406460551017 110 155.88457268119893"/>
<polyline points="120 138.56406460551017 140 138.56406460551017"/>
<polyline points="140 138.56406460551017 150 155.88457268119893"/>
<polyline points="-10 155.88457268119893 0 173.2050807568877"/>
<polyline points="30 155.88457268119893 20 173.2050807568877"/>
<polyline points="30 155.88457268119893 50 155.88457268119893"/>
<polyline points="50 155.88457268119893 60 173.2050807568877"/>
<polyline points="90 155.88457268119893 80 173.2050807568877"/>
<polyline points="90 155.88457268119893 110 155.88457268119893"/>
<polyline points="110 155.88457268119893 120 173.2050807568877"/>
<polyline points="150 155.88457268119893 140 173.2050807568877"/>
<polyline points="30 190.5255888325765 50 190.5255888325765"/>
<polyline points="0 173.2050807568877 20 173.2050807568877"/>
<polyline points="20 173.2050807568877 30 190.5255888325765"/>
<polyline points="60 173.2050807568877 50 190.5255888325765"/>
<polyline points="60 173.2050807568877 80 173.2050807568877"/>
<polyline points="80 173.2050807568877 90 190.5255888325765"/>
<polyline points="120 173.2050807568877 110 190.5255888325765"/>
<polyline points="120 173.2050807568877 140 173.2050807568877"/>
<polyline points="90 190.5255888325765 110 190.5255888325765"/>
</svg>