<svg viewBox="-103 -102.95921928281892 206 205.91843856563784" xmlns="http://www.w3.org/2000/svg">
<style type="text/css">
svg { stroke:black; stroke-width:2; fill:none; transform:scale(1,-1);}
</style>
<path d="M20,0 L19.562952,4.1582336 L18.270908,8.134733 L16.18034,11.755705 L13.382612,14.862897 L10,17.320509 L6.18034,19.02113 L2.0905693,19.890438 L-2.0905693,19.890438 L-6.18034,19.02113 L-10,17.320509 L-13.382612,14.862897 L-16.18034,11.755705 L-18.270908,8.134733 L-19.562952,4.1582336 L-20,0.0000000000000024492936 L-19.562952,-4.1582336 L-18.270908,-8.134733 L-16.18034,-11.755705 L-13.382612,-14.862897 L-10,-17.320509 L-6.18034,-19.02113 L-2.0905693,-19.890438 L2.0905693,-19.890438 L6.18034,-19.02113 L10,-17.320509 L13.382612,-14.862897 L16.18034,-11.755705 L18.270908,-8.134733 L19.562952,-4.1582336 z" fill-rule="evenodd"/>
<path d="M40,0 L39.68459,5.0133295 L38.74333,9.947596 L37.19106,14.724982 L35.05227,19.270147 L32.36068,23.51141 L29.158745,27.381884 L25.49696,30.82053 L21.433071,33.773117 L17.031172,36.19308 L12.36068,38.04226 L7.4952526,39.29149 L2.5116208,39.92107 L-2.5116208,39.92107 L-7.4952526,39.29149 L-12.36068,38.04226 L-17.031172,36.19308 L-21.433071,33.773117 L-25.49696,30.82053 L-29.158745,27.381884 L-32.36068,23.51141 L-35.05227,19.270147 L-37.19106,14.724982 L-38.74333,9.947596 L-39.68459,5.0133295 L-40,0.000000000000004898587 L-39.68459,-5.0133295 L-38.74333,-9.947596 L-37.19106,-14.724982 L-35.05227,-19.270147 L-32.36068,-23.51141 L-29.158745,-27.381884 L-25.49696,-30.82053 L-21.433071,-33.773117 L-17.031172,-36.19308 L-12.36068,-38.04226 L-7.4952526,-39.29149 L-2.5116208,-39.92107 L2.5116208,-39.92107 L7.4952526,-39.29149 L12.36068,-38.04226 L17.031172,-36.19308 L21.433071,-33.773117 L25.49696,-30.82053 L29.158745,-27.381884 L32.36068,-23.51141 L35.05227,-19.270147 L37.19106,-14.724982 L38.74333,-9.947596 L39.68459,-5.0133295 z" fill-rule="evenodd"/>
<path d="M60,0 L59.758457,5.3783584 L59.035774,10.713413 L57.837772,15.962211 L56.17409,21.082489 L54.058132,26.033024 L51.506927,30.773956 L48.54102,35.267117 L45.184288,39.476322 L41.46376,43.36769 L37.40939,46.90989 L33.053818,50.074394 L28.43212,52.83573 L23.581501,55.171665 L18.54102,57.063393 L13.351256,58.495674 L8.053996,59.456985 L2.6918898,59.939583 L-2.6918898,59.939583 L-8.053996,59.456985 L-13.351256,58.495674 L-18.54102,57.063393 L-23.581501,55.171665 L-28.43212,52.83573 L-33.053818,50.074394 L-37.40939,46.90989 L-41.46376,43.36769 L-45.184288,39.476322 L-48.54102,35.267117 L-51.506927,30.773956 L-54.058132,26.033024 L-56.17409,21.082489 L-57.837772,15.962211 L-59.035774,10.713413 L-59.758457,5.3783584 L-60,0.00000000000000734788 L-59.758457,-5.3783584 L-59.035774,-10.713413 L-57.837772,-15.962211 L-56.17409,-21.082489 L-54.058132,-26.033024 L-51.506927,-30.773956 L-48.54102,-35.267117 L-45.184288,-39.476322 L-41.46376,-43.36769 L-37.40939,-46.90989 L-33.053818,-50.074394 L-28.43212,-52.83573 L-23.581501,-55.171665 L-18.54102,-57.063393 L-13.351256,-58.495674 L-8.053996,-59.456985 L-2.6918898,-59.939583 L2.6918898,-59.939583 L8.053996,-59.456985 L13.351256,-58.495674 L18.54102,-57.063393 L23.581501,-55.171665 L28.43212,-52.83573 L33.053818,-50.074394 L37.40939,-46.90989 L41.46376,-43.36769 L45.184288,-39.476322 L48.54102,-35.267117 L51.506927,-30.773956 L54.058132,-26.033024 L56.17409,-21.082489 L57.837772,-15.962211 L59.035774,-10.713413 L59.758457,-5.3783584 z" fill-rule="evenodd"/>
<path d="M80,0 L79.80512,5.580518 L79.22144,11.133848 L78.25181,16.632935 L76.90093,22.05099 L75.17541,27.361612 L73.08363,32.538933 L70.63581,37.557724 L67.84385,42.39354 L64.72136,47.02282 L61.283554,51.423008 L57.547184,55.57267 L53.53045,59.451588 L49.25292,63.04086 L44.73543,66.323006 L40,69.282036 L35.06969,71.90353 L29.968527,74.174706 L24.72136,76.08452 L19.353752,77.62366 L13.891854,78.78462 L8.362277,79.56175 L2.7919598,79.95126 L-2.7919598,79.95126 L-8.362277,79.56175 L-13.891854,78.78462 L-19.353752,77.62366 L-24.72136,76.08452 L-29.968527,74.174706 L-35.06969,71.90353 L-40,69.282036 L-44.73543,66.323006 L-49.25292,63.04086 L-53.53045,59.451588 L-57.547184,55.57267 L-61.283554,51.423008 L-64.72136,47.02282 L-67.84385,42.39354 L-70.63581,37.557724 L-73.08363,32.538933 L-75.17541,27.361612 L-76.90093,22.05099 L-78.25181,16.632935 L-79.22144,11.133848 L-79.80512,5.580518 L-80,0.000000000000009797174 L-79.80512,-5.580518 L-79.22144,-11.133848 L-78.25181,-16.632935 L-76.90093,-22.05099 L-75.17541,-27.361612 L-73.08363,-32.538933 L-70.63581,-37.557724 L-67.84385,-42.39354 L-64.72136,-47.02282 L-61.283554,-51.423008 L-57.547184,-55.57267 L-53.53045,-59.451588 L-49.25292,-63.04086 L-44.73543,-66.323006 L-40,-69.282036 L-35.06969,-71.90353 L-29.968527,-74.174706 L-24.72136,-76.08452 L-19.353752,-77.62366 L-13.891854,-78.78462 L-8.362277,-79.56175 L-2.7919598,-79.95126 L2.7919598,-79.95126 L8.362277,-79.56175 L13.891854,-78.78462 L19.353752,-77.62366 L24.72136,-76.08452 L29.968527,-74.174706 L35.06969,-71.90353 L40,-69.282036 L44.73543,-66.323006 L49.25292,-63.04086 L53.53045,-59.451588 L57.547184,-55.57267 L61.283554,-51.423008 L64.72136,-47.02282 L67.84385,-42.39354 L70.63581,-37.557724 L73.08363,-32.538933 L75.17541,-27.361612 L76.90093,-22.05099 L78.25181,-16.632935 L79.22144,-11.133848 L79.80512,-5.580518 z" fill-rule="evenodd"/>
<path d="M100,0 L99.836914,5.708881 L99.348175,11.399141 L98.535385,17.05222 L97.40119,22.649677 L95.949295,28.173256 L94.18443,33.60494 L92.112366,38.92701 L89.739845,44.12211 L87.07461,49.173294 L84.12535,54.064083 L80.9017,58.778526 L77.41416,63.301247 L73.67411,67.61749 L69.693756,71.71318 L65.48608,75.57496 L61.06479,79.19022 L56.44432,82.54719 L51.639748,85.6349 L46.666733,88.44329 L41.5415,90.963196 L36.28077,93.1864 L30.9017,95.10565 L25.421833,96.71468 L19.859047,98.008255 L14.231483,98.98215 L8.557501,99.63317 L2.8556051,99.95922 L-2.8556051,99.95922 L-8.557501,99.63317 L-14.231483,98.98215 L-19.859047,98.008255 L-25.421833,96.71468 L-30.9017,95.10565 L-36.28077,93.1864 L-41.5415,90.963196 L-46.666733,88.44329 L-51.639748,85.6349 L-56.44432,82.54719 L-61.06479,79.19022 L-65.48608,75.57496 L-69.693756,71.71318 L-73.67411,67.61749 L-77.41416,63.301247 L-80.9017,58.778526 L-84.12535,54.064083 L-87.07461,49.173294 L-89.739845,44.12211 L-92.112366,38.92701 L-94.18443,33.60494 L-95.949295,28.173256 L-97.40119,22.649677 L-98.535385,17.05222 L-99.348175,11.399141 L-99.836914,5.708881 L-100,0.0000000000000122464676 L-99.836914,-5.708881 L-99.348175,-11.399141 L-98.535385,-17.05222 L-97.40119,-22.649677 L-95.949295,-28.173256 L-94.18443,-33.60494 L-92.112366,-38.92701 L-89.739845,-44.12211 L-87.07461,-49.173294 L-84.12535,-54.064083 L-80.9017,-58.778526 L-77.41416,-63.301247 L-73.67411,-67.61749 L-69.693756,-71.71318 L-65.48608,-75.57496 L-61.06479,-79.19022 L-56.44432,-82.54719 L-51.639748,-85.6349 L-46.666733,-88.44329 L-41.5415,-90.963196 L-36.28077,-93.1864 L-30.9017,-95.10565 L-25.421833,-96.71468 L-19.859047,-98.008255 L-14.231483,-98.98215 L-8.557501,-99.63317 L-2.8556051,-99.95922 L2.8556051,-99.95922 L8.557501,-99.63317 L14.231483,-98.98215 L19.859047,-98.008255 L25.421833,-96.71468 L30.9017,-95.10565 L36.28077,-93.1864 L41.5415,-90.963196 L46.666733,-88.44329 L51.639748,-85.6349 L56.44432,-82.54719 L61.06479,-79.19022 L65.48608,-75.57496 L69.693756,-71.71318 L73.67411,-67.61749 L77.41416,-63.301247 L80.9017,-58.778526 L84.12535,-54.064083 L87.07461,-49.173294 L89.739845,-44.12211 L92.112366,-38.92701 L94.18443,-33.60494 L95.949295,-28.173256 L97.40119,-22.649677 L98.535385,-17.05222 L99.348175,-11.399141 L99.836914,-5.708881 z" fill-rule="evenodd"/>
<polyline points="0 0 20 0 40 0 60 0 80 0 100 0"/>
<polyline points="0 0 6.180339887498949 19.02113032590307 12.360679774997898 38.04226065180614 18.541019662496847 57.06339097770921 24.721359549995796 76.08452130361228 30.901699437494745 95.10565162951535"/>
<polyline points="0 0 -16.180339887498945 11.755705045849465 -32.36067977499789 23.51141009169893 -48.54101966249684 35.267115137548394 -64.72135954999578 47.02282018339786 -80.90169943749473 58.77852522924732"/>
<polyline points="0 0 -16.180339887498953 -11.75570504584946 -32.360679774997905 -23.51141009169892 -48.54101966249685 -35.26711513754838 -64.72135954999581 -47.02282018339784 -80.90169943749476 -58.7785252292473"/>
<polyline points="0 0 6.180339887498945 -19.021130325903073 12.36067977499789 -38.042260651806146 18.541019662496833 -57.06339097770922 24.72135954999578 -76.08452130361229 30.901699437494724 -95.10565162951536"/>
</svg>