<svg transform="scale(1,-1)" viewBox="-83.90169943749476 -98.10565162951536 186.90169943749476 196.21130325903073" xmlns="http://www.w3.org/2000/svg">
<style>
svg { stroke:black; stroke-width:2; fill:none;}
</style>
<path d="M20,0 L6.18034,19.02113 L-16.18034,11.755705 L-16.18034,-11.755705 L6.18034,-19.02113 z" fill-rule="evenodd"/>
<path d="M40,0 L12.36068,38.04226 L-32.36068,23.51141 L-32.36068,-23.51141 L12.36068,-38.04226 z" fill-rule="evenodd"/>
<path d="M60,0 L18.54102,57.063393 L-48.54102,35.267117 L-48.54102,-35.267117 L18.54102,-57.063393 z" fill-rule="evenodd"/>
<path d="M80,0 L24.72136,76.08452 L-64.72136,47.02282 L-64.72136,-47.02282 L24.72136,-76.08452 z" fill-rule="evenodd"/>
<path d="M100,0 L30.9017,95.10565 L-80.9017,58.778526 L-80.9017,-58.778526 L30.9017,-95.10565 z" fill-rule="evenodd"/>
<polyline points="0 0 20 0 40 0 60 0 80 0 100 0"/>
<polyline points="0 0 6.180339887498949 19.02113032590307 12.360679774997898 38.04226065180614 18.541019662496847 57.06339097770921 24.721359549995796 76.08452130361228 30.901699437494745 95.10565162951535"/>
<polyline points="0 0 -16.180339887498945 11.755705045849465 -32.36067977499789 23.51141009169893 -48.54101966249684 35.267115137548394 -64.72135954999578 47.02282018339786 -80.90169943749473 58.77852522924732"/>
<polyline points="0 0 -16.180339887498953 -11.75570504584946 -32.360679774997905 -23.51141009169892 -48.54101966249685 -35.26711513754838 -64.72135954999581 -47.02282018339784 -80.90169943749476 -58.7785252292473"/>
<polyline points="0 0 6.180339887498945 -19.021130325903073 12.36067977499789 -38.042260651806146 18.541019662496833 -57.06339097770922 24.72135954999578 -76.08452130361229 30.901699437494724 -95.10565162951536"/>
</svg>