<svg viewBox="-102.5 -102.5 206 206" xmlns="http://www.w3.org/2000/svg">
<style type="text/css">
svg { stroke:black; stroke-width:2; fill:none; transform:scale(1,-1);}
</style>
<path d="M-99.5,-2.625 L-99.5,3.625 L-99.30469,9.6796875 L-98.91406,15.5390625 L-98.328125,21.203125 L-97.546875,26.671875 L-96.57031,31.945313 L-95.39844,37.023438 L-94.03125,41.90625 L-92.46875,46.59375 L-90.71094,51.085938 L-88.75781,55.382813 L-86.609375,59.484375 L-84.265625,63.390625 L-81.72656,67.10156 L-78.99219,70.61719 L-76.0625,73.9375 L-72.9375,77.0625 L-69.61719,79.99219 L-66.10156,82.72656 L-62.390625,85.265625 L-58.484375,87.609375 L-54.382813,89.75781 L-50.085938,91.71094 L-45.59375,93.46875 L-40.90625,95.03125 L-36.023438,96.39844 L-30.945313,97.57031 L-25.671875,98.546875 L-20.203125,99.328125 L-14.5390625,99.91406 L-8.6796875,100.30469 L-2.625,100.5 L3.625,100.5 L9.6796875,100.30469 L15.5390625,99.91406 L21.203125,99.328125 L26.671875,98.546875 L31.945313,97.57031 L37.023438,96.39844 L41.90625,95.03125 L46.59375,93.46875 L51.085938,91.71094 L55.382813,89.75781 L59.484375,87.609375 L63.390625,85.265625 L67.10156,82.72656 L70.61719,79.99219 L73.9375,77.0625 L77.0625,73.9375 L79.99219,70.61719 L82.72656,67.10156 L85.265625,63.390625 L87.609375,59.484375 L89.75781,55.382813 L91.71094,51.085938 L93.46875,46.59375 L95.03125,41.90625 L96.39844,37.023438 L97.57031,31.945313 L98.546875,26.671875 L99.328125,21.203125 L99.91406,15.5390625 L100.30469,9.6796875 L100.5,3.625 L100.5,-2.625 L100.30469,-8.6796875 L99.91406,-14.5390625 L99.328125,-20.203125 L98.546875,-25.671875 L97.57031,-30.945313 L96.39844,-36.023438 L95.03125,-40.90625 L93.46875,-45.59375 L91.71094,-50.085938 L89.75781,-54.382813 L87.609375,-58.484375 L85.265625,-62.390625 L82.72656,-66.10156 L79.99219,-69.61719 L77.0625,-72.9375 L73.9375,-76.0625 L70.61719,-78.99219 L67.10156,-81.72656 L63.390625,-84.265625 L59.484375,-86.609375 L55.382813,-88.75781 L51.085938,-90.71094 L46.59375,-92.46875 L41.90625,-94.03125 L37.023438,-95.39844 L31.945313,-96.57031 L26.671875,-97.546875 L21.203125,-98.328125 L15.5390625,-98.91406 L9.6796875,-99.30469 L3.625,-99.5 L-2.625,-99.5 L-8.6796875,-99.30469 L-14.5390625,-98.91406 L-20.203125,-98.328125 L-25.671875,-97.546875 L-30.945313,-96.57031 L-36.023438,-95.39844 L-40.90625,-94.03125 L-45.59375,-92.46875 L-50.085938,-90.71094 L-54.382813,-88.75781 L-58.484375,-86.609375 L-62.390625,-84.265625 L-66.10156,-81.72656 L-69.61719,-78.99219 L-72.9375,-76.0625 L-76.0625,-72.9375 L-78.99219,-69.61719 L-81.72656,-66.10156 L-84.265625,-62.390625 L-86.609375,-58.484375 L-88.75781,-54.382813 L-90.71094,-50.085938 L-92.46875,-45.59375 L-94.03125,-40.90625 L-95.39844,-36.023438 L-96.57031,-30.945313 L-97.546875,-25.671875 L-98.328125,-20.203125 L-98.91406,-14.5390625 L-99.30469,-8.6796875 z" fill-rule="evenodd"/>
</svg>