<svg transform="scale(1,-1)" viewBox="-23 -33 926 966" xmlns="http://www.w3.org/2000/svg">
<style>
svg { stroke:black; stroke-width:2; fill:none;}
</style>
<polyline points="0 10 0 5 0 -5 -5 -10 -15 -10 -20 -5 -20 5 -15 10 -5 10 0 15 0 25 0 30"/>
<polyline points="20 -10 20 -5 20 5 15 10 5 10 0 10"/>
<polyline points="-20 10 -20 15 -20 25 -20 30"/>
<polyline points="20 -30 20 -25 20 -15 20 -10"/>
<polyline points="-20 -30 -15 -30 -5 -30 0 -25 0 -15 0 -10"/>
<polyline points="-20 110 -15 110 -5 110 5 110 15 110 20 105 20 95 20 85 20 75 20 70"/>
<polyline points="20 130 20 125 20 115 20 110"/>
<polyline points="0 70 -5 70 -15 70 -20 70"/>
<polyline points="-20 110 -20 105 -20 95 -20 90"/>
<polyline points="0 70 0 75 0 85 5 90 15 90 20 90"/>
<polyline points="20 230 15 230 5 230 -5 230 -15 230 -20 230"/>
<polyline points="0 170 0 175 0 185 -5 190 -15 190 -20 185 -20 175 -20 170"/>
<polyline points="-20 210 -20 205 -20 195 -20 190"/>
<polyline points="-20 210 -15 210 -5 210 0 205 0 195 0 190"/>
<polyline points="0 210 5 210 15 210 20 215 20 225 20 230"/>
<polyline points="0 270 0 275 0 285 0 295 0 305 -5 310 -15 310 -20 305 -20 295 -20 285 -20 275 -20 270"/>
<polyline points="20 290 20 285 20 275 20 270"/>
<polyline points="20 310 20 315 20 325 20 330"/>
<polyline points="-20 330 -20 325 -20 315 -20 310"/>
<polyline points="20 290 15 290 5 290 0 290"/>
<polyline points="-20 410 -20 415 -20 425 -20 430"/>
<polyline points="0 390 -5 390 -15 390 -20 385 -20 375 -20 370"/>
<polyline points="20 430 15 430 5 430 0 430"/>
<polyline points="20 370 20 375 20 385 20 395 20 405 20 415 20 425 20 430"/>
<polyline points="-20 390 -20 395 -20 405 -20 410"/>
<polyline points="20 490 20 485 20 475 20 470"/>
<polyline points="20 490 20 495 20 505 15 510 5 510 -5 510 -15 510 -20 505 -20 495 -15 490 -5 490 0 490"/>
<polyline points="-20 530 -15 530 -5 530 5 530 15 530 20 530"/>
<polyline points="-20 510 -20 515 -20 525 -20 530"/>
<polyline points="-20 470 -15 470 -5 470 0 470"/>
<polyline points="0 630 5 630 15 630 20 630"/>
<polyline points="0 610 0 605 0 595 5 590 15 590 20 595 20 605 20 610"/>
<polyline points="0 610 0 615 0 625 0 630"/>
<polyline points="0 590 -5 590 -15 590 -20 595 -20 605 -20 615 -20 625 -20 630"/>
<polyline points="20 590 20 585 20 575 20 570"/>
<polyline points="20 670 20 675 20 685 15 690 5 690 0 695 0 705 0 715 0 725 5 730 15 730 20 730"/>
<polyline points="-20 710 -15 710 -5 710 0 710"/>
<polyline points="0 670 5 670 15 670 20 670"/>
<polyline points="-20 710 -20 715 -20 725 -20 730"/>
<polyline points="-20 690 -20 685 -20 675 -20 670"/>
<polyline points="0 790 5 790 15 790 20 795 20 805 20 815 20 825 20 830"/>
<polyline points="0 770 -5 770 -15 770 -20 770"/>
<polyline points="0 830 -5 830 -15 830 -20 830"/>
<polyline points="20 810 15 810 5 810 -5 810 -15 810 -20 810"/>
<polyline points="20 790 20 785 20 775 20 770"/>
<polyline points="0 930 5 930 15 930 20 930"/>
<polyline points="-20 930 -20 925 -20 915 -20 905 -20 895 -15 890 -5 890 5 890 15 890 20 885 20 875 20 870"/>
<polyline points="-20 910 -15 910 -5 910 5 910 15 910 20 910"/>
<polyline points="0 930 -5 930 -15 930 -20 930"/>
<polyline points="0 910 0 915 0 925 0 930"/>
<polyline points="60 -30 60 -25 60 -15 65 -10 75 -10 80 -5 80 5 80 15 80 25 85 30 95 30 100 30"/>
<polyline points="80 -30 80 -25 80 -15 80 -10"/>
<polyline points="80 10 75 10 65 10 60 15 60 25 60 30"/>
<polyline points="80 -30 85 -30 95 -30 100 -30"/>
<polyline points="100 -10 100 -5 100 5 100 10"/>
<polyline points="100 130 100 125 100 115 100 105 100 95 95 90 85 90 75 90 65 90 60 95 60 105 60 110"/>
<polyline points="80 90 80 85 80 75 75 70 65 70 60 70"/>
<polyline points="100 110 95 110 85 110 80 115 80 125 75 130 65 130 60 130"/>
<polyline points="100 130 95 130 85 130 80 130"/>
<polyline points="80 90 80 95 80 105 80 110"/>
<polyline points="60 190 60 185 60 175 60 170"/>
<polyline points="60 210 65 210 75 210 85 210 95 210 100 205 100 195 100 185 100 175 100 170"/>
<polyline points="80 190 85 190 95 190 100 190"/>
<polyline points="60 190 60 195 60 205 60 210"/>
<polyline points="80 230 85 230 95 230 100 230"/>
<polyline points="60 310 60 315 60 325 60 330"/>
<polyline points="60 290 60 285 60 275 60 270"/>
<polyline points="100 270 95 270 85 270 80 270"/>
<polyline points="80 310 85 310 95 310 100 305 100 295 95 290 85 290 80 295 80 305 75 310 65 310 60 310"/>
<polyline points="100 270 100 275 100 285 100 290"/>
<polyline points="60 390 65 390 75 390 80 385 80 375 85 370 95 370 100 370"/>
<polyline points="65 430 75 430 80 425 80 415 75 410 65 410 60 415 60 425 65 430"/>
<polyline points="80 390 80 395 80 405 80 410"/>
<polyline points="60 410 60 405 60 395 60 390"/>
<polyline points="100 430 100 425 100 415 100 410"/>
<polyline points="80 470 80 475 80 485 80 495 80 505 80 515 80 525 85 530 95 530 100 530"/>
<polyline points="60 530 60 525 60 515 60 505 60 495 60 485 60 475 60 470"/>
<polyline points="80 470 85 470 95 470 100 470"/>
<polyline points="80 490 75 490 65 490 60 490"/>
<polyline points="100 490 95 490 85 490 80 490"/>
<polyline points="100 610 100 605 100 595 100 585 100 575 100 570"/>
<polyline points="100 590 95 590 85 590 80 595 80 605 85 610 95 610 100 610"/>
<polyline points="80 610 80 615 80 625 75 630 65 630 60 630"/>
<polyline points="100 630 95 630 85 630 80 630"/>
<polyline points="80 610 75 610 65 610 60 610"/>
<polyline points="60 670 60 675 60 685 60 695 60 705 65 710 75 710 85 710 95 710 100 715 100 725 100 730"/>
<polyline points="80 670 80 675 80 685 75 690 65 690 60 690"/>
<polyline points="80 730 75 730 65 730 60 730"/>
<polyline points="80 690 80 695 80 705 80 710"/>
<polyline points="60 670 65 670 75 670 80 670"/>
<polyline points="100 790 95 790 85 790 80 795 80 805 75 810 65 810 60 805 60 795 65 790 75 790 80 790"/>
<polyline points="100 790 100 795 100 805 100 815 100 825 100 830"/>
<polyline points="80 770 85 770 95 770 100 770"/>
<polyline points="60 830 65 830 75 830 80 830"/>
<polyline points="100 870 100 875 100 885 95 890 85 890 80 885 80 875 75 870 65 870 60 870"/>
<polyline points="80 930 85 930 95 930 100 930"/>
<polyline points="80 890 80 895 80 905 85 910 95 910 100 910"/>
<polyline points="60 890 65 890 75 890 80 890"/>
<polyline points="180 -10 180 -15 180 -25 180 -30"/>
<polyline points="140 -30 145 -30 155 -30 160 -30"/>
<polyline points="160 10 160 15 160 25 155 30 145 30 140 30"/>
<polyline points="180 10 180 15 180 25 180 30"/>
<polyline points="140 -30 140 -25 140 -15 145 -10 155 -10 160 -5 160 5 165 10 175 10 180 10"/>
<polyline points="180 130 180 125 180 115 180 105 180 95 175 90 165 90 160 95 160 105 165 110 175 110 180 110"/>
<polyline points="180 90 180 85 180 75 180 70"/>
<polyline points="140 70 140 75 140 85 140 95 140 105 145 110 155 110 160 110"/>
<polyline points="160 70 155 70 145 70 140 70"/>
<polyline points="180 130 175 130 165 130 160 130"/>
<polyline points="140 170 145 170 155 170 160 175 160 185 160 195 160 205 165 210 175 210 180 215 180 225 180 230"/>
<polyline points="140 230 145 230 155 230 160 230"/>
<polyline points="140 210 140 205 140 195 140 185 140 175 140 170"/>
<polyline points="180 190 180 185 180 175 180 170"/>
<polyline points="180 310 175 310 165 310 155 310 145 310 140 305 140 295 140 285 140 275 140 270"/>
<polyline points="140 290 145 290 155 290 165 290 175 290 180 285 180 275 180 270"/>
<polyline points="180 290 180 295 180 305 180 310"/>
<polyline points="180 330 180 325 180 315 180 310"/>
<polyline points="180 330 175 330 165 330 155 330 145 330 140 330"/>
<polyline points="160 410 160 405 160 395 160 385 160 375 155 370 145 370 140 370"/>
<polyline points="140 390 145 390 155 390 160 390"/>
<polyline points="140 390 140 395 140 405 140 415 140 425 140 430"/>
<polyline points="140 410 145 410 155 410 160 410"/>
<polyline points="180 430 175 430 165 430 160 430"/>
<polyline points="180 510 180 515 180 525 180 530"/>
<polyline points="140 490 140 485 140 475 140 470"/>
<polyline points="160 470 160 475 160 485 155 490 145 490 140 490"/>
<polyline points="160 470 165 470 175 470 180 470"/>
<polyline points="140 530 145 530 155 530 160 530"/>
<polyline points="160 630 155 630 145 630 140 630"/>
<polyline points="140 590 140 595 140 605 140 610"/>
<polyline points="180 570 175 570 165 570 155 570 145 570 140 570"/>
<polyline points="160 570 160 575 160 585 165 590 175 590 180 595 180 605 180 615 180 625 180 630"/>
<polyline points="180 570 180 575 180 585 180 590"/>
<polyline points="160 690 160 695 160 705 155 710 145 710 140 705 140 695 140 685 140 675 140 670"/>
<polyline points="160 670 165 670 175 670 180 670"/>
<polyline points="160 670 160 675 160 685 155 690 145 690 140 690"/>
<polyline points="180 730 175 730 165 730 155 730 145 730 140 730"/>
<polyline points="160 730 160 725 160 715 160 710"/>
<polyline points="180 810 175 810 165 810 160 815 160 825 165 830 175 830 180 830"/>
<polyline points="140 790 140 785 140 775 140 770"/>
<polyline points="180 790 180 795 180 805 180 810"/>
<polyline points="160 830 155 830 145 830 140 830"/>
<polyline points="180 790 180 785 180 775 180 770"/>
<polyline points="160 890 165 890 175 890 180 895 180 905 180 915 180 925 180 930"/>
<polyline points="140 910 140 915 140 925 140 930"/>
<polyline points="160 930 160 925 160 915 155 910 145 910 140 910"/>
<polyline points="160 910 165 910 175 910 180 910"/>
<polyline points="140 870 145 870 155 870 165 870 175 870 180 870"/>
<polyline points="255 10 245 10 240 5 240 -5 245 -10 255 -10 260 -5 260 5 255 10"/>
<polyline points="260 30 255 30 245 30 240 30"/>
<polyline points="220 -30 225 -30 235 -30 245 -30 255 -30 260 -30"/>
<polyline points="240 -10 240 -15 240 -25 240 -30"/>
<polyline points="220 10 220 5 220 -5 220 -15 220 -25 220 -30"/>
<polyline points="300 -10 300 -15 300 -25 300 -30"/>
<polyline points="340 10 335 10 325 10 315 10 305 10 300 5 300 -5 300 -10"/>
<polyline points="300 10 300 15 300 25 300 30"/>
<polyline points="340 10 340 15 340 25 340 30"/>
<polyline points="320 30 315 30 305 30 300 30"/>
<polyline points="380 -10 385 -10 395 -10 400 -5 400 5 400 15 400 25 395 30 385 30 380 30"/>
<polyline points="400 -30 405 -30 415 -30 420 -30"/>
<polyline points="420 10 420 15 420 25 420 30"/>
<polyline points="380 -10 380 -5 380 5 380 10"/>
<polyline points="460 -10 460 -5 460 5 460 15 460 25 460 30"/>
<polyline points="500 -10 500 -15 500 -25 500 -30"/>
<polyline points="460 -30 465 -30 475 -30 480 -30"/>
<polyline points="480 -10 475 -10 465 -10 460 -10"/>
<polyline points="480 30 480 25 480 15 480 5 480 -5 480 -10"/>
<polyline points="580 10 580 5 580 -5 575 -10 565 -10 560 -15 560 -25 555 -30 545 -30 540 -30"/>
<polyline points="540 10 540 15 540 25 540 30"/>
<polyline points="560 -30 565 -30 575 -30 580 -30"/>
<polyline points="580 30 580 25 580 15 580 10"/>
<polyline points="560 -10 560 -5 560 5 560 15 560 25 560 30"/>
<polyline points="660 -10 660 -5 660 5 655 10 645 10 640 15 640 25 645 30 655 30 660 30"/>
<polyline points="620 30 620 25 620 15 625 10 635 10 640 10"/>
<polyline points="620 30 625 30 635 30 640 30"/>
<polyline points="620 10 620 5 620 -5 620 -15 620 -25 620 -30"/>
<polyline points="740 10 735 10 725 10 720 15 720 25 725 30 735 30 740 30"/>
<polyline points="740 10 740 5 740 -5 740 -15 740 -25 740 -30"/>
<polyline points="700 -30 700 -25 700 -15 705 -10 715 -10 725 -10 735 -10 740 -10"/>
<polyline points="700 -10 700 -5 700 5 705 10 715 10 720 10"/>
<polyline points="700 30 705 30 715 30 720 30"/>
<polyline points="800 -30 800 -25 800 -15 795 -10 785 -10 780 -15 780 -25 780 -30"/>
<polyline points="800 -30 805 -30 815 -30 820 -30"/>
<polyline points="800 10 805 10 815 10 820 5 820 -5 820 -10"/>
<polyline points="780 -10 780 -5 780 5 780 15 780 25 780 30"/>
<polyline points="780 10 785 10 795 10 800 5 800 -5 800 -10"/>
<polyline points="880 10 880 15 880 25 875 30 865 30 860 30"/>
<polyline points="860 -30 860 -25 860 -15 860 -5 860 5 860 10"/>
<polyline points="860 -30 865 -30 875 -30 885 -30 895 -30 900 -30"/>
<polyline points="880 -30 880 -25 880 -15 880 -5 880 5 880 10"/>
<polyline points="900 -10 895 -10 885 -10 880 -10"/>
<polyline points="240 90 240 95 240 105 245 110 255 110 260 105 260 95 260 85 260 75 260 70"/>
<polyline points="260 110 260 115 260 125 260 130"/>
<polyline points="220 110 220 115 220 125 220 130"/>
<polyline points="220 90 220 85 220 75 220 70"/>
<polyline points="220 90 220 95 220 105 220 110"/>
<polyline points="260 230 260 225 260 215 255 210 245 210 240 215 240 225 235 230 225 230 220 230"/>
<polyline points="220 170 220 175 220 185 225 190 235 190 240 195 240 205 240 210"/>
<polyline points="260 190 255 190 245 190 240 190"/>
<polyline points="240 230 245 230 255 230 260 230"/>
<polyline points="220 210 220 205 220 195 220 190"/>
<polyline points="220 330 220 325 220 315 225 310 235 310 240 315 240 325 245 330 255 330 260 330"/>
<polyline points="220 270 220 275 220 285 220 295 220 305 220 310"/>
<polyline points="240 270 245 270 255 270 260 270"/>
<polyline points="220 270 225 270 235 270 240 270"/>
<polyline points="220 290 225 290 235 290 245 290 255 290 260 290"/>
<polyline points="260 370 255 370 245 370 235 370 225 370 220 370"/>
<polyline points="240 370 240 375 240 385 240 395 240 405 240 415 240 425 245 430 255 430 260 430"/>
<polyline points="240 430 235 430 225 430 220 430"/>
<polyline points="240 410 245 410 255 410 260 410"/>
<polyline points="220 410 220 405 220 395 220 390"/>
<polyline points="240 510 240 505 240 495 240 485 240 475 235 470 225 470 220 470"/>
<polyline points="240 530 240 525 240 515 235 510 225 510 220 505 220 495 220 490"/>
<polyline points="260 530 255 530 245 530 240 530"/>
<polyline points="240 510 245 510 255 510 260 510"/>
<polyline points="220 510 220 515 220 525 220 530"/>
<polyline points="220 610 220 605 220 595 225 590 235 590 245 590 255 590 260 585 260 575 260 570"/>
<polyline points="220 610 225 610 235 610 245 610 255 610 260 605 260 595 260 590"/>
<polyline points="220 590 220 585 220 575 220 570"/>
<polyline points="240 570 240 575 240 585 240 590"/>
<polyline points="260 630 260 625 260 615 260 610"/>
<polyline points="220 670 225 670 235 670 240 675 240 685 240 695 240 705 245 710 255 710 260 705 260 695 260 690"/>
<polyline points="220 690 220 685 220 675 220 670"/>
<polyline points="220 690 225 690 235 690 240 690"/>
<polyline points="220 690 220 695 220 705 220 715 220 725 220 730"/>
<polyline points="260 710 260 715 260 725 260 730"/>
<polyline points="220 810 220 815 220 825 220 830"/>
<polyline points="240 810 235 810 225 810 220 810"/>
<polyline points="220 790 220 785 220 775 220 770"/>
<polyline points="240 790 240 795 240 805 240 815 240 825 240 830"/>
<polyline points="260 810 260 805 260 795 255 790 245 790 240 785 240 775 240 770"/>
<polyline points="220 870 220 875 220 885 225 890 235 890 240 895 240 905 240 915 240 925 245 930 255 930 260 930"/>
<polyline points="260 870 255 870 245 870 235 870 225 870 220 870"/>
<polyline points="260 910 260 905 260 895 260 885 260 875 260 870"/>
<polyline points="240 870 240 875 240 885 240 890"/>
<polyline points="220 890 220 895 220 905 220 910"/>
<polyline points="880 720 885 720 895 720 900 715 900 705 895 700 885 700 880 705 880 715 875 720 865 720 860 720"/>
<polyline points="860 700 860 695 860 685 860 680"/>
<polyline points="860 700 860 705 860 715 860 720"/>
<polyline points="900 680 900 685 900 695 900 700"/>
<polyline points="900 680 895 680 885 680 880 680"/>
<polyline points="340 90 340 85 340 75 340 70"/>
<polyline points="300 70 305 70 315 70 320 70"/>
<polyline points="300 90 305 90 315 90 325 90 335 90 340 90"/>
<polyline points="320 90 320 95 320 105 315 110 305 110 300 115 300 125 300 130"/>
<polyline points="300 70 300 75 300 85 300 90"/>
<polyline points="380 90 380 95 380 105 380 115 380 125 380 130"/>
<polyline points="380 70 385 70 395 70 405 70 415 70 420 70"/>
<polyline points="400 70 400 75 400 85 405 90 415 90 420 90"/>
<polyline points="420 110 415 110 405 110 400 105 400 95 400 90"/>
<polyline points="380 70 380 75 380 85 380 90"/>
<polyline points="500 130 500 125 500 115 500 105 500 95 495 90 485 90 475 90 465 90 460 85 460 75 460 70"/>
<polyline points="500 90 500 85 500 75 500 70"/>
<polyline points="480 90 480 85 480 75 480 70"/>
<polyline points="480 130 480 125 480 115 485 110 495 110 500 110"/>
<polyline points="480 130 485 130 495 130 500 130"/>
<polyline points="580 90 580 95 580 105 575 110 565 110 555 110 545 110 540 105 540 95 540 85 540 75 540 70"/>
<polyline points="540 130 545 130 555 130 565 130 575 130 580 130"/>
<polyline points="560 130 560 125 560 115 560 110"/>
<polyline points="580 90 580 85 580 75 580 70"/>
<polyline points="540 90 545 90 555 90 565 90 575 90 580 90"/>
<polyline points="620 90 620 95 620 105 625 110 635 110 645 110 655 110 660 115 660 125 660 130"/>
<polyline points="660 90 660 85 660 75 660 70"/>
<polyline points="620 90 625 90 635 90 645 90 655 90 660 90"/>
<polyline points="640 90 640 95 640 105 640 110"/>
<polyline points="620 90 620 85 620 75 620 70"/>
<polyline points="740 90 735 90 725 90 715 90 705 90 700 85 700 75 700 70"/>
<polyline points="720 110 720 105 720 95 720 90"/>
<polyline points="740 130 735 130 725 130 715 130 705 130 700 130"/>
<polyline points="740 90 740 95 740 105 735 110 725 110 715 110 705 110 700 110"/>
<polyline points="720 130 720 125 720 115 720 110"/>
<polyline points="800 70 800 75 800 85 795 90 785 90 780 85 780 75 780 70"/>
<polyline points="820 90 820 95 820 105 820 115 820 125 820 130"/>
<polyline points="820 70 815 70 805 70 800 70"/>
<polyline points="780 90 780 95 780 105 785 110 795 110 800 105 800 95 800 90"/>
<polyline points="800 130 800 125 800 115 800 110"/>
<polyline points="900 70 900 75 900 85 900 95 900 105 895 110 885 110 880 105 880 95 875 90 865 90 860 90"/>
<polyline points="900 90 895 90 885 90 880 90"/>
<polyline points="900 70 895 70 885 70 880 70"/>
<polyline points="880 130 885 130 895 130 900 130"/>
<polyline points="880 110 875 110 865 110 860 105 860 95 860 90"/>
<polyline points="320 210 325 210 335 210 340 215 340 225 340 230"/>
<polyline points="300 190 300 195 300 205 300 215 300 225 300 230"/>
<polyline points="300 170 300 175 300 185 300 190"/>
<polyline points="320 170 325 170 335 170 340 170"/>
<polyline points="300 210 305 210 315 210 320 210"/>
<polyline points="340 290 340 295 340 305 340 315 340 325 340 330"/>
<polyline points="300 290 305 290 315 290 320 295 320 305 320 315 320 325 320 330"/>
<polyline points="300 270 300 275 300 285 300 290"/>
<polyline points="320 270 325 270 335 270 340 270"/>
<polyline points="300 310 300 315 300 325 300 330"/>
<polyline points="300 410 300 415 300 425 300 430"/>
<polyline points="320 410 315 410 305 410 300 410"/>
<polyline points="340 370 335 370 325 370 320 375 320 385 315 390 305 390 300 390"/>
<polyline points="340 370 340 375 340 385 335 390 325 390 320 390"/>
<polyline points="340 390 340 395 340 405 340 415 340 425 340 430"/>
<polyline points="340 530 340 525 340 515 340 505 340 495 340 485 340 475 340 470"/>
<polyline points="300 490 300 485 300 475 300 470"/>
<polyline points="320 490 325 490 335 490 340 490"/>
<polyline points="300 530 300 525 300 515 300 505 300 495 300 490"/>
<polyline points="320 470 320 475 320 485 320 490"/>
<polyline points="340 610 340 605 340 595 340 585 340 575 340 570"/>
<polyline points="300 630 300 625 300 615 300 605 300 595 300 585 300 575 300 570"/>
<polyline points="320 610 315 610 305 610 300 610"/>
<polyline points="300 590 305 590 315 590 320 595 320 605 320 615 320 625 315 630 305 630 300 630"/>
<polyline points="320 610 325 610 335 610 340 610"/>
<polyline points="300 710 300 705 300 695 300 685 300 675 300 670"/>
<polyline points="320 670 325 670 335 670 340 670"/>
<polyline points="320 690 320 695 320 705 320 715 320 725 325 730 335 730 340 730"/>
<polyline points="300 690 305 690 315 690 325 690 335 690 340 690"/>
<polyline points="320 710 315 710 305 710 300 710"/>
<polyline points="300 790 305 790 315 790 325 790 335 790 340 795 340 805 340 815 340 825 340 830"/>
<polyline points="320 830 315 830 305 830 300 830"/>
<polyline points="300 790 300 795 300 805 300 810"/>
<polyline points="300 770 305 770 315 770 320 775 320 785 320 790"/>
<polyline points="340 770 335 770 325 770 320 770"/>
<polyline points="300 930 305 930 315 930 325 930 335 930 340 930"/>
<polyline points="320 910 325 910 335 910 340 910"/>
<polyline points="340 870 340 875 340 885 340 890"/>
<polyline points="320 870 320 875 320 885 320 895 320 905 320 915 320 925 320 930"/>
<polyline points="300 870 300 875 300 885 300 895 300 905 305 910 315 910 320 910"/>
<polyline points="380 190 380 195 380 205 385 210 395 210 400 205 400 195 405 190 415 190 420 195 420 205 420 210"/>
<polyline points="420 170 420 175 420 185 420 190"/>
<polyline points="380 230 380 225 380 215 380 210"/>
<polyline points="400 170 400 175 400 185 400 190"/>
<polyline points="400 230 405 230 415 230 420 230"/>
<polyline points="480 230 475 230 465 230 460 230"/>
<polyline points="500 230 500 225 500 215 495 210 485 210 480 215 480 225 480 230"/>
<polyline points="480 190 475 190 465 190 460 185 460 175 460 170"/>
<polyline points="480 170 485 170 495 170 500 170"/>
<polyline points="460 210 465 210 475 210 480 210"/>
<polyline points="560 210 560 205 560 195 555 190 545 190 540 195 540 205 540 215 540 225 540 230"/>
<polyline points="540 210 545 210 555 210 565 210 575 210 580 215 580 225 580 230"/>
<polyline points="560 210 560 215 560 225 560 230"/>
<polyline points="540 170 545 170 555 170 565 170 575 170 580 170"/>
<polyline points="540 170 540 175 540 185 540 190"/>
<polyline points="620 230 620 225 620 215 625 210 635 210 640 205 640 195 640 185 640 175 645 170 655 170 660 170"/>
<polyline points="640 210 645 210 655 210 660 215 660 225 660 230"/>
<polyline points="640 170 635 170 625 170 620 170"/>
<polyline points="660 210 660 205 660 195 660 190"/>
<polyline points="620 210 620 205 620 195 620 190"/>
<polyline points="700 190 700 195 700 205 700 215 700 225 700 230"/>
<polyline points="720 190 720 195 720 205 725 210 735 210 740 215 740 225 740 230"/>
<polyline points="700 210 705 210 715 210 720 210"/>
<polyline points="720 190 725 190 735 190 740 185 740 175 740 170"/>
<polyline points="780 170 785 170 795 170 800 175 800 185 800 195 800 205 805 210 815 210 820 215 820 225 820 230"/>
<polyline points="800 170 805 170 815 170 820 170"/>
<polyline points="780 170 780 175 780 185 785 190 795 190 800 190"/>
<polyline points="800 230 795 230 785 230 780 230"/>
<polyline points="800 210 795 210 785 210 780 210"/>
<polyline points="880 170 880 175 880 185 875 190 865 190 860 185 860 175 860 170"/>
<polyline points="900 190 900 185 900 175 900 170"/>
<polyline points="900 225 900 215 895 210 885 210 880 215 880 225 885 230 895 230 900 225"/>
<polyline points="880 210 880 205 880 195 880 190"/>
<polyline points="400 330 405 330 415 330 420 330"/>
<polyline points="400 290 405 290 415 290 420 295 420 305 420 310"/>
<polyline points="400 290 400 285 400 275 395 270 385 270 380 270"/>
<polyline points="380 330 380 325 380 315 380 305 380 295 380 290"/>
<polyline points="400 310 395 310 385 310 380 310"/>
<polyline points="400 390 405 390 415 390 420 395 420 405 415 410 405 410 395 410 385 410 380 415 380 425 380 430"/>
<polyline points="380 410 380 405 380 395 385 390 395 390 400 385 400 375 405 370 415 370 420 370"/>
<polyline points="400 430 405 430 415 430 420 430"/>
<polyline points="400 390 400 395 400 405 400 410"/>
<polyline points="400 410 400 415 400 425 400 430"/>
<polyline points="800 800 805 800 815 800 820 805 820 815 820 820"/>
<polyline points="780 780 785 780 795 780 805 780 815 780 820 785 820 795 820 800"/>
<polyline points="800 800 795 800 785 800 780 795 780 785 780 780"/>
<polyline points="780 820 780 815 780 805 780 800"/>
<polyline points="800 800 800 805 800 815 800 820"/>
<polyline points="400 530 395 530 385 530 380 530"/>
<polyline points="420 470 420 475 420 485 420 495 420 505 415 510 405 510 400 515 400 525 400 530"/>
<polyline points="400 490 395 490 385 490 380 495 380 505 380 510"/>
<polyline points="400 470 400 475 400 485 405 490 415 490 420 490"/>
<polyline points="420 530 420 525 420 515 420 510"/>
<polyline points="400 610 395 610 385 610 380 605 380 595 380 585 380 575 380 570"/>
<polyline points="420 570 415 570 405 570 400 570"/>
<polyline points="400 610 400 605 400 595 395 590 385 590 380 590"/>
<polyline points="420 570 420 575 420 585 420 595 420 605 420 615 420 625 420 630"/>
<polyline points="420 590 415 590 405 590 400 590"/>
<polyline points="380 670 385 670 395 670 400 675 400 685 405 690 415 690 420 695 420 705 415 710 405 710 400 710"/>
<polyline points="400 730 395 730 385 730 380 730"/>
<polyline points="420 670 415 670 405 670 400 670"/>
<polyline points="420 710 420 715 420 725 420 730"/>
<polyline points="420 690 420 685 420 675 420 670"/>
<polyline points="380 790 380 785 380 775 380 770"/>
<polyline points="380 790 385 790 395 790 405 790 415 790 420 795 420 805 420 815 420 825 420 830"/>
<polyline points="400 770 405 770 415 770 420 770"/>
<polyline points="380 830 380 825 380 815 380 805 380 795 380 790"/>
<polyline points="380 830 385 830 395 830 400 830"/>
<polyline points="400 890 400 885 400 875 405 870 415 870 420 870"/>
<polyline points="415 890 405 890 400 895 400 905 405 910 415 910 420 905 420 895 415 890"/>
<polyline points="400 910 395 910 385 910 380 915 380 925 380 930"/>
<polyline points="380 910 380 905 380 895 380 885 380 875 380 870"/>
<polyline points="400 890 395 890 385 890 380 890"/>
<polyline points="500 330 500 325 500 315 500 305 500 295 495 290 485 290 475 290 465 290 460 285 460 275 460 270"/>
<polyline points="500 330 495 330 485 330 480 330"/>
<polyline points="480 290 480 285 480 275 480 270"/>
<polyline points="480 290 480 295 480 305 475 310 465 310 460 305 460 295 460 290"/>
<polyline points="500 270 500 275 500 285 500 290"/>
<polyline points="560 330 565 330 575 330 580 330"/>
<polyline points="580 290 575 290 565 290 560 295 560 305 555 310 545 310 540 305 540 295 545 290 555 290 560 290"/>
<polyline points="540 270 540 275 540 285 540 290"/>
<polyline points="540 310 540 315 540 325 540 330"/>
<polyline points="580 310 575 310 565 310 560 310"/>
<polyline points="660 290 660 285 660 275 660 270"/>
<polyline points="640 310 640 305 640 295 645 290 655 290 660 290"/>
<polyline points="640 310 635 310 625 310 620 305 620 295 625 290 635 290 640 290"/>
<polyline points="620 330 625 330 635 330 640 325 640 315 640 310"/>
<polyline points="620 270 620 275 620 285 620 290"/>
<polyline points="700 330 705 330 715 330 720 325 720 315 720 305 720 295 720 285 720 275 715 270 705 270 700 270"/>
<polyline points="740 290 740 285 740 275 740 270"/>
<polyline points="720 330 725 330 735 330 740 330"/>
<polyline points="740 290 735 290 725 290 720 290"/>
<polyline points="700 330 700 325 700 315 700 310"/>
<polyline points="780 330 785 330 795 330 805 330 815 330 820 330"/>
<polyline points="780 330 780 325 780 315 785 310 795 310 805 310 815 310 820 310"/>
<polyline points="820 270 820 275 820 285 820 290"/>
<polyline points="800 290 800 295 800 305 800 310"/>
<polyline points="800 270 805 270 815 270 820 270"/>
<polyline points="900 270 900 275 900 285 895 290 885 290 875 290 865 290 860 295 860 305 865 310 875 310 880 310"/>
<polyline points="880 290 880 285 880 275 875 270 865 270 860 270"/>
<polyline points="900 310 900 315 900 325 900 330"/>
<polyline points="880 310 880 315 880 325 880 330"/>
<polyline points="880 290 880 295 880 305 880 310"/>
<polyline points="460 390 460 385 460 375 460 370"/>
<polyline points="500 410 500 405 500 395 495 390 485 390 480 395 480 405 480 415 480 425 485 430 495 430 500 430"/>
<polyline points="480 430 475 430 465 430 460 430"/>
<polyline points="480 370 480 375 480 385 480 390"/>
<polyline points="500 370 495 370 485 370 480 370"/>
<polyline points="480 530 485 530 495 530 500 530"/>
<polyline points="460 510 460 515 460 525 460 530"/>
<polyline points="480 490 480 495 480 505 475 510 465 510 460 510"/>
<polyline points="500 510 495 510 485 510 480 510"/>
<polyline points="480 490 485 490 495 490 500 485 500 475 500 470"/>
<polyline points="500 575 500 585 495 590 485 590 480 585 480 575 485 570 495 570 500 575"/>
<polyline points="460 630 460 625 460 615 465 610 475 610 480 605 480 595 480 590"/>
<polyline points="460 590 460 595 460 605 460 610"/>
<polyline points="460 590 460 585 460 575 460 570"/>
<polyline points="480 630 485 630 495 630 500 630"/>
<polyline points="500 710 500 715 500 725 500 730"/>
<polyline points="480 670 485 670 495 670 500 670"/>
<polyline points="460 730 465 730 475 730 480 730"/>
<polyline points="500 710 495 710 485 710 475 710 465 710 460 705 460 695 460 685 460 675 460 670"/>
<polyline points="500 690 500 695 500 705 500 710"/>
<polyline points="460 810 460 805 460 795 460 785 460 775 460 770"/>
<polyline points="460 830 460 825 460 815 460 810"/>
<polyline points="480 830 480 825 480 815 480 805 480 795 485 790 495 790 500 785 500 775 500 770"/>
<polyline points="460 790 465 790 475 790 480 790"/>
<polyline points="480 810 485 810 495 810 500 815 500 825 500 830"/>
<polyline points="500 930 500 925 500 915 495 910 485 910 480 905 480 895 475 890 465 890 460 895 460 905 460 910"/>
<polyline points="500 930 495 930 485 930 475 930 465 930 460 930"/>
<polyline points="480 870 485 870 495 870 500 870"/>
<polyline points="460 870 460 875 460 885 460 890"/>
<polyline points="500 890 495 890 485 890 480 890"/>
<polyline points="560 390 560 395 560 405 560 415 560 425 565 430 575 430 580 430"/>
<polyline points="540 390 545 390 555 390 565 390 575 390 580 395 580 405 580 410"/>
<polyline points="540 370 540 375 540 385 540 390"/>
<polyline points="560 390 560 385 560 375 565 370 575 370 580 370"/>
<polyline points="540 410 540 415 540 425 540 430"/>
<polyline points="640 430 640 425 640 415 645 410 655 410 660 405 660 395 655 390 645 390 640 385 640 375 640 370"/>
<polyline points="640 430 635 430 625 430 620 430"/>
<polyline points="640 370 635 370 625 370 620 370"/>
<polyline points="660 390 660 385 660 375 660 370"/>
<polyline points="700 390 705 390 715 390 725 390 735 390 740 385 740 375 740 370"/>
<polyline points="720 370 715 370 705 370 700 370"/>
<polyline points="720 390 720 395 720 405 715 410 705 410 700 405 700 395 700 390"/>
<polyline points="720 370 720 375 720 385 720 390"/>
<polyline points="740 390 740 395 740 405 740 415 740 425 740 430"/>
<polyline points="780 370 785 370 795 370 800 375 800 385 795 390 785 390 780 395 780 405 785 410 795 410 800 410"/>
<polyline points="800 370 805 370 815 370 820 370"/>
<polyline points="800 410 800 415 800 425 805 430 815 430 820 430"/>
<polyline points="800 410 800 405 800 395 800 390"/>
<polyline points="780 430 780 425 780 415 780 410"/>
<polyline points="880 430 885 430 895 430 900 430"/>
<polyline points="880 370 885 370 895 370 900 370"/>
<polyline points="880 410 885 410 895 410 900 410"/>
<polyline points="860 370 865 370 875 370 880 370"/>
<polyline points="860 430 865 430 875 430 880 430"/>
<polyline points="540 475 540 485 545 490 555 490 560 485 560 475 555 470 545 470 540 475"/>
<polyline points="560 530 555 530 545 530 540 530"/>
<polyline points="560 470 565 470 575 470 580 470"/>
<polyline points="560 510 565 510 575 510 580 505 580 495 580 490"/>
<polyline points="580 530 575 530 565 530 560 530"/>
<polyline points="880 800 880 805 880 815 875 820 865 820 860 820"/>
<polyline points="880 800 875 800 865 800 860 800"/>
<polyline points="900 800 900 795 900 785 895 780 885 780 880 785 880 795 880 800"/>
<polyline points="900 820 895 820 885 820 880 820"/>
<polyline points="900 800 900 805 900 815 900 820"/>
<polyline points="580 570 575 570 565 570 560 575 560 585 555 590 545 590 540 595 540 605 545 610 555 610 560 610"/>
<polyline points="560 630 555 630 545 630 540 630"/>
<polyline points="580 610 580 615 580 625 580 630"/>
<polyline points="560 590 560 595 560 605 565 610 575 610 580 610"/>
<polyline points="560 610 560 615 560 625 560 630"/>
<polyline points="560 690 555 690 545 690 540 695 540 705 540 715 540 725 540 730"/>
<polyline points="580 710 580 715 580 725 580 730"/>
<polyline points="580 670 575 670 565 670 555 670 545 670 540 670"/>
<polyline points="540 710 545 710 555 710 560 715 560 725 560 730"/>
<polyline points="560 790 560 785 560 775 565 770 575 770 580 770"/>
<polyline points="580 790 575 790 565 790 555 790 545 790 540 785 540 775 540 770"/>
<polyline points="580 810 575 810 565 810 560 805 560 795 560 790"/>
<polyline points="580 790 580 795 580 805 580 810"/>
<polyline points="580 830 580 825 580 815 580 810"/>
<polyline points="560 890 565 890 575 890 580 895 580 905 580 915 580 925 580 930"/>
<polyline points="540 870 540 875 540 885 540 895 540 905 540 915 540 925 540 930"/>
<polyline points="580 870 580 875 580 885 580 890"/>
<polyline points="560 930 560 925 560 915 555 910 545 910 540 910"/>
<polyline points="540 870 545 870 555 870 560 875 560 885 560 895 560 905 560 910"/>
<polyline points="620 510 620 505 620 495 620 485 620 475 620 470"/>
<polyline points="660 530 660 525 660 515 655 510 645 510 640 515 640 525 635 530 625 530 620 530"/>
<polyline points="640 490 640 495 640 505 640 510"/>
<polyline points="640 490 635 490 625 490 620 490"/>
<polyline points="640 470 645 470 655 470 660 470"/>
<polyline points="720 530 720 525 720 515 715 510 705 510 700 505 700 495 705 490 715 490 720 485 720 475 720 470"/>
<polyline points="740 490 740 495 740 505 735 510 725 510 720 510"/>
<polyline points="700 470 705 470 715 470 720 470"/>
<polyline points="720 530 715 530 705 530 700 530"/>
<polyline points="820 510 820 515 820 525 820 530"/>
<polyline points="800 530 800 525 800 515 800 505 800 495 805 490 815 490 820 485 820 475 820 470"/>
<polyline points="800 530 795 530 785 530 780 530"/>
<polyline points="780 510 780 515 780 525 780 530"/>
<polyline points="800 470 800 475 800 485 800 490"/>
<polyline points="820 880 815 880 805 880 800 875 800 865 795 860 785 860 780 860"/>
<polyline points="820 860 815 860 805 860 800 860"/>
<polyline points="820 860 820 865 820 875 820 880"/>
<polyline points="820 900 815 900 805 900 800 895 800 885 800 880"/>
<polyline points="780 900 785 900 795 900 800 900"/>
<polyline points="895 530 885 530 880 525 880 515 885 510 895 510 900 515 900 525 895 530"/>
<polyline points="880 530 875 530 865 530 860 530"/>
<polyline points="860 470 860 475 860 485 865 490 875 490 880 485 880 475 885 470 895 470 900 470"/>
<polyline points="860 510 860 505 860 495 860 490"/>
<polyline points="880 510 880 505 880 495 880 490"/>
<polyline points="620 570 625 570 635 570 645 570 655 570 660 570"/>
<polyline points="660 590 655 590 645 590 640 595 640 605 645 610 655 610 660 615 660 625 660 630"/>
<polyline points="660 590 660 595 660 605 660 610"/>
<polyline points="620 610 625 610 635 610 640 610"/>
<polyline points="620 630 620 625 620 615 620 610"/>
<polyline points="660 730 660 725 660 715 655 710 645 710 640 715 640 725 635 730 625 730 620 730"/>
<polyline points="640 670 635 670 625 670 620 670"/>
<polyline points="660 730 655 730 645 730 640 730"/>
<polyline points="640 690 645 690 655 690 660 695 660 705 660 710"/>
<polyline points="640 690 640 695 640 705 640 710"/>
<polyline points="660 770 660 775 660 785 655 790 645 790 640 785 640 775 635 770 625 770 620 770"/>
<polyline points="640 810 645 810 655 810 660 805 660 795 660 790"/>
<polyline points="640 830 640 825 640 815 635 810 625 810 620 805 620 795 620 790"/>
<polyline points="640 830 645 830 655 830 660 830"/>
<polyline points="640 770 645 770 655 770 660 770"/>
<polyline points="660 890 655 890 645 890 640 895 640 905 640 915 640 925 645 930 655 930 660 930"/>
<polyline points="620 910 620 905 620 895 625 890 635 890 640 890"/>
<polyline points="660 870 660 875 660 885 660 890"/>
<polyline points="660 910 655 910 645 910 640 910"/>
<polyline points="660 870 655 870 645 870 640 870"/>
<polyline points="700 630 700 625 700 615 700 605 700 595 700 585 700 575 700 570"/>
<polyline points="720 570 725 570 735 570 740 570"/>
<polyline points="720 570 720 575 720 585 720 595 720 605 720 615 720 625 715 630 705 630 700 630"/>
<polyline points="720 630 725 630 735 630 740 630"/>
<polyline points="700 590 705 590 715 590 720 590"/>
<polyline points="820 630 815 630 805 630 800 625 800 615 800 605 800 595 800 585 800 575 805 570 815 570 820 570"/>
<polyline points="820 590 815 590 805 590 800 590"/>
<polyline points="820 630 820 625 820 615 820 605 820 595 820 590"/>
<polyline points="780 570 780 575 780 585 780 590"/>
<polyline points="800 570 795 570 785 570 780 570"/>
<polyline points="880 570 875 570 865 570 860 570"/>
<polyline points="880 630 880 625 880 615 880 605 880 595 885 590 895 590 900 585 900 575 900 570"/>
<polyline points="860 610 860 605 860 595 860 590"/>
<polyline points="880 630 885 630 895 630 900 630"/>
<polyline points="880 610 885 610 895 610 900 610"/>
<polyline points="720 730 725 730 735 730 740 730"/>
<polyline points="720 730 720 725 720 715 720 705 720 695 715 690 705 690 700 685 700 675 700 670"/>
<polyline points="700 710 700 715 700 725 700 730"/>
<polyline points="740 670 740 675 740 685 740 695 740 705 740 710"/>
<polyline points="720 670 720 675 720 685 720 690"/>
<polyline points="860 900 860 895 860 885 865 880 875 880 880 885 880 895 885 900 895 900 900 895 900 885 900 880"/>
<polyline points="900 860 900 865 900 875 900 880"/>
<polyline points="900 860 895 860 885 860 880 865 880 875 880 880"/>
<polyline points="880 860 875 860 865 860 860 860"/>
<polyline points="880 900 875 900 865 900 860 900"/>
<polyline points="720 810 715 810 705 810 700 815 700 825 700 830"/>
<polyline points="720 770 720 775 720 785 725 790 735 790 740 795 740 805 735 810 725 810 720 815 720 825 720 830"/>
<polyline points="740 830 740 825 740 815 740 810"/>
<polyline points="700 790 705 790 715 790 720 790"/>
<polyline points="700 790 700 785 700 775 700 770"/>
<polyline points="700 890 705 890 715 890 725 890 735 890 740 885 740 875 740 870"/>
<polyline points="740 910 740 905 740 895 740 890"/>
<polyline points="700 890 700 885 700 875 700 870"/>
<polyline points="700 910 700 915 700 925 700 930"/>
<polyline points="740 910 735 910 725 910 715 910 705 910 700 910"/>
<polyline points="780 690 785 690 795 690 800 685 800 675 805 670 815 670 820 670"/>
<polyline points="800 670 795 670 785 670 780 670"/>
<polyline points="780 710 785 710 795 710 800 705 800 695 800 690"/>
<polyline points="820 690 820 695 820 705 815 710 805 710 800 710"/>
<polyline points="780 730 785 730 795 730 800 730"/>
</svg>