<svg viewBox="-23 -33 926 966" xmlns="http://www.w3.org/2000/svg">
<style type="text/css">
svg { stroke:black; stroke-width:2; fill:none; transform:scale(1,-1);}
</style>
<polyline points="-15 -10 -5 -10 0 -5 0 5 -5 10 -15 10 -20 5 -20 -5 -15 -10"/>
<polyline points="20 10 20 5 20 -5 15 -10 5 -10 0 -10"/>
<polyline points="20 30 15 30 5 30 -5 30 -15 30 -20 30"/>
<polyline points="20 -10 20 -15 20 -25 20 -30"/>
<polyline points="-20 -30 -15 -30 -5 -30 0 -30"/>
<polyline points="20 90 20 95 20 105 20 115 20 125 20 130"/>
<polyline points="0 130 0 125 0 115 5 110 15 110 20 110"/>
<polyline points="0 110 0 105 0 95 -5 90 -15 90 -20 85 -20 75 -20 70"/>
<polyline points="-20 90 -20 95 -20 105 -15 110 -5 110 0 110"/>
<polyline points="20 70 15 70 5 70 0 70"/>
<polyline points="-20 210 -15 210 -5 210 0 205 0 195 0 185 0 175 -5 170 -15 170 -20 170"/>
<polyline points="20 170 15 170 5 170 0 170"/>
<polyline points="-20 190 -15 190 -5 190 0 190"/>
<polyline points="20 190 20 185 20 175 20 170"/>
<polyline points="20 230 20 225 20 215 15 210 5 210 0 210"/>
<polyline points="0 330 0 325 0 315 0 305 0 295 5 290 15 290 20 295 20 305 15 310 5 310 0 310"/>
<polyline points="-20 270 -20 275 -20 285 -15 290 -5 290 0 290"/>
<polyline points="-20 270 -15 270 -5 270 0 270"/>
<polyline points="0 330 5 330 15 330 20 330"/>
<polyline points="-20 330 -15 330 -5 330 0 330"/>
<polyline points="20 390 15 390 5 390 -5 390 -15 390 -20 395 -20 405 -20 415 -20 425 -20 430"/>
<polyline points="-20 410 -15 410 -5 410 0 405 0 395 0 390"/>
<polyline points="0 430 0 425 0 415 0 410"/>
<polyline points="20 430 20 425 20 415 20 410"/>
<polyline points="-20 370 -20 375 -20 385 -20 390"/>
<polyline points="0 530 0 525 0 515 5 510 15 510 20 515 20 525 20 530"/>
<polyline points="-20 490 -20 495 -20 505 -15 510 -5 510 0 510"/>
<polyline points="-20 490 -15 490 -5 490 0 485 0 475 5 470 15 470 20 470"/>
<polyline points="-20 530 -15 530 -5 530 0 530"/>
<polyline points="20 490 20 495 20 505 20 510"/>
<polyline points="0 570 -5 570 -15 570 -20 570"/>
<polyline points="0 610 0 605 0 595 -5 590 -15 590 -20 590"/>
<polyline points="20 570 15 570 5 570 0 570"/>
<polyline points="0 590 5 590 15 590 20 595 20 605 15 610 5 610 -5 610 -15 610 -20 610"/>
<polyline points="-20 630 -15 630 -5 630 5 630 15 630 20 630"/>
<polyline points="0 670 0 675 0 685 5 690 15 690 20 685 20 675 20 670"/>
<polyline points="-20 670 -15 670 -5 670 0 670"/>
<polyline points="0 710 5 710 15 710 20 705 20 695 20 690"/>
<polyline points="0 730 0 725 0 715 -5 710 -15 710 -20 715 -20 725 -20 730"/>
<polyline points="0 730 5 730 15 730 20 730"/>
<polyline points="20 770 20 775 20 785 15 790 5 790 -5 790 -15 790 -20 795 -20 805 -20 815 -20 825 -20 830"/>
<polyline points="20 830 15 830 5 830 0 830"/>
<polyline points="20 770 15 770 5 770 -5 770 -15 770 -20 770"/>
<polyline points="0 810 5 810 15 810 20 815 20 825 20 830"/>
<polyline points="0 770 0 775 0 785 0 790"/>
<polyline points="-20 870 -20 875 -20 885 -20 895 -20 905 -20 915 -20 925 -20 930"/>
<polyline points="-20 870 -15 870 -5 870 0 875 0 885 0 895 0 905 5 910 15 910 20 915 20 925 20 930"/>
<polyline points="0 930 0 925 0 915 0 910"/>
<polyline points="0 870 5 870 15 870 20 870"/>
<polyline points="0 890 -5 890 -15 890 -20 890"/>
<polyline points="60 -30 65 -30 75 -30 80 -25 80 -15 85 -10 95 -10 100 -5 100 5 100 15 100 25 100 30"/>
<polyline points="100 -10 100 -15 100 -25 100 -30"/>
<polyline points="100 10 95 10 85 10 75 10 65 10 60 15 60 25 60 30"/>
<polyline points="80 10 80 5 80 -5 80 -10"/>
<polyline points="80 30 80 25 80 15 80 10"/>
<polyline points="100 70 95 70 85 70 75 70 65 70 60 70"/>
<polyline points="100 90 100 95 100 105 95 110 85 110 80 105 80 95 80 85 80 75 80 70"/>
<polyline points="100 130 100 125 100 115 100 110"/>
<polyline points="100 130 95 130 85 130 75 130 65 130 60 130"/>
<polyline points="80 110 75 110 65 110 60 110"/>
<polyline points="100 170 100 175 100 185 100 195 100 205 95 210 85 210 80 205 80 195 85 190 95 190 100 190"/>
<polyline points="100 210 100 215 100 225 100 230"/>
<polyline points="100 170 95 170 85 170 75 170 65 170 60 170"/>
<polyline points="80 190 80 185 80 175 80 170"/>
<polyline points="60 230 65 230 75 230 80 230"/>
<polyline points="80 290 80 295 80 305 75 310 65 310 60 305 60 295 60 285 60 275 60 270"/>
<polyline points="100 330 100 325 100 315 95 310 85 310 80 310"/>
<polyline points="80 330 75 330 65 330 60 330"/>
<polyline points="100 310 100 305 100 295 100 285 100 275 100 270"/>
<polyline points="80 430 85 430 95 430 100 430"/>
<polyline points="80 410 80 405 80 395 85 390 95 390 100 395 100 405 100 410"/>
<polyline points="80 390 80 385 80 375 75 370 65 370 60 370"/>
<polyline points="80 410 75 410 65 410 60 405 60 395 60 390"/>
<polyline points="60 430 65 430 75 430 80 430"/>
<polyline points="80 490 80 495 80 505 80 515 80 525 75 530 65 530 60 530"/>
<polyline points="80 510 85 510 95 510 100 505 100 495 95 490 85 490 75 490 65 490 60 485 60 475 60 470"/>
<polyline points="100 470 95 470 85 470 80 470"/>
<polyline points="80 510 75 510 65 510 60 510"/>
<polyline points="100 490 100 485 100 475 100 470"/>
<polyline points="60 630 60 625 60 615 60 605 60 595 65 590 75 590 80 585 80 575 85 570 95 570 100 570"/>
<polyline points="100 630 95 630 85 630 80 625 80 615 85 610 95 610 100 605 100 595 100 590"/>
<polyline points="100 630 100 625 100 615 100 610"/>
<polyline points="60 570 60 575 60 585 60 590"/>
<polyline points="80 630 75 630 65 630 60 630"/>
<polyline points="80 730 85 730 95 730 100 730"/>
<polyline points="60 690 65 690 75 690 85 690 95 690 100 685 100 675 100 670"/>
<polyline points="80 730 80 725 80 715 80 705 80 695 80 690"/>
<polyline points="80 710 85 710 95 710 100 710"/>
<polyline points="80 730 75 730 65 730 60 730"/>
<polyline points="100 790 100 795 100 805 95 810 85 810 75 810 65 810 60 815 60 825 60 830"/>
<polyline points="100 770 95 770 85 770 75 770 65 770 60 770"/>
<polyline points="100 790 100 785 100 775 100 770"/>
<polyline points="80 790 80 785 80 775 80 770"/>
<polyline points="60 810 60 805 60 795 60 790"/>
<polyline points="100 870 100 875 100 885 100 895 100 905 100 915 100 925 100 930"/>
<polyline points="100 870 95 870 85 870 75 870 65 870 60 870"/>
<polyline points="60 890 60 895 60 905 65 910 75 910 80 905 80 895 80 885 80 875 80 870"/>
<polyline points="60 910 60 915 60 925 60 930"/>
<polyline points="80 890 85 890 95 890 100 890"/>
<polyline points="140 30 145 30 155 30 160 25 160 15 155 10 145 10 140 5 140 -5 140 -15 140 -25 140 -30"/>
<polyline points="160 -10 165 -10 175 -10 180 -5 180 5 180 15 180 25 180 30"/>
<polyline points="140 -10 145 -10 155 -10 160 -15 160 -25 160 -30"/>
<polyline points="160 10 160 5 160 -5 160 -10"/>
<polyline points="180 -30 180 -25 180 -15 180 -10"/>
<polyline points="180 130 175 130 165 130 160 125 160 115 155 110 145 110 140 115 140 125 140 130"/>
<polyline points="160 105 160 95 165 90 175 90 180 95 180 105 175 110 165 110 160 105"/>
<polyline points="140 70 145 70 155 70 160 75 160 85 160 90"/>
<polyline points="140 70 140 75 140 85 140 90"/>
<polyline points="140 170 145 170 155 170 165 170 175 170 180 170"/>
<polyline points="160 230 155 230 145 230 140 230"/>
<polyline points="160 210 160 215 160 225 160 230"/>
<polyline points="180 210 180 205 180 195 180 190"/>
<polyline points="160 190 155 190 145 190 140 195 140 205 140 210"/>
<polyline points="180 290 180 285 180 275 180 270"/>
<polyline points="180 290 180 295 180 305 180 315 180 325 180 330"/>
<polyline points="180 310 175 310 165 310 155 310 145 310 140 315 140 325 140 330"/>
<polyline points="160 330 160 325 160 315 160 310"/>
<polyline points="140 290 145 290 155 290 160 285 160 275 160 270"/>
<polyline points="160 430 160 425 160 415 160 405 160 395 165 390 175 390 180 395 180 405 180 415 180 425 180 430"/>
<polyline points="140 430 145 430 155 430 160 430"/>
<polyline points="140 370 145 370 155 370 160 375 160 385 160 390"/>
<polyline points="180 390 180 385 180 375 180 370"/>
<polyline points="140 410 145 410 155 410 160 410"/>
<polyline points="140 510 140 505 140 495 140 485 140 475 140 470"/>
<polyline points="180 490 180 495 180 505 175 510 165 510 160 515 160 525 155 530 145 530 140 530"/>
<polyline points="160 530 165 530 175 530 180 530"/>
<polyline points="160 510 155 510 145 510 140 510"/>
<polyline points="160 610 155 610 145 610 140 605 140 595 145 590 155 590 160 595 160 605 165 610 175 610 180 610"/>
<polyline points="140 570 140 575 140 585 140 590"/>
<polyline points="180 590 175 590 165 590 160 590"/>
<polyline points="140 610 140 615 140 625 140 630"/>
<polyline points="180 630 175 630 165 630 155 630 145 630 140 630"/>
<polyline points="140 710 140 715 140 725 140 730"/>
<polyline points="160 670 160 675 160 685 165 690 175 690 180 685 180 675 180 670"/>
<polyline points="140 710 145 710 155 710 160 705 160 695 160 690"/>
<polyline points="160 730 160 725 160 715 160 710"/>
<polyline points="180 710 180 705 180 695 180 690"/>
<polyline points="160 810 165 810 175 810 180 815 180 825 180 830"/>
<polyline points="140 830 145 830 155 830 160 830"/>
<polyline points="180 790 180 795 180 805 180 810"/>
<polyline points="160 790 155 790 145 790 140 785 140 775 140 770"/>
<polyline points="140 790 140 795 140 805 145 810 155 810 160 810"/>
<polyline points="140 930 145 930 155 930 165 930 175 930 180 930"/>
<polyline points="160 890 165 890 175 890 180 885 180 875 180 870"/>
<polyline points="180 890 180 895 180 905 180 910"/>
<polyline points="160 870 160 875 160 885 160 895 160 905 155 910 145 910 140 905 140 895 140 885 140 875 140 870"/>
<polyline points="140 910 140 915 140 925 140 930"/>
<polyline points="220 -30 220 -25 220 -15 220 -5 220 5 220 15 220 25 220 30"/>
<polyline points="240 10 240 15 240 25 240 30"/>
<polyline points="220 10 225 10 235 10 240 5 240 -5 240 -15 240 -25 235 -30 225 -30 220 -30"/>
<polyline points="240 10 245 10 255 10 260 15 260 25 260 30"/>
<polyline points="260 -30 260 -25 260 -15 255 -10 245 -10 240 -10"/>
<polyline points="300 30 305 30 315 30 325 30 335 30 340 30"/>
<polyline points="320 -30 325 -30 335 -30 340 -30"/>
<polyline points="300 10 300 5 300 -5 305 -10 315 -10 325 -10 335 -10 340 -10"/>
<polyline points="340 10 335 10 325 10 315 10 305 10 300 10"/>
<polyline points="320 -10 320 -15 320 -25 320 -30"/>
<polyline points="400 -10 405 -10 415 -10 420 -5 420 5 420 15 420 25 420 30"/>
<polyline points="380 30 385 30 395 30 400 30"/>
<polyline points="400 5 400 -5 395 -10 385 -10 380 -5 380 5 385 10 395 10 400 5"/>
<polyline points="380 30 380 25 380 15 380 10"/>
<polyline points="380 -10 380 -15 380 -25 380 -30"/>
<polyline points="500 -10 495 -10 485 -10 480 -15 480 -25 475 -30 465 -30 460 -30"/>
<polyline points="480 30 480 25 480 15 480 5 480 -5 480 -10"/>
<polyline points="480 -30 485 -30 495 -30 500 -30"/>
<polyline points="460 30 460 25 460 15 460 5 460 -5 460 -10"/>
<polyline points="500 10 495 10 485 10 480 10"/>
<polyline points="560 30 560 25 560 15 555 10 545 10 540 15 540 25 540 30"/>
<polyline points="560 -30 560 -25 560 -15 560 -5 560 5 560 10"/>
<polyline points="540 -10 545 -10 555 -10 560 -10"/>
<polyline points="560 30 565 30 575 30 580 30"/>
<polyline points="580 -10 580 -15 580 -25 580 -30"/>
<polyline points="620 -30 625 -30 635 -30 645 -30 655 -30 660 -30"/>
<polyline points="620 -30 620 -25 620 -15 620 -5 620 5 620 15 620 25 620 30"/>
<polyline points="660 10 660 15 660 25 660 30"/>
<polyline points="640 10 635 10 625 10 620 10"/>
<polyline points="640 30 640 25 640 15 640 10"/>
<polyline points="740 30 735 30 725 30 715 30 705 30 700 30"/>
<polyline points="720 30 720 25 720 15 715 10 705 10 700 10"/>
<polyline points="740 10 735 10 725 10 720 10"/>
<polyline points="700 -10 705 -10 715 -10 725 -10 735 -10 740 -15 740 -25 740 -30"/>
<polyline points="700 -30 705 -30 715 -30 720 -30"/>
<polyline points="800 -30 805 -30 815 -30 820 -30"/>
<polyline points="780 10 785 10 795 10 800 15 800 25 795 30 785 30 780 30"/>
<polyline points="820 30 815 30 805 30 800 30"/>
<polyline points="780 10 780 5 780 -5 780 -15 780 -25 780 -30"/>
<polyline points="800 -10 805 -10 815 -10 820 -10"/>
<polyline points="860 30 860 25 860 15 865 10 875 10 885 10 895 10 900 15 900 25 900 30"/>
<polyline points="900 -30 895 -30 885 -30 875 -30 865 -30 860 -30"/>
<polyline points="880 -10 885 -10 895 -10 900 -5 900 5 900 10"/>
<polyline points="880 10 880 15 880 25 880 30"/>
<polyline points="240 70 240 75 240 85 240 95 240 105 235 110 225 110 220 105 220 95 220 85 220 75 220 70"/>
<polyline points="220 130 225 130 235 130 245 130 255 130 260 130"/>
<polyline points="240 90 235 90 225 90 220 90"/>
<polyline points="220 130 220 125 220 115 220 110"/>
<polyline points="240 130 240 125 240 115 240 110"/>
<polyline points="220 190 220 185 220 175 220 170"/>
<polyline points="260 170 255 170 245 170 240 170"/>
<polyline points="220 230 220 225 220 215 220 205 220 195 220 190"/>
<polyline points="240 230 240 225 240 215 245 210 255 210 260 205 260 195 260 185 260 175 260 170"/>
<polyline points="260 210 260 215 260 225 260 230"/>
<polyline points="220 310 220 315 220 325 220 330"/>
<polyline points="240 290 235 290 225 290 220 295 220 305 220 310"/>
<polyline points="220 270 225 270 235 270 245 270 255 270 260 270"/>
<polyline points="260 330 260 325 260 315 260 305 260 295 260 290"/>
<polyline points="220 270 220 275 220 285 220 290"/>
<polyline points="260 370 260 375 260 385 260 395 260 405 260 415 260 425 260 430"/>
<polyline points="240 370 240 375 240 385 235 390 225 390 220 385 220 375 220 370"/>
<polyline points="220 410 225 410 235 410 240 415 240 425 240 430"/>
<polyline points="220 410 220 415 220 425 220 430"/>
<polyline points="240 370 245 370 255 370 260 370"/>
<polyline points="220 490 225 490 235 490 240 495 240 505 235 510 225 510 220 515 220 525 220 530"/>
<polyline points="220 470 220 475 220 485 220 490"/>
<polyline points="260 510 260 515 260 525 260 530"/>
<polyline points="220 470 225 470 235 470 240 475 240 485 240 490"/>
<polyline points="260 470 260 475 260 485 260 490"/>
<polyline points="240 630 245 630 255 630 260 630"/>
<polyline points="260 605 260 595 255 590 245 590 240 595 240 605 245 610 255 610 260 605"/>
<polyline points="260 590 260 585 260 575 260 570"/>
<polyline points="220 570 220 575 220 585 225 590 235 590 240 590"/>
<polyline points="220 570 225 570 235 570 240 570"/>
<polyline points="240 710 240 715 240 725 245 730 255 730 260 730"/>
<polyline points="220 710 220 705 220 695 225 690 235 690 245 690 255 690 260 695 260 705 260 710"/>
<polyline points="220 670 225 670 235 670 240 675 240 685 240 690"/>
<polyline points="260 690 260 685 260 675 260 670"/>
<polyline points="240 730 235 730 225 730 220 730"/>
<polyline points="240 810 240 805 240 795 235 790 225 790 220 785 220 775 220 770"/>
<polyline points="240 830 245 830 255 830 260 830"/>
<polyline points="240 790 240 785 240 775 240 770"/>
<polyline points="240 810 245 810 255 810 260 810"/>
<polyline points="240 810 235 810 225 810 220 805 220 795 220 790"/>
<polyline points="260 930 260 925 260 915 255 910 245 910 235 910 225 910 220 905 220 895 220 885 220 875 220 870"/>
<polyline points="220 890 225 890 235 890 240 885 240 875 240 870"/>
<polyline points="240 930 245 930 255 930 260 930"/>
<polyline points="240 930 235 930 225 930 220 930"/>
<polyline points="240 890 245 890 255 890 260 895 260 905 260 910"/>
<polyline points="300 70 305 70 315 70 325 70 335 70 340 70"/>
<polyline points="320 90 320 95 320 105 320 115 320 125 315 130 305 130 300 130"/>
<polyline points="300 90 305 90 315 90 325 90 335 90 340 90"/>
<polyline points="300 90 300 85 300 75 300 70"/>
<polyline points="340 110 335 110 325 110 320 110"/>
<polyline points="400 70 395 70 385 70 380 70"/>
<polyline points="420 110 415 110 405 110 400 105 400 95 400 85 400 75 400 70"/>
<polyline points="420 90 415 90 405 90 400 90"/>
<polyline points="420 130 420 125 420 115 420 110"/>
<polyline points="400 130 395 130 385 130 380 130"/>
<polyline points="480 90 480 85 480 75 485 70 495 70 500 70"/>
<polyline points="500 90 495 90 485 90 480 95 480 105 480 115 480 125 475 130 465 130 460 130"/>
<polyline points="500 110 495 110 485 110 480 110"/>
<polyline points="480 90 475 90 465 90 460 85 460 75 460 70"/>
<polyline points="500 90 500 95 500 105 500 110"/>
<polyline points="540 75 540 85 545 90 555 90 560 85 560 75 555 70 545 70 540 75"/>
<polyline points="560 70 565 70 575 70 580 70"/>
<polyline points="560 110 560 115 560 125 565 130 575 130 580 130"/>
<polyline points="560 90 565 90 575 90 580 90"/>
<polyline points="540 110 540 115 540 125 540 130"/>
<polyline points="640 130 640 125 640 115 645 110 655 110 660 115 660 125 660 130"/>
<polyline points="620 130 620 125 620 115 625 110 635 110 640 110"/>
<polyline points="620 110 620 105 620 95 625 90 635 90 640 85 640 75 645 70 655 70 660 70"/>
<polyline points="640 90 645 90 655 90 660 90"/>
<polyline points="640 130 635 130 625 130 620 130"/>
<polyline points="720 110 715 110 705 110 700 105 700 95 700 85 700 75 700 70"/>
<polyline points="720 90 720 85 720 75 720 70"/>
<polyline points="700 90 705 90 715 90 720 95 720 105 720 115 720 125 715 130 705 130 700 130"/>
<polyline points="740 90 740 95 740 105 740 115 740 125 740 130"/>
<polyline points="740 110 735 110 725 110 720 110"/>
<polyline points="780 90 780 95 780 105 780 115 780 125 780 130"/>
<polyline points="820 90 820 85 820 75 820 70"/>
<polyline points="800 110 795 110 785 110 780 110"/>
<polyline points="780 90 785 90 795 90 805 90 815 90 820 90"/>
<polyline points="800 90 800 85 800 75 800 70"/>
<polyline points="860 110 860 115 860 125 860 130"/>
<polyline points="880 130 885 130 895 130 900 130"/>
<polyline points="880 110 885 110 895 110 900 110"/>
<polyline points="880 110 880 105 880 95 875 90 865 90 860 85 860 75 860 70"/>
<polyline points="880 110 875 110 865 110 860 110"/>
<polyline points="300 230 305 230 315 230 320 225 320 215 320 205 320 195 315 190 305 190 300 185 300 175 300 170"/>
<polyline points="340 190 335 190 325 190 320 190"/>
<polyline points="320 230 325 230 335 230 340 230"/>
<polyline points="300 190 300 195 300 205 300 215 300 225 300 230"/>
<polyline points="340 170 340 175 340 185 340 190"/>
<polyline points="340 270 335 270 325 270 315 270 305 270 300 270"/>
<polyline points="320 330 325 330 335 330 340 330"/>
<polyline points="340 290 340 295 340 305 340 310"/>
<polyline points="320 270 320 275 320 285 325 290 335 290 340 290"/>
<polyline points="340 410 340 415 340 425 340 430"/>
<polyline points="320 390 315 390 305 390 300 395 300 405 300 415 300 425 300 430"/>
<polyline points="320 370 320 375 320 385 325 390 335 390 340 395 340 405 340 410"/>
<polyline points="300 370 300 375 300 385 300 390"/>
<polyline points="300 410 305 410 315 410 320 410"/>
<polyline points="320 470 320 475 320 485 320 495 320 505 325 510 335 510 340 505 340 495 340 485 340 475 340 470"/>
<polyline points="320 470 315 470 305 470 300 470"/>
<polyline points="320 490 315 490 305 490 300 490"/>
<polyline points="340 490 335 490 325 490 320 490"/>
<polyline points="340 510 340 515 340 525 340 530"/>
<polyline points="320 610 320 605 320 595 320 585 320 575 325 570 335 570 340 570"/>
<polyline points="340 610 335 610 325 610 320 615 320 625 325 630 335 630 340 630"/>
<polyline points="300 610 300 605 300 595 305 590 315 590 320 590"/>
<polyline points="300 590 300 585 300 575 300 570"/>
<polyline points="340 590 340 595 340 605 340 610"/>
<polyline points="320 670 315 670 305 670 300 670"/>
<polyline points="340 730 340 725 340 715 340 705 340 695 335 690 325 690 315 690 305 690 300 690"/>
<polyline points="320 690 320 685 320 675 320 670"/>
<polyline points="320 710 320 705 320 695 320 690"/>
<polyline points="340 730 335 730 325 730 315 730 305 730 300 730"/>
<polyline points="300 790 300 795 300 805 300 815 300 825 300 830"/>
<polyline points="340 810 340 805 340 795 335 790 325 790 320 795 320 805 315 810 305 810 300 810"/>
<polyline points="340 790 340 785 340 775 340 770"/>
<polyline points="320 790 320 785 320 775 320 770"/>
<polyline points="320 790 315 790 305 790 300 790"/>
<polyline points="320 910 325 910 335 910 340 915 340 925 340 930"/>
<polyline points="340 890 340 895 340 905 340 910"/>
<polyline points="300 910 305 910 315 910 320 915 320 925 320 930"/>
<polyline points="305 870 315 870 320 875 320 885 315 890 305 890 300 885 300 875 305 870"/>
<polyline points="300 930 300 925 300 915 300 910"/>
<polyline points="380 210 385 210 395 210 400 215 400 225 405 230 415 230 420 230"/>
<polyline points="400 210 405 210 415 210 420 210"/>
<polyline points="420 170 415 170 405 170 400 175 400 185 395 190 385 190 380 195 380 205 380 210"/>
<polyline points="420 190 415 190 405 190 400 190"/>
<polyline points="400 170 395 170 385 170 380 170"/>
<polyline points="500 190 500 195 500 205 495 210 485 210 480 215 480 225 475 230 465 230 460 230"/>
<polyline points="480 230 485 230 495 230 500 230"/>
<polyline points="480 170 485 170 495 170 500 170"/>
<polyline points="460 210 465 210 475 210 480 210"/>
<polyline points="460 170 460 175 460 185 465 190 475 190 485 190 495 190 500 190"/>
<polyline points="580 190 580 185 580 175 580 170"/>
<polyline points="580 210 580 215 580 225 580 230"/>
<polyline points="560 170 555 170 545 170 540 170"/>
<polyline points="580 190 575 190 565 190 560 195 560 205 565 210 575 210 580 210"/>
<polyline points="560 230 560 225 560 215 560 210"/>
<polyline points="620 210 620 215 620 225 620 230"/>
<polyline points="640 230 640 225 640 215 635 210 625 210 620 210"/>
<polyline points="640 190 640 185 640 175 645 170 655 170 660 170"/>
<polyline points="640 210 645 210 655 210 660 215 660 225 660 230"/>
<polyline points="640 190 640 195 640 205 640 210"/>
<polyline points="700 170 700 175 700 185 700 195 700 205 700 215 700 225 700 230"/>
<polyline points="720 230 720 225 720 215 720 205 720 195 715 190 705 190 700 190"/>
<polyline points="720 210 715 210 705 210 700 210"/>
<polyline points="740 210 735 210 725 210 720 210"/>
<polyline points="740 190 740 195 740 205 740 210"/>
<polyline points="820 230 820 225 820 215 820 205 820 195 815 190 805 190 800 195 800 205 795 210 785 210 780 210"/>
<polyline points="820 230 815 230 805 230 800 225 800 215 800 210"/>
<polyline points="800 190 795 190 785 190 780 185 780 175 780 170"/>
<polyline points="780 190 780 195 780 205 780 210"/>
<polyline points="820 170 820 175 820 185 820 190"/>
<polyline points="880 170 885 170 895 170 900 170"/>
<polyline points="860 170 860 175 860 185 865 190 875 190 885 190 895 190 900 190"/>
<polyline points="860 230 865 230 875 230 885 230 895 230 900 230"/>
<polyline points="860 210 865 210 875 210 880 205 880 195 880 190"/>
<polyline points="900 210 895 210 885 210 880 210"/>
<polyline points="420 310 420 305 420 295 420 285 420 275 420 270"/>
<polyline points="400 290 400 295 400 305 405 310 415 310 420 310"/>
<polyline points="380 270 380 275 380 285 385 290 395 290 405 290 415 290 420 290"/>
<polyline points="380 290 380 295 380 305 385 310 395 310 400 310"/>
<polyline points="380 310 380 315 380 325 380 330"/>
<polyline points="380 370 385 370 395 370 405 370 415 370 420 370"/>
<polyline points="380 370 380 375 380 385 380 395 380 405 380 415 380 425 380 430"/>
<polyline points="420 430 420 425 420 415 415 410 405 410 400 405 400 395 405 390 415 390 420 390"/>
<polyline points="400 510 400 505 400 495 400 485 400 475 395 470 385 470 380 470"/>
<polyline points="380 530 380 525 380 515 385 510 395 510 405 510 415 510 420 515 420 525 420 530"/>
<polyline points="400 510 400 515 400 525 400 530"/>
<polyline points="420 490 420 495 420 505 420 510"/>
<polyline points="420 610 420 605 420 595 415 590 405 590 400 585 400 575 405 570 415 570 420 570"/>
<polyline points="380 630 385 630 395 630 400 625 400 615 395 610 385 610 380 605 380 595 380 585 380 575 380 570"/>
<polyline points="420 630 420 625 420 615 420 610"/>
<polyline points="420 630 415 630 405 630 400 630"/>
<polyline points="400 710 400 715 400 725 405 730 415 730 420 730"/>
<polyline points="400 710 405 710 415 710 420 710"/>
<polyline points="400 730 395 730 385 730 380 730"/>
<polyline points="420 690 420 685 420 675 420 670"/>
<polyline points="400 710 400 705 400 695 405 690 415 690 420 690"/>
<polyline points="380 770 380 775 380 785 385 790 395 790 400 795 400 805 395 810 385 810 380 815 380 825 380 830"/>
<polyline points="380 810 380 805 380 795 380 790"/>
<polyline points="400 810 400 815 400 825 400 830"/>
<polyline points="400 790 405 790 415 790 420 795 420 805 415 810 405 810 400 810"/>
<polyline points="420 770 415 770 405 770 400 775 400 785 400 790"/>
<polyline points="380 870 385 870 395 870 405 870 415 870 420 870"/>
<polyline points="420 930 415 930 405 930 400 925 400 915 400 905 400 895 395 890 385 890 380 895 380 905 380 910"/>
<polyline points="380 910 380 915 380 925 380 930"/>
<polyline points="420 910 420 905 420 895 420 890"/>
<polyline points="400 890 400 885 400 875 400 870"/>
<polyline points="460 330 460 325 460 315 460 305 460 295 465 290 475 290 485 290 495 290 500 295 500 305 500 310"/>
<polyline points="500 270 495 270 485 270 475 270 465 270 460 270"/>
<polyline points="480 290 480 295 480 305 475 310 465 310 460 310"/>
<polyline points="480 330 485 330 495 330 500 330"/>
<polyline points="580 275 580 285 575 290 565 290 560 285 560 275 565 270 575 270 580 275"/>
<polyline points="560 270 555 270 545 270 540 270"/>
<polyline points="540 290 540 295 540 305 545 310 555 310 560 315 560 325 565 330 575 330 580 330"/>
<polyline points="560 310 565 310 575 310 580 310"/>
<polyline points="620 290 620 295 620 305 625 310 635 310 640 315 640 325 635 330 625 330 620 330"/>
<polyline points="620 290 625 290 635 290 645 290 655 290 660 285 660 275 660 270"/>
<polyline points="640 330 645 330 655 330 660 330"/>
<polyline points="640 290 640 285 640 275 640 270"/>
<polyline points="660 330 660 325 660 315 655 310 645 310 640 310"/>
<polyline points="720 330 725 330 735 330 740 330"/>
<polyline points="740 270 735 270 725 270 720 275 720 285 720 295 720 305 715 310 705 310 700 315 700 325 700 330"/>
<polyline points="740 270 740 275 740 285 740 295 740 305 740 310"/>
<polyline points="700 290 700 285 700 275 700 270"/>
<polyline points="700 310 700 305 700 295 700 290"/>
<polyline points="820 330 815 330 805 330 795 330 785 330 780 330"/>
<polyline points="800 270 805 270 815 270 820 270"/>
<polyline points="800 310 795 310 785 310 780 310"/>
<polyline points="820 330 820 325 820 315 820 310"/>
<polyline points="800 290 805 290 815 290 820 290"/>
<polyline points="860 270 865 270 875 270 885 270 895 270 900 270"/>
<polyline points="900 310 900 315 900 325 900 330"/>
<polyline points="880 270 880 275 880 285 880 295 880 305 875 310 865 310 860 305 860 295 865 290 875 290 880 290"/>
<polyline points="880 310 880 315 880 325 880 330"/>
<polyline points="900 310 900 305 900 295 900 290"/>
<polyline points="500 390 500 385 500 375 500 370"/>
<polyline points="500 390 500 395 500 405 500 415 500 425 500 430"/>
<polyline points="460 410 460 405 460 395 465 390 475 390 485 390 495 390 500 390"/>
<polyline points="480 390 480 395 480 405 485 410 495 410 500 410"/>
<polyline points="480 410 475 410 465 410 460 410"/>
<polyline points="480 510 485 510 495 510 500 515 500 525 500 530"/>
<polyline points="500 510 500 505 500 495 500 485 500 475 500 470"/>
<polyline points="480 510 480 505 480 495 480 485 480 475 480 470"/>
<polyline points="460 530 465 530 475 530 480 530"/>
<polyline points="460 470 460 475 460 485 460 495 460 505 460 515 460 525 460 530"/>
<polyline points="480 570 475 570 465 570 460 570"/>
<polyline points="500 610 495 610 485 610 480 615 480 625 475 630 465 630 460 630"/>
<polyline points="500 630 500 625 500 615 500 610"/>
<polyline points="480 590 480 595 480 605 480 610"/>
<polyline points="480 570 480 575 480 585 475 590 465 590 460 590"/>
<polyline points="480 670 480 675 480 685 480 695 480 705 485 710 495 710 500 715 500 725 500 730"/>
<polyline points="460 690 460 685 460 675 460 670"/>
<polyline points="480 670 485 670 495 670 500 670"/>
<polyline points="480 690 475 690 465 690 460 690"/>
<polyline points="500 690 495 690 485 690 480 690"/>
<polyline points="460 810 460 805 460 795 460 785 460 775 460 770"/>
<polyline points="480 790 480 795 480 805 475 810 465 810 460 810"/>
<polyline points="500 830 495 830 485 830 475 830 465 830 460 830"/>
<polyline points="500 770 500 775 500 785 500 795 500 805 495 810 485 810 480 810"/>
<polyline points="500 790 495 790 485 790 475 790 465 790 460 790"/>
<polyline points="500 875 500 885 495 890 485 890 480 885 480 875 485 870 495 870 500 875"/>
<polyline points="460 930 460 925 460 915 460 905 460 895 460 885 460 875 460 870"/>
<polyline points="460 910 465 910 475 910 480 905 480 895 480 890"/>
<polyline points="460 930 465 930 475 930 480 925 480 915 480 910"/>
<polyline points="560 430 555 430 545 430 540 430"/>
<polyline points="580 410 580 405 580 395 580 385 580 375 580 370"/>
<polyline points="540 410 540 405 540 395 540 385 540 375 540 370"/>
<polyline points="580 390 575 390 565 390 560 395 560 405 555 410 545 410 540 410"/>
<polyline points="560 390 560 385 560 375 560 370"/>
<polyline points="620 390 620 385 620 375 620 370"/>
<polyline points="660 410 660 415 660 425 660 430"/>
<polyline points="620 410 620 415 620 425 620 430"/>
<polyline points="660 410 655 410 645 410 640 415 640 425 640 430"/>
<polyline points="640 410 640 405 640 395 645 390 655 390 660 395 660 405 660 410"/>
<polyline points="720 430 715 430 705 430 700 430"/>
<polyline points="700 410 705 410 715 410 725 410 735 410 740 415 740 425 740 430"/>
<polyline points="720 390 725 390 735 390 740 385 740 375 740 370"/>
<polyline points="720 430 720 425 720 415 720 410"/>
<polyline points="740 390 740 395 740 405 740 410"/>
<polyline points="820 430 820 425 820 415 820 405 820 395 820 385 820 375 820 370"/>
<polyline points="820 390 815 390 805 390 800 395 800 405 805 410 815 410 820 410"/>
<polyline points="820 430 815 430 805 430 795 430 785 430 780 430"/>
<polyline points="780 390 780 395 780 405 780 410"/>
<polyline points="780 370 785 370 795 370 800 370"/>
<polyline points="880 430 875 430 865 430 860 430"/>
<polyline points="900 430 900 425 900 415 900 405 900 395 900 385 900 375 900 370"/>
<polyline points="900 410 895 410 885 410 880 415 880 425 880 430"/>
<polyline points="860 410 860 405 860 395 860 385 860 375 860 370"/>
<polyline points="860 390 865 390 875 390 885 390 895 390 900 390"/>
<polyline points="560 530 560 525 560 515 555 510 545 510 540 515 540 525 540 530"/>
<polyline points="540 470 540 475 540 485 540 495 540 505 540 510"/>
<polyline points="560 470 555 470 545 470 540 470"/>
<polyline points="580 530 575 530 565 530 560 530"/>
<polyline points="580 530 580 525 580 515 580 505 580 495 580 485 580 475 580 470"/>
<polyline points="860 900 860 895 860 885 860 880"/>
<polyline points="880 880 885 880 895 880 900 880"/>
<polyline points="880 920 880 915 880 905 885 900 895 900 900 900"/>
<polyline points="880 920 885 920 895 920 900 920"/>
<polyline points="860 900 865 900 875 900 880 900"/>
<polyline points="580 570 580 575 580 585 580 595 580 605 575 610 565 610 560 605 560 595 555 590 545 590 540 590"/>
<polyline points="580 630 580 625 580 615 580 610"/>
<polyline points="560 570 555 570 545 570 540 570"/>
<polyline points="540 610 540 605 540 595 540 590"/>
<polyline points="540 630 545 630 555 630 565 630 575 630 580 630"/>
<polyline points="580 730 580 725 580 715 580 705 580 695 580 685 580 675 580 670"/>
<polyline points="580 690 575 690 565 690 555 690 545 690 540 685 540 675 540 670"/>
<polyline points="580 730 575 730 565 730 555 730 545 730 540 730"/>
<polyline points="560 730 560 725 560 715 555 710 545 710 540 710"/>
<polyline points="580 770 575 770 565 770 560 775 560 785 565 790 575 790 580 795 580 805 575 810 565 810 560 810"/>
<polyline points="580 810 580 815 580 825 580 830"/>
<polyline points="540 810 540 815 540 825 540 830"/>
<polyline points="560 830 565 830 575 830 580 830"/>
<polyline points="540 790 540 785 540 775 540 770"/>
<polyline points="580 930 580 925 580 915 575 910 565 910 560 905 560 895 565 890 575 890 580 885 580 875 580 870"/>
<polyline points="540 870 545 870 555 870 560 870"/>
<polyline points="540 910 540 915 540 925 540 930"/>
<polyline points="540 870 540 875 540 885 540 895 540 905 540 910"/>
<polyline points="560 890 555 890 545 890 540 890"/>
<polyline points="620 530 620 525 620 515 625 510 635 510 640 505 640 495 640 485 640 475 645 470 655 470 660 470"/>
<polyline points="620 510 620 505 620 495 620 485 620 475 620 470"/>
<polyline points="620 490 625 490 635 490 640 490"/>
<polyline points="620 530 625 530 635 530 640 530"/>
<polyline points="700 530 700 525 700 515 705 510 715 510 720 505 720 495 715 490 705 490 700 485 700 475 700 470"/>
<polyline points="740 510 740 505 740 495 740 485 740 475 740 470"/>
<polyline points="700 490 700 495 700 505 700 510"/>
<polyline points="720 490 725 490 735 490 740 490"/>
<polyline points="720 530 725 530 735 530 740 530"/>
<polyline points="780 510 780 505 780 495 785 490 795 490 805 490 815 490 820 485 820 475 820 470"/>
<polyline points="780 530 780 525 780 515 780 510"/>
<polyline points="800 530 805 530 815 530 820 530"/>
<polyline points="820 490 820 495 820 505 820 510"/>
<polyline points="780 470 785 470 795 470 800 470"/>
<polyline points="860 470 860 475 860 485 860 495 860 505 865 510 875 510 880 505 880 495 885 490 895 490 900 490"/>
<polyline points="900 470 900 475 900 485 900 490"/>
<polyline points="900 530 895 530 885 530 880 525 880 515 880 510"/>
<polyline points="900 510 900 515 900 525 900 530"/>
<polyline points="860 510 860 515 860 525 860 530"/>
<polyline points="660 570 655 570 645 570 635 570 625 570 620 570"/>
<polyline points="660 630 660 625 660 615 660 605 660 595 655 590 645 590 640 585 640 575 640 570"/>
<polyline points="640 590 640 595 640 605 635 610 625 610 620 605 620 595 620 590"/>
<polyline points="620 610 620 615 620 625 620 630"/>
<polyline points="620 710 620 715 620 725 620 730"/>
<polyline points="620 710 620 705 620 695 625 690 635 690 640 685 640 675 635 670 625 670 620 670"/>
<polyline points="660 690 660 695 660 705 660 715 660 725 660 730"/>
<polyline points="660 670 655 670 645 670 640 670"/>
<polyline points="660 690 655 690 645 690 640 690"/>
<polyline points="660 790 660 795 660 805 660 815 660 825 660 830"/>
<polyline points="640 830 635 830 625 830 620 830"/>
<polyline points="620 810 625 810 635 810 640 815 640 825 640 830"/>
<polyline points="620 810 620 805 620 795 620 785 620 775 620 770"/>
<polyline points="660 790 655 790 645 790 640 785 640 775 640 770"/>
<polyline points="620 890 620 895 620 905 625 910 635 910 640 905 640 895 645 890 655 890 660 895 660 905 660 910"/>
<polyline points="620 890 620 885 620 875 620 870"/>
<polyline points="660 870 660 875 660 885 660 890"/>
<polyline points="620 930 620 925 620 915 620 910"/>
<polyline points="640 870 640 875 640 885 640 890"/>
<polyline points="720 610 720 615 720 625 725 630 735 630 740 630"/>
<polyline points="700 590 700 585 700 575 700 570"/>
<polyline points="700 630 705 630 715 630 720 630"/>
<polyline points="740 570 735 570 725 570 720 570"/>
<polyline points="740 610 740 605 740 595 735 590 725 590 715 590 705 590 700 590"/>
<polyline points="800 630 805 630 815 630 820 630"/>
<polyline points="800 630 800 625 800 615 805 610 815 610 820 610"/>
<polyline points="780 570 785 570 795 570 800 575 800 585 795 590 785 590 780 595 780 605 780 615 780 625 780 630"/>
<polyline points="780 570 780 575 780 585 780 590"/>
<polyline points="900 630 900 625 900 615 900 605 900 595 900 585 900 575 900 570"/>
<polyline points="860 610 860 605 860 595 860 585 860 575 860 570"/>
<polyline points="860 590 865 590 875 590 885 590 895 590 900 590"/>
<polyline points="860 610 860 615 860 625 860 630"/>
<polyline points="880 610 875 610 865 610 860 610"/>
<polyline points="700 730 700 725 700 715 700 705 700 695 705 690 715 690 720 685 720 675 715 670 705 670 700 670"/>
<polyline points="720 730 720 725 720 715 725 710 735 710 740 705 740 695 735 690 725 690 720 690"/>
<polyline points="740 690 740 685 740 675 740 670"/>
<polyline points="700 710 705 710 715 710 720 710"/>
<polyline points="700 810 700 805 700 795 700 785 700 775 700 770"/>
<polyline points="720 810 720 805 720 795 715 790 705 790 700 790"/>
<polyline points="720 810 720 815 720 825 725 830 735 830 740 830"/>
<polyline points="700 810 705 810 715 810 720 810"/>
<polyline points="740 770 735 770 725 770 720 770"/>
<polyline points="740 890 740 895 740 905 740 915 740 925 740 930"/>
<polyline points="700 930 705 930 715 930 720 930"/>
<polyline points="700 890 700 895 700 905 700 915 700 925 700 930"/>
<polyline points="720 870 720 875 720 885 725 890 735 890 740 890"/>
<polyline points="740 870 735 870 725 870 720 870"/>
<polyline points="820 670 820 675 820 685 820 695 820 705 820 715 820 725 820 730"/>
<polyline points="820 710 815 710 805 710 795 710 785 710 780 705 780 695 785 690 795 690 800 685 800 675 800 670"/>
<polyline points="800 730 795 730 785 730 780 730"/>
<polyline points="800 710 800 705 800 695 800 690"/>
<polyline points="820 670 815 670 805 670 800 670"/>
<polyline points="880 730 875 730 865 730 860 730"/>
<polyline points="880 710 880 715 880 725 880 730"/>
<polyline points="900 730 900 725 900 715 900 705 900 695 895 690 885 690 880 685 880 675 885 670 895 670 900 670"/>
<polyline points="900 710 895 710 885 710 880 710"/>
<polyline points="860 670 865 670 875 670 880 670"/>
<polyline points="780 790 785 790 795 790 805 790 815 790 820 795 820 805 820 815 820 825 820 830"/>
<polyline points="780 790 780 785 780 775 780 770"/>
<polyline points="800 790 800 795 800 805 795 810 785 810 780 805 780 795 780 790"/>
<polyline points="820 790 820 785 820 775 820 770"/>
<polyline points="800 770 800 775 800 785 800 790"/>
<polyline points="780 890 780 885 780 875 780 870"/>
<polyline points="820 910 820 915 820 925 820 930"/>
<polyline points="780 930 780 925 780 915 785 910 795 910 800 905 800 895 805 890 815 890 820 895 820 905 820 910"/>
<polyline points="800 930 800 925 800 915 800 910"/>
<polyline points="820 870 815 870 805 870 800 870"/>
<polyline points="860 830 860 825 860 815 860 805 860 795 860 785 860 775 860 770"/>
<polyline points="880 810 880 815 880 825 885 830 895 830 900 830"/>
<polyline points="880 830 875 830 865 830 860 830"/>
<polyline points="880 770 880 775 880 785 875 790 865 790 860 790"/>
<polyline points="880 790 885 790 895 790 900 795 900 805 900 810"/>
</svg>