<svg viewBox="-33 -33 966 986" xmlns="http://www.w3.org/2000/svg">
<style>
svg { stroke:black; stroke-width:2; fill:none;}
</style>
<polyline points="-30 30 -10 30 10 30 30 30"/>
<polyline points="-10 30 10 10 30 10 10 30"/>
<polyline points="30 -30 10 -30 -10 -30 -30 -30"/>
<polyline points="10 -10 30 -10 -30 -10 -10 -30"/>
<polyline points="90 -30 70 -30"/>
<polyline points="130 -10 110 -10 130 -30"/>
<polyline points="130 10 110 10 90 30 110 30 130 30"/>
<polyline points="110 30 130 10"/>
<polyline points="170 30 190 10 210 10 190 30 210 30 230 10"/>
<polyline points="210 30 230 30"/>
<polyline points="210 -30 190 -30 170 -30"/>
<polyline points="170 10 190 -10 170 -10 230 -10 210 -10 190 -10"/>
<polyline points="310 10 330 10 270 10 290 10 310 -10 330 -30"/>
<polyline points="310 10 290 30 270 30 330 30"/>
<polyline points="270 30 290 10"/>
<polyline points="310 30 330 10"/>
<polyline points="430 -10 410 -10 390 -10 370 10 390 10 410 10"/>
<polyline points="410 -10 430 -30 410 -30 390 -10"/>
<polyline points="430 30 370 30 390 10"/>
<polyline points="370 10 430 10 410 10 390 30 370 30"/>
<polyline points="510 30 530 10 510 10 490 10 510 -10 530 -30"/>
<polyline points="510 30 530 30"/>
<polyline points="490 -10 470 -10 530 -10 510 10"/>
<polyline points="510 -10 490 -10 470 10 530 10"/>
<polyline points="890 620 910 600 890 600 910 580 890 580 870 600"/>
<polyline points="870 580 890 580"/>
<polyline points="930 580 870 580"/>
<polyline points="930 620 870 620 890 600"/>
<polyline points="630 30 610 30 630 10 610 10 590 10 570 10"/>
<polyline points="630 -30 570 -30"/>
<polyline points="630 10 570 10"/>
<polyline points="610 30 590 30 570 30 630 30"/>
<polyline points="690 -10 710 -10 730 -30 710 -30 690 -30 670 -30"/>
<polyline points="670 10 690 10 670 30 690 30 710 30 730 10"/>
<polyline points="670 30 730 30"/>
<polyline points="810 -30 830 -30 770 -30"/>
<polyline points="770 -10 830 -10 810 -10 790 10 770 10 790 -10"/>
<polyline points="770 10 830 10 810 30 790 30 770 30 830 30"/>
<polyline points="930 30 870 30 890 30 910 10 930 -10 870 -10"/>
<polyline points="910 -30 930 -30 870 -30"/>
<polyline points="870 -10 890 -10 910 -10 930 -10"/>
<polyline points="930 30 910 30 890 30"/>
<polyline points="10 90 30 90 -30 90 -10 70 10 70 -10 90"/>
<polyline points="30 130 -30 130 -10 110 10 110 30 90"/>
<polyline points="10 70 30 70 10 90 -10 110"/>
<polyline points="-30 90 -10 90 -30 110"/>
<polyline points="30 190 -30 190 -10 170 -30 170"/>
<polyline points="-30 230 -10 210 -30 210 -10 190 10 190 -10 210"/>
<polyline points="30 210 10 230 -10 230 -30 230"/>
<polyline points="30 210 -30 210"/>
<polyline points="-10 290 -30 310 -10 310 -30 330 -10 330 10 310"/>
<polyline points="30 310 10 310 30 290 10 290 -10 310"/>
<polyline points="30 270 -30 270"/>
<polyline points="30 310 10 330 30 330"/>
<polyline points="-10 410 -30 430 30 430"/>
<polyline points="10 370 -10 370 -30 370"/>
<polyline points="-30 430 -10 430"/>
<polyline points="10 410 -10 430"/>
<polyline points="-30 470 30 470 10 490 -10 510 10 510 30 510"/>
<polyline points="-10 510 -30 510 -10 490 10 470 30 470"/>
<polyline points="10 510 -10 530 10 530 30 530"/>
<polyline points="-30 490 30 490 10 510"/>
<polyline points="30 630 -30 630 -10 610 10 610 30 590 -30 590"/>
<polyline points="10 590 30 570 -30 570"/>
<polyline points="10 610 -10 630 -30 630"/>
<polyline points="-30 610 -10 610"/>
<polyline points="30 730 -30 730 -10 730 10 710 30 710 10 730"/>
<polyline points="-10 690 10 690 30 670 10 670 -10 670 -30 670"/>
<polyline points="10 710 30 690 10 690"/>
<polyline points="10 830 30 830"/>
<polyline points="30 790 10 810 30 810 -30 810 -10 790 10 790"/>
<polyline points="-10 790 10 770 30 770 -30 770"/>
<polyline points="10 770 -10 770"/>
<polyline points="10 910 -10 910 10 890 30 870 -30 870"/>
<polyline points="-30 930 -10 930 10 910 30 890 -30 890 -10 890"/>
<polyline points="10 930 30 910 -30 910 -10 910"/>
<polyline points="10 890 -10 890 10 870 -10 870"/>
<polyline points="630 720 570 720 590 700 610 700 630 680 610 680"/>
<polyline points="610 680 590 700"/>
<polyline points="590 720 570 720"/>
<polyline points="570 680 630 680"/>
<polyline points="130 130 110 130 130 110 110 110 90 130 110 130"/>
<polyline points="110 110 130 90 70 90 90 90 70 110 130 110"/>
<polyline points="130 70 110 70 90 70 70 90"/>
<polyline points="110 70 90 90"/>
<polyline points="590 800 570 800 630 800"/>
<polyline points="610 800 590 800"/>
<polyline points="570 800 590 780 570 780 630 780 610 780 590 780"/>
<polyline points="570 760 630 760 610 780"/>
<polyline points="590 860 610 860 630 840 610 840 590 860 570 860"/>
<polyline points="630 880 610 880 590 880 610 860"/>
<polyline points="590 860 570 880 590 880"/>
<polyline points="590 840 610 840"/>
<polyline points="170 90 190 70 170 70"/>
<polyline points="210 130 230 130"/>
<polyline points="230 90 210 90 230 70"/>
<polyline points="210 90 190 90 170 90"/>
<polyline points="730 700 710 720 730 720"/>
<polyline points="690 700 710 700 730 700"/>
<polyline points="670 680 690 680 710 680 690 700 670 700"/>
<polyline points="690 700 670 720"/>
<polyline points="330 110 310 130 330 130"/>
<polyline points="310 90 330 70 310 70 290 70 270 90 330 90"/>
<polyline points="270 130 290 130 310 110 330 90"/>
<polyline points="290 90 270 110 330 110"/>
<polyline points="390 70 370 70"/>
<polyline points="370 90 430 90 410 110 430 110 410 130 430 130"/>
<polyline points="410 70 430 70"/>
<polyline points="370 130 390 130 410 110"/>
<polyline points="530 90 510 90 530 70 470 70"/>
<polyline points="490 110 510 110 530 90"/>
<polyline points="490 130 470 130 530 130"/>
<polyline points="510 90 490 110 470 110 530 110 510 110"/>
<polyline points="610 70 630 70 610 90 590 90 610 70"/>
<polyline points="610 130 630 110 570 110 590 90"/>
<polyline points="570 110 590 110 610 110 590 130 570 130 630 130"/>
<polyline points="630 110 610 110"/>
<polyline points="670 130 690 130 710 110 730 110 710 130 690 130"/>
<polyline points="670 130 730 130"/>
<polyline points="670 70 690 70 670 90 690 90 710 90 690 110"/>
<polyline points="670 70 730 70 710 70 690 90"/>
<polyline points="790 130 810 130 830 110 770 110 790 90 810 90"/>
<polyline points="770 70 790 70 770 90 830 90 810 90 830 70"/>
<polyline points="810 130 830 130"/>
<polyline points="770 110 790 110 810 90"/>
<polyline points="930 70 870 70"/>
<polyline points="890 70 870 90 930 90 910 90 890 110 870 110"/>
<polyline points="910 90 930 70"/>
<polyline points="870 110 930 110 910 110 890 130 910 130 930 130"/>
<polyline points="90 170 70 170"/>
<polyline points="70 210 90 190 70 190 130 190 110 190 90 210"/>
<polyline points="130 230 70 230 90 230 110 230 130 210 110 210"/>
<polyline points="130 230 110 230"/>
<polyline points="110 270 90 290 110 290 130 270 70 270"/>
<polyline points="70 330 90 310 110 290"/>
<polyline points="130 330 110 330 130 310 110 310 130 290"/>
<polyline points="90 270 110 270"/>
<polyline points="90 410 110 410 90 430 110 430 130 430"/>
<polyline points="130 410 70 410 90 410 110 390 130 370 110 370"/>
<polyline points="70 370 90 370 70 390 130 390 110 410"/>
<polyline points="130 370 70 370"/>
<polyline points="110 490 130 490 110 510 130 510 70 510 90 490"/>
<polyline points="90 530 110 510"/>
<polyline points="110 490 130 470 70 470"/>
<polyline points="130 490 70 490 90 490 110 470 90 470"/>
<polyline points="130 570 110 570 90 590 110 590 130 590 70 590"/>
<polyline points="110 630 130 610 70 610 90 610 110 590"/>
<polyline points="70 610 90 590"/>
<polyline points="110 570 90 570 70 590"/>
<polyline points="90 690 110 670 130 670 70 670"/>
<polyline points="110 710 90 730 70 730 130 730"/>
<polyline points="70 710 90 690 110 690 130 690 70 690 90 670"/>
<polyline points="70 710 130 710 110 730"/>
<polyline points="90 810 110 790 90 790 70 790 130 790 110 790"/>
<polyline points="70 790 90 770 110 770 90 790"/>
<polyline points="90 810 70 830 90 830 110 830 130 830"/>
<polyline points="70 810 90 810"/>
<polyline points="70 910 130 910 110 930 90 930 70 930 90 910"/>
<polyline points="130 890 110 890 90 890 110 870 90 870 70 870"/>
<polyline points="130 870 110 870"/>
<polyline points="70 910 90 910 110 910 130 910"/>
<polyline points="790 720 770 720 830 720"/>
<polyline points="790 680 770 700 830 700 810 720"/>
<polyline points="770 700 790 700 770 720"/>
<polyline points="810 700 790 700"/>
<polyline points="230 170 170 170"/>
<polyline points="230 230 170 230 190 210 170 210 190 190 210 190"/>
<polyline points="190 210 210 190 230 190 170 190 190 190"/>
<polyline points="170 190 190 170"/>
<polyline points="330 230 270 230 290 230 310 210 290 210 310 190"/>
<polyline points="330 190 310 190 290 190 310 170 330 170 270 170"/>
<polyline points="290 170 270 190 290 190"/>
<polyline points="270 190 330 190"/>
<polyline points="930 720 870 720 890 700 910 700 930 680 910 680"/>
<polyline points="870 700 890 700"/>
<polyline points="890 720 910 720 930 700 870 700"/>
<polyline points="870 720 890 720"/>
<polyline points="370 170 390 170 410 170 430 170 410 190 390 190"/>
<polyline points="430 210 410 230 430 230"/>
<polyline points="410 210 390 230 370 230"/>
<polyline points="390 190 370 190 430 190 410 190"/>
<polyline points="530 170 470 170"/>
<polyline points="470 190 490 190 470 210 530 210 510 230 530 230"/>
<polyline points="470 190 530 190 510 190 530 170"/>
<polyline points="510 190 490 210 470 210"/>
<polyline points="630 210 610 230 590 230 570 230 590 210 610 190"/>
<polyline points="630 170 570 170"/>
<polyline points="590 210 610 210 630 190 610 190 630 170"/>
<polyline points="630 210 570 210 590 210"/>
<polyline points="670 170 690 170 710 170 730 170 670 170"/>
<polyline points="690 190 710 170"/>
<polyline points="730 230 710 230 690 230 670 230 730 230"/>
<polyline points="690 190 710 190 690 210 710 210 690 230"/>
<polyline points="810 190 790 190 810 170 790 170 770 190 790 190"/>
<polyline points="770 210 790 210 810 190 830 190 810 210 790 230"/>
<polyline points="810 170 830 170 810 190"/>
<polyline points="770 190 830 190"/>
<polyline points="870 230 890 210 910 190 890 190 910 170 890 170"/>
<polyline points="870 230 930 230"/>
<polyline points="890 230 870 230"/>
<polyline points="890 210 910 210 930 190 910 190"/>
<polyline points="210 330 230 330"/>
<polyline points="210 310 230 310 170 310 190 310 210 310 230 290"/>
<polyline points="230 290 170 290 190 270 210 270 190 290 210 290"/>
<polyline points="190 290 170 290"/>
<polyline points="170 390 230 390 210 410 190 430 210 430 230 410"/>
<polyline points="230 390 210 390 190 410 210 410"/>
<polyline points="210 370 190 370 170 370"/>
<polyline points="170 430 230 430"/>
<polyline points="210 510 230 510 170 510 190 510 210 510 230 490"/>
<polyline points="170 470 190 470 210 470 190 490 170 490 190 470"/>
<polyline points="210 510 190 530 170 530 190 510"/>
<polyline points="230 510 210 530 190 530"/>
<polyline points="170 630 190 610 210 610 190 630 210 630 230 630"/>
<polyline points="190 630 170 630"/>
<polyline points="210 630 230 610 170 610 190 610"/>
<polyline points="230 590 210 590 190 590 210 570 190 570 170 590"/>
<polyline points="230 730 210 730 190 730 170 730 230 730"/>
<polyline points="190 670 170 670"/>
<polyline points="210 690 190 710 210 710 230 710 210 730"/>
<polyline points="210 670 230 670"/>
<polyline points="230 790 210 810 190 830 210 830 230 810 210 810"/>
<polyline points="170 810 230 810"/>
<polyline points="190 770 170 770"/>
<polyline points="230 830 170 830 190 830"/>
<polyline points="190 910 170 910 230 910 210 910 190 930 170 930"/>
<polyline points="210 930 190 930"/>
<polyline points="210 890 230 870 170 870"/>
<polyline points="230 870 210 870 190 870"/>
<polyline points="330 270 310 290 290 290 270 310 330 310 310 310"/>
<polyline points="270 290 290 290"/>
<polyline points="290 330 310 330 330 310"/>
<polyline points="290 270 310 270"/>
<polyline points="430 330 370 330 390 330 410 310 430 310 410 330"/>
<polyline points="430 290 410 310"/>
<polyline points="370 310 390 310 370 330"/>
<polyline points="370 270 430 270 410 270 390 270 370 290 430 290"/>
<polyline points="510 270 530 270 510 290 530 290 510 310 530 310"/>
<polyline points="530 270 470 270"/>
<polyline points="490 330 470 330 530 330"/>
<polyline points="470 310 490 310 470 330"/>
<polyline points="570 330 590 310 610 310 630 290 570 290 590 270"/>
<polyline points="570 270 590 270"/>
<polyline points="570 290 590 290 570 310 590 310"/>
<polyline points="590 330 570 330"/>
<polyline points="670 330 690 330 710 310 690 310 670 330"/>
<polyline points="690 290 670 290 690 270 710 270 690 290 670 310"/>
<polyline points="730 330 710 330"/>
<polyline points="730 310 670 310"/>
<polyline points="810 270 790 270 770 270"/>
<polyline points="830 270 810 290 790 290 770 310 830 310 810 310"/>
<polyline points="810 290 830 290 770 290 790 270"/>
<polyline points="790 330 810 330 830 330"/>
<polyline points="930 290 910 290 890 310 870 310 930 310 910 330"/>
<polyline points="890 330 910 310 890 310"/>
<polyline points="890 270 910 270 890 290 870 290 890 270"/>
<polyline points="910 290 890 290"/>
<polyline points="330 410 270 410 290 390 310 370 330 370 310 390"/>
<polyline points="330 410 310 430 330 430"/>
<polyline points="330 370 270 370"/>
<polyline points="270 390 330 390 310 410 330 410"/>
<polyline points="310 530 330 510 270 510 290 510 270 530 330 530"/>
<polyline points="330 470 310 470 290 470 270 470"/>
<polyline points="310 510 290 510"/>
<polyline points="330 510 310 510 290 530 270 530"/>
<polyline points="710 780 690 800 710 800 730 800"/>
<polyline points="730 760 710 760 690 780 670 800"/>
<polyline points="710 800 730 780 710 780 690 780"/>
<polyline points="710 780 730 760"/>
<polyline points="310 630 330 630"/>
<polyline points="330 570 310 570 290 570 270 590 330 590 310 590"/>
<polyline points="290 570 270 570"/>
<polyline points="310 570 290 590 310 590 330 570"/>
<polyline points="670 880 690 860 670 860 730 860 710 860 730 840"/>
<polyline points="730 860 710 880 690 880 670 880"/>
<polyline points="710 840 730 840"/>
<polyline points="730 880 710 880"/>
<polyline points="330 730 310 730 290 730 270 730 290 710 310 710"/>
<polyline points="290 690 270 710 290 710"/>
<polyline points="270 690 290 690 310 690 330 670 270 670"/>
<polyline points="330 670 310 670 290 670"/>
<polyline points="290 810 310 790 330 770 270 770"/>
<polyline points="330 810 310 810 290 810 270 830 290 830 310 810"/>
<polyline points="270 790 290 790 270 810 290 810"/>
<polyline points="270 830 330 830"/>
<polyline points="330 890 270 890 290 870 310 870 330 870 270 870"/>
<polyline points="290 910 270 930 290 930 310 930 330 910 310 910"/>
<polyline points="330 910 270 910 290 910 310 890 290 890 270 890"/>
<polyline points="290 930 310 910 290 910"/>
<polyline points="830 780 810 800 830 800"/>
<polyline points="830 780 770 780 790 780 810 760 830 760 770 760"/>
<polyline points="830 760 810 780 790 780"/>
<polyline points="790 760 810 760"/>
<polyline points="430 370 370 370"/>
<polyline points="410 430 430 410 370 410 390 410 370 430 430 430"/>
<polyline points="410 430 390 430"/>
<polyline points="430 410 410 410 430 390 370 390 390 390 370 410"/>
<polyline points="470 410 490 390 510 370 530 370 510 390 490 410"/>
<polyline points="470 390 490 370 510 370"/>
<polyline points="530 410 510 430 530 430"/>
<polyline points="490 430 510 430"/>
<polyline points="630 430 570 430 590 430 610 430 630 410 610 410"/>
<polyline points="630 370 610 370 590 370 570 390 630 390 610 410"/>
<polyline points="570 390 590 390 610 370"/>
<polyline points="630 390 610 390 590 390"/>
<polyline points="730 390 710 410 690 430 670 430 730 430"/>
<polyline points="690 370 670 370"/>
<polyline points="730 410 710 430"/>
<polyline points="690 390 710 370 690 370"/>
<polyline points="790 390 810 370 790 370 770 390 790 390 810 390"/>
<polyline points="770 410 830 410 810 410 790 430 770 430 830 430"/>
<polyline points="830 370 810 370"/>
<polyline points="770 390 830 390 810 390 830 370"/>
<polyline points="910 390 930 390 870 390 890 390 910 390 930 370"/>
<polyline points="890 410 870 430 930 430"/>
<polyline points="870 390 890 370 870 370"/>
<polyline points="870 430 890 430 910 410 930 390"/>
<polyline points="430 470 370 470"/>
<polyline points="410 490 430 470"/>
<polyline points="430 490 370 490 390 490 410 490 430 490"/>
<polyline points="430 530 410 530 430 510 370 510 390 490"/>
<polyline points="430 590 370 590 390 570 370 570"/>
<polyline points="390 570 410 570 390 590 370 610 390 610 410 590"/>
<polyline points="390 630 410 630 430 630"/>
<polyline points="430 570 410 590 390 590"/>
<polyline points="390 690 370 710 430 710 410 730 390 730 370 730"/>
<polyline points="410 710 430 710"/>
<polyline points="430 730 370 730"/>
<polyline points="430 670 410 670 390 690 410 690 430 690 410 710"/>
<polyline points="410 790 390 810 370 810 390 790 410 770 390 770"/>
<polyline points="370 770 430 770 410 770"/>
<polyline points="390 830 370 830 430 830"/>
<polyline points="370 810 430 810 410 830"/>
<polyline points="890 780 870 800 930 800"/>
<polyline points="910 780 930 780 910 800"/>
<polyline points="930 760 910 760 890 780 910 780 930 760"/>
<polyline points="890 800 870 800"/>
<polyline points="370 930 390 910 410 910 430 910 370 910 390 890"/>
<polyline points="390 910 410 890 390 890 370 890 390 870 410 870"/>
<polyline points="410 870 390 890"/>
<polyline points="390 930 410 910"/>
<polyline points="510 470 530 470 470 470"/>
<polyline points="510 470 490 470"/>
<polyline points="510 510 490 530 470 530 530 530"/>
<polyline points="490 530 510 530"/>
<polyline points="610 490 630 470 570 470"/>
<polyline points="610 490 630 490 610 510 590 530 610 530 630 530"/>
<polyline points="630 510 610 530"/>
<polyline points="590 530 570 530"/>
<polyline points="730 530 710 530 730 510 710 510 730 490 670 490"/>
<polyline points="670 470 690 470 710 470 690 490 710 490 730 490"/>
<polyline points="730 510 670 510 690 510 710 510"/>
<polyline points="690 470 670 490"/>
<polyline points="810 950 830 930 770 930 790 930 770 950 790 950"/>
<polyline points="830 930 810 930 790 930"/>
<polyline points="790 950 810 930"/>
<polyline points="770 950 830 950"/>
<polyline points="830 530 810 530 830 510 770 510 790 510 810 510"/>
<polyline points="810 470 790 470 770 490 790 490 810 490 830 470"/>
<polyline points="810 510 790 530 810 530"/>
<polyline points="810 470 830 470"/>
<polyline points="890 470 870 490 930 490 910 490 930 470 910 470"/>
<polyline points="870 530 890 530 910 530 930 530"/>
<polyline points="870 490 890 490 910 490"/>
<polyline points="870 470 930 470"/>
<polyline points="470 630 490 630 510 630 530 610 510 610 490 630"/>
<polyline points="510 570 490 570 470 590 530 590 510 590 490 610"/>
<polyline points="470 590 490 590 510 590"/>
<polyline points="530 590 510 610"/>
<polyline points="490 710 510 690 490 690 510 670 490 670 470 690"/>
<polyline points="530 730 510 730 490 730 510 710 530 690 510 690"/>
<polyline points="470 710 530 710 510 710"/>
<polyline points="490 690 470 690"/>
<polyline points="830 880 810 880 830 860 810 860 830 840 810 840"/>
<polyline points="770 860 830 860"/>
<polyline points="770 860 790 860 770 880 830 880"/>
<polyline points="790 840 770 860"/>
<polyline points="530 830 510 830 490 830 510 810 530 810 470 810"/>
<polyline points="530 810 510 830"/>
<polyline points="490 790 510 790 530 770 470 770"/>
<polyline points="470 790 490 770"/>
<polyline points="470 890 530 890 510 890 530 870 510 870 490 870"/>
<polyline points="470 910 490 910 510 910 530 910 510 930 490 930"/>
<polyline points="470 870 490 870"/>
<polyline points="510 890 490 910"/>
<polyline points="570 590 630 590 610 590 630 570 610 570 590 570"/>
<polyline points="570 610 630 610 610 630 630 630"/>
<polyline points="610 630 590 630 570 630"/>
<polyline points="610 570 590 590 610 590"/>
<polyline points="690 570 710 570 690 590 670 610 730 610 710 630"/>
<polyline points="670 590 690 570"/>
<polyline points="710 570 730 570 710 590 730 590 710 610 690 610"/>
<polyline points="690 590 710 590"/>
<polyline points="770 630 790 610 810 590 790 590 810 570 790 570"/>
<polyline points="790 570 770 590 790 590"/>
<polyline points="830 630 770 630"/>
<polyline points="810 590 830 590 810 610 830 610 770 610"/>
</svg>