<svg baseProfile="full" fill-opacity="0.0" height="100%" stroke="black" stroke-width="1" version="1.1" viewBox="-69.39548365714516,-50.13542971151671,135.25483723681623,115.09802867699291" width="100%" xmlns="http://www.w3.org/2000/svg" xmlns:ev="http://www.w3.org/2001/xml-events" xmlns:xlink="http://www.w3.org/1999/xlink"><defs /><polyline points="56.02391474699134,16.61805542729846 65.85935357967108,14.81136149400052" /><polyline points="49.71073877924843,8.862811446590097 56.02391474699134,16.61805542729846" /><polyline points="39.95536510003697,6.664474716480671 49.71073877924843,8.862811446590097" /><polyline points="48.47983462897083,19.85959266383356 42.94896440699084,28.19082754154617" /><polyline points="39.01894158461049,16.62053372593598 48.47983462897083,19.85959266383356" /><polyline points="31.05727318570553,2.101146952215923 36.82320130655598,-6.069169620915504" /><polyline points="39.95536510003697,6.664474716480671 31.05727318570553,2.101146952215923" /><polyline points="39.01894158461049,16.62053372593598 39.95536510003697,6.664474716480671" /><polyline points="29.22820625563145,18.65560171445177 39.01894158461049,16.62053372593598" /><polyline points="19.30163440921417,19.86521792545256 29.22820625563145,18.65560171445177" /><polyline points="20.00770402728511,6.145315183901243 28.78384146103674,10.93899975257109" /><polyline points="14.14240067141251,-1.953957409584516 20.00770402728511,6.145315183901243" /><polyline points="31.63386832449956,35.38440521832363 24.91163280306882,42.78788747969326" /><polyline points="24.42683193223503,28.4519722802726 31.63386832449956,35.38440521832363" /><polyline points="6.92965343619105,-40.16238808424199 16.90852009647389,-40.81217279958675" /><polyline points="14.14240067141251,-1.953957409584516 16.79886909637969,-11.59466150768608" /><polyline points="14.14240067141251,-1.953957409584516 16.3406294644693,-11.70935541137696" /><polyline points="24.42683193223503,28.4519722802726 14.63398891022125,26.42707091324355" /><polyline points="19.30163440921417,19.86521792545256 24.42683193223503,28.4519722802726" /><polyline points="9.884915869289784,16.49989298722679 19.30163440921417,19.86521792545256" /><polyline points="2.591531148921077,9.6583625063554 9.884915869289784,16.49989298722679" /><polyline points="3.333309273035188,-24.27734148485642 9.701380326144399,-16.56710990191726" /><polyline points="3.333309273035188,-24.27734148485642 7.289411656016159,-33.46152647511943" /><polyline points="16.51621524028023,38.90150233766126 6.800506657885487,36.53401279344336" /><polyline points="6.521150043722557,39.21562288229576 16.51621524028023,38.90150233766126" /><polyline points="0.8952334870178091,47.48297208848001 6.521150043722557,39.21562288229576" /><polyline points="-9.064112198519261,48.38376813419408 0.8952334870178091,47.48297208848001" /><polyline points="6.92965343619105,-40.16238808424199 6.195868249201308,-50.13542971151671" /><polyline points="-0.777667252252201,-15.16142836501285 5.617716519154939,-7.473836647418705" /><polyline points="14.14240067141251,-1.953957409584516 4.871789386482289,1.795144670077293" /><polyline points="6.112733184700918,-7.914195664289339 14.14240067141251,-1.953957409584516" /><polyline points="-3.152885046031103,17.84381805746379 3.910220471301614,10.76479690683681" /><polyline points="2.591531148921077,9.6583625063554 -3.152885046031103,17.84381805746379" /><polyline points="4.055801812674085,29.29622995156459 1.744737550184037,39.02551471328481" /><polyline points="-4.946084503248535,24.94122791307998 4.055801812674085,29.29622995156459" /><polyline points="6.92965343619105,-40.16238808424199 -2.045352770116163,-44.57252000933754" /><polyline points="-0.5289624080066413,-33.50137842438687 6.92965343619105,-40.16238808424199" /><polyline points="-11.87491782104316,39.78785936439035 -2.273514366510082,42.58304302620586" /><polyline points="-0.2507783232465077,-28.0366638180692 -3.876023909474648,-18.71692163067295" /><polyline points="9.2161567140969,-31.25802083006271 -0.2507783232465077,-28.0366638180692" /><polyline points="-0.5289624080066413,-33.50137842438687 9.2161567140969,-31.25802083006271" /><polyline points="-11.87491782104316,39.78785936439035 -6.54700156447432,31.32539469013679" /><polyline points="-17.52647206848233,31.53801484535532 -11.87491782104316,39.78785936439035" /><polyline points="-9.064112198519261,48.38376813419408 -6.680532038155929,58.09554169102304" /><polyline points="-16.27942948636208,41.45995441372495 -9.064112198519261,48.38376813419408" /><polyline points="-0.777667252252201,-15.16142836501285 -6.912540717384089,-23.05847386107153" /><polyline points="-14.70416844086273,-10.74543894656139 -8.727869133764687,-2.727718161202289" /><polyline points="-0.5289624080066413,-33.50137842438687 -9.338140205079924,-28.76868505384711" /><polyline points="3.333309273035188,-24.27734148485642 -0.5289624080066413,-33.50137842438687" /><polyline points="-0.777667252252201,-15.16142836501285 3.333309273035188,-24.27734148485642" /><polyline points="6.112733184700918,-7.914195664289339 -0.777667252252201,-15.16142836501285" /><polyline points="0.0,0.0 6.112733184700918,-7.914195664289339" /><polyline points="-19.39914609555151,7.682696970222239 -9.485190016352243,6.373699315637701" /><polyline points="-14.70416844086273,-10.74543894656139 -9.76382034962727,-19.43986018879633" /><polyline points="0.0,0.0 -9.846955087195061,-1.742835480119488" /><polyline points="-4.913600589431529,-8.709565387982234 -14.38003163111285,-5.486727611566495" /><polyline points="-18.29339060785154,-30.33902907793427 -15.04695981287333,-20.88066309361028" /><polyline points="-16.27942948636208,41.45995441372495 -16.36982659946535,31.46036300397512" /><polyline points="-24.70403991780773,-10.69473939447373 -21.55339424906929,-20.18544178523805" /><polyline points="-19.39914609555151,7.682696970222239 -24.31196318079835,16.39270433456509" /><polyline points="-34.63133776740846,45.75883656891192 -28.94911224615406,53.98758575245161" /><polyline points="-24.70403991780773,-10.69473939447373 -29.18008954904709,-1.752425393126987" /><polyline points="-14.70416844086273,-10.74543894656139 -24.70403991780773,-10.69473939447373" /><polyline points="-26.21804146064301,40.3536126832096 -30.85415565582678,31.49322639539937" /><polyline points="-26.21804146064301,40.3536126832096 -31.4347925952356,31.82217039015464" /><polyline points="-26.21804146064301,40.3536126832096 -32.21151308133843,32.34872055827009" /><polyline points="-26.25249418600429,14.96497820285033 -32.50328533012184,22.77059221281916" /><polyline points="-34.36830681488018,-22.56886536922795 -38.31453338567257,-31.75729808933708" /><polyline points="-24.36978553981673,-22.39689934902731 -34.36830681488018,-22.56886536922795" /><polyline points="-18.29339060785154,-30.33902907793427 -24.36978553981673,-22.39689934902731" /><polyline points="-17.37976387124757,-20.38085222741779 -18.29339060785154,-30.33902907793427" /><polyline points="-14.70416844086273,-10.74543894656139 -17.37976387124757,-20.38085222741779" /><polyline points="-4.913600589431529,-8.709565387982234 -14.70416844086273,-10.74543894656139" /><polyline points="0.0,0.0 -4.913600589431529,-8.709565387982234" /><polyline points="0.0,0.0 2.591531148921077,9.6583625063554" /><polyline points="2.591531148921077,9.6583625063554 -5.872236796931682,14.98420818180971" /><polyline points="-50.84101954356088,38.47753673652889 -41.21447755979897,41.18487665513339" /><polyline points="-44.61646182819533,46.30408650306607 -50.84101954356088,38.47753673652889" /><polyline points="-46.77981695148753,56.06727730374827 -42.21109146899312,64.9625989654762" /><polyline points="-44.61646182819533,46.30408650306607 -46.77981695148753,56.06727730374827" /><polyline points="-34.63133776740846,45.75883656891192 -44.61646182819533,46.30408650306607" /><polyline points="-26.21804146064301,40.3536126832096 -34.63133776740846,45.75883656891192" /><polyline points="-16.27942948636208,41.45995441372495 -26.21804146064301,40.3536126832096" /><polyline points="-17.52647206848233,31.53801484535532 -16.27942948636208,41.45995441372495" /><polyline points="-14.50538424127366,22.0052802775468 -17.52647206848233,31.53801484535532" /><polyline points="-4.946084503248535,24.94122791307998 -14.50538424127366,22.0052802775468" /><polyline points="-5.872236796931682,14.98420818180971 -4.946084503248535,24.94122791307998" /><polyline points="-5.872236796931682,14.98420818180971 -9.596912049061622,5.703755915558313" /><polyline points="-9.596912049061622,5.703755915558313 -19.39914609555151,7.682696970222239" /><polyline points="-19.39914609555151,7.682696970222239 -26.25249418600429,14.96497820285033" /><polyline points="-26.25249418600429,14.96497820285033 -35.73065598074607,11.77680490255795" /><polyline points="-42.79837869900867,4.702393578797172 -45.9212022980667,-4.797499724243989" /><polyline points="-35.73065598074607,11.77680490255795 -42.79837869900867,4.702393578797172" /><polyline points="-35.73065598074607,11.77680490255795 -43.49107049221161,18.08362395896309" /><polyline points="-43.49107049221161,18.08362395896309 -52.07626490700807,12.95581381620744" /><polyline points="-43.49107049221161,18.08362395896309 -50.28903684213905,25.41763060644128" /><polyline points="-58.94599071875547,30.42334230190837 -62.9729251818105,39.57669135186051" /><polyline points="-50.28903684213905,25.41763060644128 -58.94599071875547,30.42334230190837" /><polyline points="-50.28903684213905,25.41763060644128 -60.08326749366914,27.43580947478486" /><polyline points="-60.08326749366914,27.43580947478486 -69.39548365714516,31.08034375569044" /></svg>
