<svg transform="scale(1,-1)" viewBox="-526.95 -511.979107008796 1056 1025.9582140175921" xmlns="http://www.w3.org/2000/svg">
<style>
svg { stroke:black; stroke-width:2; fill:none;}
</style>
<polyline points="-523.95 -499 -473.95000000000005 -499" stroke="gray" stroke-dasharray="1"/>
<polyline points="-473.95000000000005 -499 -424.5197394451839 -491.47342431892235" stroke="gray" stroke-dasharray="1"/>
<polyline points="-423.95000000000005 -499 -376.6802099799407 -482.7037749322275" stroke="gray" stroke-dasharray="1"/>
<polyline points="-373.95000000000005 -499 -330.472749196853 -474.30731560562424" stroke="gray" stroke-dasharray="1"/>
<polyline points="-323.95000000000005 -499 -284.31195416818025 -468.5233643156835" stroke="gray" stroke-dasharray="1"/>
<polyline points="-273.95000000000005 -499 -235.93777014621855 -466.5181530459969" stroke="gray" stroke-dasharray="1"/>
<polyline points="-223.95 -499 -184.31195416818014 -468.5233643156835" stroke="gray" stroke-dasharray="1"/>
<polyline points="-173.95 -499 -130.47274919685293 -474.30731560562424" stroke="gray" stroke-dasharray="1"/>
<polyline points="-123.95000000000005 -499 -76.68020997994063 -482.7037749322275" stroke="gray" stroke-dasharray="1"/>
<polyline points="-73.95000000000005 -499 -24.519739445183916 -491.47342431892235" stroke="gray" stroke-dasharray="1"/>
<polyline points="-23.950000000000045 -499 26.049999999999955 -499" stroke="gray" stroke-dasharray="1"/>
<polyline points="26.049999999999955 -499 75.63251858615206 -505.4477787379757" stroke="gray" stroke-dasharray="1"/>
<polyline points="76.05000000000007 -499 125.04405497922176 -508.979107008796" stroke="gray" stroke-dasharray="1"/>
<polyline points="126.04999999999995 -499 175.11557079911802 -508.6213181091124" stroke="gray" stroke-dasharray="1"/>
<polyline points="176.05000000000007 -499 225.7095793103597 -504.82461867576734" stroke="gray" stroke-dasharray="1"/>
<polyline points="226.04999999999995 -499 276.04999999999995 -499" stroke="gray" stroke-dasharray="1"/>
<polyline points="276.04999999999995 -499 325.7095793103597 -493.17538132423266" stroke="gray" stroke-dasharray="1"/>
<polyline points="326.05000000000007 -499 375.11557079911813 -489.3786818908876" stroke="gray" stroke-dasharray="1"/>
<polyline points="376.04999999999995 -499 425.04405497922164 -489.020892991204" stroke="gray" stroke-dasharray="1"/>
<polyline points="426.05000000000007 -499 475.63251858615206 -492.5522212620243" stroke="gray" stroke-dasharray="1"/>
<polyline points="476.04999999999995 -499 526.05 -499" stroke="gray" stroke-dasharray="1"/>
<polyline points="-523.95 -449 -474.5197394451839 -441.47342431892235" stroke="gray" stroke-dasharray="1"/>
<polyline points="-473.95000000000005 -449 -426.21042541688826 -434.1361842508894" stroke="gray" stroke-dasharray="1"/>
<polyline points="-423.95000000000005 -449 -379.6166907500623 -425.8794963084844" stroke="gray" stroke-dasharray="1"/>
<polyline points="-373.95000000000005 -449 -334.4904132752538 -418.29265534904994" stroke="gray" stroke-dasharray="1"/>
<polyline points="-323.95000000000005 -449 -288.9374905906901 -413.30512382900054" stroke="gray" stroke-dasharray="1"/>
<polyline points="-273.95000000000005 -449 -240.6239742557034 -411.72566555804815" stroke="gray" stroke-dasharray="1"/>
<polyline points="-223.95 -449 -188.58389145008147 -413.6554337127278" stroke="gray" stroke-dasharray="1"/>
<polyline points="-173.95 -449 -133.94415939688332 -419.0077890505214" stroke="gray" stroke-dasharray="1"/>
<polyline points="-123.95000000000005 -449 -79.10319012076695 -426.8920004601067" stroke="gray" stroke-dasharray="1"/>
<polyline points="-73.95000000000005 -449 -25.872539588541542 -435.2683649777369" stroke="gray" stroke-dasharray="1"/>
<polyline points="-23.950000000000045 -449 25.632518586151946 -442.5522212620243" stroke="gray" stroke-dasharray="1"/>
<polyline points="26.049999999999955 -449 76.04999913021868 -448.9906737933545" stroke="gray" stroke-dasharray="1"/>
<polyline points="76.05000000000007 -449 125.88185530392741 -453.09709616294737" stroke="gray" stroke-dasharray="1"/>
<polyline points="126.04999999999995 -449 175.7981216487426 -454.012423807092" stroke="gray" stroke-dasharray="1"/>
<polyline points="176.05000000000007 -449 225.95102348110117 -452.1444960706915" stroke="gray" stroke-dasharray="1"/>
<polyline points="226.04999999999995 -449 276.0490840827964 -448.69736014561937" stroke="gray" stroke-dasharray="1"/>
<polyline points="276.04999999999995 -449 325.9125958653533 -445.2957411580099" stroke="gray" stroke-dasharray="1"/>
<polyline points="326.05000000000007 -449 375.7518535946283 -443.54786745776136" stroke="gray" stroke-dasharray="1"/>
<polyline points="376.04999999999995 -449 425.8577640477722 -444.61974423561304" stroke="gray" stroke-dasharray="1"/>
<polyline points="426.05000000000007 -449 476.04985595101925 -448.87997967950855" stroke="gray" stroke-dasharray="1"/>
<polyline points="476.04999999999995 -449 525.632518586152 -455.4477787379757" stroke="gray" stroke-dasharray="1"/>
<polyline points="-523.95 -399 -476.6802099799407 -382.7037749322275" stroke="gray" stroke-dasharray="1"/>
<polyline points="-473.95000000000005 -399 -429.6166907500623 -375.8794963084844" stroke="gray" stroke-dasharray="1"/>
<polyline points="-423.95000000000005 -399 -384.10944192920454 -368.788579434135" stroke="gray" stroke-dasharray="1"/>
<polyline points="-373.95000000000005 -399 -339.4183095317772 -362.8397683441208" stroke="gray" stroke-dasharray="1"/>
<polyline points="-323.95000000000005 -399 -293.44680680761695 -359.3823876909757" stroke="gray" stroke-dasharray="1"/>
<polyline points="-273.95000000000005 -399 -244.16307899850665 -358.84107400277253" stroke="gray" stroke-dasharray="1"/>
<polyline points="-223.95 -399 -191.0741567396234 -361.32800868126094" stroke="gray" stroke-dasharray="1"/>
<polyline points="-173.95 -399 -135.6335390614612 -366.8775962738554" stroke="gray" stroke-dasharray="1"/>
<polyline points="-123.95000000000005 -399 -80.30411281833386 -374.60662934063305" stroke="gray" stroke-dasharray="1"/>
<polyline points="-73.95000000000005 -399 -26.761086967247934 -382.47104096479876" stroke="gray" stroke-dasharray="1"/>
<polyline points="-23.950000000000045 -399 25.04405497922164 -389.02089299120405" stroke="gray" stroke-dasharray="1"/>
<polyline points="26.049999999999955 -399 75.87194645926229 -394.7841191892553" stroke="gray" stroke-dasharray="1"/>
<polyline points="76.05000000000007 -399 126.04855947069711 -398.6204596791339" stroke="gray" stroke-dasharray="1"/>
<polyline points="126.04999999999995 -399 176.04268431322907 -399.85528659396584" stroke="gray" stroke-dasharray="1"/>
<polyline points="176.05000000000007 -399 226.04995550456817 -398.9332951185544" stroke="gray" stroke-dasharray="1"/>
<polyline points="226.04999999999995 -399 276.0080717812291 -396.95279119248806" stroke="gray" stroke-dasharray="1"/>
<polyline points="276.04999999999995 -399 325.91095166720197 -395.273674887916" stroke="gray" stroke-dasharray="1"/>
<polyline points="326.05000000000007 -399 375.9020797287146 -395.15680514130634" stroke="gray" stroke-dasharray="1"/>
<polyline points="376.04999999999995 -399 426.02618293841726 -397.4569060605883" stroke="gray" stroke-dasharray="1"/>
<polyline points="426.05000000000007 -399 475.9381055457379 -402.34319084967063" stroke="gray" stroke-dasharray="1"/>
<polyline points="476.04999999999995 -399 525.0440549792215 -408.97910700879595" stroke="gray" stroke-dasharray="1"/>
<polyline points="-523.95 -349 -480.472749196853 -324.30731560562424" stroke="gray" stroke-dasharray="1"/>
<polyline points="-473.95000000000005 -349 -434.4904132752538 -318.29265534904994" stroke="gray" stroke-dasharray="1"/>
<polyline points="-423.95000000000005 -349 -389.41830953177725 -312.8397683441208" stroke="gray" stroke-dasharray="1"/>
<polyline points="-373.95000000000005 -349 -343.9670310523585 -308.9872323740938" stroke="gray" stroke-dasharray="1"/>
<polyline points="-323.95000000000005 -349 -296.16692855242536 -307.4295665052797" stroke="gray" stroke-dasharray="1"/>
<polyline points="-273.95000000000005 -349 -244.73856254195113 -308.4205480367897" stroke="gray" stroke-dasharray="1"/>
<polyline points="-223.95 -349 -190.04661063135205 -312.2500314378658" stroke="gray" stroke-dasharray="1"/>
<polyline points="-173.95 -349 -134.055044509805 -318.86044913348314" stroke="gray" stroke-dasharray="1"/>
<polyline points="-123.95000000000005 -349 -79.09017019741117 -326.9184314397106" stroke="gray" stroke-dasharray="1"/>
<polyline points="-73.95000000000005 -349 -26.209444460427676 -334.13933525130824" stroke="gray" stroke-dasharray="1"/>
<polyline points="-23.950000000000045 -349 25.115570799118018 -339.3786818908876" stroke="gray" stroke-dasharray="1"/>
<polyline points="26.049999999999955 -349 75.76546358140081 -343.67339874907" stroke="gray" stroke-dasharray="1"/>
<polyline points="76.05000000000007 -349 125.96828109832165 -346.1425164586748" stroke="gray" stroke-dasharray="1"/>
<polyline points="126.04999999999995 -349 175.98070074905195 -346.36843721172704" stroke="gray" stroke-dasharray="1"/>
<polyline points="176.05000000000007 -349 225.8905754549968 -345.0103836882755" stroke="gray" stroke-dasharray="1"/>
<polyline points="226.04999999999995 -349 275.7179296414499 -343.247021194896" stroke="gray" stroke-dasharray="1"/>
<polyline points="276.04999999999995 -349 325.6023643799474 -342.3244337800512" stroke="gray" stroke-dasharray="1"/>
<polyline points="326.05000000000007 -349 375.7150682308351 -343.2223709338083" stroke="gray" stroke-dasharray="1"/>
<polyline points="376.04999999999995 -349 425.9847317649162 -346.4460689974344" stroke="gray" stroke-dasharray="1"/>
<polyline points="426.05000000000007 -349 475.9675105013953 -351.87091367740106" stroke="gray" stroke-dasharray="1"/>
<polyline points="476.04999999999995 -349 525.1155707991181 -358.6213181091124" stroke="gray" stroke-dasharray="1"/>
<polyline points="-523.95 -299 -484.31195416818025 -268.5233643156835" stroke="gray" stroke-dasharray="1"/>
<polyline points="-473.95000000000005 -299 -438.9374905906901 -263.30512382900054" stroke="gray" stroke-dasharray="1"/>
<polyline points="-423.95000000000005 -299 -393.446806807617 -259.38238769097563" stroke="gray" stroke-dasharray="1"/>
<polyline points="-373.95000000000005 -299 -346.16692855242536 -257.4295665052797" stroke="gray" stroke-dasharray="1"/>
<polyline points="-323.95000000000005 -299 -295.6406435053391 -257.78616330820194" stroke="gray" stroke-dasharray="1"/>
<polyline points="-273.95000000000005 -299 -241.6611963548732 -260.82365707448605" stroke="gray" stroke-dasharray="1"/>
<polyline points="-223.95 -299 -185.64680734446483 -266.8617761475069" stroke="gray" stroke-dasharray="1"/>
<polyline points="-173.95 -299 -129.96812659137703 -275.21776269002714" stroke="gray" stroke-dasharray="1"/>
<polyline points="-123.95000000000005 -299 -76.34521498776002 -283.7099887528358" stroke="gray" stroke-dasharray="1"/>
<polyline points="-73.95000000000005 -299 -24.78906111191742 -289.87848216346595" stroke="gray" stroke-dasharray="1"/>
<polyline points="-23.950000000000045 -299 25.709579310359686 -293.17538132423266" stroke="gray" stroke-dasharray="1"/>
<polyline points="26.049999999999955 -299 75.9114570295576 -295.28044318640224" stroke="gray" stroke-dasharray="1"/>
<polyline points="76.05000000000007 -299 125.92235089149892 -295.4294795120019" stroke="gray" stroke-dasharray="1"/>
<polyline points="126.04999999999995 -299 175.7452096780902 -293.4876379789926" stroke="gray" stroke-dasharray="1"/>
<polyline points="176.05000000000007 -299 225.3206760776202 -290.49115290687206" stroke="gray" stroke-dasharray="1"/>
<polyline points="226.04999999999995 -299 274.795677862507 -287.8708091163512" stroke="gray" stroke-dasharray="1"/>
<polyline points="276.04999999999995 -299 324.5552138565455 -286.8655767038234" stroke="gray" stroke-dasharray="1"/>
<polyline points="326.05000000000007 -299 374.8724959444943 -288.2127904558295" stroke="gray" stroke-dasharray="1"/>
<polyline points="376.04999999999995 -299 425.5656562208319 -292.057393211452" stroke="gray" stroke-dasharray="1"/>
<polyline points="426.05000000000007 -299 476.0384719261348 -297.926373207284" stroke="gray" stroke-dasharray="1"/>
<polyline points="476.04999999999995 -299 525.7095793103595 -304.8246186757673" stroke="gray" stroke-dasharray="1"/>
<polyline points="-523.95 -249 -485.93777014621855 -216.51815304599688" stroke="gray" stroke-dasharray="1"/>
<polyline points="-473.95000000000005 -249 -440.6239742557034 -211.72566555804815" stroke="gray" stroke-dasharray="1"/>
<polyline points="-423.95000000000005 -249 -394.16307899850665 -208.84107400277253" stroke="gray" stroke-dasharray="1"/>
<polyline points="-373.95000000000005 -249 -344.73856254195107 -208.42054803678968" stroke="gray" stroke-dasharray="1"/>
<polyline points="-323.95000000000005 -249 -291.66119635487314 -210.82365707448605" stroke="gray" stroke-dasharray="1"/>
<polyline points="-273.95000000000005 -249 -235.93777014621855 -216.51815304599688" stroke="gray" stroke-dasharray="1"/>
<polyline points="-223.95 -249 -179.92358601968425 -225.3003191575528" stroke="gray" stroke-dasharray="1"/>
<polyline points="-173.95 -249 -125.85265526263271 -235.3381762119824" stroke="gray" stroke-dasharray="1"/>
<polyline points="-123.95000000000005 -249 -74.23320662293924 -243.6858249649977" stroke="gray" stroke-dasharray="1"/>
<polyline points="-73.95000000000005 -249 -23.95718064092148 -248.15264379949375" stroke="gray" stroke-dasharray="1"/>
<polyline points="-23.950000000000045 -249 26.049999999999955 -249" stroke="gray" stroke-dasharray="1"/>
<polyline points="26.049999999999955 -249 76.047032448555 -248.45525571307437" stroke="gray" stroke-dasharray="1"/>
<polyline points="76.05000000000007 -249 125.9426871640012 -245.72589438852216" stroke="gray" stroke-dasharray="1"/>
<polyline points="126.04999999999995 -249 175.39983434095302 -240.96297004357422" stroke="gray" stroke-dasharray="1"/>
<polyline points="176.05000000000007 -249 224.24711330606 -235.69442714638626" stroke="gray" stroke-dasharray="1"/>
<polyline points="226.04999999999995 -249 272.95741675198633 -231.6883203109732" stroke="gray" stroke-dasharray="1"/>
<polyline points="276.04999999999995 -249 322.3689696523546 -230.17042086651298" stroke="gray" stroke-dasharray="1"/>
<polyline points="326.05000000000007 -249 372.9310193783509 -231.61696165664097" stroke="gray" stroke-dasharray="1"/>
<polyline points="376.04999999999995 -249 424.28544815438295 -235.83407650995053" stroke="gray" stroke-dasharray="1"/>
<polyline points="426.05000000000007 -249 475.5593280000411 -242.01240806970276" stroke="gray" stroke-dasharray="1"/>
<polyline points="476.04999999999995 -249 526.05 -249" stroke="gray" stroke-dasharray="1"/>
<polyline points="-523.95 -198.99999999999994 -484.3119541681802 -168.52336431568347" stroke="gray" stroke-dasharray="1"/>
<polyline points="-473.95000000000005 -198.99999999999994 -438.5838914500815 -163.65543371272776" stroke="gray" stroke-dasharray="1"/>
<polyline points="-423.95000000000005 -198.99999999999994 -391.07415673962345 -161.32800868126088" stroke="gray" stroke-dasharray="1"/>
<polyline points="-373.95000000000005 -198.99999999999994 -340.0466106313521 -162.2500314378658" stroke="gray" stroke-dasharray="1"/>
<polyline points="-323.95000000000005 -198.99999999999994 -285.6468073444649 -166.86177614750682" stroke="gray" stroke-dasharray="1"/>
<polyline points="-273.95000000000005 -198.99999999999994 -229.9235860196843 -175.30031915755274" stroke="gray" stroke-dasharray="1"/>
<polyline points="-223.95 -198.99999999999994 -175.589075720842 -186.30271671318832" stroke="gray" stroke-dasharray="1"/>
<polyline points="-173.95 -198.99999999999994 -123.9919648182526 -196.951898249772" stroke="gray" stroke-dasharray="1"/>
<polyline points="-123.95000000000005 -198.99999999999994 -74.21907283009233 -204.18023964902596" stroke="gray" stroke-dasharray="1"/>
<polyline points="-73.95000000000005 -198.99999999999994 -24.514782426431793 -206.4939484555186" stroke="gray" stroke-dasharray="1"/>
<polyline points="-23.950000000000045 -198.99999999999994 25.709579310359686 -204.82461867576734" stroke="gray" stroke-dasharray="1"/>
<polyline points="26.049999999999955 -198.99999999999994 75.98066354839193 -201.63226853061883" stroke="gray" stroke-dasharray="1"/>
<polyline points="76.05000000000007 -198.99999999999994 125.96126171887454 -196.02242487416072" stroke="gray" stroke-dasharray="1"/>
<polyline points="126.04999999999995 -198.99999999999994 174.92628302832838 -188.45917662918401" stroke="gray" stroke-dasharray="1"/>
<polyline points="176.05000000000007 -198.99999999999994 222.70775213471472 -181.02629237648694" stroke="gray" stroke-dasharray="1"/>
<polyline points="226.04999999999995 -198.99999999999994 270.33857172585135 -175.79391427913544" stroke="gray" stroke-dasharray="1"/>
<polyline points="276.04999999999995 -198.99999999999994 319.26366861350266 -173.84887984676664" stroke="gray" stroke-dasharray="1"/>
<polyline points="326.05000000000007 -198.99999999999994 370.10303607237995 -175.34984116743396" stroke="gray" stroke-dasharray="1"/>
<polyline points="376.04999999999995 -198.99999999999994 422.2263610162188 -179.82335578627396" stroke="gray" stroke-dasharray="1"/>
<polyline points="426.05000000000007 -198.99999999999994 474.3830023801843 -186.19684097899625" stroke="gray" stroke-dasharray="1"/>
<polyline points="476.04999999999995 -198.99999999999994 525.7095793103595 -193.17538132423255" stroke="gray" stroke-dasharray="1"/>
<polyline points="-523.95 -148.99999999999994 -480.472749196853 -124.30731560562424" stroke="gray" stroke-dasharray="1"/>
<polyline points="-473.95000000000005 -148.99999999999994 -433.9441593968834 -119.00778905052141" stroke="gray" stroke-dasharray="1"/>
<polyline points="-423.95000000000005 -148.99999999999994 -385.6335390614612 -116.87759627385537" stroke="gray" stroke-dasharray="1"/>
<polyline points="-373.95000000000005 -148.99999999999994 -334.05504450980504 -118.86044913348309" stroke="gray" stroke-dasharray="1"/>
<polyline points="-323.95000000000005 -148.99999999999994 -279.9681265913771 -125.21776269002709" stroke="gray" stroke-dasharray="1"/>
<polyline points="-273.95000000000005 -148.99999999999994 -225.8526552626327 -135.33817621198233" stroke="gray" stroke-dasharray="1"/>
<polyline points="-223.95 -148.99999999999994 -173.9919648182526 -146.951898249772" stroke="gray" stroke-dasharray="1"/>
<polyline points="-173.95 -148.99999999999994 -124.55441763293567 -156.75089947158114" stroke="gray" stroke-dasharray="1"/>
<polyline points="-123.95000000000005 -148.99999999999994 -75.71540087261963 -162.16903364035926" stroke="gray" stroke-dasharray="1"/>
<polyline points="-73.95000000000005 -148.99999999999994 -25.776687137710212 -162.3914871419101" stroke="gray" stroke-dasharray="1"/>
<polyline points="-23.950000000000045 -148.99999999999994 25.115570799118018 -158.62131810911234" stroke="gray" stroke-dasharray="1"/>
<polyline points="26.049999999999955 -148.99999999999994 75.8697198113922 -153.2421124353766" stroke="gray" stroke-dasharray="1"/>
<polyline points="76.05000000000007 -148.99999999999994 125.91361612850767 -145.30950049602654" stroke="gray" stroke-dasharray="1"/>
<polyline points="126.04999999999995 -148.99999999999994 174.23552495465628 -135.65252140499217" stroke="gray" stroke-dasharray="1"/>
<polyline points="176.05000000000007 -148.99999999999994 220.87842557458941 -126.85474632108503" stroke="gray" stroke-dasharray="1"/>
<polyline points="226.04999999999995 -148.99999999999994 267.5471226993851 -121.10754927095547" stroke="gray" stroke-dasharray="1"/>
<polyline points="276.04999999999995 -148.99999999999994 316.2049760981189 -119.20775445590743" stroke="gray" stroke-dasharray="1"/>
<polyline points="326.05000000000007 -148.99999999999994 367.47594408986527 -121.00194370561832" stroke="gray" stroke-dasharray="1"/>
<polyline points="376.04999999999995 -148.99999999999994 420.3576492281353 -125.83035995366953" stroke="gray" stroke-dasharray="1"/>
<polyline points="426.05000000000007 -148.99999999999994 473.2231186749209 -132.4260181464494" stroke="gray" stroke-dasharray="1"/>
<polyline points="476.04999999999995 -148.99999999999994 525.1155707991181 -139.3786818908876" stroke="gray" stroke-dasharray="1"/>
<polyline points="-523.95 -99 -476.6802099799407 -82.70377493222747" stroke="gray" stroke-dasharray="1"/>
<polyline points="-473.95000000000005 -99 -429.10319012076695 -76.89200046010671" stroke="gray" stroke-dasharray="1"/>
<polyline points="-423.95000000000005 -99 -380.3041128183338 -74.60662934063299" stroke="gray" stroke-dasharray="1"/>
<polyline points="-373.95000000000005 -99 -329.09017019741117 -76.91843143971062" stroke="gray" stroke-dasharray="1"/>
<polyline points="-323.95000000000005 -99 -276.34521498776 -83.70998875283578" stroke="gray" stroke-dasharray="1"/>
<polyline points="-273.95000000000005 -99 -224.23320662293924 -93.68582496499766" stroke="gray" stroke-dasharray="1"/>
<polyline points="-223.95 -99 -174.21907283009233 -104.18023964902602" stroke="gray" stroke-dasharray="1"/>
<polyline points="-173.95 -99 -125.71540087261963 -112.16903364035937" stroke="gray" stroke-dasharray="1"/>
<polyline points="-123.95000000000005 -99 -76.81442421117458 -115.68045248354775" stroke="gray" stroke-dasharray="1"/>
<polyline points="-73.95000000000005 -99 -26.324838036168842 -114.22642268948437" stroke="gray" stroke-dasharray="1"/>
<polyline points="-23.950000000000045 -99 25.04405497922164 -108.979107008796" stroke="gray" stroke-dasharray="1"/>
<polyline points="26.049999999999955 -99 75.95197650239788 -102.12933557710363" stroke="gray" stroke-dasharray="1"/>
<polyline points="76.05000000000007 -99 125.66938064370345 -92.84231662593243" stroke="gray" stroke-dasharray="1"/>
<polyline points="126.04999999999995 -99 173.18792514428606 -82.32618780567316" stroke="gray" stroke-dasharray="1"/>
<polyline points="176.05000000000007 -99 219.00265279751068 -73.40567215853292" stroke="gray" stroke-dasharray="1"/>
<polyline points="226.04999999999995 -99 265.36029661536577 -68.10177060069685" stroke="gray" stroke-dasharray="1"/>
<polyline points="276.04999999999995 -99 314.3682510160372 -66.87973164694978" stroke="gray" stroke-dasharray="1"/>
<polyline points="326.05000000000007 -99 366.35659834518367 -69.41321021401541" stroke="gray" stroke-dasharray="1"/>
<polyline points="376.04999999999995 -99 419.8797950726188 -74.93863960844595" stroke="gray" stroke-dasharray="1"/>
<polyline points="426.05000000000007 -99 473.06415450996144 -81.98032680356408" stroke="gray" stroke-dasharray="1"/>
<polyline points="476.04999999999995 -99 525.0440549792215 -89.020892991204" stroke="gray" stroke-dasharray="1"/>
<polyline points="-523.95 -49 -474.5197394451839 -41.4734243189223" stroke="gray" stroke-dasharray="1"/>
<polyline points="-473.95000000000005 -49 -425.87253958854154 -35.268364977736894" stroke="gray" stroke-dasharray="1"/>
<polyline points="-423.95000000000005 -49 -376.76108696724793 -32.47104096479876" stroke="gray" stroke-dasharray="1"/>
<polyline points="-373.95000000000005 -49 -326.2094444604277 -34.13933525130824" stroke="gray" stroke-dasharray="1"/>
<polyline points="-323.95000000000005 -49 -274.7890611119175 -39.87848216346589" stroke="gray" stroke-dasharray="1"/>
<polyline points="-273.95000000000005 -49 -223.95718064092142 -48.15264379949372" stroke="gray" stroke-dasharray="1"/>
<polyline points="-223.95 -49 -174.5147824264318 -56.49394845551865" stroke="gray" stroke-dasharray="1"/>
<polyline points="-173.95 -49 -125.77668713771021 -62.39148714191015" stroke="gray" stroke-dasharray="1"/>
<polyline points="-123.95000000000005 -49 -76.32483803616884 -64.22642268948437" stroke="gray" stroke-dasharray="1"/>
<polyline points="-73.95000000000005 -49 -25.552118995205774 -61.55568055685461" stroke="gray" stroke-dasharray="1"/>
<polyline points="-23.950000000000045 -49 25.632518586151946 -55.44777873797568" stroke="gray" stroke-dasharray="1"/>
<polyline points="26.049999999999955 -49 76.03833248075023 -47.9199000999991" stroke="gray" stroke-dasharray="1"/>
<polyline points="76.05000000000007 -49 124.91908518130742 -38.42585636838038" stroke="gray" stroke-dasharray="1"/>
<polyline points="126.04999999999995 -49 171.63693698931513 -28.461470940395827" stroke="gray" stroke-dasharray="1"/>
<polyline points="176.05000000000007 -49 217.27028321048192 -20.70003088256692" stroke="gray" stroke-dasharray="1"/>
<polyline points="226.04999999999995 -49 264.25813956131947 -16.748828373798176" stroke="gray" stroke-dasharray="1"/>
<polyline points="276.04999999999995 -49 314.35403247695876 -16.86277709564672" stroke="gray" stroke-dasharray="1"/>
<polyline points="326.05000000000007 -49 367.29163041375375 -20.731149283790387" stroke="gray" stroke-dasharray="1"/>
<polyline points="376.04999999999995 -49 421.17615534295714 -27.467928479514512" stroke="gray" stroke-dasharray="1"/>
<polyline points="426.05000000000007 -49 474.130020856437 -35.27733282322305" stroke="gray" stroke-dasharray="1"/>
<polyline points="476.04999999999995 -49 525.632518586152 -42.55222126202432" stroke="gray" stroke-dasharray="1"/>
<polyline points="-523.95 1 -473.95000000000005 1" stroke="gray" stroke-dasharray="1"/>
<polyline points="-473.95000000000005 1 -424.36748141384805 7.447778737975625" stroke="gray" stroke-dasharray="1"/>
<polyline points="-423.95000000000005 1 -374.95594502077836 10.979107008796007" stroke="gray" stroke-dasharray="1"/>
<polyline points="-373.95000000000005 1 -324.884429200882 10.621318109112394" stroke="gray" stroke-dasharray="1"/>
<polyline points="-323.95000000000005 1 -274.29042068964037 6.82461867576734" stroke="gray" stroke-dasharray="1"/>
<polyline points="-273.95000000000005 1 -223.95000000000005 1" stroke="gray" stroke-dasharray="1"/>
<polyline points="-223.95 1 -174.2904206896403 -4.824618675767397" stroke="gray" stroke-dasharray="1"/>
<polyline points="-173.95 1 -124.88442920088198 -8.621318109112394" stroke="gray" stroke-dasharray="1"/>
<polyline points="-123.95000000000005 1 -74.9559450207783 -8.979107008796007" stroke="gray" stroke-dasharray="1"/>
<polyline points="-73.95000000000005 1 -24.367481413848054 -5.447778737975682" stroke="gray" stroke-dasharray="1"/>
<polyline points="-23.950000000000045 1 26.049999999999955 1" stroke="gray" stroke-dasharray="1"/>
<polyline points="26.049999999999955 1 75.48026055481614 8.526575681077645" stroke="gray" stroke-dasharray="1"/>
<polyline points="76.05000000000007 1 123.31979002005937 17.296225067772525" stroke="gray" stroke-dasharray="1"/>
<polyline points="126.04999999999995 1 169.52725080314713 25.69268439437576" stroke="gray" stroke-dasharray="1"/>
<polyline points="176.05000000000007 1 215.68804583181986 31.47663568431642" stroke="gray" stroke-dasharray="1"/>
<polyline points="226.04999999999995 1 264.06222985378145 33.48184695400312" stroke="gray" stroke-dasharray="1"/>
<polyline points="276.04999999999995 1 315.68804583181986 31.47663568431642" stroke="gray" stroke-dasharray="1"/>
<polyline points="326.05000000000007 1 369.5272508031471 25.69268439437576" stroke="gray" stroke-dasharray="1"/>
<polyline points="376.04999999999995 1 423.3197900200594 17.296225067772525" stroke="gray" stroke-dasharray="1"/>
<polyline points="426.05000000000007 1 475.48026055481614 8.526575681077645" stroke="gray" stroke-dasharray="1"/>
<polyline points="476.04999999999995 1 526.05 1" stroke="gray" stroke-dasharray="1"/>
<polyline points="-523.95 51 -474.36748141384805 44.55222126202443" stroke="gray" stroke-dasharray="1"/>
<polyline points="-473.95000000000005 51 -423.95012253207346 51.11069413862674" stroke="gray" stroke-dasharray="1"/>
<polyline points="-423.95000000000005 51 -374.1373532780482 55.324375857164" stroke="gray" stroke-dasharray="1"/>
<polyline points="-373.95000000000005 51 -324.23326727828726 56.31474246579944" stroke="gray" stroke-dasharray="1"/>
<polyline points="-323.95000000000005 51 -274.0708525812379 54.47428449862639" stroke="gray" stroke-dasharray="1"/>
<polyline points="-273.95000000000005 51 -223.95000000000005 51" stroke="gray" stroke-dasharray="1"/>
<polyline points="-223.95 51 -174.07085258123783 47.525715501373725" stroke="gray" stroke-dasharray="1"/>
<polyline points="-173.95 51 -124.2332672782872 45.68525753420056" stroke="gray" stroke-dasharray="1"/>
<polyline points="-123.95000000000005 51 -74.13735327804818 46.675624142836114" stroke="gray" stroke-dasharray="1"/>
<polyline points="-73.95000000000005 51 -23.950122532073408 50.88930586137326" stroke="gray" stroke-dasharray="1"/>
<polyline points="-23.950000000000045 51 25.632518586151946 57.44777873797568" stroke="gray" stroke-dasharray="1"/>
<polyline points="26.049999999999955 51 74.13257962865111 64.71369885386218" stroke="gray" stroke-dasharray="1"/>
<polyline points="76.05000000000007 51 121.20329477630855 72.47510118355194" stroke="gray" stroke-dasharray="1"/>
<polyline points="126.04999999999995 51 167.39182447735925 79.12211849920311" stroke="gray" stroke-dasharray="1"/>
<polyline points="176.05000000000007 51 214.57541016314462 82.8715040712151" stroke="gray" stroke-dasharray="1"/>
<polyline points="226.04999999999995 51 264.6072446987249 82.8329841711809" stroke="gray" stroke-dasharray="1"/>
<polyline points="276.04999999999995 51 317.68661746840394 78.68378741772517" stroke="gray" stroke-dasharray="1"/>
<polyline points="326.05000000000007 51 372.00388998231574 70.70380662443756" stroke="gray" stroke-dasharray="1"/>
<polyline points="376.04999999999995 51 425.1258407231061 60.56879602250581" stroke="gray" stroke-dasharray="1"/>
<polyline points="426.05000000000007 51 476.04999999999995 51" stroke="gray" stroke-dasharray="1"/>
<polyline points="476.04999999999995 51 525.4802605548159 43.47342431892241" stroke="gray" stroke-dasharray="1"/>
<polyline points="-523.95 101.00000000000011 -474.95594502077836 91.02089299120405" stroke="gray" stroke-dasharray="1"/>
<polyline points="-473.95000000000005 101.00000000000011 -424.06615358854117 97.59384862374213" stroke="gray" stroke-dasharray="1"/>
<polyline points="-423.95000000000005 101.00000000000011 -373.9635435773243 102.1636899518088" stroke="gray" stroke-dasharray="1"/>
<polyline points="-373.95000000000005 101.00000000000011 -324.03476900369526 103.91027740697268" stroke="gray" stroke-dasharray="1"/>
<polyline points="-323.95000000000005 101.00000000000011 -273.99706724065913 103.16898795311704" stroke="gray" stroke-dasharray="1"/>
<polyline points="-273.95000000000005 101.00000000000011 -223.95000000000005 101.00000000000011" stroke="gray" stroke-dasharray="1"/>
<polyline points="-223.95 101.00000000000011 -173.99706724065908 98.83101204688319" stroke="gray" stroke-dasharray="1"/>
<polyline points="-173.95 101.00000000000011 -124.0347690036952 98.08972259302755" stroke="gray" stroke-dasharray="1"/>
<polyline points="-123.95000000000005 101.00000000000011 -73.96354357732429 99.83631004819142" stroke="gray" stroke-dasharray="1"/>
<polyline points="-73.95000000000005 101.00000000000011 -24.06615358854117 104.4061513762581" stroke="gray" stroke-dasharray="1"/>
<polyline points="-23.950000000000045 101.00000000000011 25.04405497922164 110.97910700879606" stroke="gray" stroke-dasharray="1"/>
<polyline points="26.049999999999955 101.00000000000011 73.08321855140036 117.96691936375612" stroke="gray" stroke-dasharray="1"/>
<polyline points="76.05000000000007 101.00000000000011 120.0611774394057 124.72796367995272" stroke="gray" stroke-dasharray="1"/>
<polyline points="126.04999999999995 101.00000000000011 166.9797011146212 129.7186275206143" stroke="gray" stroke-dasharray="1"/>
<polyline points="176.05000000000007 101.00000000000011 215.67101064184942 131.49877892176107" stroke="gray" stroke-dasharray="1"/>
<polyline points="226.04999999999995 101.00000000000011 267.29920795231055 129.25779261207504" stroke="gray" stroke-dasharray="1"/>
<polyline points="276.04999999999995 101.00000000000011 321.1173967077767 122.65478593715216" stroke="gray" stroke-dasharray="1"/>
<polyline points="326.05000000000007 101.00000000000011 374.72985872177776 112.41364774416002" stroke="gray" stroke-dasharray="1"/>
<polyline points="376.04999999999995 101.00000000000011 426.05000000000007 101.00000000000011" stroke="gray" stroke-dasharray="1"/>
<polyline points="426.05000000000007 101.00000000000011 475.1258407231061 91.43120397749442" stroke="gray" stroke-dasharray="1"/>
<polyline points="476.04999999999995 101.00000000000011 523.3197900200594 84.70377493222759" stroke="gray" stroke-dasharray="1"/>
<polyline points="-523.95 151 -474.884429200882 141.3786818908876" stroke="gray" stroke-dasharray="1"/>
<polyline points="-473.95000000000005 151 -424.0430065727363 147.95172064090946" stroke="gray" stroke-dasharray="1"/>
<polyline points="-423.95000000000005 151 -373.97209210147713 152.48617700384636" stroke="gray" stroke-dasharray="1"/>
<polyline points="-373.95000000000005 151 -324.04968293659795 154.15568645019482" stroke="gray" stroke-dasharray="1"/>
<polyline points="-323.95000000000005 151 -274.0030236065087 153.30207496576804" stroke="gray" stroke-dasharray="1"/>
<polyline points="-273.95000000000005 151 -223.95000000000005 151" stroke="gray" stroke-dasharray="1"/>
<polyline points="-223.95 151 -174.00302360650863 148.69792503423196" stroke="gray" stroke-dasharray="1"/>
<polyline points="-173.95 151 -124.04968293659795 147.84431354980518" stroke="gray" stroke-dasharray="1"/>
<polyline points="-123.95000000000005 151 -73.97209210147713 149.51382299615364" stroke="gray" stroke-dasharray="1"/>
<polyline points="-73.95000000000005 151 -24.043006572736317 154.04827935909066" stroke="gray" stroke-dasharray="1"/>
<polyline points="-23.950000000000045 151 25.115570799118018 160.6213181091124" stroke="gray" stroke-dasharray="1"/>
<polyline points="26.049999999999955 151 73.26874675913507 167.4435383812812" stroke="gray" stroke-dasharray="1"/>
<polyline points="76.05000000000007 151 120.78317901222499 173.3370252151051" stroke="gray" stroke-dasharray="1"/>
<polyline points="126.04999999999995 151 168.8921012137256 176.7789519490783" stroke="gray" stroke-dasharray="1"/>
<polyline points="176.05000000000007 151 219.04247108964205 176.527385874905" stroke="gray" stroke-dasharray="1"/>
<polyline points="226.04999999999995 151 271.4909718581664 171.85948409202229" stroke="gray" stroke-dasharray="1"/>
<polyline points="276.04999999999995 151 324.63526216297635 162.80983914178626" stroke="gray" stroke-dasharray="1"/>
<polyline points="326.05000000000007 151 376.05000000000007 151" stroke="gray" stroke-dasharray="1"/>
<polyline points="376.04999999999995 151 424.72985872177765 139.58635225583998" stroke="gray" stroke-dasharray="1"/>
<polyline points="426.05000000000007 151 472.0038899823156 131.29619337556244" stroke="gray" stroke-dasharray="1"/>
<polyline points="476.04999999999995 151 519.5272508031471 126.30731560562424" stroke="gray" stroke-dasharray="1"/>
<polyline points="-523.95 201.0000000000001 -474.29042068964037 195.17538132423272" stroke="gray" stroke-dasharray="1"/>
<polyline points="-473.95000000000005 201.0000000000001 -423.95529763862356 201.72782951120269" stroke="gray" stroke-dasharray="1"/>
<polyline points="-423.95000000000005 201.0000000000001 -374.1884384774106 205.87719128531478" stroke="gray" stroke-dasharray="1"/>
<polyline points="-373.95000000000005 201.0000000000001 -324.28002138691136 206.7352615088862" stroke="gray" stroke-dasharray="1"/>
<polyline points="-323.95000000000005 201.0000000000001 -274.0873073521601 204.70295583379664" stroke="gray" stroke-dasharray="1"/>
<polyline points="-273.95000000000005 201.0000000000001 -223.95000000000005 201.0000000000001" stroke="gray" stroke-dasharray="1"/>
<polyline points="-223.95 201.0000000000001 -174.08730735216005 197.29704416620348" stroke="gray" stroke-dasharray="1"/>
<polyline points="-173.95 201.0000000000001 -124.2800213869113 195.26473849111392" stroke="gray" stroke-dasharray="1"/>
<polyline points="-123.95000000000005 201.0000000000001 -74.18843847741067 196.12280871468522" stroke="gray" stroke-dasharray="1"/>
<polyline points="-73.95000000000005 201.0000000000001 -23.955297638623563 200.27217048879743" stroke="gray" stroke-dasharray="1"/>
<polyline points="-23.950000000000045 201.0000000000001 25.709579310359686 206.8246186757674" stroke="gray" stroke-dasharray="1"/>
<polyline points="26.049999999999955 201.0000000000001 74.44152860669567 213.58014145816128" stroke="gray" stroke-dasharray="1"/>
<polyline points="76.05000000000007 201.0000000000001 122.80214268214468 218.72673558860708" stroke="gray" stroke-dasharray="1"/>
<polyline points="126.04999999999995 201.0000000000001 172.00821511692834 220.69371633963863" stroke="gray" stroke-dasharray="1"/>
<polyline points="176.05000000000007 201.0000000000001 222.91347407972512 218.4302839098774" stroke="gray" stroke-dasharray="1"/>
<polyline points="226.04999999999995 201.0000000000001 274.91703147681176 211.58363050395667" stroke="gray" stroke-dasharray="1"/>
<polyline points="276.04999999999995 201.0000000000001 326.05000000000007 201.0000000000001" stroke="gray" stroke-dasharray="1"/>
<polyline points="326.05000000000007 201.0000000000001 374.63526216297635 189.19016085821386" stroke="gray" stroke-dasharray="1"/>
<polyline points="376.04999999999995 201.0000000000001 421.1173967077767 179.34521406284796" stroke="gray" stroke-dasharray="1"/>
<polyline points="426.05000000000007 201.0000000000001 467.68661746840394 173.31621258227494" stroke="gray" stroke-dasharray="1"/>
<polyline points="476.04999999999995 201.0000000000001 515.6880458318196 170.52336431568358" stroke="gray" stroke-dasharray="1"/>
<polyline points="-523.95 251 -473.95000000000005 251" stroke="gray" stroke-dasharray="1"/>
<polyline points="-473.95000000000005 251 -424.36748141384805 257.4477787379757" stroke="gray" stroke-dasharray="1"/>
<polyline points="-423.95000000000005 251 -374.95594502077836 260.97910700879606" stroke="gray" stroke-dasharray="1"/>
<polyline points="-373.95000000000005 251 -324.884429200882 260.6213181091124" stroke="gray" stroke-dasharray="1"/>
<polyline points="-323.95000000000005 251 -274.29042068964037 256.8246186757673" stroke="gray" stroke-dasharray="1"/>
<polyline points="-273.95000000000005 251 -223.95000000000005 251" stroke="gray" stroke-dasharray="1"/>
<polyline points="-223.95 251 -174.2904206896403 245.17538132423272" stroke="gray" stroke-dasharray="1"/>
<polyline points="-173.95 251 -124.88442920088198 241.3786818908876" stroke="gray" stroke-dasharray="1"/>
<polyline points="-123.95000000000005 251 -74.9559450207783 241.02089299120394" stroke="gray" stroke-dasharray="1"/>
<polyline points="-73.95000000000005 251 -24.367481413848054 244.55222126202432" stroke="gray" stroke-dasharray="1"/>
<polyline points="-23.950000000000045 251 26.049999999999955 251" stroke="gray" stroke-dasharray="1"/>
<polyline points="26.049999999999955 251 75.60071554722106 257.68779401285565" stroke="gray" stroke-dasharray="1"/>
<polyline points="76.05000000000007 251 124.7840675164856 262.17992232972256" stroke="gray" stroke-dasharray="1"/>
<polyline points="126.04999999999995 251 174.61974846322084 262.87348029094517" stroke="gray" stroke-dasharray="1"/>
<polyline points="176.05000000000007 251 225.39815108064533 259.04735887865104" stroke="gray" stroke-dasharray="1"/>
<polyline points="226.04999999999995 251 276.04999999999995 251" stroke="gray" stroke-dasharray="1"/>
<polyline points="276.04999999999995 251 324.91703147681187 240.41636949604333" stroke="gray" stroke-dasharray="1"/>
<polyline points="326.05000000000007 251 371.4909718581665 230.14051590797783" stroke="gray" stroke-dasharray="1"/>
<polyline points="376.04999999999995 251 417.29920795231055 222.74220738792508" stroke="gray" stroke-dasharray="1"/>
<polyline points="426.05000000000007 251 464.6072446987249 219.1670158288191" stroke="gray" stroke-dasharray="1"/>
<polyline points="476.04999999999995 251 514.0622298537814 218.51815304599688" stroke="gray" stroke-dasharray="1"/>
<polyline points="-523.95 301 -474.29042068964037 306.8246186757674" stroke="gray" stroke-dasharray="1"/>
<polyline points="-473.95000000000005 301 -425.4319274776616 313.0829068819181" stroke="gray" stroke-dasharray="1"/>
<polyline points="-423.95000000000005 301 -376.2451130276043 315.97477074785957" stroke="gray" stroke-dasharray="1"/>
<polyline points="-373.95000000000005 301 -325.7923908778094 314.44785052096813" stroke="gray" stroke-dasharray="1"/>
<polyline points="-323.95000000000005 301 -274.58376961922875 308.9356977004303" stroke="gray" stroke-dasharray="1"/>
<polyline points="-273.95000000000005 301 -223.95000000000005 301" stroke="gray" stroke-dasharray="1"/>
<polyline points="-223.95 301 -174.5837696192287 293.0643022995698" stroke="gray" stroke-dasharray="1"/>
<polyline points="-173.95 301 -125.7923908778094 287.5521494790321" stroke="gray" stroke-dasharray="1"/>
<polyline points="-123.95000000000005 301 -76.2451130276043 286.02522925214055" stroke="gray" stroke-dasharray="1"/>
<polyline points="-73.95000000000005 301 -25.43192747766159 288.917093118082" stroke="gray" stroke-dasharray="1"/>
<polyline points="-23.950000000000045 301 25.709579310359686 295.1753813242327" stroke="gray" stroke-dasharray="1"/>
<polyline points="26.049999999999955 301 76.0444767058815 301.7431681539679" stroke="gray" stroke-dasharray="1"/>
<polyline points="76.05000000000007 301 125.82655701855845 305.7216915801647" stroke="gray" stroke-dasharray="1"/>
<polyline points="126.04999999999995 301 175.8407534597941 305.56955904940537" stroke="gray" stroke-dasharray="1"/>
<polyline points="176.05000000000007 301 226.05000000000007 301" stroke="gray" stroke-dasharray="1"/>
<polyline points="226.04999999999995 301 275.3981510806452 292.95264112134896" stroke="gray" stroke-dasharray="1"/>
<polyline points="276.04999999999995 301 322.9134740797251 283.5697160901227" stroke="gray" stroke-dasharray="1"/>
<polyline points="326.05000000000007 301 369.04247108964205 275.4726141250951" stroke="gray" stroke-dasharray="1"/>
<polyline points="376.04999999999995 301 415.6710106418494 270.50122107823904" stroke="gray" stroke-dasharray="1"/>
<polyline points="426.05000000000007 301 464.5754101631446 269.128495928785" stroke="gray" stroke-dasharray="1"/>
<polyline points="476.04999999999995 301 515.6880458318196 270.5233643156836" stroke="gray" stroke-dasharray="1"/>
<polyline points="-523.95 351.0000000000001 -474.884429200882 360.6213181091125" stroke="gray" stroke-dasharray="1"/>
<polyline points="-473.95000000000005 351.0000000000001 -426.48248816490127 366.7109936090868" stroke="gray" stroke-dasharray="1"/>
<polyline points="-423.95000000000005 351.0000000000001 -377.3723415149018 369.1802566001021" stroke="gray" stroke-dasharray="1"/>
<polyline points="-373.95000000000005 351.0000000000001 -326.5533136039304 366.92338276474675" stroke="gray" stroke-dasharray="1"/>
<polyline points="-323.95000000000005 351.0000000000001 -274.8259351323652 360.31806046773727" stroke="gray" stroke-dasharray="1"/>
<polyline points="-273.95000000000005 351.0000000000001 -223.95000000000005 351.0000000000001" stroke="gray" stroke-dasharray="1"/>
<polyline points="-223.95 351.0000000000001 -174.8259351323652 341.68193953226285" stroke="gray" stroke-dasharray="1"/>
<polyline points="-173.95 351.0000000000001 -126.5533136039304 335.07661723525337" stroke="gray" stroke-dasharray="1"/>
<polyline points="-123.95000000000005 351.0000000000001 -77.37234151490173 332.819743399898" stroke="gray" stroke-dasharray="1"/>
<polyline points="-73.95000000000005 351.0000000000001 -26.482488164901326 335.2890063909134" stroke="gray" stroke-dasharray="1"/>
<polyline points="-23.950000000000045 351.0000000000001 25.115570799118018 341.3786818908877" stroke="gray" stroke-dasharray="1"/>
<polyline points="26.049999999999955 351.0000000000001 75.94913635925673 347.82569840747476" stroke="gray" stroke-dasharray="1"/>
<polyline points="76.05000000000007 351.0000000000001 126.04751551683944 351.498439708899" stroke="gray" stroke-dasharray="1"/>
<polyline points="126.04999999999995 351.0000000000001 176.05000000000007 351.0000000000001" stroke="gray" stroke-dasharray="1"/>
<polyline points="176.05000000000007 351.0000000000001 225.8407534597941 346.43044095059474" stroke="gray" stroke-dasharray="1"/>
<polyline points="226.04999999999995 351.0000000000001 274.61974846322073 339.12651970905495" stroke="gray" stroke-dasharray="1"/>
<polyline points="276.04999999999995 351.0000000000001 322.0082151169282 331.3062836603615" stroke="gray" stroke-dasharray="1"/>
<polyline points="326.05000000000007 351.0000000000001 368.8921012137257 325.2210480509218" stroke="gray" stroke-dasharray="1"/>
<polyline points="376.04999999999995 351.0000000000001 416.9797011146212 322.28137247938594" stroke="gray" stroke-dasharray="1"/>
<polyline points="426.05000000000007 351.0000000000001 467.39182447735925 322.877881500797" stroke="gray" stroke-dasharray="1"/>
<polyline points="476.04999999999995 351.0000000000001 519.5272508031471 326.30731560562435" stroke="gray" stroke-dasharray="1"/>
<polyline points="-523.95 401 -474.95594502077836 410.97910700879606" stroke="gray" stroke-dasharray="1"/>
<polyline points="-473.95000000000005 401 -426.5963938517009 417.0510431047883" stroke="gray" stroke-dasharray="1"/>
<polyline points="-423.95000000000005 401 -377.4906095183139 419.480395993328" stroke="gray" stroke-dasharray="1"/>
<polyline points="-373.95000000000005 401 -326.6321854049337 417.1562502440056" stroke="gray" stroke-dasharray="1"/>
<polyline points="-323.95000000000005 401 -274.85093656174865 410.4489136670078" stroke="gray" stroke-dasharray="1"/>
<polyline points="-273.95000000000005 401 -223.95000000000005 401" stroke="gray" stroke-dasharray="1"/>
<polyline points="-223.95 401 -174.8509365617486 391.5510863329923" stroke="gray" stroke-dasharray="1"/>
<polyline points="-173.95 401 -126.6321854049337 384.8437497559945" stroke="gray" stroke-dasharray="1"/>
<polyline points="-123.95000000000005 401 -77.49060951831387 382.519604006672" stroke="gray" stroke-dasharray="1"/>
<polyline points="-73.95000000000005 401 -26.596393851700896 384.94895689521184" stroke="gray" stroke-dasharray="1"/>
<polyline points="-23.950000000000045 401 25.04405497922164 391.02089299120405" stroke="gray" stroke-dasharray="1"/>
<polyline points="26.049999999999955 401 75.92233553415963 397.42926501008515" stroke="gray" stroke-dasharray="1"/>
<polyline points="76.05000000000007 401 126.05000000000007 401" stroke="gray" stroke-dasharray="1"/>
<polyline points="126.04999999999995 401 176.04751551683933 400.5015602911011" stroke="gray" stroke-dasharray="1"/>
<polyline points="176.05000000000007 401 225.82655701855845 396.2783084198353" stroke="gray" stroke-dasharray="1"/>
<polyline points="226.04999999999995 401 274.7840675164855 389.82007767027744" stroke="gray" stroke-dasharray="1"/>
<polyline points="276.04999999999995 401 322.8021426821447 383.27326441139303" stroke="gray" stroke-dasharray="1"/>
<polyline points="326.05000000000007 401 370.783179012225 378.6629747848949" stroke="gray" stroke-dasharray="1"/>
<polyline points="376.04999999999995 401 420.0611774394056 377.2720363200474" stroke="gray" stroke-dasharray="1"/>
<polyline points="426.05000000000007 401 471.20329477630855 379.5248988164483" stroke="gray" stroke-dasharray="1"/>
<polyline points="476.04999999999995 401 523.3197900200594 384.7037749322275" stroke="gray" stroke-dasharray="1"/>
<polyline points="-523.95 451.0000000000001 -474.36748141384805 457.4477787379757" stroke="gray" stroke-dasharray="1"/>
<polyline points="-473.95000000000005 451.0000000000001 -425.584761606033 463.6808404727266" stroke="gray" stroke-dasharray="1"/>
<polyline points="-423.95000000000005 451.0000000000001 -376.41432223690106 466.5035266827525" stroke="gray" stroke-dasharray="1"/>
<polyline points="-373.95000000000005 451.0000000000001 -325.9079125607567 464.85488485986446" stroke="gray" stroke-dasharray="1"/>
<polyline points="-323.95000000000005 451.0000000000001 -274.6206756481296 459.16197028835336" stroke="gray" stroke-dasharray="1"/>
<polyline points="-273.95000000000005 451.0000000000001 -223.95000000000005 451.0000000000001" stroke="gray" stroke-dasharray="1"/>
<polyline points="-223.95 451.0000000000001 -174.62067564812958 442.83802971164675" stroke="gray" stroke-dasharray="1"/>
<polyline points="-173.95 451.0000000000001 -125.9079125607567 437.14511514013566" stroke="gray" stroke-dasharray="1"/>
<polyline points="-123.95000000000005 451.0000000000001 -76.41432223690106 435.4964733172476" stroke="gray" stroke-dasharray="1"/>
<polyline points="-73.95000000000005 451.0000000000001 -25.584761606033055 438.31915952727354" stroke="gray" stroke-dasharray="1"/>
<polyline points="-23.950000000000045 451.0000000000001 25.632518586151946 444.55222126202443" stroke="gray" stroke-dasharray="1"/>
<polyline points="26.049999999999955 451.0000000000001 76.05000000000007 451.0000000000001" stroke="gray" stroke-dasharray="1"/>
<polyline points="76.05000000000007 451.0000000000001 125.92233553415963 454.5707349899151" stroke="gray" stroke-dasharray="1"/>
<polyline points="126.04999999999995 451.0000000000001 175.9491363592566 454.17430159252547" stroke="gray" stroke-dasharray="1"/>
<polyline points="176.05000000000007 451.0000000000001 226.0444767058816 450.25683184603224" stroke="gray" stroke-dasharray="1"/>
<polyline points="226.04999999999995 451.0000000000001 275.60071554722094 444.31220598714435" stroke="gray" stroke-dasharray="1"/>
<polyline points="276.04999999999995 451.0000000000001 324.44152860669567 438.41985854183883" stroke="gray" stroke-dasharray="1"/>
<polyline points="326.05000000000007 451.0000000000001 373.26874675913507 434.5564616187189" stroke="gray" stroke-dasharray="1"/>
<polyline points="376.04999999999995 451.0000000000001 423.08321855140036 434.033080636244" stroke="gray" stroke-dasharray="1"/>
<polyline points="426.05000000000007 451.0000000000001 474.1325796286511 437.28630114613793" stroke="gray" stroke-dasharray="1"/>
<polyline points="476.04999999999995 451.0000000000001 525.4802605548159 443.4734243189224" stroke="gray" stroke-dasharray="1"/>
<polyline points="-523.95 501 -473.95000000000005 501" stroke="gray" stroke-dasharray="1"/>
<polyline points="-473.95000000000005 501 -424.36748141384805 507.4477787379758" stroke="gray" stroke-dasharray="1"/>
<polyline points="-423.95000000000005 501 -374.95594502077836 510.97910700879606" stroke="gray" stroke-dasharray="1"/>
<polyline points="-373.95000000000005 501 -324.884429200882 510.6213181091125" stroke="gray" stroke-dasharray="1"/>
<polyline points="-323.95000000000005 501 -274.29042068964037 506.8246186757673" stroke="gray" stroke-dasharray="1"/>
<polyline points="-273.95000000000005 501 -223.95000000000005 501" stroke="gray" stroke-dasharray="1"/>
<polyline points="-223.95 501 -174.2904206896403 495.1753813242327" stroke="gray" stroke-dasharray="1"/>
<polyline points="-173.95 501 -124.88442920088198 491.3786818908876" stroke="gray" stroke-dasharray="1"/>
<polyline points="-123.95000000000005 501 -74.9559450207783 491.02089299120394" stroke="gray" stroke-dasharray="1"/>
<polyline points="-73.95000000000005 501 -24.367481413848054 494.5522212620243" stroke="gray" stroke-dasharray="1"/>
<polyline points="-23.950000000000045 501 26.049999999999955 501" stroke="gray" stroke-dasharray="1"/>
<polyline points="26.049999999999955 501 75.63251858615206 507.4477787379758" stroke="gray" stroke-dasharray="1"/>
<polyline points="76.05000000000007 501 125.04405497922176 510.97910700879606" stroke="gray" stroke-dasharray="1"/>
<polyline points="126.04999999999995 501 175.11557079911802 510.6213181091125" stroke="gray" stroke-dasharray="1"/>
<polyline points="176.05000000000007 501 225.7095793103597 506.8246186757673" stroke="gray" stroke-dasharray="1"/>
<polyline points="226.04999999999995 501 276.04999999999995 501" stroke="gray" stroke-dasharray="1"/>
<polyline points="276.04999999999995 501 325.7095793103597 495.1753813242327" stroke="gray" stroke-dasharray="1"/>
<polyline points="326.05000000000007 501 375.11557079911813 491.3786818908876" stroke="gray" stroke-dasharray="1"/>
<polyline points="376.04999999999995 501 425.04405497922164 491.02089299120394" stroke="gray" stroke-dasharray="1"/>
<polyline points="426.05000000000007 501 475.63251858615206 494.5522212620243" stroke="gray" stroke-dasharray="1"/>
<polyline points="476.04999999999995 501 526.05 501" stroke="gray" stroke-dasharray="1"/>
<polyline points="430.4135304387478 42.029487222093735 455.41064887189316 42.409052814986126 480.3591214194772 40.80477181015942" stroke-dasharray="0"/>
<polyline points="-494.9902713716258 436.17897738758643 -470.689349916339 442.04968572849225 -446.6671896549148 448.97325535509776 -422.81059991936905 456.44741926752647 -398.964082697125 463.9536577642183 -374.9809112895751 471.0110998813087 -350.75987733509737 477.2031523823812 -326.2623061643966 482.1900358516888 -301.5120821406707 485.71514730742774 -276.58390246647014 487.60878352665566 -251.5845614080506 487.7902956331899 -226.63092604268212 486.26842768483414 -201.8275388789691 483.1392128940347 -177.24651995812837 478.5814164074342 -152.91226226376136 472.8504564124471 -128.79334032102975 466.2718848106159 -104.80433282995546 459.23430571030144 -80.82048604697951 452.17915911432385 -56.7068708920533 445.5811621334127 -32.358904192092325 439.90872724373867 -7.741601758436786 435.55115671763883" stroke-dasharray="0"/>
<polyline points="168.85087979191064 148.92546451585008 190.17853176722508 161.96890199298275 212.38234588111823 173.4576198847093 235.6089875747566 182.70549075509552 259.767536402979 189.1370161196105 284.5547292916741 192.39202283214138 309.5547262545622 192.40434580209455 334.37403072128564 189.4039915250006 358.7465509706915 183.8380004459292 382.56890972165 176.25543995882276 405.8744158964372 167.20815407094688 428.7786419866626 157.18835231602964 451.4231356244102 146.59463210592355 473.927695562248 135.706804866099 496.350537486471 124.65166307409561" stroke-dasharray="0"/>
<polyline points="327.1489104033126 279.85979302594626 349.00205751974386 267.7173072381179 370.23299645429734 254.51703330318526 390.9746393473945 240.56052048317088 411.3911423843556 226.13254752291903 431.6544157293323 211.49015177130923 451.9194825970894 196.85023835471645 472.298696320296 182.36964278602989 492.83427915644097 168.11166826017825" stroke-dasharray="0"/>
<polyline points="108.54133011476029 264.9855447006436 133.03250215395883 270.0037607328982 157.66093817571573 274.29795904250545 182.47632483683105 277.33054619860457 207.4420195160152 278.6397784872977 232.43057296483983 277.88334175151783 257.2488555349979 274.87454626697877 281.6856138238537 269.5977248438073 305.5642816464434 262.19439971124586 328.7821298048834 252.9244737734823 351.3254327121315 242.1170923130146 373.2621675632071 230.12627649116143 394.72052468819436 217.29900439236712 415.86150558932275 203.95513214559696 436.8505750310834 190.37356507957134 457.8300784763826 176.7772260433204 478.8921093028798 163.3090837265911" stroke-dasharray="0"/>
<polyline points="190.5416501065705 432.79429182278056 215.4517198579524 430.6757014939799 240.16709083636385 426.9139947803334 264.5467807565535 421.3794921472685 288.454289351984 414.0698387519685 311.78662649822 405.0919746800207 334.49175594599376 394.62884432816907 356.5709592417645 382.9024304763544 378.07007761120246 370.1435939566362 399.0663014411373 356.57308973301656 419.65503833364676 342.3919785928056 439.9374915951397 327.77616217033517 460.0065241570363 312.86864956663317 479.92700540185433 297.7632059460424" stroke-dasharray="0"/>
<polyline points="-170.67524327803488 422.6423020690718 -146.9465948557296 414.77139080984455 -123.5378916307427 405.9945683025537 -100.27800694267665 396.83063004993153 -76.95556123410432 387.8271015099258 -53.371785337131996 379.53219256278317 -29.39660866867962 372.44763868011034 -5.008992166750659 366.9481694916484 19.70435369593224 363.17318124379756 44.609948159209125 361.00261347687797 69.59409167443448 360.1123478925589 94.59398503378463 360.03932720287276 119.59310517811173 360.24906992504657 144.59304280832316 360.19322652315225 169.57898963501873 359.3550969546808 194.49332105407518 357.28722608312853 219.22643983651255 353.6440358199329 243.62803469203084 348.20692551140144 267.53485857753617 340.89503302672745 290.8047379834346 331.75650401845996 313.3447762252614 320.94231537312066" stroke-dasharray="0"/>
<polyline points="-49.529136508172144 -181.46696806068672 -24.94359747568336 -186.00031897165428 -0.19989355575592072 -189.57090944424664 24.662444046377345 -192.1908653518051 49.614277636423935 -193.74199413260584 74.61323544306003 -193.97026717530497 99.5744405471886 -192.57806038404618 124.35730383342013 -189.29025148814645 148.77029921269389 -183.90456150342249 172.5950730918023 -176.32959288240818 195.62729250016537 -166.60761421934677 217.7256129214262 -154.91726629641101 238.85540712470743 -141.55568716342736 259.1143929443326 -126.90735983365266 278.7333535119932 -111.41231590843 298.05236544486786 -95.54487194484699 317.47657264542386 -79.80637854077963 337.4153315326936 -64.7250691137001 358.2093425832785 -50.846700894483774 380.0580864855559 -38.69629390983107 402.973730342556 -28.70263258781631" stroke-dasharray="0"/>
<polyline points="-97.31220329296798 278.54724806042555 -73.00357439682585 272.7085357717748 -48.405537572523315 268.2434955266866 -23.55643968713383 265.50080810695874 1.4285953983396666 264.6359255845001 26.411378624170084 265.5635797717754 51.29070344536467 268.0169848425884 76.03387484388054 271.5912636710609 100.68027853929686 275.7811067328678 125.3174578775604 280.02485439905115 150.03869967524747 283.74778388808147 174.8973389326427 286.40260107024153 199.87280776528723 287.5098303101007 224.859657212069 286.69905615914365 249.68451472808044 283.744999743005 274.1465707998483 278.58672360250137 298.067332783472 271.3205591312816 321.33165254495 262.16788596789866 343.9079935197815 251.4296911387786 365.8467510338047 239.44257644253526 387.26311810558104 226.54532008907245" stroke-dasharray="0"/>
<polyline points="-502.09630847376434 -116.87528394339654 -479.6992983260909 -105.76790187357403 -457.4333608795949 -94.40005116956121 -435.1245491967961 -83.11657115223397 -412.59041503437834 -72.290085224189 -389.6792989244863 -62.286048109151636 -366.29537394178436 -53.44342110110881 -342.40985029563717 -46.06224503293777 -318.0612428066328 -40.39256132514606 -293.34718177180815 -36.62225799955479 -268.40908541983185 -34.864034367718546 -243.41064931845256 -35.143663560142386 -218.51199837182503 -37.39248125795706 -193.84283924355753 -41.446194112145974 -169.47906199357453 -47.050331700857896 -145.42750622296273 -53.87108422628705 -121.6230184736392 -61.509563328327545 -97.94045507369441 -69.51807073030903 -74.22190620186774 -77.41936425825554 -50.31609175488944 -84.73455636965247 -26.12197091485507 -91.03094555535364" stroke-dasharray="0"/>
<polyline points="280.8731064964503 399.03284772972347 304.1121179904633 389.8161050957376 326.66652072285353 379.0319075184882 348.52014553407264 366.89028149021385 369.70572580133614 353.61733197854414 390.294153473855 339.43577191015027 410.3832607883912 324.55532274673294 430.087131900101 309.168397673375 449.52392871929067 293.44545490144014 468.7989255549013 277.5245724828302 487.9797149954667 261.4903180119578" stroke-dasharray="0"/>
<polyline points="380.6215127160707 395.11438846433145 402.4424105140628 382.91404341635916 423.9870834272557 370.2322821402771 445.35690108597873 357.2580425389392 466.6355418078356 344.1348017414024 487.8665133098731 330.93458018721367" stroke-dasharray="0"/>
<polyline points="406.459754958903 -361.6319374137255 431.45428285175717 -362.15498178405073 456.37202092600774 -364.18138975458623 481.0955890861467 -367.88883866602987" stroke-dasharray="0"/>
<polyline points="-206.58561105559562 -392.2754080444074 -189.29501739235735 -374.21895848274704 -170.86733582265725 -357.32456438394206 -150.98291259317483 -342.1716863460636 -129.57442554459442 -329.26135396107964 -106.83946476987762 -318.86320227089504 -83.13834953883054 -310.90976673619497 -58.840417545899186 -305.0266977355045 -34.21973992365383 -300.68823793720446 -9.434972718575864 -297.41481242406144 15.442105218588836 -294.938728154851 40.37070116312418 -293.05057979359987 65.31921881206551 -291.447000322395 90.26422651414316 -289.78971617558 115.18095346976884 -287.75091313977646 140.03375694966405 -285.04200945198795 164.77178657086472 -281.43231549534914 189.33171738465853 -276.7622193055837 213.64726220632156 -270.95237593198914 237.6634589313661 -264.0081484829519 261.3522839404226 -256.0181816688595" stroke-dasharray="0"/>
<polyline points="-95.08948478245361 305.96976851909824 -71.1307382281824 298.8298481030014 -46.81094135793853 293.03782944021407 -22.142697860619535 288.9785483761609 2.765330725557419 286.83609372082003 27.76353662401459 286.5365910357916 52.731388839372016 287.8040119414395 77.61494021196461 290.21417191279954 102.4306257063115 293.24431274214317 127.2402772926772 296.3234665484906 152.1094279502704 298.87794214436735 177.06475049498943 300.3718888264931 202.06473734622887 300.3462482754993 226.99321901875282 298.45659182454426 251.67872957011298 294.5036727994833 275.9337964184002 288.4463027278173 299.60003274679195 280.38967452187956 322.583176959962 270.55224182444124 344.8687633643101 259.22295947230907 366.5186511754207 246.7216652286586 387.6545152963474 233.36968979946755" stroke-dasharray="0"/>
<polyline points="-56.11880281817531 134.858762669758 -31.286785853653555 137.7520192214149 -6.701736477673535 142.2880248630147 17.524943187697545 148.4579513124546 41.30624948302432 156.16829961119288 64.60475938851403 165.23358704093243 87.474781899964 175.33121400600533 110.07995143178539 186.0085877672641 132.66935572970328 196.7192746483754 155.5187142667179 206.86357425194353 178.85727482926393 215.8252476932364 202.80197754469827 223.0121254485257 227.31733757989036 227.91081122584467 252.216536810026 230.1535501089994 277.20989218405157 229.57719332048453 301.98694588664216 226.2458857965629 326.29931650089384 220.42277364623692 350.01183170640525 212.5033909286011 373.11048212569256 202.94031878584508 395.67781787383103 192.18321149667145 417.85394773121004 180.64114649301382" stroke-dasharray="0"/>
<polyline points="-459.31923731568725 40.49925923952628 -434.3584941472715 41.89972361978914 -409.4662596295639 44.21848637510675 -384.6218740241062 47.00353644419465 -359.7840256875987 49.846297428282355 -334.9151443190319 52.40339333499969 -309.99541392628885 54.405151850154994 -285.02689746339377 55.65941882418281 -260.03001897590525 56.05447056982439 -235.03488512199345 55.56123267080102 -210.07016570045357 54.233533833040724 -185.15255965060652 52.205503077695425 -160.27979407353502 49.6864690271027 -135.42951956257411 46.954463037013056 -110.56570233510905 44.34858643225755 -85.65328036672764 42.25783736330902 -60.680094158327506 41.10026637171802 -35.68076679530577 41.28365502042209 -10.749886649947484 43.14139966858568 13.972040007673968 46.85977866153223 38.30745274125627 52.585832021936994" stroke-dasharray="0"/>
<polyline points="33.119452302783884 28.200602519045674 57.35534569690992 34.33423695456236 80.87639930177886 42.80536659097345 103.4399475632897 53.57041604977633 124.93203452689795 66.34109332033267 145.45297089815654 80.62013987277294 165.33219293771185 95.77984076368966 185.0662482303776 111.12803484983556 205.20925290219373 125.93544390041541 226.24748791677052 139.44072684715297 248.48010155207874 150.8736132256272 271.93293186202254 159.53183189074412 296.3472867186674 164.91135574828263 321.2733254187382 166.83296828013533 346.23678041545236 165.48170419527742 370.8891520714458 161.32711977144254 395.06935274063994 154.97748233317054 418.7779822544294 147.04647441627424 442.1103561102815 138.0687057485735 465.18740585552916 128.4536251428084 488.09897109049405 118.45061667115601" stroke-dasharray="0"/>
<polyline points="-36.202702825069025 380.67004510517063 -11.930771944744379 374.6806067892062 12.695560589235015 370.37436179781673 37.552859493273445 367.707023949832 62.519352702373226 366.41310863576655 87.51696935487382 366.0679105844581 112.51681405651141 366.1560292204264 137.51680299381144 366.13251040086027 162.50806252382006 365.471490655503 187.44560582787926 363.7054402716874 212.23392209817484 360.4589996848597 236.73240812587687 355.4766124708344 260.77888003620683 348.63795846103733 284.22252752608097 339.9549064416999 306.9542624637388 329.5497045347656 328.9253265789682 317.6219075192025 350.1520139037864 304.4147978727126 370.7099427927079 290.1890620464701 390.7224677923741 275.205776587742 410.3458815725852 259.7163727383157 429.7518125855314 243.95534988062104" stroke-dasharray="0"/>
<polyline points="411.9687343500516 -202.9056237030503 435.9237057818277 -195.75304768438463 460.2218981770868 -189.87105428733167 484.81938106420796 -185.40296346263034" stroke-dasharray="0"/>
<polyline points="-199.47730501553843 -11.747310489611209 -174.88211973603615 -16.228031532808757 -150.50972985189554 -21.794593428219798 -126.32303829100027 -28.119461121548852 -102.23603838385299 -34.81396898046472 -78.13032183140263 -41.44076530243814 -53.88486897513866 -47.53650281275492 -29.41443319436013 -52.65487879530963 -4.703003654357644 -56.44239118334127 20.19438151541135 -58.70517966399177 45.18997867638211 -59.174351878080984 70.13157454030954 -57.466488956031355 94.7683141230458 -53.22018906878412 118.77032522747447 -46.227087972497316 141.81081857989773 -36.52473433655206 163.681163122008 -24.413250958807282 184.3774025940089 -10.389497120494582 204.1115226222645 4.958613731020819 223.25233988167486 21.0405636949356 242.26209180120225 37.27722997708929 261.6677957330593 53.03853242673188" stroke-dasharray="0"/>
<polyline points="-496.871789294422 224.71085546217762 -471.87321247598453 224.97760825537523 -446.93712221778026 226.7640579845006 -422.12161025500114 229.79561963242486 -397.42694119979643 233.690914262349 -372.8019595918922 238.00487773117675 -348.1673231539129 242.26336191790097 -323.44743823832886 245.99529034168938 -298.6019686726853 248.77065375261066 -273.64569306987863 250.24859422392797 -248.6457000800587 250.22987233952654 -223.69273610961392 248.69703539787793 -198.85842856779118 245.82350639712502 -174.16103944539338 241.94549523973205 -149.55779104626038 237.50926167841442 -124.96519879116164 233.01433051381844 -100.29517544524924 228.96588042617532 -75.49181040892091 225.83649025001546 -50.55722253829015 224.02919179049218 -25.55798908579311 223.83341950554495 -0.6053384639510568 225.371348939649" stroke-dasharray="0"/>
<polyline points="-124.04354182358071 345.44560988385865 -100.71077646918843 336.4688587501315 -77.17865859827486 328.02851346635146 -53.28223847649218 320.68269115953933 -28.96095530049047 314.8969168230534 -4.271667489193874 310.9676589578887 20.6455125118066 308.93440029314684 45.64317837369504 308.59278434302973 70.62445150482813 309.5602515247631 95.5614240569588 311.3343428229432 120.47994941760396 313.3510465321881 145.4231173223958 315.03579425020473 170.40997633726352 315.846273473333 195.40423962097088 315.3107336478106 220.30306999804043 313.0639034686666 244.94991736823067 308.8766711237222 269.16742661853095 302.67084759161776 292.7986085695986 294.5119726939656 315.74163973190036 284.581347281352 337.9683661668272 273.13701977874507 359.5250849509962 260.4757451485881" stroke-dasharray="0"/>
<polyline points="-291.43570093232796 -399.2447317296434 -276.6350559968156 -379.09675640970386 -262.1209931780054 -358.7413644829531 -247.21786122781918 -338.6690786620671 -231.23425729028406 -319.4460610746015 -213.58562714276513 -301.7393997880662 -193.94121476425147 -286.2766360537625 -172.33665460140787 -273.6971694446383 -149.15644048267143 -264.33353375066065 -124.95484203273759 -258.06594789419586 -100.22957359599184 -254.3698552640167 -75.29884618363303 -252.5100620791001 -50.310573857664 -251.74439494306202 -25.312108708759467 -251.46737472898744 -0.31258569606120545 -251.3129430691259 24.68698238410002 -251.16598795562356 49.68481727486562 -250.83697310182148 74.67199451105546 -250.03636472862183 99.62143686176773 -248.44723717285922 124.47782030796054 -245.7713818001166 149.15388859025086 -241.75994139450899" stroke-dasharray="0"/>
<polyline points="34.77100443410018 225.3361161987374 59.17149566782564 230.77817716429877 83.35483742400493 237.11584089029714 107.42786455087742 243.860421303404 131.54082374443692 250.4608151499658 155.83876279695096 256.3438549934749 180.40986074853936 260.95483595780865 205.24725596134715 263.8015531975062 230.23741854117782 264.5028193621173 255.1816060654811 262.83323595527736 279.8456384996481 258.74844659885343 304.0203933544251 252.37810691313507 327.5703898457688 243.98777525951732 350.45578466599727 233.9250368686885 372.7273968639255 222.5683080216529 394.5040177634968 210.2891068181401 415.94236708879134 197.4284233912515 437.206245901334 184.28127701473693 458.437239315837 171.08109070418323 479.726629473128 157.97529554590915" stroke-dasharray="0"/>
<polyline points="350.29407820005576 -391.90265571425834 375.24794421007823 -390.38457430871955 400.23670023187515 -389.6348593741569 425.23429100313217 -389.98192656184705 450.1745805430488 -391.7087611413955 474.9547581514091 -395.0167511199344 499.4554844318711 -399.98811026305435" stroke-dasharray="0"/>
<polyline points="373.45267994531673 -262.54762940616695 397.76036849617344 -256.70500351410897 422.2873237559901 -251.86470748153465 447.03128825511294 -248.29592325351706 471.94381143327064 -246.20638050503064 496.9395210738197 -245.74323952718285" stroke-dasharray="0"/>
<polyline points="-155.47646278584216 -378.1066652914676 -135.13057865755343 -363.5792773969338 -113.49518000280983 -351.0529241746141 -90.71882339260088 -340.7457626077912 -67.08539381042112 -332.593400607478 -42.89385802942155 -326.2870865844836 -18.372260288604764 -321.4197213590695 6.346274999369712 -317.6788640753494 31.1889252011282 -314.8783764476201 56.09791474679662 -312.7471233388163 81.0336632485845 -310.9559096007099 105.96970822215201 -309.1688278800766 130.88209119907094 -307.07761425843853 155.74078964208604 -304.42335132511096 180.50680168853955 -301.0109258951688 205.13570010993874 -296.7193804219849 229.5866239339764 -291.5085912158178 253.83419135841825 -285.4212704589371 277.8797814085324 -278.5795163606193 301.75849398123444 -271.17633556650924 325.5389960765034 -263.46350728520366" stroke-dasharray="0"/>
<polyline points="-205.14740312861238 275.07015954452027 -180.55628921652323 270.56714760109196 -156.14589396494887 265.16968489516114 -131.81458651696062 259.4262122634276 -107.43339802740411 253.89831502878963 -82.89443087316522 249.11928887242823 -58.149345884919796 245.55828214335418 -33.227862561736 243.57846675492203 -8.22862538777133 243.38317026272443 16.72164042876375 244.9593160948848 41.522560720052866 248.10802260790297 66.13463040397039 252.49505188453043 90.59296675777261 257.6709366209092 114.99504135547147 263.10589341267337 139.4640419952758 268.2311258648899 164.10039882983892 272.47964583307566 188.93771858339494 275.32702137199215 213.91739566916408 276.33485701865993 238.89137510376838 275.1945275925899 263.65439100537935 271.76042749845055 287.99561392070893 266.059123526004" stroke-dasharray="0"/>
<polyline points="-366.55864126068354 -172.62977245590463 -347.77328417760816 -156.13400453618198 -327.24065458113597 -141.87177743610835 -305.06199275503843 -130.33457848646708 -281.53603331633747 -121.87708284717775 -257.08700639903225 -116.65740059661096 -232.1709458679403 -114.61046932982089 -207.1854196269261 -115.46104469954997 -182.4051982027599 -118.76870643698567 -157.95613920931754 -123.98823844044875 -133.8265398198887 -130.5275375852865 -109.90516750389912 -137.79169249276254 -86.03185594778336 -145.2122716712788 -62.048863943296624 -152.27032342177802 -37.844577388592484 -158.5275202684315 -13.381644971515641 -163.68163877284422 11.301437712338725 -167.6496898337569 36.14997395697185 -170.3974610213117 61.11527711377914 -171.71413800854384 86.11186759227166 -171.30126460113968 110.99215640790635 -168.8576548838156" stroke-dasharray="0"/>
<circle cx="480.3591214194772" cy="40.80477181015942" r="1" stroke="red" stroke-dasharray="0"/>
<circle cx="-7.741601758436786" cy="435.55115671763883" r="1" stroke="red" stroke-dasharray="0"/>
<circle cx="496.350537486471" cy="124.65166307409561" r="1" stroke="red" stroke-dasharray="0"/>
<circle cx="492.83427915644097" cy="168.11166826017825" r="1" stroke="red" stroke-dasharray="0"/>
<circle cx="478.8921093028798" cy="163.3090837265911" r="1" stroke="red" stroke-dasharray="0"/>
<circle cx="479.92700540185433" cy="297.7632059460424" r="1" stroke="red" stroke-dasharray="0"/>
<circle cx="313.3447762252614" cy="320.94231537312066" r="1" stroke="red" stroke-dasharray="0"/>
<circle cx="402.973730342556" cy="-28.70263258781631" r="1" stroke="red" stroke-dasharray="0"/>
<circle cx="387.26311810558104" cy="226.54532008907245" r="1" stroke="red" stroke-dasharray="0"/>
<circle cx="-26.12197091485507" cy="-91.03094555535364" r="1" stroke="red" stroke-dasharray="0"/>
<circle cx="487.9797149954667" cy="261.4903180119578" r="1" stroke="red" stroke-dasharray="0"/>
<circle cx="487.8665133098731" cy="330.93458018721367" r="1" stroke="red" stroke-dasharray="0"/>
<circle cx="481.0955890861467" cy="-367.88883866602987" r="1" stroke="red" stroke-dasharray="0"/>
<circle cx="261.3522839404226" cy="-256.0181816688595" r="1" stroke="red" stroke-dasharray="0"/>
<circle cx="387.6545152963474" cy="233.36968979946755" r="1" stroke="red" stroke-dasharray="0"/>
<circle cx="417.85394773121004" cy="180.64114649301382" r="1" stroke="red" stroke-dasharray="0"/>
<circle cx="38.30745274125627" cy="52.585832021936994" r="1" stroke="red" stroke-dasharray="0"/>
<circle cx="488.09897109049405" cy="118.45061667115601" r="1" stroke="red" stroke-dasharray="0"/>
<circle cx="429.7518125855314" cy="243.95534988062104" r="1" stroke="red" stroke-dasharray="0"/>
<circle cx="484.81938106420796" cy="-185.40296346263034" r="1" stroke="red" stroke-dasharray="0"/>
<circle cx="261.6677957330593" cy="53.03853242673188" r="1" stroke="red" stroke-dasharray="0"/>
<circle cx="-0.6053384639510568" cy="225.371348939649" r="1" stroke="red" stroke-dasharray="0"/>
<circle cx="359.5250849509962" cy="260.4757451485881" r="1" stroke="red" stroke-dasharray="0"/>
<circle cx="149.15388859025086" cy="-241.75994139450899" r="1" stroke="red" stroke-dasharray="0"/>
<circle cx="479.726629473128" cy="157.97529554590915" r="1" stroke="red" stroke-dasharray="0"/>
<circle cx="499.4554844318711" cy="-399.98811026305435" r="1" stroke="red" stroke-dasharray="0"/>
<circle cx="496.9395210738197" cy="-245.74323952718285" r="1" stroke="red" stroke-dasharray="0"/>
<circle cx="325.5389960765034" cy="-263.46350728520366" r="1" stroke="red" stroke-dasharray="0"/>
<circle cx="287.99561392070893" cy="266.059123526004" r="1" stroke="red" stroke-dasharray="0"/>
<circle cx="110.99215640790635" cy="-168.8576548838156" r="1" stroke="red" stroke-dasharray="0"/>
</svg>