<svg viewBox="-98 -115.58330249197701 1186 1224.8653347947322" xmlns="http://www.w3.org/2000/svg">
<style>
svg { stroke:black; stroke-width:2; fill:none;}
</style>
<polyline points="400 727.6217782649106 420 727.6217782649106 430 710.3012701892219 450 710.3012701892219 430 710.3012701892219 420 692.980762113533 430 710.3012701892219"/>
<polyline points="330 641.0192378864667 340 623.698729810778 330 606.3782217350893 340 623.698729810778 330 641.0192378864667 340 623.698729810778 330 606.3782217350893"/>
<polyline points="460 762.2627944162882 450 744.9422863405994 460 762.2627944162882 480 762.2627944162882 460 762.2627944162882 480 762.2627944162882 490 779.583302491977"/>
<polyline points="330 710.3012701892219 340 727.6217782649106 360 727.6217782649106 370 710.3012701892219 360 727.6217782649106 370 744.9422863405994 360 762.2627944162882"/>
<polyline points="460 658.3397459621556 480 658.3397459621556 490 675.6602540378443 480 658.3397459621556 490 641.0192378864667 480 623.698729810778 490 641.0192378864667"/>
<polyline points="420 589.0577136594005 400 589.0577136594005 390 571.7372055837117 370 571.7372055837117 360 554.4166975080229 370 571.7372055837117 360 589.0577136594005"/>
<polyline points="490 990.9422863405994 480 1008.2627944162882 460 1008.2627944162882 480 1008.2627944162882 460 1008.2627944162882 450 1025.583302491977 430 1025.583302491977"/>
<polyline points="420 835.0577136594005 430 852.3782217350893 450 852.3782217350893 430 852.3782217350893 420 869.698729810778 430 887.0192378864667 450 887.0192378864667"/>
<polyline points="420 835.0577136594005 400 835.0577136594005 390 852.3782217350893 400 835.0577136594005 420 835.0577136594005 400 835.0577136594005 420 835.0577136594005"/>
<polyline points="330 921.6602540378443 340 904.3397459621556 360 904.3397459621556 340 904.3397459621556 360 904.3397459621556 340 904.3397459621556 330 887.0192378864667"/>
<polyline points="340 835.0577136594005 330 817.7372055837117 340 800.4166975080229 360 800.4166975080229 340 800.4166975080229 360 800.4166975080229 340 800.4166975080229"/>
<polyline points="400 800.4166975080229 390 817.7372055837117 400 835.0577136594005 390 817.7372055837117 400 835.0577136594005 390 817.7372055837117 370 817.7372055837117"/>
<polyline points="830 69.2820323027551 820 86.60254037844389 830 103.92304845413263 820 86.60254037844389 830 69.2820323027551 850 69.2820323027551 860 51.961524227066306"/>
<polyline points="740 -17.32050807568875 760 -17.32050807568875 770 -34.64101615137754 790 -34.64101615137754 800 -51.961524227066306 790 -69.28203230275507 800 -86.60254037844385"/>
<polyline points="830 103.92304845413263 850 103.92304845413263 830 103.92304845413263 820 86.60254037844389 830 103.92304845413263 820 86.60254037844389 830 69.2820323027551"/>
<polyline points="910 -34.64101615137754 920 -17.32050807568875 910 0.000000000000014210854715202004 920 17.320508075688778 910 34.64101615137754 920 17.320508075688778 910 34.64101615137754"/>
<polyline points="920 51.961524227066306 910 34.64101615137754 920 51.961524227066306 910 69.2820323027551 920 86.60254037844389 910 69.2820323027551 920 86.60254037844389"/>
<polyline points="890 -103.92304845413261 910 -103.92304845413261 920 -86.60254037844385 910 -69.28203230275507 920 -86.60254037844385 910 -69.28203230275507 920 -51.961524227066306"/>
<polyline points="965 606.6987298107781 945 606.6987298107781 935 589.3782217350893 945 606.6987298107781 965 606.6987298107781 975 589.3782217350893 965 572.0577136594005"/>
<polyline points="915 727.9422863405995 905 710.6217782649107 885 710.6217782649107 905 710.6217782649107 915 727.9422863405995 935 727.9422863405995 945 710.6217782649107"/>
<polyline points="905 675.9807621135332 915 693.3012701892219 905 710.6217782649107 915 693.3012701892219 905 710.6217782649107 915 693.3012701892219 905 710.6217782649107"/>
<polyline points="1055 693.3012701892219 1035 693.3012701892219 1055 693.3012701892219 1065 675.9807621135332 1055 658.6602540378444 1065 641.3397459621556 1055 624.0192378864668"/>
<polyline points="915 624.0192378864668 905 641.3397459621556 885 641.3397459621556 905 641.3397459621556 885 641.3397459621556 875 624.0192378864668 885 641.3397459621556"/>
<polyline points="885 675.9807621135332 905 675.9807621135332 885 675.9807621135332 875 693.3012701892219 885 675.9807621135332 875 693.3012701892219 885 710.6217782649107"/>
<polyline points="470 193.35898384862247 490 193.35898384862247 470 193.35898384862247 490 193.35898384862247 500 176.03847577293368 490 193.35898384862247 500 210.67949192431126"/>
<polyline points="500 314.6025403784439 490 297.2820323027551 500 314.6025403784439 490 297.2820323027551 500 279.9615242270663 490 297.2820323027551 500 279.9615242270663"/>
<polyline points="350 228 340 210.67949192431126 350 228 340 245.3205080756888 350 262.6410161513775 370 262.6410161513775 350 262.6410161513775"/>
<polyline points="440 210.67949192431126 460 210.67949192431126 470 193.35898384862247 460 176.03847577293368 470 158.71796769724494 460 176.03847577293368 440 176.03847577293368"/>
<polyline points="350 331.92304845413264 340 314.6025403784439 350 331.92304845413264 340 314.6025403784439 320 314.6025403784439 340 314.6025403784439 350 331.92304845413264"/>
<polyline points="430 124.07695154586739 440 141.39745962155615 460 141.39745962155615 440 141.39745962155615 430 158.71796769724494 440 141.39745962155615 460 141.39745962155615"/>
<polyline points="35 -8.660254037844368 25 8.660254037844396 5 8.660254037844396 -5 -8.660254037844368 5 8.660254037844396 -5 25.98076211353316 -25 25.98076211353316"/>
<polyline points="-25 -112.58330249197701 -35 -95.26279441628824 -55 -95.26279441628824 -35 -95.26279441628824 -55 -95.26279441628824 -65 -112.58330249197701 -55 -95.26279441628824"/>
<polyline points="65 112.58330249197701 85 112.58330249197701 65 112.58330249197701 55 95.26279441628827 65 112.58330249197701 85 112.58330249197701 95 95.26279441628827"/>
<polyline points="-35 43.301270189221924 -55 43.301270189221924 -65 60.62177826491069 -85 60.62177826491069 -95 43.301270189221924 -85 25.98076211353316 -65 25.98076211353316"/>
<polyline points="65 8.660254037844396 55 25.98076211353316 65 43.301270189221924 85 43.301270189221924 65 43.301270189221924 85 43.301270189221924 65 43.301270189221924"/>
<polyline points="-25 -77.94228634059947 -35 -60.62177826491069 -25 -77.94228634059947 -35 -95.26279441628824 -25 -112.58330249197701 -35 -95.26279441628824 -55 -95.26279441628824"/>
<polyline points="905 167.3782217350893 895 150.05771365940055 875 150.05771365940055 865 132.73720558371178 875 150.05771365940055 895 150.05771365940055 905 167.3782217350893"/>
<polyline points="835 219.33974596215563 845 202.01923788646687 835 184.69872981077808 815 184.69872981077808 805 167.3782217350893 815 150.05771365940055 805 132.73720558371178"/>
<polyline points="905 271.3012701892219 895 288.62177826491074 875 288.62177826491074 895 288.62177826491074 905 305.9422863405995 895 288.62177826491074 875 288.62177826491074"/>
<polyline points="875 323.2627944162882 895 323.2627944162882 875 323.2627944162882 865 305.9422863405995 875 323.2627944162882 865 305.9422863405995 875 288.62177826491074"/>
<polyline points="745 271.3012701892219 755 288.62177826491074 745 305.9422863405995 725 305.9422863405995 715 288.62177826491074 725 305.9422863405995 745 305.9422863405995"/>
<polyline points="725 132.73720558371178 745 132.73720558371178 725 132.73720558371178 715 150.05771365940055 725 132.73720558371178 715 150.05771365940055 725 132.73720558371178"/>
<polyline points="990 843.6794919243112 980 861 990 843.6794919243112 980 826.3589838486224 990 809.0384757729337 1010 809.0384757729337 990 809.0384757729337"/>
<polyline points="1040 757.0769515458674 1020 757.0769515458674 1010 774.3974596215561 1020 791.717967697245 1040 791.717967697245 1050 774.3974596215561 1070 774.3974596215561"/>
<polyline points="1040 930.282032302755 1050 912.9615242270663 1040 930.282032302755 1050 912.9615242270663 1070 912.9615242270663 1050 912.9615242270663 1040 930.282032302755"/>
<polyline points="1040 791.717967697245 1050 774.3974596215561 1040 757.0769515458674 1020 757.0769515458674 1010 774.3974596215561 1020 791.717967697245 1040 791.717967697245"/>
<polyline points="950 774.3974596215561 930 774.3974596215561 950 774.3974596215561 960 791.717967697245 950 809.0384757729337 960 826.3589838486224 950 843.6794919243112"/>
<polyline points="1010 947.6025403784438 990 947.6025403784438 1010 947.6025403784438 1020 964.9230484541326 1040 964.9230484541326 1050 947.6025403784438 1040 930.282032302755"/>
<polyline points="385 -17.32050807568875 375 0.000000000000014210854715202004 385 17.320508075688778 375 0.000000000000014210854715202004 385 -17.32050807568875 375 0.000000000000014210854715202004 355 0.000000000000014210854715202004"/>
<polyline points="465 86.60254037844389 445 86.60254037844389 465 86.60254037844389 445 86.60254037844389 435 103.92304845413263 415 103.92304845413263 405 86.60254037844389"/>
<polyline points="505 17.320508075688778 495 0.000000000000014210854715202004 505 17.320508075688778 495 34.64101615137754 505 17.320508075688778 495 34.64101615137754 505 17.320508075688778"/>
<polyline points="475 34.64101615137754 465 51.961524227066306 475 34.64101615137754 465 51.961524227066306 475 69.2820323027551 465 51.961524227066306 475 69.2820323027551"/>
<polyline points="345 -86.60254037844385 355 -69.28203230275507 345 -86.60254037844385 355 -69.28203230275507 345 -51.961524227066306 355 -34.64101615137754 375 -34.64101615137754"/>
<polyline points="315 -69.28203230275507 325 -51.961524227066306 345 -51.961524227066306 355 -69.28203230275507 345 -86.60254037844385 355 -103.92304845413261 345 -86.60254037844385"/>
<polyline points="230 960.3397459621556 220 943.0192378864668 230 960.3397459621556 220 977.6602540378444 200 977.6602540378444 220 977.6602540378444 230 960.3397459621556"/>
<polyline points="190 1029.6217782649107 200 1046.9422863405994 220 1046.9422863405994 200 1046.9422863405994 190 1029.6217782649107 170 1029.6217782649107 190 1029.6217782649107"/>
<polyline points="260 977.6602540378444 250 960.3397459621556 260 943.0192378864668 250 960.3397459621556 260 943.0192378864668 250 960.3397459621556 260 977.6602540378444"/>
<polyline points="170 891.0577136594005 190 891.0577136594005 170 891.0577136594005 190 891.0577136594005 170 891.0577136594005 190 891.0577136594005 200 908.3782217350893"/>
<polyline points="160 908.3782217350893 170 891.0577136594005 190 891.0577136594005 200 908.3782217350893 190 925.6987298107781 170 925.6987298107781 190 925.6987298107781"/>
<polyline points="170 925.6987298107781 190 925.6987298107781 170 925.6987298107781 160 943.0192378864668 170 960.3397459621556 160 977.6602540378444 170 994.9807621135332"/>
<polyline points="25 358.583302491977 5 358.583302491977 25 358.583302491977 35 341.2627944162883 25 323.9422863405995 5 323.9422863405995 -5 341.2627944162883"/>
<polyline points="-25 202.69872981077808 -35 220.01923788646684 -25 237.33974596215563 -5 237.33974596215563 5 220.01923788646684 -5 202.69872981077808 -25 202.69872981077808"/>
<polyline points="85 289.3012701892219 95 271.98076211353316 85 289.3012701892219 95 271.98076211353316 85 289.3012701892219 95 306.6217782649107 85 289.3012701892219"/>
<polyline points="25 150.73720558371176 5 150.73720558371176 -5 133.416697508023 -25 133.416697508023 -35 150.73720558371176 -25 133.416697508023 -5 133.416697508023"/>
<polyline points="55 341.2627944162883 65 323.9422863405995 85 323.9422863405995 95 306.6217782649107 85 289.3012701892219 65 289.3012701892219 85 289.3012701892219"/>
<polyline points="-65 237.33974596215563 -85 237.33974596215563 -95 220.01923788646684 -85 202.69872981077808 -95 220.01923788646684 -85 202.69872981077808 -65 202.69872981077808"/>
<polyline points="245 715.0577136594005 235 732.3782217350893 215 732.3782217350893 205 749.6987298107781 185 749.6987298107781 175 767.0192378864668 185 749.6987298107781"/>
<polyline points="245 853.6217782649107 235 870.9422863405995 215 870.9422863405995 205 853.6217782649107 185 853.6217782649107 205 853.6217782649107 185 853.6217782649107"/>
<polyline points="235 801.6602540378444 245 818.9807621135332 235 801.6602540378444 245 784.3397459621556 265 784.3397459621556 245 784.3397459621556 265 784.3397459621556"/>
<polyline points="155 801.6602540378444 175 801.6602540378444 155 801.6602540378444 145 818.9807621135332 155 836.3012701892219 145 818.9807621135332 155 801.6602540378444"/>
<polyline points="245 784.3397459621556 265 784.3397459621556 275 767.0192378864668 265 784.3397459621556 245 784.3397459621556 265 784.3397459621556 275 767.0192378864668"/>
<polyline points="215 836.3012701892219 205 818.9807621135332 185 818.9807621135332 175 801.6602540378444 185 784.3397459621556 175 767.0192378864668 185 749.6987298107781"/>
<polyline points="565 542.6025403784438 585 542.6025403784438 565 542.6025403784438 585 542.6025403784438 565 542.6025403784438 585 542.6025403784438 565 542.6025403784438"/>
<polyline points="555 386.71796769724494 535 386.71796769724494 525 404.0384757729337 535 421.3589838486225 525 404.0384757729337 535 386.71796769724494 555 386.71796769724494"/>
<polyline points="585 369.39745962155615 565 369.39745962155615 555 386.71796769724494 565 404.0384757729337 555 386.71796769724494 565 369.39745962155615 585 369.39745962155615"/>
<polyline points="645 542.6025403784438 655 525.2820323027552 645 542.6025403784438 625 542.6025403784438 615 525.2820323027552 625 542.6025403784438 645 542.6025403784438"/>
<polyline points="555 525.2820323027552 535 525.2820323027552 555 525.2820323027552 565 542.6025403784438 585 542.6025403784438 595 525.2820323027552 585 542.6025403784438"/>
<polyline points="715 525.2820323027552 705 542.6025403784438 685 542.6025403784438 675 525.2820323027552 655 525.2820323027552 645 507.9615242270663 655 525.2820323027552"/>
<polyline points="655 808.717967697245 675 808.717967697245 685 791.3974596215562 675 774.0769515458674 655 774.0769515458674 645 791.3974596215562 655 808.717967697245"/>
<polyline points="585 929.9615242270663 595 912.6410161513776 615 912.6410161513776 595 912.6410161513776 585 895.3205080756888 595 912.6410161513776 585 929.9615242270663"/>
<polyline points="555 774.0769515458674 565 791.3974596215562 585 791.3974596215562 595 808.717967697245 585 791.3974596215562 595 808.717967697245 585 826.0384757729337"/>
<polyline points="615 843.3589838486225 595 843.3589838486225 615 843.3589838486225 625 860.6794919243113 615 878 595 878 585 860.6794919243113"/>
<polyline points="615 981.9230484541326 625 964.6025403784439 645 964.6025403784439 655 981.9230484541326 645 964.6025403784439 655 981.9230484541326 645 964.6025403784439"/>
<polyline points="645 964.6025403784439 655 981.9230484541326 645 964.6025403784439 625 964.6025403784439 615 947.2820323027552 625 929.9615242270663 615 912.6410161513776"/>
<polyline points="590 124.07695154586736 610 124.07695154586736 590 124.07695154586736 610 124.07695154586736 590 124.07695154586736 580 141.39745962155612 590 158.7179676972449"/>
<polyline points="520 210.6794919243112 530 193.35898384862244 550 193.35898384862244 530 193.35898384862244 550 193.35898384862244 530 193.35898384862244 520 176.03847577293368"/>
<polyline points="680 210.6794919243112 670 193.35898384862244 650 193.35898384862244 670 193.35898384862244 680 210.6794919243112 670 193.35898384862244 680 210.6794919243112"/>
<polyline points="650 262.6410161513775 640 245.32050807568876 650 228 670 228 680 210.6794919243112 700 210.6794919243112 680 210.6794919243112"/>
<polyline points="530 331.92304845413264 520 314.60254037844385 530 297.28203230275506 520 279.9615242270663 530 262.6410161513775 520 245.32050807568876 530 262.6410161513775"/>
<polyline points="530 228 520 210.6794919243112 530 228 520 210.6794919243112 530 228 520 210.6794919243112 530 228"/>
<polyline points="35 958.0192378864668 55 958.0192378864668 65 975.3397459621556 55 958.0192378864668 65 940.6987298107781 55 923.3782217350893 65 940.6987298107781"/>
<polyline points="-85 958.0192378864668 -95 975.3397459621556 -85 958.0192378864668 -65 958.0192378864668 -55 940.6987298107781 -65 958.0192378864668 -55 975.3397459621556"/>
<polyline points="-65 992.6602540378444 -55 975.3397459621556 -65 958.0192378864668 -85 958.0192378864668 -95 940.6987298107781 -85 923.3782217350893 -65 923.3782217350893"/>
<polyline points="95 1027.301270189222 85 1009.9807621135332 95 992.6602540378444 85 975.3397459621556 65 975.3397459621556 55 958.0192378864668 65 975.3397459621556"/>
<polyline points="-65 1027.301270189222 -55 1044.6217782649107 -35 1044.6217782649107 -25 1027.301270189222 -35 1044.6217782649107 -55 1044.6217782649107 -65 1027.301270189222"/>
<polyline points="-85 1027.301270189222 -95 1009.9807621135332 -85 992.6602540378444 -65 992.6602540378444 -55 975.3397459621556 -35 975.3397459621556 -25 992.6602540378444"/>
<polyline points="780 710.6217782649107 770 693.3012701892219 750 693.3012701892219 740 710.6217782649107 720 710.6217782649107 710 693.3012701892219 720 675.9807621135332"/>
<polyline points="870 589.3782217350893 860 572.0577136594005 870 554.7372055837118 860 572.0577136594005 870 554.7372055837118 860 572.0577136594005 840 572.0577136594005"/>
<polyline points="800 745.2627944162882 810 727.9422863405995 800 710.6217782649107 810 727.9422863405995 800 710.6217782649107 810 727.9422863405995 830 727.9422863405995"/>
<polyline points="810 624.0192378864668 830 624.0192378864668 810 624.0192378864668 800 641.3397459621556 810 658.6602540378444 800 675.9807621135332 810 693.3012701892219"/>
<polyline points="840 606.6987298107781 830 589.3782217350893 840 606.6987298107781 830 589.3782217350893 810 589.3782217350893 800 606.6987298107781 780 606.6987298107781"/>
<polyline points="780 641.3397459621556 770 624.0192378864668 780 606.6987298107781 800 606.6987298107781 810 589.3782217350893 800 606.6987298107781 810 624.0192378864668"/>
<polyline points="160 220.01923788646684 170 202.69872981077808 160 185.3782217350893 170 168.05771365940052 160 185.3782217350893 170 168.05771365940052 160 150.73720558371176"/>
<polyline points="170 168.05771365940052 160 150.73720558371176 170 168.05771365940052 190 168.05771365940052 200 185.3782217350893 190 202.69872981077808 200 185.3782217350893"/>
<polyline points="230 202.69872981077808 250 202.69872981077808 260 185.3782217350893 250 168.05771365940052 260 150.73720558371176 250 133.416697508023 260 150.73720558371176"/>
<polyline points="220 289.3012701892219 200 289.3012701892219 190 306.6217782649107 200 323.9422863405995 220 323.9422863405995 230 341.2627944162883 220 358.583302491977"/>
<polyline points="160 185.3782217350893 170 168.05771365940052 190 168.05771365940052 170 168.05771365940052 190 168.05771365940052 200 150.73720558371176 220 150.73720558371176"/>
<polyline points="260 289.3012701892219 250 306.6217782649107 230 306.6217782649107 220 323.9422863405995 230 306.6217782649107 220 323.9422863405995 230 341.2627944162883"/>
<polyline points="525 -34.64101615137754 535 -17.32050807568875 525 0.000000000000014210854715202004 535 -17.32050807568875 525 0.000000000000014210854715202004 535 17.320508075688778 555 17.320508075688778"/>
<polyline points="645 103.92304845413263 625 103.92304845413263 615 86.60254037844389 625 103.92304845413263 645 103.92304845413263 625 103.92304845413263 615 86.60254037844389"/>
<polyline points="645 34.64101615137754 655 51.961524227066306 645 34.64101615137754 655 51.961524227066306 675 51.961524227066306 655 51.961524227066306 645 34.64101615137754"/>
<polyline points="615 -51.961524227066306 595 -51.961524227066306 585 -69.28203230275507 595 -51.961524227066306 585 -34.64101615137754 595 -17.32050807568875 585 -34.64101615137754"/>
<polyline points="595 -51.961524227066306 615 -51.961524227066306 625 -69.28203230275507 615 -51.961524227066306 595 -51.961524227066306 585 -34.64101615137754 565 -34.64101615137754"/>
<polyline points="705 -103.92304845413261 685 -103.92304845413261 705 -103.92304845413261 715 -86.60254037844385 705 -69.28203230275507 685 -69.28203230275507 675 -51.961524227066306"/>
<polyline points="925 525.2820323027552 915 542.6025403784438 895 542.6025403784438 915 542.6025403784438 895 542.6025403784438 885 525.2820323027552 865 525.2820323027552"/>
<polyline points="775 404.0384757729337 765 386.71796769724494 775 404.0384757729337 765 386.71796769724494 775 369.39745962155615 795 369.39745962155615 775 369.39745962155615"/>
<polyline points="865 490.6410161513775 885 490.6410161513775 895 473.32050807568874 885 490.6410161513775 895 507.9615242270663 885 525.2820323027552 865 525.2820323027552"/>
<polyline points="745 525.2820323027552 735 507.9615242270663 745 525.2820323027552 765 525.2820323027552 745 525.2820323027552 735 507.9615242270663 745 525.2820323027552"/>
<polyline points="855 507.9615242270663 835 507.9615242270663 825 525.2820323027552 835 507.9615242270663 855 507.9615242270663 865 525.2820323027552 885 525.2820323027552"/>
<polyline points="855 507.9615242270663 865 490.6410161513775 855 507.9615242270663 865 525.2820323027552 855 542.6025403784438 865 525.2820323027552 855 507.9615242270663"/>
<polyline points="40 694.698729810778 30 712.0192378864667 10 712.0192378864667 0 729.3397459621556 10 746.6602540378443 0 763.980762113533 -20 763.980762113533"/>
<polyline points="90 712.0192378864667 70 712.0192378864667 60 694.698729810778 40 694.698729810778 60 694.698729810778 40 694.698729810778 60 694.698729810778"/>
<polyline points="-90 815.9422863405994 -80 798.6217782649106 -90 781.3012701892219 -80 763.980762113533 -60 763.980762113533 -50 781.3012701892219 -30 781.3012701892219"/>
<polyline points="-90 781.3012701892219 -80 798.6217782649106 -90 781.3012701892219 -80 798.6217782649106 -90 815.9422863405994 -80 798.6217782649106 -60 798.6217782649106"/>
<polyline points="60 798.6217782649106 40 798.6217782649106 30 815.9422863405994 40 833.2627944162882 30 850.583302491977 40 833.2627944162882 30 815.9422863405994"/>
<polyline points="70 642.7372055837117 60 625.4166975080229 40 625.4166975080229 60 625.4166975080229 70 642.7372055837117 60 625.4166975080229 70 642.7372055837117"/>
<polyline points="-25 587.2627944162882 -35 569.9422863405995 -25 552.6217782649107 -5 552.6217782649107 -25 552.6217782649107 -35 569.9422863405995 -25 552.6217782649107"/>
<polyline points="-25 587.2627944162882 -5 587.2627944162882 -25 587.2627944162882 -35 604.5833024919771 -55 604.5833024919771 -65 587.2627944162882 -85 587.2627944162882"/>
<polyline points="95 587.2627944162882 85 604.5833024919771 65 604.5833024919771 85 604.5833024919771 65 604.5833024919771 55 587.2627944162882 65 604.5833024919771"/>
<polyline points="65 431.3782217350893 55 414.0577136594005 65 396.7372055837118 55 379.416697508023 35 379.416697508023 55 379.416697508023 35 379.416697508023"/>
<polyline points="-35 466.01923788646684 -55 466.01923788646684 -65 448.6987298107781 -55 466.01923788646684 -65 483.33974596215563 -85 483.33974596215563 -95 466.01923788646684"/>
<polyline points="-25 587.2627944162882 -35 604.5833024919771 -25 587.2627944162882 -35 604.5833024919771 -25 587.2627944162882 -35 569.9422863405995 -55 569.9422863405995"/>
<polyline points="290 607.6987298107781 300 625.0192378864668 290 642.3397459621556 300 625.0192378864668 290 642.3397459621556 300 659.6602540378444 290 676.9807621135332"/>
<polyline points="200 694.3012701892219 210 711.6217782649107 230 711.6217782649107 210 711.6217782649107 230 711.6217782649107 240 694.3012701892219 260 694.3012701892219"/>
<polyline points="290 642.3397459621556 300 625.0192378864668 290 642.3397459621556 300 625.0192378864668 290 642.3397459621556 300 625.0192378864668 290 642.3397459621556"/>
<polyline points="170 642.3397459621556 150 642.3397459621556 140 659.6602540378444 120 659.6602540378444 140 659.6602540378444 150 676.9807621135332 140 694.3012701892219"/>
<polyline points="180 625.0192378864668 170 607.6987298107781 180 625.0192378864668 200 625.0192378864668 180 625.0192378864668 200 625.0192378864668 180 625.0192378864668"/>
<polyline points="240 590.3782217350893 230 607.6987298107781 210 607.6987298107781 230 607.6987298107781 240 590.3782217350893 260 590.3782217350893 240 590.3782217350893"/>
<polyline points="695 580.717967697245 675 580.717967697245 665 563.3974596215561 645 563.3974596215561 665 563.3974596215561 645 563.3974596215561 635 580.717967697245"/>
<polyline points="545 667.3205080756887 555 684.6410161513775 545 701.9615242270663 555 719.282032302755 545 736.6025403784438 555 753.9230484541326 545 736.6025403784438"/>
<polyline points="555 580.717967697245 545 563.3974596215561 555 546.0769515458674 575 546.0769515458674 585 563.3974596215561 575 546.0769515458674 555 546.0769515458674"/>
<polyline points="575 546.0769515458674 585 563.3974596215561 605 563.3974596215561 585 563.3974596215561 575 546.0769515458674 555 546.0769515458674 545 563.3974596215561"/>
<polyline points="575 580.717967697245 585 598.0384757729337 575 615.3589838486224 585 598.0384757729337 575 580.717967697245 555 580.717967697245 545 598.0384757729337"/>
<polyline points="675 615.3589838486224 665 598.0384757729337 675 615.3589838486224 665 598.0384757729337 645 598.0384757729337 635 615.3589838486224 645 598.0384757729337"/>
<polyline points="885 817.6987298107781 875 835.0192378864668 885 817.6987298107781 875 835.0192378864668 885 852.3397459621556 875 835.0192378864668 855 835.0192378864668"/>
<polyline points="755 835.0192378864668 765 817.6987298107781 755 800.3782217350893 765 783.0577136594005 785 783.0577136594005 795 800.3782217350893 815 800.3782217350893"/>
<polyline points="795 938.9422863405995 785 921.6217782649107 795 938.9422863405995 785 921.6217782649107 765 921.6217782649107 755 938.9422863405995 765 921.6217782649107"/>
<polyline points="875 835.0192378864668 885 852.3397459621556 875 835.0192378864668 885 817.6987298107781 875 835.0192378864668 855 835.0192378864668 875 835.0192378864668"/>
<polyline points="795 835.0192378864668 785 852.3397459621556 765 852.3397459621556 755 869.6602540378444 765 852.3397459621556 755 835.0192378864668 765 817.6987298107781"/>
<polyline points="695 835.0192378864668 705 817.6987298107781 695 800.3782217350893 705 783.0577136594005 725 783.0577136594005 705 783.0577136594005 725 783.0577136594005"/>
<polyline points="1055 288.62177826491074 1045 305.9422863405995 1025 305.9422863405995 1045 305.9422863405995 1055 323.2627944162882 1045 305.9422863405995 1025 305.9422863405995"/>
<polyline points="1055 184.69872981077808 1045 202.01923788646687 1025 202.01923788646687 1015 184.69872981077808 1025 202.01923788646687 1045 202.01923788646687 1025 202.01923788646687"/>
<polyline points="995 150.05771365940055 985 167.3782217350893 995 184.69872981077808 985 202.01923788646687 995 184.69872981077808 985 202.01923788646687 995 219.33974596215563"/>
<polyline points="995 288.62177826491074 985 305.9422863405995 965 305.9422863405995 955 288.62177826491074 965 271.3012701892219 955 253.98076211353316 965 236.6602540378444"/>
<polyline points="985 167.3782217350893 995 150.05771365940055 985 132.73720558371178 995 150.05771365940055 1015 150.05771365940055 995 150.05771365940055 985 167.3782217350893"/>
<polyline points="1055 219.33974596215563 1075 219.33974596215563 1055 219.33974596215563 1075 219.33974596215563 1085 202.01923788646687 1075 219.33974596215563 1055 219.33974596215563"/>
<polyline points="445 412.6987298107781 435 430.01923788646684 415 430.01923788646684 405 412.6987298107781 415 395.3782217350893 435 395.3782217350893 415 395.3782217350893"/>
<polyline points="475 499.3012701892219 465 481.98076211353316 475 499.3012701892219 465 516.6217782649107 475 533.9422863405995 465 551.2627944162882 475 533.9422863405995"/>
<polyline points="495 464.6602540378444 505 481.98076211353316 495 499.3012701892219 505 516.6217782649107 495 533.9422863405995 505 516.6217782649107 495 533.9422863405995"/>
<polyline points="415 430.01923788646684 435 430.01923788646684 445 447.33974596215563 435 430.01923788646684 445 412.6987298107781 435 395.3782217350893 415 395.3782217350893"/>
<polyline points="345 481.98076211353316 355 464.6602540378444 345 447.33974596215563 325 447.33974596215563 315 430.01923788646684 325 412.6987298107781 315 395.3782217350893"/>
<polyline points="345 412.6987298107781 355 395.3782217350893 345 378.0577136594005 325 378.0577136594005 315 360.7372055837118 325 378.0577136594005 345 378.0577136594005"/>
<polyline points="260 543.9615242270663 250 561.2820323027552 230 561.2820323027552 250 561.2820323027552 230 561.2820323027552 220 543.9615242270663 200 543.9615242270663"/>
<polyline points="130 422.71796769724494 140 440.03847577293374 160 440.03847577293374 140 440.03847577293374 160 440.03847577293374 140 440.03847577293374 130 422.71796769724494"/>
<polyline points="260 474.67949192431126 250 457.3589838486225 230 457.3589838486225 220 474.67949192431126 230 492 250 492 260 509.3205080756888"/>
<polyline points="230 492 250 492 260 509.3205080756888 280 509.3205080756888 260 509.3205080756888 250 492 230 492"/>
<polyline points="250 422.71796769724494 260 440.03847577293374 280 440.03847577293374 290 457.3589838486225 280 474.67949192431126 290 492 280 509.3205080756888"/>
<polyline points="170 422.71796769724494 160 440.03847577293374 170 422.71796769724494 160 440.03847577293374 170 422.71796769724494 190 422.71796769724494 200 440.03847577293374"/>
<polyline points="705 967.717967697245 725 967.717967697245 705 967.717967697245 695 985.0384757729337 705 1002.3589838486225 725 1002.3589838486225 705 1002.3589838486225"/>
<polyline points="705 1037 695 1054.3205080756888 705 1071.6410161513777 695 1088.9615242270663 705 1106.2820323027552 695 1088.9615242270663 705 1106.2820323027552"/>
<polyline points="825 1037 815 1054.3205080756888 795 1054.3205080756888 785 1071.6410161513777 765 1071.6410161513777 785 1071.6410161513777 795 1054.3205080756888"/>
<polyline points="845 967.717967697245 825 967.717967697245 815 985.0384757729337 825 967.717967697245 815 985.0384757729337 825 1002.3589838486225 815 1019.6794919243113"/>
<polyline points="815 1019.6794919243113 825 1037 815 1019.6794919243113 795 1019.6794919243113 785 1002.3589838486225 795 1019.6794919243113 785 1037"/>
<polyline points="855 1054.3205080756888 875 1054.3205080756888 885 1071.6410161513777 875 1054.3205080756888 885 1037 875 1019.6794919243113 885 1002.3589838486225"/>
<polyline points="200 95.26279441628827 180 95.26279441628827 200 95.26279441628827 180 95.26279441628827 170 77.94228634059948 180 60.62177826491069 170 77.94228634059948"/>
<polyline points="240 -112.58330249197701 230 -95.26279441628824 240 -77.94228634059947 260 -77.94228634059947 240 -77.94228634059947 230 -60.62177826491069 240 -43.301270189221924"/>
<polyline points="290 -95.26279441628824 300 -77.94228634059947 290 -95.26279441628824 300 -77.94228634059947 290 -95.26279441628824 270 -95.26279441628824 260 -112.58330249197701"/>
<polyline points="240 25.98076211353316 260 25.98076211353316 240 25.98076211353316 230 8.660254037844396 240 25.98076211353316 260 25.98076211353316 270 43.301270189221924"/>
<polyline points="170 43.301270189221924 180 60.62177826491069 170 77.94228634059948 180 60.62177826491069 170 77.94228634059948 180 95.26279441628827 170 112.58330249197701"/>
<polyline points="150 112.58330249197701 140 95.26279441628827 120 95.26279441628827 140 95.26279441628827 150 77.94228634059948 140 60.62177826491069 150 77.94228634059948"/>
</svg>