<svg viewBox="-43 -43 966 926" xmlns="http://www.w3.org/2000/svg">
<style>
svg { stroke:black; stroke-width:2; fill:none;}
</style>
<polyline points="20 20 25 20 35 20 40 25 40 35 40 40"/>
<polyline points="20 0 15 0 5 0 0 5 0 15 0 25 0 35 -5 40 -15 40 -25 40 -35 40 -40 40"/>
<polyline points="40 0 35 0 25 0 20 -5 20 -15 15 -20 5 -20 0 -25 0 -35 -5 -40 -15 -40 -20 -40"/>
<polyline points="-40 -20 -40 -25 -40 -35 -40 -40"/>
<polyline points="610 200 605 200 595 200 590 205 590 215 595 220 605 220 610 225 610 235 615 240 625 240 630 240"/>
<polyline points="570 245 570 255 575 260 585 260 590 255 590 245 585 240 575 240 570 245"/>
<polyline points="610 260 610 265 610 275 605 280 595 280 585 280 575 280 570 280"/>
<polyline points="610 220 610 215 610 205 610 200"/>
<polyline points="710 240 710 235 710 225 710 215 710 205 715 200 725 200 730 200"/>
<polyline points="690 220 690 215 690 205 695 200 705 200 710 200"/>
<polyline points="670 200 675 200 685 200 690 200"/>
<polyline points="670 260 675 260 685 260 690 265 690 275 695 280 705 280 715 280 725 280 730 280"/>
<polyline points="820 230 820 225 820 215 815 210 805 210 800 215 800 225 800 235 800 245 800 255 800 265 800 270"/>
<polyline points="820 230 825 230 835 230 840 235 840 245 835 250 825 250 820 255 820 265 815 270 805 270 800 270"/>
<polyline points="800 230 805 230 815 230 820 230"/>
<polyline points="780 250 780 255 780 265 775 270 765 270 760 265 760 255 765 250 775 250 785 250 795 250 800 250"/>
<polyline points="100 0 100 -5 100 -15 105 -20 115 -20 120 -25 120 -35 125 -40 135 -40 140 -35 140 -25 140 -20"/>
<polyline points="140 40 140 35 140 25 140 15 140 5 145 0 155 0 160 5 160 15 155 20 145 20 140 20"/>
<polyline points="100 20 100 25 100 35 95 40 85 40 80 40"/>
<polyline points="160 -20 160 -25 160 -35 160 -40"/>
<polyline points="240 40 240 35 240 25 235 20 225 20 220 15 220 5 215 0 205 0 200 5 200 15 200 20"/>
<polyline points="200 -40 205 -40 215 -40 225 -40 235 -40 245 -40 255 -40 260 -35 260 -25 265 -20 275 -20 280 -20"/>
<polyline points="260 20 265 20 275 20 280 25 280 35 280 40"/>
<polyline points="260 -40 265 -40 275 -40 280 -40"/>
<polyline points="805 680 795 680 790 675 790 665 795 660 805 660 810 665 810 675 805 680"/>
<polyline points="770 680 765 680 755 680 750 680"/>
<polyline points="790 640 795 640 805 640 810 645 810 655 810 660"/>
<polyline points="770 660 775 660 785 660 790 660"/>
<polyline points="400 -5 400 -15 395 -20 385 -20 380 -15 380 -5 385 0 395 0 400 -5"/>
<polyline points="320 40 320 35 320 25 320 15 320 5 320 -5 320 -15 320 -25 320 -35 320 -40"/>
<polyline points="360 -40 365 -40 375 -40 380 -35 380 -25 380 -20"/>
<polyline points="380 20 375 20 365 20 360 25 360 35 355 40 345 40 335 40 325 40 320 40"/>
<polyline points="500 -40 495 -40 485 -40 475 -40 465 -40 455 -40 445 -40 440 -40"/>
<polyline points="440 0 445 0 455 0 465 0 475 0 480 -5 480 -15 475 -20 465 -20 460 -25 460 -35 460 -40"/>
<polyline points="440 0 440 5 440 15 440 25 440 35 440 40"/>
<polyline points="500 -20 505 -20 515 -20 520 -15 520 -5 520 5 520 15 515 20 505 20 495 20 485 20 480 20"/>
<polyline points="270 400 270 395 270 385 270 375 270 365 265 360 255 360 250 365 250 375 255 380 265 380 270 380"/>
<polyline points="250 320 255 320 265 320 270 320"/>
<polyline points="210 400 210 395 210 385 215 380 225 380 230 375 230 365 235 360 245 360 250 360"/>
<polyline points="250 340 255 340 265 340 270 340"/>
<polyline points="620 -40 625 -40 635 -40 640 -40"/>
<polyline points="620 0 615 0 605 0 595 0 585 0 580 -5 580 -15 575 -20 565 -20 560 -15 560 -5 560 0"/>
<polyline points="620 40 615 40 605 40 600 35 600 25 595 20 585 20 575 20 565 20 560 15 560 5 560 0"/>
<polyline points="620 -20 620 -25 620 -35 620 -40"/>
<polyline points="340 350 345 350 355 350 360 345 360 335 365 330 375 330 380 330"/>
<polyline points="380 370 380 365 380 355 380 350"/>
<polyline points="360 350 360 355 360 365 355 370 345 370 340 365 340 355 340 345 340 335 345 330 355 330 360 330"/>
<polyline points="320 390 315 390 305 390 300 385 300 375 300 365 300 355 305 350 315 350 325 350 335 350 340 350"/>
<polyline points="720 -20 720 -25 720 -35 725 -40 735 -40 745 -40 755 -40 760 -40"/>
<polyline points="760 0 760 -5 760 -15 760 -20"/>
<polyline points="760 0 760 5 760 15 760 25 760 35 760 40"/>
<polyline points="680 20 685 20 695 20 700 15 700 5 700 -5 700 -15 700 -25 700 -35 705 -40 715 -40 720 -40"/>
<polyline points="840 -20 835 -20 825 -20 820 -15 820 -5 815 0 805 0 800 5 800 15 800 25 800 35 800 40"/>
<polyline points="840 -40 840 -35 840 -25 845 -20 855 -20 865 -20 875 -20 880 -15 880 -5 875 0 865 0 860 0"/>
<polyline points="800 -20 805 -20 815 -20 820 -20"/>
<polyline points="840 0 845 0 855 0 860 -5 860 -15 860 -20"/>
<polyline points="690 570 685 570 675 570 665 570 655 570 645 570 635 570 630 565 630 555 630 545 630 535 630 530"/>
<polyline points="630 590 635 590 645 590 655 590 665 590 675 590 685 590 690 590"/>
<polyline points="650 530 650 535 650 545 655 550 665 550 670 555 670 565 670 570"/>
<polyline points="630 550 635 550 645 550 650 550"/>
<polyline points="-20 100 -20 95 -20 85 -15 80 -5 80 0 85 0 95 0 105 0 115 -5 120 -15 120 -20 120"/>
<polyline points="40 100 40 105 40 115 40 125 40 135 40 145 40 155 40 160"/>
<polyline points="0 80 5 80 15 80 25 80 35 80 40 80"/>
<polyline points="0 140 -5 140 -15 140 -20 145 -20 155 -25 160 -35 160 -40 160"/>
<polyline points="40 240 40 245 40 255 40 265 40 275 40 280"/>
<polyline points="0 220 0 215 0 205 -5 200 -15 200 -20 205 -20 215 -15 220 -5 220 0 225 0 235 0 240"/>
<polyline points="-40 200 -40 205 -40 215 -35 220 -25 220 -20 220"/>
<polyline points="0 240 5 240 15 240 20 245 20 255 15 260 5 260 -5 260 -15 260 -25 260 -35 260 -40 260"/>
<polyline points="-20 340 -20 335 -20 325 -15 320 -5 320 5 320 15 320 20 325 20 335 20 345 20 355 20 360"/>
<polyline points="-40 360 -40 355 -40 345 -40 335 -40 325 -40 320"/>
<polyline points="-40 360 -40 365 -40 375 -35 380 -25 380 -20 375 -20 365 -15 360 -5 360 0 365 0 375 0 380"/>
<polyline points="40 380 40 385 40 395 40 400"/>
<polyline points="40 480 40 475 40 465 40 455 40 445 40 440"/>
<polyline points="40 500 35 500 25 500 20 495 20 485 25 480 35 480 40 480"/>
<polyline points="-40 460 -40 465 -40 475 -40 485 -40 495 -40 505 -40 515 -40 520"/>
<polyline points="-20 480 -25 480 -35 480 -40 480"/>
<polyline points="-20 560 -15 560 -5 560 5 560 15 560 25 560 35 560 40 560"/>
<polyline points="0 640 5 640 15 640 25 640 35 640 40 640"/>
<polyline points="-40 600 -40 595 -40 585 -40 575 -40 565 -40 560"/>
<polyline points="0 580 5 580 15 580 20 585 20 595 25 600 35 600 40 595 40 585 40 580"/>
<polyline points="520 770 525 770 535 770 540 765 540 755 540 745 540 735 535 730 525 730 520 725 520 715 520 710"/>
<polyline points="540 750 535 750 525 750 520 745 520 735 520 730"/>
<polyline points="540 710 545 710 555 710 560 715 560 725 555 730 545 730 540 730"/>
<polyline points="520 770 520 765 520 755 520 750"/>
<polyline points="370 440 365 440 355 440 350 445 350 455 350 465 350 475 355 480 365 480 370 485 370 495 370 500"/>
<polyline points="330 480 330 475 330 465 325 460 315 460 310 465 310 475 315 480 325 480 330 485 330 495 330 500"/>
<polyline points="350 500 355 500 365 500 370 500"/>
<polyline points="350 440 350 435 350 425 345 420 335 420 330 425 330 435 325 440 315 440 310 445 310 455 310 460"/>
<polyline points="480 430 475 430 465 430 460 435 460 445 465 450 475 450 480 455 480 465 480 475 480 485 480 490"/>
<polyline points="420 490 415 490 405 490 400 490"/>
<polyline points="460 490 455 490 445 490 435 490 425 490 420 490"/>
<polyline points="480 470 475 470 465 470 460 465 460 455 460 450"/>
<polyline points="20 700 20 705 20 715 20 725 20 735 20 745 20 755 15 760 5 760 0 755 0 745 0 740"/>
<polyline points="0 740 5 740 15 740 20 740"/>
<polyline points="0 740 -5 740 -15 740 -25 740 -35 740 -40 745 -40 755 -40 760"/>
<polyline points="-40 680 -35 680 -25 680 -15 680 -5 680 5 680 15 680 25 680 35 680 40 680"/>
<polyline points="-40 800 -35 800 -25 800 -20 805 -20 815 -15 820 -5 820 5 820 15 820 20 825 20 835 20 840"/>
<polyline points="0 800 5 800 15 800 20 805 20 815 20 820"/>
<polyline points="0 840 -5 840 -15 840 -20 845 -20 855 -25 860 -35 860 -40 865 -40 875 -40 880"/>
<polyline points="0 840 0 845 0 855 5 860 15 860 20 855 20 845 25 840 35 840 40 835 40 825 40 820"/>
<polyline points="80 100 80 95 80 85 80 80"/>
<polyline points="160 160 155 160 145 160 140 155 140 145 140 135 140 125 135 120 125 120 120 125 120 135 120 140"/>
<polyline points="140 100 135 100 125 100 115 100 105 100 95 100 85 100 80 100"/>
<polyline points="120 100 120 105 120 115 120 120"/>
<polyline points="280 120 275 120 265 120 260 115 260 105 255 100 245 100 235 100 225 100 220 95 220 85 220 80"/>
<polyline points="240 160 235 160 225 160 220 155 220 145 215 140 205 140 200 145 200 155 200 160"/>
<polyline points="280 160 275 160 265 160 260 155 260 145 260 135 260 125 260 120"/>
<polyline points="280 160 280 155 280 145 275 140 265 140 260 140"/>
<polyline points="400 80 395 80 385 80 380 85 380 95 375 100 365 100 360 105 360 115 360 125 360 135 360 140"/>
<polyline points="380 140 375 140 365 140 355 140 345 140 335 140 325 140 320 135 320 125 320 115 320 105 320 100"/>
<polyline points="340 100 340 95 340 85 345 80 355 80 365 80 375 80 380 80"/>
<polyline points="395 160 385 160 380 155 380 145 385 140 395 140 400 145 400 155 395 160"/>
<polyline points="500 160 505 160 515 160 520 160"/>
<polyline points="500 120 495 120 485 120 480 115 480 105 475 100 465 100 460 105 460 115 460 125 460 135 460 140"/>
<polyline points="440 140 440 135 440 125 440 115 440 105 445 100 455 100 460 100"/>
<polyline points="520 100 515 100 505 100 500 95 500 85 505 80 515 80 520 80"/>
<polyline points="620 140 620 145 620 155 615 160 605 160 595 160 585 160 575 160 565 160 560 160"/>
<polyline points="580 120 575 120 565 120 560 115 560 105 560 95 560 85 560 80"/>
<polyline points="620 140 625 140 635 140 640 145 640 155 640 160"/>
<polyline points="580 120 580 115 580 105 580 95 580 85 580 80"/>
<polyline points="680 100 680 105 680 115 680 125 680 135 680 145 680 155 680 160"/>
<polyline points="680 100 685 100 695 100 705 100 715 100 725 100 735 100 740 95 740 85 745 80 755 80 760 80"/>
<polyline points="700 80 700 85 700 95 700 100"/>
<polyline points="760 140 760 135 760 125 760 115 760 105 760 100"/>
<polyline points="430 520 435 520 445 520 450 525 450 535 445 540 435 540 425 540 415 540 410 545 410 555 410 560"/>
<polyline points="470 600 465 600 455 600 450 595 450 585 445 580 435 580 425 580 415 580 410 575 410 565 410 560"/>
<polyline points="450 560 450 555 450 545 450 540"/>
<polyline points="430 520 430 525 430 535 430 540"/>
<polyline points="860 80 855 80 845 80 840 85 840 95 835 100 825 100 820 95 820 85 825 80 835 80 840 80"/>
<polyline points="800 120 800 115 800 105 800 95 800 85 800 80"/>
<polyline points="840 120 840 125 840 135 835 140 825 140 820 145 820 155 815 160 805 160 800 160"/>
<polyline points="880 160 875 160 865 160 860 155 860 145 855 140 845 140 840 140"/>
<polyline points="800 560 795 560 785 560 775 560 765 560 760 555 760 545 755 540 745 540 735 540 725 540 720 540"/>
<polyline points="780 560 780 565 780 575 785 580 795 580 800 580"/>
<polyline points="760 560 760 565 760 575 765 580 775 580 780 580"/>
<polyline points="760 560 755 560 745 560 735 560 725 560 720 565 720 575 720 580"/>
<polyline points="160 240 160 235 160 225 155 220 145 220 135 220 125 220 120 215 120 205 125 200 135 200 140 200"/>
<polyline points="160 240 155 240 145 240 140 245 140 255 140 265 140 275 145 280 155 280 160 280"/>
<polyline points="100 240 100 245 100 255 100 265 100 275 105 280 115 280 125 280 135 280 140 280"/>
<polyline points="100 240 95 240 85 240 80 235 80 225 85 220 95 220 105 220 115 220 120 220"/>
<polyline points="470 680 470 685 470 695 465 700 455 700 450 695 450 685 455 680 465 680 470 675 470 665 470 660"/>
<polyline points="430 720 430 715 430 705 425 700 415 700 410 695 410 685 410 675 410 665 415 660 425 660 430 660"/>
<polyline points="410 660 410 655 410 645 410 640"/>
<polyline points="410 700 410 705 410 715 410 720"/>
<polyline points="140 360 145 360 155 360 160 365 160 375 160 385 160 395 160 400"/>
<polyline points="100 400 95 400 85 400 80 400"/>
<polyline points="120 340 125 340 135 340 140 345 140 355 140 365 140 375 135 380 125 380 120 375 120 365 120 360"/>
<polyline points="140 360 135 360 125 360 120 355 120 345 115 340 105 340 100 335 100 325 105 320 115 320 120 320"/>
<polyline points="470 840 465 840 455 840 445 840 435 840 430 835 430 825 430 815 430 805 435 800 445 800 450 800"/>
<polyline points="410 840 410 835 410 825 410 815 410 805 410 795 410 785 415 780 425 780 430 775 430 765 430 760"/>
<polyline points="410 800 415 800 425 800 430 800"/>
<polyline points="450 840 450 835 450 825 455 820 465 820 470 825 470 835 470 840"/>
<polyline points="80 520 80 515 80 505 80 495 80 485 85 480 95 480 100 485 100 495 105 500 115 500 120 500"/>
<polyline points="80 480 80 475 80 465 80 455 80 445 80 440"/>
<polyline points="160 460 160 465 160 475 160 485 160 495 155 500 145 500 135 500 125 500 120 505 120 515 120 520"/>
<polyline points="80 520 85 520 95 520 105 520 115 520 120 520"/>
<polyline points="840 560 840 555 840 545 840 540"/>
<polyline points="900 580 900 575 900 565 895 560 885 560 880 565 880 575 875 580 865 580 855 580 845 580 840 580"/>
<polyline points="920 580 920 575 920 565 920 555 920 545 920 540"/>
<polyline points="860 540 865 540 875 540 880 545 880 555 880 560"/>
<polyline points="120 560 120 565 120 575 125 580 135 580 140 585 140 595 145 600 155 600 160 605 160 615 160 620"/>
<polyline points="120 620 115 620 105 620 95 620 85 620 80 625 80 635 80 640"/>
<polyline points="100 560 105 560 115 560 120 560"/>
<polyline points="140 640 145 640 155 640 160 640"/>
<polyline points="650 760 650 755 650 745 645 740 635 740 630 735 630 725 625 720 615 720 605 720 595 720 590 720"/>
<polyline points="650 760 645 760 635 760 625 760 615 760 610 755 610 745 615 740 625 740 630 740"/>
<polyline points="500 680 500 675 500 665 505 660 515 660 520 655 520 645 515 640 505 640 500 640"/>
<polyline points="560 640 555 640 545 640 535 640 525 640 520 640"/>
<polyline points="540 640 540 645 540 655 540 665 540 675 545 680 555 680 560 675 560 665 555 660 545 660 540 660"/>
<polyline points="580 660 575 660 565 660 560 660"/>
<polyline points="120 680 120 685 120 695 115 700 105 700 95 700 85 700 80 695 80 685 80 680"/>
<polyline points="100 720 105 720 115 720 120 725 120 735 125 740 135 740 145 740 155 740 160 745 160 755 160 760"/>
<polyline points="160 680 155 680 145 680 140 685 140 695 135 700 125 700 120 700"/>
<polyline points="80 760 80 755 80 745 80 735 80 725 80 715 80 705 80 700"/>
<polyline points="100 860 100 865 100 875 105 880 115 880 120 875 120 865 125 860 135 860 145 860 155 860 160 860"/>
<polyline points="140 840 140 845 140 855 140 860"/>
<polyline points="100 840 100 835 100 825 105 820 115 820 120 815 120 805 125 800 135 800 145 800 155 800 160 800"/>
<polyline points="80 820 85 820 95 820 100 820"/>
<polyline points="205 280 215 280 220 275 220 265 215 260 205 260 200 265 200 275 205 280"/>
<polyline points="220 260 220 255 220 245 220 235 220 225 225 220 235 220 240 225 240 235 245 240 255 240 260 240"/>
<polyline points="280 220 280 215 280 205 280 200"/>
<polyline points="220 200 220 205 220 215 220 220"/>
<polyline points="540 570 540 575 540 585 535 590 525 590 515 590 505 590 500 585 500 575 505 570 515 570 520 570"/>
<polyline points="520 570 520 575 520 585 520 590"/>
<polyline points="560 530 565 530 575 530 580 530"/>
<polyline points="540 570 535 570 525 570 520 570"/>
<polyline points="360 200 360 205 360 215 355 220 345 220 340 225 340 235 335 240 325 240 320 235 320 225 320 220"/>
<polyline points="360 260 365 260 375 260 380 265 380 275 385 280 395 280 400 280"/>
<polyline points="360 260 355 260 345 260 340 255 340 245 340 240"/>
<polyline points="320 220 325 220 335 220 340 220"/>
<polyline points="660 660 655 660 645 660 640 655 640 645 645 640 655 640 665 640 675 640 685 640 695 640 700 640"/>
<polyline points="620 680 625 680 635 680 645 680 655 680 665 680 675 680 680 675 680 665 685 660 695 660 700 660"/>
<polyline points="680 660 675 660 665 660 660 655 660 645 660 640"/>
<polyline points="680 680 685 680 695 680 700 680"/>
<polyline points="520 260 515 260 505 260 495 260 485 260 480 265 480 275 485 280 495 280 505 280 515 280 520 280"/>
<polyline points="440 240 440 245 440 255 440 265 440 275 440 280"/>
<polyline points="480 220 480 225 480 235 485 240 495 240 505 240 515 240 520 245 520 255 520 260"/>
<polyline points="500 240 500 235 500 225 500 215 500 205 495 200 485 200 475 200 465 200 460 205 460 215 460 220"/>
</svg>