<svg viewBox="-89.30248081360817 -76.36972686266226 174.4275391499167 120.61171200718695" xmlns="http://www.w3.org/2000/svg">
<style>
svg { stroke:black; stroke-width:2px; fill:none;}
</style>
<polyline points="-6.244614499134275 -6.291532550650343 -16.107413130237695 -7.399433351116673"/>
<polyline points="-16.107413130237695 -7.399433351116673 -5.62422449661345 4.455782218443982"/>
<polyline points="-6.244614499134275 -6.291532550650343 -5.62422449661345 4.455782218443982"/>
<polyline points="-16.107413130237695 -7.399433351116673 -23.596538169411595 5.498738327963689"/>
<polyline points="-23.596538169411595 5.498738327963689 -5.62422449661345 4.455782218443982"/>
<polyline points="-16.107413130237695 -7.399433351116673 -5.62422449661345 4.455782218443982"/>
<polyline points="4.544062055499514 13.881199075920051 9.373663108502024 3.932219917540352"/>
<polyline points="9.373663108502024 3.932219917540352 -5.62422449661345 4.455782218443982"/>
<polyline points="4.544062055499514 13.881199075920051 -5.62422449661345 4.455782218443982"/>
<polyline points="-5.62422449661345 4.455782218443982 9.373663108502024 3.932219917540352"/>
<polyline points="9.373663108502024 3.932219917540352 -6.244614499134275 -6.291532550650343"/>
<polyline points="-5.62422449661345 4.455782218443982 -6.244614499134275 -6.291532550650343"/>
<polyline points="-23.596538169411595 5.498738327963689 4.544062055499514 13.881199075920051"/>
<polyline points="4.544062055499514 13.881199075920051 -5.62422449661345 4.455782218443982"/>
<polyline points="-23.596538169411595 5.498738327963689 -5.62422449661345 4.455782218443982"/>
<polyline points="9.373663108502024 3.932219917540352 16.761892703827375 -23.280424701008187"/>
<polyline points="16.761892703827375 -23.280424701008187 -6.244614499134275 -6.291532550650343"/>
<polyline points="9.373663108502024 3.932219917540352 -6.244614499134275 -6.291532550650343"/>
<polyline points="-6.244614499134275 -6.291532550650343 16.761892703827375 -23.280424701008187"/>
<polyline points="16.761892703827375 -23.280424701008187 -16.107413130237695 -7.399433351116673"/>
<polyline points="-6.244614499134275 -6.291532550650343 -16.107413130237695 -7.399433351116673"/>
<polyline points="4.544062055499514 13.881199075920051 25.640845002388033 12.696390492742552"/>
<polyline points="25.640845002388033 12.696390492742552 9.373663108502024 3.932219917540352"/>
<polyline points="4.544062055499514 13.881199075920051 9.373663108502024 3.932219917540352"/>
<polyline points="9.373663108502024 3.932219917540352 25.640845002388033 12.696390492742552"/>
<polyline points="25.640845002388033 12.696390492742552 16.761892703827375 -23.280424701008187"/>
<polyline points="9.373663108502024 3.932219917540352 16.761892703827375 -23.280424701008187"/>
<polyline points="-23.596538169411595 5.498738327963689 1.0048210268312763 42.5575070323724"/>
<polyline points="1.0048210268312763 42.5575070323724 4.544062055499514 13.881199075920051"/>
<polyline points="-23.596538169411595 5.498738327963689 4.544062055499514 13.881199075920051"/>
<polyline points="4.544062055499514 13.881199075920051 29.29850841318555 43.74186716712666"/>
<polyline points="29.29850841318555 43.74186716712666 25.640845002388033 12.696390492742552"/>
<polyline points="4.544062055499514 13.881199075920051 25.640845002388033 12.696390492742552"/>
<polyline points="1.0048210268312763 42.5575070323724 29.29850841318555 43.74186716712666"/>
<polyline points="29.29850841318555 43.74186716712666 4.544062055499514 13.881199075920051"/>
<polyline points="1.0048210268312763 42.5575070323724 4.544062055499514 13.881199075920051"/>
<polyline points="-52.73312807622128 -56.37898735745067 -69.54082875582509 -19.77646338481926"/>
<polyline points="-69.54082875582509 -19.77646338481926 -16.107413130237695 -7.399433351116673"/>
<polyline points="-52.73312807622128 -56.37898735745067 -16.107413130237695 -7.399433351116673"/>
<polyline points="-16.107413130237695 -7.399433351116673 -69.54082875582509 -19.77646338481926"/>
<polyline points="-69.54082875582509 -19.77646338481926 -23.596538169411595 5.498738327963689"/>
<polyline points="-16.107413130237695 -7.399433351116673 -23.596538169411595 5.498738327963689"/>
<polyline points="-23.596538169411595 5.498738327963689 -89.30248081360817 13.175698372481534"/>
<polyline points="-89.30248081360817 13.175698372481534 1.0048210268312763 42.5575070323724"/>
<polyline points="-23.596538169411595 5.498738327963689 1.0048210268312763 42.5575070323724"/>
<polyline points="-25.739311649035173 -75.09566715484722 -52.73312807622128 -56.37898735745067"/>
<polyline points="-52.73312807622128 -56.37898735745067 -16.107413130237695 -7.399433351116673"/>
<polyline points="-25.739311649035173 -75.09566715484722 -16.107413130237695 -7.399433351116673"/>
<polyline points="29.29850841318555 43.74186716712666 41.91660830749679 44.24198514452468"/>
<polyline points="41.91660830749679 44.24198514452468 25.640845002388033 12.696390492742552"/>
<polyline points="29.29850841318555 43.74186716712666 25.640845002388033 12.696390492742552"/>
<polyline points="50.98578373172041 -63.59113173578541 30.118224017836777 -76.36972686266226"/>
<polyline points="30.118224017836777 -76.36972686266226 16.761892703827375 -23.280424701008187"/>
<polyline points="50.98578373172041 -63.59113173578541 16.761892703827375 -23.280424701008187"/>
<polyline points="16.761892703827375 -23.280424701008187 -25.739311649035173 -75.09566715484722"/>
<polyline points="-25.739311649035173 -75.09566715484722 -16.107413130237695 -7.399433351116673"/>
<polyline points="16.761892703827375 -23.280424701008187 -16.107413130237695 -7.399433351116673"/>
<polyline points="-25.739311649035173 -75.09566715484722 -27.911784200199197 -75.38531883776032"/>
<polyline points="-27.911784200199197 -75.38531883776032 -52.73312807622128 -56.37898735745067"/>
<polyline points="-25.739311649035173 -75.09566715484722 -52.73312807622128 -56.37898735745067"/>
<polyline points="-52.73312807622128 -56.37898735745067 -89.30248081360817 13.175698372481534"/>
<polyline points="-89.30248081360817 13.175698372481534 -69.54082875582509 -19.77646338481926"/>
<polyline points="-52.73312807622128 -56.37898735745067 -69.54082875582509 -19.77646338481926"/>
<polyline points="-69.54082875582509 -19.77646338481926 -89.30248081360817 13.175698372481534"/>
<polyline points="-89.30248081360817 13.175698372481534 -23.596538169411595 5.498738327963689"/>
<polyline points="-69.54082875582509 -19.77646338481926 -23.596538169411595 5.498738327963689"/>
<polyline points="50.98578373172041 -63.59113173578541 16.761892703827375 -23.280424701008187"/>
<polyline points="16.761892703827375 -23.280424701008187 80.24905518506277 -32.65339711252991"/>
<polyline points="50.98578373172041 -63.59113173578541 80.24905518506277 -32.65339711252991"/>
<polyline points="16.761892703827375 -23.280424701008187 30.118224017836777 -76.36972686266226"/>
<polyline points="30.118224017836777 -76.36972686266226 -25.739311649035173 -75.09566715484722"/>
<polyline points="16.761892703827375 -23.280424701008187 -25.739311649035173 -75.09566715484722"/>
<polyline points="-25.739311649035173 -75.09566715484722 30.118224017836777 -76.36972686266226"/>
<polyline points="30.118224017836777 -76.36972686266226 -27.911784200199197 -75.38531883776032"/>
<polyline points="-25.739311649035173 -75.09566715484722 -27.911784200199197 -75.38531883776032"/>
<polyline points="80.24905518506277 -32.65339711252991 16.761892703827375 -23.280424701008187"/>
<polyline points="16.761892703827375 -23.280424701008187 25.640845002388033 12.696390492742552"/>
<polyline points="80.24905518506277 -32.65339711252991 25.640845002388033 12.696390492742552"/>
<polyline points="85.12505833630851 -28.261582639483635 80.24905518506277 -32.65339711252991"/>
<polyline points="80.24905518506277 -32.65339711252991 25.640845002388033 12.696390492742552"/>
<polyline points="85.12505833630851 -28.261582639483635 25.640845002388033 12.696390492742552"/>
<polyline points="41.91660830749679 44.24198514452468 85.12505833630851 -28.261582639483635"/>
<polyline points="85.12505833630851 -28.261582639483635 25.640845002388033 12.696390492742552"/>
<polyline points="41.91660830749679 44.24198514452468 25.640845002388033 12.696390492742552"/>
<polyline points="80.24905518506277 -32.65339711252991 85.12505833630851 -28.261582639483635"/>
<polyline points="85.12505833630851 -28.261582639483635 50.98578373172041 -63.59113173578541"/>
<polyline points="80.24905518506277 -32.65339711252991 50.98578373172041 -63.59113173578541"/>
</svg>