<svg baseProfile="full" fill-opacity="0.0" height="100%" stroke="black" stroke-width="1" version="1.1" viewBox="-82.24112702240227,-91.54208807338178,142.8288408534559,167.99706792037074" width="100%" xmlns="http://www.w3.org/2000/svg" xmlns:ev="http://www.w3.org/2001/xml-events" xmlns:xlink="http://www.w3.org/1999/xlink"><defs /><polyline points="-3.1256930245934034,-8.024842368259526 -1.4483488319773619,-0.5446573703906153" /><polyline points="-1.4483488319773619,-0.5446573703906153 10.99180050669586,-6.2275838496081946" /><polyline points="-3.1256930245934034,-8.024842368259526 10.99180050669586,-6.2275838496081946" /><polyline points="10.99180050669586,-6.2275838496081946 19.38131855026341,-13.799139739847947" /><polyline points="19.38131855026341,-13.799139739847947 -3.1256930245934034,-8.024842368259526" /><polyline points="10.99180050669586,-6.2275838496081946 -3.1256930245934034,-8.024842368259526" /><polyline points="-3.1256930245934034,-8.024842368259526 -8.745987519541469,15.162222685752722" /><polyline points="-8.745987519541469,15.162222685752722 -1.4483488319773619,-0.5446573703906153" /><polyline points="-3.1256930245934034,-8.024842368259526 -1.4483488319773619,-0.5446573703906153" /><polyline points="-1.4483488319773619,-0.5446573703906153 17.032303811570838,16.088142058857706" /><polyline points="17.032303811570838,16.088142058857706 10.99180050669586,-6.2275838496081946" /><polyline points="-1.4483488319773619,-0.5446573703906153 10.99180050669586,-6.2275838496081946" /><polyline points="10.99180050669586,-6.2275838496081946 17.032303811570838,16.088142058857706" /><polyline points="17.032303811570838,16.088142058857706 19.38131855026341,-13.799139739847947" /><polyline points="10.99180050669586,-6.2275838496081946 19.38131855026341,-13.799139739847947" /><polyline points="-8.745987519541469,15.162222685752722 17.032303811570838,16.088142058857706" /><polyline points="17.032303811570838,16.088142058857706 -1.4483488319773619,-0.5446573703906153" /><polyline points="-8.745987519541469,15.162222685752722 -1.4483488319773619,-0.5446573703906153" /><polyline points="0.22480212142307449,39.89388020063643 23.36630513497679,20.126835689876003" /><polyline points="23.36630513497679,20.126835689876003 17.032303811570838,16.088142058857706" /><polyline points="0.22480212142307449,39.89388020063643 17.032303811570838,16.088142058857706" /><polyline points="17.032303811570838,16.088142058857706 23.36630513497679,20.126835689876003" /><polyline points="23.36630513497679,20.126835689876003 19.38131855026341,-13.799139739847947" /><polyline points="17.032303811570838,16.088142058857706 19.38131855026341,-13.799139739847947" /><polyline points="-8.745987519541469,15.162222685752722 0.22480212142307449,39.89388020063643" /><polyline points="0.22480212142307449,39.89388020063643 17.032303811570838,16.088142058857706" /><polyline points="-8.745987519541469,15.162222685752722 17.032303811570838,16.088142058857706" /><polyline points="-12.665425316819803,32.66091260991138 0.22480212142307449,39.89388020063643" /><polyline points="0.22480212142307449,39.89388020063643 -8.745987519541469,15.162222685752722" /><polyline points="-12.665425316819803,32.66091260991138 -8.745987519541469,15.162222685752722" /><polyline points="32.417461928218884,44.81804980977308 54.3190372823458,17.66775018856786" /><polyline points="54.3190372823458,17.66775018856786 23.36630513497679,20.126835689876003" /><polyline points="32.417461928218884,44.81804980977308 23.36630513497679,20.126835689876003" /><polyline points="23.36630513497679,20.126835689876003 54.3190372823458,17.66775018856786" /><polyline points="54.3190372823458,17.66775018856786 19.38131855026341,-13.799139739847947" /><polyline points="23.36630513497679,20.126835689876003 19.38131855026341,-13.799139739847947" /><polyline points="0.22480212142307449,39.89388020063643 32.417461928218884,44.81804980977308" /><polyline points="32.417461928218884,44.81804980977308 23.36630513497679,20.126835689876003" /><polyline points="0.22480212142307449,39.89388020063643 23.36630513497679,20.126835689876003" /><polyline points="54.3190372823458,17.66775018856786 33.054371828750064,-57.410343142758144" /><polyline points="33.054371828750064,-57.410343142758144 19.38131855026341,-13.799139739847947" /><polyline points="54.3190372823458,17.66775018856786 19.38131855026341,-13.799139739847947" /><polyline points="19.38131855026341,-13.799139739847947 33.054371828750064,-57.410343142758144" /><polyline points="33.054371828750064,-57.410343142758144 -3.1256930245934034,-8.024842368259526" /><polyline points="19.38131855026341,-13.799139739847947 -3.1256930245934034,-8.024842368259526" /><polyline points="58.206697243284424,37.94301262360351 60.58771383105361,19.81895610264353" /><polyline points="60.58771383105361,19.81895610264353 54.3190372823458,17.66775018856786" /><polyline points="58.206697243284424,37.94301262360351 54.3190372823458,17.66775018856786" /><polyline points="54.3190372823458,17.66775018856786 60.58771383105361,19.81895610264353" /><polyline points="60.58771383105361,19.81895610264353 33.054371828750064,-57.410343142758144" /><polyline points="54.3190372823458,17.66775018856786 33.054371828750064,-57.410343142758144" /><polyline points="33.054371828750064,-57.410343142758144 -13.794226544429014,-80.56445548568931" /><polyline points="-13.794226544429014,-80.56445548568931 -3.1256930245934034,-8.024842368259526" /><polyline points="33.054371828750064,-57.410343142758144 -3.1256930245934034,-8.024842368259526" /><polyline points="32.417461928218884,44.81804980977308 58.206697243284424,37.94301262360351" /><polyline points="58.206697243284424,37.94301262360351 54.3190372823458,17.66775018856786" /><polyline points="32.417461928218884,44.81804980977308 54.3190372823458,17.66775018856786" /><polyline points="26.565870515560665,-70.71227038479415 -13.794226544429014,-80.56445548568931" /><polyline points="-13.794226544429014,-80.56445548568931 33.054371828750064,-57.410343142758144" /><polyline points="26.565870515560665,-70.71227038479415 33.054371828750064,-57.410343142758144" /><polyline points="-3.1256930245934034,-8.024842368259526 -70.34296999123396,-27.956216377707328" /><polyline points="-70.34296999123396,-27.956216377707328 -8.745987519541469,15.162222685752722" /><polyline points="-3.1256930245934034,-8.024842368259526 -8.745987519541469,15.162222685752722" /><polyline points="-8.745987519541469,15.162222685752722 -82.24112702240227,23.715206692954734" /><polyline points="-82.24112702240227,23.715206692954734 -12.665425316819803,32.66091260991138" /><polyline points="-8.745987519541469,15.162222685752722 -12.665425316819803,32.66091260991138" /><polyline points="-13.794226544429014,-80.56445548568931 -70.34296999123396,-27.956216377707328" /><polyline points="-70.34296999123396,-27.956216377707328 -3.1256930245934034,-8.024842368259526" /><polyline points="-13.794226544429014,-80.56445548568931 -3.1256930245934034,-8.024842368259526" /><polyline points="-12.665425316819803,32.66091260991138 -41.04632911644149,76.45497984698898" /><polyline points="-41.04632911644149,76.45497984698898 0.22480212142307449,39.89388020063643" /><polyline points="-12.665425316819803,32.66091260991138 0.22480212142307449,39.89388020063643" /><polyline points="-70.34296999123396,-27.956216377707328 -82.24112702240227,23.715206692954734" /><polyline points="-82.24112702240227,23.715206692954734 -8.745987519541469,15.162222685752722" /><polyline points="-70.34296999123396,-27.956216377707328 -8.745987519541469,15.162222685752722" /><polyline points="33.054371828750064,-57.410343142758144 38.026022991348626,-91.54208807338178" /><polyline points="38.026022991348626,-91.54208807338178 26.565870515560665,-70.71227038479415" /><polyline points="33.054371828750064,-57.410343142758144 26.565870515560665,-70.71227038479415" /><polyline points="26.565870515560665,-70.71227038479415 38.026022991348626,-91.54208807338178" /><polyline points="38.026022991348626,-91.54208807338178 -13.794226544429014,-80.56445548568931" /><polyline points="26.565870515560665,-70.71227038479415 -13.794226544429014,-80.56445548568931" /><polyline points="60.58771383105361,19.81895610264353 38.026022991348626,-91.54208807338178" /><polyline points="38.026022991348626,-91.54208807338178 33.054371828750064,-57.410343142758144" /><polyline points="60.58771383105361,19.81895610264353 33.054371828750064,-57.410343142758144" /><polyline points="-82.24112702240227,23.715206692954734 -41.04632911644149,76.45497984698898" /><polyline points="-41.04632911644149,76.45497984698898 -12.665425316819803,32.66091260991138" /><polyline points="-82.24112702240227,23.715206692954734 -12.665425316819803,32.66091260991138" /><polyline points="0.22480212142307449,39.89388020063643 -41.04632911644149,76.45497984698898" /><polyline points="-41.04632911644149,76.45497984698898 32.417461928218884,44.81804980977308" /><polyline points="0.22480212142307449,39.89388020063643 32.417461928218884,44.81804980977308" /><polyline points="32.417461928218884,44.81804980977308 -41.04632911644149,76.45497984698898" /><polyline points="-41.04632911644149,76.45497984698898 58.206697243284424,37.94301262360351" /><polyline points="32.417461928218884,44.81804980977308 58.206697243284424,37.94301262360351" /></svg>
