<svg baseProfile="full" fill-opacity="0.0" height="100%" stroke="black" stroke-width="1" version="1.1" viewBox="-197.9898987322333,-87.50446417183576,395.9797974644669,226.27416997969576" width="100%" xmlns="http://www.w3.org/2000/svg" xmlns:ev="http://www.w3.org/2001/xml-events" xmlns:xlink="http://www.w3.org/1999/xlink"><defs /><polyline points="-113.1370849898477,110.4854345603966 -120.2081528017133,117.5565023722634" /><polyline points="-120.2081528017133,117.5565023722635 -127.2792206135788,124.6275701841289" /><polyline points="-127.2792206135788,124.6275701841289 -120.2081528017134,131.6986379959944" /><polyline points="-120.2081528017134,131.6986379959944 -113.137084989848,138.76970580786" /><polyline points="-113.137084989848,138.76970580786 -120.2081528017134,131.6986379959944" /><polyline points="-120.2081528017134,131.6986379959944 -127.2792206135788,124.6275701841289" /><polyline points="-127.2792206135788,124.6275701841289 -134.3502884254443,131.6986379959944" /><polyline points="-134.3502884254443,131.6986379959944 -141.4213562373098,138.7697058078598" /><polyline points="-141.4213562373098,138.7697058078598 -148.4924240491752,131.6986379959943" /><polyline points="-148.4924240491752,131.6986379959943 -155.5634918610406,124.6275701841288" /><polyline points="-155.5634918610406,124.6275701841288 -162.6345596729061,131.6986379959942" /><polyline points="-162.6345596729061,131.6986379959942 -169.7056274847716,138.7697058078597" /><polyline points="-169.7056274847716,138.7697058078597 -162.6345596729061,131.6986379959942" /><polyline points="-162.6345596729061,131.6986379959942 -155.5634918610406,124.6275701841288" /><polyline points="-155.5634918610406,124.6275701841288 -162.634559672906,117.5565023722633" /><polyline points="-162.634559672906,117.5565023722633 -169.7056274847715,110.4854345603977" /><polyline points="-169.7056274847715,110.4854345603977 -176.7766952966369,103.4143667485322" /><polyline points="-176.7766952966369,103.4143667485322 -183.8477631085023,96.34329893666673" /><polyline points="-183.8477631085023,96.34329893666673 -190.9188309203677,103.4143667485322" /><polyline points="-190.9188309203677,103.4143667485322 -197.9898987322333,110.4854345603976" /><polyline points="-197.9898987322333,110.4854345603976 -190.9188309203677,103.4143667485321" /><polyline points="-190.9188309203677,103.4143667485321 -183.8477631085023,96.3432989366667" /><polyline points="-183.8477631085023,96.3432989366667 -190.9188309203677,89.27223112480115" /><polyline points="-190.9188309203677,89.27223112480115 -197.9898987322332,82.20116331293569" /><polyline points="-197.9898987322332,82.20116331293569 -190.9188309203676,75.13009550107024" /><polyline points="-190.9188309203676,75.13009550107024 -183.8477631085022,68.05902768920478" /><polyline points="-183.8477631085022,68.05902768920478 -190.9188309203676,60.98795987733927" /><polyline points="-190.9188309203676,60.98795987733927 -197.989898732233,53.91689206547379" /><polyline points="-197.989898732233,53.91689206547379 -190.9188309203675,60.98795987733926" /><polyline points="-190.9188309203675,60.98795987733926 -183.8477631085021,68.05902768920477" /><polyline points="-183.8477631085021,68.05902768920477 -176.7766952966366,60.98795987733927" /><polyline points="-176.7766952966366,60.98795987733927 -169.7056274847712,53.91689206547382" /><polyline points="-169.7056274847712,53.91689206547382 -176.7766952966366,46.84582425360831" /><polyline points="-176.7766952966366,46.84582425360831 -183.8477631085021,39.77475644174282" /><polyline points="-183.8477631085021,39.77475644174282 -190.9188309203676,46.8458242536083" /><polyline points="-190.9188309203676,46.8458242536083 -197.9898987322331,53.91689206547383" /><polyline points="-197.9898987322331,53.91689206547383 -190.9188309203676,46.8458242536083" /><polyline points="-190.9188309203676,46.8458242536083 -183.8477631085021,39.77475644174282" /><polyline points="-183.8477631085021,39.77475644174282 -190.9188309203676,32.70368862987732" /><polyline points="-190.9188309203676,32.70368862987732 -197.9898987322331,25.63262081801185" /><polyline points="-197.9898987322331,25.63262081801185 -190.9188309203675,18.56155300614642" /><polyline points="-190.9188309203675,18.56155300614642 -183.8477631085021,11.49048519428094" /><polyline points="-183.8477631085021,11.49048519428094 -190.9188309203676,4.419417382415448" /><polyline points="-190.9188309203676,4.419417382415448 -197.989898732233,-2.65165042945007" /><polyline points="-197.989898732233,-2.65165042945007 -190.9188309203676,4.419417382415449" /><polyline points="-190.9188309203676,4.419417382415449 -183.8477631085021,11.49048519428094" /><polyline points="-183.8477631085021,11.49048519428094 -176.7766952966366,4.419417382415422" /><polyline points="-176.7766952966366,4.419417382415422 -169.7056274847712,-2.65165042945006" /><polyline points="-169.7056274847712,-2.65165042945006 -162.6345596729056,-9.722718241315489" /><polyline points="-162.6345596729056,-9.722718241315489 -155.5634918610402,-16.79378605318096" /><polyline points="-155.5634918610402,-16.79378605318096 -162.6345596729056,-23.86485386504649" /><polyline points="-162.6345596729056,-23.86485386504649 -169.7056274847711,-30.93592167691194" /><polyline points="-169.7056274847711,-30.93592167691194 -162.6345596729056,-23.86485386504649" /><polyline points="-162.6345596729056,-23.86485386504649 -155.5634918610402,-16.79378605318096" /><polyline points="-155.5634918610402,-16.79378605318096 -148.4924240491747,-23.86485386504647" /><polyline points="-148.4924240491747,-23.86485386504647 -141.4213562373092,-30.9359216769119" /><polyline points="-141.4213562373092,-30.9359216769119 -134.3502884254437,-23.86485386504642" /><polyline points="-134.3502884254437,-23.86485386504642 -127.2792206135782,-16.79378605318094" /><polyline points="-127.2792206135782,-16.79378605318094 -120.2081528017128,-23.86485386504642" /><polyline points="-120.2081528017128,-23.86485386504642 -113.1370849898474,-30.93592167691192" /><polyline points="-113.1370849898474,-30.93592167691192 -120.2081528017128,-23.86485386504642" /><polyline points="-120.2081528017128,-23.86485386504642 -127.2792206135782,-16.79378605318094" /><polyline points="-127.2792206135782,-16.79378605318094 -120.2081528017128,-9.722718241315485" /><polyline points="-120.2081528017128,-9.722718241315485 -113.1370849898474,-2.651650429449989" /><polyline points="-113.1370849898474,-2.651650429449989 -120.2081528017128,-9.722718241315487" /><polyline points="-120.2081528017128,-9.722718241315487 -127.2792206135782,-16.79378605318094" /><polyline points="-127.2792206135782,-16.79378605318094 -134.3502884254438,-9.722718241315519" /><polyline points="-134.3502884254438,-9.722718241315519 -141.4213562373093,-2.651650429449996" /><polyline points="-141.4213562373093,-2.651650429449996 -134.3502884254438,-9.722718241315519" /><polyline points="-134.3502884254438,-9.722718241315519 -127.2792206135782,-16.79378605318094" /><polyline points="-127.2792206135782,-16.79378605318094 -134.3502884254437,-23.86485386504642" /><polyline points="-134.3502884254437,-23.86485386504642 -141.4213562373092,-30.9359216769119" /><polyline points="-141.4213562373092,-30.9359216769119 -134.3502884254437,-38.00698948877739" /><polyline points="-134.3502884254437,-38.00698948877739 -127.2792206135783,-45.0780573006429" /><polyline points="-127.2792206135783,-45.0780573006429 -134.3502884254438,-52.14912511250837" /><polyline points="-134.3502884254438,-52.14912511250837 -141.4213562373092,-59.22019292437386" /><polyline points="-141.4213562373092,-59.22019292437386 -134.3502884254438,-52.14912511250837" /><polyline points="-134.3502884254438,-52.14912511250837 -127.2792206135783,-45.0780573006429" /><polyline points="-127.2792206135783,-45.0780573006429 -120.2081528017128,-52.14912511250839" /><polyline points="-120.2081528017128,-52.14912511250839 -113.1370849898473,-59.22019292437382" /><polyline points="-113.1370849898473,-59.22019292437382 -106.0660171779818,-66.29126073623934" /><polyline points="-106.0660171779818,-66.29126073623934 -98.99494936611639,-73.36232854810484" /><polyline points="-98.99494936611639,-73.36232854810484 -106.0660171779818,-80.43339635997026" /><polyline points="-106.0660171779818,-80.43339635997026 -113.1370849898473,-87.50446417183576" /><polyline points="-113.1370849898473,-87.50446417183576 -106.0660171779818,-80.43339635997026" /><polyline points="-106.0660171779818,-80.43339635997026 -98.99494936611639,-73.36232854810484" /><polyline points="-98.99494936611639,-73.36232854810484 -91.92388155425085,-80.43339635997023" /><polyline points="-91.92388155425085,-80.43339635997023 -84.8528137423854,-87.50446417183572" /><polyline points="-84.8528137423854,-87.50446417183572 -77.78174593051988,-80.43339635997029" /><polyline points="-77.78174593051988,-80.43339635997029 -70.71067811865446,-73.36232854810476" /><polyline points="-70.71067811865446,-73.36232854810476 -63.63961030678903,-80.43339635997027" /><polyline points="-63.63961030678903,-80.43339635997027 -56.56854249492356,-87.50446417183575" /><polyline points="-56.56854249492356,-87.50446417183575 -63.63961030678903,-80.43339635997027" /><polyline points="-63.63961030678903,-80.43339635997027 -70.71067811865446,-73.36232854810476" /><polyline points="-70.71067811865446,-73.36232854810476 -63.63961030678897,-66.29126073623931" /><polyline points="-63.63961030678897,-66.29126073623931 -56.56854249492351,-59.22019292437385" /><polyline points="-56.56854249492351,-59.22019292437385 -49.49747468305804,-66.29126073623932" /><polyline points="-49.49747468305804,-66.29126073623932 -42.42640687119256,-73.36232854810478" /><polyline points="-42.42640687119256,-73.36232854810478 -49.49747468305802,-80.43339635997027" /><polyline points="-49.49747468305802,-80.43339635997027 -56.56854249492356,-87.50446417183575" /><polyline points="-56.56854249492356,-87.50446417183575 -49.49747468305802,-80.43339635997027" /><polyline points="-49.49747468305802,-80.43339635997027 -42.42640687119256,-73.36232854810478" /><polyline points="-42.42640687119256,-73.36232854810478 -35.3553390593271,-80.43339635997027" /><polyline points="-35.3553390593271,-80.43339635997027 -28.28427124746161,-87.50446417183572" /><polyline points="-28.28427124746161,-87.50446417183572 -21.21320343559611,-80.43339635997027" /><polyline points="-21.21320343559611,-80.43339635997027 -14.1421356237307,-73.36232854810476" /><polyline points="-14.1421356237307,-73.36232854810476 -7.071067811865221,-80.43339635997023" /><polyline points="-7.071067811865221,-80.43339635997023 2.623111968186999e-13,-87.50446417183569" /><polyline points="2.623111968186999e-13,-87.50446417183569 -7.071067811865211,-80.43339635997023" /><polyline points="-7.071067811865211,-80.43339635997023 -14.14213562373069,-73.36232854810476" /><polyline points="-14.14213562373069,-73.36232854810476 -7.071067811865203,-66.29126073623932" /><polyline points="-7.071067811865203,-66.29126073623932 2.985468502316629e-13,-59.22019292437388" /><polyline points="2.985468502316629e-13,-59.22019292437388 7.071067811865716,-52.14912511250833" /><polyline points="7.071067811865716,-52.14912511250833 14.14213562373122,-45.07805730064289" /><polyline points="14.14213562373122,-45.07805730064289 21.2132034355967,-52.14912511250835" /><polyline points="21.2132034355967,-52.14912511250835 28.28427124746219,-59.22019292437383" /><polyline points="28.28427124746219,-59.22019292437383 21.2132034355967,-52.14912511250835" /><polyline points="21.2132034355967,-52.14912511250835 14.14213562373123,-45.07805730064288" /><polyline points="14.14213562373123,-45.07805730064288 21.21320343559668,-38.00698948877739" /><polyline points="21.21320343559668,-38.00698948877739 28.28427124746219,-30.93592167691194" /><polyline points="28.28427124746219,-30.93592167691194 21.21320343559671,-23.86485386504647" /><polyline points="21.21320343559671,-23.86485386504647 14.14213562373123,-16.79378605318099" /><polyline points="14.14213562373123,-16.79378605318099 21.21320343559665,-9.722718241315464" /><polyline points="21.21320343559665,-9.722718241315464 28.28427124746214,-2.651650429450013" /><polyline points="28.28427124746214,-2.651650429450013 21.21320343559665,-9.722718241315462" /><polyline points="21.21320343559665,-9.722718241315462 14.14213562373123,-16.79378605318099" /><polyline points="14.14213562373123,-16.79378605318099 7.071067811865748,-9.722718241315523" /><polyline points="7.071067811865748,-9.722718241315523 2.675848155030106e-13,-2.65165042945005" /><polyline points="2.675848155030106e-13,-2.65165042945005 -7.071067811865232,-9.722718241315501" /><polyline points="-7.071067811865232,-9.722718241315501 -14.14213562373069,-16.79378605318099" /><polyline points="-14.14213562373069,-16.79378605318099 -21.21320343559619,-9.722718241315496" /><polyline points="-21.21320343559619,-9.722718241315496 -28.28427124746167,-2.651650429450027" /><polyline points="-28.28427124746167,-2.651650429450027 -21.2132034355962,-9.722718241315505" /><polyline points="-21.2132034355962,-9.722718241315505 -14.14213562373069,-16.79378605318099" /><polyline points="-14.14213562373069,-16.79378605318099 -21.21320343559619,-23.86485386504644" /><polyline points="-21.21320343559619,-23.86485386504644 -28.28427124746162,-30.93592167691197" /><polyline points="-28.28427124746162,-30.93592167691197 -21.21320343559614,-38.00698948877744" /><polyline points="-21.21320343559614,-38.00698948877744 -14.14213562373065,-45.07805730064291" /><polyline points="-14.14213562373065,-45.07805730064291 -21.21320343559615,-52.14912511250835" /><polyline points="-21.21320343559615,-52.14912511250835 -28.28427124746166,-59.2201929243738" /><polyline points="-28.28427124746166,-59.2201929243738 -21.21320343559615,-52.14912511250835" /><polyline points="-21.21320343559615,-52.14912511250835 -14.14213562373065,-45.07805730064291" /><polyline points="-14.14213562373065,-45.07805730064291 -7.071067811865163,-52.14912511250839" /><polyline points="-7.071067811865163,-52.14912511250839 3.149343497261618e-13,-59.22019292437384" /><polyline points="3.149343497261618e-13,-59.22019292437384 7.071067811865801,-66.29126073623932" /><polyline points="7.071067811865801,-66.29126073623932 14.14213562373128,-73.3623285481048" /><polyline points="14.14213562373128,-73.3623285481048 7.071067811865779,-80.43339635997025" /><polyline points="7.071067811865779,-80.43339635997025 2.780084114088641e-13,-87.50446417183568" /><polyline points="2.780084114088641e-13,-87.50446417183568 7.071067811865776,-80.43339635997025" /><polyline points="7.071067811865776,-80.43339635997025 14.14213562373128,-73.3623285481048" /><polyline points="14.14213562373128,-73.3623285481048 21.21320343559676,-80.43339635997026" /><polyline points="21.21320343559676,-80.43339635997026 28.28427124746225,-87.50446417183572" /><polyline points="28.28427124746225,-87.50446417183572 35.35533905932766,-80.43339635997019" /><polyline points="35.35533905932766,-80.43339635997019 42.42640687119317,-73.36232854810476" /><polyline points="42.42640687119317,-73.36232854810476 49.49747468305866,-80.4333963599702" /><polyline points="49.49747468305866,-80.4333963599702 56.56854249492412,-87.50446417183569" /><polyline points="56.56854249492412,-87.50446417183569 49.49747468305866,-80.4333963599702" /><polyline points="49.49747468305866,-80.4333963599702 42.42640687119317,-73.36232854810476" /><polyline points="42.42640687119317,-73.36232854810476 49.49747468305862,-66.29126073623927" /><polyline points="49.49747468305862,-66.29126073623927 56.56854249492413,-59.2201929243738" /><polyline points="56.56854249492413,-59.2201929243738 63.63961030678959,-66.29126073623927" /><polyline points="63.63961030678959,-66.29126073623927 70.71067811865508,-73.36232854810474" /><polyline points="70.71067811865508,-73.36232854810474 63.63961030678961,-80.43339635997017" /><polyline points="63.63961030678961,-80.43339635997017 56.56854249492412,-87.50446417183569" /><polyline points="56.56854249492412,-87.50446417183569 63.63961030678957,-80.4333963599702" /><polyline points="63.63961030678957,-80.4333963599702 70.71067811865508,-73.36232854810474" /><polyline points="70.71067811865508,-73.36232854810474 77.78174593052057,-80.43339635997022" /><polyline points="77.78174593052057,-80.43339635997022 84.85281374238605,-87.50446417183566" /><polyline points="84.85281374238605,-87.50446417183566 91.92388155425147,-80.43339635997017" /><polyline points="91.92388155425147,-80.43339635997017 98.99494936611698,-73.3623285481047" /><polyline points="98.99494936611698,-73.3623285481047 106.0660171779825,-80.43339635997017" /><polyline points="106.0660171779825,-80.43339635997017 113.1370849898479,-87.50446417183568" /><polyline points="113.1370849898479,-87.50446417183568 106.0660171779825,-80.43339635997017" /><polyline points="106.0660171779825,-80.43339635997017 98.99494936611698,-73.3623285481047" /><polyline points="98.99494936611698,-73.3623285481047 106.0660171779825,-66.29126073623927" /><polyline points="106.0660171779825,-66.29126073623927 113.1370849898479,-59.22019292437372" /><polyline points="113.1370849898479,-59.22019292437372 120.2081528017134,-52.14912511250824" /><polyline points="120.2081528017134,-52.14912511250824 127.2792206135789,-45.07805730064279" /><polyline points="127.2792206135789,-45.07805730064279 134.3502884254443,-52.14912511250827" /><polyline points="134.3502884254443,-52.14912511250827 141.4213562373098,-59.22019292437372" /><polyline points="141.4213562373098,-59.22019292437372 134.3502884254443,-52.14912511250827" /><polyline points="134.3502884254443,-52.14912511250827 127.2792206135789,-45.07805730064279" /><polyline points="127.2792206135789,-45.07805730064279 134.3502884254443,-38.00698948877731" /><polyline points="134.3502884254443,-38.00698948877731 141.4213562373098,-30.93592167691182" /><polyline points="141.4213562373098,-30.93592167691182 134.3502884254443,-23.86485386504636" /><polyline points="134.3502884254443,-23.86485386504636 127.2792206135788,-16.7937860531809" /><polyline points="127.2792206135788,-16.7937860531809 134.3502884254443,-9.722718241315402" /><polyline points="134.3502884254443,-9.722718241315402 141.4213562373098,-2.651650429449925" /><polyline points="141.4213562373098,-2.651650429449925 134.3502884254443,-9.722718241315402" /><polyline points="134.3502884254443,-9.722718241315402 127.2792206135788,-16.79378605318087" /><polyline points="127.2792206135788,-16.79378605318087 120.2081528017133,-9.72271824131537" /><polyline points="120.2081528017133,-9.72271824131537 113.1370849898479,-2.651650429449909" /><polyline points="113.1370849898479,-2.651650429449909 120.2081528017133,-9.72271824131539" /><polyline points="120.2081528017133,-9.72271824131539 127.2792206135788,-16.7937860531809" /><polyline points="127.2792206135788,-16.7937860531809 120.2081528017134,-23.86485386504639" /><polyline points="120.2081528017134,-23.86485386504639 113.1370849898479,-30.93592167691184" /><polyline points="113.1370849898479,-30.93592167691184 120.2081528017134,-23.86485386504639" /><polyline points="120.2081528017134,-23.86485386504639 127.2792206135788,-16.7937860531809" /><polyline points="127.2792206135788,-16.7937860531809 134.3502884254443,-23.86485386504636" /><polyline points="134.3502884254443,-23.86485386504636 141.4213562373098,-30.93592167691182" /><polyline points="141.4213562373098,-30.93592167691182 148.4924240491753,-23.86485386504634" /><polyline points="148.4924240491753,-23.86485386504634 155.5634918610407,-16.79378605318087" /><polyline points="155.5634918610407,-16.79378605318087 162.6345596729062,-23.86485386504634" /><polyline points="162.6345596729062,-23.86485386504634 169.7056274847717,-30.93592167691179" /><polyline points="169.7056274847717,-30.93592167691179 162.6345596729062,-23.86485386504633" /><polyline points="162.6345596729062,-23.86485386504633 155.5634918610407,-16.79378605318083" /><polyline points="155.5634918610407,-16.79378605318083 162.6345596729062,-9.722718241315315" /><polyline points="162.6345596729062,-9.722718241315315 169.7056274847717,-2.651650429449842" /><polyline points="169.7056274847717,-2.651650429449842 176.7766952966371,4.419417382415594" /><polyline points="176.7766952966371,4.419417382415594 183.8477631085026,11.49048519428107" /><polyline points="183.8477631085026,11.49048519428107 190.9188309203681,4.419417382415607" /><polyline points="190.9188309203681,4.419417382415607 197.9898987322335,-2.651650429449913" /><polyline points="197.9898987322335,-2.651650429449913 190.9188309203681,4.419417382415607" /><polyline points="190.9188309203681,4.419417382415607 183.8477631085026,11.49048519428107" /><polyline points="183.8477631085026,11.49048519428107 190.9188309203681,18.56155300614659" /><polyline points="190.9188309203681,18.56155300614659 197.9898987322336,25.63262081801204" /><polyline points="197.9898987322336,25.63262081801204 190.9188309203681,32.70368862987747" /><polyline points="190.9188309203681,32.70368862987747 183.8477631085026,39.77475644174297" /><polyline points="183.8477631085026,39.77475644174297 190.9188309203681,46.84582425360845" /><polyline points="190.9188309203681,46.84582425360845 197.9898987322335,53.91689206547399" /><polyline points="197.9898987322335,53.91689206547399 190.9188309203681,46.84582425360844" /><polyline points="190.9188309203681,46.84582425360844 183.8477631085026,39.77475644174297" /><polyline points="183.8477631085026,39.77475644174297 176.7766952966371,46.84582425360849" /><polyline points="176.7766952966371,46.84582425360849 169.7056274847717,53.91689206547397" /><polyline points="169.7056274847717,53.91689206547397 176.7766952966372,60.98795987733939" /><polyline points="176.7766952966372,60.98795987733939 183.8477631085026,68.05902768920495" /><polyline points="183.8477631085026,68.05902768920495 190.9188309203681,60.98795987733942" /><polyline points="190.9188309203681,60.98795987733942 197.9898987322335,53.91689206547399" /><polyline points="197.9898987322335,53.91689206547399 190.9188309203681,60.98795987733942" /><polyline points="190.9188309203681,60.98795987733942 183.8477631085026,68.05902768920495" /><polyline points="183.8477631085026,68.05902768920495 190.9188309203681,75.1300955010704" /><polyline points="190.9188309203681,75.1300955010704 197.9898987322336,82.20116331293588" /><polyline points="197.9898987322336,82.20116331293588 190.9188309203681,89.27223112480128" /><polyline points="190.9188309203681,89.27223112480128 183.8477631085026,96.34329893666676" /><polyline points="183.8477631085026,96.34329893666676 190.9188309203681,103.4143667485323" /><polyline points="190.9188309203681,103.4143667485323 197.9898987322335,110.4854345603978" /><polyline points="197.9898987322335,110.4854345603978 190.9188309203681,103.4143667485323" /><polyline points="190.9188309203681,103.4143667485323 183.8477631085026,96.34329893666676" /><polyline points="183.8477631085026,96.34329893666676 176.7766952966372,103.4143667485323" /><polyline points="176.7766952966372,103.4143667485323 169.7056274847716,110.4854345603977" /><polyline points="169.7056274847716,110.4854345603977 162.6345596729062,117.5565023722632" /><polyline points="162.6345596729062,117.5565023722632 155.5634918610407,124.6275701841287" /><polyline points="155.5634918610407,124.6275701841287 162.6345596729062,131.6986379959942" /><polyline points="162.6345596729062,131.6986379959942 169.7056274847716,138.7697058078597" /><polyline points="169.7056274847716,138.7697058078597 162.6345596729062,131.6986379959942" /><polyline points="162.6345596729062,131.6986379959942 155.5634918610407,124.6275701841287" /><polyline points="155.5634918610407,124.6275701841287 148.4924240491752,131.6986379959942" /><polyline points="148.4924240491752,131.6986379959942 141.4213562373097,138.7697058078596" /><polyline points="141.4213562373097,138.7697058078596 134.3502884254442,131.6986379959941" /><polyline points="134.3502884254442,131.6986379959941 127.2792206135787,124.6275701841287" /><polyline points="127.2792206135787,124.6275701841287 120.2081528017133,131.6986379959942" /><polyline points="120.2081528017133,131.6986379959942 113.1370849898478,138.7697058078597" /><polyline points="113.1370849898478,138.7697058078597 120.2081528017133,131.6986379959942" /><polyline points="120.2081528017133,131.6986379959942 127.2792206135787,124.6275701841287" /><polyline points="127.2792206135787,124.6275701841287 120.2081528017133,117.5565023722632" /><polyline points="120.2081528017133,117.5565023722632 113.1370849898478,110.4854345603977" /></svg>
