<svg baseProfile="full" fill-opacity="0.0" height="100%" stroke="black" stroke-width="1" version="1.1" viewBox="-451.1508280586296,-255.2011705937425,1528.4007387471215,592.7400039762658" width="100%" xmlns="http://www.w3.org/2000/svg" xmlns:ev="http://www.w3.org/2001/xml-events" xmlns:xlink="http://www.w3.org/1999/xlink"><defs /><polyline points="-305.3993683789819,-29.97389616859222 -274.7179787336356,-55.63811891993694 -272.9441423670887,-75.5593012278404" /><polyline points="-285.77625374276,-90.89999605051261 -311.4404764941026,-121.5813856958573 -331.3616588020059,-123.3552220624042" /><polyline points="-333.1354951685527,-103.434039754501 -336.6831679016462,-63.59167513869459 -323.851056525975,-48.25098031602216" /><polyline points="-339.1917513486472,-35.41886894035091 -369.8731409939922,-9.754646189008337 -371.646977360539,10.16653611889483" /><polyline points="-358.8148659848677,25.50723094156722 -333.150643233525,56.18862058691202 -313.2294609256219,57.96245695345884" /><polyline points="-311.4556245590751,38.04127464555559 -307.9079518259815,-1.801089970250793 -320.7400632016527,-17.14178479292318" /><polyline points="-318.966226835106,-37.06296710082636 -315.4185541020124,-76.90533171663276 -328.2506654776836,-92.24602653930515" /><polyline points="-348.1718477855869,-94.01986290585197 -388.0142124013933,-97.56753563894561 -403.3549072240657,-84.73542426327428" /><polyline points="-390.5227958483944,-69.3947294406019 -364.8585730970519,-38.71333979525719 -344.9373907891486,-36.93950342871038" /><polyline points="-357.7695021648199,-52.28019825138275 -383.4337249161625,-82.96158789672754 -403.3549072240657,-84.73542426327428" /><polyline points="-418.695602046738,-71.90331288760311 -449.3769916920828,-46.23909013626054 -451.1508280586296,-26.31790782835733" /><polyline points="-431.2296457507265,-24.54407146181044 -391.38728113492,-20.99639872871685 -376.0465863122477,-33.82851010438817" /><polyline points="-363.2144749365763,-18.48781528171578 -337.5502521852338,12.193574363629 -317.6290698773306,13.96741073017579" /><polyline points="-302.2883750546581,1.135299354504508 -271.6069854093134,-24.52892339683799 -269.8331490427665,-44.45010570474125" /><polyline points="-289.7543313506698,-46.22394207128803 -329.5966959664763,-49.77161480438166 -344.9373907891487,-36.93950342871036" /><polyline points="-364.8585730970519,-38.71333979525719 -404.7009377128582,-42.26101252835078 -420.0416325355306,-29.42890115267953" /><polyline points="-421.8154689020774,-9.507718844776253 -425.3631416351711,30.33464577103014 -412.5310302594998,45.67534059370252" /><polyline points="-397.1903354368274,32.8432292180312 -366.5089457914826,7.1790064666886 -364.7351094249358,-12.74217584121461" /><polyline points="-366.5089457914826,7.1790064666886 -370.0566185245762,47.02137108249502 -357.2245071489049,62.3620659051674" /><polyline points="-337.3033248410017,64.13590227171423 -297.4609602251953,67.6835750048078 -282.1202654025229,54.85146362913657" /><polyline points="-294.9523767781942,39.51076880646418 -320.6165995295367,8.829379161119395 -340.5377818374399,7.055542794572601" /><polyline points="-338.7639454708931,-12.86563951333057 -335.2162727377996,-52.708004129137 -348.0483841134708,-68.04869895180937" /><polyline points="-367.969566421374,-69.8225353183562 -407.8119310371805,-73.37020805144978 -423.1526258598528,-60.53809667577854" /><polyline points="-410.3205144841815,-45.19740185310614 -384.656291732839,-14.51601220776137 -364.7351094249358,-12.74217584121461" /><polyline points="-351.9029980492645,2.598518981457783 -326.2387752979219,33.27990862680256 -306.3175929900187,35.05374499334939" /><polyline points="-290.9768981673462,22.22163361767807 -260.2955085220015,-3.442589133664437 -258.5216721554547,-23.36377144156764" /><polyline points="-278.4428544633579,-25.13760780811447 -318.2852190791643,-28.68528054120809 -333.6259139018367,-15.8531691655368" /><polyline points="-348.9666087245092,-3.021057789865449 -379.647998369854,22.64316496147706 -381.4218347364007,42.56434726938026" /><polyline points="-368.5897233607294,57.90504209205262 -342.9255006093869,88.58643173739739 -323.0043183014836,90.36026810394418" /><polyline points="-321.2304819349368,70.43908579604097 -317.6828092018433,30.59672118023462 -330.5149205775145,15.25602635756224" /><polyline points="-315.1742257548421,2.423914981890923 -284.4928361094974,-23.24030776945162 -282.7189997429506,-43.16149007735483" /><polyline points="-295.5511111186219,-58.50218490002722 -321.2153338699645,-89.18357454537195 -341.1365161778677,-90.9574109119188" /><polyline points="-342.9103525444145,-71.03622860401553 -346.4580252775081,-31.19386398820919 -333.6259139018367,-15.8531691655368" /><polyline points="-335.3997502683836,4.068013142366437 -338.9474230014772,43.91037775817285 -326.1153116258059,59.25107258084518" /><polyline points="-306.1941293179026,61.02490894739196 -266.3517647020962,64.5725816804856 -251.0110698794238,51.7404703048143" /><polyline points="-263.8431812550951,36.39977548214191 -289.5074040064376,5.718385836797168 -309.428586314341,3.944549470250407" /><polyline points="-296.5964749386696,19.28524429292276 -270.9322521873271,49.96663393826753 -251.0110698794238,51.74047030481434" /><polyline points="-235.6703750567514,38.90835892914305 -204.9889854114066,13.24413617780048 -203.2151490448598,-6.677046130102659" /><polyline points="-223.136331352763,-8.450882496649477 -262.9786959685695,-11.99855522974307 -278.3193907912419,0.8335561459282205" /><polyline points="-291.1515021669131,-14.50713867674417 -316.8157249182557,-45.18852832208895 -336.7369072261589,-46.96236468863581" /><polyline points="-352.0776020488314,-34.1302533129645 -382.7589916941762,-8.466030561621928 -384.5328280607229,11.45515174628122" /><polyline points="-364.6116457528198,13.22898811282811 -324.7692811370133,16.77666084592166 -309.428586314341,3.944549470250407" /><polyline points="-289.5074040064376,5.718385836797205 -249.6650393906313,9.266058569890824 -234.3243445679589,-3.566052805780461" /><polyline points="-232.5505082014121,-23.48723511368367 -229.0028354683184,-63.32959972949009 -241.8349468439897,-78.67029455216247" /><polyline points="-257.1756416666621,-65.8381831764912 -287.8570313120069,-40.17396042514859 -289.6308676785537,-20.25277811724541" /><polyline points="-287.8570313120069,-40.17396042514859 -284.3093585789134,-80.01632504095497 -297.1414699545846,-95.35701986362739" /><polyline points="-317.0626522624879,-97.13085623017419 -356.9050168782943,-100.6785289632678 -372.2457117009667,-87.84641758759656" /><polyline points="-359.4136003252954,-72.50572276492416 -333.7493775739528,-41.82433311957939 -313.8281952660495,-40.05049675303259" /><polyline points="-315.6020316325964,-20.12931444512938 -319.14970436569,19.71305017067703 -306.3175929900187,35.05374499334939" /><polyline points="-286.3964106821155,36.82758135989621 -246.5540460663091,40.37525409298983 -231.2133512436366,27.54314271731855" /><polyline points="-244.0454626193079,12.20244789464616 -269.7096853706505,-18.47894175069858 -289.6308676785537,-20.25277811724541" /><polyline points="-302.462979054225,-35.5934729399178 -328.1272018055676,-66.27486258526254 -348.0483841134708,-68.04869895180937" /><polyline points="-363.3890789361432,-55.21658757613806 -394.0704685814879,-29.55236482479556 -395.8443049480349,-9.631182516892283" /><polyline points="-375.9231226401316,-7.857346150345521 -336.0807580243252,-4.309673417251897 -320.7400632016527,-17.14178479292318" /><polyline points="-318.966226835106,-37.06296710082636 -315.4185541020124,-76.90533171663283 -328.2506654776836,-92.24602653930522" /><polyline points="-348.1718477855869,-94.01986290585197 -388.0142124013933,-97.56753563894561 -403.3549072240657,-84.73542426327428" /><polyline points="-390.5227958483944,-69.3947294406019 -364.8585730970519,-38.71333979525719 -344.9373907891486,-36.93950342871042" /><polyline points="-346.7112271556955,-17.01832112080716 -350.258899888789,22.82404349499926 -337.4267885131177,38.16473831767161" /><polyline points="-317.5056062052145,39.93857468421841 -277.6632415894081,43.48624741731203 -262.3225467667357,30.65413604164074" /><polyline points="-275.154658142407,15.31344121896838 -300.8188808937496,-15.36794842637635 -320.7400632016527,-17.14178479292318" /><polyline points="-333.5721745773241,-32.48247961559557 -359.2363973286667,-63.16386926094036 -379.1575796365698,-64.93770562748719" /><polyline points="-394.4982744592422,-52.10559425181593 -425.179664104587,-26.44137150047336 -426.9535004711339,-6.520189192570086" /><polyline points="-407.0323181632307,-4.74635282602326 -367.1899535474242,-1.198680092929673 -351.8492587247519,-14.03079146860093" /><polyline points="-371.770441032655,-15.80462783514782 -411.6128056484615,-19.3523005682414 -426.9535004711339,-6.520189192570086" /><polyline points="-428.7273368376807,13.40099311533312 -432.2750095707743,53.24335773113946 -419.4428981951029,68.58405255381183" /><polyline points="-404.1022033724306,55.75194117814056 -373.4208137270857,30.08771842679797 -371.646977360539,10.16653611889483" /><polyline points="-351.7257950526357,11.94037248544159 -311.8834304368293,15.48804521853521 -296.5427356141569,2.65593384286396" /><polyline points="-294.7688992476101,-17.26524846503929 -291.2212265145166,-57.10761308084564 -304.0533378901878,-72.44830790351803" /><polyline points="-319.3940327128602,-59.61619652784677 -350.0754223582049,-33.95197377650419 -351.8492587247519,-14.03079146860093" /><polyline points="-367.1899535474242,-1.198680092929673 -397.871343192769,24.4655426584129 -399.6451795593157,44.38672496631605" /><polyline points="-386.8130681836445,59.72741978898843 -361.1488454323019,90.40880943433324 -341.2276631243987,92.18264580088002" /><polyline points="-339.4538267578519,72.26146349297679 -335.9061540247583,32.41909887717038 -348.7382654004296,17.07840405449802" /><polyline points="-335.9061540247583,32.41909887717047 -310.2419312734158,63.10048852251523 -290.3207489655125,64.87432488906198" /><polyline points="-274.9800541428401,52.04221351339069 -244.2986644974953,26.37799076204816 -242.5248281309486,6.456808454144983" /><polyline points="-262.4460104388517,4.682972087598158 -302.2883750546582,1.135299354504576 -317.6290698773306,13.96741073017586" /><polyline points="-330.4611812530019,-1.373284092496496 -356.1254040043444,-32.05467373784131 -376.0465863122477,-33.82851010438817" /><polyline points="-391.38728113492,-20.99639872871685 -422.0686707802649,4.667824022625782 -423.8425071468117,24.58900633052892" /><polyline points="-403.9213248389084,26.36284269707575 -364.0789602231021,29.91051543016933 -348.7382654004297,17.07840405449809" /><polyline points="-328.8170830925264,18.85224042104484 -288.9747184767199,22.39991315413843 -273.6340236540475,9.56780177846718" /><polyline points="-271.8601872875007,-10.35338052943603 -268.3125145544072,-50.19574514524241 -281.1446259300785,-65.5364399679148" /><polyline points="-296.4853207527509,-52.70432859224348 -327.1667103980956,-27.04010584090094 -328.9405467646424,-7.11892353299777" /><polyline points="-316.1084353889711,8.22177128967462 -290.4442126376285,38.90316093501936 -270.5230303297253,40.6769973015662" /><polyline points="-255.182335507053,27.84488592589494 -224.5009458617081,2.180663174552373 -222.7271094951613,-17.74051913335087" /><polyline points="-242.6482918030645,-19.51435549989763 -282.490656418871,-23.06202823299122 -297.8313512415434,-10.22991685731996" /><polyline points="-310.6634626172147,-25.57061167999232 -336.3276853685572,-56.25200132533714 -356.2488676764605,-58.02583769188394" /><polyline points="-371.5895624991329,-45.19372631621268 -402.2709521444776,-19.52950356487011 -404.0447885110246,0.3916787430331667" /><polyline points="-384.1236062031214,2.165515109579928 -344.2812415873148,5.713187842673515 -328.9405467646424,-7.11892353299777" /><polyline points="-309.0193644567392,-5.345087166450946 -269.1769998409328,-1.797414433357326 -253.8363050182604,-14.62952580902861" /><polyline points="-252.0624686517135,-34.55070811693186 -248.5147959186199,-74.39307273273823 -261.3469072942913,-89.73376755541061" /><polyline points="-276.6876021169637,-76.90165617973933 -307.3689917623084,-51.23743342839679 -309.1428281288552,-31.31625112049356" /><polyline points="-293.8021333061828,-44.14836249616484 -263.1207436608381,-69.81258524750739 -261.3469072942913,-89.73376755541061" /><polyline points="-274.1790186699625,-105.074462378083 -299.8432414213051,-135.7558520234277 -319.7644237292083,-137.5296883899746" /><polyline points="-321.5382600957551,-117.6085060820714 -325.0859328288487,-77.76614146626487 -312.2538214531775,-62.42544664359257" /><polyline points="-327.5945162758498,-49.59333526792127 -358.2759059211947,-23.92911251657871 -360.0497422877415,-4.007930208675504" /><polyline points="-347.2176309120701,11.33276461399692 -321.5534081607275,42.01415425934164 -301.6322258528243,43.78799062588843" /><polyline points="-299.8583894862775,23.86680831798522 -296.3107167531839,-15.9755562978212 -309.1428281288552,-31.31625112049358" /><polyline points="-307.3689917623084,-51.23743342839676 -303.8213190292148,-91.07979804420319 -316.6534304048861,-106.4204928668756" /><polyline points="-336.5746127127894,-108.1943292334223 -376.4169773285957,-111.742001966516 -391.7576721512682,-98.90989059084468" /><polyline points="-378.9255607755969,-83.56919576817228 -353.2613380242543,-52.88780612282756 -333.340155716351,-51.11396975628066" /><polyline points="-353.2613380242543,-52.88780612282756 -393.1037026400607,-56.43547885592115 -408.4443974627331,-43.60336748024989" /><polyline points="-410.2182338292799,-23.68218517234661 -413.7659065623736,16.1601794434598 -400.9337951867023,31.50087426613219" /><polyline points="-385.5931003640298,18.66876289046081 -354.911710718685,-6.995459860881736 -353.1378743521382,-26.91664216878494" /><polyline points="-333.2166920442351,-25.14280580223808 -293.3743274284286,-21.5951330691445 -278.0336326057562,-34.42724444481578" /><polyline points="-276.2597962392094,-54.34842675271899 -272.7121235061157,-94.19079136852541 -285.5442348817871,-109.5314861911978" /><polyline points="-300.8849297044594,-96.69937481552648 -331.5663193498043,-71.03515206418389 -333.340155716351,-51.11396975628066" /><polyline points="-348.6808505390234,-38.28185838060941 -379.3622401843683,-12.61763562926684 -381.136076550915,7.303546678636302" /><polyline points="-368.3039651752437,22.64424150130869 -342.6397424239011,53.32563114665347 -322.7185601159979,55.09946751320022" /><polyline points="-320.9447237494512,35.17828520529709 -317.3970510163575,-4.664079410509328 -330.2291623920288,-20.00477423318175" /><polyline points="-317.3970510163575,-4.664079410509328 -291.732828265015,26.01731023483545 -271.8116459571118,27.79114660138227" /><polyline points="-256.4709511344394,14.95903522571099 -225.7895614890946,-10.70518752563158 -224.0157251225477,-30.62636983353479" /><polyline points="-243.9369074304509,-32.40020620008161 -283.7792720462574,-35.9478789331752 -299.1199668689298,-23.11576755750391" /><polyline points="-311.9520782446011,-38.4564623801763 -337.6163009959437,-69.13785202552106 -357.5374833038468,-70.91168839206792" /><polyline points="-372.8781781265193,-58.07957701639666 -403.5595677718641,-32.41535426505403 -405.3334041384108,-12.49417195715088" /><polyline points="-385.4122218305076,-10.72033559060409 -345.5698572147012,-7.172662857510437 -330.2291623920288,-20.00477423318175" /><polyline points="-310.3079800841256,-18.2309378666349 -270.4656154683192,-14.68326513354135 -255.1249206456468,-27.51537650921263" /><polyline points="-253.3510842791,-47.43655881711577 -249.8034115460063,-87.27892343292221 -262.6355229216776,-102.6196182555946" /><polyline points="-277.97621774435,-89.78750687992333 -308.6576073896949,-64.12328412858076 -310.4314437562417,-44.20210182067751" /><polyline points="-325.7721385789141,-31.36999044500623 -356.4535282242588,-5.705767693663653 -358.2273645908056,14.21541461423949" /><polyline points="-345.3952532151343,29.55610943691188 -319.7310304637917,60.23749908225665 -299.8098481558885,62.01133544880341" /><polyline points="-298.0360117893417,42.09015314090027 -294.4883390562481,2.247788525093861 -307.3204504319194,-13.09290629757857" /><polyline points="-322.6611452545918,-0.2607949219072433 -353.3425348999366,25.40342782943529 -355.1163712664835,45.32461013733857 -342.2842598908121,60.66530496001092" /><polyline points="-316.6200371394695,91.34669460535564 -303.7879257637982,106.687389428028" /><polyline points="-265.2915916367843,152.7094738960451 -239.6273688854416,183.39086354139 -219.7061865775385,185.1646999079367 -204.3654917548661,172.3325885322654" /><polyline points="-173.6841021095213,146.6683657809228 -158.3434072868489,133.8362544052516" /><polyline points="-143.0027124641765,121.0041430295803 -173.6841021095213,146.6683657809228 -175.4579384760681,166.5895480888261" /><polyline points="-162.6258271003968,181.9302429114985 -136.9616043490542,212.6116325568432 -117.0404220411509,214.38546892339" /><polyline points="-115.2665856746041,194.4642866154868 -111.7189129415105,154.6219219996804 -124.5510243171818,139.2812271770081" /><polyline points="-139.8917191398542,152.1133385526794 -170.573108785199,177.7775613040219 -172.3469451517459,197.698743611925 -159.5148337760746,213.0394384345974" /><polyline points="-133.850611024732,243.7208280799421 -121.0184996490607,259.0615229026145" /><polyline points="-82.52216552204679,305.0836073706316 -56.85794277070417,335.7649970159764 -36.93676046280094,337.5388333825233 -21.59606564012854,324.706722006852" /><polyline points="9.08532400521628,299.0424992555094 24.42601882788868,286.2103878798381" /><polyline points="70.44810329590585,247.7140537528243 101.1294929412507,222.0498310014817 102.9033293077974,202.1286486935784" /><polyline points="90.07121793212617,186.7879538709061 64.40699518078358,156.1065642255613 44.48581287288046,154.3327278590146" /><polyline points="42.71197650633368,174.2539101669179 39.16430377324003,214.0962747827242 51.99641514891132,229.4369696053965" /><polyline points="36.65572032623892,242.2690809810679 5.974330680894126,267.9333037324104 4.200494314347301,287.8544860403136" /><polyline points="17.03260569001861,303.195180862986 42.69682844136121,333.8765705083307 62.61801074926434,335.6504068748775" /><polyline points="64.39184711581122,315.7292245669743 67.9395198489048,275.8868599511679 55.1074084732335,260.5461651284955" /><polyline points="56.88124483978041,240.6249828205924 60.42891757287392,200.782618204786 47.59680619720265,185.4419233821136" /><polyline points="27.67562388929951,183.6680870155669 -12.16674072650688,180.1204142824734 -27.50743554917927,192.9525256581446" /><polyline points="-14.67532417350798,208.293220480817 10.98889857783459,238.9746101261618 30.9100808857377,240.7484464927085" /><polyline points="43.74219226140899,256.0891413153808 69.40641501275161,286.7705309607256 89.32759732065483,288.5443673272724" /><polyline points="104.6682921433272,275.7122559516012 135.349681788672,250.0480332002586 137.1235181552188,230.1268508923554" /><polyline points="117.2023358473157,228.3530145258087 77.35997123150919,224.805341792715 62.01927640883681,237.6374531683863" /><polyline points="74.85138778450809,252.9781479910588 100.5156105358507,283.6595376364035 120.4367928437539,285.4333740029503 135.7774876664263,272.601262627279" /><polyline points="166.458877311771,246.9370398759365 181.7995721344434,234.1049285002652" /><polyline points="227.8216566024606,195.6085943732514 258.5030462478054,169.9443716219088 260.2768826143523,150.0231893140056 247.4447712386809,134.6824944913332" /><polyline points="221.7805484873384,104.0011048459884 208.9484371116671,88.66041002331605" /><polyline points="196.1163257359958,73.3197152006437 221.7805484873384,104.0011048459884 241.7017307952417,105.7749412125353" /><polyline points="257.0424256179141,92.94282983686395 287.7238152632589,67.27860708552139 289.4976516298055,47.35742477761826" /><polyline points="269.5764693219026,45.58358841107151 229.7341047060961,42.03591567797799 214.3934098834237,54.86802705364926" /><polyline points="227.2255212590949,70.20872187632168 252.8897440104376,100.8901115216664 272.8109263183407,102.6639478882131 288.1516211410131,89.83183651254178" /><polyline points="318.8330107863579,64.16761376119922 334.1737056090303,51.33550238552794" /><polyline points="380.1957900770475,12.83916825851412 410.8771797223923,-12.82505449282852 412.6510160889391,-32.7462368007315 399.818904713268,-48.08693162340389" /><polyline points="374.1546819619253,-78.76832126874866 361.3225705862539,-94.10901609142098" /><polyline points="348.4904592105826,-109.4497109140934 374.1546819619253,-78.76832126874866 394.0758642698283,-76.99448490220188" /><polyline points="409.4165590925007,-89.82659627787318 440.0979487378457,-115.4908190292159 441.8717851043924,-135.4120013371188" /><polyline points="421.9506027964892,-137.1858377036658 382.1082381806829,-140.7335104367593 366.7675433580106,-127.901399061088" /><polyline points="353.9354319823393,-143.2420938837604 328.2712092309966,-173.9234835291052 308.3500269230934,-175.697319895652" /><polyline points="293.009332100421,-162.8652085199807 262.3279424550762,-137.2009857686382 260.5541060885295,-117.279803460735" /><polyline points="280.4752883964327,-115.505967094188 320.3176530122391,-111.9582943610945 335.6583478349115,-124.7904057367658" /><polyline points="355.5795301428147,-123.0165693702189 395.4218947586209,-119.4688966371253 410.7625895812932,-132.3010080127966" /><polyline points="412.5364259478403,-152.2221903206999 416.0840986809338,-192.0645549365061 403.2519873052624,-207.4052497591785" /><polyline points="387.9112924825901,-194.5731383835072 357.2299028372453,-168.9089156321647 355.4560664706986,-148.9877333242615" /><polyline points="370.796761293371,-161.8198446999328 401.4781509387158,-187.4840674512753 403.2519873052624,-207.4052497591785" /><polyline points="390.4198759295912,-222.7459445818509 364.7556531782486,-253.4273342271957 344.8344708703453,-255.2011705937425" /><polyline points="343.0606345037986,-235.2799882858393 339.5129617707052,-195.4376236700329 352.3450731463765,-180.0969288473605" /><polyline points="337.0043783237041,-167.2648174716892 306.3229886783593,-141.6005947203467 304.5491523118122,-121.6794124124435" /><polyline points="317.3812636874836,-106.3387175897711 343.0454864388261,-75.65732794442641 362.9666687467296,-73.88349157787964" /><polyline points="364.7405051132761,-93.80467388578273 368.2881778463698,-133.6470385015891 355.4560664706986,-148.9877333242615" /><polyline points="357.2299028372453,-168.9089156321647 360.7775755703388,-208.7512802479709 347.9454641946675,-224.0919750706433" /><polyline points="328.0242818867645,-225.8658114371902 288.181917270958,-229.413484170284 272.8412224482856,-216.5813727946127" /><polyline points="285.6733338239569,-201.2406779719403 311.3375565752994,-170.5592883265955 331.2587388832027,-168.7854519600486" /><polyline points="311.3375565752994,-170.5592883265955 271.495191959493,-174.106961059689 256.1544971368206,-161.2748496840177" /><polyline points="254.3806607702739,-141.3536673761148 250.8329880371803,-101.5113027603083 263.6650994128517,-86.17060793763592" /><polyline points="279.0057942355241,-99.0027193133072 309.6871838808688,-124.6669420646497 311.4610202474155,-144.5881243725529" /><polyline points="331.3822025553189,-142.8142880060061 371.2245671711251,-139.2666152729126 386.5652619937975,-152.0987266485839" /><polyline points="388.3390983603443,-172.0199089564869 391.8867710934379,-211.8622735722933 379.0546597177666,-227.2029683949657" /><polyline points="363.7139648950942,-214.3708570192944 333.0325752497495,-188.7066342679519 331.2587388832027,-168.7854519600486" /><polyline points="315.9180440605302,-155.9533405843774 285.2366544151855,-130.2891178330348 283.4628180486388,-110.3679355251316" /><polyline points="296.2949294243101,-95.02724070245928 321.9591521756526,-64.34585105711446 341.8803344835559,-62.57201469056755" /><polyline points="343.6541708501026,-82.49319699847082 347.2018435831962,-122.3355616142772 334.3697322075249,-137.6762564369496" /><polyline points="347.2018435831962,-122.3355616142772 372.8660663345388,-91.65417196893246 392.787248642442,-89.88033560238567" /><polyline points="408.1279434651144,-102.7124469780569 438.8093331104591,-128.3766697293995 440.583169477006,-148.2978520373026" /><polyline points="420.6619871691028,-150.0716884038494 380.8196225532963,-153.6193611369428 365.4789277306239,-140.7872497612716" /><polyline points="352.6468163549526,-156.127944583944 326.9825936036101,-186.8093342292887 307.0614112957069,-188.5831705958357" /><polyline points="291.7207164730345,-175.7510592201644 261.0393268276898,-150.0868364688218 259.265490461143,-130.1656541609186" /><polyline points="279.186672769046,-128.3918177943719 319.0290373848525,-124.8441450612783 334.3697322075249,-137.6762564369496" /><polyline points="354.2909145154281,-135.9024200704028 394.1332791312345,-132.3547473373091 409.4739739539069,-145.1868587129803" /><polyline points="411.2478103204538,-165.1080410208837 414.7954830535472,-204.9504056366899 401.963371677876,-220.2911004593622" /><polyline points="386.6226768552036,-207.4589890836909 355.9412872098588,-181.7947663323485 354.1674508433121,-161.8735840244452" /><polyline points="338.8267560206396,-149.0414726487739 308.1453663752949,-123.3772498974314 306.371530008748,-103.4560675895283" /><polyline points="319.2036413844193,-88.11537276685594 344.8678641357618,-57.43398312151111 364.789046443665,-55.66014675496422" /><polyline points="366.5628828102119,-75.58132906286755 370.1105555433055,-115.4236936786738 357.2784441676342,-130.7643885013462" /><polyline points="341.9377493449618,-117.932277125675 311.256359699617,-92.26805437433241 309.4825233330702,-72.34687206642909 322.3146347087414,-57.00617724375672" /><polyline points="347.978857460084,-26.32478759841196 360.8109688357554,-10.98409277573957" /><polyline points="399.307302962769,35.03799169227762 424.9715257141117,65.7193813376224 444.8927080220149,67.49321770416901 460.2334028446874,54.6611063284977" /><polyline points="490.9147924900322,28.99688357715512 506.2554873127045,16.16477220148387" /><polyline points="521.596182135377,3.332660825812555 490.9147924900322,28.99688357715512 489.1409561234853,48.91806588505847" /><polyline points="501.9730674991567,64.2587607077308 527.6372902504993,94.9401503530756 547.5584725584025,96.71398671962228" /><polyline points="549.3323089249493,76.7928044117192 552.8799816580428,36.95043979591285 540.0478702823716,21.60974497324046" /><polyline points="524.7071754596991,34.44185634891177 494.0257858143543,60.10607910025434 492.2519494478075,80.02726140815747 505.0840608234787,95.36795623082986" /><polyline points="530.7482835748212,126.0493458761746 543.5803949504925,141.390040698847" /><polyline points="582.0767290775065,187.4121251668641 607.7409518288489,218.0935148122089 627.6621341367525,219.8673511787557 643.0028289594248,207.0352398030844" /><polyline points="673.6842186047695,181.3710170517418 689.024913427442,168.5389056760706" /><polyline points="735.0469978954593,130.0425715490567 765.7283875408039,104.3783487977143 767.5022239073505,84.45716648981112" /><polyline points="754.6701125316793,69.11647166713873 729.0058897803366,38.43508202179395 709.0847074724335,36.66124565524714" /><polyline points="707.3108711058868,56.58242796315015 703.7631983727931,96.42479257895657 716.5953097484646,111.7654874016289" /><polyline points="701.2546149257923,124.5975987773001 670.5732252804474,150.2618215286427 668.7993889139004,170.183003836546" /><polyline points="681.6315002895717,185.5236986592184 707.2957230409145,216.2050883045631 727.2169053488178,217.9789246711098" /><polyline points="728.9907417153648,198.0577423632065 732.5384144484583,158.2153777474004 719.7063030727868,142.874682924728" /><polyline points="721.4801394393332,122.953500616825 725.027812172427,83.11113600101856 712.1957007967559,67.77044117834616" /><polyline points="692.2745184888529,65.9966048117995 652.4321538730462,62.44893207870569 637.0914590503738,75.281043454377" /><polyline points="649.923570426045,90.62173827704937 675.5877931773878,121.3031279223941 695.5089754852909,123.0769642889412" /><polyline points="708.341086860962,138.4176591116135 734.0053096123047,169.0990487569583 753.9264919202082,170.8728851235051" /><polyline points="769.2671867428804,158.0407737478339 799.9485763882254,132.3765509964911 801.7224127547718,112.455368688588" /><polyline points="781.8012304468687,110.6815323220411 741.9588658310627,107.1338595889475 726.6181710083902,119.9659709646188" /><polyline points="739.4502823840614,135.3066657872912 765.1145051354041,165.9880554326359 785.0356874433071,167.7618917991827 800.3763822659795,154.9297804235114" /><polyline points="831.0577719113244,129.2655576721689 846.3984667339967,116.4334462964976" /><polyline points="892.4205512020138,77.93711216948378 923.1019408473586,52.27288941814128 924.8757772139055,32.35170711023815 912.0436658382342,17.01101228756577" /><polyline points="886.3794430868917,-13.67037735777901 873.5473317112204,-29.01107218045139" /><polyline points="860.715220335549,-44.35176700312379 886.3794430868917,-13.67037735777901 906.3006253947948,-11.89654099123234" /><polyline points="921.6413202174671,-24.72865236690352 952.322709862812,-50.39287511824617 954.0965462293591,-70.31405742614942" /><polyline points="934.1753639214558,-72.08789379269595 894.332999305649,-75.63556652578963 878.9923044829767,-62.80345515011832" /><polyline points="891.8244158586482,-47.46276032744592 917.4886386099905,-16.78137068210114 937.409820917894,-15.00753431555444 952.7505157405664,-27.83964569122581" /><polyline points="983.4319053859111,-53.5038684425682 998.7726002085835,-66.33597981823962" /><polyline points="1044.794684676601,-104.8323139452534 1075.476074321946,-130.496536696596 1077.249910688492,-150.4177190044991 1064.417799312821,-165.7584138271715" /><polyline points="1038.753576561478,-196.4398034725162 1025.921465185807,-211.7804982951886" /></svg>
