<svg viewBox="-526.95 -534.4818469540031 1056 1070.9636939080065" xmlns="http://www.w3.org/2000/svg">
<style>
svg { stroke:black; stroke-width:2; fill:none;}
</style>
<polyline points="-523.95 -499 -473.95000000000005 -499" stroke="gray" stroke-dasharray="1"/>
<polyline points="-473.95000000000005 -499 -424.5197394451839 -506.52657568107765" stroke="gray" stroke-dasharray="1"/>
<polyline points="-423.95000000000005 -499 -376.6802099799407 -515.2962250677725" stroke="gray" stroke-dasharray="1"/>
<polyline points="-373.95000000000005 -499 -330.472749196853 -523.6926843943758" stroke="gray" stroke-dasharray="1"/>
<polyline points="-323.95000000000005 -499 -284.31195416818025 -529.4766356843164" stroke="gray" stroke-dasharray="1"/>
<polyline points="-273.95000000000005 -499 -235.93777014621855 -531.4818469540031" stroke="gray" stroke-dasharray="1"/>
<polyline points="-223.95 -499 -184.31195416818014 -529.4766356843164" stroke="gray" stroke-dasharray="1"/>
<polyline points="-173.95 -499 -130.47274919685293 -523.6926843943758" stroke="gray" stroke-dasharray="1"/>
<polyline points="-123.95000000000005 -499 -76.68020997994063 -515.2962250677725" stroke="gray" stroke-dasharray="1"/>
<polyline points="-73.95000000000005 -499 -24.519739445183916 -506.52657568107765" stroke="gray" stroke-dasharray="1"/>
<polyline points="-23.950000000000045 -499 26.049999999999955 -499" stroke="gray" stroke-dasharray="1"/>
<polyline points="26.049999999999955 -499 75.48026055481614 -491.47342431892235" stroke="gray" stroke-dasharray="1"/>
<polyline points="76.05000000000007 -499 123.31979002005937 -482.7037749322274" stroke="gray" stroke-dasharray="1"/>
<polyline points="126.04999999999995 -499 169.52725080314713 -474.30731560562424" stroke="gray" stroke-dasharray="1"/>
<polyline points="176.05000000000007 -499 215.68804583181986 -468.5233643156835" stroke="gray" stroke-dasharray="1"/>
<polyline points="226.04999999999995 -499 264.06222985378145 -466.5181530459969" stroke="gray" stroke-dasharray="1"/>
<polyline points="276.04999999999995 -499 315.68804583181986 -468.5233643156835" stroke="gray" stroke-dasharray="1"/>
<polyline points="326.05000000000007 -499 369.5272508031471 -474.3073156056243" stroke="gray" stroke-dasharray="1"/>
<polyline points="376.04999999999995 -499 423.3197900200594 -482.7037749322275" stroke="gray" stroke-dasharray="1"/>
<polyline points="426.05000000000007 -499 475.48026055481614 -491.47342431892235" stroke="gray" stroke-dasharray="1"/>
<polyline points="476.04999999999995 -499 526.05 -499" stroke="gray" stroke-dasharray="1"/>
<polyline points="-523.95 -449 -474.5197394451839 -441.47342431892235" stroke="gray" stroke-dasharray="1"/>
<polyline points="-473.95000000000005 -449 -423.95000000000005 -449" stroke="gray" stroke-dasharray="1"/>
<polyline points="-423.95000000000005 -449 -374.7657438329711 -457.9949399829059" stroke="gray" stroke-dasharray="1"/>
<polyline points="-373.95000000000005 -449 -327.25113613460235 -466.86662009673506" stroke="gray" stroke-dasharray="1"/>
<polyline points="-323.95000000000005 -449 -280.1759272333353 -473.1625858181351" stroke="gray" stroke-dasharray="1"/>
<polyline points="-273.95000000000005 -449 -231.48136989395078 -475.3896846687406" stroke="gray" stroke-dasharray="1"/>
<polyline points="-223.95 -449 -180.17592723333524 -473.1625858181351" stroke="gray" stroke-dasharray="1"/>
<polyline points="-173.95 -449 -127.2511361346024 -466.8666200967351" stroke="gray" stroke-dasharray="1"/>
<polyline points="-123.95000000000005 -449 -74.76574383297111 -457.9949399829059" stroke="gray" stroke-dasharray="1"/>
<polyline points="-73.95000000000005 -449 -23.950000000000045 -449" stroke="gray" stroke-dasharray="1"/>
<polyline points="-23.950000000000045 -449 25.48026055481614 -441.47342431892235" stroke="gray" stroke-dasharray="1"/>
<polyline points="26.049999999999955 -449 73.82236433615174 -434.2419104985104" stroke="gray" stroke-dasharray="1"/>
<polyline points="76.05000000000007 -449 120.72466574174405 -426.54617536223634" stroke="gray" stroke-dasharray="1"/>
<polyline points="126.04999999999995 -449 166.7692718825905 -419.9837821666628" stroke="gray" stroke-dasharray="1"/>
<polyline points="176.05000000000007 -449 213.8718327709654 -416.2966520697785" stroke="gray" stroke-dasharray="1"/>
<polyline points="226.04999999999995 -449 263.9044990391236 -416.3344691992157" stroke="gray" stroke-dasharray="1"/>
<polyline points="276.04999999999995 -449 317.07354545786984 -420.4155860989579" stroke="gray" stroke-dasharray="1"/>
<polyline points="326.05000000000007 -449 371.5636647017378 -428.29960566999284" stroke="gray" stroke-dasharray="1"/>
<polyline points="376.04999999999995 -449 424.90570075844585 -438.36418769434215" stroke="gray" stroke-dasharray="1"/>
<polyline points="426.05000000000007 -449 476.0381301464745 -447.91057608841663" stroke="gray" stroke-dasharray="1"/>
<polyline points="476.04999999999995 -449 525.632518586152 -455.4477787379757" stroke="gray" stroke-dasharray="1"/>
<polyline points="-523.95 -399 -476.6802099799407 -382.7037749322275" stroke="gray" stroke-dasharray="1"/>
<polyline points="-473.95000000000005 -399 -424.7657438329711 -390.005060017094" stroke="gray" stroke-dasharray="1"/>
<polyline points="-423.95000000000005 -399 -373.95000000000005 -399" stroke="gray" stroke-dasharray="1"/>
<polyline points="-373.95000000000005 -399 -324.7988388293512 -408.1740588387531" stroke="gray" stroke-dasharray="1"/>
<polyline points="-323.95000000000005 -399 -276.54327564608525 -414.89347306386935" stroke="gray" stroke-dasharray="1"/>
<polyline points="-273.95000000000005 -399 -227.42676776076286 -417.3190846390861" stroke="gray" stroke-dasharray="1"/>
<polyline points="-223.95 -399 -176.5432756460852 -414.89347306386935" stroke="gray" stroke-dasharray="1"/>
<polyline points="-173.95 -399 -124.79883882935121 -408.1740588387531" stroke="gray" stroke-dasharray="1"/>
<polyline points="-123.95000000000005 -399 -73.95000000000005 -399" stroke="gray" stroke-dasharray="1"/>
<polyline points="-73.95000000000005 -399 -24.765743832971168 -390.0050600170941" stroke="gray" stroke-dasharray="1"/>
<polyline points="-23.950000000000045 -399 23.319790020059372 -382.7037749322275" stroke="gray" stroke-dasharray="1"/>
<polyline points="26.049999999999955 -399 70.46258008927055 -376.032137021174" stroke="gray" stroke-dasharray="1"/>
<polyline points="76.05000000000007 -399 116.58290092806533 -369.72400399037394" stroke="gray" stroke-dasharray="1"/>
<polyline points="126.04999999999995 -399 162.87565514179505 -365.1788361616933" stroke="gray" stroke-dasharray="1"/>
<polyline points="176.05000000000007 -399 211.3455519775116 -363.5849747903128" stroke="gray" stroke-dasharray="1"/>
<polyline points="226.04999999999995 -399 263.252645301871 -365.59396487843594" stroke="gray" stroke-dasharray="1"/>
<polyline points="276.04999999999995 -399 317.90099163695095 -371.6413724941498" stroke="gray" stroke-dasharray="1"/>
<polyline points="326.05000000000007 -399 372.8208179612243 -381.3225967054543" stroke="gray" stroke-dasharray="1"/>
<polyline points="376.04999999999995 -399 425.62120929779553 -392.4658429193854" stroke="gray" stroke-dasharray="1"/>
<polyline points="426.05000000000007 -399 475.95545576467566 -402.0733507642309" stroke="gray" stroke-dasharray="1"/>
<polyline points="476.04999999999995 -399 525.0440549792215 -408.97910700879595" stroke="gray" stroke-dasharray="1"/>
<polyline points="-523.95 -349 -480.472749196853 -324.30731560562424" stroke="gray" stroke-dasharray="1"/>
<polyline points="-473.95000000000005 -349 -427.2511361346024 -331.1333799032649" stroke="gray" stroke-dasharray="1"/>
<polyline points="-423.95000000000005 -349 -374.7988388293512 -339.8259411612468" stroke="gray" stroke-dasharray="1"/>
<polyline points="-373.95000000000005 -349 -323.95000000000005 -349" stroke="gray" stroke-dasharray="1"/>
<polyline points="-323.95000000000005 -349 -274.43193587336276 -355.9254115509648" stroke="gray" stroke-dasharray="1"/>
<polyline points="-273.95000000000005 -349 -224.8553750735731 -358.47194823325475" stroke="gray" stroke-dasharray="1"/>
<polyline points="-223.95 -349 -174.4319358733627 -355.9254115509648" stroke="gray" stroke-dasharray="1"/>
<polyline points="-173.95 -349 -123.95000000000005 -349" stroke="gray" stroke-dasharray="1"/>
<polyline points="-123.95000000000005 -349 -74.79883882935121 -339.8259411612468" stroke="gray" stroke-dasharray="1"/>
<polyline points="-73.95000000000005 -349 -27.251136134602405 -331.1333799032649" stroke="gray" stroke-dasharray="1"/>
<polyline points="-23.950000000000045 -349 19.527250803147126 -324.30731560562424" stroke="gray" stroke-dasharray="1"/>
<polyline points="26.049999999999955 -349 65.61116506471717 -318.423633003213" stroke="gray" stroke-dasharray="1"/>
<polyline points="76.05000000000007 -349 111.3840306867819 -313.62336540277533" stroke="gray" stroke-dasharray="1"/>
<polyline points="126.04999999999995 -349 158.4985481124262 -310.95934115455464" stroke="gray" stroke-dasharray="1"/>
<polyline points="176.05000000000007 -349 208.72096974901058 -311.1501950380291" stroke="gray" stroke-dasharray="1"/>
<polyline points="226.04999999999995 -349 262.524073375468 -314.7999711783604" stroke="gray" stroke-dasharray="1"/>
<polyline points="276.04999999999995 -349 318.3773425101891 -322.3842889250515" stroke="gray" stroke-dasharray="1"/>
<polyline points="326.05000000000007 -349 373.4662459791806 -333.1349561222844" stroke="gray" stroke-dasharray="1"/>
<polyline points="376.04999999999995 -349 425.835883552989 -344.3776846874962" stroke="gray" stroke-dasharray="1"/>
<polyline points="426.05000000000007 -349 475.8812541551281 -353.10440121418776" stroke="gray" stroke-dasharray="1"/>
<polyline points="476.04999999999995 -349 525.1155707991181 -358.6213181091124" stroke="gray" stroke-dasharray="1"/>
<polyline points="-523.95 -299 -484.31195416818025 -268.5233643156835" stroke="gray" stroke-dasharray="1"/>
<polyline points="-473.95000000000005 -299 -430.1759272333353 -274.8374141818649" stroke="gray" stroke-dasharray="1"/>
<polyline points="-423.95000000000005 -299 -376.54327564608525 -283.10652693613065" stroke="gray" stroke-dasharray="1"/>
<polyline points="-373.95000000000005 -299 -324.4319358733627 -292.07458844903516" stroke="gray" stroke-dasharray="1"/>
<polyline points="-323.95000000000005 -299 -273.95000000000005 -299" stroke="gray" stroke-dasharray="1"/>
<polyline points="-273.95000000000005 -299 -224.01664149830526 -301.5806411492547" stroke="gray" stroke-dasharray="1"/>
<polyline points="-223.95 -299 -173.95 -299" stroke="gray" stroke-dasharray="1"/>
<polyline points="-173.95 -299 -124.4319358733627 -292.07458844903516" stroke="gray" stroke-dasharray="1"/>
<polyline points="-123.95000000000005 -299 -76.54327564608525 -283.10652693613065" stroke="gray" stroke-dasharray="1"/>
<polyline points="-73.95000000000005 -299 -30.1759272333353 -274.8374141818649" stroke="gray" stroke-dasharray="1"/>
<polyline points="-23.950000000000045 -299 15.68804583181975 -268.5233643156835" stroke="gray" stroke-dasharray="1"/>
<polyline points="26.049999999999955 -299 61.13378947128206 -263.3751811747097" stroke="gray" stroke-dasharray="1"/>
<polyline points="76.05000000000007 -299 107.08622247034532 -259.7985600421205" stroke="gray" stroke-dasharray="1"/>
<polyline points="126.04999999999995 -299 155.395614967391 -258.51747436009407" stroke="gray" stroke-dasharray="1"/>
<polyline points="176.05000000000007 -299 207.33387517924882 -259.99590849963073" stroke="gray" stroke-dasharray="1"/>
<polyline points="226.04999999999995 -299 262.566220908565 -264.8449767888108" stroke="gray" stroke-dasharray="1"/>
<polyline points="276.04999999999995 -299 318.9684692414871 -273.3483919028938" stroke="gray" stroke-dasharray="1"/>
<polyline points="326.05000000000007 -299 373.81292890172494 -284.2114022730766" stroke="gray" stroke-dasharray="1"/>
<polyline points="376.04999999999995 -299 425.84407523366326 -294.46678131739895" stroke="gray" stroke-dasharray="1"/>
<polyline points="426.05000000000007 -299 475.99227103240696 -301.40199169973755" stroke="gray" stroke-dasharray="1"/>
<polyline points="476.04999999999995 -299 525.7095793103595 -304.82461867576734" stroke="gray" stroke-dasharray="1"/>
<polyline points="-523.95 -249 -485.93777014621855 -216.51815304599688" stroke="gray" stroke-dasharray="1"/>
<polyline points="-473.95000000000005 -249 -431.4813698939507 -222.61031533125941" stroke="gray" stroke-dasharray="1"/>
<polyline points="-423.95000000000005 -249 -377.42676776076286 -230.6809153609139" stroke="gray" stroke-dasharray="1"/>
<polyline points="-373.95000000000005 -249 -324.8553750735731 -239.52805176674525" stroke="gray" stroke-dasharray="1"/>
<polyline points="-323.95000000000005 -249 -274.01664149830526 -246.41935885074528" stroke="gray" stroke-dasharray="1"/>
<polyline points="-273.95000000000005 -249 -223.95000000000005 -249" stroke="gray" stroke-dasharray="1"/>
<polyline points="-223.95 -249 -174.0166414983052 -246.41935885074528" stroke="gray" stroke-dasharray="1"/>
<polyline points="-173.95 -249 -124.85537507357304 -239.52805176674525" stroke="gray" stroke-dasharray="1"/>
<polyline points="-123.95000000000005 -249 -77.4267677607628 -230.68091536091384" stroke="gray" stroke-dasharray="1"/>
<polyline points="-73.95000000000005 -249 -31.48136989395067 -222.61031533125941" stroke="gray" stroke-dasharray="1"/>
<polyline points="-23.950000000000045 -249 14.062229853781446 -216.51815304599688" stroke="gray" stroke-dasharray="1"/>
<polyline points="26.049999999999955 -249 59.37602574429661 -211.72566555804815" stroke="gray" stroke-dasharray="1"/>
<polyline points="76.05000000000007 -249 105.83692100149347 -208.84107400277253" stroke="gray" stroke-dasharray="1"/>
<polyline points="126.04999999999995 -249 155.26143745804882 -208.42054803678968" stroke="gray" stroke-dasharray="1"/>
<polyline points="176.05000000000007 -249 208.33880364512686 -210.82365707448605" stroke="gray" stroke-dasharray="1"/>
<polyline points="226.04999999999995 -249 264.06222985378145 -216.51815304599688" stroke="gray" stroke-dasharray="1"/>
<polyline points="276.04999999999995 -249 320.0764139803157 -225.3003191575528" stroke="gray" stroke-dasharray="1"/>
<polyline points="326.05000000000007 -249 374.14734473736746 -235.3381762119824" stroke="gray" stroke-dasharray="1"/>
<polyline points="376.04999999999995 -249 425.7667933770608 -243.6858249649977" stroke="gray" stroke-dasharray="1"/>
<polyline points="426.05000000000007 -249 476.04281935907863 -248.15264379949375" stroke="gray" stroke-dasharray="1"/>
<polyline points="476.04999999999995 -249 526.05 -249" stroke="gray" stroke-dasharray="1"/>
<polyline points="-523.95 -198.99999999999994 -484.31195416818025 -168.52336431568347" stroke="gray" stroke-dasharray="1"/>
<polyline points="-473.95000000000005 -198.99999999999994 -430.1759272333353 -174.83741418186486" stroke="gray" stroke-dasharray="1"/>
<polyline points="-423.95000000000005 -198.99999999999994 -376.54327564608525 -183.1065269361306" stroke="gray" stroke-dasharray="1"/>
<polyline points="-373.95000000000005 -198.99999999999994 -324.4319358733627 -192.07458844903516" stroke="gray" stroke-dasharray="1"/>
<polyline points="-323.95000000000005 -198.99999999999994 -273.95000000000005 -198.99999999999994" stroke="gray" stroke-dasharray="1"/>
<polyline points="-273.95000000000005 -198.99999999999994 -224.01664149830526 -201.5806411492547" stroke="gray" stroke-dasharray="1"/>
<polyline points="-223.95 -198.99999999999994 -173.95 -198.99999999999994" stroke="gray" stroke-dasharray="1"/>
<polyline points="-173.95 -198.99999999999994 -124.4319358733627 -192.07458844903516" stroke="gray" stroke-dasharray="1"/>
<polyline points="-123.95000000000005 -198.99999999999994 -76.54327564608525 -183.1065269361306" stroke="gray" stroke-dasharray="1"/>
<polyline points="-73.95000000000005 -198.99999999999994 -30.1759272333353 -174.83741418186492" stroke="gray" stroke-dasharray="1"/>
<polyline points="-23.950000000000045 -198.99999999999994 15.68804583181975 -168.52336431568347" stroke="gray" stroke-dasharray="1"/>
<polyline points="26.049999999999955 -198.99999999999994 61.34538811697462 -163.584811483318" stroke="gray" stroke-dasharray="1"/>
<polyline points="76.05000000000007 -198.99999999999994 108.41333116938358 -160.88681598684235" stroke="gray" stroke-dasharray="1"/>
<polyline points="126.04999999999995 -198.99999999999994 158.52964883977745 -160.9858919446379" stroke="gray" stroke-dasharray="1"/>
<polyline points="176.05000000000007 -198.99999999999994 211.86787798623004 -164.11333182197615" stroke="gray" stroke-dasharray="1"/>
<polyline points="226.04999999999995 -198.99999999999994 267.01583186323137 -170.3329349295493" stroke="gray" stroke-dasharray="1"/>
<polyline points="276.04999999999995 -198.99999999999994 321.78269455222176 -178.78810624921084" stroke="gray" stroke-dasharray="1"/>
<polyline points="326.05000000000007 -198.99999999999994 374.65929048571013 -187.2894543903427" stroke="gray" stroke-dasharray="1"/>
<polyline points="376.04999999999995 -198.99999999999994 425.7128260987853 -193.20312982016975" stroke="gray" stroke-dasharray="1"/>
<polyline points="426.05000000000007 -198.99999999999994 475.8857805491999 -194.9509288655304" stroke="gray" stroke-dasharray="1"/>
<polyline points="476.04999999999995 -198.99999999999994 525.7095793103595 -193.17538132423255" stroke="gray" stroke-dasharray="1"/>
<polyline points="-523.95 -148.99999999999994 -480.472749196853 -124.30731560562424" stroke="gray" stroke-dasharray="1"/>
<polyline points="-473.95000000000005 -148.99999999999994 -427.2511361346024 -131.13337990326488" stroke="gray" stroke-dasharray="1"/>
<polyline points="-423.95000000000005 -148.99999999999994 -374.7988388293512 -139.82594116124682" stroke="gray" stroke-dasharray="1"/>
<polyline points="-373.95000000000005 -148.99999999999994 -323.95000000000005 -148.99999999999994" stroke="gray" stroke-dasharray="1"/>
<polyline points="-323.95000000000005 -148.99999999999994 -274.43193587336276 -155.92541155096478" stroke="gray" stroke-dasharray="1"/>
<polyline points="-273.95000000000005 -148.99999999999994 -224.8553750735731 -158.47194823325475" stroke="gray" stroke-dasharray="1"/>
<polyline points="-223.95 -148.99999999999994 -174.4319358733627 -155.92541155096478" stroke="gray" stroke-dasharray="1"/>
<polyline points="-173.95 -148.99999999999994 -123.95000000000005 -148.99999999999994" stroke="gray" stroke-dasharray="1"/>
<polyline points="-123.95000000000005 -148.99999999999994 -74.79883882935121 -139.82594116124682" stroke="gray" stroke-dasharray="1"/>
<polyline points="-73.95000000000005 -148.99999999999994 -27.251136134602405 -131.13337990326488" stroke="gray" stroke-dasharray="1"/>
<polyline points="-23.950000000000045 -148.99999999999994 19.527250803147126 -124.30731560562424" stroke="gray" stroke-dasharray="1"/>
<polyline points="26.049999999999955 -148.99999999999994 65.95619630298904 -118.87533408272702" stroke="gray" stroke-dasharray="1"/>
<polyline points="76.05000000000007 -148.99999999999994 113.63635862917545 -116.02628857712534" stroke="gray" stroke-dasharray="1"/>
<polyline points="126.04999999999995 -148.99999999999994 163.96319911813237 -116.40261770281472" stroke="gray" stroke-dasharray="1"/>
<polyline points="176.05000000000007 -148.99999999999994 216.7836482685209 -120.00396753456721" stroke="gray" stroke-dasharray="1"/>
<polyline points="226.04999999999995 -148.99999999999994 270.61957841691446 -126.33829927524181" stroke="gray" stroke-dasharray="1"/>
<polyline points="276.04999999999995 -148.99999999999994 323.7377312243518 -133.97068562195892" stroke="gray" stroke-dasharray="1"/>
<polyline points="326.05000000000007 -148.99999999999994 375.3421493172008 -140.6164437324731" stroke="gray" stroke-dasharray="1"/>
<polyline points="376.04999999999995 -148.99999999999994 425.808559770884 -144.09227858091367" stroke="gray" stroke-dasharray="1"/>
<polyline points="426.05000000000007 -148.99999999999994 475.7321654208454 -143.37128441864775" stroke="gray" stroke-dasharray="1"/>
<polyline points="476.04999999999995 -148.99999999999994 525.1155707991181 -139.3786818908876" stroke="gray" stroke-dasharray="1"/>
<polyline points="-523.95 -99 -476.6802099799407 -82.70377493222747" stroke="gray" stroke-dasharray="1"/>
<polyline points="-473.95000000000005 -99 -424.7657438329711 -90.00506001709402" stroke="gray" stroke-dasharray="1"/>
<polyline points="-423.95000000000005 -99 -373.95000000000005 -99" stroke="gray" stroke-dasharray="1"/>
<polyline points="-373.95000000000005 -99 -324.7988388293512 -108.17405883875313" stroke="gray" stroke-dasharray="1"/>
<polyline points="-323.95000000000005 -99 -276.54327564608525 -114.89347306386935" stroke="gray" stroke-dasharray="1"/>
<polyline points="-273.95000000000005 -99 -227.42676776076286 -117.31908463908616" stroke="gray" stroke-dasharray="1"/>
<polyline points="-223.95 -99 -176.5432756460852 -114.89347306386935" stroke="gray" stroke-dasharray="1"/>
<polyline points="-173.95 -99 -124.79883882935121 -108.17405883875313" stroke="gray" stroke-dasharray="1"/>
<polyline points="-123.95000000000005 -99 -73.95000000000005 -99" stroke="gray" stroke-dasharray="1"/>
<polyline points="-73.95000000000005 -99 -24.765743832971168 -90.00506001709408" stroke="gray" stroke-dasharray="1"/>
<polyline points="-23.950000000000045 -99 23.319790020059372 -82.70377493222747" stroke="gray" stroke-dasharray="1"/>
<polyline points="26.049999999999955 -99 70.82049434925057 -76.73786093557652" stroke="gray" stroke-dasharray="1"/>
<polyline points="76.05000000000007 -99 119.11633834616657 -73.5974312036459" stroke="gray" stroke-dasharray="1"/>
<polyline points="126.04999999999995 -99 169.36743137424116 -74.02801291170618" stroke="gray" stroke-dasharray="1"/>
<polyline points="176.05000000000007 -99 221.32274282937578 -77.77787106096082" stroke="gray" stroke-dasharray="1"/>
<polyline points="226.04999999999995 -99 273.7059317353712 -83.87015629843995" stroke="gray" stroke-dasharray="1"/>
<polyline points="276.04999999999995 -99 325.32496430963727 -90.51602143543676" stroke="gray" stroke-dasharray="1"/>
<polyline points="326.05000000000007 -99 375.9282408474544 -95.51272456445793" stroke="gray" stroke-dasharray="1"/>
<polyline points="376.04999999999995 -99 426.0130297679201 -97.07759098786681" stroke="gray" stroke-dasharray="1"/>
<polyline points="426.05000000000007 -99 475.85219611009074 -94.55688593303535" stroke="gray" stroke-dasharray="1"/>
<polyline points="476.04999999999995 -99 525.0440549792215 -89.020892991204" stroke="gray" stroke-dasharray="1"/>
<polyline points="-523.95 -49 -474.5197394451839 -41.4734243189223" stroke="gray" stroke-dasharray="1"/>
<polyline points="-473.95000000000005 -49 -423.95000000000005 -49" stroke="gray" stroke-dasharray="1"/>
<polyline points="-423.95000000000005 -49 -374.7657438329711 -57.994939982905976" stroke="gray" stroke-dasharray="1"/>
<polyline points="-373.95000000000005 -49 -327.25113613460235 -66.86662009673506" stroke="gray" stroke-dasharray="1"/>
<polyline points="-323.95000000000005 -49 -280.1759272333353 -73.16258581813508" stroke="gray" stroke-dasharray="1"/>
<polyline points="-273.95000000000005 -49 -231.48136989395073 -75.38968466874059" stroke="gray" stroke-dasharray="1"/>
<polyline points="-223.95 -49 -180.17592723333524 -73.16258581813508" stroke="gray" stroke-dasharray="1"/>
<polyline points="-173.95 -49 -127.2511361346024 -66.86662009673506" stroke="gray" stroke-dasharray="1"/>
<polyline points="-123.95000000000005 -49 -74.76574383297111 -57.99493998290592" stroke="gray" stroke-dasharray="1"/>
<polyline points="-73.95000000000005 -49 -23.950000000000045 -49" stroke="gray" stroke-dasharray="1"/>
<polyline points="-23.950000000000045 -49 25.48026055481614 -41.4734243189223" stroke="gray" stroke-dasharray="1"/>
<polyline points="26.049999999999955 -49 74.0969423606258 -35.16196076769887" stroke="gray" stroke-dasharray="1"/>
<polyline points="76.05000000000007 -49 122.98602519841927 -31.7660353205261" stroke="gray" stroke-dasharray="1"/>
<polyline points="126.04999999999995 -49 173.1214963705138 -32.139566155027126" stroke="gray" stroke-dasharray="1"/>
<polyline points="176.05000000000007 -49 224.29731461415884 -35.87762854807181" stroke="gray" stroke-dasharray="1"/>
<polyline points="226.04999999999995 -49 275.51612659505076 -41.712866154487585" stroke="gray" stroke-dasharray="1"/>
<polyline points="276.04999999999995 -49 326.0329895350883 -47.695869203166296" stroke="gray" stroke-dasharray="1"/>
<polyline points="326.05000000000007 -49 375.9752546623034 -51.73293741314308" stroke="gray" stroke-dasharray="1"/>
<polyline points="376.04999999999995 -49 425.94182473161584 -52.28722146344211" stroke="gray" stroke-dasharray="1"/>
<polyline points="426.05000000000007 -49 476.0498326945542 -48.870653501819504" stroke="gray" stroke-dasharray="1"/>
<polyline points="476.04999999999995 -49 525.632518586152 -42.55222126202432" stroke="gray" stroke-dasharray="1"/>
<polyline points="-523.95 1 -473.95000000000005 1" stroke="gray" stroke-dasharray="1"/>
<polyline points="-473.95000000000005 1 -424.5197394451839 -6.526575681077645" stroke="gray" stroke-dasharray="1"/>
<polyline points="-423.95000000000005 1 -376.6802099799407 -15.296225067772582" stroke="gray" stroke-dasharray="1"/>
<polyline points="-373.95000000000005 1 -330.472749196853 -23.692684394375704" stroke="gray" stroke-dasharray="1"/>
<polyline points="-323.95000000000005 1 -284.31195416818025 -29.476635684316477" stroke="gray" stroke-dasharray="1"/>
<polyline points="-273.95000000000005 1 -235.93777014621855 -31.481846954003117" stroke="gray" stroke-dasharray="1"/>
<polyline points="-223.95 1 -184.31195416818014 -29.476635684316477" stroke="gray" stroke-dasharray="1"/>
<polyline points="-173.95 1 -130.47274919685293 -23.692684394375704" stroke="gray" stroke-dasharray="1"/>
<polyline points="-123.95000000000005 1 -76.68020997994063 -15.296225067772525" stroke="gray" stroke-dasharray="1"/>
<polyline points="-73.95000000000005 1 -24.519739445183916 -6.526575681077702" stroke="gray" stroke-dasharray="1"/>
<polyline points="-23.950000000000045 1 26.049999999999955 1" stroke="gray" stroke-dasharray="1"/>
<polyline points="26.049999999999955 1 75.63251858615206 7.447778737975625" stroke="gray" stroke-dasharray="1"/>
<polyline points="76.05000000000007 1 125.04405497922176 10.979107008796007" stroke="gray" stroke-dasharray="1"/>
<polyline points="126.04999999999995 1 175.11557079911802 10.621318109112394" stroke="gray" stroke-dasharray="1"/>
<polyline points="176.05000000000007 1 225.7095793103597 6.82461867576734" stroke="gray" stroke-dasharray="1"/>
<polyline points="226.04999999999995 1 276.04999999999995 1" stroke="gray" stroke-dasharray="1"/>
<polyline points="276.04999999999995 1 325.7095793103597 -4.824618675767397" stroke="gray" stroke-dasharray="1"/>
<polyline points="326.05000000000007 1 375.11557079911813 -8.621318109112394" stroke="gray" stroke-dasharray="1"/>
<polyline points="376.04999999999995 1 425.04405497922164 -8.979107008796007" stroke="gray" stroke-dasharray="1"/>
<polyline points="426.05000000000007 1 475.63251858615206 -5.447778737975682" stroke="gray" stroke-dasharray="1"/>
<polyline points="476.04999999999995 1 526.05 1" stroke="gray" stroke-dasharray="1"/>
<polyline points="-523.95 51 -474.5197394451839 43.47342431892241" stroke="gray" stroke-dasharray="1"/>
<polyline points="-473.95000000000005 51 -426.1776356638483 36.24191049851049" stroke="gray" stroke-dasharray="1"/>
<polyline points="-423.95000000000005 51 -379.5406411781272 28.025909179465998" stroke="gray" stroke-dasharray="1"/>
<polyline points="-373.95000000000005 51 -334.41299271969973 20.392402000198103" stroke="gray" stroke-dasharray="1"/>
<polyline points="-323.95000000000005 51 -288.94844364242203 15.294383459359096" stroke="gray" stroke-dasharray="1"/>
<polyline points="-273.95000000000005 51 -240.8048565449215 13.564729661157003" stroke="gray" stroke-dasharray="1"/>
<polyline points="-223.95 51 -188.94844364242198 15.29438345935921" stroke="gray" stroke-dasharray="1"/>
<polyline points="-173.95 51 -134.41299271969973 20.392402000198103" stroke="gray" stroke-dasharray="1"/>
<polyline points="-123.95000000000005 51 -79.5406411781272 28.025909179465998" stroke="gray" stroke-dasharray="1"/>
<polyline points="-73.95000000000005 51 -26.17763566384832 36.24191049851049" stroke="gray" stroke-dasharray="1"/>
<polyline points="-23.950000000000045 51 25.48026055481614 43.47342431892241" stroke="gray" stroke-dasharray="1"/>
<polyline points="26.049999999999955 51 76.03537107155012 49.790587399005744" stroke="gray" stroke-dasharray="1"/>
<polyline points="76.05000000000007 51 125.99878852458733 53.26241572794595" stroke="gray" stroke-dasharray="1"/>
<polyline points="126.04999999999995 51 176.0167898086264 52.82206372570761" stroke="gray" stroke-dasharray="1"/>
<polyline points="176.05000000000007 51 226.00806549588265 48.95263781682411" stroke="gray" stroke-dasharray="1"/>
<polyline points="226.04999999999995 51 275.4337982389335 43.17437085619929" stroke="gray" stroke-dasharray="1"/>
<polyline points="276.04999999999995 51 324.20539260343685 37.54421450792029" stroke="gray" stroke-dasharray="1"/>
<polyline points="326.05000000000007 51 373.06128496356166 33.97240222242715" stroke="gray" stroke-dasharray="1"/>
<polyline points="376.04999999999995 51 422.9642370335682 33.70681164278324" stroke="gray" stroke-dasharray="1"/>
<polyline points="426.05000000000007 51 474.0943603965502 37.15299909415762" stroke="gray" stroke-dasharray="1"/>
<polyline points="476.04999999999995 51 525.4802605548159 43.47342431892241" stroke="gray" stroke-dasharray="1"/>
<polyline points="-523.95 101.00000000000011 -476.6802099799407 84.70377493222759" stroke="gray" stroke-dasharray="1"/>
<polyline points="-473.95000000000005 101.00000000000011 -429.2721859514648 78.55244040336447" stroke="gray" stroke-dasharray="1"/>
<polyline points="-423.95000000000005 101.00000000000011 -383.41709907193473 71.72400399037406" stroke="gray" stroke-dasharray="1"/>
<polyline points="-373.95000000000005 101.00000000000011 -338.7106081292518 65.52909275786931" stroke="gray" stroke-dasharray="1"/>
<polyline points="-323.95000000000005 101.00000000000011 -293.3231737279341 61.477885778963014" stroke="gray" stroke-dasharray="1"/>
<polyline points="-273.95000000000005 101.00000000000011 -245.15881300139648 60.1213068798495" stroke="gray" stroke-dasharray="1"/>
<polyline points="-223.95 101.00000000000011 -193.3231737279341 61.47788577896313" stroke="gray" stroke-dasharray="1"/>
<polyline points="-173.95 101.00000000000011 -138.7106081292518 65.52909275786931" stroke="gray" stroke-dasharray="1"/>
<polyline points="-123.95000000000005 101.00000000000011 -83.41709907193467 71.72400399037406" stroke="gray" stroke-dasharray="1"/>
<polyline points="-73.95000000000005 101.00000000000011 -29.27218595146479 78.55244040336447" stroke="gray" stroke-dasharray="1"/>
<polyline points="-23.950000000000045 101.00000000000011 23.319790020059372 84.70377493222759" stroke="gray" stroke-dasharray="1"/>
<polyline points="26.049999999999955 101.00000000000011 74.85667410112364 90.14142904491086" stroke="gray" stroke-dasharray="1"/>
<polyline points="76.05000000000007 101.00000000000011 125.39594012309897 92.93909475508235" stroke="gray" stroke-dasharray="1"/>
<polyline points="126.04999999999995 101.00000000000011 175.24676814137695 92.07374633770735" stroke="gray" stroke-dasharray="1"/>
<polyline points="176.05000000000007 101.00000000000011 224.3700199118557 88.14793107247431" stroke="gray" stroke-dasharray="1"/>
<polyline points="226.04999999999995 101.00000000000011 272.61291574835616 82.78201775685704" stroke="gray" stroke-dasharray="1"/>
<polyline points="276.04999999999995 101.00000000000011 320.4009184844938 77.91329322788147" stroke="gray" stroke-dasharray="1"/>
<polyline points="326.05000000000007 101.00000000000011 368.82385388419425 75.10796601474487" stroke="gray" stroke-dasharray="1"/>
<polyline points="376.04999999999995 101.00000000000011 418.9222715974836 75.2712548290516" stroke="gray" stroke-dasharray="1"/>
<polyline points="426.05000000000007 101.00000000000011 470.7954912564463 78.68764888633916" stroke="gray" stroke-dasharray="1"/>
<polyline points="476.04999999999995 101.00000000000011 523.3197900200594 84.70377493222759" stroke="gray" stroke-dasharray="1"/>
<polyline points="-523.95 151 -480.472749196853 126.30731560562424" stroke="gray" stroke-dasharray="1"/>
<polyline points="-473.95000000000005 151 -433.207827377708 122.01594628049145" stroke="gray" stroke-dasharray="1"/>
<polyline points="-423.95000000000005 151 -387.0341191809755 117.27734080242828" stroke="gray" stroke-dasharray="1"/>
<polyline points="-373.95000000000005 151 -341.5014518875737 112.95934115455475" stroke="gray" stroke-dasharray="1"/>
<polyline points="-323.95000000000005 151 -295.2002641911869 110.09214389724832" stroke="gray" stroke-dasharray="1"/>
<polyline points="-273.95000000000005 151 -246.6407359777591 109.1167802268792" stroke="gray" stroke-dasharray="1"/>
<polyline points="-223.95 151 -195.20026419118682 110.09214389724832" stroke="gray" stroke-dasharray="1"/>
<polyline points="-173.95 151 -141.5014518875737 112.95934115455475" stroke="gray" stroke-dasharray="1"/>
<polyline points="-123.95000000000005 151 -87.03411918097544 117.27734080242828" stroke="gray" stroke-dasharray="1"/>
<polyline points="-73.95000000000005 151 -33.20782737770804 122.01594628049145" stroke="gray" stroke-dasharray="1"/>
<polyline points="-23.950000000000045 151 19.527250803147126 126.30731560562424" stroke="gray" stroke-dasharray="1"/>
<polyline points="26.049999999999955 151 71.43698922375688 130.0233174881589" stroke="gray" stroke-dasharray="1"/>
<polyline points="76.05000000000007 151 122.05435919276715 131.41431810574727" stroke="gray" stroke-dasharray="1"/>
<polyline points="126.04999999999995 151 171.31537506323525 129.7621606469811" stroke="gray" stroke-dasharray="1"/>
<polyline points="176.05000000000007 151 219.29880466313796 125.90934645710206" stroke="gray" stroke-dasharray="1"/>
<polyline points="226.04999999999995 151 266.3973708786483 121.46883572933837" stroke="gray" stroke-dasharray="1"/>
<polyline points="276.04999999999995 151 313.60310876670826 117.98842593944084" stroke="gray" stroke-dasharray="1"/>
<polyline points="326.05000000000007 151 362.19501082716636 116.45237790666283" stroke="gray" stroke-dasharray="1"/>
<polyline points="376.04999999999995 151 413.0131700805704 117.32918091886063" stroke="gray" stroke-dasharray="1"/>
<polyline points="426.05000000000007 151 465.87278334878647 120.76515377324336" stroke="gray" stroke-dasharray="1"/>
<polyline points="476.04999999999995 151 519.5272508031471 126.30731560562424" stroke="gray" stroke-dasharray="1"/>
<polyline points="-523.95 201.0000000000001 -484.31195416818025 170.52336431568358" stroke="gray" stroke-dasharray="1"/>
<polyline points="-473.95000000000005 201.0000000000001 -436.05286391843015 168.3839444933178" stroke="gray" stroke-dasharray="1"/>
<polyline points="-423.95000000000005 201.0000000000001 -388.2880204321977 165.95398434478398" stroke="gray" stroke-dasharray="1"/>
<polyline points="-373.95000000000005 201.0000000000001 -340.728346532213 163.63261126508473" stroke="gray" stroke-dasharray="1"/>
<polyline points="-323.95000000000005 201.0000000000001 -292.6661248207512 161.9959084996309" stroke="gray" stroke-dasharray="1"/>
<polyline points="-273.95000000000005 201.0000000000001 -243.40699485998016 161.41307239735931" stroke="gray" stroke-dasharray="1"/>
<polyline points="-223.95 201.0000000000001 -192.66612482075112 161.9959084996309" stroke="gray" stroke-dasharray="1"/>
<polyline points="-173.95 201.0000000000001 -140.72834653221298 163.63261126508473" stroke="gray" stroke-dasharray="1"/>
<polyline points="-123.95000000000005 201.0000000000001 -88.28802043219764 165.95398434478398" stroke="gray" stroke-dasharray="1"/>
<polyline points="-73.95000000000005 201.0000000000001 -36.05286391843015 168.3839444933178" stroke="gray" stroke-dasharray="1"/>
<polyline points="-23.950000000000045 201.0000000000001 15.68804583181975 170.52336431568358" stroke="gray" stroke-dasharray="1"/>
<polyline points="26.049999999999955 201.0000000000001 66.88369969902544 172.14503562833931" stroke="gray" stroke-dasharray="1"/>
<polyline points="76.05000000000007 201.0000000000001 116.63586184387452 171.79746897287953" stroke="gray" stroke-dasharray="1"/>
<polyline points="126.04999999999995 201.0000000000001 164.69914056636242 169.2786517707467" stroke="gray" stroke-dasharray="1"/>
<polyline points="176.05000000000007 201.0000000000001 211.4600411615197 165.69944780970866" stroke="gray" stroke-dasharray="1"/>
<polyline points="226.04999999999995 201.0000000000001 257.9100623439 162.4651271256438" stroke="gray" stroke-dasharray="1"/>
<polyline points="276.04999999999995 201.0000000000001 305.4085147786353 160.5268285157606" stroke="gray" stroke-dasharray="1"/>
<polyline points="326.05000000000007 201.0000000000001 355.06901245998813 160.2827196899517" stroke="gray" stroke-dasharray="1"/>
<polyline points="376.04999999999995 201.0000000000001 407.2085526520834 161.89572150483616" stroke="gray" stroke-dasharray="1"/>
<polyline points="426.05000000000007 201.0000000000001 461.1817002469535 165.42242788274882" stroke="gray" stroke-dasharray="1"/>
<polyline points="476.04999999999995 201.0000000000001 515.6880458318196 170.52336431568358" stroke="gray" stroke-dasharray="1"/>
<polyline points="-523.95 251 -485.93777014621855 218.51815304599688" stroke="gray" stroke-dasharray="1"/>
<polyline points="-473.95000000000005 251 -435.93777014621855 218.51815304599688" stroke="gray" stroke-dasharray="1"/>
<polyline points="-423.95000000000005 251 -385.93777014621855 218.51815304599688" stroke="gray" stroke-dasharray="1"/>
<polyline points="-373.95000000000005 251 -335.93777014621855 218.51815304599688" stroke="gray" stroke-dasharray="1"/>
<polyline points="-323.95000000000005 251 -285.93777014621855 218.51815304599688" stroke="gray" stroke-dasharray="1"/>
<polyline points="-273.95000000000005 251 -235.93777014621855 218.51815304599688" stroke="gray" stroke-dasharray="1"/>
<polyline points="-223.95 251 -185.9377701462185 218.51815304599688" stroke="gray" stroke-dasharray="1"/>
<polyline points="-173.95 251 -135.9377701462185 218.51815304599688" stroke="gray" stroke-dasharray="1"/>
<polyline points="-123.95000000000005 251 -85.9377701462185 218.51815304599688" stroke="gray" stroke-dasharray="1"/>
<polyline points="-73.95000000000005 251 -35.937770146218554 218.51815304599688" stroke="gray" stroke-dasharray="1"/>
<polyline points="-23.950000000000045 251 14.062229853781446 218.51815304599688" stroke="gray" stroke-dasharray="1"/>
<polyline points="26.049999999999955 251 63.70608777768928 218.10594197611113" stroke="gray" stroke-dasharray="1"/>
<polyline points="76.05000000000007 251 111.85366590235117 216.0987463269181" stroke="gray" stroke-dasharray="1"/>
<polyline points="126.04999999999995 251 158.34679338409967 212.8304160737274" stroke="gray" stroke-dasharray="1"/>
<polyline points="176.05000000000007 251 204.04780336424562 209.57388496640033" stroke="gray" stroke-dasharray="1"/>
<polyline points="226.04999999999995 251 253.06511529340685 208.92645075960513" stroke="gray" stroke-dasharray="1"/>
<polyline points="276.04999999999995 251 303.06511529340696 208.92645075960513" stroke="gray" stroke-dasharray="1"/>
<polyline points="326.05000000000007 251 353.06511529340696 208.92645075960513" stroke="gray" stroke-dasharray="1"/>
<polyline points="376.04999999999995 251 404.1676686106532 209.65514890701047" stroke="gray" stroke-dasharray="1"/>
<polyline points="426.05000000000007 251 459.1498012837376 213.52463269056477" stroke="gray" stroke-dasharray="1"/>
<polyline points="476.04999999999995 251 514.0622298537814 218.51815304599688" stroke="gray" stroke-dasharray="1"/>
<polyline points="-523.95 301 -484.31195416818025 270.5233643156836" stroke="gray" stroke-dasharray="1"/>
<polyline points="-473.95000000000005 301 -432.6916690787673 272.75552922085376" stroke="gray" stroke-dasharray="1"/>
<polyline points="-423.95000000000005 301 -380.9175894857394 275.5399991097378" stroke="gray" stroke-dasharray="1"/>
<polyline points="-373.95000000000005 301 -329.30116763463826 278.4948501802404" stroke="gray" stroke-dasharray="1"/>
<polyline points="-323.95000000000005 301 -278.2173054477783 280.78810624921095" stroke="gray" stroke-dasharray="1"/>
<polyline points="-273.95000000000005 301 -227.8443956105432 281.65385713164267" stroke="gray" stroke-dasharray="1"/>
<polyline points="-223.95 301 -178.21730544777824 280.78810624921095" stroke="gray" stroke-dasharray="1"/>
<polyline points="-173.95 301 -129.30116763463826 278.4948501802404" stroke="gray" stroke-dasharray="1"/>
<polyline points="-123.95000000000005 301 -80.91758948573943 275.5399991097378" stroke="gray" stroke-dasharray="1"/>
<polyline points="-73.95000000000005 301 -32.69166907876729 272.75552922085376" stroke="gray" stroke-dasharray="1"/>
<polyline points="-23.950000000000045 301 15.68804583181975 270.5233643156836" stroke="gray" stroke-dasharray="1"/>
<polyline points="26.049999999999955 301 63.720623343340094 268.1225892606459" stroke="gray" stroke-dasharray="1"/>
<polyline points="76.05000000000007 301 110.2235212653178 264.50108981998414" stroke="gray" stroke-dasharray="1"/>
<polyline points="126.04999999999995 301 155.27401154058487 260.4296025472296" stroke="gray" stroke-dasharray="1"/>
<polyline points="176.05000000000007 301 203.06511529340696 258.92645075960513" stroke="gray" stroke-dasharray="1"/>
<polyline points="226.04999999999995 301 253.06511529340685 258.92645075960513" stroke="gray" stroke-dasharray="1"/>
<polyline points="276.04999999999995 301 303.06511529340696 258.92645075960513" stroke="gray" stroke-dasharray="1"/>
<polyline points="326.05000000000007 301 353.06511529340696 258.92645075960513" stroke="gray" stroke-dasharray="1"/>
<polyline points="376.04999999999995 301 405.3023861116901 260.45005663662903" stroke="gray" stroke-dasharray="1"/>
<polyline points="426.05000000000007 301 460.8975348032732 265.14404766102757" stroke="gray" stroke-dasharray="1"/>
<polyline points="476.04999999999995 301 515.6880458318196 270.5233643156836" stroke="gray" stroke-dasharray="1"/>
<polyline points="-523.95 351.0000000000001 -480.472749196853 326.30731560562435" stroke="gray" stroke-dasharray="1"/>
<polyline points="-473.95000000000005 351.0000000000001 -428.18803452425436 330.8544666043149" stroke="gray" stroke-dasharray="1"/>
<polyline points="-423.95000000000005 351.0000000000001 -376.07814663102477 336.56789499001184" stroke="gray" stroke-dasharray="1"/>
<polyline points="-373.95000000000005 351.0000000000001 -324.65785068279934 342.6164437324733" stroke="gray" stroke-dasharray="1"/>
<polyline points="-323.95000000000005 351.0000000000001 -274.08993584116087 347.261818346249" stroke="gray" stroke-dasharray="1"/>
<polyline points="-273.95000000000005 351.0000000000001 -223.9900731132077 348.99857414167695" stroke="gray" stroke-dasharray="1"/>
<polyline points="-223.95 351.0000000000001 -174.0899358411608 347.261818346249" stroke="gray" stroke-dasharray="1"/>
<polyline points="-173.95 351.0000000000001 -124.65785068279928 342.6164437324733" stroke="gray" stroke-dasharray="1"/>
<polyline points="-123.95000000000005 351.0000000000001 -76.07814663102477 336.5678949900117" stroke="gray" stroke-dasharray="1"/>
<polyline points="-73.95000000000005 351.0000000000001 -28.188034524254363 330.8544666043149" stroke="gray" stroke-dasharray="1"/>
<polyline points="-23.950000000000045 351.0000000000001 19.527250803147126 326.30731560562435" stroke="gray" stroke-dasharray="1"/>
<polyline points="26.049999999999955 351.0000000000001 66.68891942458094 321.8713503917121" stroke="gray" stroke-dasharray="1"/>
<polyline points="76.05000000000007 351.0000000000001 112.23675205727397 316.49610202389636" stroke="gray" stroke-dasharray="1"/>
<polyline points="126.04999999999995 351.0000000000001 156.45144726567423 311.3042571029031" stroke="gray" stroke-dasharray="1"/>
<polyline points="176.05000000000007 351.0000000000001 203.06511529340696 308.92645075960525" stroke="gray" stroke-dasharray="1"/>
<polyline points="226.04999999999995 351.0000000000001 253.06511529340685 308.92645075960525" stroke="gray" stroke-dasharray="1"/>
<polyline points="276.04999999999995 351.0000000000001 303.06511529340696 308.92645075960525" stroke="gray" stroke-dasharray="1"/>
<polyline points="326.05000000000007 351.0000000000001 353.8854907950532 309.46464816329944" stroke="gray" stroke-dasharray="1"/>
<polyline points="376.04999999999995 351.0000000000001 409.89944740813814 314.2003408960941" stroke="gray" stroke-dasharray="1"/>
<polyline points="426.05000000000007 351.0000000000001 465.424565030552 320.18371163402674" stroke="gray" stroke-dasharray="1"/>
<polyline points="476.04999999999995 351.0000000000001 519.5272508031471 326.30731560562435" stroke="gray" stroke-dasharray="1"/>
<polyline points="-523.95 401 -476.6802099799407 384.7037749322275" stroke="gray" stroke-dasharray="1"/>
<polyline points="-473.95000000000005 401 -424.9307188609556 391.1455554894595" stroke="gray" stroke-dasharray="1"/>
<polyline points="-423.95000000000005 401 -373.98697023207995 399.07759098786687" stroke="gray" stroke-dasharray="1"/>
<polyline points="-373.95000000000005 401 -324.33820749920244 407.21852433120625" stroke="gray" stroke-dasharray="1"/>
<polyline points="-323.95000000000005 401 -275.47423929904863 413.25155600175333" stroke="gray" stroke-dasharray="1"/>
<polyline points="-273.95000000000005 401 -226.08389152229535 415.4511473316345" stroke="gray" stroke-dasharray="1"/>
<polyline points="-223.95 401 -175.47423929904863 413.25155600175333" stroke="gray" stroke-dasharray="1"/>
<polyline points="-173.95 401 -124.33820749920238 407.21852433120625" stroke="gray" stroke-dasharray="1"/>
<polyline points="-123.95000000000005 401 -73.9869702320799 399.07759098786687" stroke="gray" stroke-dasharray="1"/>
<polyline points="-73.95000000000005 401 -24.93071886095555 391.1455554894595" stroke="gray" stroke-dasharray="1"/>
<polyline points="-23.950000000000045 401 23.319790020059372 384.7037749322275" stroke="gray" stroke-dasharray="1"/>
<polyline points="26.049999999999955 401 70.69944766558672 378.4960709395442" stroke="gray" stroke-dasharray="1"/>
<polyline points="76.05000000000007 401 116.35950473305161 371.4171700444989" stroke="gray" stroke-dasharray="1"/>
<polyline points="126.04999999999995 401 160.61991558458976 364.876310591603" stroke="gray" stroke-dasharray="1"/>
<polyline points="176.05000000000007 401 205.4289382881409 360.5416512316481" stroke="gray" stroke-dasharray="1"/>
<polyline points="226.04999999999995 401 253.14329932295755 358.97675486356843" stroke="gray" stroke-dasharray="1"/>
<polyline points="276.04999999999995 401 304.8790611853482 360.1480082349533" stroke="gray" stroke-dasharray="1"/>
<polyline points="326.05000000000007 401 359.801012117848 364.1100395633056" stroke="gray" stroke-dasharray="1"/>
<polyline points="376.04999999999995 401 415.6600811958608 370.4870278789937" stroke="gray" stroke-dasharray="1"/>
<polyline points="426.05000000000007 401 470.35734347053426 377.8297752582305" stroke="gray" stroke-dasharray="1"/>
<polyline points="476.04999999999995 401 523.3197900200594 384.7037749322275" stroke="gray" stroke-dasharray="1"/>
<polyline points="-523.95 451.0000000000001 -474.5197394451839 443.4734243189224" stroke="gray" stroke-dasharray="1"/>
<polyline points="-473.95000000000005 451.0000000000001 -423.95016730544586 450.87065350181956" stroke="gray" stroke-dasharray="1"/>
<polyline points="-423.95000000000005 451.0000000000001 -374.71541435293466 459.7152496327867" stroke="gray" stroke-dasharray="1"/>
<polyline points="-373.95000000000005 451.0000000000001 -327.09497383491396 468.45298034918676" stroke="gray" stroke-dasharray="1"/>
<polyline points="-323.95000000000005 451.0000000000001 -279.90754462199016 474.669856870628" stroke="gray" stroke-dasharray="1"/>
<polyline points="-273.95000000000005 451.0000000000001 -231.1650247243811 476.87365244152215" stroke="gray" stroke-dasharray="1"/>
<polyline points="-223.95 451.0000000000001 -179.9075446219901 474.6698568706279" stroke="gray" stroke-dasharray="1"/>
<polyline points="-173.95 451.0000000000001 -127.09497383491396 468.45298034918676" stroke="gray" stroke-dasharray="1"/>
<polyline points="-123.95000000000005 451.0000000000001 -74.71541435293466 459.7152496327867" stroke="gray" stroke-dasharray="1"/>
<polyline points="-73.95000000000005 451.0000000000001 -23.95016730544586 450.87065350181956" stroke="gray" stroke-dasharray="1"/>
<polyline points="-23.950000000000045 451.0000000000001 25.48026055481614 443.4734243189224" stroke="gray" stroke-dasharray="1"/>
<polyline points="26.049999999999955 451.0000000000001 73.81961076527386 436.2330000564019" stroke="gray" stroke-dasharray="1"/>
<polyline points="76.05000000000007 451.0000000000001 120.43355724880541 427.9761027203905" stroke="gray" stroke-dasharray="1"/>
<polyline points="126.04999999999995 451.0000000000001 165.50226097675477 420.28324392417016" stroke="gray" stroke-dasharray="1"/>
<polyline points="176.05000000000007 451.0000000000001 210.8865323401634 415.133357914174" stroke="gray" stroke-dasharray="1"/>
<polyline points="226.04999999999995 451.0000000000001 258.96794819565537 413.36479458554606" stroke="gray" stroke-dasharray="1"/>
<polyline points="276.04999999999995 451.0000000000001 310.81476939488414 415.0637952905357" stroke="gray" stroke-dasharray="1"/>
<polyline points="326.05000000000007 451.0000000000001 365.4002178439629 420.1526280595467" stroke="gray" stroke-dasharray="1"/>
<polyline points="376.04999999999995 451.0000000000001 420.3540938265645 427.8235621760599" stroke="gray" stroke-dasharray="1"/>
<polyline points="426.05000000000007 451.0000000000001 473.7868012923076 436.12727992670034" stroke="gray" stroke-dasharray="1"/>
<polyline points="476.04999999999995 451.0000000000001 525.4802605548159 443.4734243189224" stroke="gray" stroke-dasharray="1"/>
<polyline points="-523.95 501 -473.95000000000005 501" stroke="gray" stroke-dasharray="1"/>
<polyline points="-473.95000000000005 501 -424.5197394451839 508.5265756810776" stroke="gray" stroke-dasharray="1"/>
<polyline points="-423.95000000000005 501 -376.6802099799407 517.2962250677725" stroke="gray" stroke-dasharray="1"/>
<polyline points="-373.95000000000005 501 -330.472749196853 525.6926843943759" stroke="gray" stroke-dasharray="1"/>
<polyline points="-323.95000000000005 501 -284.31195416818025 531.4766356843165" stroke="gray" stroke-dasharray="1"/>
<polyline points="-273.95000000000005 501 -235.93777014621855 533.4818469540032" stroke="gray" stroke-dasharray="1"/>
<polyline points="-223.95 501 -184.31195416818014 531.4766356843165" stroke="gray" stroke-dasharray="1"/>
<polyline points="-173.95 501 -130.47274919685293 525.6926843943759" stroke="gray" stroke-dasharray="1"/>
<polyline points="-123.95000000000005 501 -76.68020997994063 517.2962250677725" stroke="gray" stroke-dasharray="1"/>
<polyline points="-73.95000000000005 501 -24.519739445183916 508.5265756810776" stroke="gray" stroke-dasharray="1"/>
<polyline points="-23.950000000000045 501 26.049999999999955 501" stroke="gray" stroke-dasharray="1"/>
<polyline points="26.049999999999955 501 75.48026055481614 493.4734243189224" stroke="gray" stroke-dasharray="1"/>
<polyline points="76.05000000000007 501 123.31979002005937 484.7037749322275" stroke="gray" stroke-dasharray="1"/>
<polyline points="126.04999999999995 501 169.52725080314713 476.30731560562424" stroke="gray" stroke-dasharray="1"/>
<polyline points="176.05000000000007 501 215.68804583181986 470.5233643156836" stroke="gray" stroke-dasharray="1"/>
<polyline points="226.04999999999995 501 264.06222985378145 468.5181530459969" stroke="gray" stroke-dasharray="1"/>
<polyline points="276.04999999999995 501 315.68804583181986 470.5233643156836" stroke="gray" stroke-dasharray="1"/>
<polyline points="326.05000000000007 501 369.5272508031471 476.30731560562424" stroke="gray" stroke-dasharray="1"/>
<polyline points="376.04999999999995 501 423.3197900200594 484.7037749322275" stroke="gray" stroke-dasharray="1"/>
<polyline points="426.05000000000007 501 475.48026055481614 493.4734243189224" stroke="gray" stroke-dasharray="1"/>
<polyline points="476.04999999999995 501 526.05 501" stroke="gray" stroke-dasharray="1"/>
<polyline points="379.6564571296824 376.78144102636577 398.2875123745689 360.11159458250233 417.02385891898587 343.5601801967914 435.8722719353218 327.1364983085663 454.866331553638 310.8814775698577 474.0806181482999 294.8873789501106 493.63494761500885 279.31085176631916" stroke-dasharray="0"/>
<polyline points="-6.715352306735667 274.6527199301995 12.334118698999305 258.4626719252782 31.19292261319538 242.05092263015717 50.163740883572586 225.76878351539938 69.50310314573949 209.92614903458548 89.38314098281512 194.7675179751384 109.8735340859979 180.44467641080337 130.95051691099582 166.99994528687444 152.52633588353626 154.37124639648334 174.4845576674453 142.41982405064255 196.70876760268663 130.9706104202519 219.1002329388399 119.85205475416637 241.5866140942943 108.92673267508644 264.12569307508465 98.11054486709747 286.70686137576183 87.38250505655935 309.35114994265666 76.78834651049272 332.1090991166001 66.4406052402345 355.054973271746 56.51655066278465 378.27565338329975 47.2537209031002 401.853078099237 38.94077655321337 425.8408120088808 31.898857647110958" stroke-dasharray="0"/>
<polyline points="21.65914038517417 81.97544530810353 46.38158293937806 78.26049791223284 71.27913111767293 75.99950372615285 96.24180695802602 74.63392147324737 121.2202146860983 73.59510129141484 146.19020297663394 72.37048511868431 171.12357075355203 70.54643158302713 195.9758997968172 67.8331787151069 220.6917700376506 64.07475374734645 245.22078446054536 59.24490370397871 269.5355474281048 53.43178906280707 293.6445126084409 46.816821343056404 317.5963039529594 39.65360339379299 341.4751492125288 32.25085059030562 365.388343058735 24.959817736603554 389.44680249872044 18.16345625603344 413.7401962791711 12.261675285177205 438.31020979119523 7.644919279175781 463.12995501801106 4.648213274918476 488.10277719158273 3.482815193930037" stroke-dasharray="0"/>
<polyline points="265.8551590432488 466.9856387065024 283.76653134072694 449.5448032213218 301.35959507808184 431.78293090071986 318.7365311027911 413.8095590859167 335.97011753452705 395.6986922182075 353.108410860811 377.4976235171051 370.18310608584954 359.23687920116765 387.22185293299435 340.9425875811319 404.26404354921567 322.6515039882886 421.377964549618 304.4275168287237 438.6750870701103 286.3773214693631 456.3154997481332 268.6624734443575 474.49828268684234 251.50478115769522 493.4330229165321 235.1807004045819" stroke-dasharray="0"/>
<polyline points="-310.18337388690895 181.16705418419042 -295.57613152611555 160.87842508774725 -281.67534532562524 140.09939375786428 -268.02144612720605 119.15730607111709 -254.11245863322978 98.38376359775907 -239.4769354866591 78.11552582961065 -223.72668992777295 58.70084672243024 -206.58675541666878 40.50132351562456 -187.90671728642366 23.886385193362003 -167.66037643310506 9.220585452084947 -145.94050054908683 -3.158711441634125 -122.95022002131554 -12.979454858218276 -98.98248646324691 -20.08914881010071 -74.37764452228623 -24.51653551789383 -49.45521900707172 -26.484454834985797 -24.4556631653046 -26.335432305266636 0.468754967013183 -24.3929131250797 25.221005971273257 -20.88206276909682 49.769055355376736 -16.14990983035767 74.15759411983629 -10.654532051309786 98.48344871977395 -4.88800814320939" stroke-dasharray="0"/>
<polyline points="-84.28285599970076 -406.1758574253748 -59.45823804896861 -403.21978848162746 -35.016005231143936 -397.96838344304456 -11.165884733449047 -390.4736017754151 11.85366641690473 -380.7216653094488 33.74554085124271 -368.6491413914281 54.21258290795515 -354.2929514564641 73.05826235579809 -337.8661329528965 90.27913781025245 -319.74317931442545 106.1012432039796 -300.38701799794046 120.94926687105647 -280.2739328745208 135.37497656154096 -259.85583061388303 149.97638845106815 -239.5630050138742 165.32226520631366 -219.82714763161647 181.88350975180947 -201.0994894997441 199.97383405375479 -183.8443405102267 219.71070712332858 -168.49977008823276 241.01208018762884 -155.41346023497368 263.6362704435476 -144.77644865915988 287.2546835670745 -136.5806838061148 311.53250152866644 -130.61515323257788" stroke-dasharray="0"/>
<polyline points="417.35955063734946 -414.9304325575732 442.3578841775893 -415.21908496257316 467.2499658662748 -417.53948777325263 491.9310689717447 -421.5198331724812" stroke-dasharray="0"/>
<polyline points="-102.35510016540627 -129.17706336474566 -77.82903810490984 -124.33224347080994 -53.69429363364878 -117.81195902096158 -29.93977927686086 -110.01945957128834 -6.515958456515023 -101.28306339343953 16.612147674802372 -91.7914509498911 39.51239231297916 -81.76255292908877 62.30979179701956 -71.50201801296112 85.15540314798636 -61.34928232248973 108.19629355589791 -51.647871641015854 131.55216217808288 -42.731403679808466 155.29847006167108 -34.91393210020959 179.45514826389444 -28.475384264382967 203.98254526371193 -23.637327173634787 228.788811734232 -20.53102007459364 253.75157111029546 -19.16696570149867 278.75030636756117 -19.418432472946563 303.69851266012597 -21.026848707516365 328.56294263022187 -23.62687221937108 353.3631649775426 -26.781071249783736 378.1532378935765 -30.014070602973334" stroke-dasharray="0"/>
<polyline points="-335.45228291491196 -402.2536460866529 -311.6471489032037 -409.89011088946654 -288.4926695992632 -419.3172041935232 -265.94881362956676 -430.12343193578295 -243.88324618153956 -441.87548423300166 -222.10050523160345 -454.1438254700221 -200.3743823523978 -466.5121553749712 -178.4803534272736 -478.5807715933214 -156.22691523611843 -489.973071127324 -133.48277203416052 -500.35112248626564" stroke-dasharray="0"/>
<polyline points="113.85867247175656 -297.4772846397161 128.5514956145421 -277.2505461953987 142.99896963119613 -256.84783817567484 157.79669211551584 -236.69771635775368 173.49143624392843 -217.2381427050845 190.51433771565303 -198.92910598864427 209.1246775497184 -182.2361358736348 229.3783493254956 -167.5804619007638 251.13679083819807 -155.26907599428245 274.1197687518177 -145.43125478112393 297.98569671020095 -137.98696282787148 322.410910437482 -132.65695960304708 347.14281824315697 -129.0055576405676 372.0166215158215 -126.49679086129447 396.9405086869226 -124.5474709075113 421.8623280582368 -122.57189017679184 446.7322154089362 -120.02459687535992 471.4757550617235 -116.45286823911812 495.9933179626636 -111.56521958169168" stroke-dasharray="0"/>
<polyline points="-54.75926250559007 -350.97798831184923 -31.93171971052351 -340.78469198831357 -10.250877050403574 -328.3371596406102 10.0812755431499 -313.7905596628677 28.917467009067536 -297.35286240749485 46.272076967653334 -279.3579321996458 62.37086944304633 -260.2312785238397 77.6294056838384 -240.42781741754732 92.57879143125945 -220.38995660919738 107.77588312862201 -200.5393041276805 123.72400545949972 -181.28683950313547 140.81398909722134 -163.0404026108978 159.28837642406927 -146.1970949518422 179.23027726968712 -131.11994035743862 200.5758212430094 -118.1058037175012 223.1450916676962 -107.35275612635957 246.6844401426174 -98.9325973762987 270.9137557622644 -92.77303045941778 295.57221026401976 -88.654702936641 320.4540189664277 -86.22661815707181 345.42570741277723 -85.03717453148153" stroke-dasharray="0"/>
<polyline points="-312.1717369321145 -63.89746480039503 -289.9322016867503 -75.31688125090602 -267.51337960689125 -86.38017264866033 -244.70609398891867 -96.618713694152 -221.36365521509828 -105.57028071286152 -197.43012531189083 -112.79427866221579 -172.95836583493895 -117.90632209925894 -148.10746869769184 -120.63265873914105 -123.10858929652011 -120.86936253224769 -98.20148260377903 -118.71621688078466 -73.56680942381644 -114.45794524590355 -49.289219860286494 -108.4914852414471 -25.36871951349309 -101.22445949778438 -1.7703483067634807 -92.9711646169871 21.531464750580994 -83.91437113140012 44.61112547141374 -74.30555949773543 67.59697055345725 -64.47443922259401 90.63936515868454 -54.77660179062025 113.88107426059685 -45.56666378745848 137.4343174370523 -37.1854505178444 161.36420295385176 -29.949389493165768" stroke-dasharray="0"/>
<polyline points="-116.48054611018335 54.5720591141087 -94.08400294813833 43.463735460620114 -70.55636861345937 35.010900278644954 -46.265538093424766 29.098578175870443 -21.529690917411074 25.473958956573824 3.419474393877408 23.880487817833455 28.418398583806493 24.112413120859628 53.36147672826178 25.798489240018398 78.22194166530926 28.43615546489059 103.03629953888662 31.477149269887946 127.86624384517643 34.38813977941345 152.7598770459948 36.69183812405663 177.72567892950542 37.999024535130616 202.72565126602376 38.03621557322424 227.68806427408583 36.665837225855284 252.5337623245756 33.89252000925569 277.20518983998886 29.8526358089714 301.6874362546457 24.791053991790363 326.0154026150652 19.033445741283685 350.2668025356156 12.961411329858606 374.54388855333275 6.992902765035922" stroke-dasharray="0"/>
<polyline points="219.8078104486732 341.9106989466269 233.3153680953768 320.87392432642946 246.82292574208032 299.83714970623214 260.3304833887838 278.8003750860347 273.8380410354873 257.7636004658374 287.3455986821908 236.72682584563995 300.85315632889444 215.69005122544263 314.36071397559795 194.6532766052452 329.23378861431183 174.5587089116808 345.57514959801927 155.63888012809593 363.34297106095585 138.05182464796485 382.45804473125804 121.93928423439502 402.8310850424989 107.45000445669189 424.3692138425595 94.75713213432141 446.9630169554406 84.0557275117327 470.46420812356007 75.52964906501984 494.67120234358447 69.28293546251643" stroke-dasharray="0"/>
<polyline points="-50.49739394319596 -218.1053723823042 -30.009524939942082 -203.7789204940833 -10.069680558810774 -188.69904628849838 9.495740503896172 -173.13645336061575 28.878563840189486 -157.34702146728768 48.308190788465936 -141.61521938835176 68.01656018058543 -126.23405636653285 88.20715883547405 -111.4916099631298 109.03527880216984 -97.66448377389861 130.5989339935254 -85.01502628401681 152.9363568351572 -73.788292974895 176.0263050309435 -64.20422847616038 199.79043010341888 -56.44108738896193 224.10071119380666 -50.60925806135543 248.7964305633958 -46.7206278631362 273.7117276349994 -44.6644246062217 298.707428569281 -44.200813989483436 323.6954029520052 -44.97614375694667 348.6455868807923 -46.55358533104618 373.57368868741844 -48.44824633462372 398.51504417948536 -50.159616025351966" stroke-dasharray="0"/>
<polyline points="-320.49276067487966 332.27500415091515 -295.99320938729295 327.2978577087347 -271.5761684479633 321.9305388466678 -247.35065904575595 315.75601909177476 -223.47168232478185 308.35369035284566 -200.14476330395757 299.3617579133804 -177.60248349781205 288.5522426078061 -156.04403772370586 275.8939087599048 -135.55319160238588 261.57171530944527 -116.034707980794 245.9502942116818 -97.20662671861965 229.50330798365326 -78.65406943504644 212.74614180796186 -59.91995435034647 196.19220173336873 -40.59912824730577 180.3269668250523 -20.406668901816545 165.58706907843396 0.8007393350858365 152.34902406138679 23.021803036967526 140.89370529860616 46.098877516715106 131.2786840580584 69.79861796687021 123.32115287085696 93.8933265379859 116.6544431221871 118.20265253435082 110.81863387218118" stroke-dasharray="0"/>
<polyline points="358.84781412256893 472.70327162757667 381.03162377614126 461.1759740581517 403.7504732445965 450.7426678309929 426.96585567144666 441.4665685012584 450.6067567904495 433.33589852385 474.59488432985825 426.295320624767 498.8692913826268 420.3159258195627" stroke-dasharray="0"/>
<polyline points="203.19573990123752 138.33818458501014 224.9544984405261 126.02735899007394 246.92208955525984 114.09316690950686 269.0421174668202 102.44394525345649 291.2912844891895 91.04330637615169 313.6799959980508 79.9192065486161 336.249848052571 69.16737980907669 359.0670211937073 58.95089265118327 382.21014119933557 49.4959470455708 405.75163988519705 41.08180183505874 429.73351208874305 34.019946157350205 454.14234907282173 28.61544089926508 478.89456153215815 25.104318803998467" stroke-dasharray="0"/>
<polyline points="-81.83820460220852 236.84550420416076 -63.07112868240472 220.32894095933523 -44.17255609501757 203.96300211797143 -24.752974168883384 188.21880198540953 -4.52242050873474 173.5312324586347 16.678334591586463 160.28253504431495 38.82841333135195 148.69055454820523 61.76751087313335 138.75084610335443 85.2776976546337 130.24960398828853 109.15013588746217 122.82621575785151 133.21674703006795 116.05877694315939 157.3522798013222 109.54141107590067 181.46416272487124 102.93708659257413 205.4837695614723 96.00466368170726 229.36390937989745 88.60608799090937 253.081238829452 80.70113487395213 276.6402911783 72.33626473603374 300.0762320453058 63.63243364402581 323.454413629289 54.7746333625613 346.8653992379968 46.00390062071631 370.4143702939274 37.610691329453175" stroke-dasharray="0"/>
<polyline points="-497.8195844324408 -104.02186750826684 -473.7625954898032 -97.22030276081267 -449.13790002792297 -92.90470623082325 -424.20100050073626 -91.1295887780908 -399.2114312872397 -91.85169024178157 -374.39391619164945 -94.86680955619545 -349.8858871739046 -99.80204143173847 -325.70734728594533 -106.15799996577266 -301.7701453460114 -113.36982104555733 -277.9174945567386 -120.8565459854093 -253.9742969641349 -128.0484364908005 -229.79460934843365 -134.40002737868878 -205.30053048522473 -139.4040358362057 -180.50817217008773 -142.61946258453247 -155.53233325379972 -143.71831217734973 -130.56012553095474 -142.53982100339977 -105.79437651624994 -139.1254871385516 -81.3884666273957 -133.70777890562442 -57.40610943626274 -126.64757044149866 -33.82616232359425 -118.34178365373697 -10.586157561344066 -109.12754583118272" stroke-dasharray="0"/>
<polyline points="110.50638813092485 -478.94535538583835 132.38703183623045 -466.8524884370347 153.04804038287875 -452.7768809604345 172.59321378540028 -437.18886644076696 191.28309341415297 -420.58499943748313 209.48921993214037 -403.4520791606875 227.646943234515 -386.267868836253 246.20889508441599 -369.5211096416519 265.5915851395438 -353.73151413616637 286.1103015858614 -339.44927777782175 307.9117903811848 -327.2142834456863 330.9341133488912 -317.468892475047 354.9290192036084 -310.4514504180538 379.5524345315316 -306.12855583356554 404.4788633652024 -304.2120106084413 429.478830608066 -304.2524810390146 454.4330764925087 -305.76430521489397 479.2991372488161 -308.3486856945513" stroke-dasharray="0"/>
<polyline points="44.998964861893455 267.1580160695587 63.284775232954644 250.11016755211836 81.5357411805254 233.0250207286166 100.04314458762656 216.21799781773734 119.02725444683767 199.951357941801 138.60692225563537 184.40669298892635 158.79951703223196 169.6669807736838 179.5459560332804 155.71759839395907 200.7465163548004 142.4685892969137 222.29344287642232 129.7906573886005 244.0934824728323 117.55308109282385 266.08048845892506 105.65469600208473 288.22118127457134 94.044798429617 310.5166489556274 82.73497434243586 333.0004444337833 71.8043320513143 355.73266331927016 61.40018746647172 378.78867848292566 51.734776726451855 402.24144512761984 43.07638561092028 426.13786052898797 35.73054794832149 450.4732743510365 30.004499213840404 475.17407507086045 26.148277773163045" stroke-dasharray="0"/>
<polyline points="206.59910827265605 -97.99250015806047 230.01454400738112 -89.233654951473 254.14708246846703 -82.70521046413864 278.75038192685815 -78.26926008561406 303.61327318592055 -75.65456349900182 328.58542626450355 -74.47491498363178 353.584512455747 -74.26116371982425 378.5833964066062 -74.49738652032772 403.58290082994847 -74.65479867770341 428.5792048059135 -74.22492946368601 453.5362522847345 -72.76008095961595 478.37542261775195 -69.92889442967027" stroke-dasharray="0"/>
<polyline points="-391.9194254032287 326.868813898746 -368.4353835996798 318.2956125964803 -345.02320941332187 309.5280530804215 -321.8138118612129 300.23698934863273 -298.98265963508027 290.0517800710991 -276.7540481950051 278.61111429300024 -255.38696851656158 265.63236604769384 -235.12679419566751 250.98568258395414 -216.12185754403043 234.74338031896536 -198.3343490144041 217.1762365468984 -181.49458840057002 198.69861596228952 -165.1286461305467 179.80004634408135 -148.64758067578043 161.00178893878683 -131.46427307316077 142.84321135589903 -113.10826293823885 125.87097249572969 -93.31472568739338 110.59956512445603 -72.0606593480772 97.43656151418736 -49.5283749625699 86.60622632220804 -26.00921048508809 78.12985314253035 -1.7972585875862706 71.90238292477295 22.863276531519205 67.7965325086758" stroke-dasharray="0"/>
<polyline points="-264.92040932041664 -494.9179188514855 -245.70027432721685 -510.9049889658991" stroke-dasharray="0"/>
<polyline points="351.5939761950192 -145.12943192922324 376.4208608848552 -142.1924612794565 401.31359966550474 -139.87911824429204 426.208616449768 -137.59042007475364 451.04906700551146 -134.77048812740742 475.75735937716433 -130.96256374830995 500.23548086528467 -125.88107101360976" stroke-dasharray="0"/>
<polyline points="-386.4611347715511 481.054645408075 -363.58195525875647 491.131507261912 -341.91919211641914 503.61047729308814" stroke-dasharray="0"/>
<polyline points="-279.928254891228 -439.26248939534685 -258.2596922878917 -451.73138648792474 -237.07612059436622 -465.0075414397648 -216.15189418536107 -478.6887968348187 -195.24661384012393 -492.39898478710586 -174.1376507236414 -505.7934491715813" stroke-dasharray="0"/>
<polyline points="-179.4650900790408 -45.48681520832753 -156.39493617047765 -55.11842974770826 -132.38633376181855 -62.088868068425825 -107.73937630527786 -66.27545237254242 -82.78467638744502 -67.7797635141996 -57.799947792759895 -66.90607189244588 -32.96148033129913 -64.06872556780507 -8.353243868317236 -59.66024531016819 15.982170770273683 -53.93420004595231 40.04763543806007 -47.16268542044014 63.918010722485405 -39.73266632351323 87.71575620652368 -32.07320747337684 111.57667728614501 -24.612882732986236 135.6188123498855 -17.75899758827711 159.91851411542962 -11.883242819261454 184.49528006871594 -7.302568711950471 209.30841298939288 -4.251595971852055 234.2691793610012 -2.851545207777235 259.26807172344934 -3.086876146522684 284.2092935660313 -4.800192521017891 309.03959612435233 -7.708125612104425" stroke-dasharray="0"/>
<polyline points="-306.5465139304212 -387.0027118538787 -282.7165117249041 -394.56121665873576 -259.2891681660379 -403.28816193041314 -236.13667353969254 -412.72012845797514 -213.08179851964695 -422.3882584638282 -189.9325694966472 -431.82823704646853 -166.51733585424643 -440.5876224970457 -142.7176504022234 -448.24105129626804 -118.49299351190189 -454.41891488704084 -93.88801620713343 -458.8455492554783 -69.01583242826109 -461.37032133826096 -44.02294503073398 -461.96662623890285 -19.05615127585395 -460.6785231369417 5.742404679677179 -457.51124946382976 30.19749708080724 -452.320059267719 54.06488203691765 -444.88043996584383 77.04529903632374 -435.0366381325374 98.8484083566027 -422.804531855695 119.28176116372276 -408.40043198587483 138.32107889130248 -392.1984450562335 156.13124748918756 -374.654275240739" stroke-dasharray="0"/>
<circle cx="493.63494761500885" cy="279.31085176631916" r="1" stroke="red" stroke-dasharray="0"/>
<circle cx="425.8408120088808" cy="31.898857647110958" r="1" stroke="red" stroke-dasharray="0"/>
<circle cx="488.10277719158273" cy="3.482815193930037" r="1" stroke="red" stroke-dasharray="0"/>
<circle cx="493.4330229165321" cy="235.1807004045819" r="1" stroke="red" stroke-dasharray="0"/>
<circle cx="98.48344871977395" cy="-4.88800814320939" r="1" stroke="red" stroke-dasharray="0"/>
<circle cx="311.53250152866644" cy="-130.61515323257788" r="1" stroke="red" stroke-dasharray="0"/>
<circle cx="491.9310689717447" cy="-421.5198331724812" r="1" stroke="red" stroke-dasharray="0"/>
<circle cx="378.1532378935765" cy="-30.014070602973334" r="1" stroke="red" stroke-dasharray="0"/>
<circle cx="-133.48277203416052" cy="-500.35112248626564" r="1" stroke="red" stroke-dasharray="0"/>
<circle cx="495.9933179626636" cy="-111.56521958169168" r="1" stroke="red" stroke-dasharray="0"/>
<circle cx="345.42570741277723" cy="-85.03717453148153" r="1" stroke="red" stroke-dasharray="0"/>
<circle cx="161.36420295385176" cy="-29.949389493165768" r="1" stroke="red" stroke-dasharray="0"/>
<circle cx="374.54388855333275" cy="6.992902765035922" r="1" stroke="red" stroke-dasharray="0"/>
<circle cx="494.67120234358447" cy="69.28293546251643" r="1" stroke="red" stroke-dasharray="0"/>
<circle cx="398.51504417948536" cy="-50.159616025351966" r="1" stroke="red" stroke-dasharray="0"/>
<circle cx="118.20265253435082" cy="110.81863387218118" r="1" stroke="red" stroke-dasharray="0"/>
<circle cx="498.8692913826268" cy="420.3159258195627" r="1" stroke="red" stroke-dasharray="0"/>
<circle cx="478.89456153215815" cy="25.104318803998467" r="1" stroke="red" stroke-dasharray="0"/>
<circle cx="370.4143702939274" cy="37.610691329453175" r="1" stroke="red" stroke-dasharray="0"/>
<circle cx="-10.586157561344066" cy="-109.12754583118272" r="1" stroke="red" stroke-dasharray="0"/>
<circle cx="479.2991372488161" cy="-308.3486856945513" r="1" stroke="red" stroke-dasharray="0"/>
<circle cx="475.17407507086045" cy="26.148277773163045" r="1" stroke="red" stroke-dasharray="0"/>
<circle cx="478.37542261775195" cy="-69.92889442967027" r="1" stroke="red" stroke-dasharray="0"/>
<circle cx="22.863276531519205" cy="67.7965325086758" r="1" stroke="red" stroke-dasharray="0"/>
<circle cx="-245.70027432721685" cy="-510.9049889658991" r="1" stroke="red" stroke-dasharray="0"/>
<circle cx="500.23548086528467" cy="-125.88107101360976" r="1" stroke="red" stroke-dasharray="0"/>
<circle cx="-341.91919211641914" cy="503.61047729308814" r="1" stroke="red" stroke-dasharray="0"/>
<circle cx="-174.1376507236414" cy="-505.7934491715813" r="1" stroke="red" stroke-dasharray="0"/>
<circle cx="309.03959612435233" cy="-7.708125612104425" r="1" stroke="red" stroke-dasharray="0"/>
<circle cx="156.13124748918756" cy="-374.654275240739" r="1" stroke="red" stroke-dasharray="0"/>
</svg>