<svg viewBox="-399.5 -474.5508323606268 806 958.6279441628825" xmlns="http://www.w3.org/2000/svg">
<style type="text/css">
svg { stroke:black; stroke-width:2; fill:none; transform:scale(1,-1);}
</style>
<polyline points="-346.5 -298.34575160373913 -246.5 -298.34575160373913 -196.5 -384.948291982183 -246.5 -471.5508323606268 -346.5 -471.5508323606268 -246.5 -471.5508323606268 -196.5 -384.948291982183 -246.5 -471.5508323606268 -196.5 -384.948291982183 -246.5 -298.34575160373913 -196.5 -384.948291982183 -96.5 -384.948291982183 -46.5 -471.5508323606268 -96.5 -384.948291982183 -46.5 -298.34575160373913 -96.5 -384.948291982183 -196.5 -384.948291982183 -246.5 -471.5508323606268 -196.5 -384.948291982183 -246.5 -471.5508323606268 -196.5 -384.948291982183"/>
<polyline points="103.5 -38.53813046840753 53.5 -125.14067084685138 103.5 -38.53813046840753 53.5 48.064409910036375 103.5 -38.53813046840753 53.5 48.064409910036375 103.5 134.66695028848017 203.5 134.66695028848017 253.5 221.26949066692407 353.5 221.26949066692407 403.5 134.66695028848017 353.5 48.064409910036375 403.5 -38.53813046840753 353.5 48.064409910036375 403.5 -38.53813046840753 353.5 -125.14067084685138 253.5 -125.14067084685138 203.5 -211.74321122529523 253.5 -298.34575160373913 353.5 -298.34575160373913 253.5 -298.34575160373913"/>
<circle cx="-346.5" cy="-471.5508323606268" r="1"/>
<circle cx="-246.5" cy="-471.5508323606268" r="1"/>
<circle cx="-46.5" cy="-471.5508323606268" r="1"/>
<circle cx="53.5" cy="-471.5508323606268" r="1"/>
<circle cx="253.5" cy="-471.5508323606268" r="1"/>
<circle cx="353.5" cy="-471.5508323606268" r="1"/>
<circle cx="-396.5" cy="-384.948291982183" r="1"/>
<circle cx="-196.5" cy="-384.948291982183" r="1"/>
<circle cx="-96.5" cy="-384.948291982183" r="1"/>
<circle cx="103.5" cy="-384.948291982183" r="1"/>
<circle cx="203.5" cy="-384.948291982183" r="1"/>
<circle cx="403.5" cy="-384.948291982183" r="1"/>
<circle cx="-346.5" cy="-298.34575160373913" r="1"/>
<circle cx="-246.5" cy="-298.34575160373913" r="1"/>
<circle cx="-46.5" cy="-298.34575160373913" r="1"/>
<circle cx="53.5" cy="-298.34575160373913" r="1"/>
<circle cx="253.5" cy="-298.34575160373913" r="1"/>
<circle cx="353.5" cy="-298.34575160373913" r="1"/>
<circle cx="-396.5" cy="-211.74321122529523" r="1"/>
<circle cx="-196.5" cy="-211.74321122529523" r="1"/>
<circle cx="-96.5" cy="-211.74321122529523" r="1"/>
<circle cx="103.5" cy="-211.74321122529523" r="1"/>
<circle cx="203.5" cy="-211.74321122529523" r="1"/>
<circle cx="403.5" cy="-211.74321122529523" r="1"/>
<circle cx="-346.5" cy="-125.14067084685138" r="1"/>
<circle cx="-246.5" cy="-125.14067084685138" r="1"/>
<circle cx="-46.5" cy="-125.14067084685138" r="1"/>
<circle cx="53.5" cy="-125.14067084685138" r="1"/>
<circle cx="253.5" cy="-125.14067084685138" r="1"/>
<circle cx="353.5" cy="-125.14067084685138" r="1"/>
<circle cx="-396.5" cy="-38.53813046840753" r="1"/>
<circle cx="-196.5" cy="-38.53813046840753" r="1"/>
<circle cx="-96.5" cy="-38.53813046840753" r="1"/>
<circle cx="103.5" cy="-38.53813046840753" r="1"/>
<circle cx="203.5" cy="-38.53813046840753" r="1"/>
<circle cx="403.5" cy="-38.53813046840753" r="1"/>
<circle cx="-346.5" cy="48.064409910036375" r="1"/>
<circle cx="-246.5" cy="48.064409910036375" r="1"/>
<circle cx="-46.5" cy="48.064409910036375" r="1"/>
<circle cx="53.5" cy="48.064409910036375" r="1"/>
<circle cx="253.5" cy="48.064409910036375" r="1"/>
<circle cx="353.5" cy="48.064409910036375" r="1"/>
<circle cx="-396.5" cy="134.66695028848017" r="1"/>
<circle cx="-196.5" cy="134.66695028848017" r="1"/>
<circle cx="-96.5" cy="134.66695028848017" r="1"/>
<circle cx="103.5" cy="134.66695028848017" r="1"/>
<circle cx="203.5" cy="134.66695028848017" r="1"/>
<circle cx="403.5" cy="134.66695028848017" r="1"/>
<circle cx="-346.5" cy="221.26949066692407" r="1"/>
<circle cx="-246.5" cy="221.26949066692407" r="1"/>
<circle cx="-46.5" cy="221.26949066692407" r="1"/>
<circle cx="53.5" cy="221.26949066692407" r="1"/>
<circle cx="253.5" cy="221.26949066692407" r="1"/>
<circle cx="353.5" cy="221.26949066692407" r="1"/>
<circle cx="-396.5" cy="307.87203104536786" r="1"/>
<circle cx="-196.5" cy="307.87203104536786" r="1"/>
<circle cx="-96.5" cy="307.87203104536786" r="1"/>
<circle cx="103.5" cy="307.87203104536786" r="1"/>
<circle cx="203.5" cy="307.87203104536786" r="1"/>
<circle cx="403.5" cy="307.87203104536786" r="1"/>
<circle cx="-346.5" cy="394.47457142381177" r="1"/>
<circle cx="-246.5" cy="394.47457142381177" r="1"/>
<circle cx="-46.5" cy="394.47457142381177" r="1"/>
<circle cx="53.5" cy="394.47457142381177" r="1"/>
<circle cx="253.5" cy="394.47457142381177" r="1"/>
<circle cx="353.5" cy="394.47457142381177" r="1"/>
<circle cx="203.5" cy="481.0771118022557" r="1"/>
<circle cx="-196.5" cy="481.0771118022557" r="1"/>
<circle cx="-96.5" cy="481.0771118022557" r="1"/>
<circle cx="103.5" cy="481.0771118022557" r="1"/>
</svg>