<svg transform="scale(1,-1)" viewBox="-181.16491934398496 -171.03840091797312 340.62265195048735 325.88013203257583" xmlns="http://www.w3.org/2000/svg">
<style>
svg { stroke:black; stroke-width:2; fill:none;}
</style>
<polyline points="-106.7822964539651 102.45140436883304 -126.34757543920733 5.164204267386202" stroke="gray" stroke-dasharray="6"/>
<polyline points="-106.7822964539651 102.45140436883304 -65.18925196693745 24.294445010854474" stroke="gray" stroke-dasharray="6"/>
<polyline points="-107.4006938608349 151.84173111460274 156.45773260650236 29.731165475280523" stroke="gray" stroke-dasharray="6"/>
<polyline points="-131.0918991361957 -136.74280998075324 -178.16491934398496 27.841147686782524" stroke="gray" stroke-dasharray="6"/>
<polyline points="-131.0918991361957 -136.74280998075324 2.662996937780032 -7.090547957864167" stroke="gray" stroke-dasharray="6"/>
<polyline points="-131.0918991361957 -136.74280998075324 -65.18925196693745 24.294445010854474" stroke="gray" stroke-dasharray="6"/>
<polyline points="145.94813419972203 -97.00921693533385 58.95857434245395 -40.89721179288358" stroke="gray" stroke-dasharray="6"/>
<polyline points="145.94813419972203 -97.00921693533385 70.55136402598258 -105.64719317767906" stroke="gray" stroke-dasharray="6"/>
<polyline points="156.45773260650236 29.731165475280523 145.94813419972203 -97.00921693533385" stroke="gray" stroke-dasharray="6"/>
<polyline points="156.45773260650236 29.731165475280523 4.821552918246018 21.810225179938058" stroke="gray" stroke-dasharray="6"/>
<polyline points="156.45773260650236 29.731165475280523 -48.61641944073626 100.3351996052058" stroke="gray" stroke-dasharray="6"/>
<polyline points="-178.16491934398496 27.841147686782524 -106.7822964539651 102.45140436883304" stroke="gray" stroke-dasharray="6"/>
<polyline points="-178.16491934398496 27.841147686782524 -107.4006938608349 151.84173111460274" stroke="gray" stroke-dasharray="6"/>
<polyline points="2.662996937780032 -7.090547957864167 4.821552918246018 21.810225179938058" stroke="gray" stroke-dasharray="6"/>
<polyline points="2.662996937780032 -7.090547957864167 70.55136402598258 -105.64719317767906" stroke="gray" stroke-dasharray="6"/>
<polyline points="2.662996937780032 -7.090547957864167 -95.74084072963915 -168.03840091797312" stroke="gray" stroke-dasharray="6"/>
<polyline points="-48.61641944073626 100.3351996052058 -107.4006938608349 151.84173111460274" stroke="gray" stroke-dasharray="6"/>
<polyline points="-48.61641944073626 100.3351996052058 -65.18925196693745 24.294445010854474" stroke="gray" stroke-dasharray="6"/>
<polyline points="5.3276737999792605 58.63038619991114 156.45773260650236 29.731165475280523" stroke="gray" stroke-dasharray="6"/>
<polyline points="5.3276737999792605 58.63038619991114 -48.61641944073626 100.3351996052058" stroke="gray" stroke-dasharray="6"/>
<polyline points="58.95857434245395 -40.89721179288358 4.821552918246018 21.810225179938058" stroke="gray" stroke-dasharray="6"/>
<polyline points="-65.18925196693745 24.294445010854474 2.662996937780032 -7.090547957864167" stroke="gray" stroke-dasharray="6"/>
<polyline points="-65.18925196693745 24.294445010854474 4.821552918246018 21.810225179938058" stroke="gray" stroke-dasharray="6"/>
<polyline points="70.55136402598258 -105.64719317767906 121.82164999266918 -117.67180401550577" stroke="gray" stroke-dasharray="6"/>
<polyline points="-84.07381488277329 106.96755123753638 -107.4006938608349 151.84173111460274" stroke="gray" stroke-dasharray="6"/>
<polyline points="-84.07381488277329 106.96755123753638 -65.18925196693745 24.294445010854474" stroke="gray" stroke-dasharray="6"/>
<polyline points="89.78494983447771 -140.2673299676036 -95.74084072963915 -168.03840091797312" stroke="gray" stroke-dasharray="6"/>
<polyline points="-9.161635400683247 61.37112530685543 4.821552918246018 21.810225179938058" stroke="gray" stroke-dasharray="6"/>
<polyline points="0.15984440144036563 -0.3742519271736952 2.662996937780032 -7.090547957864167"/>
<polyline points="-106.7822964539651 102.45140436883304 -107.4006938608349 151.84173111460274"/>
<polyline points="121.82164999266918 -117.67180401550577 89.78494983447771 -140.2673299676036"/>
<polyline points="-126.34757543920733 5.164204267386202 -131.0918991361957 -136.74280998075324"/>
<polyline points="145.94813419972203 -97.00921693533385 121.82164999266918 -117.67180401550577"/>
<polyline points="-178.16491934398496 27.841147686782524 -126.34757543920733 5.164204267386202"/>
<polyline points="2.662996937780032 -7.090547957864167 58.95857434245395 -40.89721179288358"/>
<polyline points="4.821552918246018 21.810225179938058 0.15984440144036563 -0.3742519271736952"/>
<polyline points="4.821552918246018 21.810225179938058 5.3276737999792605 58.63038619991114"/>
<polyline points="-48.61641944073626 100.3351996052058 -84.07381488277329 106.96755123753638"/>
<polyline points="5.3276737999792605 58.63038619991114 -9.161635400683247 61.37112530685543"/>
<polyline points="58.95857434245395 -40.89721179288358 156.45773260650236 29.731165475280523"/>
<polyline points="-65.18925196693745 24.294445010854474 0.15984440144036563 -0.3742519271736952"/>
<polyline points="-65.18925196693745 24.294445010854474 -126.34757543920733 5.164204267386202"/>
<polyline points="70.55136402598258 -105.64719317767906 58.95857434245395 -40.89721179288358"/>
<polyline points="70.55136402598258 -105.64719317767906 89.78494983447771 -140.2673299676036"/>
<polyline points="-84.07381488277329 106.96755123753638 -106.7822964539651 102.45140436883304"/>
<polyline points="-9.161635400683247 61.37112530685543 -48.61641944073626 100.3351996052058"/>
<polyline points="-9.161635400683247 61.37112530685543 -65.18925196693745 24.294445010854474"/>
<polyline points="-95.74084072963915 -168.03840091797312 -131.0918991361957 -136.74280998075324"/>
<polyline points="-95.74084072963915 -168.03840091797312 70.55136402598258 -105.64719317767906"/>
</svg>